<svg width="761" height="446" viewBox="0 0 761 446" fill="none" xmlns="http://www.w3.org/2000/svg">
<g style="mix-blend-mode:multiply" opacity="0.2">
<path d="M176.578 448.364L107.322 488.345L89.2692 498.769L2.00003 448.364L89.2692 398L106.923 408.145L176.578 448.364Z" fill="white" stroke="#272747" stroke-width="3" stroke-linejoin="round"/>
<path d="M380.32 240.258V341.027L293.05 391.431V290.622L380.32 240.258Z" fill="white" stroke="#272747" stroke-width="3" stroke-linejoin="round"/>
<path d="M293.272 391.431L206.003 341.027V240.258L293.272 290.622V391.431Z" fill="white" stroke="#272747" stroke-width="3" stroke-linejoin="round"/>
<path d="M380.579 240.364L311.323 280.345L293.27 290.769L206.001 240.364L293.27 190L310.923 200.145L380.579 240.364Z" fill="white" stroke="#272747" stroke-width="3" stroke-linejoin="round"/>
<path d="M691.27 132.996V233.765L778.539 284.169V183.361L691.27 132.996Z" fill="white" stroke="#272747" stroke-width="3" stroke-linejoin="round"/>
<path d="M691.01 133.107L760.267 173.087L778.32 183.511L865.589 133.107L778.32 82.7422L760.666 92.887L691.01 133.107Z" fill="white" stroke="#272747" stroke-width="3" stroke-linejoin="round"/>
<path d="M621.31 242.859V343.628L534.041 394.033V293.224L621.31 242.859Z" fill="white" stroke="#272747" stroke-width="3" stroke-linejoin="round"/>
<path d="M534.262 394.033L446.993 343.628V242.859L534.262 293.224V394.033Z" fill="white" stroke="#272747" stroke-width="3" stroke-linejoin="round"/>
<path d="M621.569 242.97L552.313 282.95L534.26 293.374L446.991 242.97L534.26 192.605L551.913 202.75L621.569 242.97Z" fill="white" stroke="#272747" stroke-width="3" stroke-linejoin="round"/>
<path d="M498.884 321V421.769L411.614 472.173V371.364L498.884 321Z" fill="white" stroke="#272747" stroke-width="3" stroke-linejoin="round"/>
<path d="M411.836 472.173L324.567 421.769V321L411.836 371.364V472.173Z" fill="white" stroke="#272747" stroke-width="3" stroke-linejoin="round"/>
<path d="M499.143 321.111L429.887 361.091L411.834 371.515L324.565 321.111L411.834 270.746L429.488 280.891L499.143 321.111Z" fill="white" stroke="#272747" stroke-width="3" stroke-linejoin="round"/>
</g>
</svg>
