<svg xmlns="http://www.w3.org/2000/svg" width="761" height="446" fill="none" viewBox="0 0 761 446"><g fill="#fff" stroke="#272747" stroke-linejoin="round" stroke-width="3" opacity=".2" style="mix-blend-mode:multiply"><path d="m176.578 448.364-69.256 39.981-18.053 10.424L2 448.364 89.27 398l17.653 10.145zM380.32 240.258v100.769l-87.27 50.404V290.622z"/><path d="m293.272 391.431-87.269-50.404V240.258l87.269 50.364z"/><path d="m380.579 240.364-69.256 39.981-18.053 10.424-87.269-50.405L293.27 190l17.653 10.145zM691.27 132.996v100.769l87.269 50.404V183.361z"/><path d="m691.01 133.107 69.257 39.98 18.053 10.424 87.269-50.404-87.269-50.365-17.654 10.145zM621.31 242.859v100.769l-87.269 50.405V293.224z"/><path d="m534.262 394.033-87.269-50.405V242.859l87.269 50.365z"/><path d="m621.569 242.97-69.256 39.98-18.053 10.424-87.269-50.404 87.269-50.365 17.653 10.145zM498.884 321v100.769l-87.27 50.404V371.364z"/><path d="m411.836 472.173-87.269-50.404V321l87.269 50.364z"/><path d="m499.143 321.111-69.256 39.98-18.053 10.424-87.269-50.404 87.269-50.365 17.654 10.145z"/></g></svg>