<svg width="322" height="222" viewBox="0 0 322 222" fill="none" xmlns="http://www.w3.org/2000/svg">
<g clip-path="url(#clip0_82_3713)">
<path d="M280.996 154.06C293.691 119.023 246.623 69.8565 175.867 44.2446C105.11 18.6328 37.458 26.2739 24.7623 61.3115C12.0666 96.3492 59.1345 145.515 129.891 171.127C200.648 196.739 268.3 189.098 280.996 154.06Z" fill="#C2D8EE"/>
<path d="M172.619 122.969C173.111 120.609 173.209 120.461 175.226 120.166C178.817 119.625 182.458 119.134 186.049 118.642C186.344 118.593 186.639 118.642 186.984 118.642C187.131 120.461 186.885 120.855 185.262 121.1C181.474 121.69 177.686 122.28 173.898 122.87C173.505 122.92 173.062 122.92 172.619 122.969Z" fill="#EAECF1"/>
<path d="M34.1401 36.925C35.2715 38.0067 36.3046 38.9409 37.1901 39.9735C37.436 40.2685 37.3869 41.1535 37.1409 41.5468C33.2546 48.5778 28.5321 54.9205 22.8256 60.4764C16.2829 66.8683 16.2829 66.8683 7.32977 68.2941C6.09994 68.4908 4.87011 68.6875 3.34512 68.8841C3.73866 67.1141 3.98463 65.4916 4.37817 63.9182C6.73945 54.9205 11.3144 47.2503 18.595 41.3502C19.4313 40.6618 20.12 40.5143 21.2023 41.006C23.2192 41.891 25.2853 42.5302 27.4006 43.1202C29.3684 43.661 30.2046 43.3169 31.3361 41.5468C32.2708 40.0718 33.107 38.5968 34.1401 36.925Z" fill="white"/>
<path d="M23.6619 37.8592C25.974 36.9251 28.2861 35.9417 30.5982 35.0075C30.6965 35.155 30.7949 35.2533 30.8933 35.4009C30.1062 36.7284 29.3683 38.0559 28.5812 39.3343C28.4337 39.531 28.0401 39.7276 27.7941 39.6293C26.4167 39.2359 25.0393 38.7443 23.6619 38.3018C23.7111 38.2034 23.7111 38.0559 23.6619 37.8592Z" fill="white"/>
<path d="M41.2239 33.8275C40.5844 35.1058 40.0433 36.04 39.4038 37.2692C38.3215 36.1875 37.3868 35.2534 36.4522 34.3192C36.5014 34.2208 36.5506 34.0733 36.5997 33.975C38.0263 33.9258 39.5021 33.8767 41.2239 33.8275Z" fill="white"/>
<path d="M192.936 37.5642C190.575 37.9576 188.41 38.3509 186.196 38.7442C185.803 38.7934 185.409 38.8917 185.016 38.9409C183.983 39.0392 183.196 38.6951 182.999 37.6134C182.802 36.63 183.392 35.9417 184.327 35.745C186.836 35.2042 189.296 34.7125 191.804 34.3191C192.887 34.1716 193.28 33.8275 193.182 32.6474C192.837 27.1406 192.641 21.5847 192.395 16.0779C192.346 14.8487 193.034 13.9637 194.067 13.8653C195.1 13.767 195.838 14.4553 196.133 15.7337C197.363 21.1422 198.593 26.5015 199.774 31.9099C199.971 32.6966 200.315 32.7949 201.004 32.6474C203.168 32.2049 205.283 31.8607 207.448 31.4674C207.841 31.4182 208.235 31.3199 208.629 31.3199C209.662 31.2707 210.449 31.7132 210.596 32.7458C210.744 33.8275 210.104 34.4666 209.12 34.6633C207.005 35.1058 204.89 35.45 202.824 35.8433C202.332 35.9417 201.791 36.04 200.954 36.2367C203.365 41.9401 205.628 47.4961 208.137 52.9537C213.056 63.6232 219.894 73.1126 226.535 82.7495C232.586 91.5997 238.686 100.401 244.786 109.202C245.573 110.333 246.507 111.365 247.294 112.496C248.524 114.217 247.737 116.184 245.671 116.577C241.047 117.511 236.374 118.396 231.749 119.281C229.732 119.675 229.437 119.232 228.847 117.216C227.174 111.562 224.075 106.793 219.107 103.4C216.745 101.777 214.138 100.794 211.236 100.647C205.529 100.352 201.053 102.81 197.314 106.842C193.575 110.923 191.46 115.839 190.23 121.199C189.64 123.805 189.591 123.903 186.885 124.345C182.163 125.083 177.44 125.771 172.717 126.558C171.34 126.804 170.258 126.361 169.176 125.722C168.241 125.181 168.241 124.247 168.585 123.362C169.225 121.74 169.963 120.166 170.553 118.544C174.488 107.284 178.473 96.0739 182.31 84.8145C184.475 78.4719 186.639 72.1292 188.459 65.6882C190.968 56.838 192.346 47.742 192.936 38.5476C192.887 38.2526 192.887 38.0559 192.936 37.5642ZM239.669 108.317C239.62 108.12 239.62 108.022 239.571 107.973C235.39 101.925 231.208 95.8773 226.978 89.8296C226.732 89.4363 225.895 89.1904 225.403 89.2888C211.433 91.0097 197.511 92.7797 183.54 94.5497C183.097 94.5989 182.507 95.0906 182.359 95.4839C179.949 102.22 177.538 109.005 175.177 115.79C175.079 116.036 175.128 116.331 175.079 116.774C179.211 116.233 183.146 115.643 187.131 115.2C188.066 115.102 188.558 114.807 188.902 113.922C190.181 110.628 192.05 107.628 194.362 104.924C202.578 95.4839 214.679 94.4514 223.583 102.662C225.748 104.629 227.371 107.235 229.191 109.595C229.634 110.136 229.88 110.677 230.765 110.48C233.717 109.693 236.669 109.005 239.669 108.317ZM224.37 85.8962C224.124 85.4537 223.977 85.1587 223.829 84.9128C220.878 80.5369 217.877 76.1118 214.925 71.7359C214.384 70.9492 213.892 70.7525 212.958 70.9C205.431 71.9325 197.904 72.9159 190.427 73.9484C190.033 73.9976 189.542 74.4401 189.394 74.8334C187.623 79.8977 185.901 84.962 184.179 90.0263C184.081 90.2721 184.081 90.6163 184.081 91.0097C188.263 90.4688 192.346 89.9771 196.429 89.4363C196.724 89.3871 197.019 88.8463 197.166 88.4529C197.708 86.9779 197.954 85.4045 198.691 84.077C201.545 79.1602 207.841 78.7177 210.891 83.192C211.728 84.4212 212.121 85.8962 212.761 87.4696C216.352 86.9287 220.238 86.437 224.37 85.8962ZM207.645 59.6897C207.349 59.0506 207.104 58.6081 206.907 58.1655C205.087 54.2321 203.217 50.3479 201.446 46.4144C200.167 43.5135 199.134 40.5143 197.954 37.6134C197.806 37.2692 197.363 37.0725 197.068 36.8267C196.822 37.1709 196.576 37.4659 196.379 37.8101C196.281 38.0067 196.281 38.2526 196.281 38.4492C195.592 45.7752 194.953 53.1012 193.182 60.2306C193.083 60.5748 193.083 60.9189 193.034 61.3615C197.954 60.7714 202.725 60.2306 207.645 59.6897ZM212.072 67.5074C211.285 66.1307 210.596 64.9507 209.957 63.7707C209.612 63.1315 209.219 62.9348 208.481 63.0332C203.365 63.6232 198.298 64.164 193.182 64.754C192.837 64.8032 192.247 64.9999 192.198 65.2457C191.706 66.8682 191.312 68.54 190.821 70.3592C198.003 69.3758 204.939 68.4416 212.072 67.5074ZM172.619 122.969C173.062 122.92 173.505 122.87 173.947 122.821C177.735 122.231 181.523 121.641 185.311 121.051C186.934 120.805 187.18 120.461 187.033 118.593C186.738 118.593 186.442 118.593 186.098 118.593C182.458 119.084 178.867 119.576 175.275 120.117C173.16 120.461 173.111 120.609 172.619 122.969ZM208.874 87.9121C208.678 85.0603 207.005 83.3395 204.841 83.5361C202.479 83.782 200.413 86.3879 200.758 88.8954C203.414 88.5513 206.12 88.2071 208.874 87.9121ZM243.457 113.43C242.867 111.906 242.031 111.414 240.555 111.758C237.554 112.447 234.504 113.037 231.257 113.676C231.799 114.561 231.503 115.79 232.881 115.495C236.374 114.856 239.866 114.119 243.457 113.43Z" fill="black"/>
<path d="M179.801 58.9522C179.998 59.9848 180.195 60.8698 180.391 61.804C180.49 62.3448 180.736 63.0332 180.539 63.4757C180.293 64.1149 179.752 64.9015 179.211 64.9999C178.67 65.0982 177.735 64.5082 177.489 63.9674C177.046 63.0332 176.948 61.9023 176.702 60.8698C176.604 60.4273 176.505 59.9356 176.407 59.3947C176.013 59.4931 175.767 59.4931 175.521 59.5914C174.488 59.8373 173.701 59.5422 173.406 58.5097C173.062 57.4772 173.603 56.5922 174.537 56.3955C176.013 56.0513 175.866 55.2155 175.669 54.1338C175.521 53.4946 175.374 52.7079 175.571 52.1671C175.816 51.5771 176.358 50.8395 176.948 50.6429C177.784 50.3479 178.522 50.9379 178.719 51.8721C178.965 53.0029 179.162 54.1338 179.358 55.363C180.687 55.2155 182.261 54.7238 182.458 56.5922C182.654 58.2147 181.228 58.5589 179.801 58.9522Z" fill="black"/>
<path d="M219.008 32.7458C219.205 33.7783 219.5 34.8108 219.451 35.7942C219.402 36.5809 219.107 37.6134 218.565 38.1051C217.631 38.9409 216.253 38.2034 216.057 36.8267C215.958 36.2367 215.958 35.5975 215.86 34.9583C215.712 34.0241 215.663 33.1391 214.384 32.7949C213.351 32.4999 213.154 30.9757 214.04 30.2382C214.974 29.5007 214.827 28.7632 214.581 27.9273C214.433 27.3373 214.089 26.649 214.286 26.1081C214.482 25.4198 214.974 24.6331 215.565 24.3381C216.45 23.9447 217.188 24.5347 217.483 25.4689C217.778 26.354 217.877 27.2881 218.221 28.1732C218.319 28.4682 218.762 28.9599 219.008 28.9107C220.287 28.8123 221.123 29.304 221.271 30.5824C221.419 31.9099 220.484 32.3033 219.353 32.4999C219.303 32.5491 219.254 32.5983 219.008 32.7458Z" fill="black"/>
<path d="M233.766 85.5029C233.471 85.5029 233.274 85.5029 233.127 85.552C232.192 85.6995 231.503 85.3554 231.208 84.4703C230.864 83.5361 231.257 82.7003 232.143 82.3561C233.077 82.0119 233.225 81.4219 232.979 80.6352C232.93 80.4386 232.881 80.1927 232.881 79.9961C232.831 78.9144 233.077 77.931 234.307 77.8327C235.537 77.6852 236.078 78.521 236.226 79.6027C236.373 80.5369 236.521 81.1269 237.702 81.3236C238.981 81.5203 239.227 83.3395 238.046 84.1262C237.21 84.667 237.21 85.257 237.406 86.0437C237.554 86.8304 237.751 87.6171 237.8 88.4038C237.898 89.3379 237.505 90.1246 236.521 90.3213C235.488 90.5671 234.75 89.9771 234.504 88.9938C234.209 87.9121 234.012 86.7321 233.766 85.5029Z" fill="black"/>
<path d="M228.207 69.7692C227.273 69.6708 226.584 68.7366 226.732 67.7533C226.879 66.7208 227.715 65.9832 228.65 66.1799C229.683 66.3766 230.126 67.1141 230.028 68.0975C229.978 69.1791 229.142 69.8675 228.207 69.7692Z" fill="black"/>
<path d="M219.156 62.5907C219.254 61.6073 220.189 60.9189 221.124 61.0665C222.058 61.214 222.698 62.0498 222.55 62.984C222.403 63.9182 221.419 64.6065 220.484 64.459C219.697 64.3115 219.057 63.4265 219.156 62.5907Z" fill="black"/>
<path d="M172.422 80.1928C173.209 80.3403 173.75 80.9303 173.701 81.9136C173.652 82.897 172.668 83.5362 171.684 83.3395C170.7 83.1428 170.209 82.5037 170.307 81.5203C170.356 80.6844 171.242 80.0453 172.422 80.1928Z" fill="black"/>
<path d="M176.063 76.0135C176.407 75.0301 176.997 74.4401 178.08 74.6368C179.063 74.8334 179.506 75.5218 179.408 76.456C179.309 77.4393 178.276 78.1277 177.342 77.8327C176.358 77.636 175.964 76.9477 176.063 76.0135Z" fill="black"/>
<path d="M175.571 84.372C175.767 83.487 176.358 82.897 177.44 82.9953C178.424 83.0936 178.916 83.7328 178.916 84.7162C178.866 85.6995 177.932 86.437 176.997 86.2895C176.062 86.142 175.472 85.3554 175.571 84.372Z" fill="black"/>
<path d="M217.385 58.3622C217.139 59.2472 216.499 59.7389 215.466 59.6406C214.532 59.5422 213.843 58.6572 214.089 57.723C214.286 56.7397 214.974 56.3463 215.958 56.3955C216.844 56.4447 217.532 57.3297 217.385 58.3622Z" fill="black"/>
<path d="M213.105 47.0536C212.908 47.9386 212.318 48.4303 211.334 48.3811C210.35 48.332 209.612 47.4961 209.76 46.6111C209.908 45.6278 210.547 45.1361 211.531 45.1852C212.515 45.1852 213.204 46.0211 213.105 47.0536Z" fill="black"/>
<path d="M175.226 97.5982C174.095 97.4015 173.554 96.7623 173.603 95.7298C173.652 94.7956 174.488 94.1072 175.472 94.3039C176.505 94.5006 177.046 95.1398 176.899 96.1723C176.8 97.2048 176.112 97.5982 175.226 97.5982Z" fill="black"/>
<path d="M186.59 48.4303C185.754 48.2336 185.213 47.6928 185.311 46.6602C185.409 45.6769 186.049 45.136 187.033 45.1852C188.017 45.2344 188.558 45.8736 188.558 46.8569C188.558 47.8403 187.672 48.5286 186.59 48.4303Z" fill="black"/>
<path d="M220.681 47.5945C220.386 48.9712 219.795 49.5612 218.811 49.4629C217.828 49.3645 217.287 48.6762 217.434 47.6928C217.582 46.7095 218.27 46.1195 219.205 46.3653C219.845 46.5128 220.287 47.2503 220.681 47.5945Z" fill="black"/>
<path d="M182.851 43.4644C182.654 44.3985 182.064 44.9886 181.08 44.8902C180.096 44.7919 179.555 44.1035 179.703 43.1202C179.801 42.186 180.441 41.596 181.474 41.6943C182.458 41.7927 182.9 42.481 182.851 43.4644Z" fill="black"/>
<path d="M222.845 55.5105C223.091 54.5763 223.731 54.0355 224.715 54.183C225.698 54.3796 226.141 55.068 225.994 56.0513C225.846 56.9855 225.157 57.5264 224.174 57.3297C223.19 57.1822 222.796 56.4938 222.845 55.5105Z" fill="black"/>
<path d="M205.382 106.203C204.791 106.498 204.201 106.989 203.611 107.038C202.725 107.038 202.184 106.252 202.479 105.465C202.676 104.973 203.463 104.334 203.955 104.383C204.496 104.432 204.939 105.17 205.48 105.563C205.431 105.809 205.431 106.006 205.382 106.203Z" fill="black"/>
<path d="M239.669 108.317C236.619 109.005 233.668 109.693 230.765 110.431C229.88 110.628 229.634 110.136 229.191 109.546C227.371 107.186 225.748 104.58 223.583 102.613C214.63 94.4023 202.529 95.4348 194.362 104.875C192.05 107.579 190.181 110.578 188.902 113.873C188.558 114.758 188.066 115.053 187.131 115.151C183.146 115.643 179.162 116.184 175.079 116.724C175.128 116.331 175.128 116.036 175.177 115.741C177.538 108.956 179.949 102.171 182.359 95.4348C182.507 95.0414 183.097 94.5498 183.54 94.5006C197.462 92.6814 211.433 90.9605 225.403 89.2396C225.895 89.1905 226.732 89.4363 226.978 89.7805C231.208 95.779 235.39 101.876 239.571 107.923C239.62 108.022 239.62 108.12 239.669 108.317ZM198.249 99.4665C198.249 99.2699 198.298 99.0732 198.298 98.8765C197.757 98.3849 197.314 97.6473 196.675 97.4998C195.74 97.254 195.002 97.8932 194.953 98.8765C194.854 99.8599 195.445 100.597 196.429 100.548C197.019 100.45 197.609 99.8107 198.249 99.4665Z" fill="white"/>
<path d="M224.37 85.8962C220.287 86.4371 216.401 86.9288 212.662 87.3713C212.023 85.8471 211.629 84.3229 210.793 83.0937C207.743 78.6194 201.446 79.0619 198.593 83.9787C197.806 85.3062 197.609 86.8796 197.068 88.3546C196.92 88.748 196.625 89.2888 196.33 89.338C192.247 89.928 188.213 90.4197 183.983 90.9113C184.032 90.518 184.032 90.223 184.081 89.928C185.803 84.8637 187.525 79.7994 189.296 74.7351C189.443 74.3418 189.935 73.8993 190.329 73.8501C197.855 72.8176 205.382 71.8342 212.859 70.8017C213.794 70.6542 214.335 70.8509 214.827 71.6376C217.778 76.0627 220.73 80.4386 223.731 84.8145C223.977 85.1587 224.124 85.4537 224.37 85.8962ZM192.1 82.7003C192.985 82.7003 193.821 82.3561 193.969 81.2745C194.116 80.2419 193.526 79.5536 192.493 79.4061C191.46 79.2586 190.771 79.7502 190.575 80.8319C190.329 81.717 191.017 82.5528 192.1 82.7003ZM197.412 76.8985C197.265 77.931 197.954 78.8652 198.839 78.9144C199.823 78.9636 200.462 78.5211 200.659 77.4885C200.856 76.5543 200.167 75.6693 199.233 75.6202C198.249 75.571 197.609 76.0627 197.412 76.8985Z" fill="white"/>
<path d="M207.645 59.6898C202.676 60.2798 197.953 60.8206 193.083 61.3615C193.133 60.919 193.133 60.5748 193.231 60.2306C195.051 53.0521 195.641 45.7261 196.33 38.4493C196.33 38.2034 196.33 37.9576 196.428 37.8101C196.625 37.4659 196.871 37.1709 197.117 36.8267C197.412 37.0726 197.855 37.2692 198.003 37.6134C199.183 40.5635 200.216 43.5135 201.495 46.4145C203.217 50.3479 205.136 54.2321 206.956 58.1656C207.103 58.6081 207.349 59.0014 207.645 59.6898ZM198.937 54.1338C197.757 54.0355 196.822 54.7238 196.822 55.658C196.822 56.6414 197.314 57.2314 198.298 57.3789C199.331 57.5264 200.167 56.7889 200.216 55.8055C200.266 54.8713 199.774 54.2813 198.937 54.1338Z" fill="white"/>
<path d="M212.072 67.5074C204.939 68.4416 198.003 69.3758 190.821 70.3592C191.313 68.54 191.706 66.8682 192.198 65.2457C192.247 64.9999 192.838 64.8032 193.182 64.754C198.298 64.164 203.414 63.6232 208.481 63.0332C209.219 62.9348 209.662 63.1315 209.957 63.7707C210.596 64.9507 211.285 66.1307 212.072 67.5074Z" fill="#5788C2"/>
<path d="M208.874 87.9121C206.12 88.2563 203.414 88.5513 200.758 88.8954C200.413 86.3879 202.529 83.782 204.841 83.5362C207.005 83.2903 208.678 85.0112 208.874 87.9121Z" fill="#5788C2"/>
<path d="M243.457 113.43C239.817 114.119 236.374 114.856 232.881 115.495C231.503 115.741 231.799 114.561 231.257 113.676C234.455 113.037 237.554 112.496 240.555 111.759C242.08 111.414 242.916 111.906 243.457 113.43Z" fill="#EAECF1"/>
<path d="M198.249 99.4665C197.658 99.8107 197.019 100.45 196.379 100.499C195.395 100.597 194.854 99.8599 194.904 98.8274C195.002 97.844 195.691 97.2048 196.625 97.4507C197.265 97.5982 197.708 98.3357 198.249 98.8274C198.298 99.0732 198.249 99.2699 198.249 99.4665Z" fill="black"/>
<path d="M192.099 82.7003C191.017 82.5528 190.329 81.7169 190.525 80.8319C190.722 79.7994 191.46 79.3077 192.444 79.4061C193.477 79.5536 194.067 80.2419 193.92 81.2744C193.821 82.307 192.985 82.7003 192.099 82.7003Z" fill="black"/>
<path d="M197.412 76.8985C197.609 76.0626 198.249 75.571 199.233 75.6201C200.167 75.6693 200.856 76.6035 200.659 77.4885C200.462 78.4719 199.823 78.9144 198.839 78.9144C197.954 78.8652 197.265 77.931 197.412 76.8985Z" fill="black"/>
<path d="M198.937 54.1338C199.774 54.2813 200.266 54.8221 200.266 55.8547C200.216 56.838 199.331 57.5264 198.347 57.428C197.363 57.2805 196.871 56.6905 196.871 55.7072C196.822 54.773 197.757 54.0354 198.937 54.1338Z" fill="black"/>
<path d="M27.6957 32.4016C25.9248 30.8282 23.957 29.5007 22.5304 27.7798C15.9385 19.7163 18.5458 6.98183 27.7449 2.06505C35.6158 -2.16339 45.5037 2.11422 48.2585 11.0628C50.423 18.1921 48.7013 24.4364 43.29 29.599C43.0932 29.7957 42.8473 30.0416 42.5521 30.3366C42.8964 30.4349 43.0932 30.5824 43.3392 30.6316C56.9657 32.2541 66.9028 39.4818 74.1834 50.7904C75.4132 52.6588 76.3971 54.6746 77.3317 56.6905C78.3648 58.8047 77.5777 60.1323 75.3148 60.5256C51.6037 64.459 27.9417 68.3925 4.23054 72.3259C1.47572 72.7684 -0.442822 70.9 -8.21128e-05 68.1466C2.01684 55.8547 7.4773 45.5294 17.5619 37.9084C20.5135 35.6467 23.8095 33.9258 27.3022 32.6474C27.499 32.5491 27.6465 32.4508 27.6957 32.4016ZM34.14 36.925C33.1562 38.5968 32.2707 40.0718 31.336 41.5468C30.2046 43.3169 29.3683 43.661 27.4006 43.1202C25.2853 42.5302 23.2191 41.891 21.2022 41.006C20.12 40.5143 19.4805 40.6618 18.595 41.3502C11.3144 47.2995 6.78859 54.9205 4.37812 63.9182C3.98457 65.4916 3.68941 67.0649 3.34506 68.8841C4.87005 68.6383 6.09988 68.4908 7.32971 68.2941C16.3321 66.9174 16.2829 66.8683 22.8256 60.4764C28.532 54.9205 33.2546 48.5778 37.1408 41.596C37.3868 41.1535 37.436 40.3176 37.19 40.0226C36.3046 38.9409 35.2715 38.0067 34.14 36.925ZM22.3337 15.4387C22.3337 16.4712 22.2845 17.5038 22.3829 18.4871C22.4812 19.4213 22.678 20.3555 22.924 21.2405C24.5966 27.7798 31.336 31.4674 37.3376 29.2057C46.0448 25.9115 48.6029 13.5703 41.8634 7.08017C41.4206 6.68683 40.5844 6.49015 39.994 6.53932C38.3215 6.68683 36.6489 7.22767 34.9763 7.22767C31.336 7.22767 28.2369 8.45687 25.2853 10.4727C23.4159 11.7511 22.5796 13.3245 22.3337 15.4387ZM42.1094 62.5415C52.9319 60.7223 63.3116 59.0014 73.7406 57.2805C71.3793 50.8395 62.0818 40.4651 57.5068 39.2359C53.473 47.447 48.0617 54.9205 42.1094 62.5415ZM54.7028 37.3676C51.6528 35.8925 48.7013 34.9092 45.6021 34.4175C45.3069 34.3683 44.7658 34.7125 44.569 35.0075C43.8803 36.0892 43.2408 37.2201 42.6997 38.4001C38.1247 47.5453 32.4675 56.0022 25.0393 63.1315C24.203 63.9182 23.4159 64.754 22.3829 65.7866C23.2191 65.6882 23.7111 65.6391 24.1538 65.5407C26.8102 65.0982 29.4175 64.5082 32.0739 64.2624C35.6158 63.9674 38.1247 62.099 40.0924 59.4931C44.5198 53.7404 48.9964 47.9878 52.3907 41.4977C53.0795 40.1701 53.8665 38.8426 54.7028 37.3676ZM23.6619 37.8592C23.6619 38.0067 23.7111 38.1542 23.7111 38.3509C25.0885 38.7934 26.4659 39.2851 27.8433 39.6784C28.0401 39.7276 28.4828 39.5801 28.6304 39.3834C29.4175 38.1051 30.2046 36.7775 30.9425 35.45C30.8441 35.3025 30.7457 35.2042 30.6473 35.0567C28.3352 35.9909 25.974 36.925 23.6619 37.8592ZM41.2239 33.8275C39.5021 33.8766 38.0263 33.9258 36.5997 33.975C36.5505 34.0733 36.5013 34.2208 36.4521 34.3192C37.3868 35.2533 38.3215 36.1875 39.4037 37.2692C40.0432 36.0892 40.5352 35.1058 41.2239 33.8275Z" fill="black"/>
<path d="M83.1365 5.85097C83.0381 7.47351 82.9397 9.04688 82.8906 10.6694C82.7922 14.357 84.1696 16.2254 87.7607 17.3562C88.3018 17.5037 88.8921 17.6513 89.4333 17.8479C90.3679 18.1429 91.0566 18.7329 90.9582 19.7655C90.8599 20.798 90.1712 21.2897 89.1381 21.388C88.0067 21.4863 86.826 21.6338 85.6946 21.7814C82.8414 22.2239 81.218 23.8956 80.7752 26.7473C80.3817 29.4515 79.939 32.1066 79.5454 34.8108C79.2994 36.4334 78.7091 37.1709 77.6761 37.1709C76.5938 37.1217 75.8067 36.04 75.8067 34.5158C75.8067 32.6966 75.9543 30.8774 75.9051 29.0582C75.8067 27.0423 75.6591 24.9773 75.3148 22.9614C74.8721 20.503 73.3963 18.9296 70.789 18.5854C70.3955 18.5363 70.0019 18.3888 69.6576 18.1921C68.6245 17.7496 67.8866 17.1104 68.3293 15.832C68.6737 14.8487 69.9527 14.1603 71.035 14.4062C74.4293 15.0945 77.5777 13.472 78.6599 10.2269C79.2994 8.35853 79.4962 6.34265 79.8406 4.37593C80.0373 3.39258 79.939 2.31088 80.2833 1.32753C80.4801 0.786681 81.218 0.0491638 81.7099 0.0491638C82.3002 0.0491638 83.0381 0.639178 83.4317 1.18002C83.7268 1.62253 83.6776 2.36005 83.6285 2.99923C83.5793 3.98259 83.4317 4.96595 83.2841 5.90014C83.2349 5.85097 83.1857 5.85097 83.1365 5.85097ZM76.4462 17.2579C77.2825 18.8804 78.0696 20.4538 78.8075 21.8797C80.0373 20.8472 81.4148 19.7163 82.2019 19.1263C81.3656 17.9463 80.4801 16.6679 79.5946 15.3895C78.7583 15.832 77.5777 16.5696 76.4462 17.2579Z" fill="black"/>
<path d="M22.3336 15.4387C22.5304 13.3245 23.4159 11.8003 25.2852 10.4727C28.2368 8.40769 31.336 7.22767 34.9763 7.22767C36.6489 7.22767 38.3215 6.68682 39.994 6.53932C40.6335 6.49015 41.4698 6.68682 41.8634 7.08016C48.6029 13.5703 46.094 25.9114 37.3376 29.2057C31.336 31.4674 24.5965 27.7798 22.924 21.2405C22.678 20.3555 22.4812 19.4213 22.3828 18.4871C22.2845 17.5037 22.3336 16.4712 22.3336 15.4387ZM32.9594 22.2239C34.386 21.8797 35.8126 21.683 37.1408 21.2405C37.9771 20.9455 38.3215 20.1588 38.0755 19.2738C37.7803 18.3888 37.0916 17.9954 36.2061 18.1921C34.5336 18.5854 32.9102 18.7821 31.2868 17.7988C30.5489 17.3562 29.6634 17.6512 29.2207 18.4871C28.778 19.323 28.9255 20.1588 29.7126 20.6013C30.6965 21.1913 31.7788 21.6338 32.9594 22.2239ZM28.8764 13.5211C28.8272 14.5537 29.2699 15.242 30.303 15.3404C31.336 15.4387 32.0247 14.947 32.1723 13.8653C32.3199 12.882 31.6804 12.0461 30.7457 11.9969C29.6143 11.9478 29.0731 12.5378 28.8764 13.5211ZM39.0102 13.9637C39.1577 12.9803 38.469 12.0461 37.5836 11.9969C36.5997 11.9478 35.9602 12.4395 35.7634 13.3736C35.5666 14.2587 36.3045 15.1437 37.19 15.242C38.1739 15.3404 38.7642 14.8487 39.0102 13.9637Z" fill="white"/>
<path d="M42.1094 62.5415C48.0618 54.9696 53.473 47.4961 57.5561 39.1868C62.0818 40.4651 71.3794 50.7904 73.7898 57.2314C63.3117 59.0014 52.9319 60.7223 42.1094 62.5415Z" fill="white"/>
<path d="M54.7028 37.3675C53.8665 38.8917 53.0795 40.1701 52.3908 41.4976C48.9964 47.9878 44.5198 53.7404 40.0924 59.4931C38.1247 62.099 35.6158 63.9673 32.0739 64.2624C29.4175 64.459 26.8103 65.0982 24.1538 65.5407C23.6619 65.6391 23.2191 65.6882 22.3829 65.7866C23.4651 64.754 24.2522 63.9182 25.0393 63.1315C32.4675 56.0022 38.1247 47.5453 42.6997 38.4001C43.29 37.22 43.8803 36.0892 44.569 35.0075C44.7658 34.7125 45.2577 34.3683 45.6021 34.4175C48.7013 34.9092 51.6529 35.8925 54.7028 37.3675Z" fill="#EAECF1"/>
<path d="M76.4462 17.2579C77.5777 16.5696 78.7583 15.8812 79.5946 15.3404C80.4801 16.6187 81.3656 17.8971 82.2019 19.0771C81.464 19.6671 80.0865 20.798 78.8075 21.8305C78.0696 20.4538 77.2825 18.8804 76.4462 17.2579Z" fill="white"/>
<path d="M34.2384 21.9289C33.4021 22.1255 32.5166 21.978 31.7295 21.6338C30.9916 21.2897 30.3029 20.9455 29.6634 20.5522C28.8763 20.0605 28.7288 19.2246 29.1715 18.4379C29.6142 17.6021 30.4997 17.3071 31.2376 17.7496C32.861 18.7329 34.4352 18.5363 36.1569 18.1429C37.0424 17.9463 37.7803 18.3396 38.0263 19.2246C38.3214 20.1096 37.9279 20.9455 37.0916 21.1913C36.2061 21.5355 35.2223 21.7322 34.2384 21.9289Z" fill="black"/>
<path d="M28.8764 13.5211C29.0731 12.5378 29.6635 11.9478 30.6965 11.9969C31.6804 12.0461 32.3199 12.882 32.1231 13.8653C31.9755 14.8978 31.2868 15.4387 30.2538 15.3403C29.2699 15.1928 28.8272 14.5045 28.8764 13.5211Z" fill="black"/>
<path d="M39.0102 13.9637C38.8134 14.8487 38.2231 15.3404 37.2392 15.242C36.3046 15.1437 35.6159 14.2587 35.8126 13.3737C36.0094 12.3903 36.5997 11.8986 37.6328 11.997C38.4691 12.0953 39.1578 12.9803 39.0102 13.9637Z" fill="black"/>
<path d="M106.503 56.0513C106.208 58.6081 105.864 61.1648 105.667 63.6724C105.618 64.0165 105.962 64.5082 106.208 64.754C113.981 72.3259 121.802 79.8486 129.624 87.3712C130.067 87.7646 130.805 87.9613 131.444 88.0596C140.643 89.043 149.843 89.928 159.042 90.9113C159.681 90.9605 160.419 91.2063 160.813 91.6488C161.157 91.993 161.255 92.7797 161.206 93.3206C161.059 94.4023 160.616 95.4348 160.518 96.5165C158.993 115.692 157.468 134.867 155.943 154.043C155.795 156.206 155.647 158.419 155.746 160.582C155.746 161.467 156.238 162.352 156.582 163.237C156.976 164.27 157.517 165.253 157.812 166.335C158.205 167.711 157.468 168.646 156.041 168.597C155.352 168.597 154.614 168.498 153.926 168.449C113.489 163.926 73.0027 159.402 32.5659 154.83C31.6312 154.731 30.7457 154.387 29.9094 154.043C28.8764 153.6 28.5812 152.814 29.024 151.732C29.1224 151.486 29.2207 151.24 29.4175 151.044C31.1885 148.929 31.582 146.373 31.9264 143.718C34.5828 123.018 37.3868 102.318 40.1908 81.6186C40.2892 81.0286 40.3384 80.4878 40.5352 79.8977C40.8795 78.816 41.6174 78.4719 42.7489 78.7177C43.6344 78.9144 44.4707 79.1111 45.3561 79.2094C52.8335 79.9961 60.3109 80.7336 67.7391 81.5203C69.3132 81.6678 70.5923 81.4219 72.0189 80.5861C80.8737 75.5218 89.7285 70.5067 98.7308 65.7866C101.387 64.4099 102.42 62.7873 102.715 59.8373C103.503 51.8721 104.634 43.9561 105.618 36.04C105.815 34.3192 106.257 33.9258 108.028 33.9258C108.914 33.9258 109.799 33.9258 110.685 34.0241C121.802 35.3025 132.871 36.5809 143.989 37.8592C146.497 38.1542 147.088 38.8426 146.793 41.3502C146.104 47.0045 145.317 52.7079 144.579 58.3622C144.382 59.8864 143.693 60.3781 142.267 60.2306C131.494 59.0014 120.671 57.8214 109.898 56.5922C108.865 56.4938 107.832 56.248 106.503 56.0513ZM43.536 82.4053C42.4537 90.4197 41.3715 98.2373 40.3384 106.104C78.7584 110.087 116.982 114.02 155.352 118.003C155.992 109.89 156.582 102.072 157.222 94.1564C119.195 90.223 81.464 86.3387 43.536 82.4053ZM76.5938 150.896C76.6922 150.404 76.7906 149.962 76.8398 149.519C77.8729 141.063 78.9551 132.606 79.9882 124.149C80.0374 123.559 80.0374 122.87 80.3817 122.477C80.7753 121.985 81.5132 121.494 82.0543 121.543C82.5462 121.543 83.0874 122.231 83.3825 122.772C83.5793 123.165 83.4809 123.805 83.4317 124.345C83.1366 127.099 82.7922 129.852 82.4479 132.606C82.0051 136.244 81.5132 139.833 81.0212 143.472C80.6769 146.078 80.4309 148.684 80.1358 151.24C84.4156 151.732 88.5478 152.224 92.6309 152.715C92.9752 149.569 93.3688 146.52 93.7131 143.57C93.4671 143.472 93.4179 143.423 93.3196 143.423C92.2865 143.275 91.2534 143.177 90.2696 143.078C88.7938 142.882 88.0559 142.193 88.1543 141.161C88.2527 140.079 89.1381 139.538 90.5647 139.686C91.6962 139.784 92.8276 139.932 93.9591 140.079C94.5002 135.261 95.0413 130.639 95.5825 126.017C94.7954 125.919 94.205 125.82 93.5655 125.771C91.3026 125.575 89.0397 125.378 86.7769 125.132C85.793 125.034 85.2027 124.493 85.2027 123.51C85.2027 122.428 85.8914 121.936 86.9244 121.838C87.2196 121.789 87.564 121.789 87.8591 121.838C94.0083 122.33 100.157 122.87 106.307 123.411C107.684 123.51 108.471 124.345 108.373 125.378C108.274 126.411 107.34 127.001 105.962 126.853C103.749 126.607 101.535 126.361 99.3211 126.066C98.7308 131.032 98.1897 135.605 97.6978 140.128C97.8453 140.227 97.9437 140.325 97.9929 140.325C98.9276 140.423 99.8623 140.522 100.797 140.62C102.322 140.817 103.109 141.554 102.961 142.636C102.814 143.668 101.978 144.209 100.502 144.062C99.4687 143.963 98.3865 143.816 97.3534 143.718C96.9599 147.061 96.6155 150.06 96.2712 153.256C99.2719 153.6 102.125 153.944 105.028 154.289C107.044 154.535 107.094 154.535 107.29 152.469C108.127 143.963 108.914 135.408 109.701 126.902C109.75 126.411 109.799 125.919 109.898 125.427C110.094 124.493 110.636 123.854 111.619 123.903C112.702 123.952 113.194 124.69 113.243 125.673C113.292 126.116 113.194 126.558 113.194 127.001C112.603 133.146 112.013 139.243 111.373 145.389C111.078 148.536 110.636 151.634 110.291 154.928C111.865 155.125 113.095 155.272 114.325 155.42C116.145 155.616 116.342 155.518 116.49 153.699C117.621 141.997 118.703 130.344 119.835 118.642C119.835 118.445 119.786 118.199 119.736 117.904C104.88 116.331 90.0728 114.807 75.1181 113.234C73.8882 125.771 72.6584 138.063 71.4286 150.454C73.1995 150.503 74.8721 150.65 76.5938 150.896ZM152.056 159.55C153.04 146.815 154.073 134.179 155.057 121.74C144.431 120.51 133.953 119.281 123.327 118.052C122.098 130.786 120.868 143.275 119.687 155.764C130.46 157.042 141.135 158.271 152.056 159.55ZM67.985 150.011C69.2149 137.424 70.4447 125.132 71.6745 112.988C60.9504 111.758 50.5214 110.529 39.9449 109.3C38.2723 121.74 36.5997 133.982 34.9764 146.176C45.9465 147.454 56.8674 148.684 67.985 150.011ZM124.459 87.3221C124.065 86.9287 123.967 86.7812 123.869 86.6337C117.326 80.2911 110.783 73.9976 104.24 67.6549C103.552 66.9666 103.06 67.1633 102.371 67.5566C93.9099 72.2276 85.3994 76.8985 76.9382 81.5694C76.643 81.7169 76.3971 81.9136 75.7576 82.3561C92.1881 83.9787 108.176 85.6504 124.459 87.3221ZM154.024 165.45C153.631 163.286 153.385 163.041 151.466 162.795C112.948 158.37 74.4294 153.994 35.911 149.569C33.8941 149.323 33.4514 149.618 32.9102 151.83C73.2487 156.403 113.636 160.926 154.024 165.45ZM130.51 39.9243C127.165 39.5309 124.016 39.1868 120.966 38.8426C120.376 44.0544 119.786 49.0695 119.195 54.0846C122.442 54.478 125.59 54.8221 128.739 55.1663C129.329 50.0037 129.919 44.9886 130.51 39.9243ZM132.231 55.5597C135.331 55.9038 138.282 56.248 141.381 56.6413C141.972 51.4787 142.562 46.4144 143.152 41.3502C140.102 41.006 137.102 40.6618 134.002 40.2685C133.412 45.3819 132.822 50.4462 132.231 55.5597ZM107.094 52.9538C109.996 53.2979 112.751 53.5929 115.555 53.9371C116.194 48.5778 116.785 43.5135 117.375 38.3509C114.522 38.0067 111.816 37.7117 108.914 37.3676C108.324 42.6777 107.684 47.8403 107.094 52.9538Z" fill="black"/>
<path d="M43.536 82.4053C81.464 86.3387 119.195 90.223 157.222 94.1564C156.582 102.072 155.992 109.89 155.352 118.003C116.982 114.02 78.7584 110.087 40.3384 106.104C41.3715 98.2373 42.4538 90.4197 43.536 82.4053ZM91.8438 98.9749C91.3027 103.597 94.697 107.776 99.3704 108.366C104.142 108.956 108.717 105.416 109.258 100.647C109.799 96.074 106.454 91.698 102.076 91.2555C96.8615 90.7147 92.4341 94.0581 91.8438 98.9749ZM67.4931 97.1065C67.5915 97.1065 67.6407 97.1065 67.7391 97.1557C67.9359 95.3856 68.1818 93.6156 68.3294 91.8455C68.477 90.4688 67.9851 89.633 67.0012 89.4363C66.0173 89.2888 65.181 89.928 64.9843 91.2555C64.4431 94.8448 63.9512 98.4832 63.4593 102.122C63.3117 103.449 63.9512 104.383 64.9351 104.383C66.1157 104.383 66.6568 103.646 66.8044 102.515C67.0996 100.696 67.2963 98.8765 67.4931 97.1065ZM57.1133 96.4181H57.0641C57.2609 94.5989 57.5069 92.7797 57.7037 90.9605C57.802 89.8788 57.5561 88.9938 56.3263 88.6988C55.3424 88.5021 54.4569 89.1905 54.3093 90.518C53.8666 94.0581 53.473 97.5982 53.1287 101.138C52.9811 102.466 53.6698 103.302 54.7029 103.302C55.9327 103.302 56.3754 102.466 56.523 101.433C56.7198 99.7616 56.9166 98.0898 57.1133 96.4181ZM132.969 103.007H133.019C133.215 101.237 133.461 99.4665 133.609 97.6965C133.707 96.6148 133.461 95.7298 132.231 95.4839C131.198 95.2873 130.411 95.9756 130.215 97.3032C129.772 100.745 129.329 104.187 128.936 107.628C128.788 108.956 129.427 109.792 130.461 109.89C131.494 109.988 132.182 109.251 132.33 107.923C132.576 106.301 132.773 104.629 132.969 103.007ZM138.725 103.695C138.627 103.695 138.577 103.695 138.479 103.646C138.282 105.367 138.085 107.088 137.889 108.808C137.79 109.89 138.233 110.677 139.315 110.873C140.398 111.021 141.086 110.382 141.234 109.448C141.775 105.908 142.267 102.318 142.71 98.729C142.857 97.6965 142.513 96.7131 141.234 96.5656C140.004 96.4673 139.463 97.3032 139.315 98.3849C139.119 100.155 138.922 101.925 138.725 103.695Z" fill="white"/>
<path d="M76.5939 150.896C74.8229 150.699 73.1996 150.503 71.3794 150.306C72.6093 137.916 73.8391 125.624 75.0689 113.086C90.0237 114.659 104.831 116.233 119.687 117.757C119.736 118.052 119.786 118.249 119.786 118.494C118.703 130.196 117.572 141.849 116.44 153.551C116.293 155.321 116.047 155.469 114.276 155.272C113.046 155.125 111.816 154.977 110.242 154.78C110.636 151.535 111.029 148.389 111.324 145.242C111.964 139.096 112.505 132.999 113.144 126.853C113.194 126.411 113.243 125.968 113.194 125.525C113.095 124.542 112.653 123.755 111.57 123.755C110.586 123.706 110.045 124.345 109.849 125.28C109.75 125.771 109.701 126.263 109.652 126.755C108.815 135.261 108.028 143.816 107.241 152.322C107.045 154.387 107.045 154.387 104.978 154.141C102.125 153.797 99.2228 153.453 96.222 153.109C96.5664 149.962 96.9599 146.913 97.3043 143.57C98.3373 143.668 99.4196 143.816 100.453 143.914C101.928 144.062 102.814 143.521 102.912 142.488C103.06 141.407 102.273 140.669 100.748 140.473C99.8131 140.374 98.8785 140.276 97.9438 140.178C97.8454 140.178 97.7962 140.079 97.6486 139.981C98.1897 135.457 98.7309 130.885 99.272 125.919C101.486 126.165 103.699 126.46 105.913 126.706C107.291 126.853 108.225 126.263 108.324 125.23C108.422 124.198 107.635 123.362 106.257 123.264C100.108 122.723 93.9591 122.231 87.81 121.69C87.5148 121.641 87.1705 121.641 86.8753 121.69C85.8422 121.789 85.1535 122.28 85.1535 123.362C85.1535 124.395 85.793 124.935 86.7277 124.985C88.9906 125.23 91.2535 125.378 93.5164 125.624C94.1559 125.673 94.7462 125.771 95.5333 125.87C94.9922 130.491 94.4511 135.064 93.9099 139.932C92.7785 139.784 91.647 139.637 90.5156 139.538C89.0398 139.44 88.2035 139.981 88.1051 141.013C88.0067 142.046 88.7446 142.734 90.2204 142.931C91.2535 143.078 92.2374 143.177 93.2704 143.275C93.3688 143.275 93.418 143.324 93.664 143.423C93.3196 146.422 92.9753 149.421 92.5817 152.568C88.4987 152.076 84.3664 151.634 80.0866 151.093C80.3818 148.536 80.677 145.93 80.9721 143.324C81.4148 139.686 81.9068 136.097 82.3987 132.458C82.7431 129.705 83.0382 126.951 83.3826 124.198C83.4318 123.657 83.5793 123.067 83.3334 122.625C83.0382 122.084 82.4971 121.445 82.0052 121.395C81.464 121.346 80.7261 121.838 80.3326 122.33C79.9882 122.723 80.0374 123.411 79.939 124.001C78.906 132.458 77.8237 140.915 76.7907 149.372C76.7907 149.962 76.6923 150.355 76.5939 150.896Z" fill="white"/>
<path d="M152.056 159.55C141.135 158.271 130.461 157.042 119.638 155.813C120.868 143.275 122.048 130.836 123.278 118.101C133.904 119.33 144.382 120.56 155.008 121.789C154.024 134.179 153.04 146.766 152.056 159.55Z" fill="#5788C2"/>
<path d="M67.9851 150.011C56.8674 148.733 45.9957 147.454 34.9272 146.176C36.5998 133.933 38.2232 121.74 39.8958 109.3C50.4723 110.529 60.9505 111.759 71.6254 112.988C70.4448 125.132 69.2149 137.424 67.9851 150.011Z" fill="#5788C2"/>
<path d="M124.459 87.3221C108.127 85.6504 92.1389 83.9787 75.7576 82.307C76.3971 81.9136 76.643 81.717 76.9382 81.5203C85.3994 76.8493 93.9099 72.1784 102.371 67.5074C103.06 67.1633 103.503 66.9174 104.24 67.6058C110.734 73.9484 117.326 80.2911 123.869 86.5846C124.016 86.7812 124.115 86.9287 124.459 87.3221Z" fill="#EAECF1"/>
<path d="M154.024 165.45C113.636 160.926 73.2487 156.403 32.8611 151.83C33.4514 149.618 33.8449 149.323 35.8619 149.569C74.3802 153.994 112.899 158.37 151.417 162.795C153.385 163.041 153.631 163.286 154.024 165.45Z" fill="white"/>
<path d="M130.51 39.9243C129.919 44.9394 129.329 50.0037 128.739 55.1663C125.59 54.8221 122.491 54.4288 119.195 54.0846C119.786 49.0695 120.376 44.0544 120.966 38.8426C124.016 39.1868 127.165 39.5801 130.51 39.9243Z" fill="white"/>
<path d="M132.231 55.5597C132.822 50.4462 133.412 45.3819 134.002 40.2685C137.102 40.6126 140.102 40.9568 143.152 41.3502C142.562 46.4144 141.972 51.4787 141.381 56.6413C138.282 56.248 135.331 55.9038 132.231 55.5597Z" fill="#CE0500"/>
<path d="M107.094 52.9538C107.684 47.8895 108.274 42.6777 108.914 37.3676C111.816 37.7117 114.522 38.0067 117.375 38.3509C116.785 43.4644 116.194 48.5778 115.555 53.9371C112.8 53.5929 109.996 53.2979 107.094 52.9538Z" fill="#000091"/>
<path d="M91.8438 98.9749C92.3849 94.0581 96.8615 90.6655 102.125 91.2555C106.503 91.698 109.849 96.074 109.307 100.647C108.766 105.416 104.191 108.956 99.4196 108.366C94.697 107.825 91.3027 103.646 91.8438 98.9749ZM95.2873 99.3682C94.9922 102.122 96.9107 104.58 99.6656 104.973C102.666 105.367 105.569 103.154 105.913 100.253C106.257 97.4507 104.142 94.9431 101.191 94.6481C98.3865 94.3039 95.6317 96.5165 95.2873 99.3682Z" fill="black"/>
<path d="M67.4931 97.1065C67.2964 98.9257 67.0504 100.745 66.8536 102.564C66.706 103.695 66.2141 104.432 64.9843 104.432C64.0004 104.432 63.3117 103.449 63.5085 102.171C63.9512 98.5324 64.4923 94.9431 65.0335 91.3047C65.2302 89.9772 66.0665 89.2888 67.0504 89.4855C68.0343 89.633 68.5262 90.518 68.3786 91.8947C68.1818 93.6647 67.9851 95.4348 67.7883 97.2048C67.6899 97.1065 67.5915 97.1065 67.4931 97.1065Z" fill="black"/>
<path d="M57.1134 96.4181C56.9166 98.0898 56.7198 99.7615 56.523 101.433C56.3755 102.515 55.9819 103.351 54.7029 103.302C53.6698 103.302 52.9811 102.417 53.1287 101.138C53.4731 97.5982 53.8666 94.0581 54.3093 90.518C54.4569 89.1905 55.3424 88.4529 56.3263 88.6988C57.5069 88.9446 57.8021 89.8788 57.7037 90.9605C57.5069 92.7797 57.3101 94.5989 57.0642 96.4181C57.0642 96.369 57.0642 96.369 57.1134 96.4181Z" fill="black"/>
<path d="M132.969 103.007C132.773 104.629 132.625 106.301 132.379 107.923C132.232 109.251 131.494 109.988 130.51 109.89C129.477 109.792 128.837 108.956 128.985 107.628C129.378 104.187 129.772 100.745 130.264 97.3032C130.461 95.9756 131.248 95.2873 132.281 95.484C133.511 95.7298 133.757 96.6148 133.658 97.6965C133.461 99.4666 133.265 101.237 133.068 103.007C133.019 103.007 132.969 103.007 132.969 103.007Z" fill="black"/>
<path d="M138.725 103.695C138.922 101.925 139.118 100.155 139.364 98.3848C139.512 97.3523 140.004 96.4673 141.283 96.5656C142.562 96.664 142.906 97.6473 142.759 98.729C142.316 102.318 141.824 105.858 141.283 109.448C141.135 110.431 140.398 111.07 139.364 110.873C138.233 110.677 137.839 109.89 137.938 108.808C138.135 107.088 138.331 105.367 138.528 103.646C138.577 103.695 138.676 103.695 138.725 103.695Z" fill="black"/>
<path d="M95.2873 99.3682C95.6317 96.5165 98.3865 94.3039 101.24 94.5989C104.191 94.9431 106.257 97.4507 105.962 100.204C105.618 103.105 102.666 105.318 99.7147 104.924C96.9107 104.58 94.9921 102.122 95.2873 99.3682Z" fill="#EAECF1"/>
<path d="M189.837 171.35C192.985 169.531 196.035 167.761 199.233 165.941C198.839 162.942 196.527 160.091 196.921 156.796C195.346 154.879 193.526 153.109 192.247 151.044C186.984 142.538 189.788 131.77 198.298 127.246C205.579 123.362 215.27 125.722 220.386 132.802C224.715 138.801 225.453 145.193 222.058 151.978C221.714 152.617 221.862 153.65 222.058 154.387C224.321 162.549 226.633 170.711 228.945 178.873C231.061 186.444 233.225 193.967 235.341 201.539C235.39 201.736 235.439 201.982 235.537 202.178C236.177 204.932 236.029 205.276 233.422 206.456C233.176 206.554 232.979 206.702 232.635 206.898C233.619 209.504 234.553 212.11 235.488 214.716C235.98 216.044 236.472 217.371 236.964 218.748C237.554 220.37 237.308 221.354 236.275 221.747C235.193 222.14 234.357 221.599 233.766 219.977C232.487 216.535 231.208 213.093 229.978 209.701C229.831 209.258 229.634 208.816 229.388 208.275C228.355 208.718 227.47 209.111 226.584 209.504C225.158 210.143 224.518 209.947 223.682 208.619C222.747 207.095 221.862 205.571 220.829 203.85C219.008 205.62 217.336 207.292 215.614 208.963C214.138 210.389 212.662 211.815 211.137 213.192C209.563 214.568 208.629 214.273 207.645 212.454C207.448 212.11 206.956 211.815 206.513 211.668C192.887 206.8 179.26 201.932 165.634 197.065C163.764 196.426 161.944 195.737 160.075 195.098C158.205 194.41 157.664 193.525 158.55 191.755C160.026 188.854 161.551 186.002 163.223 183.199C166.913 177.004 171.242 171.35 177.047 167.072C179.506 165.253 182.31 164.171 185.459 164.958C187.967 165.597 189.886 168.203 189.886 170.809C189.837 170.907 189.837 171.153 189.837 171.35ZM223.091 192.836C222.993 192.492 222.993 192.345 222.944 192.246C222.206 190.968 220.976 190.87 219.894 191.361C217.483 192.394 215.122 193.574 212.859 194.852C211.137 195.836 209.612 197.163 207.94 198.294C207.104 198.835 206.218 198.835 205.529 197.95C204.841 197.065 205.185 196.278 205.825 195.541C206.021 195.344 206.218 195.196 206.415 195C207.989 193.525 209.563 192.05 211.236 190.476C210.449 189.591 209.858 188.854 209.121 188.165C207.596 186.69 207.448 184.232 209.662 182.954C211.383 181.97 213.204 181.233 215.171 180.249C214.286 180.2 213.45 180.102 212.613 180.151C209.416 180.397 206.956 182.216 204.496 184.035C202.529 185.51 200.61 187.034 198.593 188.46C197.511 189.247 196.478 189.149 195.888 188.313C195.15 187.28 195.642 186.444 196.379 185.707C196.576 185.51 196.773 185.363 196.97 185.166C198.79 183.494 200.659 181.774 202.627 179.954C201.692 178.873 200.856 177.84 200.02 176.808C198.446 174.89 198.544 173.513 200.413 171.891C200.856 171.497 201.446 171.153 201.987 170.858C202.971 170.317 203.955 169.777 205.234 169.088C203.07 168.695 201.25 168.892 199.725 169.727C196.773 171.301 193.772 172.874 191.214 174.939C188.705 176.955 186.688 179.561 184.475 181.921C183.786 182.659 182.999 183.199 182.015 182.609C180.982 181.97 180.982 181.036 181.523 180.053C182.015 179.168 182.655 178.332 183.146 177.447C184.18 175.48 185.311 173.562 186.147 171.497C186.984 169.531 185.459 167.761 183.392 168.056C183.343 168.302 183.294 168.547 183.294 168.793C183.245 172.923 181.523 176.218 178.522 179.02C177.538 179.954 176.653 179.954 175.669 179.364C174.587 178.725 173.505 178.086 172.521 177.348C171.734 176.758 171.291 176.955 170.799 177.693C168.88 180.643 166.913 183.544 164.994 186.494C163.912 188.215 163.026 190.034 161.993 191.853C162.436 192.05 162.682 192.148 162.928 192.246C168.782 194.311 174.636 196.376 180.441 198.491C189.935 201.883 199.429 205.276 208.973 208.668C209.416 208.816 210.154 208.963 210.449 208.718C212.908 206.505 215.319 204.145 217.926 201.687C217.385 201.195 216.991 200.801 216.647 200.408C216.254 199.966 215.909 199.523 215.565 199.031C214.483 197.556 214.778 195.885 216.204 194.803C218.123 193.426 220.386 192.64 223.091 192.836ZM218.664 155.223C212.613 156.649 206.71 158.025 200.758 159.451C201.299 161.123 201.84 162.549 202.233 164.024C202.529 165.155 203.021 165.597 204.349 165.696C208.973 165.941 211.531 169.187 210.842 173.759C210.695 174.89 210.203 176.021 209.858 177.201C213.007 176.66 216.254 175.972 218.467 179.02C220.632 181.97 219.697 185.019 218.025 188.067C218.959 187.969 219.697 187.821 220.435 187.772C224.764 187.575 227.716 191.066 226.437 195.196C225.895 197.016 224.715 198.687 223.829 200.408C223.633 200.752 223.288 201.293 223.436 201.539C224.223 203.014 225.108 204.44 225.994 205.866C227.912 205.03 229.585 204.243 231.356 203.555C232.094 203.26 232.143 202.867 231.946 202.178C230.126 195.836 228.355 189.493 226.535 183.101C226.437 182.708 225.994 182.216 225.649 182.118C219.549 180.79 217.385 173.218 221.665 168.695C221.96 168.4 222.206 167.81 222.108 167.417C220.976 163.434 219.845 159.451 218.664 155.223ZM193.084 140.079C192.296 146.078 195.888 152.666 201.446 155.125C201.987 155.37 202.775 155.42 203.365 155.272C207.891 154.24 212.416 153.207 216.942 152.076C217.533 151.929 218.221 151.437 218.566 150.896C222.55 144.603 220.73 136.244 214.433 131.671C205.874 125.378 194.461 129.901 193.084 140.079ZM173.8 174.202C174.193 174.546 174.341 174.644 174.488 174.743C176.85 176.463 176.899 176.463 178.473 173.956C179.309 172.628 179.9 171.153 179.605 169.088C177.588 170.858 175.767 172.481 173.8 174.202ZM202.479 174.497C203.463 175.677 204.201 176.562 204.988 177.496C206.366 176.021 207.497 174.644 207.497 172.235C205.677 173.022 204.201 173.661 202.479 174.497ZM215.958 184.576C215.811 184.379 215.663 184.232 215.516 184.035C214.237 184.527 212.908 185.068 211.383 185.658C212.269 186.641 212.859 187.33 213.646 188.165C214.532 186.838 215.27 185.707 215.958 184.576ZM222.452 196.573C222.354 196.426 222.255 196.229 222.157 196.081C220.976 196.475 219.795 196.868 218.32 197.36C219.107 198.245 219.599 198.835 220.189 199.523C221.025 198.441 221.714 197.507 222.452 196.573ZM225.108 178.184C224.518 176.119 224.026 174.349 223.485 172.432C222.304 174.644 222.944 176.906 225.108 178.184Z" fill="black"/>
<path d="M223.091 192.836C220.386 192.64 218.123 193.426 216.106 195C214.679 196.131 214.433 197.802 215.466 199.228C215.811 199.72 216.155 200.162 216.549 200.605C216.893 200.998 217.336 201.342 217.828 201.883C215.221 204.391 212.81 206.702 210.35 208.914C210.104 209.16 209.367 209.013 208.875 208.865C199.38 205.472 189.886 202.08 180.342 198.687C174.488 196.622 168.634 194.508 162.83 192.443C162.584 192.345 162.338 192.246 161.895 192.05C162.928 190.23 163.814 188.411 164.896 186.69C166.765 183.74 168.782 180.839 170.701 177.889C171.193 177.152 171.635 176.955 172.422 177.545C173.406 178.283 174.488 178.922 175.571 179.561C176.604 180.2 177.489 180.151 178.424 179.217C181.425 176.414 183.147 173.12 183.196 168.99C183.196 168.744 183.245 168.498 183.294 168.252C185.409 167.957 186.885 169.727 186.049 171.694C185.213 173.759 184.081 175.677 183.048 177.643C182.556 178.528 181.917 179.364 181.425 180.249C180.884 181.233 180.884 182.167 181.917 182.806C182.901 183.396 183.688 182.855 184.376 182.118C186.59 179.758 188.607 177.103 191.116 175.136C193.674 173.071 196.675 171.497 199.626 169.924C201.2 169.088 203.021 168.892 205.136 169.285C203.857 169.973 202.873 170.465 201.889 171.055C201.348 171.35 200.807 171.694 200.315 172.087C198.446 173.71 198.347 175.087 199.921 177.004C200.758 178.037 201.643 179.069 202.529 180.151C200.561 181.97 198.741 183.642 196.871 185.363C196.675 185.559 196.478 185.707 196.281 185.904C195.543 186.641 195.051 187.477 195.789 188.51C196.379 189.345 197.413 189.444 198.495 188.657C200.463 187.231 202.381 185.707 204.398 184.232C206.858 182.413 209.317 180.594 212.515 180.348C213.351 180.298 214.187 180.397 215.073 180.446C213.105 181.38 211.285 182.167 209.563 183.15C207.35 184.429 207.497 186.887 209.022 188.362C209.711 189.05 210.35 189.788 211.137 190.673C209.514 192.197 207.891 193.721 206.317 195.196C206.12 195.393 205.874 195.541 205.726 195.737C205.087 196.475 204.792 197.311 205.431 198.146C206.071 198.982 207.005 199.031 207.842 198.491C209.514 197.409 211.039 196.032 212.761 195.049C215.024 193.721 217.385 192.59 219.795 191.558C220.878 191.115 222.108 191.214 222.845 192.443C222.944 192.345 222.944 192.492 223.091 192.836Z" fill="#EAECF1"/>
<path d="M218.664 155.223C219.845 159.451 221.025 163.434 222.108 167.515C222.206 167.859 221.96 168.498 221.665 168.793C217.336 173.317 219.55 180.889 225.65 182.216C225.994 182.314 226.437 182.806 226.535 183.199C228.355 189.542 230.126 195.885 231.946 202.277C232.143 202.916 232.094 203.358 231.356 203.653C229.634 204.342 227.912 205.128 225.994 205.964C225.108 204.489 224.223 203.112 223.436 201.637C223.288 201.392 223.682 200.851 223.829 200.506C224.715 198.786 225.896 197.114 226.437 195.295C227.667 191.165 224.715 187.625 220.435 187.87C219.697 187.92 218.959 188.018 218.025 188.165C219.697 185.117 220.632 182.069 218.467 179.118C216.204 176.07 213.007 176.758 209.859 177.299C210.203 176.119 210.646 174.988 210.842 173.858C211.531 169.285 208.973 166.04 204.349 165.794C203.07 165.745 202.578 165.253 202.234 164.122C201.84 162.647 201.299 161.271 200.758 159.55C206.71 158.025 212.564 156.649 218.664 155.223Z" fill="white"/>
<path d="M193.084 140.079C194.412 129.901 205.874 125.378 214.433 131.622C220.681 136.195 222.501 144.603 218.566 150.847C218.221 151.388 217.533 151.879 216.942 152.027C212.417 153.158 207.94 154.19 203.365 155.223C202.775 155.37 201.988 155.321 201.446 155.075C195.937 152.666 192.297 146.078 193.084 140.079ZM202.725 138.309C201.742 137.129 201.25 135.113 199.479 136.146C197.413 137.326 199.282 138.85 199.675 140.325C198.692 140.964 197.757 141.603 196.773 142.243C195.543 143.078 195.199 143.963 195.789 144.898C196.38 145.783 197.363 145.881 198.642 145.094C199.577 144.504 200.512 143.914 201.545 143.226C202.234 144.406 202.824 145.439 203.513 146.569C202.725 147.11 201.988 147.602 201.25 148.044C199.725 149.028 199.282 149.962 199.921 150.896C200.561 151.83 201.594 151.83 203.119 150.896C203.808 150.454 204.546 150.06 205.185 149.618C206.218 150.699 206.612 152.961 208.53 151.929C210.744 150.749 208.678 149.175 208.333 147.651C209.071 147.209 209.809 146.766 210.596 146.274C211.137 147.159 211.531 147.897 211.974 148.585C212.564 149.519 213.351 150.011 214.433 149.519C215.319 149.126 215.516 148.044 214.925 146.963C214.483 146.127 213.991 145.34 213.499 144.455C214.63 143.718 215.762 143.078 216.795 142.341C217.926 141.554 218.221 140.62 217.68 139.784C217.139 138.899 216.155 138.801 214.975 139.489C213.892 140.128 212.859 140.768 211.679 141.505C210.941 140.276 210.301 139.145 209.612 138.014C210.547 137.375 211.334 136.883 212.072 136.342C213.007 135.703 213.45 134.818 212.761 133.835C212.072 132.802 211.088 132.999 210.154 133.54C209.416 133.982 208.678 134.474 207.842 135.015C207.3 134.179 206.907 133.442 206.415 132.802C205.775 131.967 204.939 131.524 204.004 132.163C203.119 132.753 203.119 133.638 203.562 134.523C203.955 135.31 204.398 136.047 204.89 136.932C204.103 137.375 203.463 137.817 202.725 138.309Z" fill="#5788C2"/>
<path d="M173.8 174.202C175.768 172.481 177.538 170.858 179.605 169.039C179.9 171.104 179.309 172.579 178.473 173.907C176.899 176.414 176.899 176.414 174.488 174.693C174.341 174.644 174.243 174.546 173.8 174.202Z" fill="white"/>
<path d="M202.479 174.497C204.25 173.71 205.726 173.022 207.448 172.235C207.448 174.693 206.317 176.07 204.939 177.496C204.152 176.513 203.463 175.677 202.479 174.497Z" fill="white"/>
<path d="M215.958 184.576C215.221 185.707 214.532 186.838 213.696 188.165C212.909 187.28 212.318 186.641 211.433 185.658C212.958 185.068 214.286 184.576 215.565 184.035C215.713 184.232 215.811 184.379 215.958 184.576Z" fill="white"/>
<path d="M222.452 196.573C221.763 197.507 221.025 198.441 220.189 199.523C219.599 198.835 219.058 198.245 218.32 197.36C219.746 196.868 220.927 196.475 222.157 196.081C222.206 196.229 222.354 196.376 222.452 196.573Z" fill="white"/>
<path d="M225.108 178.184C222.895 176.906 222.304 174.644 223.485 172.432C224.026 174.349 224.518 176.119 225.108 178.184Z" fill="white"/>
<path d="M202.726 138.309C203.463 137.817 204.103 137.375 204.89 136.883C204.398 136.047 204.005 135.261 203.562 134.474C203.119 133.589 203.07 132.704 204.005 132.114C204.988 131.475 205.825 131.868 206.415 132.753C206.907 133.442 207.301 134.179 207.842 134.966C208.678 134.425 209.416 133.982 210.154 133.491C211.088 132.95 212.072 132.753 212.761 133.786C213.45 134.769 213.007 135.654 212.072 136.293C211.285 136.834 210.547 137.326 209.613 137.965C210.301 139.145 210.941 140.276 211.679 141.456C212.859 140.718 213.892 140.079 214.975 139.44C216.205 138.752 217.139 138.85 217.68 139.735C218.221 140.62 217.926 141.554 216.795 142.292C215.713 143.029 214.63 143.668 213.499 144.406C214.04 145.291 214.532 146.127 214.926 146.914C215.516 147.995 215.319 149.077 214.434 149.47C213.351 149.962 212.564 149.47 211.974 148.536C211.531 147.799 211.088 147.11 210.596 146.225C209.809 146.717 209.072 147.159 208.334 147.602C208.678 149.126 210.744 150.699 208.53 151.879C206.612 152.912 206.267 150.65 205.185 149.569C204.497 149.962 203.808 150.404 203.119 150.847C201.594 151.781 200.561 151.781 199.922 150.847C199.282 149.864 199.676 148.979 201.25 147.995C201.988 147.504 202.726 147.012 203.513 146.52C202.873 145.389 202.234 144.357 201.545 143.177C200.512 143.865 199.577 144.455 198.643 145.045C197.413 145.832 196.38 145.734 195.789 144.848C195.199 143.914 195.543 143.029 196.773 142.193C197.708 141.554 198.692 140.915 199.676 140.276C199.233 138.801 197.413 137.277 199.479 136.097C201.25 135.113 201.742 137.178 202.726 138.309ZM208.727 143.324C208.038 142.144 207.35 141.063 206.612 139.883C205.776 140.423 205.136 140.866 204.349 141.358C205.038 142.538 205.677 143.619 206.317 144.799C207.251 144.258 207.94 143.816 208.727 143.324Z" fill="black"/>
<path d="M208.727 143.324C207.891 143.816 207.251 144.258 206.366 144.75C205.677 143.619 205.037 142.488 204.398 141.308C205.185 140.817 205.825 140.374 206.661 139.833C207.35 141.013 208.038 142.144 208.727 143.324Z" fill="#5788C2"/>
<path d="M314.246 108.169C313.804 110.431 313.312 112.988 312.771 115.495C312.623 116.184 312.82 116.528 313.41 116.872C315.329 117.954 317.198 119.085 319.067 120.166C321.527 121.592 321.822 122.723 320.297 125.132C317.739 129.262 315.132 133.343 312.574 137.473C301.948 154.387 291.372 171.301 280.746 188.264C280.451 188.706 280.156 189.198 280.008 189.69C279.467 191.558 278.532 191.951 276.86 190.919C273.318 188.805 269.776 186.641 266.234 184.478C257.182 178.971 248.082 173.464 239.03 167.957C238.784 167.81 238.489 167.662 238.243 167.466C235.832 165.45 235.783 165.302 236.964 162.795C247.786 140.374 258.56 117.904 269.382 95.4839C270.514 93.1731 271.891 92.4847 274.4 93.1731C280.943 94.9431 287.436 96.8115 293.979 98.6307C299.784 100.253 305.539 101.925 311.344 103.498C314.443 104.531 314.788 104.924 314.246 108.169ZM239.965 164.663C252.46 172.235 264.856 179.758 277.352 187.329C290.781 165.892 304.063 144.652 317.444 123.313C302.44 114.463 287.535 105.711 272.58 96.9098C261.708 119.527 250.886 142.046 239.965 164.663ZM284.829 99.7615C284.78 99.8599 284.731 99.909 284.731 100.007C292.946 104.826 301.161 109.693 309.524 114.61C310.065 112.004 310.508 109.595 311 107.186C302.145 104.629 293.487 102.22 284.829 99.7615Z" fill="black"/>
<path d="M239.965 164.663C250.836 142.046 261.659 119.576 272.58 96.8606C287.584 105.711 302.44 114.463 317.444 123.264C304.063 144.603 290.732 165.843 277.352 187.28C264.906 179.758 252.46 172.235 239.965 164.663ZM277.548 105.908C275.925 105.662 275.236 106.35 274.744 107.333C273.416 109.939 272.039 112.545 270.71 115.151C267.808 120.756 264.906 126.361 262.003 131.966C261.167 133.638 261.413 134.572 262.987 135.556C263.331 135.752 263.676 135.998 264.02 136.195C268.989 138.85 274.006 141.554 278.975 144.209C280.549 145.045 281.877 144.701 282.861 143.177C283.402 142.341 283.894 141.407 284.435 140.522C288.469 133.589 292.552 126.706 296.586 119.773C297.472 118.249 297.324 117.413 295.996 116.626C290.24 113.184 284.435 109.743 278.631 106.35C278.188 106.104 277.696 105.957 277.548 105.908ZM282.271 162.893C282.369 161.811 281.533 161.271 280.647 160.779C272.973 156.452 265.25 152.174 257.576 147.848C255.903 146.913 254.87 146.963 254.28 147.995C253.739 149.028 254.231 149.913 255.903 150.847C263.479 155.075 271.055 159.353 278.631 163.581C279.073 163.827 279.565 164.122 280.057 164.27C281.139 164.565 282.074 163.975 282.271 162.893ZM285.567 157.337C285.567 156.206 284.681 155.715 283.845 155.223C276.122 150.847 268.398 146.471 260.724 142.095C259.101 141.161 258.068 141.21 257.527 142.144C256.936 143.128 257.428 144.062 259.101 144.996C266.48 149.175 273.81 153.354 281.189 157.534C281.877 157.927 282.566 158.37 283.304 158.665C284.386 159.156 285.468 158.517 285.567 157.337ZM264.069 170.711C263.774 170.367 263.43 169.678 262.84 169.236C260.773 167.859 258.658 166.531 256.543 165.204C254.427 163.926 252.361 162.647 250.197 161.467C249.262 160.926 248.328 161.025 247.737 162.057C247.147 163.09 247.688 163.827 248.524 164.466C248.721 164.614 248.967 164.761 249.213 164.86C251.525 166.286 253.837 167.711 256.149 169.137C257.871 170.17 259.544 171.301 261.315 172.235C262.594 172.923 263.823 172.333 264.069 170.711ZM251.673 156.501C251.23 156.796 250.492 157.042 250.295 157.534C250.098 158.025 250.246 158.812 250.492 159.353C250.64 159.746 251.23 159.943 251.623 160.189C255.411 162.303 259.248 164.417 263.036 166.531C264.758 167.515 265.693 167.564 266.283 166.531C266.873 165.548 266.431 164.516 264.758 163.581C260.872 161.369 256.986 159.255 253.099 157.14C252.804 156.895 252.361 156.747 251.673 156.501ZM281.385 175.037C281.189 174.742 280.992 174.005 280.5 173.71C277.598 171.989 274.646 170.317 271.694 168.695C270.907 168.252 269.973 168.4 269.481 169.285C268.939 170.219 269.235 171.006 270.071 171.596C270.76 172.087 271.498 172.481 272.235 172.923C274.351 174.152 276.466 175.382 278.631 176.513C279.86 177.152 281.139 176.611 281.385 175.037ZM308.934 129.213C308.786 128.918 308.638 128.23 308.196 127.935C305.834 126.361 303.375 124.886 300.964 123.411C300.128 122.92 299.243 123.165 298.751 124.001C298.259 124.837 298.357 125.722 299.193 126.263C301.555 127.836 303.965 129.361 306.425 130.786C307.556 131.376 308.737 130.688 308.934 129.213ZM296.34 129.557C295.651 130.049 294.864 130.344 294.668 130.836C294.471 131.376 294.618 132.409 295.012 132.704C297.373 134.425 299.784 135.998 302.243 137.473C302.637 137.719 303.768 137.424 304.113 137.031C304.457 136.637 304.506 135.408 304.211 135.162C301.702 133.245 299.095 131.475 296.34 129.557ZM299.882 142.636C299.734 142.39 299.587 141.702 299.193 141.407C296.98 139.784 294.717 138.211 292.405 136.687C291.618 136.146 290.732 136.342 290.191 137.129C289.65 137.916 289.748 138.752 290.437 139.292C292.749 140.964 295.061 142.587 297.422 144.16C298.455 144.799 299.734 144.062 299.882 142.636Z" fill="white"/>
<path d="M284.829 99.7615C293.487 102.22 302.145 104.629 311 107.137C310.508 109.595 310.016 111.955 309.524 114.561C301.161 109.644 292.946 104.826 284.731 99.9582C284.731 99.909 284.78 99.8598 284.829 99.7615Z" fill="#5788C2"/>
<path d="M277.548 105.908C277.647 105.957 278.188 106.104 278.631 106.399C284.435 109.841 290.191 113.234 295.996 116.675C297.324 117.462 297.472 118.347 296.586 119.822C292.552 126.755 288.469 133.638 284.435 140.571C283.894 141.456 283.452 142.341 282.861 143.226C281.877 144.75 280.549 145.094 278.975 144.258C273.957 141.603 268.989 138.899 264.02 136.244C263.676 136.047 263.331 135.851 262.987 135.605C261.413 134.572 261.167 133.638 262.003 132.016C264.906 126.41 267.808 120.805 270.71 115.2C272.039 112.594 273.416 109.988 274.744 107.383C275.236 106.35 275.925 105.662 277.548 105.908ZM286.6 130.098C288.764 126.361 290.929 122.723 293.093 118.986C287.781 115.839 282.615 112.791 277.352 109.644C275.138 113.971 272.973 118.15 270.71 122.526C271.842 122.33 272.727 122.133 273.613 122.035C274.548 121.936 275.433 121.936 276.368 121.887C277.204 117.855 278.778 115.987 281.484 115.643C283.648 115.348 285.714 116.479 286.649 118.445C287.928 121.051 287.239 123.51 284.485 126.214C285.173 127.492 285.862 128.721 286.6 130.098ZM281.287 127.984C278.827 125.722 276.171 125.083 273.121 125.525C268.792 126.214 266.726 129.115 265.398 133.294C266.332 133.54 267.513 134.228 268.251 133.933C272.58 132.114 276.81 130.049 281.287 127.984ZM271.498 136.342C274.548 137.965 277.352 139.44 280.205 140.964C281.189 139.292 282.074 137.768 283.009 136.244C284.091 134.523 283.55 132.802 283.107 130.934C279.221 132.753 275.482 134.474 271.498 136.342ZM280.008 121.248C279.86 122.428 280.5 123.46 281.484 123.559C282.418 123.657 283.648 122.526 283.796 121.346C283.943 120.265 283.304 119.232 282.418 119.084C281.287 118.888 280.205 119.871 280.008 121.248Z" fill="black"/>
<path d="M282.271 162.893C282.123 163.975 281.14 164.565 280.156 164.27C279.664 164.122 279.172 163.876 278.729 163.581C271.153 159.353 263.578 155.125 256.002 150.847C254.329 149.913 253.788 149.028 254.378 147.995C254.969 146.963 256.002 146.913 257.674 147.848C265.398 152.125 273.072 156.452 280.746 160.779C281.533 161.27 282.369 161.811 282.271 162.893Z" fill="black"/>
<path d="M285.567 157.337C285.469 158.468 284.386 159.156 283.304 158.714C282.566 158.419 281.877 157.976 281.189 157.583C273.81 153.404 266.48 149.224 259.101 145.045C257.428 144.062 256.936 143.177 257.527 142.193C258.117 141.259 259.101 141.21 260.724 142.144C268.448 146.52 276.171 150.896 283.845 155.272C284.681 155.764 285.567 156.206 285.567 157.337Z" fill="black"/>
<path d="M264.069 170.711C263.824 172.382 262.544 172.972 261.265 172.284C259.494 171.301 257.822 170.219 256.1 169.187C253.788 167.761 251.476 166.335 249.164 164.909C248.918 164.761 248.672 164.663 248.475 164.516C247.639 163.926 247.098 163.139 247.688 162.106C248.278 161.123 249.213 161.025 250.148 161.516C252.263 162.746 254.378 163.975 256.494 165.253C258.609 166.581 260.724 167.859 262.79 169.285C263.43 169.629 263.824 170.367 264.069 170.711Z" fill="black"/>
<path d="M251.673 156.501C252.361 156.796 252.755 156.895 253.149 157.091C257.035 159.255 260.97 161.369 264.807 163.532C266.431 164.466 266.874 165.499 266.332 166.482C265.742 167.515 264.758 167.466 263.086 166.482C259.298 164.319 255.461 162.254 251.673 160.14C251.23 159.894 250.689 159.697 250.541 159.304C250.295 158.763 250.148 157.976 250.345 157.485C250.541 157.042 251.279 156.796 251.673 156.501Z" fill="black"/>
<path d="M281.385 175.038C281.14 176.611 279.91 177.152 278.581 176.463C276.417 175.333 274.302 174.103 272.186 172.874C271.448 172.481 270.711 172.038 270.022 171.547C269.186 170.957 268.89 170.121 269.432 169.236C269.973 168.351 270.858 168.252 271.645 168.646C274.597 170.268 277.548 171.94 280.451 173.661C280.992 174.005 281.189 174.743 281.385 175.038Z" fill="black"/>
<path d="M308.934 129.213C308.737 130.688 307.507 131.376 306.425 130.737C303.965 129.311 301.555 127.787 299.193 126.214C298.357 125.673 298.259 124.788 298.751 123.952C299.243 123.116 300.128 122.87 300.964 123.362C303.424 124.837 305.835 126.312 308.196 127.886C308.639 128.23 308.786 128.967 308.934 129.213Z" fill="black"/>
<path d="M296.34 129.557C299.144 131.475 301.751 133.245 304.26 135.162C304.555 135.408 304.506 136.637 304.162 137.031C303.818 137.424 302.735 137.719 302.293 137.473C299.784 135.998 297.373 134.376 295.061 132.704C294.668 132.409 294.52 131.376 294.717 130.836C294.864 130.344 295.652 130.049 296.34 129.557Z" fill="black"/>
<path d="M299.882 142.636C299.735 144.062 298.456 144.799 297.472 144.16C295.061 142.636 292.749 141.013 290.486 139.292C289.798 138.752 289.699 137.916 290.24 137.129C290.831 136.293 291.667 136.146 292.454 136.687C294.766 138.211 297.029 139.784 299.243 141.407C299.636 141.702 299.735 142.341 299.882 142.636Z" fill="black"/>
<path d="M286.6 130.098C285.862 128.721 285.173 127.492 284.485 126.263C287.239 123.51 287.928 121.1 286.649 118.494C285.715 116.528 283.599 115.397 281.484 115.692C278.778 116.036 277.204 117.904 276.368 121.936C275.482 121.985 274.548 121.985 273.613 122.084C272.727 122.182 271.842 122.379 270.711 122.575C272.973 118.199 275.138 114.02 277.352 109.693C282.615 112.84 287.781 115.889 293.093 119.035C290.929 122.674 288.814 126.361 286.6 130.098Z" fill="#EAECF1"/>
<path d="M281.287 127.984C276.761 130.098 272.58 132.114 268.251 133.933C267.513 134.228 266.332 133.54 265.398 133.294C266.726 129.115 268.792 126.214 273.121 125.525C276.171 125.034 278.827 125.722 281.287 127.984Z" fill="white"/>
<path d="M271.498 136.342C275.482 134.474 279.221 132.753 283.107 130.983C283.55 132.851 284.091 134.572 283.009 136.293C282.074 137.817 281.189 139.342 280.205 141.013C277.352 139.44 274.548 137.965 271.498 136.342Z" fill="white"/>
<path d="M280.008 121.248C280.205 119.871 281.287 118.937 282.419 119.084C283.353 119.232 283.993 120.265 283.796 121.346C283.599 122.526 282.419 123.657 281.484 123.559C280.5 123.46 279.861 122.428 280.008 121.248Z" fill="white"/>
</g>
<defs>
<clipPath id="clip0_82_3713">
<rect width="321.232" height="221.845" fill="white"/>
</clipPath>
</defs>
</svg>
