<svg xmlns="http://www.w3.org/2000/svg" width="322" height="222" fill="none" viewBox="0 0 322 222"><g clip-path="url(#a)"><path fill="#c2d8ee" d="M280.996 154.06c12.695-35.037-34.373-84.203-105.129-109.815C105.11 18.633 37.458 26.274 24.762 61.312s34.373 84.203 105.129 109.815c70.757 25.612 138.409 17.971 151.105-17.067"/><path fill="#eaecf1" d="M172.619 122.969c.492-2.36.59-2.508 2.607-2.803 3.591-.541 7.232-1.032 10.823-1.524.295-.049.59 0 .935 0 .147 1.819-.099 2.213-1.722 2.458l-11.364 1.77c-.393.05-.836.05-1.279.099"/><path fill="#fff" d="M34.14 36.925c1.132 1.082 2.165 2.016 3.05 3.049.246.295.197 1.18-.05 1.573-3.885 7.03-8.608 13.374-14.314 18.93-6.543 6.391-6.543 6.391-15.496 7.817-1.23.197-2.46.394-3.985.59.394-1.77.64-3.392 1.033-4.966C6.74 54.92 11.314 47.25 18.595 41.35c.836-.688 1.525-.836 2.607-.344 2.017.885 4.083 1.524 6.199 2.114 1.967.541 2.804.197 3.935-1.573.935-1.475 1.771-2.95 2.804-4.622"/><path fill="#fff" d="M23.662 37.86c2.312-.935 4.624-1.918 6.936-2.852.099.147.197.245.295.393-.787 1.327-1.525 2.655-2.312 3.933-.147.197-.54.394-.787.295-1.377-.393-2.755-.885-4.132-1.327q.075-.148 0-.443M41.224 33.828c-.64 1.278-1.18 2.212-1.82 3.441l-2.952-2.95c.05-.098.099-.246.148-.344 1.426-.05 2.902-.098 4.624-.148"/><path fill="#000" d="M192.936 37.564c-2.361.394-4.526.787-6.74 1.18-.393.05-.787.148-1.18.197-1.033.098-1.82-.246-2.017-1.328-.197-.983.393-1.671 1.328-1.868 2.509-.54 4.969-1.032 7.477-1.426 1.083-.147 1.476-.492 1.378-1.672-.345-5.506-.541-11.062-.787-16.57-.049-1.228.639-2.113 1.672-2.212 1.033-.098 1.771.59 2.066 1.869 1.23 5.408 2.46 10.768 3.641 16.176.197.787.541.885 1.23.737 2.164-.442 4.279-.786 6.444-1.18.393-.049.787-.147 1.181-.147 1.033-.05 1.82.393 1.967 1.426.148 1.081-.492 1.72-1.476 1.917-2.115.443-4.23.787-6.296 1.18-.492.099-1.033.197-1.87.394 2.411 5.703 4.674 11.26 7.183 16.717 4.919 10.67 11.757 20.159 18.398 29.795 6.051 8.85 12.151 17.652 18.251 26.453.787 1.131 1.721 2.163 2.508 3.294 1.23 1.721.443 3.688-1.623 4.081-4.624.934-9.297 1.819-13.922 2.704-2.017.394-2.312-.049-2.902-2.065-1.673-5.654-4.772-10.423-9.74-13.816-2.362-1.623-4.969-2.606-7.871-2.753-5.707-.295-10.183 2.163-13.922 6.195-3.739 4.081-5.854 8.997-7.084 14.357-.59 2.606-.639 2.704-3.345 3.146-4.722.738-9.445 1.426-14.168 2.213-1.377.246-2.459-.197-3.541-.836-.935-.541-.935-1.475-.591-2.36.64-1.622 1.378-3.196 1.968-4.818 3.935-11.26 7.92-22.47 11.757-33.73 2.165-6.342 4.329-12.685 6.149-19.126 2.509-8.85 3.887-17.946 4.477-27.14-.049-.295-.049-.492 0-.984m46.733 70.753c-.049-.197-.049-.295-.098-.344a4022 4022 0 0 0-12.593-18.143c-.246-.394-1.083-.64-1.575-.541-13.97 1.72-27.892 3.49-41.863 5.26-.443.05-1.033.542-1.181.935a2474 2474 0 0 0-7.182 20.306c-.098.246-.049.541-.098.984 4.132-.541 8.067-1.131 12.052-1.574.935-.098 1.427-.393 1.771-1.278 1.279-3.294 3.148-6.294 5.46-8.998 8.216-9.44 20.317-10.473 29.221-2.262 2.165 1.967 3.788 4.573 5.608 6.933.443.541.689 1.082 1.574.885 2.952-.787 5.904-1.475 8.904-2.163m-15.299-22.42c-.246-.443-.393-.738-.541-.984-2.951-4.376-5.952-8.801-8.904-13.177-.541-.787-1.033-.984-1.967-.836-7.527 1.032-15.054 2.016-22.531 3.048-.394.05-.885.492-1.033.885-1.771 5.065-3.493 10.129-5.215 15.193-.098.246-.098.59-.098.984 4.182-.541 8.265-1.033 12.348-1.574.295-.049.59-.59.737-.983.542-1.475.788-3.049 1.525-4.376 2.854-4.917 9.15-5.36 12.2-.885.837 1.23 1.23 2.704 1.87 4.278 3.591-.541 7.477-1.033 11.609-1.574M207.645 59.69c-.296-.64-.541-1.082-.738-1.524-1.82-3.934-3.69-7.818-5.461-11.752-1.279-2.9-2.312-5.9-3.492-8.8-.148-.345-.591-.541-.886-.787-.246.344-.492.639-.689.983-.098.197-.098.443-.098.64-.689 7.325-1.328 14.651-3.099 21.78-.099.345-.099.689-.148 1.132 4.92-.59 9.691-1.131 14.611-1.672m4.427 7.817c-.787-1.376-1.476-2.556-2.115-3.736-.345-.64-.738-.836-1.476-.738-5.116.59-10.183 1.131-15.299 1.721-.345.05-.935.246-.984.492-.492 1.622-.886 3.294-1.377 5.113 7.182-.983 14.118-1.917 21.251-2.852m-39.453 55.462 1.328-.148 11.364-1.77c1.623-.246 1.869-.59 1.722-2.458h-.935c-3.64.491-7.231.983-10.823 1.524-2.115.344-2.164.492-2.656 2.852m36.255-35.057c-.196-2.852-1.869-4.573-4.033-4.376-2.362.246-4.428 2.852-4.083 5.36 2.656-.345 5.362-.689 8.116-.984m34.583 25.518c-.59-1.524-1.426-2.016-2.902-1.672-3.001.689-6.051 1.279-9.298 1.918.542.885.246 2.114 1.624 1.819 3.493-.639 6.985-1.376 10.576-2.065"/><path fill="#000" d="M179.801 58.952c.197 1.033.394 1.918.59 2.852.099.54.345 1.23.148 1.672-.246.639-.787 1.425-1.328 1.524s-1.476-.492-1.722-1.033c-.443-.934-.541-2.065-.787-3.097a39 39 0 0 1-.295-1.475c-.394.098-.64.098-.886.196-1.033.246-1.82-.049-2.115-1.081-.344-1.033.197-1.918 1.131-2.114 1.476-.345 1.329-1.18 1.132-2.262-.148-.64-.295-1.426-.098-1.967.245-.59.787-1.328 1.377-1.524.836-.295 1.574.295 1.771 1.23.246 1.13.443 2.26.639 3.49 1.329-.148 2.903-.64 3.1 1.23.196 1.622-1.23 1.966-2.657 2.36M219.008 32.746c.197 1.032.492 2.065.443 3.048-.049.787-.344 1.82-.886 2.311-.934.836-2.312.098-2.508-1.278-.099-.59-.099-1.23-.197-1.869-.148-.934-.197-1.819-1.476-2.163-1.033-.295-1.23-1.82-.344-2.557.934-.737.787-1.475.541-2.31-.148-.59-.492-1.279-.295-1.82.196-.688.688-1.475 1.279-1.77.885-.393 1.623.197 1.918 1.13.295.886.394 1.82.738 2.705.098.295.541.787.787.738 1.279-.099 2.115.393 2.263 1.671.148 1.328-.787 1.721-1.918 1.918-.05.05-.099.098-.345.246M233.766 85.503c-.295 0-.492 0-.639.049-.935.147-1.624-.197-1.919-1.082-.344-.934.049-1.77.935-2.114.934-.344 1.082-.934.836-1.72a3 3 0 0 1-.098-.64c-.05-1.082.196-2.065 1.426-2.163 1.23-.148 1.771.688 1.919 1.77.147.934.295 1.524 1.476 1.72 1.279.197 1.525 2.017.344 2.803-.836.541-.836 1.131-.64 1.918.148.786.345 1.573.394 2.36.098.934-.295 1.72-1.279 1.917-1.033.246-1.771-.344-2.017-1.327-.295-1.082-.492-2.262-.738-3.491M228.207 69.77c-.934-.1-1.623-1.033-1.475-2.017.147-1.032.983-1.77 1.918-1.573 1.033.197 1.476.934 1.378 1.917-.05 1.082-.886 1.77-1.821 1.672M219.156 62.59c.098-.983 1.033-1.671 1.968-1.524.934.148 1.574.984 1.426 1.918-.147.934-1.131 1.622-2.066 1.475-.787-.148-1.427-1.033-1.328-1.868M172.422 80.193c.787.147 1.328.737 1.279 1.72-.049.984-1.033 1.623-2.017 1.427-.984-.197-1.475-.836-1.377-1.82.049-.836.935-1.475 2.115-1.327M176.063 76.014c.344-.984.934-1.574 2.017-1.377.983.196 1.426.885 1.328 1.819-.099.983-1.132 1.672-2.066 1.377-.984-.197-1.378-.885-1.279-1.82M175.571 84.372c.196-.885.787-1.475 1.869-1.377.984.099 1.476.738 1.476 1.721-.05.984-.984 1.721-1.919 1.574s-1.525-.935-1.426-1.918M217.385 58.362c-.246.885-.886 1.377-1.919 1.279-.934-.099-1.623-.984-1.377-1.918.197-.983.885-1.377 1.869-1.328.886.05 1.574.935 1.427 1.967M213.105 47.054c-.197.885-.787 1.376-1.771 1.327s-1.722-.885-1.574-1.77c.148-.983.787-1.475 1.771-1.426.984 0 1.673.836 1.574 1.869M175.226 97.598c-1.131-.197-1.672-.836-1.623-1.868.049-.934.885-1.623 1.869-1.426 1.033.197 1.574.836 1.427 1.868-.099 1.033-.787 1.426-1.673 1.426M186.59 48.43c-.836-.196-1.377-.737-1.279-1.77.098-.983.738-1.524 1.722-1.475.984.05 1.525.689 1.525 1.672s-.886 1.672-1.968 1.573M220.681 47.595c-.295 1.376-.886 1.966-1.87 1.868-.983-.099-1.524-.787-1.377-1.77s.836-1.573 1.771-1.328c.64.148 1.082.885 1.476 1.23M182.851 43.464c-.197.934-.787 1.525-1.771 1.426s-1.525-.787-1.377-1.77c.098-.934.738-1.524 1.771-1.426.984.099 1.426.787 1.377 1.77M222.845 55.51c.246-.934.886-1.474 1.87-1.327.983.197 1.426.885 1.279 1.868-.148.934-.837 1.475-1.82 1.279-.984-.148-1.378-.836-1.329-1.82M205.382 106.203c-.591.295-1.181.786-1.771.835-.886 0-1.427-.786-1.132-1.573.197-.492.984-1.131 1.476-1.082.541.049.984.787 1.525 1.18-.049.246-.049.443-.098.64"/><path fill="#fff" d="M239.669 108.317c-3.05.688-6.001 1.376-8.904 2.114-.885.197-1.131-.295-1.574-.885-1.82-2.36-3.443-4.966-5.608-6.933-8.953-8.21-21.054-7.178-29.221 2.262-2.312 2.704-4.181 5.703-5.46 8.998-.344.885-.836 1.18-1.771 1.278-3.985.492-7.969 1.033-12.052 1.573.049-.393.049-.688.098-.983a2476 2476 0 0 1 7.182-20.306c.148-.394.738-.885 1.181-.934 13.922-1.82 27.893-3.54 41.863-5.261.492-.05 1.329.196 1.575.54 4.23 5.999 8.412 12.096 12.593 18.143.049.099.049.197.098.394m-41.42-8.85c0-.197.049-.394.049-.59-.541-.492-.984-1.23-1.623-1.377-.935-.246-1.673.393-1.722 1.376-.099.984.492 1.721 1.476 1.672.59-.098 1.18-.737 1.82-1.082M224.37 85.896c-4.083.541-7.969 1.033-11.708 1.475-.639-1.524-1.033-3.048-1.869-4.277-3.05-4.475-9.347-4.032-12.2.885-.787 1.327-.984 2.9-1.525 4.376-.148.393-.443.934-.738.983-4.083.59-8.117 1.082-12.347 1.573.049-.393.049-.688.098-.983a1856 1856 0 0 1 5.215-15.193c.147-.393.639-.836 1.033-.885 7.526-1.032 15.053-2.016 22.53-3.048.935-.148 1.476.049 1.968.836 2.951 4.425 5.903 8.8 8.904 13.176.246.345.393.64.639 1.082M192.1 82.7c.885 0 1.721-.344 1.869-1.425.147-1.033-.443-1.721-1.476-1.869s-1.722.344-1.918 1.426c-.246.885.442 1.72 1.525 1.868m5.312-5.802c-.147 1.033.542 1.967 1.427 2.016.984.05 1.623-.393 1.82-1.425a1.55 1.55 0 0 0-1.426-1.869c-.984-.049-1.624.443-1.821 1.278M207.645 59.69c-4.969.59-9.692 1.13-14.562 1.672.05-.443.05-.787.148-1.131 1.82-7.179 2.41-14.505 3.099-21.782 0-.246 0-.491.098-.639.197-.344.443-.64.689-.983.295.246.738.442.886.786 1.18 2.95 2.213 5.9 3.492 8.801 1.722 3.934 3.641 7.818 5.461 11.752.147.442.393.835.689 1.524m-8.708-5.556c-1.18-.099-2.115.59-2.115 1.524 0 .983.492 1.573 1.476 1.72 1.033.148 1.869-.59 1.918-1.572.05-.935-.442-1.525-1.279-1.672"/><path fill="#5788c2" d="M212.072 67.507c-7.133.935-14.069 1.869-21.251 2.852.492-1.819.885-3.49 1.377-5.113.049-.246.64-.443.984-.492 5.116-.59 10.232-1.13 15.299-1.72.738-.1 1.181.098 1.476.737.639 1.18 1.328 2.36 2.115 3.736M208.874 87.912c-2.754.344-5.46.64-8.116.983-.345-2.507 1.771-5.113 4.083-5.359 2.164-.246 3.837 1.475 4.033 4.376"/><path fill="#eaecf1" d="M243.457 113.43c-3.64.689-7.083 1.426-10.576 2.065-1.378.246-1.082-.934-1.624-1.819 3.198-.639 6.297-1.18 9.298-1.917 1.525-.345 2.361.147 2.902 1.671"/><path fill="#000" d="M198.249 99.467c-.591.344-1.23.983-1.87 1.032-.984.098-1.525-.64-1.475-1.672.098-.983.787-1.622 1.721-1.376.64.147 1.083.885 1.624 1.376.049.246 0 .443 0 .64M192.099 82.7c-1.082-.147-1.77-.983-1.574-1.868.197-1.033.935-1.524 1.919-1.426 1.033.148 1.623.836 1.476 1.868-.099 1.033-.935 1.426-1.821 1.426M197.412 76.899c.197-.836.837-1.328 1.821-1.279.934.05 1.623.983 1.426 1.868-.197.984-.836 1.426-1.82 1.426-.885-.049-1.574-.983-1.427-2.016M198.937 54.134c.837.147 1.329.688 1.329 1.72-.05.984-.935 1.672-1.919 1.574-.984-.147-1.476-.737-1.476-1.72-.049-.935.886-1.673 2.066-1.574M27.696 32.402c-1.771-1.574-3.739-2.901-5.166-4.622-6.592-8.064-3.984-20.798 5.215-25.715 7.87-4.228 17.759.05 20.513 8.998 2.165 7.13.443 13.373-4.968 18.536l-.738.738c.344.098.541.245.787.295 13.627 1.622 23.564 8.85 30.844 20.158 1.23 1.869 2.214 3.885 3.149 5.9 1.033 2.115.246 3.442-2.017 3.836-23.711 3.933-47.373 7.866-71.084 11.8C1.476 72.768-.443 70.9 0 68.146 2.017 55.856 7.477 45.53 17.562 37.909c2.951-2.261 6.247-3.982 9.74-5.26.197-.099.345-.197.394-.246m6.444 4.523a162 162 0 0 1-2.804 4.622c-1.131 1.77-1.968 2.114-3.935 1.573-2.116-.59-4.182-1.229-6.199-2.114-1.082-.492-1.722-.344-2.607.344-7.28 5.95-11.806 13.57-14.217 22.568-.393 1.574-.689 3.147-1.033 4.966 1.525-.246 2.755-.393 3.985-.59 9.002-1.377 8.953-1.426 15.496-7.818 5.706-5.556 10.429-11.898 14.315-18.88.246-.442.295-1.278.049-1.573-.885-1.082-1.918-2.016-3.05-3.098M22.334 15.439c0 1.032-.05 2.065.049 3.048.098.934.295 1.869.541 2.754 1.673 6.539 8.412 10.226 14.414 7.965 8.707-3.294 11.265-15.636 4.525-22.126-.442-.393-1.279-.59-1.869-.54-1.672.147-3.345.688-5.018.688-3.64 0-6.74 1.229-9.69 3.245-1.87 1.278-2.706 2.851-2.952 4.966m19.775 47.103c10.823-1.82 21.203-3.54 31.632-5.261-2.362-6.441-11.66-16.816-16.234-18.045-4.034 8.211-9.445 15.685-15.398 23.306m12.594-25.174c-3.05-1.476-6.002-2.459-9.1-2.95-.296-.05-.837.294-1.034.59a28 28 0 0 0-1.87 3.392c-4.574 9.145-10.231 17.602-17.66 24.732-.836.786-1.623 1.622-2.656 2.655.836-.099 1.328-.148 1.77-.246 2.657-.443 5.265-1.033 7.92-1.279 3.543-.295 6.052-2.163 8.02-4.769 4.427-5.753 8.903-11.505 12.298-17.995.689-1.328 1.476-2.655 2.312-4.13m-31.041.491c0 .148.05.295.05.492 1.377.442 2.754.934 4.131 1.327.197.05.64-.098.787-.295a103 103 0 0 0 2.313-3.933c-.099-.148-.197-.246-.296-.393-2.312.934-4.673 1.868-6.985 2.802m17.562-4.032c-1.722.05-3.198.099-4.624.148-.05.098-.099.246-.148.344l2.952 2.95c.64-1.18 1.131-2.163 1.82-3.441M83.137 5.851c-.099 1.623-.197 3.196-.246 4.818-.099 3.688 1.279 5.556 4.87 6.687.54.148 1.131.295 1.672.492.935.295 1.624.885 1.525 1.918-.098 1.032-.787 1.524-1.82 1.622a82 82 0 0 0-3.443.393c-2.854.443-4.477 2.115-4.92 4.966-.393 2.704-.836 5.36-1.23 8.064-.246 1.622-.836 2.36-1.869 2.36-1.082-.05-1.87-1.131-1.87-2.655 0-1.82.148-3.639.1-5.458-.1-2.016-.247-4.08-.591-6.097-.443-2.458-1.919-4.031-4.526-4.376a3.1 3.1 0 0 1-1.131-.393c-1.034-.442-1.771-1.082-1.329-2.36.345-.983 1.624-1.672 2.706-1.426 3.394.688 6.543-.934 7.625-4.18.64-1.867.836-3.883 1.18-5.85.197-.983.099-2.065.443-3.048.197-.541.935-1.279 1.427-1.279.59 0 1.328.59 1.722 1.131.295.443.246 1.18.197 1.82-.05.983-.197 1.966-.345 2.9-.05-.049-.098-.049-.148-.049m-6.69 11.407c.835 1.622 1.623 3.196 2.36 4.622 1.23-1.033 2.608-2.164 3.395-2.754a434 434 0 0 1-2.607-3.737c-.837.443-2.017 1.18-3.149 1.869"/><path fill="#fff" d="M22.334 15.439c.196-2.114 1.082-3.639 2.951-4.966 2.952-2.065 6.051-3.245 9.691-3.245 1.673 0 3.346-.541 5.018-.689.64-.049 1.476.148 1.87.541 6.739 6.49 4.23 18.831-4.526 22.126-6.002 2.261-12.742-1.426-14.414-7.965a17 17 0 0 1-.541-2.754c-.098-.983-.05-2.016-.05-3.048m10.625 6.785c1.427-.344 2.854-.541 4.182-.983.836-.296 1.18-1.082.934-1.967-.295-.885-.983-1.279-1.869-1.082-1.672.393-3.296.59-4.92-.393-.737-.443-1.623-.148-2.065.688-.443.836-.296 1.672.492 2.114.983.59 2.066 1.033 3.246 1.623m-4.083-8.703c-.049 1.033.394 1.721 1.427 1.82s1.722-.394 1.87-1.476c.147-.983-.493-1.819-1.427-1.868-1.132-.05-1.673.54-1.87 1.524m10.134.443c.148-.984-.541-1.918-1.426-1.967-.984-.05-1.624.443-1.82 1.377-.197.885.54 1.77 1.426 1.868.984.098 1.574-.393 1.82-1.278M42.11 62.542c5.952-7.572 11.363-15.046 15.446-23.355C62.082 40.465 71.38 50.79 73.79 57.23c-10.478 1.77-20.858 3.491-31.68 5.31"/><path fill="#eaecf1" d="M54.703 37.368c-.837 1.524-1.623 2.802-2.312 4.13-3.395 6.49-7.871 12.242-12.299 17.995-1.967 2.606-4.476 4.474-8.018 4.77-2.656.196-5.264.835-7.92 1.278-.492.098-.935.147-1.771.246 1.082-1.033 1.87-1.869 2.656-2.656 7.429-7.129 13.086-15.586 17.66-24.73.591-1.181 1.181-2.312 1.87-3.394.197-.294.689-.639 1.033-.59 3.1.492 6.05 1.475 9.1 2.95"/><path fill="#fff" d="M76.446 17.258c1.132-.688 2.312-1.377 3.149-1.918.885 1.279 1.77 2.557 2.607 3.737-.738.59-2.115 1.721-3.394 2.753-.738-1.376-1.526-2.95-2.362-4.572"/><path fill="#000" d="M34.238 21.929c-.836.197-1.721.049-2.508-.295-.738-.344-1.427-.689-2.067-1.082-.787-.491-.934-1.327-.491-2.114.442-.836 1.328-1.13 2.066-.688 1.623.983 3.197.786 4.919.393.885-.197 1.623.197 1.87 1.082.294.885-.1 1.72-.935 1.966-.886.345-1.87.541-2.854.738M28.876 13.521c.197-.983.787-1.573 1.82-1.524.984.05 1.624.885 1.427 1.868-.147 1.033-.836 1.574-1.87 1.475-.983-.147-1.426-.835-1.377-1.819M39.01 13.964c-.197.885-.787 1.376-1.77 1.278-.935-.098-1.624-.983-1.427-1.868.196-.984.787-1.475 1.82-1.377.836.098 1.525.983 1.377 1.967M106.503 56.051c-.295 2.557-.639 5.114-.836 7.621-.049.344.295.836.541 1.082 7.773 7.572 15.594 15.095 23.416 22.617.443.394 1.181.59 1.82.689 9.199.983 18.399 1.868 27.598 2.851.639.05 1.377.295 1.771.738.344.344.442 1.13.393 1.672-.147 1.081-.59 2.114-.688 3.195l-4.575 57.527c-.148 2.163-.296 4.376-.197 6.539 0 .885.492 1.77.836 2.655.394 1.033.935 2.016 1.23 3.098.393 1.376-.344 2.311-1.771 2.262-.689 0-1.427-.099-2.115-.148-40.437-4.523-80.923-9.047-121.36-13.619-.935-.099-1.82-.443-2.657-.787-1.033-.443-1.328-1.229-.885-2.311.098-.246.197-.492.393-.688 1.771-2.115 2.165-4.671 2.51-7.326 2.656-20.7 5.46-41.4 8.264-62.1.098-.59.147-1.13.344-1.72.345-1.082 1.082-1.426 2.214-1.18.885.196 1.722.393 2.607.491 7.477.787 14.955 1.525 22.383 2.311 1.574.148 2.853-.098 4.28-.934 8.855-5.064 17.71-10.08 26.712-14.8 2.656-1.376 3.689-2.999 3.984-5.949.788-7.965 1.919-15.88 2.903-23.797.197-1.72.639-2.114 2.41-2.114.886 0 1.771 0 2.657.098 11.117 1.279 22.186 2.557 33.304 3.835 2.508.295 3.099.984 2.804 3.491-.689 5.654-1.476 11.358-2.214 17.012-.197 1.524-.886 2.016-2.312 1.869-10.773-1.23-21.596-2.41-32.369-3.639-1.033-.098-2.066-.344-3.395-.54M43.536 82.405c-1.082 8.015-2.165 15.832-3.198 23.699 38.42 3.983 76.644 7.916 115.014 11.899.64-8.113 1.23-15.931 1.87-23.847-38.027-3.933-75.758-7.817-113.686-11.75m33.058 68.491c.098-.492.197-.934.246-1.377 1.033-8.456 2.115-16.913 3.148-25.37.05-.59.05-1.279.394-1.672.393-.492 1.131-.983 1.672-.934.492 0 1.033.688 1.328 1.229.197.393.099 1.033.05 1.573-.295 2.754-.64 5.507-.984 8.261-.443 3.638-.935 7.227-1.427 10.866-.344 2.606-.59 5.212-.885 7.768 4.28.492 8.412.984 12.495 1.475.344-3.146.738-6.195 1.082-9.145-.246-.098-.295-.147-.393-.147-1.033-.148-2.067-.246-3.05-.345-1.476-.196-2.214-.885-2.116-1.917.099-1.082.984-1.623 2.41-1.475 1.132.098 2.264.246 3.395.393.541-4.818 1.082-9.44 1.623-14.062-.787-.098-1.377-.197-2.016-.246a311 311 0 0 1-6.79-.639c-.983-.098-1.573-.639-1.573-1.622 0-1.082.688-1.574 1.721-1.672a3 3 0 0 1 .935 0c6.15.492 12.298 1.032 18.448 1.573 1.377.099 2.164.934 2.066 1.967s-1.033 1.623-2.411 1.475c-2.213-.246-4.427-.492-6.64-.787-.591 4.966-1.132 9.539-1.624 14.062.147.099.246.197.295.197l2.804.295c1.525.197 2.312.934 2.164 2.016-.147 1.032-.983 1.573-2.459 1.426-1.033-.099-2.115-.246-3.149-.344a950 950 0 0 0-1.082 9.538c3 .344 5.854.688 8.757 1.033 2.016.246 2.066.246 2.262-1.82.837-8.506 1.624-17.061 2.411-25.567.049-.491.098-.983.197-1.475.196-.934.738-1.573 1.721-1.524 1.083.049 1.575.787 1.624 1.77.049.443-.049.885-.049 1.328a2339 2339 0 0 1-1.821 18.388c-.295 3.147-.737 6.245-1.082 9.539 1.574.197 2.804.344 4.034.492 1.82.196 2.017.098 2.165-1.721 1.131-11.702 2.213-23.355 3.345-35.057 0-.197-.049-.443-.099-.738-14.856-1.573-29.663-3.097-44.618-4.67-1.23 12.537-2.46 24.829-3.69 37.22 1.772.049 3.444.196 5.166.442m75.462 8.654c.984-12.735 2.017-25.371 3.001-37.81-10.626-1.23-21.104-2.459-31.73-3.688-1.229 12.734-2.459 25.223-3.64 37.712 10.773 1.278 21.448 2.507 32.369 3.786m-84.071-9.539c1.23-12.587 2.46-24.879 3.69-37.023-10.725-1.23-21.154-2.459-31.73-3.688-1.673 12.44-3.345 24.682-4.969 36.876 10.97 1.278 21.891 2.508 33.009 3.835m56.474-62.689c-.394-.393-.492-.54-.59-.688-6.543-6.343-13.086-12.636-19.629-18.98-.688-.687-1.18-.49-1.869-.097-8.461 4.67-16.972 9.341-25.433 14.012-.295.148-.54.345-1.18.787 16.43 1.623 32.418 3.294 48.701 4.966m29.565 78.128c-.393-2.164-.639-2.409-2.558-2.655-38.518-4.425-77.037-8.801-115.555-13.226-2.017-.246-2.46.049-3 2.261 40.338 4.573 80.725 9.096 121.113 13.62M130.51 39.924c-3.345-.393-6.494-.737-9.544-1.081-.59 5.211-1.18 10.226-1.771 15.242 3.247.393 6.395.737 9.544 1.081.59-5.162 1.18-10.177 1.771-15.242m1.721 15.636c3.1.344 6.051.688 9.15 1.081.591-5.162 1.181-10.227 1.771-15.29-3.05-.345-6.05-.69-9.15-1.082-.59 5.113-1.18 10.177-1.771 15.29m-25.137-2.606c2.902.344 5.657.639 8.461.983.639-5.36 1.23-10.423 1.82-15.586-2.853-.344-5.559-.64-8.461-.983-.59 5.31-1.23 10.472-1.82 15.586"/><path fill="#fff" d="M43.536 82.405c37.928 3.934 75.659 7.818 113.686 11.751-.64 7.916-1.23 15.734-1.87 23.847-38.37-3.983-76.594-7.916-115.014-11.899 1.033-7.867 2.116-15.684 3.198-23.699m48.308 16.57c-.541 4.622 2.853 8.801 7.526 9.391 4.772.59 9.347-2.95 9.888-7.719.541-4.573-2.804-8.949-7.182-9.392-5.214-.54-9.642 2.803-10.232 7.72m-24.35-1.868c.097 0 .147 0 .245.049.197-1.77.443-3.54.59-5.31.148-1.377-.344-2.213-1.328-2.41-.984-.147-1.82.492-2.017 1.82-.54 3.589-1.033 7.227-1.525 10.866-.147 1.327.492 2.261 1.476 2.261 1.18 0 1.722-.737 1.87-1.868.295-1.819.491-3.639.688-5.409m-10.38-.689h-.05c.197-1.82.443-3.638.64-5.458.098-1.081-.148-1.966-1.378-2.261-.984-.197-1.87.492-2.017 1.819q-.663 5.31-1.18 10.62c-.148 1.328.54 2.164 1.574 2.164 1.23 0 1.672-.836 1.82-1.869zm75.855 6.589h.05c.196-1.77.442-3.54.59-5.31.098-1.082-.148-1.967-1.378-2.213-1.033-.197-1.82.492-2.016 1.82a729 729 0 0 0-1.279 10.324c-.148 1.328.491 2.164 1.525 2.262s1.721-.639 1.869-1.967c.246-1.622.443-3.294.639-4.916m5.756.688c-.098 0-.148 0-.246-.049l-.59 5.162c-.099 1.082.344 1.869 1.426 2.065 1.083.148 1.771-.491 1.919-1.425.541-3.54 1.033-7.13 1.476-10.719.147-1.032-.197-2.016-1.476-2.163-1.23-.099-1.771.737-1.919 1.819zM76.594 150.896c-1.771-.197-3.394-.393-5.215-.59 1.23-12.39 2.46-24.682 3.69-37.22 14.955 1.573 29.762 3.147 44.618 4.671.049.295.099.492.099.737-1.083 11.702-2.214 23.355-3.346 35.057-.147 1.77-.393 1.918-2.164 1.721-1.23-.147-2.46-.295-4.034-.492.394-3.245.787-6.391 1.082-9.538.64-6.146 1.181-12.243 1.82-18.389.05-.442.099-.885.05-1.328-.099-.983-.541-1.77-1.624-1.77-.984-.049-1.525.59-1.721 1.525-.099.491-.148.983-.197 1.475-.837 8.506-1.624 17.061-2.411 25.567-.196 2.065-.196 2.065-2.263 1.819-2.853-.344-5.755-.688-8.756-1.032.344-3.147.738-6.196 1.082-9.539 1.033.098 2.116.246 3.149.344 1.475.148 2.361-.393 2.459-1.426.148-1.081-.639-1.819-2.164-2.015l-2.804-.295c-.099 0-.148-.099-.295-.197.54-4.524 1.082-9.096 1.623-14.062 2.214.246 4.427.541 6.641.787 1.378.147 2.312-.443 2.411-1.476.098-1.032-.689-1.868-2.067-1.966-6.149-.541-12.298-1.033-18.447-1.574a3 3 0 0 0-.935 0c-1.033.099-1.722.59-1.722 1.672 0 1.033.64 1.573 1.575 1.623 2.263.245 4.526.393 6.788.639.64.049 1.23.147 2.017.246-.54 4.621-1.082 9.194-1.623 14.062a80 80 0 0 0-3.394-.394c-1.476-.098-2.312.443-2.41 1.475-.1 1.033.639 1.721 2.114 1.918 1.034.147 2.017.246 3.05.344.099 0 .148.049.394.148-.344 2.999-.689 5.998-1.082 9.145-4.083-.492-8.216-.934-12.495-1.475.295-2.557.59-5.163.885-7.769.443-3.638.935-7.227 1.427-10.866.344-2.753.64-5.507.984-8.26.049-.541.196-1.131-.05-1.573-.295-.541-.836-1.18-1.328-1.23-.541-.049-1.279.443-1.672.935-.345.393-.296 1.081-.394 1.671-1.033 8.457-2.115 16.914-3.148 25.371 0 .59-.099.983-.197 1.524"/><path fill="#5788c2" d="M152.056 159.55a9232 9232 0 0 0-32.418-3.737c1.23-12.538 2.41-24.977 3.64-37.712 10.626 1.229 21.104 2.459 31.73 3.688a15572 15572 0 0 0-2.952 37.761M67.985 150.011c-11.118-1.278-21.99-2.557-33.058-3.835 1.673-12.243 3.296-24.436 4.969-36.876 10.576 1.229 21.054 2.459 31.73 3.688-1.181 12.144-2.411 24.436-3.64 37.023"/><path fill="#eaecf1" d="M124.459 87.322c-16.332-1.672-32.32-3.343-48.701-5.015.64-.393.885-.59 1.18-.787 8.461-4.67 16.972-9.342 25.433-14.013.689-.344 1.132-.59 1.869.099 6.494 6.342 13.086 12.685 19.629 18.979.147.196.246.344.59.737"/><path fill="#fff" d="M154.024 165.45c-40.388-4.524-80.775-9.047-121.163-13.62.59-2.212.984-2.507 3-2.261 38.52 4.425 77.038 8.801 115.556 13.226 1.968.246 2.214.491 2.607 2.655M130.51 39.924c-.591 5.015-1.181 10.08-1.771 15.242-3.149-.344-6.248-.737-9.544-1.081.591-5.016 1.181-10.03 1.771-15.242 3.05.344 6.199.737 9.544 1.081"/><path fill="#ce0500" d="M132.231 55.56c.591-5.114 1.181-10.178 1.771-15.291 3.1.344 6.1.688 9.15 1.081-.59 5.064-1.18 10.129-1.771 15.291-3.099-.393-6.05-.737-9.15-1.081"/><path fill="#000091" d="M107.094 52.954c.59-5.065 1.18-10.276 1.82-15.586 2.902.344 5.608.639 8.461.983-.59 5.113-1.181 10.227-1.82 15.586-2.755-.344-5.559-.64-8.461-.983"/><path fill="#000" d="M91.844 98.975c.54-4.917 5.018-8.31 10.281-7.72 4.378.443 7.724 4.819 7.182 9.392-.541 4.769-5.116 8.309-9.887 7.719-4.723-.541-8.117-4.72-7.576-9.391m3.443.393a5.095 5.095 0 0 0 4.379 5.605c3 .394 5.903-1.819 6.247-4.72.344-2.802-1.771-5.31-4.722-5.605-2.805-.344-5.56 1.868-5.904 4.72M67.493 97.107c-.197 1.819-.443 3.638-.64 5.457-.147 1.131-.639 1.868-1.869 1.868-.984 0-1.672-.983-1.475-2.261.442-3.639.983-7.228 1.525-10.866.196-1.328 1.032-2.016 2.016-1.82.984.148 1.476 1.033 1.329 2.41l-.59 5.31c-.1-.099-.198-.099-.296-.099M57.113 96.418l-.59 5.015c-.148 1.082-.541 1.918-1.82 1.869-1.033 0-1.722-.885-1.574-2.164q.517-5.31 1.18-10.62c.148-1.328 1.033-2.065 2.017-1.82 1.18.247 1.476 1.18 1.378 2.263-.197 1.819-.394 3.638-.64 5.457 0-.049 0-.049.05 0M132.969 103.007c-.196 1.622-.344 3.294-.59 4.916-.147 1.328-.885 2.065-1.869 1.967-1.033-.098-1.673-.934-1.525-2.262.393-3.441.787-6.883 1.279-10.325.197-1.327.984-2.016 2.017-1.819 1.23.246 1.476 1.13 1.377 2.213l-.59 5.31zM138.725 103.695c.197-1.77.393-3.54.639-5.31.148-1.033.64-1.918 1.919-1.82 1.279.099 1.623 1.082 1.476 2.164a403 403 0 0 1-1.476 10.719c-.148.983-.885 1.622-1.919 1.425-1.131-.196-1.525-.983-1.426-2.065l.59-5.162c.049.049.148.049.197.049"/><path fill="#eaecf1" d="M95.287 99.368c.345-2.852 3.1-5.064 5.953-4.77 2.951.345 5.017 2.853 4.722 5.606-.344 2.901-3.296 5.114-6.247 4.72-2.804-.344-4.723-2.802-4.428-5.556"/><path fill="#000" d="M189.837 171.35c3.148-1.819 6.198-3.589 9.396-5.409-.394-2.999-2.706-5.85-2.312-9.145-1.575-1.917-3.395-3.687-4.674-5.752-5.263-8.506-2.459-19.274 6.051-23.798 7.281-3.884 16.972-1.524 22.088 5.556 4.329 5.999 5.067 12.391 1.672 19.176-.344.639-.196 1.672 0 2.409 2.263 8.162 4.575 16.324 6.887 24.486 2.116 7.571 4.28 15.094 6.396 22.666.049.197.098.443.196.639.64 2.754.492 3.098-2.115 4.278-.246.098-.443.246-.787.442.984 2.606 1.918 5.212 2.853 7.818.492 1.328.984 2.655 1.476 4.032.59 1.622.344 2.606-.689 2.999-1.082.393-1.918-.148-2.509-1.77a1394 1394 0 0 1-3.788-10.276c-.147-.443-.344-.885-.59-1.426-1.033.443-1.918.836-2.804 1.229-1.426.639-2.066.443-2.902-.885-.935-1.524-1.82-3.048-2.853-4.769-1.821 1.77-3.493 3.442-5.215 5.113-1.476 1.426-2.952 2.852-4.477 4.229-1.574 1.376-2.508 1.081-3.492-.738-.197-.344-.689-.639-1.132-.786l-40.879-14.603c-1.87-.639-3.69-1.328-5.559-1.967-1.87-.688-2.411-1.573-1.525-3.343 1.476-2.901 3.001-5.753 4.673-8.556 3.69-6.195 8.019-11.849 13.824-16.127 2.459-1.819 5.263-2.901 8.412-2.114 2.508.639 4.427 3.245 4.427 5.851-.049.098-.049.344-.049.541m33.254 21.486c-.098-.344-.098-.491-.147-.59-.738-1.278-1.968-1.376-3.05-.885a72 72 0 0 0-7.035 3.491c-1.722.984-3.247 2.311-4.919 3.442-.836.541-1.722.541-2.411-.344-.688-.885-.344-1.672.296-2.409.196-.197.393-.345.59-.541 1.574-1.475 3.148-2.95 4.821-4.524-.787-.885-1.378-1.622-2.115-2.311-1.525-1.475-1.673-3.933.541-5.211 1.721-.984 3.542-1.721 5.509-2.705-.885-.049-1.721-.147-2.558-.098-3.197.246-5.657 2.065-8.117 3.884-1.967 1.475-3.886 2.999-5.903 4.425-1.082.787-2.115.689-2.705-.147-.738-1.033-.246-1.869.491-2.606.197-.197.394-.344.591-.541 1.82-1.672 3.689-3.392 5.657-5.212-.935-1.081-1.771-2.114-2.607-3.146-1.574-1.918-1.476-3.295.393-4.917.443-.394 1.033-.738 1.574-1.033.984-.541 1.968-1.081 3.247-1.77-2.164-.393-3.984-.196-5.509.639-2.952 1.574-5.953 3.147-8.511 5.212-2.509 2.016-4.526 4.622-6.739 6.982-.689.738-1.476 1.278-2.46.688-1.033-.639-1.033-1.573-.492-2.556.492-.885 1.132-1.721 1.623-2.606 1.034-1.967 2.165-3.885 3.001-5.95.837-1.966-.688-3.736-2.755-3.441-.049.246-.098.491-.098.737-.049 4.13-1.771 7.425-4.772 10.227-.984.934-1.869.934-2.853.344-1.082-.639-2.164-1.278-3.148-2.016-.787-.59-1.23-.393-1.722.345-1.919 2.95-3.886 5.851-5.805 8.801-1.082 1.721-1.968 3.54-3.001 5.359.443.197.689.295.935.393 5.854 2.065 11.708 4.13 17.513 6.245 9.494 3.392 18.988 6.785 28.532 10.177.443.148 1.181.295 1.476.05 2.459-2.213 4.87-4.573 7.477-7.031a16 16 0 0 1-1.279-1.279 15 15 0 0 1-1.082-1.377c-1.082-1.475-.787-3.146.639-4.228 1.919-1.377 4.182-2.163 6.887-1.967m-4.427-37.613c-6.051 1.426-11.954 2.802-17.906 4.228.541 1.672 1.082 3.098 1.475 4.573.296 1.131.788 1.573 2.116 1.672 4.624.245 7.182 3.491 6.493 8.063-.147 1.131-.639 2.262-.984 3.442 3.149-.541 6.396-1.229 8.609 1.819 2.165 2.95 1.23 5.999-.442 9.047.934-.098 1.672-.246 2.41-.295 4.329-.197 7.281 3.294 6.002 7.424-.542 1.82-1.722 3.491-2.608 5.212-.196.344-.541.885-.393 1.131.787 1.475 1.672 2.901 2.558 4.327 1.918-.836 3.591-1.623 5.362-2.311.738-.295.787-.688.59-1.377-1.82-6.342-3.591-12.685-5.411-19.077-.098-.393-.541-.885-.886-.983-6.1-1.328-8.264-8.9-3.984-13.423.295-.295.541-.885.443-1.278a2753 2753 0 0 1-3.444-12.194m-25.58-15.144c-.788 5.999 2.804 12.587 8.362 15.046.541.245 1.329.295 1.919.147 4.526-1.032 9.051-2.065 13.577-3.196.591-.147 1.279-.639 1.624-1.18 3.984-6.293 2.164-14.652-4.133-19.225-8.559-6.293-19.972-1.77-21.349 8.408M173.8 174.202c.393.344.541.442.688.541 2.362 1.72 2.411 1.72 3.985-.787.836-1.328 1.427-2.803 1.132-4.868-2.017 1.77-3.838 3.393-5.805 5.114m28.679.295c.984 1.18 1.722 2.065 2.509 2.999 1.378-1.475 2.509-2.852 2.509-5.261-1.82.787-3.296 1.426-5.018 2.262m13.479 10.079c-.147-.197-.295-.344-.442-.541-1.279.492-2.608 1.033-4.133 1.623.886.983 1.476 1.672 2.263 2.507a101 101 0 0 0 2.312-3.589m6.494 11.997c-.098-.147-.197-.344-.295-.492l-3.837 1.279c.787.885 1.279 1.475 1.869 2.163.836-1.082 1.525-2.016 2.263-2.95m2.656-18.389c-.59-2.065-1.082-3.835-1.623-5.752-1.181 2.212-.541 4.474 1.623 5.752"/><path fill="#eaecf1" d="M223.091 192.836c-2.705-.196-4.968.59-6.985 2.164-1.427 1.131-1.673 2.802-.64 4.228.345.492.689.934 1.083 1.377.344.393.787.737 1.279 1.278-2.607 2.508-5.018 4.819-7.478 7.031-.246.246-.983.099-1.475-.049-9.495-3.393-18.989-6.785-28.533-10.178-5.854-2.065-11.708-4.179-17.512-6.244a24 24 0 0 1-.935-.393c1.033-1.82 1.919-3.639 3.001-5.36 1.869-2.95 3.886-5.851 5.805-8.801.492-.737.934-.934 1.721-.344.984.738 2.066 1.377 3.149 2.016 1.033.639 1.918.59 2.853-.344 3.001-2.803 4.723-6.097 4.772-10.227 0-.246.049-.492.098-.738 2.115-.295 3.591 1.475 2.755 3.442-.836 2.065-1.968 3.983-3.001 5.949-.492.885-1.131 1.721-1.623 2.606-.541.984-.541 1.918.492 2.557.984.59 1.771.049 2.459-.688 2.214-2.36 4.231-5.015 6.74-6.982 2.558-2.065 5.559-3.639 8.51-5.212 1.574-.836 3.395-1.032 5.51-.639-1.279.688-2.263 1.18-3.247 1.77-.541.295-1.082.639-1.574 1.032-1.869 1.623-1.968 3-.394 4.917.837 1.033 1.722 2.065 2.608 3.147-1.968 1.819-3.788 3.491-5.658 5.212-.196.196-.393.344-.59.541-.738.737-1.23 1.573-.492 2.606.59.835 1.624.934 2.706.147 1.968-1.426 3.886-2.95 5.903-4.425 2.46-1.819 4.919-3.638 8.117-3.884.836-.05 1.672.049 2.558.098-1.968.934-3.788 1.721-5.51 2.704-2.213 1.279-2.066 3.737-.541 5.212.689.688 1.328 1.426 2.115 2.311l-4.82 4.523c-.197.197-.443.345-.591.541-.639.738-.934 1.574-.295 2.409.64.836 1.574.885 2.411.345 1.672-1.082 3.197-2.459 4.919-3.442 2.263-1.328 4.624-2.459 7.034-3.491 1.083-.443 2.313-.344 3.05.885.099-.098.099.049.246.393"/><path fill="#fff" d="M218.664 155.223c1.181 4.228 2.361 8.211 3.444 12.292.098.344-.148.983-.443 1.278-4.329 4.524-2.115 12.096 3.985 13.423.344.098.787.59.885.983 1.82 6.343 3.591 12.686 5.411 19.078.197.639.148 1.081-.59 1.376-1.722.689-3.444 1.475-5.362 2.311-.886-1.475-1.771-2.852-2.558-4.327-.148-.245.246-.786.393-1.131.886-1.72 2.067-3.392 2.608-5.211 1.23-4.13-1.722-7.67-6.002-7.425-.738.05-1.476.148-2.41.295 1.672-3.048 2.607-6.096.442-9.047-2.263-3.048-5.46-2.36-8.608-1.819.344-1.18.787-2.311.983-3.441.689-4.573-1.869-7.818-6.493-8.064-1.279-.049-1.771-.541-2.115-1.672-.394-1.475-.935-2.851-1.476-4.572 5.952-1.525 11.806-2.901 17.906-4.327"/><path fill="#5788c2" d="M193.084 140.079c1.328-10.178 12.79-14.701 21.349-8.457 6.248 4.573 8.068 12.981 4.133 19.225-.345.541-1.033 1.032-1.624 1.18-4.525 1.131-9.002 2.163-13.577 3.196-.59.147-1.377.098-1.919-.148-5.509-2.409-9.149-8.997-8.362-14.996m9.641-1.77c-.983-1.18-1.475-3.196-3.246-2.163-2.066 1.18-.197 2.704.196 4.179-.983.639-1.918 1.278-2.902 1.918-1.23.835-1.574 1.72-.984 2.655.591.885 1.574.983 2.853.196.935-.59 1.87-1.18 2.903-1.868.689 1.18 1.279 2.213 1.968 3.343a44 44 0 0 1-2.263 1.475c-1.525.984-1.968 1.918-1.329 2.852.64.934 1.673.934 3.198 0 .689-.442 1.427-.836 2.066-1.278 1.033 1.081 1.427 3.343 3.345 2.311 2.214-1.18.148-2.754-.197-4.278.738-.442 1.476-.885 2.263-1.377.541.885.935 1.623 1.378 2.311.59.934 1.377 1.426 2.459.934.886-.393 1.083-1.475.492-2.556-.442-.836-.934-1.623-1.426-2.508 1.131-.737 2.263-1.377 3.296-2.114 1.131-.787 1.426-1.721.885-2.557-.541-.885-1.525-.983-2.705-.295a151 151 0 0 0-3.296 2.016c-.738-1.229-1.378-2.36-2.067-3.491.935-.639 1.722-1.131 2.46-1.672.935-.639 1.378-1.524.689-2.507-.689-1.033-1.673-.836-2.607-.295-.738.442-1.476.934-2.312 1.475-.542-.836-.935-1.573-1.427-2.213-.64-.835-1.476-1.278-2.411-.639-.885.59-.885 1.475-.442 2.36.393.787.836 1.524 1.328 2.409-.787.443-1.427.885-2.165 1.377"/><path fill="#fff" d="M173.8 174.202c1.968-1.721 3.738-3.344 5.805-5.163.295 2.065-.296 3.54-1.132 4.868-1.574 2.507-1.574 2.507-3.985.786-.147-.049-.245-.147-.688-.491M202.479 174.497c1.771-.787 3.247-1.475 4.969-2.262 0 2.458-1.131 3.835-2.509 5.261a183 183 0 0 0-2.46-2.999M215.958 184.576c-.737 1.131-1.426 2.262-2.262 3.589-.787-.885-1.378-1.524-2.263-2.507 1.525-.59 2.853-1.082 4.132-1.623.148.197.246.344.393.541M222.452 196.573c-.689.934-1.427 1.868-2.263 2.95-.59-.688-1.131-1.278-1.869-2.163 1.426-.492 2.607-.885 3.837-1.279.049.148.197.295.295.492M225.108 178.184c-2.213-1.278-2.804-3.54-1.623-5.752.541 1.917 1.033 3.687 1.623 5.752"/><path fill="#000" d="M202.726 138.309c.737-.492 1.377-.934 2.164-1.426-.492-.836-.885-1.622-1.328-2.409-.443-.885-.492-1.77.443-2.36.983-.639 1.82-.246 2.41.639.492.689.886 1.426 1.427 2.213.836-.541 1.574-.984 2.312-1.475.934-.541 1.918-.738 2.607.295.689.983.246 1.868-.689 2.507-.787.541-1.525 1.033-2.459 1.672.688 1.18 1.328 2.311 2.066 3.491 1.18-.738 2.213-1.377 3.296-2.016 1.23-.688 2.164-.59 2.705.295s.246 1.819-.885 2.557c-1.082.737-2.165 1.376-3.296 2.114.541.885 1.033 1.721 1.427 2.508.59 1.081.393 2.163-.492 2.556-1.083.492-1.87 0-2.46-.934-.443-.737-.886-1.426-1.378-2.311-.787.492-1.524.934-2.262 1.377.344 1.524 2.41 3.097.196 4.277-1.918 1.033-2.263-1.229-3.345-2.31-.688.393-1.377.835-2.066 1.278-1.525.934-2.558.934-3.197 0-.64-.983-.246-1.868 1.328-2.852.738-.491 1.476-.983 2.263-1.475-.64-1.131-1.279-2.163-1.968-3.343-1.033.688-1.968 1.278-2.902 1.868-1.23.787-2.263.689-2.854-.197-.59-.934-.246-1.819.984-2.655.935-.639 1.919-1.278 2.903-1.917-.443-1.475-2.263-2.999-.197-4.179 1.771-.984 2.263 1.081 3.247 2.212m6.001 5.015c-.689-1.18-1.377-2.261-2.115-3.441-.836.54-1.476.983-2.263 1.475.689 1.18 1.328 2.261 1.968 3.441.934-.541 1.623-.983 2.41-1.475"/><path fill="#5788c2" d="M208.727 143.324c-.836.492-1.476.934-2.361 1.426a77 77 0 0 1-1.968-3.442c.787-.491 1.427-.934 2.263-1.475.689 1.18 1.377 2.311 2.066 3.491"/><path fill="#000" d="M314.246 108.169c-.442 2.262-.934 4.819-1.475 7.326-.148.689.049 1.033.639 1.377 1.919 1.082 3.788 2.213 5.657 3.294 2.46 1.426 2.755 2.557 1.23 4.966-2.558 4.13-5.165 8.211-7.723 12.341-10.626 16.914-21.202 33.828-31.828 50.791-.295.442-.59.934-.738 1.426-.541 1.868-1.476 2.261-3.148 1.229-3.542-2.114-7.084-4.278-10.626-6.441-9.052-5.507-18.152-11.014-27.204-16.521-.246-.147-.541-.295-.787-.491-2.411-2.016-2.46-2.164-1.279-4.671 10.822-22.421 21.596-44.891 32.418-67.311 1.132-2.31 2.509-3 5.018-2.31 6.543 1.77 13.036 3.637 19.579 5.457 5.805 1.622 11.56 3.294 17.365 4.867 3.099 1.033 3.444 1.426 2.902 4.671m-74.281 56.494c12.495 7.572 24.891 15.095 37.387 22.666 13.429-21.437 26.711-42.677 40.092-64.016-15.004-8.85-29.909-17.602-44.864-26.403-10.872 22.617-21.694 45.136-32.615 67.753m44.864-64.902c-.049.099-.098.148-.098.246 8.215 4.819 16.43 9.686 24.793 14.603.541-2.606.984-5.015 1.476-7.424-8.855-2.557-17.513-4.966-26.171-7.425"/><path fill="#fff" d="M239.965 164.663c10.871-22.617 21.694-45.087 32.615-67.802 15.004 8.85 29.86 17.602 44.864 26.403-13.381 21.339-26.712 42.579-40.092 64.016a36538 36538 0 0 1-37.387-22.617m37.583-58.755c-1.623-.246-2.312.442-2.804 1.425-1.328 2.606-2.705 5.212-4.034 7.818l-8.707 16.815c-.836 1.672-.59 2.606.984 3.59.344.196.689.442 1.033.639 4.969 2.655 9.986 5.359 14.955 8.014 1.574.836 2.902.492 3.886-1.032.541-.836 1.033-1.77 1.574-2.655 4.034-6.933 8.117-13.816 12.151-20.749.886-1.524.738-2.36-.59-3.147a2037 2037 0 0 0-17.365-10.276c-.443-.246-.935-.393-1.083-.442m4.723 56.985c.098-1.082-.738-1.622-1.624-2.114-7.674-4.327-15.397-8.605-23.071-12.931-1.673-.935-2.706-.885-3.296.147-.541 1.033-.049 1.918 1.623 2.852 7.576 4.228 15.152 8.506 22.728 12.734.442.246.934.541 1.426.689 1.082.295 2.017-.295 2.214-1.377m3.296-5.556c0-1.131-.886-1.622-1.722-2.114-7.723-4.376-15.447-8.752-23.121-13.128-1.623-.934-2.656-.885-3.197.049-.591.984-.099 1.918 1.574 2.852 7.379 4.179 14.709 8.358 22.088 12.538.688.393 1.377.836 2.115 1.131 1.082.491 2.164-.148 2.263-1.328m-21.498 13.374c-.295-.344-.639-1.033-1.229-1.475-2.067-1.377-4.182-2.705-6.297-4.032-2.116-1.278-4.182-2.557-6.346-3.737-.935-.541-1.869-.442-2.46.59-.59 1.033-.049 1.77.787 2.409.197.148.443.295.689.394l6.936 4.277c1.722 1.033 3.395 2.164 5.166 3.098 1.279.688 2.508.098 2.754-1.524m-12.396-14.21c-.443.295-1.181.541-1.378 1.033s-.049 1.278.197 1.819c.148.393.738.59 1.131.836 3.788 2.114 7.625 4.228 11.413 6.342 1.722.984 2.657 1.033 3.247 0 .59-.983.148-2.015-1.525-2.95-3.886-2.212-7.772-4.326-11.659-6.441-.295-.245-.738-.393-1.426-.639m29.712 18.536c-.196-.295-.393-1.032-.885-1.327a309 309 0 0 0-8.806-5.015c-.787-.443-1.721-.295-2.213.59-.542.934-.246 1.721.59 2.311.689.491 1.427.885 2.164 1.327 2.116 1.229 4.231 2.459 6.396 3.59 1.229.639 2.508.098 2.754-1.476m27.549-45.824c-.148-.295-.296-.983-.738-1.278-2.362-1.574-4.821-3.049-7.232-4.524-.836-.491-1.721-.246-2.213.59s-.394 1.721.442 2.262a137 137 0 0 0 7.232 4.523c1.131.59 2.312-.098 2.509-1.573m-12.594.344c-.689.492-1.476.787-1.672 1.279-.197.54-.05 1.573.344 1.868a97 97 0 0 0 7.231 4.769c.394.246 1.525-.049 1.87-.442.344-.394.393-1.623.098-1.869-2.509-1.917-5.116-3.687-7.871-5.605m3.542 13.079c-.148-.246-.295-.934-.689-1.229a165 165 0 0 0-6.788-4.72c-.787-.541-1.673-.345-2.214.442s-.443 1.623.246 2.163a221 221 0 0 0 6.985 4.868c1.033.639 2.312-.098 2.46-1.524"/><path fill="#5788c2" d="M284.829 99.762c8.658 2.458 17.316 4.867 26.171 7.375-.492 2.458-.984 4.818-1.476 7.424-8.363-4.917-16.578-9.735-24.793-14.603 0-.049.049-.098.098-.197"/><path fill="#000" d="M277.548 105.908c.099.049.64.196 1.083.491 5.804 3.442 11.56 6.835 17.365 10.276 1.328.787 1.476 1.672.59 3.147-4.034 6.933-8.117 13.816-12.151 20.749-.541.885-.983 1.77-1.574 2.655-.984 1.524-2.312 1.868-3.886 1.032-5.018-2.655-9.986-5.359-14.955-8.014-.344-.197-.689-.393-1.033-.639-1.574-1.033-1.82-1.967-.984-3.589l8.707-16.816c1.329-2.606 2.706-5.212 4.034-7.817.492-1.033 1.181-1.721 2.804-1.475m9.052 24.19c2.164-3.737 4.329-7.375 6.493-11.112-5.312-3.147-10.478-6.195-15.741-9.342-2.214 4.327-4.379 8.506-6.642 12.882 1.132-.196 2.017-.393 2.903-.491.935-.099 1.82-.099 2.755-.148.836-4.032 2.41-5.9 5.116-6.244a4.955 4.955 0 0 1 5.165 2.802c1.279 2.606.59 5.065-2.164 7.769.688 1.278 1.377 2.507 2.115 3.884m-5.313-2.114c-2.46-2.262-5.116-2.901-8.166-2.459-4.329.689-6.395 3.59-7.723 7.769.934.246 2.115.934 2.853.639 4.329-1.819 8.559-3.884 13.036-5.949m-9.789 8.358c3.05 1.623 5.854 3.098 8.707 4.622.984-1.672 1.869-3.196 2.804-4.72 1.082-1.721.541-3.442.098-5.31-3.886 1.819-7.625 3.54-11.609 5.408m8.51-15.094c-.148 1.18.492 2.212 1.476 2.311.934.098 2.164-1.033 2.312-2.213.147-1.081-.492-2.114-1.378-2.262-1.131-.196-2.213.787-2.41 2.164M282.271 162.893c-.148 1.082-1.131 1.672-2.115 1.377a5.5 5.5 0 0 1-1.427-.689 5186 5186 0 0 1-22.727-12.734c-1.673-.934-2.214-1.819-1.624-2.852.591-1.032 1.624-1.082 3.296-.147 7.724 4.277 15.398 8.604 23.072 12.931.787.491 1.623 1.032 1.525 2.114M285.567 157.337c-.098 1.131-1.181 1.819-2.263 1.377-.738-.295-1.427-.738-2.115-1.131-7.379-4.179-14.709-8.359-22.088-12.538-1.673-.983-2.165-1.868-1.574-2.852.59-.934 1.574-.983 3.197-.049a9545 9545 0 0 1 23.121 13.128c.836.492 1.722.934 1.722 2.065M264.069 170.711c-.245 1.671-1.525 2.261-2.804 1.573-1.771-.983-3.443-2.065-5.165-3.097l-6.936-4.278c-.246-.148-.492-.246-.689-.393-.836-.59-1.377-1.377-.787-2.41.59-.983 1.525-1.081 2.46-.59 2.115 1.23 4.23 2.459 6.346 3.737 2.115 1.328 4.23 2.606 6.296 4.032.64.344 1.034 1.082 1.279 1.426M251.673 156.501c.688.295 1.082.394 1.476.59 3.886 2.164 7.821 4.278 11.658 6.441 1.624.934 2.067 1.967 1.525 2.95-.59 1.033-1.574.984-3.246 0-3.788-2.163-7.625-4.228-11.413-6.342-.443-.246-.984-.443-1.132-.836-.246-.541-.393-1.328-.196-1.819.196-.443.934-.689 1.328-.984M281.385 175.038c-.245 1.573-1.475 2.114-2.804 1.425-2.164-1.13-4.279-2.36-6.395-3.589a20 20 0 0 1-2.164-1.327c-.836-.59-1.132-1.426-.59-2.311s1.426-.984 2.213-.59a310 310 0 0 1 8.806 5.015c.541.344.738 1.082.934 1.377M308.934 129.213c-.197 1.475-1.427 2.163-2.509 1.524-2.46-1.426-4.87-2.95-7.232-4.523-.836-.541-.934-1.426-.442-2.262s1.377-1.082 2.213-.59c2.46 1.475 4.871 2.95 7.232 4.524.443.344.59 1.081.738 1.327M296.34 129.557c2.804 1.918 5.411 3.688 7.92 5.605.295.246.246 1.475-.098 1.869s-1.427.688-1.869.442c-2.509-1.475-4.92-3.097-7.232-4.769-.393-.295-.541-1.328-.344-1.868.147-.492.935-.787 1.623-1.279M299.882 142.636c-.147 1.426-1.426 2.163-2.41 1.524a98 98 0 0 1-6.986-4.868c-.688-.54-.787-1.376-.246-2.163.591-.836 1.427-.983 2.214-.442a166 166 0 0 1 6.789 4.72c.393.295.492.934.639 1.229"/><path fill="#eaecf1" d="M286.6 130.098c-.738-1.377-1.427-2.606-2.115-3.835 2.754-2.753 3.443-5.163 2.164-7.769-.934-1.966-3.05-3.097-5.165-2.802-2.706.344-4.28 2.212-5.116 6.244-.886.049-1.82.049-2.755.148-.886.098-1.771.295-2.902.491 2.262-4.376 4.427-8.555 6.641-12.882 5.263 3.147 10.429 6.196 15.741 9.342-2.164 3.639-4.279 7.326-6.493 11.063"/><path fill="#fff" d="M281.287 127.984c-4.526 2.114-8.707 4.13-13.036 5.949-.738.295-1.919-.393-2.853-.639 1.328-4.179 3.394-7.08 7.723-7.769 3.05-.491 5.706.197 8.166 2.459M271.498 136.342c3.984-1.868 7.723-3.589 11.609-5.359.443 1.868.984 3.589-.098 5.31-.935 1.524-1.82 3.049-2.804 4.72-2.853-1.573-5.657-3.048-8.707-4.671M280.008 121.248c.197-1.377 1.279-2.311 2.411-2.164.934.148 1.574 1.181 1.377 2.262-.197 1.18-1.377 2.311-2.312 2.213-.984-.099-1.623-1.131-1.476-2.311"/></g><defs><clipPath id="a"><path fill="#fff" d="M0 0h321.232v221.845H0z"/></clipPath></defs></svg>