<svg xmlns="http://www.w3.org/2000/svg" width="1442" height="372" fill="none" viewBox="0 0 1442 372"><path fill="#3558a2" d="m140.285 65.024 2.797-4.196c8.081-12.899 19.27-23.777 32.635-31.392 13.52-7.615 28.128-11.034 43.513-9.013 20.98 2.797 36.521 14.142 47.088 32.324 9.014 15.696 11.656 32.79 10.101 50.661-.155 2.487-.466 4.973-.777 7.771l5.129 1.399c16.473 4.195 31.236 11.499 43.047 23.932 10.101 10.256 16.628 23.466 18.804 37.607 2.02 13.832-.155 27.818-6.216 40.406-7.149 15.385-17.872 27.662-31.392 37.608-1.399 1.088-2.953 2.175-4.817 3.419.466 1.709.776 3.419 1.243 5.128 4.506 20.047 2.486 39.317-6.994 57.655-7.459 14.142-18.182 25.176-33.256 31.236-20.98 8.548-40.561 5.284-58.743-7.925-.933-.622-1.865-1.399-2.642-2.021-.156-.155-.467.001-1.088-.155-2.487 3.108-4.818 6.372-7.46 9.324-10.723 12.433-25.797 20.358-42.114 22.068-22.223 2.797-41.96-3.885-59.52-16.939C66 336.516 52.014 312.739 46.42 283.989c-2.02-10.257-2.176-19.115-1.088-31.547l-4.351-2.021c-17.25-7.925-30.304-20.047-37.142-38.074-10.723-27.662 1.554-57.5 30.148-70.087 3.575-1.554 7.46-2.642 11.19-3.886l3.418-1.087c-.466-4.196-1.087-8.081-1.398-11.966-1.399-14.142 2.797-28.44 11.655-39.473 8.392-10.567 19.426-17.094 32.169-20.669 15.385-4.351 30.926-3.885 46.466-.622.933 0 1.71.156 2.798.467m-24.555 7.46c-10.878 0-17.25 1.087-25.02 3.729-13.21 4.506-23.777 12.432-29.527 25.486-5.283 11.966-5.283 24.399-1.087 36.831 1.864 5.595 2.486 7.615-5.129 8.547-7.926.933-15.385 3.574-22.223 7.615-19.892 11.811-28.439 34.966-17.716 57.5 4.351 9.013 10.723 16.628 18.96 22.378 5.438 3.885 11.344 6.838 17.56 9.169 4.04 1.554 4.818 2.797 4.507 6.993 0 1.865-.155 3.73-.311 5.439-.777 6.372-.777 12.743 0 18.959 4.196 31.858 19.115 57.189 46.466 74.595 13.831 8.858 28.905 13.054 45.534 11.033 17.094-2.175 30.459-10.567 40.405-24.554 1.865-2.641 3.264-5.594 4.973-8.391.311-.777.933-1.399 1.554-1.865.622-.466 1.399-.777 2.176-.933h2.487c.777.156 1.554.622 2.175 1.244.777.621 1.399 1.398 2.176 2.02a107 107 0 0 0 9.48 7.615c6.06 4.196 13.054 6.837 20.358 7.614a44.46 44.46 0 0 0 21.601-2.641c11.345-4.196 20.98-12.122 27.196-22.534 11.655-18.649 13.986-38.696 8.081-59.675-1.399-4.818-.466-7.926 3.73-11.5 1.554-1.244 3.263-2.331 4.817-3.419 13.21-9.946 23.933-21.912 29.838-37.608 7.459-20.047 5.905-39.162-6.993-56.567-8.237-11.189-19.271-18.649-32.014-23.466-6.216-2.176-12.587-3.885-19.114-5.284-4.973-1.243-6.528-3.419-5.751-8.392 1.865-9.013 2.176-18.182 1.244-27.351-1.244-10.567-4.662-20.669-10.257-29.682-12.432-19.581-33.878-29.683-58.588-23.467-14.763 3.885-27.817 12.277-37.452 24.088-4.041 5.128-7.926 10.568-11.345 16.318-2.487 3.73-4.041 4.506-8.392 3.574-.466 0-.777-.31-1.243-.31-7.77-2.021-15.696-3.42-22.845-3.109z"/><path fill="#3558a2" d="M238.967 260.989c-18.027-.622-31.703-6.372-40.872-20.047-10.723-15.852-10.568-32.791-1.709-49.264 8.547-15.851 22.378-25.02 40.405-27.506 7.615-1.243 15.385-.466 22.689 2.02 7.304 2.642 13.831 6.993 18.96 12.743 6.06 6.527 9.945 14.919 11.189 23.777 3.729 23.622-12.899 49.73-39.007 56.257-4.351 1.088-8.858 1.554-11.655 2.02m1.554-10.412c11.344-.311 23.31-6.993 32.168-19.27a5.43 5.43 0 0 0 1.244-3.419c0-1.243-.311-2.487-1.244-3.419-7.77-12.277-10.878-26.885-9.013-41.338q.233-1.398-.466-2.797c-.466-.933-1.244-1.554-2.176-1.865-4.507-2.331-9.48-3.885-14.453-4.196-6.682-.621-13.52.466-19.736 2.953s-11.811 6.527-16.162 11.655c-8.081 9.169-11.966 19.892-9.946 32.014 2.953 17.871 17.561 29.837 39.784 29.837zM105.94 311.34c-2.176 0-4.196.466-6.372.311-2.02 0-3.885-.622-5.44-1.865-1.553-1.399-2.486-3.264-2.641-5.128-.31-3.73-.155-7.615.466-11.345a80.46 80.46 0 0 1 17.25-34.966c.311-.311.466-.777.777-1.088-.311-1.554-.777-3.263-1.088-4.817-.466-2.176-.155-4.507.777-6.683a10.4 10.4 0 0 1 4.507-4.817c1.865-1.088 4.041-1.71 6.216-1.554 2.176 0 4.352.932 6.061 2.176.311 0 .466.31.622.466 2.331 2.642 4.973 2.797 8.392 1.865a47.9 47.9 0 0 1 20.979-1.399c6.994 1.088 13.676 3.729 19.426 7.77 5.439 3.419 9.946 8.081 13.365 13.676 3.419 5.439 5.594 11.655 6.371 18.027 3.264 23.466-13.209 46.932-38.54 51.749-17.406 3.264-32.635-1.554-45.068-14.297-2.175-2.486-4.351-5.128-6.371-7.925zm37.763 12.899c13.52 0 21.757-3.108 28.905-9.169 21.602-18.338 15.386-49.419-8.391-59.831-7.304-3.108-15.23-3.885-23-2.331-7.771 1.554-14.764 5.439-20.358 11.034-11.034 11.5-13.521 27.973-5.751 41.804 7.149 12.432 18.338 18.182 28.44 18.493zM133.758 127.651c21.912 0 42.581 15.385 48.797 38.696 4.973 18.027 1.709 34.81-10.879 49.108-15.695 17.871-40.871 21.29-61.229 8.858-6.216-3.886-11.656-9.014-15.852-15.23-4.195-6.061-7.148-12.899-8.547-20.203-1.398-7.304-1.398-14.763.311-21.912 1.554-7.304 4.662-13.986 9.014-20.047a49.76 49.76 0 0 1 16.939-14.142c6.682-3.263 13.986-5.128 21.446-5.128m2.952 93.553c12.277-.466 22.69-5.594 29.994-16.161 5.905-8.392 8.391-18.649 6.993-28.906-.622-6.838-2.953-13.364-6.527-19.27-3.73-5.75-8.703-10.567-14.764-13.986-1.088-.777-2.331-1.244-3.729-1.244s-2.642.311-3.73 1.088c-4.351 2.642-9.169 4.507-14.298 5.129-7.148.932-14.141 2.175-21.29 2.797a7.2 7.2 0 0 0-3.574.932c-1.088.622-2.021 1.399-2.642 2.487a43.75 43.75 0 0 0-7.615 24.709c0 8.858 2.797 17.405 7.77 24.554 7.77 11.5 18.649 17.561 33.257 18.027zM209.75 53.368c3.575-6.372 9.014-9.014 13.987-7.149s6.682 6.216 4.973 14.142c5.284 3.574 9.79 8.236 13.054 13.831 3.263 5.44 5.439 11.655 6.061 18.027 1.398 10.412-.933 21.135-6.527 29.993-5.44 8.858-13.832 15.696-23.777 19.115s-20.669 3.418-30.46-.156c-19.27-7.149-31.547-27.662-28.128-49.263.932-5.905 2.797-11.5 5.905-16.628s7.149-9.48 11.966-13.055c9.325-7.148 21.136-10.256 32.791-8.858zm24.399 28.905c-2.331.466-4.818.31-7.149-.31-2.331-.622-4.351-1.866-6.06-3.575a65 65 0 0 1-6.061-6.993c-.466-.622-1.088-1.244-1.865-1.554s-1.71-.311-2.487-.156c-3.108.622-6.371.932-9.635 1.088-3.263.31-6.527-.311-9.479-1.865-2.487-1.554-4.352-1.088-6.528.466-12.277 9.014-17.716 20.98-15.54 36.054 1.399 8.703 6.061 16.628 13.209 21.912 7.149 5.284 16.007 7.615 24.71 6.372 7.148-1.088 13.831-4.196 19.115-9.169s8.858-11.344 10.412-18.493c2.02-7.926.932-16.318-2.798-23.466zM50.77 207.996c-1.398 0-2.641-.311-4.04-.622-1.088-.31-2.02-.932-2.797-1.709-.622-.933-1.088-2.02-.933-3.108 0-1.088.466-2.176 1.243-3.108.777-.777 1.865-1.399 2.953-1.554s2.176-.311 3.264-.311c6.216 0 12.277-.466 18.493-1.554 1.243-.311 2.486 0 3.574.621q1.632.933 2.331 2.798c.311 1.243.311 2.486-.155 3.574s-1.399 2.02-2.642 2.487c-2.176.932-4.507 1.553-6.838 1.709-4.351.466-8.858.622-14.297.932zM83.096 219.961c-.311 1.088-.933 2.021-1.71 2.953-4.662 4.352-9.79 7.926-15.54 10.723-1.088.622-2.487.777-3.73.466s-2.331-1.243-2.953-2.331-.932-2.331-.621-3.729c.31-1.244.932-2.331 2.02-3.108.621-.467 1.399-1.089 2.02-1.399 3.73-2.487 7.46-5.129 11.19-7.615 1.087-.777 2.33-1.399 3.729-1.71 3.108-.466 5.44 1.71 5.44 5.595zM275.021 159.354c.311-1.088.777-2.176 1.398-3.108 1.71-2.797 3.575-5.439 5.44-8.081.621-.777 1.243-1.554 2.02-2.175.932-.622 1.865-1.088 3.108-1.244a5.6 5.6 0 0 1 3.108.933c.933.621 1.554 1.709 1.865 2.797s0 2.331-.466 3.263c-2.331 4.041-4.973 7.77-7.926 11.5-.622.933-1.709 1.399-2.642 1.71-1.088.155-2.175 0-3.108-.622-1.865-.932-2.486-2.642-2.642-4.973zM294.602 179.246c-.933 0-1.71 0-2.487-.622-.777-.466-1.398-.932-1.864-1.709s-.777-1.71-.777-2.642.31-1.865.777-2.642c.31-.466.621-.932 1.087-1.243 4.041-2.331 8.237-4.351 12.433-6.216.621-.311 1.243-.311 1.865-.311s1.243 0 1.865.311 1.087.621 1.554 1.087c.466.467.777 1.088.932 1.71q.466.933.466 1.865c0 .621 0 1.243-.311 1.865-.155.621-.621 1.087-1.087 1.554-.467.466-.933.777-1.554 1.087-3.419 1.865-6.994 3.575-10.568 5.284-.777.311-1.554.466-2.331.622M231.818 313.982c-1.398 0-2.797-.622-3.729-1.555-.933-.932-1.554-2.33-1.71-3.729 0-1.399.622-2.642 1.71-3.419.932-.932 2.331-1.399 3.574-1.243 1.398 0 2.642.621 3.574 1.398.933.933 1.554 2.176 1.554 3.575 0 1.398-.466 2.642-1.554 3.574-.932.932-2.176 1.554-3.574 1.554zM86.98 109.78c0-.621 0-1.399.311-2.02.311-.622.622-1.243 1.088-1.709.466-.467 1.088-.778 1.71-1.089s1.243-.31 2.02-.31c1.399 0 2.642.466 3.574 1.399.933.932 1.554 2.175 1.554 3.574 0 1.398-.621 2.797-1.554 3.73-1.088.932-2.33 1.554-3.73 1.554q-.932 0-1.864-.467c-.622-.311-1.088-.621-1.555-1.243-.466-.466-.776-1.088-1.087-1.709-.156-.622-.311-1.244-.311-1.865zM227.778 290.361c0 1.398-.622 2.642-1.554 3.574-.932.933-2.331 1.399-3.574 1.399-.622 0-1.399 0-1.865-.466-.622-.311-1.243-.622-1.71-1.088s-.777-1.088-1.087-1.71c-.311-.621-.311-1.243-.311-2.02 0-.622 0-1.243.466-1.865.311-.621.622-1.243 1.088-1.554.466-.466 1.088-.777 1.709-1.087.622-.156 1.244-.312 2.021-.312.621 0 1.398.001 2.02.312.622.31 1.243.621 1.709 1.087.467.467.777 1.088 1.088 1.71s.311 1.243.311 2.02zM103.298 118.949c0-1.399.621-2.642 1.709-3.574.932-.933 2.176-1.399 3.574-1.554 1.244 0 2.487.621 3.264 1.554a4.82 4.82 0 0 1 1.399 3.419 4.96 4.96 0 0 1-1.71 3.729c-1.088.933-2.331 1.554-3.73 1.554-1.243 0-2.486-.777-3.263-1.709a4.72 4.72 0 0 1-1.088-3.574zM251.866 304.346c0 .622 0 1.244-.466 1.865-.311.622-.622 1.088-1.088 1.554s-1.088.778-1.71 1.088c-.621.156-1.243.311-1.864.311q-.933 0-1.865-.466c-.622-.311-1.088-.777-1.554-1.243-.467-.467-.777-1.088-.933-1.71-.155-.621-.311-1.243-.155-1.865 0-1.243.777-2.331 1.709-3.108.933-.777 2.176-1.243 3.419-1.088 1.244 0 2.331.622 3.264 1.554.777.933 1.243 2.021 1.243 3.264zM107.494 89.733c0 1.243-.467 2.33-1.244 3.263s-1.865 1.399-3.108 1.554c-1.243 0-2.486-.621-3.419-1.398a4.82 4.82 0 0 1-1.398-3.42c0-1.242.621-2.33 1.554-3.107.932-.777 2.02-1.244 3.263-1.244.622 0 1.243 0 1.71.311.621.156 1.087.622 1.554.933.466.466.777.932.932 1.554.156.621.311 1.243.311 1.709z"/><path fill="#3558a2" d="M208.352 218.874c0-5.905 1.865-11.344 4.196-16.628a9.1 9.1 0 0 1 1.71-2.331c3.574-3.885 7.304-3.419 9.79 1.088 1.865 3.574 4.818 6.682 8.237 8.703 2.331 1.398 4.662 2.641 6.838 4.04 3.418 2.176 4.506 5.439 2.486 8.703-2.642 4.973-6.682 9.169-11.5 12.121a15.8 15.8 0 0 1-6.372 1.865c-2.175 0-4.351-.311-6.527-1.243-2.02-.933-3.885-2.176-5.283-3.885a16.6 16.6 0 0 1-3.108-5.906c-.311-1.087-.622-2.175-.777-3.263v-3.419zm11.967-5.128c-1.865 2.642-2.021 8.237-.311 10.568.31.466.621.777 1.088 1.087.466.311.932.467 1.398.622h1.554c.467 0 1.088-.311 1.399-.622 2.02-1.087 3.574-2.641 4.507-4.817zM243.939 204.266c-1.399 0-2.642-.621-3.574-1.554-.933-.932-1.554-2.176-1.554-3.574 0-1.399.777-2.642 1.709-3.575.932-.932 2.331-1.398 3.574-1.554 1.399 0 2.642.622 3.575 1.554a5.97 5.97 0 0 1 1.709 3.575c0 .621 0 1.398-.466 2.02-.311.622-.622 1.243-1.243 1.709-.467.466-1.088.933-1.865 1.088-.622.311-1.399.311-2.021.311zM235.082 189.036c0 1.243-.622 2.486-1.555 3.419a4.82 4.82 0 0 1-3.419 1.398q-1.865 0-3.263-1.398-1.399-1.399-1.399-3.264c0-2.331 2.487-4.351 5.284-4.507 1.088 0 2.176.467 2.953 1.244s1.243 1.864 1.243 2.952zM156.291 273.887c0-1.088 0-2.176.156-3.419 0-1.088.621-2.02 1.398-2.797s1.865-1.243 2.798-1.243c1.087-.156 2.331 0 3.263.621.933.622 1.71 1.554 1.865 2.798.466 2.175.777 4.506.777 6.682 0 5.75-1.709 11.189-4.973 15.851q-2.33 3.497-6.061 5.129c-2.486 1.088-5.284 1.398-7.925.777-5.284-.777-10.257-2.021-14.298-5.595-1.087-.932-2.02-1.865-2.952-3.108a5.6 5.6 0 0 1-.933-3.108c0-1.088.466-2.176 1.243-2.953s1.71-1.398 2.798-1.554c1.088-.155 2.175 0 3.108.467 1.088.621 2.176 1.242 3.108 2.019 2.486 1.865 5.439 2.953 8.547 3.42 1.088.31 2.331 0 3.264-.467 1.088-.466 1.865-1.398 2.331-2.331 2.02-3.419 2.797-7.459 2.331-11.344zM127.541 272.488c0-1.398.622-2.642 1.554-3.574.933-.932 2.176-1.554 3.419-1.554 1.244 0 2.642.311 3.575 1.243.932.777 1.709 2.02 1.709 3.419s-.621 2.798-1.554 3.73c-.932 1.088-2.331 1.554-3.73 1.709-.621 0-1.243 0-1.865-.31-.621-.311-1.243-.622-1.709-1.088s-.932-1.088-1.088-1.71c-.311-.621-.311-1.243-.311-1.865M151.474 263.786c0 .622 0 1.243-.311 1.865-.155.621-.622 1.088-1.088 1.554s-.932.777-1.554.932-1.243.311-1.865.311-1.243 0-2.02-.311c-.622-.155-1.243-.621-1.71-1.088-.466-.466-.932-1.088-1.087-1.554q-.467-.932-.467-1.864c0-1.399.467-2.642 1.399-3.575.932-.932 2.176-1.554 3.574-1.554 1.399 0 2.642.777 3.575 1.71.932.932 1.398 2.331 1.398 3.574zM157.068 183.908a78 78 0 0 1-3.264 11.81c-3.885 9.325-14.142 11.966-22.534 6.372-6.216-4.196-9.479-10.257-11.344-17.25-.311-.932-.311-2.02 0-3.108.155-1.088.777-2.02 1.398-2.797.622-.622 1.399-1.088 2.176-1.399s1.71-.311 2.642 0c.933.156 1.71.621 2.331 1.243.622.622 1.088 1.399 1.399 2.176.932 2.176 1.398 4.507 2.331 6.682 1.088 2.642 3.108 4.818 5.595 6.061 2.952 1.554 5.439.933 6.527-2.175.932-3.109 1.709-6.217 2.175-9.48.156-.933 0-2.02 0-2.953 0-1.088.466-2.176 1.243-2.953s1.71-1.398 2.798-1.554c1.088-.155 2.175 0 3.108.622.932.466 1.709 1.399 2.176 2.331a40 40 0 0 1 1.398 6.216zM132.048 166.969c0 .777 0 1.399-.311 2.02-.311.622-.621 1.243-1.088 1.709-.466.467-1.087.933-1.709 1.088-.622.311-1.399.467-2.02.311-1.399 0-2.798-.311-3.885-1.243-1.088-.932-1.865-2.176-1.865-3.574 0-.777 0-1.399.311-2.176.31-.622.621-1.243 1.243-1.865a5.6 5.6 0 0 1 1.865-1.243c.621-.311 1.398-.466 2.175-.466 1.399 0 2.798.466 3.885 1.398a4.97 4.97 0 0 1 1.71 3.73zM144.791 170.232c-.622 0-1.399 0-2.02-.311-.622-.311-1.244-.621-1.71-1.087-.466-.467-.932-.933-1.243-1.555q-.466-.932-.466-1.864c0-.622 0-1.399.311-2.021.31-.621.621-1.243 1.087-1.709.467-.466 1.088-.777 1.71-1.088s1.243-.311 2.02-.311c1.399 0 2.642.622 3.574 1.554.933.933 1.555 2.176 1.555 3.575 0 1.243-.622 2.486-1.555 3.419a4.82 4.82 0 0 1-3.419 1.398zM214.102 109.624c0 .466 0 .933-.155 1.399-2.331 4.973-5.128 9.79-10.568 12.121-5.439 2.487-12.743.466-16.939-4.196-2.797-3.263-4.817-6.993-5.75-11.189-.31-1.088-.31-2.175-.155-3.263 0-1.088.621-2.176 1.398-2.953s1.865-1.243 2.953-1.398c1.088 0 2.176-.001 3.108.621.933.466 1.71 1.399 2.176 2.331s.622 1.865.932 2.797c.777 1.865 1.555 3.575 2.642 5.284 2.487 3.73 5.44 3.73 8.081 0 1.088-1.554 2.021-3.419 3.108-4.973.622-.932 1.554-1.554 2.642-1.865s2.176-.31 3.264.156 1.865 1.243 2.486 2.175c.622.933.777 2.021.777 3.264zM203.689 90.975c0-.621.155-1.398.466-1.865.311-.621.777-1.088 1.244-1.554s1.087-.776 1.709-.932c.622-.155 1.243-.31 2.02-.155 1.399.155 2.642.932 3.419 1.864.933 1.088 1.243 2.332 1.243 3.73-.155 1.243-.777 2.486-1.864 3.263-.933.778-2.176 1.244-3.575 1.244-.621 0-1.398-.156-1.865-.466-.621-.311-1.088-.622-1.554-1.244-.466-.466-.777-1.087-.932-1.709s-.311-1.243-.311-2.02zM194.52 88.8a4.82 4.82 0 0 1-1.398 3.42c-.933.932-2.02 1.553-3.264 1.553-1.398 0-2.642-.466-3.574-1.398-.933-.933-1.554-2.176-1.71-3.419 0-1.243.467-2.642 1.399-3.574.933-.933 2.176-1.399 3.419-1.554 1.243 0 2.642.466 3.574 1.398.933.933 1.399 2.176 1.554 3.419zM434.519 149.543q-2.639 0-4.131-1.263-1.492-1.148-1.492-2.639 0-1.033.689-2.41l1.606-3.443h.689l2.18 1.262q1.721 1.033 4.706 1.033 5.163 0 8.033-5.049 2.983-5.05 4.246-13.083l7.115-48.544h-9.066v-5.05h9.755l.688-4.59q.344-2.296 2.066-5.967 1.722-3.673 4.59-7.69a57 57 0 0 1 6.542-7.803q3.786-3.672 8.033-5.968 4.36-2.41 8.951-2.41 1.034 0 2.181.345 1.147.23 1.836.573 1.492.804 2.066 1.492.573.574.573 1.378 0 .459-.344 1.262-.23.689-.574 1.262l-1.836 3.443h-.803l-2.64-1.262q-2.869-1.263-6.885-1.263-5.969 0-9.525 5.05-3.558 5.05-4.706 12.968l-1.377 9.18h12.968v5.05h-13.656l-6.542 44.183q-.344 2.181-1.836 5.853-1.491 3.787-4.016 7.918a50.4 50.4 0 0 1-5.624 7.804q-3.098 3.672-6.771 5.968-3.672 2.41-7.689 2.41m67.316-26.395q-9.984 0-14.805-6.197-4.705-6.197-4.705-16.067 0-5.394 1.951-10.902a35.7 35.7 0 0 1 5.624-10.329q3.672-4.705 8.721-7.574 5.05-2.87 11.132-2.869 9.984 0 14.69 6.197 4.82 6.198 4.819 16.067 0 5.163-1.95 10.787-1.837 5.508-5.509 10.329a29.6 29.6 0 0 1-8.607 7.689q-5.049 2.868-11.361 2.869m1.262-4.361q4.935 0 8.607-3.787 3.673-3.903 5.623-10.214 1.951-6.427 1.951-14 0-8.493-2.295-12.854-2.18-4.476-8.263-4.476-4.82 0-8.607 3.558-3.672 3.442-5.738 9.64-2.066 6.197-2.066 14.574 0 8.493 2.296 13.083 2.295 4.476 8.492 4.476M537.616 122l7.918-44.642-8.951-4.017v-.688l16.181-3.443h.344v14.116h.46q3.671-6.771 6.197-9.64 2.639-2.985 4.59-3.673 2.065-.803 3.672-.803 2.067 0 3.787 1.377 1.722 1.263 1.722 2.984 0 .574-.344 1.262l-2.869 5.853h-.689l-1.262-.918a5.05 5.05 0 0 0-2.066-.918 6.5 6.5 0 0 0-2.066-.344q-2.065 0-3.787.918-1.606.803-3.672 3.557-1.951 2.64-5.05 8.034L546.338 122zm50.578 1.148q-4.246 0-7.001-3.328-2.639-3.328-2.639-9.067 0-1.147.115-2.295.23-1.148.344-2.295l5.164-28.805-8.951-4.017v-.688l18.362-3.443h.459l-5.968 35.117q-.459 2.87-.459 4.131 0 3.213 1.492 5.509 1.606 2.18 5.164 2.18 2.41 0 4.82-1.721 2.525-1.722 4.82-4.132a180 180 0 0 0 4.132-4.475l4.934-28.46-7.918-4.018v-.688l17.443-3.443h.459l-6.885 39.133q-.574 3.444-.23 4.935.459 1.492 2.181 1.492 1.95 0 4.246-2.066 2.295-2.18 4.361-6.541l1.492.689q-3.328 8.606-7.23 12.509-3.787 3.787-7.804 3.787t-5.509-3.099q-1.377-3.099-.573-8.263l.114-.688h-.344q-3.902 4.36-6.771 7T594.391 122q-2.64 1.148-6.197 1.148m44.35-1.148 7.919-44.642-8.951-4.017v-.688l16.296-3.443h.344v12.05h.459q4.017-4.476 6.886-7.115t5.623-3.787 6.426-1.148q4.247 0 7.001 3.213t2.984 8.837h.573q4.017-4.476 6.886-7.115 2.87-2.64 5.509-3.787 2.754-1.148 6.541-1.148 5.165 0 8.033 4.59 2.87 4.59 1.492 12.395l-4.016 22.148q-.575 3.444-.23 4.935.345 1.492 1.951 1.492 1.951 0 4.246-2.066 2.295-2.18 4.361-6.541l1.492.689q-3.329 8.606-7.23 12.509-3.787 3.787-7.804 3.787t-5.508-3.099-.574-8.263l4.476-25.247q.688-4.017-.804-7.115-1.377-3.213-5.967-3.214-2.525 0-5.05 1.722-2.41 1.607-4.705 4.016a103 103 0 0 0-4.131 4.361L670.645 122h-8.722l6.312-35.461q.688-4.017-.803-7.115-1.378-3.213-5.968-3.214-2.524 0-5.049 1.722-2.524 1.721-4.935 4.131a71 71 0 0 0-4.131 4.476L641.266 122z"/><g fill="#3558a2" clip-path="url(#a)"><path d="M724.384 125.151q-2.849 0-4.939-2.089t-2.089-4.939q0-2.944 2.089-5.033t4.939-2.09q2.85 0 4.939 2.09t2.089 5.033q0 2.85-2.089 4.939t-4.939 2.089M794.34 54.49v70.187h-11.587v-6.839c-5.128 5.699-10.257 8.073-17.38 8.073-15.006 0-26.403-11.967-26.403-27.637 0-15.766 11.587-28.113 26.403-28.113 6.553 0 12.632 2.47 16.336 6.554V54.49zm-27.258 27.258c-8.642 0-15.385 6.933-15.385 15.956 0 9.402 6.838 16.62 15.67 16.62 8.548 0 15.291-7.123 15.291-16.24 0-9.308-6.743-16.336-15.576-16.336M857.02 72.06v52.617h-11.587v-6.839c-5.033 5.794-10.067 8.073-17.475 8.073-15.386 0-26.498-11.492-26.498-27.352 0-16.051 11.207-27.733 26.783-27.733 7.598 0 12.822 2.47 17.19 8.263V72.06zm-27.447 10.353c-9.023 0-15.386 6.838-15.386 16.43 0 9.213 6.363 15.481 15.576 15.481 4.843 0 8.927-1.614 11.492-4.748 2.279-2.66 3.799-7.029 3.799-10.827 0-9.593-6.459-16.336-15.481-16.336M868.964 124.677V83.553h-6.173V72.06h6.173V54.49h12.632v17.57h7.598v11.492h-7.598v41.124zM947.127 72.06v52.617H935.54v-6.839c-5.033 5.794-10.067 8.073-17.475 8.073-15.386 0-26.498-11.492-26.498-27.352 0-16.051 11.207-27.733 26.783-27.733 7.598 0 12.822 2.47 17.19 8.263V72.06zM919.68 82.414c-9.023 0-15.386 6.838-15.386 16.43 0 9.213 6.363 15.481 15.576 15.481 4.843 0 8.927-1.614 11.492-4.748 2.279-2.66 3.799-7.029 3.799-10.827 0-9.593-6.459-16.336-15.481-16.336M963.193 125.151q-2.85 0-4.939-2.089t-2.089-4.939q0-2.944 2.089-5.033t4.939-2.09q2.85 0 4.938 2.09 2.09 2.089 2.09 5.033 0 2.85-2.09 4.939t-4.938 2.089M1020.9 72.06h12.06v42.644c0 10.068-1.62 16.526-5.32 21.369-4.94 6.269-12.44 9.593-21.94 9.593-12.915 0-22.793-6.173-27.066-16.716h14.341c3.704 4.084 7.315 5.604 13.205 5.604 9.4 0 14.24-5.509 14.72-16.811-4.94 5.794-9.88 8.168-17.29 8.168-15.004 0-25.831-11.682-25.831-27.922 0-15.576 11.017-27.163 25.931-27.163 7.59 0 13.2 2.564 17.19 7.883zm-15.77 10.353c-8.831 0-14.625 6.458-14.625 16.146 0 9.592 5.794 15.765 14.815 15.765 9.12 0 15.01-6.268 15.01-15.765 0-9.688-6.18-16.146-15.2-16.146M1067.82 70.826c15.86 0 28.11 12.252 28.11 27.923 0 14.816-12.73 27.162-28.02 27.162-15.38 0-27.92-12.346-27.92-27.542 0-15.101 12.54-27.543 27.83-27.543m.09 11.587c-8.35 0-15.19 7.123-15.19 15.766 0 9.022 6.74 16.145 15.29 16.145 8.36 0 15.19-7.123 15.19-15.955s-6.83-15.956-15.29-15.956M1148.89 72.06v52.617h-11.68v-5.034c-4.84 4.654-8.74 6.268-15.1 6.268-6.93 0-12.54-2.754-16.05-7.788-2.94-4.274-3.99-8.927-3.99-17.855V72.061h12.63v25.738c0 7.123.76 10.922 2.57 13.201 1.71 2.28 4.18 3.324 7.4 3.324 4.28 0 7.79-1.709 9.6-4.843 1.52-2.28 1.99-5.604 1.99-12.632V72.061zM1173.94 124.677l-21.18-52.616h14.05l12.16 34.855 11.97-34.855h14.24L1184 124.677zM1219.04 125.151c-1.9 0-3.54-.696-4.94-2.089-1.39-1.393-2.09-3.039-2.09-4.939 0-1.963.7-3.64 2.09-5.033 1.4-1.393 3.04-2.09 4.94-2.09s3.55.697 4.94 2.09 2.09 3.07 2.09 5.033c0 1.9-.7 3.546-2.09 4.939s-3.04 2.089-4.94 2.089"/><path d="M1220.99 152.219c-1.76 0-3.13-.421-4.13-1.262-.99-.765-1.49-1.645-1.49-2.64q0-1.032.69-2.41l1.6-3.443h.69l2.18 1.263q1.725 1.032 4.71 1.033c3.44 0 6.12-1.683 8.03-5.05 1.99-3.366 3.41-7.727 4.25-13.083l7.11-48.543h-9.06v-5.05h9.75l.69-4.59q.345-2.295 2.07-5.968 1.71-3.672 4.59-7.689a56.7 56.7 0 0 1 6.54-7.803c2.52-2.449 5.2-4.438 8.03-5.968 2.91-1.607 5.89-2.41 8.95-2.41.69 0 1.42.115 2.18.344.77.153 1.38.344 1.84.574q1.485.804 2.07 1.492.57.575.57 1.377c0 .306-.12.727-.35 1.262q-.225.69-.57 1.263l-1.84 3.443h-.8l-2.64-1.263c-1.91-.841-4.21-1.262-6.88-1.262-3.98 0-7.16 1.683-9.53 5.05s-3.94 7.688-4.7 12.967l-1.38 9.181h12.97v5.05h-13.66l-6.54 44.183c-.23 1.453-.84 3.404-1.84 5.852-.99 2.525-2.33 5.165-4.01 7.919a50 50 0 0 1-5.63 7.804c-2.06 2.448-4.32 4.437-6.77 5.967-2.45 1.607-5.01 2.41-7.69 2.41"/><path d="m1269.12 124.677 7.91-44.642-8.95-4.017v-.689l16.18-3.442h.35v14.115h.46c2.45-4.514 4.51-7.727 6.2-9.64q2.625-2.983 4.59-3.672c1.37-.536 2.6-.803 3.67-.803 1.38 0 2.64.459 3.79 1.377 1.14.841 1.72 1.836 1.72 2.984 0 .382-.12.803-.35 1.262l-2.87 5.853h-.69l-1.26-.918c-.61-.46-1.3-.765-2.06-.918a6.5 6.5 0 0 0-2.07-.345c-1.38 0-2.64.306-3.79.918-1.07.536-2.29 1.722-3.67 3.558-1.3 1.76-2.98 4.437-5.05 8.033l-5.39 30.986z"/></g><path fill="#3558a2" d="M453.54 262v-61.454h31.254v4.916h-25.636v22.826h22.124v4.829h-22.124v23.967h25.636V262zm65.671-3.16c6.146 0 11.15-2.898 14.31-7.375l4.126 3.248c-4.038 5.443-10.535 9.043-18.524 9.043-14.31 0-23.791-10.974-23.791-23.879s9.481-23.88 23.791-23.88c7.989 0 14.486 3.6 18.524 9.043l-4.126 3.248c-3.16-4.477-8.252-7.374-14.398-7.374-10.798 0-18.436 8.515-18.436 18.963 0 10.447 7.638 18.963 18.524 18.963M549.27 262v-65.844h5.179v27.742c3.863-4.916 8.867-7.901 15.803-7.901 10.096 0 17.382 6.672 17.382 18.875V262h-5.179v-26.952c0-9.13-5.18-14.134-12.906-14.134-7.023 0-11.676 3.687-15.1 9.305V262zm66.46 1.229c-8.604 0-14.31-4.653-14.31-11.94 0-6.672 5.092-11.237 14.398-12.817l15.802-2.634v-4.126c0-7.111-5.004-10.974-11.94-10.974-5.706 0-10.359 2.546-13.344 6.76l-3.951-3.073c3.775-5.179 9.833-8.428 17.471-8.428 10.184 0 16.856 5.97 16.856 15.715V262h-5.092v-6.409c-3.775 5.004-9.745 7.638-15.89 7.638m-9.043-12.027c0 4.301 3.687 7.55 9.657 7.55 6.409 0 11.94-3.073 15.276-8.779v-10.096l-14.661 2.458c-7.023 1.229-10.272 4.477-10.272 8.867M653.265 262v-44.247h5.179v6.058c3.863-4.829 8.867-7.814 15.803-7.814 10.096 0 17.383 6.672 17.383 18.875V262h-5.18v-26.952c0-9.13-5.18-14.134-12.905-14.134-7.024 0-11.677 3.599-15.101 9.305V262zm49.253 8.165c0-4.566 2.282-8.165 6.848-11.501-2.195-1.493-3.249-3.863-3.249-6.233 0-3.424 2.107-6.409 5.531-8.428-3.951-2.897-6.233-7.463-6.233-12.379 0-8.34 6.584-15.715 16.768-15.715 3.073 0 5.882.703 8.252 1.844h16.593v4.565h-11.062c1.932 2.634 3.073 5.882 3.073 9.306 0 8.34-6.584 15.715-16.856 15.715-2.634 0-5.004-.527-7.111-1.317-2.634 1.492-4.038 3.687-4.038 5.619 0 2.019.965 3.599 4.214 3.599h13.519c12.028 0 17.032 5.531 17.032 13.169 0 8.955-9.13 15.539-22.123 15.539-12.467 0-21.158-5.268-21.158-13.783m19.753-27.216c7.462 0 11.588-5.355 11.588-11.325 0-6.145-4.126-11.325-11.588-11.325-7.638 0-11.764 5.18-11.764 11.325 0 6.058 4.126 11.325 11.764 11.325m-14.574 26.777c0 5.969 6.497 9.745 15.891 9.745 10.184 0 17.031-4.127 17.031-10.799 0-4.828-2.633-8.691-12.027-8.691h-14.661c-4.039 2.721-6.234 5.794-6.234 9.745m85.527-15.013c-4.038 5.531-10.535 9.043-18.612 9.043-14.485 0-23.879-10.974-23.879-23.879 0-13.696 8.779-23.88 22.036-23.88 11.852 0 19.402 8.428 19.402 18.875 0 1.317-.088 2.634-.351 3.688h-35.732v1.053c0 11.237 7.638 19.402 18.524 19.402 6.234 0 11.413-2.897 14.662-7.462zm-20.543-34.151c-8.252 0-14.398 5.18-16.066 13.871h30.288c-.263-7.725-5.618-13.871-14.222-13.871M801.13 262v-4.653l28.269-34.941h-27.654v-4.653h33.712v4.653l-28.269 34.941h28.883V262zm82.947 1.229c-8.604 0-14.31-4.653-14.31-11.94 0-6.672 5.092-11.237 14.398-12.817l15.802-2.634v-4.126c0-7.111-5.004-10.974-11.94-10.974-5.706 0-10.359 2.546-13.344 6.76l-3.951-3.073c3.776-5.179 9.833-8.428 17.471-8.428 10.184 0 16.856 5.97 16.856 15.715V262h-5.092v-6.409c-3.775 5.004-9.745 7.638-15.89 7.638m-9.043-12.027c0 4.301 3.688 7.55 9.657 7.55 6.409 0 11.94-3.073 15.276-8.779v-10.096l-14.661 2.458c-7.023 1.229-10.272 4.477-10.272 8.867m39.301-33.449h5.531l15.89 39.243 15.803-39.243h5.619L939.18 262h-6.847zm90.995 36.96c-4.04 5.531-10.535 9.043-18.612 9.043-14.486 0-23.879-10.974-23.879-23.879 0-13.696 8.779-23.88 22.035-23.88 11.852 0 19.406 8.428 19.406 18.875 0 1.317-.09 2.634-.35 3.688h-35.736v1.053c0 11.237 7.638 19.402 18.524 19.402 6.233 0 11.413-2.897 14.662-7.462zm-20.543-34.151c-8.253 0-14.398 5.18-16.066 13.871h30.288c-.264-7.725-5.619-13.871-14.222-13.871m53.033 38.278c6.14 0 11.14-2.898 14.31-7.375l4.12 3.248c-4.04 5.443-10.53 9.043-18.52 9.043-14.31 0-23.79-10.974-23.79-23.879s9.48-23.88 23.79-23.88c7.99 0 14.48 3.6 18.52 9.043l-4.12 3.248c-3.17-4.477-8.26-7.374-14.4-7.374-10.8 0-18.44 8.515-18.44 18.963 0 10.447 7.64 18.963 18.53 18.963m53.72 3.16v-65.844h5.18V262zm34.22 1.229c-8.6 0-14.31-4.653-14.31-11.94 0-6.672 5.09-11.237 14.4-12.817l15.8-2.634v-4.126c0-7.111-5-10.974-11.94-10.974-5.71 0-10.36 2.546-13.34 6.76l-3.95-3.073c3.77-5.179 9.83-8.428 17.47-8.428 10.18 0 16.85 5.97 16.85 15.715V262h-5.09v-6.409c-3.77 5.004-9.74 7.638-15.89 7.638m-9.04-12.027c0 4.301 3.69 7.55 9.66 7.55 6.4 0 11.93-3.073 15.27-8.779v-10.096l-14.66 2.458c-7.02 1.229-10.27 4.477-10.27 8.867M471.8 355.84c6.146 0 11.15-2.898 14.31-7.375l4.127 3.248c-4.039 5.443-10.535 9.043-18.524 9.043-14.31 0-23.792-10.974-23.792-23.879s9.482-23.88 23.792-23.88c7.989 0 14.485 3.6 18.524 9.043l-4.127 3.248c-3.16-4.477-8.252-7.374-14.397-7.374-10.799 0-18.437 8.515-18.437 18.963 0 10.447 7.638 18.963 18.524 18.963m47.922-42.843c14.222 0 23.791 11.238 23.791 23.88s-9.569 23.879-23.791 23.879c-14.135 0-23.704-11.237-23.704-23.879s9.569-23.88 23.704-23.88m.087 42.843c10.448 0 18.173-8.955 18.173-18.963 0-10.184-7.725-18.963-18.173-18.963-10.798 0-18.436 8.867-18.436 18.963s7.638 18.963 18.436 18.963m36.834 3.16v-44.247h5.179v5.882c3.6-4.653 8.428-7.638 14.925-7.638 6.848 0 12.378 3.249 14.924 9.482 3.775-5.794 8.78-9.482 16.417-9.482 9.658 0 16.505 6.321 16.505 17.998V359h-5.092v-27.83c0-8.603-4.916-13.256-12.115-13.256-6.145 0-10.71 3.072-14.398 9.481.176 1.141.264 2.37.264 3.6V359h-5.18v-27.83c0-8.603-4.829-13.256-12.027-13.256-6.673 0-11.238 3.687-14.223 9.305V359zm84.362 0v-44.247h5.179v5.882c3.6-4.653 8.428-7.638 14.925-7.638 6.848 0 12.379 3.249 14.925 9.482 3.775-5.794 8.779-9.482 16.417-9.482 9.657 0 16.504 6.321 16.504 17.998V359h-5.092v-27.83c0-8.603-4.916-13.256-12.115-13.256-6.145 0-10.71 3.072-14.398 9.481.176 1.141.264 2.37.264 3.6V359h-5.18v-27.83c0-8.603-4.828-13.256-12.027-13.256-6.672 0-11.238 3.687-14.223 9.305V359zm116.142-18.787v-25.46h5.092v25.372c0 13.169-7.55 20.631-18.875 20.631-11.413 0-19.051-7.462-19.051-20.631v-25.372h5.18v25.46c0 10.008 5.531 15.627 13.871 15.627 8.165 0 13.783-5.619 13.783-15.627M778.608 359v-44.247h5.179v6.058c3.863-4.829 8.867-7.814 15.803-7.814 10.096 0 17.383 6.672 17.383 18.875V359h-5.18v-26.952c0-9.13-5.18-14.134-12.906-14.134-7.023 0-11.676 3.599-15.1 9.305V359zm66.46 1.229c-8.604 0-14.31-4.653-14.31-11.94 0-6.672 5.092-11.237 14.398-12.817l15.802-2.634v-4.126c0-7.111-5.004-10.974-11.94-10.974-5.706 0-10.359 2.546-13.344 6.76l-3.95-3.073c3.775-5.179 9.832-8.428 17.47-8.428 10.184 0 16.856 5.97 16.856 15.715V359h-5.092v-6.409c-3.775 5.004-9.745 7.638-15.89 7.638m-9.043-12.027c0 4.301 3.688 7.55 9.657 7.55 6.409 0 11.94-3.073 15.276-8.779v-10.096l-14.661 2.458c-7.023 1.229-10.272 4.477-10.272 8.867m78.358-7.989v-25.46h5.092v25.372c0 13.169-7.55 20.631-18.875 20.631-11.413 0-19.051-7.462-19.051-20.631v-25.372h5.18v25.46c0 10.008 5.531 15.627 13.871 15.627 8.165 0 13.783-5.619 13.783-15.627m23.915 4.828v-25.635h-8.341v-4.653h8.341v-11.062h5.267v11.062h16.593v4.653h-16.593v25.635c0 8.077 4.126 10.008 10.096 10.008 2.809 0 4.741-.351 6.497-.965v4.74c-2.019.703-4.214 1.054-7.024 1.054-9.042 0-14.836-4.038-14.836-14.837m53.664-37.311h-5.092l9.218-14.574h6.062zm17.998 43.983c-4.04 5.531-10.535 9.043-18.612 9.043-14.486 0-23.88-10.974-23.88-23.879 0-13.696 8.78-23.88 22.036-23.88 11.856 0 19.406 8.428 19.406 18.875 0 1.317-.09 2.634-.36 3.688h-35.726v1.053c0 11.237 7.638 19.402 18.524 19.402 6.233 0 11.412-2.897 14.662-7.462zm-20.544-34.151c-8.252 0-14.398 5.18-16.066 13.871h30.29c-.26-7.725-5.62-13.871-14.224-13.871m35.924 42.404c-2.55 0-4.39-1.844-4.39-4.302s1.84-4.302 4.39-4.302c2.46 0 4.39 1.844 4.39 4.302s-1.93 4.302-4.39 4.302"/><defs><clipPath id="a"><path fill="#fff" d="M717.356.44h589.633v174.12H717.356z"/></clipPath></defs></svg>