<svg width="1442" height="372" viewBox="0 0 1442 372" fill="none" xmlns="http://www.w3.org/2000/svg">
<path d="M140.285 65.0236C141.217 63.625 142.149 62.2264 143.082 60.8277C151.163 47.9292 162.352 37.0509 175.717 29.4361C189.237 21.8213 203.845 18.4023 219.23 20.4226C240.21 23.2199 255.751 34.5645 266.318 52.7468C275.332 68.4426 277.974 85.5369 276.419 103.408C276.264 105.895 275.953 108.381 275.642 111.179L280.771 112.578C297.244 116.773 312.007 124.077 323.818 136.51C333.919 146.766 340.446 159.976 342.622 174.117C344.642 187.949 342.467 201.935 336.406 214.523C329.257 229.908 318.534 242.185 305.014 252.131C303.615 253.219 302.061 254.306 300.197 255.55C300.663 257.259 300.973 258.969 301.44 260.678C305.946 280.725 303.926 299.995 294.446 318.333C286.987 332.475 276.264 343.509 261.19 349.569C240.21 358.117 220.629 354.853 202.447 341.644C201.514 341.022 200.582 340.245 199.805 339.623C199.649 339.468 199.338 339.624 198.717 339.468C196.23 342.576 193.899 345.84 191.257 348.792C180.534 361.225 165.46 369.15 149.143 370.86C126.92 373.657 107.183 366.975 89.6225 353.921C66.0009 336.516 52.0143 312.739 46.4197 283.989C44.3995 273.732 44.2441 264.874 45.332 252.442L40.9806 250.421C23.7306 242.496 10.6765 230.374 3.83867 212.347C-6.88429 184.685 5.39276 154.847 33.9873 142.26C37.5616 140.706 41.4467 139.618 45.1764 138.374L48.5954 137.287C48.1292 133.091 47.5076 129.206 47.1968 125.321C45.7981 111.179 49.9941 96.8818 58.8522 85.848C67.244 75.2805 78.2777 68.7535 91.021 65.1792C106.406 60.8278 121.947 61.2938 137.487 64.5573C138.42 64.5573 139.197 64.7128 140.285 65.0236ZM115.73 72.4831C104.852 72.4831 98.4805 73.5708 90.7102 76.2126C77.5008 80.7194 66.9332 88.6452 61.1832 101.699C55.8995 113.665 55.8995 126.098 60.0955 138.53C61.9603 144.125 62.5819 146.145 54.967 147.077C47.0414 148.01 39.5818 150.651 32.744 154.692C12.8521 166.503 4.305 189.658 15.028 212.192C19.3793 221.205 25.7508 228.82 33.9873 234.57C39.4265 238.455 45.332 241.408 51.5482 243.739C55.5887 245.293 56.3656 246.536 56.0548 250.732C56.0548 252.597 55.8995 254.462 55.744 256.171C54.967 262.543 54.967 268.914 55.744 275.13C59.94 306.988 74.8589 332.319 102.21 349.725C116.041 358.583 131.115 362.779 147.744 360.758C164.838 358.583 178.203 350.191 188.149 336.204C190.014 333.563 191.413 330.61 193.122 327.813C193.433 327.036 194.055 326.414 194.676 325.948C195.298 325.482 196.075 325.171 196.852 325.015H199.339C200.116 325.171 200.893 325.637 201.514 326.259C202.291 326.88 202.913 327.657 203.69 328.279C206.798 331.076 209.906 333.563 213.17 335.894C219.23 340.09 226.224 342.731 233.528 343.508C240.832 344.441 248.291 343.509 255.129 340.867C266.474 336.671 276.109 328.745 282.325 318.333C293.98 299.684 296.311 279.637 290.406 258.658C289.007 253.84 289.94 250.732 294.136 247.158C295.69 245.914 297.399 244.827 298.953 243.739C312.163 233.793 322.886 221.827 328.791 206.131C336.25 186.084 334.696 166.969 321.798 149.564C313.561 138.375 302.527 130.915 289.784 126.098C283.568 123.922 277.197 122.213 270.67 120.814C265.697 119.571 264.142 117.395 264.919 112.422C266.784 103.409 267.095 94.2399 266.163 85.071C264.919 74.5035 261.501 64.4021 255.906 55.3886C243.474 35.8076 222.028 25.7062 197.318 31.9224C182.555 35.8075 169.501 44.1993 159.866 56.0101C155.825 61.1384 151.94 66.5776 148.521 72.3275C146.034 76.0572 144.48 76.8343 140.129 75.9019C139.663 75.9019 139.352 75.5912 138.886 75.5912C131.116 73.5709 123.19 72.1723 116.041 72.4831H115.73Z" fill="#000091"/>
<path d="M238.967 260.989C220.94 260.367 207.264 254.617 198.095 240.942C187.372 225.09 187.527 208.151 196.386 191.678C204.933 175.827 218.764 166.658 236.791 164.172C244.406 162.929 252.176 163.706 259.48 166.192C266.784 168.834 273.311 173.185 278.44 178.935C284.5 185.462 288.385 193.854 289.629 202.712C293.358 226.334 276.73 252.442 250.622 258.969C246.271 260.057 241.764 260.523 238.967 260.989ZM240.521 250.577C251.865 250.266 263.831 243.584 272.689 231.307C273.466 230.374 273.933 229.131 273.933 227.888C273.933 226.645 273.622 225.401 272.689 224.469C264.919 212.192 261.811 197.584 263.676 183.131C263.831 182.199 263.676 181.266 263.21 180.334C262.744 179.401 261.966 178.78 261.034 178.469C256.527 176.138 251.554 174.584 246.581 174.273C239.899 173.652 233.061 174.739 226.845 177.226C220.629 179.712 215.034 183.753 210.683 188.881C202.602 198.05 198.717 208.773 200.737 220.895C203.69 238.766 218.298 250.732 240.521 250.732V250.577Z" fill="#000091"/>
<path d="M105.94 311.34C103.764 311.34 101.744 311.806 99.5679 311.651C97.5477 311.651 95.6828 311.029 94.1287 309.786C92.5747 308.387 91.6423 306.522 91.4869 304.658C91.1761 300.928 91.3316 297.043 91.9532 293.313C94.7505 280.415 100.656 268.449 109.203 258.347C109.514 258.036 109.669 257.57 109.98 257.259C109.669 255.705 109.203 253.996 108.892 252.442C108.426 250.266 108.737 247.935 109.669 245.759C110.602 243.739 112.156 242.03 114.176 240.942C116.041 239.854 118.217 239.232 120.392 239.388C122.568 239.388 124.744 240.32 126.453 241.564C126.764 241.564 126.919 241.874 127.075 242.03C129.406 244.672 132.048 244.827 135.467 243.895C142.305 241.874 149.453 241.408 156.446 242.496C163.44 243.584 170.122 246.225 175.872 250.266C181.311 253.685 185.818 258.347 189.237 263.942C192.656 269.381 194.831 275.597 195.608 281.969C198.872 305.435 182.399 328.901 157.068 333.718C139.662 336.982 124.433 332.164 112 319.421C109.825 316.935 107.649 314.293 105.629 311.496L105.94 311.34ZM143.703 324.239C157.223 324.239 165.46 321.131 172.608 315.07C194.21 296.732 187.994 265.651 164.217 255.239C156.913 252.131 148.987 251.354 141.217 252.908C133.446 254.462 126.453 258.347 120.859 263.942C109.825 275.442 107.338 291.915 115.108 305.746C122.257 318.178 133.446 323.928 143.548 324.239H143.703Z" fill="#000091"/>
<path d="M133.758 127.651C155.67 127.651 176.339 143.036 182.555 166.347C187.528 184.374 184.264 201.157 171.676 215.455C155.981 233.326 130.805 236.745 110.447 224.313C104.231 220.427 98.7915 215.299 94.5955 209.083C90.3996 203.022 87.4469 196.184 86.0482 188.88C84.6496 181.576 84.6495 174.117 86.359 166.968C87.913 159.664 91.0212 152.982 95.3726 146.921C99.8793 141.016 105.629 136.198 112.312 132.779C118.994 129.516 126.298 127.651 133.758 127.651ZM136.71 221.204C148.987 220.738 159.4 215.61 166.704 205.043C172.609 196.651 175.095 186.394 173.697 176.137C173.075 169.299 170.744 162.773 167.17 156.867C163.44 151.117 158.467 146.3 152.406 142.881C151.318 142.104 150.075 141.637 148.677 141.637C147.278 141.637 146.035 141.948 144.947 142.725C140.596 145.367 135.778 147.232 130.649 147.854C123.501 148.786 116.508 150.029 109.359 150.651C108.116 150.651 106.872 150.962 105.785 151.583C104.697 152.205 103.764 152.982 103.143 154.07C98.1698 161.374 95.5279 169.921 95.5279 178.779C95.5279 187.637 98.3252 196.184 103.298 203.333C111.068 214.833 121.947 220.894 136.555 221.36L136.71 221.204Z" fill="#000091"/>
<path d="M209.75 53.3675C213.325 46.9959 218.764 44.3543 223.737 46.2191C228.71 48.084 230.419 52.4351 228.71 60.3607C233.994 63.935 238.5 68.5974 241.764 74.192C245.027 79.6311 247.203 85.8471 247.825 92.2187C249.223 102.631 246.892 113.354 241.298 122.212C235.858 131.07 227.466 137.908 217.521 141.327C207.575 144.746 196.852 144.745 187.061 141.171C167.791 134.022 155.514 113.509 158.933 91.9079C159.865 86.0026 161.73 80.4081 164.838 75.2797C167.946 70.1514 171.987 65.7998 176.804 62.2255C186.129 55.0769 197.94 51.9689 209.595 53.3675H209.75ZM234.149 82.2729C231.818 82.7391 229.331 82.5838 227 81.9622C224.669 81.3406 222.649 80.0973 220.94 78.3878C218.764 76.2121 216.744 73.8811 214.879 71.3946C214.413 70.773 213.791 70.1514 213.014 69.8406C212.237 69.5298 211.304 69.5296 210.527 69.685C207.419 70.3066 204.156 70.6174 200.892 70.7728C197.629 71.0836 194.365 70.462 191.413 68.908C188.926 67.3539 187.061 67.8202 184.885 69.3743C172.608 78.3877 167.169 90.3538 169.345 105.428C170.744 114.131 175.406 122.056 182.554 127.34C189.703 132.624 198.561 134.955 207.264 133.712C214.412 132.624 221.095 129.516 226.379 124.543C231.663 119.57 235.237 113.199 236.791 106.05C238.811 98.1243 237.723 89.7323 233.993 82.5837L234.149 82.2729Z" fill="#000091"/>
<path d="M50.7706 207.996C49.3719 207.996 48.1286 207.685 46.7299 207.374C45.6421 207.064 44.7098 206.442 43.9327 205.665C43.3111 204.732 42.8449 203.645 43.0003 202.557C43.0003 201.469 43.4664 200.381 44.2435 199.449C45.0205 198.672 46.1084 198.05 47.1962 197.895C48.284 197.739 49.3718 197.584 50.4597 197.584C56.6759 197.584 62.7367 197.118 68.9529 196.03C70.1962 195.719 71.4395 196.03 72.5273 196.651C73.6152 197.273 74.3922 198.205 74.8584 199.449C75.1692 200.692 75.1691 201.935 74.7028 203.023C74.2366 204.111 73.3043 205.043 72.061 205.51C69.8854 206.442 67.5542 207.063 65.2232 207.219C60.8718 207.685 56.3651 207.841 50.926 208.151L50.7706 207.996Z" fill="#000091"/>
<path d="M83.0955 219.961C82.7847 221.049 82.1632 221.982 81.3861 222.914C76.724 227.266 71.5956 230.84 65.8456 233.637C64.7578 234.259 63.3591 234.414 62.1158 234.103C60.8726 233.792 59.7847 232.86 59.1631 231.772C58.5415 230.684 58.2308 229.441 58.5416 228.043C58.8524 226.799 59.474 225.712 60.5618 224.935C61.1834 224.468 61.9605 223.846 62.5821 223.536C66.3119 221.049 70.0415 218.407 73.7712 215.921C74.8591 215.144 76.1024 214.522 77.501 214.211C80.6091 213.745 82.9402 215.921 82.9402 219.806L83.0955 219.961Z" fill="#000091"/>
<path d="M275.021 159.354C275.332 158.266 275.798 157.178 276.419 156.246C278.129 153.449 279.994 150.807 281.859 148.165C282.48 147.388 283.102 146.611 283.879 145.99C284.811 145.368 285.744 144.902 286.987 144.746C288.075 144.746 289.163 145.057 290.095 145.679C291.028 146.3 291.649 147.388 291.96 148.476C292.271 149.564 291.96 150.807 291.494 151.739C289.163 155.78 286.521 159.509 283.568 163.239C282.946 164.172 281.859 164.638 280.926 164.949C279.838 165.104 278.751 164.949 277.818 164.327C275.953 163.395 275.332 161.685 275.176 159.354H275.021Z" fill="#000091"/>
<path d="M294.602 179.246C293.669 179.246 292.892 179.246 292.115 178.624C291.338 178.158 290.717 177.692 290.251 176.915C289.784 176.138 289.474 175.205 289.474 174.273C289.474 173.341 289.784 172.408 290.251 171.631C290.561 171.165 290.872 170.699 291.338 170.388C295.379 168.057 299.575 166.037 303.771 164.172C304.392 163.861 305.014 163.861 305.636 163.861C306.257 163.861 306.879 163.861 307.501 164.172C308.122 164.483 308.588 164.793 309.055 165.259C309.521 165.726 309.832 166.347 309.987 166.969C310.298 167.591 310.453 168.212 310.453 168.834C310.453 169.455 310.453 170.077 310.142 170.699C309.987 171.32 309.521 171.786 309.055 172.253C308.588 172.719 308.122 173.03 307.501 173.34C304.082 175.205 300.507 176.915 296.933 178.624C296.156 178.935 295.379 179.09 294.602 179.246Z" fill="#000091"/>
<path d="M231.818 313.982C230.42 313.982 229.021 313.36 228.089 312.427C227.156 311.495 226.535 310.097 226.379 308.698C226.379 307.299 227.001 306.056 228.089 305.279C229.021 304.347 230.42 303.88 231.663 304.036C233.061 304.036 234.305 304.657 235.237 305.434C236.17 306.367 236.791 307.61 236.791 309.009C236.791 310.407 236.325 311.651 235.237 312.583C234.305 313.515 233.061 314.137 231.663 314.137L231.818 313.982Z" fill="#000091"/>
<path d="M86.9805 109.78C86.9805 109.159 86.9806 108.381 87.2914 107.76C87.6022 107.138 87.9129 106.517 88.3792 106.051C88.8454 105.584 89.467 105.273 90.0886 104.962C90.7102 104.652 91.3319 104.652 92.1089 104.652C93.5076 104.652 94.7507 105.118 95.6831 106.051C96.6156 106.983 97.2372 108.226 97.2372 109.625C97.2372 111.023 96.6156 112.422 95.6831 113.355C94.5953 114.287 93.3522 114.909 91.9535 114.909C91.3319 114.909 90.7102 114.753 90.0886 114.442C89.467 114.131 89.0007 113.821 88.5345 113.199C88.0683 112.733 87.7576 112.111 87.4468 111.49C87.2914 110.868 87.1358 110.246 87.1358 109.625L86.9805 109.78Z" fill="#000091"/>
<path d="M227.778 290.361C227.778 291.759 227.156 293.003 226.224 293.935C225.292 294.868 223.893 295.334 222.65 295.334C222.028 295.334 221.251 295.334 220.785 294.868C220.163 294.557 219.542 294.246 219.075 293.78C218.609 293.313 218.298 292.692 217.988 292.07C217.677 291.449 217.677 290.827 217.677 290.05C217.677 289.428 217.677 288.807 218.143 288.185C218.454 287.564 218.765 286.942 219.231 286.631C219.697 286.165 220.319 285.854 220.94 285.544C221.562 285.388 222.184 285.232 222.961 285.232C223.582 285.232 224.359 285.233 224.981 285.544C225.603 285.854 226.224 286.165 226.69 286.631C227.157 287.098 227.467 287.719 227.778 288.341C228.089 288.962 228.089 289.584 228.089 290.361H227.778Z" fill="#000091"/>
<path d="M103.298 118.949C103.298 117.55 103.919 116.307 105.007 115.375C105.939 114.442 107.183 113.976 108.581 113.821C109.825 113.821 111.068 114.442 111.845 115.375C112.777 116.307 113.244 117.55 113.244 118.794C113.244 120.192 112.622 121.591 111.534 122.523C110.446 123.456 109.203 124.077 107.804 124.077C106.561 124.077 105.318 123.3 104.541 122.368C103.764 121.436 103.298 120.192 103.453 118.794L103.298 118.949Z" fill="#000091"/>
<path d="M251.866 304.346C251.866 304.968 251.866 305.59 251.4 306.211C251.089 306.833 250.778 307.299 250.312 307.765C249.846 308.231 249.224 308.543 248.602 308.853C247.981 309.009 247.359 309.164 246.738 309.164C246.116 309.164 245.494 309.009 244.873 308.698C244.251 308.387 243.785 307.921 243.319 307.455C242.852 306.988 242.542 306.367 242.386 305.745C242.231 305.124 242.075 304.502 242.231 303.88C242.231 302.637 243.008 301.549 243.94 300.772C244.873 299.995 246.116 299.529 247.359 299.684C248.603 299.684 249.69 300.306 250.623 301.238C251.4 302.171 251.866 303.259 251.866 304.502V304.346Z" fill="#000091"/>
<path d="M107.494 89.7328C107.494 90.976 107.027 92.0636 106.25 92.996C105.473 93.9284 104.385 94.3947 103.142 94.5501C101.899 94.5501 100.656 93.9286 99.7234 93.1516C98.791 92.2191 98.3247 90.976 98.3247 89.7328C98.3247 88.4895 98.9463 87.4017 99.8788 86.6247C100.811 85.8476 101.899 85.3813 103.142 85.3813C103.764 85.3813 104.385 85.3813 104.852 85.6921C105.473 85.8475 105.939 86.3139 106.406 86.6247C106.872 87.0909 107.183 87.5571 107.338 88.1787C107.494 88.8003 107.649 89.4217 107.649 89.8879L107.494 89.7328Z" fill="#000091"/>
<path d="M208.352 218.874C208.352 212.969 210.217 207.53 212.548 202.246C213.015 201.314 213.636 200.537 214.258 199.915C217.832 196.03 221.562 196.496 224.048 201.003C225.913 204.577 228.866 207.685 232.285 209.706C234.616 211.104 236.947 212.347 239.123 213.746C242.541 215.922 243.629 219.185 241.609 222.449C238.967 227.422 234.927 231.618 230.109 234.57C228.089 235.658 225.913 236.28 223.737 236.435C221.562 236.435 219.386 236.124 217.21 235.192C215.19 234.259 213.325 233.016 211.927 231.307C210.528 229.597 209.44 227.577 208.819 225.401C208.508 224.314 208.197 223.226 208.042 222.138V218.719L208.352 218.874ZM220.319 213.746C218.454 216.388 218.298 221.983 220.008 224.314C220.318 224.78 220.629 225.091 221.096 225.401C221.562 225.712 222.028 225.868 222.494 226.023H224.048C224.515 226.023 225.136 225.712 225.447 225.401C227.467 224.314 229.021 222.76 229.954 220.584L220.319 213.746Z" fill="#000091"/>
<path d="M243.939 204.266C242.54 204.266 241.297 203.645 240.365 202.712C239.432 201.78 238.811 200.536 238.811 199.138C238.811 197.739 239.588 196.496 240.52 195.563C241.452 194.631 242.851 194.165 244.094 194.009C245.493 194.009 246.736 194.631 247.669 195.563C248.601 196.496 249.223 197.739 249.378 199.138C249.378 199.759 249.378 200.536 248.912 201.158C248.601 201.78 248.29 202.401 247.669 202.867C247.202 203.333 246.581 203.8 245.804 203.955C245.182 204.266 244.405 204.266 243.783 204.266H243.939Z" fill="#000091"/>
<path d="M235.082 189.036C235.082 190.279 234.46 191.522 233.527 192.455C232.595 193.387 231.352 193.853 230.108 193.853C228.865 193.853 227.777 193.387 226.845 192.455C225.913 191.522 225.446 190.435 225.446 189.191C225.446 186.86 227.933 184.84 230.73 184.684C231.818 184.684 232.906 185.151 233.683 185.928C234.46 186.705 234.926 187.792 234.926 188.88L235.082 189.036Z" fill="#000091"/>
<path d="M156.291 273.887C156.291 272.799 156.291 271.711 156.447 270.468C156.447 269.38 157.068 268.448 157.845 267.671C158.622 266.894 159.71 266.428 160.643 266.428C161.73 266.272 162.974 266.428 163.906 267.049C164.839 267.671 165.616 268.603 165.771 269.847C166.237 272.022 166.548 274.353 166.548 276.529C166.548 282.279 164.839 287.718 161.575 292.38C160.021 294.711 158.001 296.421 155.514 297.509C153.028 298.597 150.23 298.907 147.589 298.286C142.305 297.509 137.332 296.265 133.291 292.691C132.204 291.759 131.271 290.826 130.339 289.583C129.717 288.65 129.406 287.563 129.406 286.475C129.406 285.387 129.872 284.299 130.649 283.522C131.426 282.745 132.359 282.124 133.447 281.968C134.535 281.813 135.622 281.968 136.555 282.435C137.643 283.056 138.731 283.677 139.663 284.454C142.149 286.319 145.102 287.407 148.21 287.874C149.298 288.184 150.541 287.874 151.474 287.407C152.562 286.941 153.339 286.009 153.805 285.076C155.825 281.657 156.602 277.617 156.136 273.732L156.291 273.887Z" fill="#000091"/>
<path d="M127.541 272.488C127.541 271.09 128.163 269.846 129.095 268.914C130.028 267.982 131.271 267.36 132.514 267.36C133.758 267.36 135.156 267.671 136.089 268.603C137.021 269.38 137.798 270.623 137.798 272.022C137.798 273.421 137.177 274.82 136.244 275.752C135.312 276.84 133.913 277.306 132.514 277.461C131.893 277.461 131.271 277.461 130.649 277.151C130.028 276.84 129.406 276.529 128.94 276.063C128.474 275.597 128.008 274.975 127.852 274.353C127.541 273.732 127.541 273.11 127.541 272.488Z" fill="#000091"/>
<path d="M151.474 263.786C151.474 264.408 151.474 265.029 151.163 265.651C151.008 266.272 150.541 266.739 150.075 267.205C149.609 267.671 149.143 267.982 148.521 268.137C147.899 268.292 147.278 268.448 146.656 268.448C146.035 268.448 145.413 268.448 144.636 268.137C144.014 267.982 143.393 267.516 142.926 267.049C142.46 266.583 141.994 265.961 141.839 265.495C141.528 264.874 141.372 264.252 141.372 263.631C141.372 262.232 141.839 260.989 142.771 260.056C143.703 259.124 144.947 258.502 146.345 258.502C147.744 258.502 148.987 259.279 149.92 260.212C150.852 261.144 151.318 262.543 151.318 263.786H151.474Z" fill="#000091"/>
<path d="M157.068 183.908C156.291 187.948 155.203 191.833 153.804 195.718C149.919 205.043 139.662 207.684 131.27 202.09C125.054 197.894 121.791 191.833 119.926 184.84C119.615 183.908 119.615 182.82 119.926 181.732C120.081 180.644 120.703 179.712 121.324 178.935C121.946 178.313 122.723 177.847 123.5 177.536C124.277 177.225 125.21 177.225 126.142 177.536C127.075 177.692 127.852 178.157 128.473 178.779C129.095 179.401 129.561 180.178 129.872 180.955C130.804 183.131 131.27 185.462 132.203 187.637C133.291 190.279 135.311 192.455 137.798 193.698C140.75 195.252 143.237 194.631 144.325 191.523C145.257 188.414 146.034 185.306 146.5 182.043C146.656 181.11 146.5 180.023 146.5 179.09C146.5 178.002 146.966 176.914 147.743 176.137C148.52 175.36 149.453 174.739 150.541 174.583C151.629 174.428 152.716 174.583 153.649 175.205C154.581 175.671 155.358 176.604 155.825 177.536C156.446 179.556 156.912 181.577 157.223 183.752L157.068 183.908Z" fill="#000091"/>
<path d="M132.048 166.969C132.048 167.746 132.048 168.368 131.737 168.989C131.426 169.611 131.116 170.232 130.649 170.698C130.183 171.165 129.562 171.631 128.94 171.786C128.318 172.097 127.541 172.253 126.92 172.097C125.521 172.097 124.122 171.786 123.035 170.854C121.947 169.922 121.17 168.678 121.17 167.28C121.17 166.503 121.17 165.881 121.481 165.104C121.791 164.482 122.102 163.861 122.724 163.239C123.19 162.773 123.812 162.307 124.589 161.996C125.21 161.685 125.987 161.53 126.764 161.53C128.163 161.53 129.562 161.996 130.649 162.928C131.737 163.861 132.359 165.259 132.359 166.658L132.048 166.969Z" fill="#000091"/>
<path d="M144.791 170.232C144.169 170.232 143.392 170.232 142.771 169.921C142.149 169.61 141.527 169.3 141.061 168.834C140.595 168.367 140.129 167.901 139.818 167.279C139.507 166.658 139.352 166.036 139.352 165.415C139.352 164.793 139.352 164.016 139.663 163.394C139.973 162.773 140.284 162.151 140.75 161.685C141.217 161.219 141.838 160.908 142.46 160.597C143.082 160.286 143.703 160.286 144.48 160.286C145.879 160.286 147.122 160.908 148.054 161.84C148.987 162.773 149.609 164.016 149.609 165.415C149.609 166.658 148.987 167.901 148.054 168.834C147.122 169.766 145.879 170.232 144.635 170.232H144.791Z" fill="#000091"/>
<path d="M214.102 109.624C214.102 110.09 214.102 110.557 213.947 111.023C211.616 115.996 208.819 120.813 203.379 123.144C197.94 125.631 190.636 123.61 186.44 118.948C183.643 115.685 181.623 111.955 180.69 107.759C180.38 106.671 180.38 105.584 180.535 104.496C180.535 103.408 181.156 102.32 181.933 101.543C182.71 100.766 183.798 100.3 184.886 100.145C185.974 100.145 187.062 100.144 187.994 100.766C188.927 101.232 189.704 102.165 190.17 103.097C190.636 104.029 190.792 104.962 191.102 105.894C191.879 107.759 192.657 109.469 193.744 111.178C196.231 114.908 199.184 114.908 201.825 111.178C202.913 109.624 203.846 107.759 204.933 106.205C205.555 105.273 206.487 104.651 207.575 104.34C208.663 104.03 209.751 104.03 210.839 104.496C211.927 104.962 212.704 105.739 213.325 106.671C213.947 107.604 214.102 108.692 214.102 109.935V109.624Z" fill="#000091"/>
<path d="M203.689 90.9751C203.689 90.3535 203.844 89.5765 204.155 89.1103C204.466 88.4887 204.932 88.0225 205.399 87.5563C205.865 87.0901 206.486 86.7795 207.108 86.6241C207.73 86.4687 208.351 86.3131 209.128 86.4685C210.527 86.6239 211.77 87.4009 212.547 88.3333C213.48 89.4211 213.79 90.6646 213.79 92.0632C213.635 93.3065 213.013 94.5495 211.926 95.3265C210.993 96.1035 209.75 96.5698 208.351 96.5698C207.73 96.5698 206.953 96.4143 206.486 96.1035C205.865 95.7927 205.398 95.4818 204.932 94.8602C204.466 94.394 204.155 93.7726 204 93.151C203.844 92.5294 203.689 91.9077 203.689 91.1307V90.9751Z" fill="#000091"/>
<path d="M194.52 88.8005C194.52 90.0437 194.054 91.2869 193.122 92.2193C192.189 93.1518 191.102 93.7734 189.858 93.7734C188.46 93.7734 187.216 93.3073 186.284 92.3749C185.351 91.4425 184.73 90.1993 184.574 88.9561C184.574 87.7128 185.041 86.3141 185.973 85.3817C186.906 84.4493 188.149 83.983 189.392 83.8276C190.635 83.8276 192.034 84.2937 192.966 85.2261C193.899 86.1586 194.365 87.4017 194.52 88.6449V88.8005Z" fill="#000091"/>
<path d="M434.519 149.543C432.76 149.543 431.383 149.122 430.388 148.28C429.393 147.515 428.896 146.635 428.896 145.641C428.896 144.952 429.126 144.149 429.585 143.231L431.191 139.788H431.88L434.06 141.05C435.208 141.739 436.776 142.083 438.766 142.083C442.208 142.083 444.886 140.4 446.799 137.034C448.788 133.667 450.203 129.306 451.045 123.951L458.16 75.4071H449.094V70.3577H458.849L459.537 65.7672C459.767 64.2371 460.455 62.2479 461.603 59.7997C462.751 57.3514 464.281 54.7884 466.193 52.1107C468.106 49.3564 470.286 46.7552 472.735 44.307C475.259 41.8587 477.937 39.8695 480.768 38.3394C483.675 36.7328 486.659 35.9294 489.719 35.9294C490.408 35.9294 491.135 36.0442 491.9 36.2737C492.665 36.4267 493.277 36.618 493.736 36.8475C494.731 37.3831 495.419 37.8804 495.802 38.3394C496.184 38.7219 496.375 39.181 496.375 39.7165C496.375 40.0226 496.261 40.4433 496.031 40.9789C495.878 41.4379 495.687 41.8587 495.457 42.2413L493.621 45.6841H492.818L490.178 44.4217C488.266 43.5801 485.97 43.1594 483.293 43.1594C479.314 43.1594 476.139 44.8425 473.768 48.2088C471.396 51.5751 469.827 55.8978 469.062 61.1768L467.685 70.3577H480.653V75.4071H466.997L460.455 119.59C460.226 121.044 459.614 122.995 458.619 125.443C457.625 127.968 456.286 130.607 454.603 133.361C452.996 136.116 451.121 138.717 448.979 141.165C446.914 143.613 444.657 145.602 442.208 147.133C439.76 148.739 437.197 149.543 434.519 149.543ZM501.835 123.148C495.179 123.148 490.244 121.082 487.03 116.951C483.894 112.819 482.325 107.464 482.325 100.884C482.325 97.2882 482.976 93.6541 484.276 89.9817C485.577 86.2329 487.451 82.7901 489.9 79.6533C492.348 76.5165 495.255 73.9917 498.621 72.0791C501.988 70.1664 505.698 69.2101 509.753 69.2101C516.409 69.2101 521.306 71.2757 524.443 75.4071C527.656 79.5385 529.262 84.894 529.262 91.4736C529.262 94.9165 528.612 98.5123 527.312 102.261C526.087 105.933 524.251 109.376 521.803 112.59C519.431 115.726 516.562 118.289 513.196 120.279C509.83 122.191 506.043 123.148 501.835 123.148ZM503.097 118.787C506.387 118.787 509.256 117.524 511.704 115C514.152 112.398 516.027 108.994 517.327 104.786C518.628 100.501 519.278 95.8345 519.278 90.7851C519.278 85.1235 518.513 80.8391 516.983 77.9319C515.529 74.9481 512.775 73.4562 508.72 73.4562C505.507 73.4562 502.638 74.6421 500.113 77.0138C497.665 79.309 495.752 82.5223 494.375 86.6537C492.998 90.7851 492.309 95.6433 492.309 101.228C492.309 106.89 493.075 111.251 494.605 114.311C496.135 117.295 498.966 118.787 503.097 118.787ZM537.616 122L545.534 77.3581L536.583 73.3414V72.6529L552.764 69.2101H553.108V83.3256H553.568C556.016 78.8117 558.081 75.5984 559.765 73.6857C561.524 71.6965 563.054 70.4724 564.355 70.0134C565.732 69.4778 566.956 69.2101 568.027 69.2101C569.405 69.2101 570.667 69.6691 571.814 70.5872C572.962 71.4288 573.536 72.4234 573.536 73.571C573.536 73.9535 573.421 74.3743 573.192 74.8333L570.323 80.6861H569.634L568.372 79.768C567.76 79.309 567.071 79.003 566.306 78.85C565.617 78.6204 564.929 78.5057 564.24 78.5057C562.863 78.5057 561.601 78.8117 560.453 79.4238C559.382 79.9593 558.158 81.1452 556.781 82.9813C555.48 84.741 553.797 87.4188 551.731 91.0146L546.338 122H537.616ZM588.194 123.148C585.363 123.148 583.03 122.038 581.193 119.82C579.434 117.601 578.554 114.579 578.554 110.753C578.554 109.988 578.592 109.223 578.669 108.458C578.822 107.693 578.937 106.928 579.013 106.163L584.177 77.3581L575.226 73.3414V72.6529L593.588 69.2101H594.047L588.079 104.327C587.773 106.24 587.62 107.617 587.62 108.458C587.62 110.6 588.117 112.437 589.112 113.967C590.183 115.42 591.904 116.147 594.276 116.147C595.883 116.147 597.49 115.573 599.096 114.426C600.779 113.278 602.386 111.901 603.916 110.294C605.446 108.688 606.823 107.196 608.048 105.819L612.982 77.3581L605.064 73.3414V72.6529L622.507 69.2101H622.966L616.081 108.343C615.698 110.639 615.622 112.284 615.851 113.278C616.157 114.273 616.884 114.77 618.032 114.77C619.332 114.77 620.748 114.082 622.278 112.704C623.808 111.251 625.262 109.07 626.639 106.163L628.131 106.852C625.912 112.59 623.502 116.759 620.901 119.361C618.376 121.885 615.775 123.148 613.097 123.148C610.419 123.148 608.583 122.115 607.588 120.049C606.67 117.983 606.479 115.229 607.015 111.786L607.129 111.098H606.785C604.184 114.005 601.927 116.338 600.014 118.098C598.102 119.858 596.227 121.158 594.391 122C592.631 122.765 590.566 123.148 588.194 123.148ZM632.544 122L640.463 77.3581L631.512 73.3414V72.6529L647.808 69.2101H648.152V81.2599H648.611C651.289 78.2761 653.584 75.9044 655.497 74.1448C657.409 72.3851 659.284 71.1227 661.12 70.3577C662.956 69.5926 665.098 69.2101 667.546 69.2101C670.377 69.2101 672.711 70.2812 674.547 72.4234C676.383 74.5656 677.378 77.5111 677.531 81.2599H678.104C680.782 78.2761 683.077 75.9044 684.99 74.1448C686.903 72.3851 688.739 71.1227 690.499 70.3577C692.335 69.5926 694.515 69.2101 697.04 69.2101C700.483 69.2101 703.161 70.7402 705.073 73.8005C706.986 76.8608 707.483 80.9922 706.565 86.1946L702.549 108.343C702.166 110.639 702.089 112.284 702.319 113.278C702.549 114.273 703.199 114.77 704.27 114.77C705.571 114.77 706.986 114.082 708.516 112.704C710.046 111.251 711.5 109.07 712.877 106.163L714.369 106.852C712.15 112.59 709.74 116.759 707.139 119.361C704.614 121.885 702.013 123.148 699.335 123.148C696.657 123.148 694.821 122.115 693.827 120.049C692.832 117.983 692.641 115.229 693.253 111.786L697.729 86.5389C698.188 83.8612 697.92 81.4895 696.925 79.4238C696.007 77.2816 694.018 76.2105 690.958 76.2105C689.275 76.2105 687.591 76.7843 685.908 77.9319C684.302 79.003 682.733 80.3418 681.203 81.9485C679.673 83.4786 678.296 84.9323 677.072 86.3094L670.645 122H661.923L668.235 86.5389C668.694 83.8612 668.426 81.4895 667.432 79.4238C666.514 77.2816 664.524 76.2105 661.464 76.2105C659.781 76.2105 658.098 76.7843 656.415 77.9319C654.732 79.0795 653.087 80.4566 651.48 82.0633C649.95 83.5934 648.573 85.0853 647.349 86.5389L641.266 122H632.544Z" fill="#000091"/>
<g clip-path="url(#clip0_208_44091)">
<path d="M724.384 125.151C722.485 125.151 720.838 124.455 719.445 123.062C718.052 121.669 717.356 120.023 717.356 118.123C717.356 116.16 718.052 114.483 719.445 113.09C720.838 111.697 722.485 111 724.384 111C726.284 111 727.93 111.697 729.323 113.09C730.716 114.483 731.412 116.16 731.412 118.123C731.412 120.023 730.716 121.669 729.323 123.062C727.93 124.455 726.284 125.151 724.384 125.151Z" fill="#000091"/>
<path d="M794.34 54.4904V124.677H782.753V117.838C777.625 123.537 772.496 125.911 765.373 125.911C750.367 125.911 738.97 113.944 738.97 98.2736C738.97 82.5079 750.557 70.1612 765.373 70.1612C771.926 70.1612 778.005 72.6306 781.709 76.7145V54.4904H794.34ZM767.082 81.7481C758.44 81.7481 751.697 88.6812 751.697 97.7038C751.697 107.106 758.535 114.324 767.367 114.324C775.915 114.324 782.658 107.201 782.658 98.0837C782.658 88.7762 775.915 81.7481 767.082 81.7481Z" fill="#000091"/>
<path d="M857.02 72.0607V124.677H845.433V117.838C840.4 123.632 835.366 125.911 827.958 125.911C812.572 125.911 801.46 114.419 801.46 98.5586C801.46 82.5079 812.667 70.826 828.243 70.826C835.841 70.826 841.065 73.2954 845.433 79.0888V72.0607H857.02ZM829.573 82.4129C820.55 82.4129 814.187 89.2511 814.187 98.8435C814.187 108.056 820.55 114.324 829.763 114.324C834.606 114.324 838.69 112.71 841.255 109.576C843.534 106.916 845.054 102.547 845.054 98.7485C845.054 89.1561 838.595 82.4129 829.573 82.4129Z" fill="#000091"/>
<path d="M868.964 124.677V83.5526H862.791V72.0607H868.964V54.4904H881.596V72.0607H889.194V83.5526H881.596V124.677H868.964Z" fill="#000091"/>
<path d="M947.127 72.0607V124.677H935.54V117.838C930.507 123.632 925.473 125.911 918.065 125.911C902.679 125.911 891.567 114.419 891.567 98.5586C891.567 82.5079 902.774 70.826 918.35 70.826C925.948 70.826 931.172 73.2954 935.54 79.0888V72.0607H947.127ZM919.68 82.4129C910.657 82.4129 904.294 89.2511 904.294 98.8435C904.294 108.056 910.657 114.324 919.87 114.324C924.713 114.324 928.797 112.71 931.362 109.576C933.641 106.916 935.161 102.547 935.161 98.7485C935.161 89.1561 928.702 82.4129 919.68 82.4129Z" fill="#000091"/>
<path d="M963.193 125.151C961.293 125.151 959.647 124.455 958.254 123.062C956.861 121.669 956.165 120.023 956.165 118.123C956.165 116.16 956.861 114.483 958.254 113.09C959.647 111.697 961.293 111 963.193 111C965.092 111 966.739 111.697 968.131 113.09C969.524 114.483 970.221 116.16 970.221 118.123C970.221 120.023 969.524 121.669 968.131 123.062C966.739 124.455 965.092 125.151 963.193 125.151Z" fill="#000091"/>
<path d="M1020.9 72.0607H1032.96V114.704C1032.96 124.772 1031.34 131.23 1027.64 136.073C1022.7 142.342 1015.2 145.666 1005.7 145.666C992.785 145.666 982.907 139.493 978.634 128.95H992.975C996.679 133.034 1000.29 134.554 1006.18 134.554C1015.58 134.554 1020.42 129.045 1020.9 117.743C1015.96 123.537 1011.02 125.911 1003.61 125.911C988.606 125.911 977.779 114.229 977.779 97.9887C977.779 82.4129 988.796 70.826 1003.71 70.826C1011.3 70.826 1016.91 73.3903 1020.9 78.7089V72.0607ZM1005.13 82.4129C996.299 82.4129 990.505 88.8712 990.505 98.5586C990.505 108.151 996.299 114.324 1005.32 114.324C1014.44 114.324 1020.33 108.056 1020.33 98.5586C1020.33 88.8712 1014.15 82.4129 1005.13 82.4129Z" fill="#000091"/>
<path d="M1067.82 70.826C1083.68 70.826 1095.93 83.0777 1095.93 98.7485C1095.93 113.565 1083.2 125.911 1067.91 125.911C1052.53 125.911 1039.99 113.565 1039.99 98.3686C1039.99 83.2677 1052.53 70.826 1067.82 70.826ZM1067.91 82.4129C1059.56 82.4129 1052.72 89.536 1052.72 98.1787C1052.72 107.201 1059.46 114.324 1068.01 114.324C1076.37 114.324 1083.2 107.201 1083.2 98.3686C1083.2 89.536 1076.37 82.4129 1067.91 82.4129Z" fill="#000091"/>
<path d="M1148.89 72.0607V124.677H1137.21V119.643C1132.37 124.297 1128.47 125.911 1122.11 125.911C1115.18 125.911 1109.57 123.157 1106.06 118.123C1103.12 113.849 1102.07 109.196 1102.07 100.268V72.0607H1114.7V97.7988C1114.7 104.922 1115.46 108.721 1117.27 111C1118.98 113.28 1121.45 114.324 1124.67 114.324C1128.95 114.324 1132.46 112.615 1134.27 109.481C1135.79 107.201 1136.26 103.877 1136.26 96.849V72.0607H1148.89Z" fill="#000091"/>
<path d="M1173.94 124.677L1152.76 72.0607H1166.81L1178.97 106.916L1190.94 72.0607H1205.18L1184 124.677H1173.94Z" fill="#000091"/>
<path d="M1219.04 125.151C1217.14 125.151 1215.5 124.455 1214.1 123.062C1212.71 121.669 1212.01 120.023 1212.01 118.123C1212.01 116.16 1212.71 114.483 1214.1 113.09C1215.5 111.697 1217.14 111 1219.04 111C1220.94 111 1222.59 111.697 1223.98 113.09C1225.37 114.483 1226.07 116.16 1226.07 118.123C1226.07 120.023 1225.37 121.669 1223.98 123.062C1222.59 124.455 1220.94 125.151 1219.04 125.151Z" fill="#000091"/>
<path d="M1220.99 152.219C1219.23 152.219 1217.86 151.798 1216.86 150.957C1215.87 150.192 1215.37 149.312 1215.37 148.317C1215.37 147.629 1215.6 146.825 1216.06 145.907L1217.66 142.464H1218.35L1220.53 143.727C1221.68 144.415 1223.25 144.76 1225.24 144.76C1228.68 144.76 1231.36 143.077 1233.27 139.71C1235.26 136.344 1236.68 131.983 1237.52 126.627L1244.63 78.0837H1235.57V73.0342H1245.32L1246.01 68.4438C1246.24 66.9136 1246.93 64.9244 1248.08 62.4762C1249.22 60.028 1250.75 57.465 1252.67 54.7872C1254.58 52.033 1256.76 49.4317 1259.21 46.9835C1261.73 44.5353 1264.41 42.5461 1267.24 41.0159C1270.15 39.4093 1273.13 38.606 1276.19 38.606C1276.88 38.606 1277.61 38.7207 1278.37 38.9502C1279.14 39.1033 1279.75 39.2945 1280.21 39.524C1281.2 40.0596 1281.89 40.5569 1282.28 41.0159C1282.66 41.3985 1282.85 41.8575 1282.85 42.3931C1282.85 42.6991 1282.73 43.1199 1282.5 43.6554C1282.35 44.1145 1282.16 44.5353 1281.93 44.9178L1280.09 48.3606H1279.29L1276.65 47.0983C1274.74 46.2567 1272.44 45.8359 1269.77 45.8359C1265.79 45.8359 1262.61 47.519 1260.24 50.8854C1257.87 54.2517 1256.3 58.5743 1255.54 63.8533L1254.16 73.0342H1267.13V78.0837H1253.47L1246.93 122.267C1246.7 123.72 1246.09 125.671 1245.09 128.119C1244.1 130.644 1242.76 133.284 1241.08 136.038C1239.47 138.792 1237.6 141.393 1235.45 143.842C1233.39 146.29 1231.13 148.279 1228.68 149.809C1226.23 151.416 1223.67 152.219 1220.99 152.219Z" fill="#000091"/>
<path d="M1269.12 124.677L1277.03 80.0346L1268.08 76.018V75.3294L1284.26 71.8866H1284.61V86.0022H1285.07C1287.52 81.4882 1289.58 78.2749 1291.27 76.3623C1293.02 74.3731 1294.55 73.149 1295.86 72.6899C1297.23 72.1544 1298.46 71.8866 1299.53 71.8866C1300.91 71.8866 1302.17 72.3456 1303.32 73.2637C1304.46 74.1053 1305.04 75.0999 1305.04 76.2475C1305.04 76.63 1304.92 77.0508 1304.69 77.5099L1301.82 83.3627H1301.13L1299.87 82.4446C1299.26 81.9855 1298.57 81.6795 1297.81 81.5265C1297.12 81.297 1296.43 81.1822 1295.74 81.1822C1294.36 81.1822 1293.1 81.4882 1291.95 82.1003C1290.88 82.6358 1289.66 83.8217 1288.28 85.6579C1286.98 87.4175 1285.3 90.0953 1283.23 93.6911L1277.84 124.677H1269.12Z" fill="#000091"/>
</g>
<path d="M453.54 262V200.546H484.794V205.462H459.158V228.288H481.282V233.117H459.158V257.084H484.794V262H453.54ZM519.211 258.84C525.357 258.84 530.361 255.942 533.521 251.465L537.647 254.713C533.609 260.156 527.112 263.756 519.123 263.756C504.813 263.756 495.332 252.782 495.332 239.877C495.332 226.971 504.813 215.997 519.123 215.997C527.112 215.997 533.609 219.597 537.647 225.04L533.521 228.288C530.361 223.811 525.269 220.914 519.123 220.914C508.325 220.914 500.687 229.429 500.687 239.877C500.687 250.324 508.325 258.84 519.211 258.84ZM549.27 262V196.156H554.449V223.898C558.312 218.982 563.316 215.997 570.252 215.997C580.348 215.997 587.634 222.669 587.634 234.872V262H582.455V235.048C582.455 225.918 577.275 220.914 569.549 220.914C562.526 220.914 557.873 224.601 554.449 230.219V262H549.27ZM615.73 263.229C607.126 263.229 601.42 258.576 601.42 251.289C601.42 244.617 606.512 240.052 615.818 238.472L631.62 235.838V231.712C631.62 224.601 626.616 220.738 619.68 220.738C613.974 220.738 609.321 223.284 606.336 227.498L602.385 224.425C606.16 219.246 612.218 215.997 619.856 215.997C630.04 215.997 636.712 221.967 636.712 231.712V262H631.62V255.591C627.845 260.595 621.875 263.229 615.73 263.229ZM606.687 251.202C606.687 255.503 610.374 258.752 616.344 258.752C622.753 258.752 628.284 255.679 631.62 249.973V239.877L616.959 242.335C609.936 243.564 606.687 246.812 606.687 251.202ZM653.265 262V217.753H658.444V223.811C662.307 218.982 667.311 215.997 674.247 215.997C684.343 215.997 691.63 222.669 691.63 234.872V262H686.45V235.048C686.45 225.918 681.27 220.914 673.545 220.914C666.521 220.914 661.868 224.513 658.444 230.219V262H653.265ZM702.518 270.165C702.518 265.599 704.8 262 709.366 258.664C707.171 257.171 706.117 254.801 706.117 252.431C706.117 249.007 708.224 246.022 711.648 244.003C707.697 241.106 705.415 236.54 705.415 231.624C705.415 223.284 711.999 215.909 722.183 215.909C725.256 215.909 728.065 216.612 730.435 217.753H747.028V222.318H735.966C737.898 224.952 739.039 228.2 739.039 231.624C739.039 239.964 732.455 247.339 722.183 247.339C719.549 247.339 717.179 246.812 715.072 246.022C712.438 247.514 711.034 249.709 711.034 251.641C711.034 253.66 711.999 255.24 715.248 255.24H728.767C740.795 255.24 745.799 260.771 745.799 268.409C745.799 277.364 736.669 283.948 723.676 283.948C711.209 283.948 702.518 278.68 702.518 270.165ZM722.271 242.949C729.733 242.949 733.859 237.594 733.859 231.624C733.859 225.479 729.733 220.299 722.271 220.299C714.633 220.299 710.507 225.479 710.507 231.624C710.507 237.682 714.633 242.949 722.271 242.949ZM707.697 269.726C707.697 275.695 714.194 279.471 723.588 279.471C733.772 279.471 740.619 275.344 740.619 268.672C740.619 263.844 737.986 259.981 728.592 259.981H713.931C709.892 262.702 707.697 265.775 707.697 269.726ZM793.224 254.713C789.186 260.244 782.689 263.756 774.612 263.756C760.127 263.756 750.733 252.782 750.733 239.877C750.733 226.181 759.512 215.997 772.769 215.997C784.621 215.997 792.171 224.425 792.171 234.872C792.171 236.189 792.083 237.506 791.82 238.56H756.088C756.088 238.911 756.088 239.262 756.088 239.613C756.088 250.85 763.726 259.015 774.612 259.015C780.846 259.015 786.025 256.118 789.274 251.553L793.224 254.713ZM772.681 220.562C764.429 220.562 758.283 225.742 756.615 234.433H786.903C786.64 226.708 781.285 220.562 772.681 220.562ZM801.13 262V257.347L829.399 222.406H801.745V217.753H835.457V222.406L807.188 257.347H836.071V262H801.13ZM884.077 263.229C875.473 263.229 869.767 258.576 869.767 251.289C869.767 244.617 874.859 240.052 884.165 238.472L899.967 235.838V231.712C899.967 224.601 894.963 220.738 888.027 220.738C882.321 220.738 877.668 223.284 874.683 227.498L870.732 224.425C874.508 219.246 880.565 215.997 888.203 215.997C898.387 215.997 905.059 221.967 905.059 231.712V262H899.967V255.591C896.192 260.595 890.222 263.229 884.077 263.229ZM875.034 251.202C875.034 255.503 878.722 258.752 884.691 258.752C891.1 258.752 896.631 255.679 899.967 249.973V239.877L885.306 242.335C878.283 243.564 875.034 246.812 875.034 251.202ZM914.335 217.753H919.866L935.756 256.996L951.559 217.753H957.178L939.18 262H932.333L914.335 217.753ZM1005.33 254.713C1001.29 260.244 994.795 263.756 986.718 263.756C972.232 263.756 962.839 252.782 962.839 239.877C962.839 226.181 971.618 215.997 984.874 215.997C996.726 215.997 1004.28 224.425 1004.28 234.872C1004.28 236.189 1004.19 237.506 1003.93 238.56H968.194C968.194 238.911 968.194 239.262 968.194 239.613C968.194 250.85 975.832 259.015 986.718 259.015C992.951 259.015 998.131 256.118 1001.38 251.553L1005.33 254.713ZM984.787 220.562C976.534 220.562 970.389 225.742 968.721 234.433H999.009C998.745 226.708 993.39 220.562 984.787 220.562ZM1037.82 258.84C1043.96 258.84 1048.96 255.942 1052.13 251.465L1056.25 254.713C1052.21 260.156 1045.72 263.756 1037.73 263.756C1023.42 263.756 1013.94 252.782 1013.94 239.877C1013.94 226.971 1023.42 215.997 1037.73 215.997C1045.72 215.997 1052.21 219.597 1056.25 225.04L1052.13 228.288C1048.96 223.811 1043.87 220.914 1037.73 220.914C1026.93 220.914 1019.29 229.429 1019.29 239.877C1019.29 250.324 1026.93 258.84 1037.82 258.84ZM1091.54 262V196.156H1096.72V262H1091.54ZM1125.76 263.229C1117.16 263.229 1111.45 258.576 1111.45 251.289C1111.45 244.617 1116.54 240.052 1125.85 238.472L1141.65 235.838V231.712C1141.65 224.601 1136.65 220.738 1129.71 220.738C1124 220.738 1119.35 223.284 1116.37 227.498L1112.42 224.425C1116.19 219.246 1122.25 215.997 1129.89 215.997C1140.07 215.997 1146.74 221.967 1146.74 231.712V262H1141.65V255.591C1137.88 260.595 1131.91 263.229 1125.76 263.229ZM1116.72 251.202C1116.72 255.503 1120.41 258.752 1126.38 258.752C1132.78 258.752 1138.31 255.679 1141.65 249.973V239.877L1126.99 242.335C1119.97 243.564 1116.72 246.812 1116.72 251.202ZM471.8 355.84C477.946 355.84 482.95 352.942 486.11 348.465L490.237 351.713C486.198 357.156 479.702 360.756 471.713 360.756C457.403 360.756 447.921 349.782 447.921 336.877C447.921 323.971 457.403 312.997 471.713 312.997C479.702 312.997 486.198 316.597 490.237 322.04L486.11 325.288C482.95 320.811 477.858 317.914 471.713 317.914C460.914 317.914 453.276 326.429 453.276 336.877C453.276 347.324 460.914 355.84 471.8 355.84ZM519.722 312.997C533.944 312.997 543.513 324.235 543.513 336.877C543.513 349.519 533.944 360.756 519.722 360.756C505.587 360.756 496.018 349.519 496.018 336.877C496.018 324.235 505.587 312.997 519.722 312.997ZM519.809 355.84C530.257 355.84 537.982 346.885 537.982 336.877C537.982 326.693 530.257 317.914 519.809 317.914C509.011 317.914 501.373 326.781 501.373 336.877C501.373 346.973 509.011 355.84 519.809 355.84ZM556.643 359V314.753H561.822V320.635C565.422 315.982 570.25 312.997 576.747 312.997C583.595 312.997 589.125 316.246 591.671 322.479C595.446 316.685 600.451 312.997 608.088 312.997C617.746 312.997 624.593 319.318 624.593 330.995V359H619.501V331.17C619.501 322.567 614.585 317.914 607.386 317.914C601.241 317.914 596.676 320.986 592.988 327.395C593.164 328.536 593.252 329.765 593.252 330.995V359H588.072V331.17C588.072 322.567 583.243 317.914 576.045 317.914C569.372 317.914 564.807 321.601 561.822 327.219V359H556.643ZM641.005 359V314.753H646.184V320.635C649.784 315.982 654.612 312.997 661.109 312.997C667.957 312.997 673.488 316.246 676.034 322.479C679.809 316.685 684.813 312.997 692.451 312.997C702.108 312.997 708.955 319.318 708.955 330.995V359H703.863V331.17C703.863 322.567 698.947 317.914 691.748 317.914C685.603 317.914 681.038 320.986 677.35 327.395C677.526 328.536 677.614 329.765 677.614 330.995V359H672.434V331.17C672.434 322.567 667.606 317.914 660.407 317.914C653.735 317.914 649.169 321.601 646.184 327.219V359H641.005ZM757.147 340.213V314.753H762.239V340.125C762.239 353.294 754.689 360.756 743.364 360.756C731.951 360.756 724.313 353.294 724.313 340.125V314.753H729.493V340.213C729.493 350.221 735.024 355.84 743.364 355.84C751.529 355.84 757.147 350.221 757.147 340.213ZM778.608 359V314.753H783.787V320.811C787.65 315.982 792.654 312.997 799.59 312.997C809.686 312.997 816.973 319.669 816.973 331.872V359H811.793V332.048C811.793 322.918 806.613 317.914 798.887 317.914C791.864 317.914 787.211 321.513 783.787 327.219V359H778.608ZM845.068 360.229C836.464 360.229 830.758 355.576 830.758 348.289C830.758 341.617 835.85 337.052 845.156 335.472L860.958 332.838V328.712C860.958 321.601 855.954 317.738 849.018 317.738C843.312 317.738 838.659 320.284 835.674 324.498L831.724 321.425C835.499 316.246 841.556 312.997 849.194 312.997C859.378 312.997 866.05 318.967 866.05 328.712V359H860.958V352.591C857.183 357.595 851.213 360.229 845.068 360.229ZM836.025 348.202C836.025 352.503 839.713 355.752 845.682 355.752C852.091 355.752 857.622 352.679 860.958 346.973V336.877L846.297 339.335C839.274 340.564 836.025 343.812 836.025 348.202ZM914.383 340.213V314.753H919.475V340.125C919.475 353.294 911.925 360.756 900.6 360.756C889.187 360.756 881.549 353.294 881.549 340.125V314.753H886.729V340.213C886.729 350.221 892.26 355.84 900.6 355.84C908.765 355.84 914.383 350.221 914.383 340.213ZM938.298 345.041V319.406H929.957V314.753H938.298V303.691H943.565V314.753H960.158V319.406H943.565V345.041C943.565 353.118 947.691 355.049 953.661 355.049C956.47 355.049 958.402 354.698 960.158 354.084V358.824C958.139 359.527 955.944 359.878 953.134 359.878C944.092 359.878 938.298 355.84 938.298 345.041ZM991.962 307.73H986.87L996.088 293.156H1002.15L991.962 307.73ZM1009.96 351.713C1005.92 357.244 999.425 360.756 991.348 360.756C976.862 360.756 967.468 349.782 967.468 336.877C967.468 323.181 976.248 312.997 989.504 312.997C1001.36 312.997 1008.91 321.425 1008.91 331.872C1008.91 333.189 1008.82 334.506 1008.55 335.56H972.824C972.824 335.911 972.824 336.262 972.824 336.613C972.824 347.85 980.462 356.015 991.348 356.015C997.581 356.015 1002.76 353.118 1006.01 348.553L1009.96 351.713ZM989.416 317.562C981.164 317.562 975.018 322.742 973.35 331.433H1003.64C1003.38 323.708 998.02 317.562 989.416 317.562ZM1025.34 359.966C1022.79 359.966 1020.95 358.122 1020.95 355.664C1020.95 353.206 1022.79 351.362 1025.34 351.362C1027.8 351.362 1029.73 353.206 1029.73 355.664C1029.73 358.122 1027.8 359.966 1025.34 359.966Z" fill="#000091"/>
<defs>
<clipPath id="clip0_208_44091">
<rect width="589.633" height="174.12" fill="white" transform="translate(717.356 0.440063)"/>
</clipPath>
</defs>
</svg>
