<svg xmlns="http://www.w3.org/2000/svg" width="1480" height="381" fill="none" viewBox="0 0 1480 381"><path fill="#3558a2" d="M275.332 231.913c1.716 2.065 3.869 3.694 6.328 4.887s5.061 1.819 7.68 2.008c6.109.232 12.073.174 18.183-.175 10.778-.582 21.543-1.295 32.467-1.862 10.197-.582 20.38-.873 30.417-1.309 2.036.029 3.941-.524 5.832-.64 3.055-.247 5.077 1.091 5.615 3.869.538 2.633-.945 5.077-3.869 5.906-1.018.276-2.037.407-3.069.538-13.688.684-27.362 1.208-41.195 2.037-11.216.567-22.431 1.571-33.631 1.992-4.801.219-9.455-.131-14.241-.785-7.55-.975-14.474-5.004-19.041-11.041-1.571-2.065-3.026-2.371-5.368-1.527-14.022 4.16-28.191 8.19-42.213 12.35-3.36 1.12-6.997 1.353-10.488.873-10.895-1.615-21.776-2.779-32.525-4.248l-80.892-10.313c-15.39-1.964-30.926-3.928-46.33-5.891-12.205-1.484-24.394-3.113-36.453-4.742-1.6-.32-3.04-.626-4.64-1.091-4.204-1.222-5.063-2.11-5.44-6.619a215 215 0 0 1-.684-13.834C1.135 185.99.495 169.553 0 153.247c.03-2.037.204-4.219.815-6.241.625-3.04 2.4-4.625 5.614-5.891 3.942-1.396 8.03-2.502 12.263-3.025a4756 4756 0 0 1 62.985-10.023c12.685-2.007 25.369-3.855 37.908-5.862 1.745-.262 3.36-1.265 5.12-1.673a16.8 16.8 0 0 1 5.397-.8c12.059.902 24.263 2.095 36.322 3.127l39.522 3.477 54.927 5.004 48.963 4.335c3.345.334 6.822.683 10.313 1.018 2.473.174 4.349 1.076 5.033 3.709.698 2.342-.058 3.782-2.706 5.775-.582.276-1.032.858-1.323 1.44-1.804 4.48-4.204 8.815-4.277 13.906s-.727 10.459-.654 15.841c.32 7.855 2.109 15.448 5.498 22.634.276 1.018.844 1.906 1.556 2.648.713.741 1.586 1.338 2.735 1.643 1.877.611 3.608 1.659 5.048 2.837 3.316 2.516 3.098 7.026-.844 8.567-4.975 1.964-10.226 3.492-15.492 5.019-11.971 3.462-23.812 6.938-35.784 10.255-.872.276-1.76.698-3.36 1.266l-.291-.291zM8.801 151.617l-.073 5.237c.77 17.761 1.382 35.667 2.007 53.414.102 3.054.248 3.345 3.288 3.68l30.634 3.927 51.407 6.692 46.766 5.906 57.792 7.36 3.491.043.03-2.327c-1.048-18.342-2.095-36.685-3.302-54.897-.35-5.673.8-5.368-6.168-6.197-15.826-1.964-31.667-3.797-47.639-5.76-25.994-3.273-51.843-6.415-77.837-9.688l-55.043-6.895a304 304 0 0 0-5.819-.524h.436zm31.521-7.273v.728c1.44.305 3.04.625 4.495.785 22.794 2.793 45.603 5.586 68.397 8.393 25.994 3.273 52.134 6.561 78.128 9.834 5.367.654 10.895.596 15.957 2.996.873.16 1.746.029 2.618-.102 4.379-1.105 8.757-2.196 12.99-3.302 22.052-5.949 44.104-11.738 66.157-17.688 1.163-.276 2.342-.844 3.505-1.12-2.312-.902-4.64-1.382-7.113-1.411-9.731-.858-19.463-1.731-29.209-2.589-26.591-2.415-53.181-4.829-79.626-7.244-12.059-1.047-24.263-2.24-36.322-3.273a39.4 39.4 0 0 0-8.292-.116c-12.975 1.847-25.805 4-38.78 5.993l-39.944 6.124c-4.378.669-8.742 1.469-13.12 2.138l.145-.146zm269.194 6.444c-1.164.131-2.037.262-2.779.539-24.685 6.633-49.5 13.266-74.186 19.753-4.087 1.106-7.025 2.662-7.665 7.026l-.03 1.6c3.477 1.353 6.939 2.72 10.561 3.928 8.975 3.185 16.888 8.975 22.459 16.757a119 119 0 0 1 10.779 19.361c.422.873.989 1.76 1.557 3.084l46.301-13.455c-10.357-18.765-11.099-38.271-7.026-58.578zm-89.867 37.995c-.451.727-.757 1.586-1.048 2.313-1.978 6.371-2.807 13.193-2.167 19.899.611 7.724 2.546 15.026 7.259 21.339 1.571 2.066 3.156 2.953 6.08 2.124 9.208-2.923 18.401-5.411 27.609-8.044a16 16 0 0 0 2.342-1.134c-2.488-9.339-7.608-17.718-14.648-24.06-7.041-6.502-15.856-10.851-25.282-12.437z"/><path fill="#3558a2" d="M34.91 166.963c18.736 2.298 37.472 4.611 56.207 6.909 16.845 1.979 33.544 3.972 50.243 6.095 11.331 1.324 22.503 2.793 33.834 4.263.873 0 1.601.029 2.328.32 1.309.305 2.313 1.047 3.026 2.08.712 1.032.989 2.342.814 3.651 0 .582-.305 1.163-.611 1.731a3.66 3.66 0 0 1-1.178 1.294c-.437.437-1.033.568-1.615.699-.581.13-1.163.13-1.745-.03-4.509-.349-8.859-1.003-13.368-1.498-24.54-2.967-49.094-5.935-73.488-8.902-18.881-2.298-37.762-4.611-56.643-7.055-1.31-.015-2.619-.48-3.768-.931-1.018-.451-1.73-1.193-2.153-2.211-.422-1.018-.552-2.051-.392-3.055 0-1.018.61-1.876 1.352-2.604.742-.567 1.76-.989 2.779-.974l4.364.058v.145zM35.115 193.308l55.77 6.894c16.554 1.979 33.253 3.957 49.967 5.95 10.604 1.309 21.353 2.487 31.812 3.796 1.164.015 2.328.32 3.477.771a5.15 5.15 0 0 1 2.444 2.211c.567 1.019.843 2.197.538 3.215 0 .582-.16 1.164-.466 1.6-.305.437-.596.858-1.032 1.295s-1.033.567-1.47.712c-.581.131-1.164.131-1.745.117-3.782-.204-7.55-.684-11.477-1.178-24.685-2.968-49.239-5.935-73.924-8.903-18.59-2.298-37.18-4.596-55.77-6.749-2.473-.32-4.35-1.222-5.194-3.564-.276-.873-.407-1.746-.102-2.764.16-.873.757-1.731 1.484-2.312 1.63-1.571 3.651-1.251 5.688-1.077zM505.833 104.442q-3.442 0-6.312-1.033-2.639 1.261-3.787 3.213a7.84 7.84 0 0 0-1.033 3.902q0 2.295 2.296 3.558t5.852 2.065q3.673.804 7.804 1.722 4.131.803 7.689 2.295 3.672 1.377 5.968 3.787 2.295 2.525 2.295 6.656 0 4.59-2.869 8.951t-8.607 7.116q-5.624 2.869-14.345 2.869-10.214 0-15.149-3.328-4.82-3.329-4.82-8.378 0-3.672 1.148-5.738 1.032-2.066 3.557-4.59l9.181-5.165v-.229q-3.557-1.033-5.967-2.869-2.295-1.836-2.295-5.394 0-2.41.573-4.017.575-1.606 2.181-3.442l7.689-3.902v-.345a13.86 13.86 0 0 1-4.935-4.934q-1.722-3.214-1.721-7.23 0-4.821 2.754-9.525 2.87-4.82 7.689-8.034 4.935-3.213 11.246-3.213 3.099 0 6.427 1.148h17.329v5.05h-10.214l-.459.343q2.41 3.214 2.41 8.493 0 3.213-1.492 6.77-1.491 3.444-4.361 6.542-2.869 3.099-6.885 5.049-3.903 1.837-8.837 1.837m2.066-4.476q3.213 0 5.623-2.41 2.525-2.41 3.902-5.853 1.492-3.558 1.492-7 0-4.935-2.41-7.919-2.41-3.098-6.312-3.098-3.443 0-6.082 2.295-2.525 2.18-3.902 5.623a19 19 0 0 0-1.377 7.115q0 5.05 2.41 8.148 2.525 3.099 6.656 3.099m-18.477 36.609q0 4.245 3.558 6.771 3.672 2.639 9.755 2.639 7.918 0 11.705-3.558t3.787-8.492q0-3.213-1.951-5.164-1.836-1.837-4.934-2.869-3.099-1.034-6.771-1.722a102 102 0 0 1-7.001-1.377q-5.278 3.673-6.771 7.001-1.377 3.442-1.377 6.771m59.261-13.427q-4.246 0-7.001-3.328-2.639-3.328-2.639-9.067 0-1.147.115-2.295.229-1.148.344-2.295l5.164-28.805-8.951-4.017v-.688l18.362-3.443h.459l-5.968 35.117q-.459 2.87-.459 4.131 0 3.213 1.492 5.509 1.606 2.18 5.164 2.18 2.41 0 4.82-1.721 2.525-1.722 4.82-4.132a178 178 0 0 0 4.131-4.475l4.935-28.46-7.918-4.018v-.688l17.443-3.443h.459l-6.885 39.133q-.574 3.444-.23 4.935.459 1.492 2.181 1.492 1.95 0 4.246-2.066 2.295-2.18 4.361-6.541l1.492.689q-3.328 8.606-7.23 12.509-3.787 3.787-7.804 3.787t-5.509-3.099q-1.377-3.099-.573-8.263l.114-.688h-.344q-3.902 4.36-6.771 7T554.88 122q-2.64 1.148-6.197 1.148m61.909-68.283q-2.64 0-4.591-1.951-1.95-1.95-1.951-4.59 0-2.64 1.951-4.59 1.951-1.953 4.591-1.952 2.64 0 4.59 1.951 1.951 1.95 1.951 4.59t-1.951 4.591-4.59 1.951m-8.148 68.283q-4.017 0-5.509-3.099t-.574-8.263l6.083-34.543-9.984-3.902v-.688l19.853-3.443h.344l-7 39.133q-.573 3.444-.229 4.935.344 1.492 1.95 1.492 1.951 0 4.247-2.066 2.294-2.18 4.361-6.541l1.491.689q-3.327 8.606-7.23 12.509-3.786 3.787-7.803 3.787m32.372 0q-4.59 0-7.459-3.902-2.755-4.017-2.755-11.935 0-7.116 2.181-13.886 2.295-6.772 6.197-12.28 4.017-5.508 9.181-8.722t11.017-3.213q4.131 0 7.918 1.492l4.706-26.74-9.985-3.901v-.689l19.854-3.443h.344l-12.738 72.414q-.574 3.444-.23 4.935.345 1.492 1.951 1.492 1.951 0 4.246-2.066 2.296-2.18 4.361-6.541l1.492.689q-3.328 8.606-7.23 12.509-3.787 3.787-7.803 3.787-4.017 0-5.509-3.099t-.574-8.263l.574-2.983h-.459q-9.64 14.345-19.28 14.345m-1.492-20.313q0 7.23 1.607 9.984t5.279 2.754q3.328 0 7.459-3.328 4.132-3.442 7.804-9.066l4.131-23.526q-2.41-3.213-4.705-4.59-2.18-1.377-5.049-1.377-4.59 0-8.378 4.016-3.672 4.017-5.967 10.673-2.181 6.541-2.181 14.46m65.144 20.313q-8.837 0-12.968-4.82-4.131-4.935-4.131-13.313 0-6.77 2.18-13.082 2.295-6.427 6.197-11.476 4.017-5.165 9.181-8.148 5.28-3.099 11.361-3.099 5.739 0 8.607 2.64 2.985 2.64 2.984 6.197 0 3.9-2.754 7.23-2.754 3.212-9.64 5.967-6.77 2.64-19.165 4.705a49 49 0 0 0-.23 4.82q0 7 2.984 11.132t9.411 4.131q3.786 0 7.459-2.065t7.574-6.771h.23l1.147.918q-3.902 6.771-9.41 10.902-5.394 4.132-11.017 4.132m8.722-49.921q-6.198 0-10.558 5.164-4.247 5.05-5.738 13.427 8.607-1.493 13.427-3.213 4.82-1.722 6.771-4.017 1.95-2.41 1.951-5.968 0-2.295-1.492-3.787-1.492-1.606-4.361-1.606m33.207 49.921q-5.853 0-9.525-1.607-3.672-1.722-5.279-4.246-.688-1.033-.918-1.722a4.7 4.7 0 0 1-.23-1.491q0-.69.23-1.378.23-.803 1.147-1.262l2.525-1.377h.803l1.951 3.328q1.722 2.869 4.591 4.361 2.868 1.377 5.738 1.377 4.36 0 7.115-2.295 2.87-2.295 2.869-6.656 0-4.476-2.984-6.886-2.868-2.41-6.541-4.59-4.36-2.64-6.542-4.82-2.18-2.181-2.983-4.476-.804-2.295-.804-5.509 0-3.327 2.525-6.656 2.525-3.443 6.656-5.738t8.722-2.295q5.05 0 7.919 1.607 2.868 1.491 4.475 3.902 1.033 1.606 1.033 2.983 0 .803-.459 1.607a2.62 2.62 0 0 1-1.148 1.262l-2.18 1.148h-.803l-2.525-3.558q-1.606-2.295-3.672-3.442-1.952-1.263-4.935-1.263-3.329 0-5.738 2.066-2.295 1.95-2.295 5.164 0 3.672 2.18 6.082a23.4 23.4 0 0 0 5.279 4.132q4.131 2.41 6.771 4.59 2.754 2.181 4.131 4.935t1.377 7q0 4.017-2.41 7.689-2.41 3.558-6.656 5.853-4.131 2.181-9.41 2.181"/><g fill="#3558a2" clip-path="url(#a)"><path d="M771.991 125.151q-2.85 0-4.939-2.09t-2.09-4.938q0-2.944 2.09-5.034t4.939-2.089q2.848 0 4.938 2.089t2.09 5.034q0 2.85-2.09 4.938-2.09 2.09-4.938 2.09M841.947 54.49v70.186H830.36v-6.838c-5.129 5.698-10.258 8.073-17.381 8.073-15.006 0-26.402-11.967-26.402-27.638 0-15.766 11.586-28.112 26.402-28.112 6.554 0 12.632 2.47 16.336 6.553V54.49zm-27.258 27.258c-8.643 0-15.386 6.933-15.386 15.955 0 9.403 6.838 16.621 15.671 16.621 8.548 0 15.291-7.123 15.291-16.24 0-9.308-6.743-16.336-15.576-16.336M904.627 72.06v52.616H893.04v-6.838c-5.034 5.793-10.067 8.073-17.475 8.073-15.386 0-26.498-11.492-26.498-27.353 0-16.05 11.207-27.732 26.783-27.732 7.597 0 12.821 2.469 17.19 8.262V72.06zm-27.448 10.352c-9.022 0-15.386 6.839-15.386 16.431 0 9.213 6.364 15.481 15.576 15.481 4.844 0 8.928-1.615 11.492-4.749 2.279-2.659 3.799-7.028 3.799-10.827 0-9.592-6.458-16.336-15.481-16.336M916.571 124.676V83.552h-6.174V72.06h6.174V54.49h12.631v17.57h7.598v11.492h-7.598v41.124zM994.734 72.06v52.616h-11.587v-6.838c-5.034 5.793-10.067 8.073-17.475 8.073-15.386 0-26.498-11.492-26.498-27.353 0-16.05 11.207-27.732 26.782-27.732 7.598 0 12.822 2.469 17.191 8.262V72.06zm-27.448 10.352c-9.022 0-15.386 6.839-15.386 16.431 0 9.213 6.364 15.481 15.576 15.481 4.844 0 8.928-1.615 11.492-4.749 2.279-2.659 3.799-7.028 3.799-10.827 0-9.592-6.458-16.336-15.481-16.336M1010.8 125.151c-1.9 0-3.55-.697-4.94-2.09s-2.09-3.039-2.09-4.938c0-1.963.7-3.641 2.09-5.034s3.04-2.089 4.94-2.089 3.54.696 4.94 2.089c1.39 1.393 2.09 3.071 2.09 5.034 0 1.899-.7 3.546-2.09 4.938-1.4 1.393-3.04 2.09-4.94 2.09M1068.5 72.06h12.07v42.644c0 10.067-1.62 16.525-5.32 21.369-4.94 6.268-12.44 9.592-21.94 9.592-12.92 0-22.8-6.173-27.07-16.715h14.34c3.71 4.084 7.31 5.603 13.2 5.603 9.41 0 14.25-5.508 14.72-16.81-4.94 5.793-9.87 8.168-17.28 8.168-15.01 0-25.83-11.682-25.83-27.923 0-15.576 11.01-27.162 25.92-27.162 7.6 0 13.2 2.564 17.19 7.882zm-15.76 10.352c-8.83 0-14.63 6.459-14.63 16.146 0 9.592 5.8 15.766 14.82 15.766 9.12 0 15-6.268 15-15.766 0-9.687-6.17-16.146-15.19-16.146M1115.42 70.826c15.87 0 28.12 12.251 28.12 27.922 0 14.816-12.73 27.163-28.02 27.163-15.39 0-27.92-12.347-27.92-27.543 0-15.1 12.53-27.542 27.82-27.542m.1 11.586c-8.36 0-15.2 7.123-15.2 15.766 0 9.023 6.75 16.146 15.29 16.146 8.36 0 15.2-7.123 15.2-15.956s-6.84-15.956-15.29-15.956M1196.5 72.06v52.616h-11.68v-5.034c-4.85 4.654-8.74 6.269-15.1 6.269-6.94 0-12.54-2.755-16.05-7.788-2.95-4.274-3.99-8.928-3.99-17.855V72.06h12.63v25.738c0 7.123.76 10.922 2.56 13.202 1.71 2.279 4.18 3.324 7.41 3.324 4.27 0 7.79-1.71 9.59-4.844 1.52-2.279 2-5.603 2-12.632V72.06zM1221.54 124.676l-21.18-52.616h14.06l12.16 34.856 11.96-34.856h14.25l-21.18 52.616zM1266.65 125.151c-1.9 0-3.55-.697-4.94-2.09s-2.09-3.039-2.09-4.938c0-1.963.7-3.641 2.09-5.034s3.04-2.089 4.94-2.089 3.54.696 4.94 2.089c1.39 1.393 2.09 3.071 2.09 5.034 0 1.899-.7 3.546-2.09 4.938-1.4 1.393-3.04 2.09-4.94 2.09"/><path d="M1268.6 152.219c-1.76 0-3.14-.421-4.13-1.263-1-.765-1.49-1.645-1.49-2.639 0-.689.23-1.492.68-2.41l1.61-3.443h.69l2.18 1.262q1.725 1.033 4.71 1.033c3.44 0 6.12-1.683 8.03-5.049 1.99-3.367 3.4-7.728 4.24-13.083l7.12-48.544h-9.07v-5.05h9.76l.69-4.59c.23-1.53.92-3.52 2.06-5.967q1.725-3.672 4.59-7.69a58 58 0 0 1 6.54-7.803q3.795-3.672 8.04-5.968c2.91-1.606 5.89-2.41 8.95-2.41.69 0 1.41.115 2.18.345.76.153 1.38.344 1.84.574.99.535 1.68 1.032 2.06 1.491.38.383.58.842.58 1.378 0 .306-.12.726-.35 1.262q-.225.689-.57 1.262l-1.84 3.443h-.8l-2.64-1.262c-1.91-.842-4.21-1.263-6.89-1.263-3.98 0-7.15 1.684-9.52 5.05q-3.555 5.05-4.71 12.968l-1.37 9.18h12.96v5.05h-13.65l-6.54 44.183c-.23 1.454-.85 3.405-1.84 5.853-1 2.525-2.33 5.164-4.02 7.918a50 50 0 0 1-5.62 7.804c-2.07 2.448-4.32 4.438-6.77 5.968-2.45 1.606-5.01 2.41-7.69 2.41"/><path d="m1316.72 124.676 7.92-44.642-8.95-4.017v-.688l16.18-3.443h.35v14.116h.45c2.45-4.514 4.52-7.728 6.2-9.64q2.64-2.984 4.59-3.673c1.38-.535 2.6-.803 3.67-.803 1.38 0 2.64.46 3.79 1.377 1.15.842 1.72 1.836 1.72 2.984 0 .382-.11.803-.34 1.262l-2.87 5.853h-.69l-1.26-.918q-.915-.688-2.07-.918a6.5 6.5 0 0 0-2.06-.344c-1.38 0-2.64.306-3.79.918-1.07.535-2.3 1.721-3.67 3.557-1.3 1.76-2.99 4.438-5.05 8.034l-5.4 30.985z"/></g><path fill="#3558a2" d="m484.948 262 25.372-61.454h7.637L543.241 262h-5.969l-7.902-19.314h-30.463L491.005 262zm15.978-24.318h26.425l-13.169-32.483zm54.8 45.915v-65.844h5.18v6.321c4.126-5.18 10.008-8.077 16.944-8.077 13.783 0 22.913 10.974 22.913 23.88s-9.13 23.879-22.913 23.879c-6.936 0-12.818-2.897-16.944-8.077v27.918zm21.685-62.683c-6.76 0-12.906 3.248-16.505 9.13v19.665c3.775 5.97 9.833 9.131 16.505 9.131 10.535 0 17.821-8.516 17.821-18.963s-7.286-18.963-17.821-18.963m36.529 62.683v-65.844h5.179v6.321c4.126-5.18 10.008-8.077 16.944-8.077 13.783 0 22.914 10.974 22.914 23.88s-9.131 23.879-22.914 23.879c-6.936 0-12.818-2.897-16.944-8.077v27.918zm21.684-62.683c-6.76 0-12.905 3.248-16.505 9.13v19.665c3.775 5.97 9.833 9.131 16.505 9.131 10.535 0 17.822-8.516 17.822-18.963s-7.287-18.963-17.822-18.963M672.153 262v-44.247h5.18v6.321c3.599-4.565 7.725-7.199 13.695-7.199 1.229 0 2.546.176 3.687.527v5.004c-1.317-.351-2.458-.615-4.038-.615-6.058 0-10.008 2.985-13.344 8.516V262zm69.572-7.287c-4.039 5.531-10.535 9.043-18.612 9.043-14.486 0-23.879-10.974-23.879-23.879 0-13.696 8.779-23.88 22.035-23.88 11.852 0 19.402 8.428 19.402 18.875 0 1.317-.087 2.634-.351 3.688h-35.731v1.053c0 11.237 7.638 19.402 18.524 19.402 6.233 0 11.413-2.897 14.661-7.462zm-20.543-34.151c-8.253 0-14.398 5.18-16.066 13.871h30.288c-.263-7.725-5.619-13.871-14.222-13.871M754.543 262v-44.247h5.18v6.058c3.863-4.829 8.867-7.814 15.802-7.814 10.096 0 17.383 6.672 17.383 18.875V262h-5.18v-26.952c0-9.13-5.179-14.134-12.905-14.134-7.023 0-11.676 3.599-15.1 9.305V262zm93.149-7.287c-4.038 5.531-10.535 9.043-18.612 9.043-14.485 0-23.879-10.974-23.879-23.879 0-13.696 8.779-23.88 22.036-23.88 11.851 0 19.401 8.428 19.401 18.875 0 1.317-.087 2.634-.351 3.688h-35.731v1.053c0 11.237 7.638 19.402 18.524 19.402 6.233 0 11.413-2.897 14.661-7.462zm-20.543-34.151c-8.253 0-14.398 5.18-16.066 13.871h30.288c-.263-7.725-5.619-13.871-14.222-13.871M855.598 262v-4.653l28.269-34.941h-27.654v-4.653h33.711v4.653l-28.268 34.941h28.883V262zm84.439-51.27-10.096-14.574h6.058l9.218 14.574zm-1.493 52.499c-8.603 0-14.31-4.653-14.31-11.94 0-6.672 5.092-11.237 14.398-12.817l15.803-2.634v-4.126c0-7.111-5.004-10.974-11.94-10.974-5.706 0-10.359 2.546-13.344 6.76l-3.951-3.073c3.775-5.179 9.833-8.428 17.471-8.428 10.183 0 16.856 5.97 16.856 15.715V262h-5.092v-6.409c-3.775 5.004-9.745 7.638-15.891 7.638m-9.042-12.027c0 4.301 3.687 7.55 9.657 7.55 6.409 0 11.94-3.073 15.276-8.779v-10.096l-14.661 2.458c-7.024 1.229-10.272 4.477-10.272 8.867m102.018-7.989v-25.46h5.09v25.372c0 13.169-7.55 20.631-18.87 20.631-11.41 0-19.051-7.462-19.051-20.631v-25.372h5.181v25.46c0 10.008 5.53 15.627 13.87 15.627 8.16 0 13.78-5.619 13.78-15.627m23.92 4.828v-25.635h-8.34v-4.653h8.34v-11.062h5.26v11.062h16.6v4.653h-16.6v25.635c0 8.077 4.13 10.008 10.1 10.008 2.81 0 4.74-.351 6.5-.965v4.74c-2.02.703-4.22 1.054-7.03 1.054-9.04 0-14.83-4.038-14.83-14.837m36.78-44.247c-2.19 0-4.03-1.668-4.03-3.95 0-2.107 1.84-3.863 4.03-3.863 2.2 0 3.96 1.756 3.96 3.863 0 2.282-1.76 3.95-3.96 3.95M1089.59 262v-44.247h5.18V262zm22.55 0v-65.844h5.18V262zm25.18-58.206c-2.19 0-4.04-1.668-4.04-3.95 0-2.107 1.85-3.863 4.04-3.863 2.2 0 3.95 1.756 3.95 3.863 0 2.282-1.75 3.95-3.95 3.95M1134.69 262v-44.247h5.18V262zm17.11-5.794 3.86-3.161c3.34 4.214 7.2 6.233 11.94 6.233 5.79 0 9.13-3.687 9.13-8.252 0-11.237-22.74-7.462-22.74-23.089 0-6.409 5.44-11.94 13.61-11.94 5.97 0 10.97 2.897 14.05 7.111l-3.87 3.073c-2.46-3.687-6.06-5.706-10.09-5.706-5.53 0-8.61 3.423-8.61 7.462 0 11.501 22.74 7.989 22.74 22.913 0 7.638-6.06 12.906-14.13 12.906-6.59 0-12.03-2.634-15.89-7.55m81.09-1.493c-4.03 5.531-10.53 9.043-18.61 9.043-14.48 0-23.88-10.974-23.88-23.879 0-13.696 8.78-23.88 22.04-23.88 11.85 0 19.4 8.428 19.4 18.875 0 1.317-.09 2.634-.35 3.688h-35.73v1.053c0 11.237 7.64 19.402 18.52 19.402 6.24 0 11.42-2.897 14.66-7.462zm-20.54-34.151c-8.25 0-14.4 5.18-16.06 13.871h30.28c-.26-7.725-5.62-13.871-14.22-13.871M1245.71 262v-44.247h5.18v6.321c3.6-4.565 7.73-7.199 13.7-7.199 1.23 0 2.54.176 3.68.527v5.004c-1.31-.351-2.45-.615-4.03-.615-6.06 0-10.01 2.985-13.35 8.516V262zm57.96 0v-65.844h5.18V262zm34.22 1.229c-8.6 0-14.31-4.653-14.31-11.94 0-6.672 5.09-11.237 14.4-12.817l15.8-2.634v-4.126c0-7.111-5-10.974-11.94-10.974-5.7 0-10.36 2.546-13.34 6.76l-3.95-3.073c3.77-5.179 9.83-8.428 17.47-8.428 10.18 0 16.86 5.97 16.86 15.715V262h-5.1v-6.409c-3.77 5.004-9.74 7.638-15.89 7.638m-9.04-12.027c0 4.301 3.69 7.55 9.66 7.55 6.41 0 11.94-3.073 15.27-8.779v-10.096l-14.66 2.458c-7.02 1.229-10.27 4.477-10.27 8.867M490.654 380.597v-65.844h5.18v6.321c4.126-5.18 10.008-8.077 16.944-8.077 13.783 0 22.913 10.974 22.913 23.88s-9.13 23.879-22.913 23.879c-6.936 0-12.818-2.897-16.944-8.077v27.918zm21.685-62.683c-6.76 0-12.906 3.248-16.505 9.13v19.665c3.775 5.97 9.833 9.131 16.505 9.131 10.535 0 17.821-8.516 17.821-18.963s-7.286-18.963-17.821-18.963M548.868 359v-65.844h5.179V359zm34.224 1.229c-8.604 0-14.31-4.653-14.31-11.94 0-6.672 5.092-11.237 14.398-12.817l15.802-2.634v-4.126c0-7.111-5.004-10.974-11.94-10.974-5.706 0-10.359 2.546-13.344 6.76l-3.95-3.073c3.775-5.179 9.832-8.428 17.47-8.428 10.184 0 16.856 5.97 16.856 15.715V359h-5.092v-6.409c-3.775 5.004-9.745 7.638-15.89 7.638m-9.043-12.027c0 4.301 3.688 7.55 9.657 7.55 6.409 0 11.94-3.073 15.276-8.779v-10.096l-14.661 2.458c-7.023 1.229-10.272 4.477-10.272 8.867m48.86-3.161v-25.635h-8.34v-4.653h8.34v-11.062h5.268v11.062h16.592v4.653h-16.592v25.635c0 8.077 4.126 10.008 10.096 10.008 2.809 0 4.741-.351 6.496-.965v4.74c-2.019.703-4.214 1.054-7.023 1.054-9.042 0-14.837-4.038-14.837-14.837m71.662 6.672c-4.038 5.531-10.535 9.043-18.612 9.043-14.485 0-23.879-10.974-23.879-23.879 0-13.696 8.779-23.88 22.036-23.88 11.852 0 19.402 8.428 19.402 18.875 0 1.317-.088 2.634-.351 3.688h-35.732v1.053c0 11.237 7.638 19.402 18.524 19.402 6.234 0 11.413-2.897 14.662-7.462zm-20.543-34.151c-8.252 0-14.398 5.18-16.066 13.871h30.288c-.263-7.725-5.618-13.871-14.222-13.871m27.304-2.809h8.34v-5.882c0-9.481 5.97-15.715 14.749-15.715 4.038 0 7.287 1.229 9.394 2.546l-2.283 4.39c-1.931-1.405-4.126-2.195-6.935-2.195-5.707 0-9.657 3.951-9.657 10.886v5.97h16.592v4.653H714.94V359h-5.268v-39.594h-8.34zm56.756-1.756c14.223 0 23.792 11.238 23.792 23.88s-9.569 23.879-23.792 23.879c-14.134 0-23.703-11.237-23.703-23.879s9.569-23.88 23.703-23.88m.088 42.843c10.447 0 18.173-8.955 18.173-18.963 0-10.184-7.726-18.963-18.173-18.963-10.798 0-18.436 8.867-18.436 18.963s7.638 18.963 18.436 18.963M795.01 359v-44.247h5.179v6.321c3.6-4.565 7.726-7.199 13.696-7.199 1.229 0 2.546.176 3.687.527v5.004c-1.317-.351-2.458-.615-4.038-.615-6.058 0-10.009 2.985-13.345 8.516V359zm34.293 0v-44.247h5.18v5.882c3.599-4.653 8.428-7.638 14.924-7.638 6.848 0 12.379 3.249 14.925 9.482 3.775-5.794 8.779-9.482 16.417-9.482 9.657 0 16.505 6.321 16.505 17.998V359h-5.092v-27.83c0-8.603-4.917-13.256-12.115-13.256-6.146 0-10.711 3.072-14.398 9.481a24 24 0 0 1 .263 3.6V359h-5.18v-27.83c0-8.603-4.828-13.256-12.027-13.256-6.672 0-11.237 3.687-14.222 9.305V359zm122.727-7.287c-4.038 5.531-10.535 9.043-18.612 9.043-14.485 0-23.879-10.974-23.879-23.879 0-13.696 8.779-23.88 22.036-23.88 11.852 0 19.402 8.428 19.402 18.875 0 1.317-.088 2.634-.352 3.688h-35.731v1.053c0 11.237 7.638 19.402 18.524 19.402 6.233 0 11.413-2.897 14.661-7.462zm-20.543-34.151c-8.253 0-14.398 5.18-16.066 13.871h30.288c-.263-7.725-5.619-13.871-14.222-13.871m35.924 42.404c-2.546 0-4.39-1.844-4.39-4.302s1.844-4.302 4.39-4.302c2.458 0 4.389 1.844 4.389 4.302s-1.931 4.302-4.389 4.302"/><defs><clipPath id="a"><path fill="#fff" d="M764.963.44h589.633v174.12H764.963z"/></clipPath></defs></svg>