<svg width="1480" height="381" viewBox="0 0 1480 381" fill="none" xmlns="http://www.w3.org/2000/svg">
<path d="M275.332 231.913C277.048 233.978 279.201 235.607 281.66 236.8C284.118 237.993 286.721 238.619 289.34 238.808C295.449 239.04 301.413 238.982 307.523 238.633C318.301 238.051 329.066 237.338 339.99 236.771C350.187 236.189 360.37 235.898 370.407 235.462C372.443 235.491 374.348 234.938 376.239 234.822C379.294 234.575 381.316 235.913 381.854 238.691C382.392 241.324 380.909 243.768 377.985 244.597C376.967 244.873 375.948 245.004 374.916 245.135C361.228 245.819 347.554 246.343 333.721 247.172C322.505 247.739 311.29 248.743 300.09 249.164C295.289 249.383 290.635 249.033 285.849 248.379C278.299 247.404 271.375 243.375 266.808 237.338C265.237 235.273 263.782 234.967 261.44 235.811C247.418 239.971 233.249 244.001 219.227 248.161C215.867 249.281 212.23 249.514 208.739 249.034C197.844 247.419 186.963 246.255 176.214 244.786L95.3218 234.473C79.9318 232.509 64.3963 230.545 48.9918 228.582C36.7874 227.098 24.5979 225.469 12.5391 223.84C10.939 223.52 9.49862 223.214 7.89853 222.749C3.69465 221.527 2.83644 220.639 2.45824 216.13C2.08003 211.621 1.86188 206.951 1.7746 202.296C1.13457 185.99 0.494573 169.553 0 153.247C0.0290926 151.21 0.203733 149.028 0.814677 147.006C1.44017 143.966 3.21461 142.381 6.42934 141.115C10.3714 139.719 14.4591 138.613 18.6921 138.09C39.6969 134.599 60.6869 131.267 81.6772 128.067C94.3615 126.06 107.046 124.212 119.585 122.205C121.33 121.943 122.945 120.94 124.705 120.532C126.465 119.98 128.211 119.703 130.102 119.732C142.161 120.634 154.365 121.827 166.424 122.859L205.946 126.336L260.873 131.34L309.836 135.675C313.181 136.009 316.658 136.358 320.149 136.693C322.622 136.867 324.498 137.769 325.182 140.402C325.88 142.744 325.124 144.184 322.476 146.177C321.894 146.453 321.444 147.035 321.153 147.617C319.349 152.097 316.949 156.432 316.876 161.523C316.803 166.615 316.149 171.982 316.222 177.364C316.542 185.219 318.331 192.812 321.72 199.998C321.996 201.016 322.564 201.904 323.276 202.646C323.989 203.387 324.862 203.984 326.011 204.289C327.888 204.9 329.619 205.948 331.059 207.126C334.375 209.642 334.157 214.152 330.215 215.693C325.24 217.657 319.989 219.185 314.723 220.712C302.752 224.174 290.911 227.65 278.939 230.967C278.067 231.243 277.179 231.665 275.579 232.233L275.288 231.942L275.332 231.913ZM8.80057 151.617L8.72777 156.854C9.49872 174.615 10.1098 192.521 10.7353 210.268C10.8372 213.322 10.9826 213.613 14.0228 213.948L44.657 217.875L96.0637 224.567L142.83 230.473L200.622 237.833L204.113 237.876L204.143 235.549C203.095 217.207 202.048 198.864 200.841 180.652C200.491 174.979 201.641 175.284 194.673 174.455C178.847 172.491 163.006 170.658 147.034 168.695C121.04 165.422 95.1909 162.28 69.1967 159.007L14.1535 152.112C12.4079 151.938 10.6624 151.777 8.33499 151.588H8.77145L8.80057 151.617ZM40.3222 144.344V145.072C41.7623 145.377 43.3625 145.697 44.8172 145.857C67.6112 148.65 90.4198 151.443 113.214 154.25C139.208 157.523 165.348 160.811 191.342 164.084C196.709 164.738 202.237 164.68 207.299 167.08C208.172 167.24 209.045 167.109 209.917 166.978C214.296 165.873 218.674 164.782 222.907 163.676C244.959 157.727 267.011 151.938 289.064 145.988C290.227 145.712 291.406 145.144 292.569 144.868C290.257 143.966 287.929 143.486 285.456 143.457C275.725 142.599 265.993 141.726 256.247 140.868C229.656 138.453 203.066 136.039 176.621 133.624C164.562 132.577 152.358 131.384 140.299 130.351C137.535 130.016 134.771 129.987 132.007 130.235C119.032 132.082 106.202 134.235 93.2272 136.228L53.2832 142.352C48.9048 143.021 44.5409 143.821 40.1624 144.49L40.3077 144.344H40.3222ZM309.516 150.788C308.352 150.919 307.479 151.05 306.737 151.327C282.052 157.96 257.237 164.593 232.551 171.08C228.464 172.186 225.526 173.742 224.886 178.106L224.856 179.706C228.333 181.059 231.795 182.426 235.417 183.634C244.392 186.819 252.305 192.609 257.876 200.391C262.008 206.413 265.702 213.017 268.655 219.752C269.077 220.625 269.644 221.512 270.212 222.836L316.513 209.381C306.156 190.616 305.414 171.11 309.487 150.803L309.516 150.788ZM219.649 188.783C219.198 189.51 218.892 190.369 218.601 191.096C216.623 197.467 215.794 204.289 216.434 210.995C217.045 218.719 218.98 226.021 223.693 232.334C225.264 234.4 226.849 235.287 229.773 234.458C238.981 231.535 248.174 229.047 257.382 226.414C258.109 226.138 258.996 225.716 259.724 225.28C257.236 215.941 252.116 207.562 245.076 201.22C238.035 194.718 229.22 190.369 219.794 188.783H219.649Z" fill="#000091"/>
<path d="M34.9102 166.963C53.6458 169.261 72.3816 171.574 91.1172 173.872C107.962 175.851 124.661 177.844 141.36 179.967C152.691 181.291 163.863 182.76 175.194 184.23C176.067 184.23 176.795 184.259 177.522 184.55C178.831 184.855 179.835 185.597 180.548 186.63C181.26 187.662 181.537 188.972 181.362 190.281C181.362 190.863 181.057 191.444 180.751 192.012C180.446 192.579 180.009 193.015 179.573 193.306C179.136 193.743 178.54 193.874 177.958 194.005C177.377 194.135 176.795 194.135 176.213 193.975C171.704 193.626 167.354 192.972 162.845 192.477C138.305 189.51 113.751 186.542 89.3568 183.575C70.4757 181.277 51.5947 178.964 32.7137 176.52C31.4045 176.505 30.0952 176.04 28.9461 175.589C27.9278 175.138 27.2151 174.396 26.7932 173.378C26.3714 172.36 26.2405 171.327 26.4005 170.323C26.4005 169.305 27.0117 168.447 27.7535 167.719C28.4954 167.152 29.5135 166.73 30.5317 166.745L34.8956 166.803V166.948L34.9102 166.963Z" fill="#000091"/>
<path d="M35.1149 193.308C53.705 195.606 72.2949 197.904 90.885 200.202C107.439 202.181 124.138 204.159 140.852 206.152C151.456 207.461 162.205 208.639 172.664 209.948C173.828 209.963 174.992 210.268 176.141 210.719C177.159 211.17 178.017 211.912 178.585 212.93C179.152 213.949 179.428 215.127 179.123 216.145C179.123 216.727 178.963 217.309 178.657 217.745C178.352 218.182 178.061 218.603 177.625 219.04C177.188 219.476 176.592 219.607 176.155 219.752C175.574 219.883 174.991 219.883 174.41 219.869C170.628 219.665 166.86 219.185 162.933 218.691C138.248 215.723 113.694 212.756 89.0085 209.788C70.4184 207.49 51.8285 205.192 33.2383 203.039C30.7655 202.719 28.8889 201.817 28.0452 199.475C27.7688 198.602 27.6378 197.729 27.9433 196.711C28.1033 195.838 28.6997 194.98 29.427 194.399C31.0562 192.828 33.0784 193.148 35.1149 193.322V193.308Z" fill="#000091"/>
<path d="M505.833 104.442C503.538 104.442 501.434 104.097 499.521 103.409C497.762 104.25 496.499 105.321 495.734 106.622C495.046 107.846 494.701 109.147 494.701 110.524C494.701 112.054 495.466 113.24 496.997 114.082C498.527 114.923 500.478 115.612 502.849 116.147C505.298 116.683 507.899 117.257 510.653 117.869C513.407 118.404 515.97 119.169 518.342 120.164C520.79 121.082 522.779 122.344 524.31 123.951C525.84 125.634 526.605 127.853 526.605 130.607C526.605 133.667 525.648 136.651 523.736 139.558C521.823 142.466 518.954 144.837 515.129 146.674C511.38 148.586 506.598 149.543 500.784 149.543C493.975 149.543 488.925 148.433 485.635 146.215C482.422 143.996 480.815 141.203 480.815 137.837C480.815 135.389 481.198 133.476 481.963 132.099C482.651 130.722 483.837 129.192 485.52 127.509L494.701 122.344V122.115C492.33 121.426 490.34 120.47 488.734 119.246C487.204 118.022 486.439 116.224 486.439 113.852C486.439 112.245 486.63 110.906 487.012 109.835C487.395 108.764 488.122 107.617 489.193 106.393L496.882 102.491V102.146C494.816 100.922 493.171 99.2774 491.947 97.2117C490.799 95.0695 490.226 92.6595 490.226 89.9817C490.226 86.7684 491.144 83.5934 492.98 80.4566C494.893 77.2433 497.456 74.5656 500.669 72.4234C503.959 70.2812 507.708 69.2101 511.915 69.2101C513.981 69.2101 516.123 69.5926 518.342 70.3577H535.671V75.4071H525.457L524.998 75.7514C526.605 77.8936 527.408 80.7244 527.408 84.2437C527.408 86.3859 526.911 88.6429 525.916 91.0146C524.922 93.3098 523.468 95.4903 521.555 97.556C519.643 99.6217 517.347 101.305 514.67 102.605C512.068 103.83 509.123 104.442 505.833 104.442ZM507.899 99.9659C510.041 99.9659 511.915 99.1626 513.522 97.556C515.205 95.9493 516.506 93.9984 517.424 91.7032C518.419 89.3314 518.916 86.998 518.916 84.7028C518.916 81.4129 518.113 78.7734 516.506 76.7843C514.899 74.7186 512.795 73.6857 510.194 73.6857C507.899 73.6857 505.871 74.4508 504.112 75.9809C502.429 77.4346 501.128 79.309 500.21 81.6042C499.292 83.8994 498.833 86.2711 498.833 88.7194C498.833 92.0857 499.636 94.8017 501.243 96.8674C502.926 98.9331 505.145 99.9659 507.899 99.9659ZM489.422 136.575C489.422 139.405 490.608 141.662 492.98 143.346C495.428 145.105 498.68 145.985 502.735 145.985C508.014 145.985 511.915 144.799 514.44 142.427C516.965 140.056 518.227 137.225 518.227 133.935C518.227 131.793 517.577 130.072 516.276 128.771C515.052 127.547 513.407 126.59 511.342 125.902C509.276 125.213 507.019 124.639 504.571 124.18C502.199 123.798 499.866 123.339 497.57 122.803C494.051 125.252 491.794 127.585 490.799 129.804C489.881 132.099 489.422 134.356 489.422 136.575ZM548.683 123.148C545.852 123.148 543.519 122.038 541.682 119.82C539.923 117.601 539.043 114.579 539.043 110.753C539.043 109.988 539.081 109.223 539.158 108.458C539.311 107.693 539.425 106.928 539.502 106.163L544.666 77.3581L535.715 73.3414V72.6529L554.077 69.2101H554.536L548.568 104.327C548.262 106.24 548.109 107.617 548.109 108.458C548.109 110.6 548.606 112.437 549.601 113.967C550.672 115.42 552.393 116.147 554.765 116.147C556.372 116.147 557.978 115.573 559.585 114.426C561.268 113.278 562.875 111.901 564.405 110.294C565.935 108.688 567.312 107.196 568.536 105.819L573.471 77.3581L565.553 73.3414V72.6529L582.996 69.2101H583.455L576.57 108.343C576.187 110.639 576.111 112.284 576.34 113.278C576.646 114.273 577.373 114.77 578.521 114.77C579.821 114.77 581.237 114.082 582.767 112.704C584.297 111.251 585.751 109.07 587.128 106.163L588.62 106.852C586.401 112.59 583.991 116.759 581.39 119.361C578.865 121.885 576.264 123.148 573.586 123.148C570.908 123.148 569.072 122.115 568.077 120.049C567.159 117.983 566.968 115.229 567.504 111.786L567.618 111.098H567.274C564.673 114.005 562.416 116.338 560.503 118.098C558.591 119.858 556.716 121.158 554.88 122C553.12 122.765 551.055 123.148 548.683 123.148ZM610.592 54.865C608.832 54.865 607.302 54.2146 606.001 52.914C604.701 51.6134 604.05 50.0833 604.05 48.3236C604.05 46.5639 604.701 45.0338 606.001 43.7332C607.302 42.4325 608.832 41.7822 610.592 41.7822C612.351 41.7822 613.882 42.4325 615.182 43.7332C616.483 45.0338 617.133 46.5639 617.133 48.3236C617.133 50.0833 616.483 51.6134 615.182 52.914C613.882 54.2146 612.351 54.865 610.592 54.865ZM602.444 123.148C599.766 123.148 597.93 122.115 596.935 120.049C595.941 117.983 595.749 115.229 596.361 111.786L602.444 77.2433L592.46 73.3414V72.6529L612.313 69.2101H612.657L605.657 108.343C605.275 110.639 605.198 112.284 605.428 113.278C605.657 114.273 606.307 114.77 607.378 114.77C608.679 114.77 610.094 114.082 611.625 112.704C613.155 111.251 614.608 109.07 615.986 106.163L617.477 106.852C615.259 112.59 612.849 116.759 610.247 119.361C607.723 121.885 605.122 123.148 602.444 123.148ZM634.816 123.148C631.756 123.148 629.269 121.847 627.357 119.246C625.521 116.568 624.602 112.59 624.602 107.311C624.602 102.567 625.329 97.9385 626.783 93.4246C628.313 88.9106 630.379 84.8175 632.98 81.1452C635.658 77.4728 638.718 74.5656 642.161 72.4234C645.604 70.2812 649.276 69.2101 653.178 69.2101C655.932 69.2101 658.572 69.7073 661.096 70.7019L665.802 43.9627L655.817 40.0608V39.3723L675.671 35.9294H676.015L663.277 108.343C662.894 110.639 662.818 112.284 663.047 113.278C663.277 114.273 663.927 114.77 664.998 114.77C666.299 114.77 667.714 114.082 669.244 112.704C670.775 111.251 672.228 109.07 673.605 106.163L675.097 106.852C672.878 112.59 670.469 116.759 667.867 119.361C665.343 121.885 662.741 123.148 660.064 123.148C657.386 123.148 655.55 122.115 654.555 120.049C653.56 117.983 653.369 115.229 653.981 111.786L654.555 108.803H654.096C647.669 118.366 641.243 123.148 634.816 123.148ZM633.324 102.835C633.324 107.655 633.86 110.983 634.931 112.819C636.002 114.655 637.762 115.573 640.21 115.573C642.429 115.573 644.915 114.464 647.669 112.245C650.424 109.95 653.025 106.928 655.473 103.179L659.604 79.6533C657.998 77.5111 656.429 75.9809 654.899 75.0628C653.446 74.1448 651.762 73.6857 649.85 73.6857C646.79 73.6857 643.997 75.0246 641.472 77.7023C639.024 80.3801 637.035 83.9377 635.505 88.3751C634.051 92.736 633.324 97.556 633.324 102.835ZM698.468 123.148C692.577 123.148 688.254 121.541 685.5 118.328C682.746 115.038 681.369 110.6 681.369 105.015C681.369 100.501 682.095 96.1406 683.549 91.9327C685.079 87.6483 687.145 83.8229 689.746 80.4566C692.424 77.0138 695.484 74.2978 698.927 72.3086C702.446 70.2429 706.234 69.2101 710.288 69.2101C714.114 69.2101 716.983 70.0899 718.895 71.8495C720.885 73.6092 721.879 75.6749 721.879 78.0466C721.879 80.6479 720.961 83.0578 719.125 85.2766C717.289 87.4188 714.075 89.4079 709.485 91.2441C704.971 93.0038 698.583 94.5722 690.32 95.9493C690.167 97.4794 690.09 99.0861 690.09 100.769C690.09 105.436 691.085 109.147 693.074 111.901C695.063 114.655 698.2 116.032 702.485 116.032C705.009 116.032 707.496 115.344 709.944 113.967C712.392 112.59 714.917 110.333 717.518 107.196H717.748L718.895 108.114C716.294 112.628 713.157 116.262 709.485 119.016C705.889 121.77 702.217 123.148 698.468 123.148ZM707.19 73.2267C703.058 73.2267 699.539 74.9481 696.632 78.3909C693.801 81.7572 691.888 86.2329 690.894 91.8179C696.632 90.8233 701.108 89.7522 704.321 88.6046C707.534 87.457 709.791 86.1181 711.092 84.588C712.392 82.9813 713.043 80.9922 713.043 78.6204C713.043 77.0903 712.545 75.8279 711.551 74.8333C710.556 73.7622 709.103 73.2267 707.19 73.2267ZM740.397 123.148C736.495 123.148 733.32 122.612 730.872 121.541C728.424 120.393 726.664 118.978 725.593 117.295C725.134 116.606 724.828 116.032 724.675 115.573C724.522 115.114 724.445 114.617 724.445 114.082C724.445 113.622 724.522 113.163 724.675 112.704C724.828 112.169 725.21 111.748 725.822 111.442L728.347 110.065H729.15L731.101 113.393C732.249 115.306 733.779 116.759 735.692 117.754C737.604 118.672 739.517 119.131 741.43 119.131C744.337 119.131 746.709 118.366 748.545 116.836C750.458 115.306 751.414 113.087 751.414 110.18C751.414 107.196 750.419 104.901 748.43 103.294C746.518 101.687 744.337 100.157 741.889 98.7036C738.982 96.9439 736.801 95.3372 735.347 93.8836C733.894 92.43 732.899 90.9381 732.364 89.4079C731.828 87.8778 731.56 86.0416 731.56 83.8994C731.56 81.6807 732.402 79.462 734.085 77.2433C735.768 74.9481 737.987 73.0354 740.741 71.5053C743.495 69.9751 746.403 69.2101 749.463 69.2101C752.829 69.2101 755.469 69.7456 757.382 70.8167C759.294 71.8113 760.786 73.1119 761.857 74.7186C762.546 75.7897 762.89 76.7843 762.89 77.7023C762.89 78.2379 762.737 78.7734 762.431 79.309C762.201 79.8445 761.819 80.2653 761.283 80.5714L759.103 81.719H758.3L755.775 78.1614C754.704 76.6312 753.48 75.4836 752.103 74.7186C750.802 73.877 749.157 73.4562 747.168 73.4562C744.949 73.4562 743.036 74.1448 741.43 75.5219C739.9 76.8225 739.135 78.5439 739.135 80.6861C739.135 83.1344 739.861 85.1618 741.315 86.7684C742.845 88.3751 744.605 89.7522 746.594 90.8998C749.348 92.5065 751.605 94.0366 753.365 95.4903C755.201 96.9439 756.578 98.5888 757.496 100.425C758.414 102.261 758.873 104.595 758.873 107.425C758.873 110.103 758.07 112.666 756.463 115.114C754.857 117.486 752.638 119.437 749.807 120.967C747.053 122.421 743.916 123.148 740.397 123.148Z" fill="#000091"/>
<g clip-path="url(#clip0_208_44101)">
<path d="M771.991 125.151C770.091 125.151 768.445 124.454 767.052 123.061C765.659 121.669 764.962 120.022 764.962 118.123C764.962 116.16 765.659 114.482 767.052 113.089C768.445 111.696 770.091 111 771.991 111C773.89 111 775.536 111.696 776.929 113.089C778.322 114.482 779.019 116.16 779.019 118.123C779.019 120.022 778.322 121.669 776.929 123.061C775.536 124.454 773.89 125.151 771.991 125.151Z" fill="#000091"/>
<path d="M841.947 54.4899V124.676H830.36V117.838C825.231 123.536 820.102 125.911 812.979 125.911C797.973 125.911 786.577 113.944 786.577 98.2732C786.577 82.5074 798.163 70.1607 812.979 70.1607C819.533 70.1607 825.611 72.6301 829.315 76.714V54.4899H841.947ZM814.689 81.7476C806.046 81.7476 799.303 88.6807 799.303 97.7033C799.303 107.106 806.141 114.324 814.974 114.324C823.522 114.324 830.265 107.201 830.265 98.0832C830.265 88.7757 823.522 81.7476 814.689 81.7476Z" fill="#000091"/>
<path d="M904.627 72.0602V124.676H893.04V117.838C888.006 123.631 882.973 125.911 875.565 125.911C860.179 125.911 849.067 114.419 849.067 98.5581C849.067 82.5074 860.274 70.8255 875.85 70.8255C883.447 70.8255 888.671 73.2949 893.04 79.0883V72.0602H904.627ZM877.179 82.4124C868.157 82.4124 861.793 89.2506 861.793 98.843C861.793 108.056 868.157 114.324 877.369 114.324C882.213 114.324 886.297 112.709 888.861 109.575C891.14 106.916 892.66 102.547 892.66 98.748C892.66 89.1556 886.202 82.4124 877.179 82.4124Z" fill="#000091"/>
<path d="M916.571 124.676V83.5521H910.397V72.0602H916.571V54.4899H929.202V72.0602H936.8V83.5521H929.202V124.676H916.571Z" fill="#000091"/>
<path d="M994.734 72.0602V124.676H983.147V117.838C978.113 123.631 973.08 125.911 965.672 125.911C950.286 125.911 939.174 114.419 939.174 98.5581C939.174 82.5074 950.381 70.8255 965.956 70.8255C973.554 70.8255 978.778 73.2949 983.147 79.0883V72.0602H994.734ZM967.286 82.4124C958.264 82.4124 951.9 89.2506 951.9 98.843C951.9 108.056 958.264 114.324 967.476 114.324C972.32 114.324 976.404 112.709 978.968 109.575C981.247 106.916 982.767 102.547 982.767 98.748C982.767 89.1556 976.309 82.4124 967.286 82.4124Z" fill="#000091"/>
<path d="M1010.8 125.151C1008.9 125.151 1007.25 124.454 1005.86 123.061C1004.47 121.669 1003.77 120.022 1003.77 118.123C1003.77 116.16 1004.47 114.482 1005.86 113.089C1007.25 111.696 1008.9 111 1010.8 111C1012.7 111 1014.34 111.696 1015.74 113.089C1017.13 114.482 1017.83 116.16 1017.83 118.123C1017.83 120.022 1017.13 121.669 1015.74 123.061C1014.34 124.454 1012.7 125.151 1010.8 125.151Z" fill="#000091"/>
<path d="M1068.5 72.0602H1080.57V114.704C1080.57 124.771 1078.95 131.229 1075.25 136.073C1070.31 142.341 1062.81 145.665 1053.31 145.665C1040.39 145.665 1030.51 139.492 1026.24 128.95H1040.58C1044.29 133.034 1047.89 134.553 1053.78 134.553C1063.19 134.553 1068.03 129.045 1068.5 117.743C1063.56 123.536 1058.63 125.911 1051.22 125.911C1036.21 125.911 1025.39 114.229 1025.39 97.9882C1025.39 82.4124 1036.4 70.8255 1051.31 70.8255C1058.91 70.8255 1064.51 73.3899 1068.5 78.7084V72.0602ZM1052.74 82.4124C1043.91 82.4124 1038.11 88.8707 1038.11 98.5581C1038.11 108.15 1043.91 114.324 1052.93 114.324C1062.05 114.324 1067.93 108.056 1067.93 98.5581C1067.93 88.8707 1061.76 82.4124 1052.74 82.4124Z" fill="#000091"/>
<path d="M1115.42 70.8255C1131.29 70.8255 1143.54 83.0772 1143.54 98.748C1143.54 113.564 1130.81 125.911 1115.52 125.911C1100.13 125.911 1087.6 113.564 1087.6 98.3681C1087.6 83.2672 1100.13 70.8255 1115.42 70.8255ZM1115.52 82.4124C1107.16 82.4124 1100.32 89.5355 1100.32 98.1782C1100.32 107.201 1107.07 114.324 1115.61 114.324C1123.97 114.324 1130.81 107.201 1130.81 98.3681C1130.81 89.5355 1123.97 82.4124 1115.52 82.4124Z" fill="#000091"/>
<path d="M1196.5 72.0602V124.676H1184.82V119.642C1179.97 124.296 1176.08 125.911 1169.72 125.911C1162.78 125.911 1157.18 123.156 1153.67 118.123C1150.72 113.849 1149.68 109.195 1149.68 100.268V72.0602H1162.31V97.7983C1162.31 104.921 1163.07 108.72 1164.87 111C1166.58 113.279 1169.05 114.324 1172.28 114.324C1176.55 114.324 1180.07 112.614 1181.87 109.48C1183.39 107.201 1183.87 103.877 1183.87 96.8485V72.0602H1196.5Z" fill="#000091"/>
<path d="M1221.54 124.676L1200.36 72.0602H1214.42L1226.58 106.916L1238.54 72.0602H1252.79L1231.61 124.676H1221.54Z" fill="#000091"/>
<path d="M1266.65 125.151C1264.75 125.151 1263.1 124.454 1261.71 123.061C1260.32 121.669 1259.62 120.022 1259.62 118.123C1259.62 116.16 1260.32 114.482 1261.71 113.089C1263.1 111.696 1264.75 111 1266.65 111C1268.55 111 1270.19 111.696 1271.59 113.089C1272.98 114.482 1273.68 116.16 1273.68 118.123C1273.68 120.022 1272.98 121.669 1271.59 123.061C1270.19 124.454 1268.55 125.151 1266.65 125.151Z" fill="#000091"/>
<path d="M1268.6 152.219C1266.84 152.219 1265.46 151.798 1264.47 150.956C1263.47 150.191 1262.98 149.311 1262.98 148.317C1262.98 147.628 1263.21 146.825 1263.66 145.907L1265.27 142.464H1265.96L1268.14 143.726C1269.29 144.415 1270.86 144.759 1272.85 144.759C1276.29 144.759 1278.97 143.076 1280.88 139.71C1282.87 136.343 1284.28 131.982 1285.12 126.627L1292.24 78.0832H1283.17V73.0337H1292.93L1293.62 68.4433C1293.85 66.9131 1294.54 64.9239 1295.68 62.4757C1296.83 60.0275 1298.36 57.4645 1300.27 54.7867C1302.19 52.0325 1304.37 49.4312 1306.81 46.983C1309.34 44.5348 1312.02 42.5456 1314.85 41.0154C1317.76 39.4088 1320.74 38.6055 1323.8 38.6055C1324.49 38.6055 1325.21 38.7202 1325.98 38.9498C1326.74 39.1028 1327.36 39.294 1327.82 39.5236C1328.81 40.0591 1329.5 40.5564 1329.88 41.0154C1330.26 41.398 1330.46 41.857 1330.46 42.3926C1330.46 42.6986 1330.34 43.1194 1330.11 43.6549C1329.96 44.114 1329.77 44.5348 1329.54 44.9173L1327.7 48.3601H1326.9L1324.26 47.0978C1322.35 46.2562 1320.05 45.8354 1317.37 45.8354C1313.39 45.8354 1310.22 47.5186 1307.85 50.8849C1305.48 54.2512 1303.91 58.5738 1303.14 63.8528L1301.77 73.0337H1314.73V78.0832H1301.08L1294.54 122.266C1294.31 123.72 1293.69 125.671 1292.7 128.119C1291.7 130.644 1290.37 133.283 1288.68 136.037C1287.08 138.792 1285.2 141.393 1283.06 143.841C1280.99 146.289 1278.74 148.279 1276.29 149.809C1273.84 151.415 1271.28 152.219 1268.6 152.219Z" fill="#000091"/>
<path d="M1316.72 124.676L1324.64 80.0341L1315.69 76.0175V75.3289L1331.87 71.8861H1332.22V86.0017H1332.67C1335.12 81.4877 1337.19 78.2744 1338.87 76.3618C1340.63 74.3726 1342.16 73.1485 1343.46 72.6894C1344.84 72.1539 1346.06 71.8861 1347.13 71.8861C1348.51 71.8861 1349.77 72.3451 1350.92 73.2632C1352.07 74.1048 1352.64 75.0994 1352.64 76.247C1352.64 76.6295 1352.53 77.0503 1352.3 77.5094L1349.43 83.3622H1348.74L1347.48 82.4441C1346.87 81.985 1346.18 81.679 1345.41 81.526C1344.72 81.2965 1344.04 81.1817 1343.35 81.1817C1341.97 81.1817 1340.71 81.4877 1339.56 82.0998C1338.49 82.6354 1337.26 83.8212 1335.89 85.6574C1334.59 87.4171 1332.9 90.0948 1330.84 93.6906L1325.44 124.676H1316.72Z" fill="#000091"/>
</g>
<path d="M484.948 262L510.32 200.546H517.957L543.241 262H537.272L529.37 242.686H498.907L491.005 262H484.948ZM500.926 237.682H527.351L514.182 205.199L500.926 237.682ZM555.726 283.597V217.753H560.906V224.074C565.032 218.894 570.914 215.997 577.85 215.997C591.633 215.997 600.763 226.971 600.763 239.877C600.763 252.782 591.633 263.756 577.85 263.756C570.914 263.756 565.032 260.859 560.906 255.679V283.597H555.726ZM577.411 220.914C570.651 220.914 564.505 224.162 560.906 230.044V249.709C564.681 255.679 570.739 258.84 577.411 258.84C587.946 258.84 595.232 250.324 595.232 239.877C595.232 229.429 587.946 220.914 577.411 220.914ZM613.94 283.597V217.753H619.119V224.074C623.245 218.894 629.127 215.997 636.063 215.997C649.846 215.997 658.977 226.971 658.977 239.877C658.977 252.782 649.846 263.756 636.063 263.756C629.127 263.756 623.245 260.859 619.119 255.679V283.597H613.94ZM635.624 220.914C628.864 220.914 622.719 224.162 619.119 230.044V249.709C622.894 255.679 628.952 258.84 635.624 258.84C646.159 258.84 653.446 250.324 653.446 239.877C653.446 229.429 646.159 220.914 635.624 220.914ZM672.153 262V217.753H677.333V224.074C680.932 219.509 685.058 216.875 691.028 216.875C692.257 216.875 693.574 217.051 694.715 217.402V222.406C693.398 222.055 692.257 221.791 690.677 221.791C684.619 221.791 680.669 224.776 677.333 230.307V262H672.153ZM741.725 254.713C737.686 260.244 731.19 263.756 723.113 263.756C708.627 263.756 699.234 252.782 699.234 239.877C699.234 226.181 708.013 215.997 721.269 215.997C733.121 215.997 740.671 224.425 740.671 234.872C740.671 236.189 740.584 237.506 740.32 238.56H704.589C704.589 238.911 704.589 239.262 704.589 239.613C704.589 250.85 712.227 259.015 723.113 259.015C729.346 259.015 734.526 256.118 737.774 251.553L741.725 254.713ZM721.182 220.562C712.929 220.562 706.784 225.742 705.116 234.433H735.404C735.141 226.708 729.785 220.562 721.182 220.562ZM754.543 262V217.753H759.723V223.811C763.586 218.982 768.59 215.997 775.525 215.997C785.621 215.997 792.908 222.669 792.908 234.872V262H787.728V235.048C787.728 225.918 782.549 220.914 774.823 220.914C767.8 220.914 763.147 224.513 759.723 230.219V262H754.543ZM847.692 254.713C843.654 260.244 837.157 263.756 829.08 263.756C814.595 263.756 805.201 252.782 805.201 239.877C805.201 226.181 813.98 215.997 827.237 215.997C839.088 215.997 846.638 224.425 846.638 234.872C846.638 236.189 846.551 237.506 846.287 238.56H810.556C810.556 238.911 810.556 239.262 810.556 239.613C810.556 250.85 818.194 259.015 829.08 259.015C835.313 259.015 840.493 256.118 843.741 251.553L847.692 254.713ZM827.149 220.562C818.896 220.562 812.751 225.742 811.083 234.433H841.371C841.108 226.708 835.752 220.562 827.149 220.562ZM855.598 262V257.347L883.867 222.406H856.213V217.753H889.924V222.406L861.656 257.347H890.539V262H855.598ZM940.037 210.73L929.941 196.156H935.999L945.217 210.73H940.037ZM938.544 263.229C929.941 263.229 924.234 258.576 924.234 251.289C924.234 244.617 929.326 240.052 938.632 238.472L954.435 235.838V231.712C954.435 224.601 949.431 220.738 942.495 220.738C936.789 220.738 932.136 223.284 929.151 227.498L925.2 224.425C928.975 219.246 935.033 215.997 942.671 215.997C952.854 215.997 959.527 221.967 959.527 231.712V262H954.435V255.591C950.66 260.595 944.69 263.229 938.544 263.229ZM929.502 251.202C929.502 255.503 933.189 258.752 939.159 258.752C945.568 258.752 951.099 255.679 954.435 249.973V239.877L939.774 242.335C932.75 243.564 929.502 246.812 929.502 251.202ZM1031.52 243.213V217.753H1036.61V243.125C1036.61 256.294 1029.06 263.756 1017.74 263.756C1006.33 263.756 998.689 256.294 998.689 243.125V217.753H1003.87V243.213C1003.87 253.221 1009.4 258.84 1017.74 258.84C1025.9 258.84 1031.52 253.221 1031.52 243.213ZM1055.44 248.041V222.406H1047.1V217.753H1055.44V206.691H1060.7V217.753H1077.3V222.406H1060.7V248.041C1060.7 256.118 1064.83 258.049 1070.8 258.049C1073.61 258.049 1075.54 257.698 1077.3 257.084V261.824C1075.28 262.527 1073.08 262.878 1070.27 262.878C1061.23 262.878 1055.44 258.84 1055.44 248.041ZM1092.22 203.794C1090.03 203.794 1088.19 202.126 1088.19 199.844C1088.19 197.737 1090.03 195.981 1092.22 195.981C1094.42 195.981 1096.18 197.737 1096.18 199.844C1096.18 202.126 1094.42 203.794 1092.22 203.794ZM1089.59 262V217.753H1094.77V262H1089.59ZM1112.14 262V196.156H1117.32V262H1112.14ZM1137.32 203.794C1135.13 203.794 1133.28 202.126 1133.28 199.844C1133.28 197.737 1135.13 195.981 1137.32 195.981C1139.52 195.981 1141.27 197.737 1141.27 199.844C1141.27 202.126 1139.52 203.794 1137.32 203.794ZM1134.69 262V217.753H1139.87V262H1134.69ZM1151.8 256.206L1155.66 253.045C1159 257.259 1162.86 259.278 1167.6 259.278C1173.39 259.278 1176.73 255.591 1176.73 251.026C1176.73 239.789 1153.99 243.564 1153.99 227.937C1153.99 221.528 1159.43 215.997 1167.6 215.997C1173.57 215.997 1178.57 218.894 1181.65 223.108L1177.78 226.181C1175.32 222.494 1171.72 220.475 1167.69 220.475C1162.16 220.475 1159.08 223.898 1159.08 227.937C1159.08 239.438 1181.82 235.926 1181.82 250.85C1181.82 258.488 1175.76 263.756 1167.69 263.756C1161.1 263.756 1155.66 261.122 1151.8 256.206ZM1232.89 254.713C1228.86 260.244 1222.36 263.756 1214.28 263.756C1199.8 263.756 1190.4 252.782 1190.4 239.877C1190.4 226.181 1199.18 215.997 1212.44 215.997C1224.29 215.997 1231.84 224.425 1231.84 234.872C1231.84 236.189 1231.75 237.506 1231.49 238.56H1195.76C1195.76 238.911 1195.76 239.262 1195.76 239.613C1195.76 250.85 1203.4 259.015 1214.28 259.015C1220.52 259.015 1225.7 256.118 1228.94 251.553L1232.89 254.713ZM1212.35 220.562C1204.1 220.562 1197.95 225.742 1196.29 234.433H1226.57C1226.31 226.708 1220.95 220.562 1212.35 220.562ZM1245.71 262V217.753H1250.89V224.074C1254.49 219.509 1258.62 216.875 1264.59 216.875C1265.82 216.875 1267.13 217.051 1268.27 217.402V222.406C1266.96 222.055 1265.82 221.791 1264.24 221.791C1258.18 221.791 1254.23 224.776 1250.89 230.307V262H1245.71ZM1303.67 262V196.156H1308.85V262H1303.67ZM1337.89 263.229C1329.29 263.229 1323.58 258.576 1323.58 251.289C1323.58 244.617 1328.67 240.052 1337.98 238.472L1353.78 235.838V231.712C1353.78 224.601 1348.78 220.738 1341.84 220.738C1336.14 220.738 1331.48 223.284 1328.5 227.498L1324.55 224.425C1328.32 219.246 1334.38 215.997 1342.02 215.997C1352.2 215.997 1358.88 221.967 1358.88 231.712V262H1353.78V255.591C1350.01 260.595 1344.04 263.229 1337.89 263.229ZM1328.85 251.202C1328.85 255.503 1332.54 258.752 1338.51 258.752C1344.92 258.752 1350.45 255.679 1353.78 249.973V239.877L1339.12 242.335C1332.1 243.564 1328.85 246.812 1328.85 251.202ZM490.654 380.597V314.753H495.834V321.074C499.96 315.894 505.842 312.997 512.778 312.997C526.561 312.997 535.691 323.971 535.691 336.877C535.691 349.782 526.561 360.756 512.778 360.756C505.842 360.756 499.96 357.859 495.834 352.679V380.597H490.654ZM512.339 317.914C505.579 317.914 499.433 321.162 495.834 327.044V346.709C499.609 352.679 505.667 355.84 512.339 355.84C522.874 355.84 530.16 347.324 530.16 336.877C530.16 326.429 522.874 317.914 512.339 317.914ZM548.868 359V293.156H554.047V359H548.868ZM583.092 360.229C574.488 360.229 568.782 355.576 568.782 348.289C568.782 341.617 573.874 337.052 583.18 335.472L598.982 332.838V328.712C598.982 321.601 593.978 317.738 587.042 317.738C581.336 317.738 576.683 320.284 573.698 324.498L569.748 321.425C573.523 316.246 579.58 312.997 587.218 312.997C597.402 312.997 604.074 318.967 604.074 328.712V359H598.982V352.591C595.207 357.595 589.237 360.229 583.092 360.229ZM574.049 348.202C574.049 352.503 577.737 355.752 583.706 355.752C590.115 355.752 595.646 352.679 598.982 346.973V336.877L584.321 339.335C577.298 340.564 574.049 343.812 574.049 348.202ZM622.909 345.041V319.406H614.569V314.753H622.909V303.691H628.177V314.753H644.769V319.406H628.177V345.041C628.177 353.118 632.303 355.049 638.273 355.049C641.082 355.049 643.014 354.698 644.769 354.084V358.824C642.75 359.527 640.555 359.878 637.746 359.878C628.704 359.878 622.909 355.84 622.909 345.041ZM694.571 351.713C690.533 357.244 684.036 360.756 675.959 360.756C661.474 360.756 652.08 349.782 652.08 336.877C652.08 323.181 660.859 312.997 674.116 312.997C685.968 312.997 693.518 321.425 693.518 331.872C693.518 333.189 693.43 334.506 693.167 335.56H657.435C657.435 335.911 657.435 336.262 657.435 336.613C657.435 347.85 665.073 356.015 675.959 356.015C682.193 356.015 687.372 353.118 690.621 348.553L694.571 351.713ZM674.028 317.562C665.776 317.562 659.63 322.742 657.962 331.433H688.25C687.987 323.708 682.632 317.562 674.028 317.562ZM701.332 314.753H709.672V308.871C709.672 299.39 715.642 293.156 724.421 293.156C728.459 293.156 731.708 294.385 733.815 295.702L731.532 300.092C729.601 298.687 727.406 297.897 724.597 297.897C718.89 297.897 714.94 301.848 714.94 308.783V314.753H731.532V319.406H714.94V359H709.672V319.406H701.332V314.753ZM758.088 312.997C772.311 312.997 781.88 324.235 781.88 336.877C781.88 349.519 772.311 360.756 758.088 360.756C743.954 360.756 734.385 349.519 734.385 336.877C734.385 324.235 743.954 312.997 758.088 312.997ZM758.176 355.84C768.623 355.84 776.349 346.885 776.349 336.877C776.349 326.693 768.623 317.914 758.176 317.914C747.378 317.914 739.74 326.781 739.74 336.877C739.74 346.973 747.378 355.84 758.176 355.84ZM795.01 359V314.753H800.189V321.074C803.789 316.509 807.915 313.875 813.885 313.875C815.114 313.875 816.431 314.051 817.572 314.402V319.406C816.255 319.055 815.114 318.791 813.534 318.791C807.476 318.791 803.525 321.776 800.189 327.307V359H795.01ZM829.303 359V314.753H834.483V320.635C838.082 315.982 842.911 312.997 849.407 312.997C856.255 312.997 861.786 316.246 864.332 322.479C868.107 316.685 873.111 312.997 880.749 312.997C890.406 312.997 897.254 319.318 897.254 330.995V359H892.162V331.17C892.162 322.567 887.245 317.914 880.047 317.914C873.901 317.914 869.336 320.986 865.649 327.395C865.824 328.536 865.912 329.765 865.912 330.995V359H860.732V331.17C860.732 322.567 855.904 317.914 848.705 317.914C842.033 317.914 837.468 321.601 834.483 327.219V359H829.303ZM952.03 351.713C947.992 357.244 941.495 360.756 933.418 360.756C918.933 360.756 909.539 349.782 909.539 336.877C909.539 323.181 918.318 312.997 931.575 312.997C943.427 312.997 950.977 321.425 950.977 331.872C950.977 333.189 950.889 334.506 950.625 335.56H914.894C914.894 335.911 914.894 336.262 914.894 336.613C914.894 347.85 922.532 356.015 933.418 356.015C939.651 356.015 944.831 353.118 948.079 348.553L952.03 351.713ZM931.487 317.562C923.234 317.562 917.089 322.742 915.421 331.433H945.709C945.446 323.708 940.09 317.562 931.487 317.562ZM967.411 359.966C964.865 359.966 963.021 358.122 963.021 355.664C963.021 353.206 964.865 351.362 967.411 351.362C969.869 351.362 971.8 353.206 971.8 355.664C971.8 358.122 969.869 359.966 967.411 359.966Z" fill="#000091"/>
<defs>
<clipPath id="clip0_208_44101">
<rect width="589.633" height="174.12" fill="white" transform="translate(764.963 0.440063)"/>
</clipPath>
</defs>
</svg>
