<svg width="178" height="203" viewBox="0 0 178 203" fill="none" xmlns="http://www.w3.org/2000/svg">
<path d="M128.405 88.1804C128.405 88.1804 128.405 88.0793 128.405 88.012C128.338 82.5578 125.417 77.5075 120.717 74.8141L97.2157 61.2121C95.0335 59.9327 92.5155 59.2594 89.9304 59.192C89.5611 59.192 89.2254 59.192 88.8561 59.2257C87.0431 59.3267 85.3309 59.6634 83.7194 60.3031C83.0815 60.5724 82.4772 60.8754 81.8729 61.2121L67.5708 69.4945L58.674 74.6457C58.1368 74.9487 57.6332 75.2854 57.1632 75.6558C57.1632 75.6558 56.9617 75.7905 56.9282 75.7905C55.0481 77.1708 53.5709 78.9553 52.5301 80.9417C52.463 81.0764 52.3622 81.211 52.2951 81.3457C52.228 81.4804 52.1608 81.6151 52.1272 81.7497C51.1872 83.8035 50.6836 86.1266 50.6836 88.5844V114.644V115.048C50.6836 115.519 50.7172 116.024 50.7843 116.63C50.7843 116.933 50.8515 117.27 50.9186 117.64C51.1872 119.458 51.7915 121.175 52.6308 122.724C54.0073 125.283 56.0553 127.404 58.5732 128.852L81.6714 142.218C82.5108 142.689 83.1487 142.992 83.7865 143.262C85.398 143.935 87.1103 144.305 88.8561 144.373C88.9232 144.373 88.9903 144.373 89.0575 144.373C90.7026 144.406 92.3812 144.238 93.9927 143.733C95.1006 143.396 96.2085 142.925 97.2157 142.319L120.549 128.818C122.933 127.438 124.913 125.451 126.29 123.061C127.666 120.67 128.405 117.943 128.405 115.216V88.1804Z" fill="#3558A2"/>
<path d="M50.6836 138.2V171.493V181.082L87.7428 202.539V159.658L79.1057 154.662L50.6836 138.2Z" fill="#3558A2"/>
<path d="M123.461 72.7072C123.461 72.7072 123.764 72.9419 123.899 73.0424C123.899 73.0424 123.966 73.076 124 73.1095C124.236 73.2771 124.471 73.4783 124.707 73.6459C124.707 73.6459 124.741 73.6795 124.775 73.713C124.808 73.7465 124.876 73.78 124.909 73.8136C125.179 74.0483 125.482 74.283 125.718 74.5177C125.785 74.5847 125.852 74.6518 125.92 74.7188C126.088 74.8864 126.256 75.0541 126.425 75.2217C126.492 75.2888 126.56 75.3558 126.593 75.3894C126.829 75.6576 127.065 75.9258 127.3 76.194C127.435 76.3281 127.536 76.4958 127.637 76.6299C127.705 76.7305 127.806 76.831 127.873 76.9316C127.94 76.9987 128.008 77.0993 128.075 77.1663C128.311 77.4681 128.513 77.8033 128.715 78.1386C128.917 78.4739 129.119 78.7756 129.321 79.1109C129.523 79.4797 129.692 79.8485 129.894 80.2173C130.062 80.5526 130.197 80.8543 130.332 81.1896C130.466 81.4913 130.567 81.8266 130.668 82.1284C130.668 82.1954 130.702 82.2289 130.736 82.296C130.736 82.363 130.769 82.4301 130.803 82.4636C130.904 82.7654 131.005 83.0671 131.106 83.3689C131.241 83.8718 131.342 84.3747 131.409 84.9111C131.409 84.9111 131.409 84.9446 131.409 84.9782C131.409 85.0452 131.443 85.1458 131.443 85.2129C131.443 85.3805 131.51 85.5146 131.544 85.6822C131.645 86.4534 131.712 87.258 131.712 88.0627V114.113L136.899 117.097V74.2159L99.5825 52.7584V58.8939L122.316 71.9696C122.686 72.1707 123.057 72.4054 123.427 72.6736L123.461 72.7072Z" fill="#3558A2"/>
<path d="M0.5 52.7584V95.8114L37.8166 117.355V74.3017L0.5 52.7584Z" fill="#3558A2"/>
<path d="M128.027 126.408C127.726 126.846 127.391 127.217 127.056 127.621C126.822 127.891 126.588 128.16 126.353 128.43C125.985 128.834 125.55 129.171 125.148 129.542C124.947 129.71 124.747 129.913 124.546 130.115L130.906 133.822C131.409 134.125 131.743 134.665 131.743 135.271V171.23L136.899 174.23V131.126L128.295 126.104C128.295 126.104 128.128 126.307 128.061 126.408H128.027Z" fill="#3558A2"/>
<path d="M81.5456 49.9017V57.6481C81.5456 57.6481 81.7797 57.581 81.9135 57.514C82.5825 57.2122 83.3183 56.9774 84.0207 56.7762C84.5893 56.6085 85.1579 56.4744 85.7599 56.3738C86.3285 56.2732 86.8637 56.1726 87.4323 56.1055C87.633 56.1055 87.8002 56.0385 88.0009 56.0049V45.9111L50.9417 24.4492V31.1896L80.7094 48.4262C81.2111 48.728 81.5456 49.2645 81.5456 49.8682V49.9017Z" fill="#3558A2"/>
<path d="M0.5 152.538L37.8166 173.973V131.069L0.5 109.634V152.538Z" fill="#3558A2"/>
<path d="M177.304 152.538V109.634L140.245 131.069V173.973L177.304 152.538Z" fill="#3558A2"/>
<path d="M91.0889 202.539L128.405 181.082V172.063V138.2L91.0889 159.658V202.539Z" fill="#3558A2"/>
<path d="M41.1624 117.355L47.2832 113.787V88.2712C47.2832 82.4141 50.0593 76.8263 54.7419 73.2919C54.7419 73.2919 54.8088 73.2582 54.8422 73.2246C54.8422 73.2246 54.8757 73.2246 54.9091 73.1909C54.976 73.1572 55.0429 73.0899 55.0763 73.0899C55.6784 72.6523 56.1132 72.3494 56.6149 72.0464L78.2216 59.4907V52.7584L41.1624 74.3017V117.355Z" fill="#3558A2"/>
<path d="M177.304 95.8114V52.7584L140.245 74.3017V117.355L177.304 95.8114Z" fill="#3558A2"/>
<path d="M91.972 56.0629C92.3399 56.0963 92.6744 56.1967 93.0423 56.2301C93.4771 56.297 93.9454 56.3974 94.3802 56.4978C94.7815 56.5981 95.1494 56.7319 95.5174 56.8658C95.8184 56.9661 96.1194 57.033 96.4204 57.1334V49.807C96.4204 49.2049 96.7549 48.6696 97.2566 48.3685L128.663 30.2367V24.4492L91.6041 45.8595V55.996C91.6041 55.996 91.8716 56.0629 92.0054 56.0629H91.972Z" fill="#3558A2"/>
<path d="M47.6183 134.436C47.7192 134.269 47.8873 134.136 48.0554 134.002C48.089 134.002 48.1227 133.935 48.1563 133.902L54.5449 130.225C54.5449 130.225 54.2759 129.958 54.1078 129.824C53.5698 129.356 53.0318 128.889 52.5275 128.354C52.2921 128.12 52.0903 127.853 51.8886 127.619C51.4851 127.151 51.1152 126.683 50.779 126.181C50.7117 126.081 50.6109 125.981 50.51 125.847L50.3419 125.948L41.1624 131.228V173.973L47.3157 170.43V135.339C47.3157 135.071 47.4165 134.804 47.5174 134.57C47.5174 134.503 47.5847 134.47 47.6183 134.403V134.436Z" fill="#3558A2"/>
<path d="M76.6776 49.7816L39.5065 28.3092L2.30182 49.7816L39.5065 71.2876L76.6776 49.7816Z" fill="#3558A2"/>
<path d="M127.119 21.506L89.8029 0L52.4864 21.506L89.8029 42.9784L127.119 21.506Z" fill="#3558A2"/>
<path d="M136.104 69.8427L138.555 71.2876L175.76 49.7816L138.555 28.3092L131.235 32.5432L101.384 49.7816L117.099 58.8881L136.104 69.8427Z" fill="#3558A2"/>
<path d="M137.736 121.583L131.527 118.009C131.494 118.243 131.393 118.51 131.36 118.744C131.259 119.312 131.125 119.88 130.991 120.414C130.89 120.748 130.756 121.082 130.655 121.383C130.487 121.884 130.319 122.351 130.084 122.852C130.017 122.986 129.984 123.086 129.95 123.22L138.575 128.163L175.759 106.787L170.423 103.714L139.448 121.516C139.179 121.65 138.911 121.75 138.609 121.75C138.307 121.75 138.038 121.683 137.77 121.516L137.736 121.583Z" fill="#3558A2"/>
<path d="M98.7351 145.173C97.4927 145.875 96.1496 146.442 94.8064 146.877C93.8662 147.177 92.8925 147.344 91.9187 147.478C91.5829 147.511 91.2471 147.511 90.9113 147.545C90.4077 147.578 89.9376 147.645 89.4339 147.645C89.1653 147.645 88.8967 147.645 88.628 147.645C88.628 147.645 88.5944 147.645 88.5609 147.645C87.4864 147.611 86.4454 147.478 85.4045 147.244C84.3636 147.01 83.3562 146.71 82.3825 146.309C81.6102 145.975 80.8379 145.607 80.0656 145.207L57.5682 132.281L55.7885 133.316L52.2292 135.354L89.4339 156.73L93.4633 154.392L97.2576 152.221L104.846 147.845L126.605 135.354L123.046 133.316L121.266 132.281L98.7687 145.207L98.7351 145.173Z" fill="#3558A2"/>
<path d="M47.5734 118.076C47.5734 117.842 47.5062 117.642 47.4727 117.408L40.3192 121.516C40.0505 121.65 39.7819 121.75 39.4796 121.75C39.1773 121.75 38.9087 121.683 38.64 121.516L7.64172 103.714L2.30182 106.787L39.5132 128.163L48.8832 122.786C48.3123 121.45 47.8757 119.913 47.607 118.21C47.607 118.21 47.607 118.143 47.607 118.109L47.5734 118.076Z" fill="#3558A2"/>
</svg>
