<svg xmlns="http://www.w3.org/2000/svg" width="29" height="29" fill="none" viewBox="0 0 29 29"><path fill="#000091" d="M20.033 12.743v-.022a2.06 2.06 0 0 0-1.024-1.758l-3.13-1.811a2 2 0 0 0-.97-.27c-.049 0-.093 0-.143.005-.24.014-.469.059-.684.144a3 3 0 0 0-.245.12l-1.905 1.104-1.185.686q-.107.06-.201.134s-.027.018-.031.018a2 2 0 0 0-.586.686q-.016.027-.031.054a.3.3 0 0 0-.023.054 2.2 2.2 0 0 0-.192.91v3.524c0 .063.005.13.014.21q.002.061.017.135c.036.242.117.471.228.677.184.341.456.624.792.816l3.076 1.78c.111.063.197.103.281.14q.325.133.676.147h.026c.22.005.443-.018.658-.085.147-.045.295-.107.429-.188l3.107-1.798a2.103 2.103 0 0 0 1.046-1.811zM9.682 19.404v5.711l4.935 2.857v-5.71l-1.15-.666z"/><path fill="#000091" d="m19.375 10.683.072.053c.031.023.063.05.094.072l.009.009.018.013c.036.031.076.063.107.094l.027.027.068.066.022.023.094.107q.026.029.045.058l.031.04q.014.017.027.032.047.06.086.129l.08.13q.039.074.077.147.032.064.058.13c.018.04.031.084.045.124 0 .01.004.014.009.023q0 .014.009.022l.04.12q.027.1.04.206v.009c0 .009.005.022.005.031 0 .022.009.04.013.063q.022.155.023.317v3.469l.69.397v-5.71l-4.969-2.858v.817l3.028 1.742q.073.039.148.093zM3 8.026v5.733l4.97 2.87v-5.734zM19.985 17.834c-.04.059-.085.108-.13.162l-.093.108c-.05.053-.107.098-.16.148q-.04.034-.081.076l.847.494c.067.04.112.112.112.193v4.788l.686.4v-5.74l-1.146-.67s-.022.028-.03.041zM13.795 7.646v1.032s.031-.01.05-.018c.088-.04.186-.072.28-.099q.112-.033.232-.053c.075-.014.146-.027.222-.036.027 0 .05-.009.076-.013V7.115L9.72 4.256v.898l3.964 2.295c.067.04.111.112.111.192zM3 21.314l4.97 2.855v-5.714L3 15.601zM26.545 21.314V15.6l-4.935 2.854v5.713z"/><path fill="#000091" d="m15.064 27.972 4.969-2.857v-5.711l-4.97 2.858zM8.416 16.628l.815-.475v-3.398c0-.78.37-1.524.993-1.994 0 0 .009-.005.013-.01q.001.001.01-.004c.008-.004.017-.013.021-.013.08-.059.138-.099.205-.14l2.878-1.671v-.897l-4.935 2.869zM26.545 13.76V8.025l-4.935 2.869v5.733zM15.184 8.466c.049.005.094.018.143.023.057.009.12.022.178.035q.079.022.151.05.06.018.12.035v-.976c0-.08.045-.151.112-.191l4.182-2.415v-.77l-4.935 2.85v1.35s.036.01.053.01zM9.275 18.904a.2.2 0 0 1 .058-.058c.005 0 .01-.01.014-.014l.85-.49s-.035-.035-.057-.052a3 3 0 0 1-.211-.196q-.046-.05-.085-.098a2 2 0 0 1-.148-.192q-.014-.018-.036-.044l-.022.013-1.222.703v5.693l.819-.472v-4.673c0-.036.013-.071.027-.102 0-.01.009-.014.013-.023zM13.147 7.629l-4.95-2.86-4.954 2.86 4.954 2.864zM19.863 3.864 14.893 1l-4.97 2.864 4.97 2.86z"/><path fill="#000091" d="m21.06 10.3.327.193 4.954-2.864-4.954-2.86-.975.564-3.975 2.296 2.092 1.213zM21.28 17.192l-.827-.476c-.004.03-.018.066-.022.098a3 3 0 0 1-.05.222q-.021.067-.044.129a2 2 0 0 1-.076.196.2.2 0 0 0-.018.049l1.149.658 4.952-2.847-.711-.409-4.125 2.37a.25.25 0 0 1-.112.032.2.2 0 0 1-.111-.031zM16.083 20.333a3 3 0 0 1-.523.226c-.125.04-.255.063-.384.08-.045.005-.09.005-.135.01-.067.004-.13.013-.196.013h-.117a2.484 2.484 0 0 1-.823-.178 5 5 0 0 1-.308-.147l-2.996-1.721-.237.138-.474.27 4.955 2.848.536-.312.505-.289 1.011-.583 2.898-1.663-.474-.271-.237-.138-2.996 1.721zM9.271 16.725c0-.032-.008-.058-.013-.09l-.953.548a.25.25 0 0 1-.111.03.2.2 0 0 1-.112-.03l-4.128-2.371-.711.41 4.955 2.846 1.248-.716a2.6 2.6 0 0 1-.17-.61v-.013z"/></svg>