<svg xmlns="http://www.w3.org/2000/svg" width="433" height="113" fill="none" viewBox="0 0 433 113"><path fill="#000091" d="M71.18 49.074v-.094c-.036-3.035-1.662-5.845-4.278-7.344l-13.078-7.57c-1.215-.712-2.616-1.087-4.055-1.124-.205 0-.392 0-.598.018-1.009.057-1.962.244-2.858.6-.355.15-.692.319-1.028.506l-7.96 4.61-4.95 2.866q-.45.253-.841.562s-.112.075-.131.075a8.36 8.36 0 0 0-2.448 2.867c-.037.075-.093.15-.13.224s-.075.15-.094.225a9.1 9.1 0 0 0-.803 3.804v14.727c0 .263.018.544.056.88 0 .17.037.357.074.563a8.6 8.6 0 0 0 .953 2.83 8.65 8.65 0 0 0 3.307 3.41l12.855 7.438c.467.262.822.43 1.177.58.897.376 1.85.582 2.821.619h.112c.916.019 1.85-.075 2.747-.356a8 8 0 0 0 1.794-.787l12.985-7.513a8.792 8.792 0 0 0 4.372-7.57zM27.926 76.913v23.864l20.624 11.941V88.854l-4.806-2.78z"/><path fill="#000091" d="m68.429 40.463.243.187s.038.018.056.037c.132.093.263.205.394.298l.037.038c.02.018.057.037.075.056.15.13.32.26.45.392l.394.391.094.094.393.447c.075.075.132.168.188.243.037.056.093.112.13.168.038.037.076.093.113.13.132.168.244.355.357.542.112.186.224.354.337.54.112.206.206.411.319.616.093.187.168.355.243.541.075.168.131.355.188.523 0 .037.018.056.037.093 0 .038.019.075.037.093l.17.504c.074.28.13.56.168.859v.037c0 .037.019.093.019.13 0 .094.037.168.056.262.056.429.094.877.094 1.325v14.497l2.886 1.66V41.304L55.14 29.36v3.415l12.651 7.276q.31.168.619.392zM0 29.361v23.96L20.767 65.31V41.35zM70.97 70.349c-.168.243-.354.45-.54.675l-.392.45c-.204.225-.447.413-.67.619a5 5 0 0 0-.336.319l3.54 2.063c.28.169.466.469.466.806v20.012l2.869 1.67V72.975l-4.788-2.795s-.093.112-.13.169zM45.103 27.77v4.312s.13-.038.205-.075a9 9 0 0 1 1.172-.41c.317-.094.633-.169.968-.225.317-.055.614-.111.93-.149.112 0 .206-.037.317-.056V25.55L28.071 13.606v3.751l16.567 9.593c.279.168.465.466.465.802zM0 84.889l20.767 11.929V72.94L0 61.012zM98.393 84.889V61.012L77.769 72.941v23.877z"/><path fill="#000091" d="m50.415 112.718 20.767-11.941V76.913L50.415 88.854zM22.628 65.31l3.406-1.986v-14.2c0-3.259 1.545-6.369 4.151-8.336 0 0 .037-.018.056-.037 0 0 .019 0 .037-.019.037-.019.075-.056.093-.056.335-.244.577-.412.857-.58l12.024-6.988V29.36l-20.624 11.99zM98.393 53.32V29.362l-20.624 11.99V65.31zM50.906 31.2c.204.018.39.074.595.093.242.037.503.093.745.149.223.055.428.13.633.204.167.056.335.093.502.15v-4.078c0-.335.186-.633.465-.8l17.479-10.091v-3.221L50.7 25.521v5.641s.149.038.223.038zM26.22 74.817c.057-.093.15-.167.244-.242.019 0 .037-.037.056-.056l3.556-2.045s-.15-.15-.244-.224c-.3-.26-.599-.52-.88-.818-.13-.13-.243-.279-.355-.41-.224-.26-.43-.52-.617-.799-.038-.056-.094-.111-.15-.186l-.093.056-5.109 2.939V96.82l3.424-1.972V75.32c0-.149.056-.297.113-.428 0-.037.037-.055.056-.093zM42.395 27.706l-20.687-11.95-20.705 11.95L21.71 39.674zM70.468 11.968 49.7 0 28.933 11.968l20.768 11.95z"/><path fill="#000091" d="m75.466 38.87 1.364.804 20.705-11.968-20.705-11.95-4.073 2.356-16.613 9.594 8.745 5.067zM76.375 67.664l-3.456-1.989c-.018.13-.074.279-.093.409-.056.316-.13.632-.205.93-.056.185-.131.371-.187.538-.094.28-.187.54-.318.818a1 1 0 0 0-.075.205l4.8 2.75L97.535 59.43l-2.97-1.71-17.238 9.908c-.15.074-.299.13-.467.13a.85.85 0 0 1-.467-.13zM54.67 80.791c-.692.39-1.439.707-2.187.948-.523.167-1.065.26-1.606.335-.187.018-.374.018-.561.037-.28.019-.542.056-.822.056h-.486a9.3 9.3 0 0 1-1.757-.223 10.4 10.4 0 0 1-1.682-.52q-.645-.28-1.289-.614l-12.52-7.193-.99.576-1.981 1.133 20.705 11.897 2.242-1.302 2.112-1.208 4.223-2.435 12.109-6.952-1.98-1.133-.991-.576-12.52 7.193zM26.198 65.712c0-.13-.038-.242-.056-.372l-3.981 2.287c-.15.074-.3.13-.468.13a.85.85 0 0 1-.467-.13L3.976 57.72l-2.973 1.71 20.71 11.896 5.214-2.993a10.8 10.8 0 0 1-.71-2.546v-.056zM397.654 45.912h4.542l13.046 32.22 12.975-32.22h4.613l-14.777 36.33h-5.622zM387.679 66.816V45.912h4.18v20.832c0 10.812-6.199 16.939-15.497 16.939-9.371 0-15.642-6.127-15.642-16.94v-20.83h4.253v20.903c0 8.217 4.541 12.83 11.389 12.83 6.703 0 11.317-4.613 11.317-12.83M333.432 44.47c11.678 0 19.534 9.227 19.534 19.607s-7.856 19.606-19.534 19.606c-11.605 0-19.462-9.227-19.462-19.606s7.857-19.606 19.462-19.606m.072 35.176c8.578 0 14.921-7.352 14.921-15.57 0-8.36-6.343-15.569-14.921-15.569-8.866 0-15.137 7.28-15.137 15.57s6.271 15.57 15.137 15.57M276.547 88.945c0-3.748 1.874-6.704 5.622-9.443-1.802-1.225-2.667-3.171-2.667-5.118 0-2.81 1.73-5.262 4.541-6.92-3.243-2.378-5.117-6.126-5.117-10.163 0-6.848 5.406-12.903 13.767-12.903 2.523 0 4.83.577 6.776 1.514h13.623v3.748h-9.082a12.94 12.94 0 0 1 2.523 7.641c0 6.848-5.406 12.903-13.84 12.903-2.162 0-4.108-.433-5.838-1.082-2.163 1.226-3.316 3.028-3.316 4.614 0 1.657.793 2.955 3.46 2.955h11.1c9.875 0 13.984 4.541 13.984 10.812 0 7.352-7.496 12.758-18.164 12.758-10.236 0-17.372-4.324-17.372-11.316M292.765 66.6c6.127 0 9.515-4.397 9.515-9.299 0-5.046-3.388-9.299-9.515-9.299-6.271 0-9.659 4.253-9.659 9.299 0 4.974 3.388 9.299 9.659 9.299M280.8 88.584c0 4.902 5.334 8.001 13.047 8.001 8.361 0 13.983-3.387 13.983-8.866 0-3.964-2.162-7.136-9.875-7.136h-12.037c-3.316 2.235-5.118 4.758-5.118 8.001M250.35 83.323c-7.28 0-12.253-4.181-12.253-10.885 0-5.478 4.252-9.587 12.037-10.884l11.101-1.874v-.937c0-3.82-2.884-6.271-7.064-6.271-3.532 0-6.271 1.658-8.218 4.325l-6.703-5.118c3.243-4.47 8.577-7.208 15.209-7.208 10.524 0 15.93 6.27 15.93 14.272V82.24h-9.154V78.71c-2.307 2.811-6.632 4.614-10.885 4.614m-3.171-11.317c0 2.45 1.946 4.036 5.045 4.036 4.181 0 7.209-1.946 9.011-4.83v-5.117l-8.65 1.442c-3.82.648-5.406 2.234-5.406 4.469M213.752 68.98V54.13h-6.776v-8.217h6.776v-9.082h9.226v9.082h11.101v8.218h-11.101v14.848c0 4.037 2.163 5.623 5.767 5.623 2.523 0 4.181-.289 5.406-.793v8c-1.802.794-3.965 1.154-6.992 1.154-9.082 0-13.407-5.118-13.407-13.984M183.087 83.323c-7.28 0-12.254-4.181-12.254-10.885 0-5.478 4.253-9.587 12.038-10.884l11.101-1.874v-.937c0-3.82-2.884-6.271-7.064-6.271-3.532 0-6.272 1.658-8.218 4.325l-6.703-5.118c3.243-4.47 8.577-7.208 15.209-7.208 10.524 0 15.93 6.27 15.93 14.272V82.24h-9.154V78.71c-2.307 2.811-6.632 4.614-10.885 4.614m-3.171-11.317c0 2.45 1.946 4.036 5.045 4.036 4.181 0 7.208-1.946 9.011-4.83v-5.117l-8.65 1.442c-3.821.648-5.406 2.234-5.406 4.469M125.115 64.076c0-10.596 6.992-19.606 18.453-19.606 4.902 0 8.434 1.514 11.245 4.325V28.18h9.226v54.06h-9.226v-2.883c-2.811 2.812-6.343 4.325-11.245 4.325-11.461 0-18.453-9.01-18.453-19.606m9.587 0c0 6.343 3.965 10.957 10.164 10.957 4.108 0 7.496-1.73 9.947-5.046V58.166c-2.451-3.316-5.839-5.046-9.947-5.046-6.199 0-10.164 4.613-10.164 10.956"/></svg>