<svg xmlns="http://www.w3.org/2000/svg" width="186" height="59" fill="none" viewBox="0 0 186 59"><path fill="#000091" d="M143.469 29.509h2.391l6.868 16.96 6.83-16.96h2.428l-7.778 19.124h-2.96zM138.218 40.513V29.509h2.201v10.966c0 5.691-3.264 8.917-8.159 8.917-4.932 0-8.234-3.226-8.234-8.917V29.509h2.239v11.004c0 4.325 2.391 6.754 5.995 6.754 3.529 0 5.958-2.429 5.958-6.754M109.662 28.75c6.147 0 10.283 4.857 10.283 10.32 0 5.465-4.136 10.322-10.283 10.322-6.109 0-10.245-4.857-10.245-10.321s4.136-10.321 10.245-10.321m.038 18.517c4.515 0 7.854-3.87 7.854-8.196 0-4.402-3.339-8.196-7.854-8.196-4.667 0-7.969 3.832-7.969 8.196s3.302 8.196 7.969 8.196M79.716 52.162c0-1.973.986-3.53 2.96-4.971-.95-.645-1.404-1.67-1.404-2.694 0-1.48.91-2.77 2.39-3.643a6.6 6.6 0 0 1-2.694-5.35c0-3.605 2.846-6.792 7.248-6.792 1.328 0 2.542.303 3.566.797h7.172v1.973h-4.781a6.8 6.8 0 0 1 1.328 4.022c0 3.605-2.846 6.792-7.285 6.792a8.7 8.7 0 0 1-3.074-.57c-1.138.646-1.745 1.595-1.745 2.43 0 .872.417 1.555 1.82 1.555h5.844c5.199 0 7.362 2.39 7.362 5.692 0 3.87-3.947 6.716-9.562 6.716-5.389 0-9.145-2.277-9.145-5.957m8.537-11.763c3.226 0 5.01-2.315 5.01-4.895 0-2.656-1.784-4.895-5.01-4.895-3.3 0-5.084 2.239-5.084 4.895 0 2.618 1.783 4.895 5.084 4.895m-6.298 11.573c0 2.58 2.808 4.212 6.868 4.212 4.401 0 7.36-1.783 7.36-4.667 0-2.087-1.137-3.757-5.198-3.757H84.65c-1.746 1.176-2.694 2.505-2.694 4.212M65.926 49.202c-3.833 0-6.45-2.2-6.45-5.73 0-2.883 2.238-5.046 6.336-5.73l5.843-.986v-.493c0-2.011-1.517-3.301-3.718-3.301-1.86 0-3.301.872-4.326 2.276l-3.529-2.694c1.708-2.352 4.516-3.794 8.007-3.794 5.54 0 8.385 3.301 8.385 7.513v12.37h-4.819v-1.86c-1.214 1.48-3.49 2.43-5.73 2.43m-1.67-5.957c0 1.29 1.025 2.125 2.656 2.125 2.201 0 3.795-1.025 4.743-2.543v-2.694l-4.553.76c-2.011.34-2.846 1.175-2.846 2.352M46.66 41.65v-7.816h-3.567V29.51h3.566v-4.782h4.857v4.782h5.844v4.325h-5.844v7.817c0 2.125 1.139 2.96 3.036 2.96 1.328 0 2.2-.152 2.846-.418v4.212c-.949.417-2.087.607-3.68.607-4.782 0-7.059-2.694-7.059-7.361M30.516 49.202c-3.832 0-6.45-2.2-6.45-5.73 0-2.883 2.238-5.046 6.336-5.73l5.844-.986v-.493c0-2.011-1.518-3.301-3.719-3.301-1.86 0-3.301.872-4.326 2.276l-3.529-2.694c1.708-2.352 4.516-3.794 8.007-3.794 5.54 0 8.386 3.301 8.386 7.513v12.37h-4.82v-1.86c-1.213 1.48-3.49 2.43-5.729 2.43m-1.67-5.957c0 1.29 1.025 2.125 2.657 2.125 2.2 0 3.794-1.025 4.743-2.543v-2.694l-4.554.76c-2.01.34-2.846 1.175-2.846 2.352M0 39.07c0-5.577 3.68-10.32 9.714-10.32 2.58 0 4.44.797 5.92 2.276V20.174h4.856v28.459h-4.857v-1.518c-1.48 1.48-3.339 2.277-5.92 2.277C3.682 49.392 0 44.648 0 39.07m5.047 0c0 3.34 2.087 5.768 5.35 5.768 2.163 0 3.946-.91 5.236-2.656V35.96c-1.29-1.745-3.073-2.656-5.236-2.656-3.263 0-5.35 2.428-5.35 5.768M179.017 11.743v-.022a2.06 2.06 0 0 0-1.023-1.758l-3.13-1.811a2 2 0 0 0-.97-.27c-.049 0-.094 0-.143.005-.242.014-.47.059-.684.144a2 2 0 0 0-.246.12l-1.905 1.104-1.185.686q-.106.06-.201.134s-.027.018-.031.018a2 2 0 0 0-.586.686c-.009.018-.022.036-.031.054a2.186 2.186 0 0 0-.215.964v3.524c0 .063.005.13.014.21 0 .041.009.086.018.135.035.242.116.471.228.677.183.341.456.624.791.816l3.076 1.78c.112.063.197.103.282.14.214.089.442.138.675.147h.026c.22.005.443-.018.658-.085.147-.045.295-.108.429-.188l3.107-1.798a2.1 2.1 0 0 0 1.046-1.812zM168.667 18.404v5.711l4.935 2.857v-5.71l-1.151-.666z"/><path fill="#000091" d="m178.359 9.683.072.053c.031.023.063.05.094.072l.009.009.018.013c.036.031.076.063.108.094l.027.027.067.067.022.022.095.107q.026.029.044.058c.009.014.023.027.032.04q.013.017.027.032.046.06.085.129l.081.13c.027.049.049.098.076.147q.032.064.058.13c.018.04.032.084.045.124 0 .01.005.014.009.023q.002.014.009.022l.04.12q.027.1.041.206v.009c0 .009.004.022.004.031 0 .022.009.04.014.063q.02.155.022.317v3.469l.691.397v-5.71l-4.97-2.858v.817l3.028 1.741q.074.041.148.094zM161.984 7.026v5.733l4.97 2.87V9.894zM178.969 16.834c-.04.058-.085.108-.129.162l-.094.108c-.049.053-.107.098-.16.148q-.04.034-.081.076l.847.494c.067.04.112.112.112.193v4.788l.686.4v-5.74l-1.145-.67-.032.041zM172.779 6.646v1.032s.032-.01.049-.018a2 2 0 0 1 .281-.099q.112-.033.232-.053.111-.022.222-.036c.027 0 .049-.009.076-.013V6.115l-4.935-2.859v.898l3.964 2.295c.067.04.111.112.111.192zM161.984 20.314l4.97 2.855v-5.714l-4.97-2.854zM185.53 20.314v-5.713l-4.936 2.854v5.714z"/><path fill="#000091" d="m174.048 26.972 4.97-2.857v-5.711l-4.97 2.858zM167.4 15.628l.815-.475v-3.398c0-.78.37-1.524.994-1.994l.013-.01q0 .001.009-.004c.009-.004.018-.013.022-.013a3 3 0 0 1 .205-.14l2.877-1.671v-.897l-4.935 2.87zM185.53 12.76V7.025l-4.936 2.87v5.732zM174.169 7.466c.049.005.093.018.142.023a1.474 1.474 0 0 1 .33.085q.06.018.12.035v-.976c0-.08.045-.151.111-.191l4.183-2.415v-.77l-4.935 2.85v1.35s.035.01.053.01zM168.26 17.904c.013-.023.036-.04.058-.058.005 0 .009-.009.014-.014l.85-.489s-.036-.036-.058-.053a3 3 0 0 1-.21-.196c-.032-.031-.059-.067-.085-.098a2 2 0 0 1-.148-.191q-.015-.02-.036-.045l-.022.013-1.223.704v5.692l.82-.472v-4.673c0-.036.013-.071.026-.102 0-.01.009-.014.014-.023zM172.132 6.629l-4.95-2.86-4.955 2.86 4.955 2.864zM178.847 2.864 173.878 0l-4.97 2.864 4.97 2.86z"/><path fill="#000091" d="m180.045 9.3.326.193 4.955-2.864-4.955-2.86-.975.564-3.975 2.296 2.093 1.213zM180.264 16.192l-.826-.476c-.005.03-.018.067-.023.098a3 3 0 0 1-.049.222c-.013.044-.031.089-.045.129a2 2 0 0 1-.076.196.2.2 0 0 0-.017.049l1.148.658 4.952-2.847-.711-.409-4.125 2.37a.24.24 0 0 1-.111.032.2.2 0 0 1-.112-.031zM175.068 19.333a3 3 0 0 1-.524.226c-.125.04-.254.063-.384.08-.045.005-.089.005-.134.01-.067.004-.13.013-.197.013h-.116a2.499 2.499 0 0 1-.823-.178 5 5 0 0 1-.309-.147l-2.996-1.721-.236.138-.474.27 4.954 2.848.537-.312.505-.289 1.01-.583 2.898-1.663-.474-.271-.237-.138-2.996 1.721zM168.256 15.725c0-.031-.009-.058-.014-.09l-.952.548a.25.25 0 0 1-.112.03.2.2 0 0 1-.112-.03l-4.128-2.37-.711.408 4.955 2.847 1.248-.716a2.6 2.6 0 0 1-.17-.61v-.013z"/><script/></svg>