<svg xmlns="http://www.w3.org/2000/svg" width="262" height="192" fill="none" viewBox="0 0 262 192"><path fill="#102185" d="M112.676 29.396h19.68a334 334 0 0 1 5.522-10.194c1.133-1.982 2.549-3.681 4.389-5.097q2.761-2.124 5.947-2.973c1.557-.425 3.257-.708 4.956-.85 4.672-.424 9.486-.85 14.158.284 5.381 1.415 10.053 3.68 13.31 8.495.424 0 .849-.284 1.274-.425 18.831-16.566 51.113-12.318 67.395 7.504.85.991 1.699 1.982 2.407 2.973 3.681 4.814 5.805 10.62 5.805 16.566.566 29.874 1.558 59.891 2.407 89.765.283 7.504.425 15.15.708 22.654.283 6.655.708 13.309.849 19.964 0 4.672-1.982 6.654-6.796 6.937-15.999.567-32.14 1.133-48.139 1.7-18.973.707-37.945 1.415-57.059 2.265l-58.193 2.265c-2.407 0-4.814.425-7.362.425-.991 0-1.983-.142-2.69-.708-.85-.566-1.416-1.416-1.7-2.265-3.256-9.911-6.654-19.681-9.769-29.592-1.557-4.814-2.832-9.769-4.39-15.15-3.68-1.415-7.786-2.973-11.892-4.389-13.876-4.955-25.061-13.734-34.548-24.919a79 79 0 0 1-16.99-31.857c-3.256-13.025-2.407-26.76 2.266-39.36 5.805-16.425 15.999-29.026 31.432-37.38C42.732 2.355 50.519.372 58.448.089 78.837-1.045 94.27 8.866 107.862 22.6c1.84 1.982 3.115 4.673 4.531 6.938zm134.507 31.999c-13.592 25.202-33.697 40.21-63.006 42.051.142 1.557.425 2.832.425 4.106 0 2.407 0 4.814-.283 7.221 0 1.557-.85 2.973-1.841 4.106-.991 1.132-2.407 1.982-3.964 2.265-1.558.425-3.257.85-4.814.991-9.203.991-15.292-2.407-15.575-12.743 0-1.84 0-3.822-.141-5.521-12.46-.567-24.637-3.823-35.68-9.628-10.903-5.805-21.097-13.168-29.875-21.946 3.257 35.821 6.088 71.501 3.54 107.322 4.955 0 152.347-4.955 155.178-6.23v-2.973c-.283-4.814-.99-9.628-1.132-14.583-.566-17.982-1.133-35.963-1.558-53.945-.283-12.742-.566-25.485-.991-38.086v-2.69zM90.305 42.28c-.425 4.814.142 8.07 1.416 10.336 9.77 16.99 24.495 28.034 42.193 35.68 5.663 2.406 11.751 3.964 17.84 4.53 12.884 1.274 25.91.991 38.795-.708 16.141-2.265 28.6-10.053 38.511-22.512 5.522-7.08 8.92-15.291 12.601-23.22.425-.85.566-1.84.991-3.115-3.823-.142-7.221-.425-10.619-.566l-54.369-1.7c-24.778-.849-49.555-1.415-74.333.284-4.389.283-8.637.85-13.168 1.274zM62.98 132.188c0-1.133.142-1.558.142-2.124.424-9.769.566-19.539 1.274-29.167.991-13.167 3.54-26.193 7.504-38.794.425-1.416.566-2.974 1.133-4.39 1.982-6.088 2.265-12.742 5.522-18.547 2.123-3.681 4.53-6.23 8.92-7.08 1.982-.424 3.964-.566 5.946-.707 2.69-.142 5.38-.425 7.929-.991-.141-.425-.283-.85-.566-1.275-.708-.85-1.558-1.699-2.266-2.548-5.521-5.522-12.176-9.345-18.972-12.885C67.793 7.734 55.9 8.3 44.148 12.69 34.237 16.511 25.883 23.59 20.36 32.652 8.751 51.2 5.778 70.88 15.406 91.128c6.796 14.583 17.981 26.618 31.857 34.547 4.955 2.69 10.194 4.955 15.574 6.513zm21.946 39.644c2.832-33.697-.708-67.112-4.106-100.526q-.637.637-.85 1.699c-.99 5.097-1.699 10.336-2.831 15.433-1.841 9.628-2.832 19.255-2.832 29.025 0 7.221-.708 14.442 1.133 21.521 1.982 7.504 4.106 14.725 6.23 22.229l3.114 10.619zM240.812 32.228c-1.982-1.84-3.257-3.256-4.814-4.39-6.372-5.096-14.017-8.211-22.088-8.919-10.335-.85-19.255 1.982-26.618 9.203-.566.708-1.274 1.558-1.699 2.407l55.36 1.7zm-69.236-2.832c0-.85-.142-1.557-.142-2.407 0-1.274-.283-2.548-1.132-3.54-.85-.99-1.841-1.698-3.115-1.981-.85-.284-1.699-.567-2.549-.708h-9.062c-5.663 0-9.061 2.831-10.619 8.636h26.761zm-2.832 82.12h5.38c-.141-2.69-.283-4.955-.424-7.645l-4.956.283z"/><path fill="#102185" d="M157.842 168.575c-5.805-.424-13.876-.991-21.946-1.982-4.106-.283-7.929-1.699-11.469-3.823-3.398-2.123-6.371-5.097-8.353-8.636-2.407-4.389-4.531-8.92-6.23-13.593-.566-1.274-.566-2.69-.141-3.964s1.415-2.407 2.548-3.115c.85-.566 1.416-1.416 2.407-1.982 1.274-.991 2.832-1.699 4.389-1.982 17.132-1.133 34.264-2.407 51.538-3.257 16.565-.849 33.131-1.416 49.697-1.982 1.274 0 2.548 0 3.823.283 1.557.142 2.831.85 3.822 1.982s1.558 2.549 1.558 4.106c.708 15.008-3.681 24.92-19.539 31.291-6.513 2.69-13.309 3.681-20.247 4.672a78 78 0 0 1-8.07.85c-7.221.424-14.301.849-23.787 1.274zm60.74-33.414c-32.423 1.982-64.846 1.416-97.269 5.097.991 3.823 2.831 7.221 5.38 10.194 1.982 2.549 4.814 4.248 8.07 4.956a74.5 74.5 0 0 0 11.044 1.699c14.3.85 28.742.425 43.042-1.416 7.08-.849 14.018-2.124 20.389-5.239 6.23-3.115 9.769-7.787 9.486-15.432z"/></svg>