<svg xmlns="http://www.w3.org/2000/svg" width="327" height="240" fill="none" viewBox="0 0 327 240"><path fill="#102185" d="M0 82.279c.425-3.257.85-6.655 1.416-9.911C6.655 41.785 23.928 20.406 51.82 7.946 93.164-10.46 142.86 4.123 167.072 41.22c1.558 2.407 2.973 4.814 4.531 7.504.849-.283 1.699-.425 2.407-.85 15.433-6.371 31.715-10.618 48.281-12.46 17.84-1.981 35.397-1.132 52.67 3.682a43 43 0 0 1 6.371 2.549c4.106 1.699 5.381 5.097 5.522 9.203.284 13.45-.991 26.76-3.398 39.927-.849 4.814-1.982 9.486-2.973 14.3 3.964.567 7.929.991 11.752 1.841 9.061 1.84 17.273 6.654 23.362 13.734 6.088 6.937 9.627 15.857 10.335 25.06.708 10.761-2.831 20.53-9.486 29.025-15.716 20.247-46.44 26.335-68.386 8.92-1.558-1.274-3.115-2.69-4.673-4.106-3.964 4.248-7.645 8.637-11.751 12.602-4.248 3.964-8.92 7.22-13.593 10.902 1.983 6.229 1.841 12.884-.566 18.972-2.124 5.097-5.947 9.486-10.619 12.318-11.61 7.221-24.211 5.097-37.52-6.088-15.433 6.088-31.574 8.778-47.998 10.053-13.734 1.274-27.468 1.132-41.202-.284a137 137 0 0 1-18.406-3.823c-2.266-.707-4.531-1.84-6.513-3.114-.85-.567-1.7-1.275-2.266-2.124q-.85-1.275-.85-2.973c-.849-19.114 1.7-38.229 7.788-56.352.283-1.132.708-2.123 1.133-3.256v-.991c-.991-.425-1.982-.708-2.974-1.275-5.946-2.973-11.893-5.946-17.84-9.061-2.265-1.133-4.53-2.124-6.796-3.398-1.132-.708-1.982-1.416-2.831-2.407-1.416-1.558-2.549-3.54-3.965-5.097C11.61 129.144 2.548 111.304.991 89.925c0-.992-.283-1.983-.566-2.974v-4.53zm243.954 39.644c-5.664-14.3-13.31-27.61-22.796-39.786-6.088 2.549-12.035 4.531-18.548 7.93 1.699 1.273 3.257 2.548 4.673 3.963.991.992 1.557 2.266 1.557 3.682s-.566 2.69-1.416 3.681a5.95 5.95 0 0 1-3.539 1.699c-1.416 0-2.69-.283-3.823-1.133a20.7 20.7 0 0 1-2.69-2.265l-5.381-4.53-18.547 11.751c1.415 1.274 2.407 1.982 3.398 2.973 2.265 2.407 2.69 5.097 1.132 7.363-.849 1.132-2.124 1.982-3.539 2.265s-2.832 0-4.106-.85c-1.416-.849-2.832-1.84-4.106-2.973-1.558-1.416-2.832-1.274-4.389 0l-13.593 11.469c-.708.707-1.416 1.415-1.982 2.265 1.133 1.133 2.124 1.841 2.973 2.832.991.991 1.558 2.407 1.699 3.823 0 1.415-.424 2.831-1.416 3.964-1.982 2.124-4.955 2.265-7.645.283a57 57 0 0 1-3.682-2.973c-9.627 10.052-18.547 20.671-26.759 31.998 13.875 16.141 24.636 34.547 31.998 54.511 6.655-.708 16.566-3.54 20.53-5.947-1.699-13.875 1.841-23.22 11.752-29.025 12.743-7.504 24.778-5.38 35.821 4.106.708-.283 1.275-.566 1.841-.991 9.061-5.097 15.574-12.743 21.804-20.955 1.275-1.699.708-2.973 0-4.672-5.097-13.026-3.398-25.486 3.54-37.237 1.416-2.407 3.115-4.673 4.955-7.221zm-31.433-48.564.708-1.133c-1.132-.708-2.123-1.416-3.256-2.124-6.088-5.238-12.885-9.769-20.105-13.45-1.133-.708-2.266-.991-3.54-1.133-1.274 0-2.549.142-3.681.708-42.476 16.707-75.041 45.024-98.12 84.244-.708 1.132-1.274 2.407-1.84 3.539l20.813 16.424 24.777-29.45-1.415-.707c-3.54-1.7-4.956-3.965-3.965-6.797s3.823-4.389 7.504-3.681c2.407.566 4.673 1.274 7.08 1.982l14.158-12.459c-.283-.283-.425-.708-.708-.991-2.831-2.832-3.398-4.673-2.124-7.08s3.823-3.398 7.363-2.548c1.699.425 3.398 1.132 5.239 1.557.849.283 1.699.283 2.407 0 4.814-3.256 9.628-6.654 14.583-10.052-.425-.425-.708-.85-.849-.992-2.691-2.548-3.398-5.097-2.124-7.362 1.416-2.407 4.106-3.115 7.504-2.124 2.407.708 4.531 1.7 6.938 2.266 1.132.424 2.548.424 3.681 0 6.371-2.69 12.601-5.664 18.972-8.495zm-80.704 152.063c-8.92-27.043-34.405-60.457-54.086-70.368-8.353 12.884-16.99 52.245-14.866 67.253 11.468 7.504 57.342 6.796 68.952 3.115m121.057-111.428c3.398-1.84 6.796-3.54 10.335-4.814 1.416-.425 2.832-1.132 3.823-2.265a7.8 7.8 0 0 0 2.124-3.965c.283-1.132.708-2.265.991-3.398 3.681-15.574 5.947-31.29 5.38-47.29 0-.707-.283-1.557-.424-2.265-24.07-5.946-49.131-5.805-73.201.425 25.061 15.433 39.22 38.37 50.83 63.572zM155.32 43.626c-2.973.85-6.088 1.416-9.203 1.84-11.751 1.133-22.795 4.956-33.556 9.345-4.814 1.982-9.911 3.54-15.008 4.956-7.504 2.407-15.433 1.84-22.654-1.133h-1.132l-9.77 13.45c14.159 7.08 24.92 17.84 36.813 27.327 17.273-18.831 37.803-34.406 60.599-45.874-2.124-3.54-4.106-6.655-6.089-9.911m152.914 122.897c10.053-11.469 7.363-31.999-1.841-39.078h-.424c-.708.566-1.416 1.132-2.124 1.557a51.9 51.9 0 0 1-19.114 9.628c-2.974.991-6.089 1.274-9.062.991-8.637-1.274-17.557-2.124-24.778-7.929-10.76 11.61-8.778 32.423 1.558 40.211 17.132-17.132 35.963-17.415 55.785-5.38M56.494 17.857C39.36 25.645 26.76 37.113 18.688 53.254L54.37 66.42a870 870 0 0 1 5.38-7.504c1.841-2.548 3.965-5.38 5.806-7.929 0-.424-.284-.85-.425-1.274-3.823-6.796-6.088-14.158-6.655-21.946-.424-3.256-1.132-6.513-1.982-9.77zm-6.797 80.704c7.08 5.097 12.601 11.61 15.291 18.123 2.407 5.805 4.53 11.752 6.796 17.557l1.275 2.973 20.105-29.733c-11.185-9.203-21.521-19.397-35.255-26.052zm-1.982-22.087c-5.24-3.681-27.751-11.469-33.556-11.61-4.531 15.857-3.257 31.432 3.256 47.148.991-1.133 1.7-1.841 2.407-2.549 4.814-5.663 10.053-10.618 17.557-12.46.85-.282 1.557-.849 1.84-1.698 2.974-6.089 5.806-12.46 8.637-18.831zm34.83-27.751.566 1.274c2.832 0 5.664 0 8.354-.425 6.371-.99 12.601-2.831 18.406-5.521 9.77-4.39 19.964-7.363 30.583-9.203 1.84-.284 3.681-.425 6.513-.85a40 40 0 0 0-3.681-3.256c-5.381-3.682-10.903-7.221-16.283-10.903-3.823-2.69-7.504-1.982-11.044.425-5.238 3.398-10.194 6.938-15.008 10.902-6.371 5.664-12.176 11.752-18.264 17.557zm108.172 178.54c3.54.142 7.08-.708 10.053-2.407 2.69-1.558 4.672-3.964 5.946-6.796s1.7-5.947 1.133-8.92c-1.557-8.212-10.194-15.008-20.388-13.309-2.974.424-5.805 1.699-7.929 3.681s-3.823 4.531-4.531 7.504c-1.699 6.23.283 11.327 4.814 15.575 2.973 2.831 6.938 4.53 11.044 4.813zm-125.87-72.634c.708-.708 1.274-1.699 1.416-2.69 0-.991 0-2.124-.708-2.973-1.133-2.407-2.266-4.956-3.115-7.504-2.549-6.796-5.097-13.734-7.788-20.53-1.699-4.389-5.946-9.203-8.92-10.619-.566 2.265-1.274 4.389-1.557 6.654-1.133 7.363-2.407 14.725-3.398 21.946-.142 1.275-.425 2.832.991 3.823 6.938 5.239 14.725 9.203 23.079 11.893m9.061-112.702c9.911-10.902 19.964-20.813 32.282-28.742-10.336-3.398-32.99-2.124-38.795 1.699 2.832 8.495 1.84 17.981 6.655 27.184zm187.744 137.055c12.601 5.947 32.423 3.398 38.087-4.531-14.725-8.92-29.592-5.38-38.087 4.531m-2.265-55.36c9.344 7.787 29.308 5.805 36.954-3.398-9.77-5.664-25.911-4.248-36.954 3.398m-229.229 8.495 3.964-21.379c-4.53 3.681-7.22 7.645-10.052 11.468-.142.283-.142.708-.142 1.133s.142.708.283.991c1.84 2.548 3.682 4.814 5.947 7.929z"/></svg>