<svg xmlns="http://www.w3.org/2000/svg" width="408" height="206" fill="none" viewBox="0 0 408 206"><path fill="#102185" d="M26.549 111.68c-.156-4.446-.496-8.481-.538-12.63-.227-8.31 1.373-16.523 4.743-23.942 4.729-10.25 13.196-14.031 23.687-10.123a53 53 0 0 1 6.839 3.44c1.218.58 2.393 1.445 3.865 2.195 1.02-1.303 1.883-2.478 2.874-3.483a51.7 51.7 0 0 1 5.593-5.862c8.481-7.206 17.43-6.923 26.208.467 3.851 3.342 6.598 7.688 8.127 12.446 1.034 3.129 2.067 6.258 2.973 9.231l23.999 2.04 11.879-22.754c-.906-.68-1.684-1.359-2.449-2.024-4.941-4.913-10.379-9.303-14.697-14.711-7.745-9.826-7.235-21.748 2.563-30.356 5.791-5.126 12.19-9.444 18.335-14.088a10.3 10.3 0 0 1 3.158-1.317 5.1 5.1 0 0 1 3.27.128c1.091.424 1.855 1.09 2.45 2.024.594.935.878 2.11.878 3.257a6.7 6.7 0 0 1-1.246 3.129c-.822.892-1.643 1.642-2.563 2.237-4.573 3.412-9.005 6.853-13.691 10.11-3.908 2.647-3.271 6.724-3.172 10.448-.085.708 1.317 2.025 2.28 2.294 2.477.736 4.983 1.203 7.546 1.246 12.106-.892 24.041-2.804 35.708-5.89l.284.042c3.851-1.076 6.852 0 7.787 2.705 1.175 3.143-.68 6.484-4.673 7.546-6.498 1.742-12.941 3.073-19.524 4.234-7.136 1.09-14.329 1.614-21.437 2.42-.566-.07-1.161.142-2.633.524 2.577 2.18 4.644 3.866 6.711 5.565 1.671 1.5 3.37 2.704 5.21 3.936 1.331.736 2.705 1.203 4.262 1.26 10.492-.524 21.012-1.33 31.503-2.01 13.083-.765 26.194-1.685 39.276-2.45a72 72 0 0 0 10.86-1.19c-1.217-.58-2.421-1.16-3.61-1.882-1.756-.793-3.469-1.87-5.069-2.79-7.193-5.196-6.74-13.266 1.047-17.273 3.512-1.84 7.264-3.214 11.2-3.865 10.775-1.629 21.635-2.974 32.494-4.163 6.796-.708 10.676 2.492 12.106 9.246 1.727 7.787.863 15.659-.666 23.319-.863 4.601-4.728 6.966-9.967 6.584-4.956-.34-9.968-1.26-14.895-1.884s-1.813-.368-2.662-.34c-1.827-.226-2.676.808-2.039 2.592.312.892.651 1.656 1.119 2.42 4.516 8.284 9.033 16.552 13.436 24.68 1.614 3.057 1.756 3.072 5.027 2.066 17.641-5.182 34.632-4.176 50.73 5.14 18.095 10.421 28.516 26.165 28.813 47.459.297 24.721-11.823 42.604-33.089 53.902-21.578 11.54-43.524 11.186-64.592-1.614-6.626-3.978-12.389-9.274-16.849-15.687a53.2 53.2 0 0 1-8.736-21.224c-.141-1.161-.58-2.209-.849-3.384l-3.186.311c-6.499.609-13.125 1.048-19.638 1.799-1.317.254-2.86.07-4.078-.51-1.217-.581-2.364-1.586-2.93-2.804-2.818-4.785-5.961-9.316-8.779-14.102-8.806-14.965-19.17-28.968-29.067-43.212-4.22-6.102-8.269-12.46-12.332-18.689-.454-.92-1.19-1.869-1.94-2.676-3.313 4.715-6.088 9.784-8.325 15.079l3.596 2.025c9.981 5.691 18.052 14.13 23.007 24.607a55.84 55.84 0 0 1 4.772 33.287c-1.274 7.83-4.078 15.32-8.354 22.059a56.35 56.35 0 0 1-16.551 16.891 64.4 64.4 0 0 1-22.527 9.996c-8.084 1.841-16.367 1.926-24.48.609-9.656-1.515-18.86-5.522-26.66-11.511-.78-.665-1.7-1.217-2.804-1.5-.977-.128-2.11-.269-3.143.028-4.078.623-8.156.113-12.318.297-8.028.269-16.198.524-24.198.651-5.422.029-10.83-.085-16.126-.042q-1.72 0-3.313-.85c-1.076-.566-1.969-1.387-2.563-2.322-.736-.948-1.331-1.883-1.77-2.93C6.896 169.206 1.743 156.86.313 143.409c-.779-7.376-.298-14.597 3.68-21.224 4.532-7.56 11.13-11.298 20.007-10.307l2.804.354-.227-.453zm73.158-25.43c.113-.849-.085-1.585-.255-2.463-.58-2.208-1.147-4.431-2.166-6.555-1.36-2.747-3.045-5.239-5.183-7.504-3.823-3.625-7.546-3.526-11.27 0-2.775 2.79-5.31 5.89-7.447 9.189-4.036 5.918-6.966 6.541-12.545 2.124-.637-.652-1.416-1.175-2.223-1.572-2.648-1.614-5.31-3.1-8.155-4.318-4.489-1.714-6.598-.836-8.864 3.44-.566 1.076-1.147 2.28-1.585 3.512-3.087 8.594-3.342 17.415-2.322 26.25.34 2.902.977 5.833 1.019 8.835.212 6.159-4.021 9.188-9.911 7.305-1.515-.481-2.846-1.217-4.347-1.699-5.196-1.798-8.976-.141-11.454 4.828s-2.393 9.826-1.897 15.037c1.316 11.015 5.62 20.983 9.472 31.163.212.595.566 1.218 1.09 1.571.524.354 1.218.581 1.784.51 3.568.029 7.108.184 10.831.085 9.444-.226 19.044-.439 28.488-.68.877-.169 1.614-.368 2.491-.538-22.13-33.768-4.29-76.612 34.194-88.576l.283.043zm64.068-17.995-.567 1.076c5.295 7.802 10.463 15.447 15.745 23.263 5.309 7.66 10.873 15.504 16.155 23.447 5.281 7.943 10.024 15.546 15.263 23.772 1.557-3.228 2.718-5.649 3.893-8.212 9.869-21.592 19.738-43.17 29.606-64.761.411-.95.694-2.053 1.133-3.285-27.567.212-54.355 3.242-81.384 4.828zm-30.527 47.219c-.382.807-.934 1.742-1.345 2.69-2.038 4.885-4.219 9.6-6.258 14.485-.439 1.231-1.147 2.279-1.854 3.327a5.03 5.03 0 0 1-2.974 2.053c-1.175.283-2.463.255-3.511-.439-1.09-.425-2.11-1.402-2.549-2.464-.58-1.076-.694-2.378-.396-3.624.311-1.388.778-2.761 1.501-3.95 1.826-4.333 3.681-8.807 5.522-13.14.24-.821.495-1.656.594-2.492-12.559-2.307-26.901 5.013-33.089 16.793-3.157 5.734-4.148 12.459-2.803 18.774 1.458 6.47 5.04 12.049 10.392 16.013 6.386 4.8 14.357 7.235 22.4 6.839 15.064-.666 28.048-11.865 30.582-26.236 1.911-11.752-5.522-25.103-16.197-28.742v.142zm133.757 35.779c-.085.708.1 1.444.156 2.166.779 3.951 2.464 7.589 4.913 10.761s5.565 5.706 9.203 7.306c7.264 3.483 15.589 4.261 23.405 2.251 7.829-2.152 14.569-6.867 19.128-13.564 4.602-6.98 6.131-14.64 3.596-22.809-4.261-13.663-17.401-19.185-26.533-19.2-2.705-.056-5.494-.552-8.41 1.076 1.642 2.776 3.313 5.409 4.828 8.028 2.095 3.696 4.361 7.264 6.3 11.072 1.586 3.2.977 5.834-2.123 7.731-1.869 1.189-3.809 1.94-5.99 2.237-6.371.765-12.856 1.232-19.199 1.713-3.185.312-6.357.623-9.557 1.076l.269.17zm-20.048 1.742c.311 2.038.269 3.454.679 4.799 1.813 8.226 6.018 15.603 12.12 21.521 9.656 9.359 21.252 13.678 34.448 14.216 22.711 1.019 44.458-12.927 52.019-34.377 6.003-16.934 2.846-32.608-9.642-45.605-11.723-12.191-26.618-16.353-43.255-14.612-3.738.24-7.277 1.076-10.604 2.648.792 1.67 1.614 3.058 2.421 4.587q1.628 2.918 4.715 2.166c7.178-1.515 14.597-1.43 21.79.34 5.267 1.232 10.095 3.71 14.37 7.094a36.4 36.4 0 0 1 10.11 12.558 38.3 38.3 0 0 1 3.879 15.617c.17 5.451-.934 10.733-2.987 15.745-8.212 19.793-31.163 30.879-51.877 25.4-15.603-4.12-25.613-14.088-28.997-30.214-.071-.581-.284-1.176-.553-2.351l-8.523.779-.099-.297zm-117.616-56.28c-.524-.355-1.218-.581-1.756-.794-.963-.269-1.925-.524-3.058-.665-18.336-1.756-34.023 3.823-46.356 17.826-15.687 17.995-15.32 43.155.892 60.627 11.695 12.473 26.406 16.905 43.057 15.008 24.65-3.016 46.327-24.395 43.92-51.523-1.444-16.736-10.364-28.573-24.919-36.558l-1.261-.156c-.58 1.218-1.203 2.705-1.967 4.319 5.521 2.548 10.335 6.3 14.002 11.185 9.232 11.582 11.44 24.565 5.975 38.441-11.369 28.954-52.429 36.458-73.356 13.549-8.778-9.528-12.19-20.954-9.585-33.612 3.794-18.647 20.544-32.65 39.658-33.655 4.021-.198 8.113.17 12.545.156l1.968-4.319.269.17zm91.054 48.492c4.503-.566 8.297-1.231 12.035-1.472 2.435-.113 3.157-1.317 3.582-3.54 2.874-18.194 12.488-32.097 27.609-42.178.935-.595 1.883-1.331 2.988-2.195-4.29-7.815-8.014-15.574-13.154-23.503-11.893 24.041-22.469 47.813-33.329 72.704l.269.17zM280.116 33.17c-6.669-1.415-33.754 2.86-37.563 5.805.793.524 1.714 1.076 2.662 1.473 5.72 2.152 11.412 4.587 17.316 6.329a128 128 0 0 0 14.357 2.676c1.402.184 2.945.368 3.214-1.728.623-4.913.68-9.896-.127-14.71l.127.155zm-7.801 72.804c-13.182 6.031-25.33 24.197-24.481 35.58 1.728-.07 3.455-.269 5.324-.325.977.127 1.883-.184 2.676-.807s1.175-1.416 1.444-2.393c2.761-9.359 8.637-17.458 16.594-22.88.935-.595 1.742-1.345 2.69-2.082l-4.091-7.079h-.142zm9.67 17.203c-6.456 3.61-11.341 9.557-13.677 16.678l22.555-2.279z"/><path fill="#102185" d="M369.485 52.058c2.577-.1 5.197-.482 7.83-1.005 7.377-1.926 14.414-4.46 20.459-9.402a4.6 4.6 0 0 1 2.011-1.175c.75-.326 1.472-.382 2.336-.425.708.085 1.543.199 2.209.567.665.368 1.331.736 1.826 1.373s.821 1.388 1.161 2.138c.198.736.227 1.6.113 2.435-.113.836-.481 1.515-.863 2.322-.368.666-1.02 1.303-1.643 1.643-3.44 2.42-7.136 4.516-10.945 6.456-6.866 3.554-14.413 5.593-22.158 5.904-4.304.17-8.495-.51-12.417-2.28-.807-.382-1.77-.65-2.775-.637a4.33 4.33 0 0 0-2.69.95c-8.084 4.12-16.636 7.447-25.5 9.754a34 34 0 0 1-7.66.737c-1.401-.184-2.789-.496-3.978-1.218-1.076-.566-1.812-1.515-2.237-2.563-.439-1.047-.425-2.336-.142-3.44.142-1.119.835-2.04 1.784-2.775.935-.595 1.982-1.034 3.115-.892 10.421.028 19.1-5.437 28.813-8.906-.793-1.67-1.487-2.903-2.053-4.106-2.789-6.201-4.389-12.686-2.251-19.411.934-2.875 2.534-5.38 4.8-7.533 2.251-1.996 4.87-3.525 7.815-4.29 2.945-.764 5.932-.68 8.849-.014a19 19 0 0 1 7.745 4.262c4.715 4.445 5.706 10.137 4.488 16.41-.991 4.445-3.072 8.452-6.343 11.751-.665.765-1.359 1.685-2.18 2.577l.325.75h.142zm-11.582-6.598c4.092-3.044 7.901-5.99 8.821-11.016.651-4.049-1.132-6.852-4.771-7.447-1.685-.212-3.299.156-4.715 1.119-1.402.962-2.421 2.265-2.917 3.907-1.048 4.857.411 9.19 3.554 13.578v-.141z"/></svg>