<svg xmlns="http://www.w3.org/2000/svg" width="370" height="235" fill="none" viewBox="0 0 370 235"><path fill="#102185" d="m189.531 137.423-7.42 9.472c10.973 4.984 13.239 8.764 12.786 20.955l1.387.283c11.242-.595 16.311 6.498 16.736 17.132.099 3.058-.552 6.244-2.082 8.821-1.784 3.1-3.44 6.229-5.507 9.287-6.726 9.614-13.423 19.086-20.261 28.53-1.614 2.265-4.007 2.648-6.457 2.591-8.212-.085-16.438-.17-24.678-.113l-101.32-.552c-13.578-.015-27.297-.071-40.847-.227-2.719-.127-5.352-.651-7.943-1.472-1.246-.255-2.251-1.034-2.903-2.039-.665-1.006-.99-2.223-1.02-3.526-.042-19.666.34-39.233 4.716-58.574 4.743-20.417 13.748-38.384 29.591-52.344 4.375-3.738 9.33-6.768 14.428-10.506-6.23-13.408-7.674-27.567-2.124-42.05 5.692-14.443 15.66-24.41 29.988-30.88a104 104 0 0 1-2.548-3.116c-7.986-10.434-3.186-25.5 9.132-28.487 3.058-.82 6.385-.863 9.5.198 3.101 1.062 5.763 2.903 7.844 5.494 4.786 5.593 5.763 12.148 3.044 19.114-.17.835-.75 1.586-1.09 2.52 3.696 1.034 7.292 1.77 10.789 3.073 17.132 5.946 28.643 17.542 33.329 34.971 3.427 11.54 2.464 24.056-2.52 35.029-.085.41-.283.665-.509 1.048 0 0-.057.283.141.75a102 102 0 0 0 4.814 4.021c9.883 8.226 16.368 18.944 21.521 30.54.963 1.642 1.954 3.143 3.229 4.701 3.567-4.758 6.895-9.005 10.095-13.408.509-1.048.594-2.195.509-3.215-.509-20.19-.991-40.521-1.501-60.712-.283-12.77-.608-25.414-.778-38.015-.113-5.805 1.911-7.986 7.631-8.41 15.631-.864 31.248-1.586 46.851-2.308 38.795-1.77 77.561-3.413 116.469-5.027 3.498-.155 6.641.057 9.572 2.676 1.104.949 1.911 1.983 2.52 3.257a9.7 9.7 0 0 1 .934 3.95c.722 15.603 1.445 31.22 2.025 46.794.765 17.5 1.374 35.099 2.138 52.599.227 5.975-2.945 9.515-9.09 9.855-9.189.439-18.392.878-27.722 1.288-45.521 2.138-91.182 4.248-136.702 6.4-1.756.071-3.866-.213-6.301-.269l-.411-.085zm165.642-116.54-163.547 6.995c.75 28.912 1.458 57.37 2.322 86.452 1.317-1.472 2.067-2.322 2.846-3.327 13.507-17.33 26.859-34.703 40.395-52.175.807-1.132 1.755-2.237 2.817-3.185.892-.836 2.011-1.331 3.172-1.374 1.161-.056 2.421.199 3.27.963a4.08 4.08 0 0 1 1.884 2.846c.184 1.19.099 2.336-.538 3.355-.751 1.586-1.785 3.101-2.931 4.46-14.697 18.973-29.408 37.931-44.133 57.046-.948 1.104-1.784 2.378-3.186 4.261 54.568-2.605 108.088-4.998 161.805-7.631-1.458-33.245-2.76-65.88-4.148-98.813l-.028.142zm-217.449 90.658c-10.605 13.012-24.098 20.374-40.862 21.153-17.047.722-30.823-6.131-42.278-18.732-5.168 2.704-10.052 6.046-14.342 10.081-13.79 12.36-21.366 28.303-25.684 45.916-2.874 11.978-3.61 24.112-4.078 36.303-.212 5.309-.283 10.633-.368 15.971 3.823 1.062 94.042 1.529 96.845.509l-3.03-45.406c-3.058.821-5.776 1.43-8.509 2.025-3.313.623-6.046-.793-6.768-3.696-.736-2.747.878-5.026 3.88-6.286.311-.085.778-.269 1.09-.354 9.387-2.138 17.911-6.329 26.307-10.676 6.98-3.78 13.634-8.056 20.176-12.502 5.012-3.313 9.854-6.513 15.574-8.382.779-.269 1.558-.552 2.365-.963-5.182-10.01-11.2-18.76-20.629-25.004l.283.057zm27.256 36.487c-1.161-.666-2.379-1.062-3.696-1.034a7.7 7.7 0 0 0-3.667.991c-4.205 2.18-8.297 4.531-12.304 7.178-8.877 5.989-17.727 11.851-27.68 16.028-3.483 1.458-3.511 1.6-3.299 5.536.765 13.309 1.656 26.632 2.577 39.828.127 2.195.566 4.304.807 6.669 1.104.226 2.223.453 3.115.34 18.052.07 35.963.099 53.973.311.977.198 1.883-.042 2.69-.467.807-.411 1.529-1.133 2.124-1.883 5.054-7.065 10.081-13.989 15.093-20.912 2.039-2.903 3.964-5.99 5.748-9.09 1.062-1.657 1.841-3.384 2.096-5.352.523-6.103-2.195-9.118-8.085-7.136-2.506.934-4.927 2.18-7.235 3.582-.977.524-1.699 1.246-2.648 1.628-.977.524-2.024.736-3.143.51-1.118-.227-2.166-.736-2.86-1.6-.864-.75-1.218-1.841-1.43-2.888-.212-1.048 0-2.167.651-3.186.694-1.303 1.954-2.492 2.506-3.823 1.572-2.718 2.875-5.621 3.951-8.736 1.316-5.083-1.728-7.858-6.91-7.192-1.161.056-2.279.552-3.256 1.076-2.506 1.656-4.871 3.341-7.122 5.196-1.529 1.133-2.733 2.761-4.262 3.894-.92.962-2.308 1.401-3.582 1.288-1.303.028-2.492-.51-3.469-1.43-.963-.92-1.43-2.166-1.458-3.483-.029-1.303.368-2.52 1.175-3.667.779-.991 1.699-1.968 2.619-2.931 1.699-1.968 3.512-3.766 5.069-5.762.835-1.275 1.402-2.606 1.954-3.937l-.085.411zM95.432 42.532c-3.78 2.265-6.853 4.53-10.35 6.13-7.504 3.526-15.263 6.853-22.993 10.053-1.558.552-2.917 1.572-3.682 3.157-2.817 5.353-4.46 11.228-4.842 17.359-.382 5.408.41 10.775 2.251 15.914 1.84 5.14 4.517 9.741 8.17 13.805 3.653 4.063 8.056 7.277 12.927 9.571 4.884 2.294 10.236 3.681 15.532 3.894 21.762.962 41.569-14.655 44.812-36.246.651-3.908 1.331-7.972.679-11.851-.948-5.975-3.1-11.752-6.413-16.764-.553-.835-1.246-1.699-2.124-2.308-.892-.609-1.827-.948-2.945-1.175-6.499-1.472-12.899-3.355-19.256-5.508-4.134-1.713-8.07-3.667-11.978-5.762l.198-.255z"/><path fill="#102185" d="M294.362 59.069c.792-3.88 2.407-5.437 6.357-5.635 5.55-.312 11.058-.354 16.58-.524s11.029-.212 16.551-.382c6.527-.114 8.637 1.614 9.189 8.084.977 12.191 1.826 24.353 2.704 36.388.425 5.72-1.67 8.184-7.362 8.467-10.662.566-21.323 1.147-31.971 1.585-6.272.312-8.183-1.67-8.778-8-.849-9.995-1.671-20.133-2.633-30.298-.128-2.195-.397-4.418-.567-6.471a176 176 0 0 1-.042-3.327l-.028.141zm38.2 4.035-27.581.595 2.831 32.947 27.029-1.43zM224.361 49.442c-3.327-.68-4.913-2.153-5.125-4.659-.057-1.16.311-2.25.962-3.27.751-.864 1.756-1.515 2.945-1.713 1.36-.298 2.719-.595 4.163-.595 32.834-2.265 65.682-4.672 98.657-6.924 1.331-.155 2.606-.042 3.894.071 1.104.227 2.195.595 3.016 1.487.835.892 1.331 2.01 1.373 3.171.057 1.161-.481 2.365-1.09 3.243-.609.892-1.614 1.543-2.846 1.883-1.09.354-2.251.41-3.412.453l-98.601 6.64c-1.472.128-3.058.1-3.922.071l-.028.142zM270.362 98.84c-7.66-7.05-10.024-16.055-11.157-25.386-.538-4.445-.906-9.004-1.316-13.422-.029-.58-.029-1.302-.043-1.883-.028-1.302.51-2.492 1.43-3.469.92-.963 2.067-1.6 3.37-1.628s2.492.51 3.497 1.288c.963.92 1.6 2.068 1.77 3.398.51 3.144.595 6.33.934 9.586.623 4.757 1.275 9.359 2.337 14.06.792 3.921 3.114 7.418 6.385 9.825-.128-1.472-.156-2.775-.212-3.95-.057-1.16.453-2.223 1.062-3.1a6.57 6.57 0 0 1 2.845-1.884c1.062-.212 2.195-.127 3.243.368 1.047.51 1.741 1.374 2.265 2.337 2.28 6.527 2.308 13.479.128 19.963-.949 2.549-3.512 3.766-6.174 4.092-4.134.453-8.084.665-12.275.68-3.469.014-5.635-2.152-5.791-4.942l.425-2.081c.141-.694.665-1.161 1.231-1.77.524-.467 1.204-.906 1.813-1.076.637-.297 1.387-.439 2.081-.297.75-.142 1.501-.27 2.28-.552l-.114-.17zM99.396 94.055c-2.973-1.033-5.65-2.747-7.957-4.941a21.5 21.5 0 0 1-5.196-7.844c-.496-1.119-.552-2.28-.184-3.356s1.147-2.08 2.124-2.605c1.005-.665 2.364-.963 3.468-.736 1.246.255 2.28.892 3.101 1.784.935 1.062 1.544 2.336 2.464 3.54a11.1 11.1 0 0 0 2.492 2.676c1.019.637 2.081 1.146 3.327 1.401 1.529.312 3.115.34 4.559-.368 1.444-.722 2.534-1.798 3.115-3.27.425-.638.595-1.473 1.005-2.11.482-.92 1.204-1.629 2.181-2.152.948-.383 1.996-.609 2.973-.41 1.104.226 2.166.735 2.888 1.457.694.864 1.218 1.841 1.261 3.002.099 1.614-.1 3.3-.963 4.715-4.843 8.835-11.171 10.874-20.8 9.203l.142.028zM90.901 66.9c-.693-.143-1.387-.284-1.883-.68-.495-.397-.99-.78-1.444-1.445a5 5 0 0 1-.764-1.897c-.17-.609-.156-1.33-.015-2.025.284-1.387.95-2.548 2.124-3.327a5.95 5.95 0 0 1 3.809-.963c.694.142 1.387.283 1.883.68.495.396 1.133.807 1.472 1.317.468.523.638 1.147.765 1.897.17.609.156 1.33.014 2.025-.141.693-.283 1.387-.708 2.024-.424.638-.807 1.133-1.472 1.572a3.8 3.8 0 0 1-1.926.906c-.75.142-1.33.156-2.025.014l.17-.113zM115.353 64.647c-.283 1.388-1.09 2.52-2.237 3.158-1.175.778-2.506.934-3.894.65-.693-.14-1.246-.254-1.854-.806-.496-.397-.963-.92-1.445-1.444-.325-.496-.608-1.275-.764-1.897a3.14 3.14 0 0 1 .113-1.997c.142-.694.397-1.218.807-1.855.397-.495.92-.962 1.444-1.444.496-.325 1.275-.609 1.898-.764.608-.17 1.302-.029 1.996.113.694.141 1.359.425 1.855.807.495.396.963.92 1.444 1.444.326.496.609 1.274.765 1.897.141.75.155 1.331-.114 1.997l-.028.141z"/></svg>