<svg xmlns="http://www.w3.org/2000/svg" width="372" height="127" fill="none" viewBox="0 0 372 127"><path fill="#102185" d="M267.995 109.193c1.671 2.011 3.766 3.596 6.159 4.757s4.927 1.77 7.476 1.954c5.946.227 11.751.17 17.698-.17 10.492-.566 20.969-1.26 31.602-1.812 9.926-.566 19.837-.849 29.606-1.274 1.982.028 3.837-.51 5.678-.623 2.973-.241 4.941 1.062 5.465 3.766.524 2.563-.92 4.942-3.766 5.749-.991.269-1.982.396-2.988.523-13.323.666-26.632 1.176-40.097 1.983-10.916.552-21.833 1.529-32.735 1.939-4.672.213-9.203-.127-13.861-.764-7.349-.949-14.088-4.871-18.534-10.747-1.529-2.01-2.945-2.308-5.224-1.486-13.649 4.049-27.44 7.971-41.089 12.02-3.271 1.091-6.81 1.317-10.208.85-10.605-1.572-21.196-2.705-31.659-4.135l-78.736-10.038c-14.98-1.911-30.102-3.823-45.096-5.734-11.879-1.444-23.743-3.03-35.481-4.616-1.557-.311-2.96-.609-4.517-1.062-4.092-1.189-4.927-2.053-5.295-6.442s-.58-8.934-.666-13.465C1.104 64.494.481 48.496 0 32.624c.028-1.983.198-4.107.793-6.075.609-2.959 2.336-4.502 5.465-5.734 3.837-1.36 7.816-2.435 11.936-2.945a4632 4632 0 0 1 61.307-9.755c12.346-1.954 24.693-3.752 36.897-5.706 1.699-.255 3.271-1.232 4.984-1.628a16.3 16.3 0 0 1 5.253-.779c11.737.878 23.617 2.039 35.354 3.044l38.469 3.384 53.464 4.87 47.657 4.22c3.257.325 6.641.665 10.039.99 2.407.17 4.233 1.049 4.899 3.611.68 2.28-.057 3.682-2.634 5.621-.566.27-1.005.836-1.288 1.402-1.756 4.36-4.092 8.58-4.163 13.536-.07 4.955-.708 10.18-.637 15.419.312 7.645 2.053 15.036 5.352 22.03.269.991.821 1.855 1.515 2.577s1.544 1.303 2.662 1.6c1.827.595 3.511 1.614 4.913 2.761 3.228 2.45 3.016 6.838-.821 8.34-4.843 1.91-9.954 3.397-15.079 4.884-11.653 3.37-23.178 6.754-34.831 9.982-.849.269-1.713.68-3.27 1.232l-.283-.283zM8.566 31.038l-.07 5.097c.75 17.287 1.344 34.717 1.953 51.99.1 2.973.241 3.257 3.2 3.582l29.818 3.823 50.037 6.513 45.52 5.749 56.252 7.164 3.398.042.029-2.265c-1.02-17.854-2.039-35.708-3.214-53.435-.34-5.521.778-5.224-6.004-6.031-15.404-1.912-30.823-3.696-46.369-5.607-25.302-3.186-50.462-6.244-75.763-9.43l-53.577-6.71c-1.699-.17-3.398-.327-5.663-.51h.425zm30.682-7.08v.708c1.402.297 2.959.61 4.375.765 22.187 2.718 44.387 5.437 66.574 8.17l76.046 9.57c5.225.638 10.605.581 15.532 2.917.85.156 1.699.029 2.549-.099 4.261-1.076 8.523-2.138 12.643-3.214 21.465-5.79 42.929-11.426 64.394-17.217 1.133-.269 2.28-.82 3.412-1.09-2.251-.878-4.516-1.345-6.923-1.373-9.473-.836-18.945-1.685-28.431-2.52-25.882-2.35-51.764-4.701-77.505-7.051-11.737-1.02-23.616-2.18-35.354-3.186a38.4 38.4 0 0 0-8.07-.113c-12.63 1.798-25.118 3.893-37.747 5.833l-38.88 5.96c-4.261.652-8.509 1.43-12.77 2.082l.14-.142zm262.02 6.273c-1.133.127-1.982.254-2.704.523-24.027 6.457-48.182 12.913-72.209 19.228-3.979 1.076-6.839 2.591-7.462 6.839l-.028 1.557c3.384 1.317 6.753 2.648 10.279 3.823 8.736 3.1 16.438 8.735 21.861 16.31a116 116 0 0 1 10.491 18.846c.411.85.963 1.713 1.515 3.001l45.067-13.096c-10.081-18.265-10.803-37.252-6.838-57.017zm-87.472 36.982c-.439.708-.736 1.543-1.02 2.251-1.925 6.202-2.732 12.842-2.109 19.369.594 7.518 2.478 14.626 7.065 20.771 1.529 2.01 3.072 2.874 5.918 2.067 8.963-2.846 17.911-5.267 26.873-7.83a15 15 0 0 0 2.28-1.104c-2.421-9.09-7.405-17.245-14.258-23.418-6.853-6.33-15.433-10.563-24.608-12.106z"/><path fill="#102185" d="M33.98 45.974c18.236 2.237 36.473 4.489 54.71 6.726 16.395 1.925 32.649 3.865 48.903 5.932 11.03 1.288 21.903 2.719 32.933 4.149.85 0 1.558.028 2.266.311 1.274.297 2.251 1.02 2.945 2.025.693 1.005.962 2.28.792 3.554 0 .566-.297 1.132-.594 1.684a3.56 3.56 0 0 1-1.147 1.26c-.425.425-1.005.553-1.572.68a3.45 3.45 0 0 1-1.699-.028c-4.389-.34-8.622-.977-13.012-1.459-23.885-2.888-47.785-5.776-71.53-8.664-18.377-2.237-36.755-4.489-55.133-6.867-1.274-.014-2.549-.468-3.667-.907-.991-.439-1.685-1.16-2.096-2.151-.41-.992-.538-1.997-.382-2.974 0-.991.595-1.826 1.317-2.534.722-.553 1.713-.963 2.704-.949l4.248.057v.141zM34.18 71.617l54.283 6.71c16.113 1.927 32.367 3.852 48.635 5.792 10.322 1.274 20.785 2.42 30.965 3.695 1.133.014 2.266.312 3.384.75a5 5 0 0 1 2.379 2.153c.552.99.821 2.138.524 3.129 0 .566-.156 1.132-.453 1.557s-.581.835-1.006 1.26c-.424.425-1.005.552-1.43.694-.566.127-1.133.128-1.699.113-3.681-.198-7.348-.665-11.171-1.147-24.027-2.888-47.927-5.776-71.954-8.665-18.095-2.237-36.19-4.474-54.284-6.57-2.407-.31-4.234-1.188-5.055-3.468-.27-.85-.397-1.7-.1-2.69.156-.85.737-1.685 1.445-2.251 1.586-1.53 3.554-1.218 5.536-1.048z"/></svg>