<svg xmlns="http://www.w3.org/2000/svg" width="279" height="356" fill="none" viewBox="0 0 279 356"><path fill="#102185" d="M43.791 201.243c.425-6.513.85-12.318 1.274-18.548-4.247 3.257-8.07 6.23-12.035 8.92-2.548 1.699-5.238 3.257-8.07 4.248-4.106 1.557-7.08 0-8.495-4.248-2.832-8.353-4.531-17.132-4.815-25.91 0-6.088 1.133-12.035 2.832-17.84a28.85 28.85 0 0 1 6.23-10.902c2.549-2.973 5.805-5.38 9.487-6.796 3.68-1.416 7.645-1.982 11.468-1.558 1.133.142 2.124 0 3.115-.283s1.982-.849 2.832-1.557c1.84-1.416 3.823-2.549 5.946-3.54 2.266-.849 4.531-1.557 6.796-1.982 0-.991 0-1.982-.141-2.549-11.186-3.822-21.521-9.486-30.866-16.848C22.41 96.611 16.182 90.381 10.8 83.444 5.704 76.506 2.023 68.577.324 60.082c-1.133-4.956.708-7.929 5.522-9.345 4.955-1.699 10.194-2.69 15.433-2.973 6.512-.283 12.884.708 18.83 3.256 7.646 3.257 15.15 7.221 21.239 13.026 6.654 6.371 11.327 13.734 12.176 23.362a67 67 0 0 1-.85 16.849c-.566 3.114-1.84 5.946-3.68 8.495.565 5.522 1.132 10.902 1.698 16.565 2.266-2.123 4.248-3.964 6.372-5.946 3.681-2.974 7.645-5.664 11.751-7.788 2.549-1.415 4.531-3.822 5.38-6.512 6.514-16.708 10.761-34.123 16.283-51.113 1.133-4.106 2.832-7.929 5.239-11.468 1.132-1.558 2.548-2.974 3.964-4.248a6.27 6.27 0 0 1 4.673-1.557c4.672 0 9.203.566 13.592 1.982a101.5 101.5 0 0 0 12.743 2.548c11.752 2.124 23.361 4.39 35.113 6.513s23.645 4.39 35.538 6.655c5.805 1.132 11.469 2.548 17.274 3.681 3.823.708 7.646.991 11.469 1.699 7.645 1.274 15.149 2.69 22.653 4.106.425 0 .991.283 1.416.425 3.398 1.133 4.814 3.54 3.823 7.08-5.38 18.122-10.619 36.387-15.999 54.51-6.796 23.078-13.31 46.298-20.247 69.235a34.5 34.5 0 0 0-1.274 13.168c.283 3.681.424 7.504.283 11.185q0 31.645.425 63.289c.141 19.822.424 39.644.566 59.324v4.248c0 1.557-.85 2.973-1.982 4.106-1.133.991-2.69 1.557-4.248 1.557h-2.265c-51.68 0-103.359-.141-155.038-.283-15.857 0-31.574-.283-47.431-.424-4.39 0-7.221-2.691-7.363-7.08-.283-9.628-.566-19.255-.708-28.883-.283-15.716-.566-31.291-.99-47.007-.142-9.628-.425-19.256-.709-28.883l-.707-31.574v-2.69c0-3.54 1.557-5.239 4.955-5.664s7.08-.566 10.619-1.132c2.832-.284 5.522-.85 8.212-1.275zM32.747 345.094c5.38.991 194.398 1.558 198.788.567v-4.106c-.284-22.371-.567-44.741-.708-67.112-.142-19.539-.142-39.078-.283-58.617a5.7 5.7 0 0 0-.85-4.247c-1.416 5.38-2.69 10.052-4.106 14.866-3.398 12.035-6.796 24.212-10.053 36.246-1.416 5.381-2.832 10.619-4.247 16-.425 1.84-1.416 3.681-2.832 4.955a10.03 10.03 0 0 1-5.097 2.407c-2.265.425-4.531.566-6.938.566-14.583 0-29.308.142-43.892-.708-8.92-.566-17.981-.424-26.901-.708-10.336-.283-20.814-.566-31.15-.849-9.627-.283-19.255-.425-28.883-.85-4.106-.283-8.212-.707-12.176-1.557-5.097-.991-7.788-4.672-9.204-9.345-2.973-9.628-5.663-19.114-8.495-28.742-1.699-5.805-3.256-11.751-4.814-17.698-.424 1.416-.707 2.832-.566 4.248.142 6.229.425 12.601.566 18.831.284 10.619.567 21.238.708 31.998.284 16.566.708 33.131.991 49.697v11.185c-.141.991 0 1.982 0 2.832zm4.39-132.949c2.548 9.062 4.813 17.84 7.22 26.335 2.832 9.911 5.947 19.822 8.779 29.875.849 3.115 2.69 4.247 5.805 4.53 5.238.284 10.477.992 15.716 1.275 10.477.425 21.096.566 31.573.991 7.788.283 15.717.425 23.504.708 12.318.283 24.636.708 36.954.849h31.999c2.831 0 2.973 0 3.681-2.831a910 910 0 0 1 2.548-9.628l13.593-49.697c.283-.991.424-1.982.708-3.398H55.826c-6.088 0-12.318.708-18.831.991zm171.461-11.185 29.875-103.358c-16.991-3.256-33.981-6.23-50.689-9.345s-33.839-6.23-51.112-9.344c-3.115 10.76-6.23 20.954-9.345 31.432l16.707 4.955c.283-.566.708-1.274 1.133-1.84 1.84-2.832 3.539-5.947 5.663-8.637 2.832-3.681 6.655-6.513 11.044-8.212 2.69-1.133 5.663-1.274 8.495-.283 2.832.99 5.097 2.973 6.513 5.522 1.133 2.123 2.124 4.389 2.973 6.654.85 1.982 1.417 4.106 1.983 6.23 1.274 4.814 4.389 7.646 9.061 9.061 2.832.85 5.522 1.841 8.354 2.974 7.787 3.398 12.601 9.203 13.734 17.698.566 4.106.849 8.212.991 12.318 0 6.371-1.557 12.601-4.956 17.981-2.407 4.39-5.805 8.212-9.911 11.327-4.106 2.974-8.637 5.239-13.592 6.372q-.637 3.822-1.274 8.495zM130.442 51.445c2.69 5.663 5.239 10.902 7.787 16.14.283.709.85 1.275 1.416 1.7a3.8 3.8 0 0 0 2.124.708c17.273 3.115 34.405 6.23 51.679 9.345 15.574 2.831 31.149 5.663 46.723 8.636a6.1 6.1 0 0 0 2.266 0c.708-.141 1.416-.425 1.982-.99 4.672-3.399 9.486-6.655 14.159-9.912.566-.425.991-.991 1.416-1.557L130.442 51.303zm22.654 69.236c1.699 1.274 3.398 2.407 4.955 3.681 1.699 1.274 3.398 2.69 4.956 4.247 14.442 13.876 21.804 31.008 22.937 50.83 0 .849.283 1.557.425 2.69 3.964-1.558 7.504-3.964 10.335-7.079s4.956-6.938 6.23-10.903c1.841-5.663 1.133-11.326.425-17.131-.85-6.372-4.814-9.911-10.478-12.035-1.84-.708-3.681-1.133-5.521-1.699-7.221-2.266-12.318-6.655-14.584-14.017-.566-1.558-.991-3.115-1.557-4.673-.708-2.123-1.416-4.389-2.407-6.513s-2.124-2.407-4.106-1.557c-.991.425-1.841.991-2.549 1.557-4.247 3.115-7.504 7.646-9.203 12.602zm65.838 80.137c5.238.85 9.769.708 12.176-.283 11.043-38.228 22.229-76.456 33.556-115.534-5.239 3.681-9.77 6.654-14.3 9.91-.991.85-1.558 1.983-1.841 3.116-9.062 31.007-17.982 61.873-26.901 92.88-.992 3.115-1.841 6.372-2.832 9.77zM63.614 93.921c.707-2.832.848-5.664.14-8.495-.99-4.39-3.114-8.496-6.23-11.752-6.229-6.796-14.016-11.185-22.512-14.442-6.513-2.548-13.309-2.407-20.105-1.132-1.557.283-3.115.707-4.814 1.132 0 .708 0 1.416.142 2.124 2.124 7.363 5.946 14.3 11.044 20.105a106.7 106.7 0 0 0 32.706 24.495c1.133.566 2.407.991 3.965 1.557 0-.849 0-1.557-.142-2.407-1.7-6.088-4.53-11.61-9.628-15.857-1.274-.992-2.265-1.983-3.398-3.115-.566-.85-.991-1.841-.991-2.832s.283-1.982.991-2.832c.708-.708 1.699-1.274 2.69-1.416q1.486-.212 2.974.425c.707.425 1.274.85 1.982 1.274 3.68 2.69 6.796 5.947 9.061 9.911.708.991 1.274 1.983 1.982 3.115zm59.749 107.18c2.265-6.088 4.53-11.893 6.796-17.839.283-.567.283-1.133.141-1.699 0-.567-.424-1.133-.849-1.558l-4.673-5.522c-2.265-2.69-4.53-5.238-6.796-7.929-.566-.707-1.274-1.132-1.982-1.415-.849-.284-1.699-.284-2.407 0-2.69.566-5.522.849-8.354 1.274s-5.805.849-8.636 1.557c-1.275.283-2.549 1.133-3.398 2.266-3.682 5.663-7.08 11.61-10.62 17.415l7.08 13.309h33.698zm39.219-30.441c1.274-5.238 1.841-10.477 3.681-15.149 1.841-4.673.283-8.354-2.69-11.752s-5.664-7.362-9.628-9.769l-20.813 7.221q-.85.212-1.699.849c-.425.425-.85.991-1.133 1.558-1.699 4.105-3.54 8.211-5.38 12.317-.425.708-.566 1.416-.566 2.124s.424 1.416.991 1.982c3.681 4.106 7.221 8.354 10.76 12.602.425.566 1.133 1.132 1.841 1.274a3.13 3.13 0 0 0 2.265 0c1.558-.283 2.973-.566 4.531-.708zm-85.377-34.547c5.664 6.938 11.327 13.876 16.85 20.672.282.425.849.85 1.415.991s1.133.283 1.699 0l15.15-2.407c.708 0 1.415-.283 1.982-.708q.85-.637 1.274-1.699c1.841-4.389 3.823-8.637 5.805-13.026l-14.3-18.972c-13.026 2.548-22.796 7.504-29.875 15.008zM24.393 185.81c.85-.425 1.133-.425 1.416-.566a110.8 110.8 0 0 0 20.955-18.123c1.133-1.275 4.531-11.186 4.39-12.885v-.707c-.85-3.54-2.408-6.938-4.673-9.911-.85 1.415-1.699 2.831-2.69 4.105-.85 1.416-1.982 2.549-3.398 3.54-.708.425-1.416.566-2.266.566-.849 0-1.557-.283-2.265-.566-.708-.425-1.133-.991-1.558-1.699a5.9 5.9 0 0 1-.424-2.265c.142-1.416.708-2.69 1.416-3.965.85-1.699 1.982-3.398 3.115-5.238-2.266 0-4.39.566-6.372 1.557s-3.681 2.549-4.955 4.248c-1.982 2.831-3.54 5.946-4.673 9.203-2.832 7.645-1.699 15.433-.425 23.22.425 2.973 1.416 6.088 2.266 9.486zm45.592-42.617c-8.92 11.185-14.16 24.919-14.867 39.219H72.25c.708 0 1.416-.283 1.982-.566.566-.425.991-.991 1.274-1.558 2.549-4.247 5.097-8.353 7.504-12.601.991-1.557 1.84-3.256 2.974-4.955-5.098-6.938-10.478-13.309-16-19.539m93.73 37.378-20.955 2.832c-.708 0-1.416.283-1.982.708s-.991.991-1.133 1.699c-1.274 3.681-2.832 7.363-4.106 11.185-.425 1.133-.85 2.266-1.416 3.823h39.928c.424-1.982.849-3.964 1.132-5.805.283-.991.283-2.124 0-3.256-.283-.991-.991-1.982-1.84-2.69-3.257-2.832-6.372-5.805-9.628-8.779zm-46.582-70.651c.991-3.115 1.84-6.088 2.831-8.92 2.832-9.486 5.664-18.83 8.495-28.317a2.75 2.75 0 0 0 0-2.124c-2.123-4.672-4.388-9.344-6.795-14.3-.142.425-.425.708-.567 1.133-5.38 17.415-10.76 34.688-16.141 52.103v1.699zm-61.307 82.686c-.708 2.974.425 5.664.99 8.212 6.514.567 18.549.425 21.38-.425l-4.247-7.787zm62.722-72.492c3.257 4.389 6.23 8.212 9.204 12.177 5.238-1.699 10.335-3.398 15.716-5.664a58.7 58.7 0 0 0-24.92-6.513m-65.837 14.867 4.814 8.637c1.84-1.7 3.681-3.257 3.964-5.239.284-1.982-.566-4.673-.85-7.079-2.973.141-5.946 1.557-7.928 3.822zm123.18 42.9c.283-4.389-.991-8.07-1.84-12.742a216 216 0 0 0-1.983 7.362c-.141.708-.141 1.416 0 1.982.283.708.708 1.133 1.416 1.558.708.424 1.416 1.132 2.266 1.84z"/><path fill="#102185" d="M80.32 14.208c-1.274 5.239 3.398 7.362 6.796 10.194a8.26 8.26 0 0 0 3.682.85h4.955c.85 0 1.557.283 2.265.566s1.275.991 1.558 1.699c.425.708.566 1.416.566 2.265 0 .708-.141 1.558-.566 2.266-.708 1.557-1.7 2.831-2.832 3.964-2.973 2.832-5.239 6.371-6.796 10.194s-2.124 7.93-1.84 12.035c0 4.248.424 8.495.707 12.743v3.115c0 1.132-.566 2.124-1.274 2.973-.708.85-1.84 1.274-2.974 1.416a5.1 5.1 0 0 1-2.831-.85c-.85-.566-1.558-1.415-1.84-2.407-.425-1.557-.85-3.256-1.133-4.813-1.275-6.23-2.549-12.46-3.965-18.69-.142-.99-.708-1.982-.99-2.973-.567-2.407-1.983-4.672-3.965-6.23a11.16 11.16 0 0 0-6.938-2.407c-1.133 0-2.266-.425-3.257-.99a6.3 6.3 0 0 1-1.557-1.134q-.637-.849-.85-1.699c-.141-.566-.141-1.274 0-1.982 0-.566.425-1.274.85-1.699.566-.991 1.416-1.84 2.265-2.548 1.275-1.133 2.69-2.124 4.106-2.974 4.673-2.548 6.088-6.654 6.372-11.468 0-1.7 0-3.257-.284-4.956 0-1.982-.424-3.823-.424-5.805 0-1.132.283-2.124.99-3.115.709-.85 1.7-1.415 2.691-1.699 1.133-.141 2.265 0 3.115.708.85.567 1.557 1.558 1.84 2.69.567 2.549 1.133 5.24 1.416 7.93v2.973zm4.955 20.247L76.64 28.65l-3.823 4.247c4.106 1.84 6.513 5.239 8.778 8.92a305 305 0 0 1 3.823-7.362zM186.085 108.787c0-8.212 5.522-13.45 12.602-13.309 3.539 0 7.079 1.275 9.911 3.54a16.23 16.23 0 0 1 5.663 8.92c.566 1.982.566 4.106-.142 6.088-.566 1.982-1.84 3.681-3.398 4.956-4.955 4.247-10.477 3.964-16.14 1.415-5.381-2.548-8.213-6.796-8.354-11.61zm16.141 3.823c.567-.283 1.841-.566 2.266-1.416.283-.991.283-2.265-.284-3.256-.708-1.699-4.53-3.257-6.371-2.973-.425 0-.991.283-1.274.424-.425.284-.708.567-.85.991-.283.425-.283.85-.283 1.416 0 .425 0 .991.425 1.275 1.274 2.407 3.398 3.256 6.371 3.398z"/></svg>