<svg xmlns="http://www.w3.org/2000/svg" width="300" height="300" fill="none" viewBox="0 0 300 300"><path fill="#3558a2" d="m157.479 224.437 3.16 11.38c3.38-.88 6.52-1.71 9.67-2.51.87-.246 1.766-.391 2.67-.431a3.37 3.37 0 0 1 3.58 2.721 3.57 3.57 0 0 1-2 3.809 8.6 8.6 0 0 1-1.78.641c-21.42 5.789-42.82 11.65-64.27 17.3-5.77 1.52-11.69 2.47-17.55 3.61a3.681 3.681 0 0 1-4.55-2.451c-.54-1.94.57-3.82 2.94-4.46 3.4-.93 6.86-1.649 10.3-2.459.43-.1.85-.231 1.61-.431l-3.39-12.819c-4.25 1-8.29 1.9-12.32 2.87q-15.85 3.81-31.71 7.669c-3 .73-4.67-.25-5.36-3.24q-10.611-46.199-21.18-92.419c-1.1-4.83.84-7.78 5.8-8.92a69230 69230 0 0 1 73.48-16.92l65-14.94c4.13-.94 7.39.94 8.42 5.1q6.58 26.76 13.07 53.57l8.55 35.1c1.29 5.29.26 7.1-5 8.4-6.51 1.62-13 3.1-19.55 4.73s-12.78 3.32-19.59 5.1m15.65-104.91-139 32c6.93 30 13.8 59.76 20.71 89.64l139.69-33.48c-7.12-29.43-14.24-58.66-21.4-88.16m-64.62 130.399 45.07-12.329c-1.06-3.9-2.06-7.53-3.08-11.29-15.55 2.7-30.54 6.639-45.64 10.569 1.25 4.45 2.43 8.621 3.65 13.05M198.028 104.845c-2.3-1.72-4.36-3.08-6.21-4.67-13.12-11.28-14.93-28.32-4.45-42.1 6.33-8.32 14.79-13.54 24.71-16.48 13-3.85 25.75-3.53 38.3 1.72a38.8 38.8 0 0 1 11 6.92c13.05 11.72 14.47 29 3.44 42.63-7.51 9.3-17.49 14.47-29 16.91-1.79.38-3.58.59-4.61 2.39-.167.22-.383.398-.63.52-9.25 5.48-17.64 12.49-28.07 15.88-.86.28-1.71.63-2.58.87-3.68 1-6-.92-5.37-4.65.65-4.11 1.41-8.21 2.12-12.31.44-2.57.9-5.14 1.35-7.63m4.53 16a49 49 0 0 0 5.08-2.33c5.74-3.5 11.41-7.09 17.09-10.67a5.65 5.65 0 0 0 1.8-1.59 6.77 6.77 0 0 1 5.18-3.06 48.3 48.3 0 0 0 16.85-5.91c5.6-3.24 10.32-7.4 13.47-13.15a21.815 21.815 0 0 0-2.16-25.18 29.6 29.6 0 0 0-11.39-8.64c-13.4-5.91-26.8-5.4-40.09.34a36.55 36.55 0 0 0-16 12.7c-3.59 5.18-5.32 10.88-4.22 17.23a23.28 23.28 0 0 0 8.68 14.36 77 77 0 0 0 6.54 4.38c2.09 1.37 2.66 2.68 2.16 5.07-.26 1.24-.59 2.46-.8 3.71-.73 4.13-1.41 8.21-2.19 12.79zM258.369 169.597c-.3 9.12-1.74 17.92-5.34 26.29a32.4 32.4 0 0 1-7.36 11c-6.53 6.16-14.77 5.93-21-.67-4.22-4.49-6.56-10-8-15.87a85 85 0 0 1-1.65-9.92 3.79 3.79 0 0 0-1.57-2.92c-3.43-2.54-6.81-5.15-10.16-7.8-4-3.16-3.57-7.16 1.1-9.29 3.46-1.58 7-2.9 10.55-4.36a4.52 4.52 0 0 0 2.87-3.46 34.15 34.15 0 0 1 9.16-16.43c6.68-6.41 14.8-6.2 21.15.56 5 5.36 7.38 12 8.62 19.09.85 4.56 1.12 9.19 1.63 13.78m-47.92-3.67c.51.46.87.83 1.28 1.15q4 3.09 8 6.16a5.79 5.79 0 0 1 2.38 4.61 46.1 46.1 0 0 0 3.73 16.63 30.2 30.2 0 0 0 4.84 7.46c2.64 2.91 5.86 2.95 9 .57a11.9 11.9 0 0 0 3.21-3.28 57.3 57.3 0 0 0 4.73-9.42 61.6 61.6 0 0 0 2.61-29.78c-.81-5.49-2.23-10.84-5.22-15.63-4.54-7.26-10.13-7.47-15.22-.55a39.7 39.7 0 0 0-5.88 13.06 5.93 5.93 0 0 1-3.27 4.3c-3.27 1.59-6.56 3.04-10.19 4.72"/><path fill="#fff" d="M173.128 119.527c7.17 29.5 14.28 58.73 21.43 88.17l-139.69 33.48c-6.91-29.88-13.78-59.64-20.71-89.64zm-99.43 72.52c.28 4.71.46 8.15.68 11.59.36 5.53 4.09 9 8.75 10.2 7.8 2 15.44 1.8 22.76-2a68.8 68.8 0 0 1 21.93-6.87 139 139 0 0 0 14-3.06c8.27-2.1 12.71-8.1 15.49-15.68a4.8 4.8 0 0 0 .34-1.59c.08-3.66-.23-7.27-2-10.56a38.26 38.26 0 0 0-10.36-12.47c-3.33-2.52-6.65-5-9.94-7.62a15.05 15.05 0 0 0-11.75-3.2 67 67 0 0 0-6.55 1.72 39 39 0 0 1-5.56 1.08c-2.25.21-4.54 0-6.79.2-4.89.49-9.13 2.78-13.4 5a22.6 22.6 0 0 0-9.24 9c-1.44 2.51-3.09 4.91-4.61 7.38a20.5 20.5 0 0 0-3.17 8.89c-.27 3.09-.45 6.16-.58 7.99m86.82-54.1a3.85 3.85 0 0 0 3.41 3.91 3.515 3.515 0 0 0 3.73-3.47 3.6 3.6 0 0 0-.837-2.65 3.62 3.62 0 0 0-2.473-1.27 3.813 3.813 0 0 0-3.83 3.48m12.08 14.93c.01-.495-.08-.987-.264-1.447a3.7 3.7 0 0 0-2.023-2.056 3.7 3.7 0 0 0-1.443-.287 3.49 3.49 0 0 0-3.27 3.6 3.9 3.9 0 0 0 3.77 3.82 3.5 3.5 0 0 0 3.23-3.63m1.18 11.42a3.52 3.52 0 0 0-3.39 3.5 3.45 3.45 0 0 0 2.193 3.132 3.43 3.43 0 0 0 2.633-.057 3.45 3.45 0 0 0 1.821-1.903c.164-.421.243-.87.233-1.322a3.39 3.39 0 0 0-1.042-2.407 3.4 3.4 0 0 0-2.448-.943m-21-23.85a3.34 3.34 0 0 0-2.13-3.151 3.4 3.4 0 0 0-1.32-.229 3.56 3.56 0 0 0-3.4 3.51 3.61 3.61 0 0 0 3.51 3.42 3.54 3.54 0 0 0 3.32-3.55zm3.44 14.12a3.25 3.25 0 0 0-3.15-3.34 3.29 3.29 0 0 0-.1 6.58 3.2 3.2 0 0 0 2.297-.94 3.2 3.2 0 0 0 .933-2.3zm28.46 41.77a3.317 3.317 0 0 0-3.19-3.39 3.32 3.32 0 1 0 3.19 3.39m-3.39-14.54a3.27 3.27 0 0 0-3.36-3.16 3.4 3.4 0 0 0-3.08 3.48 3.286 3.286 0 0 0 3.27 3 3.1 3.1 0 0 0 1.252-.249 3.13 3.13 0 0 0 1.727-1.808 3.2 3.2 0 0 0 .191-1.263"/><path fill="#979fbb" d="M108.507 249.927c-1.24-4.43-2.4-8.6-3.65-13.05 15.1-3.93 30.09-7.87 45.64-10.57 1 3.76 2.001 7.39 3.081 11.29z"/><path fill="#fff" d="M202.558 120.897c.78-4.58 1.46-8.66 2.18-12.74.21-1.25.54-2.47.8-3.71.5-2.39-.07-3.7-2.16-5.07a77 77 0 0 1-6.54-4.38 23.29 23.29 0 0 1-8.68-14.36c-1.1-6.35.63-12 4.22-17.23a36.55 36.55 0 0 1 16-12.7c13.29-5.74 26.69-6.25 40.09-.34a29.6 29.6 0 0 1 11.39 8.64 21.82 21.82 0 0 1 2.16 25.18c-3.15 5.75-7.87 9.91-13.47 13.15a48.4 48.4 0 0 1-16.85 5.91 6.75 6.75 0 0 0-5.18 3.06 5.65 5.65 0 0 1-1.8 1.59c-5.68 3.58-11.35 7.17-17.09 10.67a50 50 0 0 1-5.07 2.33m30.53-41.36c3.45 4.12 7 4.9 10.6 1.57a56.3 56.3 0 0 0 7.35-9 3.369 3.369 0 0 0-.81-4.64 3.45 3.45 0 0 0-2.567-.713 3.46 3.46 0 0 0-2.313 1.323c-1.38 1.54-2.51 3.32-3.79 5-.51.66-1.13 1.23-1.7 1.84a17 17 0 0 1-.54-4.32c-.14-1.9-.76-3.58-2.8-4.24-1.83-.58-3.34.09-4.83 2.16s-3.09 4.48-4.68 6.68a8.6 8.6 0 0 1-1.48 1.23c-.1-1-.19-1.64-.22-2.26 0-.82 0-1.64-.06-2.45-.12-2.62-1.11-4.22-2.9-4.74s-3.21.21-4.75 2.34c-.64.88-1.23 1.79-1.86 2.68l-3.76 5.29c-1.11-2.06-.81-3.82-.62-5.6.24-2.34-.83-4-2.73-4.36s-3.75.76-4.26 3.18a15.7 15.7 0 0 0 .66 9.34c2.16 5.19 7.57 6.42 11.73 2.67a16 16 0 0 0 1.85-2.5c4.14 6.17 8.14 5.89 14.48-.48"/><path fill="#979fbb" d="M210.447 165.927c3.63-1.68 6.92-3.18 10.19-4.72a5.9 5.9 0 0 0 2.153-1.756 5.9 5.9 0 0 0 1.117-2.544 39.7 39.7 0 0 1 5.88-13.06c5.09-6.92 10.68-6.71 15.22.55 3 4.79 4.41 10.14 5.22 15.63a61.6 61.6 0 0 1-2.61 29.78 57 57 0 0 1-4.73 9.42 11.9 11.9 0 0 1-3.21 3.28c-3.17 2.38-6.39 2.34-9-.57a30.2 30.2 0 0 1-4.84-7.46 46.1 46.1 0 0 1-3.73-16.63 5.777 5.777 0 0 0-2.38-4.61q-4-3.07-8-6.16c-.44-.28-.77-.69-1.28-1.15m22.47.14v4.5c0 1.63-.1 3.27 0 4.89a3.54 3.54 0 0 0 3.55 3.4 3.82 3.82 0 0 0 3.44-3.3q.073-.538.07-1.08.26-8.4.49-16.82c.056-.902.016-1.807-.12-2.7a3.465 3.465 0 0 0-3.383-3.002 3.47 3.47 0 0 0-3.477 2.892 8.7 8.7 0 0 0-.16 1.62c-.12 3.07-.25 6.14-.41 9.6m2.2 25.62a3.555 3.555 0 0 0 3.355-2.211 3.5 3.5 0 0 0 .265-1.389 3.79 3.79 0 0 0-3.75-3.54 3.63 3.63 0 0 0-3.47 3.48 3.689 3.689 0 0 0 3.6 3.66"/><path fill="#3558a2" d="M73.697 192.046c.13-1.83.31-4.9.59-8a20.5 20.5 0 0 1 3.17-8.89c1.52-2.47 3.17-4.87 4.61-7.38a22.6 22.6 0 0 1 9.24-9c4.27-2.25 8.51-4.54 13.4-5 2.25-.23 4.54 0 6.79-.2a40 40 0 0 0 5.56-1.08 67 67 0 0 1 6.55-1.72 15.04 15.04 0 0 1 11.75 3.2c3.29 2.57 6.61 5.1 9.94 7.62a38.26 38.26 0 0 1 10.36 12.47c1.81 3.29 2.12 6.9 2 10.56a4.8 4.8 0 0 1-.34 1.59c-2.78 7.58-7.22 13.58-15.49 15.68a139 139 0 0 1-14 3.06 68.8 68.8 0 0 0-21.93 6.87c-7.32 3.77-15 4-22.76 2-4.66-1.2-8.39-4.67-8.75-10.2-.23-3.43-.41-6.83-.69-11.58m67.95-23.82c-2.39-2.23-2.53-2.27-4.57-.64a16 16 0 0 0-2.33 2.27c-2 2.49-4.87 3.74-7.75 4.85a3.273 3.273 0 0 1-4.08-1.23 3.44 3.44 0 0 1 .43-4.48 5.66 5.66 0 0 1 2.19-1.53c3.24-1 5-3.77 7.38-6.08-.9-.74-1.62-1.42-2.43-2-3.39-2.29-4.7-1.75-5.49 2.23-.07.35-.08.72-.18 1.07-1.52 5.06-4.27 8.78-10 9.34-1.23.12-2.44.4-3.62.6a70 70 0 0 0 4.58 27.29l16.18-3c-.17-.75-.31-1.27-.41-1.8-.6-3-1.69-5.52-5.29-5.89a6.6 6.6 0 0 1-2.2-1c-.88-.48-1.73-1-3.06-1.81.3 1.34.49 2 .61 2.71a3.41 3.41 0 0 1-1.73 3.92 3.59 3.59 0 0 1-4.38-1.15 8.43 8.43 0 0 1 .26-10.56c2.92-3.37 5.48-3.63 9.54-1 .53.35 1 .77 1.57 1.07a8.7 8.7 0 0 0 2.45 1.14c5 1 7.48 4.37 8.72 9 .32 1.2.75 2.37 1.24 3.86l5.79-2.82.3-.5c-6.13-1.17-7.25-5.84-8.17-10.71-.98-5.17.56-9.48 4.45-13.15m-42.46 38.45c-1.78-3.77-5-5.32-9.13-4.41q-3.19.71-4.39-1.74a3.37 3.37 0 0 1 1.37-4.5 8.5 8.5 0 0 1 4.49-1.57c5.6.34 10.36 2.51 13.49 7.46.37.6.81 1.16 1.31 1.87l2.33-1.25c-1.56-6.91-3.55-13.54-4.44-20.32a71.9 71.9 0 0 1 .09-20.65 4.9 4.9 0 0 0-1.45 0c-6.6 2.48-8.37 2.67-5.6 10.42a69 69 0 0 1 2.11 6.71c1.39 5.62-1.81 9.4-5.55 11.16a9.8 9.8 0 0 0-3 1.81c-2.55 2.69-5.47 4.11-9.63 3.12.17 2.94.24 5.64.51 8.32a4 4 0 0 0 3.64 3.81c1.78.32 3.55.78 5.35.92 2.9.23 5.8.22 8.5-1.16m-9.92-35.67-.66-.2c-2.09 3.57-4.24 7.1-6.25 10.72a11.9 11.9 0 0 0-1 3.37 1.88 1.88 0 0 0 1.08 2.45 2.38 2.38 0 0 0 2.91-.46 25.5 25.5 0 0 1 4.44-3c2.56-1.4 3.1-2.21 2.25-5s-1.82-5.27-2.75-7.88zm57.37 2.58c-2.78 3.16-3.25 7-1.43 10.16.54.94 3 1.91 4.07 1.47 1.33-.58 1.27-1.77 1.19-3a14 14 0 0 0-3.83-8.63m-29-13.28c-4.69.86-5.56 1.5-6.17 4.57 3.33.69 6.08-.75 6.21-4.57zM160.519 137.947a3.81 3.81 0 0 1 3.83-3.48 3.62 3.62 0 0 1 2.472 1.27 3.6 3.6 0 0 1 .838 2.65 3.524 3.524 0 0 1-3.73 3.47 3.85 3.85 0 0 1-3.41-3.91M172.598 152.876a3.5 3.5 0 0 1-3.23 3.63 3.9 3.9 0 0 1-3.77-3.82 3.487 3.487 0 0 1 3.27-3.6 3.723 3.723 0 0 1 3.73 3.79M173.779 164.296a3.374 3.374 0 0 1 2.447.943 3.4 3.4 0 0 1 1.043 2.407 3.45 3.45 0 0 1-.955 2.455 3.44 3.44 0 0 1-4.865.106 3.445 3.445 0 0 1-1.06-2.411 3.52 3.52 0 0 1 3.39-3.5M152.758 140.446a3.54 3.54 0 0 1-3.34 3.55 3.61 3.61 0 0 1-3.51-3.42 3.563 3.563 0 0 1 3.4-3.51 3.34 3.34 0 0 1 3.195 2.065c.173.417.259.864.255 1.315M156.197 154.567a3.19 3.19 0 0 1-2 3.007c-.397.161-.822.24-1.25.233a3.29 3.29 0 0 1-3.24-3.34 3.3 3.3 0 0 1 .999-2.312 3.3 3.3 0 0 1 2.341-.928 3.247 3.247 0 0 1 3.15 3.34M184.657 196.337a3.3 3.3 0 0 1-2.125 2.992 3.296 3.296 0 0 1-4.181-4.442 3.298 3.298 0 0 1 3.116-1.94 3.32 3.32 0 0 1 3.19 3.39M181.289 181.797a3.142 3.142 0 0 1-1.923 3.052 3.1 3.1 0 0 1-1.247.248 3.29 3.29 0 0 1-3.27-3 3.4 3.4 0 0 1 3.08-3.48 3.263 3.263 0 0 1 3.36 3.18M233.089 79.536c-6.34 6.37-10.34 6.65-14.48.44a16 16 0 0 1-1.85 2.5c-4.16 3.75-9.57 2.52-11.73-2.67a15.7 15.7 0 0 1-.66-9.34c.51-2.42 2.23-3.59 4.26-3.18s3 2 2.73 4.36c-.19 1.78-.49 3.54.62 5.6l3.76-5.29c.63-.89 1.22-1.8 1.86-2.68 1.54-2.13 3-2.84 4.75-2.34s2.78 2.12 2.9 4.74c0 .81 0 1.63.06 2.45 0 .62.12 1.25.22 2.26a8.6 8.6 0 0 0 1.48-1.23c1.59-2.2 3.09-4.47 4.68-6.68s3-2.74 4.83-2.16c2 .66 2.66 2.34 2.8 4.24a17 17 0 0 0 .54 4.32c.57-.61 1.19-1.18 1.7-1.84 1.28-1.64 2.41-3.42 3.79-5a3.46 3.46 0 0 1 4.88-.61 3.37 3.37 0 0 1 .81 4.64 56.3 56.3 0 0 1-7.35 9c-3.65 3.37-7.15 2.59-10.6-1.53M232.918 166.066c.16-3.46.29-6.53.44-9.6a9 9 0 0 1 .16-1.62 3.47 3.47 0 0 1 3.478-2.892 3.465 3.465 0 0 1 3.382 3.002c.136.893.176 1.798.12 2.7q-.23 8.42-.49 16.82.003.542-.07 1.08a3.82 3.82 0 0 1-3.44 3.3 3.54 3.54 0 0 1-3.55-3.4c-.13-1.62 0-3.26 0-4.89zM235.118 191.687a3.69 3.69 0 0 1-3.6-3.66 3.626 3.626 0 0 1 3.47-3.48 3.792 3.792 0 0 1 3.75 3.54c.005.476-.085.948-.265 1.389a3.57 3.57 0 0 1-1.965 1.954 3.6 3.6 0 0 1-1.39.257"/><path fill="#fff" d="M141.648 168.227c-3.89 3.67-5.43 8-4.46 13.14.92 4.87 2 9.54 8.17 10.71l-.3.5-5.79 2.82c-.49-1.49-.92-2.66-1.24-3.86-1.24-4.62-3.67-8-8.72-9a8.6 8.6 0 0 1-2.45-1.14c-.55-.3-1-.72-1.57-1.07-4.06-2.66-6.62-2.4-9.54 1a8.43 8.43 0 0 0-.26 10.56 3.59 3.59 0 0 0 4.38 1.15 3.411 3.411 0 0 0 1.73-3.92c-.12-.69-.31-1.37-.61-2.71 1.33.79 2.18 1.33 3.06 1.81a6.6 6.6 0 0 0 2.2 1c3.6.37 4.69 2.88 5.29 5.89.1.53.24 1 .41 1.8l-16.18 3a70 70 0 0 1-4.58-27.29c1.18-.2 2.39-.48 3.62-.6 5.74-.56 8.49-4.28 10-9.34.1-.35.11-.72.18-1.07.79-4 2.1-4.52 5.49-2.23.81.54 1.53 1.22 2.43 2-2.41 2.31-4.14 5-7.38 6.08a5.65 5.65 0 0 0-2.19 1.53 3.44 3.44 0 0 0-.43 4.48 3.27 3.27 0 0 0 4.08 1.23c2.88-1.11 5.7-2.36 7.75-4.85a16 16 0 0 1 2.33-2.27c2.05-1.62 2.22-1.58 4.58.65M99.187 206.677c-2.7 1.38-5.6 1.39-8.49 1.17-1.8-.14-3.57-.6-5.35-.92a4 4 0 0 1-3.64-3.81c-.27-2.68-.34-5.38-.51-8.32 4.16 1 7.08-.43 9.63-3.12a9.8 9.8 0 0 1 3-1.81c3.74-1.76 6.94-5.54 5.55-11.16a69 69 0 0 0-2.11-6.71c-2.77-7.75-1-7.94 5.6-10.42.481-.072.97-.072 1.45 0a71.8 71.8 0 0 0-.09 20.65c.89 6.78 2.88 13.41 4.44 20.32l-2.38 1.25c-.5-.71-.94-1.27-1.31-1.87-3.13-4.95-7.89-7.12-13.49-7.46a8.5 8.5 0 0 0-4.49 1.57 3.37 3.37 0 0 0-1.37 4.5q1.2 2.44 4.39 1.74c4.14-.92 7.39.63 9.17 4.4"/><path fill="#fff" d="M89.287 171.005c1 2.61 2 5.2 2.82 7.86s.31 3.58-2.25 5a25.5 25.5 0 0 0-4.44 3 2.38 2.38 0 0 1-2.91.46 1.873 1.873 0 0 1-1.212-1.721c-.005-.249.04-.497.132-.729a11.9 11.9 0 0 1 1-3.37c2-3.62 4.16-7.15 6.25-10.72zM146.639 173.586a14 14 0 0 1 3.83 8.63c.08 1.23.14 2.42-1.19 3-1 .44-3.53-.53-4.07-1.47-1.82-3.17-1.35-6.95 1.43-10.16M117.678 160.307c-.13 3.82-2.88 5.259-6.17 4.569.61-3.079 1.48-3.709 6.17-4.569"/></svg>