<svg xmlns="http://www.w3.org/2000/svg" width="300" height="300" fill="none" viewBox="0 0 300 300"><path fill="#3558a2" d="M70.003 142.654a54.65 54.65 0 0 1 9.29-29.19c8.07-12.39 19-21.61 31.94-28.57a108.6 108.6 0 0 1 43.08-12.54 90 90 0 0 1 37.28 4.55c13 4.54 24.09 11.88 31.54 23.82 7.17 11.5 8.64 23.91 5.21 36.92-3.3 12.51-10.54 22.59-19.77 31.38-.53.5-1 1-1.62 1.46a2.44 2.44 0 0 0-.89 2.61q3.68 23.8 7.26 47.63c.15 1 .48 1.94.66 2.92a2.813 2.813 0 0 1-2.17 3.561 2.8 2.8 0 0 1-1.54-.141 8.6 8.6 0 0 1-2.17-1.11q-16.68-10.8-33.35-21.64c-4.8-3.11-9.62-6.19-14.39-9.35a4.82 4.82 0 0 0-3.83-.71c-17.7 3-35.09 2.18-51.9-4.64-10.37-4.21-19.26-10.48-25.89-19.67a45.37 45.37 0 0 1-8.74-27.29m136.59 75.12c-.09-1.18-.1-1.7-.18-2.22a25265 25265 0 0 0-5.33-35.27 70 70 0 0 0-1.37-7.48c-.83-3.14-.72-3.61 1.9-5.77 9.47-7.79 16.56-17.29 20.31-29.05s2.69-23-3.6-33.59c-4.67-7.89-11.43-13.56-19.42-17.83-11.23-6-23.36-8.31-36-8.51a93.3 93.3 0 0 0-17.88 1.47c-18.18 3.27-34.51 10.5-48.4 22.82-7.93 7-14.21 15.33-17.76 25.4-5.51 15.59-3.25 29.88 7.78 42.44 5.93 6.77 13.45 11.32 21.79 14.49a91.1 91.1 0 0 0 46.92 3.62 9.49 9.49 0 0 1 8 1.41c10.9 7.21 21.9 14.28 32.87 21.4 3.26 2.11 6.53 4.25 10.37 6.67"/><path fill="#fff" d="M206.591 217.773c-3.84-2.47-7.11-4.56-10.37-6.67-11-7.12-22-14.19-32.87-21.4a9.47 9.47 0 0 0-8-1.41 91.1 91.1 0 0 1-46.92-3.62c-8.34-3.17-15.86-7.72-21.79-14.49-11-12.56-13.29-26.85-7.78-42.44 3.55-10.07 9.83-18.361 17.76-25.401 13.89-12.32 30.22-19.55 48.4-22.82a93.3 93.3 0 0 1 17.88-1.47c12.59.2 24.72 2.52 36 8.51 8 4.27 14.75 9.94 19.42 17.83 6.29 10.63 7.32 21.911 3.6 33.591s-10.84 21.26-20.31 29.05c-2.62 2.16-2.73 2.63-1.9 5.77a70 70 0 0 1 1.37 7.48q2.7 17.64 5.33 35.27c.08.52.09 1.04.18 2.22m-72.73-68.42c1.47-.39 2.32-.66 3.18-.84q12.78-2.64 25.58-5.27a50 50 0 0 0 5.28-1.24c1.88-.62 2.62-2 2.19-3.53a3.25 3.25 0 0 0-3.69-2.09q-.405.063-.8.17l-22.11 4.54c-3.38.7-6.75 1.44-10.13 2.11-2.38.46-2.56.35-3.23-2a39 39 0 0 1-1-4.78c-.25-1.72 0-1.93 1.77-2.36l1.86-.4q14.14-2.79 28.29-5.59a9.6 9.6 0 0 0 2.58-.8 2.717 2.717 0 0 0 1.54-2.92 2.87 2.87 0 0 0-2.71-2.26 13 13 0 0 0-3 .27c-9.07 1.77-18.14 3.59-27.22 5.38-.75.14-1.53.15-2.66.25.109-1.097.33-2.179.66-3.231 1.19-2.64 2.17-5.479 3.86-7.759 7.68-10.35 18-14.4 30.78-12.44q1.597.331 3.22.5a3.006 3.006 0 0 0 3.06-2.211 2.83 2.83 0 0 0-1.65-3.13 14.5 14.5 0 0 0-3.35-1c-18.94-3.68-39 8.121-42.71 28.581a2.849 2.849 0 0 1-2.68 2.74c-4.1.73-8.18 1.61-12.27 2.44q-.805.134-1.58.39a2.86 2.86 0 0 0-2.12 3.34 2.77 2.77 0 0 0 3 2.25c.725.008 1.449-.059 2.16-.2 2.23-.43 4.44-.92 6.67-1.34 2-.38 4-.72 6.15-1.09.64 3.18 1.22 6.06 1.84 9.11-1.16.28-2 .52-2.89.71-4.53.94-9.06 1.85-13.58 2.81-2.54.53-3.92 1.94-3.66 3.62.28 1.86 2.11 2.77 4.78 2.24 5.34-1 10.67-2.12 16-3.3a2.7 2.7 0 0 1 3.4 1.3 34.2 34.2 0 0 0 8.37 8.84c13.73 10.43 34 9.58 46.73-2a28.4 28.4 0 0 0 3.84-4.21 2.81 2.81 0 0 0-.45-3.93 3.14 3.14 0 0 0-4 .31c-.74.66-1.37 1.45-2.08 2.15a31.02 31.02 0 0 1-22.208 9.021 31 31 0 0 1-22.002-9.511c-.94-1.11-1.79-2.18-3.01-3.64"/><path fill="#3558a2" d="M133.862 149.354c1.25 1.47 2.07 2.54 3 3.51a31.01 31.01 0 0 0 34.014 7.234 31 31 0 0 0 10.196-6.744c.71-.7 1.34-1.49 2.08-2.15a3.14 3.14 0 0 1 4-.31 2.807 2.807 0 0 1 .45 3.93 28.3 28.3 0 0 1-3.84 4.21c-12.76 11.62-33 12.47-46.73 2a34.2 34.2 0 0 1-8.37-8.84 2.7 2.7 0 0 0-1.448-1.309 2.7 2.7 0 0 0-1.952.009c-5.32 1.18-10.65 2.25-16 3.3-2.67.53-4.5-.38-4.78-2.24-.26-1.68 1.12-3.09 3.66-3.62 4.52-1 9-1.87 13.58-2.81.87-.19 1.73-.43 2.89-.71-.62-3-1.2-5.93-1.84-9.11-2.12.37-4.14.71-6.15 1.09-2.23.42-4.44.91-6.67 1.34-.711.141-1.435.208-2.16.2a2.773 2.773 0 0 1-3-2.25 2.86 2.86 0 0 1 2.12-3.34q.776-.255 1.58-.39c4.09-.83 8.17-1.71 12.27-2.44a2.853 2.853 0 0 0 2.68-2.74c3.72-20.46 23.77-32.26 42.71-28.58 1.153.197 2.278.532 3.35 1a2.83 2.83 0 0 1 1.65 3.13 3 3 0 0 1-3.06 2.21 32 32 0 0 1-3.22-.5c-12.73-2-23.1 2.09-30.78 12.44-1.69 2.28-2.67 5.12-3.86 7.76a16 16 0 0 0-.66 3.23c1.13-.1 1.91-.11 2.66-.25 9.08-1.79 18.15-3.61 27.22-5.38a13 13 0 0 1 3-.27 2.87 2.87 0 0 1 2.71 2.26 2.706 2.706 0 0 1-1.54 2.92 9.6 9.6 0 0 1-2.58.8 8171 8171 0 0 1-28.29 5.59l-1.86.4c-1.8.43-2 .64-1.77 2.36a39 39 0 0 0 1 4.78c.67 2.4.85 2.51 3.23 2 3.38-.67 6.75-1.41 10.13-2.11l22.11-4.54q.396-.107.8-.17a3.25 3.25 0 0 1 3.69 2.09c.43 1.52-.31 2.91-2.19 3.53q-2.605.765-5.28 1.24-12.8 2.65-25.58 5.27c-.85.3-1.7.57-3.17.97"/></svg>