<svg xmlns="http://www.w3.org/2000/svg" width="355" height="138" fill="none" viewBox="0 0 355 138"><path fill="#102185" d="M324.071 112.391c-1.076 6.003-3.653 11.511-7.674 15.985-8.905 11.256-27.014 12.148-37.393-.212-3.624-3.908-6.003-8.651-7.022-13.918-.213-.595-.269-1.175-.482-1.784-23.985-.014-47.842-.029-71.713.113-23.844 0-47.559.014-71.714.113-.453 1.232-1.019 2.294-1.317 3.54a26.6 26.6 0 0 1-4.502 9.26c-2.067 2.718-4.814 5.083-7.731 6.697-3.086 1.741-6.357 2.732-9.84 3.129s-6.867.099-10.166-.906c-9.784-2.719-15.688-9.926-17.174-20.261-.071-.581-.128-1.161-.284-2.181-1.982-.113-3.95-.382-5.805-.34-7.32.326-11.808-2.548-14.668-8.934a71.8 71.8 0 0 1-5.748-20.317c-.68-5.664-1.643-11.356-2.025-17.118-.482-7.207-.397-14.329-.595-21.507-.297-5.324-.17-10.59.651-15.773a44.4 44.4 0 0 1 1.997-8.594c2.45-6.668 7.518-10.435 14.2-12.403 7.986-2.095 16-3.313 24.325-3.653a1569 1569 0 0 1 37.606-1.472c8.892-.255 17.882-.213 26.887-.312 7.306-.184 14.626-.495 21.946-.68 4.163-.17 8.425-.028 12.715-.042 7.447-.156 14.909-.467 22.2-.495C217.188.17 223.502.014 229.93 0c8.127.07 16.127.127 24.24.34 9.118.198 18.194.68 27.284 1.02 8.537.268 17.245.268 25.726 1.967 3.653.482 7.221 1.53 10.746 2.988 12.319 5.196 21.649 13.422 26.675 26.221 2.506 7.037 4.121 14.258 4.998 21.649 1.105 7.858 2.209 15.716 3.045 23.531.892 8.397 1.345 16.892 2.095 25.274.113 2.435-.765 4.757-2.435 6.541-1.657 1.784-3.936 2.761-6.23 2.888-4.432 0-8.991-.042-13.423-.056-2.718.07-5.451.141-8.452.169l-.128-.155zm-79.189-10.293c.028-3.427.113-6.273.226-9.26.439-9.798.85-19.454 1.289-29.252.142-3.27.269-6.385.411-9.656.169-6.683.339-13.38.637-20.048.056-2.563.099-5.126.297-7.674.255-4.106 2.634-6.938 7.037-6.782 6.669.311 13.38.34 19.949.34 5.706.042 11.554.099 17.26.127 3.851.085 7.688.156 11.497.51 4.53.311 6.414 2.28 6.668 6.88.057 1.728.1 3.583.142 5.452l1.076 28.7c.368 10.193.864 20.529 1.232 30.723.156 3.158.311 6.33.58 9.642l30.994-.056-2.068-22.272c-.283-.042-.396-.198-.665-.368-1.402-.184-2.803-.368-4.191-.694-7.631-1.713-14.329-5.026-18.081-12.374-2.265-4.446-3.624-9.33-4.106-14.4-.453-4.205-.608-8.367-.764-12.672-.411-7.758-.807-15.531-1.175-23.574-4.46-1.869-9.048-2.902-13.847-3.256-7.632-.58-15.32-.736-22.994-1.034-8.396-.255-16.906-.65-25.316-.764-7.83-.17-15.688-.213-23.39-.227-6.428 0-12.729.184-19.185.326l-22.201.495c-4.587.114-9.146.085-13.875.17-7.306.184-14.612.354-21.918.538-6.003.071-11.992 0-18.024.199-7.306.184-14.512.65-21.804.693-9.571.029-19.213.61-28.671 1.94-4.8.651-9.614 1.444-14.343 2.676-2.053.439-3.908 1.487-5.267 3.157-1.345 1.544-2.18 3.568-2.308 5.55-.949 5.013-1.345 10.251-1.317 15.391.283 3.327.128 6.584.255 10.024.255 5.607.227 11.313.623 16.934.354 4.899 1.416 9.897 2.039 14.838.864 5.395 2.336 10.45 4.53 15.447.185.737.68 1.374 1.317 1.883.638.51 1.331.751 2.195.722 3.13.128 6.088.368 9.076.482.906-1.459 1.472-2.52 2.18-3.568 5.295-8.722 13.196-13.394 23.291-13.069 10.109.184 17.5 5.876 21.875 15.023 1.232 2.591 1.091 2.577 3.851 2.223l.34-2.52c.029-3.427.071-6.995.085-10.421.241-6.117.482-12.36.722-18.477.241-6.117.227-12.545.34-18.803.085-7.136.467-14.357.552-21.493.085-4.984 2.563-7.518 6.853-7.518 8.028-.227 16.113-.878 24.141-1.104 11.907-.425 23.814-.864 35.736-1.289 4.446-.127 7.15 2.082 7.278 6.527.495 12.488.863 24.82 1.387 37.167.354 10.336.552 20.785.892 31.106.128 2.308.269 4.46.51 6.924l36.26.071-.099-.298zm-49.187-71.034c-7.717-.014-14.909.467-22.527.75.425 11.908.751 23.518 1.076 35.128s.935 23.262 1.388 35.028c7.66.439 14.838.099 22.555.113-.722-23.8-1.487-47.176-2.351-71.005h-.141zm-53.393 1.954c-.623 23.191-1.345 45.945-1.953 69.009 4.091.396 8.367.396 12.544.226 4.007-.042 8.099.354 12.318-.24-.226-8.028-.51-15.631-.779-23.376s-.509-15.631-.92-23.404c-.41-7.76-.269-15.32-1.104-22.994l-20.091.779zm141.007 68.995 19.156-.184c.029-12.134-.722-23.801-1.189-35.425-.453-11.766-.595-23.645-1.586-35.623l-16.537-.184c0 23.843.311 47.46.297 71.444h-.141zm-25.245-71.728c-.878 24.013-1.869 47.743-2.747 71.756l17.585-.113-.255-71.728c-5.168.17-9.755-.722-14.555-.056v.141zM99.756 125.091c2.308-.127 4.502-.552 6.711-1.118 2.534-.807 4.856-2.209 6.683-4.12s3.143-4.305 3.752-6.783c1.954-6.173-1.402-16.466-11.384-17.641-3.653-.481-7.178.34-10.435 2.194-3.1 1.883-5.48 4.701-6.64 8.128-3.285 9.712 2.86 18.377 11.299 19.34zm241.178-57.172c-.863-6.4-1.897-12.672-2.647-18.916-.977-6.697-3.101-13.267-6.612-19.157-1.714-3.228-4.234-5.847-7.25-7.815l-.368 2.803c.354 7.051.878 13.975 1.232 21.012.113 4.587 1.076 9.146 2.648 13.493 1.996 5.408 6.725 8.594 13.026 8.424v.142zm-28.105 44.132-30.016.184c-.099.708-.17 1.26-.113 1.982 1.911 4.97 4.941 9.076 9.953 11.172 4.743 1.911 11.157 2.038 15.306-3.413 1.387-1.812 2.761-3.638 3.879-5.635.425-1.09 1.459-2.378.85-4.318h.141zM8.928 55.714l-4.205-.552c-3.228-.425-4.941-2.648-4.7-5.48.098-.707.183-1.401.537-1.925s.722-1.19 1.204-1.557a5.3 5.3 0 0 1 1.826-.907c.595-.212 1.317-.254 2.025-.155 3.412.17 6.952.34 10.336.651 4.389.297 8.637.566 13.026.864 1.118.141 2.251.297 3.299 1.005.92.552 1.543 1.345 1.982 2.265.453.92.467 1.912.311 3.044-.283 1.105-.977 2.011-1.77 2.62-.792.609-1.854 1.047-3.015 1.175-1.727.057-3.582.1-5.423 0-5.111-.24-10.194-.637-15.291-1.02h-.142zM14.068 77.377c-.977-.127-1.926-.538-2.86-1.09-.793-.538-1.402-1.331-1.84-2.237-.312-.892-.468-1.912-.199-2.889.127-.977.666-1.77 1.473-2.52.65-.623 1.571-1.076 2.463-1.388a14.8 14.8 0 0 1 3.483-.396c5.607-.255 11.186-.382 16.792-.637a4.3 4.3 0 0 1 2.662.354c.821.255 1.628.637 2.251 1.303.652.51.992 1.132 1.317 1.883a3.95 3.95 0 0 1 .283 2.18c-.113.835-.198 1.543-.722 2.195-.368.665-1.005 1.146-1.628 1.5-.934.595-2.11.864-3.27.991-5.48.425-10.931.553-16.396.836a22 22 0 0 0-3.823-.212v.141zM15.3 92.965c.113-.835.523-1.784 1.033-2.435a4.9 4.9 0 0 1 2.209-1.572c1.062-.425 2.095-.722 3.27-.991 3.682-.807 7.505-1.727 11.186-2.52.594-.213 1.175-.27 1.897-.326 3.341-.41 5.748.765 6.4 3.412.184.737.24 1.459.141 2.167s-.184 1.401-.694 2.053c-.368.665-.863 1.175-1.486 1.514-.623.34-1.232.694-1.968.878a205 205 0 0 1-16.34 3.696c-.736.184-1.585.07-2.406-.17-.836-.113-1.487-.623-1.983-1.26-.65-.51-.976-1.275-1.302-2.025-.184-.736-.212-1.6-.113-2.435h.141z"/><path fill="#102185" d="M77.895 70.95c-6.386-.27-8.85-1.162-9.288-8.652-.637-9.217-1.147-18.434-1.642-27.637.099-.708-.071-1.586.014-2.28.24-3.964 2.095-6.145 6.258-6.315 4.601-.255 9.189-.354 13.918-.453 9.585-.17 19.199-.467 28.784-.637 1.161-.127 2.28.014 3.413.17a5.03 5.03 0 0 1 2.69 1.218c.764.665 1.359 1.614 1.515 2.633.269 1.175.524 2.492.637 3.795-.241 10.534-.354 21.096-.722 31.46l-.298 2.251c-.141 1.119-.693 2.053-1.373 2.818-.807.75-1.741 1.345-2.903 1.472-1.458.241-3.058.453-4.644.538-12.261-.184-24.508-.368-36.19-.623l-.183.255zm-.127-34.732c.07 8.155.877 16.113 1.245 24.155l33.5.41c1.076-8.14.835-22.597-.099-25.287l-34.66.722zM239.445 56.677c-.594 5.635-1.925 7.022-6.711 7.546-4.644.538-9.245.779-13.833.892a6.1 6.1 0 0 1-2.251-.297c-.694-.24-1.487-.623-1.982-1.26-.652-.51-.991-1.133-1.317-1.883s-.524-1.501-.411-2.337c-.155-3.157-.311-6.328-.311-9.613-.071-7.009 0-14.13-.071-21.139-.071-1.586.425-3.228 1.317-4.545 1.033-1.288 2.421-2.11 4.035-2.464.297-.099.736-.184 1.161-.127 5.253.269 10.534.24 15.73.934 1.402.185 2.605.78 3.611 1.898.849 1.118 1.387 2.463 1.359 3.752 0 2.138.142 4.304.156 6.442-.142 7.546-.283 15.107-.298 21.804l-.198.397zM229.194 32.62l-3.228-.425c-.977-.127-1.727.057-3.001.029-.397 7.376.085 14.583.056 22.285l6.06-.481z"/></svg>