<svg xmlns="http://www.w3.org/2000/svg" width="277" height="252" fill="none" viewBox="0 0 277 252"><path fill="#102185" d="M203.094 43.568c6.372-1.133 12.035-2.124 17.698-2.974 6.655-.99 13.31-.99 19.539 2.266 2.124.991 4.106 2.549 5.522 4.39 1.558 1.84 2.549 3.964 3.115 6.37 1.558 6.23 2.69 12.46 3.823 18.831 4.672 25.203 9.486 50.405 14.159 75.749 2.973 15.574 6.088 31.008 8.636 46.582.85 5.947 1.133 12.035.992 18.123 0 3.257-.85 6.371-2.974 8.778s-4.814 4.106-7.929 4.814c-12.318 2.832-24.494 5.522-36.812 8.212-20.53 4.531-41.06 9.062-61.59 13.734-4.389.991-8.495 2.69-13.026 2.69-9.486 0-16.424-5.663-17.982-15.15-2.265-13.592-4.53-27.326-6.796-41.06q-.566-3.398-3.964-4.105l-35.255-6.372c-13.026-2.407-26.052-4.672-39.078-7.079-4.672-.85-6.513-3.681-5.522-8.778 4.106-20.389 8.212-40.777 12.46-61.166 6.654-32.564 13.167-65.13 19.68-97.836.142-.99.425-1.982.708-2.973.283-1.416 1.133-2.832 2.265-3.681 1.133-.991 2.69-1.416 4.106-1.275h5.38c20.106.708 40.353 1.558 60.458 2.266l50.122 2.124c5.805.283 7.645 2.831 6.796 8.495-1.558 9.486-2.973 18.69-4.672 29.025zm63.573 165.939c-.425-4.531-.708-9.769-1.416-15.008s-1.983-10.619-2.974-15.858l-13.592-72.209c-2.832-15.008-5.38-30.016-8.212-45.024-.708-3.823-1.557-7.929-5.663-9.345q-4.673-1.699-9.77-1.274c-15.716 2.124-31.432 4.814-47.148 7.22-15.716 2.408-31.149 4.673-46.865 7.08-8.212 1.274-12.601 8.07-11.044 16.282 1.699 8.92 3.256 17.982 4.814 26.902l8.92 50.405c2.973 16.848 5.946 33.555 8.92 50.404 1.416 8.495 2.831 16.991 4.389 25.344.849 4.814 3.681 6.796 8.354 6.23 1.132-.142 2.265-.425 3.398-.708 3.398-.991 6.796-2.124 10.335-2.832 31.008-6.938 61.874-13.875 92.881-20.813 3.964-.991 4.814-2.124 4.673-6.938zM88.126 12.136 56.694 167.739l70.368 12.743c-3.115-17.982-6.23-35.397-9.345-52.67-10.194-1.558-19.963-2.974-29.733-4.39-1.557-.141-2.973-.566-4.389-1.132a3.9 3.9 0 0 1-2.124-2.124c-.424-.849-.708-1.982-.424-2.973 0-.991.424-1.841 1.132-2.69.708-.708 1.558-1.275 2.549-1.416 1.416-.283 2.832-.283 4.248-.142 5.805.85 11.61 1.699 17.556 2.549 2.974.425 5.947.849 9.628 1.274-1.557-8.495-2.832-16.282-4.248-24.211-2.69-.283-4.955-.567-7.362-.85-3.681-.424-7.363-.708-11.044-1.416-1.274 0-2.548-.85-3.256-1.84-.85-.991-1.275-2.265-1.133-3.681.142-1.275.85-2.549 1.84-3.257.992-.85 2.266-1.274 3.54-1.274 1.841 0 3.54.141 5.38.424l9.345.85c.283-.425.284-.566.284-.708-1.416-11.468 6.088-24.353 21.379-26.335 1.841-.142 3.54-.566 5.38-.85 17.699-2.69 35.539-5.521 53.237-8.211 2.265-.283 3.398-1.133 3.681-3.54l2.973-18.69c.425-2.265.567-4.672.85-7.22L88.268 11.71zM41.685 63.674c-.708 1.416-1.557 2.831-2.265 4.389a3248 3248 0 0 1-15.858 31.29c-2.832 5.664-5.38 6.513-11.185 3.682-2.69-1.275-5.38-2.549-7.93-3.965-4.53-2.407-5.38-4.814-3.539-9.486 5.097-12.46 10.336-24.92 15.575-37.237 1.416-3.398 2.832-6.938 4.389-10.336.425-.85.708-1.699.708-2.548 0-.85 0-1.841-.425-2.549-.708-1.416-.85-3.115-.425-4.672.284-1.558 1.133-3.115 2.266-4.106 7.646-8.779 15.999-17.132 24.919-24.778.85-.708 1.84-1.416 2.832-1.982 6.23-3.398 12.318-.283 12.601 6.938 0 3.823-.283 7.645-1.133 11.468-3.681 18.123-7.504 36.246-11.327 54.228-.283 1.132-.566 2.265-.99 3.256-.567 1.274-1.417 2.124-2.55 2.69s-2.548.708-3.822.283q-1.062-.211-1.7-.85c-.566-.424-.99-.849-1.274-1.415-.283-.566-.566-1.133-.566-1.84 0-.709 0-1.275.142-1.983.566-2.831 1.416-5.522 1.982-8.212.142-.708.283-1.416.283-2.265zM31.066 44.277 11.527 90.858l3.682 1.7L37.72 48.24zm16.283-2.55c1.699-9.485 3.398-18.547 5.097-27.75-7.504 5.522-14.3 12.035-19.964 19.397z"/><path fill="#102185" d="M219.801 65.09c2.548.425 5.238.99 7.645 1.699.567.283.992.708 1.416 1.132.425.425.567.992.708 1.7 2.124 10.76 4.248 21.38 6.088 32.14.284 1.699.284 3.398.284 4.955.141 4.531-1.133 6.23-5.664 7.221-5.38 1.133-10.902 2.124-16.282 3.115-20.247 3.823-40.352 7.504-60.599 11.327-2.266.424-4.531.708-6.796.566-4.956 0-6.797-1.557-7.646-6.371-1.416-7.221-2.69-14.3-3.964-21.521-.85-4.814-1.841-9.628-2.691-14.442-.566-3.823.425-5.239 3.682-7.22 4.672-2.833 10.052-2.974 15.149-3.824 20.53-3.256 41.06-6.513 61.591-9.627 2.265-.284 4.53-.425 6.937-.567v-.566zm.283 10.477-77.023 11.894c1.982 10.477 3.823 20.671 5.805 31.148l76.74-14.441c-1.841-9.628-3.681-18.973-5.522-28.6M188.793 187.704c0-4.248 1.699-8.495 4.673-11.61 2.973-3.115 7.221-4.814 11.468-4.956 6.796-.283 15.716 7.787 15.575 15.433-.283 8.92-7.363 16.565-16.283 16.707-2.123 0-4.106-.283-6.088-1.133-1.841-.849-3.681-1.982-5.097-3.398-1.416-1.415-2.549-3.256-3.398-5.097-.708-1.84-1.133-3.964-.991-6.088zm16.424-6.089c-1.699 0-3.114.85-4.247 1.982a7 7 0 0 0-1.982 4.248c0 1.416.566 2.69 1.557 3.681s2.266 1.558 3.681 1.558c1.558 0 2.974-.708 4.106-1.841a5.9 5.9 0 0 0 1.699-4.106c0-3.256-1.557-5.238-4.672-5.38zM196.156 165.474c-4.248 0-8.212-1.84-11.186-4.955-2.973-2.973-4.53-7.079-4.389-11.327.142-8.637 7.363-15.999 15.858-15.433 8.778.425 15.575 6.655 15.575 16.282 0 2.124-.425 4.106-1.133 6.089-.85 1.84-1.982 3.681-3.398 5.097-1.558 1.416-3.257 2.548-5.239 3.256-1.84.708-3.964 1.133-6.088.991m.141-21.237c-.708 0-1.415 0-1.982.283a5.1 5.1 0 0 0-1.699 1.132c-.425.567-.849 1.133-1.132 1.699-.284.708-.284 1.416-.284 2.124 0 1.416.567 2.832 1.416 3.823.991.991 2.266 1.699 3.681 1.841.708 0 1.416-.142 1.983-.425a5.1 5.1 0 0 0 1.699-1.133c.425-.566.849-1.133 1.132-1.699.284-.708.284-1.274.284-1.982s0-1.416-.284-2.124c-.283-.708-.566-1.274-1.132-1.84-.425-.567-1.133-.992-1.699-1.275-.708-.283-1.275-.424-1.983-.424M157.929 169.297c-1.983 0-3.965-.425-5.805-1.133-1.841-.708-3.54-1.982-4.814-3.398-1.416-1.416-2.407-3.257-3.115-5.097s-.991-3.965-.85-5.947c.283-8.07 7.504-15.15 15.15-15.008 8.637.283 15.574 6.796 15.291 14.583-.283 9.062-7.504 16.283-15.857 16m1.415-20.247c-.708 0-1.416 0-1.982.425-.708.283-1.274.566-1.699 1.132-.566.425-.991 1.133-1.133 1.699-.283.708-.424 1.275-.424 1.982 0 .567 0 1.133.283 1.699.141.567.425.992.849 1.416.425.425.85.708 1.416.992.567.283 1.133.283 1.699.283 1.416 0 2.69-.567 3.682-1.558.991-.991 1.557-2.124 1.699-3.539 0-1.133-.284-2.266-1.133-3.115-.708-.85-1.841-1.416-2.973-1.558zM166.565 178.358c1.982 0 3.964.284 5.663 1.133 1.841.708 3.54 1.841 4.814 3.257s2.549 2.973 3.257 4.813c.708 1.841 1.132 3.823 1.132 5.664-.141 4.106-1.84 7.929-4.814 10.761-2.973 2.831-6.796 4.53-10.902 4.53-3.823 0-7.504-1.415-10.194-4.106s-4.389-6.229-4.389-10.052c0-4.106 1.557-8.212 4.531-11.185 2.831-2.974 6.796-4.673 10.902-4.815m-.85 19.681c1.416 0 2.69-.425 3.681-1.416s1.558-2.265 1.558-3.539c0-.567 0-1.133-.283-1.558q-.213-.85-.85-1.274c-.425-.425-.849-.708-1.416-.85-.566-.141-1.132-.283-1.557-.283-.708 0-1.274 0-1.982.283-.567.283-1.133.567-1.699 1.133-.425.425-.85.991-1.133 1.699-.283.566-.425 1.274-.425 1.982 0 .566 0 1.133.283 1.558.142.566.425.991.85 1.415s.849.708 1.416.85c.566.142 1.132.283 1.557.141zM240.614 195.208c-3.964 0-7.929-1.558-10.76-4.389-2.832-2.832-4.531-6.655-4.531-10.761s1.699-7.787 4.531-10.477a15.48 15.48 0 0 1 10.619-4.248c8.07 0 15.291 7.221 15.291 15.008 0 3.965-1.699 7.787-4.531 10.478a15 15 0 0 1-10.619 4.389m-.141-10.619c1.132 0 2.265-.283 3.114-1.133.85-.708 1.416-1.841 1.558-2.973 0-.567 0-1.275-.283-1.699-.283-.567-.567-1.133-.991-1.558s-.992-.849-1.558-.991q-.849-.425-1.699-.425c-2.832 0-4.814 1.558-4.814 4.248s0 1.133.283 1.699c.284.566.567.991.991 1.416s.992.708 1.558.991c.566.142 1.133.283 1.699.283zM233.393 127.387c6.371-.566 14.725 6.514 14.583 14.301 0 4.106-1.84 8.07-4.955 10.902s-7.079 4.389-11.185 4.247c-8.496 0-14.584-6.088-14.584-14.441s7.08-15.15 16.141-15.009m-1.416 19.256c1.416 0 2.69-.566 3.823-1.557.991-.991 1.699-2.265 1.699-3.681 0-1.133-.566-2.124-1.416-2.832-.849-.708-1.841-1.133-2.973-1.133-2.69 0-5.664 2.69-5.664 5.239a4.38 4.38 0 0 0 1.558 2.832c.849.707 1.982 1.132 2.973.991zM144.902 41.303c-12.601-.708-25.061-1.416-37.662-2.124-1.274 0-2.549-.283-3.823-.708-.991-.283-1.699-.849-2.265-1.698-.567-.85-.85-1.7-.85-2.69 0-.992 0-1.983.708-2.832.566-.85 1.274-1.416 2.265-1.7 1.699-.566 3.398-.849 5.239-.707 8.637.425 17.132 1.132 25.769 1.557 7.929.283 15.858 0 23.928.142 1.558 0 3.115.141 4.531.566.991.283 1.699.85 2.407 1.558.566.708.991 1.698.991 2.69 0 .99 0 2.124-.708 2.973-.566.85-1.416 1.558-2.407 1.84-1.133.425-2.407.709-3.681.709h-14.301v.424z"/><path fill="#102185" d="M211.024 92.274c1.274 0 2.548.425 3.539 1.275s1.699 1.982 1.841 3.115c0 1.274-.283 2.548-.991 3.681s-1.841 1.699-3.115 1.982c-3.54.991-7.221 1.558-10.902 2.407l-39.928 8.212c-.566 0-.991.283-1.557.283-1.274.283-2.69 0-3.823-.849-1.133-.85-1.982-1.841-2.407-3.257-.283-1.274 0-2.548.708-3.681s1.841-1.84 3.115-2.265a64 64 0 0 1 7.504-1.7l42.476-8.92c1.133-.14 2.265-.282 3.681-.424z"/></svg>