<svg xmlns="http://www.w3.org/2000/svg" width="335" height="223" fill="none" viewBox="0 0 335 223"><path fill="#102185" d="M298.181 193.987c-.708 0-1.132-.284-1.699-.284l-40.494-1.699c-.707 0-1.557 0-2.265-.283-.849-.283-1.699-.425-2.549-.283q-1.274 0-2.548.849c-8.637 3.823-16.991 2.691-24.211-3.398-7.221-5.946-9.911-14.158-7.929-23.503.283-.991.424-2.124.283-3.115 0-.991-.566-2.124-1.133-2.973-1.699-2.549-2.831-5.38-4.389-8.354a236 236 0 0 0-7.221 2.124c-2.265.708-4.814 1.558-7.362 2.407-4.956 1.558-6.938.85-9.77-3.398-2.832-4.389-5.38-8.778-8.212-13.026-.708-1.132-1.416-2.124-2.265-3.256-1.133.566-2.266.991-3.257 1.557-11.61 5.805-23.078 11.752-34.688 17.557-1.983.991-3.965 1.557-6.089 1.982-1.274.283-2.548 0-3.822-.566-1.133-.567-2.124-1.558-2.549-2.832a490 490 0 0 0-6.513-11.752c-.425-.708-.708-1.557-1.274-2.831-2.832.991-5.522 1.84-8.212 2.973-8.071 2.973-9.911 1.557-13.31-5.38-4.247-8.354-8.636-16.566-13.026-24.919-2.548-4.814-2.123-6.797 2.124-10.336 3.257-2.69 6.513-5.38 9.911-8.354-2.123-4.247-4.106-8.353-6.23-12.46-2.123-4.105-1.557-6.796 2.55-8.92 6.087-3.114 12.176-5.946 18.405-8.92L238.998 1.289c4.956-2.407 7.646-1.557 10.194 3.54 10.761 21.096 21.663 42.334 32.424 63.43.991 1.84 2.123 3.54 3.256 5.239.567.708.991 1.557 1.133 2.407.141.85.141 1.84 0 2.69-.283.85-.708 1.699-1.275 2.407-.566.708-1.274 1.274-2.123 1.557-8.779 4.248-17.557 8.637-26.194 12.885-1.133.566-2.265 1.274-3.54 1.982 1.699 5.947 3.257 11.752 4.956 17.557 2.407 8.495 2.265 8.92-4.672 14.158a971 971 0 0 1-7.646 5.805c.85 2.549 1.699 5.097 2.832 7.504 2.124 4.106 3.681 8.495 7.645 11.327.85.708 1.841 1.274 2.974 1.416 12.743.566 25.485 1.133 38.087 1.699.566 0 1.274 0 1.84-.142 0-1.274.142-2.548.142-3.822 0-4.956 0-9.77.283-14.725 0-5.097 2.549-7.646 7.646-7.504 6.796.141 13.592.424 20.388.991 5.38.424 6.938 2.265 6.938 7.787 0 24.636-.283 49.413-.425 74.049 0 5.522-2.124 7.646-7.646 7.929-6.088.283-12.035.567-18.123.85h-2.265c-4.814-.142-7.787-2.832-7.787-7.646 0-4.531.141-9.061.283-13.451v-6.937zm-164.665-48.423 139.746-70.651c-8.778-17.274-17.274-33.98-25.91-50.688a113 113 0 0 0-2.124 13.875c-.425 5.522-2.974 10.761-7.221 14.442-4.814 4.53-10.336 8.495-16.283 11.469-9.769 5.097-19.68 10.052-29.45 15.15-14.3 7.079-29.166 13.308-44.458 18.264-4.531 1.699-9.486 2.549-14.3 2.549a46.74 46.74 0 0 1-21.38-5.664c-1.274-.85-2.69-1.416-4.106-1.557a9010 9010 0 0 0 25.486 52.67zm-29.45-68.386a74.5 74.5 0 0 0 12.743 8.07c4.531 2.407 9.486 3.965 14.583 4.248s10.336-.425 15.15-2.265c25.202-9.062 49.555-20.247 72.775-33.698 4.39-2.548 8.212-5.946 12.318-9.203.85-.708 1.7-1.699 2.124-2.69q.85-1.487.85-3.398c.566-7.08 1.133-14.017 1.699-21.096 0-.991-.142-1.84-.425-2.832zm90.899 67.82c5.238-1.699 10.052-3.257 15.008-4.673 4.389-1.415 6.513-.566 9.061 3.54 1.699 2.69 3.257 5.522 4.673 7.787l14.725-5.663c-1.133-2.973-2.407-6.088-3.54-9.345-1.274-3.539-.708-5.805 2.124-8.212.991-.849 1.982-1.557 2.973-2.407l8.212-6.371c-1.699-5.805-3.256-11.469-5.097-17.557l-56.918 28.742c2.974 4.814 5.805 9.345 8.92 14.3zm128.277 65.837c.283-23.22.566-45.874.85-68.669-4.673-.991-9.487-1.133-14.301-.708-.424 23.362-.849 46.582-1.274 70.085zm-24.778-43.467c-12.176-.566-24.069-1.415-36.387-1.557 1.557 5.663-.284 10.477-1.699 15.858l37.945 1.699v-16zm-59.324 16.424c6.229.708 13.026-5.522 13.167-13.309 0-3.398-1.416-6.654-3.681-9.203-2.407-2.407-5.522-3.964-9.062-4.106-6.088-.283-13.026 5.522-13.026 13.309s6.938 13.734 12.743 13.168zM106.19 131.83l7.787-2.69-13.168-26.901-6.937 5.946 12.176 23.645zM23.645 178.27c-3.398 0-5.522-1.416-6.23-3.539-.424-.992-.283-2.124 0-3.257a5.53 5.53 0 0 1 1.982-2.407c14.442-10.052 28.884-19.963 43.468-30.016a9.3 9.3 0 0 1 3.822-1.699c.992-.283 1.983 0 2.832.283.85.425 1.7 1.133 2.124 1.982.566.85.85 1.699.85 2.69s-.425 1.983-.992 2.691c-.85 1.132-1.982 2.123-3.115 2.831-13.733 9.628-27.609 19.256-41.484 28.884-.992.566-2.124 1.132-3.257 1.699zM61.873 117.53q0 1.912-1.274 3.398c-.85.992-1.84 1.558-3.115 1.841-5.097 1.416-10.194 2.549-15.291 3.823-11.044 2.832-22.088 5.522-33.131 8.212-1.416.425-2.974.566-4.39.425q-4.671-.85-4.672-4.673c0-2.548 1.557-4.672 4.53-5.38l11.894-2.973 36.105-8.92c1.557-.425 3.256-.708 4.955-.566a4.4 4.4 0 0 1 1.84.424c.567.283.992.567 1.417 1.133.425.425.708.991.99 1.557.142.567.284 1.133.284 1.841zM60.882 203.048c-3.115 0-5.38-1.982-5.097-4.672 0-1.983.708-3.965 1.7-5.805a2740 2740 0 0 1 20.954-34.123 9 9 0 0 1 1.416-1.84c.85-.85 1.982-1.558 3.115-1.699 1.274-.142 2.407 0 3.54.708.99.708 1.84 1.699 2.123 2.831.283 1.133.283 2.407-.283 3.54a30 30 0 0 1-1.982 3.681c-4.673 7.646-9.486 15.292-14.017 22.937-1.982 3.115-3.681 6.513-5.38 9.77-1.416 2.548-2.974 4.672-5.806 4.672z"/></svg>