<svg xmlns="http://www.w3.org/2000/svg" width="293" height="159" fill="none" viewBox="0 0 293 159"><path fill="#102185" d="M86.161 112.249a393 393 0 0 0-13.21-5.083c-1.175-.227-2.18-.977-2.817-1.912a4.53 4.53 0 0 1-.708-3.355c.297-6.174.736-12.36.906-18.52.085-4.998-.226-10.067-.028-15.065.113-3.85.453-7.858 1.09-11.652.68-3.412 2.308-6.442 4.771-8.962 8.028-8.51 18.138-13.083 28.884-16.736 9.175-2.916 18.605-4.984 28.261-6.3 8.863-1.473 17.967-2.21 27.057-2.054 11.27.241 22.427-.396 33.598.893 7.278.92 14.556 1.84 21.861 2.874 4.942.594 9.784 1.472 14.555 2.732 16.17 4.305 32.197 9.387 46.285 18.945 4.375 2.973 8.325 6.654 11.469 10.944 3.483 4.885 4.36 10.393 4.53 16.24.425 14.244-1.501 28.19-3.695 42.023-.312 1.444-.227 2.973.085 4.332.241.864.382 1.869.241 2.648-.128.906-.652 1.756-1.19 2.464-1.982 2.322-3.993 4.375-6.145 6.456-7.518 6.654-16.225 11.171-25.443 14.725a23 23 0 0 0-3.808 2.053c-.255.028-.34.297-.595.34-3.95 1.047-7.886 2.109-11.992 2.916-2.606.609-5.253.85-7.745 1.317-44.019 7.83-87.048 3.37-129.028-12.077-2.549-.921-5.04-2.251-7.702-3.03-3.342-1.076-5.48-3.596-7.603-6.117-.78-1.047-1.445-2.095-1.742-3.341s-.467-2.492-.396-3.78c.297-4.39.467-8.75.65-12.998l-.14-1.005-.256.028zM89.9 48.124l7.136.807c26.576 2.875 53.109 5.367 79.586 9.274 2.096.354 4.304.68 6.442 1.289.906.127 1.869.637 2.605 1.302a4.9 4.9 0 0 1 1.487 2.478c.142 1.005.269 2.01-.255 2.846-.382.948-1.048 1.67-1.869 2.166-1.614 1.246-3.554 2.025-5.507 2.676a1119 1119 0 0 1-28.473 6.584c-13.508 3.001-26.93 5.734-40.48 8.48-1.26.17-2.336.709-4.177 1.219 1.897.764 3.002 1.373 4.219 1.854 6.825 2.252 13.678 4.772 20.686 6.485 17.854 4.446 36.204 6.923 54.681 7.447 12.587.453 25.287-.014 37.86-1.486 8.283-1.133 16.495-2.648 24.65-4.658a76 76 0 0 0 21.479-8.311 53.4 53.4 0 0 0 9.26-7.023c5.196-4.927 4.516-13.65.75-17.854-1.048-1.133-1.968-2.28-3.001-3.3-3.823-3.695-8.085-6.81-12.885-9.216-11.865-6.428-24.693-10.534-37.874-13.465a273.6 273.6 0 0 0-64.068-6.032 236 236 0 0 0-32.565 2.931 135 135 0 0 0-27.624 7.235c-4.261 1.473-8.325 3.568-12.063 6.13zm192.728 43.453c-4.375 2.52-8.609 5.267-13.04 7.405-11.384 5.522-23.518 8.339-35.878 10.407-14.003 2.18-28.049 3.199-42.278 2.86a278 278 0 0 1-44.104-3.922c-17.274-3.002-33.981-7.476-49.853-15.136-.396-.07-.665-.17-1.033-.113-.623 12.219-1.26 24.324-1.912 36.416 16.084 7.376 33.146 12.573 50.561 15.673.184-3.341.41-6.314.524-9.273.113-1.926.24-3.866.608-5.834.114-1.033.623-1.996 1.558-2.633a4.9 4.9 0 0 1 2.917-1.034c1.019 0 2.109.481 2.845 1.147.751.793 1.133 1.756 1.275 2.761.17 1.26.212 2.52.141 3.809-.198 4.12-.41 8.226-.509 12.077.283.212.679.283.962.51.666.169 1.303.198 1.968.368 16.283 2.237 32.707 2.803 49.046 1.84 15.985-.793 31.772-3.978 46.738-9.472 8.41-2.945 16.098-7.447 22.866-13.097 1.26-1.061 2.195-2.605 2.605-4.318 2.336-10.024 3.242-20.119 4.418-30.243l-.029-.255v-.127l-.382.17zm-195.87 11.907c.226-2.973.296-5.28.381-7.461.114-2.96.071-6.017.298-8.99-.029-1.148.34-2.224.962-3.2.624-.978 1.43-1.728 2.478-2.38 1.883-1.146 3.922-1.175 5.791-1.557 10.789-2.378 21.493-4.474 32.282-6.853 10.18-2.166 20.487-4.346 30.639-6.626.623-.085 1.204-.552 1.798-.878-12.02-1.925-23.73-3.51-35.524-4.714-13.493-1.473-27.085-2.804-40.692-4.262-4.417-.538-5.125-.07-5.522 4.46.057.382.114.878.071 1.401-.113 3.852-.212 7.816-.311 11.667-.227 8.594-.453 17.175-.651 26.024l7.985 3.242v.127zM12.777 42.843c1.133-.156 2.18.085 3.143.594a4.04 4.04 0 0 1 2.01 2.535 30.1 30.1 0 0 0 5.537 7.801c2.548 2.719 5.79 4.956 9.288 6.258 2.039.864 4.035 1.487 6.074 2.365 4.743 2.025 5.847 5.338 2.987 9.684-4.445 6.74-6.952 14.499-7.631 22.64-.227 2.081-.07 4.092-.425 6.187-.637 3.795-4.347 5.579-7.164 3.667-.991-.75-1.784-1.798-2.308-2.874-1.048-2.025-1.855-4.22-2.902-6.244-1.26-2.633-2.535-5.408-4.857-7.504-1.925-1.911-4.488-2.959-7.05-2.987a28 28 0 0 1-4.8-.496C.302 83.28-1.17 80.038.968 76.031a504 504 0 0 1 5.238-9.274c1.161-1.813 1.898-3.837 2.124-5.919.354-2.095.184-4.247-.354-6.343-.793-2.959.1-5.762.765-8.41.255-.934.665-1.628 1.36-2.223.679-.608 1.542-.85 2.42-.977l.255-.028zM26.214 84.95l6.201-15.292c-5.21-1.713-9.94-4.516-14.13-8.028l-6.202 14.385c6.117.822 10.322 4.46 14.258 8.906h-.128zM44.72 41.03c-.057-.382-.114-.878.084-1.288.85-4.97-.878-9.204-3.596-13.182a21.32 21.32 0 0 1-4.021-12.601c0-1.912.368-3.88 1.02-5.635a4.45 4.45 0 0 1 2.095-2.464 4.53 4.53 0 0 1 3.129-.425c.524.057.948.383 1.373.708a4.5 4.5 0 0 1 1.048 1.133c.311.467.382.963.58 1.458.071.496.142 1.005-.042 1.543-.85 4.97.864 9.076 3.469 13.196 3.37 5.027 4.842 11.086 4.007 17.075-.241 1.954-.78 3.682-2.563 4.574-2.96 1.685-6.017-.071-6.57-4.078zM65.447 31.035c-.793-2.067-1.6-4.248-2.52-6.301-.78-1.94-1.784-3.71-2.436-5.663-2.152-5.452-1.189-10.563 1.317-15.518.51-.963 1.175-1.7 1.84-2.421a4.47 4.47 0 0 1 2.408-1.09c.877-.114 1.784 0 2.605.41.835.524 1.444 1.204 1.685 2.067.368.85.254 1.883.113 2.662a29 29 0 0 1-1.303 3.497c-1.019 2.818-1.387 5.678.043 8.68.85 1.543 1.444 3.128 2.294 4.672 1.387 2.62 2.166 5.578 2.308 8.495.17 1.26-.029 2.563-.383 3.752a3.45 3.45 0 0 1-1.628 2.138c-.694.481-1.67.864-2.577.736-.892 0-1.84-.382-2.549-.92-.707-.538-1.203-1.373-1.472-2.35l-.382-2.761.382-.057z"/><path fill="#102185" d="M225.737 51.211c1.034.113 2.223.34 3.271.566a512 512 0 0 1 9.401 3.314c7.943 3.001 15.886 5.875 23.829 8.863 1.345.453 2.45 1.076 3.582 1.94.694.41 1.176 1.118 1.416 1.982a4 4 0 0 1-.056 2.435c-.142.793-.567 1.487-1.246 2.081-.68.595-1.416.836-2.167.935-1.373.184-2.704-.142-4.021-.467-11.199-4.347-22.526-8.665-33.726-13.012-.807-.27-1.755-.651-2.463-1.19-.694-.41-1.303-1.104-1.671-1.94a3.53 3.53 0 0 1-.099-2.548c.524-1.727 1.826-2.548 4.064-2.987h-.128zM244.752 72.49c.552 4.007-3.058 6.556-6.456 5.098-10.718-4.531-21.45-9.203-32.183-13.862a13.5 13.5 0 0 1-3.313-1.84 4.03 4.03 0 0 1-1.444-2.096c-.113-.878-.241-1.755.156-2.577.269-.807.934-1.529 1.656-1.883.694-.481 1.572-.594 2.492-.467 1.034.113 1.982.496 2.931.878 10.123 3.978 20.247 7.957 30.399 12.063 1.486.566 2.874 1.388 4.162 2.364.609.68 1.232 1.487 1.6 2.337zM118.854 114.032c-.17 2.45-.425 6.188-.68 9.925a4.03 4.03 0 0 1-.835 2.28c-.538.708-1.119 1.175-1.855 1.402a7.2 7.2 0 0 1-2.251.311 4.8 4.8 0 0 1-2.039-.864c-.581-.424-1.034-1.005-1.388-1.727a3.54 3.54 0 0 1-.311-2.251c.014-3.582.184-7.051.453-10.662.212-3.1 2.124-5.012 4.701-4.856 2.562.028 3.822 1.77 4.318 6.301zM213.646 124.283c-.057 3.327 0 6.513-.113 9.472.085.623-.1 1.161-.397 1.713-.184.538-.609 1.105-.963 1.402-.453.439-.92.765-1.529.977a4.1 4.1 0 0 1-1.755.241c-1.162-.1-2.266-.708-3.158-1.615-.764-.92-1.189-2.138-1.217-3.284-.043-3.059-.071-6.117.014-9.203.085-1.289.566-2.379 1.331-3.37a2.83 2.83 0 0 1 1.486-1.232c.595-.34 1.218-.425 1.869-.382.623-.085 1.303.198 1.855.509a3.5 3.5 0 0 1 1.331 1.346c.524 1.076 1.062 2.152 1.345 3.27l-.113.142z"/></svg>