<svg xmlns="http://www.w3.org/2000/svg" width="409" height="230" fill="none" viewBox="0 0 409 230"><path fill="#102185" d="M387.232 188.097c.029 4.559-.071 8.977.128 13.281.028 1.005 1.288 2.293 2.223 2.831 1.203.708 2.067 1.813 2.633 3.03.566 1.218.68 2.648.368 4.036-.368 3.086-.736 6.187-1.373 9.103-.765 5.183-3.936 6.655-7.915 6.613-36.812.17-73.497.509-110.324.821-33.825.24-67.65.495-101.334.75l-89.058.651-51.367.298c-6.287.099-8.368-1.572-9.19-7.802-.509-2.916-.735-5.791-1.09-8.82-.17-2.153-.042-4.432 1.813-5.636 3.695-2.265 3.653-5.55 3.072-9.047-.07-.58-.141-1.161-.311-2.18-3.412-.128-6.669-.227-9.954-.184-3.129-.085-6.145.127-9.274.028-4.106-.198-6.173-2.025-6.258-6.159-.085-6.428.1-12.828.298-19.213.41-17.769.665-35.425 1.061-53.208.44-18.052 1.006-35.949 1.445-54.015.396-16.495.637-32.862.892-49.371.127-3.412.113-6.966 1.77-10.053.438-1.232 1.274-2.28 2.336-2.86C8.913.27 10.23 0 11.503 0c9.813.17 19.526.042 29.224.057l70.964.34c11.695-.029 23.39-.057 35.071.042 12.261.042 24.352.198 36.614.226l71.388.383c11.681.113 23.39-.057 35.085-.1 16.665.128 33.329.27 50.164.284 12.403.056 24.664.085 37.053.141 6.556.071 13.097.142 19.652.199l1.969.24c8.438 1.006 8.891 3.2 8.962 9.77.085 14.838.042 29.52.127 44.359.043 18.83.199 37.803.241 56.634.014 15.404.028 30.809.057 46.199.028 6.995.198 13.862.085 20.828-.085 5.55-2.138 7.164-7.603 7.504-2.025.184-4.036.368-6.202.538-2.025.184-4.191.495-7.079.722l-.114-.297zm-160.077-85.391c-.255-1.458-.227-2.874.099-4.403 1.104-3.285-.439-5.904-2.124-8.523-2.28-3.554-3.781-7.717-4.149-11.908-.34-4.318.439-8.51 2.336-12.417 1.388-3.256 3.059-6.484 4.715-9.698 5.593-9.883 13.649-17.628 21.578-25.514 11.653-11.582 25.514-13.069 40.395-9.869 16.806 3.71 32.692 10.463 48.762 16.792 17.713 6.966 35.255 14.046 52.954 21.14 1.359.594 2.902.778 4.813 1.43-.085-15.986-.113-31.376-.212-47.22l-164.594-.807c-2.775 5.366-6.471 10.067-10.959 14.23-5.678 5.734-12.842 9.585-20.601 11.369-1.472.396-2.718 1.246-3.71 2.407-2.633 2.959-5.026 6.244-7.518 9.231-1.671 2.082-3.61 3.993-5.805 5.579-.793.623-1.699 1.076-2.718 1.246-1.02.17-2.025.184-2.988-.071-.991-.113-1.911-.651-2.69-1.317a7.35 7.35 0 0 1-1.855-2.364 22 22 0 0 1-1.685-5.055c-.764-4.375-1.515-8.877-1.968-13.352a5.5 5.5 0 0 0-.92-3.1c-.609-.92-1.373-1.586-2.308-2.124-5.748-3.257-9.925-7.603-11.865-14.102-.184-.878-.779-1.798-1.571-2.322a3.92 3.92 0 0 0-2.775-.623c-22.513-.113-45.025-.24-67.551-.354-17.954-.142-35.921-.142-54.016-.17-4.29.057-8.707.1-13.564.1-.453 18.193-.877 36.118-1.189 54.184 1.161-.141 2.025-.184 2.903-.368 13.45-2.818 26.901-5.635 40.366-8.453 19.893-4.19 39.672-8.679 59.551-12.714 7.589-1.515 15.136-2.62 22.895-3.115 3.879-.255 7.943.382 11.482 1.798 3.668 1.572 6.952 3.823 9.458 6.825a41.3 41.3 0 0 1 8.92 16.041c2.365 7.703 4.574 15.518 6.329 23.433 2.322 10.406 2.209 20.94-1.586 31.177-1.741 5.069-1.953 10.463-.722 15.603.524 2.775 1.048 5.55 1.671 8.75 16.523.113 33.372 0 50.929-.198-1.133-1.275-1.628-1.912-2.138-2.393a53.3 53.3 0 0 1-12.148-17.698 35.3 35.3 0 0 1-2.705-9.586c-1.076-7.688 7.547-15.503 15.15-12.304.963.255 1.94.51 2.917.638l.411.198zm169.634 48.324c0-2.421.255-4.531.227-6.669 0-10.69-.17-21.266-.184-31.956-.071-11.412 0-22.81-.057-34.221 0-4.7-1.77-6.626-6.258-8.453-12.672-4.927-25.358-9.727-38.016-14.796-17.953-7.277-35.878-14.824-54.284-20.728-3.285-1.104-6.627-1.784-9.798-2.733-6.641 13.89-18.18 17.373-34.788 10.676-1.628 1.657-3.54 3.427-5.324 5.21-6.484 6.5-11.525 14.173-14.979 22.74-.991 2.307-1.445 4.955-1.176 7.418.255 2.591 1.261 4.998 2.875 7.037 2.024-.184 4.162-.212 6.159-.269 1.826.213 3.766.736 5.536 1.373l.396-3.37c1.02-8.58 7.348-13.804 15.858-13.365 3.695.156 7.405 1.317 10.59 3.256 7.193 4.276 13.862 9.36 20.021 15.08 15.121 14.356 33.23 22.639 53.449 26.476 1.118.127 2.265.127 3.44-.156 4.092-.793 6.471.765 7.349 4.163.184.878.226 1.741 0 2.421-.099.849-.482 1.656-.991 2.308-.51.651-1.147 1.288-1.77 1.642-.765.482-1.501.68-2.379.85-1.897.339-3.879.255-5.692-.114-13.55-2.322-26.717-6.753-38.908-13.337-8.849-4.757-16.452-11.511-24.098-17.981-4.658-3.979-9.783-7.59-14.796-11.03a16.2 16.2 0 0 0-5.989-2.421c-3.936-.467-5.72 1.317-4.884 5.125.665 2.79 1.486 5.451 2.605 8.014.637 1.784 1.43 3.596 1.925 5.366a5.1 5.1 0 0 1-.099 3.271c-.41 1.09-1.076 1.869-2.024 2.605-.807.765-1.841 1.062-3.002 1.218-1.147 0-2.251-.269-3.172-.949-1.727-1.062-3.256-2.534-4.969-3.724-2.889-2.053-5.749-4.389-9.218-5.238-1.09.722-1.783 1.784-2.067 3.03-.283 1.246-.297 2.534.269 3.738 1.091 2.845 2.195 5.535 3.441 8.254 1.019 2.265 2.449 4.573 3.469 6.824.58 1.062.722 2.365.425 3.611-.156 1.26-.85 2.322-1.799 3.072-.948.737-2.138 1.176-3.299 1.317-1.288 0-2.392-.283-3.454-.977-1.459-.892-2.45-2.152-3.738-3.299-3.002-2.35-6.003-4.701-9.161-6.938a26 26 0 0 0-4.63-1.84c.34 1.897.694 3.794 1.331 5.578a48 48 0 0 0 11.143 16.58c2.832 2.619 5.493 5.366 8.141 8.24.51.496 1.02.977 1.713 1.204s1.374.453 1.969.24c4.006-.099 7.985-.042 11.978 0l66.644-.467c9.996-.085 19.964-.042 30.116-.255 4.587-.169 6.825 1.388 6.994 5.961.213 4.163-.127 8.255-.198 12.389-.056 1.699.014 3.426-.057 5.267l3.087.368c5.38.354 10.747.708 16.141.92 1.416.029 2.959.354 4.134 1.204a8.95 8.95 0 0 1 3.059 3.072c1.67 2.761 4.106 5.055 7.943 3.936 1.019-.17 2.038-.325 3.058-.495l-.227-12.432c-.24-.311-.651-.509-1.062-.693-.679-.227-1.515-.467-2.194-.694-10.407-3.667-17.415-10.633-20.7-21.294-.736-2.223-1.19-4.418-1.756-6.768-1.911-9.062-.679-18.194-1.175-27.227-.17-2.152-.042-4.432.071-6.556.368-4.233 2.676-6.952 5.946-6.853 3.13.085 5.267 2.478 5.282 7.193 0 7.136 0 14.399-.015 21.677-.113 5.692.779 11.355 2.719 16.721.934 2.959 2.619 5.593 4.771 7.844 2.308 2.124 4.984 3.596 8.028 4.375l.071-.566zM55.198 161.337c.084-3.129.254-5.677.269-8.24 0-5.989 2.293-8.424 8.41-8.41 12.856-.184 25.67-.071 38.526-.255 18.972-.014 37.803-.198 56.634-.241 1.416.028 2.874-.226 4.177-.354-.354-3.03-.467-5.621-.892-8.084-1.373-6.443-.85-13.225 1.317-19.384 5.097-14.073 1.43-27.495-2.846-40.691-3.03.354-5.678 1.033-8.212.736-4.361-.524-8.623-1.883-12.332-4.177-3.696-2.435-6.74-5.65-8.849-9.472-1.912-3.087-3.512-6.414-5.622-10.223L13.401 76.642c-.51 23.46-1.005 46.652-1.543 70.396 4.304-2.619 7.872-6.187 10.25-10.619 5.877-9.854 9.034-20.742 11.625-31.701.212-1.826.453-3.794.396-5.663-.155-3.441 1.289-5.975 4.05-6.5.736-.198 1.444-.112 2.138-.028.694.085 1.373.454 2.039.807.665.369 1.16.992 1.515 1.615.353.608.693 1.359.75 2.08.538 2.634.651 5.353.326 8.029a126 126 0 0 1-9.53 29.662c-4.827 10.548-11.44 19.454-22.2 24.735a4.3 4.3 0 0 0-1.444 1.402c-.368.665-.453 1.373-.24 1.968-.03 4.984-.185 9.953-.227 15.093-.1 1.982-.043 3.993-.029 6.272l14.47.581.624-5.196c.354-2.96.424-5.933 1.061-8.864 1.105-5.72 4.276-8.325 10.01-8.651 5.735-.311 11.61-.467 17.784-.878v.142zm154.47 41.386c21.72-.411 42.972-.439 64.592-1.133.184-15.943.439-31.177.312-46.879l-64.493.297a4466 4466 0 0 0-.396 47.573v.142zm-73.072-47.219c-.383 16.353-.694 32.14-1.048 48.21 21.139-.326 41.966-.411 63.006-1.048.212-16.084.368-31.758.396-47.573l-62.496.397h.142zm212.139-.935-62.921.34a5189 5189 0 0 0-.312 46.879l61.845-.892c.439-15.631.807-30.696 1.246-46.341h.142zm-282.196 1.289a3882 3882 0 0 0-.567 48.989l58.56-.864 1.062-48.352zm-33.556 62.581 347.665-2.605.454-3.795c-5.975-.142-11.766-.552-17.472-.51-13.975.043-27.992.369-41.981.553l-116.412 1.656c-21.281.312-42.703.609-63.997.92-19.582.368-39.022.765-58.575 1.006-5.564.042-11.015.255-16.537.028-9.642-.439-19.256-1.161-28.884-1.727l-4.672-.269c.1 1.585.24 2.732.453 4.615v.142zM165.45 11.511c.142 1.161.722 2.364 1.317 3.299.736.948 1.486 1.883 2.562 2.45 1.714 1.203 3.569 2.42 5.409 3.638 1.6.906 2.874 2.195 3.837 3.738s1.458 3.313 1.543 5.026c.312 3.313.935 6.527 1.487 10.294 1.133-1.147 1.784-1.785 2.449-2.563 1.827-2.209 3.526-4.432 5.211-6.655.849-1.175 1.968-2.194 3.214-3.044 1.232-.708 2.718-1.246 4.148-1.359 5.777-.595 10.393-3.469 14.796-6.938 2.804-1.954 5.126-4.672 6.485-7.787l-52.585-.283.127.156zM38.094 173.13c-.028 4.984-.128 9.402-.24 13.946l-.142 13.097c-.17 1.402.24 2.733 1.953 2.804 4.956.311 9.926.467 15.179.665.127-10.675.325-20.643.424-31.036l-17.032.538h-.142zm338.25 5.834c-5.861.155-11.284-1.062-17.033-.609-.325 7.518-.608 14.611-.906 21.988 6.117.156 11.978 1.147 17.798-2.152 0-4.842.042-9.982.226-15.093 0-1.147 0-2.28-.057-4.29v.141z"/><path fill="#102185" d="M315.151 69.137c-1.685-.199-3.172-.949-4.305-2.223s-1.656-2.903-1.585-4.616a5.6 5.6 0 0 1 .679-2.053c.368-.665.85-1.175 1.487-1.67.637-.496 1.246-.85 1.968-.907a5.6 5.6 0 0 1 2.152-.17c1.685.198 3.143 1.09 4.262 2.506.991 1.26 1.656 2.903 1.444 4.588-.17 1.401-1.034 2.732-2.138 3.596s-2.577 1.26-3.979 1.09v-.142zM337.068 81.454c-1.544-.184-2.874-1.061-3.724-2.293-.849-1.246-1.387-2.733-1.203-4.276.184-1.544.169-1.402.679-2.053.368-.666.85-1.175 1.487-1.67.637-.496 1.232-.709 1.968-.907a5.6 5.6 0 0 1 2.152-.17c1.543.184 2.874 1.062 3.724 2.294.849 1.246 1.246 2.718 1.076 4.12s-.92 2.888-2.011 3.752c-1.118 1.005-2.591 1.402-4.148 1.36zM86.474 89.072c.708.084 1.402.17 2.081.537.68.369 1.204.709 1.558 1.332.51.495.708 1.231.92 1.826s.27 1.317.184 2.025c-.198 1.685-.963 3.313-2.379 4.417-1.274 1.133-3.044 1.628-4.757 1.572-1.543-.184-3.044-.793-4.05-1.912-1.004-1.118-1.684-2.62-1.642-4.19.383-3.229 4.135-5.919 7.943-5.608zM119.875 86.495c-.085.708-.184 1.544-.553 2.223-.368.68-.863 1.317-1.5 1.813-.638.495-1.246.85-1.983 1.047-.736.199-1.6.241-2.293.156-1.685-.198-3.144-1.09-4.121-2.492-.991-1.26-1.486-3.03-1.288-4.715.085-.707.17-1.401.68-2.053.368-.665.849-1.175 1.345-1.699.623-.495 1.246-.85 1.982-1.047a5.6 5.6 0 0 1 2.152-.17c.85.099 1.685.198 2.336.708a8.5 8.5 0 0 1 1.954 1.515c.496.623.977 1.401 1.175 2.137.198.737.383 1.615.284 2.464l-.156.128z"/></svg>