<svg xmlns="http://www.w3.org/2000/svg" width="242" height="225" fill="none" viewBox="0 0 242 225"><path fill="#102185" d="M155.657 34.225c4.941 2.166 9.854 4.205 14.527 6.541 8.722 4.318 16.594 9.883 23.447 16.693 3.95 3.554 7.489 7.306 10.916 11.355 11.893 15.093 18.59 33.599 19.242 52.741 1.033 20.105-5.069 39.998-17.147 56.11-2.222 3.087-4.771 5.933-7.291 8.906 1.444 2.832 3.001 5.366 4.148 8.099 1.912 4.488 3.681 9.004 5.182 13.677.609 1.642.807 3.469.269 5.097-.382 1.756-1.359 3.285-2.817 4.29-2.337 2.11-4.97 4.092-7.646 5.663-3.894 2.138-7.844 1.275-11.015-1.798-3.356-3.341-6.457-6.994-9.543-10.505-1.445-1.558-2.648-3.413-4.163-5.536-32.31 14.611-64.068 13.337-95.401-3.781-1.388 1.713-2.634 3.271-4.036 4.857-3.44 3.794-6.697 7.844-10.293 11.511-7.986 7.843-16.424 4.771-22.965-1.643-1.275-1.288-2.025-2.916-2.35-4.587-.185-1.685-.1-3.554.721-5.211 2.025-4.913 4.347-9.868 6.966-14.569 2.011-3.78 4.489-7.178 6.924-11.001-1.175-1.586-2.194-3.186-3.37-4.757-12.955-17.118-19.61-36.473-19.071-57.753.835-29.138 13.394-52.57 36.543-70.326 8.425-6.329 18.01-11.2 28.09-14.144.992-.113 1.785-.623 2.422-1.26s1.119-1.543 1.444-2.435c.694-2.776 1.841-5.324 2.69-7.986 2.393-6.81 7.094-10.732 14.414-11.525s4.545-.07 5.848-1.203c1.033-.963.764-3.497.991-5.38.155-1.162.75-2.223 1.529-3.016.906-.807 2.01-1.218 3.129-1.331 1.118-.114 2.308.325 3.242 1.076.935.75 1.6 1.67 1.883 2.93l.666 6.188c1.614.396 3.214.793 4.8.906 12.742.609 18.066 12.998 16.863 22.951l.155.127zm-39.758 6.3C94.675 43.102 76.906 51.3 62.748 66.506c-18.76 20.12-25.712 44.076-19.667 70.921 7.122 31.559 27.057 52.613 57.541 63.274 24.566 8.594 48.72 6.697 71.544-6.031 21.762-12.035 35.439-30.47 40.168-55.19a77 77 0 0 0-8.042-51.962c-5.069-9.996-12.021-18.916-20.629-26.109-9.246-7.83-20.134-13.634-31.631-17.23-11.638-3.583-23.73-4.843-35.864-3.668l-.283.028zm30.116-8.523c-.694-2.492-1.303-4.134-1.756-5.65-.283-1.245-.977-2.463-1.911-3.213a6 6 0 0 0-3.455-1.614c-6.966-1.246-14.102-1.317-21.11-.284-4.758.793-6.74 3.583-6.825 9.289 11.681-1.26 23.546-.836 35.057 1.472M60.737 188.766c-4.021 6.272-8.099 11.978-10.817 18.547-.567 1.345-.991 2.676.694 3.766 2.152 1.473 3.624 1.883 5.196.581 5.21-4.545 9.77-9.741 13.55-15.56l-8.623-7.32zm130.472 5.536-8.311 6.173c3.257 5.054 7.179 9.755 11.752 13.819 1.515-1.728 4.205-1.884 3.795-4.404a42.9 42.9 0 0 0-7.236-15.588M52.624 35.344c-.722 1.189-1.741 2.336-2.987 3.171-9.515 5.04-15.32 13.408-20.771 22.271-2.18 3.568-3.794 7.207-5.578 10.973s-4.56 5.395-7.561 4.29c-2.832-1.231-3.837-4.502-2.195-8.283 5.777-12.516 12.771-24.451 23.787-33.3 2.718-2.21 5.776-3.809 8.934-4.97 3.596-1.246 6.669 1.444 6.215 5.96l.156-.127zM4.3 60.857C1.074 60.433-.824 57.474.35 53.92a57.3 57.3 0 0 1 3.78-9.218 65.2 65.2 0 0 1 18.223-22.455c2.52-1.812 5.154-3.327 7.773-4.842.779-.468 1.67-.78 2.549-.949a5.1 5.1 0 0 1 3.27.142c1.09.425 1.855 1.104 2.45 2.039.439 1.061.566 2.222.283 3.327s-.991 2.152-1.926 2.747c-.637.481-1.274.976-1.883 1.316C23.585 32.54 16.194 42.14 11.224 53.92c-.623 1.486-1.09 2.86-1.84 4.19-.41.95-1.218 1.7-2.138 2.153s-1.94.608-3.059.453l.128.155zM232.256 62.967c.312 2.817-.75 4.927-2.52 5.677-.935.524-1.926.637-3.087.481-1.019-.17-2.067-.637-2.704-1.274-.807-.906-1.642-1.954-2.322-3.03-4.545-6.484-9.104-13.11-15.744-17.811-2.322-1.742-4.899-3.172-7.363-4.9-1.218-.721-2.294-1.457-3.398-2.477-.793-.765-1.345-1.855-1.473-3.115-.127-1.132.184-2.294.793-3.214a4.42 4.42 0 0 1 2.648-1.854c1.104-.27 2.251-.241 3.157.226 3.144 1.373 6.173 3.03 9.076 4.856 8.92 6.16 15.518 14.414 21.337 23.461.524.935 1.062 1.883 1.459 2.974zM210.223 17.362c1.02.17 2.054.496 3.087.949a72.4 72.4 0 0 1 27.086 25.273 8.4 8.4 0 0 1 1.246 3.568c.085.85-.099 1.713-.567 2.619-.34.75-.977 1.529-1.784 1.897-.793.51-1.628.75-2.492.694-.849.085-1.741-.24-2.506-.722-1.246-1.005-2.378-2.308-3.384-3.625-5.437-8.098-12.728-14.994-21.238-19.92-1.359-.709-2.605-1.714-3.44-2.903-2.336-3.172-.227-7.377 4.29-7.73l-.298-.114z"/><path fill="#102185" d="M202.707 115.014c1.826 28.713-8.949 51.523-32.537 67.749-17.769 12.176-37.903 15.631-58.928 10.788-9.628-2.095-18.888-6.074-26.76-11.765-8.043-5.82-14.796-13.069-19.865-21.635-8.439-13.465-11.88-29.478-9.444-45.123 4.786-32.14 23.32-52.939 54.242-61.986 22.64-6.584 44.133-2.79 63.431 11.072 8.453 5.776 15.532 13.266 20.757 22.101 5.224 8.835 8.424 18.605 9.373 28.756l-.284.029zm-10.577 1.005c-1.232-4.856-2.067-9.883-3.71-14.555-3.723-10.704-9.726-20.162-18.618-27.326-12.021-9.812-27.27-15.135-42.774-14.88-27.326.113-54.822 19.75-61.434 48.238-3.894 16.65-1.501 32.21 7.178 46.652 14.895 24.452 43.297 35.623 71.431 28.445 14.555-3.71 27.27-12.488 36.062-24.693 8.793-12.205 13.012-27.184 11.823-42.15l.028.283z"/><path fill="#102185" d="M131.135 99.835c-3.907 5.975-6.513 12.234-9.514 18.69l32.069 21.308c-.156-1.401-.255-2.392-.099-3.553.099-3.002 1.473-4.857 3.993-5.267 1.104-.269 2.393-.255 3.454.339s1.869 1.501 2.138 2.62c1.374 4.842 2.478 9.698 3.144 14.611.127 1.133-.043 2.28-.652 3.2-.608.921-1.515 1.728-2.477 2.124-4.758 2.081-9.657 4.177-14.612 5.848-3.299 1.076-5.706-.1-6.839-2.676-1.118-2.45.128-5.423 2.931-7.151.68-.354 1.345-.722 2.28-1.246-.652-.778-1.289-1.43-1.912-1.925-8.141-5.522-16.424-10.902-24.579-16.566a56 56 0 0 1-7.802-6.272c-3.015-2.803-3.185-4.502-1.458-8.24 2.549-5.409 5.239-10.817 7.929-16.24.453-1.048.934-1.954 1.487-3.44l-3.101.34c-.991.113-2.011-.213-2.931-.822-.906-.467-1.572-1.402-1.968-2.35a5.93 5.93 0 0 1-.34-3.101c.312-1.034.934-1.954 1.727-2.464 5.48-3.299 11.837-5.125 18.251-5.11 2.421.027 4.205 1.967 5.154 4.148a105 105 0 0 1 3.568 9.302c.609 1.642.948 3.455 1.543 5.097 1.076 3.299.326 5.663-2.393 6.81-1.218.567-2.633.708-3.95.283a5.48 5.48 0 0 1-3.115-2.506 54 54 0 0 1-2.379-6.145l.468.383zM77.035 134.17c-1.402.155-2.874-.255-3.95-.991-1.232-.864-1.94-2.068-2.223-3.455-.071-.708-.156-1.402.056-2.138s.425-1.331.793-1.94a3.84 3.84 0 0 1 1.558-1.444c.538-.34 1.217-.566 1.91-.779 1.403-.155 2.875.255 3.951.991 1.09.878 1.94 2.068 2.223 3.469.07.708.156 1.402-.056 2.138-.213.737-.425 1.331-.793 1.94a3.84 3.84 0 0 1-1.558 1.444c-.538.34-1.217.567-1.911.779zM134.972 68.092c.071.708.156 1.402-.057 2.138-.212.736-.424 1.33-.934 1.954a3.85 3.85 0 0 1-1.557 1.444c-.538.34-1.218.566-1.926.637-.708.07-1.26.141-1.996-.07-.595-.227-1.19-.44-1.813-.95a5.1 5.1 0 0 1-1.302-1.571c-.354-.68-.567-1.218-.638-1.926-.155-1.401.27-2.732 1.133-3.964.878-1.09 2.082-1.798 3.483-2.081 1.26-.142 2.591.283 3.526 1.047 1.076.737 1.642 1.954 1.911 3.214l.156.128zM184.626 120.252c.056.566.141 1.26-.085 1.854-.227.595-.439 1.19-.821 1.657a6.3 6.3 0 0 1-1.43 1.288 4.1 4.1 0 0 1-1.784.623c-.567.057-1.261.142-1.855-.084-.581-.085-1.19-.44-1.657-.822a6.3 6.3 0 0 1-1.288-1.43 4.06 4.06 0 0 1-.623-1.784c-.142-1.26 0-2.562.75-3.638.751-1.077 1.798-1.756 3.2-2.053.566-.057 1.26-.142 1.855.084.58.085 1.189.439 1.798.808.467.382.949.892 1.289 1.43s.566 1.217.622 1.784zM127.423 170.728c.114.991-.226 1.869-.708 2.634-.481.764-1.274 1.415-2.081 1.798a4.24 4.24 0 0 1-2.676.283 5 5 0 0 1-2.421-1.303 5.3 5.3 0 0 1-1.402-2.407c-.113-.991-.198-1.826.128-2.718.325-.892.962-1.671 1.614-2.166.793-.51 1.628-.751 2.619-.85 1.288 0 2.464.439 3.285 1.359.948.892 1.359 1.997 1.487 3.257l.155.127z"/></svg>