<svg xmlns="http://www.w3.org/2000/svg" width="282" height="268" fill="none" viewBox="0 0 282 268"><path fill="#102185" d="M107.172 212.295c-6.146.036-11.852-.007-17.7-.066l-74.584.207c-1.997.013-4.15.023-6.147.036-5.58.115-8.389-2.405-8.646-8.002-.21-4.888.004-9.714-.066-14.572.155-23.687.152-47.264.292-70.952.118-21.267.206-42.392.325-63.66.138-14.979.134-29.974.147-45.111C.853 3.322 4.459-.193 11.281.008 24.234.3 37.216.465 50.183.758c12.4.226 24.913.597 37.314.824s24.661.424 36.906.62c9.98.191 19.947.368 30.068.575l37.33.683c9.98.191 19.947.368 30.068.575 10.249.224 20.528.306 30.776.53 5.848.058 11.773.571 17.667.347 8.049-.361 11.432 6.373 10.634 12.407-1.419 10.67-.401 21.234-.532 31.923-.148 11.836.145 23.593.138 35.445.115 14.162.246 28.168.361 42.33.02 13.863.168 27.728.174 41.591-.007 11.852.144 23.593.279 35.462.023 5.14-2.168 7.713-7.309 7.736-9.023.233-18.014.17-26.894.279-12.433.055-24.851-.016-37.284.039-6.869.082-13.581.053-20.419-.006-1.416-.05-2.736.2-4.182.306-1.491 6.944-1.708 13.908-.355 20.952.533 1.353 1.505 2.627 2.996 3.259 3.722 2.066 7.664 3.597 11.212 5.915 2.496 1.624 4.661 3.624 6.34 5.985 3.338 5.02 1.567 10.786-3.689 13.794-4.139 2.162-8.715 3.269-13.304 3.37-19.933.638-39.755 1.419-59.655 1.775-10.595.168-21.392-.276-32.033-.831a77 77 0 0 1-11.313-1.939c-.99-.128-1.915-.68-2.842-1.232-5.92-3.783-6.094-11.093-.02-14.854a166 166 0 0 1 15.138-8.554c2.438-1.11 4.516-2.821 5.935-4.924 1.435-2.23 2.336-4.695 2.419-7.398.371-4.951.709-9.619 1.018-15.151l.032-.282zm-96.608-48.988 260.712-2.449c-.365-48.759-.618-97.346-1.013-145.964l-258.922-4.59c-.253 51.241-.444 102.074-.65 153.033l-.142-.002zm-.184 38.966 261.054-.688c-.059-10.295-.181-20.166-.256-30.32l-260.821 2.149c-.02 9.855-.115 19.129-.118 28.842l.141.003zm163.674 9.785-56.147.099-.86 6.459c-.526 3.928-.628 7.92-1.154 11.849-.479 3.646-1.679 7.21-3.791 10.209s-4.868 5.493-8.219 7.043c-3.068 1.597-6.152 3.321-9.079 4.934-1.07.565-2.03 1.301-3.745 2.366.959.269 1.932.538 2.907.666 12.512.385 24.848 1.163 37.282 1.107 18.595-.233 37.129-1.061 55.788-1.718 3.16-.151 6.445-.145 9.734-2.276-1.445-.914-2.48-1.765-3.673-2.491-3.203-1.704-6.517-3.58-9.894-5.032-2.451-.9-4.648-2.618-6.074-4.806-1.567-2.204-2.365-4.736-2.297-7.44-.239-6.744-.493-13.488-.762-21.096l-.002.142z"/><path fill="#102185" d="m58.412 88.12 18.11 7.69c8.12 3.364 16.366 6.885 24.486 10.263 1.35.615 2.701 1.215 4.004 2.098.769.677 1.522 1.482 1.662 2.503.296 1.038.138 2.155-.273 3.111-.41.957-1.103 1.853-2.016 2.307-.93.595-1.951.735-3.082.591a10.6 10.6 0 0 1-2.89-.808c-15.565-6.504-31.271-13.011-46.789-19.798-2.01-.979-3.814-2.507-5.289-4.27-2.572-3.196-2.047-6.134 1.022-8.722.66-.627 1.433-1.097 2.204-1.567C62.83 72 76.21 62.642 89.477 53.126c1.274-.972 2.503-1.662 4.027-2.319 1.07-.565 2.234-.703 3.334-.418 1.117.145 2.152.995 2.747 1.939.595.943.86 2.108.7 3.38s-.726 2.184-1.547 3.078c-1.15 1.13-2.267 1.992-3.541 2.964-11.034 7.822-21.941 15.646-32.975 23.468-.976.863-2.093 1.725-3.84 3.058l.001-.142zM219.752 85.439a820 820 0 0 0-5.073-2.681c-12.154-6.327-24.292-12.809-36.588-19.151-1.334-.743-2.637-1.64-3.656-2.632-.769-.677-1.223-1.59-1.222-2.596-.155-1.021.115-1.98.509-2.781.41-.943 1.071-1.57 1.984-2.024s1.935-.594 2.766-.341c1.541.207 3.032.838 4.383 1.439 14.572 7.509 29.114 15.16 43.67 22.81 1.334.742 2.638 1.64 3.627 2.773 4.345 4.865 3.866 8.511-1.594 11.928-14.273 8.524-28.704 17.173-43.132 25.681a21.4 21.4 0 0 1-4.547 1.971c-1.038.297-2.043.296-2.986-.115-.942-.41-1.711-1.087-2.306-2.017s-.736-1.95-.608-2.94c.128-.989.68-1.915 1.357-2.67a17.5 17.5 0 0 1 3.652-2.792c11.944-7.129 23.888-14.243 35.816-21.23 1.101-.706 2.046-1.443 3.903-2.477l.002-.142zM169.096 41c-.411.944-.854 2.169-1.61 3.503-15.209 29.538-30.448 59.218-45.798 88.754-.585 1.209-1.294 2.26-2.129 3.14-.693.91-1.747 1.333-2.785 1.629-1.163.125-2.28-.019-3.206-.571s-1.679-1.371-2.102-2.425-.562-2.217-.151-3.16c.301-1.241.9-2.45 1.468-3.518 15.193-29.397 30.244-58.824 45.434-88.08.615-1.35 1.499-2.653 2.507-3.814.677-.768 1.606-1.363 2.628-1.504a5.75 5.75 0 0 1 3.08.414c2.011.979 2.746 2.944 2.678 5.647z"/></svg>