<svg xmlns="http://www.w3.org/2000/svg" width="313" height="321" fill="none" viewBox="0 0 313 321"><path fill="#102185" d="m127.81 41.155 2.549-3.822c7.362-11.752 17.557-21.663 29.733-28.6C172.41 1.794 185.719-1.32 199.736.52c19.114 2.549 33.273 12.885 42.901 29.45 8.212 14.3 10.619 29.875 9.203 46.157-.141 2.265-.425 4.53-.708 7.08l4.673 1.274c15.008 3.823 28.459 10.477 39.219 21.804 9.203 9.345 15.15 21.379 17.132 34.264 1.841 12.601-.142 25.344-5.663 36.812-6.513 14.017-16.283 25.203-28.601 34.264-1.274.991-2.69 1.982-4.389 3.115.425 1.557.708 3.115 1.133 4.672 4.106 18.265 2.265 35.821-6.372 52.528-6.796 12.885-16.565 22.938-30.299 28.459-19.115 7.788-36.954 4.814-53.52-7.221-.849-.566-1.699-1.274-2.407-1.84-.142-.142-.425 0-.991-.142-2.265 2.832-4.389 5.805-6.796 8.495-9.77 11.327-23.504 18.548-38.37 20.106-20.247 2.548-38.228-3.54-54.228-15.433-21.52-15.858-34.264-37.52-39.36-63.714-1.841-9.345-1.983-17.415-.992-28.742l-3.964-1.841c-15.717-7.22-27.61-18.264-33.84-34.688-9.77-25.202 1.416-52.387 27.468-63.856 3.257-1.415 6.796-2.406 10.194-3.539l3.115-.991c-.424-3.823-.99-7.363-1.274-10.902-1.274-12.885 2.549-25.91 10.619-35.963 7.646-9.628 17.698-15.574 29.308-18.83 14.017-3.965 28.176-3.54 42.335-.568.849 0 1.557.142 2.548.425m-22.37 6.797c-9.911 0-15.716.99-22.796 3.398-12.035 4.105-21.663 11.326-26.901 23.22-4.814 10.902-4.814 22.229-.991 33.556 1.699 5.097 2.265 6.937-4.673 7.787-7.22.849-14.017 3.256-20.247 6.937-18.123 10.761-25.91 31.857-16.14 52.387 3.964 8.212 9.77 15.15 17.273 20.389 4.956 3.539 10.336 6.229 16 8.353 3.68 1.416 4.389 2.549 4.105 6.372 0 1.699-.141 3.398-.283 4.955a70.5 70.5 0 0 0 0 17.273c3.823 29.026 17.416 52.104 42.335 67.962 12.601 8.07 26.335 11.893 41.484 10.053 15.575-1.983 27.751-9.628 36.813-22.371 1.699-2.407 2.973-5.097 4.531-7.646.283-.708.849-1.274 1.416-1.699.566-.424 1.274-.708 1.982-.849h2.265c.708.141 1.416.566 1.983 1.132.707.567 1.274 1.275 1.982 1.841a97 97 0 0 0 8.637 6.938c5.521 3.823 11.893 6.229 18.547 6.937 6.655.85 13.451 0 19.681-2.407 10.336-3.822 19.114-11.043 24.778-20.53 10.619-16.99 12.742-35.254 7.362-54.368-1.274-4.39-.425-7.222 3.398-10.478 1.416-1.133 2.973-2.124 4.389-3.115 12.035-9.061 21.805-19.963 27.185-34.264 6.796-18.264 5.38-35.679-6.372-51.537-7.504-10.194-17.556-16.99-29.166-21.38-5.664-1.981-11.469-3.539-17.415-4.813-4.531-1.133-5.947-3.115-5.239-7.646 1.699-8.212 1.982-16.565 1.133-24.919-1.133-9.628-4.248-18.83-9.345-27.043-11.327-17.84-30.866-27.043-53.378-21.38-13.451 3.54-25.344 11.186-34.123 21.946-3.681 4.673-7.221 9.628-10.336 14.867-2.265 3.398-3.681 4.106-7.645 3.256-.425 0-.708-.283-1.133-.283-7.079-1.84-14.3-3.115-20.813-2.831z"/><path fill="#102185" d="M217.718 219.695c-16.424-.566-28.884-5.805-37.238-18.264-9.769-14.442-9.627-29.875-1.557-44.883 7.787-14.442 20.389-22.795 36.813-25.061 6.937-1.132 14.017-.424 20.671 1.841 6.655 2.407 12.602 6.371 17.274 11.61 5.522 5.947 9.061 13.592 10.194 21.663 3.398 21.521-11.752 45.307-35.538 51.254-3.965.991-8.071 1.416-10.619 1.84m1.416-9.486c10.336-.283 21.238-6.371 29.308-17.557a4.95 4.95 0 0 0 1.133-3.114c0-1.133-.283-2.266-1.133-3.115-7.079-11.186-9.911-24.495-8.212-37.662q.213-1.275-.425-2.549c-.424-.849-1.132-1.416-1.982-1.699-4.106-2.124-8.637-3.539-13.167-3.823-6.089-.566-12.319.425-17.982 2.69a37.85 37.85 0 0 0-14.725 10.619c-7.363 8.354-10.902 18.123-9.061 29.167 2.69 16.283 15.999 27.185 36.246 27.185zM96.52 265.569c-1.983 0-3.823.425-5.806.283-1.84 0-3.54-.566-4.955-1.699-1.416-1.274-2.266-2.973-2.407-4.672a42.2 42.2 0 0 1 .425-10.336 73.3 73.3 0 0 1 15.716-31.856c.283-.284.425-.709.708-.992-.283-1.416-.708-2.973-.991-4.389-.425-1.982-.142-4.106.708-6.088a9.47 9.47 0 0 1 4.106-4.389c1.699-.991 3.681-1.558 5.663-1.416 1.982 0 3.964.85 5.522 1.982.283 0 .425.284.566.425 2.124 2.407 4.531 2.549 7.646 1.699a43.7 43.7 0 0 1 19.114-1.274c6.372.991 12.46 3.398 17.698 7.079 4.956 3.115 9.062 7.362 12.177 12.46 3.115 4.955 5.097 10.619 5.805 16.424 2.973 21.379-12.035 42.759-35.114 47.148-15.857 2.973-29.733-1.416-41.06-13.026-1.982-2.266-3.964-4.672-5.805-7.221zm34.405 11.752c12.318 0 19.822-2.832 26.335-8.353 19.681-16.708 14.017-45.025-7.646-54.511-6.654-2.832-13.875-3.54-20.954-2.124s-13.451 4.955-18.548 10.053c-10.053 10.477-12.318 25.485-5.239 38.086 6.513 11.327 16.707 16.566 25.91 16.849zM121.864 98.214c19.964 0 38.795 14.017 44.458 35.255 4.531 16.424 1.558 31.715-9.911 44.741-14.3 16.282-37.237 19.397-55.785 8.07-5.664-3.539-10.619-8.212-14.442-13.875-3.823-5.522-6.513-11.752-7.787-18.406-1.274-6.655-1.275-13.451.283-19.964 1.416-6.654 4.248-12.743 8.212-18.265a45.3 45.3 0 0 1 15.433-12.884c6.088-2.973 12.743-4.672 19.539-4.672m2.69 85.235c11.185-.425 20.672-5.097 27.326-14.725 5.381-7.646 7.646-16.991 6.372-26.335-.567-6.23-2.691-12.177-5.947-17.557-3.398-5.239-7.929-9.628-13.451-12.743-.991-.708-2.123-1.132-3.398-1.132s-2.407.283-3.398.991c-3.964 2.407-8.353 4.106-13.026 4.672-6.513.85-12.884 1.982-19.397 2.549a6.6 6.6 0 0 0-3.257.849c-.99.566-1.84 1.274-2.407 2.265a39.86 39.86 0 0 0-6.937 22.513c0 8.07 2.548 15.857 7.079 22.37 7.079 10.478 16.99 16 30.3 16.424zM191.099 30.536c3.257-5.805 8.212-8.212 12.743-6.513s6.088 5.663 4.531 12.884c4.814 3.257 8.92 7.504 11.893 12.602 2.973 4.955 4.956 10.618 5.522 16.423 1.274 9.486-.849 19.256-5.946 27.326-4.956 8.071-12.602 14.301-21.663 17.416-9.062 3.114-18.831 3.114-27.751-.142-17.557-6.513-28.742-25.202-25.627-44.883.849-5.38 2.548-10.477 5.38-15.15 2.832-4.672 6.513-8.636 10.902-11.893 8.495-6.513 19.256-9.344 29.875-8.07zm22.23 26.335c-2.124.425-4.39.283-6.514-.283-2.123-.567-3.964-1.7-5.521-3.257a59 59 0 0 1-5.522-6.371c-.425-.566-.991-1.133-1.699-1.416s-1.558-.283-2.266-.142c-2.831.567-5.805.85-8.778.991a15.32 15.32 0 0 1-8.637-1.699c-2.265-1.416-3.964-.99-5.946.425-11.186 8.212-16.141 19.114-14.159 32.848 1.274 7.929 5.522 15.15 12.035 19.964s14.583 6.937 22.512 5.805c6.513-.991 12.601-3.823 17.415-8.354s8.071-10.335 9.486-16.848c1.841-7.221.85-14.867-2.548-21.38zM46.256 171.414c-1.274 0-2.407-.283-3.681-.566-.991-.283-1.84-.849-2.549-1.557-.566-.85-.99-1.841-.85-2.832 0-.991.425-1.982 1.133-2.832.708-.708 1.7-1.274 2.69-1.416.992-.141 1.983-.283 2.974-.283 5.663 0 11.185-.425 16.849-1.416 1.132-.283 2.265 0 3.256.567q1.487.849 2.124 2.548c.283 1.133.283 2.266-.142 3.257a4.22 4.22 0 0 1-2.407 2.265c-1.982.85-4.106 1.416-6.23 1.557-3.964.425-8.07.567-13.025.85zM75.707 182.316c-.283.991-.85 1.841-1.558 2.69-4.247 3.965-8.92 7.221-14.158 9.77-.991.566-2.266.708-3.398.424-1.133-.283-2.124-1.132-2.69-2.123-.567-.992-.85-2.124-.567-3.398.283-1.133.85-2.124 1.84-2.832.567-.425 1.275-.991 1.841-1.275 3.398-2.265 6.796-4.672 10.195-6.937.99-.708 2.123-1.275 3.398-1.558 2.831-.424 4.955 1.558 4.955 5.098zM250.566 127.098c.283-.991.708-1.982 1.274-2.832 1.558-2.548 3.257-4.955 4.956-7.362.566-.708 1.132-1.416 1.84-1.982.85-.567 1.699-.991 2.832-1.133.991 0 1.982.283 2.832.85.849.566 1.416 1.557 1.699 2.548s0 2.124-.425 2.973c-2.124 3.682-4.531 7.08-7.221 10.478-.566.849-1.557 1.274-2.407 1.557-.991.142-1.982 0-2.832-.566-1.699-.849-2.265-2.407-2.407-4.531zM268.406 145.221c-.85 0-1.558 0-2.265-.566-.708-.425-1.275-.85-1.699-1.558s-.708-1.557-.708-2.407c0-.849.283-1.699.708-2.407.283-.424.566-.849.991-1.132 3.681-2.124 7.504-3.965 11.327-5.664.566-.283 1.132-.283 1.699-.283.566 0 1.132 0 1.699.283.566.283.991.566 1.415.991s.708.991.85 1.558q.425.849.425 1.699c0 .566 0 1.132-.283 1.699-.142.566-.567.991-.992 1.416-.424.424-.849.707-1.415.991-3.115 1.699-6.372 3.256-9.628 4.814-.708.283-1.416.424-2.124.566M211.205 267.976c-1.274 0-2.548-.566-3.398-1.416-.849-.849-1.416-2.124-1.557-3.398 0-1.274.566-2.407 1.557-3.115.85-.849 2.124-1.274 3.256-1.132 1.275 0 2.407.566 3.257 1.274.85.849 1.416 1.982 1.416 3.256 0 1.275-.425 2.407-1.416 3.257-.85.849-1.982 1.416-3.257 1.416zM79.246 81.932c0-.566 0-1.274.283-1.84.284-.567.567-1.133.991-1.558s.992-.708 1.558-.991 1.133-.283 1.84-.283c1.275 0 2.407.425 3.257 1.274.85.85 1.416 1.982 1.416 3.256 0 1.275-.567 2.55-1.416 3.399-.991.85-2.124 1.416-3.398 1.416q-.85 0-1.7-.425c-.566-.283-.99-.567-1.415-1.133-.425-.425-.708-.99-.991-1.557-.142-.567-.283-1.133-.283-1.7zM207.524 246.456c0 1.274-.566 2.407-1.416 3.256-.849.85-2.123 1.274-3.256 1.274-.566 0-1.274.001-1.699-.424-.567-.283-1.133-.567-1.558-.992-.424-.424-.708-.99-.991-1.557-.283-.566-.283-1.133-.283-1.84 0-.567 0-1.133.425-1.699.283-.567.566-1.133.991-1.416.425-.425.991-.708 1.557-.991.567-.142 1.133-.284 1.841-.284.566 0 1.274 0 1.841.284.566.283 1.132.566 1.557.991.425.424.708.991.991 1.557s.283 1.133.283 1.841zM94.112 90.286c0-1.275.567-2.407 1.558-3.257.85-.85 1.982-1.274 3.256-1.415 1.133 0 2.266.566 2.974 1.415a4.4 4.4 0 0 1 1.274 3.115 4.52 4.52 0 0 1-1.557 3.398c-.992.85-2.124 1.416-3.398 1.416-1.133 0-2.266-.708-2.974-1.557a4.3 4.3 0 0 1-.991-3.257zM229.47 259.198c0 .566 0 1.132-.425 1.699-.283.566-.566.991-.991 1.415s-.991.709-1.557.992c-.567.141-1.133.283-1.699.283q-.85 0-1.699-.425c-.567-.283-.991-.708-1.416-1.133-.425-.424-.708-.991-.85-1.557-.141-.566-.283-1.133-.141-1.699 0-1.133.708-2.124 1.557-2.832.85-.708 1.983-1.133 3.115-.991 1.133 0 2.124.566 2.973 1.416.708.849 1.133 1.841 1.133 2.973zM97.935 63.667c0 1.133-.425 2.124-1.132 2.974-.708.849-1.7 1.274-2.832 1.415-1.133 0-2.265-.566-3.115-1.274a4.4 4.4 0 0 1-1.274-3.115c0-1.132.566-2.123 1.416-2.831s1.84-1.133 2.973-1.133c.566 0 1.132 0 1.557.283.567.142.991.567 1.416.85.425.425.708.85.85 1.416.141.566.283 1.132.283 1.557z"/><path fill="#102185" d="M189.826 181.326c0-5.38 1.699-10.336 3.823-15.15a8.3 8.3 0 0 1 1.557-2.124c3.256-3.539 6.655-3.115 8.92.991 1.699 3.257 4.389 6.089 7.504 7.929 2.124 1.275 4.248 2.407 6.23 3.681 3.115 1.983 4.106 4.956 2.265 7.929-2.407 4.531-6.088 8.354-10.477 11.044a14.4 14.4 0 0 1-5.805 1.699c-1.983 0-3.965-.283-5.947-1.133-1.841-.849-3.54-1.982-4.814-3.539a15.1 15.1 0 0 1-2.832-5.381c-.283-.991-.566-1.982-.708-2.973v-3.115zm10.902-4.673c-1.699 2.407-1.841 7.505-.283 9.628.283.425.566.708.991.991s.849.425 1.274.567h1.416c.425 0 .991-.283 1.274-.567 1.841-.991 3.257-2.406 4.106-4.389zM222.248 168.017c-1.275 0-2.407-.567-3.257-1.416-.849-.85-1.416-1.983-1.416-3.257s.708-2.407 1.558-3.256c.849-.85 2.124-1.275 3.256-1.416 1.274 0 2.407.566 3.257 1.416a5.43 5.43 0 0 1 1.557 3.256c0 .566 0 1.274-.424 1.841-.284.566-.567 1.132-1.133 1.557-.425.425-.991.85-1.699.991-.567.284-1.275.284-1.841.284zM214.178 154.14c0 1.133-.566 2.266-1.416 3.115a4.4 4.4 0 0 1-3.115 1.275q-1.699 0-2.973-1.275-1.274-1.273-1.274-2.973c0-2.124 2.265-3.965 4.814-4.106.991 0 1.982.425 2.69 1.133a3.87 3.87 0 0 1 1.133 2.69zM142.394 231.447c0-.991 0-1.983.142-3.115 0-.991.566-1.841 1.274-2.549.708-.707 1.699-1.132 2.548-1.132.991-.142 2.124 0 2.974.566.849.566 1.557 1.416 1.699 2.549.424 1.982.708 4.106.708 6.088 0 5.238-1.558 10.194-4.531 14.441q-2.124 3.186-5.522 4.673c-2.266.991-4.814 1.274-7.221.708-4.814-.708-9.345-1.841-13.026-5.097-.991-.85-1.841-1.699-2.69-2.832a5.1 5.1 0 0 1-.85-2.832c0-.991.425-1.982 1.133-2.69s1.558-1.274 2.549-1.416 1.982 0 2.831.425c.991.566 1.983 1.133 2.832 1.84 2.265 1.699 4.956 2.691 7.787 3.116.991.283 2.124 0 2.974-.425.991-.425 1.699-1.274 2.123-2.124 1.841-3.115 2.549-6.796 2.124-10.336zM116.2 230.172c0-1.274.566-2.407 1.416-3.256.85-.85 1.982-1.416 3.115-1.416s2.407.283 3.256 1.133c.85.708 1.558 1.84 1.558 3.115 0 1.274-.566 2.548-1.416 3.398-.849.991-2.124 1.415-3.398 1.557-.566 0-1.133 0-1.699-.283s-1.133-.566-1.558-.991c-.424-.425-.849-.991-.991-1.558-.283-.566-.283-1.132-.283-1.699M138.005 222.244c0 .566 0 1.132-.283 1.699-.142.566-.567.991-.992 1.416-.424.424-.849.707-1.416.849-.566.142-1.132.283-1.699.283-.566 0-1.132 0-1.84-.283-.567-.142-1.133-.566-1.558-.991-.424-.425-.849-.991-.991-1.416a3.8 3.8 0 0 1-.424-1.699c0-1.274.424-2.407 1.274-3.256.849-.85 1.982-1.416 3.256-1.416 1.275 0 2.407.708 3.257 1.557.849.85 1.274 2.124 1.274 3.257zM143.101 149.468a71.4 71.4 0 0 1-2.973 10.761c-3.54 8.495-12.884 10.902-20.53 5.805-5.664-3.823-8.637-9.345-10.336-15.716-.283-.85-.283-1.841 0-2.832.142-.991.708-1.841 1.274-2.549.567-.566 1.275-.991 1.983-1.274s1.557-.283 2.407 0c.849.142 1.557.566 2.123 1.133.567.566.991 1.274 1.275 1.982.849 1.982 1.274 4.106 2.123 6.088.992 2.407 2.832 4.389 5.098 5.522 2.69 1.416 4.955.85 5.946-1.982.85-2.832 1.558-5.664 1.982-8.637.142-.849 0-1.84 0-2.69 0-.991.425-1.982 1.133-2.69s1.558-1.274 2.549-1.416 1.982 0 2.831.567c.85.424 1.558 1.274 1.983 2.123a36.6 36.6 0 0 1 1.274 5.664zM120.306 134.036c0 .708 0 1.274-.283 1.84s-.566 1.133-.991 1.558c-.425.424-.991.849-1.557.991-.567.283-1.275.425-1.841.283-1.274 0-2.548-.283-3.54-1.133-.991-.849-1.699-1.982-1.699-3.256 0-.708 0-1.274.284-1.982.283-.567.566-1.133 1.132-1.7a5.1 5.1 0 0 1 1.699-1.132c.567-.283 1.274-.425 1.982-.425 1.275 0 2.549.425 3.54 1.274a4.53 4.53 0 0 1 1.558 3.398zM131.916 137.009c-.566 0-1.274 0-1.84-.283-.567-.284-1.133-.567-1.558-.992-.425-.424-.849-.849-1.133-1.415q-.424-.85-.424-1.699c0-.567 0-1.275.283-1.841s.566-1.133.991-1.558c.425-.424.991-.707 1.557-.991.567-.283 1.133-.283 1.841-.283 1.274 0 2.407.567 3.257 1.416.849.85 1.415 1.982 1.415 3.257 0 1.132-.566 2.265-1.415 3.114a4.4 4.4 0 0 1-3.115 1.275zM195.064 81.79c0 .425 0 .85-.141 1.274-2.124 4.531-4.673 8.92-9.628 11.044-4.956 2.266-11.61.425-15.433-3.823-2.549-2.973-4.389-6.371-5.239-10.194-.283-.991-.283-1.982-.141-2.973 0-.991.566-1.983 1.274-2.69.708-.709 1.699-1.133 2.69-1.275.991 0 1.982 0 2.832.566.849.425 1.557 1.275 1.982 2.124s.566 1.7.849 2.549c.708 1.699 1.416 3.256 2.408 4.814 2.265 3.398 4.955 3.398 7.362 0 .991-1.416 1.841-3.115 2.832-4.531.566-.85 1.416-1.416 2.407-1.699s1.982-.283 2.973.142 1.699 1.132 2.265 1.982.708 1.84.708 2.973zM185.577 64.8c0-.567.142-1.275.425-1.7.283-.566.708-.99 1.132-1.416.425-.424.992-.707 1.558-.849s1.133-.283 1.84-.142c1.275.142 2.408.85 3.115 1.7.85.99 1.133 2.123 1.133 3.398-.142 1.132-.708 2.265-1.699 2.973-.849.708-1.982 1.133-3.256 1.133-.567 0-1.275-.142-1.699-.425-.567-.283-.992-.567-1.416-1.133-.425-.425-.708-.991-.85-1.557-.141-.567-.283-1.133-.283-1.841zM177.224 62.818a4.4 4.4 0 0 1-1.275 3.115c-.849.85-1.84 1.416-2.973 1.416-1.274 0-2.407-.425-3.257-1.275-.849-.85-1.415-1.982-1.557-3.114 0-1.133.425-2.407 1.274-3.257.85-.85 1.983-1.274 3.115-1.416 1.133 0 2.407.425 3.257 1.274.849.85 1.274 1.983 1.416 3.115z"/></svg>