<svg width="313" height="321" viewBox="0 0 313 321" fill="none" xmlns="http://www.w3.org/2000/svg">
<path d="M127.81 41.1553C128.66 39.8811 129.509 38.6069 130.359 37.3326C137.721 25.581 147.916 15.67 160.092 8.73229C172.41 1.79458 185.719 -1.32038 199.736 0.520233C218.85 3.06878 233.009 13.4046 242.637 29.9702C250.849 44.2704 253.256 59.8446 251.84 76.127C251.699 78.3924 251.415 80.6578 251.132 83.2063L255.805 84.4808C270.813 88.3036 284.264 94.958 295.024 106.285C304.227 115.63 310.174 127.664 312.156 140.549C313.997 153.15 312.014 165.893 306.493 177.361C299.98 191.378 290.21 202.564 277.892 211.625C276.618 212.616 275.202 213.607 273.503 214.74C273.928 216.297 274.211 217.855 274.636 219.412C278.742 237.677 276.901 255.233 268.264 271.94C261.468 284.825 251.699 294.878 237.965 300.399C218.85 308.187 201.011 305.213 184.445 293.178C183.596 292.612 182.746 291.904 182.038 291.338C181.896 291.196 181.613 291.338 181.047 291.196C178.782 294.028 176.658 297.001 174.251 299.691C164.481 311.018 150.747 318.239 135.881 319.797C115.634 322.345 97.6525 316.257 81.6532 304.364C60.1321 288.506 47.3892 266.844 42.2921 240.65C40.4515 231.305 40.31 223.235 41.3011 211.908L37.3366 210.067C21.6205 202.847 9.72714 191.803 3.49733 175.379C-6.27214 150.177 4.91324 122.992 30.9652 111.523C34.2217 110.108 37.7613 109.117 41.1593 107.984L44.2743 106.993C43.8496 103.17 43.2832 99.6304 43 96.0908C41.7257 83.2064 45.5486 70.1807 53.619 60.1281C61.2647 50.5002 71.3173 44.5535 82.9274 41.2971C96.9444 37.3327 111.103 37.7572 125.262 40.7305C126.111 40.7305 126.819 40.8722 127.81 41.1553ZM105.44 47.9515C95.5286 47.9515 89.7236 48.9425 82.6443 51.3495C70.6094 55.4555 60.9815 62.6765 55.7428 74.5698C50.9289 85.4719 50.9289 96.7987 54.7518 108.126C56.4508 113.223 57.0171 115.063 50.0794 115.913C42.8584 116.762 36.0622 119.169 29.8324 122.85C11.7093 133.611 3.9222 154.707 13.6917 175.237C17.6561 183.449 23.4611 190.387 30.9652 195.626C35.9207 199.165 41.3011 201.855 46.9645 203.979C50.6458 205.395 51.3536 206.528 51.0704 210.351C51.0704 212.05 50.9289 213.749 50.7873 215.306C50.0794 221.111 50.0794 226.916 50.7873 232.579C54.6101 261.605 68.2025 284.683 93.1217 300.541C105.723 308.611 119.457 312.434 134.606 310.594C150.181 308.611 162.357 300.966 171.419 288.223C173.118 285.816 174.392 283.126 175.95 280.577C176.233 279.869 176.799 279.303 177.366 278.878C177.932 278.454 178.64 278.17 179.348 278.029H181.613C182.321 278.17 183.029 278.595 183.596 279.161C184.303 279.728 184.87 280.436 185.578 281.002C188.409 283.551 191.241 285.816 194.215 287.94C199.736 291.763 206.108 294.169 212.762 294.877C219.417 295.727 226.213 294.877 232.443 292.47C242.779 288.648 251.557 281.427 257.221 271.94C267.84 254.95 269.963 236.686 264.583 217.572C263.309 213.182 264.158 210.35 267.981 207.094C269.397 205.961 270.954 204.97 272.37 203.979C284.405 194.918 294.175 184.016 299.555 169.715C306.351 151.451 304.935 134.036 293.183 118.178C285.679 107.984 275.627 101.188 264.017 96.7987C258.353 94.8165 252.548 93.2592 246.602 91.9849C242.071 90.8522 240.655 88.8698 241.363 84.3391C243.062 76.1271 243.345 67.7737 242.496 59.4201C241.363 49.7923 238.248 40.5891 233.151 32.3771C221.824 14.5372 202.285 5.33402 179.773 10.9975C166.322 14.5371 154.429 22.1828 145.65 32.9433C141.969 37.6156 138.429 42.5711 135.314 47.8098C133.049 51.2079 131.633 51.9159 127.669 51.0664C127.244 51.0664 126.961 50.7833 126.536 50.7833C119.457 48.9426 112.236 47.6684 105.723 47.9515H105.44Z" fill="#102185"/>
<path d="M217.718 219.695C201.294 219.129 188.834 213.89 180.48 201.431C170.711 186.989 170.853 171.556 178.923 156.548C186.71 142.106 199.312 133.753 215.736 131.487C222.673 130.355 229.753 131.063 236.407 133.328C243.062 135.735 249.009 139.699 253.681 144.938C259.203 150.885 262.742 158.53 263.875 166.601C267.273 188.122 252.123 211.908 228.337 217.855C224.372 218.846 220.266 219.271 217.718 219.695ZM219.134 210.209C229.47 209.926 240.372 203.838 248.442 192.652C249.15 191.803 249.575 190.67 249.575 189.538C249.575 188.405 249.292 187.272 248.442 186.423C241.363 175.237 238.531 161.928 240.23 148.761C240.372 147.911 240.23 147.062 239.805 146.212C239.381 145.363 238.673 144.796 237.823 144.513C233.717 142.389 229.186 140.974 224.656 140.69C218.567 140.124 212.337 141.115 206.674 143.38C201.011 145.646 195.913 149.327 191.949 153.999C184.586 162.353 181.047 172.122 182.888 183.166C185.578 199.449 198.887 210.351 219.134 210.351V210.209Z" fill="#102185"/>
<path d="M96.5195 265.569C94.5373 265.569 92.6965 265.994 90.7143 265.852C88.8737 265.852 87.1747 265.286 85.7588 264.153C84.3429 262.879 83.4935 261.18 83.3519 259.481C83.0687 256.083 83.2104 252.544 83.7767 249.145C86.3253 237.394 91.7055 226.492 99.4928 217.289C99.776 217.005 99.9176 216.58 100.201 216.297C99.9176 214.881 99.4927 213.324 99.2095 211.908C98.7848 209.926 99.0679 207.802 99.9175 205.82C100.767 203.979 102.183 202.422 104.024 201.431C105.723 200.44 107.705 199.873 109.687 200.015C111.669 200.015 113.651 200.865 115.209 201.997C115.492 201.997 115.634 202.281 115.775 202.422C117.899 204.829 120.306 204.971 123.421 204.121C129.651 202.28 136.164 201.855 142.535 202.847C148.907 203.838 154.995 206.245 160.233 209.926C165.189 213.041 169.295 217.288 172.41 222.386C175.525 227.341 177.507 233.005 178.215 238.81C181.188 260.189 166.18 281.569 143.101 285.958C127.244 288.931 113.368 284.542 102.041 272.932C100.059 270.666 98.0769 268.26 96.2362 265.711L96.5195 265.569ZM130.925 277.321C143.243 277.321 150.747 274.489 157.26 268.968C176.941 252.26 171.277 223.943 149.614 214.457C142.96 211.625 135.739 210.917 128.66 212.333C121.58 213.749 115.209 217.288 110.112 222.386C100.059 232.863 97.7937 247.871 104.873 260.472C111.386 271.799 121.58 277.038 130.783 277.321H130.925Z" fill="#102185"/>
<path d="M121.864 98.2139C141.828 98.2139 160.659 112.231 166.322 133.469C170.853 149.893 167.88 165.184 156.411 178.21C142.111 194.492 119.174 197.607 100.626 186.28C94.9624 182.741 90.007 178.068 86.1841 172.405C82.3613 166.883 79.6712 160.653 78.3969 153.999C77.1226 147.344 77.1225 140.548 78.68 134.035C80.0958 127.381 82.9277 121.292 86.8921 115.77C90.9981 110.39 96.2368 106.001 102.325 102.886C108.413 99.913 115.068 98.2139 121.864 98.2139ZM124.554 183.449C135.739 183.024 145.226 178.352 151.88 168.724C157.261 161.078 159.526 151.733 158.252 142.389C157.685 136.159 155.561 130.212 152.305 124.832C148.907 119.593 144.376 115.204 138.854 112.089C137.863 111.381 136.731 110.957 135.456 110.957C134.182 110.957 133.049 111.24 132.058 111.948C128.094 114.355 123.705 116.054 119.032 116.62C112.519 117.47 106.148 118.602 99.6349 119.169C98.5022 119.169 97.3694 119.452 96.3783 120.018C95.3872 120.584 94.5378 121.292 93.9714 122.283C89.4406 128.938 87.0336 136.725 87.0336 144.796C87.0336 152.866 89.5822 160.653 94.113 167.166C101.192 177.644 111.103 183.166 124.413 183.59L124.554 183.449Z" fill="#102185"/>
<path d="M191.099 30.5358C194.356 24.7307 199.311 22.324 203.842 24.023C208.373 25.722 209.93 29.6862 208.373 36.9071C213.187 40.1636 217.293 44.4114 220.266 49.5085C223.239 54.464 225.222 60.1272 225.788 65.9323C227.062 75.4185 224.939 85.188 219.842 93.2584C214.886 101.329 207.24 107.559 198.179 110.674C189.117 113.788 179.348 113.788 170.428 110.532C152.871 104.019 141.686 85.3296 144.801 65.6492C145.65 60.2689 147.349 55.1719 150.181 50.4995C153.013 45.8272 156.694 41.8626 161.083 38.6061C169.578 32.0931 180.339 29.2615 190.958 30.5358H191.099ZM213.329 56.8709C211.205 57.2957 208.939 57.1541 206.815 56.5878C204.692 56.0214 202.851 54.8887 201.294 53.3312C199.311 51.349 197.471 49.2252 195.772 46.9599C195.347 46.3935 194.781 45.8272 194.073 45.544C193.365 45.2608 192.515 45.2607 191.807 45.4023C188.976 45.9686 186.002 46.2517 183.029 46.3933C180.056 46.6765 177.082 46.1102 174.392 44.6944C172.127 43.2785 170.428 43.7033 168.446 45.1192C157.26 53.3312 152.305 64.2332 154.287 77.9671C155.561 85.8959 159.809 93.1169 166.322 97.9308C172.835 102.745 180.905 104.868 188.834 103.736C195.347 102.745 201.435 99.913 206.249 95.3822C211.063 90.8514 214.32 85.0466 215.735 78.5336C217.576 71.3127 216.585 63.6669 213.187 57.154L213.329 56.8709Z" fill="#102185"/>
<path d="M46.2561 171.414C44.9819 171.414 43.849 171.131 42.5748 170.848C41.5836 170.565 40.7342 169.999 40.0263 169.291C39.46 168.441 39.0352 167.45 39.1768 166.459C39.1768 165.468 39.6015 164.477 40.3094 163.627C41.0173 162.919 42.0085 162.353 42.9996 162.211C43.9907 162.07 44.9818 161.928 45.9729 161.928C51.6363 161.928 57.1582 161.503 62.8217 160.512C63.9544 160.229 65.0872 160.512 66.0783 161.079C67.0694 161.645 67.7773 162.494 68.2021 163.627C68.4852 164.76 68.4851 165.893 68.0603 166.884C67.6356 167.875 66.7861 168.724 65.6534 169.149C63.6712 169.999 61.5474 170.565 59.4236 170.706C55.4592 171.131 51.3532 171.273 46.3977 171.556L46.2561 171.414Z" fill="#102185"/>
<path d="M75.7068 182.316C75.4236 183.307 74.8573 184.157 74.1494 185.006C69.9018 188.971 65.2294 192.227 59.9907 194.776C58.9996 195.342 57.7253 195.484 56.5926 195.2C55.4599 194.917 54.4688 194.068 53.9024 193.077C53.3361 192.085 53.053 190.953 53.3362 189.679C53.6194 188.546 54.1856 187.555 55.1767 186.847C55.7431 186.422 56.4511 185.856 57.0174 185.572C60.4155 183.307 63.8135 180.9 67.2116 178.635C68.2027 177.927 69.3354 177.36 70.6097 177.077C73.4414 176.653 75.5652 178.635 75.5652 182.175L75.7068 182.316Z" fill="#102185"/>
<path d="M250.566 127.098C250.849 126.107 251.274 125.116 251.84 124.266C253.398 121.718 255.097 119.311 256.796 116.904C257.362 116.196 257.928 115.488 258.636 114.922C259.486 114.355 260.335 113.931 261.468 113.789C262.459 113.789 263.45 114.072 264.3 114.639C265.149 115.205 265.716 116.196 265.999 117.187C266.282 118.178 265.999 119.311 265.574 120.16C263.45 123.842 261.043 127.24 258.353 130.638C257.787 131.487 256.796 131.912 255.946 132.195C254.955 132.337 253.964 132.195 253.114 131.629C251.415 130.78 250.849 129.222 250.707 127.098H250.566Z" fill="#102185"/>
<path d="M268.406 145.221C267.556 145.221 266.848 145.221 266.141 144.655C265.433 144.23 264.866 143.805 264.442 143.097C264.017 142.389 263.734 141.54 263.734 140.69C263.734 139.841 264.017 138.991 264.442 138.283C264.725 137.859 265.008 137.434 265.433 137.151C269.114 135.027 272.937 133.186 276.76 131.487C277.326 131.204 277.892 131.204 278.459 131.204C279.025 131.204 279.591 131.204 280.158 131.487C280.724 131.77 281.149 132.053 281.573 132.478C281.998 132.903 282.281 133.469 282.423 134.036C282.706 134.602 282.848 135.168 282.848 135.735C282.848 136.301 282.848 136.867 282.565 137.434C282.423 138 281.998 138.425 281.573 138.85C281.149 139.274 280.724 139.557 280.158 139.841C277.043 141.54 273.786 143.097 270.53 144.655C269.822 144.938 269.114 145.079 268.406 145.221Z" fill="#102185"/>
<path d="M211.205 267.976C209.931 267.976 208.657 267.41 207.807 266.56C206.958 265.711 206.391 264.436 206.25 263.162C206.25 261.888 206.816 260.755 207.807 260.047C208.657 259.198 209.931 258.773 211.063 258.915C212.338 258.915 213.47 259.481 214.32 260.189C215.17 261.038 215.736 262.171 215.736 263.445C215.736 264.72 215.311 265.852 214.32 266.702C213.47 267.551 212.338 268.118 211.063 268.118L211.205 267.976Z" fill="#102185"/>
<path d="M79.2461 81.9322C79.2461 81.3658 79.2462 80.6578 79.5294 80.0915C79.8125 79.5251 80.0956 78.959 80.5204 78.5342C80.9452 78.1095 81.5115 77.826 82.0778 77.5429C82.6442 77.2597 83.2106 77.2598 83.9185 77.2598C85.1928 77.2598 86.3254 77.6847 87.1749 78.5342C88.0244 79.3838 88.5908 80.5162 88.5908 81.7905C88.5908 83.0647 88.0244 84.3392 87.1749 85.1887C86.1838 86.0382 85.0512 86.6046 83.777 86.6046C83.2106 86.6046 82.6442 86.4629 82.0778 86.1797C81.5115 85.8966 81.0867 85.6133 80.662 85.047C80.2372 84.6222 79.9541 84.0561 79.6709 83.4898C79.5293 82.9234 79.3876 82.3568 79.3876 81.7905L79.2461 81.9322Z" fill="#102185"/>
<path d="M207.524 246.456C207.524 247.73 206.958 248.863 206.108 249.712C205.259 250.562 203.985 250.986 202.852 250.986C202.286 250.986 201.578 250.987 201.153 250.562C200.586 250.279 200.02 249.995 199.595 249.57C199.171 249.146 198.887 248.58 198.604 248.013C198.321 247.447 198.321 246.88 198.321 246.173C198.321 245.606 198.321 245.04 198.746 244.474C199.029 243.907 199.312 243.341 199.737 243.058C200.162 242.633 200.728 242.35 201.294 242.067C201.861 241.925 202.427 241.783 203.135 241.783C203.701 241.783 204.409 241.783 204.976 242.067C205.542 242.35 206.108 242.633 206.533 243.058C206.958 243.482 207.241 244.049 207.524 244.615C207.807 245.181 207.807 245.748 207.807 246.456H207.524Z" fill="#102185"/>
<path d="M94.1124 90.2856C94.1124 89.0113 94.6787 87.8789 95.6698 87.0294C96.5194 86.1799 97.6521 85.7551 98.9264 85.6135C100.059 85.6135 101.192 86.1799 101.9 87.0294C102.749 87.8789 103.174 89.0115 103.174 90.1442C103.174 91.4185 102.608 92.6926 101.617 93.5421C100.625 94.3916 99.4928 94.958 98.2185 94.958C97.0858 94.958 95.9531 94.2503 95.2452 93.4007C94.5373 92.5512 94.1124 91.4185 94.254 90.1442L94.1124 90.2856Z" fill="#102185"/>
<path d="M229.47 259.198C229.47 259.764 229.47 260.33 229.045 260.897C228.762 261.463 228.479 261.888 228.054 262.312C227.629 262.737 227.063 263.021 226.497 263.304C225.93 263.445 225.364 263.587 224.798 263.587C224.231 263.587 223.665 263.445 223.099 263.162C222.532 262.879 222.108 262.454 221.683 262.029C221.258 261.605 220.975 261.038 220.833 260.472C220.692 259.906 220.55 259.339 220.692 258.773C220.692 257.64 221.4 256.649 222.249 255.941C223.099 255.233 224.232 254.808 225.364 254.95C226.497 254.95 227.488 255.516 228.337 256.366C229.045 257.215 229.47 258.207 229.47 259.339V259.198Z" fill="#102185"/>
<path d="M97.9354 63.6674C97.9354 64.8001 97.5105 65.791 96.8026 66.6405C96.0947 67.49 95.1036 67.9148 93.9709 68.0564C92.8382 68.0564 91.7056 67.4902 90.856 66.7822C90.0065 65.9327 89.5817 64.8001 89.5817 63.6674C89.5817 62.5347 90.1481 61.5436 90.9976 60.8357C91.8471 60.1278 92.8382 59.703 93.9709 59.703C94.5372 59.703 95.1035 59.7029 95.5283 59.9861C96.0947 60.1276 96.5194 60.5525 96.9442 60.8357C97.3689 61.2605 97.6521 61.6852 97.7937 62.2516C97.9352 62.8179 98.0769 63.384 98.0769 63.8088L97.9354 63.6674Z" fill="#102185"/>
<path d="M189.826 181.326C189.826 175.946 191.525 170.99 193.649 166.176C194.073 165.327 194.64 164.619 195.206 164.052C198.462 160.513 201.861 160.937 204.126 165.043C205.825 168.3 208.515 171.132 211.63 172.972C213.754 174.247 215.878 175.379 217.86 176.653C220.975 178.636 221.966 181.609 220.125 184.582C217.718 189.113 214.037 192.936 209.648 195.626C207.807 196.617 205.825 197.184 203.843 197.325C201.86 197.325 199.878 197.042 197.896 196.192C196.055 195.343 194.356 194.21 193.082 192.653C191.808 191.095 190.817 189.255 190.25 187.272C189.967 186.281 189.684 185.29 189.542 184.299V181.184L189.826 181.326ZM200.728 176.653C199.029 179.06 198.887 184.158 200.445 186.281C200.728 186.706 201.011 186.989 201.436 187.272C201.861 187.556 202.285 187.697 202.71 187.839H204.126C204.551 187.839 205.117 187.556 205.4 187.272C207.241 186.281 208.657 184.866 209.506 182.883L200.728 176.653Z" fill="#102185"/>
<path d="M222.248 168.017C220.973 168.017 219.841 167.45 218.991 166.601C218.142 165.751 217.575 164.618 217.575 163.344C217.575 162.07 218.283 160.937 219.133 160.088C219.982 159.238 221.257 158.813 222.389 158.672C223.663 158.672 224.796 159.238 225.646 160.088C226.495 160.937 227.062 162.07 227.203 163.344C227.203 163.91 227.203 164.618 226.779 165.185C226.495 165.751 226.212 166.317 225.646 166.742C225.221 167.167 224.655 167.592 223.947 167.733C223.38 168.017 222.672 168.017 222.106 168.017H222.248Z" fill="#102185"/>
<path d="M214.178 154.14C214.178 155.273 213.612 156.406 212.762 157.255C211.913 158.105 210.78 158.53 209.647 158.53C208.515 158.53 207.523 158.105 206.674 157.255C205.824 156.406 205.4 155.415 205.4 154.282C205.4 152.158 207.665 150.317 210.214 150.176C211.205 150.176 212.196 150.601 212.904 151.309C213.612 152.016 214.037 153.007 214.037 153.999L214.178 154.14Z" fill="#102185"/>
<path d="M142.394 231.447C142.394 230.456 142.394 229.464 142.536 228.332C142.536 227.341 143.102 226.491 143.81 225.783C144.518 225.076 145.509 224.651 146.358 224.651C147.349 224.509 148.482 224.651 149.332 225.217C150.181 225.783 150.889 226.633 151.031 227.766C151.455 229.748 151.739 231.872 151.739 233.854C151.739 239.092 150.181 244.048 147.208 248.295C145.792 250.419 143.951 251.977 141.686 252.968C139.42 253.959 136.872 254.242 134.465 253.676C129.651 252.968 125.12 251.835 121.439 248.579C120.448 247.729 119.598 246.88 118.749 245.747C118.183 244.897 117.899 243.906 117.899 242.915C117.899 241.924 118.324 240.933 119.032 240.225C119.74 239.517 120.59 238.951 121.581 238.809C122.572 238.668 123.563 238.809 124.412 239.234C125.403 239.8 126.395 240.367 127.244 241.074C129.509 242.773 132.2 243.765 135.031 244.19C136.022 244.473 137.155 244.19 138.005 243.765C138.996 243.34 139.704 242.491 140.128 241.641C141.969 238.526 142.677 234.845 142.252 231.305L142.394 231.447Z" fill="#102185"/>
<path d="M116.2 230.172C116.2 228.898 116.766 227.765 117.616 226.916C118.466 226.066 119.598 225.5 120.731 225.5C121.864 225.5 123.138 225.783 123.987 226.633C124.837 227.341 125.545 228.473 125.545 229.748C125.545 231.022 124.979 232.296 124.129 233.146C123.28 234.137 122.005 234.561 120.731 234.703C120.165 234.703 119.598 234.703 119.032 234.42C118.466 234.137 117.899 233.854 117.474 233.429C117.05 233.004 116.625 232.438 116.483 231.871C116.2 231.305 116.2 230.739 116.2 230.172Z" fill="#102185"/>
<path d="M138.005 222.244C138.005 222.81 138.005 223.376 137.722 223.943C137.58 224.509 137.155 224.934 136.73 225.359C136.306 225.783 135.881 226.066 135.314 226.208C134.748 226.35 134.182 226.491 133.615 226.491C133.049 226.491 132.483 226.491 131.775 226.208C131.208 226.066 130.642 225.642 130.217 225.217C129.793 224.792 129.368 224.226 129.226 223.801C128.943 223.235 128.802 222.668 128.802 222.102C128.802 220.828 129.226 219.695 130.076 218.846C130.925 217.996 132.058 217.43 133.332 217.43C134.607 217.43 135.739 218.138 136.589 218.987C137.438 219.837 137.863 221.111 137.863 222.244H138.005Z" fill="#102185"/>
<path d="M143.101 149.468C142.393 153.149 141.402 156.689 140.128 160.229C136.588 168.724 127.244 171.131 119.598 166.034C113.934 162.211 110.961 156.689 109.262 150.318C108.979 149.468 108.979 148.477 109.262 147.486C109.404 146.495 109.97 145.645 110.536 144.937C111.103 144.371 111.811 143.946 112.519 143.663C113.227 143.38 114.076 143.38 114.926 143.663C115.775 143.805 116.483 144.229 117.049 144.796C117.616 145.362 118.04 146.07 118.324 146.778C119.173 148.76 119.598 150.884 120.447 152.866C121.439 155.273 123.279 157.255 125.545 158.388C128.235 159.804 130.5 159.238 131.491 156.406C132.341 153.574 133.049 150.742 133.473 147.769C133.615 146.92 133.473 145.929 133.473 145.079C133.473 144.088 133.898 143.097 134.606 142.389C135.314 141.681 136.164 141.115 137.155 140.973C138.146 140.831 139.137 140.973 139.986 141.54C140.836 141.964 141.544 142.814 141.969 143.663C142.535 145.504 142.96 147.345 143.243 149.327L143.101 149.468Z" fill="#102185"/>
<path d="M120.306 134.036C120.306 134.744 120.306 135.31 120.023 135.876C119.74 136.443 119.457 137.009 119.032 137.434C118.607 137.858 118.041 138.283 117.475 138.425C116.908 138.708 116.2 138.85 115.634 138.708C114.36 138.708 113.086 138.425 112.094 137.575C111.103 136.726 110.395 135.593 110.395 134.319C110.395 133.611 110.395 133.045 110.679 132.337C110.962 131.77 111.245 131.204 111.811 130.637C112.236 130.213 112.802 129.788 113.51 129.505C114.077 129.222 114.784 129.08 115.492 129.08C116.767 129.08 118.041 129.505 119.032 130.354C120.023 131.204 120.59 132.478 120.59 133.752L120.306 134.036Z" fill="#102185"/>
<path d="M131.916 137.009C131.35 137.009 130.642 137.009 130.076 136.726C129.509 136.442 128.943 136.159 128.518 135.734C128.093 135.31 127.669 134.885 127.385 134.319C127.102 133.752 126.961 133.186 126.961 132.62C126.961 132.053 126.961 131.345 127.244 130.779C127.527 130.213 127.81 129.646 128.235 129.221C128.66 128.797 129.226 128.514 129.792 128.23C130.359 127.947 130.925 127.947 131.633 127.947C132.907 127.947 134.04 128.514 134.89 129.363C135.739 130.213 136.305 131.345 136.305 132.62C136.305 133.752 135.739 134.885 134.89 135.734C134.04 136.584 132.907 137.009 131.775 137.009H131.916Z" fill="#102185"/>
<path d="M195.064 81.7899C195.064 82.2146 195.064 82.6396 194.923 83.0643C192.799 87.5951 190.25 91.9843 185.295 94.1081C180.339 96.3735 173.685 94.5326 169.862 90.285C167.313 87.3117 165.473 83.9137 164.623 80.0909C164.34 79.0998 164.34 78.1089 164.482 77.1178C164.482 76.1267 165.048 75.1354 165.756 74.4275C166.464 73.7195 167.455 73.2949 168.446 73.1533C169.437 73.1533 170.428 73.1532 171.278 73.7195C172.127 74.1443 172.835 74.9938 173.26 75.8433C173.685 76.6928 173.826 77.5424 174.109 78.3919C174.817 80.091 175.525 81.6483 176.517 83.2057C178.782 86.6038 181.472 86.6038 183.879 83.2057C184.87 81.7899 185.72 80.0909 186.711 78.675C187.277 77.8255 188.127 77.2592 189.118 76.9761C190.109 76.6929 191.1 76.693 192.091 77.1178C193.082 77.5426 193.79 78.2503 194.356 79.0999C194.923 79.9494 195.064 80.9406 195.064 82.0733V81.7899Z" fill="#102185"/>
<path d="M185.577 64.7992C185.577 64.2329 185.719 63.525 186.002 63.1003C186.285 62.5339 186.71 62.1092 187.134 61.6844C187.559 61.2597 188.126 60.9767 188.692 60.8351C189.258 60.6935 189.825 60.5518 190.532 60.6934C191.807 60.835 192.94 61.5428 193.647 62.3923C194.497 63.3834 194.78 64.5163 194.78 65.7906C194.638 66.9233 194.072 68.0558 193.081 68.7637C192.232 69.4716 191.099 69.8965 189.825 69.8965C189.258 69.8965 188.55 69.7548 188.126 69.4716C187.559 69.1885 187.134 68.9052 186.71 68.3389C186.285 67.9141 186.002 67.348 185.86 66.7816C185.719 66.2153 185.577 65.6489 185.577 64.941V64.7992Z" fill="#102185"/>
<path d="M177.224 62.8179C177.224 63.9506 176.799 65.0832 175.949 65.9327C175.1 66.7823 174.109 67.3486 172.976 67.3486C171.702 67.3486 170.569 66.924 169.719 66.0745C168.87 65.2249 168.304 64.0923 168.162 62.9596C168.162 61.827 168.587 60.5526 169.436 59.7031C170.286 58.8536 171.419 58.4288 172.551 58.2872C173.684 58.2872 174.958 58.7119 175.808 59.5614C176.657 60.4109 177.082 61.5435 177.224 62.6762V62.8179Z" fill="#102185"/>
</svg>
