<svg xmlns="http://www.w3.org/2000/svg" width="186" height="223" fill="none" viewBox="0 0 186 223"><path fill="#102185" d="M2.578 102.419c.354-2.96 1.204-8.708 1.756-14.499.1-1.416.495-2.945 1.288-4.162.652-1.232 1.6-2.436 2.804-3.342C20.574 69.514 32.722 58.47 44.729 47.554c15.787-14.187 31.446-28.53 47.247-42.716 1.53-1.445 3.172-2.606 4.942-3.61 3.695-2.011 5.79-1.572 8.551 1.472s5.65 6.371 8.396 9.557c21.083 24.38 42.052 48.62 62.992 72.987a19.07 19.07 0 0 1 4.673 11.978c1.047 34.576 2.095 69.137 3.143 103.57.156 3.696.311 7.406.467 11.243.212 6.824-3.03 10.42-9.84 10.505-8.665.085-17.175-.113-25.826-.17-15.9-.014-31.8.114-47.842.085-17.033-.099-34.193-.212-51.367-.311-12.913-.085-25.981-.043-38.894.014-9.09.057-11.596-2.549-11.355-11.752.58-19.836 1.175-39.8 1.77-59.777.382-15.164.622-30.187.934-48.196h-.142zm167.54 109.389 4.261.028c-1.217-38.129-2.307-75.975-3.511-114.104l-156.68-4.389c-.41 1.812-.835 3.624-.962 5.465-.369 12.899-.723 25.642-1.09 38.54-.581 21.818-1.034 43.651-1.615 65.469-.198 2.818.014 5.678-.042 8.51l1.387.523c5.834-13.918 13.96-26.108 25.713-35.608 11.765-9.515 25.64-15.037 40.72-17.345-.227-.722-.227-.863-.368-.878-.255-.439-.652-.75-1.062-1.076-9.43-8.92-13.182-19.836-10.846-32.437 2.535-13.451 10.166-22.824 23.66-26.675 1.16-.34 2.335-.962 3.638-1.16a7.24 7.24 0 0 1 3.427-.185c2.506.609 5.012 1.36 7.376 2.096 4.163 1.288 7.971 3.553 11.157 6.626 3.582 3.525 6.386 7.844 8.311 12.672a37.9 37.9 0 0 1 2.322 14.937c-.368 5.083-1.713 9.954-4.177 14.456-2.449 4.503-5.72 8.382-9.769 11.497-.892.651-1.798 1.288-3.157 2.463 13.238 3.512 25.556 9.798 36.133 18.52 10.434 8.849 19 19.836 24.919 32.182l.297-.113zm-146.925-.141 134.408.368.057-.85c.014-.283-.227-.722-.354-1.019-16.028-25.585-38.497-40.834-69.434-40.947-23.56-.142-42.348 10.421-56.337 29.138-2.832 3.908-5.154 8.425-8.212 13.465zm-1.458-128.73 141.671 4.02-13.903-15.772-12.29-.892c-13.295-.68-26.746-1.232-40.04-1.912-17.685-.85-35.37-1.713-53.04-2.704-1.132-.085-2.123 0-3.142.34-1.02.354-1.912.99-2.676 1.656-4.418 4.22-9.118 8.283-13.678 12.361-.892.651-1.529 1.444-2.76 2.775l-.156.127zm117.8-23.263.099-1.274c-3.667-4.248-7.32-8.623-10.987-12.856-.793-.765-1.912-1.133-3.03-1.218-3.667-.27-7.362-.255-11.185-.383-14.994-.665-29.988-1.458-44.996-1.982-1.275-.099-2.577.241-3.47.878-4.544 3.937-8.962 8.156-13.38 12.233 0 0-.028.425.086.864l87.174 3.766h-.283zm-56.578 54.114c-8.778 7.603-9.67 27.694 2.76 36.26a17.7 17.7 0 0 0 10.139 3.143c3.553-.028 7.178-1.189 10.165-3.242 12.248-8.339 12.149-28.501 3.2-36.387-8.693 6.328-17.486 4.276-26.264.085zM98.942 12.597 78.27 31.399l.369.736 38.78 1.53-18.491-21.068z"/><path fill="#102185" d="M90.08 123.104c1.273.099 2.505.751 3.27 1.798.779 1.048 1.246 2.365 1.02 3.625-.058.708-.227 1.26-.567 1.94a6.6 6.6 0 0 1-1.246 1.472c-.595.382-1.19.765-1.77.864-.58.24-1.288.184-1.996.141a3.7 3.7 0 0 1-1.798-.552 6.6 6.6 0 0 1-1.473-1.246c-.396-.453-.637-1.033-.864-1.77-.099-.58-.184-1.288-.155-1.855.099-1.274.892-2.491 1.94-3.27 1.047-.779 2.222-1.26 3.638-1.161zM108.627 129.703c-.043.566-.099 1.274-.411 1.812-.325.538-.651 1.09-1.246 1.473-.453.396-1.047.778-1.628.877-.58.241-1.288.185-1.855.156-.566-.028-1.132-.085-1.67-.552-.538-.325-1.091-.651-1.487-1.104s-.637-1.034-.878-1.629c-.24-.58-.198-1.146-.156-1.854.043-.566.1-1.274.411-1.812.326-.538.651-1.091 1.104-1.487s1.048-.779 1.629-.878c.58-.241 1.288-.184 1.854-.156.567.029 1.275.099 1.671.411.538.326 1.09.651 1.487 1.104.396.453.637 1.034.878 1.628.24.581.198 1.147.155 1.855l.128.156z"/></svg>