<svg xmlns="http://www.w3.org/2000/svg" width="307" height="266" fill="none" viewBox="0 0 307 266"><path fill="#102185" d="m28.954 183.253-5.026-.878c-3.483-.608-7.108-1.231-10.577-1.982-7.15-1.812-11.355-6.569-12.828-13.861-.906-3.894-.623-8.014.75-11.794.553-1.487 1.516-2.903 2.818-3.823a9.3 9.3 0 0 1 4.46-1.671c1.742-.127 3.61-.085 5.451.085 7.377.567 14.895 1.147 22.244 1.855 3.808.368 7.66.609 11.468.991 1.402.241 2.86.071 4.305.028 1.274.085 2.463-.141 3.71-.651a9.1 9.1 0 0 0 3.086-2.053c3.072-2.775 6.484-5.054 10.01-7.164 7.334-4.191 16.084-2.379 19.794 6.017.226.326.467.652.835 1.006 13.068-.751 26.434-1.586 39.814-5.876-1.26-3.526-2.563-6.768-3.582-9.968-.411-1.798-.793-3.724-1.034-5.635-.311-1.487-.495-2.959-.807-4.446-.311-1.486-.934-2.888-1.246-4.389-.877-4.035.623-6.938 4.574-8.113a22.2 22.2 0 0 1 6.088-1.104c8.269-.439 16.481-.581 24.594-.906 11.015-.524 22.045-1.204 33.088-1.869 10.322-.652 20.799-1.416 31.206-1.77 1.416.099 2.917-.213 4.191-.991 1.26-.637 2.449-1.728 3.087-2.917 3.483-5.14 7.56-9.614 10.137-15.334 2.365-5.337 3.781-10.987 4.347-16.778.495-5.38.722-10.788 1.09-16.197.566-7.377 2.86-14.017 8.764-19.03 5.904-5.011 13.409-4.43 18.378 1.757 3.526 4.488 5.055 9.783 5.664 15.347.481 5.55.396 10.987-.552 16.424-.17.977-.34 1.954-.411 3.229 1.671.297 2.478-1.006 3.426-1.558 4.517-2.803 8.467-2.407 12.333.991 1.486 1.402 2.959 2.818 4.417 4.361 1.232 1.218 2.096 2.803 2.365 4.573s-.184 3.554-1.147 4.97c-1.43 2.478-2.846 4.828-4.545 7.122-1.897 2.69-3.95 5.352-6.386 8.665 1.728 0 2.832.212 3.866.099 2.024-.085 4.106-.439 6.13-.524 6.216-.212 9.798 4.007 8.864 10.166-2.039 15.022-6.372 29.209-14.456 41.895-10.464 16.438-23.943 29.464-42.434 36.6-12.629 4.842-26.094 7.108-39.687 6.754-8.75-.085-17.5-.17-26.122-1.813-10.577-1.982-20.261-5.819-28.304-13.252a12.6 12.6 0 0 0-1.784-1.317c-8.07 2.62-16.381 3.328-24.565 4.927-.58 7.519-5.224 12.743-9.684 17.713a135 135 0 0 1-21.607 18.519c-4.091 2.889-8.296 5.607-12.516 8.311-2.124 1.501-4.233 2.86-6.244 4.517-4.148 3.157-7.589 7.306-9.854 12.077-2.719 5.706-5.55 11.256-8.127 16.991-.496 1.203-1.218 2.081-2.21 2.775-.976.693-2.307.892-3.454.835-5.72-.127-11.312-.241-16.962-.793-8.212-.708-16.353-1.841-24.508-2.817l-4.602-.793C5.21 259.695 3 256.722 3.95 252.857c1.911-6.853 1.557-13.961 2.775-20.927 2.662-14.484 8.34-28.161 16.495-40.394 1.77-2.718 3.497-5.281 5.65-8.509l.112.17zm104.689-63.303c.269 1.77.609 3.129.666 4.432 0 1.586.184 3.044.509 4.545 4.559 14.3 12.064 27.382 22.06 38.469 7.178 8.282 17.132 13.889 28.062 15.503a156.4 156.4 0 0 0 39.942.906c9.231-.991 18.151-3.596 26.604-7.589 11.171-5.536 20.091-13.903 27.538-23.673 9.274-12.035 14.428-25.952 16.736-40.918.099-.552-.057-1.303-.241-1.911-53.661 5.337-107.337 7.376-161.593 10.307l-.283-.043zM13.988 251.214l4.319.751c10.067 1.6 20.12 2.492 30.214 3.086a4.9 4.9 0 0 0 3.257-.58 4.4 4.4 0 0 0 2.025-2.52c2.293-4.913 4.983-9.628 7.376-14.385 1.912-3.554 4.333-6.726 7.235-9.373 5.197-5.126 11.61-8.906 17.784-13.012a155.6 155.6 0 0 0 24.905-20.105c3.115-3.059 5.606-6.641 7.433-10.492-1.274-.085-2.251-.255-3.257-.283-3.03.042-6.13.524-9.245.269a666 666 0 0 1-23.8-1.982c-1.983-.198-3.47.113-4.39 2.109-.821 1.445-1.784 2.846-3.002 4.078-.722.878-1.826 1.402-3.016 1.628-1.189.227-2.28-.113-3.341-.58-1.048-.609-1.742-1.6-1.982-2.648-.382-1.076-.17-2.322.297-3.398.24-.538.496-1.203.878-1.713 2.45-4.177 5.04-8.325 7.518-12.63a37.6 37.6 0 0 0 4.418-13.025c.311-1.813.708-4.05-1.246-5.253-1.926-1.345-3.724-.071-5.451.778a36.8 36.8 0 0 0-13.593 12.871c-4.898 7.489-10.831 14.356-17.358 20.558-3.639 3.539-6.726 7.306-9.628 11.553-5.154 7.292-9.118 15.235-12.007 23.645a130 130 0 0 0-4.856 23.008l-1.402 8.084-.07-.439zm70.794-78.24c20.671 3.441 40.663.878 61.052-2.336l-11.964-18.024c-14.442 4.531-29.365 6.102-44.388 6.513a704 704 0 0 1-4.7 13.847m155.235-68.896c4.05-.155 7.122.368 9.656-2.633 9.912-12.36 17.401-25.726 18.067-41.98.496-5.38-.552-10.874-2.874-15.73-1.614-3.158-3.441-3.328-6.046-.765-2.294 2.478-3.71 5.678-3.879 9.104-.298 3.398-.496 6.952-.652 10.378-.255 6.428-1.062 12.743-2.718 18.93-1.94 6.994-5.069 13.493-9.402 19.355-.566.764-1.175 1.812-2.307 3.341l.141.029zM10.803 159.552c-1.388 6.371.906 10.505 6.767 11.525s11.653 1.586 17.586 2.194c1.727 0 3.355-.283 4.898-.877 2.011-.807 6.683-7.037 7.802-10.138l-37.04-2.69zm251.146-56.833c3.044-.184 5.55-.481 7.844-.51 1.005.029 1.911-.24 2.704-.679s1.643-1.147 2.195-1.912c4.092-5.323 8.339-10.76 12.29-16.112 2.038-2.662 1.727-3.299-1.402-5.125-2.69 1.401-5.069 3.567-7.872 3.95-4.545.51-6.428 3.058-8.212 6.768-2.053 4.389-4.814 8.65-7.561 13.776l.028-.142z"/><path fill="#102185" d="M180.522 42.87a392 392 0 0 0 3.894-4.204c1.062-1.105 2.11-2.223 3.299-3.314.68-.594 1.359-1.203 2.124-1.5.793-.44 1.685-.567 2.676-.538.863 0 1.84.17 2.647.467s1.572.85 2.337 1.416c3.752 3.242 6.937 7.235 9.33 11.68 3.271 6.032 5.918 12.234 6.159 19.171.368 7.83-2.633 14.343-7.377 20.134-1.996 2.378-4.219 4.446-6.697 6.314-6.045 4.984-13.011 6.216-20.657 5.607-6.074-.623-11.95-2.364-17.16-5.422-1.827-1.034-3.469-2.322-4.786-3.852a7.74 7.74 0 0 1-2.18-3.978c-.312-1.501-.326-3.073.212-4.56.17-.976.623-1.91 1.062-2.83 2.138-3.215.963-5.58-1.487-8.015-2.931-2.959-5.564-6.003-8.155-9.316-3.653-4.658-3.738-7.405-.736-12.346 2.194-3.498 4.233-7.023 6.682-10.336 3.526-4.56 7.306-5.635 12.503-3.285 4.53 2.081 8.806 4.687 13.125 7.164l3.015 1.671.17-.113zm-20.077.539c-2.945 2.08-3.78 5.238-5.522 7.801-1.741 2.563-1.571 2.464.34 4.658 3.228 3.724 6.584 7.603 9.982 11.214 2.917 3.086 3.073 6.286 1.303 9.854-.666 1.317-1.161 2.535-1.813 3.851-.042.283-.254.68-.311.949-.071.425.014.722.113 1.02.099.297.326.636.581.82.255.185.651.397.934.454 2.393 1.132 4.942 2.152 7.547 2.888 5.649 1.416 11.44 1.982 16.863-1.09a30.8 30.8 0 0 0 8.594-8.141c2.039-2.662 3.299-5.749 3.582-9.005.411-3.228-.141-6.64-1.359-9.571-1.699-4.319-4.432-8.382-6.895-12.403-.581-.822-1.345-1.388-2.252-1.968-1.43 1.614-2.576 3.284-3.638 5.252-1.416 3.2-3.71 3.95-6.853 3.837-2.308.029-4.602-.793-6.57-1.854-2.831-1.926-5.847-3.597-8.835-5.409-1.968-1.062-4.077-2.152-6.074-3.072l.298-.085zM233.745 49.964c-.481 2.79-1.388 5.508-2.294 8.226-1.855 4.857-6.3 5.664-9.982 2.01-1.09-1.189-1.869-2.477-2.35-3.85-3.823-9.43-7.362-18.817-11.171-28.388-2.081-5.395-3.554-10.96-3.101-16.92.807-9.628 10.902-13.918 17.798-8.976 5.38 3.808 8.452 9.23 10.576 15.206S235.317 30 234.934 36.4c-.141 4.149-.736 8.354-1.232 13.72l.029-.142zm-10.35-9.854.793-.44c.127-.693.382-1.373.51-2.066 0-4.163.169-8.453-.1-12.658-.339-4.658-2.18-9.005-5.295-12.559-.977-1.033-1.756-2.322-3.894-1.543-.212 1.26-.438 2.506-.368 3.809.17 2.321.779 4.587 1.416 6.71 2.011 5.806 4.319 11.526 6.626 17.246.213.467.383 1.076.454 1.515l-.142-.029zM108.044 50.544c-.75 1.02-1.5 2.04-2.364 2.889-9.586 8.82-13.989 20.133-14.768 32.933-.184 2.704.496 5.408.482 7.985.127.892-.156 1.7-.44 2.506q-.636 1.19-1.613 1.87c-.652.452-1.572.735-2.421.721-.85-.014-1.671-.297-2.492-.58-1.161-.779-2.124-1.813-2.464-3.158-.722-2.42-1.147-4.941-1.133-7.532.199-16.056 5.763-29.889 17.203-41.13A17 17 0 0 1 101.8 44.4c.793-.44 1.685-.567 2.662-.397s1.77.595 2.365 1.274c1.5 1.275 1.826 2.761 1.359 5.409l-.113-.17zM86.282 31.105c3.483.61 5.21 3.059 4.503 5.522-.41 1.515-1.204 2.804-2.266 3.922-8.014 8.099-13.28 18.534-15.22 29.69-.27 1.53-.255 3.116-.354 4.531-.227 2.974-1.897 5.126-4.531 5.395-2.775.24-4.786-1.402-5.48-4.828-.226-1.19-.283-2.492-.07-3.752 1.557-13.097 7.023-25.514 15.63-35.368 1.105-1.388 2.465-2.591 3.937-3.625 1.119-.665 2.492-1.147 3.71-1.515zM182.137 9.527a4.5 4.5 0 0 1-2.11 3.087c-.977.693-2.336 1.033-3.596.806s-2.421-.99-3.087-2.11c-.694-.976-1.033-2.335-.807-3.595.099-.553.212-1.26.595-1.77.24-.538.75-1.02 1.246-1.36a6.5 6.5 0 0 1 1.727-.849c.609-.184 1.331-.198 1.869.043.694.127 1.26.212 1.911.623.51.382 1.161.778 1.487 1.401a5.2 5.2 0 0 1 .821 1.87c.184.608.198 1.33.085 2.024l-.113-.17zM134.889 63.118c.694.127 1.26.212 1.77.594s1.02.75 1.359 1.246c.34.496.666 1.119.708 1.7.184.608.199 1.33-.042 1.868-.128.694-.213 1.26-.623 1.912-.382.51-.75 1.019-1.402 1.486a5.2 5.2 0 0 1-1.869.821 3.12 3.12 0 0 1-1.996-.056c-1.26-.213-2.28-.963-2.959-1.954s-.921-2.166-.694-3.427c.127-.693.212-1.26.623-1.91.41-.652.779-1.162 1.26-1.502a6.3 6.3 0 0 1 1.727-.85c.609-.183 1.331-.197 2.025-.084l.113.17zM133.402 89.878c.1-.553.213-1.26.737-1.742.382-.51.75-1.02 1.246-1.36.495-.34 1.104-.523 1.699-.707.58-.043 1.161-.085 1.869.042 1.118.199 2.138.949 2.831 1.926s.921 2.166.723 3.285c-.199 1.118-.808 2.166-1.784 2.846-.977.693-2.167.92-3.314.863-.552-.099-1.26-.212-1.741-.736-.51-.382-1.02-.75-1.359-1.246-.34-.496-.524-1.104-.708-1.699-.184-.609-.085-1.161.042-1.869l-.212.397zM276.391 132.098c-.467 1.062-.948 2.138-1.557 3.171-6.004 9.741-12.97 18.435-22.937 24.466-3.2 1.883-6.641 3.441-9.897 4.885-.935.411-1.982.665-2.988.637-.863 0-1.812-.311-2.605-.736s-1.359-1.246-1.656-2.011c-.468-.651-.737-1.571-.595-2.407.141-.835.297-1.67.963-2.279 1.062-1.105 2.223-2.053 3.624-2.676 10.591-3.908 17.954-11.539 24.396-20.488 1.345-1.925 2.534-3.865 3.738-5.819a8.4 8.4 0 0 1 1.458-1.755c.722-.878 1.685-1.43 2.704-1.544 1.048-.255 2.167-.056 3.214.553 1.827 1.033 2.662 2.902 2.124 5.974zM218.411 172.18l-1.812-.311c-1.119-.198-1.996-.92-2.549-1.883-.722-.85-.934-2.025-.906-3.03-.085-1.161.383-2.237 1.09-2.973.723-.878 1.799-1.275 2.832-1.374 2.775-.241 5.664-.311 8.467.028 1.119.199 2.181.666 2.903 1.515.722.85 1.246 1.94 1.189 3.087.085 1.161-.382 2.237-.977 3.129-.722.878-1.685 1.43-2.874 1.657-2.351.311-4.828.453-7.15.623l.042-.284z"/><path fill="#102185" d="M189.032 71.655c-1.742-.737-4.276-1.898-6.499-3.144-.906-.594-1.642-1.288-1.897-2.336-.411-.934-.354-2.067-.043-3.03.34-1.09 1.091-2.11 2.039-2.662s2.166-.92 3.313-.863c3.483.609 6.697 2.025 9.147 4.46.736.708 1.147 1.642 1.288 2.52.114 1.02-.056 1.996-.481 2.79-1.218 2.08-3.37 2.86-6.839 2.123zM180.48 82.812c-3.341-.58-6.116-3.653-5.593-6.726.128-.693.213-1.26.737-1.741.382-.51.75-1.02 1.387-1.345.496-.34 1.119-.666 1.699-.708.609-.184 1.303-.057 1.869.042 3.342.58 5.933 3.908 5.423 6.839-.099.552-.212 1.26-.736 1.742-.383.51-.751 1.019-1.246 1.359-.496.34-1.105.524-1.699.708s-1.161.085-1.869-.043l.028-.141z"/></svg>