<svg width="307" height="266" viewBox="0 0 307 266" fill="none" xmlns="http://www.w3.org/2000/svg">
<path d="M28.954 183.253L23.9277 182.375C20.4447 181.767 16.82 181.144 13.3512 180.393C6.20104 178.581 1.99592 173.824 0.523417 166.532C-0.382737 162.638 -0.0995657 158.518 1.27383 154.738C1.82601 153.251 2.78881 151.835 4.0914 150.915C5.394 149.995 6.93729 149.4 8.55138 149.244C10.2929 149.117 12.1618 149.159 14.0025 149.329C21.3791 149.896 28.8974 150.476 36.2457 151.184C40.0544 151.552 43.9056 151.793 47.7143 152.175C49.116 152.416 50.5743 152.246 52.0185 152.203C53.2928 152.288 54.4821 152.062 55.7281 151.552C56.974 151.042 57.951 150.363 58.8147 149.499C61.8871 146.724 65.2993 144.445 68.8248 142.335C76.159 138.144 84.9091 139.956 88.6186 148.352C88.8452 148.678 89.0859 149.004 89.454 149.358C102.522 148.607 115.888 147.772 129.268 143.482C128.008 139.956 126.705 136.714 125.686 133.514C125.275 131.716 124.893 129.79 124.652 127.879C124.341 126.392 124.157 124.92 123.845 123.433C123.534 121.947 122.911 120.545 122.599 119.044C121.722 115.009 123.222 112.106 127.173 110.931C129.155 110.266 131.236 109.912 133.261 109.827C141.53 109.388 149.742 109.246 157.855 108.921C168.87 108.397 179.9 107.717 190.943 107.052C201.265 106.4 211.742 105.636 222.149 105.282C223.565 105.381 225.066 105.069 226.34 104.291C227.6 103.654 228.789 102.563 229.427 101.374C232.91 96.2345 236.987 91.7605 239.564 86.0404C241.929 80.7026 243.345 75.0533 243.911 69.2624C244.406 63.8822 244.633 58.4736 245.001 53.065C245.567 45.6884 247.861 39.048 253.765 34.0358C259.669 29.0237 267.174 29.6042 272.143 35.7915C275.669 40.2798 277.198 45.5751 277.807 51.1394C278.288 56.6896 278.203 62.1265 277.255 67.5634C277.085 68.5403 276.915 69.5173 276.844 70.7916C278.515 71.0889 279.322 69.7863 280.27 69.2341C284.787 66.4307 288.737 66.8271 292.603 70.2252C294.089 71.6269 295.562 73.0428 297.02 74.5861C298.252 75.8037 299.116 77.3894 299.385 79.1593C299.654 80.9291 299.201 82.7131 298.238 84.1289C296.808 86.6067 295.392 88.9571 293.693 91.2507C291.796 93.9409 289.743 96.6027 287.307 99.9158C289.035 99.9158 290.139 100.128 291.173 100.015C293.197 99.93 295.279 99.576 297.303 99.4911C303.519 99.2787 307.101 103.498 306.167 109.657C304.128 124.679 299.795 138.866 291.711 151.552C281.247 167.99 267.768 181.016 249.277 188.152C236.648 192.994 223.183 195.26 209.59 194.906C200.84 194.821 192.09 194.736 183.468 193.093C172.891 191.111 163.207 187.274 155.164 179.841C154.541 179.303 154.032 178.921 153.38 178.524C145.31 181.144 136.999 181.852 128.815 183.451C128.235 190.97 123.591 196.194 119.131 201.164C112.618 208.073 105.354 214.289 97.5244 219.683C93.4326 222.572 89.2275 225.29 85.0082 227.994C82.8844 229.495 80.7747 230.854 78.7642 232.511C74.6157 235.668 71.1752 239.817 68.9098 244.588C66.1913 250.294 63.3596 255.844 60.7827 261.579C60.2872 262.782 59.5651 263.66 58.5739 264.354C57.597 265.047 56.2661 265.246 55.1192 265.189C49.3991 265.062 43.8065 264.948 38.1572 264.396C29.9451 263.688 21.8039 262.555 13.6485 261.579L9.04694 260.786C5.20994 259.695 3.00118 256.722 3.94981 252.857C5.86123 246.004 5.50727 238.896 6.72492 231.93C9.38675 217.446 15.0644 203.769 23.2198 191.536C24.9896 188.818 26.717 186.255 28.8691 183.027L28.9823 183.197L28.954 183.253ZM133.643 119.95C133.912 121.72 134.252 123.079 134.309 124.382C134.309 125.968 134.493 127.426 134.818 128.927C139.377 143.227 146.882 156.309 156.878 167.396C164.056 175.678 174.01 181.285 184.94 182.899C198.108 184.896 211.558 185.221 224.882 183.805C234.113 182.814 243.033 180.209 251.486 176.216C262.657 170.68 271.577 162.313 279.024 152.543C288.298 140.508 293.452 126.591 295.76 111.625C295.859 111.073 295.703 110.322 295.519 109.714C241.858 115.051 188.182 117.09 133.926 120.021L133.643 119.978V119.95ZM13.9883 251.214L18.3067 251.965C28.3735 253.565 38.4262 254.457 48.5213 255.051C49.6398 255.25 50.8292 255.023 51.7778 254.471C52.7406 253.919 53.4627 253.041 53.8025 251.951C56.0962 247.038 58.7863 242.323 61.1791 237.566C63.0906 234.012 65.5117 230.84 68.4142 228.193C73.6105 223.067 80.0243 219.287 86.1975 215.181C95.1033 209.404 103.457 202.665 111.103 195.076C114.218 192.017 116.709 188.435 118.536 184.584C117.262 184.499 116.285 184.329 115.279 184.301C112.249 184.343 109.149 184.825 106.034 184.57C98.0766 184.046 90.1478 183.395 82.2331 182.588C80.2509 182.39 78.7642 182.701 77.8439 184.697C77.0227 186.142 76.0599 187.543 74.8423 188.775C74.1202 189.653 73.0158 190.177 71.8265 190.403C70.6371 190.63 69.5469 190.29 68.485 189.823C67.4373 189.214 66.7435 188.223 66.5028 187.175C66.1205 186.099 66.3329 184.853 66.8001 183.777C67.0408 183.239 67.2957 182.574 67.678 182.064C70.1274 177.887 72.7185 173.739 75.1962 169.434C77.4758 165.371 78.9766 160.897 79.6137 156.409C79.9252 154.596 80.3217 152.359 78.3678 151.156C76.4422 149.811 74.644 151.085 72.9167 151.934C67.3523 154.993 62.7224 159.354 59.3244 164.805C54.4255 172.294 48.493 179.161 41.9658 185.363C38.3271 188.902 35.2405 192.669 32.3379 196.916C27.1842 204.208 23.2198 212.151 20.3314 220.561C18.0235 228.065 16.4094 235.682 15.475 243.569L14.0733 251.653L14.0025 251.214H13.9883ZM84.7816 172.974C105.453 176.415 125.445 173.852 145.834 170.638L133.87 152.614C119.428 157.145 104.505 158.716 89.4823 159.127C87.9673 163.743 86.4948 168.089 84.7816 172.974ZM240.017 104.078C244.067 103.923 247.139 104.446 249.673 101.445C259.585 89.0844 267.074 75.7188 267.74 59.4647C268.236 54.0844 267.188 48.5909 264.866 43.7345C263.252 40.5772 261.425 40.4072 258.82 42.9699C256.526 45.4477 255.11 48.6475 254.941 52.0739C254.643 55.4719 254.445 59.0258 254.289 62.4521C254.034 68.8801 253.227 75.1949 251.571 81.3822C249.631 88.3765 246.502 94.8753 242.169 100.737C241.603 101.501 240.994 102.549 239.862 104.078L240.003 104.107L240.017 104.078ZM10.8026 159.552C9.41506 165.923 11.7088 170.057 17.5704 171.077C23.4321 172.096 29.223 172.663 35.1555 173.271C36.8829 173.271 38.5111 172.988 40.0544 172.394C42.065 171.587 46.7373 165.357 47.8558 162.256L10.8168 159.566L10.8026 159.552ZM261.949 102.719C264.993 102.535 267.499 102.238 269.793 102.209C270.798 102.238 271.704 101.969 272.497 101.53C273.29 101.091 274.14 100.383 274.692 99.6184C278.784 94.2948 283.031 88.8579 286.982 83.506C289.02 80.8441 288.709 80.207 285.58 78.3806C282.89 79.7823 280.511 81.9485 277.708 82.3308C273.163 82.8405 271.28 85.3891 269.496 89.0986C267.443 93.4878 264.682 97.7495 261.935 102.875L261.963 102.733L261.949 102.719Z" fill="#102185"/>
<path d="M180.522 42.8706C181.924 41.3839 183.17 40.0248 184.416 38.6655C185.478 37.5612 186.526 36.4426 187.715 35.3524C188.395 34.7577 189.074 34.1489 189.839 33.8516C190.632 33.4127 191.524 33.2852 192.515 33.3135C193.378 33.3135 194.355 33.4835 195.162 33.7808C195.969 34.0781 196.734 34.6303 197.499 35.1967C201.251 38.439 204.436 42.4317 206.829 46.8775C210.1 52.9091 212.747 59.1105 212.988 66.0482C213.356 73.8779 210.355 80.3909 205.611 86.1818C203.615 88.5604 201.392 90.6276 198.914 92.4965C192.869 97.4803 185.903 98.7121 178.257 98.1033C172.183 97.4803 166.307 95.7388 161.097 92.6806C159.27 91.647 157.628 90.3585 156.311 88.8294C155.207 87.7675 154.442 86.3517 154.131 84.8508C153.819 83.35 153.805 81.7785 154.343 80.2918C154.513 79.3149 154.966 78.3804 155.405 77.4601C157.543 74.2461 156.368 71.8816 153.918 69.4463C150.987 66.4872 148.354 63.443 145.763 60.1299C142.11 55.4717 142.025 52.725 145.027 47.7837C147.221 44.2865 149.26 40.761 151.709 37.4479C155.235 32.8889 159.015 31.8128 164.212 34.1631C168.742 36.2444 173.018 38.8496 177.337 41.3274L180.352 42.9981L180.522 42.8848V42.8706ZM160.445 43.4086C157.5 45.4899 156.665 48.6473 154.923 51.21C153.182 53.7727 153.352 53.6737 155.263 55.8683C158.491 59.592 161.847 63.4714 165.245 67.0818C168.162 70.1684 168.318 73.3682 166.548 76.9362C165.882 78.2529 165.387 79.4706 164.735 80.7873C164.693 81.0705 164.481 81.4669 164.424 81.7359C164.353 82.1607 164.438 82.4581 164.537 82.7554C164.636 83.0527 164.863 83.3925 165.118 83.5765C165.373 83.7606 165.769 83.973 166.052 84.0296C168.445 85.1623 170.994 86.1818 173.599 86.918C179.248 88.3339 185.039 88.9002 190.462 85.8278C193.846 83.6898 196.776 80.8864 199.056 77.6866C201.095 75.0248 202.355 71.9382 202.638 68.6818C203.049 65.4536 202.497 62.0414 201.279 59.1105C199.58 54.7922 196.847 50.7286 194.384 46.7076C193.803 45.8864 193.039 45.32 192.132 44.7395C190.702 46.3536 189.556 48.0244 188.494 49.9924C187.078 53.1922 184.784 53.9427 181.641 53.8294C179.333 53.8577 177.039 53.0365 175.071 51.9746C172.24 50.0491 169.224 48.3783 166.236 46.5661C164.268 45.5042 162.159 44.4139 160.162 43.4936L160.46 43.4086H160.445Z" fill="#102185"/>
<path d="M233.745 49.964C233.264 52.7532 232.357 55.4717 231.451 58.1901C229.596 63.0465 225.151 63.8536 221.469 60.2007C220.379 59.0114 219.6 57.7229 219.119 56.3495C215.296 46.9199 211.757 37.5328 207.948 27.9616C205.867 22.5671 204.394 17.0028 204.847 11.042C205.654 1.41419 215.749 -2.87581 222.645 2.06554C228.025 5.8742 231.097 11.2969 233.221 17.2718C235.345 23.2468 235.317 30.0004 234.934 36.4001C234.793 40.5486 234.198 44.7536 233.702 50.1197L233.731 49.9782L233.745 49.964ZM223.395 40.1097L224.188 39.6707C224.315 38.977 224.57 38.2973 224.698 37.6036C224.698 33.4409 224.867 29.1509 224.598 24.9458C224.259 20.2876 222.418 15.9409 219.303 12.3871C218.326 11.3535 217.547 10.0651 215.409 10.8438C215.197 12.1039 214.971 13.3499 215.041 14.6525C215.211 16.9745 215.82 19.2398 216.457 21.3636C218.468 27.1686 220.776 32.8888 223.083 38.6088C223.296 39.0761 223.466 39.6848 223.537 40.1237L223.395 40.0955V40.1097Z" fill="#102185"/>
<path d="M108.044 50.5444C107.294 51.5639 106.544 52.5833 105.68 53.4328C96.0944 62.2536 91.6911 73.5663 90.9123 86.3657C90.7283 89.0699 91.4079 91.7743 91.3937 94.3511C91.5212 95.2431 91.238 96.0501 90.9548 96.8571C90.5301 97.65 89.992 98.273 89.3407 98.7261C88.6894 99.1791 87.7691 99.4623 86.9196 99.4482C86.0701 99.434 85.2489 99.1509 84.4277 98.8677C83.2667 98.089 82.3039 97.0554 81.9641 95.7103C81.242 93.2892 80.8172 90.7689 80.8314 88.1779C81.0296 72.1221 86.5939 58.2891 98.0341 47.0472C99.2235 45.957 100.37 45.15 101.8 44.3996C102.593 43.9607 103.485 43.8333 104.462 44.0032C105.439 44.1731 106.232 44.5978 106.827 45.2774C108.327 46.5517 108.653 48.0383 108.186 50.686L108.073 50.5161L108.044 50.5444Z" fill="#102185"/>
<path d="M86.2822 31.1054C89.7652 31.7142 91.4926 34.1637 90.7847 36.6273C90.3741 38.1423 89.5812 39.4307 88.5193 40.5492C80.5055 48.648 75.2384 59.0828 73.2987 70.2398C73.0297 71.7689 73.0438 73.3547 72.9447 74.7705C72.7182 77.7438 71.0475 79.8959 68.414 80.1649C65.6389 80.4056 63.6283 78.7633 62.9346 75.3369C62.708 74.1476 62.6514 72.845 62.8638 71.5848C64.4212 58.4882 69.8865 46.0711 78.4949 36.2167C79.5993 34.8292 80.9585 33.6257 82.431 32.5921C83.5496 31.9267 84.923 31.4453 86.1406 31.0771L86.2822 31.1054Z" fill="#102185"/>
<path d="M182.137 9.5269C181.924 10.787 181.145 11.948 180.027 12.6135C179.05 13.3072 177.691 13.6471 176.431 13.4205C175.171 13.194 174.01 12.4294 173.344 11.3109C172.65 10.334 172.311 8.97476 172.537 7.71465C172.636 7.16246 172.749 6.45454 173.132 5.94483C173.372 5.4068 173.882 4.92538 174.378 4.58557C174.873 4.24576 175.496 3.92015 176.105 3.73609C176.714 3.55203 177.436 3.53783 177.974 3.77852C178.668 3.90595 179.234 3.9909 179.885 4.4015C180.395 4.78378 181.046 5.18021 181.372 5.80319C181.712 6.29874 182.037 6.92173 182.193 7.67213C182.377 8.28095 182.391 9.00303 182.278 9.6968L182.165 9.5269H182.137Z" fill="#102185"/>
<path d="M134.889 63.1176C135.583 63.245 136.149 63.3299 136.659 63.7122C137.169 64.0945 137.679 64.4626 138.018 64.9582C138.358 65.4537 138.684 66.0767 138.726 66.6572C138.91 67.266 138.925 67.988 138.684 68.5261C138.556 69.2198 138.471 69.7862 138.061 70.4375C137.679 70.9472 137.311 71.4569 136.659 71.9242C136.164 72.264 135.541 72.5896 134.79 72.7454C134.181 72.9294 133.459 72.9435 132.794 72.6887C131.534 72.4763 130.514 71.726 129.835 70.7349C129.155 69.7438 128.914 68.5686 129.141 67.3084C129.268 66.6147 129.353 66.0484 129.764 65.3971C130.174 64.7458 130.543 64.2361 131.024 63.8963C131.505 63.5565 132.143 63.2308 132.751 63.0467C133.36 62.8626 134.082 62.8485 134.776 62.9618L134.889 63.1316V63.1176Z" fill="#102185"/>
<path d="M133.402 89.8775C133.502 89.3253 133.615 88.6174 134.139 88.136C134.521 87.6263 134.889 87.1166 135.385 86.7767C135.88 86.4369 136.489 86.2529 137.084 86.0688C137.664 86.0264 138.245 85.9839 138.953 86.1113C140.071 86.3096 141.091 87.0599 141.784 88.0369C142.478 89.0138 142.705 90.2032 142.507 91.3217C142.308 92.4402 141.699 93.488 140.723 94.1676C139.746 94.8614 138.556 95.0879 137.409 95.0312C136.857 94.9321 136.149 94.8188 135.668 94.295C135.158 93.9127 134.648 93.5445 134.309 93.049C133.969 92.5534 133.785 91.9447 133.601 91.35C133.417 90.7412 133.516 90.189 133.643 89.4811L133.431 89.8775H133.402Z" fill="#102185"/>
<path d="M276.391 132.098C275.924 133.16 275.443 134.236 274.834 135.269C268.83 145.01 261.864 153.704 251.897 159.735C248.697 161.618 245.256 163.176 242 164.62C241.065 165.031 240.018 165.285 239.012 165.257C238.149 165.257 237.2 164.946 236.407 164.521C235.614 164.096 235.048 163.275 234.751 162.51C234.283 161.859 234.014 160.939 234.156 160.103C234.297 159.268 234.453 158.433 235.119 157.824C236.181 156.719 237.342 155.771 238.743 155.148C249.334 151.24 256.697 143.609 263.139 134.66C264.484 132.735 265.673 130.795 266.877 128.841C267.273 128.19 267.811 127.567 268.335 127.086C269.057 126.208 270.02 125.656 271.039 125.542C272.087 125.287 273.206 125.486 274.253 126.095C276.08 127.128 276.915 128.997 276.377 132.069L276.391 132.098Z" fill="#102185"/>
<path d="M218.411 172.18L216.599 171.869C215.48 171.671 214.603 170.949 214.05 169.986C213.328 169.136 213.116 167.961 213.144 166.956C213.059 165.795 213.527 164.719 214.234 163.983C214.957 163.105 216.033 162.708 217.066 162.609C219.841 162.368 222.73 162.298 225.533 162.637C226.652 162.836 227.714 163.303 228.436 164.152C229.158 165.002 229.682 166.092 229.625 167.239C229.71 168.4 229.243 169.476 228.648 170.368C227.926 171.246 226.963 171.798 225.774 172.025C223.423 172.336 220.946 172.478 218.624 172.648L218.666 172.364L218.411 172.18Z" fill="#102185"/>
<path d="M189.032 71.6546C187.29 70.9184 184.756 69.7574 182.533 68.5115C181.627 67.9168 180.891 67.223 180.636 66.1753C180.225 65.2408 180.282 64.1081 180.593 63.1453C180.933 62.0551 181.684 61.0357 182.632 60.4835C183.581 59.9313 184.798 59.5632 185.945 59.6198C189.428 60.2287 192.642 61.6446 195.092 64.0798C195.828 64.7878 196.239 65.7222 196.38 66.6C196.494 67.6194 196.324 68.5964 195.899 69.3893C194.681 71.4706 192.529 72.2493 189.06 71.5131L189.032 71.6546Z" fill="#102185"/>
<path d="M180.48 82.8118C177.139 82.2313 174.364 79.1589 174.887 76.0864C175.015 75.3927 175.1 74.8264 175.624 74.345C176.006 73.8353 176.374 73.3255 177.011 72.9999C177.507 72.6601 178.13 72.3344 178.71 72.2919C179.319 72.1079 180.013 72.2353 180.579 72.3344C183.921 72.9149 186.512 76.2422 186.002 79.173C185.903 79.7252 185.79 80.4331 185.266 80.9145C184.883 81.4242 184.515 81.9339 184.02 82.2737C183.524 82.6135 182.915 82.7976 182.321 82.9817C181.726 83.1657 181.16 83.0667 180.452 82.9392L180.48 82.7976V82.8118Z" fill="#102185"/>
</svg>
