<svg xmlns="http://www.w3.org/2000/svg" width="325" height="216" fill="none" viewBox="0 0 325 216"><path fill="#102185" d="M86.765 164.708a37.1 37.1 0 0 0-4.106 10.803 227 227 0 0 0-3.257 27.539c-.056 2.407-.694 4.799-1.6 7.036-.467 1.544-1.487 2.79-2.648 3.752-1.302.963-2.874 1.346-4.417 1.303-6.952.241-13.89.212-20.827.17-1.7-.043-3.526-.51-4.913-1.543-1.388-1.034-2.337-2.606-2.719-4.319-.92-3.001-1.543-5.989-1.755-8.962-.411-5.961-.397-12.049-.525-18.137-.254-11.908-.368-23.942-.778-35.85-.255-6.668-.935-13.337-1.614-19.864-.567-5.536-3.724-9.444-7.887-12.672a21.6 21.6 0 0 0-4.176-2.662c-1.119-.595-2.238-1.331-2.917-2.478-.68-1.147-1.076-2.435-1.034-3.709.014-.567.029-.991-.24-1.699-1.671-1.034-3.342-2.068-5.154-3.101-4.05-2.365-7.504-5.437-10.393-9.047C.44 84.896-.778 77.364.425 69.463 1.8 60.005 6.415 51.2 13.253 44.587c2.62-2.478 5.635-4.531 8.934-5.862 3.299-1.33 6.994-1.94 10.534-1.855 7.08.043 14.159.368 21.238.552l3.964.1a36 36 0 0 0-2.746-20.035c-.935-2.152-2.167-4.021-3.101-6.173-1.204-2.719-2.407-5.593-.07-8.354C54.34.2 57.031.54 60.131.766c9.19.807 19.68 11.27 21.592 19.256 1.289 4.7 1.883 9.542 2.039 14.498-.028.99-.057 1.982.198 3.256l10.62.27c1.373-3.654.905-7.632.721-11.313.014-6.089-1.387-12.078-3.794-17.515a8.1 8.1 0 0 1-.75-3.695c.014-.708.042-1.416.48-2.11.298-.693.737-1.26 1.176-1.812.58-.552 1.16-.963 1.869-1.232A5.7 5.7 0 0 1 96.42.001c.99.028 1.982.057 2.959.637 2.803 1.204 5.451 2.69 7.957 4.602 6.655 5.409 11.285 12.898 12.899 21.294.127.708.382 1.43.651 2.28l3.044-2.62c2.619-2.619 5.918-4.516 9.628-5.564 1.855-.524 3.695-.467 5.522.142 1.826.467 3.355 1.5 4.601 2.945 3.172 3.341 4.333 7.617 4.786 11.879.467 3.837.51 7.66.821 11.921 1.558.043 2.959.354 4.517.397 14.286.934 28.43 1.586 42.702 2.803 7.207.75 14.258 1.926 21.295 3.526 9.996 2.095 17.486 8.24 23.518 16.325 5.89 7.801 10.619 16.424 14.215 25.443 2.279 5.012 4.134 10.165 5.408 15.574 1.02 4.418 2.464 8.566 4.63 12.587 4.857 9.189 10.577 17.982 19.341 24.155 5.848 4.12 11.978 7.957 17.826 11.935 3.044-2.477 5.522-5.38 7.447-8.735 1.784-3.356 4.22-4.276 6.881-2.946 1.26.737 2.223 1.898 2.747 3.328a6.2 6.2 0 0 1-.396 4.233c-.595 1.26-1.473 2.365-2.351 3.483-.878 1.119-1.755 2.082-2.93 3.611 1.684.325 2.676.637 3.794.948 1.26.312 2.534.637 3.653 1.232.977.453 1.671 1.175 2.209 2.18.396.864.651 1.997.495 2.988a4.35 4.35 0 0 1-1.628 2.789c-.864.68-2.01 1.076-3.002 1.062a24 24 0 0 1-4.516-.538l-4.234-.538c.369 2.28.595 4.262.836 6.117.255 1.274.212 2.548.184 3.822-.029 1.275-.482 2.393-1.218 3.37-.878.963-2.024 1.501-3.299 1.473-1.274-.029-2.407-.199-3.37-1.076-.977-.737-1.656-1.884-1.755-3.158-.637-2.846-.977-5.833-1.473-8.679.014-.566-.113-.991-.24-1.557-.114-1.275-.638-2.563-1.317-3.71-.821-1.161-1.784-2.025-3.059-2.492-8.098-4.318-15.758-9.614-22.54-15.872.241 1.841.34 3.129.595 4.404.792 7.532 1.741 15.064 2.392 22.583.453 4.544.765 8.948.921 13.479.34 3.27.113 6.654-.821 9.896-.326 1.402-1.204 2.804-2.365 3.767-1.161.962-2.591 1.628-4.007 1.741-6.952.666-13.762.92-20.714 1.303-.85-.029-1.841-.043-2.676-.496-1.119-.453-2.237-1.189-2.775-2.194-.538-1.006-.935-2.294-.765-3.554.397-4.517.949-9.175 1.487-13.847.396-4.375-.198-8.793-2.081-12.8-.935-2.152-2.294-4.304-4.843-4.375-1.274-.028-2.562.496-3.568 1.331-1.005.836-1.614 1.94-1.925 3.356-2.025 7.164-3.908 14.342-5.791 21.521-.779 2.676-1.133 5.493-1.77 8.311-.326 1.543-1.076 3.087-2.379 4.191a6.2 6.2 0 0 1-4.431 1.727 43 43 0 0 1-8.509.213c-4.942-.411-9.742-.963-14.556-1.515-1.274-.029-2.534-.496-3.653-1.091-2.378-1.189-3.03-3.199-2.831-5.734.141-5.38.283-10.76.41-16.141.128-5.38-.07-2.548-.184-3.964-3.851 1.034-7.419 1.94-10.845 3.115-.708.269-1.303 1.104-1.742 1.798-1.033 1.388-1.925 3.072-3.086 4.446a9.17 9.17 0 0 1-5.338 3.539c-2.138.51-4.389.17-6.343-1.019l-1.544-.75c-.863.679-1.741 1.373-2.746 1.911-6.485 4.219-13.366 1.784-15.433-5.635-.637-2.563-1.586-4.29-4.262-5.21-1.685-.751-3.356-1.784-4.885-2.96-.906 2.096-1.671 4.347-2.293 6.598-1.133 5.211-1.969 10.294-2.804 15.504-.849 5.508-3.327 7.985-8.991 8.127-6.513-.028-13.011-.623-19.496-1.926-1.416-.184-2.676-.778-3.78-1.798-.963-1.019-1.643-2.308-1.742-3.723-.24-1.699-.481-3.271-.439-4.97.07-8.212-.566-16.438-1.911-24.551-.61-3.979-2.21-7.561-4.545-10.746l.156-.708zm164.382-52.981c-7.575 2.633-13.89.495-20.191-2.506-2.378-1.19-4.601-2.804-6.98-4.007-2.789-1.487-5.876-2.705-8.976-3.483a106.5 106.5 0 0 0-13.267-2.04c-4.233-.395-8.297-2.052-11.639-4.686-6.385-4.842-8.905-11.85-9.84-19.368-.58-5.112-.439-10.492-.58-16.156l-16.821-1.146c-5.083-.411-10.321-.694-15.404-1.246-5.933-.58-8.127-3.328-8.255-9.416-.056-3.54-.099-7.22-.425-10.775-.226-2.407-.155-4.955-2.378-6.71-2.407.226-4.007 1.74-5.607 3.256-4.503 4.276-9.147 8.693-13.649 13.096-.736.836-1.742 1.515-2.874 1.77s-2.28.368-3.398-.085a17.5 17.5 0 0 0-3.809-.523c-13.734-.213-27.468-.284-41.202-.355l-6.937-.184c7.348 11.526 8.042 23.15 3.624 35.213-4.573 12.488-14.37 19.029-26.519 23.107.835.594 1.246 1.019 1.798 1.458 5.536 4.956 9.628 10.874 10.152 18.392.736 10.081 1.458 20.148 1.911 30.356.482 14.173.41 28.19.75 42.363-.07 2.548.44 5.111 1.657 7.263l17.713-.538c.042-1.416.34-2.393.368-3.384.099-9.061.892-17.967 2.393-26.845 1.16-6.343 3.582-12.374 6.98-17.811 2.803-4.319 6.513-5.211 10.973-2.832 1.67.892 3.058 2.209 4.148 3.795 3.427 4.615 5.692 10.208 6.386 15.886.92 8.098 1.416 16.324 2.195 24.565-.029.849.24 1.699.354 2.846 4.686-.439 8.877 1.642 13.733.354.34-2.11.666-4.092 1.006-6.06 1.345-8.042 2.817-15.929 8.792-22.158a12 12 0 0 0 1.473-2.223c5.592-7.929 12.544-13.975 22.229-16 9.118-1.883 18.208-3.072 27.51-1.274 2.818.496 5.494 1.416 7.858 3.03 2.365 1.473 4.446 3.511 6.088 5.819 4.644 6.782 6.004 14.315 6.513 22.258.298 4.828.029 9.769-.099 14.866 5.508.85 10.86 1.699 16.254 1.133 1.43-6.06 2.563-11.695 4.121-17.175 1.104-4.644 2.647-9.132 4.318-13.479 1.218-3.228 3.554-5.861 6.57-7.617 3.015-1.756 6.428-2.379 9.826-1.869 6.343 1.161 10.194 5.366 12.318 11.086 2.534 6.018 3.355 12.686 2.336 19.327a55 55 0 0 0-.17 6.796l12.771-1.09c-.793-18.435-2.18-36.317-6.102-54.114-2.28-10.534-6.131-20.559-9.826-30.994l-.142.142zm-3.851-9.869c-3.568-9.727-8.581-18.774-14.881-27.014-4.673-5.791-10.223-10.18-17.684-11.511-7.759-1.331-15.518-2.38-23.136-3.427-.566-.014-1.132.114-1.713.383-.085 3.114-.297 6.088-.241 9.061.015 4.672 1.176 9.231 3.2 13.394.949 1.869 2.181 3.313 3.851 4.488a13.35 13.35 0 0 0 5.466 2.266c2.393.34 4.8.694 7.206.892 7.915.623 15.646 3.1 22.329 7.376 2.364 1.614 4.884 2.818 7.546 3.738 2.535.779 5.041 2.11 8.071.213v.141zM10.237 73.215c-.056 2.266.17 4.39.821 6.542.652 2.152 1.883 4.02 3.257 5.606 3.44 3.908 7.759 6.853 12.516 8.821 1.954.906 3.936 1.232 6.06 1.147s4.12-.595 5.848-1.685c7.758-4.05 13.28-9.854 15.49-18.576 1.43-5.777 1.019-11.865-1.247-17.316-.538-1.288-1.203-2.577-2.166-3.596-3.172-3.342-6.499-5.975-11.596-5.96-2.124-.057-4.078-1.374-6.202-1.43-3.68-.242-7.249.806-10.137 3-7.66 6.032-11.412 14.16-12.644 23.476zm129 99.79c.254.85.807 1.727 1.5 2.308.694.58 1.671 1.033 2.662 1.062 3.951.524 6.018 2.987 6.91 6.838.255 1.275.793 2.422 1.175 3.71l.849.028c.468-1.543.935-3.086 1.53-4.63.311-1.118.906-2.095 1.911-2.789.864-.679 2.01-1.217 3.157-1.331 2.69-.212 4.22 1.388 5.437 3.54.538.864.949 1.869 1.898 3.596.764-2.109 1.217-3.228 1.529-4.346.934-3.229 2.831-5.31 6.229-5.225s8.113-1.77 12.12-2.945c-1.982-5.578-5.168-8.354-9.967-9.033-7.193-1.034-14.57-.666-21.691.991-5.692 1.274-11.129 3.256-15.079 8.113l-.142.141zM65.994 14.457c.75 3.695 1.798 7.264 2.265 11.1.468 3.696.51 7.802.68 11.922.99.028 1.699.184 2.407.198s1.416.043 2.69-.212c-.198-8.651-.552-17.005-8.042-23.008m39.035 2.152.708 21.833 4.814.127c1.912-8.453.255-15.574-5.522-21.96"/><path fill="#102185" d="M152.574 133.545c-3.1-.651-6.06-1.005-8.877-1.925-6.881-2.167-13.819-2.195-20.927-1.388-2.987.354-6.102.269-9.203-.241-13.55-2.053-20.162-20.062-9.67-31.403 3.058-3.455 6.81-5.919 11.1-7.504 4.29-1.586 8.835-1.898 13.352-1.218a322 322 0 0 1 32.409 6.357 17.1 17.1 0 0 1 6.725 3.002 16.9 16.9 0 0 1 4.956 5.508c1.09 1.585 1.756 3.44 1.982 5.436.227 1.983.184 3.823-.297 5.805-2.039 7.731-6.584 13.706-14.3 16.481-2.422.651-4.843 1.147-7.264 1.373v-.283zm-25.74-34.094c-2.832-.212-5.522.142-8.24 1.062-2.577.921-5.027 2.421-6.91 4.503-1.019.962-1.897 2.364-2.364 3.766-.468 1.402-.496 2.959-.114 4.389 1.02 4.559 3.625 7.462 9.869 7.193 3.398-.057 6.952-.524 10.364-.864 6.952-.524 13.422 1.331 20.035 3.214 7.305 2.025 12.091-2.096 14.654-7.971.594-1.26.637-2.676.24-3.965-.396-1.288-1.217-2.435-2.322-3.171-1.387-.892-2.93-1.629-4.488-1.954-3.653-.949-7.32-1.6-10.845-2.266-6.627-1.302-13.111-2.463-19.737-3.624l-.128-.283zM191.001 131.988c0-10.619 8.141-19.34 18.873-17.783 10.86 1.699 20.913 7.193 28.063 15.461.821 1.02 1.798 1.883 2.761 2.62 1.953 1.189 3.454 3.058 4.106 5.352.651 2.279.439 4.686-.595 6.64-1.048 2.379-2.803 4.318-5.097 5.536s-4.998 1.43-7.532.935c-1.402-.326-2.676-.779-4.078-1.091-3.228-1.076-6.768-1.444-10.166-1.118-5.55.849-11.186 0-16.084-2.535-6.57-3.426-9.968-8.75-10.124-14.002h-.141zm42.971 8.765c-5.748-7.66-12.686-13.21-21.691-15.717a14.8 14.8 0 0 0-6.074-.58c-.849-.028-1.713.382-2.421.793s-1.303 1.104-1.883 1.798c-.439.694-.751 1.543-.906 2.379-.029.849-.043 1.699.212 2.548.255.991.793 2.011 1.487 2.874.694.864 1.656 1.459 2.647 1.912 2.79 1.487 6.188 1.996 9.303 1.515 5.394-.708 10.774-.283 15.971 1.402.977.311 2.109.622 3.242.792l.127.284zM73.951 63.106c.015-.708.184-1.416.482-1.968.297-.552.736-1.119 1.175-1.67.439-.412 1.161-.822 1.727-1.091.567-.27 1.289-.397 1.983-.227 1.415.043 2.675.638 3.638 1.657s1.501 2.308 1.473 3.582c-.043 1.416-.779 2.676-1.94 3.639-1.02.963-2.45 1.359-3.851 1.317-1.274-.029-2.535-.78-3.356-1.784-.82-1.02-1.359-2.308-1.33-3.568v.141zM96.69 71.063c-1.416-.043-2.676-.637-3.497-1.642-.963-1.02-1.36-2.308-1.317-3.71.028-1.274.779-2.534 1.643-3.356 1.019-.82 2.166-1.359 3.44-1.472.708.014 1.274.028 1.968.34.552.297 1.119.594 1.671 1.175.41.439.821 1.02 1.09 1.727.269.58.397 1.289.368 1.996-.042 1.416-.637 2.677-1.642 3.498-1.02.963-2.308 1.359-3.71 1.317v.141zM32.452 68.415a43.4 43.4 0 0 1-2.28 6.032c-.594.977-1.33 1.954-2.336 2.492a5.52 5.52 0 0 1-3.412.623c-1.133-.028-2.251-.482-3.228-1.218s-1.657-1.6-2.053-2.747c-1.87-4.304-.41-11.624 3.468-13.79 3.88-2.166 7.391-1.09 8.694 3.341.382 1.714.765 3.554.991 5.409l.142-.142zM35.553 68.911c.099-3.681 1.175-6.91 5.026-8.226 2.577-.92 4.97-.439 6.315 2.01 2.308 4.021 2.902 8.142.665 12.488-.453 1.26-1.472 2.223-2.62 2.903-1.146.68-2.434.934-3.836.75-1.274-.028-2.535-.778-3.497-1.642-.963-.864-1.501-2.166-1.756-3.44-.24-1.558-.354-2.988-.312-4.546v-.283z"/></svg>