<svg width="325" height="216" viewBox="0 0 325 216" fill="none" xmlns="http://www.w3.org/2000/svg">
<path d="M86.7646 164.708C84.8391 168.064 83.4656 171.703 82.6586 175.511C81.002 184.672 79.926 193.847 79.4021 203.05C79.3455 205.457 78.7083 207.849 77.8022 210.086C77.3349 211.63 76.3155 212.876 75.1545 213.838C73.8519 214.801 72.2803 215.184 70.737 215.141C63.7851 215.382 56.8473 215.353 49.9096 215.311C48.2106 215.268 46.3841 214.801 44.9966 213.768C43.609 212.734 42.6604 211.162 42.2782 209.449C41.3578 206.448 40.7349 203.46 40.5225 200.487C40.1119 194.526 40.126 188.438 39.9985 182.35C39.7437 170.442 39.6304 158.408 39.2198 146.5C38.965 139.832 38.2854 133.163 37.6058 126.636C37.0395 121.1 33.8821 117.192 29.7194 113.964C28.4735 112.944 27.0717 112.052 25.5426 111.302C24.4241 110.707 23.3055 109.971 22.6259 108.824C21.9463 107.677 21.5498 106.389 21.5923 105.115C21.6064 104.548 21.6206 104.124 21.3516 103.416C19.6809 102.382 18.0101 101.348 16.1978 100.315C12.1485 97.9504 8.6938 94.878 5.80543 91.2675C0.4393 84.8961 -0.778328 77.3637 0.425158 69.4632C1.79855 60.0053 6.41427 51.1986 13.2529 44.5866C15.8723 42.1088 18.888 40.0559 22.187 38.725C25.486 37.3941 29.1814 36.7853 32.7211 36.8702C39.8004 36.9127 46.8797 37.2383 53.959 37.4223L57.9235 37.5215C58.9429 30.7536 57.9942 23.7877 55.1767 17.4871C54.2422 15.335 53.0104 13.466 52.0759 11.3139C50.8724 8.59543 49.669 5.72129 52.0051 2.96036C54.3413 0.199433 57.0315 0.539257 60.1322 0.765794C69.3212 1.57283 79.8127 12.036 81.7242 20.0215C83.0126 24.7221 83.6073 29.5643 83.763 34.5198C83.7347 35.5109 83.7064 36.502 83.9612 37.7763L94.5802 38.0453C95.9536 34.3924 95.4864 30.4138 95.3023 26.7326C95.3165 20.6444 93.9147 14.6553 91.5077 9.21843C90.9697 8.07159 90.7149 6.79734 90.7574 5.52306C90.7715 4.81513 90.7998 4.10722 91.2387 3.41344C91.5361 2.71967 91.975 2.15329 92.4139 1.6011C92.9944 1.04892 93.5749 0.638326 94.2829 0.369312C94.9908 0.100299 95.7129 -0.0129836 96.4208 0.00117495C97.4119 0.0294921 98.403 0.0578266 99.38 0.638329C102.183 1.84181 104.831 3.32846 107.337 5.23987C113.992 10.6485 118.622 18.1383 120.236 26.5344C120.363 27.2423 120.618 27.9645 120.887 28.814L123.931 26.1946C126.55 23.5752 129.849 21.678 133.559 20.6303C135.414 20.1064 137.254 20.1631 139.081 20.7719C140.907 21.2391 142.436 22.2726 143.682 23.7168C146.854 27.0583 148.015 31.3342 148.468 35.5959C148.935 39.4329 148.978 43.2557 149.289 47.5174C150.847 47.5599 152.248 47.8714 153.806 47.9139C168.092 48.8484 182.236 49.4996 196.508 50.7173C203.715 51.4677 210.766 52.6428 217.803 54.2428C227.799 56.3382 235.289 62.4831 241.321 70.5677C247.211 78.369 251.94 86.9916 255.536 96.0106C257.815 101.023 259.67 106.176 260.944 111.585C261.964 116.003 263.408 120.151 265.574 124.172C270.431 133.361 276.151 142.154 284.915 148.327C290.763 152.447 296.893 156.284 302.741 160.262C305.785 157.785 308.263 154.882 310.188 151.527C311.972 148.171 314.408 147.251 317.069 148.581C318.329 149.318 319.292 150.479 319.816 151.909C320.198 153.339 320.029 154.882 319.42 156.142C318.825 157.402 317.947 158.507 317.069 159.625C316.191 160.744 315.314 161.707 314.139 163.236C315.823 163.561 316.815 163.873 317.933 164.184C319.193 164.496 320.467 164.821 321.586 165.416C322.563 165.869 323.257 166.591 323.795 167.596C324.191 168.46 324.446 169.593 324.29 170.584C324.12 171.717 323.526 172.694 322.662 173.373C321.798 174.053 320.652 174.449 319.66 174.435C318.103 174.393 316.545 174.209 315.144 173.897L310.91 173.359C311.279 175.639 311.505 177.621 311.746 179.476C312.001 180.75 311.958 182.024 311.93 183.298C311.901 184.573 311.448 185.691 310.712 186.668C309.834 187.631 308.688 188.169 307.413 188.141C306.139 188.112 305.006 187.942 304.043 187.065C303.066 186.328 302.387 185.181 302.288 183.907C301.651 181.061 301.311 178.074 300.815 175.228C300.829 174.662 300.702 174.237 300.575 173.671C300.461 172.396 299.937 171.108 299.258 169.961C298.437 168.8 297.474 167.936 296.199 167.469C288.101 163.151 280.441 157.855 273.659 151.597C273.9 153.438 273.999 154.726 274.254 156.001C275.046 163.533 275.995 171.065 276.646 178.584C277.099 183.128 277.411 187.532 277.567 192.063C277.907 195.333 277.68 198.717 276.746 201.959C276.42 203.361 275.542 204.763 274.381 205.726C273.22 206.688 271.79 207.354 270.374 207.467C263.422 208.133 256.612 208.387 249.66 208.77C248.81 208.741 247.819 208.727 246.984 208.274C245.865 207.821 244.747 207.085 244.209 206.08C243.671 205.074 243.274 203.786 243.444 202.526C243.841 198.009 244.393 193.351 244.931 188.679C245.327 184.304 244.733 179.886 242.85 175.879C241.915 173.727 240.556 171.575 238.007 171.504C236.733 171.476 235.445 172 234.439 172.835C233.434 173.671 232.825 174.775 232.514 176.191C230.489 183.355 228.606 190.533 226.723 197.712C225.944 200.388 225.59 203.205 224.953 206.023C224.627 207.566 223.877 209.11 222.574 210.214C221.413 211.318 219.842 211.984 218.143 211.941C215.297 212.295 212.465 212.366 209.634 212.154C204.692 211.743 199.892 211.191 195.078 210.639C193.804 210.61 192.544 210.143 191.425 209.548C189.047 208.359 188.395 206.349 188.594 203.814C188.735 198.434 188.877 193.054 189.004 187.673C189.132 182.293 188.934 185.125 188.82 183.709C184.969 184.743 181.401 185.649 177.975 186.824C177.267 187.093 176.672 187.928 176.233 188.622C175.2 190.01 174.308 191.694 173.147 193.068C171.83 194.88 169.947 196.098 167.809 196.607C165.671 197.117 163.42 196.777 161.466 195.588L159.922 194.838C159.059 195.517 158.181 196.211 157.176 196.749C150.691 200.968 143.81 198.533 141.743 191.114C141.106 188.551 140.157 186.824 137.481 185.904C135.796 185.153 134.125 184.12 132.596 182.944C131.69 185.04 130.925 187.291 130.303 189.542C129.17 194.753 128.334 199.836 127.499 205.046C126.65 210.554 124.172 213.031 118.508 213.173C111.995 213.145 105.497 212.55 99.0119 211.247C97.596 211.063 96.3359 210.469 95.2315 209.449C94.2687 208.43 93.5891 207.141 93.49 205.726C93.2493 204.027 93.0086 202.455 93.0511 200.756C93.1219 192.544 92.4848 184.318 91.1397 176.205C90.5309 172.226 88.9309 168.644 86.5947 165.459L86.7505 164.751L86.7646 164.708ZM251.147 111.727C243.572 114.36 237.257 112.222 230.956 109.221C228.578 108.031 226.355 106.417 223.976 105.214C221.187 103.727 218.1 102.509 215 101.731C210.639 100.768 206.122 100.088 201.733 99.6919C197.5 99.2955 193.436 97.6389 190.094 95.0054C183.709 90.1632 181.189 83.1547 180.254 75.6365C179.674 70.5252 179.815 65.1449 179.674 59.4815L162.853 58.3346C157.77 57.924 152.532 57.6408 147.449 57.0886C141.516 56.5081 139.322 53.7614 139.194 47.6732C139.138 44.1336 139.095 40.4523 138.769 36.8985C138.543 34.4915 138.614 31.943 136.391 30.1873C133.984 30.4138 132.384 31.9288 130.784 33.4438C126.281 37.7197 121.637 42.1371 117.135 46.5405C116.399 47.3758 115.393 48.0554 114.261 48.3103C113.128 48.5652 111.981 48.6784 110.863 48.2253C109.603 47.9139 108.328 47.7298 107.054 47.7015C93.3201 47.4891 79.5862 47.4183 65.8523 47.3475L58.9146 47.1635C66.2629 58.6886 66.9567 70.3128 62.5392 82.3759C57.9659 94.8638 48.1681 101.405 36.02 105.483C36.8553 106.077 37.2659 106.502 37.8181 106.941C43.3542 111.897 47.446 117.815 47.9699 125.333C48.7061 135.414 49.4283 145.481 49.8813 155.689C50.3627 169.862 50.2919 183.879 50.6317 198.052C50.5609 200.6 51.0707 203.163 52.2883 205.315L70.0007 204.777C70.0432 203.361 70.3406 202.384 70.3689 201.393C70.468 192.332 71.2609 183.426 72.7617 174.548C73.9227 168.205 76.3438 162.174 79.7419 156.737C82.5453 152.418 86.2549 151.526 90.7149 153.905C92.3856 154.797 93.7731 156.114 94.8633 157.7C98.2897 162.315 100.555 167.908 101.249 173.586C102.169 181.684 102.665 189.91 103.444 198.151C103.415 199 103.684 199.85 103.798 200.997C108.484 200.558 112.675 202.639 117.531 201.351C117.871 199.241 118.197 197.259 118.537 195.291C119.882 187.249 121.354 179.362 127.329 173.133C127.91 172.439 128.363 171.745 128.802 170.91C134.394 162.981 141.346 156.935 151.031 154.91C160.149 153.027 169.239 151.838 178.541 153.636C181.359 154.132 184.035 155.052 186.399 156.666C188.764 158.139 190.845 160.177 192.487 162.485C197.131 169.267 198.491 176.8 199 184.743C199.298 189.571 199.029 194.512 198.901 199.609C204.409 200.459 209.761 201.308 215.155 200.742C216.585 194.682 217.718 189.047 219.276 183.567C220.38 178.923 221.923 174.435 223.594 170.088C224.812 166.86 227.148 164.227 230.164 162.471C233.179 160.715 236.592 160.092 239.99 160.602C246.333 161.763 250.184 165.968 252.308 171.688C254.842 177.706 255.663 184.374 254.644 191.015C254.446 193.28 254.389 195.546 254.474 197.811L267.245 196.721C266.452 178.286 265.065 160.404 261.143 142.607C258.863 132.073 255.012 122.048 251.317 111.613L251.175 111.755L251.147 111.727ZM247.296 101.858C243.728 92.1312 238.715 83.0839 232.415 74.8436C227.742 69.0527 222.192 64.6635 214.731 63.3326C206.972 62.0017 199.213 60.9539 191.595 59.9062C191.029 59.892 190.463 60.0195 189.882 60.2885C189.797 63.4034 189.585 66.3767 189.641 69.35C189.656 74.0224 190.817 78.5814 192.841 82.744C193.79 84.613 195.022 86.0572 196.692 87.2324C198.363 88.4075 200.19 89.1579 202.158 89.4977C204.551 89.8375 206.958 90.1915 209.364 90.3897C217.279 91.0127 225.01 93.4905 231.693 97.7663C234.057 99.3804 236.577 100.584 239.239 101.504C241.774 102.283 244.28 103.614 247.31 101.717V101.858H247.296ZM10.2371 73.2153C10.1805 75.4807 10.407 77.6045 11.0583 79.7566C11.7096 81.9087 12.9414 83.7776 14.3148 85.3634C17.7554 89.2712 22.0737 92.2161 26.831 94.1842C28.7849 95.0903 30.7672 95.416 32.891 95.331C35.0148 95.2461 37.0111 94.7364 38.7385 93.6461C46.4974 89.5968 52.0193 83.7918 54.2281 75.0701C55.6581 69.2934 55.2475 63.2052 52.9821 57.7541C52.4441 56.4657 51.7786 55.1772 50.8158 54.1578C47.6442 50.8164 44.317 48.1829 39.2198 48.1971C37.096 48.1405 35.1421 46.8237 33.0183 46.7671C29.3371 46.5264 25.7691 47.5741 22.8808 49.7687C15.2209 55.8002 11.4689 63.9273 10.2371 73.2437V73.2153ZM139.237 173.005C139.491 173.855 140.044 174.732 140.737 175.313C141.431 175.893 142.408 176.346 143.399 176.375C147.35 176.899 149.417 179.362 150.309 183.213C150.564 184.488 151.102 185.635 151.484 186.923L152.333 186.951C152.801 185.408 153.268 183.865 153.863 182.321C154.174 181.203 154.769 180.226 155.774 179.532C156.638 178.853 157.784 178.315 158.931 178.201C161.621 177.989 163.151 179.589 164.368 181.741C164.906 182.605 165.317 183.61 166.266 185.337C167.03 183.228 167.483 182.109 167.795 180.991C168.729 177.762 170.626 175.681 174.024 175.766C177.423 175.851 182.137 173.996 186.144 172.821C184.162 167.243 180.976 164.467 176.177 163.788C168.984 162.754 161.607 163.122 154.486 164.779C148.794 166.053 143.357 168.035 139.407 172.892L139.265 173.033L139.237 173.005ZM65.9939 14.4571C66.7443 18.1525 67.792 21.7205 68.2593 25.5575C68.7265 29.2529 68.7689 33.3589 68.9388 37.479C69.9299 37.5073 70.6379 37.6631 71.3458 37.6773C72.0538 37.6914 72.7617 37.7197 74.036 37.4649C73.8378 28.8139 73.4838 20.4604 65.9939 14.4571ZM105.029 16.6093L105.737 38.4418L110.551 38.5692C112.463 30.1165 110.806 22.9948 105.029 16.6093Z" fill="#102185"/>
<path d="M152.574 133.545C149.474 132.894 146.514 132.54 143.697 131.62C136.816 129.453 129.878 129.425 122.77 130.232C119.783 130.586 116.668 130.501 113.567 129.991C100.017 127.938 93.4053 109.929 103.897 98.5877C106.955 95.133 110.707 92.6694 114.997 91.0836C119.287 89.4978 123.832 89.1864 128.349 89.866C139.209 91.4234 150.068 93.5472 160.758 96.2232C163.151 96.7046 165.53 97.7665 167.483 99.2248C169.565 100.697 171.221 102.58 172.439 104.733C173.529 106.318 174.195 108.173 174.421 110.169C174.648 112.152 174.605 113.992 174.124 115.974C172.085 123.705 167.54 129.68 159.824 132.455C157.402 133.106 154.981 133.602 152.56 133.828V133.545H152.574ZM126.834 99.4513C124.002 99.2389 121.312 99.5929 118.594 100.513C116.017 101.434 113.567 102.934 111.684 105.016C110.665 105.978 109.787 107.38 109.32 108.782C108.852 110.184 108.824 111.741 109.206 113.171C110.226 117.73 112.831 120.633 119.075 120.364C122.473 120.307 126.027 119.84 129.439 119.5C136.391 118.976 142.861 120.831 149.474 122.714C156.779 124.739 161.565 120.618 164.128 114.743C164.722 113.483 164.765 112.067 164.368 110.778C163.972 109.49 163.151 108.343 162.046 107.607C160.659 106.715 159.116 105.978 157.558 105.653C153.905 104.704 150.238 104.053 146.713 103.387C140.086 102.085 133.602 100.924 126.976 99.7628L126.848 99.4797L126.834 99.4513Z" fill="#102185"/>
<path d="M191.001 131.988C191.001 121.369 199.142 112.648 209.874 114.205C220.734 115.904 230.787 121.398 237.937 129.666C238.758 130.686 239.735 131.549 240.698 132.286C242.651 133.475 244.152 135.344 244.804 137.638C245.455 139.917 245.243 142.324 244.209 144.278C243.161 146.657 241.406 148.596 239.112 149.814C236.818 151.032 234.114 151.244 231.58 150.749C230.178 150.423 228.904 149.97 227.502 149.658C224.274 148.582 220.734 148.214 217.336 148.54C211.786 149.389 206.15 148.54 201.252 146.005C194.682 142.579 191.284 137.255 191.128 132.003H190.987L191.001 131.988ZM233.972 140.753C228.224 133.093 221.286 127.543 212.281 125.036C210.313 124.414 208.189 124.229 206.207 124.456C205.358 124.428 204.494 124.838 203.786 125.249C203.078 125.66 202.483 126.353 201.903 127.047C201.464 127.741 201.152 128.59 200.997 129.426C200.968 130.275 200.954 131.125 201.209 131.974C201.464 132.965 202.002 133.985 202.696 134.848C203.39 135.712 204.352 136.307 205.343 136.76C208.133 138.247 211.531 138.756 214.646 138.275C220.04 137.567 225.42 137.992 230.617 139.677C231.594 139.988 232.726 140.299 233.859 140.469L233.986 140.753H233.972Z" fill="#102185"/>
<path d="M73.9514 63.1059C73.9655 62.3979 74.1354 61.69 74.4327 61.1378C74.73 60.5856 75.169 60.0193 75.6079 59.4671C76.0468 59.0565 76.769 58.6459 77.3353 58.3769C77.9016 58.1079 78.6237 57.9804 79.3175 58.1503C80.7333 58.1928 81.9935 58.7875 82.9562 59.8069C83.919 60.8263 84.457 62.1148 84.4287 63.389C84.3862 64.8049 83.65 66.065 82.489 67.0278C81.4696 67.9906 80.0396 68.387 78.6379 68.3446C77.3636 68.3162 76.1035 67.5658 75.2823 66.5605C74.4611 65.5411 73.923 64.2527 73.9514 62.9926V63.1342V63.1059Z" fill="#102185"/>
<path d="M96.6901 71.0628C95.2742 71.0204 94.0141 70.4257 93.1929 69.4205C92.2301 68.4011 91.8336 67.1126 91.8761 65.7109C91.9044 64.4367 92.6549 63.1766 93.5186 62.3554C94.538 61.5342 95.6848 60.9961 96.9591 60.8828C97.667 60.897 98.2334 60.9111 98.9272 61.2226C99.4794 61.5199 100.046 61.8173 100.598 62.3978C101.008 62.8367 101.419 63.4173 101.688 64.1252C101.957 64.7057 102.085 65.4136 102.056 66.1215C102.014 67.5374 101.419 68.7975 100.414 69.6187C99.3944 70.5815 98.106 70.9779 96.7043 70.9355V71.077L96.6901 71.0628Z" fill="#102185"/>
<path d="M32.4518 68.4153C31.8288 70.525 31.0784 72.493 30.1723 74.4469C29.5776 75.4239 28.8413 76.4008 27.8361 76.9388C26.8308 77.4769 25.6981 77.7317 24.4238 77.5618C23.2911 77.5335 22.1726 77.0804 21.1957 76.3442C20.2187 75.6079 19.5391 74.7443 19.1426 73.5974C17.2737 69.2932 18.7321 61.9731 22.6115 59.8069C26.491 57.6406 30.0024 58.7167 31.305 63.1484C31.6873 64.8616 32.0696 66.7022 32.2961 68.557L32.4376 68.4153H32.4518Z" fill="#102185"/>
<path d="M35.5527 68.9111C35.6518 65.2298 36.7279 62.0017 40.579 60.6849C43.1559 59.7646 45.5487 60.246 46.8938 62.6954C49.2017 66.7165 49.7963 70.8366 47.5592 75.1833C47.1062 76.4434 46.0868 77.4062 44.9399 78.0858C43.7931 78.7654 42.5046 79.0202 41.1029 78.8362C39.8286 78.8078 38.5685 78.0575 37.6057 77.1938C36.643 76.3301 36.1049 75.0275 35.85 73.7533C35.6093 72.1958 35.4961 70.7658 35.5385 69.2083V68.9251L35.5527 68.9111Z" fill="#102185"/>
</svg>
