<svg xmlns="http://www.w3.org/2000/svg" width="362" height="341" fill="none" viewBox="0 0 362 341"><path fill="#102185" d="m87.6 309.891 16.409-.609c4.135-.042 8.184.765 12.063 1.827 1.813.453 2.86 2.831 2.761 5.521l-1.104 11.837-.283 3.101c-.411 4.375-2.889 6.555-7.306 6.711-5.126.099-10.237.042-15.25.283-5.422.213-10.703.425-15.984.651-3.144.142-6.4-.028-9.543.114-5.423.212-10.704.424-15.985.651-3.002.142-6.117 0-9.118.142-3.285.127-6.57.24-9.982.354-1.997.099-4.135.042-6.131.141-3.426.113-6.839.213-10.378.028-3.398-.169-5.38-1.784-6.046-5.252-.949-5.069-1.614-10.251-2.265-15.419-.51-3.738 4.8-8.793 9.472-8.651 5.253.057 10.392-.17 15.815-.382.623-2.082.538-4.219-.127-6.272-.227-.595-.312-1.162-.397-1.884.014-3.27.057-6.683.07-9.953.1-5.678.043-11.228.143-16.764.028-3.412.084-6.966.113-10.364.198-5.239.41-10.492.467-15.744.127-4.404-.014-8.963-.184-13.38l.1-1.133c.169-4.955.353-9.925.537-15.022.212-6.952.283-13.762.368-20.728.17-6.386.198-12.786.213-19.171-.029-4.262-.043-8.679-.213-12.955l.07-.708c.185-5.097.383-10.208.567-15.306.085-7.107.34-14.328.425-21.436.142-6.102.142-12.219.283-18.321.029-4.828.043-9.67-.056-14.654-3.95-.368-7.575-1.133-11.313-.623-.425-.043-.708-.07-1.147.042-6.088-.283-12.318-.58-18.406-.863l-1.133-.1c-1.274-.113-2.506-.523-3.426-1.458S.184 92.004.169 90.73a14 14 0 0 1-.113-3.426c1.317-14.102 2.62-28.19 3.795-42.306l.099-1.133c.042-3.554 2.747-5.012 6.017-5.125l3.809.354c1.996-1.657 3.823-2.917 5.536-4.46 1.246-1.161 2.209-2.35 3.327-3.667 7.08-8.864 14.669-17.118 22.796-24.905 1.571-1.558 3.115-2.988 4.686-4.545C50.9.738 51.948.27 53.094.087c1.147-.184 2.28-.071 3.243.297 4.375 1.827 9.175 2.28 13.62 3.398 4.999 1.317 9.87 2.478 14.881 3.653 4.177.963 8.495 1.926 12.672 2.888 5.154 1.19 10.435 2.535 15.575 3.724 4.743 1.005 9.486 2.025 14.229 3.03s9.458 2.294 14.06 3.299c2.223.495 4.446 1.118 6.669 1.614 5.578 1.232 11.128 2.605 16.707 3.823 4.601.991 9.217 1.855 13.804 2.987 4.588 1.133 9.317 2.294 14.046 3.44 4.729 1.148 9.203 1.997 13.805 2.988 4.601.991 9.316 2.294 14.045 3.44 2.223.496 4.46.978 6.683 1.473 6.4 1.445 12.969 2.776 19.369 4.22 2.916.693 5.819 1.685 8.891 2.25 1.133.1 2.082.624 3.016 1.275s1.558 1.572 2.053 2.464c5.239.198 10.492.41 15.731.609 8.764.523 17.656 1.217 26.448 1.6 2.973.127 5.72 1.245 7.957 3.157 15.957 13.422 31.928 26.717 47.885 40.14 1.189.962 2.067 2.18 2.803 3.525.368.609.58 1.331.51 2.18-.071.708-.128 1.416-.482 2.096-.354.679-.821 1.203-1.444 1.713s-1.203.736-1.94.963c-4.516 1.147-9.245 1.557-13.903 1.26-6.244-.156-12.502-.17-18.746-.326l-.425-.042c-5.239-.198-10.492-.411-15.731-.609-7.362-.396-14.852-.807-22.214-1.218-2.676-.255-5.267.085-7.972.114-.24 2.534-.17 4.814-.382 7.221-.354 6.937-.722 13.861-1.076 20.799-.142 4.53-.397 8.919-.538 13.464-.198 6.669-.382 13.338-.425 19.865-.085.849.269 1.727.765 2.492 2.152 2.902 4.29 5.805 6.442 8.707l15.277 20.757c1.77 2.435 3.398 4.729 5.31 7.178.878 1.218 1.189 2.535.92 3.922-.85 12.148-1.685 24.296-2.676 36.444-.17 1.827.368 3.738-.524 5.635-1.246 2.733-2.987 4.56-5.833 4.574-2.988 0-5.834.028-8.821.028-3.427.113-6.839.212-10.265.326-.708-.071-1.558-.142-2.266-.071l-12.53.255c-.708-.071-1.557-.142-2.265-.071-4.404.014-8.977.156-13.38.184-2.988 0-5.848.17-8.821.028-1.558-.141-3.073-.566-4.106-1.656-1.175-1.105-1.912-2.45-2.039-4.035-.255-1.869-.212-3.866-.184-5.706.269-5.947.552-12.035.68-17.996.07-5.394.141-10.647.07-16.056-.056-3.993 1.586-7.815 4.276-10.831 9.43-11.214 18.576-22.441 28.006-33.514 1.09-1.033 1.657-2.548 1.798-4.091.368-7.08.751-14.145 1.105-21.082.24-4.106.34-8.212.439-12.333.283-6.088.58-12.318.863-18.406a33.5 33.5 0 0 0-.368-5.154c-.849-.084-1.529-.424-2.364-.509-5.352-.496-10.704-1.133-16.07-1.487-6.797-.354-13.607-.41-20.276-.609l-.424-.042c-7.221-.382-14.287-.765-21.522-1.005-5.946-.269-12.063-.269-18.024-.397l-.708-.071c-7.079-.368-14.144-.75-21.096-.962-6.088-.284-12.205-.284-18.449-.439l-2.251-.213c-7.362-.396-14.569-.779-21.946-1.047-4.389-.27-8.637-.383-13.04-.496l-23.829-.651c-.028.283-.495.665-.368.963.043 4.134.1 8.112.142 12.247-.057.566.028 1.288.113 1.854-.1 7.25-.227 14.626-.326 21.861-.056 5.253.014 10.52.114 15.646l.254 20.218c.071 3.851-.141 7.66-.212 11.497.028 4.261.184 8.693.212 12.955 0 3.129-.028 6.4-.028 9.529-.1 4.12-.198 8.226-.142 12.218.071 6.839.17 13.522.255 20.219.071 3.851-.141 7.66-.212 11.497.028 4.262.184 8.693.212 12.955 0 3.129-.028 6.4-.028 9.529-.1 4.12-.198 8.226-.156 12.36.071 6.839.17 13.522.255 20.219.113 1.854-.311 3.383-.496 5.351l-.31.255zm.551-267.555c.58-.085 1.162-.184 1.855-.113 5.805.255 11.469.495 17.274.75l16.565.821 15.292.708 16.849.85c5.238.198 10.491.41 15.716.75 8.198.482 16.41.963 24.622 1.289 5.224.34 10.491.41 15.73.608.141 0 .453-.24.595-.226-2.223-.637-4.432-1.26-6.669-1.756-4.602-.99-9.203-1.996-13.805-2.987-4.587-1.133-9.161-2.421-13.762-3.412-4.871-1.161-9.77-2.04-14.499-3.059-7.235-1.67-14.342-3.327-21.577-4.998-2.365-.51-4.744-1.005-7.108-1.515-4.304-1.104-8.609-2.222-12.913-3.327-6.541-1.458-13.252-2.79-19.779-4.403-6.542-1.459-12.786-3.186-19.327-4.786-5.423-1.36-10.845-2.577-16.424-3.809l-2.818-.268L88.01 42.42l.156-.127zm191.808 203.53c3.837.071 7.376.113 11.086.028 1.274.113 1.656-.977 1.756-2.109.042-1.983-.185-4.135 0-6.117.608-6.485 1.217-13.111 1.685-19.61.24-2.534-.156-2.86-2.719-2.959-1.968-.184-4.134.043-6.117 0-6.937-.354-13.875-.58-20.671-.92l-.425-.043c-6.527-.184-13.068-.212-19.581-.396-.567-.057-1.147.042-1.855.113l-.368 3.95c-.099 2.549-.043 5.112-.142 7.66-.141 4.531-.283 9.218-.283 13.762-.071 2.266.297 4.432.354 6.853l12.658.043c-.736-2.775.467-5.069 1.26-7.419.595-1.799 1.6-3.413 3.002-4.701 1.401-1.289 3.044-2.138 4.799-2.676 7.476-2.435 13.89 1.996 14.825 8.778.283 1.586.41 3.313.764 5.48zm-172.438 74.559c-.425-.042-.977-.227-1.402-.269l-17.514.227c-2.138.084-4.262.028-6.556.099-5.564.198-11.143.524-16.835.566-5.55.057-11.242.099-16.792.142-2.562.042-5.125.099-7.688.141-3.426.113-6.853.354-10.28.467-3.425.114-6.838.071-10.377.029.722 2.916.297 6.003 1.784 8.41l84.966-2.336.679-7.334v-.142zM61.816 57.939c-.778 3.766-1.529 25.598-1.005 29.195l38.27 1.288C95.812 83.85 70.426 63.15 61.817 57.94M270.288 177.14c-1.444 1.713-2.548 2.888-3.525 4.219-5.451 6.598-11.03 13.054-16.467 19.652-.354.68-.552 1.374-.778 2.209l2.251.213c5.394.07 10.661-.001 16.042.212 6.527.184 13.026.637 19.553.821.991.085 1.996-.099 3.157-.269-6.824-9.161-13.267-17.868-20.091-27.043h-.142zM74.177 209.535l-5.777-.538c-3.285.127-6.584.382-9.854.51-2.86.155-5.848.169-8.736.608s-3.498.949-3.64 3.922c-.183 3.54-.084 7.108-.296 10.775-.142 4.531-.284 9.217-.425 13.748-.1 2.549.099 4.984.255 7.985 9.543-12.473 18.774-24.565 28.331-37.038h.142zM147.56 89.951c-10.69-10.378-21.28-20.459-32.621-29.903-.057.567-.227.977-.284 1.544-.453 7.914-1.047 15.829-1.359 23.758.184 1.16.354 2.308.807 3.483l33.599 1.133h-.142zM46.525 185.635c9.5-11.921 18.449-24.027 27.58-36.685-9.103 0-17.64.071-26.178.128-.284-.029-.61.368-.906.623-.114 11.935-.383 23.998-.496 35.934M13.762 56.325c-1.331 6.697-2.761 26.618-2.45 29.35l33.188.95-30.752-30.159v-.141zm203.134 2.095c10.874 9.968 22.003 18.817 33.075 28.105 1.26-7.42 2.605-23.503 2.166-26.392-11.426-.92-23.064-1.288-35.241-1.713m77.108 36.317c-5.055-5.31-10.336-9.628-15.334-14.074-4.983-4.445-10.279-8.778-15.673-13.408l-2.407 25.939c.424.042.538.34.821.354 7.504.41 14.994.82 22.654 1.104 3.1.283 6.4.028 10.095-.057l-.156.128zm-216.953 68.57L50.66 199.383l26.392-.963c.043-11.227-.028-22.611 0-35.127zM310.57 69.549c-.581 9.33-2.067 17.585-1.445 26.18 3.951.367 8.043.608 12.049.41 5.692-.043 11.483.354 17.288.609.708.07 1.416.127 1.997-.1.736-.212 1.317-.453 1.784-.835L310.57 69.407zM77.264 277.227c-2.436 1.77-22.102 26.675-26.11 33.117 7.915.453 15.689-.538 23.348-.241.992.085 2.011-.24 2.889-.439-.057-5.55-.41-10.845-.213-16.084.199-5.238-.141-10.675.241-16.325h-.141zm85.164-212.492c.113 1.855.283 3.016.311 4.29-.283 6.088-.566 12.176-.863 18.406-.085.991-.185 1.968-.156 3.257 2.846-.014 5.267-.085 7.815.014 7.094.226 14.017.594 21.097.963l1.133.099c.453-.241.891-.34 1.345-.722-2.535-3.37-22.81-20.743-30.838-26.194l.156-.127zM44.769 299.37l.68.354 25.542-33.032-25.67.736c-.17 10.931-.424 21.436-.566 32.084v-.142zm32.353-43.481c-.27-10.831.269-21.309-.255-32.437l-24.778 32.536c2.761.963 5.21.482 7.788.297 5.578-.339 11.256-.24 17.245-.382zM73.313 97.838 47.8 97.03l-.368 3.95c-.113 1.274.156 2.86.184 4.134-.156 4.673-.311 9.501-.467 14.173 0 2.987.156 5.989.127 9.401l26.052-30.993v.142zM200.33 82.193l.383-4.092c.255-5.805.495-11.469.75-17.274.085-.991.043-1.982 0-3.129l-3.667-.34-25.74-1.543c-.85-.085-1.558-.142-2.988 0l31.107 26.35h.141zM21.138 48.763l28.558 27.822.284-3.101c.354-6.938.722-13.861 1.062-20.657.085-.85.014-1.7-.029-2.705L20.997 48.75h.142zm82.036 27.666.24-2.535c.354-6.796.694-13.592 1.034-20.232.028-.283-.212-.736-.453-1.175-2.28.07-4.573.283-6.839.07-7.504-.41-14.994-.82-22.64-1.245-.99-.085-1.967-.184-2.973-.128l31.503 25.26h.142zm138.089 16.679-29.804-25.09c.793 8.326-1.486 16.07-.113 24.17l29.917.934zM76.4 110.637l-23.036 27.581c.566.057 1.118.241 1.684.156 6.584-.524 13.253-.326 19.88.283.707.071 1.415.127 2.406.085.014-9.387-.127-18.491-.127-27.737 0 0-.397-.325-.666-.481l-.155.127zm75.805-55.247-3.808-.354-20.658-1.062c-.991-.085-1.982-.042-3.412-.028l27.17 24.424c.298-7.788.538-15.023.836-22.81l-.128-.156zm120.32 5.791 26.052 22.611 1.784-19.17c.043-.425.085-.992 0-1.416-5.309-1.062-24.508-2.563-27.821-2.01zM73.426 41.53 55.87 20.843c-.949 4.035-2.167 17.146-1.714 20.035 6.174-.567 12.276 1.005 19.285.65zm-30.398-1.827 1.727-18.604c-5.663 5.876-10.916 11.922-15.8 18.576 4.827.029 9.259 1.289 14.059.17v-.142z"/><path fill="#102185" d="M178.682 234.043c1.275.114 2.478.935 3.37 2.025s1.359 2.265 1.359 3.681c-.524 5.635.949 11.185 3.922 15.999 1.105 1.813 2.662 3.512 3.922 5.197.892 1.076 1.501 2.265 2.223 3.624.963 1.94.085 3.71-1.331 5.14-.637.793-1.685 1.26-2.69 1.458s-1.982-.042-2.931-.552c-2.577-1.373-4.785-3.568-6.258-6.131-4.545-6.258-7.122-13.606-7.83-21.351-.255-3.44 1.614-8.24 4.659-8.806.566.056 1.019-.185 1.444-.298h.141zM204.45 236.72c-.269 5.947 1.586 11.95 5.409 16.707.779.779 1.246 1.827 1.586 2.846.339 1.019.368 2.166.269 3.157-.085.85-.298 1.685-.793 2.351s-1.119 1.316-1.869 1.67-1.614.567-2.464.482-1.685-.298-2.35-.793c-.807-.496-1.473-.991-1.968-1.742-4.956-6.286-7.943-13.96-8.764-22.002-.468-2.605-.099-5.126 1.118-7.433 1.36-2.436 4.22-4.021 6.145-3.413 1.246.397 2.294 1.346 3.03 2.563s.906 2.506.779 3.908l-.184 1.968.028-.283z"/></svg>