<svg width="362" height="341" viewBox="0 0 362 341" fill="none" xmlns="http://www.w3.org/2000/svg">
<path d="M87.5992 309.891L104.009 309.282C108.144 309.24 112.193 310.047 116.072 311.109C117.885 311.562 118.932 313.94 118.833 316.63C118.465 320.581 118.097 324.531 117.729 328.467L117.446 331.568C117.035 335.943 114.557 338.123 110.14 338.279C105.014 338.378 99.9031 338.321 94.8909 338.562C89.4682 338.775 84.1869 338.987 78.9058 339.213C75.7625 339.355 72.5061 339.185 69.3628 339.327C63.9401 339.539 58.659 339.751 53.3778 339.978C50.3762 340.12 47.2612 339.978 44.2596 340.12C40.9747 340.247 37.69 340.36 34.2778 340.474C32.2814 340.573 30.1434 340.516 28.147 340.615C24.7206 340.728 21.3084 340.828 17.7688 340.643C14.3707 340.474 12.3884 338.859 11.723 335.391C10.7744 330.322 10.1089 325.14 9.45764 319.972C8.94793 316.234 14.2573 311.179 18.9297 311.321C24.1826 311.378 29.3222 311.151 34.745 310.939C35.368 308.857 35.2831 306.72 34.6176 304.667C34.3911 304.072 34.3061 303.505 34.2211 302.783C34.2353 299.513 34.2776 296.1 34.2918 292.83C34.3909 287.152 34.3344 281.602 34.4335 276.066C34.4618 272.654 34.5184 269.1 34.5467 265.702C34.745 260.463 34.9573 255.21 35.0139 249.958C35.1413 245.554 34.9997 240.995 34.8298 236.578L34.9291 235.445C35.099 230.49 35.283 225.52 35.4671 220.423C35.6795 213.471 35.7503 206.661 35.8352 199.695C36.0051 193.309 36.0335 186.909 36.0476 180.524C36.0193 176.262 36.0051 171.845 35.8352 167.569L35.9059 166.861C36.09 161.764 36.2882 156.653 36.4723 151.555C36.5572 144.448 36.8122 137.227 36.8971 130.119C37.0387 124.017 37.0386 117.9 37.1802 111.798C37.2085 106.97 37.2226 102.128 37.1235 97.1439C33.1733 96.7758 29.5487 96.0112 25.8108 96.521C25.386 96.4785 25.1029 96.4501 24.664 96.5634C18.5758 96.2802 12.346 95.9829 6.25777 95.6997L5.12501 95.6006C3.85073 95.4874 2.61903 95.0768 1.69872 94.1423C0.778408 93.2079 0.183634 92.0043 0.169475 90.73C-0.0145874 89.569 -0.0428425 88.4364 0.0562681 87.3037C1.37302 73.2017 2.67552 59.1139 3.85069 44.9978L3.9499 43.8651C3.99237 40.3113 6.69668 38.853 9.96733 38.7397L13.7759 39.0937C15.7723 37.4371 17.5988 36.177 19.312 34.6337C20.558 33.4727 21.5207 32.2834 22.6393 30.9667C29.7186 22.1034 37.3076 13.8489 45.4347 6.06166C47.0063 4.50421 48.5497 3.07416 50.1213 1.51672C50.9 0.737997 51.9477 0.270835 53.0945 0.0867737C54.2414 -0.0972881 55.3741 0.0159254 56.3369 0.384049C60.712 2.21051 65.5117 2.66362 69.9576 3.78215C74.9556 5.0989 79.8262 6.25993 84.8383 7.43509C89.0151 8.39787 93.3334 9.36063 97.5102 10.3234C102.664 11.5127 107.945 12.8578 113.085 14.0471C117.828 15.0524 122.571 16.0718 127.314 17.0771C132.057 18.0823 136.772 19.3707 141.374 20.376C143.597 20.8715 145.82 21.4945 148.043 21.9901C153.621 23.2219 159.171 24.5953 164.75 25.8129C169.351 26.804 173.967 27.6677 178.554 28.8004C183.142 29.9331 187.871 31.094 192.6 32.2409C197.329 33.3877 201.803 34.2372 206.405 35.2283C211.006 36.2194 215.721 37.5221 220.45 38.6689C222.673 39.1645 224.91 39.6459 227.133 40.1414C233.533 41.5856 240.102 42.9165 246.502 44.3606C249.418 45.0544 252.321 46.0456 255.393 46.6119C256.526 46.711 257.475 47.2348 258.409 47.8861C259.344 48.5374 259.967 49.4578 260.462 50.3498C265.701 50.548 270.954 50.7604 276.193 50.9586C284.957 51.4825 293.849 52.1762 302.641 52.5585C305.614 52.686 308.361 53.8045 310.598 55.7159C326.555 69.1382 342.526 82.4331 358.483 95.8555C359.672 96.8182 360.55 98.0359 361.286 99.3809C361.654 99.9898 361.866 100.712 361.796 101.561C361.725 102.269 361.668 102.977 361.314 103.657C360.96 104.336 360.493 104.86 359.87 105.37C359.247 105.88 358.667 106.106 357.93 106.333C353.414 107.48 348.685 107.89 344.027 107.593C337.783 107.437 331.525 107.423 325.281 107.267L324.856 107.225C319.617 107.027 314.364 106.814 309.125 106.616C301.763 106.22 294.273 105.809 286.911 105.398C284.235 105.143 281.644 105.483 278.939 105.512C278.699 108.046 278.769 110.326 278.557 112.733C278.203 119.67 277.835 126.594 277.481 133.532C277.339 138.062 277.084 142.451 276.943 146.996C276.745 153.665 276.561 160.334 276.518 166.861C276.433 167.71 276.787 168.588 277.283 169.353C279.435 172.255 281.573 175.158 283.725 178.06C288.78 184.927 293.948 191.95 299.002 198.817C300.772 201.252 302.4 203.546 304.312 205.995C305.19 207.213 305.501 208.53 305.232 209.917C304.382 222.065 303.547 234.213 302.556 246.361C302.386 248.188 302.924 250.099 302.032 251.996C300.786 254.729 299.045 256.556 296.199 256.57C293.211 256.57 290.365 256.598 287.378 256.598C283.951 256.711 280.539 256.81 277.113 256.924C276.405 256.853 275.555 256.782 274.847 256.853L262.317 257.108C261.609 257.037 260.76 256.966 260.052 257.037C255.648 257.051 251.075 257.193 246.672 257.221C243.684 257.221 240.824 257.391 237.851 257.249C236.293 257.108 234.778 256.683 233.745 255.593C232.57 254.488 231.833 253.143 231.706 251.558C231.451 249.689 231.494 247.692 231.522 245.852C231.791 239.905 232.074 233.817 232.202 227.856C232.272 222.462 232.343 217.209 232.272 211.8C232.216 207.807 233.858 203.985 236.548 200.969C245.978 189.755 255.124 178.528 264.554 167.455C265.644 166.422 266.211 164.907 266.352 163.364C266.72 156.284 267.103 149.219 267.457 142.282C267.697 138.176 267.797 134.07 267.896 129.949C268.179 123.861 268.476 117.631 268.759 111.543C268.773 109.844 268.646 108.117 268.391 106.389C267.542 106.305 266.862 105.965 266.027 105.88C260.675 105.384 255.323 104.747 249.957 104.393C243.16 104.039 236.35 103.983 229.681 103.784L229.257 103.742C222.036 103.36 214.97 102.977 207.735 102.737C201.789 102.468 195.672 102.468 189.711 102.34L189.003 102.269C181.924 101.901 174.859 101.519 167.907 101.307C161.819 101.023 155.702 101.023 149.458 100.868L147.207 100.655C139.845 100.259 132.638 99.8765 125.261 99.6075C120.872 99.3385 116.624 99.2253 112.221 99.112L88.3922 98.4607C88.3638 98.7439 87.8966 99.1261 88.024 99.4235C88.0665 103.558 88.1231 107.536 88.1656 111.671C88.1089 112.237 88.1938 112.959 88.2788 113.525C88.1797 120.775 88.0523 128.151 87.9532 135.386C87.8965 140.639 87.9674 145.906 88.0665 151.032C88.1515 157.729 88.2363 164.553 88.3213 171.25C88.3921 175.101 88.1797 178.91 88.1089 182.747C88.1372 187.008 88.293 191.44 88.3213 195.702C88.3213 198.831 88.2929 202.102 88.2929 205.231C88.1938 209.351 88.0948 213.457 88.1514 217.449C88.2222 224.288 88.3214 230.971 88.4063 237.668C88.4771 241.519 88.2647 245.328 88.1939 249.165C88.2222 253.427 88.378 257.858 88.4063 262.12C88.4063 265.249 88.378 268.52 88.378 271.649C88.2789 275.769 88.1798 279.875 88.2223 284.009C88.2931 290.848 88.3921 297.531 88.477 304.228C88.5903 306.082 88.1656 307.611 87.9815 309.579L87.6701 309.834L87.5992 309.891ZM88.1514 42.336C88.7319 42.251 89.3125 42.1519 90.0063 42.2227C95.8113 42.4775 101.475 42.7183 107.28 42.9731L123.845 43.7944L139.137 44.5023L155.986 45.3518C161.224 45.55 166.477 45.7624 171.702 46.1022C179.9 46.5836 188.112 47.065 196.324 47.3906C201.548 47.7304 206.815 47.8012 212.054 47.9994C212.195 47.9994 212.507 47.7588 212.649 47.7729C210.426 47.1358 208.217 46.5128 205.98 46.0173C201.378 45.0262 196.777 44.0208 192.175 43.0297C187.588 41.897 183.014 40.6087 178.413 39.6176C173.542 38.4566 168.643 37.5787 163.914 36.5592C156.679 34.8885 149.572 33.232 142.337 31.5613C139.972 31.0516 137.593 30.556 135.229 30.0463C130.925 28.942 126.62 27.8235 122.316 26.7191C115.775 25.2608 109.064 23.9298 102.537 22.3157C95.9953 20.8574 89.7513 19.13 83.21 17.5301C77.7873 16.1709 72.3645 14.9532 66.786 13.7214L63.9685 13.4525L88.0098 42.4209L88.1656 42.2935L88.1514 42.336ZM279.959 245.866C283.796 245.937 287.335 245.979 291.045 245.894C292.319 246.007 292.701 244.917 292.801 243.785C292.843 241.802 292.616 239.65 292.801 237.668C293.409 231.183 294.018 224.557 294.486 218.058C294.726 215.524 294.33 215.198 291.767 215.099C289.799 214.915 287.633 215.142 285.65 215.099C278.713 214.745 271.775 214.519 264.979 214.179L264.554 214.136C258.027 213.952 251.486 213.924 244.973 213.74C244.406 213.683 243.826 213.782 243.118 213.853L242.75 217.803C242.651 220.352 242.707 222.915 242.608 225.463C242.467 229.994 242.325 234.681 242.325 239.225C242.254 241.491 242.622 243.657 242.679 246.078L255.337 246.121C254.601 243.346 255.804 241.052 256.597 238.702C257.192 236.903 258.197 235.289 259.599 234.001C261 232.712 262.643 231.863 264.398 231.325C271.874 228.89 278.288 233.321 279.223 240.103C279.506 241.689 279.633 243.416 279.987 245.583L279.959 245.866ZM107.521 320.425C107.096 320.383 106.544 320.198 106.119 320.156L88.6046 320.383C86.4666 320.467 84.3428 320.411 82.0491 320.482C76.4847 320.68 70.9062 321.006 65.2144 321.048C59.6642 321.105 53.9725 321.147 48.4223 321.19C45.8596 321.232 43.2968 321.289 40.7341 321.331C37.3077 321.444 33.8813 321.685 30.4549 321.798C27.0285 321.912 23.6163 321.869 20.0766 321.827C20.7987 324.743 20.374 327.83 21.8606 330.237L106.827 327.901L107.506 320.567V320.425H107.521ZM61.8163 57.9388C61.0376 61.705 60.2873 83.5375 60.8111 87.1338L99.0818 88.4222C95.8112 83.849 70.4248 63.1491 61.8163 57.9388ZM270.288 177.14C268.844 178.853 267.74 180.028 266.763 181.359C261.312 187.957 255.733 194.413 250.296 201.011C249.942 201.691 249.744 202.385 249.518 203.22L251.769 203.433C257.163 203.503 262.43 203.432 267.811 203.645C274.338 203.829 280.837 204.282 287.364 204.466C288.355 204.551 289.36 204.367 290.521 204.197C283.697 195.036 277.254 186.329 270.43 177.154H270.288V177.14ZM74.1768 209.535L68.4001 208.997C65.1153 209.124 61.8162 209.379 58.5456 209.507C55.6855 209.662 52.6982 209.676 49.8098 210.115C46.9214 210.554 46.3125 211.064 46.1709 214.037C45.9869 217.577 46.086 221.145 45.8737 224.812C45.7321 229.343 45.5904 234.029 45.4488 238.56C45.3497 241.109 45.548 243.544 45.7038 246.545C55.2467 234.072 64.4782 221.98 74.0353 209.507H74.1768V209.535ZM147.561 89.9513C136.871 79.5731 126.281 69.4922 114.94 60.0484C114.883 60.6147 114.713 61.0254 114.656 61.5917C114.203 69.5064 113.609 77.421 113.297 85.3498C113.481 86.5108 113.651 87.6577 114.104 88.8328L147.703 89.9655H147.561V89.9513ZM46.5249 185.635C56.0254 173.714 64.9736 161.608 74.1059 148.95C65.0019 148.95 56.4643 149.021 47.9266 149.078C47.6434 149.049 47.3179 149.446 47.0206 149.701C46.9073 161.636 46.6382 173.699 46.5249 185.635ZM13.7618 56.3247C12.4308 63.0217 11.0008 82.9428 11.3123 85.6754L44.5003 86.6241L13.7478 56.4662V56.3247H13.7618ZM216.896 58.4201C227.77 68.3878 238.899 77.237 249.971 86.525C251.231 79.1059 252.576 63.0217 252.137 60.1333C240.711 59.213 229.073 58.8449 216.896 58.4201ZM294.004 94.737C288.949 89.4275 283.668 85.1091 278.67 80.6633C273.687 76.2175 268.391 71.885 262.997 67.2552L260.59 93.1936C261.014 93.2361 261.128 93.5334 261.411 93.5476C268.915 93.9582 276.405 94.3688 284.065 94.652C287.165 94.9352 290.465 94.6804 294.16 94.5954L294.004 94.7228V94.737ZM77.0511 163.307L50.6593 199.383L77.0511 198.42C77.0935 187.193 77.0227 175.809 77.0511 163.293V163.307ZM310.57 69.5488C309.989 78.8794 308.503 87.1338 309.125 95.7281C313.076 96.0962 317.168 96.3369 321.174 96.1386C326.866 96.0962 332.657 96.4926 338.462 96.7475C339.17 96.8183 339.878 96.8749 340.459 96.6483C341.195 96.436 341.776 96.1953 342.243 95.813L310.57 69.4072V69.5488ZM77.2635 277.227C74.8282 278.997 55.1617 303.902 51.1548 310.344C59.0695 310.797 66.8426 309.806 74.5024 310.103C75.4935 310.188 76.513 309.863 77.3909 309.664C77.3342 304.114 76.9802 298.819 77.1784 293.58C77.3767 288.342 77.0369 282.905 77.4192 277.255H77.2776L77.2635 277.227ZM162.428 64.7349C162.541 66.5897 162.711 67.7507 162.739 69.025C162.456 75.1132 162.173 81.2014 161.876 87.4312C161.791 88.4223 161.691 89.3992 161.72 90.6876C164.566 90.6735 166.987 90.6027 169.535 90.7018C176.629 90.9283 183.552 91.2964 190.632 91.6646L191.765 91.7637C192.218 91.523 192.656 91.4239 193.11 91.0416C190.575 87.6718 170.3 70.2992 162.272 64.8482L162.428 64.7207V64.7349ZM44.7692 299.371L45.4488 299.725L70.9911 266.693L45.3215 267.429C45.1516 278.36 44.8967 288.865 44.7551 299.513V299.371H44.7692ZM77.1217 255.89C76.8527 245.059 77.3909 234.581 76.867 223.453L52.0893 255.989C54.8503 256.952 57.2997 256.471 59.8766 256.286C65.4551 255.947 71.1326 256.046 77.1217 255.904V255.89ZM73.3131 97.8377L47.7992 97.0306L47.4311 100.981C47.3178 102.255 47.5868 103.841 47.6152 105.115C47.4594 109.788 47.3037 114.616 47.148 119.288C47.148 122.275 47.3037 125.277 47.2754 128.689L73.3273 97.6961V97.8377H73.3131ZM200.33 82.1925L200.713 78.1006C200.968 72.2956 201.208 66.6321 201.463 60.8271C201.548 59.836 201.506 58.845 201.463 57.6981L197.796 57.3582L172.056 55.815C171.206 55.73 170.498 55.6734 169.068 55.815L200.175 82.1641H200.316L200.33 82.1925ZM21.1385 48.764L49.6964 76.5856L49.9797 73.4849C50.3337 66.5472 50.7018 59.6237 51.0416 52.8275C51.1266 51.978 51.0557 51.1285 51.0133 50.1232L20.997 48.7499H21.1385V48.764ZM103.174 76.4299L103.414 73.8955C103.768 67.0993 104.108 60.3032 104.448 53.6629C104.476 53.3797 104.236 52.9266 103.995 52.4877C101.715 52.5585 99.4217 52.7709 97.1563 52.5585C89.6522 52.1479 82.1623 51.7373 74.5166 51.3126C73.5255 51.2276 72.5486 51.1285 71.5433 51.1851L103.046 76.4441H103.188L103.174 76.4299ZM241.263 93.1087L211.459 68.0197C212.252 76.3449 209.973 84.0897 211.346 92.1884L241.263 93.1229V93.1087ZM76.3998 110.637L53.3637 138.218C53.93 138.275 54.4821 138.459 55.0484 138.374C61.6322 137.85 68.301 138.048 74.9273 138.657C75.6352 138.728 76.3431 138.784 77.3342 138.742C77.3483 129.355 77.2068 120.251 77.2068 111.005C77.2068 111.005 76.8104 110.68 76.5414 110.524L76.3856 110.651L76.3998 110.637ZM152.205 55.3903L148.397 55.0363L127.739 53.9744C126.748 53.8894 125.757 53.9319 124.327 53.946L151.497 78.3696C151.795 70.5824 152.035 63.3474 152.333 55.5601L152.205 55.4043V55.3903ZM272.525 61.1811L298.577 83.7924L300.361 64.6216C300.404 64.1968 300.446 63.6305 300.361 63.2057C295.052 62.1438 275.853 60.6431 272.54 61.1952L272.525 61.1811ZM73.4264 41.5289L55.8698 20.8432C54.9211 24.8784 53.7034 37.9893 54.1564 40.8777C60.3296 40.3113 66.432 41.8829 73.4405 41.5289H73.4264ZM43.0278 39.7025L44.7551 21.0981C39.0916 26.9739 33.8389 33.0196 28.9541 39.6742C33.7822 39.7025 38.2138 40.9626 43.0136 39.8441V39.7025H43.0278Z" fill="#102185"/>
<path d="M178.682 234.043C179.957 234.157 181.16 234.978 182.052 236.068C182.944 237.158 183.411 238.333 183.411 239.749C182.887 245.384 184.36 250.934 187.333 255.748C188.438 257.561 189.995 259.26 191.255 260.945C192.147 262.021 192.756 263.21 193.478 264.569C194.441 266.509 193.563 268.279 192.147 269.709C191.51 270.502 190.462 270.969 189.457 271.167C188.452 271.365 187.475 271.125 186.526 270.615C183.949 269.242 181.741 267.047 180.268 264.484C175.723 258.226 173.146 250.878 172.438 243.133C172.183 239.693 174.052 234.893 177.097 234.327C177.663 234.383 178.116 234.142 178.541 234.029H178.682V234.043Z" fill="#102185"/>
<path d="M204.45 236.72C204.181 242.667 206.036 248.67 209.859 253.427C210.638 254.206 211.105 255.254 211.445 256.273C211.784 257.292 211.813 258.439 211.714 259.43C211.629 260.28 211.416 261.115 210.921 261.781C210.425 262.446 209.802 263.097 209.052 263.451C208.302 263.805 207.438 264.018 206.588 263.933C205.739 263.848 204.903 263.635 204.238 263.14C203.431 262.644 202.765 262.149 202.27 261.398C197.314 255.112 194.327 247.438 193.506 239.396C193.038 236.791 193.407 234.27 194.624 231.963C195.984 229.527 198.844 227.942 200.769 228.55C202.015 228.947 203.063 229.896 203.799 231.113C204.535 232.331 204.705 233.619 204.578 235.021L204.394 236.989L204.422 236.706L204.45 236.72Z" fill="#102185"/>
</svg>
