<svg xmlns="http://www.w3.org/2000/svg" xml:space="preserve" width="102" height="90" style="fill-rule:evenodd;clip-rule:evenodd;stroke-linejoin:round;stroke-miterlimit:2" viewBox="0 0 102 90"><path d="M0 0h123v128H0z" style="fill:none" transform="scale(.82603 .69725)"/><path d="M31.972 72.784c-1.1-.325-2.338-.417-3.282-1.028-1.495-.97-2.731-.855-4.351-.248-2.998 1.14-5.989-.112-7.764-2.785a3.1 3.1 0 0 0-1.037-1.033 4.115 4.115 0 0 1-2.33-4.13c.202-3.672 2.121-6.195 5.434-7.663 1.539-.677 3.05-.338 4.498.365.445.219.857.519 1.364.83 1.719-.852 3.579-1.326 5.536-.805 1.957.522 3.313 1.906 4.159 3.698 1.377.156 2.714.229 4.013.488a5.56 5.56 0 0 1 4.385 3.899 2.06 2.06 0 0 0 1.227 1.415c2.088.924 2.931 3.102 2.156 5.264-.22.626-.52 1.228-.794 1.877a20.1 20.1 0 0 1 6.347 5.203c4.009 4.786 4.668 10.166 3.092 15.942a16.94 16.94 0 0 1-19.27 12.246c-8.296-1.411-14.441-9.23-13.898-17.958.43-6.86 3.721-12.006 9.886-15.159.152-.076.304-.148.45-.232a.7.7 0 0 0 .179-.186m10.645 5.152c-1.075.46-2.088.987-3.153 1.341-3.125 1.036-6.273 1.961-9.643 1.389-.468-.083-.925-.191-1.365-.221a1.414 1.414 0 0 0-1.632.883c-.585 1.382-1.339 2.723-1.757 4.15-1.904 6.87 1.701 14.986 9.376 17.341 8.015 2.453 16.733-3.145 17.77-12.338a.99.99 0 0 0-.586-1.123 11 11 0 0 1-1.85-1.071c-3.402-2.658-6.045-5.895-7.16-10.351m-.412-6.331c.257-.525.528-.999.721-1.501.331-.865.161-1.39-.688-1.558-1.575-.32-2.205-1.327-2.481-2.777a2.64 2.64 0 0 0-.712-1.461 2.64 2.64 0 0 0-1.434-.765 9.4 9.4 0 0 0-2.865-.207c-1.722.196-2.762-.426-3.456-2.017-.868-1.978-2.444-2.544-4.464-1.765q-.64.263-1.236.613c-1.487.829-2.137.735-3.269-.594a2.2 2.2 0 0 0-2.365-.771c-1.899.483-3.671 2.862-3.594 4.841.015.404.303 1.079.574 1.138 1.293.286 1.786 1.26 2.35 2.268a3.055 3.055 0 0 0 3.625 1.606 6.8 6.8 0 0 0 1.958-.811c1.686-1.011 2.14-1.025 3.684.258a5.28 5.28 0 0 0 5.065 1.104c.57-.156 1.139-.313 1.684-.519a2.5 2.5 0 0 1 3.119.878 5.02 5.02 0 0 0 3.784 2.04m3.703 5.366c-.37 2.394 3.5 7.639 5.91 8.61-.495-3.082-3.033-7.447-5.91-8.61m-15.553.486c2.808.555 8.835-.907 10.835-2.529-3.94-.673-7.448.15-10.835 2.529M49.161 22.692c.669-.144 1.232-.273 1.795-.392a13.9 13.9 0 0 1 5.868-.03c3.299.713 4.459 3.262 2.855 6.239a1.2 1.2 0 0 0-.058.328c.39.266.785.523 1.189.815 4.34 3.151 6.525 7.457 6.748 12.773a2.56 2.56 0 0 0 .789 1.998c.397.432.707.936.915 1.485.461.99.866 2.006 1.288 3.015q.128.281.191.584a1.56 1.56 0 0 1-.831 1.796 1.54 1.54 0 0 1-1.888-.579q-.32-.469-.56-.981l-.577-1.155q-.156.291-.257.605c-.185 1.174-.471 2.23-1.566 3.009-.643.462-.962 1.358-1.503 1.994-4.51 5.268-10.132 7.64-17.051 6.244-6.489-1.304-11.38-6.872-12.155-13.653a17.27 17.27 0 0 1 2.48-11.223 1.42 1.42 0 0 0 .196-1.034c-.801-2.432.056-4.443 1.526-6.31a11.65 11.65 0 0 1 5.763-3.892c.834-.271 1.361-.601 1.393-1.614a4 4 0 0 1 .722-1.706 1.685 1.685 0 0 1 2.052-.806c.686.291.971.914.808 1.892-.046.156-.071.311-.132.598M37.438 45.503a11.6 11.6 0 0 0 1.567 5.729c2.672 4.652 6.794 6.846 12.073 6.411 5.554-.465 9.518-3.47 11.889-8.511a3.13 3.13 0 0 0-.001-2.516c-.339.505-.615.871-.843 1.268-.444.763-.834 1.553-1.293 2.304-.553.903-1.45 1.273-2.236.98s-1.151-1.071-1.049-2.084c.044-.484.153-.992.253-1.784-.544.619-.918 1.05-1.299 1.462-.7.774-1.535.929-2.225.42a1.52 1.52 0 0 1-.56-1.694c.063-.203.168-.39.308-.55a34 34 0 0 1 3.587-3.838 3.34 3.34 0 0 1 2.192-.732c.587.028 1.148.663 1.661.995l2.882-.962a12.34 12.34 0 0 0-7.977-11.522 1.72 1.72 0 0 0-1.078-.069c-2.922 1.046-5.831 2.143-8.624 3.178a21.4 21.4 0 0 1-3.619 6.561 18.2 18.2 0 0 1-5.617 4.95zm2.496-12.902q.598-.077 1.181-.234a5002 5002 0 0 0 15.074-5.32q.351-.137.654-.357c.503-.356.515-.788-.015-1.068a2.7 2.7 0 0 0-1.189-.363c-1.374.002-2.811-.144-4.103.184a63 63 0 0 0-7.298 2.352 9.7 9.7 0 0 0-2.762 1.913 4.67 4.67 0 0 0-1.542 2.893m2.591 2.838c-1.638.126-2.257.282-2.562.847-.844 1.564-1.81 3.086-2.099 5.147 1.975-1.79 3.619-3.558 4.661-5.994M91.652 71.345c1.283-.654 2.29-1.228 3.346-1.736a24 24 0 0 1 2.551-1.083 2.01 2.01 0 0 1 2.215.435 1.95 1.95 0 0 1 .41 2.332c-.644 1.357-1.396 2.668-2.109 3.996-.15.283-.315.565-.548.985.941-.014 1.731-.062 2.522-.018.922.014 1.84.107 2.745.277 1.748.398 2.225 2.064.957 3.347a15 15 0 0 1-2.272 1.8c-1.348.938-2.734 1.79-4.118 2.693a18.2 18.2 0 0 1-.627 6.409c-2.427 8.463-11.063 13.865-19.667 11.735-6.942-1.722-13.133-9.158-11.582-18.486.833-5.044 3.462-8.936 7.73-11.721a2.25 2.25 0 0 0 .991-1.461c.656-2.298 1.431-4.565 2.207-6.827a2.08 2.08 0 0 1 1.799-1.562c.991-.083 1.67.486 2.142 1.284.901 1.519 1.762 3.061 2.639 4.589.101.178.219.339.429.685l3.791-3.928q.532-.621 1.143-1.166a1.818 1.818 0 0 1 3.006.931c.132.521.198 1.056.196 1.592.047 1.564.076 3.111.104 4.898m1.545 20.201c.292-1.093.657-2.171.881-3.268a13.2 13.2 0 0 0-1.53-9.144 12.1 12.1 0 0 0-3.533-3.891 14.3 14.3 0 0 0-3.269-1.605 10.1 10.1 0 0 0-2.874-.554c-1.371-.077-2.451-.032-2.536-.032-2.068.13-14.235 8.669-11.306 17.847 1.468 4.61 4.574 7.62 9.304 8.638 6.239 1.314 12.165-1.991 14.863-7.991M80.211 69.82l-1.666-2.718-.983 3.211zm15.62 3.094-.114-.134-2.992 1.59 1.313 1.472c.638-1.043 1.213-1.986 1.793-2.928m-7.428-4.469-1.943 1.974 2.018.855zm8.301 12.54c.756-.48 1.395-.919 2.067-1.318l-.094-.241-2.537.052zM101.197 34.106c-1.205-1.335-1.292-2.77-.846-4.322a2.947 2.947 0 0 1 2.343-2.207c1.222-.272 2.345-.133 3.194.915a4.96 4.96 0 0 1 1.246 3.722c-.027.24-.023.493-.035.891.577-.093 1.068-.147 1.528-.248.285-.056.551-.209.841-.263a1.57 1.57 0 0 1 1.782.85 1.39 1.39 0 0 1-.588 1.864c-.706.362-1.448.649-2.214.858a2.15 2.15 0 0 1-1.008.076c-2.219-.391-4.198.34-6.126 1.294a13.48 13.48 0 0 1 1.892 10.685c-1.533 6.78-8.779 11.121-15.524 9.411-7.007-1.781-12.316-9.602-9.116-17.895 2.368-6.124 8.482-8.982 14.376-7.814 1.617.298 3.155.928 4.518 1.848 1.138.759 2.395.486 3.737.335m-6.828 1.585a9.5 9.5 0 0 0-7.297-.275 9.5 9.5 0 0 0-5.336 4.985 10.22 10.22 0 0 0 5.07 13.575 9.6 9.6 0 0 0 12.656-4.669c2.238-4.727.471-11.325-5.093-13.616" style="fill-rule:nonzero" transform="translate(-11.146 -18.966)"/><path d="M42.616 77.936c1.128 4.461 3.78 7.702 7.181 10.36.581.415 1.201.774 1.85 1.07a.99.99 0 0 1 .586 1.124c-1.036 9.193-9.747 14.795-17.77 12.337-7.67-2.353-11.292-10.476-9.376-17.34.401-1.435 1.172-2.768 1.758-4.15a1.41 1.41 0 0 1 1.631-.884c.457.038.91.144 1.365.221 3.357.567 6.505-.358 9.643-1.389 1.044-.362 2.056-.889 3.132-1.349M35.47 95.533a10 10 0 0 0 1.896.38c1.383.012 2.658-.338 3.481-1.604a1.485 1.485 0 0 0-.952-2.277 1.5 1.5 0 0 0-.945.13c-.195.079-.368.202-.555.299-1.049.531-1.859.269-2.364-.795-.177-.377-.272-.795-.456-1.169a1.554 1.554 0 0 0-1.748-.907 1.51 1.51 0 0 0-1.14 1.61 5.44 5.44 0 0 0 2.783 4.333m2.264-8.232a1.603 1.603 0 0 0-.786-2.123 1.67 1.67 0 0 0-2.119.858 1.64 1.64 0 0 0 .791 2.136 1.655 1.655 0 0 0 2.114-.871m5.072 2.36a1.52 1.52 0 0 0-.249-1.716 1.5 1.5 0 0 0-1.097-.479 1.52 1.52 0 0 0-1.427.985 1.52 1.52 0 0 0 .814 1.918 1.51 1.51 0 0 0 1.959-.708" style="fill:#e6eefe;fill-rule:nonzero" transform="translate(-11.146 -18.966)"/><path d="M42.204 71.605a5 5 0 0 1-3.771-2.06 2.5 2.5 0 0 0-3.118-.878c-.554.203-1.119.361-1.684.519a5.27 5.27 0 0 1-5.066-1.104c-1.544-1.282-1.98-1.261-3.683-.257a6.8 6.8 0 0 1-1.958.811 3.054 3.054 0 0 1-3.626-1.606c-.58-1.006-1.057-1.982-2.349-2.268-.272-.06-.557-.739-.574-1.138-.077-1.98 1.694-4.358 3.594-4.841a2.2 2.2 0 0 1 2.365.77c1.128 1.328 1.777 1.422 3.269.595a10 10 0 0 1 1.236-.614c2.035-.767 3.608-.207 4.463 1.765.695 1.592 1.734 2.213 3.457 2.017a9.3 9.3 0 0 1 2.865.208 2.63 2.63 0 0 1 1.433.765c.386.4.635.911.712 1.461.276 1.45.907 2.456 2.481 2.776.849.169 1.014.706.688 1.559-.202.513-.477.995-.734 1.52M45.906 76.97c2.877 1.163 5.415 5.528 5.911 8.61-2.411-.971-6.281-6.216-5.911-8.61M30.352 77.456c3.387-2.379 6.89-3.204 10.835-2.529-2 1.622-8.027 3.084-10.835 2.529M37.43 45.499a18.2 18.2 0 0 0 5.614-4.941 21.5 21.5 0 0 0 3.632-6.545c2.792-1.035 5.694-2.115 8.624-3.178a1.7 1.7 0 0 1 1.078.069 12.34 12.34 0 0 1 7.977 11.522l-2.883.962c-.513-.333-1.098-.968-1.661-.995a3.34 3.34 0 0 0-2.191.732 34 34 0 0 0-3.587 3.838 1.54 1.54 0 0 0-.369 1.177 1.528 1.528 0 0 0 .621 1.067c.69.509 1.525.354 2.225-.421.386-.425.76-.855 1.299-1.462-.121.784-.225 1.278-.253 1.785-.102 1.013.309 1.811 1.049 2.084.739.273 1.682-.078 2.236-.98.459-.751.849-1.542 1.292-2.305.232-.404.504-.762.844-1.267a3.13 3.13 0 0 1 .001 2.515c-2.372 5.032-6.335 8.047-11.889 8.511-5.279.435-9.395-1.771-12.073-6.411a11.6 11.6 0 0 1-1.586-5.757m17.562-8.069a1.441 1.441 0 0 0-1.659.255 1.5 1.5 0 0 0-.332.491 1.44 1.44 0 0 0 .237 1.659c.138.143.304.257.489.333.373.147.79.139 1.158-.021.369-.159.659-.458.807-.831a1.4 1.4 0 0 0 .139-.539 1.38 1.38 0 0 0-.376-1.023 1.4 1.4 0 0 0-.454-.321zm6.103 2.539c.071-.174.108-.361.108-.549a1.435 1.435 0 0 0-.891-1.322 1.472 1.472 0 1 0 .252 2.553c.241-.169.426-.407.531-.682" style="fill:#fff;fill-rule:nonzero" transform="translate(-11.146 -18.966)"/><path d="M39.936 32.602a4.67 4.67 0 0 1 1.533-2.872 9.7 9.7 0 0 1 2.762-1.914 63 63 0 0 1 7.298-2.351c1.304-.323 2.741-.177 4.102-.184.42.027.827.151 1.19.363.528.284.514.72.015 1.067a3 3 0 0 1-.654.357q-7.531 2.665-15.075 5.321a9 9 0 0 1-1.171.213" style="fill:#e6eefe;fill-rule:nonzero" transform="translate(-11.146 -18.966)"/><path d="M42.526 35.439c-1.035 2.444-2.686 4.205-4.654 5.977.282-2.044 1.249-3.566 2.1-5.147.297-.548.916-.704 2.554-.83M85.736 73.633a11.9 11.9 0 0 1 6.802 5.496 13.18 13.18 0 0 1 1.53 9.144c-.211 1.103-.576 2.18-.881 3.268-2.697 6.001-8.624 9.305-14.867 7.964-4.737-1-7.849-4.033-9.304-8.638-2.589-8.139 2.955-16.857 11.306-17.847zm-5.555 16.656a5.42 5.42 0 0 0 3.573.139 1.57 1.57 0 0 0 1.213-1.795 1.6 1.6 0 0 0-1.657-1.255c-2.944-.079-2.944-.079-3.806-2.889a1.51 1.51 0 0 0-1.47-1.14 1.505 1.505 0 0 0-1.455 1.158 3 3 0 0 0-.053 1.241c.344 2.027 1.361 3.579 3.659 4.567zm5.897-6.798a1.687 1.687 0 0 0-2.086.877 1.6 1.6 0 0 0 2.126 2.05c.389-.17.694-.486.849-.881a1.557 1.557 0 0 0-.868-2.012zm-3.962-1.261a1.422 1.422 0 0 0-1.057-1.941 1.43 1.43 0 0 0-.826.09 1.43 1.43 0 0 0-.865 1.333 1.43 1.43 0 0 0 .904 1.307 1.401 1.401 0 0 0 1.564-.293c.132-.135.236-.295.304-.471zM80.213 69.82l-2.649.493.983-3.211zM95.832 72.915c-.579.941-1.155 1.885-1.793 2.927l-1.313-1.471 2.992-1.59zM88.405 68.446l.075 2.828-2.017-.854zM96.705 80.985l-.551-1.501 2.537-.052.094.241c-.667.411-1.323.832-2.08 1.312" style="fill:#fff;fill-rule:nonzero" transform="translate(-11.146 -18.966)"/><path d="M94.37 35.691c5.574 2.28 7.344 8.895 5.103 13.594a9.6 9.6 0 0 1-12.657 4.67 10.224 10.224 0 0 1-5.07-13.575 9.5 9.5 0 0 1 5.338-4.968 9.5 9.5 0 0 1 7.286.279m-5.073 13.57q.736.216 1.496.317a1.45 1.45 0 0 0 1.593-1.126 1.39 1.39 0 0 0-.81-1.757c-1.694-.501-2.892-1.355-3.286-3.202-.134-.635-.799-.942-1.505-.879a1.424 1.424 0 0 0-1.303 1.32c-.041.328-.025.661.046.985.414 2.061 1.73 3.373 3.769 4.342m.263-6.749a1.606 1.606 0 0 0 2.069-.93 1.66 1.66 0 0 0-1.003-2.049 1.58 1.58 0 0 0-1.949.983 1.584 1.584 0 0 0 .883 1.996m5.446 2.854a1.519 1.519 0 0 0-.815-1.984 1.564 1.564 0 0 0-1.738.311 1.6 1.6 0 0 0-.347.516 1.46 1.46 0 0 0-.023 1.16 1.46 1.46 0 0 0 .826.815 1.574 1.574 0 0 0 2.097-.818" style="fill:#e6eefe;fill-rule:nonzero" transform="translate(-11.146 -18.966)"/><path d="M35.471 95.533a5.44 5.44 0 0 1-1.938-1.815 5.44 5.44 0 0 1-.845-2.517 1.506 1.506 0 0 1 1.139-1.61 1.56 1.56 0 0 1 1.749.906c.184.375.279.792.456 1.169.505 1.064 1.314 1.327 2.364.795.187-.096.36-.219.554-.298a1.48 1.48 0 0 1 2.143 1.224c.022.326-.064.65-.245.923-.81 1.271-2.102 1.624-3.481 1.604a10 10 0 0 1-1.896-.381M37.733 87.301a1.654 1.654 0 0 1-2.114.871 1.64 1.64 0 0 1-.79-2.136 1.674 1.674 0 0 1 2.119-.858 1.603 1.603 0 0 1 .785 2.123M42.806 89.661a1.517 1.517 0 0 1-1.959.708 1.516 1.516 0 0 1-.489-2.435 1.5 1.5 0 0 1 1.102-.467 1.52 1.52 0 0 1 1.097.478 1.52 1.52 0 0 1 .249 1.716M54.999 37.433c.174.073.331.181.462.318a1.38 1.38 0 0 1 .386 1.028 1.4 1.4 0 0 1-.139.543 1.52 1.52 0 0 1-1.966.853 1.44 1.44 0 0 1-.886-1.422c.014-.199.068-.394.161-.57a1.44 1.44 0 0 1 .828-.806 1.45 1.45 0 0 1 1.154.056M61.103 39.972a1.45 1.45 0 0 1-1.334.914 1.454 1.454 0 0 1-1.435-1.731 1.45 1.45 0 0 1 1.146-1.141c.283-.055.576-.025.841.088.174.071.333.176.467.308a1.44 1.44 0 0 1 .423 1.013c.001.188-.036.375-.108.549M80.184 90.315c-2.304-.975-3.311-2.539-3.668-4.571a3 3 0 0 1 .053-1.24 1.5 1.5 0 0 1 2.387-.843c.267.207.456.497.538.824.883 2.819.883 2.819 3.806 2.89a1.594 1.594 0 0 1 1.657 1.255 1.57 1.57 0 0 1-1.213 1.795 5.43 5.43 0 0 1-3.56-.11M86.099 83.525a1.553 1.553 0 0 1 .888 2.046 1.595 1.595 0 0 1-2.072.903 1.6 1.6 0 0 1-.903-2.072 1.69 1.69 0 0 1 2.087-.877M82.14 82.256a1.425 1.425 0 0 1-2.634-.09 1.42 1.42 0 0 1 .361-1.543 1.43 1.43 0 0 1 1.564-.257c.174.073.332.181.462.318a1.38 1.38 0 0 1 .386 1.028 1.4 1.4 0 0 1-.139.544M89.297 49.262c-2.04-.97-3.355-2.281-3.77-4.343a2.9 2.9 0 0 1-.045-.985 1.42 1.42 0 0 1 1.303-1.319c.706-.064 1.371.243 1.504.878.395 1.847 1.598 2.689 3.287 3.203a1.393 1.393 0 0 1 .81 1.756 1.45 1.45 0 0 1-1.594 1.126 10 10 0 0 1-1.495-.316M89.559 42.512a1.584 1.584 0 0 1 1.066-2.98 1.66 1.66 0 0 1 1.003 2.05 1.6 1.6 0 0 1-2.069.93M95.007 45.367a1.58 1.58 0 0 1-.876.851 1.57 1.57 0 0 1-1.221-.034 1.47 1.47 0 0 1-.826-.815 1.47 1.47 0 0 1 .023-1.16 1.56 1.56 0 0 1 2.085-.827 1.52 1.52 0 0 1 .815 1.985" style="fill-rule:nonzero" transform="translate(-11.146 -18.966)"/></svg>