<svg xmlns="http://www.w3.org/2000/svg" width="369" height="308" fill="none" viewBox="0 0 369 308"><path fill="#102185" d="M302.123 11.099c5.721-1.161 10.011.368 12.474 6.286 1.558-.58 3.087-.963 4.446-1.571a4328 4328 0 0 1 39.375-14.527 23 23 0 0 1 4.007-1.203c1.119-.213 2.209-.029 3.157.65.949.68 1.6 1.43 2.124 2.479.411 1.132.425 2.237.142 3.426a5.46 5.46 0 0 1-2.124 2.747c-1.147.609-2.308 1.232-3.54 1.529L320.728 26.29c-.935.425-1.968.75-2.492 1.02-.198 2.59.198 5.238-.949 7.15-1.146 1.911-3.454 3.143-5.394 4.8 1.317 7.63 1.104 7.815-6.428 11.652-8.793 4.545-17.67 8.976-26.349 13.422l-.538.468c.311 1.231.707 2.562 1.217 3.808 2.563 7.122 5.126 14.258 7.688 21.38 1.883 5.465.255 8.353-4.983 11.157-8.269 4.275-16.453 8.877-24.368 13.776-8.863 5.536-17.485 11.808-26.349 17.344-2.959 1.982-4.134 4.092-3.398 7.575.637 3.37 1.076 6.909 1.204 10.336.226 3.525-.354 7.207-1.813 10.505-1.373 3.413-3.497 6.358-6.102 8.765-4.531 4.063-9.416 7.504-14.952 10.194-3.978 2.095-3.228 2.761-2.548 5.734 2.732 14.074 5.55 28.246 8.283 42.306 1.444 7.334-.071 11.242-6.867 14.838-4.404 2.478-8.807 4.743-13.295 7.108-.836.34-1.388.991-1.94 1.656-.552.666-.722 1.558-.793 2.549-2.095 12.785-6.244 24.919-14.852 34.901-5.097 6.23-11.426 11.468-18.647 15.234-13.055 6.528-25.486 4.857-36.742-3.95-7.108-5.465-12.375-12.7-17.656-19.737-4.842-6.3-9.345-12.87-14.612-18.802-4.346-4.857-9.797-8.382-15.956-10.577-6.343-2.393-12.233-1.444-18.208 1.812.325 1.034.453 1.841.792 2.676 1.26 3.214 1.487 6.74.822 10.11s-2.308 6.442-4.616 8.976c-2.747 3.101-5.777 5.876-8.99 8.439-4.588 3.568-5.678 3.369-10.322-.298-2.945 1.784-6.004 3.653-9.161 5.423-.85.538-1.784.963-2.818 1.288a5 5 0 0 1-3.214-.042 4.8 4.8 0 0 1-2.45-1.996 4.4 4.4 0 0 1-.665-3.158c.184-1.09.765-2.152 1.515-2.789 2.365-2.025 5.296-3.61 7.943-5.309 1.062-.722 2.124-1.445 3.483-2.237l-6.144-10.209c-2.308 1.232-4.305 2.379-6.5 3.511-1.684 1.077-3.567 1.94-5.436 2.79-2.903 1.175-5.338.283-6.556-2.209-.609-1.147-.708-2.563-.41-3.752.396-1.274 1.189-2.322 2.336-2.931 2.421-1.515 4.842-2.846 7.362-4.247 1.147-.609 2.21-1.331 3.158-1.968-.61-6.372.198-7.816 6.102-10.067a72 72 0 0 1 11.908-3.299c4.29-.878 8.849-.113 12.686 2.18.566.439 1.26.595 1.855.652.707-.043 1.415-.085 1.953-.553 15.179-7.971 28.728-4.106 41.415 5.919 6.612 5.337 11.51 12.134 16.537 18.646s10.01 13.423 15.461 19.568c2.69 2.916 5.904 5.38 9.486 7.164 7.519 3.993 15.207 3.384 22.47-.977 11.242-6.456 19.695-17.061 23.376-29.521.68-2.251 1.331-4.318 2.28-7.348-3.568 1.94-6.485 3.313-9.416 4.899-1.26.708-2.52 1.416-3.667 2.025-4.715 2.548-7.731 1.203-9.444-3.837-3.341-9.996-6.074-20.148-8.084-30.555-3.498-18.448-7.405-36.727-10.903-55.162-2.633-13.96-5.167-28.019-7.192-42.121-2.081-14.626-2.846-29.436-.312-44.104 2.506-14.272 9.699-25.458 21.111-34.123 8.538-6.57 18.576-10.307 28.317-14.385 21.989-9.146 44.444-16.452 66.914-23.942 1.968-.75 4.12-1.288 6.357-1.713 1.742-.368 3.526-.227 5.182.595 2.308 1.387 4.234 1.033 6.598.311 9.359-2.79 18.69-5.38 28.134-8.07 5.238-1.501 6.994-.765 9.939 3.978v.198zM252.795 24.45c-2.053.65-3.597 1.033-5.14 1.614-13.507 4.474-27.185 8.75-40.423 13.747-14.484 5.508-28.983 11.214-42.957 17.968C150.102 64.52 141.564 76.1 139.341 92a132.7 132.7 0 0 0 .609 38.809c2.832 19.199 6.485 38.256 10.124 57.314 3.199 17.018 6.711 33.952 10.321 50.999.949 4.587 1.997 9.288 4.885 13.536 12.587-6.867 25.032-13.423 37.506-20.19-.212-1.119-.24-2.025-.481-2.945-1.926-8.779-3.865-17.571-5.593-26.335-1.996-10.591-4.191-21.21-3.554-32.013.822-11.893 4.177-22.767 12.771-31.446 3.384-3.455 7.236-6.57 11.073-9.487 6.074-4.445 12.502-8.466 18.76-12.714 9.302-6.102 18.618-12.219 28.02-18.222 4.219-2.69 8.707-4.856 13.224-7.42l-24.296-67.55.099.114zm40.309-7.122a5589 5589 0 0 0-29.053 8.297l10.576 29.534c9.09-4.615 17.769-9.075 26.76-13.592l-8.269-24.24zM36.719 272.353c7.349-4.049 9.472-9.613 6.046-15.801-3.072-5.762-9.897-6.994-17.146-2.831.156.608.41 1.132.68 1.656 3.37 5.678 6.867 11.27 10.35 16.863l.099.113zm166.747-103.301c13.054-5.21 18.93-13.606 14.173-26.122-9.034 6.428-12.757 15.588-14.173 26.122"/><path fill="#102185" d="M178.731 119.951c-5.89-6.881-4.616-18.236 2.605-24.608 3.327-2.86 7.759-4.22 12.063-3.993 4.389.34 8.552 2.365 11.412 5.706 5.989 6.995 4.587 18.633-2.931 24.877-3.327 2.86-7.646 4.134-12.035 3.795s-8.438-2.464-11.213-5.692l.113-.099zm16.551-6.159c3.327-2.86 3.965-7.122 1.586-10.124-2.209-2.576-5.494-2.93-8.396-.453-3.427 2.747-4.191 7.504-1.614 10.52 2.124 2.478 5.734 2.549 8.523.156l-.099-.113zM239.386 104.348c-2.477 2.124-5.578 3.285-8.622 3.653-3.243.354-6.4-.297-9.203-1.812-2.804-1.515-5.126-3.809-6.612-6.64a16.8 16.8 0 0 1-1.898-9.19c.241-3.2 1.586-6.201 3.483-8.764s4.659-4.36 7.745-5.323 6.4-1.006 9.359-.184c3.044.934 5.819 2.661 7.943 5.125a15.8 15.8 0 0 1 3.087 5.564c.651 2.053.877 4.29.722 6.287-.17 2.194-.836 4.247-1.784 6.187s-2.379 3.525-3.993 4.913l-.212.184zm-6.64-7.532c.864-.737 1.444-1.799 1.742-2.974.297-1.175.184-2.392-.241-3.327-.425-.934-1.147-1.996-1.997-2.76q-1.422-1.02-3.228-1.148c-1.203-.099-2.322.128-3.27.75-1.048.525-1.813 1.36-2.393 2.422-.581 1.062-.765 2.152-.666 3.37s.425 2.237 1.26 3.214c1.105 1.288 2.662 2.01 4.446 2.152 1.6.127 3.342-.44 4.644-1.544l-.297-.127zM167.489 79.613c.326-.283 1.147-.609 1.883-1.062 12.177-5.592 24.565-11.157 36.742-16.735 1.345-.595 2.902-1.175 4.417-1.36a4.9 4.9 0 0 1 3.582.482 5.12 5.12 0 0 1 2.308 2.69 4.9 4.9 0 0 1-.085 3.61c-.495 1.176-1.458 1.997-2.591 2.408-4.587 2.25-9.359 4.091-14.045 6.244-8.736 3.95-17.5 8.084-26.236 12.034-.425.369-.935.425-1.345.595-2.789 1.09-5.338.283-6.768-2.025-1.331-2.208-.623-4.87 2.152-7.065v.198z"/></svg>