<svg xmlns="http://www.w3.org/2000/svg" width="216" height="221" fill="none" viewBox="0 0 216 221"><path fill="#102185" d="M215.315 107.734c0 55.926-37.379 101.375-88.491 110.861-45.025 8.354-90.757-14.158-113.27-55.643C-16.32 107.734 4.918 38.64 60.278 11.031c19.539-9.628 41.627-13.168 63.148-9.77a106.27 106.27 0 0 1 57.201 28.459c10.76 10.053 19.255 22.087 25.202 35.538s9.203 27.892 9.486 42.476M110.541 10.606c-1.416 3.54-2.973 6.938-4.672 10.336-4.389 7.645-10.477 13.45-19.964 12.318-5.805-.708-9.486 1.84-13.592 5.521-3.823 3.54-8.212 6.513-13.026 8.496-6.938 2.69-13.45-.284-19.397-3.823-2.69-1.558-4.106-1.275-5.947 1.132-7.22 8.496-12.743 18.123-16.566 28.46-2.548 7.362-4.389 14.866-6.654 22.936 14.3 1.982 20.53 10.761 21.096 23.079.567 11.468 5.097 20.388 13.31 28.034 1.698 1.699 3.256 3.681 4.672 5.663 4.955 6.23 7.929 13.734 8.495 21.521.283 6.23.283 12.601 0 18.831-.142.708 0 1.558.283 2.265.425.708.991 1.275 1.699 1.558 10.053 5.663 21.097 9.628 32.423 11.751 2.266.425 2.974-.566 3.823-2.548 1.7-4.531 3.823-8.92 6.089-13.309 1.415-2.973 3.681-5.522 6.512-7.221 2.832-1.699 6.089-2.549 9.345-2.549 4.531 0 8.92-1.699 12.176-4.814 9.062-8.495 19.54-8.211 29.592-1.557 3.965 2.549 7.504 5.663 11.327 8.637 23.504-16.566 40.777-66.97 31.715-91.465-6.654 1.983-13.026 5.097-19.822 5.805-10.619 1.133-17.698 5.381-20.105 16.141-.425 1.699-1.274 3.398-2.407 4.814-3.256 4.248-7.504 6.371-12.743 4.814-2.831-.85-5.522-2.124-7.929-3.823-2.973-1.982-5.663-4.389-8.495-6.513-6.371-4.814-10.336-4.531-15.857.991-1.133 1.133-2.266 2.549-3.398 3.682-2.974 3.114-6.23 6.088-9.628 8.919-3.54 2.549-7.221 4.673-11.327 6.23-12.601 4.531-22.796-1.982-24.353-15.291-1.133-9.203 2.548-17.132 6.23-25.06 2.265-4.673 2.973-9.912 1.84-15.009-1.699-7.787.991-14.159 7.646-18.265a78 78 0 0 1 15.15-7.22c6.937-2.407 13.309-5.522 18.548-10.62 8.778-8.636 17.556-17.273 26.193-25.91-5.663-3.68-23.362-7.504-32.14-7.079zM76.844 113.822c0 11.185 4.672 14.3 12.742 10.619 3.54-1.699 6.938-3.965 9.77-6.655 3.54-3.115 6.654-6.796 10.052-10.052 8.212-7.787 17.274-8.495 26.619-2.124 3.398 2.265 6.513 5.097 9.77 7.504 5.097 3.681 6.654 3.398 8.495-2.549 3.964-13.025 12.884-19.114 26.193-20.813 5.947-.708 11.61-3.681 17.415-5.663 2.69-.991 2.973-2.832 2.124-5.522-6.513-19.539-18.689-36.67-35.113-48.989-10.053-7.645-11.611-7.645-21.097.991-5.097 4.673-9.628 9.911-14.442 14.867-8.495 8.637-18.123 15.433-30.016 18.83-3.681 1.275-7.08 2.832-10.336 4.956q-2.336 1.062-3.398 3.398a5.94 5.94 0 0 0-.283 4.673c1.982 8.212 0 15.574-3.54 23.078-1.84 4.389-3.54 8.779-4.814 13.309zm-66.121-7.363c-3.54 26.76 18.972 75.324 37.237 81.271 1.7-13.734-1.84-25.627-12.035-35.255-1.557-1.416-2.832-3.257-4.39-4.956-4.955-5.097-8.07-11.751-8.919-18.831-.425-3.539-.85-7.079-1.416-10.619-.85-6.937-3.68-10.052-10.619-11.61zm152.63 85.518c-2.832-2.265-5.38-4.389-8.07-6.229-5.664-3.965-11.894-5.522-18.407.708a23.4 23.4 0 0 1-14.725 6.796c-8.92.708-15.008 7.079-15.433 16.282 16.425 1.982 42.76-6.088 56.635-17.415zM98.789 11.031c-16.424-.284-46.44 12.742-53.944 23.22 7.93 5.238 13.593 4.53 20.105-2.407.708-.708 1.416-1.558 2.124-2.266a21 21 0 0 1 7.788-5.238c2.973-1.133 6.088-1.7 9.203-1.558 8.353.425 12.884-3.54 14.866-11.893z"/><path fill="#102185" d="M98.506 149.926c.85-2.549 2.124-5.097 3.398-7.504 5.097-7.504 12.743-12.884 21.379-15.575 1.841-.707 3.965-.849 5.947-.424s3.681 1.557 5.097 3.115c2.69 2.973 2.973 6.937.566 11.043-5.522 9.203-14.017 15.008-23.361 19.256-6.513 2.973-12.601-2.265-12.885-9.911zm11.327-2.265.991 1.274a456 456 0 0 0 13.026-10.053l-.992-1.274-13.167 9.911z"/></svg>