<svg xmlns="http://www.w3.org/2000/svg" width="231" height="317" fill="none" viewBox="0 0 231 317"><path fill="#102185" d="m106.524 67.254-19.652.553c-1.161-.029-2.365.099-3.497-.071-2.889-.198-5.027-1.5-5.07-4.588-.127-.623.03-1.16.213-1.854.142-.552.609-1.161.991-1.487.425-.467.949-.779 1.459-1.076s1.147-.425 1.854-.382c7.32-.51 14.612-.892 21.961-.963 3.228 0 4.304-.75 4.643-4.177 1.501-15.872 3.144-31.715 4.772-47.545.34-3.426 2.718-5.72 5.635-5.663s4.757 2.464 5.069 6.216c1.147 15.858 2.421 31.744 3.44 47.559.099 2.378 1.19 2.661 3.243 2.633 6.215-.227 12.573-.41 18.93-.609 1.161.029 2.336.043 3.497.071 2.846.326 4.913 1.911 4.998 4.87.043 3.087-2.152 4.701-4.97 4.814-6.116.397-12.303.496-18.519.722l-5.494.27c4.418 17.33 8.396 34.093 13.295 50.673 9.416 32.466 24.934 62.468 39.645 92.682a14470 14470 0 0 0 40.791 83.026c1.826 3.568 3.992 6.938 5.819 10.52 2.676 5.267-.411 10.746-6.315 10.902-13.649.567-27.156 1.175-40.805 1.742-5.904.17-6.57-1.19-7.363-6.966-2.322-16.906-9.16-31.8-21.818-43.58-5.933-5.706-13.281-9.458-21.182-11.143-16.112-3.327-29.945 1.741-42.334 11.737-12.375 9.996-20.487 23.206-26.236 37.945-2.817 7.164-3.058 7.533-10.86 7.632-13.677.127-27.58.028-41.286.283-3.682.028-7.122-1.331-9.642-3.922-2.407-1.968-2.01-4.502-.623-6.909 2.492-4.319 5.238-8.552 7.589-12.913 15.957-30.299 32.083-60.698 47.771-91.082 8.878-17.104 17.74-34.221 25.57-51.764a389.2 389.2 0 0 0 24.325-75.409c.184-.68.326-1.232.566-2.633zm103.033 221.271c.07-.269-.086-.75-.156-1.062-9.402-18.958-18.619-38.03-28.162-57.031-.538-.736-1.147-1.189-1.925-1.543-.779-.354-1.6-.58-2.322-.623-40.48-1.104-80.846-2.039-121.397-2.86-.75.085-1.557.312-2.11.751-.693.396-1.245.835-1.571 1.486-9.755 18.194-19.412 36.558-29.153 54.751l-.736 2.733c11.978.156 23.518.34 35.057.524 1.09.297 2.195 0 3.242-.595a4.37 4.37 0 0 0 2.237-2.322 88.7 88.7 0 0 1 19.37-23.376c27.297-23.432 62.184-21.195 84.173 6.018 5.267 6.555 8.792 14.696 12.941 22.115.991 1.742 1.585 3.356 4.134 3.172 8.736-.864 17.273-1.501 26.278-2.294l.1.17zm-34.08-70.368c-.482-1.459-.708-2.251-1.076-3.073-6.542-13.79-13.253-27.481-19.624-41.371-.425-1.147-1.105-1.911-2.082-2.619-1.019-.567-2.109-.864-3.185-.708-21.805-.17-43.68-.651-65.442-.949-.623.128-1.274.382-1.94.651-.523.298-1.118.878-1.401 1.388-7.193 13.606-14.244 27.241-21.337 41.017l-.736 2.733c12.218.368 24.027.623 35.736.708.864.085 1.883-1.543 2.45-2.563 2.095-3.978 3.454-8.452 6.272-11.794 10.336-12.757 28.402-11.242 35.057 2.718 1.883 3.88 2.322 8.255 3.539 12.984l33.854.637-.071.269zm-36.459-81.709c-.651-1.94-1.005-3.356-1.387-4.63-3.526-11.95-7.207-23.801-10.421-35.808-2.351-8.693-4.035-17.655-6.159-26.59-.184-.934-1.445-1.712-2.082-2.618l-2.421 2.42-.481 1.785c-5.097 20.473-9.939 41.159-18.18 60.797l-.85 3.143 42.009 1.373-.042.142zm9.161 24.183c-1.643-4.262-3.016-7.859-4.347-11.582-.227-.793-.722-1.657-1.473-2.153a3.9 3.9 0 0 0-2.463-.665c-14.824-.481-29.478-1.076-44.317-1.557-1.033.014-2.718.297-3.044.934-2.081 4.432-3.907 9.062-6.003 14.074l61.675.821-.043.142zM12.369 301.848c1.303.057 2.605.113 3.78.142l33.047-.17c4.7-.042 5.55-.991 5.96-6.315a7.8 7.8 0 0 0-2.576-.255c-10.549-.056-21.054-.255-31.588-.325-5.876.028-6.259.368-8.609 6.909zm118.154-84.541c.595-8.197-3.455-13.832-9.529-14.158-6.796-.368-13.861 6.229-13.918 13.549zm87.557 87.444c-.977-4.517-3.115-6.414-7.617-6.018-8.835.694-17.883 1.034-27.227 1.444 1.146 2.804-.184 6.117 3.837 5.876 10.208-.325 20.487-.92 31.007-1.302"/><path fill="#102185" d="M60.04 122.601c.213 2.987.369 5.678.397 8.325 0 1.614.481 3.653-.297 4.899-.892 1.671-2.917 3.752-4.404 3.795-.962-.255-1.911-.524-2.718-1.317-.85-.666-1.388-1.402-1.84-2.407-.978-2.903-.709-6.06-.935-9.048-.085-1.345-.114-2.817-.156-4.29-1.161-.028-1.926.071-2.676.156-2.988.213-5.026-.92-5.663-4.021-.128-.623-.213-1.373-.071-1.925.184-.68.325-1.232.793-1.841.424-.467.835-.949 1.5-1.204.524-.297 1.175-.566 1.898-.509 4.332-.297 4.276-2.804 4.233-5.89-.07-1.926-.34-4.191.524-5.72.538-.878 1.161-1.586 1.926-2.266s1.77-1.132 2.704-1.316c2.62-.468 4.261 1.585 4.587 4.176.283 3.299.255 6.669.326 10.209 3.78.141 8.523-.623 8.396 4.757-.085 4.672-4.29 4.998-8.552 5.607l.043-.142zM182.782 64.522c.043 3.087.581 6.018-.071 8.934-.354 2.393-1.67 4.53-3.454 6.258-3.03 1.968-6.683-.778-6.641-4.728.029-1.756.241-3.597.269-5.352.014-2.775.241-5.211-3.27-6.896-2.903-1.218-2.705-5.72.24-7.419s2.79-3.794 2.591-6.343c-.099-1.784-.722-3.865-.17-5.324.793-1.84 2.549-4.006 4.276-4.417 2.691-.736 4.644 1.26 5.083 4.007s.453 5.394.921 8.014c.184.934 1.26 2.392 1.982 2.435 3.738.283 5.762 1.996 5.621 5.776-.142 3.78-3.002 4.616-6.23 4.616-.269-.07-.481.156-1.147.425zM202.406 221.031c-.552-.142-1.26-.198-1.855-.213a5.04 5.04 0 0 1-3.412-.92c-.977-.708-1.543-1.883-1.826-2.987-.255-1.246.085-2.478.793-3.455s1.784-1.713 2.888-2.011c2.959-.665 3.37-2.166 3.002-4.616-.128-.623-.114-1.203-.071-1.925.269-3.157 1.557-5.734 5.055-5.677 3.638.099 4.828 2.774 4.728 5.818-.014 2.776.086 4.574 3.469 5.636 3.653 1.132 3.384 6.484-.283 8.141-2.662 1.189-2.831 2.902-2.704 5.14s.227 4.601.184 6.937c-.156 2.747-1.572 4.715-4.417 4.97-2.988.212-4.814-1.742-5.197-4.63-.424-3.342-.425-6.57-.594-10.279l.269.071zM193.275 173.981c-.68-.184-1.19-.467-1.798-.92a6.3 6.3 0 0 1-1.204-1.501c-.297-.524-.524-1.317-.51-1.897-.127-.623.057-1.302.241-1.982s.326-1.232.793-1.841c.425-.467.878-1.076 1.543-1.345a5.1 5.1 0 0 1 1.94-.651c.623-.127 1.345-.085 2.025.113 2.973.949 3.78 3.37 3.185 6.145-.184.68-.325 1.232-.793 1.841-.283.509-.877 1.076-1.401 1.387-.552.439-1.175.567-1.798.694s-1.346.085-2.025-.113l-.17.099zM170.506 149.643c.326-1.231 1.246-2.449 2.422-3.016 1.217-.693 2.562-.778 3.921-.41.553.141 1.19.467 1.671.892.467.425.949.835 1.204 1.501.297.524.566 1.175.552 1.755.127.623-.057 1.303-.213 1.855-.325 1.232-1.345 2.28-2.562 2.973-1.175.567-2.563.779-3.922.411-1.232-.326-2.138-1.317-2.605-2.322-.595-1.048-.708-2.251-.524-3.511l.042-.142zM30.054 179.915c.552.141 1.061.439 1.529.85.467.424.807.807 1.104 1.33.297.524.467 1.006.453 1.586s-.028 1.161-.17 1.713c-.184.68-.368 1.374-.92 1.799a6.4 6.4 0 0 1-1.501 1.203c-.524.297-1.317.524-1.897.51-.58 0-1.303-.057-1.954-.383-.552-.141-1.232-.325-1.7-.75-.466-.425-.948-.835-1.245-1.359s-.425-1.147-.552-1.756c-.128-.623.028-1.161.212-1.855.708-2.591 3.412-3.922 6.513-2.931l.142.043zM42.088 169.522c1.317-2.718 3.44-4.063 6.244-3.001.552.141 1.232.325 1.67.891.468.425.95.836 1.077 1.459s.425 1.147.41 1.727c0 .581-.028 1.161-.34 1.812-.184.68-.51 1.331-.92 1.799-.425.467-.977.906-1.642 1.175-.666.269-1.275.382-1.898.51-.722-.043-1.302-.057-1.953-.383-1.232-.325-1.997-1.274-2.605-2.322-.567-1.175-.539-2.35-.213-3.582l.17-.099zM37.217 192.997c.141-.552.325-1.232.892-1.671.424-.467.835-.949 1.359-1.246s1.147-.425 1.755-.552c.61-.127 1.161.028 1.855.212.552.142 1.232.326 1.742.623.51.298.948.836 1.246 1.36.297.523.566 1.175.552 1.755.127.623-.029 1.161-.212 1.855-.185.694-.326 1.232-.75 1.699-.426.467-.836.949-1.402 1.388a6.4 6.4 0 0 1-1.799.693 4.2 4.2 0 0 1-1.883-.071c-.68-.184-1.232-.325-1.67-.891-.468-.425-.95-.836-1.204-1.501-.297-.524-.566-1.175-.552-1.756-.128-.623.056-1.303.24-1.982l-.17.099zM167.35 136.915c-.326 1.231-1.317 2.137-2.45 2.562-1.175.566-2.35.538-3.582.213-.552-.142-1.232-.326-1.699-.751a6.4 6.4 0 0 1-1.203-1.501c-.298-.524-.425-1.146-.51-1.897-.128-.623.057-1.302.212-1.855.326-1.231 1.176-2.18 2.351-2.732 1.047-.595 2.378-.68 3.61-.34.68.184 1.232.326 1.798.92.467.425.907.977 1.345 1.543.298.524.524 1.317.51 1.898.128.623-.057 1.303-.241 1.982zM160.015 102.665c-.325 1.232-1.175 2.18-2.18 2.633-1.048.595-2.251.708-3.483.383-.552-.142-1.232-.326-1.699-.751-.51-.283-.949-.835-1.388-1.401a6.4 6.4 0 0 1-.693-1.799 4.2 4.2 0 0 1 .07-1.883c.156-.538.326-1.231.751-1.699s.835-.948 1.359-1.245 1.175-.567 1.756-.553c.623-.127 1.161.029 1.854.213s1.232.325 1.841.792c.467.425.949.836 1.388 1.402.297.524.566 1.175.651 1.94.127.623.085 1.345-.113 2.025l-.142-.043zM30.577 230.645c-3.072-1.119-4.446-3.101-3.808-6.017.141-.553.325-1.232.75-1.699s.835-.949 1.36-1.247c.523-.297 1.175-.566 1.755-.552.58 0 1.303.057 1.855.213.552.155 1.232.325 1.699.75s.948.836 1.203 1.501c.298.524.567 1.175.553 1.756.127.623-.057 1.302-.213 1.855-.779 2.874-2.846 3.482-5.423 3.227l.241.213zM83.941 95.472c-.552-.141-1.062-.439-1.529-.85-.467-.424-.807-.806-1.104-1.33s-.425-1.147-.41-1.728c0-.58.027-1.16.169-1.713.142-.552.326-1.232.75-1.699.425-.467.836-.948 1.36-1.246.523-.297 1.047-.594 1.656-.722a3.86 3.86 0 0 1 1.756.029c.552.141 1.232.325 1.699.75.51.283.949.835 1.246 1.36.297.523.594 1.047.722 1.656a3.85 3.85 0 0 1-.028 1.755c-.184.68-.369 1.374-.793 1.84-.425.468-.836.95-1.544 1.346-.523.297-1.316.524-1.94.651-.622.127-1.302-.056-1.982-.24l-.042.141zM181.155 107.493c-1.487 3.851-3.327 5.266-6.06 4.516-.552-.142-1.232-.325-1.742-.623-.467-.425-.948-.835-1.246-1.359-.297-.524-.566-1.175-.552-1.756 0-.58.057-1.302.34-1.812.736-2.733 3.03-4.163 5.649-3.016 1.699.75 2.832 3.115 3.738 4.092l-.141-.042zM75.446 79.685c-1.005 2.662-2.86 4.064-5.734 3.3-.553-.142-1.232-.326-1.7-.751-.51-.283-.948-.835-1.246-1.36-.297-.523-.424-1.146-.552-1.755-.127-.623.029-1.161.213-1.855.141-.552.325-1.232.75-1.699s.835-.949 1.36-1.246c.523-.297 1.174-.566 1.755-.552.58 0 1.161.028 1.855.212 2.732.737 3.752 2.917 3.157 5.692l.142.043zM184.185 131.053c1.147-2.619 3.101-3.851 5.791-2.987 1.09.297 1.996 1.274 2.463 2.279s.581 2.209.241 3.44c-.297 1.091-1.132 2.039-2.18 2.634a4.48 4.48 0 0 1-3.342.425c-2.69-.878-3.582-3.016-2.987-5.791zM112.882 267.981c-1.756.552-3.71 1.784-5.423 1.614l-1.642-.439c-.51-.283-.85-.665-1.147-1.189s-.467-1.005-.453-1.586l.439-1.642a5 5 0 0 1 2.095-1.784c.835-.368 1.798-.694 2.662-.609 1.501.41 2.52 2.591 3.738 4.092l-.482 1.784zM95.41 245.808c-1.968.793-3.823 2.195-5.706 2.124-2.888-.198-4.149-2.591-3.398-5.323s2.93-4.347 5.55-3.186c1.7.75 2.69 3.072 4.035 4.616l-.439 1.642-.042.142zM84.989 195.333c-3.002-.807-4.644-3.455-3.668-5.975.185-.679.326-1.232.892-1.67a6.4 6.4 0 0 1 1.501-1.204c.524-.297 1.176-.566 1.898-.51.58 0 1.302.057 1.982.241s1.232.326 1.84.793c.51.283.949.835 1.388 1.402.297.524.566 1.175.51 1.897 0 .581-.057 1.302-.241 1.982-.807 3.002-3.327 3.653-5.862 3.257zM102.631 181.033c.439-1.062 1.416-1.968 2.45-2.563 1.146-.424 2.35-.538 3.539-.071 1.232.326 2.181 1.176 2.605 2.323.595 1.047.68 2.378.383 3.483-.142.552-.326 1.231-.892 1.67-.425.467-.836.949-1.36 1.246-.523.298-1.146.425-1.755.552-.623.128-1.161-.028-1.855-.212s-1.189-.467-1.798-.92a6.4 6.4 0 0 1-1.204-1.501c-.269-.651-.524-1.317-.509-1.897-.128-.623.056-1.303.24-1.982l.17-.1zM116.548 117.036c1.09.297 2.039 1.132 2.535 2.01a4.48 4.48 0 0 1 .424 3.342c-.184.679-.325 1.231-.792 1.84-.468.609-.878 1.076-1.544 1.345a5.05 5.05 0 0 1-1.939.652c-.623.127-1.303-.057-1.983-.241-.552-.142-1.232-.326-1.699-.75-.51-.284-.948-.836-1.246-1.36a9.7 9.7 0 0 1-.722-1.656 3.9 3.9 0 0 1 .071-1.884c.467-2.803 3.511-4.332 6.654-3.483l.241.213z"/></svg>