<svg xmlns="http://www.w3.org/2000/svg" width="170" height="269" fill="none" viewBox="0 0 170 269"><path fill="#102185" d="M137.835 31.738c7.292-.015 14.258-.043 21.365-.128 1.714 0 3.427.014 4.998.085.949.043 1.883.396 2.747.934.736.595 1.275 1.445 1.544 2.408.849 2.562 1.246 5.181 1.387 7.914-.439 25.967-1.062 51.863-1.685 77.759-.991 45.463-2.039 90.799-2.902 136.192.056 1.84.354 3.568.793 5.224.764 3.073-.029 5.126-2.974 6.145-1.161.524-2.492.651-3.766.609-35.991-.283-72.096-.51-108.144-.92-6.215 0-12.29-.071-18.434-.255-2.662-.043-5.31-.411-8.014-.906-3.214-.581-4.361-1.77-4.658-5.197-.765-7.574-1.473-15.022-2.237-22.583-5.593-62.524-11.242-125.176-16.85-187.714-.353-3.568-.594-7.193-.948-10.747-.311-3.115.609-5.55 3.823-6.682l.382-.17c3.851-4.22 9.43-4.234 14.315-5.805 10.576-3.044 21.28-5.834 31.927-8.764 11.667-3.073 23.32-6.131 34.93-9.331 10.123-2.69 20.318-5.565 30.441-8.255 1.543-.382 3.016-.892 4.417-1.217 1.289-.58 2.804-.326 4.107.17 1.302.495 2.406 1.557 2.987 2.845l1.572 3.483c2.888 8.17 5.805 16.014 8.75 24.31l.099.581zM10.011 42.314c6.527 72.195 12.94 144.134 19.425 215.579.949.042 1.317.184 1.954.212l122.402.864c.255-.113.58-.099.708-.156l.382-.17c.255-.113.326-.297.524-.552l4.63-216.613-149.912.78-.128.056zm109.984-31.276L44.119 31.483l.283.651c-.127.057 82.842-.453 82.842-.453-2.378-7.009-4.757-13.691-7.136-20.7l-.127.056z"/><path fill="#102185" d="M34.802 57.407c1.402-.326 2.747-.453 4.134-.467 19.398-.029 38.78-.043 58.05 0 4.178-.014 6.075 1.77 6.146 6.088.184 7.674.255 15.405.255 23.008.141 17.939.297 35.878.438 53.817.029.764.071 1.529-.028 2.35-.396 4.984-3.228 7.659-8.056 7.971-6.98.34-13.847.637-20.828.977-8.948.453-17.967.779-26.915 1.232-1.53.07-3.044.127-4.63.056-5.38-.226-7.462-2.081-7.674-7.419-.496-7.999-.934-15.886-1.416-23.885-1.033-17.854-2.138-35.836-3.228-53.817-.07-1.204-.085-2.605-.156-3.809-.141-1.33.227-2.59.977-3.695.736-1.104 1.728-2.025 2.945-2.407zM56.38 98.155l-1.275-2.846c-.934-2.067-1.345-4.36-1.302-6.71.042-2.351.566-4.602 1.486-6.726.85-2.251 2.393-4.333 4.177-5.918 1.912-1.629 4.106-2.62 6.527-3.087a14.04 14.04 0 0 1 7.207.481c2.379.793 4.347 2.082 6.117 3.922 4.87 4.956 5.96 10.832 4.29 17.472-.298 1.062-.595 2.124-.878 2.874l11.015 6.541-.24-37.152-52.6.043c.822 13.918 1.714 27.637 2.478 41.428l13.026-10.053v-.311zm-11.016 44.217c1.657-.127 3.37-.112 4.942-.042.948.043 1.968-.113 2.69-.58.906-.411 1.5-1.147 1.855-2.082 2.59-4.261 5.606-8.254 8.367-12.459l14.031-20.587c-.934-.354-1.812-.58-2.69-.807a26.2 26.2 0 0 0-12.417 1.388c-6.697 2.704-12.176 7.801-15.418 14.385-.822 1.614-2.096 3.271-2.04 4.8-.098 5.323.468 10.35.794 15.942l-.128.057zm20.12-.806 27.807-1.331c.27-.439.34-.623.34-.623-.014-4.177.1-8.425.07-12.601q0-6.216-3.284-11.101c-1.387-1.699-2.718-3.284-4.304-4.743l-20.77 30.455.127-.056zm-1.515-50.702c1.628 3.61 3.596 4.899 6.272 4.63 2.039-.298 3.78-2.634 3.964-5.352.043-.95.015-2.025-.254-2.988-.27-1.274-1.048-2.322-2.025-3.129s-2.166-1.36-3.426-1.402c-1.331.142-2.436.793-3.484 1.572-.934 1.034-1.359 2.166-1.543 3.483.014 1.076.043 2.152.184 3.172h.312zM131.252 191.177c.283.652.58 1.289.425 1.982a5.1 5.1 0 0 1-.34 2.011c-.34.623-.68 1.246-1.274 1.657-.595.424-1.176.835-1.756.948-1.402.326-2.747.453-4.134.467-25.132.737-50.306 1.345-75.438 2.082a39 39 0 0 1-3.865.028c-.637-.028-1.26-.057-1.883-.396-.567-.213-1.048-.609-1.543-1.02-.496-.396-.78-1.048-1.02-1.557-.24-.51-.524-1.162-.368-1.855.028-.637.056-1.26.396-1.883.213-.566.61-1.048 1.02-1.544.41-.495.92-.722 1.557-1.019.51-.226 1.218-.396 1.855-.368 2.676-.269 5.465-.283 8.07-.368 23.475-.609 46.95-1.232 70.369-1.983 1.388 0 2.789 0 4.248.114a6.2 6.2 0 0 1 2.194.722c.68.467 1.232 1.005 1.572 1.77l-.071.184zM128.505 179.524c-1.076.014-2.804.326-4.333.397l-48.083 1.118c-9.514.241-18.901.425-28.473.538-1.387 0-2.789 0-4.304-.241-1.005-.169-1.869-.707-2.534-1.5-.666-.793-1.133-1.827-1.09-2.775-.086-.892.212-1.954.806-2.691.538-.863 1.388-1.401 2.35-1.67 1.162-.524 2.493-.652 3.767-.609 25.811-.581 51.764-1.218 77.632-1.671 1.529-.071 3.03.184 4.545.439.878.227 1.685.637 2.223 1.487.609.665.878 1.614.977 2.506.014 1.076-.34 2.01-1.005 2.931-.538.863-1.459 1.586-2.365 1.996zM48.366 235.409c1.02-.142 2.166-.354 3.242-.368 6.967-.029 14.13-.001 21.168.113 6.583.141 13.04.354 19.624.495l1.897.085c1.133.114 2.265.538 3.115 1.402s1.316 1.897 1.387 3.101-.354 2.336-1.02 3.256c-.665.921-1.769 1.572-2.873 1.911-.963.284-2.04.298-2.988.256-4.814 0-9.5-.071-14.187-.142-8.608-.17-17.217-.326-25.712-.552-1.26-.057-2.534-.099-3.78-.468-1.006-.169-1.742-.764-2.407-1.557-.666-.793-.949-1.756-1.034-2.648-.17-2.095.991-4.021 3.625-5.04l-.071.184zM96.776 221.874c.227.509.467 1.033.439 1.67.099.581.07 1.204-.142 1.77s-.424 1.119-.892 1.487a3.85 3.85 0 0 1-1.373 1.09 8.2 8.2 0 0 1-3.71.736c-13.323.397-26.646.807-39.97 1.204-1.203.07-2.28.099-3.483-.142-1.005-.17-1.869-.708-2.59-1.628-.666-.793-1.077-1.685-1.09-2.775a5.1 5.1 0 0 1 .948-3.073c.665-.934 1.642-1.515 2.605-1.798 1.09-.34 2.294-.41 3.37-.425 12.502-.495 25.075-.863 37.634-1.231 1.387 0 2.845.113 4.176.297a4.97 4.97 0 0 1 2.251.849c.68.468 1.162 1.19 1.501 1.969zM144.15 230.227c-1.02.141-2.166.354-3.242.368-8.311.17-16.75.382-25.061.552-1.204.071-2.351-.028-3.413-.325-.877-.227-1.741-.765-2.35-1.43-.665-.793-1.076-1.685-1.161-2.577-.141-1.02.156-2.082.694-2.945a4.29 4.29 0 0 1 2.421-1.87c1.161-.523 2.492-.65 3.71-.735 8.311-.17 16.749-.383 25.061-.553 1.203-.071 2.35.028 3.412.326 1.005.17 1.869.708 2.478 1.373.665.793 1.076 1.685 1.16 2.577.17 2.096-.863 3.95-3.568 5.182l-.127.057zM147.874 69.612c.226.51.524 1.16.495 1.798-.028.637-.056 1.26-.269 1.826-.212.567-.608 1.048-1.019 1.543-.453.368-.92.722-1.558 1.02-1.288.58-2.76.778-4.148.778-6.711-.084-13.295-.226-20.006-.325-1.076.014-2.265-.227-3.469-.453a4.36 4.36 0 0 1-2.577-1.94c-.722-.92-.934-2.067-.892-3.016.113-1.133.595-2.123 1.331-2.93s1.699-1.388 2.917-1.459l.382-.17c8.17.212 16.41.227 24.565.44.949.042 1.756.452 2.563.863.736.595 1.218 1.317 1.557 2.095l.128-.056zM146.981 92.52c.283.651.58 1.289.481 2.11.029.764-.127 1.458-.467 2.067s-.878 1.175-1.458 1.586l-1.94.864c-1.147.212-2.223.226-3.37.113-6.145-.184-12.332-.51-18.349-.75-1.076.013-2.266-.227-3.413-.326-1.147-.1-2.194-.722-3.044-1.586-.722-.92-1.189-1.954-1.132-3.214.056-1.26.538-2.266 1.33-3.242.864-.85 1.898-1.317 3.101-1.388.383-.17 1.02-.142 1.473-.198 7.461.368 14.866.609 22.2 1.047 1.077-.014 1.954.213 2.818.75a5.1 5.1 0 0 1 1.94 2.238l-.184-.07zM142.508 122.621c-1.019.142-2.095.17-3.044.128-6.895-.482-13.776-.949-20.657-1.43a8.4 8.4 0 0 1-2.577-.553c-.934-.354-1.855-1.033-2.393-1.868a4.97 4.97 0 0 1-.764-3.073c.17-1.005.467-2.067 1.26-2.732.736-.793 1.77-1.261 2.789-1.402 1.147-.213 2.28-.099 3.426.014 6.259.453 12.46.764 18.761 1.345 1.458.127 2.831.439 4.021.991.807.411 1.543 1.02 2.024 1.728.354.778.751 1.684.524 2.562a4.53 4.53 0 0 1-.991 2.62c-.595.736-1.387 1.401-2.294 1.812l-.056-.128z"/></svg>