<svg xmlns="http://www.w3.org/2000/svg" width="275" height="193" fill="none" viewBox="0 0 275 193"><path fill="#102185" d="M94.76 88.83c-4.29-5.282-9.344-9.883-12.671-15.476-15.306-25.726-2.351-60.938 25.91-71.02 24.225-8.678 50.575 7.731 54.454 34.463 3.03 21.223-4.389 38.27-22.031 50.787l-2.506 1.67c.751.496 1.388.822 2.181 1.175 38.086 10.506 63.289 35.411 79.09 70.666a192 192 0 0 1 6.527 18.066c1.926 6.4-.793 9.911-7.419 10.01-69.094 1.02-138.189 2.039-207.41 3.03-8.113.142-12.715-6.102-10.195-13.776 11.044-34.122 31.135-61.08 62.893-78.566 9.444-5.055 19.553-8.764 29.931-10.789.312-.056.652-.255.963-.325l.27.07zm16.311 15.588c-3.525 4.318-6.626 8.17-9.996 11.95-4.007 4.488-6.57 5.253-11.907 2.775-5.791-2.449-11.299-5.423-16.722-8.651-1.076-.878-2.45-1.246-3.752-1.317-1.302-.056-2.76.425-3.837 1.161-23.263 13.777-39.502 33.57-50.178 58.249-1.869 4.191-3.27 8.792-5.154 13.564 4.39.028 7.93-.043 11.568.071 26.137-.085 26.18-.213 47.516-15.546 18.478-13.465 35.015-29.507 48.791-47.772.878-1.076 1.416-3.582.92-4.445-2.265-3.554-4.601-6.825-7.249-10.039M86.704 38.071c-.51 2.945-1.02 5.89-1.203 8.764-.156 2.747 0 5.423.311 8.014 2.082 19.34 19.695 32.791 37.775 28.912 26.18-5.65 38.795-39.63 22.3-60.995a7.56 7.56 0 0 0-5.111-2.266c-4.899-.311-9.798.41-14.597-.297-10.266-1.614-19.653.524-28.997 5.168-2.676 1.175-4.9 2.916-6.697 5.224-1.799 2.294-3.087 4.885-3.696 7.646l-.099-.17zm36.062 142.591 92.386-1.43c-3.965-19.426-25.982-52.84-38.399-58.418-15.178 21.846-33.711 40.861-53.987 59.862zm46.625-66.248a93.1 93.1 0 0 0-24.679-12.29c-.552-.141-1.161-.028-1.685.269-.481.156-1.047.595-1.429.935-2.393 2.874-4.659 5.776-6.811 8.863-16.976 24.14-36.628 45.647-60.811 62.836-2.719 1.897-5.296 3.837-8.793 6.414 2.478.085 3.809 0 5.253.113 7.66-.113 15.475-.779 23.078-.184 10.223.722 18.138-3.582 24.906-10.095 15.107-14.527 30.342-29.025 42.745-46.044 2.576-3.553 5.267-6.938 8.368-10.789l-.142-.042zm-88.506-11.752-.057 1.303c3.738 1.897 7.349 3.752 11.115 5.522.41.113.821.226 1.302.057.453-.029.836-.354 1.048-.595 2.818-3.341 5.536-6.853 8.354-10.209l-.694-1.217-21.054 5.125zm51.693-3.978-13.224-1.543-.566 1.019 7.079 9.557zM247.164 26.913c.297 4.673.439 9.204.878 13.876.878 10.619 5.564 15.56 16.183 17.372 1.699.284 3.257.553 4.956.836 2.831.566 4.814 1.968 4.969 4.941 0 2.974-1.685 4.672-4.658 5.253-3.256.722-6.513 1.43-9.769 2.294-8.071 2.28-12.163 7.532-12.417 15.886-.27 7.787-.524 15.716-.793 23.503-.128 4.814-1.544 7.079-4.517 7.376-2.973.284-5.805-2.534-6.244-7.065-.58-5.238-.736-10.477-1.6-15.716-.864-5.805-2.152-11.61-3.724-17.26-1.996-6.937-6.824-10.887-14.47-11.014-1.133 0-2.265-.283-3.398-.694-3.115-.85-5.38-2.535-4.687-6.358.567-2.973 4.093-5.252 7.349-4.969 9.911.821 18.392-4.856 20.36-14.484 1.119-5.522 1.104-11.469 1.373-17.132.142-2.973-.439-5.947.269-8.778.284-1.7 2.252-3.965 3.668-4.12 1.699-.142 3.964 1.26 5.238 2.534.991 1.132 1.006 3.398 1.147 5.097.142 2.832 0 5.663.014 8.495h-.283l.142.141zm-15.207 34.859 8.241 12.445 8.764-9.076-8.665-9.896z"/><path fill="#102185" d="M117.811 61.8c-2.407.227-4.871-.439-6.966-1.897-1.869-1.246-3.724-2.478-5.522-3.993-.467-.424-.807-.807-1.105-1.33-.297-.524-.424-1.147-.41-1.728 0-.58.028-1.16.17-1.713.141-.552.438-1.062.849-1.53.283-.509.708-.976 1.232-1.273.524-.298 1.048-.595 1.628-.581.623-.128 1.204-.113 1.756.042.552.156 1.09.298 1.572.723 4.191 3.483 8.863 3.582 13.804 3.171 1.204-.113 2.436.227 3.285.892a4.07 4.07 0 0 1 1.685 2.96c.113 1.203-.043 2.335-.892 3.284-.708.977-1.614 1.614-2.86 1.87-2.761.424-5.607.679-8.425.792l.199.354zM106.201 35.452c1.019-2.662 2.902-4.206 5.805-3.554.679.184 1.231.34 1.84.793.468.424.949.85 1.246 1.359.297.51.567 1.175.51 1.897.127.623-.057 1.303-.212 1.855-.156.552-.34 1.232-.751 1.699-.424.467-.849.949-1.501 1.203s-1.175.567-1.897.51c-.623.128-1.302-.056-1.855-.212-2.874-.779-3.752-2.931-3.284-5.734l.099.17zM134.731 41.158c-.142.552-.439 1.062-.85 1.529-.41.467-.807.807-1.33 1.105-.524.297-1.147.424-1.728.41-.58 0-1.161-.028-1.713-.17-.552-.141-1.232-.34-1.699-.75-.467-.425-.949-.85-1.246-1.36s-.566-1.175-.552-1.77c-.128-.622.056-1.302.212-1.854s.34-1.232.751-1.7c.424-.466.849-.948 1.359-1.245s1.147-.425 1.77-.552 1.161.028 1.854.212a3.9 3.9 0 0 1 1.671.892c.467.425.949.85 1.204 1.5.297.525.566 1.176.509 1.898.128.623-.056 1.303-.24 1.982l.042-.141z"/></svg>