<svg xmlns="http://www.w3.org/2000/svg" width="230" height="233" fill="none" viewBox="0 0 230 233"><path fill="#102185" d="M1.106 75.194c3.185-14.385 10.59-27.467 21.082-37.93 14.71-14.938 32.409-24.665 52.274-30.767C94.907.366 116.513-1.49 137.779 1.2c17.797 1.997 35 7.632 50.49 16.82 16.778 9.883 30.115 23.263 37.067 41.854 6.782 17.981 5.253 35.58-3.101 52.67-8.084 16.423-20.898 28.43-36.26 38.044-.835.552-1.671 1.104-2.633 1.628-.638.311-1.161.779-1.445 1.444-.283.666-.552 1.331-.396 1.94-.977 22.767-2.096 45.506-3.186 68.103 0 1.444.156 2.775.156 4.219q.213 1.125-.425 2.081c-.283.666-.835 1.275-1.472 1.586-.666.439-1.416.58-2.138.58-.694-.141-1.529-.311-2.053-.552-1.02-.637-1.912-1.246-2.747-2.138a100186 100186 0 0 1-40.168-39.29c-5.791-5.649-11.596-11.284-17.359-17.075-.58-.694-1.5-1.175-2.279-1.614a9.3 9.3 0 0 0-2.775-.566c-25.4-.793-49.329-6.768-70.751-20.913-13.253-8.736-23.843-19.977-30.441-34.589-5.834-12.587-7.32-26.746-4.432-40.324l-.311.085zm168.587 142.45c.339-1.671.481-2.365.339-3.115.779-16.736 1.714-33.598 2.521-50.476.283-3.553.283-7.164.155-10.803-.24-4.53.043-5.196 4.262-7.518 15.362-8.169 27.879-19.369 36.317-34.702 8.439-15.348 10.18-31.163 4.404-47.644-4.319-12.276-12.021-22.06-21.946-30.13-13.862-11.454-30.158-18.066-47.588-21.875-8.325-1.684-16.764-2.803-25.259-2.93-26.18-.51-50.815 4.927-73.554 18.108-12.927 7.504-23.985 17.26-31.814 30.272C5.537 76.95 4.716 97.437 16.496 117.868c6.287 11.086 15.433 19.44 26.194 26.222 19.468 11.582 41.484 17.755 64.081 18.123 2.053-.17 3.993.226 5.891.892 1.883.665 3.525 1.869 4.828 3.285 13.111 13.04 26.391 25.981 39.672 38.907 3.993 3.837 7.844 7.646 12.559 12.205z"/><path fill="#102185" d="M87.926 102.364a92 92 0 0 0 3.186 5.692c3.044 4.941 7.264 9.118 12.063 12.544 4.828 3.285 10.124 5.65 15.787 6.938 5.692 1.147 11.582 1.317 17.302.17 5.692-1.02 11.199-3.228 16.056-6.584 1.161-.778 2.223-1.713 3.525-2.463.836-.552 1.884-.779 2.889-.722.977.198 2.053.552 2.747 1.415.693.864.934 1.784.849 2.917-.198.977-.552 2.053-1.388 2.605-1.939 1.77-4.148 3.356-6.456 4.772-21.011 12.516-49.3 8.113-65.37-10.294-3.908-4.247-6.952-9.203-9.204-14.569-.254-.92-.806-1.755-1.713-2.223a4.5 4.5 0 0 0-2.633-.538c-7.688.184-15.461.057-23.135.099-3.894-.056-6.131-1.812-6.046-4.403.056-2.45 2.393-3.993 6.145-3.964 6.527-.128 13.026-.114 19.666-.085 1.303-.029 2.478-.085 4.22-.156 0-4.332-.015-8.523.042-13.14-3.03-.028-5.89-.17-8.92-.212-3.172-.056-6.357.015-9.656-.07-1.034.085-1.997-.114-3.115-.34-.977-.198-1.912-.524-2.492-1.232s-.963-1.642-1.048-2.662c.057-1.005.425-2.081 1.147-2.803s1.7-1.246 2.69-1.19c.75-.141 1.472-.141 2.336-.113 5.919.043 11.851-.07 17.741.114.977.198 2.025-.029 2.86-.581a3.88 3.88 0 0 0 1.643-2.407c10.873-27.411 42.065-38.172 67.267-27.75 1.614.608 3.059 1.33 4.304 2.307.751.58 1.331 1.274 1.586 2.195s.227 1.784-.085 2.577c-.467.92-1.175 1.5-1.996 2.053-.949.382-1.826.495-2.803.297-1.501-.453-2.974-1.034-4.305-1.586-17.061-6.329-32.65-3.554-46.214 8.594-3.001 2.719-5.167 6.33-7.589 9.742-.722 1.444-1.288 2.774-1.868 4.247 1.529.311 2.661.396 3.808.481 13.139.043 26.265.1 39.262.114q2.166 0 4.248.424c.835.17 1.585.75 2.308 1.473.58.694.835 1.614.934 2.506-.17.835-.34 1.67-.892 2.28-.552.608-1.218 1.047-2.138 1.302-1.218.326-2.548.496-3.837.382-13.578 0-27.298 0-40.848-.141l-2.746.028c-2.606.057-2.945.27-3.172 2.832-.17 2.28-.057 4.616.043 6.938.297 3.525.41 3.695 3.879 3.667 4.913-.014 9.826-.043 14.612-.085l31.928-.057c.41.085.722 0 1.161-.057 1.161-.056 2.222.453 2.945 1.175.863.75 1.387 1.728 1.472 2.747.142 2.195-1.232 3.936-4.035 4.248a66 66 0 0 1-7.688.184c-12.304.113-24.707.071-37.011.198-1.19.198-2.534.354-4.715.496l.496-.326z"/></svg>