<svg xmlns="http://www.w3.org/2000/svg" width="174" height="373" fill="none" viewBox="0 0 174 373"><path fill="#102185" d="M62.326 169.91c-2.577.057-4.743.17-6.895.142-1.005 0-1.996 0-2.945-.425-1.118-.17-2.166-.892-2.874-1.854-.722-.963-.977-2.153-.949-3.285a6.65 6.65 0 0 1 1.317-3.101c.708-.892 1.784-1.458 2.974-1.713 2.619-.326 5.365-.51 8.084-.538 17.826-.552 35.623-.949 53.449-1.501 2.86 0 5.607-.184 8.467-.198 3.724-.029 6.117 2.18 6.23 5.352.113 3.171-2.478 5.224-6.23 5.394-2.166.113-4.304.085-6.895.142-.114 3.709-.326 7.107-.255 10.548-.227 22.144-.581 44.132-.807 66.276.113 2.166.085 4.304-.241 6.541-.736 3.045.481 5.508 1.841 8 16.523 30.88 33.188 61.788 49.711 92.682 2.024 3.724 4.063 7.462 5.946 11.171.68 1.246 1.048 2.592 1.274 4.05-.099.694-.197 1.402-.452 2.081-.255.68-.751 1.175-1.246 1.685-.496.51-1.119.835-1.87 1.019-.594.199-1.316.241-2.024.128-8.24-1.345-16.637-.708-24.905-.92-11.554-.255-23.107-.51-34.675-.624a7585 7585 0 0 1-25.429-.283c-9.996-.17-20.006-.198-29.988-.368-14.003-.184-27.977-.509-41.966-.694-2.704-.113-5.423-.07-7.76-1.698-3.256-2.195-4.034-4.744-2.35-8.354 1.048-2.28 2.52-4.503 3.852-6.74 18.774-32.607 37.718-65.327 56.521-98.062.821-1.742 1.232-3.54 1.218-5.409.127-7.702-.057-15.319-.071-23.05.07-17.16.142-34.32.24-51.622a99 99 0 0 1-.127-5.026l-.184.254zm96.293 191.198c-.41-1.062-.608-1.671-.976-2.152-10.917-20.332-21.805-40.819-32.707-61.151-.311-.764-.934-1.43-1.6-1.812-.665-.382-1.501-.51-2.378-.354-8.028.113-16.156-.071-24.17-.099-14.441-.099-28.756-.043-43.183-.156-1.119-.17-2.308.099-3.243.665-.948.581-1.77 1.317-2.209 2.393-9.457 16.792-19.156 33.259-28.77 50.037-1.94 3.44-3.865 6.881-6.159 10.831l145.381 1.897v-.141zm-53.477-192.387-32.055 1.048c-.028 3.143-.142 5.847-.1 8.566.043 2.718.185 5.607.213 8.325 5.013.014 9.472-.198 13.876.029l2.095.311c.694.099 1.345.623 1.84 1.133.496.495.978 1.147 1.176 1.741.34.623.382 1.345.41 2.067.029 2.719-2.293 4.956-5.62 5.182-1.742.17-3.583.043-5.452.057l-8.608.17-.028 10.01c1.26.184 2.265.184 3.242.326 2.237.325 4.687.255 6.91.722 1.26.184 2.322.764 3.171 1.755a4.97 4.97 0 0 1 1.218 3.469c-.184 1.26-.651 2.478-1.487 3.356-.835.878-2.067 1.416-3.228 1.529-1.727.028-3.582.042-5.423-.071-1.402-.198-2.662-.382-4.389-.354l-.057 10.152a65 65 0 0 1 4.56.099c4.006 0 7.886-.142 11.878.014 4.262.198 6.896 3.724 5.522 7.249-.438 1.076-1.288 1.954-2.237 2.535-.948.58-2.124.835-3.27.807-2.167.113-4.432-.071-6.57-.099-3.285-.057-6.584.042-9.897.127 0 4.871.227 9.189.014 13.592-.127 1.841-.51 3.498-1.317 5.098-4.304 7.957-8.735 15.758-13.167 23.545-.58 1.062-1.034 2.138-1.812 3.596l61.236.071c-.779-1.543-1.175-2.747-1.727-3.823-3.582-6.824-7.306-13.663-10.917-20.331-1.062-1.586-1.486-3.512-1.486-5.508.467-3.228.538-6.64.594-9.925.241-21.28.496-42.575.751-63.997.17-4.12.184-8.127.254-12.559h-.141zM122.785 92.887c.509 4.361.707 8.835.637 13.253-.652 10.35-6.089 19.142-15.433 22.356a21.4 21.4 0 0 1-9.034 1.119c-3.129-.17-6.144-1.034-8.778-2.563-3.483-1.656-6.598-3.823-9.5-5.536-2.69 1.756-5.395 3.653-8.085 5.409-8.212 5.238-17.061 7.093-26.548 4.431-5.479-1.656-10.434-4.955-13.762-9.599-3.469-4.658-5.38-10.223-5.394-15.957-.042-6.584 1.628-13.068 4.885-18.746.58-1.062 1.33-2.237 1.954-3.582a13 13 0 0 0-1.218-1.473c-14.4-12.12-15.433-34.447-.878-48.917 8.693-8.609 19.1-12.233 32.933-10.93l2.195-3.257C71.53 11.716 77.534 5.869 85.632 2.329c12.672-5.451 25.627-1.119 32.48 10.746a35.5 35.5 0 0 1 4.573 17.699c-.028 1.146-.042 2.28.043 3.582 2.265 1.19 4.517 2.378 6.782 3.568A31.06 31.06 0 0 1 141.7 50.44c2.974 5.154 4.092 11.185 3.37 17.09-.863 5.89-3.384 11.383-7.575 15.63-3.369 3.512-7.362 6.372-11.935 8.27-.906.296-1.699.891-2.464 1.217l-.326.24zM63.007 32.94c-10.931-1.6-20.828 2.534-26.831 11.256-6.556 9.628-6.499 23.942 5.833 31.616.92.566 1.7 1.105 2.436 1.926 1.274 1.047 1.911 2.562 2.11 4.176.197 1.614-.468 3.229-1.516 4.503-.538.779-1.359 1.515-1.925 2.435-3.681 4.616-5.635 10.194-5.635 16.056-.043 8.155 4.488 14.385 12.346 16.396 4.446.934 8.948.453 13.097-1.515 4.276-1.813 7.985-4.701 10.944-8.283 3.582-3.908 7.462-4.064 11.37-.481a41.3 41.3 0 0 0 6.952 5.309c10.307 5.805 19.156 1.076 20.162-10.647.212-4.404-.298-8.764-1.544-12.955-1.331-4.63.227-7.405 4.616-9.062 1.175-.255 2.251-.68 3.313-1.09 3.073-1.416 5.876-3.002 8.58-4.899 1.954-1.572 3.512-3.497 4.701-5.748a16.2 16.2 0 0 0 1.897-7.165 21.3 21.3 0 0 0-1.076-7.305c-.821-2.266-2.209-4.475-3.964-6.16-2.62-2.675-5.593-4.828-9.119-6.2-1.486-.652-2.817-1.275-4.162-1.898-1.359-.481-2.662-1.388-3.469-2.648s-1.034-2.732-.807-4.262c.184-1.26.227-2.548.128-3.837-.071-3.44-.581-6.81-1.374-10.222-3.157-10.76-12.474-14.555-22.54-9.302-.78.453-1.572.92-2.35 1.373a37.4 37.4 0 0 0-11.455 12.785c-2.28 4.531-5.904 6.443-10.846 5.72l.114.156z"/></svg>