<svg xmlns="http://www.w3.org/2000/svg" width="248" height="405" fill="none" viewBox="0 0 248 405"><path fill="#102185" d="M54.494 267.067c-4.672-4.672-9.344-8.778-13.45-13.309-16.141-17.84-25.344-40.777-26.052-64.846-1.275-32.707 10.194-60.741 33.697-83.536 20.53-19.964 45.45-30.158 74.192-30.016 27.609 0 51.254 10.194 71.076 29.45 17.698 17.273 27.043 38.37 29.733 62.722 4.814 43.75-18.548 87.217-57.909 107.747-19.539 10.478-41.909 14.3-63.855 11.044-2.69-.425-3.965.425-5.097 2.69-7.93 15.716-16.141 31.29-23.928 47.007-4.956 10.052-9.628 20.105-14.725 30.157-4.248 8.495-8.92 16.849-13.734 24.919-1.983 3.399-4.531 6.513-7.646 9.062-2.407 1.982-5.239 3.398-8.212 3.964-2.973.567-6.23.284-9.061-.849-5.24-1.841-10.053-4.814-13.876-8.778-5.38-5.664-7.08-12.318-4.39-19.539 2.833-7.646 5.664-15.433 9.346-22.796 7.504-15.716 15.29-31.432 23.361-46.865 5.947-11.61 12.602-22.937 18.973-34.405.566-1.133 1.133-2.549 1.84-3.823zm159.993-89.907c0-1.84 0-2.973-.283-4.247-1.274-23.362-9.769-44.175-26.335-60.458-27.043-26.618-59.608-33.98-95.571-22.37-45.732 14.725-74.9 62.156-66.546 110.72 9.062 53.661 60.316 87.5 113.128 74.474 29.025-7.079 50.405-24.636 64.422-50.971 7.646-14.442 11.468-30.724 11.185-47.148M62.565 272.872c-4.39 7.646-9.062 15.291-13.31 23.079-11.893 22.37-23.928 44.599-33.98 67.819-2.124 4.956-3.681 10.053-5.38 15.15a7.03 7.03 0 0 0 0 4.814 8.4 8.4 0 0 0 2.548 4.106c1.416 1.416 2.832 2.549 4.39 3.681 7.362 5.097 12.742 4.106 18.122-3.256.567-.708.992-1.416 1.416-2.266 5.664-10.619 11.61-21.238 17.132-31.998 4.39-8.495 8.07-17.415 12.46-26.052 5.663-11.468 11.61-22.937 17.557-34.264 1.557-3.115 3.398-6.229 4.955-9.486l-25.627-11.468zM222.699 9.664c-1.416 8.778 1.841 15.291 8.637 20.247 3.681 2.69 7.079 5.38 11.752 6.23.991 0 1.982.566 2.69 1.274s1.274 1.699 1.416 2.69c.283 2.265-.85 3.823-2.69 5.097-7.221 4.53-12.602 10.902-17.274 17.84-2.832 3.964-3.681 8.778-4.531 13.45-.708 3.682-1.133 7.363-1.699 11.044s-2.548 5.664-5.239 5.522c-2.69 0-4.389-2.549-4.672-5.947-.85-7.504-1.699-15.008-2.832-22.512-1.274-7.787-6.796-11.327-14.017-12.884a26.7 26.7 0 0 1-4.814-1.274c-.849-.425-1.699-.991-2.265-1.84s-.85-1.7-.991-2.691c0-.991.141-1.982.708-2.832.424-.85 1.274-1.557 2.124-1.982 1.557-.85 3.256-1.557 4.955-2.124 10.902-3.256 16.566-10.76 17.982-21.662.424-3.682.991-7.363 1.557-11.044 0-.991.425-1.982.708-2.973.283-1.133.991-1.983 1.841-2.549.991-.566 1.982-.85 3.115-.708 1.132.142 1.982.85 2.69 1.7.708.849.991 1.981.991 3.114v5.097zm-4.955 20.955c-1.275 3.114-3.115 6.088-5.522 8.495s-5.239 4.389-8.354 5.663c7.221 3.398 11.469 8.212 13.168 15.15a3127 3127 0 0 0 14.583-17.557L217.885 30.62z"/><path fill="#102185" d="M117.925 261.404c-3.681-.283-7.362-.708-11.043-.849-3.399 0-6.089-1.983-8.92-3.115-5.239-2.266-10.336-4.531-15.717-6.372-6.088-2.123-11.61-5.521-16.282-9.911-11.752-11.043-20.105-24.069-24.211-39.644-5.805-21.945-3.115-43.042 8.07-62.581 14.442-25.202 36.53-39.502 65.555-42.617 32.848-3.54 65.554 15.008 79.996 44.741 20.389 42.334 1.416 94.58-43.608 113.552-10.761 4.531-22.23 6.796-33.84 6.655zm-7.079-86.509-.849.991c.707 1.133 1.557 2.124 2.406 3.257 1.416 1.557 3.115 3.115 4.673 4.672 1.982 2.124 2.548 4.248 1.557 6.23-1.132 2.124-3.256 2.973-6.23 2.548l-4.106-.707c3.823 8.919 10.336 13.309 18.548 15.432 7.221 1.841 14.725 2.266 22.229 1.275 1.416-.284 2.974 0 4.248.566 1.274.708 2.407 1.699 2.973 3.115.425.849.85 1.557 1.275 2.407 3.115 6.513 6.088 12.884 9.486 19.963 14.3-12.318 23.078-27.326 26.193-45.59 2.691-15.008.284-30.441-6.513-44.175-.707.566-.991.708-1.132.991-5.805 11.185-15.15 16.849-27.468 17.415-1.982 0-2.549 1.133-3.257 2.69-3.398 7.929-10.618 10.902-18.689 7.504-3.681-1.699-7.221-3.822-10.619-6.088-2.124-1.416-4.106-3.398-6.938-3.539 0 .707-.283 1.274 0 1.557a81 81 0 0 0 3.682 5.805c1.699 2.69 1.557 5.38-.284 7.079s-4.389 1.558-6.937-.425c-1.275-1.132-2.691-1.982-3.965-2.831zm2.548-37.52c-.991 1.841-1.415 2.832-1.982 3.823-2.123 4.247-5.38 7.787-9.344 10.336-3.965 2.69-8.495 4.247-13.168 4.672-4.955.566-4.955.425-6.371 5.239-.142.566-.283 1.274-.567 1.84-.566 1.274-.708 2.549-.566 3.965.141 1.415.708 2.548 1.416 3.681 4.672 7.645 5.663 15.857 3.681 24.494-.283 1.558-.85 3.257-1.274 5.097 9.77 4.248 15.291 12.46 20.388 20.955 4.389 7.079 8.92 14.159 13.168 21.238 1.699 2.832 2.973 5.805 4.672 9.061 11.327-.566 22.229-3.681 31.999-9.344 2.69-1.558 2.973-2.124 1.699-4.956-2.407-5.663-5.097-11.185-7.646-16.849-.283-.707-.708-1.274-1.416-1.699q-1.062-.637-2.124-.424c-4.814 0-9.769 0-14.583-.425-6.371-.425-12.743-2.549-18.123-5.947-6.796-4.389-12.035-9.911-14.3-17.981-.567-1.699-.708-3.398-.283-5.097.283-1.699 1.132-3.257 2.265-4.673.425-.566.849-1.274.991-1.982 0-.708 0-1.557-.283-2.124a33.2 33.2 0 0 1-1.274-7.504c0-3.964 1.84-6.371 5.663-7.787l2.265-.708c.142-.991.284-1.84.567-2.69 1.416-6.654 5.663-9.203 12.176-7.362q6.16 1.911 11.044 5.946c2.407 1.841 5.097 3.398 7.929 4.673 2.973 1.274 4.814 0 5.522-2.974-.283-.283-.567-.424-.85-.708-8.212-3.256-15.008-9.344-18.831-17.273-.283-.708-.708-1.416-1.416-1.841-3.539-1.416-7.079-2.831-10.76-4.53zm42.335 16.424c12.035.141 20.955-7.221 22.654-17.84.283-.991.141-2.124 0-3.115-.283-.991-.85-1.982-1.558-2.69-6.088-6.371-13.026-12.035-20.671-16.424-6.088-3.823-10.761-2.265-15.716 1.558-7.504 5.946-10.053 15.008-6.23 23.786 4.247 9.911 12.318 14.3 21.521 14.866zM62.14 221.76c9.062 15.858 34.123 29.733 49.98 28.884 0-.425 0-.708-.283-1.133-6.513-10.336-12.743-20.813-19.539-31.007-2.124-3.54-5.239-6.372-8.92-8.354-2.124-1.133-3.54-1.133-5.238.85-3.115 3.681-6.938 6.513-11.327 8.495-1.416.849-2.974 1.416-4.814 2.124zm-9.628-17.84c.991 2.407 1.558 4.248 2.266 5.947 1.274 2.973 1.982 3.256 4.955 2.265a25.57 25.57 0 0 0 13.734-10.619c3.257-4.955 4.672-10.902 4.106-16.848-1.416-12.602-11.893-20.955-24.211-19.114-1.982.283-4.106.566-4.106 3.114 0 3.398-2.69 7.363.85 10.336 3.68 2.973 3.822 5.947.707 9.062-2.69 2.548-2.407 4.389 1.133 5.38 1.557.283 3.257.283 4.814 0 .991 0 1.982-.708 2.973-.991s2.124-.283 2.974.141c.99.425 1.699 1.133 2.265 2.124.566.85.708 1.982.425 2.974-.284.991-.85 1.982-1.7 2.548-2.123 1.274-4.53 2.407-6.937 3.115a23.5 23.5 0 0 1-4.53.425zm52.812-78.155c-.141-2.407-.849-4.814-1.841-6.938-1.132-2.124-2.548-4.106-4.389-5.805-.85-.849-1.84-1.416-2.973-1.557s-2.265 0-3.257.566c-7.787 3.681-15.008 8.495-21.238 14.442-.708.708-1.274 1.416-1.557 2.407-.283.849-.425 1.84-.283 2.831.566 3.54 2.124 6.938 4.53 9.628a16.8 16.8 0 0 0 9.204 5.239c11.185 2.265 21.946-7.221 21.804-20.672zm17.415 3.964c.284-4.389 1.416-8.636 3.398-12.459a29.5 29.5 0 0 1 8.354-9.911c-6.655-2.832-22.371-2.407-26.618.708 3.256 3.964 5.522 8.636 6.513 13.733.283 2.124 0 4.814 1.274 6.23 1.274 1.275 3.964 1.416 6.088 1.982.283 0 .708 0 .991-.141zm-47.714 24.353c-2.832-1.982-5.38-4.248-7.788-6.654-2.123-2.691-4.106-5.381-5.946-8.212-3.681 4.389-7.504 12.176-7.93 16.565 6.655-.425 13.31.991 19.257 4.248z"/><path fill="#102185" d="M156.012 147.427c-1.699-.283-3.398-.849-5.097-1.557a4.48 4.48 0 0 1-1.982-1.983c-.425-.849-.425-1.84-.142-2.831.142-.85.708-1.699 1.275-2.266.708-.566 1.557-.991 2.407-.991.708 0 1.557-.141 2.265 0 1.133.142 2.407 0 3.54-.425 1.132-.566 1.982-1.274 2.69-2.407 1.841-2.69 4.531-3.114 6.654-1.84q1.7 1.274 2.124 3.398c.142 1.416 0 2.69-.849 3.823a13.5 13.5 0 0 1-5.522 5.38c-2.266 1.274-4.814 1.982-7.504 1.841zM159.835 121.8c.567 0 1.275 0 1.841.425.566.283 1.133.566 1.557 1.132.425.425.85.991.991 1.558.284.566.284 1.274.284 1.84 0 1.275-.567 2.407-1.416 3.257-.85.849-1.983 1.274-3.257 1.416a4.53 4.53 0 0 1-3.398-1.558c-.849-.991-1.416-2.124-1.274-3.398 0-.566 0-1.274.283-1.84s.566-1.133.991-1.558.991-.708 1.557-.991c.567-.283 1.133-.283 1.841-.283M147.658 128.171q.85 0 1.699.425c.567.283.991.566 1.416.991s.708.991.991 1.557c.283.567.283 1.133.283 1.841 0 .566 0 1.274-.283 1.84s-.566 1.133-.991 1.558-.991.849-1.557.991c-.567.142-1.133.283-1.841.283a4.35 4.35 0 0 1-1.841-.425c-.566-.283-1.132-.566-1.415-1.132-.425-.425-.708-.991-.992-1.558-.141-.566-.283-1.274-.283-1.84s0-1.275.425-1.699c.283-.567.566-1.133.991-1.416.425-.425.991-.708 1.558-.991.566-.284 1.132-.284 1.84-.284zM67.38 184.098c0 1.133-.567 2.407-1.417 3.115-.85.849-1.982 1.274-3.256 1.274-1.133 0-2.266-.566-3.115-1.416-.85-.849-1.274-1.982-1.274-3.256s.708-2.265 1.557-3.115c.85-.85 2.124-1.133 3.257-1.133 1.132 0 2.265.567 2.973 1.416a4.95 4.95 0 0 1 1.132 3.115zM87.201 143.888c-2.832 0-4.955-1.699-5.239-4.106s1.133-4.248 4.106-5.239c1.7-.566 3.257-1.274 4.956-2.124 2.832-1.416 5.097-1.133 6.513.85 1.557 1.982 1.132 4.672-1.133 6.796-2.548 2.265-5.663 3.539-9.061 3.681zM79.98 134.259c-1.275 0-2.407-.566-3.257-1.415s-1.415-1.983-1.415-3.257.424-2.407 1.274-3.256c.85-.85 1.982-1.416 3.256-1.416 1.275 0 2.407.566 3.257 1.416.85.849 1.274 2.123 1.274 3.256 0 .566 0 1.274-.283 1.841-.142.566-.567 1.132-.991 1.557s-.991.85-1.416.991c-.566.283-1.133.283-1.7.283M96.97 123.357c0 .566 0 1.133-.283 1.557-.141.567-.424.992-.849 1.416-.425.425-.85.708-1.274.991s-.991.284-1.558.425c-.566 0-1.133 0-1.699-.141-.566-.142-.991-.425-1.416-.85s-.708-.849-.99-1.416q-.426-.85-.426-1.699c0-.566 0-1.133.284-1.699.283-.566.566-.991.99-1.416s.85-.708 1.416-.991c.567-.283 1.133-.283 1.7-.283.566 0 1.132 0 1.557.283.425.142.991.566 1.274.85.425.424.708.849.85 1.416.283.566.283.991.283 1.557z"/></svg>