<svg xmlns="http://www.w3.org/2000/svg" width="285" height="175" fill="none" viewBox="0 0 285 175"><path fill="#102185" d="M178.418 125.109c-3.95-.523-7.207-.892-10.449-1.401-2.818-.354-5.494-1.416-7.858-3.03-2.365-1.614-4.29-3.795-5.508-6.23-2.846-5.168-2.081-12.941 5.791-16.282a15.84 15.84 0 0 1 7.264-1.515c2.548.07 4.941.552 7.319 1.6 2.238 1.047 4.333 2.237 6.995 3.582-.482-3.13-.694-5.961-1.473-8.821-1.161-4.276.199-7.787 3.257-10.959-3.158-9.713-6.315-19.425-9.458-29.28a3858 3858 0 0 1-7.872-24.565c-.397-1.147-.652-2.138-.906-3.285-.114-1.274.056-2.407.651-3.525a5 5 0 0 1 2.747-2.336 4.7 4.7 0 0 1 3.397.084c1.119.454 1.954 1.19 2.492 2.181.807 1.43 1.346 3.002 1.869 4.573 2.238 6.711 4.333 13.423 6.429 20.134.254.99.665 1.854 1.061 3.001 17.883-6.91 35.864-12.403 53.605-19.75-2.251-6.146-4.517-12.007-6.626-17.869-.524-1.43-1.062-2.86-1.444-4.432a6.32 6.32 0 0 1 .099-3.964c.594-1.26 1.472-2.223 2.761-2.761 1.288-.396 2.562-.354 3.822.24 1.261.595 2.082 1.473 2.62 2.762 1.883 4.148 3.327 8.296 4.927 12.445a3429 3429 0 0 1 13.012 34.462c.396 1.005.807 1.855 1.203 3.002 4.829-.722 7.306 2.166 9.048 6.173 2.661 6.584 5.338 13.026 7.716 19.737 3.314 9.005 6.06 18.279 8.085 27.538.75 3.696 1.373 7.264 1.557 11.086.241 7.377-2.761 13.805-7.702 19.214a41.1 41.1 0 0 1-10.265 8.098c-7.334 4.206-14.527 8.694-22.116 12.333-7.32 3.638-15.037 6.413-22.611 9.486-4.007 1.6-8.156 3.2-12.304 4.644-7.15 2.789-14.966 3.865-22.597 3.256-3.54-.085-6.91-1.302-9.826-3.228-2.931-1.911-5.268-4.516-6.896-7.532-2.449-4.021-3.752-8.594-3.78-13.125-.028-4.673 1.218-9.175 3.455-13.224 1.33-2.379 2.803-4.602 4.276-6.839 1.189-1.954 2.506-3.766 3.978-6.131l.269.439zm91.309-26.434c-.963-6.824-9.175-29.266-11.78-32.451-22.583 8.07-44.359 17.995-67.622 24.777 1.175 3.71.807 7.391 2.563 10.832l7.009-2.945c5.012-1.997 9.882-4.276 14.88-6.145 1.289-.538 2.705-.496 3.965-.043s2.364 1.473 2.902 2.62c1.062 2.577.156 5.239-2.718 6.725-1.572.807-3.299 1.473-4.871 2.138l-20.898 8.962-.099 3.682 3.143-.907 20.134-6.286c1.996-.651 4.276-1.019 6.4-1.26 1.132-.113 2.265.057 3.1.793.836.594 1.515 1.6 1.77 2.732.255.992.227 2.124-.212 2.974-.312.977-1.034 1.812-1.898 2.364a18.7 18.7 0 0 1-3.44 1.614c-10.704 3.413-21.55 6.683-32.268 10.095-.849.255-1.571.666-2.152 1.36-2.789 4.176-5.593 8.353-8.254 12.544-1.629 2.648-2.421 5.89-1.926 9.019l1.557.043c2.705-.779 5.423-1.558 8.128-2.351 14.979-4.573 29.577-10.307 43.622-17.033 4.446-2.152 8.482-5.026 12.927-7.178 1.869-.948 3.314-2.463 4.22-4.431 1.189-2.238 2.237-4.616 3.568-6.853 4.431-6.966 9.26-13.224 18.08-14.838 0 0 .142-.142.283-.27l-.127-.283zm-76.244-20.204c3.979-.467 49.159-17.174 55.176-20.275-2.251-6.145-4.361-12.29-7.037-18.449L187.31 59.201c2.095 6.711 4.205 12.998 6.314 19.143l-.141.141zm78.679 30.314a8.8 8.8 0 0 0-6.017 2.675c-3.186 2.889-5.834 6.655-7.49 10.719-3.03 7.716-9.09 12.233-16.112 15.744-3.158 1.472-6.174 3.101-9.317 4.446-5.876 2.69-11.751 5.649-17.896 7.9-7.575 2.931-15.292 5.423-22.867 8.057a290 290 0 0 1-10.859 3.553c1.104 1.161 2.364 1.898 3.766 2.506 1.401.609 2.945.921 4.375.822 5.38.141 10.789-.864 15.787-2.719 12.714-4.488 25.316-9.84 37.365-15.773a312 312 0 0 0 17.528-9.613c2.732-1.628 5.323-3.554 7.787-5.749 2.903-2.902 4.984-6.668 5.649-10.619.666-4.091.213-8.212-1.684-11.935zm-93.178 5.012c-3.313-3.483-6.654-5.834-10.888-6.513-.849-.17-1.699-.043-2.407.226a3.97 3.97 0 0 0-1.883 1.515c.113.85.524 1.713 1.076 2.435.552.723 1.388 1.176 2.237 1.331 3.795 1.374 7.887 1.615 11.865 1.006M26.736 57.7c.057-2.124.24-3.682.425-5.367.056-2.123.807-4.091 2.124-5.748 1.175-1.67 2.76-3.044 4.771-3.851 1.855-.807 3.993-1.175 5.975-.836 1.983.199 3.936 1.09 5.607 2.407 5.833 4.531 9.373 10.01 9.048 17.656l-.1 3.965c2.195-2.917 3.95-4.998 5.565-7.08a23.6 23.6 0 0 1 3.638-3.879c1.303-1.104 2.733-1.77 4.446-2.01 2.124.056 2.86-1.204 3.61-2.747 3.583-7.42 7.18-14.839 10.761-22.102 2.535-5.04 4.928-10.208 7.462-15.249a10.4 10.4 0 0 1 1.77-2.93c.58-.836 1.586-1.374 2.59-1.629 1.006-.255 2.125-.226 2.974.071.835.453 1.67 1.034 2.082 1.897.396.864.665 1.855.495 2.846-.326 1.685-.935 3.37-1.685 5.055A1137 1137 0 0 1 90.96 33.7c13.422 6.71 26.717 13.139 40.876 19.015.595-.977 1.048-1.954 1.487-2.931 2.279-6.173 4.417-12.346 6.697-18.52.467-1.401 1.062-2.661 1.656-3.922.595-.976 1.317-1.812 2.322-2.208s2.138-.51 3.257-.199c1.118.312 2.095 1.048 2.633 2.054a5.52 5.52 0 0 1 .623 3.412 14.8 14.8 0 0 1-.934 3.37C145.004 46.4 140.303 59.03 135.73 71.66c-.156.566-.312 1.26-.623 1.968.269.283.693.722 1.104.878 1.118.594 2.081 1.472 2.634 2.478.538 1.146.793 2.279.481 3.553-.368 3.526-1.317 7.051-2.393 10.421-4.092 10.661-8.325 21.323-12.7 31.828-1.968 4.772-4.205 9.388-6.584 13.862-2.817 5.168-6.485 9.897-10.973 13.748-4.191 3.582-9.486 5.706-15.037 6.272-6.824.963-13.309-.34-19.793-1.628-17.189-3.554-34.052-8.793-50.164-15.716-5.607-2.407-10.62-5.791-14.895-10.152-8.297-8-8.481-17.358-3.285-26.986C6.63 96.31 11.827 91.921 17.986 89.67c.85-.255 1.572-.666 2.435-1.076 0 0 0-.284.298-.553-.977-.453-2.096-.906-3.087-1.359a20.58 20.58 0 0 1-10.944-9.77c-1.487-2.59-2.124-5.436-1.912-8.41.071-2.973 1.275-5.776 2.889-8 2.789-4.176 9.075-6.002 14.144-4.6 1.543.466 3.087 1.217 5.055 1.826h-.142zM128.65 82.788c-3.1-.65-5.918-1.146-8.736-1.783-11.695-2.138-23.234-5.267-34.462-9.232-4.771-1.826-9.387-4.205-13.408-7.419-.694-.58-1.388-1.02-2.365-1.755-3.058 3.468-5.989 7.206-8.495 11.114.552.58 1.246 1.16 1.94 1.6a1162 1162 0 0 0 18.152 10.095c1.118.595 2.236 1.19 3.213 1.925.694.581 1.246 1.303 1.501 2.167.255.85.24 1.84-.07 2.69-.312.85-.75 1.685-1.473 2.223-.722.538-1.572.807-2.577.92-1.274-.028-2.548-.07-3.808-.665-1.968-.765-3.781-1.657-5.593-2.69-5.168-2.96-10.194-5.919-15.362-8.892a30 30 0 0 1-2.237-1.048l-4.517 5.126c1.246 1.019 2.209 2.038 3.327 2.775 4.588 3.228 9.33 6.329 14.074 9.415 1.26.736 2.648 1.628 3.752 2.648.552.439.963.878 1.373 1.586.27.566.538 1.288.51 1.996s-.042 1.416-.34 1.968c-.297.694-.594 1.26-1.175 1.671-.878.821-1.869 1.232-3.143 1.331-1.133-.029-2.251-.34-3.228-1.076-6.683-4.418-13.239-8.836-19.78-13.395-1.246-.877-2.364-1.897-3.469-2.916-3.71.892-6.98 1.67-10.123 2.435-3.993 1.034-7.986 1.926-11.837 3.1-3.001 1.063-5.592 2.974-7.362 5.622 1.26.594 2.237 1.047 3.086 1.359 3.78 1.515 7.717 3.03 11.497 4.403 8.566 3.044 17.132 6.103 25.684 9.147 5.89 2.138 11.794 4.261 17.826 6.258 3.794 1.373 7.744 1.897 11.723 1.43 3.554-.482 7.108-1.09 10.661-1.713 5.395-.708 10.662-1.43 15.986.552.566.014 1.132.17 1.698.184 3.809-5.14 16.524-37.11 17.387-43.467l.142.283zM9.86 114.49c-.03 1.132-.058 2.407.339 3.412.396 1.147 1.076 2.152 1.911 2.874 4.135 4.63 9.289 8.17 15.179 10.293 15.985 6.358 32.267 12.007 49.2 14.839 5.225.835 10.436 1.684 15.703.679 2.987-.637 5.72-1.982 8.169-3.908 2.308-1.925 4.22-4.431 5.565-7.22-2.096-1.048-4.361-1.388-6.782-.878-4.404.594-8.807 1.189-13.366 1.925-5.126 1.006-10.492.581-15.56-.963a247 247 0 0 1-13.48-4.587c-5.89-2.138-11.78-4.403-17.684-6.683-6.456-2.435-13.054-4.573-19.51-7.008-2.52-.921-5.055-1.827-7.575-2.747-.708-.014-1.416-.184-2.124-.198v.141zm69.575-57.442c5.805 5.522 37.28 15.39 45.662 14.47 1.061-2.945 2.137-6.031 3.355-9.26l-41.994-19.61-6.882 14.556-.141-.142zM34.368 80.552c-3.412-5.041-7.405-9.67-11.978-13.621a9.2 9.2 0 0 0-1.954-1.19c-3.78-1.514-6.527.539-5.919 4.531.255 1.133.652 2.138 1.331 3.143 1.36 2.011 3.313 3.625 5.692 4.39 2.803.92 5.62 1.699 8.439 2.336 1.415.184 2.959.354 4.375.396zm8.382-6.443c1.387-4.36 2.067-9.019 2.18-13.535.113-4.517-2.251-6.145-4.899-8.198-.269-.283-.552-.439-.977-.453s-.708-.014-1.132.113c-.283.127-.581.41-.864.68-.156.283-.297.694-.312.977-.325 1.543-.353 2.959-.113 4.53.85 5.409 3.143 10.28 5.975 15.872h.142z"/></svg>