<svg xmlns="http://www.w3.org/2000/svg" width="277" height="232" fill="none" viewBox="0 0 277 232"><path fill="#102185" d="M250.374 65.015c3.398 0 5.381 1.699 5.664 4.389.283 2.832-1.558 5.097-4.956 5.663-6.371 1.133-12.884 2.124-19.397 3.115-1.841.284-3.823.567-5.664.708-3.114.142-5.238-1.416-5.805-3.964a4.7 4.7 0 0 1 0-1.983c0-.708.425-1.274.708-1.84.425-.566.85-.991 1.416-1.416s1.274-.566 1.841-.708c3.398-.85 6.796-1.416 10.194-1.84 4.955-.85 9.911-1.558 14.867-2.266h1.132zM92.647 124.198c0 1.133-.283 2.124-.85 3.115-.566.849-1.415 1.557-2.548 1.982q-1.486.638-2.974 0-1.486-.424-2.548-1.699c-.708-.85-1.133-1.699-1.558-2.69-2.973-8.07-5.946-16.282-8.92-24.494-.283-1.133-.566-2.266-.566-3.399 0-.99.142-1.982.708-2.69.566-.85 1.274-1.415 2.265-1.699.992-.424 1.983-.425 2.974-.141.991.283 1.84.85 2.548 1.557.708.85 1.133 1.7 1.558 2.69 3.115 8.212 6.088 16.566 9.203 24.919.283.85.425 1.841.566 2.69zM186.236 34.432q0-1.7.849-2.973c.567-.85 1.558-1.558 2.549-1.84q1.487-.639 2.973 0c.991.282 1.841.99 2.407 1.84a18.5 18.5 0 0 1 2.265 4.389c1.416 3.256 2.832 6.513 3.965 9.91.425 1.275.425 2.55 0 3.682-.425 1.275-1.416 2.124-2.549 2.69a4.36 4.36 0 0 1-1.84.425c-.708 0-1.275 0-1.841-.283-.566-.142-1.133-.566-1.699-.991a6.3 6.3 0 0 1-1.133-1.558c-2.123-4.53-3.822-9.203-5.805-13.733-.141-.567-.283-1.133-.283-1.558z"/><path fill="#102185" d="M37.003 96.589c-1.699-6.088-3.398-12.035-5.238-18.123-2.266-8.07-4.673-16-7.08-23.928-.283-1.133-.708-2.266-.85-3.398-.282-1.275-.14-2.549.426-3.54a4.97 4.97 0 0 1 2.69-2.407c1.557-.85 3.256-1.416 5.097-1.84 46.016-11.186 92.031-22.23 138.047-33.273 13.309-3.257 26.618-6.372 40.069-9.628 4.955-1.133 6.796-.283 8.778 4.247 5.664 13.026 11.327 26.052 16.991 39.22.566 1.274 1.132 2.548 1.84 3.964 3.823-.425 7.646-.566 11.469-1.133 3.822-.708 7.787-.424 11.61.85 3.823 1.133 7.221 3.256 10.052 5.946 3.823 3.54 4.814 8.071 5.097 12.885.708 9.061-.707 17.981-2.406 26.76-4.106 21.379-8.213 42.9-12.319 64.28-.849 4.672-1.982 9.344-3.114 13.875-.142 1.133-.708 2.265-1.558 2.973a6.3 6.3 0 0 1-2.973 1.699 2656 2656 0 0 0-44.6 13.168 24204 24204 0 0 0-134.224 41.202c-5.239 1.557-8.637 1.557-12.884-5.664-4.956-8.354-9.487-17.132-14.159-25.627-15.15-27.751-30.158-55.502-45.308-83.253-.708-1.274-1.416-2.69-1.982-4.106-1.416-3.822.425-6.371 4.39-7.221 10.477-2.265 20.812-4.53 31.148-6.937.425-.142.85-.425 1.275-.708zm40.07 121.764c2.123-.567 3.256-.708 4.53-1.133 20.955-6.371 41.91-12.885 62.865-19.256 33.272-10.194 66.404-20.388 99.677-30.441 1.415-.283 2.831-.991 3.822-2.124.992-1.132 1.699-2.548 1.699-3.964 1.558-8.778 3.398-17.557 5.098-26.477 3.398-17.839 6.796-35.537 10.052-53.236 1.133-5.38 1.416-11.044.425-16.566-.283-1.982-1.274-3.822-2.832-5.238a13.1 13.1 0 0 0-4.247-2.549c-1.558-.566-3.257-.708-4.956-.566-10.619 1.416-21.379 2.832-31.998 4.39-4.956.707-8.213 3.963-10.478 8.211-1.699 3.115-3.115 6.23-4.531 9.345q-.85 2.124-2.548 3.823c-1.133 1.132-2.407 1.982-3.823 2.406-1.133.425-2.407.85-3.681 1.133-25.769 7.363-51.538 14.584-77.307 21.946-1.274.283-2.406.849-3.256 1.699-.85.849-1.558 1.982-1.841 3.115-10.194 29.592-20.53 59.183-30.724 88.633-1.982 5.38-3.823 10.761-5.947 16.849m58.191-125.729c-.424-1.416-.707-2.265-1.132-3.256-4.248-11.327-8.637-22.512-13.026-33.84-.567-1.557-.991-3.114-1.133-4.813 0-.991.142-2.124.708-2.973.566-.85 1.416-1.558 2.407-1.841a5.3 5.3 0 0 1 2.973 0c.991.283 1.841.991 2.549 1.699.849 1.274 1.557 2.69 1.982 4.106 4.389 11.327 8.778 22.795 13.168 34.122.424 1.133.991 2.265 1.557 3.823l15.291-4.39-1.132-2.972c-4.389-11.327-8.779-22.513-13.026-33.698-.708-1.7-.991-3.398-1.133-5.239 0-.99.283-2.124.85-2.973.566-.85 1.415-1.557 2.407-1.84.991-.284 1.982-.284 3.115 0 .991.283 1.84.99 2.406 1.698a19 19 0 0 1 1.699 3.398c4.531 11.61 8.92 23.22 13.451 34.83.425 1.275 1.133 2.407 1.699 3.682l11.327-3.398c-4.814-12.177-9.486-24.07-14.158-35.821-.567-1.275-.992-2.69-1.275-3.965 0-1.133 0-2.124.708-3.115.567-.85 1.416-1.699 2.407-1.982.991-.425 2.124-.425 3.115-.283.991.283 1.982.85 2.69 1.699.85 1.274 1.558 2.69 2.124 4.106a3097 3097 0 0 1 12.884 32.565c.567 1.415 1.133 2.69 1.699 3.964 1.133 0 2.124-.283 3.115-.991s1.558-1.558 1.841-2.69c.849-2.407 2.265-4.53 3.398-6.938 3.964-8.353 10.336-13.592 19.681-14.866 1.982-.284 3.964-.85 6.229-1.416l-16.707-38.512L35.446 52.697c8.495 36.954 22.512 71.643 36.246 106.898 4.248-1.133 8.212-2.408 12.318-3.116 2.832-.566 4.106-1.982 4.956-4.53 5.097-14.867 10.194-29.875 15.433-44.741.424-1.841 1.274-3.682 2.407-5.098 1.84-1.84 1.415-3.256.707-5.238-3.964-11.327-7.928-22.796-11.893-34.122-.425-1.133-.85-2.407-1.132-3.681-.284-1.275 0-2.408.566-3.54a4.97 4.97 0 0 1 2.69-2.407 5.08 5.08 0 0 1 3.54 0 4.97 4.97 0 0 1 2.69 2.407c.566.99.991 2.123 1.274 3.256 4.106 11.61 8.071 23.22 12.177 34.83a32 32 0 0 0 1.415 3.257l16.141-4.53zM13.075 113.437c18.123 33.415 36.105 66.404 54.086 99.394h.85c5.097-15.008 10.194-29.733 15.574-45.166-4.389 1.133-7.928 1.982-11.468 2.832-5.097 1.274-7.221-.001-9.203-4.815l-.85-2.123C55.41 146.144 48.755 128.587 42.1 111.03c-.566-1.415-1.132-2.831-1.699-4.106l-27.184 6.655z"/></svg>