<svg xmlns="http://www.w3.org/2000/svg" width="271" height="282" fill="none" viewBox="0 0 271 282"><path fill="#102185" d="M108.287 224.612c-.339-4.319-.736-8.212-.991-12.092-.609-8.056-.368-16.155.581-24.168.68-5.763 1.784-11.483 2.733-17.076 2.449-13.394 2.916-27.028 1.529-40.592-.722-5.933-1.317-11.709.084-17.529.793-4.318 2.846-8.353 6.06-11.397 2.082-1.898 4.659-3.158 7.547-3.526 2.039-.326 3.993.043 5.904.694 1.742.92 3.299 2.251 4.375 3.936 2.336 3.129 3.455 6.966 3.285 10.803-.368 5.522-.736 11.03-1.246 16.537-.736 6.188-.495 12.63.482 18.732 1.104 5.125 1.769 10.336 2.576 15.56.68 3.937.765 7.929.156 11.851-.722 4.899-1.6 9.94-2.605 14.81-1.657 9.217-2.166 18.279.156 27.538.509 1.77.693 3.795 1.019 5.82.552.212 1.232.425 1.798.495 6.103.298 12.318.751 18.463.623 5.267.057 10.506.397 15.674 1.289 1.543.184 3.058.651 4.672-.878-1.883-5.777-5.876-10.534-11.256-13.309-.425-.057-.722.056-1.161.141-6.499 3.073-12.502.793-18.279-2.166-.934-.538-1.557-1.331-1.996-2.379-.326-.892-.326-2.038-.071-3.001.396-.949.906-1.6 1.685-2.223s1.657-.807 2.662-.821c.566.07 1.26.155 2.407.141-1.898-2.081-3.54-3.837-5.168-5.748a6.14 6.14 0 0 1-1.43-2.308 5.7 5.7 0 0 1-.269-2.591c.085-.708.311-1.388.807-2.039.368-.665.991-1.161 1.585-1.373a3.5 3.5 0 0 1 2.195-.453c.708.085 1.402.17 2.081.538 1.204.708 2.379 1.571 3.271 2.52 4.403 4.941 9.741 9.288 15.645 12.403 1.869 1.076 3.569 2.421 5.82 3.823-.326-3.313-1.076-6.542-2.138-9.656-2.039-5.664-4.078-11.313-6.117-16.977-.198-.736-.694-1.359-1.203-1.854s-1.175-.85-2.011-1.091c-7.221-2.846-11.837-8.396-14.555-15.56-.538-1.487-.934-2.959-1.048-4.403-.141-1.161.128-2.266.822-3.327.679-.921 1.628-1.657 2.661-1.969 1.175-.283 2.294-.155 3.37.397a4.24 4.24 0 0 1 2.124 2.534c.198.737.538 1.487.736 2.223.963 2.676 2.393 5.126 4.418 7.221l.283-2.393c-.807-6.371-1.048-12.813-.581-19.17.283-3.526.283-7.235.567-10.775.127-1.119.41-2.237.963-3.313.523-.793 1.161-1.43 2.081-1.898.892-.325 1.77-.509 2.761-.382.849.099 1.784.637 2.421 1.289a4.95 4.95 0 0 1 1.274 2.435c.283 2.463.142 4.871.241 7.589 2.01-2.478 3.766-5.253 5.097-8.099.396-.948.92-1.741 1.458-2.676.538-.934 1.459-1.543 2.506-1.84 1.048-.298 2.025-.184 2.96.354.821.24 1.599.906 2.081 1.67.481.765.665 1.643.538 2.634-.184 1.543-.368 3.086-1.09 4.432-3.483 6.569-7.122 13.124-12.97 17.995-.467.368-.821.906-1.047 1.586l-.213 1.826c.468 6.896 1.926 13.777 4.007 20.29 1.26 3.851 2.52 7.574 3.936 11.298.212.595.567 1.204.921 1.827 3.1-6.91 5.89-13.564 9.174-20.87-2.421-4.857-1.869-10.633-.75-16.481a45.3 45.3 0 0 1 2.704-8.382c.552-1.076 1.388-2.109 2.351-3.001.651-.638 1.543-.963 2.392-1.006.85-.042 1.827.213 2.634.595s1.586 1.048 1.925 1.798c.482.765.51 1.77.383 2.761-.368 1.954-1.048 4.007-1.827 5.777-1.019 2.591-1.033 5.154-1.585 8.509 4.233-3.2 7.702-7.221 10.095-11.78 2.01-3.752 4.021-7.504 6.159-11.1.694-1.062 1.529-2.096 2.478-2.846.792-.623 1.684-.934 2.704-1.104 1.005-.029 1.968.226 2.761.75.807.382 1.43 1.161 1.769 1.925.326.892.369 1.756.128 2.577-.127 1.119-.552 2.223-1.019 3.724l6.527-4.502c.608-.354 1.26-.991 1.869-1.345.906-.468 1.925-.623 2.916-.51s1.912.651 2.69 1.317c.779.665 1.218 1.713 1.246 2.718.17 1.02-.254 2.11-.778 2.903-1.204 1.713-2.648 3.1-4.361 4.332-4.984 3.54-10.11 7.065-16.594 7.731-.298.113-.736.198-1.048.439-.311.255-.495.509-.68.92-2.619 4.106-5.918 7.858-9.571 10.987-5.748 5.168-10.095 11.78-12.799 19.015-1.289 3.695-2.733 7.377-4.036 11.214a22 22 0 0 0-.934 4.304c5.281-3.653 9.982-7.235 15.037-10.194 5.054-2.959 10.491-5.451 15.957-8.368-.142-1.161-.156-2.294-.156-3.441.382-6.796 3.242-12.87 6.909-18.576.694-1.062 1.77-1.642 2.945-1.939 1.175-.284 2.421 0 3.483.693.92.68 1.657 1.629 1.954 2.804s.297 2.322-.255 3.398c-.609 1.501-1.487 2.959-2.11 4.601-.948 2.025-1.784 4.205-2.336 6.428 1.798-.778 3.37-2.024 4.701-3.582 2.945-3.214 5.89-6.428 8.849-9.642.51-.651.991-1.161 1.742-1.5.75-.34 1.486-.539 2.223-.737a6.9 6.9 0 0 1 2.392.283c.666.368 1.317.864 1.813 1.501.495.637.835 1.388.877 2.237s-.184 1.544-.424 2.379c-.383.807-.765 1.614-1.402 2.251-3.299 3.738-6.47 7.646-10.024 11.214a49.1 49.1 0 0 1-16.368 10.605c-4.644 1.869-9.174 4.049-14.13 6.159 5.748 1.968 10.789 3.992 15.872 5.592 3.058.651 6.187.736 9.104.227 1.161-.142 2.322-.298 3.441-.156.991.113 2.109.255 2.873 1.048.779.665 1.374 1.585 1.544 2.605.184.878.198 1.883-.198 2.832-.397.948-1.048 1.585-1.827 2.208-.623.496-1.359.694-2.095.892-5.267 1.091-10.591 1.6-15.943-.184-4.516-1.529-8.92-2.916-13.451-4.446a25.5 25.5 0 0 0-10.265-1.217c-1.146 0-2.336.439-3.242.892a9.6 9.6 0 0 0-2.676 2.109c3.044.793 6.272 1.176 9.557 1.133 1.006-.028 1.997-.042 3.143-.056 1.402.169 2.62.736 3.512 1.699a5.5 5.5 0 0 1 1.416 3.737c-.156 1.261-.85 2.322-1.671 3.229-.949.75-2.138 1.175-3.271 1.175-2.577.127-5.14.099-7.688-.057l-10.69-1.274c-.127 1.118-.269 2.251-.113 3.412s.312 2.18.482 3.2l18.066.283 19.652.198c2.563.014 5.125.043 7.688.057 4.106.198 8.226.411 12.346.467 4.545.113 9.26.099 13.805.212 1.416.029 2.832.199 4.219.496.85.099 1.657.481 2.294 1.133a3.94 3.94 0 0 1 1.331 2.01c1.076 2.974 1.161 5.848-1.119 8.283a67.9 67.9 0 0 1-16.409 13.309c-9.472 5.295-19.709 8.637-29.932 11.992-7.122 2.294-13.875 5.197-20.558 8.68a77 77 0 0 1-24.027 7.844c-2.889.368-5.904.439-8.75.382-1.416-.028-2.818-.34-4.22-.496-11.171-.75-22.115-3.483-32.239-8.24a110.4 110.4 0 0 0-22.937-7.419c-3.922-.609-7.872-.935-11.893-.694-4.843 0-9.727.269-14.598.411-5.168.24-10.18.509-15.348.75-12.643.779-25.33-1.572-37.152-6.541-10.038-4.333-18.958-10.803-26.42-18.817-1.416-1.303-2.506-2.86-3.455-4.545-.609-.92-.906-1.968-1.076-2.973-.028-1.005.255-2.11.51-3.073.255-.962 1.076-1.869 1.869-2.492s1.84-1.061 2.86-1.231c1.614-.383 3.327-.453 4.913-.553 9.713-.127 19.425-.268 29.138-.396 3.427-.028 6.853-.042 10.251.071-2.152-11.95-4.19-23.588-6.329-35.538-1.02.17-1.741.226-2.478.425-4.686 1.019-9.4 1.16-14.116.042-3.483-.694-6.371-2.747-9.104-4.927-7.419-6.018-11.058-13.72-9.925-23.277 1.303-10.973 9.515-17.698 18.675-19.171 4.234-.778 8.51-.849 12.56-.085l1.826.213 1.217-10.265c.397-3.37 1.515-6.811 3.03-9.911.75-1.487 1.629-2.945 2.761-4.092.963-.878 1.897-1.628 3.115-2.195 1.218-.566 2.506-.693 3.794-.693 1.26.155 2.535.297 3.767.736 1.218.566 2.28 1.274 3.157 2.223a17.7 17.7 0 0 1 4.191 6.768c.835 2.52 1.232 5.281.906 7.943-.41 4.658-1.118 9.415-1.713 14.484l7.122 3.695c2.237-2.01 4.332-4.049 6.385-5.805a15.7 15.7 0 0 1 3.115-2.194c.765-.482 1.827-.921 2.677-.963 1.019-.17 1.996-.043 2.817.34.821.382 1.741.92 2.379 1.571s1.104 1.558 1.415 2.45c.963 2.676 1.487 5.451 1.742 8.183.807 7.646 1.33 15.277 1.855 22.895.042 1.996-.057 4.134-.44 6.074-.523 4.361-4.445 6.173-8.31 4.007a10.6 10.6 0 0 1-2.308-2.124c-1.147-1.133-2.28-2.407-3.568-3.554-1.657-1.628-3.483-3.115-5.409-4.913l-7.914 5.479c4.007 14.301 9.188 28.318 15.418 41.896 8.552.014 17.062.453 25.656.042l.878-.184zm147.987 12.134-14.47-.581c-2.266-.127-4.545-.113-6.952-.255-6.131 0-12.262-.028-18.392-.042-6.4-.184-12.786-.382-19.185-.567-2.705-.042-5.409-.07-7.972-.084-6.13 0-12.261-.029-18.377-.184-3.71 0-7.377-.312-11.087-.312l-19.227-.141c-7.405-.029-14.824-.043-22.229-.071-8.694-.029-17.387-.071-26.08-.099-2.988-.071-5.834-.128-8.821-.184h-18.11c-7.404-.029-14.81-.185-22.228-.071-8.269.014-16.396.056-24.551.226-1.416-.028-2.875.227-4.885.283 5.04 5.593 11.213 10.025 17.967 13.253 11.71 5.805 24.679 8.339 37.634 7.32 5.182-.382 10.463-.467 15.773-.694 4.728-.156 9.458-.453 14.172-.453 4.29-.057 8.396.142 12.601.779a119.4 119.4 0 0 1 23.773 7.518c8.141 3.525 16.282 6.924 25.344 7.561l8.439 1.005c3.511.41 7.249.141 10.633-.736a90.2 90.2 0 0 0 19.383-7.108c6.669-3.341 13.436-6.244 20.544-8.538 9.784-3.114 19.553-6.229 28.459-11.596 2.619-1.684 5.621-2.902 7.858-6.201zm-126.762-12.035c0-1.289-.128-2.577-.256-3.88-2.194-9.104-2.364-18.533-.679-27.878.991-6.017 2.152-12.148 3.016-18.18.269-2.251.396-4.516.099-6.838-.637-5.494-1.416-10.86-2.492-16.268-1.374-6.442-1.713-13.182-1.076-19.808.396-3.37.821-6.895 1.076-10.279.34-2.818.382-5.664.439-8.51.113-.991-.071-1.854-.524-2.775-.467-.906-1.076-1.699-1.869-2.223-3.143 1.19-4.163 3.781-4.772 6.57-.764 4.049-.962 8.155-.311 12.219 1.642 12.601 1.557 25.273-.212 37.902-.694 4.63-1.544 9.373-2.365 13.975-1.996 12.021-2.733 24.197-2.039 36.402.198 3.157-.042 6.414 1.43 9.585h10.69l-.142-.028zm-74.56-99.818c-.949 2.024-1.628 4.078-2.308 6.286-1.925 10.18-2.45 20.672-1.968 30.993.793 12.502 2.76 24.849 4.7 37.337 1.317 8.141 3.64 16.254 2.79 24.565 4.318.793 8.764.609 12.997-.17-.085-.439-.325-.892-.41-1.331-4.36-8.934-7.49-18.562-10.647-28.062-5.126-14.442-6.882-29.762-5.083-44.94l1.953-16.452c.354-2.959-.311-5.734-2.024-8.226m-14.668 27.496a25.76 25.76 0 0 0-13.975.056c-1.77.51-3.3 1.317-4.73 2.577-1.288 1.275-2.321 2.719-2.944 4.361-2.52 6.825-.085 12.686 5.097 17.146 1.557 1.331 3.285 2.379 5.196 3.044 4.404 1.374 9.02.921 13.111-1.161-.495-4.191-1.005-8.382-1.218-12.544-.212-4.163-.268-8.58-.552-13.323v-.142zm42.447 2.746-3.554 3.568c-3.242 3.328-5.14 3.668-9.628 1.855-1.614-.764-3.398-1.401-5.437-2.208.1 2.718.142 4.87.312 7.022s.354 4.177.623 6.782c1.558-1.104 2.62-1.685 3.582-2.562 5.508-4.333 8.906-4.22 13.734.778.51.496 1.048.836 1.416 1.303.779-2.903.184-12.389-1.19-16.396l.156-.127zM225.734 81.851l8.255-5.862c3.27-2.322 6.399-4.658 9.67-6.98.793-.623 1.699-1.076 2.747-1.529.75-.34 1.628-.524 2.477-.425.85.1 1.671.34 2.323.85a4.94 4.94 0 0 1 1.486 1.883c.34.75.524 1.628.425 2.478-.085 3.129-.156 6.116-.524 9.203-1.232 10.406-2.449 20.671-3.539 31.092l-.496 4.219c-.892 3.894-4.078 5.508-7.561 3.667-1.345-.736-2.662-1.6-3.823-2.591-4.715-3.553-9.259-7.235-13.578-10.59-7.886.354-15.192.623-22.654 1.019-8.141.17-16.197-.495-24.112-2.294-10.449-2.095-20.969-4.771-30.653-9.627-5.494-2.931-10.662-6.258-14.329-11.398-3.044-4.347-4.361-8.934-2.039-14.074 1.133-2.293 2.804-4.375 4.828-5.847 4.998-3.681 10.832-5.99 17.047-6.669 7.094-.864 14.173-.453 20.998.92 6.102 1.43 12.02 3.285 17.882 5.536 11.865 4.545 23.178 10.166 34.094 16.736l1.119.127v.142zm15.999.892c-1.09.722-2.166 1.458-3.256 2.18-2.18 1.6-4.347 3.044-6.556 4.786-4.389 3.327-9.047 2.917-13.28.142a192.8 192.8 0 0 0-34.505-16.778c-9.132-3.512-18.548-5.904-28.459-5.225-5.182.383-10.123 1.218-14.371 4.573-3.299 2.606-3.681 4.56-.609 7.49 2.152 2.251 4.644 4.12 7.165 5.692 9.571 5.833 20.247 8.396 31.12 10.534 13.663 2.62 27.595 2.987 41.23 1.034a7.9 7.9 0 0 1 2.719-.1 19.6 19.6 0 0 1 9.599 4.418c2.067 1.812 4.446 3.384 6.655 5.21 1.147-3.709 3.044-20.884 2.577-24.07v.142zM160.009 39.686c2.959.354 4.276 2.364 3.922 5.451s-2.449 4.984-5.394 4.63-4.12-2.492-4.035-5.607c.085-.708.155-1.26.509-1.94.354-.524.694-1.062 1.331-1.557a5.2 5.2 0 0 1 1.827-.92c.595-.213 1.317-.27 2.025-.184l-.156.127zM36.957 108.37c-.567-.071-1.26-.156-1.799-.496-.523-.354-1.062-.693-1.43-1.161a6.3 6.3 0 0 1-.934-1.684 4.34 4.34 0 0 1-.198-1.884c.085-.708.156-1.26.51-1.939.212-.553.708-1.204 1.189-1.572.495-.51 1.09-.722 1.685-.934.594-.213 1.316-.27 2.024-.184 1.26.155 2.464.863 3.186 1.939.75.949 1.161 2.28 1.005 3.54s-.722 2.478-1.684 3.37c-.963.877-2.294 1.302-3.554 1.147zM158.593.028c.566.071 1.26.156 1.798.496.524.354 1.062.694 1.43 1.16a6.3 6.3 0 0 1 .935 1.686c.212.594.269 1.316.198 1.883-.085.708-.156 1.26-.496 1.798s-.693 1.062-1.189 1.572a6.3 6.3 0 0 1-1.684.934 4.34 4.34 0 0 1-1.884.198c-.566-.07-1.26-.155-1.798-.495-.524-.354-1.062-.694-1.572-1.19a6.3 6.3 0 0 1-.934-1.684 4.34 4.34 0 0 1-.198-1.883c.156-1.26.863-2.464 1.812-3.215.963-.877 2.28-1.16 3.554-1.146V0zM21.891 121.127c.085-.708.156-1.26.496-1.798.212-.552.694-1.062 1.189-1.572a6.3 6.3 0 0 1 1.685-.934 4.34 4.34 0 0 1 1.883-.198 4.1 4.1 0 0 1 1.784.637c.538.34 1.048.835 1.416 1.302s.722 1.091.807 1.657c.212.595.127 1.303.07 1.855-.084.708-.155 1.26-.495 1.798s-.694 1.062-1.16 1.43a6.3 6.3 0 0 1-1.686.934 4.34 4.34 0 0 1-1.883.199c-.566-.071-1.26-.156-1.798-.496-.524-.354-1.062-.694-1.416-1.302-.368-.468-.722-1.091-.807-1.657-.212-.595-.127-1.303-.07-1.855zM174.606 26.023c-.085.708-.155 1.26-.495 1.799s-.694 1.062-1.161 1.43a6.3 6.3 0 0 1-1.685.934 4.3 4.3 0 0 1-1.883.198c-1.26-.156-2.45-1.005-3.172-2.081a5.43 5.43 0 0 1-.849-3.667c.07-.566.156-1.26.495-1.798.213-.553.694-1.062 1.161-1.43.468-.369 1.062-.58 1.657-.807.595-.213 1.161-.142 1.855-.071s1.26.155 1.798.495c.524.354 1.062.694 1.43 1.162s.722 1.09.934 1.684c.213.595.128 1.303.071 1.855l-.17.269zM40.892 86.014c-.085.708-.156 1.26-.495 1.798-.34.538-.694 1.062-1.161 1.43a6.3 6.3 0 0 1-1.685.934 4.3 4.3 0 0 1-1.883.199c-.567-.071-1.26-.156-1.798-.496-.524-.354-1.062-.694-1.43-1.16-.369-.468-.723-1.091-.808-1.657-.212-.595-.127-1.303-.07-1.855.084-.708.155-1.26.495-1.798.213-.553.694-1.062 1.161-1.43s1.09-.722 1.657-.808c.594-.212 1.302-.127 1.855-.07s1.26.156 1.656.481c.396.326 1.062.694 1.43 1.161s.75.949.821 1.53c.071.58.142 1.16.085 1.727h.142z"/><path fill="#102185" d="M34.209 162.782c-.34 2.817-1.926 4.191-4.73 3.865-2.958-.354-4.318-2.081-3.978-4.899s2.067-4.176 4.998-3.681c2.818.34 4.05 1.911 3.696 4.856v-.141zM157.348 81.44c-1.26-.156-2.336-.708-3.087-1.642-.75-.935-1.175-2.138-1.02-3.398s.963-2.167 1.912-2.917 2.138-1.175 3.271-1.175c.566.07 1.118.127 1.642.623.524.354 1.062.693 1.43 1.16.368.468.581 1.063.807 1.657s.142 1.161.085 1.727-.127 1.12-.481 1.657c-.354.524-.694 1.062-1.161 1.43s-1.062.58-1.657.807c-.595.213-1.161.142-1.727.085zM175.782 81.058c-.127 1.118-.835 2.18-1.756 2.789-.948.75-2.095.892-3.228.765-.566-.071-1.26-.156-1.798-.496-.524-.354-1.062-.694-1.43-1.161s-.581-1.062-.665-1.642-.001-1.147.212-1.827c.071-.566.127-1.118.481-1.657.354-.523.68-.92 1.147-1.288s1.062-.58 1.643-.665c.58-.071 1.146 0 1.684.198.567.07 1.119.127 1.657.481s.92.68 1.288 1.147c.369.467.581 1.062.68 1.5.071.581.142 1.162.085 1.728v.142z"/></svg>