<svg xmlns="http://www.w3.org/2000/svg" width="265" height="273" fill="none" viewBox="0 0 265 273"><path fill="#102185" d="M122.219 209.094c-.259 1.679-.378 3.38-.519 5.22-.281 3.682-.563 7.363-1.006 11.163-.54 3.498-2.381 5.219-5.201 4.928-2.799-.432-4.359-2.392-4.261-5.815.099-3.423.499-6.943.737-10.345.119-1.7.077-3.283.218-5.124-6.781-2.478-5.605-9.173-7.669-14.363-.84 1.733-1.519 3.347-2.435 4.638a4.97 4.97 0 0 1-2.789 2.292c-1.206.387-2.487.333-3.541-.26a5.2 5.2 0 0 1-1.432-.937c-.355-.485-.71-.969-.925-1.432q-.29-.904-.16-1.744c.086-.56.172-1.12.538-1.636 2.9-6.716 6.196-13.227 9.493-19.738 1.271-2.669 3.059-4.972 4.934-7.834-1.722-1.842-2.937-4.178-3.689-6.73-.613-2.53-.784-5.135-.255-7.632.658-3.337 2.532-6.199 5.16-8.373 2.627-2.173 5.965-3.377 9.409-3.419 3.445-.041 6.696 1.177 9.353 3.449 6.371 5.138 7.229 12.577 2.617 22.037 2.055 2.466 4.228 5.093 6.38 7.861 3.572 4.705 6.982 9.529 10.554 14.235.215.463.57.948.645 1.389 1.29 2.778.923 5.157-1.015 6.577-1.798 1.441-4.317 1.053-6.813-1.338-.259-.183-.495-.506-1.012-.872-.27 2.68.019 5.446-.886 7.599-.905 2.152-3.167 3.809-5.234 6.069.343 1.486 1.021 3.596 1.536 5.824.441 1.787.903 3.434 1.042 5.318.247 1.185.053 2.444-.561 3.639s-1.702 1.743-2.908 2.13a5.08 5.08 0 0 1-3.498-.54 5.56 5.56 0 0 1-2.13-2.908c-.828-2.993-1.515-5.964-2.203-8.935a45 45 0 0 0-1.257-3.919l-1.163.107zm7.347-10.471c-.386-4.93-.578-9.258-.769-13.585-.095-4.026-1.794-7.87-4.527-10.584-2.97-3.037-5.995-2.93-8.935.341a7.13 7.13 0 0 0-1.756 3.024c-.313 1.098-.367 2.378-.26 3.541l1.705 14.016c.225 1.325.591 2.67.935 4.156l13.768-1.027zm-9.969-46.809c-.7-.108-1.399-.216-2.142-.044a5.1 5.1 0 0 0-1.852.86c-.646.474-1.012.99-1.379 1.507-.387.656-.635 1.334-.603 2.056-.238 1.539.106 3.025 1.074 4.177s2.26 2.068 3.659 2.284c.7.108 1.281.054 2.024-.118.603-.193 1.227-.527 1.852-.86.485-.355.991-.85 1.379-1.507.366-.516.614-1.194.722-1.894s.216-1.399.044-2.142-.366-1.346-.839-1.992-.968-1.152-1.625-1.54a5.7 5.7 0 0 0-2.034-.744zM166.206 143.095c-6.407-2.892-3.625-8.889-4.602-13.989-1.014 1.048-1.718 2.031-2.522 2.842-2.338 2.158-5.293 2.244-7.251.253s-1.781-4.29.084-6.868c3.766-5.293 7.432-10.759 11.198-16.052 1.197-1.731 2.568-3.562 4.003-5.083 1.087-1.321 1.791-2.304.79-4.039-3.301-5.724-2.007-11.093 1.312-16.36 1.481-2.241 3.709-3.989 6.164-4.942 2.592-.917 5.274-1.077 8.009-.343 10.629 2.999 14.324 13.812 7.953 22.804-.457.61-.914 1.221-1.581 2.068l6.23 11.2c1.261-1.42 2.585-2.531 3.535-3.888.951-1.358 1.592-2.652 2.506-3.873.567-1.02 1.644-1.757 2.785-2.184 1.104-.29 2.408-.233 3.565.37 1.021.567 1.795 1.508 2.048 2.749.29 1.104.233 2.408-.334 3.429-2.325 5.386-5.571 10.379-11.611 12.13-1.241.253-2.281.853-2.985 1.837s-1.171 2.178-.918 3.419c-.103 2.024-.38 4.149-.621 6.137-.38 4.149-1.408 7.978-6.107 9.649.213 3.575.463 7.014.576 10.416a31.4 31.4 0 0 1-.127 5.39c-.193 1.267-.761 2.288-1.838 3.025a4.47 4.47 0 0 1-3.485.97c-2.262-.313-3.846-2.058-3.969-4.876-.277-3.886-.517-7.908-.757-11.931-.016-1.03.387-2.535-1.364-2.565s-1.434 1.521-1.554 2.515c-1.111 4.686-2.049 9.272-3.296 13.922-.404 1.504-1.491 2.824-2.916 3.762-.657.263-1.414.353-2.134.306l-2.188-.587c-.884-.53-1.421-1.261-1.748-2.228s-.38-1.861-.123-2.818c.937-4.586 1.975-8.999 2.913-13.585l.623-2.325zm17.725-8.144c.5-5.143.717-9.776 1.481-14.262.985-5.306-2.184-8.795-4.695-12.548-.2-.346-.537-.73-.91-.977a1.96 1.96 0 0 0-1.231-.33c-.41-.11-.894.053-1.241.253s-.73.537-.977.911c-2.075 2.815-4.46 5.693-4.183 9.579-.067 1.887-.171 3.912-.374 5.763-.197 3.466-.258 6.968-.291 10.917l12.521.868zm-7.939-43.617c-.734 2.735.083 5.153 2.271 5.74a4.52 4.52 0 0 0 3.686-.623c1.077-.737 1.918-1.684 2.385-2.878.183-.684.33-1.23.203-1.851-.127-.62-.253-1.241-.553-1.761s-.738-1.078-1.248-1.361c-.473-.42-1.157-.604-1.704-.75-2.188-.588-3.996.686-4.94 3.658zM104.952 86.196c1.738-3.198 1.394-5.196.267-7.551-1.764-3.259-2.041-7.144-.95-10.663s3.513-6.534 6.772-8.298c3.085-1.664 6.56-2.051 9.842-1.17 3.282.88 6.234 2.992 7.935 5.94 1.374 1.982 2.054 4.363 2.151 6.735s-.391 4.733-1.425 6.947c-.43 1.058-.861 2.115-1.328 3.309 4.42 2.652 8.135 6.288 10.81 10.524.873 1.114 1.437 2.291 1.927 3.742.464 1.004.48 2.035.224 2.992-.257.957-.788 1.841-1.692 2.478-.767.674-1.734 1-2.591.917-1.031.017-1.951-.377-2.699-.871l-2.104-1.444c.266 4.469-.688 8.025-4.84 9.842.77 3.139 1.477 5.967 2.184 8.796.253 1.24.507 2.481.45 3.785a5.08 5.08 0 0 1-.918 3.419c-.703.984-1.781 1.721-2.985 1.838-2.445.37-4.513-1.211-5.22-4.04-.516-1.898-.823-4.032-1.303-6.067a4.47 4.47 0 0 0-1.401-2.428c-.167 1.714-.234 3.602-.437 5.453.006 1.614-.224 3.019-.354 4.596-.294 1.094-.724 2.151-1.665 2.925-.94.774-2.081 1.201-3.248 1.181-.547-.147-1.268-.194-1.778-.477-.547-.147-1.021-.567-1.458-1.124a2.8 2.8 0 0 1-.9-1.561c-.127-.621-.253-1.241-.243-1.825.06-3.502.257-6.967.727-10.36.221-.82.131-1.577-.096-2.371s-.664-1.351-1.374-1.981c-1.248-1.361-2.011-2.885-2.255-4.71-.453-1.588-.423-3.339-.293-4.916a3.86 3.86 0 0 0-.397-2.892c-.5-.867-1.174-1.635-2.094-2.028-6.397-3.476-8.831-9.7-9.915-16.587-.153-1.068.04-2.335.707-3.182.567-1.021 1.608-1.621 2.575-1.948 1.104-.29 2.272-.27 3.292.297 1.057.43 1.831 1.37 2.295 2.375.663 1.35.807 3.002 1.297 4.453.554 1.76 1.417 3.459 2.681 5.85zm10.233.108-1.329 15.329 8.702-.743-2.767-14.816-4.57.093zm5.994-13.051c.147-.547.294-1.094.167-1.715.01-.583-.29-1.104-.453-1.587-.3-.52-.637-.904-1.111-1.325s-1.021-.567-1.568-.713c-.957-.257-2.061.033-2.965.67s-1.434 1.52-1.691 2.478c-.147.547-.294 1.094-.304 1.677-.01.584.154 1.068.454 1.588s.6 1.04 1.111 1.324q.71.63 1.53.851c1.094.294 2.198.003 3.102-.633.904-.637 1.608-1.621 1.765-2.752zM199.803 183.052c-.218.673-.436 1.347-.923 1.933s-.931 1.039-1.644 1.403c-.578.409-1.382.595-2.008.69-.761.052-1.478-.031-2.195-.114-2.56-.828-3.658-3.415-2.744-6.244 1.046-3.233 3.537-4.957 6.232-4.086.673.218 1.212.392 1.755 1.014.452.443.904.887 1.269 1.6.273.535.503 1.204.555 1.965a3.1 3.1 0 0 1-.341 1.973zM175.728 194.465c.674.218 1.169.527 1.755 1.014.452.443.86 1.022 1.134 1.557.23.669.325 1.295.42 1.921-.083.717-.122 1.3-.34 1.973-.174.539-.392 1.213-.701 1.708s-.887.904-1.287 1.221c-.535.273-1.07.547-1.696.642q-.939.143-1.747-.118c-.674-.218-1.213-.392-1.756-1.014-.451-.444-.86-1.022-1.268-1.601a5.1 5.1 0 0 1-.555-1.965c-.095-.626.122-1.299.34-1.973.174-.539.392-1.212.836-1.664.309-.496.887-.904 1.466-1.312a6.3 6.3 0 0 1 1.83-.599 4.4 4.4 0 0 1 1.882.162zM154.336 62.706c-.539-.175-1.212-.392-1.529-.793-.452-.443-.904-.887-1.177-1.422-.274-.534-.369-1.16-.464-1.786s.079-1.165.296-1.839a4.4 4.4 0 0 1 .971-1.62c.443-.452.887-.904 1.557-1.134.534-.274 1.16-.369 1.786-.464s1.3.122 1.839.297q.808.261 1.486.926c.452.444.769.844.999 1.514.273.535.368 1.16.329 1.743-.04.582-.079 1.165-.253 1.704s-.349 1.077-.927 1.486c-.444.451-.844.769-1.379 1.042-.534.273-1.16.369-1.786.464-.583-.04-1.165-.079-1.704-.253z"/><path fill="#102185" d="M57.051 63.993a53.4 53.4 0 0 0 6.184-19.13c.206-2.017.86-4.038 1.603-5.88 2.02-4.407 5.729-5.291 9.739-2.507 3.65 2.52 7.256 5.173 11.084 7.6 1.846 1.193 3.958 2.024 6.245 2.317s4.568.138 6.711-.509c6.343-1.67 11.992-5.795 15.434-11.379 3.707-5.944 7.458-12.022 11.391-17.745 2.432-3.38 4.955-6.582 7.704-9.562 3.058-3.475 7.245-5.842 11.757-6.913 1.296-.325 2.504-.38 3.76-.123 1.257.257 2.426.784 3.286 1.806 2.528 2.305 5.191 4.654 7.719 6.96a145.5 145.5 0 0 0 24.539 19.836c6.574 4.06 13.714 6.367 20.989 8.72 7.588 2.303 14.166 6.81 19.148 13.034 1.585 2 3.171 4 4.934 5.91 4.526 5.332 10.648 8.948 17.468 10.408 4.172.903 8.253 1.627 12.469 2.395 1.434.166 2.694.87 3.646 2.07.86 1.023 1.411 2.54 1.245 3.974.008.896-.253 1.704-.558 2.647-4.32 12.442-8.818 24.976-13.138 37.418-1.524 4.715-4.982 8.507-9.395 10.652-8.066 4.237-11.055 15.324-6.061 22.89 4.63 6.854 7.076 14.936 7.241 23.173.092 5.238.319 10.519.546 15.801.43 7.876 2.559 15.558 6.472 22.328.59.935 1.137 2.005 1.684 3.075 2.418 4.948 2.269 8.173-2.132 11.661-11.96 9.377-24.74 17.149-40.723 17.339-6.268.057-12.623.384-18.804.171-14.957-.222-26.184 5.969-34.22 18.4a105 105 0 0 1-5.747 8.112c-3.098 4.058-6.406 4.626-10.242 1.302-4.649-4.032-10.089-6.535-15.486-9.172a28.4 28.4 0 0 0-6.602-2.134c-6.68-.969-13.016-3.464-18.469-7.31-2.072-1.414-4.28-2.871-6.352-4.285-5.679-4.068-12.593-6.155-19.53-5.868-4.878.358-9.724-.762-14.043-3.051-3.555-1.893-6.974-3.743-10.263-5.996-3.785-2.563-4.261-5.693-1.968-9.564 6.44-10.715 11.98-21.87 16.486-33.508 4.685-11.729 5.284-24.629 1.549-36.55-4.667-15.943-13.657-29.562-24.516-42.001-7.42-8.35-15.682-15.932-24.475-22.792-4.601-3.72-9.024-7.53-13.581-11.384-.496-.309-.813-.709-1.221-1.287-.273-.535-.547-1.07-.507-1.652q-.144-.94.118-1.748c.174-.538.348-1.077.792-1.53.796-1.08 1.862-2.076 3.11-2.714 13.37-6.838 27.177-9.963 41.989-6.068 3.546.998 7.223 1.591 10.991 2.363M12.816 74.245c1.4 1.197 2.438 2.127 3.52 2.924 6.317 5.315 12.72 10.362 18.859 15.768 14.037 12.275 25.503 27.44 33.625 44.201 8.63 18.414 10.414 37.293 2.617 56.349-2.89 7.1-6.32 14.027-9.615 20.997-1.802 3.733-3.739 7.422-5.584 11.289 5.592 4.338 11.567 6.567 18.548 6.145 2.956.063 5.824.395 8.697 1.175 7.671 1.587 13.845 5.964 20.063 10.205 3.515 2.476 7.256 5.173 11.693 5.715 9.771 1.075 18.005 5.523 26.157 10.688.63.352 1.26.704 2.025 1.1a492 492 0 0 1 7.034-9.332c8.583-11.361 19.719-17.731 34.042-18.309 6.49-.283 13.158-.657 19.609-.357 14.826.626 26.766-5.93 38.016-14.495l.218-.673.713-.365a20 20 0 0 1-2.084-2.757c-4.733-8.375-7.235-17.665-7.59-27.154-.128-4.208-.391-8.459-.519-12.667-.025-7.746-1.703-14.984-6.328-21.39-3.04-4.405-4.119-9.813-3.138-15.15 1.349-9.236 5.222-16.615 13.87-20.812 1.07-.548 2.049-1.273 2.801-2.22s1.414-2.072 1.628-3.194c.958-2.964 2.007-5.749 3.1-8.67l7.982-23.31c.087-.27-.052-.761-.056-1.209-9.553-1.749-18.579-4.667-25.847-11.183-3.884-3.636-7.411-7.455-10.673-11.634-3.44-4.088-7.854-7.003-12.974-8.658l-9.161-2.961c-6.871-2.221-13.215-5.612-19.207-9.632-7.751-5.481-15.015-11.55-21.705-18.474-2.393-2.261-4.787-4.523-7.632-7.229-3.458 3.793-7.012 6.96-9.709 10.7-4.82 6.626-9.145 13.56-13.605 20.452-3.75 6.078-9.261 10.696-15.861 13.621-9.052 4.068-17.872 4.192-26.519-1.281-2.207-1.458-4.458-2.78-6.978-4.19l-.522 1.616C71 56.747 68.73 63.304 65.654 69.601c-2.42 4.724-4.737 5.909-9.987 4.658s-10.5-2.502-15.838-3.483a44.43 44.43 0 0 0-26.917 4.096z"/></svg>