<svg xmlns="http://www.w3.org/2000/svg" width="300" height="300" fill="none" viewBox="0 0 300 300"><path fill="#3558a2" d="M234.269 153.821c.94.46 1.76.83 2.57 1.24 5.42 2.76 8.38 7.15 8.39 13.26 0 5-.19 10-.49 15-.6 9.95 3.78 17.94 9.94 25.14 4.09 4.78 4.3 7.32-.47 11.41-8.12 7-16.9 12.77-27.81 14.65a46.74 46.74 0 0 1-31.71-5.75c-4.37-2.46-8.88-4-13.76-2.4a16.2 16.2 0 0 0-6 3.83 31.6 31.6 0 0 0-4.32 5.93c-2.47 3.88-6.24 6-10.29 7.71a9 9 0 0 1-8.13-.61 15.4 15.4 0 0 1-3.7-2.74c-5.1-5.43-11.56-7.43-18.75-8.12a100.5 100.5 0 0 1-36.93-11.35 45.4 45.4 0 0 1-8-5.63c-2.86-2.37-3.17-4.33-1.81-7.74 1.57-4 3.24-7.88 4.69-11.88a3.1 3.1 0 0 0-.54-2.67c-4.56-4.67-4.6-4.64-10.25-1.55a61212 61212 0 0 1-45.83 25.13c-3.64 2-5.27 1.42-7.09-2.32a502 502 0 0 1-3.52-7.37c-2.48-5.21-2-6.61 3-9.31 16-8.61 31.9-17.26 47.9-25.78 2-1.08 2.54-2.18 2.26-4.41-2-15.3 3-28 14.64-38.1a4 4 0 0 0 1.47-4.87c-1.93-6.83-5.33-12.37-11.94-15.74a103 103 0 0 1-11.09-6.88 27.28 27.28 0 0 1-11.15-14.66 7.24 7.24 0 0 1 1.42-6.93c5.43-7.24 13.35-9.2 21.53-8.63 6.47.46 12.84 2.8 19.18 4.57 5.72 1.59 6.13 1.6 9.24-3.39 1.48-2.38 2.7-5 4.33-7.22 2.91-4 6-4.71 10.41-2.46 2 1 4 2.24 5.94 3.32 3.79 2.06 7.33 1.75 10.6-1a24 24 0 0 0 3.6-3.7 46.7 46.7 0 0 1 16.41-13.19 44.9 44.9 0 0 0 17.4-16.4c1.73-2.72 4.74-3 7.09-.45 4.57 5 9.3 9.94 13.42 15.32a52.34 52.34 0 0 0 25.14 18.23c7 2.42 13.51 6.15 20.34 9.07 8.31 3.55 16.68 7 25.13 10.23 4.72 1.81 5.87 3.53 4.22 8.42a3755 3755 0 0 1-11.46 33.4c-1.67 4.8-5.37 8-9.51 10.48a42.53 42.53 0 0 0-15.71 16.91m-139.87 44.61c-1.28 3.28-2.33 6.47-3.76 9.48-.92 1.94-.36 2.91 1.23 4 10.86 7.24 23 10.79 35.72 13 5.42.95 11 1.67 16.07 3.6 3.75 1.43 6.89 4.57 10.15 7.14 1.85 1.46 3.59 2.22 5.58.59a64 64 0 0 0 6.19-5.52 54 54 0 0 0 3.83-5.28c2.85-3.88 6.74-5.85 11.46-6.61 5.788-.94 11.72.247 16.7 3.34 12.17 7.2 24.84 7.78 37.52 2 5.33-2.42 10-6.41 15.21-9.89-11.38-11.77-14.38-25.34-12.17-40.46a26.3 26.3 0 0 0-.25-6.5c-.37-3.35-2.47-5.35-5.57-6.34-1.12-.36-2.31-.46-3.45-.75-3.72-1-5-3.79-3-7 5.47-8.83 11.24-17.37 20.69-22.65a14.5 14.5 0 0 0 7.19-9.45c1.53-5.85 3.63-11.57 5.6-17.3 1.41-4.1 3-8.12 4.58-12.3-4-1.49-8-2.72-11.81-4.41-10.25-4.59-20.39-9.41-30.61-14.07-4.86-2.21-9.94-4-14.64-6.46-8.17-4.31-13.58-11.6-19.17-18.67-2.37-3-5.13-5.7-7.39-8.18-5.11 4.6-9.23 9.67-14.52 12.74-8.28 4.81-15.76 10.18-21.87 17.59-3.1 3.75-7.54 5.09-12.49 4.92-4.14-.14-7.38-2.26-10.76-4.18-3.22-1.83-3.15-1.75-5.13 1.45s-4.1 6.4-6.36 9.44a7.36 7.36 0 0 1-8.51 2.69 431 431 0 0 1-14-4.26 27.77 27.77 0 0 0-19.42.85c-4.47 1.8-5.58 4.54-2.7 8.27a39.9 39.9 0 0 0 7.45 7.4 88 88 0 0 0 10.62 6.6 25.13 25.13 0 0 1 10.8 11.06c1.41 2.91 2.6 5.93 3.9 8.91 23.92-10 44.36 1.61 53.25 15a42.385 42.385 0 0 1-2.43 50.24c-10.45 12.85-31.03 21.44-53.73 9.97m21-1.9c19.36.06 35.08-15.34 35.12-34.4a35.24 35.24 0 0 0-34.87-35.45 34.92 34.92 0 0 0-32.87 21.307 34.932 34.932 0 0 0 32.62 48.543m-85.7 12.68 48.83-26.9-2.45-5-49 26.49zM281.328 247.312c-.95 5.41-1.47 11-3 16.39-1.89 6.61-8 8.44-13.58 4.33-8.91-6.55-12.69-15.61-11-26.41.51-3.19 3.22-6.16 5.34-8.91 3.14-4.08 6.55-8 10-11.75a11.24 11.24 0 0 1 4.65-3 3 3 0 0 1 4 2.67c1.32 8.81 2.41 17.61 3.59 26.68m-11 15.58c4.34-3.78 3.59-27.18 1.76-31.71-1.74 1.38-3.75 3.07-5.85 4.64-5.07 3.77-6.9 8.66-5.22 14.78a19.18 19.18 0 0 0 9.33 12.29z"/><path fill="#fff" d="M94.399 198.431c22.7 11.47 43.28 2.85 53.73-9.94a42.39 42.39 0 0 0 2.429-50.24c-8.89-13.4-29.33-25-53.25-15-1.3-3-2.49-6-3.9-8.91a25.13 25.13 0 0 0-10.85-11.12 87.6 87.6 0 0 1-10.62-6.6 39.9 39.9 0 0 1-7.45-7.4c-2.88-3.73-1.77-6.47 2.7-8.27a27.77 27.77 0 0 1 19.42-.85q7 2.22 14.001 4.26a7.36 7.36 0 0 0 8.51-2.69c2.26-3 4.36-6.22 6.36-9.44s1.91-3.28 5.13-1.45c3.38 1.92 6.62 4 10.76 4.18 4.95.17 9.39-1.17 12.49-4.92 6.11-7.41 13.59-12.78 21.87-17.59 5.29-3.07 9.41-8.14 14.52-12.74 2.26 2.48 5 5.18 7.39 8.18 5.59 7.07 10.999 14.36 19.169 18.67 4.7 2.48 9.78 4.25 14.64 6.46 10.22 4.66 20.36 9.48 30.61 14.07 3.79 1.69 7.781 2.92 11.811 4.41-1.56 4.18-3.171 8.2-4.581 12.3-2 5.73-4.07 11.45-5.6 17.3a14.502 14.502 0 0 1-7.189 9.45c-9.45 5.28-15.221 13.82-20.691 22.65-2 3.25-.69 6.07 3 7 1.14.29 2.331.39 3.451.75 3.1 1 5.199 3 5.569 6.34.352 2.148.436 4.331.25 6.5-2.21 15.12.791 28.69 12.171 40.46-5.26 3.48-9.881 7.47-15.211 9.89-12.68 5.75-25.349 5.17-37.519-2a24.28 24.28 0 0 0-16.701-3.34c-4.72.76-8.609 2.73-11.459 6.61a54 54 0 0 1-3.83 5.28 64 64 0 0 1-6.191 5.52c-2 1.63-3.729.87-5.579-.59-3.26-2.57-6.4-5.71-10.15-7.14-5.07-1.93-10.651-2.65-16.071-3.6-12.69-2.22-24.86-5.77-35.72-13-1.59-1.05-2.15-2-1.23-4 1.48-2.98 2.53-6.17 3.81-9.45m66.71-70.24c3.19-.45 4.25-2 4.17-4.27-.26-7.13 2.839-12.56 8.259-16.9 1.61-1.29 3-2.78 2.5-5.07s-2.439-3.11-4.439-3.44c-4.93-.82-7.651-4.12-9.781-8.22-.54-1-1-2.42-1.9-2.88-1.5-.77-3.539-1.6-4.929-1.14-1.13.38-2.311 2.63-2.301 4 0 5.81-1.73 10.4-7 13.49a4.393 4.393 0 0 0-1.669 3.6c.16 1.1 1.569 2.16 2.639 3a5.6 5.6 0 0 0 2.591.72c3.26.45 5.119 2.34 6.089 5.41a93 93 0 0 0 3.271 9.19c.54 1.13 1.87 1.9 2.5 2.51m11.53 63.66c4.12-1.1 5.609-2.36 5.269-4.54-.51-3.22-3.09-3-5.85-3 0-1.68.09-3.21 0-4.71-.19-2.78-1.54-4.32-3.6-4.31s-3.429 1.63-3.589 4.33c-.1 1.61 0 3.23 0 4.83-3.59.48-4.95 1.3-5 3.27-.15 3.62 2.81 3.9 5.36 4.57.06.81.11 1.53.15 2.24s0 1.65.14 2.45c.44 2.57 1.999 4.07 4.149 3.77 2.54-.36 3-2.25 3-4.41-.03-1.49-.029-3.03-.029-4.49m-60.211-93.25c-.13-.52-.229-.86-.289-1.21-.37-2-1.271-3.53-3.431-3.62-2-.09-3 1.14-3.62 3-.21.7-1.129 1.25-1.829 1.72-2.07 1.42-2.641 4.26-.571 5.45 2.34 1.34 2.481 3.3 3.211 5.37a4.32 4.32 0 0 0 3.22 2.48c1.11 0 2.429-1.44 3.219-2.56.54-.77.32-2.07.45-3.16 2.21-.69 4.67-1.22 4.43-4.25-.25-2.7-2.39-3.04-4.79-3.22"/><path fill="#3558a2" d="M115.369 196.531a34.94 34.94 0 0 1-25.036-10.112 34.935 34.935 0 0 1-7.584-38.431 34.93 34.93 0 0 1 32.87-21.307 35.24 35.24 0 0 1 34.87 35.45c-.04 19.06-15.76 34.46-35.12 34.4M29.669 209.211l-2.62-5.33 49-26.49 2.45 5z" opacity=".5"/><path fill="#fff" d="M270.349 262.892a19.2 19.2 0 0 1-9.311-12.29c-1.68-6.12.151-11 5.221-14.78 2.1-1.57 4.11-3.26 5.85-4.64 1.86 4.53 2.58 27.93-1.76 31.71"/><path fill="#3558a2" d="M161.109 128.191c-.63-.61-2-1.38-2.46-2.51a93 93 0 0 1-3.27-9.19c-1-3.07-2.83-5-6.09-5.41a5.6 5.6 0 0 1-2.59-.72c-1.07-.8-2.48-1.86-2.64-3a4.4 4.4 0 0 1 1.67-3.6c5.23-3.09 7-7.68 7-13.49 0-1.41 1.17-3.66 2.3-4 1.39-.46 3.43.37 4.93 1.14.9.46 1.36 1.85 1.9 2.88 2.13 4.1 4.85 7.4 9.78 8.22 2 .33 3.94 1.1 4.44 3.44s-.89 3.78-2.5 5.07c-5.42 4.34-8.52 9.77-8.26 16.9.04 2.27-1.02 3.82-4.21 4.27m-5.78-23 1.05-.93 5 5.8 4-5.55-6.74-5.45c-1.08 2.08-2.19 4.11-3.31 6.14zM172.64 191.851v4.52c0 2.16-.49 4.05-3 4.41-2.1.3-3.711-1.2-4.151-3.77-.13-.8-.09-1.63-.14-2.45s-.09-1.43-.15-2.24c-2.55-.67-5.51-.95-5.36-4.57.08-2 1.44-2.79 5-3.27 0-1.6-.08-3.22 0-4.83.16-2.7 1.55-4.31 3.59-4.33s3.411 1.53 3.601 4.31c.11 1.5 0 3 0 4.71 2.76 0 5.339-.25 5.849 3 .37 2.15-1.119 3.41-5.239 4.51M112.429 98.601c2.4.18 4.58.52 4.79 3.25.24 3-2.22 3.56-4.43 4.25-.13 1.09.09 2.39-.45 3.16-.79 1.12-2.11 2.55-3.22 2.56a4.334 4.334 0 0 1-3.22-2.48c-.73-2.07-.87-4-3.21-5.37-2.07-1.19-1.5-4 .57-5.45.7-.47 1.62-1 1.83-1.72.57-1.89 1.64-3.12 3.62-3 2.16.09 3.06 1.67 3.43 3.62.06.32.16.66.29 1.18M114.309 187.311a26.52 26.52 0 0 1-24.814-16.175 26.5 26.5 0 0 1-2.096-10.195c-.08-14.78 12.52-27.13 27.66-27.13s26.73 11.5 26.76 26.37a27.225 27.225 0 0 1-17.028 25.144 27.2 27.2 0 0 1-10.482 1.986m4.89-8.35c-.89-.38-1.78-.74-2.65-1.14-3.84-1.77-5.18-5.38-3-9a6.35 6.35 0 0 0 .13-7.07 15.63 15.63 0 0 1 .24-16.28c.81-1.38 1.55-2.81 2.47-4.5a20.9 20.9 0 0 0-13.25 3.81 3.34 3.34 0 0 0-1.68 3.89c.336 1.86.814 3.692 1.43 5.48 2.74 6.52 2 13-.3 19.34-.71 1.94-.19 2.94 1.52 3.88 4.75 2.6 9.66 3.53 15.09 1.57zm8.29-3.88c10-8.2 9.39-23.5-1.12-30.54-.7-.47-2-.93-2.56-.6-3.71 2.22-5.95 9.72-3.93 13.82 2.24 4.55 3.26 9 .55 13.71zm-31.62-18.61-1.17.09.78 11.4 1.09-.07a13.8 13.8 0 0 0-.7-11.44z"/><path fill="#fff" d="M155.328 105.2c1.12-2 2.23-4.06 3.36-6.13l6.74 5.45-4 5.55z"/><path fill="#cbcfdd" d="M119.199 178.942c-5.43 2-10.34 1-15.07-1.54-1.71-.94-2.23-1.94-1.52-3.88 2.34-6.38 3-12.82.3-19.34a37 37 0 0 1-1.43-5.48 3.344 3.344 0 0 1 1.68-3.89 20.9 20.9 0 0 1 13.25-3.81c-.92 1.69-1.66 3.12-2.47 4.5a15.62 15.62 0 0 0-.24 16.28 6.35 6.35 0 0 1-.13 7.07c-2.2 3.57-.86 7.18 3 9 .85.35 1.74.71 2.63 1.09M127.489 175.061l-7.06-3.61c2.71-4.72 1.69-9.16-.55-13.711-2-4.1.22-11.6 3.93-13.82.55-.33 1.86.13 2.56.6 10.51 7.041 11.15 22.341 1.12 30.541M95.87 156.451a13.8 13.8 0 0 1 .7 11.42l-1.09.07-.78-11.4z"/></svg>