<svg xmlns="http://www.w3.org/2000/svg" width="373" height="337" fill="none" viewBox="0 0 373 337"><path fill="#102185" d="M302.984 173.461c1.288.679 2.577 1.076 3.724 1.614 7.744 3.78 12.134 9.755 12.36 18.533.17 7.08.071 14.159-.184 21.253-.495 14.172 6.003 25.202 14.895 35.184 5.975 6.654 6.343 10.18-.312 16.155-11.213 10.194-23.475 18.703-38.837 21.776-15.362 3.072-31.432.637-45.067-7.094-6.314-3.384-12.743-5.352-19.624-2.917-3.228 1.218-6.017 3.129-8.353 5.593-2.351 2.605-4.262 5.494-5.876 8.495-3.398 5.607-8.566 8.708-14.315 11.256-1.812.892-3.794 1.232-5.776 1.133s-3.979-.609-5.706-1.699c-2.011-.949-3.738-2.322-5.338-3.696-7.405-7.461-16.679-10.066-26.887-10.803-18.307-1.529-36.275-6.47-52.628-14.696-4.163-2.166-7.9-4.757-11.525-7.646-4.191-3.299-4.687-5.975-2.818-10.831 2.124-5.72 4.248-11.299 6.23-17.005a4.7 4.7 0 0 0-.043-1.982c-.014-.708-.453-1.26-.891-1.812-6.67-6.485-6.67-6.343-14.485-1.77-21.365 12.431-42.589 24.848-63.954 37.124-5.027 2.959-7.448 2.166-10.124-3.002-1.784-3.355-3.568-6.852-5.21-10.35-3.724-7.277-3.058-9.273 3.922-13.266 22.342-12.729 44.543-25.599 66.9-38.2 2.789-1.628 3.454-3.2 3.1-6.315-3.37-21.592 3.27-39.743 19.327-54.44 1.118-.736 1.798-1.883 2.194-3.171.397-1.289.227-2.549-.24-3.823-2.931-9.557-7.93-17.373-17.387-21.804a183 183 0 0 1-15.957-9.373c-7.617-4.63-13.323-11.85-16.226-20.417-.609-1.685-.651-3.384-.41-5.224.24-1.7 1.047-3.285 2.152-4.73 7.39-10.378 18.505-13.492 30.13-12.926 9.216.481 18.221 3.511 27.34 5.833 8.127 2.067 8.693 2.053 12.898-5.14 2.039-3.454 3.653-7.178 5.834-10.335 3.964-5.763 8.325-6.867 14.64-3.908 2.86 1.345 5.734 2.973 8.466 4.46 5.452 2.846 10.393 2.294 14.966-1.784 1.798-1.6 3.455-3.341 4.97-5.366a66.2 66.2 0 0 1 22.753-19.256c10.053-5.635 18.349-13.903 24.055-23.829 2.308-3.88 6.542-4.417 10.039-.962 6.683 6.909 13.507 13.69 19.496 21.18 9.218 11.81 21.89 20.417 36.162 24.877 9.996 3.158 19.326 8.298 29.053 12.177a861 861 0 0 0 35.878 13.564c6.711 2.378 8.467 4.743 6.244 11.737-4.984 15.844-9.982 31.829-15.107 47.672-2.237 6.853-7.363 11.511-13.083 15.192a60.3 60.3 0 0 0-21.634 24.466l.283.284zm-196.452 68.018c-1.727 4.714-3.03 9.274-5.04 13.578-1.204 2.718-.467 4.12 1.841 5.621 15.673 9.812 32.933 14.484 50.985 17.146 7.674 1.09 15.631 2.025 22.909 4.531 5.422 1.854 9.925 6.272 14.682 9.698 2.605 2.067 5.168 2.988 7.943.651 3.058-2.477 5.819-5.238 8.58-7.999 1.926-2.45 3.71-4.913 5.197-7.632 3.822-5.621 9.274-8.438 16.041-9.741 8.184-1.472 16.566-.127 23.759 4.092 17.514 9.769 35.382 10.166 53.151 1.515 7.419-3.582 13.932-9.415 21.167-14.541-16.551-16.296-21.266-35.311-18.689-56.903.212-3.115 0-6.088-.51-9.189-.679-4.658-3.724-7.419-8.141-8.722-1.572-.524-3.271-.623-4.984-1.005-5.267-1.289-7.207-5.21-4.488-9.798 7.476-12.643 15.249-25.018 28.501-32.848 2.506-1.472 4.729-3.369 6.372-5.819 1.642-2.308 2.846-5.026 3.483-7.872 1.925-8.269 4.686-16.551 7.32-24.679 1.84-5.847 3.964-11.567 6.074-17.57-5.72-1.983-11.412-3.54-16.863-5.82-14.598-6.159-29.21-12.586-43.807-18.887-7.009-2.945-14.159-5.31-20.898-8.693-11.752-5.806-19.653-15.943-27.836-25.797-3.497-4.163-7.419-7.887-10.761-11.341-7.051 6.682-12.686 14.045-20.077 18.477-11.582 7.079-22.002 14.994-30.384 25.683-4.262 5.494-10.435 7.476-17.529 7.377-5.805 0-10.548-3.002-15.433-5.565q-4.587-2.435-7.164 2.308c-2.577 4.743-5.578 9.203-8.736 13.536-1.232 1.869-3.171 3.341-5.281 4.092s-4.517.821-6.655.17c-6.697-1.671-13.266-3.64-19.963-5.593-9.133-2.747-18.888-2.081-27.426 1.954-6.3 2.704-7.773 6.57-3.525 11.837 3.072 3.893 6.839 7.334 10.874 10.208 4.899 3.426 9.925 6.414 15.234 8.976 6.74 3.37 12.248 8.623 15.674 15.334 2.081 4.05 3.88 8.255 5.833 12.46 33.486-14.994 62.907.708 75.82 19.369 7.334 10.435 11.2 23.092 10.803 35.849s-4.757 25.188-12.587 35.298c-14.413 18.632-43.127 31.375-75.664 16.027l.156.283zm29.649-3.427c27.453-.679 49.144-22.88 48.479-49.923-.326-13.167-5.734-25.783-15.164-34.887-9.43-9.118-22.158-14.187-35.467-13.988-6.513.155-12.998 1.316-19.171 3.879a49.8 49.8 0 0 0-16.155 11.016c-4.56 4.644-8.24 10.264-10.648 16.409s-3.51 12.545-3.497 19.214a49.6 49.6 0 0 0 4.29 19.014c2.69 6.032 6.513 11.455 11.299 15.872 4.785 4.559 10.392 7.957 16.537 10.35 6.145 2.251 12.686 3.37 19.199 3.073h.283zM15.322 259.021l68.132-39.785-3.71-6.995-68.429 39.219 3.866 7.547h.141zM372.786 304.159c-1.232 7.674-1.741 15.617-3.667 23.319-2.464 9.401-11.03 12.177-19.1 6.556-12.828-9.034-18.52-21.635-16.495-36.983.595-4.545 4.319-8.891 7.193-12.785 4.247-5.918 8.92-11.553 13.748-17.047 1.784-2.025 4.021-3.497 6.4-4.403.566-.156 1.26-.312 1.982-.184.708-.014 1.274.254 1.855.665.58.411 1.005.821 1.302 1.388.297.566.595 1.26.609 1.826 2.152 12.417 4.007 24.834 6.032 37.662h.141zm-15.022 22.455c5.946-5.536 4.148-38.624 1.444-44.925-2.35 2.039-5.267 4.517-8.184 6.711-7.079 5.55-9.458 12.559-6.838 21.125.934 3.653 2.718 7.008 5.054 9.925s5.239 5.395 8.68 7.15h-.142z"/><path fill="#102185" d="M198.479 139.777c-.864-.821-2.875-1.911-3.625-3.455a208 208 0 0 1-4.998-12.912c-1.529-4.361-4.134-6.98-8.821-7.434-1.274.029-2.563-.368-3.709-.906-1.586-1.09-3.611-2.605-3.781-4.148-.028-.991.099-1.982.496-2.846.41-.864.948-1.727 1.784-2.308 7.249-4.573 9.642-11.143 9.43-19.355-.199-8.212 1.571-5.28 3.114-5.748 1.968-.75 4.829.453 6.981 1.387 1.288.68 2.038 2.492 2.789 4.036 3.115 5.734 7.051 10.307 14.159 11.27 2.845.354 5.564 1.416 6.343 4.658s-1.147 5.409-3.356 7.306c-7.49 6.272-11.695 14.173-11.157 24.211.085 3.257-1.288 5.409-5.791 6.23h.142zm-9.005-32.352 1.529-1.317 7.278 8.028 5.465-7.929-9.671-7.405c-1.486 3.016-2.973 5.876-4.46 8.75l-.141-.141zM216.984 229.402l.156 6.371c.071 3.115-.566 5.819-4.092 6.329-2.959.495-5.281-1.572-6.074-5.239-.17-1.133-.057-2.265-.227-3.398-.028-1.133-.042-1.982-.353-3.101-3.568-.906-7.816-1.076-7.802-6.329-.071-2.831 1.883-4.007 6.966-4.842l-.17-6.796c.184-3.823 1.968-6.145 4.942-6.216 2.973-.07 4.87 2.011 5.252 5.961.199 2.124.1 4.248.17 6.655 3.965-.099 7.49-.467 8.311 4.049.638 3.101-1.444 4.856-7.206 6.556h.141zM128.521 99.581c3.398.198 6.527.552 6.909 4.361.383 4.234-2.987 5.168-6.074 6.102-.099 1.558.085 3.399-.594 4.545-1.091 1.586-2.889 3.611-4.432 3.795a5.84 5.84 0 0 1-2.718-1.062c-.864-.552-1.445-1.373-1.898-2.223-1.062-2.945-1.416-5.635-4.715-7.532-3.015-1.629-2.265-5.607.666-7.66.977-.736 2.223-1.472 2.492-2.464.779-2.704 2.152-4.445 4.984-4.375 3.115-.07 4.446 2.294 4.941 4.97 0 .425.312.977.467 1.685v-.142zM134.312 225.069c-4.956.127-9.925-.609-14.499-2.337a36 36 0 0 1-12.516-7.758 39.8 39.8 0 0 1-8.65-11.964c-2.096-4.475-3.2-9.416-3.328-14.357-.524-20.955 16.75-38.795 38.257-39.333s38.2 15.348 38.851 36.43c.127 5.097-.736 10.081-2.605 14.796s-4.588 9.033-8.184 12.672-7.773 6.569-12.389 8.665a40.9 40.9 0 0 1-14.796 3.2h-.141zm6.64-12.064c-1.288-.538-2.577-.934-3.723-1.472-5.437-2.421-7.547-7.462-4.56-12.629.963-1.445 1.473-3.299 1.431-4.998-.043-1.841-.51-3.526-1.544-5.055-2.209-3.483-3.299-7.419-3.398-11.525s1.076-8.099 3.115-11.554c1.09-2.01 2.025-4.021 3.384-6.456-6.669-.255-13.267 1.883-18.548 5.848-.977.453-1.671 1.316-2.067 2.463-.397 1.006-.51 2.138-.071 3.115.496 2.676 1.26 5.21 2.181 7.731 4.049 9.104 3.284 18.335.254 27.326-.92 2.718-.184 4.106 2.266 5.465 6.881 3.511 13.847 4.616 21.422 1.741zm11.61-5.805c13.862-11.949 12.488-33.598-2.619-43.127-1.005-.679-2.86-1.203-3.695-.764-5.154 3.242-8.156 13.946-5.041 19.666 3.271 6.428 4.984 12.63 1.189 19.369l10.181 4.842zm-45.378-25.23-1.699.042 1.529 16.254 1.557-.042a21.1 21.1 0 0 0 1.062-8.382c-.212-2.832-1.132-5.493-2.463-7.872z"/></svg>