<svg xmlns="http://www.w3.org/2000/svg" width="266" height="265" fill="none" viewBox="0 0 266 265"><path fill="#102185" d="M73.711 50.359c-1.982-1.275-2.973-2.124-4.247-2.832-6.797-4.53-12.885-9.77-18.265-15.858-2.832-2.973-4.956-6.654-5.947-10.619q-1.062-3.61-.424-7.22a19.8 19.8 0 0 1 2.548-6.796c.991-1.558 2.266-2.974 3.823-4.106 1.557-.992 3.256-1.7 5.239-2.124 7.929-1.416 15.008.424 19.963 7.079a95 95 0 0 1 6.372 10.902c.708 1.133 1.274 2.407 2.265 4.53L90.277 5.76v-.708c.708-3.54 3.115-5.522 6.088-4.955 2.973.566 4.956 3.681 4.106 7.08-.566 2.406-1.133 4.813-1.982 7.078-3.398 9.345-5.239 18.973-7.221 28.6a24.5 24.5 0 0 0-.425 4.532c17.415 4.672 27.185 15.432 28.601 33.697l2.973-1.416c8.495-3.964 17.557-6.938 27.043-7.08 5.805 0 11.752.992 17.557 1.558 1.274 0 2.548.425 3.823.708 1.84-2.124 3.539-4.247 5.238-6.371 5.522-6.796 12.743-11.893 19.822-16.99 5.805-4.248 12.035-7.788 18.123-11.61 1.416-.85 2.691-1.841 4.107-2.832 2.406-1.558 4.53-1.416 6.371.283a5.44 5.44 0 0 1 1.557 3.256c0 1.275-.283 2.407-1.132 3.398-1.416 1.7-3.115 2.974-4.956 4.106-3.115 1.983-6.23 3.54-9.345 5.38-.991.567-1.84 1.275-2.831 2.124 5.946.708 11.468 1.275 17.132 1.983 12.176 1.557 23.928 4.53 35.396 8.92 4.956 1.84 6.23 5.946 2.974 10.194-6.513 8.637-14.867 14.017-25.911 14.866-17.556 1.416-33.131-3.823-47.573-13.309a347 347 0 0 1-5.238-3.54l-3.682 4.248 5.239 2.832c12.743 6.796 20.672 17.415 24.919 31.007 3.823 12.318 2.124 24.07-4.247 35.255-3.54 6.23-7.08 12.46-12.885 17.132-1.84 1.416-3.539 2.832-5.522 4.389v1.416c4.106 18.265.85 35.397-7.787 51.679-8.778 16.707-22.654 27.751-39.078 35.963-6.23 2.832-12.884 4.531-19.68 4.955-7.788.85-15.716.991-23.504.283a70 70 0 0 1-31.573-11.185c-7.93-5.097-15.009-11.185-21.38-18.264-6.513-7.08-11.61-15.575-14.583-24.778-.284-.991-.709-1.841-1.416-2.549-.708-.707-1.558-1.274-2.407-1.699-2.407-.991-4.531-2.548-6.372-4.247-3.823-3.398-7.504-7.079-11.044-10.619-4.955-4.956-7.504-11.327-8.636-18.123-1.558-8.354-1.133-16.99.99-25.202 2.833-10.902 9.062-19.822 17.416-27.185l7.22-6.371c5.523-4.531 9.912-10.053 13.31-16.424 3.965-7.504 7.787-15.008 11.044-22.796 4.53-10.76 10.619-19.68 22.937-24.07zm30.724 204.025c4.956-.283 10.053-.283 15.009-.708 8.636-.566 16.99-3.256 24.211-7.929 2.69-1.84 5.38-3.539 7.929-5.38 12.318-8.778 21.238-21.379 25.344-35.821.991-3.681 1.699-7.504 2.265-11.327 1.133-7.787.991-15.433-1.982-22.654-1.699-4.106-3.823-8.07-5.947-12.034-.708-1.133-1.699-1.983-2.831-2.407a76.6 76.6 0 0 0-10.903-3.823 20.7 20.7 0 0 0-7.22-.425c-8.496.566-16.566 3.115-24.778 5.097a38.3 38.3 0 0 1-24.495-1.699c-5.097-2.124-10.194-4.248-15.15-6.654-5.804-2.549-12.034-3.823-18.264-3.682-2.69 0-5.38.708-7.787 1.982-6.372 3.399-11.61 8.637-15.15 15.009-7.929 13.309-8.92 27.609-5.097 42.334 2.69 10.194 8.212 19.539 15.858 26.901 13.733 13.451 28.883 23.503 48.988 23.645zm3.115-107.747c.142-.849.284-1.699.284-2.548-.425-6.655-1.699-12.885-5.239-18.69-3.398-5.521-6.513-11.043-9.628-16.707a57.5 57.5 0 0 1-3.823-9.203 5.08 5.08 0 0 1 0-3.54c.425-1.132 1.416-1.982 2.549-2.548 2.407-.991 4.955 0 6.513 2.549l.85 1.699c2.689 7.22 6.795 13.45 10.618 20.105.425.566.85 1.132 1.416 1.557 3.964-3.964 4.106-4.389 2.265-9.203-.141-.425-.424-.991-.566-1.416-.991-3.115-1.982-6.371-2.832-9.628-1.415-6.37-1.84-13.025-1.415-19.538.283-3.54-.85-6.938-2.974-9.77a70.7 70.7 0 0 0-9.203-9.203c-1.699-1.133-3.681-1.84-5.663-2.124-6.796-1.274-12.885.567-18.831 3.823-5.805 3.257-8.779 9.062-11.469 15.008-3.398 7.363-6.654 14.725-10.336 21.946-4.247 8.778-10.477 16.566-17.981 22.937-2.124 1.699-4.248 3.681-6.372 5.522-13.167 11.61-17.84 26.193-15.15 43.325.708 4.814 2.832 9.203 6.089 12.601 2.265 2.407 4.672 4.814 6.938 7.221.99.991 2.123 1.699 3.68 3.115v-6.796c.284-17.274 6.514-31.999 19.257-43.75 4.813-4.673 11.043-7.646 17.84-8.495 8.495-.85 16.99.566 24.777 4.106 4.39 1.84 8.637 3.964 13.026 5.805 1.699.708 3.398 1.274 5.239 1.982zm15.717-39.644c4.672-3.115 8.919-6.23 13.309-9.061 5.38-3.54 11.751-5.38 18.264-4.956 10.761.567 16.849 9.911 12.743 19.822-1.416 3.682-3.54 7.08-6.23 9.911a28.6 28.6 0 0 1-9.628 6.655c-4.106 1.84-8.353 3.115-12.601 4.672l3.115 8.495 1.841-.283c4.814-.708 9.628-1.84 14.442-.425 4.389 1.275 8.778 2.69 13.026 4.531 2.407.85 4.53 2.266 6.229 3.965a15.46 15.46 0 0 1 4.106 6.229c.567 1.133 1.133 2.266 1.841 3.398a90 90 0 0 0 2.549-1.982c5.238-4.247 8.636-9.911 11.61-15.574 3.398-6.513 5.663-13.309 4.247-21.097-2.831-15.999-11.327-27.184-26.335-33.272-4.672 3.964-8.778 2.548-9.769-3.257-13.876-4.389-32.424-1.557-46.441 8.495.567 4.814 1.841 9.487 3.823 13.734zm69.235-39.22c.85.709 1.275 1.134 1.699 1.558 8.071 6.089 17.416 9.345 27.043 11.61 6.23 1.416 12.602 1.416 18.69 0 4.389-.85 8.353-3.115 11.185-6.513l-1.982-.707c-8.07-2.69-16.282-4.673-24.636-5.806-6.796-.849-13.592-1.415-20.389-1.557-3.964-.142-7.928.283-11.751 1.416zm-72.634 57.06h8.071c7.221-.283 14.3-1.982 20.672-5.239 4.247-2.123 7.645-5.805 9.486-10.194 1.557-3.823.141-5.946-3.965-6.23-3.398-.141-6.937.567-9.911 2.266-9.203 4.814-16.565 11.61-24.353 19.397m-41.626-83.96c.142-.425.283-.992.283-1.416-1.274-8.92-4.672-17.415-9.77-24.92-1.274-1.698-3.114-2.973-5.096-3.68-2.407-.85-5.098-1.133-7.221 1.132a5.95 5.95 0 0 0-1.7 3.54c-.141 1.416 0 2.69.709 3.964.707 1.7 1.84 3.398 3.114 4.814 3.965 3.965 8.07 7.929 12.318 11.61 2.407 1.84 4.814 3.54 7.363 5.097zm50.405 94.013c-2.124.141-3.965.283-5.947.566-1.84.142-3.823-.708-5.522.566.425 3.965.85 7.646 1.275 11.894l13.45-3.115-3.256-9.77z"/></svg>