<svg xmlns="http://www.w3.org/2000/svg" width="370" height="234" fill="none" viewBox="0 0 370 234"><path fill="#102185" d="M165.978 28.459c1.274-6.23 1.415-12.743.424-19.114V6.23c.283-4.248 2.124-6.088 6.372-6.23 2.973 0 5.946.283 8.92.425l45.449 1.133c5.805 0 7.787 2.406 7.221 8.353-.567 5.097-.991 10.194-1.416 15.574 2.407.85 4.531 1.558 6.655 2.407 4.955 2.266 10.052 4.531 14.866 7.221.85.567 1.841.85 2.832.708.991 0 1.982-.566 2.548-1.274a304 304 0 0 1 10.336-8.637c4.248-3.256 6.796-3.115 10.336.708 11.61 12.743 23.22 25.486 34.689 38.228 3.54 3.965 3.256 6.513-.567 10.336-3.398 3.398-6.937 6.513-10.335 9.911-.991.85-1.841 1.84-2.691 2.69-2.407 2.266-2.831 4.814-2.123 8.212 2.265 9.203 2.831 18.831 1.982 28.317-.283 2.974.283 4.814 3.115 6.513 4.248 2.832 8.353 5.947 12.176 9.487 2.973 2.407 3.257 4.672 1.275 8.212-4.673 8.778-9.628 17.556-14.442 26.335-3.54 6.512-7.221 13.025-10.761 19.538-.425.85-.991 1.841-1.557 2.691-2.266 3.256-4.673 3.964-8.354 2.406-6.23-2.831-12.459-5.946-19.256-9.061-2.69 1.699-5.805 3.823-9.061 5.522-3.398 1.84-6.796 3.539-10.336 5.097-1.133.283-1.982.991-2.69 1.982s-1.133 1.982-1.133 3.115c-.425 5.664-1.133 11.185-1.557 16.849-.708 9.628-2.266 10.902-11.894 10.194l-56.493-3.823c-1.982 0-4.106-.425-6.088-.566-4.672-.425-6.796-2.832-6.23-7.363.991-6.513 1.982-13.026 3.257-19.397.566-2.407 0-3.398-2.124-4.531-8.495-4.389-16.283-9.911-23.079-16.707-.708-.849-1.557-1.416-2.548-1.557a4.52 4.52 0 0 0-2.974.566 273 273 0 0 1-13.592 5.522c-5.38 2.124-7.929.991-10.053-4.248a3033 3033 0 0 1-19.538-49.838c-1.841-4.672-.85-7.221 3.68-9.344 4.532-2.124 9.062-4.107 13.735-6.089.849-.283 1.415-.849 1.84-1.416.425-.707.708-1.557.567-2.265 0-4.106.424-8.212 1.132-12.318.283-1.274.142-2.69-.424-3.964-.567-1.275-1.558-2.124-2.832-2.69L95.609 87.5c-.85-.566-1.84-.99-2.69-1.557-4.106-2.549-4.956-5.097-2.832-9.487 4.39-8.92 8.778-17.698 13.309-26.476 2.973-5.947 5.947-12.035 9.062-17.84 2.548-4.955 4.672-5.805 10.052-3.681 6.938 2.832 13.734 5.663 20.53 8.778.991.566 2.124.85 3.257.708a4.95 4.95 0 0 0 3.115-1.133c5.097-3.115 10.477-5.805 16.141-8.92zm58.05-16.707-47.148-1.275c0 6.23-.425 11.894.141 17.557.425 4.53-2.407 8.212-6.513 10.053-5.663 2.548-11.044 5.38-16.282 8.778-4.248 2.832-8.071 3.398-12.46 1.133-.849-.425-1.557-.708-2.407-1.133l-18.265-7.646c-6.654 13.31-13.309 26.477-19.822 39.503 5.239 3.54 10.053 6.796 15.15 9.91 1.416.709 2.549 1.983 3.257 3.399.707 1.416.849 3.115.566 4.672-.708 6.938-1.274 13.734-1.841 20.672 0 1.274-.424 2.69-1.132 3.823-.708 1.132-1.841 1.982-3.115 2.548-3.257 1.416-6.513 2.832-9.911 4.248-1.841.849-3.682 1.699-5.664 2.548a9526 9526 0 0 1 17.557 44.6c5.38-2.124 10.477-3.965 15.291-6.088 4.248-1.699 6.372-1.416 9.628 1.982 8.212 8.637 17.557 15.857 28.742 20.247.991.424 1.983 1.132 2.549 1.982.566.849.849 1.982.849 3.115 0 1.416-.283 2.831-.566 4.247-1.133 5.947-2.265 12.035-3.54 18.69l59.892 3.964c.141-1.416.283-2.124.424-2.832.708-6.088 1.275-12.176 1.841-18.406.425-5.097 2.124-9.061 8.354-8.637 7.362-3.114 14.583-6.229 20.388-12.034a6.03 6.03 0 0 1 3.256-1.983c1.275-.283 2.549 0 3.682.567 1.557.708 2.831 1.699 4.389 2.548 4.247 2.266 8.495 4.531 13.026 6.938 8.07-14.725 15.858-28.884 23.787-43.325-4.39-3.257-8.496-6.372-12.743-9.203-3.398-2.407-5.381-5.522-4.248-9.062 1.982-6.088 1.558-12.318.85-18.406-.85-5.664-2.124-11.327-3.682-16.849a6.32 6.32 0 0 1 0-3.964c.283-1.274 1.133-2.549 2.124-3.398 4.248-4.248 8.495-8.495 12.743-12.885.849-.849 1.699-1.84 2.69-2.831l-30.724-33.84-15.15 11.328c-2.549 1.982-4.389 1.84-6.938 0-1.274-1.133-2.69-2.266-4.247-3.257-6.796-3.964-14.301-7.08-21.946-9.062-1.133-.283-2.124-.849-2.832-1.698a4.95 4.95 0 0 1-1.133-3.115c0-3.115.284-6.088.425-9.203.142-2.69.566-5.38.991-8.779zM41.099 43.892c-.283 4.813 1.132 9.627 4.247 13.309 4.531 5.522 8.779 11.468 15.15 15.15.708.424 1.274.849 1.84 1.415 3.965 3.398 4.248 7.08.426 10.902a16.3 16.3 0 0 1-2.407 1.983c-13.026 9.203-20.106 21.945-23.22 37.237-.709 2.973-.992 6.088-1.558 9.061-.142.991-.425 1.982-.708 2.973q-.638 1.7-2.124 2.549c-.991.566-2.124.85-3.256.708-1.133-.142-2.266-.849-2.974-1.699-.85-.85-1.274-1.982-1.416-3.115-.283-3.115-.424-6.088-.85-9.203-.849-7.221-1.415-14.583-2.548-21.804-1.274-7.788-5.097-13.593-13.309-15.575-1.699-.424-3.115-.99-4.672-1.84-4.814-2.832-4.956-7.646-.425-10.903.991-.707 1.982-1.132 2.973-1.84 5.24-3.823 10.62-7.646 15.717-11.752 4.814-3.964 6.796-9.486 7.645-15.433 0-1.699.283-3.256.708-4.955.708-1.84 1.84-3.54 3.398-4.814 3.115-2.124 6.938-.142 7.363 3.681zM15.896 79.855c11.044 4.813 14.584 14.017 16.707 24.352 4.531-10.052 11.894-17.556 19.398-24.352L35.152 61.448c-4.672 7.646-11.751 12.743-19.256 18.265zM348.341 114.968c.425-6.371 1.133-12.743 1.133-19.114 0-12.035-1.841-24.07-5.522-35.68-1.133-3.115-2.407-6.23-3.965-9.061-1.557-3.115-1.274-5.947 1.133-7.504 2.407-1.558 5.239-.85 7.363 1.982 3.398 4.672 5.097 10.053 6.512 15.574 3.682 14.725 5.947 29.733 4.248 45.025-.283 2.973-.283 5.946-.424 9.344 1.132-.991 1.84-1.699 2.69-2.407a4.4 4.4 0 0 1 3.114-1.274c1.133 0 2.266.283 3.257.991s1.699 1.699 1.841 2.832c.283 1.133 0 2.407-.708 3.398-2.407 3.681-4.956 7.221-7.788 10.477a43.5 43.5 0 0 1-6.654 5.805c-4.106 2.832-8.495 1.983-10.619-2.548-2.549-5.239-4.531-10.619-6.513-15.999a4.7 4.7 0 0 1 0-3.398c.425-1.133 1.274-1.983 2.265-2.549 1.133-.566 2.407-.708 3.54-.425s2.265.991 2.973 1.982c.708.85 1.133 1.841 1.841 2.832h.708z"/><path fill="#102185" d="M203.64 175.991c-30.866-.283-56.493-22.087-61.165-52.103-1.841-12.318.141-24.778 5.663-35.822 5.522-11.043 14.159-20.246 24.92-26.335 14.017-8.211 30.724-10.76 46.44-6.937 25.91 5.946 43.609 25.485 47.573 49.838 2.124 13.026 0 26.477-6.371 38.087-6.23 11.751-16 21.096-28.034 26.759-9.062 4.389-18.973 6.655-29.167 6.513zm53.662-62.156c.425-19.114-10.902-39.36-35.114-47.998-12.176-4.389-24.777-3.54-36.954 1.133-29.875 11.752-42.759 47.007-26.052 73.625 12.035 19.255 30.3 27.326 52.67 24.352 27.185-3.539 46.158-27.184 45.45-51.254z"/><path fill="#102185" d="M225.586 112.844c0 13.026-10.761 24.353-23.503 24.353s-5.664-.567-8.212-1.699a21.4 21.4 0 0 1-6.938-4.673c-1.982-1.982-3.54-4.389-4.673-7.079-1.132-2.69-1.557-5.38-1.557-8.212 0-12.884 10.902-24.494 23.503-24.211 14.017.283 21.38 10.76 21.38 21.663zm-23.503 13.875c3.539 0 6.937-1.557 9.344-4.106 2.549-2.548 3.965-5.946 3.965-9.486 0-1.982-.283-3.964-1.275-5.805-.991-1.699-2.265-3.256-3.964-4.247s-3.681-1.558-5.663-1.699c-1.983 0-3.965.424-5.664 1.415-2.265 1.133-4.248 2.832-5.522 4.956-1.416 2.124-2.124 4.531-2.407 7.079 0 1.558 0 3.115.567 4.531.566 1.416 1.274 2.832 2.407 3.964q1.698 1.699 3.822 2.549c1.416.566 2.974.849 4.531.849z"/></svg>