<svg xmlns="http://www.w3.org/2000/svg" width="128" height="197" fill="none" viewBox="0 0 128 197"><path fill="#102185" d="M37.461 59.822c.665-12.488 1.288-24.707 1.925-36.926.326-5.238.524-10.505.992-15.73S42.658.342 47.684.214c8.466-.198 16.92-.269 25.485-.17 4.7.114 6.57 2.096 7.32 6.783.212 1.458.27 3.044.496 4.502-.014.141.24.325.722.963 1.175-.255 2.52-.637 3.865-1.02 15.66-3.455 29.351-.184 39.942 12.658 3.058 3.596 3.015 5.876.439 9.798-1.303 2.095-2.733 4.035-4.036 6.145-4.233 6.54-7.022 6.994-13.054 2.25-3.313-2.774-7.377-4.36-11.638-4.544-5.38-.354-9.954 1.557-14.669 4.46.227 5.323.496 10.378.623 15.404.496.496 1.02.864 1.685 1.246 10.407 5.225 17.656 13.437 23.673 23.178 5.989 10.024 10.251 21.082 12.743 32.466 2.704 11.978 4.361 24.239 4.715 36.586.552 11.949.835 23.871 1.246 35.806.014.864.042 1.728-.099 2.705-.467 4.219-2.152 5.989-6.456 6.074-5.168.113-10.336.212-15.476.184l-40.706.538-52.444.552c-.835-.127-1.84-.127-2.704-.099-6.74-.835-9.09-3.469-9.231-10.35-.638-20.261 1.302-40.579 2.803-60.825.906-11.171 3.214-22.144 7.037-32.749 4.446-12.941 12.261-23.404 24.169-30.54 1.246-.68 2.364-1.515 3.624-2.336l-.283-.043zm79.02 125.049c-.085-6.301.283-11.837-.185-17.486-.75-11.554-1.656-23.135-2.845-34.604-1.94-18.165-6.74-35.453-17.529-50.758-9.26-13.069-21.932-19.482-37.79-17.642-18.052 2.11-30.795 12.134-37.562 29.181-3.342 8.24-5.579 16.792-6.584 25.655-.878 8.028-1.473 16.099-2.209 24.141-1.274 12.686-1.855 25.627-1.557 38.398.099 1.302.311 2.761.396 4.205l105.751-1.118h.142zM71.98 53.663c-.114-3.157-.17-6.754-.213-10.336s-.481-7.504-.68-11.114c-.17-3.738-.24-7.193-.58-10.818-.354-3.483.354-7.39-1.005-10.873l-17.316.07c-.283-.042-.736.185-1.062.425-1.034 4.149-2.704 41.386-2.039 43.623l23.022-.949h-.141zm41.867-21.393c.58-1.062 1.161-2.124 1.713-2.903-7.207-9.486-24.905-11.766-34.264-4.404l.467 4.645c17.43-3.767 19.384-3.484 32.07 2.789v-.142z"/><path fill="#102185" d="M65.198 162.556c-.51 3.497-2.336 5.239-4.8 5.451-1.302.099-2.52-.368-3.426-1.062s-1.572-1.94-1.84-3.129c-.256-2.18-.51-4.361-.482-6.513-.765-7.546-1.246-15.065-2.152-22.625-.793-6.414-4.149-10.902-10.93-12.46-1.26-.184-2.464-.793-3.526-1.373a5.05 5.05 0 0 1-2.025-1.869 5.2 5.2 0 0 1-.75-2.69c-.015-.864.269-1.827.665-2.62a5.04 5.04 0 0 1 1.87-2.024c1.103-.694 2.18-1.26 3.51-1.501 7.717-1.883 11.483-7.207 12.87-14.725.411-2.803.666-5.621.666-8.495.184-2.266-.056-4.588.297-6.966.156-1.119.624-2.336 1.303-3.1.85-.879 1.784-1.46 2.973-1.714 1.048-.283 2.308-.1 3.229.467.934.425 1.826 1.26 2.237 2.322a19.4 19.4 0 0 1 1.727 5.833c.609 4.673 1.94 9.289 4.332 13.508 2.733 4.828 7.052 8.608 12.177 10.775 1.5.509 2.846 1.132 4.163 1.897a5.04 5.04 0 0 1 2.024 1.869c.468.778.892 1.699.892 2.704.014.863-.127 1.84-.41 2.803-.397.807-.949 1.586-1.742 2.181-1.288.962-2.846 1.883-4.375 2.52-12.502 5.338-19.624 19.907-18.59 31.503.255 3.185.07 6.442-.014 9.005h.141zM62.664 105.1l-8.198 11.115c2.378 3.356 4.856 6.994 7.22 10.35l11.342-11.086-10.237-10.35h-.141z"/></svg>