<svg xmlns="http://www.w3.org/2000/svg" width="220" height="251" fill="none" viewBox="0 0 220 251"><path fill="#102185" d="M100.331 57.25c1.416 4.673 4.389 8.779 8.637 11.469 2.69 1.84 5.38 3.398 8.212 4.955.991.567 2.124.85 3.256.85 8.495-.425 15.575 3.115 21.663 8.495 4.956 4.106 9.062 9.203 11.893 15.008a9.3 9.3 0 0 0 2.124 2.549c.85.708 1.982 1.132 3.115 1.274 6.23 1.699 12.46 3.964 18.548 6.23 3.823 1.415 7.504 3.256 11.185 5.097q1.275.424 2.124 1.699c.566.849.85 1.557.991 2.548 0 1.133 0 2.124-.566 3.115a5.8 5.8 0 0 1-2.266 2.266c-2.548 1.699-4.955 3.539-8.07 5.663 1.699.425 2.407.85 3.257.991 7.079.991 13.592 4.106 18.83 8.92 4.956 4.389 9.062 9.769 12.177 15.716 2.973 6.23 4.531 13.026 4.389 19.822 0 .991 0 1.982-.283 3.115-1.133 5.522-5.239 7.504-10.336 4.956-2.973-1.558-5.947-2.974-9.061-4.248.707 1.982 1.698 3.681 3.114 5.097 2.832 3.398 5.806 6.938 8.779 10.194s3.256 6.938 1.274 11.044c-4.389 8.354-9.628 16.141-15.574 23.362-4.531 5.663-9.77 10.902-14.725 16.282-1.275 1.416-2.69 2.832-3.965 4.248a6.3 6.3 0 0 1-2.124 1.699c-.849.424-1.699.566-2.69.424-1.133 0-2.265 0-3.398-.283-10.902-2.832-21.379-6.23-30.866-12.459-9.061-5.805-17.556-12.602-24.919-20.53-2.832-2.974-4.531-6.23-4.106-10.336l1.699-21.804c-1.841 1.274-3.681 2.548-5.38 3.964-1.558 1.133-2.974 2.407-4.531 3.54-5.664 4.106-9.203 3.539-13.45-2.124l-3.54 2.973c.566 2.549 1.274 4.956 1.557 7.504.991 4.956.283 10.053-1.84 14.584-3.399 6.371-8.779 9.486-15.858 9.911h-5.38c-.425 1.557-.567 3.115-1.133 4.672-.992 3.398-3.115 6.23-6.088 8.212-2.974 1.982-6.372 2.832-9.911 2.407-3.398-.566-6.655-2.124-9.062-4.672-2.407-2.549-3.964-5.805-4.39-9.204a34 34 0 0 1 0-5.38q.426-2.76 1.275-5.522c-3.964-1.415-7.504-3.822-10.053-7.079-2.69-3.256-4.247-7.221-4.814-11.327-1.415-8.637 1.417-16.282 7.222-22.795-.567-.425-1.133-.85-1.558-1.274a23.8 23.8 0 0 1-6.513-6.513c-1.7-2.549-2.832-5.522-3.398-8.496-.142-1.132-.566-2.123-1.274-3.114-.708-.85-1.558-1.699-2.549-2.124-3.256-1.841-6.088-4.389-8.212-7.504S.512 138.521.088 134.839c-.425-4.53.708-9.203 3.115-13.026 2.407-3.964 5.946-6.937 10.335-8.636.284 0 .425-.283.567-.425.991-23.22 22.512-33.697 38.511-24.778.425-.85.85-1.84 1.133-2.69 3.257-8.495 9.203-14.017 18.406-15.857 4.531-.85 8.637.141 12.885 2.265A22.08 22.08 0 0 1 95.8 82.736c.142.424.425.85.708 1.274l8.495-6.513C97.641 73.25 92.261 66.312 89.853 58.1c-16.565.283-29.024-6.796-37.803-20.53-3.256.708-6.513 1.274-9.628 1.982-3.54.708-7.22.708-10.76 0-2.407-.425-4.814-.566-7.221-.85-1.274 0-2.407-.566-3.257-1.557s-1.274-2.124-1.416-3.256c0-1.275.425-2.549 1.274-3.54.85-.991 2.124-1.558 3.399-1.7 1.982 0 3.822 0 5.805.426 5.805 1.274 11.893.85 17.415-1.275 0-1.274 0-2.548-.425-3.68-.85-4.532-.283-9.346 1.699-13.593 1.133-2.549 2.69-4.956 4.814-6.938C55.307 1.89 57.43.616 59.696.191a11.26 11.26 0 0 1 6.796.85c4.53 1.982 6.796 5.805 7.22 10.619.567 5.946-1.84 10.76-5.521 15.15-1.982 2.265-4.248 4.105-6.372 6.23 2.549 6.937 14.726 15.29 25.203 14.582 0-3.822.425-7.645.991-11.468.566-3.115 1.84-6.088 3.823-8.495 1.982-2.549 4.389-4.531 7.362-5.805 9.345-4.814 20.247.85 24.212 6.938 2.548 3.68 2.407 7.787.991 11.751-1.416 3.823-3.965 6.938-7.363 9.203-3.964 2.69-8.353 4.672-12.884 5.947l-3.964 1.133zM98.632 182.13c1.133-.708 1.841-1.133 2.407-1.557 3.398-2.549 6.655-5.097 10.053-7.646 1.557-1.274 3.398-2.407 5.097-3.256.849-.425 1.699-.708 2.69-.708s1.84.283 2.69.708c.849.424 1.557 1.132 2.124 1.84.566.85.849 1.699.991 2.549 0 1.274 0 2.548-.142 3.823-.991 7.504-2.124 15.008-2.973 22.512-.425 2.407-.142 4.955.708 7.221.849 2.265 2.265 4.389 4.106 5.946 9.062 8.637 19.397 15.716 30.724 20.955 3.54 1.699 7.363 2.832 11.327 3.398a1498 1498 0 0 0-4.389-13.309c-2.407-7.363-5.239-14.725-7.363-22.229-3.964-14.017-6.654-28.459-8.353-43.042-.566-6.088-1.558-12.177-1.699-18.406-.283-7.929 0-15.858 0-23.928v-4.106c-6.655 1.274-22.795 11.326-27.326 16.848 1.699.283 3.539.425 5.238.85a4.37 4.37 0 0 1 2.832 1.557c.708.85 1.274 1.841 1.416 2.974 0 .991 0 2.123-.567 2.973-.424.991-1.274 1.699-2.123 2.124-.708.566-1.558.991-2.407 1.274l-5.097 2.548c-7.079 3.682-13.168 8.637-16 16.424a115 115 0 0 0-4.247 14.017c-.567 2.124 0 4.531.283 7.221zm58.758-70.227c-.283.425-.424.85-.566 1.275 0 1.132-.283 2.265-.283 3.398 0 12.743-.566 25.344 1.274 38.086 1.416 10.195 2.549 20.389 4.814 30.3 2.407 10.336 4.672 20.671 8.495 30.724 2.124 5.38 3.823 10.902 5.664 16.282.283.708.566 1.416.991 2.407 10.477-10.335 19.397-22.229 26.477-35.113-1.133-1.274-1.983-2.265-2.691-3.256-4.814-5.806-9.627-11.752-14.441-17.557-.85-.85-1.416-1.982-1.841-3.115s-.425-2.407-.283-3.681c0-1.275.708-2.549 1.699-3.398s2.265-1.275 3.539-1.275c1.416 0 2.832 0 4.248-.141 3.681-.425 7.504 0 10.902 1.557 1.133.425 2.266.708 3.965 1.275-.284-1.841-.284-3.257-.708-4.531-2.124-8.92-7.646-16.849-15.292-21.946-2.123-1.557-4.672-2.832-7.22-3.398-2.691-.566-5.381-.708-8.071-.283-2.548.424-5.097.566-7.646.283-4.955-.283-7.787-4.389-6.512-9.203a12.64 12.64 0 0 1 5.946-7.787l6.655-4.248c-6.23-2.832-12.318-5.805-19.115-7.079zm-53.802-19.255c2.69.708 5.097 1.982 7.221 3.681s3.822 3.823 5.096 6.23c2.832 5.097 1.275 10.477 0 15.857 9.912-5.805 18.407-13.025 29.875-15.574-3.256-5.663-7.645-10.477-12.884-14.159-2.549-1.982-5.664-3.256-8.778-3.68-3.115-.426-6.513-.284-9.487.707-4.389.991-8.212 3.54-10.902 7.08zm-62.723 2.548c-6.938-.424-14.725 5.947-15.858 14.442-1.133 9.77 7.504 17.415 16.707 14.442 3.115-.85 5.947-2.69 7.929-5.097 2.124-2.407 3.398-5.522 3.681-8.779 1.275-8.919-4.955-15.432-12.6-15.008zm-2.549 71.784c2.124-.424 4.106-1.132 6.088-1.982 1.7-.991 3.257-2.407 4.39-4.106s1.982-3.539 2.407-5.663c.424-1.982.283-4.106 0-6.088-.425-1.983-1.416-3.823-2.55-5.522-3.822-4.814-11.892-6.088-16.565-2.266-3.54 2.832-6.23 6.513-6.371 11.327-.142 9.203 6.655 14.442 12.743 14.3zm36.813-60.598c2.265 0 4.53-.708 6.23-1.983 2.123-1.415 3.822-3.256 4.955-5.522 1.133-2.265 1.557-4.813 1.274-7.362-.85-9.77-8.495-14.725-17.415-10.477-6.938 3.398-9.628 13.45-5.38 19.963 1.133 1.699 2.548 3.115 4.389 4.106q2.76 1.487 5.947 1.275M53.89 189.916c-.424-1.84-.99-3.822-1.699-5.522-.707-1.415-1.557-2.831-2.831-3.822a12 12 0 0 0-4.248-2.124c-1.557-.425-3.256-.283-4.814 0-1.557.425-2.973 1.133-4.247 2.265-2.832 2.266-4.673 5.239-5.522 8.779-.85 3.398-.566 7.079.991 10.335.708 1.558 1.699 2.974 2.973 4.106 1.274 1.133 2.832 1.841 4.53 2.266 1.7.283 3.4.283 5.098-.142 1.7-.425 3.115-1.416 4.39-2.548 3.822-3.257 5.38-7.504 5.521-13.451zm33.981-57.2c0-1.699-.141-3.54-.708-5.097-.566-1.558-1.557-3.115-2.69-4.39-6.937-7.362-16.282-5.38-20.105 3.54-1.274 2.832-1.274 6.088-.283 9.061 2.407 7.505 9.77 10.903 15.15 9.204 2.548-.992 4.814-2.549 6.371-4.814a14.45 14.45 0 0 0 2.549-7.504zm-26.476 37.237c0 6.513 2.407 11.185 7.22 14.441 6.655 4.39 13.168.85 15.15-5.663.85-3.256.708-6.796-.424-10.053-1.275-3.256-3.398-5.946-6.23-7.787-4.672-2.832-11.61-2.548-14.584 4.531-.424 1.416-.707 2.832-.99 4.389zm-1.841 37.237a68 68 0 0 0 3.54 5.238c.85.992 1.84 1.7 3.115 2.124 6.088 1.841 11.185-1.84 11.61-8.212.141-3.115-.425-6.229-1.558-9.061l-11.893-2.832-4.672 12.743zM98.066 47.056a30.4 30.4 0 0 0 14.725-6.654c.991-.85 1.557-1.983 1.84-3.257.284-.991 0-1.982-.283-2.832-2.265-3.54-8.637-4.672-12.035-2.265-4.106 2.832-6.088 9.345-4.106 14.866zm9.061 63.006c.85-3.115-3.964-7.787-7.504-7.646-2.124 0-7.787 4.814-7.787 6.938 0 3.398 4.389 8.778 8.212 8.92 3.54 0 7.079-3.965 7.221-8.212zM23.733 133.14c-1.84-2.831-3.682-5.663-5.522-8.353-.142-.283-.425-.567-.708-.85-.283-.141-.567-.283-.991-.424h-1.133c-.283 0-.566.283-.85.566-.849.708-1.557 1.416-2.123 2.265-.991 1.416-1.558 2.832-1.84 4.531a13.8 13.8 0 0 0 0 4.814c.282 1.557 1.132 3.115 1.981 4.389a13.6 13.6 0 0 0 3.682 3.257l7.362-10.478zm19.822 90.757c.283 1.133.566 2.265.991 3.398.283.991.991 1.841 1.84 2.407s1.841.85 2.832.85 1.982-.425 2.69-1.133 1.275-1.558 1.558-2.549q.637-1.698.425-3.398c0-1.132-.567-2.265-1.133-3.256-2.265-3.54-6.088-3.54-8.212.141-.425 1.133-.85 2.266-1.133 3.54zM57.997 23.27c2.69-1.983 4.672-4.814 5.663-7.93.567-1.84.566-3.539-1.557-4.388-1.983 1.415-3.398 3.256-4.106 5.522-.708 2.265-.708 4.672 0 6.796"/></svg>