<svg xmlns="http://www.w3.org/2000/svg" width="300" height="300" fill="none" viewBox="0 0 300 300"><path fill="#3558a2" d="M38.805 142.029c0-3.416-.07-6.3 0-9.193a4.45 4.45 0 0 1 .664-1.775q5.76-11.358 11.549-22.698.185-.445.469-.835c1.681-2.058 2.655-2.546 4.929-1.384a14.04 14.04 0 0 1 5.425 4.224c3.292 4.73 6.77 9.335 10.177 13.976.371.515.796.976 1.194 1.464 10.098-6.007 19.69-12.654 30.372-17.525-.38-1.127-.681-1.944-.947-2.769a16.55 16.55 0 0 1 3.31-16.762 13.5 13.5 0 0 1 5.779-4.162 2.54 2.54 0 0 0 1.708-1.775c1.708-5.6 5.885-8.439 11.265-9.566a15.96 15.96 0 0 1 8.283.72c.761.248 1.522.487 2.292.656a4.1 4.1 0 0 0 1.576.062 11.57 11.57 0 0 1 8 1.809 11.62 11.62 0 0 1 4.805 6.665 18 18 0 0 1-.478 10.524 29 29 0 0 0 3.54-.319 20.1 20.1 0 0 1 7.841 0c1.769.337 3.646.355 5.469.577 1.654.195 3.3.497 4.955.71.944.161 1.903.218 2.859.168a72.7 72.7 0 0 0 13.548-2.582c6.301-1.908 12.629-3.727 18.965-5.537a62.3 62.3 0 0 1 11.876-2.476c.947-.08 1.876-.337 2.823-.417 3.876-.346 7.389 1.047 10.832 2.52a36.3 36.3 0 0 1 8.15 4.526 8.7 8.7 0 0 0 1.284.7 6590 6590 0 0 0 14.159-15.466 14 14 0 0 1 1.77-1.695 3.445 3.445 0 0 1 4.77.266c1.876 2.21 3.849 4.322 5.725 6.514 2.186 2.564 4.31 5.173 6.478 7.755 2.735 3.257 5.505 6.487 8.195 9.761a5.9 5.9 0 0 1 1.398 3.993c-.088 6.043 0 12.086-.133 18.129-.079 3.754-.433 7.508-.601 11.27.033.533.194 1.051.469 1.508a40.5 40.5 0 0 1 3.256 7.987 56.7 56.7 0 0 1 1.832 10.107q.292 2.013.363 4.046a26.4 26.4 0 0 1-3.92 12.92 61.7 61.7 0 0 1-13.337 14.731c-7.017 5.865-15.318 9.095-23.787 12.068a103 103 0 0 0-10.708 4.109 75 75 0 0 0-14.797 9.299 153 153 0 0 1-15 11.181c-4.796 3.008-9.911 5.253-15.566 5.768a43.6 43.6 0 0 1-10.301-.248c-8.203-1.19-16.071-3.701-24.08-5.671-8.548-2.094-17.044-4.437-25.61-6.415a131 131 0 0 0-13.593-2.414 26.3 26.3 0 0 0-9.735.683c-7.566 1.89-15.15 3.701-22.725 5.511-3.098.745-6.195 1.517-9.328 2.067a27.24 27.24 0 0 1-13.663-.594 12.7 12.7 0 0 1-6.195-4.375 101 101 0 0 1-8.23-12.423 34.4 34.4 0 0 0-13.682-13.843c-2.654-1.429-5.31-2.991-7.964-4.437-.47-.257-1.098-.213-1.593-.426a28.74 28.74 0 0 1-12.177-9.078A9.2 9.2 0 0 1 11 168.588c0-2.795.575-5.617 2.717-7.702 2.938-2.857 5.911-5.679 8.973-8.394 2.398-2.121 4.673-4.437 7.531-5.946 2.168-1.171 4.425-2.263 6.584-3.399.753-.417 1.487-.834 2-1.118m79.77 25.432c.558 1.607.885 2.822.319 4.118a4.4 4.4 0 0 0-.106 1.677c-.046 4.728-.38 9.449-1 14.136-.31 2.662-1.77 4.277-4.664 4.596-1.513.169-3.018.373-4.531.426-5.522.196-11.044.417-16.575.435-2.522 0-5.106-.266-6.876-2.378-6.576 3.682-14.55 16.949-14.947 22.797a47 47 0 0 0 4.938-.524c5.982-1.269 11.964-2.573 17.911-4.002 6.407-1.526 12.637-3.834 19.275-4.313a25.4 25.4 0 0 1 4.778-.195c4.098.515 8.204 1.065 12.239 1.926 6.505 1.375 12.983 2.937 19.469 4.552 8.691 2.183 17.337 4.525 26.018 6.735a49.2 49.2 0 0 0 14.92 1.722 26.5 26.5 0 0 0 10.531-2.822 79.7 79.7 0 0 0 13.505-9.105 117 117 0 0 1 12.938-9.539 81 81 0 0 1 16.159-7.711 166 166 0 0 0 12.965-4.836 44.9 44.9 0 0 0 12.593-7.8 60.8 60.8 0 0 0 9.973-10.711c2.54-3.709 4.177-7.764 3.832-12.343-.204-2.609-.77-5.2-1.186-7.791a37.1 37.1 0 0 0-4.788-12.37c-5.911-.196-11.752-.426-17.592-.577-3.54-.089-7.08 0-10.62-.107a543 543 0 0 1-12.009-.417c-2.106-.097-3.026-.887-3.433-2.972a20 20 0 0 1-.408-3.55c-.07-5.555-.088-11.119-.132-16.674v-1.934c-.106-1.775-.31-3.55-.31-5.262 0-2.077.726-3.78 2.956-4.437a2.738 2.738 0 0 0 1.832-1.775 41.7 41.7 0 0 0-9.328-4.951 14.1 14.1 0 0 0-7.743-.994 79 79 0 0 0-10.451 2.263c-7.08 2.13-14.16 4.135-21.239 6.14a51 51 0 0 1-17.239 2.183h-1.416c-.69.888-1.301 1.775-1.956 2.556a37.2 37.2 0 0 0-6.451 11.935c-2.788 8.146-5.744 16.239-10.071 23.746-2.566 4.437-4.859 9.033-8.372 12.84a43.8 43.8 0 0 1-7.584 7.002c-3.221 2.147-6.752 3.593-10.212 5.235-1.974.932-3.867 1.997-5.912 3.07M63.54 211.83a47.2 47.2 0 0 1 7.964-16.816c1.974-2.724 3.894-5.51 6.7-7.489 1.823-1.278 3.69-2.494 5.504-3.718-.221-4.26-.46-8.572-.681-12.876-.031-2.1.587-4.158 1.77-5.892.955-1.571 2.106-3.035 2.973-4.65 2.796-5.244 6.805-9.486 10.885-13.701 2.115-2.192 4.513-2.05 6.46.595.381.514.717 1.064 1.071 1.597q3.903 5.92 7.814 11.837c.31.462.699.888.885 1.127 3.336-1.659 6.46-3.478 9.734-4.783 5.965-2.333 10.487-6.353 14.31-11.322a31 31 0 0 0 2.354-3.328c1.682-2.911 3.283-5.866 4.894-8.812 2.805-5.129 4.726-10.648 6.77-16.079 1.044-2.76 1.92-5.581 3.018-8.314a33.3 33.3 0 0 1 5.858-9.114 29 29 0 0 0-12.08.4c-.159 1.322-.23 2.52-.46 3.682-.752 3.878-3.115 6.833-5.823 9.46a4.383 4.383 0 0 0-1.557 3.549c0 5.724 0 11.438-.089 17.162 0 1.109-.301 2.209-.389 3.318-.133 1.722-1.336 2.494-2.708 3.035-.833.279-1.693.463-2.567.55-4.486.639-8.982 1.252-13.477 1.882a4.37 4.37 0 0 1-3.073-.745 4.4 4.4 0 0 1-1.768-2.627 46 46 0 0 1-.496-3.319q-.778-6.788-1.531-13.577c-.168-1.428-.354-2.857-.495-4.295-.062-.692-.222-1.331-1.009-1.411-2.23-.32-4.3-1.342-5.912-2.919a1.68 1.68 0 0 0-2.186-.266c-.477.284-.991.506-1.486.781-5.894 3.212-11.761 6.469-17.398 10.133-3.947 2.565-7.965 4.978-11.806 7.348-.23 2.946-.486 5.661-.655 8.377-.22 3.682-.362 7.374-.575 11.056-.115 1.997-.292 3.984-.451 5.981-.23 2.778-1.513 3.958-4.345 4.02h-.478c-7.876 0-15.752-.062-23.628-.133a10.4 10.4 0 0 1-3.045-.488 3.08 3.08 0 0 1-2.22-2.858c-.178-2.236-.328-4.436-.488-6.708a170 170 0 0 1-.141-2.396 27.5 27.5 0 0 0-8.195 4.668c-3.54 3.105-7.133 6.211-10.62 9.379a16.5 16.5 0 0 0-2.336 2.742 3.734 3.734 0 0 0 .266 4.827c.31.373.663.701 1 1.047a28.5 28.5 0 0 0 9.61 6.212 95 95 0 0 1 8.55 4.259 41.9 41.9 0 0 1 15.778 15.449c2.221 3.621 4.177 7.383 6.796 10.747a28 28 0 0 0 3.204 3.38zm74.292-101.71c.557-.613 1.451-1.651 2.389-2.663a9.582 9.582 0 0 0 2.213-10.213 6.9 6.9 0 0 1 .194-5.573c1.036-1.988.885-4.055.735-6.123a4.6 4.6 0 0 0-1.139-2.72 4.6 4.6 0 0 0-2.551-1.468 4.9 4.9 0 0 0-2.151 0 9.37 9.37 0 0 1-5.549-.692 14.5 14.5 0 0 0-5.637-.834 7.3 7.3 0 0 0-3.998 1.379 7.33 7.33 0 0 0-2.568 3.368q-.254.674-.416 1.376a5.33 5.33 0 0 1-1.399 2.882 5.3 5.3 0 0 1-2.796 1.554c-2.292.55-3.681 2.21-5.071 3.843-1.531 1.774-1.823 4.161-1.769 6.335a10.75 10.75 0 0 0 3.026 7.357 8.3 8.3 0 0 0 3.248 2.342c2.301.666 4.726.782 7.08.338.878-.133 1.77-.16 2.654-.08 1.673.053 3.354.275 5.018.213 2.646-.151 5.275-.435 8.487-.657zm138.61 17.126c.169-1.456.434-2.787.452-4.118.097-5.475.115-10.95.15-16.425a16 16 0 0 0-.212-1.712h-9.735c-3.132 0-6.265-.001-9.398-.054s-6.389-.31-9.584-.355-6.372-.204-9.664 0v2.059c.115 2.565.301 5.12.354 7.676.08 3.469 0 6.93.08 10.391 0 .621.08 1.233.133 2.032 12.531-.302 24.92.745 37.424.47zM68.77 136.119c-3-.23-5.62-.488-8.239-.63-4.319-.23-8.637-.381-12.956-.576-.39 0-.779-.142-1.177-.178-.398-.035-.708 0-1.194 0 .433 6.789.885 13.373 1.283 20.01l20.752.355q.261-1.258.39-2.538c.22-3.682.389-7.365.575-11.047 0-.32.053-.639.088-.959.15-1.464.31-2.892.478-4.472zm43.442 36.143H93.009a20.4 20.4 0 0 0-3.328.604c.204 2.147.399 4.135.576 6.122s.362 3.976.53 5.963A1.155 1.155 0 0 0 92 186.158h1.204c5.115-.168 10.23-.31 15.345-.532a19 19 0 0 0 2.929-.577c.248-4.304.487-8.448.734-12.822zM259.451 81.75c-3.964 3.745-13.451 14.296-14.292 15.973 9.292.79 18.584.497 28.257.665zm-124.256 35.193c-2.372.196-4.505.462-6.638.506-2.132.045-4.238-.16-6.575-.257.531 6.451 1.443 12.583 2.257 18.892l10.956-1.624zm-67.894 12.273-11.434-15.698-7.53 14.677c6.371.178 12.513 1.03 18.964.967zm41.726 36.151c-2.655-4.091-5.089-7.906-7.726-11.536-3.885 3.195-6.39 7.179-8.726 11.536z"/><path fill="#979fbb" d="M118.422 167.172c2.043-1.075 3.919-2.123 5.847-3.038 3.459-1.643 6.988-3.091 10.208-5.24a43.8 43.8 0 0 0 7.581-7.008c3.538-3.811 5.803-8.412 8.368-12.853 4.326-7.514 7.28-15.614 10.066-23.768a37.3 37.3 0 0 1 6.449-11.947c.655-.799 1.265-1.652 1.955-2.558h1.415a50.9 50.9 0 0 0 17.232-2.185c7.077-2.007 14.153-4.014 21.23-6.146a78.5 78.5 0 0 1 10.447-2.265 14.1 14.1 0 0 1 7.74.995 41.7 41.7 0 0 1 9.323 4.956 2.74 2.74 0 0 1-1.831 1.776c-2.229.622-2.954 2.327-2.954 4.441 0 1.777.203 3.553.309 5.267v1.937c0 5.56.062 11.129.133 16.689.03 1.194.166 2.383.407 3.553.407 2.087 1.327 2.878 3.432 2.976 3.998.177 7.961.328 12.004.417 3.538.08 7.077 0 10.615.107 5.838.151 11.676.382 17.585.577a37.2 37.2 0 0 1 4.786 12.382c.416 2.593.982 5.187 1.185 7.798.345 4.583-1.291 8.643-3.83 12.355a60.8 60.8 0 0 1-9.969 10.721 44.8 44.8 0 0 1-12.588 7.807 176 176 0 0 1-12.959 4.841 80.8 80.8 0 0 0-16.152 7.719 117.5 117.5 0 0 0-12.933 9.548 79.6 79.6 0 0 1-13.499 9.113 26.45 26.45 0 0 1-10.526 2.825 49.1 49.1 0 0 1-14.914-1.724c-8.678-2.211-17.32-4.556-26.007-6.741-6.457-1.617-12.932-3.18-19.461-4.557-4.033-.888-8.138-1.412-12.233-1.927a25.4 25.4 0 0 0-4.777.195c-6.634.48-12.862 2.789-19.266 4.317-5.945 1.43-11.924 2.736-17.904 4.006a47 47 0 0 1-4.936.524c.398-5.853 8.368-19.132 14.94-22.818 1.77 2.114 4.353 2.389 6.874 2.38 5.528 0 11.048-.24 16.568-.435 1.512-.053 3.016-.258 4.529-.426 2.919-.32 4.352-1.91 4.662-4.601.62-4.692.954-9.417.999-14.15a4.4 4.4 0 0 1 .106-1.678c.62-1.333.301-2.549-.256-4.157m39.602 21.681v.098c2.309-.187 4.609-.409 6.918-.551a458 458 0 0 1 9.341-.479c4.476-.196 8.961-.365 13.437-.551q5.643-.24 11.269-.506a5 5 0 0 0 .947-.134 3.58 3.58 0 0 0 2.24-1.29 3.6 3.6 0 0 0 .794-2.467c.177-4.983.327-9.966.487-14.948a9 9 0 0 1 0-1.208c.072-.706.218-1.403.433-2.079.778-2.052.487-3.553-1.212-4.894-2.362-1.918-4.759-3.784-7.156-5.667l-14.923-11.706c-1.07-.844-2.158-1.661-3.229-2.505-2.468-1.963-4.538-1.679-6.484.506-.274.302-.566.578-.884.888q-5.431 5.649-10.872 11.298c-2.185 2.257-4.317 4.566-6.608 6.707a7.663 7.663 0 0 0-2.565 6.439c.177 3.207.327 6.413.416 9.628.08 2.736 0 5.481.097 8.225.025.956.17 1.905.434 2.825a3.095 3.095 0 0 0 3.202 2.389c1.344.027 2.636-.018 3.918-.018m31.129-59.235h-.204c.177 3.047.319 6.085.54 9.122.044.72.314 1.407.772 1.963s1.08.951 1.776 1.128q1.752.36 3.538.48c3.344.222 6.696.382 10.04.568h.725c3.884.302 7.776.631 11.668.889 2.999.195 3.759-1.715 4.175-3.687q.386-2.361.531-4.751c.309-2.94.69-5.872.884-8.812.319-3.961.133-7.789-2.397-11.227-2.362-3.215-4.423-6.661-6.616-10.001-.699-1.057-1.389-2.149-2.185-3.135a2.803 2.803 0 0 0-3.601-.968 13.6 13.6 0 0 0-2.857 1.643c-2.052 1.67-4.069 3.375-5.971 5.205a386 386 0 0 0-9.73 9.681 4.648 4.648 0 0 0-1.283 3.731c.221 2.727.151 5.462.195 8.171m37.754 25.208c-1.115.07-2.221.233-3.309.488-3.538 1.093-5.493 3.713-6.563 7.106-.885 2.736-.602 5.587-.442 8.385.07 1.154.424 2.522 1.645 3.046 1.539.666 2.999 1.723 4.936 1.075a13.8 13.8 0 0 1 4.025-.524c8.492-.213 17.001.186 25.484-.613 2.858-.266 5.724-.488 8.537-1.012a5.25 5.25 0 0 0 2.688-1.252 5.27 5.27 0 0 0 1.584-2.515 17.6 17.6 0 0 0 .54-9.912 14.2 14.2 0 0 0-3.609-6.67c-2.769-2.772-6.086-3.367-9.731-2.505a15.4 15.4 0 0 0-5.794 2.664c-7.412-6.146-15.259-4.387-19.991 2.239"/><path fill="#979fbb" d="M63.858 212a28 28 0 0 1-3.171-3.446c-2.65-3.357-4.568-7.087-6.785-10.728a41.84 41.84 0 0 0-15.752-15.387 95 95 0 0 0-8.534-4.253 28.4 28.4 0 0 1-9.595-6.201c-.335-.345-.689-.673-.998-1.045a3.72 3.72 0 0 1-.265-4.819 16.5 16.5 0 0 1 2.332-2.737c3.534-3.163 7.068-6.263 10.602-9.364a27.5 27.5 0 0 1 8.18-4.659c0 .823.089 1.612.142 2.391.159 2.233.309 4.43.486 6.697a3.09 3.09 0 0 0 2.217 2.853c.983.312 2.008.477 3.04.487 7.862.071 15.724.098 23.587.133h.477c2.827-.062 4.108-1.24 4.338-4.013.159-1.993.336-3.978.45-5.971.213-3.676.354-7.361.575-11.038.168-2.71.424-5.421.654-8.362 3.807-2.365 7.845-4.775 11.785-7.335 5.627-3.659 11.485-6.91 17.368-10.117.495-.274 1.007-.496 1.484-.779a1.68 1.68 0 0 1 2.183.266 10.6 10.6 0 0 0 5.901 2.914c.786.08.945.718 1.007 1.409.141 1.435.327 2.861.495 4.287q.75 6.777 1.528 13.554c.133 1.107.283 2.223.495 3.313a4.38 4.38 0 0 0 1.765 2.623 4.36 4.36 0 0 0 3.067.743c4.488-.629 8.976-1.24 13.455-1.878a11.8 11.8 0 0 0 2.562-.549c1.37-.54 2.571-1.311 2.704-3.03.088-1.107.379-2.205.388-3.313.071-5.714.115-11.419.089-17.132a4.37 4.37 0 0 1 1.554-3.544c2.704-2.657 5.063-5.572 5.814-9.443.229-1.161.3-2.357.459-3.676a28.9 28.9 0 0 1 12.059-.399 33.2 33.2 0 0 0-5.848 9.098c-1.096 2.728-1.97 5.545-3.013 8.3-2.041 5.439-3.958 10.932-6.758 16.052-1.608 2.941-3.207 5.891-4.886 8.797a31 31 0 0 1-2.35 3.322c-3.816 4.961-8.331 8.974-14.285 11.303-3.313 1.303-6.431 3.119-9.718 4.775-.212-.266-.601-.664-.883-1.125a5367 5367 0 0 1-7.801-11.817c-.354-.532-.689-1.081-1.069-1.595-1.944-2.657-4.338-2.781-6.45-.593-4.072 4.207-8.074 8.442-10.866 13.677-.883 1.613-2.014 3.074-2.968 4.642a10.18 10.18 0 0 0-1.767 5.883c.22 4.296.46 8.601.68 12.853-1.81 1.223-3.675 2.436-5.495 3.712-2.8 1.976-4.717 4.757-6.687 7.477A47.1 47.1 0 0 0 63.858 212"/><path fill="#cbcfdd" d="M138.34 110.274c-3.196.24-5.811.506-8.426.594-1.655.062-3.328-.159-4.992-.213a11 11 0 0 0-2.642.08 15.1 15.1 0 0 1-7.043-.337 8.3 8.3 0 0 1-3.232-2.341 10.77 10.77 0 0 1-2.993-7.315c-.079-2.173.211-4.532 1.761-6.332 1.382-1.631 2.764-3.29 5.045-3.84a5.27 5.27 0 0 0 2.781-1.553 5.33 5.33 0 0 0 1.392-2.88q.16-.701.414-1.374a7.32 7.32 0 0 1 2.555-3.366 7.24 7.24 0 0 1 3.978-1.378 14.4 14.4 0 0 1 5.608.833 9.3 9.3 0 0 0 5.521.692 4.84 4.84 0 0 1 2.139 0 4.56 4.56 0 0 1 2.538 1.467 4.6 4.6 0 0 1 1.134 2.718c.185 2.066.299 4.132-.731 6.119a6.93 6.93 0 0 0-.194 5.568 9.6 9.6 0 0 1 .408 5.434 9.57 9.57 0 0 1-2.609 4.773c-.924 1.002-1.858 2.039-2.412 2.651"/><path fill="#fff" d="M276.425 126.953c-12.312.277-24.511-.778-36.867-.474-.053-.805-.122-1.423-.131-2.049 0-3.49 0-6.979-.078-10.478-.053-2.577-.236-5.154-.349-7.74v-2.075c3.241-.251 6.378-.099 9.515 0 3.137.098 6.291.277 9.437.357 3.146.081 6.169 0 9.254.054h9.585q.152.857.209 1.727c0 5.521-.052 11.041-.148 16.562 0 1.306-.262 2.649-.427 4.116M69 136.36c-.171 1.551-.334 2.954-.487 4.357 0 .314-.072.627-.09.941-.19 3.617-.36 7.233-.586 10.85q-.13 1.256-.396 2.492l-21.134-.348c-.433-6.519-.901-12.985-1.307-19.652h1.217c.315 0 .802.157 1.198.174 4.398.192 8.796.34 13.194.567 2.668.139 5.336.392 8.391.619M113 172.004c-.253 4.386-.497 8.541-.75 12.882-.98.269-1.98.462-2.99.578-5.222.223-10.443.365-15.665.534h-1.228a1.186 1.186 0 0 1-.892-.334 1.16 1.16 0 0 1-.346-.876 997 997 0 0 0-.542-5.978c-.18-1.993-.38-3.986-.587-6.139a21 21 0 0 1 3.397-.605c6.378-.089 12.764-.062 19.603-.062M259.668 82 274 99c-9.991-.173-19.464.127-29-.682.863-1.673 10.599-12.463 14.668-16.318M135 117v17.38L124.228 136c-.804-6.26-1.747-12.326-2.228-18.745 2.306.097 4.368.291 6.491.256 2.123-.036 4.168-.317 6.509-.511M67 128.997c-6.463.059-12.616-.755-19-.975L55.545 114zM109 165H93c2.272-4.146 4.708-7.945 8.486-11 2.557 3.452 4.889 7.091 7.514 11"/><path fill="#3558a2" d="M158.129 188.919h-3.901a3.1 3.1 0 0 1-2.06-.614 3.14 3.14 0 0 1-1.179-1.809 11.5 11.5 0 0 1-.438-2.863c-.081-2.783 0-5.566-.099-8.339-.089-3.26-.241-6.511-.42-9.762a7.8 7.8 0 0 1 .518-3.578 7.75 7.75 0 0 1 2.076-2.951c2.318-2.171 4.474-4.503 6.684-6.799q5.512-5.72 10.997-11.455c.286-.289.582-.568.895-.901 1.968-2.215 4.062-2.503 6.558-.513 1.083.9 2.184 1.684 3.266 2.539l15.095 11.87c2.425 1.909 4.85 3.8 7.239 5.745 1.718 1.405 2.013 2.882 1.226 4.962a10.5 10.5 0 0 0-.439 2.107 9 9 0 0 0 0 1.225c-.161 5.052-.313 10.104-.492 15.156a3.67 3.67 0 0 1-.803 2.502 3.62 3.62 0 0 1-2.266 1.308 5 5 0 0 1-.957.135q-5.7.27-11.4.513c-4.527.189-9.064.36-13.591.558-3.15.135-6.264.289-9.449.487-2.335.144-4.662.369-6.997.558zm39.102-22.586c-2.309.153-4.313.378-6.317.396-8.948.082-17.896.072-26.781.172-2.389 0-4.787.315-7.292.486v2.539q.197 5.242.429 10.483c0 .54.117 1.08.206 1.801 3.194-.216 6.263-.45 9.306-.621q5.207-.298 10.415-.505c5.368-.207 10.665-.36 16.007-.594 1.333-.063 2.684-.342 4.027-.523zm-22.298-20.604-13.663 14.102v.243q.075.176.17.343h1.789c3.955-.126 7.91-.325 11.865-.388 4.948-.081 9.842-.054 14.835-.072h2.354l.134-.396c-5.745-4.557-11.516-9.105-17.484-13.832M189.196 129.757c0-2.716 0-5.441-.169-8.148a4.64 4.64 0 0 1 1.291-3.74 457 457 0 0 1 9.79-9.706c1.914-1.834 3.943-3.562 6.008-5.218a13.7 13.7 0 0 1 2.875-1.648 2.84 2.84 0 0 1 1.995-.201 2.84 2.84 0 0 1 1.628 1.172c.801.988 1.495 2.084 2.198 3.143 2.216 3.349 4.281 6.804 6.658 10.027 2.545 3.446 2.732 7.284 2.412 11.255-.24 2.948-.623 5.886-.89 8.834a47 47 0 0 1-.534 4.764c-.419 1.977-1.184 3.891-4.201 3.695-3.917-.258-7.833-.588-11.74-.89h-.73c-3.364-.187-6.738-.348-10.102-.57a27 27 0 0 1-3.56-.481 3.412 3.412 0 0 1-2.564-3.099c-.222-3.045-.365-6.091-.543-9.145zm6.72 5.93c3.56.338 6.845.837 10.182.891 3.338.053 6.649.659 9.934.569.391-3.668.747-7.07 1.139-10.685-3.56-.597-7.049-.748-10.539-1.042s-7.067-1.006-10.68-.828zm13.351-26.571c-2.385 1.674-8.687 7.604-9.506 8.967 2.67.24 5.278.57 7.904.676s5.34 1.007 8.224.312zM227.474 154.97c4.725-6.555 12.56-8.294 19.953-2.267a15.5 15.5 0 0 1 5.785-2.636c3.648-.879 6.96-.264 9.716 2.478a14 14 0 0 1 3.604 6.598 17.27 17.27 0 0 1-.539 9.805 5.2 5.2 0 0 1-1.582 2.488 5.25 5.25 0 0 1-2.684 1.237c-2.809.519-5.671.738-8.524 1.002-8.47.791-16.967.395-25.446.606a14 14 0 0 0-4.019.519c-1.935.641-3.392-.405-4.929-1.064-1.219-.518-1.572-1.871-1.643-3.013-.159-2.768-.424-5.588.442-8.294 1.069-3.339 3.056-5.931 6.554-7.029a20 20 0 0 1 3.312-.43m-3.604 13.179c1.767-.185 3.259-.475 4.761-.484 8.32-.07 16.641 0 24.952-.588 1.767-.132 3.533-.317 5.229-.492a1.214 1.214 0 0 0 1.157-1.002 9.25 9.25 0 0 0-1.007-7.53 3.131 3.131 0 0 0-2.756-1.581 7.56 7.56 0 0 0-4.699 1.467 88 88 0 0 1-3.241 2.004 3.06 3.06 0 0 1-2.517.166 5.9 5.9 0 0 1-2.951-2.302 5.7 5.7 0 0 0-1.912-1.567 5.72 5.72 0 0 0-4.836-.146 5.7 5.7 0 0 0-2.005 1.45 26 26 0 0 0-1.704 2.293c-1.564 2.302-2.297 2.636-5.176 2.047-1.378-.263-1.767 0-2.562 1.16-.954 1.494-.936 3.11-.733 5.087z"/><path fill="#fff" d="M197 167v12.886c-1.356.17-2.658.433-3.988.493-5.316.22-10.571.365-15.853.56q-5.157.204-10.314.475c-3.031.161-6.052.382-9.216.586-.088-.713-.177-1.222-.204-1.698q-.22-4.94-.425-9.881v-2.394c2.481-.161 4.856-.433 7.222-.458 8.861-.094 17.723-.085 26.522-.162 2.003-.05 3.988-.263 6.256-.407M174.581 146c5.94 4.828 11.684 9.473 17.419 14.126l-.134.405h-2.342c-4.924 0-9.84 0-14.765.073-3.936.065-7.872.267-11.809.396h-1.781a4 4 0 0 1-.169-.349v-.249zM196 136.346v-12.315c3.612-.198 7.047.594 10.57.921s6.907.495 10.43 1.158c-.388 4.029-.74 7.811-1.128 11.88-3.25.099-6.536-.545-9.83-.634s-6.571-.633-10.042-1.01M209.43 109l6.57 9.745c-2.887.679-5.519-.201-8.159-.306s-5.201-.427-7.841-.662c.812-1.377 7.064-7.182 9.43-8.777"/><path fill="#cbcfdd" d="M224.11 168c-.199-1.895-.217-3.444.722-4.892.747-1.145 1.164-1.364 2.519-1.112 2.833.531 3.554.244 5.092-1.962a25 25 0 0 1 1.676-2.197 5.6 5.6 0 0 1 1.972-1.39 5.76 5.76 0 0 1 4.757.14c.733.36 1.376.873 1.882 1.502a5.76 5.76 0 0 0 2.902 2.206 3.06 3.06 0 0 0 2.476-.16 84 84 0 0 0 3.188-1.92 7.58 7.58 0 0 1 4.622-1.406 3.15 3.15 0 0 1 1.57.398c.477.266.871.653 1.141 1.118a8.66 8.66 0 0 1 .991 7.216 1.16 1.16 0 0 1-.394.676 1.22 1.22 0 0 1-.744.284c-1.738.169-3.424.345-5.144.472-8.176.606-16.36.496-24.544.564-1.478.05-2.955.286-4.684.463"/></svg>