<svg xmlns="http://www.w3.org/2000/svg" width="285" height="217" fill="none" viewBox="0 0 285 217"><path fill="#102185" d="M247.247 78.387a22054 22054 0 0 0 17.84 52.529c5.946 17.415 11.893 34.972 17.84 52.387 1.84 4.814 2.123 10.052.708 15.008-1.133 3.539-1.699 7.221-2.832 10.76-1.558 5.097-4.389 7.08-9.628 5.805-6.796-1.557-13.592-3.681-20.247-5.805-3.54-.991-5.239-3.823-6.655-7.079-9.627-20.388-17.273-41.343-24.919-62.581-4.814-13.592-10.477-27.043-15.716-40.635-1.133-2.407-1.982-4.956-2.69-7.646-.283-1.274-.991-2.407-1.841-3.256-.849-.85-1.982-1.558-3.256-1.841-16.991-5.947-27.185-17.84-30.866-35.396-2.973-14.725 3.964-31.433 16.424-39.786 2.549-1.7 4.956-2.549 7.929-.991 1.274.708 2.407 1.699 3.115 3.115.708 1.274.849 2.831.566 4.389-.566 4.814-1.133 9.628-1.982 14.442-.708 3.398-.142 6.088 2.832 8.353a133 133 0 0 1 9.344 8.495c.567.708 1.275 1.133 2.124 1.416s1.699 0 2.549-.141c4.672-1.7 9.486-3.115 14.3-4.531.849 0 1.699-.567 2.265-1.133s.991-1.416 1.133-2.265a302 302 0 0 1 3.823-15.291 3.93 3.93 0 0 0 0-2.549c-.142-.85-.708-1.699-1.274-2.265-3.115-3.823-6.23-7.788-9.345-11.752-.567-.708-1.133-1.416-1.558-2.124-1.982-3.54-.424-7.362 3.54-7.787 2.973-.425 5.947-.283 8.778.566 14.018 4.956 31.433 18.69 32.282 42.76.425 10.76-3.539 20.388-10.052 28.883-1.416 1.982-2.974 3.823-4.814 6.088zm24.211 126.437c.991-4.248 1.982-7.788 2.69-11.327a11.5 11.5 0 0 0 0-4.389c-11.61-34.406-23.503-68.953-35.113-103.358-2.832-8.495-4.956-8.07 3.256-17.415 7.929-9.062 11.186-19.397 8.779-31.432-1.558-7.363-6.655-15.292-12.035-18.69 1.982 4.39 2.124 4.814.991 9.203-1.699 6.797-3.54 13.451-4.956 20.106-.283 1.557-.991 3.115-2.123 4.247a9.3 9.3 0 0 1-4.106 2.407c-7.08 2.124-14.159 4.248-21.238 6.655-1.416.566-2.974.708-4.531.283-1.558-.283-2.832-1.133-3.965-2.265-4.814-4.531-9.769-9.203-14.866-13.451-1.699-1.274-3.115-3.115-3.823-5.239s-.708-4.389 0-6.371c.566-2.549.849-5.239.991-7.929l-1.133-.283a94 94 0 0 0-4.247 9.344c-5.097 16.566 4.531 35.114 21.379 41.344 2.407.85 4.673 1.982 7.08 2.831 2.831.991 4.106 3.115 4.955 5.805 1.274 3.965 2.69 7.788 4.106 11.61 4.106 10.478 8.495 20.955 12.318 31.574 8.354 23.079 15.999 46.299 26.902 68.386.708 1.274 1.416 3.115 2.69 3.54 5.097 1.84 10.336 3.256 15.858 4.955zM32.347 69.624c-4.956-1.275-9.628-2.549-14.442-3.398-3.682-.709-5.664-3.965-4.673-7.788 3.823-15.574 7.363-31.149 11.044-46.723 1.416-5.805 4.39-7.646 10.194-6.23 16.566 3.823 33.273 7.646 49.839 11.468 3.964.85 6.371 2.974 8.353 6.797 5.38 10.477 11.044 21.096 21.805 27.326 1.699.99 3.54 1.982 5.522 2.69 3.681 1.416 5.38 3.681 4.389 7.362-1.699 7.646-3.54 15.292-5.664 22.796-1.132 3.964-3.822 5.238-8.212 4.247l-32.99-7.787c-.282 0-.707 0-1.557-.283-1.416 5.947-2.831 11.893-4.106 17.84L46.364 209.935c-1.275 5.38-2.974 6.796-8.212 6.372-10.62-.992-21.238-2.266-31.716-3.54-5.805-.708-7.362-3.257-5.946-9.062 3.115-13.025 6.23-26.193 9.344-39.219 7.221-30.441 14.442-60.882 21.805-91.181.283-1.133.424-2.266.566-3.54zM42.54 72.03a57618 57618 0 0 0-31.15 131.108l25.911 2.832c9.77-43.042 19.398-85.518 29.167-128.277zm71.218-9.487c-1.699-.99-2.973-1.84-4.248-2.69-5.946-3.681-11.468-7.929-15.291-13.875a660 660 0 0 1-10.336-16.707c-.425-.708-.85-1.416-1.557-1.841-.708-.425-1.416-.85-2.266-.991-8.778-1.84-17.556-3.965-26.193-5.947L33.62 15.821c-3.257 13.875-6.513 27.467-9.77 41.343l86.227 20.105 3.539-14.725z"/><path fill="#102185" d="M147.457 133.054a531 531 0 0 0-2.691 8.637c-2.973 10.194-5.805 20.53-8.778 30.724-.283 1.133-.708 2.265-1.133 3.256-1.557 3.54-3.822 5.239-7.645 4.389-4.531-1.132-9.062-2.548-13.451-4.53-3.823-1.558-5.522-4.956-4.814-9.203 1.416-8.92 2.973-17.699 4.389-26.619.708-4.389 1.558-8.778 2.407-13.592-2.407-.566-4.531-1.132-6.796-1.699-6.088-1.557-7.221-3.681-5.663-9.769 1.132-4.248 2.123-8.495 3.398-12.601s3.823-5.805 8.212-4.814c15.716 3.681 31.432 7.362 47.148 11.185 5.239 1.274 6.655 3.398 5.522 8.637-.85 4.247-1.982 8.495-3.115 12.742s-2.973 5.381-7.363 4.956c-2.123-.283-4.247-.85-6.371-1.274-1.133-.283-2.265-.425-3.54-.567zm9.769-15.291-41.202-9.77c-.708 2.832-1.132 4.956-1.699 7.221l41.344 8.778 1.557-6.371zm-31.007 10.477c-.425 2.549-.708 4.389-1.133 6.655l9.911 2.69 2.124-6.938-11.044-2.407zm-4.248 22.229 8.778 2.549 1.558-5.522-9.062-2.407zm-2.549 16.566 6.797 2.123 1.84-6.371-7.645-2.124-.992 6.23zM181.72 176.52c1.983 8.212 3.823 15.999 5.805 23.786.284 1.275.708 2.549.85 3.682.425 2.973-.708 5.522-3.681 6.371-4.673 1.416-9.345 2.69-14.159 3.54-3.823.708-5.805-1.133-7.079-5.522-2.124-7.221-4.106-14.583-6.23-21.804a74 74 0 0 0-.991-2.832c-1.982 0-4.106.142-6.088 0-3.54-.283-5.381-2.549-4.956-5.947.85-7.362 3.257-14.017 8.92-18.972 3.965-3.54 9.062-5.522 14.3-5.522s10.336 2.124 14.301 5.805a55 55 0 0 1 5.521 5.947c3.257 4.106 2.124 8.212-2.831 10.194-.991.425-1.983.708-3.54 1.274zm-4.247 25.486c-1.982-7.788-3.681-15.009-5.522-22.513l-5.663 1.558 6.371 22.087 4.955-1.132zm-20.389-29.309c6.513-1.699 12.743-2.831 18.831-5.522-6.229-6.088-15.291-3.539-18.831 5.522M266.22 186.417c0 .708 0 1.416-.425 2.124-.283.708-.708 1.274-1.274 1.841-.567.566-1.133.849-1.841 1.132-.708.284-1.416.425-2.124.284-.708 0-1.416-.284-2.124-.567s-1.274-.849-1.699-1.416c-.424-.566-.849-1.274-.991-1.982-.141-.708-.283-1.416-.141-2.124 0-1.416.566-2.69 1.415-3.681.992-.991 2.266-1.557 3.54-1.557 1.416 0 2.832.708 3.965 1.84.991.991 1.699 2.407 1.699 3.965zM76.947 53.766c0 .708 0 1.416-.284 1.982-.283.708-.566 1.275-.99 1.7-.425.566-.992.849-1.558 1.132s-1.274.425-1.982.425-1.416 0-1.983-.283c-.566-.284-1.274-.567-1.699-1.133a5.1 5.1 0 0 1-1.132-1.7c-.283-.565-.425-1.273-.425-1.981 0-1.416.566-2.832 1.557-3.823.992-.991 2.408-1.557 3.823-1.557a3.9 3.9 0 0 1 1.841.424 6.3 6.3 0 0 1 1.557 1.133c.425.425.708.991.992 1.557.283.567.283 1.275.283 1.841zM53.726 47.677c0 1.416-.566 2.69-1.557 3.682-.991.99-2.266 1.557-3.54 1.557-.708 0-1.274 0-1.982-.425-.567-.283-1.133-.708-1.7-1.132-.424-.425-.849-1.133-.99-1.7-.284-.566-.284-1.274-.284-1.982 0-1.416.567-2.69 1.558-3.54.991-.99 2.265-1.415 3.681-1.415.708 0 1.274 0 1.84.425.567.283 1.133.566 1.558 1.132.425.425.85.991.991 1.558.283.566.283 1.274.283 1.84z"/></svg>