<svg xmlns="http://www.w3.org/2000/svg" width="300" height="300" fill="none" viewBox="0 0 300 300"><path fill="#3558a2" d="M172.576 185.122c-1.68-.43-3.28-.74-4.81-1.27a31.6 31.6 0 0 1-5-2.12c-2.82-1.55-4.18-4.22-4.84-7.23a5.917 5.917 0 0 1 1.59-5c1.24-1.54 2.66-2.94 4.13-4.54-.56-.22-1.17-.51-1.81-.7a18.06 18.06 0 0 1-8.11-4.77 10.5 10.5 0 0 1-2.55-4.42 7.55 7.55 0 0 1 3-8.84c1.09-.8 2.23-1.54 3.3-2.28-2-.69-4-1.27-5.91-2a15.5 15.5 0 0 1-3-1.82c-5.72-4.07-4.72-12.74-.38-16.15a29.5 29.5 0 0 1 10.28-4.77 85 85 0 0 1 15.45-2.87c1.15-.12 2.28-.44 3.71-.73a25 25 0 0 0-1-2.36 31.1 31.1 0 0 1-3.31-9.16c-.88-4.39-.53-8.58 2.2-12.46s9.29-6.22 14.33-3.65a74.6 74.6 0 0 1 11.19 7.2 37.36 37.36 0 0 0 16.19 7.28 13.4 13.4 0 0 0 2.42.3c5.09 0 10.17.09 15.25-.06a66 66 0 0 0 7.24-.88 3.56 3.56 0 0 1 3.81 2c.305.753.527 1.538.66 2.34q2.94 14.63 5.84 29.25 3.3 16.63 6.56 33.26c.56 2.86 0 4.28-2.72 5.48s-5.75 2.17-8.65 3.19c-2.22.78-4.5 1.4-6.68 2.26-7.49 3-15 5.91-22.41 9.1-4.82 2.08-9.42 4.66-14.18 6.87a74.9 74.9 0 0 1-18.25 6.05 18.67 18.67 0 0 1-9.15-.31c-3.85-1.23-6.38-3.73-6.95-7.87a10.3 10.3 0 0 1 1.11-5.79c.43-.89.94-1.64 1.45-2.53m79.69-16.42c-3.94-20-7.84-39.7-11.77-59.58h-2.88c-4.62.16-9.24.46-13.87.46a41.4 41.4 0 0 1-10.49-1.25 49.6 49.6 0 0 1-17.15-8.54 95 95 0 0 0-8.89-5.75c-2.08-1.22-4-.77-5.69.91a6.19 6.19 0 0 0-2 4.34c-.13 3.17.91 6.06 2.1 8.9.7 1.67 1.63 3.24 2.32 4.91a6.134 6.134 0 0 1-3.12 8.23c-.892.442-1.841.758-2.82.94-2.31.42-4.64.78-7 1.06a60.6 60.6 0 0 0-14 3.29 25 25 0 0 0-3.22 1.45 4.24 4.24 0 0 0-2.65 4.07c.06 2 1.42 2.87 2.9 3.59 1.137.554 2.335.973 3.57 1.25a53.2 53.2 0 0 0 19.44.67 10.4 10.4 0 0 1 2.17-.09 3.2 3.2 0 0 1 3.1 2.56 3.383 3.383 0 0 1-1.73 3.67c-.738.344-1.513.599-2.31.76-1.85.43-3.72.76-5.57 1.2-4.32 1-8.62 2.14-12.5 4.42-1.08.63-2.29 1.14-2.87 2.51a5.1 5.1 0 0 0 2.22 3.2 12.74 12.74 0 0 0 5.46 2.32c5.33 1 10.66.31 16-.22 2.42-.25 4.8-.92 7.2-1.3 2.19-.35 3.92.63 4.37 2.32.51 1.93-.47 3.5-2.78 4.25-1.29.41-2.62.7-3.94 1a76.8 76.8 0 0 0-16.47 5.39 10.85 10.85 0 0 0-4.06 3.12 1.8 1.8 0 0 0 .09 2.67c.441.454.959.826 1.53 1.1a17.9 17.9 0 0 0 6.77 1.86 43.7 43.7 0 0 0 15-1.83c3.47-1 6.9-2.19 10.38-3.18a8.85 8.85 0 0 1 3.46-.37 3 3 0 0 1 2.31 1.724c.209.459.299.962.263 1.465-.037.502-.2.988-.473 1.411a4.8 4.8 0 0 1-3 2.17c-3.79 1.2-7.59 2.4-11.4 3.53s-7.29 2.24-10.41 4.52a12 12 0 0 0-2.57 2.4 2.833 2.833 0 0 0 1.44 4.58 9.8 9.8 0 0 0 6.16.2c4.26-1.19 8.49-2.5 12.7-3.88a32 32 0 0 0 5.22-2.28 261 261 0 0 1 29.81-13.17 148 148 0 0 1 15.6-5.54c1.32-.32 2.48-.86 4.05-1.44M105.864 142.441c2.65-.28 5-.48 7.27-.77a36.1 36.1 0 0 1 14.56.92 16.9 16.9 0 0 1 8.53 5.56 9.64 9.64 0 0 1 .41 11.41 19 19 0 0 1-6 5.49l-2.49 1.53c2.62 1.14 5.21 2.16 7.7 3.39a11.66 11.66 0 0 1 4.93 4.17c2.29 3.68 2.18 7 0 10.19-2.8 4.13-6.91 6.28-11.53 7.67-.51.16-1 .27-1.57.41-.35.09-.69.21-1.19.35 1.61 1.08 3.22 2 4.63 3.14a18.1 18.1 0 0 1 4 4c2.07 3.36 1.79 6.65-.86 9.81a14.34 14.34 0 0 1-10.4 5.23 24 24 0 0 0-3 .23c-2.33.45-2.85 1.5-2 3.67a27 27 0 0 1 1.25 3.29 8.39 8.39 0 0 1-3.64 9.44 13.3 13.3 0 0 1-4.2 1.81c-6 1.25-12 1.31-17.83-1-7.91-3.16-15.91-6.07-23.85-9.16a227 227 0 0 0-24.87-7.8c-.7-.19-1.41-.32-2.11-.52-2.52-.73-3.68-2.13-3.6-4.73.1-1.901.31-3.794.63-5.67q2.14-14.49 4.34-29c1.19-7.87 2.45-15.72 3.66-23.59.25-1.61.41-3.23.66-4.84.38-2.51 1.46-3.56 3.93-3.6 8.12-.15 14.91-3.57 20.85-8.75 3.76-3.27 7.17-6.93 10.7-10.45 4-4 8.27-7.43 13.89-8.63a19.5 19.5 0 0 1 6.47-.27c3.71.47 6.64 3.67 7.35 7.46a18.3 18.3 0 0 1-1.91 11.31c-.92 2-2.17 3.77-3.27 5.65zm-50 7.82c-.12.19-.28.33-.31.5-.62 4-1.24 8-1.84 12.06a922 922 0 0 0-1.91 12.88q-.91 6.45-1.9 12.6c-.66 4.38-1.4 8.76-2 13.15-.31 2.48-1.15 4.92-.73 7.47.44.18.77.34 1.11.44 4.54 1.24 9.17 2.22 13.6 3.76 7.62 2.64 15.13 5.57 22.64 8.49 6.35 2.46 12.7 4.83 19.51 5.66 2.332.386 4.72.263 7-.36 2.67-.84 3.3-2.18 2.07-4.72a16 16 0 0 0-8.18-8c-2.57-1.13-5.23-2-7.84-3.06a19.4 19.4 0 0 1-3-1.35 3.74 3.74 0 0 1-1.66-4.69c.64-1.44 2.47-2.08 4.49-1.49.95.28 1.85.74 2.79 1.09a58.4 58.4 0 0 0 23.44 3.72 8.93 8.93 0 0 0 5.4-2.33 2.19 2.19 0 0 0 .15-3.53 12.3 12.3 0 0 0-1.67-1.38 25.4 25.4 0 0 0-8.19-4.2c-5-1.4-10-2.66-14.94-4q-1.059-.242-2.08-.61a3.51 3.51 0 0 1-2.19-3.42 3.28 3.28 0 0 1 3.13-2.89 23 23 0 0 1 4.08.13 76 76 0 0 0 19-.24 15 15 0 0 0 8-3.73c2.39-2.1 2.25-4.34-.52-5.91a24.9 24.9 0 0 0-6.46-2.78c-4.22-1-8.53-1.57-12.82-2.2-2.14-.32-4.34-.31-6.5-.54s-3.61-1.82-3.23-3.85a3.16 3.16 0 0 1 .969-1.907 3.15 3.15 0 0 1 1.961-.853c2.79-.34 5.58-.64 8.36-1a27.5 27.5 0 0 0 11-3.57 18.4 18.4 0 0 0 4.21-3.77c1.18-1.39.94-2.53-.31-3.87a10.87 10.87 0 0 0-5.06-3c-5.21-1.51-10.42-.82-15.65-.23a79 79 0 0 1-8.38.74c-4 0-5.88-3.23-4.08-6.74.58-1.13 1.36-2.14 2.05-3.21 1.61-2.52 3.3-5 4.82-7.57a12.4 12.4 0 0 0 1.78-6.47c0-2.64-1.2-3.89-3.88-3.63a17 17 0 0 0-4.93 1.34c-3.07 1.29-5.39 3.6-7.72 5.92-3.73 3.71-7.37 7.54-11.38 10.93-6.24 5.27-13.24 9.17-21.6 10q-.29.084-.56.22zM125.245 75.272a22.2 22.2 0 0 1 5.56-7.47 11 11 0 0 1 6.09-2.75c6.19-.57 9.87 3.62 11.11 8.65 1 4 .49 7.94-.24 11.87-1.53 8.23-4.56 16-7.69 23.72-1.46 3.61-2.94 7.21-4.22 10.88-.9 2.58-3.1 3.5-5.22 4.38-1.4.58-2.77-.28-3.82-1.44-2.32-2.55-4.71-5-7-7.6a73.5 73.5 0 0 1-15.08-25c-1.32-3.78-2.35-7.6-2-11.68a13.13 13.13 0 0 1 6.81-10.52c3.43-2.06 7.56-1.45 10.79 1.51 1.71 1.62 3.15 3.49 4.91 5.45m4.83 41.27c.31-.71.5-1.1.65-1.5 1-2.53 1.92-5.08 2.93-7.6 2.69-6.73 5.45-13.44 7-20.54.83-3.79 1.69-7.61.85-11.54a4.36 4.36 0 0 0-2.61-3.57c-1.65-.6-3 .26-4.15 1.36a15.2 15.2 0 0 0-4.17 7.2 26.8 26.8 0 0 0-1.07 7.77 3.22 3.22 0 0 1-2.671 3.136 3.22 3.22 0 0 1-3.569-2.056 11 11 0 0 1-.39-1.56 27.3 27.3 0 0 0-4.83-10.54 18 18 0 0 0-2.93-2.78 2.17 2.17 0 0 0-3 .2 7.48 7.48 0 0 0-2.87 5.62 18.5 18.5 0 0 0 1 5.86c3.55 12 10.64 21.68 19.83 30.54"/><path fill="#fff" d="M252.264 168.702c-1.57.58-2.729 1.11-3.939 1.43a148 148 0 0 0-15.601 5.54 261 261 0 0 0-29.809 13.15 32 32 0 0 1-5.22 2.28 300 300 0 0 1-12.701 3.88 9.78 9.78 0 0 1-6.16-.2 2.83 2.83 0 0 1-1.989-1.891 2.83 2.83 0 0 1 .549-2.689 12 12 0 0 1 2.57-2.4c3.12-2.28 6.75-3.43 10.41-4.52s7.61-2.33 11.4-3.53a4.79 4.79 0 0 0 3-2.17 3 3 0 0 0-2.099-4.6 8.9 8.9 0 0 0-3.461.37c-3.48 1-6.91 2.16-10.38 3.18a43.6 43.6 0 0 1-15 1.83 17.9 17.9 0 0 1-6.769-1.86 5.4 5.4 0 0 1-1.531-1.1 1.8 1.8 0 0 1-.507-2.051c.094-.233.236-.444.418-.619a10.86 10.86 0 0 1 4.059-3.12 77 77 0 0 1 16.47-5.39c1.32-.29 2.651-.58 3.941-1 2.31-.75 3.29-2.32 2.78-4.25-.45-1.69-2.18-2.67-4.37-2.32-2.4.38-4.781 1-7.201 1.3-5.31.53-10.64 1.21-16 .22a12.75 12.75 0 0 1-5.46-2.32 5.1 5.1 0 0 1-2.219-3.2c.58-1.37 1.79-1.88 2.87-2.51 3.88-2.28 8.18-3.4 12.5-4.42 1.85-.44 3.719-.77 5.569-1.2a10.3 10.3 0 0 0 2.311-.76 3.38 3.38 0 0 0 1.73-3.67 3.204 3.204 0 0 0-3.1-2.56 10.5 10.5 0 0 0-2.171.09 53.2 53.2 0 0 1-19.44-.67 16.3 16.3 0 0 1-3.57-1.25c-1.48-.72-2.84-1.61-2.9-3.59a4.24 4.24 0 0 1 2.65-4.07 25 25 0 0 1 3.22-1.45 60.6 60.6 0 0 1 14-3.29c2.33-.28 4.66-.64 7-1.06a10.8 10.8 0 0 0 2.821-.94 6.13 6.13 0 0 0 3.12-8.23c-.69-1.67-1.621-3.24-2.321-4.91-1.19-2.84-2.23-5.73-2.1-8.9a6.2 6.2 0 0 1 2-4.34c1.71-1.68 3.611-2.13 5.691-.91a94 94 0 0 1 8.889 5.75 49.6 49.6 0 0 0 17.15 8.54 41.4 41.4 0 0 0 10.49 1.25c4.63 0 9.25-.3 13.87-.46h2.88c3.82 19.91 7.72 39.63 11.66 59.61M55.904 150.262q.35-.167.73-.25c8.36-.83 15.36-4.73 21.6-10 4-3.39 7.65-7.219 11.38-10.929 2.33-2.32 4.65-4.63 7.72-5.92a17 17 0 0 1 4.93-1.34c2.68-.26 3.85 1 3.88 3.63a12.4 12.4 0 0 1-1.78 6.469c-1.52 2.58-3.21 5-4.82 7.57-.69 1.07-1.47 2.08-2.05 3.21-1.8 3.51.09 6.75 4.08 6.74a79 79 0 0 0 8.38-.74c5.23-.59 10.44-1.28 15.65.23a10.87 10.87 0 0 1 5.06 3c1.25 1.34 1.49 2.48.31 3.87a18.4 18.4 0 0 1-4.21 3.77 27.45 27.45 0 0 1-11 3.57c-2.78.38-5.57.68-8.36 1a3.16 3.16 0 0 0-2.93 2.76c-.38 2 .94 3.6 3.23 3.85s4.36.22 6.5.54c4.29.63 8.6 1.23 12.82 2.2a25 25 0 0 1 6.46 2.78c2.77 1.57 2.91 3.81.52 5.91a15 15 0 0 1-8 3.73 75.8 75.8 0 0 1-19 .24 23.3 23.3 0 0 0-4.08-.13 3.28 3.28 0 0 0-3.13 2.89 3.51 3.51 0 0 0 2.19 3.42q1.021.369 2.08.61c5 1.32 10 2.58 14.94 4a25.4 25.4 0 0 1 8.19 4.2q.896.617 1.67 1.38a2.196 2.196 0 0 1 .541 2.783c-.168.3-.405.556-.691.747a8.93 8.93 0 0 1-5.4 2.33 58.3 58.3 0 0 1-23.44-3.72c-.94-.35-1.84-.81-2.79-1.09-2-.59-3.85.05-4.49 1.49a3.74 3.74 0 0 0 1.66 4.69c.96.535 1.963.987 3 1.35 2.61 1 5.27 1.93 7.84 3.06a16 16 0 0 1 8.18 8c1.23 2.54.6 3.88-2.07 4.72-2.28.624-4.668.747-7 .36-6.81-.83-13.16-3.2-19.51-5.66-7.51-2.92-15-5.85-22.64-8.49-4.43-1.54-9.06-2.52-13.6-3.76-.34-.1-.67-.26-1.11-.44-.42-2.55.42-5 .73-7.47.55-4.39 1.29-8.77 2-13.15l1.9-12.6q.95-6.3 1.91-12.88c.6-4 1.22-8 1.84-12.06-.08-.14.06-.28.18-.47"/><path fill="#979fbb" d="M130.074 116.542c-9.19-8.86-16.28-18.54-19.84-30.54a18.5 18.5 0 0 1-1-5.86 7.48 7.48 0 0 1 2.87-5.62 2.17 2.17 0 0 1 3-.2 18 18 0 0 1 2.93 2.78 27.3 27.3 0 0 1 4.83 10.54q.14.793.39 1.56a3.22 3.22 0 0 0 6.24-1.08 26.8 26.8 0 0 1 1.07-7.77 15.23 15.23 0 0 1 4.17-7.2c1.18-1.1 2.5-2 4.15-1.36a4.36 4.36 0 0 1 2.61 3.57c.84 3.93 0 7.75-.85 11.54-1.56 7.1-4.32 13.81-7 20.54-1 2.52-2 5.07-2.93 7.6-.14.4-.33.78-.64 1.5"/></svg>