<svg xmlns="http://www.w3.org/2000/svg" width="266" height="159" fill="none" viewBox="0 0 266 159"><path fill="#102185" d="M69.336 116.536c.708 1.232.793 1.671 1.19 1.997 4.97 3.737 5.89 9.132 5.762 14.824-.141 4.686-.68 9.189-1.104 13.847-.113.977-.24 1.968-.1 3.129.256 3.738-.665 5.479-3.978 6.938-2.265 1.005-4.615 1.585-7.036 1.571-2.422-.014-4.914-.595-7.066-1.713-1.472-.75-2.959-1.501-4.261-2.506-4.092-2.775-6.046-6.584-4.588-11.539 1.331-5.112 2.563-10.534 4.035-15.631 1.034-3.866 3.455-7.278 6.726-9.6 2.336-1.572 1.996-5.89-.241-7.447-4.743-3.285-9.486-6.428-14.371-9.727-.524-.354-1.062-.694-1.6-.907-3.908-1.897-4.502-2.831-4.262-7.22.765-11.03 1.671-22.045 2.577-33.06.1-.85.227-1.827.24-3.115-3.978-1.331-7.942-2.676-11.935-3.866-8.24-2.562-16.353-5.111-24.593-7.688-3.285-1.105-4.786-2.86-4.73-5.706.043-3.85 1.275-5.833 4.956-6.81a780 780 0 0 1 17.09-4.489C59.227 18.771 96.28 9.568 133.46.521a12.93 12.93 0 0 1 9.458.863c4.177 2.068 9.104 2.535 13.677 3.653 8.17 1.983 16.509 3.851 24.679 5.848l23.574 5.564 23.999 5.621 24.679 5.848c2.491.58 5.012 1.033 7.49 1.755 1.118.142 2.053.68 2.817 1.487s1.203 1.855 1.345 3.016c.283 2.322-1.302 3.695-3.143 4.757-2.28 1.147-4.333 2.76-5.862 4.856-1.161 1.289-2.534 2.124-4.148 2.492-4.772 1.7-9.501 3.13-14.258 4.687-1.331.41-2.69.963-4.035 1.515.382 6.315.778 12.36 1.175 18.533.396 6.173.821 12.078 1.246 17.982.184 2.025-.057 3.992-.991 5.876-.807 1.897-2.124 3.454-3.823 4.53-7.703 5.919-16.042 11.171-24.848 15.532-2.577 1.26-4.914 2.832-7.462 3.951-1.968.906-4.135 1.203-6.103 2.109-17.514 6.867-36.09 10.605-54.808 10.902-22.3.439-44.43-4.091-64.719-13.252-1.062-.694-2.294-1.133-4.205-1.798l.17-.269zM87.36 59.534l.298 1.033c.41.199.948.397 1.359.595l34.236 10.562c11.553 3.54 7.122 3.568 18.109.057 34.589-11.214 69.164-22.286 103.768-33.641 1.19-.425 2.379-.85 3.582-1.274a112 112 0 0 0-13.238-3.738c-10.265-2.379-20.53-4.771-30.795-7.15-10.548-2.421-20.94-4.956-31.474-7.377-11.511-2.676-23.023-5.351-34.378-8.155-1.656-.481-3.511-.425-5.267-.07-37.039 9.06-74.234 18.25-111.414 27.297-.878.184-1.77.495-2.96.92.51.496.765.807 1.161.991l52.897 16.68c.949.396 1.813.367 2.818.339.878-.184 1.784-.637 2.435-1.274 4.12-3.356 8.453-6.244 13.054-8.835 12.134-5.947 24.467-11.299 36.714-16.948 1.203-.566 2.378-.85 3.695-1.119 1.034-.297 2.166-.17 3.228.397.935.538 1.827 1.36 2.138 2.393.439 1.047.453 2.194.043 3.143-.411 1.09-1.218 1.854-2.138 2.307-1.685.935-3.37 1.87-5.154 2.52-10.732 4.97-21.578 9.799-32.168 14.783-3.61 1.557-6.726 3.752-10.095 5.62l-.425-.056zM189.36 66.47c-1.925.623-3.1.906-4.304 1.331l-46.907 15.15c-3.257 1.034-6.485 1.784-9.784.666-13.876-4.39-27.61-8.765-41.485-13.154-2.605-.892-5.38-1.5-8.269-2.42-1.458 3.822-3.015 7.192-4.162 10.76-2.506 7.688-3.313 15.574-3.71 23.517-.127 3.412-.425 3.511 2.818 5.041 11.695 5.833 24.324 9.939 37.166 12.204 21.493 3.88 43.736 2.733 64.719-3.284 5.48-1.614 10.973-3.526 16.354-5.437a4303 4303 0 0 1-2.45-44.515v.141zM60.983 100.693c.835-12.729 2.959-24.452 8.58-35.467-6.47-1.926-12.19-4.191-18.165-5.48-.354.524-.525.793-.553 1.076-.878 9.585-1.755 19.185-2.492 28.799-.056.425-.099.85.128 1.302.085.44.34.75.58 1.062 3.653 2.86 7.448 5.607 11.922 8.722zm150.506-41.527c.198 13.72 1.02 26.93 1.615 40.847 4.346-2.903 7.787-5.48 11.51-7.872.751-.34 1.261-.991 1.643-1.798s.467-1.515.283-2.393c-.609-7.914-1.076-15.815-1.543-23.715a264 264 0 0 1-.595-9.203l-12.771 4.162h-.142zM65.372 149.285c.396-6.796.835-12.728.977-18.703.184-1.544-.113-3.724-2.067-4.106-1.968-.241-2.662 1.953-2.973 3.341a199 199 0 0 0-3.285 13.012c-.722 3.625-.369 4.233 3.044 5.508 1.515.467 2.902.778 4.446.962h-.142zm135.966-42.858c2.591-1.402 2.081-3.03 1.968-4.474-.227-7.59-.609-15.05-.821-22.64-.199-5.437-.539-10.902-.737-16.353q-2.931.637-2.831 3.37c.495 10.039.976 20.233 1.613 30.285.185 3.157.539 6.202.935 9.954l-.127-.156z"/></svg>