<svg xmlns="http://www.w3.org/2000/svg" xml:space="preserve" style="fill-rule:evenodd;clip-rule:evenodd;stroke-linejoin:round;stroke-miterlimit:2" viewBox="0 0 409 449"><g transform="scale(1 .82105)"><path d="M0 0h409v546H0z" style="fill:none"/><clipPath id="a"><path d="M0 0h409v546H0z"/></clipPath><g clip-path="url(#a)"><g transform="matrix(1 0 0 1.21795 0 -118.998)"><clipPath id="b"><path d="M0 0h409v546H0z"/></clipPath><g clip-path="url(#b)"><path d="M366.915 421.341c-.145.872-.363 1.744-.363 2.615a168 168 0 0 0 0 8.573c0 .581.218 1.235.363 1.816v.799c-.29.363-.727.799-.727 1.162a115 115 0 0 0-.436 7.047c0 .653.218 1.38.364 2.034v1.162c-.218.799-.509 1.598-.727 2.397v.799c0 .509 0 1.09-.073 1.599v1.162c-.145.436-.29.799-.363 1.235v.799c-.146.509-.291 1.09-.364 1.598v.799c-.145.436-.29.799-.363 1.235v1.163c-.145.29-.218.508-.363.799v.799c-.364 1.598-.8 3.196-1.163 4.794v.799c-.218.291-.509.582-.727.8v.799c-.509 1.598-1.018 3.196-1.599 4.794-.146.945-.291 1.816-.436 2.761-.509 1.089-1.018 2.106-1.527 3.196 0 .509-.073 1.017-.073 1.526l-1.526 2.833c-1.89 6.465-5.161 12.204-8.722 17.87-2.835 4.504-5.96 8.936-9.377 13.077-3.416 4.068-7.195 7.918-11.193 11.477-5.742 5.086-12.284 9.081-19.189 12.277-8.213 3.851-16.718 6.684-25.803 7.41-6.905.509-13.81 1.017-20.716.727-10.321-.509-20.424-2.398-30.382-5.376-7.414-2.179-14.9-4.359-22.096-7.265-8.286-3.341-16.427-7.119-24.205-11.405-8.286-4.576-16.281-9.734-23.986-15.183-6.105-4.286-11.702-9.298-17.299-14.238-4.652-4.068-9.158-8.354-13.301-12.931-5.815-6.32-11.484-12.858-16.79-19.614s-10.394-13.73-15.046-20.994c-5.815-9.081-11.194-18.452-16.5-27.823-7.486-13.222-13.737-27.097-19.407-41.19-3.779-9.444-6.978-19.106-10.466-28.695-.364-1.09-.655-2.252-.945-3.414-.509-1.09-1.018-2.107-1.527-3.197-.145-1.017-.29-2.106-.436-3.123-.727-2.47-1.454-5.013-2.326-7.483-.218-.726-.799-1.38-1.163-2.034 0-.654-.072-1.307-.072-1.961-.364-1.09-.8-2.107-1.163-3.197v-.799c-.364-.654-.727-1.38-1.163-2.034 0-.654-.073-1.307-.073-1.961-.291-.654-.509-1.308-.8-2.034v-.799c-.363-.654-.726-1.381-1.163-2.034-.29-1.453-.581-2.906-.872-4.287-.799-2.905-1.526-5.884-2.326-8.79-.072-.29-.508-.508-.727-.726l-.436-3.487c-.363-.654-.727-1.38-1.09-2.034 0-.799-.073-1.526-.073-2.325-.218-.29-.508-.581-.726-.871v-.8c-.364-1.162-.8-2.397-1.163-3.559v-.799c-.509-2.252-1.091-4.504-1.6-6.756v-1.163c-.508-1.307-1.017-2.687-1.526-3.995v-.799c-.145-.291-.218-.509-.363-.799v-.799c-.146-.436-.291-.799-.364-1.235v-.799c-.145-.291-.291-.509-.363-.799v-.8c-.291-.944-.509-1.888-.8-2.76v-.799c.364-1.889.218-3.705-1.163-5.158v-.799c-.29-1.162-.508-2.397-.799-3.56v-.799c0-.363 0-.799-.073-1.162v-1.162c-.145-.436-.291-.799-.363-1.235v-.799c-.218-.509-.509-1.09-.727-1.599v-.799c0-.363 0-.799-.073-1.162v-1.526c-.218-.435-.509-.799-.727-1.235v-1.162c0-.508 0-1.09-.072-1.598v-1.162c-.218-.509-.509-1.09-.727-1.599v-1.598c.509-.799.799-1.525-.364-1.961v-.799c-.145-.654-.29-1.308-.363-2.034v-1.599c0-.799 0-1.598-.073-2.397v-1.162c-.145-.945-.291-1.889-.363-2.761v-1.162c-.146-1.09-.291-2.107-.364-3.196-.145-.799-.218-1.599-.363-2.398.363-1.38 1.09-2.76-.364-3.995v-2.761c.146-.581.364-1.235.364-1.816-.073-2.978-.218-5.884-.364-8.862.146-.654.219-1.308.364-1.962.145-1.09.291-2.107.363-3.196v-4.359c1.091-1.598 1.527-3.269.8-5.158v-.799c1.308-1.961 1.454-4.141 1.163-6.32v-.799c.145-.291.291-.509.363-.799v-.799c.364-1.308.8-2.688 1.163-3.996v-.799c.218-.29.509-.581.727-.799v-.799c.509-1.453 1.018-2.906 1.599-4.359.291-1.017.582-2.106.872-3.123.218-.291.509-.582.727-.8 0-.363 0-.799.073-1.162.363-.508.727-1.09 1.163-1.598.436-1.017.799-2.107 1.236-3.124.218-.29.508-.581.726-.799l.436-1.525c.364-.509.8-1.09 1.163-1.599.437-.944.8-1.816 1.236-2.76l1.963-2.397c.29-.509.508-1.017.799-1.599l.8-.799c.29-.508.581-1.017.799-1.525l.8-.799v-.364c1.163-1.452 2.326-2.905 3.561-4.358v-.363l.8-.8c.363-.508.799-1.017 1.163-1.598l1.962-1.961c.8-.945 1.599-1.816 2.399-2.761l2.399-1.961 1.962-1.962h.364c.436-.363.799-.799 1.235-1.162.291-.145.509-.29.8-.436l.799-.799c.654-.436 1.309-.799 1.963-1.235l.799-.799h.364c1.599-1.017 3.198-2.107 4.797-3.124.218 0 .509 0 .727-.072a115 115 0 0 1 3.997-2.325c1.672-.654 3.417-1.38 5.088-2.034.291-.218.582-.508.8-.726h.8c1.889-.509 3.779-1.09 5.669-1.526 6.469-1.598 13.011-2.034 19.698-1.308 5.233.582 10.321 1.599 15.191 3.851 2.835 1.307 5.742 2.47 8.649 3.705l5.888 2.833c.436.363.799.726 1.236 1.162l1.526.436c1.09.799 2.108 1.525 3.198 2.324h.364c.508.364 1.09.8 1.599 1.163h.363l.8.799h.363l.8.799c.508.291 1.017.509 1.599.799l.799.799h.364l.799.799h.364l.799.799c.291.146.509.291.8.436l.799.799h.364l2.398 1.962h.364l.799.799c.291.145.509.29.8.436l.799.799c.291.145.509.29.8.436l.799.799h.364c.436.363.799.799 1.235 1.162h.364l.799.799c.8.509 1.599 1.09 2.399 1.598l.799.799h.364c.945.8 1.89 1.599 2.762 2.325h.363l.8.799c.291.146.509.291.799.436l.8.799c.291.145.509.291.8.436.436.363.799.799 1.235 1.162.291.146.509.291.8.436l.799.799c.291.146.509.291.8.436.509.509 1.09 1.017 1.599 1.526h.363l.8.799c.363.29.799.508 1.163.799.436.363.799.799 1.235 1.162.291.146.509.291.8.436.509.509 1.09 1.017 1.599 1.598h.363c.437.364.8.799 1.236 1.163.364.29.8.508 1.163.799.436.363.8.799 1.236 1.162.29.145.509.291.799.436.509.508 1.091 1.017 1.599 1.598.291.145.509.291.8.436.436.363.799.799 1.236 1.162.363.291.799.509 1.163.799.436.364.799.8 1.235 1.163.291.145.509.29.8.436.508.508 1.09 1.017 1.599 1.598.363.29.799.508 1.163.799.509.508 1.09 1.017 1.599 1.598.509.363 1.017.799 1.599 1.162l.799.799c.364.291.8.509 1.163.8l1.963 1.961c.509.436 1.017.799 1.599 1.235l1.962 1.961c.364.291.8.509 1.163.799l2.399 2.398 2.399 1.961c.945.945 1.889 1.816 2.762 2.761 1.163 1.089 2.398 2.106 3.561 3.196l3.562 3.56 16.645 16.635c1.599 1.599 3.198 3.197 4.724 4.795 2.108 2.179 4.143 4.359 6.179 6.465.436.436.872.945 1.308 1.381l5.524 5.521c2.399 2.47 4.725 5.012 7.123 7.482l4.361 4.359c1.309 1.453 2.617 2.906 3.998 4.358l2.399 2.398c.799.944 1.599 1.816 2.398 2.76l3.562 3.56c.799.944 1.599 1.816 2.398 2.76.509.509 1.018 1.09 1.599 1.599.291.363.509.799.8 1.162.8.799 1.599 1.598 2.326 2.397.509.654 1.09 1.308 1.599 1.962l1.163 1.162c.436.508.799 1.017 1.236 1.598.508.509 1.017 1.09 1.599 1.598.29.364.508.799.799 1.163l.8.799c.363.508.799 1.017 1.163 1.598.363.436.799.799 1.163 1.235.145.29.29.508.436.799.363.436.799.799 1.163 1.235.29.363.509.799.799 1.162.509.509 1.018 1.09 1.527 1.598v.364c.508.508 1.017 1.089 1.526 1.598a67 67 0 0 0 2.035 2.76l.8.799v.364c.509.508 1.017 1.089 1.526 1.598v.363c.364.436.8.799 1.163 1.235.146.291.291.509.436.799l.8.799v.364l.799.799c.655.944 1.309 1.816 1.963 2.76l.799.799v.363l.8.8c.436.653.799 1.307 1.236 1.961l.799.799c.436.654.8 1.308 1.236 1.961.509.654 1.017 1.308 1.599 1.962v.363l.799.799c.509.945 1.091 1.816 1.599 2.761l.8.799v.363l.8.799v.363l.799.799c.291.509.509 1.017.8 1.599l.799.799v.363c.364.508.8 1.09 1.163 1.598v.363l.8.799v.364l.799.799c.146.363.291.799.436 1.162.218.291.509.509.727.799v.363c.364.509.8 1.09 1.163 1.599v.363l.8.799c2.035 3.632 4.143 7.264 6.105 10.969a1140 1140 0 0 1 10.685 20.995c1.09 2.179 2.035 4.504 3.053 6.828l1.526 2.834c.8 2.397 1.599 4.721 2.399 7.119.218.29.509.581.727.799 0 .363 0 .799.072 1.162.509 1.09 1.018 2.107 1.527 3.197.145.944.29 1.816.436 2.76.654 1.453 1.308 2.906 1.89 4.431.145 1.017.29 2.107.436 3.124.509 1.235 1.017 2.397 1.526 3.632.145.799.291 1.599.436 2.325.291 1.162.509 2.397.8 3.56v.799c.218.436.509.799.727 1.235v2.397c.654 3.269 1.235 6.538 1.889 9.807.146.727.582 1.453.873 2.107v.799c.145 1.598.29 3.196.436 4.722v1.162c.145.799.29 1.598.363 2.397v.8c.146.799.291 1.598.364 2.397.145.799.218 1.598.363 2.397 0 1.453 0 2.906.073 4.359-.436.799-.291 1.889-.146 2.978" style="fill:#e6eefe;fill-rule:nonzero"/><path d="M119.131 96.182c.436.654.945 1.308 1.163 2.034.8 2.47 1.526 5.013 2.326 7.483-.581-1.09-1.236-2.18-1.599-3.342-.727-2.034-1.308-4.141-1.89-6.175M123.056 108.822c.509 1.09 1.018 2.107 1.527 3.197a133 133 0 0 1-1.527-3.197" style="fill:#ececf1;fill-rule:nonzero"/><path d="M261.158 180.45c-.145 1.235-.363 2.688-.509 4.068-.218 2.107-.218 4.214-.581 6.321-.218 1.162.218 1.816 1.017 2.542 3.635 3.269 7.196 6.538 10.831 9.807l15.7 14.166a926 926 0 0 1 8.649 7.846c.8.726 1.599 1.017 2.689 1.089 5.452.364 10.903.799 16.355 1.163 8.213.581 16.426 1.089 24.713 1.67.581.073 1.163.146 1.744.291 1.745.581 2.253 2.325 1.599 3.632-.436.872-.654 1.962-.727 3.051-.218 5.303-.363 10.534-.654 15.837-.363 8.136-.799 16.345-1.163 24.481-.291 6.393-.509 12.786-.799 19.179-.364 8.499-.8 16.999-1.163 25.498-.146 3.342-.146 6.756-.291 10.098-.073 1.453.291 2.76.945 3.995s1.235 2.47 1.817 3.705c.218.509.509 1.09.654 1.671.654 2.252-.363 3.632-2.762 3.632-2.108-.072-4.216-.218-6.324-.363-6.541-.509-13.01-1.017-19.552-1.526-5.96-.508-11.993-1.017-17.953-1.452-3.78-.291-7.487-.582-11.266-.872-6.469-.509-12.866-1.017-19.335-1.526-3.779-.29-7.632-.581-11.411-.872l-18.535-1.525c-4.07-.291-8.141-.581-12.211-.944-5.96-.509-11.993-1.017-17.953-1.453-3.78-.291-7.487-.582-11.267-.872-6.541-.509-13.01-1.017-19.552-1.526l-12.211-.871c-2.035-.146-4.07-.218-6.106-.509-1.163-.145-2.326-.581-3.343-1.09-1.236-.581-1.672-1.888-1.163-3.196.363-.872.727-1.743 1.308-2.47 1.672-2.179 2.108-4.722 2.326-7.41.727-7.482 1.527-14.965 2.253-22.447l1.309-13.948c.727-7.337 1.526-14.674 2.253-22.011.582-5.885 1.163-11.841 1.744-17.726.437-4.213.873-8.354 1.309-12.567.218-2.034.363-4.068.654-6.102.073-.872.218-1.744.581-2.47.509-1.308 1.454-1.671 2.835-1.453 1.963.29 3.925.654 5.888.799 5.524.363 11.048.654 16.572 1.017 5.451.363 10.903.726 16.354 1.162 1.454.145 2.617-.29 3.852-1.089 5.306-3.342 10.685-6.611 15.991-9.808a5078 5078 0 0 1 26.312-15.764c.364-.217.8-.508 1.163-.726.727-.363.945-.944 1.018-1.743.363-4.65.799-9.299 1.235-14.021.582-6.465 1.236-13.003 1.818-19.469.218-2.107.363-4.213.508-6.32.218-2.543.945-3.414 3.562-3.414 2.689 0 5.379.145 8.068.363 4.288.291 8.577.726 12.793 1.09 6.033.508 12.065 1.017 18.171 1.453 4.07.29 8.141.653 12.211.944 1.09.073 2.253.218 3.344.363 1.962.291 2.907 1.308 2.907 3.342 0 1.671-.073 3.269-.218 4.94l-2.181 22.011c-.072.436-.145.945-.29 1.308-.582 1.089-1.454 1.38-2.617 1.307-4.507-.363-9.086-.653-13.592-.944-3.925-.291-7.85-.654-11.848-1.017-6.614-.509-13.301-1.017-19.916-1.598-2.253-.218-4.797-.436-7.559-.727m76.61 53.758c-1.163-.146-1.962-.291-2.834-.364-4.434-.29-8.795-.581-13.229-.871-6.469-.436-12.865-.872-19.334-1.308-2.472-.145-4.87-.291-7.342-.436-7.922-.581-15.772-1.162-23.695-1.743-5.887-.436-11.848-.799-17.735-1.163-10.249-.726-20.497-1.38-30.819-2.106a9268 9268 0 0 0-12.065-.872c-7.342-.509-14.756-1.017-22.097-1.526-3.925-.29-7.922-.653-11.847-.944-2.399-.145-4.87-.291-7.196-.436-.654 2.034-3.78 33.489-3.417 35.16.582.073 1.236.218 1.89.218 7.923.509 15.773 1.09 23.696 1.598 7.922.509 15.772 1.09 23.695 1.599 6.614.435 13.156.871 19.77 1.307 2.254.146 4.507.291 6.688.436 7.922.581 15.772 1.162 23.695 1.744 7.341.508 14.755 1.017 22.096 1.598 9.595.654 19.189 1.307 28.856 2.034 5.379.363 10.758.799 16.209 1.09 1.09.072 2.181 0 3.562 0 .436-11.696.945-23.247 1.453-35.015m-54.223 36.685c-.654-.072-1.308-.218-1.962-.29l-6.106-.436c-7.268-.509-14.61-1.017-21.878-1.526l-24.64-1.743-8.505-.654c-.945-.073-1.889 0-3.125 0-.291 4.722-.509 9.299-.8 13.803-.29 4.576-.726 9.226-1.017 13.802-.291 4.504-.582 9.081-.8 13.585-.218 4.576-.799 9.153-.872 13.875 2.689.291 5.161.509 7.705.581.145-.799.218-1.38.29-1.889.437-4.576.8-9.153 1.236-13.802l1.963-22.23c.145-1.235.218-2.469.436-3.704.29-1.308 1.381-2.18 2.471-2.18 1.163 0 2.181 1.09 2.399 2.47 0 .291.072.509 0 .799-.437 4.94-.873 9.88-1.236 14.747-.436 5.085-.654 10.243-1.454 15.328-.363 2.47-.509 5.013-.727 7.483-.072 1.089 0 2.179 0 3.487 6.179.508 12.284.944 18.535 1.453.364-4.722.727-9.226 1.018-13.948a85 85 0 0 1-2.254-.218c-1.381-.146-2.762-.218-4.143-.436-1.308-.218-2.18-1.308-2.107-2.47s.872-2.034 2.18-2.179a11 11 0 0 1 2.181 0c1.453.072 2.834.145 4.506.218.291-3.487.654-6.902.8-10.316.218-3.487.799-6.901.581-10.388-.509-.073-.799-.146-1.163-.146-2.616-.145-5.306-.217-7.923-.363-1.381-.072-2.762-.145-4.143-.363-1.381-.145-2.253-1.162-2.253-2.325 0-1.307.945-2.324 2.326-2.47a7 7 0 0 1 1.745 0l8.286.436 18.752.872c.364 0 .655 0 .945.073 1.309.363 2.108 1.453 1.963 2.833-.145 1.235-1.09 2.107-2.399 2.179-.581 0-1.163 0-1.744-.072-2.617-.146-5.234-.291-7.923-.364-.436 0-.872.146-1.381.218-.363 6.902-1.236 13.585-1.454 20.341 1.236.654 2.472.363 3.635.508.945.146 1.817.218 2.689.436.945.291 1.454 1.09 1.599 2.107.073.944-.581 1.889-1.599 2.325-.509.218-1.163.29-1.744.29-1.163 0-2.399-.145-3.562-.218-.509 0-1.018.073-1.599.073-.363 4.649-.8 9.153-.945 13.802.8.073 1.381.146 1.89.218 3.852.291 7.777.582 11.629.872 2.181.218 2.326.145 2.617-2.034 0-.291.073-.508.073-.799.436-6.611.799-13.149 1.235-19.759.364-5.667.582-11.333.945-16.999.073-1.017.146-2.107.291-3.124.218-1.598 1.163-2.543 2.471-2.615 1.309 0 2.254 1.017 2.472 2.615.072.363 0 .799 0 1.162 0 .509-.146 1.017-.146 1.598-.436 6.684-.799 13.44-1.235 20.123-.364 6.393-.8 12.786-1.163 19.178 0 .364.072.727.072 1.308 2.108.145 4.143.291 6.179.436.581.072 1.163 0 1.89 0 .218-.799.508-1.453.581-2.107.145-1.09.218-2.252.291-3.342.508-8.644 1.09-17.216 1.599-25.861.436-6.538.799-13.004 1.163-19.542.436-1.525.363-2.978.363-4.722m52.334 3.56c-15.7-.944-31.182-2.325-46.955-3.196a76308 76308 0 0 1-3.489 55.646c2.907.653 46.228 3.995 48.045 3.705.073-.582.145-1.235.145-1.889.073-1.744.073-3.415.146-5.158.436-9.153.945-18.307 1.381-27.46.29-6.32.581-12.64.799-18.96-.072-.799-.072-1.598-.072-2.688m-123.493-8.717c-15.845-1.163-31.4-2.252-47.1-3.415a13873 13873 0 0 0-5.524 54.702c3.344.799 6.615.581 9.885.944 3.199.364 6.469.509 9.668.799 3.27.291 6.541.509 9.885.727 3.198.218 6.469.508 9.667.654 3.271.218 6.469.799 9.958.581a17505 17505 0 0 1 3.561-54.992m76.465-40.391c-.799-.727-1.381-1.308-2.035-1.889-3.271-2.978-6.614-5.884-9.885-8.863-6.178-5.593-12.284-11.187-18.462-16.708-1.381-1.235-1.381-1.235-2.908-.363l-37.069 22.011c-.364.218-.727.509-1.308.945.726.145 1.017.218 1.381.29 5.669.436 11.338.799 16.935 1.235 2.617.146 5.234.291 7.923.509 8.868.654 17.735 1.235 26.603 1.889 4.579.363 9.231.726 13.81 1.017 1.599 0 3.125.29 5.015-.073m-132.069 99.959c.436.146.654.291.945.291 3.562.291 7.123.581 10.685.799l12.211.872c6.033.508 12.066.944 18.171 1.453 4.071.29 8.141.581 12.211.944 5.815.436 11.557.945 17.372 1.453 4.143.363 8.286.581 12.429.944 5.888.436 11.848.945 17.735 1.453 4.216.364 8.432.582 12.648.945 6.541.508 13.01 1.017 19.552 1.525 3.78.291 7.632.581 11.412.872 5.887.509 11.847.944 17.735 1.453 4.506.363 9.085.726 13.592 1.09 1.018.072 2.108 0 3.271 0-.146-.509-.291-.945-.436-1.381-.509-1.598-1.527-2.179-3.271-2.252-3.852-.145-7.632-.508-11.412-.799-5.887-.436-11.847-.944-17.735-1.453-4.288-.363-8.577-.581-12.793-.944l-18.534-1.526c-3.78-.29-7.487-.581-11.267-.871-5.96-.509-11.993-1.017-17.953-1.526-3.925-.29-7.922-.581-11.847-.944-5.67-.436-11.267-.945-16.936-1.453-3.998-.363-7.996-.581-12.066-.945-7.559-.581-15.118-1.234-22.678-1.888-3.925-.364-7.85-.727-11.847-1.017-2.98-.218-6.033-.509-9.159-.727a91 91 0 0 0-2.035 3.632M281.51 154.008c-.654 3.269-1.962 21.43-1.599 22.883 2.399.581 12.574 1.162 13.955.799.291-3.705.582-7.41.873-11.188.29-3.777 1.09-7.482.799-11.477-4.797-.364-9.376-.654-14.028-1.017m30.891 25.571c1.091-6.175 2.326-21.285 1.89-22.884-4.288-.726-11.339-1.162-13.447-.871-.509 7.482-1.599 14.892-1.817 22.665 4.507.363 8.868.726 13.374 1.09m-48.699-27.097c-.872 7.918-1.526 15.619-2.18 23.537 4.433-.291 8.649.654 13.01.508.291-3.995.582-7.773.872-11.623.291-3.777.873-7.482.727-11.405-4.215-.291-8.14-.654-12.429-1.017" style="fill:#3558a2;fill-rule:nonzero"/><path d="M283.545 270.893c0 1.744.073 3.197 0 4.65-.363 6.538-.799 13.003-1.163 19.541-.509 8.645-1.09 17.217-1.599 25.862-.073 1.089-.145 2.252-.291 3.341-.072.727-.363 1.381-.581 2.107h-1.89c-2.035-.145-4.07-.29-6.178-.436 0-.581-.073-.944-.073-1.307.364-6.393.8-12.786 1.163-19.179.436-6.683.8-13.439 1.236-20.122 0-.509.145-1.017.145-1.598 0-.364.073-.8 0-1.163-.218-1.598-1.163-2.615-2.471-2.615-1.381 0-2.253.944-2.472 2.615-.145 1.017-.218 2.107-.29 3.124-.291 5.666-.582 11.333-.945 16.999-.364 6.611-.8 13.149-1.236 19.759 0 .291-.073.509-.073.799-.29 2.18-.436 2.252-2.616 2.034-3.853-.363-7.778-.581-11.63-.871a68 68 0 0 0-1.89-.218c.146-4.649.655-9.153.945-13.803.582-.072 1.091-.145 1.599-.072 1.163.072 2.399.218 3.562.218.581 0 1.163-.073 1.744-.291 1.018-.363 1.672-1.38 1.599-2.325-.072-1.017-.581-1.816-1.599-2.106-.872-.291-1.817-.364-2.689-.436-1.163-.146-2.399.145-3.634-.509.218-6.756 1.09-13.439 1.453-20.34.509-.073.945-.218 1.381-.218 2.617.072 5.306.218 7.923.363.582 0 1.163.073 1.745.073 1.308-.073 2.253-.945 2.398-2.18.146-1.38-.581-2.47-1.962-2.833-.291-.073-.654-.073-.945-.073l-18.753-.871-8.286-.436c-.582 0-1.163-.073-1.745 0-1.453.145-2.398 1.162-2.325 2.47 0 1.235.872 2.179 2.253 2.324s2.762.291 4.143.364c2.616.145 5.306.29 7.923.363.29 0 .654.072 1.162.145.219 3.56-.363 6.974-.581 10.388-.218 3.415-.509 6.756-.8 10.316a968 968 0 0 1-4.506-.218c-.727 0-1.454-.073-2.181 0-1.308.145-2.107 1.09-2.18 2.179-.073 1.163.727 2.252 2.108 2.47s2.762.291 4.143.436c.727.073 1.381.145 2.253.218-.363 4.722-.727 9.153-1.018 13.948-6.323-.509-12.356-.944-18.534-1.453 0-1.308-.073-2.397 0-3.487.218-2.47.29-5.012.727-7.482.799-5.085 1.017-10.243 1.453-15.328.364-4.94.872-9.88 1.236-14.747v-.799c-.218-1.381-1.236-2.47-2.399-2.47-1.09 0-2.18.799-2.471 2.179a32 32 0 0 0-.436 3.705l-1.963 22.229c-.436 4.577-.799 9.226-1.235 13.803a25 25 0 0 1-.291 1.889c-2.617-.073-5.015-.291-7.705-.582.073-4.722.655-9.298.873-13.875.218-4.576.508-9.08.799-13.584.291-4.577.727-9.226 1.018-13.803.29-4.504.509-9.081.799-13.803 1.163 0 2.108-.072 3.126 0l8.504.654 24.64 1.744c7.269.508 14.61 1.017 21.878 1.525l6.106.436c.291.145.945.291 1.599.363M156.782 325.304c.727-1.235 1.381-2.324 2.035-3.487 3.126.218 6.178.436 9.159.727 3.925.363 7.85.726 11.847 1.017 7.559.654 15.119 1.235 22.678 1.889 3.998.29 7.995.581 12.066.944 5.669.436 11.266.944 16.935 1.453 3.925.29 7.923.581 11.848.944 5.96.509 11.993 1.017 17.953 1.526 3.78.29 7.487.581 11.267.872l18.534 1.525c4.289.363 8.577.581 12.793.945 5.887.435 11.848.944 17.735 1.452 3.78.291 7.632.654 11.412.8 1.672.072 2.762.653 3.271 2.252.145.435.29.799.436 1.38-1.163 0-2.254.072-3.271 0-4.507-.363-9.086-.727-13.592-1.09-5.888-.508-11.848-1.017-17.735-1.453-3.78-.29-7.632-.581-11.412-.872-6.542-.508-13.011-1.017-19.552-1.525-4.216-.291-8.432-.581-12.648-.944-5.887-.436-11.847-.945-17.735-1.453-4.143-.364-8.286-.582-12.429-.945-5.815-.436-11.557-.944-17.372-1.453-4.07-.29-8.141-.581-12.211-.944-6.033-.509-12.066-.944-18.171-1.453l-12.211-.872c-3.562-.29-7.124-.508-10.685-.799-.291-.218-.509-.29-.945-.436" style="fill:#fff;fill-rule:nonzero"/><path d="M198.14 146.234c3.125 2.616 6.396 4.868 10.467 5.594 1.163.218 1.889.944 2.035 2.107.218 1.162-.364 2.034-1.309 2.688-.508.29-1.09.436-1.671.653-1.091.436-2.254.8-3.344 1.235-2.035.872-3.489 2.252-4.724 4.069-2.399 3.487-3.562 7.482-4.289 11.55-.581 3.342-1.308 6.683-1.236 10.17 0 .436-.145.945-.29 1.308-.509 1.38-1.599 2.107-2.835 1.961-1.236-.145-2.253-1.235-2.326-2.542a20 20 0 0 1 0-2.979c.582-4.431.364-8.935.364-13.439 0-1.816-.219-3.705-.437-5.521-.218-1.961-.726-2.543-2.762-2.615-1.599-.073-3.125.072-4.724.218-2.108.218-3.78-1.453-3.198-3.342.363-1.09 1.163-1.671 2.253-2.034a71 71 0 0 0 5.379-2.397c.726-.363 1.308-.872 2.035-1.235 3.998-2.325 5.597-5.957 5.742-10.388.073-2.979 0-5.957.073-8.936 0-.799.218-1.671.581-2.47.436-1.017 1.454-1.307 2.544-1.162s1.817.872 2.035 1.889c.218.799.218 1.671.291 2.542.073 4.141 0 8.282-.654 12.423-.145.29-.073.435 0 .653m-7.487 10.025c.727.872 1.527 1.526 2.108 2.398.509.799.8 1.816 1.236 2.906 1.672-2.834 3.634-5.304 6.469-7.12-1.817-.871-2.98-2.397-4.652-2.76-1.89 1.598-3.489 3.124-5.161 4.576M224.452 365.913c1.745 0 2.908 1.09 2.835 2.615 0 1.526-1.745 2.979-3.416 2.906-1.381-.073-2.544-1.308-2.544-2.76 0-1.817 1.163-2.834 3.125-2.761M254.253 348.333c0-1.526 1.163-2.615 2.835-2.615 1.599 0 2.689 1.162 2.689 2.76a2.76 2.76 0 0 1-2.762 2.761c-1.454.072-2.762-1.308-2.762-2.906M234.919 388.506c0 1.598-1.309 2.76-2.98 2.76-1.527 0-2.617-1.09-2.617-2.615a2.76 2.76 0 0 1 2.762-2.761c1.526 0 2.835 1.163 2.835 2.616M218.71 346.372c0 1.743-1.09 2.978-2.689 2.978-1.454 0-2.544-1.09-2.544-2.615-.073-1.671 1.09-2.979 2.689-2.979 1.454-.072 2.544 1.017 2.544 2.616M246.33 367.656c0 1.526-1.235 2.688-2.834 2.688-1.527 0-2.69-1.162-2.69-2.542 0-1.526 1.236-2.761 2.762-2.688 1.599 0 2.762 1.09 2.762 2.542M254.762 380.515c1.526 0 2.616 1.017 2.689 2.542.073 1.526-1.163 2.688-2.762 2.688-1.454 0-2.689-1.09-2.689-2.542-.073-1.526 1.163-2.688 2.762-2.688M239.207 350.73c.073 1.38-1.163 2.688-2.544 2.833-1.454.073-2.835-1.162-2.907-2.615-.073-1.38 1.163-2.688 2.544-2.76 1.453-.146 2.834 1.089 2.907 2.542M264.938 360.465c1.381-.073 2.689 1.162 2.762 2.542.072 1.381-1.236 2.761-2.762 2.761-1.454 0-2.69-1.235-2.69-2.615.073-1.308 1.309-2.616 2.69-2.688" style="fill:#3558a2;fill-rule:nonzero"/><path d="M337.768 234.208c-.509 11.841-1.017 23.391-1.526 35.087-1.308 0-2.471.073-3.562 0-5.378-.363-10.757-.726-16.209-1.09-9.594-.653-19.188-1.307-28.856-2.034-7.341-.508-14.755-1.017-22.096-1.598-7.923-.581-15.773-1.162-23.695-1.743-2.254-.146-4.507-.291-6.687-.436-6.615-.436-13.156-.872-19.771-1.308-7.922-.508-15.772-1.089-23.695-1.598-7.923-.508-15.773-1.09-23.695-1.598-.655-.073-1.309-.145-1.89-.218-.364-1.671 2.762-33.126 3.416-35.16 2.399.145 4.797.218 7.196.436 3.925.29 7.922.653 11.847.944 7.342.509 14.756 1.017 22.097 1.526 3.997.29 7.995.581 12.066.871 10.248.727 20.497 1.381 30.818 2.107 5.888.436 11.848.799 17.735 1.162 7.923.581 15.773 1.163 23.696 1.744 2.398.145 4.87.29 7.341.436 6.469.436 12.865.871 19.334 1.307 4.434.291 8.795.581 13.229.872.872 0 1.744.145 2.907.291m-83.006-1.599c-6.687-.363-13.52 5.376-13.302 13.222.291 7.7 6.469 12.059 12.648 12.132 7.85 0 13.446-6.466 13.301-13.295-.218-6.756-5.815-12.204-12.647-12.059m-54.95 18.234c0 .073 0 .436.072.727.218 1.235 1.163 2.106 2.254 2.179 1.017.073 2.107-.726 2.471-1.889.073-.29.145-.653.218-.944.581-5.448 1.163-10.824 1.744-16.273.073-.363 0-.799-.072-1.162-.291-1.162-1.091-1.889-2.181-1.961-.945-.073-1.89.508-2.326 1.525a3.6 3.6 0 0 0-.363 1.526 925 925 0 0 0-1.817 16.272m-15.264-3.414c-.073 0 0 0 0 0-.073.799-.073 1.598-.073 2.397 0 .509.073 1.09.218 1.526.364.944 1.381 1.453 2.399 1.38 1.09-.145 1.89-.872 2.108-2.034.218-1.235.29-2.47.436-3.705.218-3.124.509-6.32.727-9.444.072-1.453.218-2.906.145-4.358-.073-1.235-1.018-2.107-2.181-2.18-1.017-.072-2.035.581-2.398 1.671a9.8 9.8 0 0 0-.436 2.107c-.364 4.213-.655 8.427-.945 12.64m118.549-6.175c0-.436.073-1.017 0-1.598-.145-1.308-.872-2.179-2.035-2.325-1.235-.145-2.326.509-2.689 1.816-.218.727-.291 1.526-.364 2.325-.436 4.359-.799 8.79-1.163 13.149-.072.872 0 1.889.364 2.688.654 1.671 2.762 1.888 3.852.436.364-.509.654-1.163.727-1.744.436-4.867.872-9.734 1.308-14.747m13.447 1.235c0-.581.073-1.235 0-1.889-.145-1.162-.945-2.034-1.962-2.179-1.091-.145-2.108.363-2.544 1.453-.291.654-.436 1.38-.509 2.107-.509 4.649-.945 9.298-1.381 13.947a5.9 5.9 0 0 0 0 1.599c.145 1.089 1.017 1.961 2.035 2.106.945.146 2.181-.508 2.617-1.453a8 8 0 0 0 .436-1.888c.363-4.504.799-9.081 1.308-13.803" style="fill:#fff;fill-rule:nonzero"/><path d="M335.879 274.453v2.688c-.291 6.32-.509 12.64-.8 18.96-.436 9.153-.945 18.307-1.381 27.46-.073 1.744-.073 3.414-.145 5.158 0 .654-.073 1.307-.146 1.889-1.817.29-45.137-3.052-48.045-3.705 1.163-18.452 2.326-36.977 3.489-55.646 15.773.871 31.255 2.252 47.028 3.196M212.386 265.735c-1.235 18.525-2.398 36.686-3.634 55.065-3.489.218-6.687-.363-9.958-.581-3.198-.218-6.469-.436-9.667-.654-3.271-.218-6.542-.508-9.885-.726-3.198-.218-6.469-.436-9.667-.799-3.271-.363-6.542-.145-9.886-.945 1.818-18.306 3.635-36.395 5.525-54.701 15.845 1.089 31.327 2.179 47.172 3.341" style="fill:#ced7ee;fill-rule:nonzero"/><path d="M288.851 225.345c-1.817.363-3.416.073-4.943 0-4.579-.291-9.231-.654-13.81-1.017-8.867-.654-17.735-1.308-26.603-1.889-2.616-.218-5.233-.29-7.922-.508-5.67-.364-11.339-.799-16.936-1.235-.363 0-.727-.146-1.381-.291.654-.436.945-.726 1.308-.944l37.07-22.012c1.526-.871 1.526-.871 2.907.363 6.179 5.594 12.284 11.188 18.462 16.709 3.271 2.978 6.542 5.884 9.886 8.863z" style="fill:#e6eefe;fill-rule:nonzero"/><path d="M281.51 154.008c4.652.363 9.231.726 13.955 1.089.291 3.923-.436 7.701-.799 11.478-.291 3.705-.582 7.483-.872 11.187-1.381.364-11.557-.217-13.956-.799-.291-1.525.945-19.686 1.672-22.955" style="fill:#fff;fill-rule:nonzero"/><path d="M312.401 179.578c-4.434-.363-8.795-.726-13.374-1.089.218-7.701 1.308-15.183 1.817-22.666 2.181-.29 9.159.218 13.447.872.436 1.598-.8 16.636-1.89 22.883" style="fill:#e6eefe;fill-rule:nonzero"/><path d="M263.702 152.482c4.288.363 8.213.654 12.356 1.017.146 3.85-.436 7.628-.726 11.405a2786 2786 0 0 0-.873 11.623c-4.361.146-8.576-.726-13.01-.508.727-7.918 1.453-15.619 2.253-23.537" style="fill:#ced7ee;fill-rule:nonzero"/><path d="M190.653 156.26c1.672-1.526 3.344-2.979 5.161-4.577 1.672.436 2.835 1.889 4.652 2.76-2.908 1.817-4.797 4.286-6.469 7.12-.436-1.09-.727-2.034-1.236-2.906-.581-.799-1.381-1.526-2.108-2.397" style="fill:#fff;fill-rule:nonzero"/><path d="M254.762 232.609c6.832-.145 12.429 5.303 12.647 12.059.218 6.829-5.451 13.294-13.301 13.294-6.179 0-12.357-4.358-12.648-12.131-.218-7.846 6.615-13.585 13.302-13.222m.072 4.94c-4.361-.072-8.213 3.56-8.358 7.846-.073 3.995 3.561 7.7 7.559 7.555 4.216-.145 8.068-2.979 8.213-7.7.218-4.286-3.052-7.628-7.414-7.701M199.812 250.843a2888 2888 0 0 1 1.744-16.272c.073-.509.218-1.017.364-1.526.436-1.017 1.381-1.598 2.326-1.525 1.09.072 1.889.799 2.18 1.961.073.363.073.799.073 1.162-.582 5.449-1.163 10.825-1.745 16.273 0 .291-.072.654-.218.944-.363 1.163-1.453 1.962-2.471 1.889-1.09-.073-1.962-.944-2.253-2.179zM184.548 247.429c.291-4.213.581-8.427.945-12.568a9.8 9.8 0 0 1 .436-2.106c.363-1.09 1.381-1.744 2.398-1.671 1.163.072 2.108.872 2.181 2.179.073 1.453 0 2.906-.145 4.359-.218 3.124-.437 6.32-.727 9.444a32 32 0 0 1-.436 3.705c-.218 1.235-1.091 1.888-2.108 2.034s-2.035-.436-2.399-1.381c-.218-.508-.218-1.017-.218-1.525 0-.872 0-1.671.073-2.47 0 0-.073 0 0 0M303.098 241.254c-.437 5.013-.8 9.88-1.309 14.747-.072.581-.363 1.308-.727 1.743-1.09 1.381-3.198 1.235-3.852-.435-.363-.8-.436-1.817-.363-2.688.363-4.359.726-8.79 1.163-13.149.072-.799.145-1.598.363-2.325.363-1.307 1.454-1.961 2.689-1.816 1.163.145 1.89 1.017 2.036 2.325zM316.544 242.489c-.436 4.722-.872 9.299-1.381 13.875a8 8 0 0 1-.436 1.889c-.436.944-1.672 1.598-2.617 1.453-1.017-.145-1.889-1.017-2.035-2.107-.072-.508 0-1.017 0-1.598.436-4.649.872-9.299 1.381-13.948.073-.726.218-1.453.509-2.107.436-1.089 1.454-1.598 2.544-1.452 1.018.145 1.817.944 1.963 2.179.145.654.072 1.308.072 1.816" style="fill:#3558a2;fill-rule:nonzero"/><path d="M254.835 237.549c4.433.073 7.632 3.414 7.486 7.701-.145 4.721-3.998 7.555-8.213 7.7-4.071.145-7.632-3.56-7.56-7.555 0-4.286 3.853-7.918 8.287-7.846" style="fill:#e6eefe;fill-rule:nonzero"/><path d="M228.232 474.445c-1.527.871-2.762 1.598-3.998 2.397-1.817 1.09-2.762.944-4.143-.654s-2.617-3.341-3.852-5.012c-.364-.436-.727-.945-1.236-1.526-.436.436-.872.799-1.236 1.235-3.416 4.141-6.759 8.282-10.175 12.35-.655.799-1.382 1.598-2.181 2.252-1.599 1.38-3.344 1.089-4.143-.872-.436-1.017-1.09-1.162-1.963-1.38-8.649-2.034-17.299-4.068-26.021-6.102-15.046-3.487-30.092-6.902-45.137-10.316-2.544-.581-3.635-2.179-2.763-4.577 1.309-3.559 2.617-7.046 4.071-10.533 2.035-4.94 4.434-9.735 7.196-14.239 3.343-5.448 7.123-10.606 11.92-14.964a18.4 18.4 0 0 1 8.141-4.286c4.797-1.09 9.958 1.888 10.975 6.465.146.726.218 1.525.364 2.615 4.143-3.559 7.922-7.192 13.01-9.371-.218-.654-.363-1.09-.581-1.598-1.308-2.761-2.544-5.521-3.925-8.209-.654-1.308-1.09-2.543-.291-3.996-1.09-.799-2.108-1.453-3.053-2.252-7.05-5.521-10.757-12.712-10.757-21.648 0-11.042 7.85-20.776 18.607-23.101 16.282-3.487 30.964 8.717 32.491 23.464.436 4.214-.073 8.282-1.745 12.205-.509 1.089-.218 2.034.146 3.051 1.744 4.286 3.489 8.572 5.306 12.785l22.459 54.484c.436 1.09.8 2.252 1.091 3.414.436 1.744.145 2.47-1.381 3.487-.8.582-1.672 1.017-2.69 1.671.291.654.509 1.308.873 1.962 2.543 5.012 5.087 10.025 7.559 15.037.218.436.509.945.581 1.453.291 1.09-.145 2.252-1.017 2.761-1.018.653-2.181.508-3.053-.436-.509-.509-.872-1.163-1.163-1.816a1310 1310 0 0 0-7.269-14.311c-.218-.509-.581-1.09-1.017-1.889m-42.085-53.031c-2.907-.363-5.306.508-7.632 1.671-4.652 2.252-8.359 5.739-11.993 9.298-3.271 3.197-5.887 6.902-8.213 10.824-.364.582-.8 1.235-1.309 1.744-.727.726-1.599.872-2.544.363-1.017-.508-1.599-1.525-1.381-2.615.146-.727.436-1.38.727-2.034 1.745-3.415 3.271-6.901 4.507-10.534.363-1.017.654-2.179.654-3.269 0-2.252-2.544-3.923-4.725-3.196 0 .145-.072.218-.072.363 0 .509 0 1.017.072 1.598.509 6.102-1.962 11.188-5.887 15.619a2.33 2.33 0 0 1-2.326.726c-.727-.145-1.381-.435-2.035-.726a375 375 0 0 1-5.67-2.761c-4.724 7.483-8.213 15.474-11.411 23.755.508.146.944.364 1.381.436l26.602 6.102c14.537 3.342 29.002 6.684 43.539 10.171 1.526.363 2.471.072 3.416-1.09 2.689-3.342 5.379-6.683 8.068-9.952.145-.146.145-.364.218-.581-.218-.218-.436-.509-.654-.727-.945-.944-1.89-1.816-2.835-2.76-1.89-1.962-1.817-4.432.073-6.321 2.035-2.034 4.434-3.487 7.341-4.068.8-.145 1.672-.218 2.544-.363-.727-1.671-1.599-2.179-3.125-2.034-2.108.218-3.925 1.09-5.67 2.252-4.143 2.688-7.559 6.102-11.193 9.371-.509.509-1.091 1.017-1.672 1.308a2.604 2.604 0 0 1-3.126-.291c-.799-.799-1.017-1.961-.363-3.123.218-.436.509-.727.8-1.09 1.308-1.526 2.689-3.051 3.997-4.649.873-1.017 1.599-2.034 2.762-3.415-.508-.29-.945-.436-1.308-.799-1.018-.872-2.035-1.671-2.98-2.615-1.963-1.889-2.035-4.359-.218-6.32 2.18-2.325 4.652-4.068 7.777-4.795.218-.072.436-.218.727-.363-1.381-.581-2.108-.654-3.707-.291-3.053.654-5.669 2.107-7.995 4.141-3.489 3.197-6.978 6.466-10.394 9.662-.582.509-1.163 1.09-1.817 1.526-1.018.653-2.326.435-3.126-.436-.799-.799-.945-1.816-.363-2.906.29-.581.727-1.09 1.163-1.598 2.471-2.906 5.015-5.812 7.559-8.79-.509-.582-.945-1.017-1.454-1.526-1.308-1.308-2.616-2.542-3.925-3.85-.799-.799-1.308-1.744-.872-2.833.581-1.671 1.308-3.342 2.835-4.432 1.599-1.235 3.343-2.47 5.233-3.777m33.29 15.619c-.364-.073-.582-.146-.727-.218-9.231-.654-13.956-11.26-8.504-18.743.363-.436.581-1.017.872-1.453-1.308-3.123-2.471-6.102-3.707-9.08-1.236-3.051-2.544-6.03-3.779-9.008-6.397 1.888-24.132 8.499-25.44 9.516.654 1.308 1.235 2.688 1.889 4.068.655 1.381 1.309 2.833 1.963 4.068 1.599 0 2.907-.072 4.216 0 2.689.146 4.942 1.235 6.687 3.342 2.689 3.414 2.907 7.192 1.672 11.26-.146.436-.291.944-.364 1.162 2.399-.435 4.725-.944 7.123-1.162 3.416-.29 7.196 2.252 8.214 6.611.654 2.76.218 5.376-.8 7.918-.145.363-.218.799-.436 1.453.945-.291 1.599-.509 2.326-.654 1.962-.363 3.925-.799 5.815 0 3.489 1.453 5.742 4.795 5.597 8.5-.073 1.089-.291 2.179-.582 3.269-.654 2.542-1.817 4.94-3.343 7.192 1.671 2.179 3.052 4.431 4.942 6.392 2.908-1.671 5.597-3.269 8.504-4.94a2764 2764 0 0 0-12.138-29.493M182.731 361.7c-.291 0-.872 0-1.454.072-9.958.654-17.372 8.427-17.735 18.38-.291 8.862 5.524 17.652 14.537 21.067a4.42 4.42 0 0 0 3.053 0c6.469-2.398 13.01-4.722 19.552-7.047.945-.363 1.526-.872 1.963-1.743 3.343-7.338 2.689-14.384-1.89-20.995-4.216-6.175-10.249-9.298-18.026-9.734m-41.503 72.499c1.671.8 3.052 1.453 4.506 2.18 2.326-3.197 3.852-6.466 3.198-10.679-3.053 2.47-5.451 5.23-7.704 8.499m48.771-8.354c-2.762.509-4.651 2.107-6.614 3.996 1.381 1.307 2.617 2.397 3.852 3.559 2.399-2.76 3.198-4.94 2.762-7.555m14.537 15.837c-2.544.072-4.288 1.235-6.032 2.906 1.09 1.017 2.18 1.888 3.27 2.905 1.309-1.816 2.326-3.487 2.762-5.811m11.921 16.49c-2.617 0-4.216.945-5.815 2.47.945.872 1.744 1.671 2.762 2.615a238 238 0 0 1 3.053-5.085m.509-27.096c-1.163-2.979-2.108-5.594-3.489-8.209-1.091 3.705.145 6.756 3.489 8.209" style="fill:#3558a2;fill-rule:nonzero"/><path d="M186.147 421.414c-1.89 1.38-3.561 2.615-5.306 3.778-1.599 1.089-2.253 2.687-2.835 4.431-.436 1.09.146 2.107.873 2.833 1.308 1.308 2.616 2.615 3.925 3.85.436.436.872.945 1.453 1.526-2.616 2.978-5.088 5.884-7.559 8.79-.436.508-.872 1.017-1.163 1.598-.581 1.09-.436 2.107.363 2.906.8.799 2.036 1.017 3.126.436.654-.436 1.236-.945 1.817-1.526 3.489-3.196 6.905-6.538 10.394-9.662 2.253-2.034 4.943-3.487 7.995-4.14 1.6-.364 2.326-.291 3.707.29-.29.145-.508.291-.726.363-3.199.654-5.67 2.47-7.778 4.795-1.817 1.961-1.744 4.431.218 6.32.945.944 1.963 1.744 2.98 2.615.364.291.8.509 1.309.799-1.091 1.381-1.89 2.47-2.762 3.415-1.309 1.525-2.69 3.051-3.998 4.649-.291.363-.581.726-.8 1.09-.581 1.162-.436 2.252.364 3.123.799.799 2.035.945 3.125.291.655-.363 1.163-.872 1.672-1.308 3.634-3.269 7.123-6.683 11.194-9.371 1.744-1.09 3.561-1.961 5.669-2.252 1.526-.145 2.399.363 3.126 2.034-.873.146-1.745.218-2.544.363-2.835.582-5.234 2.035-7.342 4.069-1.889 1.888-1.962 4.358-.072 6.32.945.944 1.889 1.888 2.834 2.76.218.218.437.509.655.727-.073.218-.146.436-.218.581-2.69 3.341-5.452 6.611-8.069 9.952-.944 1.163-1.817 1.453-3.416 1.09-14.464-3.487-29.001-6.829-43.538-10.17l-26.603-6.103c-.436-.072-.8-.29-1.381-.436 3.198-8.281 6.687-16.272 11.412-23.754 2.035 1.017 3.852 1.888 5.669 2.76.654.291 1.308.581 2.035.727a2.33 2.33 0 0 0 2.326-.727c3.925-4.431 6.324-9.516 5.888-15.619-.073-.508-.073-1.017-.073-1.598 0-.145.073-.218.073-.363 2.18-.726 4.724.944 4.724 3.196 0 1.09-.291 2.252-.654 3.269-1.236 3.633-2.689 7.12-4.507 10.534a6.8 6.8 0 0 0-.726 2.034c-.218 1.09.363 2.034 1.381 2.615.945.509 1.817.363 2.544-.363a7.8 7.8 0 0 0 1.308-1.744c2.399-3.922 5.015-7.627 8.213-10.824 3.635-3.559 7.342-7.046 11.993-9.298 2.399-1.162 4.798-2.034 7.705-1.671" style="fill:#e6eefe;fill-rule:nonzero"/><path d="M219.437 437.032c4.07 9.735 8.141 19.615 12.211 29.567a892 892 0 0 0-8.504 4.94c-1.89-1.962-3.271-4.214-4.943-6.393 1.527-2.252 2.762-4.577 3.344-7.192.29-1.089.509-2.179.581-3.269.146-3.777-2.108-7.119-5.597-8.499-1.889-.799-3.925-.436-5.814 0-.727.145-1.381.363-2.326.654.218-.654.29-1.017.436-1.453.945-2.543 1.454-5.158.799-7.919-1.017-4.358-4.724-6.901-8.213-6.61-2.326.218-4.652.726-7.123 1.162.072-.291.218-.726.363-1.162 1.236-3.996 1.091-7.846-1.672-11.26-1.671-2.107-3.925-3.269-6.687-3.342-1.308-.073-2.616 0-4.215 0-.582-1.235-1.309-2.615-1.963-4.068-.654-1.38-1.308-2.688-1.89-4.068 1.309-1.017 19.044-7.628 25.44-9.517 1.236 2.979 2.471 6.03 3.78 9.008 1.235 2.979 2.471 5.957 3.707 9.081-.291.436-.582.944-.872 1.453-5.452 7.482-.727 18.088 8.504 18.742.072 0 .29.073.654.145" style="fill:#fff;fill-rule:nonzero"/><path d="M182.731 361.7c7.777.363 13.81 3.559 18.026 9.661 4.579 6.611 5.233 13.658 1.89 20.995-.437.872-1.018 1.453-1.963 1.743a2115 2115 0 0 0-19.552 7.047c-1.091.363-2.035.363-3.053 0-9.013-3.414-14.828-12.204-14.537-21.067.363-9.952 7.85-17.725 17.735-18.379.582.072 1.236.072 1.454 0m.145 30.801c.8.945 1.454 1.816 2.181 2.615 1.381 1.381 3.343 1.017 4.07-.726.436-.944.073-1.816-.436-2.615s-1.09-1.598-1.817-2.543c1.236-.726 1.962-1.889 3.343-2.325.291.364.582.654.8.945.654.799 1.236 1.743 1.962 2.47.945 1.017 2.472 1.235 3.417.508 1.017-.799 1.308-2.106.581-3.341-.291-.581-.727-1.09-1.09-1.599-.582-.799-1.163-1.525-1.745-2.324 1.163-.945 2.254-1.744 3.271-2.615.727-.582 1.454-1.163 2.035-1.816.8-.945.8-2.18.146-3.124-.727-.945-1.817-1.235-2.98-.581-.654.29-1.236.799-1.817 1.235a541 541 0 0 0-3.78 2.905c-1.236-1.67-2.399-3.196-3.562-4.722.291-.29.436-.508.655-.726.581-.509 1.09-.944 1.671-1.38.509-.509 1.163-.945 1.599-1.453.8-.945.8-2.18.073-3.124-.654-.872-1.89-1.162-3.053-.654-.509.291-1.017.654-1.453 1.017-.873.654-1.745 1.308-2.762 2.107a59 59 0 0 0-2.254-2.906c-1.09-1.307-2.544-1.525-3.707-.726-1.163.872-1.308 2.179-.363 3.705.436.653.945 1.307 1.381 1.961.291.436.581.872.945 1.38-1.018.872-1.963 1.599-2.98 2.47-.509-.581-.872-1.089-1.236-1.525a10 10 0 0 0-1.236-1.235c-.799-.727-1.744-.509-2.616-.073-.8.436-1.163 1.308-1.018 2.179.073.654.364 1.235.654 1.817.436.726.945 1.38 1.454 2.106-.363.291-.581.509-.872.727a160 160 0 0 0-3.634 3.051c-1.309 1.235-1.454 2.542-.437 3.632.945 1.09 2.326 1.162 3.707.145.873-.653 1.745-1.453 2.617-2.106.509-.436 1.09-.872 1.817-1.381 1.236 1.599 2.253 2.979 3.416 4.504-.581.509-1.09.945-1.526 1.381-.872.726-1.817 1.38-2.617 2.106-1.09 1.017-1.235 2.398-.508 3.415.799 1.089 2.253 1.307 3.561.581.509-.291.945-.727 1.454-1.09a49 49 0 0 1 2.689-2.252" style="fill:#ced7ee;fill-rule:nonzero"/><path d="M141.228 434.199c2.253-3.269 4.651-5.956 7.631-8.499.727 4.213-.872 7.41-3.198 10.679-1.381-.727-2.834-1.38-4.433-2.18M189.999 425.845c.436 2.688-.363 4.795-2.762 7.483-1.235-1.163-2.471-2.252-3.852-3.56 1.963-1.816 3.852-3.414 6.614-3.923M204.537 441.682c-.364 2.325-1.381 3.995-2.763 5.811-1.09-1.017-2.107-1.888-3.27-2.905 1.744-1.671 3.416-2.833 6.033-2.906M216.457 458.172c-1.09 1.889-2.035 3.342-3.053 5.086-1.017-.945-1.817-1.744-2.762-2.616 1.526-1.525 3.126-2.47 5.815-2.47M216.966 431.076c-3.344-1.453-4.58-4.577-3.489-8.209 1.381 2.688 2.326 5.23 3.489 8.209" style="fill:#fff;fill-rule:nonzero"/><path d="M182.876 392.501c-1.017.799-1.89 1.526-2.762 2.18-.436.363-.945.726-1.453 1.089-1.309.799-2.762.509-3.562-.581-.727-1.017-.582-2.325.509-3.414.799-.799 1.744-1.38 2.616-2.107a26 26 0 0 0 1.527-1.38c-1.163-1.526-2.181-2.906-3.416-4.504-.655.508-1.236.944-1.818 1.38-.872.727-1.744 1.453-2.616 2.107-1.381 1.017-2.762.944-3.707-.145-.945-1.163-.872-2.47.436-3.633 1.163-1.089 2.399-2.034 3.634-3.051.218-.218.509-.436.872-.726-.508-.727-1.017-1.381-1.453-2.107-.291-.581-.582-1.162-.654-1.816-.146-.872.218-1.744 1.017-2.179.872-.436 1.745-.654 2.617.072.436.363.872.799 1.236 1.235.363.436.726.872 1.235 1.526 1.018-.872 1.963-1.599 2.98-2.47-.363-.509-.654-.945-.945-1.38-.436-.654-.945-1.235-1.381-1.962-.945-1.525-.799-2.833.364-3.705 1.09-.799 2.544-.581 3.707.727.799.871 1.453 1.816 2.253 2.905 1.018-.799 1.817-1.452 2.762-2.106.436-.363.945-.727 1.454-1.017 1.163-.581 2.326-.291 3.052.654.727.944.727 2.179-.072 3.123-.436.581-1.018 1.017-1.599 1.453-.509.509-1.091.945-1.672 1.38-.218.146-.363.364-.654.727 1.163 1.525 2.253 3.051 3.561 4.722a566 566 0 0 1 3.78-2.906c.581-.436 1.163-.872 1.817-1.235 1.163-.581 2.253-.363 2.98.581.727.872.727 2.18-.145 3.124-.582.654-1.381 1.235-2.035 1.816-1.018.872-2.036 1.671-3.271 2.615a65 65 0 0 0 1.744 2.325c.364.508.8 1.09 1.091 1.598.726 1.308.436 2.615-.582 3.342-.945.726-2.399.581-3.416-.509-.727-.799-1.308-1.671-1.963-2.47-.218-.29-.508-.581-.799-.944-1.381.436-2.108 1.525-3.344 2.325.654.944 1.236 1.743 1.817 2.542.509.799.873 1.671.437 2.615-.727 1.744-2.69 2.107-4.071.727-.654-.654-1.308-1.526-2.108-2.543m.945-7.264c1.163-.872 2.108-1.671 3.198-2.543-1.235-1.598-2.398-3.124-3.634-4.722-1.09.945-2.035 1.744-3.053 2.615a195 195 0 0 1 3.489 4.65" style="fill:#3558a2;fill-rule:nonzero"/><path d="M183.821 385.237a193 193 0 0 0-3.489-4.65c1.018-.871 1.963-1.67 3.053-2.615 1.236 1.671 2.399 3.124 3.634 4.722-1.09.872-2.035 1.598-3.198 2.543" style="fill:#ced7ee;fill-rule:nonzero"/><path d="M122.184 314.044c3.416 1.526 6.687 2.979 10.031 4.432.799.363 1.526.726 2.325 1.089.945.509 1.454 1.381 1.309 2.47-.218 1.381-.436 2.761-1.018 3.996-5.669 12.059-11.411 24.045-17.081 36.032-10.03 21.067-20.061 42.061-30.019 63.128-.363.799-.581 1.744-.727 2.616-.29 1.598-1.09 2.397-2.689 2.252-.654-.073-1.308-.291-1.89-.509-16.79-7.7-33.653-15.401-50.443-23.174a306 306 0 0 1-8.577-3.995c-1.236-.581-2.399-1.308-3.562-2.107-1.381-.944-1.672-1.743-1.09-3.414 1.235-3.705 2.471-7.337 3.707-11.042 10.539-30.439 21.079-60.95 31.618-91.388.581-1.743 1.236-3.487 1.817-5.23.509-1.526 1.454-2.47 3.198-2.252h.218c2.69-1.163 5.306-.073 7.923.29 5.597.799 11.194 1.744 16.79 2.616 6.106 1.017 12.211 2.034 18.317 2.978 5.306.872 10.685 1.671 15.991 2.543.799.145 1.526.218 2.326.435 1.744.364 2.544 1.163 2.689 2.906.073.654.073 1.308.073 1.962-.509 4.504-.873 8.79-1.236 13.366m-62.073-21.938c-12.139 35.16-24.204 70.102-36.27 105.044.436.218.654.364.872.509l57.131 26.152c.145.073.29.073.363.073h.218c.073 0 .146-.073.364-.146 15.845-33.344 31.763-66.76 47.754-100.395a64858 64858 0 0 0-70.432-31.237m58.075 8.572c-13.519-2.18-26.675-4.286-39.831-6.393 0 .145-.073.218-.073.363 12.938 5.739 25.803 11.405 38.959 17.217.291-3.778.655-7.41.945-11.187" style="fill:#3558a2;fill-rule:nonzero"/><path d="M60.111 292.105c23.55 10.461 46.882 20.777 70.359 31.165a107837 107837 0 0 0-47.754 100.396c-.218.072-.291.145-.364.145-.072 0-.145.073-.218 0-.145 0-.29 0-.363-.073L24.64 397.586c-.218-.073-.436-.291-.872-.509 12.139-34.869 24.204-69.811 36.343-104.972m8.431 12.35c-1.526 0-2.616.654-3.198 2.034-.291.581-.509 1.235-.727 1.816-3.271 8.645-6.541 17.217-9.812 25.862a724 724 0 0 0-4.289 11.405c-.945 2.543-.436 3.85 2.035 5.085.727.364 1.454.654 2.181.945 4.288 1.671 8.577 3.414 12.865 5.085 3.344 1.307 6.615 2.615 9.958 3.923 2.399.944 4.216.218 5.452-1.962.218-.363.363-.726.508-1.089l11.121-25.281c1.599-3.632 3.198-7.192 4.725-10.824.872-2.107.436-3.269-1.599-4.141l-27.257-12.204c-.582-.363-1.309-.509-1.963-.654m17.009 82.888c-.073-.799-.437-1.525-1.236-1.961-.654-.364-1.308-.654-1.963-.945L48.99 370.489c-1.308-.508-2.544-1.089-3.852-1.525-1.381-.436-2.617.073-3.126 1.308-.509 1.162-.073 2.469 1.163 3.196.582.363 1.163.581 1.817.799 11.921 4.94 23.841 9.952 35.761 14.892a11 11 0 0 0 2.036.654c1.453.291 2.762-.944 2.762-2.47m1.163-6.029c1.235 0 2.325-.727 2.616-1.599.364-.944.073-1.888-.654-2.47-.581-.508-1.308-.871-2.035-1.162-12.211-5.23-24.495-10.388-36.779-15.546-.581-.218-1.236-.436-1.89-.436-1.163-.072-2.035.509-2.326 1.38-.363 1.017-.072 2.18.873 2.834.581.435 1.235.726 1.889 1.017 4.507 1.888 8.941 3.85 13.447 5.739a7407 7407 0 0 0 22.751 9.589c.799.218 1.599.436 2.108.654m-49.208 9.225c-1.454-.072-2.399.582-2.762 1.599-.364.944-.146 1.961.726 2.688.509.435 1.091.726 1.672 1.017 3.998 1.888 7.996 3.777 11.921 5.666 2.18 1.017 4.433 2.034 6.614 3.051.509.218.945.436 1.526.508 1.236.218 2.472-.508 2.908-1.598.436-1.089 0-2.324-1.163-3.051l-.872-.436c-3.053-1.453-6.033-2.906-9.086-4.358-3.271-1.526-6.542-3.051-9.885-4.504-.654-.291-1.309-.436-1.599-.582m25.512 3.923c0-.871-.436-1.598-1.163-2.106-.581-.436-1.235-.727-1.89-1.017-5.96-2.47-11.92-4.94-17.88-7.338-.509-.218-1.09-.435-1.672-.508-1.236-.218-2.253.436-2.689 1.525-.436.945-.146 2.107.799 2.834.436.363 1.018.581 1.599.799l18.971 7.845c.582.218 1.236.436 1.89.436 1.09-.145 2.035-1.162 2.035-2.47m20.425 13.803c1.526 0 2.398-.581 2.762-1.671.363-.944.072-1.961-.8-2.615-.436-.363-1.017-.654-1.526-.872-3.925-1.671-7.85-3.342-11.848-5.012-.581-.218-1.236-.436-1.89-.436-1.235-.073-2.035.508-2.398 1.598-.291.944-.073 1.961.799 2.615.436.363 1.018.654 1.527.872 3.925 1.671 7.85 3.341 11.847 5.012.509.291 1.163.436 1.527.509m35.47-74.389c0-1.017-.436-1.816-1.308-2.252-3.78-1.816-7.632-3.559-11.412-5.375-.073 0-.145-.073-.218-.073-1.163-.291-2.399.218-2.907 1.162-.509.945-.291 2.325.581 3.051.436.364.945.654 1.527.945 3.052 1.453 6.178 2.906 9.303 4.358.654.291 1.381.509 2.035.509 1.454.073 2.399-.944 2.399-2.325m-5.233 10.607c.072-1.09-.654-1.889-1.599-2.398-3.417-1.743-6.76-3.414-10.176-5.158-.218-.145-.509-.218-.727-.29-1.236-.291-2.399.218-2.907 1.162-.582 1.017-.219 2.325.799 3.124.436.363 1.018.654 1.526.872a454 454 0 0 0 8.432 4.213c.509.291 1.09.581 1.599.654 1.672.581 3.053-.509 3.053-2.179m-8.432 13.076c1.163-.073 1.963-.509 2.472-1.381.508-.944.363-1.816-.291-2.542-.436-.509-1.09-.945-1.672-1.308l-8.504-4.576c-.509-.291-1.09-.582-1.599-.727-1.09-.29-2.181.145-2.762 1.09-.582 1.017-.436 2.179.436 3.051.291.29.727.581 1.09.799l9.377 5.012c.508.291 1.09.436 1.453.582" style="fill:#fff;fill-rule:nonzero"/><path d="M118.186 300.678c-.363 3.777-.654 7.337-1.017 11.187-13.156-5.812-26.022-11.551-38.959-17.217 0-.145.072-.218.072-.363a20774 20774 0 0 1 39.904 6.393" style="fill:#ced7ee;fill-rule:nonzero"/><path d="M68.542 304.455c.654.218 1.381.364 2.035.654l27.257 12.204c1.963.872 2.472 2.107 1.6 4.141-1.527 3.633-3.199 7.265-4.725 10.824l-11.121 25.281c-.145.363-.291.726-.509 1.09-1.235 2.252-3.125 2.905-5.451 1.961-3.344-1.308-6.614-2.615-9.958-3.923-4.288-1.671-8.577-3.414-12.865-5.085-.727-.291-1.454-.581-2.181-.944-2.471-1.235-3.053-2.543-2.035-5.086 1.454-3.85 2.907-7.627 4.288-11.405 3.271-8.645 6.542-17.217 9.813-25.861.218-.582.509-1.235.727-1.817.509-1.453 1.599-2.034 3.125-2.034m1.527 23.537v-1.671c.072-2.542 1.017-4.576 2.834-6.32 4.071-3.777 10.322-2.324 12.284 2.906 1.236 3.342.509 6.32-1.672 9.081-.363.436-.726.872-1.017 1.162a350 350 0 0 1 3.78 5.376 3139 3139 0 0 1 7.704-17.435c-8.286-3.705-16.354-7.337-24.64-11.042-2.544 6.683-5.016 13.294-7.559 19.905 2.834-.654 5.378-1.308 8.286-1.962m-14.465 18.452c.873.363 1.672.581 2.326 1.017 1.018.581 1.817.363 2.69-.29 2.107-1.453 4.361-2.688 6.541-4.069 3.562-2.179 7.123-4.358 10.903-6.683-.436-.436-.727-.799-1.09-.944-1.89-1.09-3.925-1.889-6.106-1.962-3.852-.145-7.268 1.09-10.248 3.487-.727.581-1.672 1.09-1.963 1.816-1.163 2.398-2.035 4.94-3.053 7.628m9.595 3.85c4.724 1.816 9.085 3.56 13.301 5.231.218-.146.291-.218.291-.218.872-1.962 1.817-3.923 2.689-5.884 1.309-2.834 1.309-2.906.8-5.885-.218-1.017-.582-1.961-1.018-3.123-5.378 3.269-10.539 6.465-16.063 9.879m9.958-24.118c0 2.034.654 3.051 1.962 3.487 1.018.291 2.326-.436 2.98-1.671.218-.436.436-.944.509-1.453.291-1.307-.509-2.905-1.599-3.341-1.163-.436-2.617.072-3.344 1.38-.29.654-.436 1.38-.508 1.598M85.551 387.343c0 1.598-1.309 2.761-2.762 2.543-.727-.073-1.381-.364-2.035-.654-11.921-4.94-23.841-9.953-35.762-14.892a20 20 0 0 1-1.817-.799c-1.235-.727-1.744-2.035-1.163-3.197.582-1.162 1.817-1.743 3.126-1.307 1.308.435 2.616 1.017 3.852 1.525 11.121 4.649 22.242 9.299 33.363 13.875.654.291 1.308.581 1.962.945.8.436 1.163 1.162 1.236 1.961M86.714 381.314c-.509-.218-1.381-.436-2.108-.799-7.56-3.197-15.192-6.393-22.751-9.59-4.506-1.888-8.94-3.777-13.447-5.739-.654-.29-1.308-.581-1.889-1.017-.945-.653-1.236-1.816-.873-2.833.364-.944 1.236-1.525 2.326-1.38a8 8 0 0 1 1.89.436 7904 7904 0 0 1 36.779 15.546c.727.29 1.454.654 2.035 1.162.8.654 1.018 1.526.654 2.47-.291 1.017-1.381 1.671-2.616 1.744M37.506 390.54c.363.145 1.017.29 1.599.508a600 600 0 0 1 9.885 4.504c3.053 1.453 6.033 2.906 9.086 4.359.29.145.581.218.872.436 1.163.726 1.599 1.888 1.163 3.051-.436 1.089-1.599 1.816-2.908 1.598-.508-.073-1.017-.291-1.526-.509-2.181-1.017-4.434-2.034-6.614-3.051a1801 1801 0 0 1-11.921-5.666c-.581-.291-1.163-.581-1.671-1.017-.873-.726-1.091-1.671-.727-2.688.363-.944 1.235-1.525 2.762-1.525M63.018 394.462c0 1.308-.872 2.398-2.18 2.398a4.25 4.25 0 0 1-1.89-.436l-18.971-7.846c-.509-.218-1.09-.436-1.599-.799-.945-.727-1.236-1.816-.8-2.833.437-1.09 1.527-1.671 2.69-1.526.581.073 1.163.291 1.672.509 5.96 2.47 11.92 4.867 17.88 7.337.654.29 1.308.654 1.89 1.017.799.581 1.308 1.235 1.308 2.179M83.443 408.265a7.7 7.7 0 0 1-1.599-.508c-3.925-1.671-7.923-3.342-11.848-5.013-.509-.218-1.09-.508-1.526-.872-.873-.653-1.091-1.743-.8-2.615.363-1.09 1.236-1.671 2.399-1.598a8 8 0 0 1 1.889.436c3.925 1.671 7.923 3.341 11.848 5.012.509.218 1.09.509 1.527.872.872.726 1.163 1.671.799 2.615-.291 1.09-1.236 1.671-2.689 1.671M118.913 333.877c0 1.38-.945 2.397-2.326 2.397-.727 0-1.453-.218-2.035-.509-3.125-1.453-6.178-2.905-9.304-4.358a6.7 6.7 0 0 1-1.526-.945c-.872-.726-1.09-2.106-.582-3.051.509-.944 1.745-1.453 2.908-1.162.073 0 .145 0 .218.072 3.78 1.817 7.632 3.56 11.411 5.376.8.363 1.236 1.163 1.236 2.18M113.68 344.483c0 1.671-1.454 2.76-3.053 2.397-.581-.145-1.09-.436-1.599-.654-2.835-1.38-5.597-2.833-8.431-4.213-.509-.291-1.091-.509-1.527-.872-1.017-.799-1.308-2.107-.799-3.124.508-.944 1.599-1.453 2.907-1.162.218.073.509.145.727.291a444 444 0 0 1 10.176 5.157c1.017.291 1.672 1.09 1.599 2.18M105.248 357.559c-.363-.146-.945-.291-1.453-.581l-9.377-5.013a4.2 4.2 0 0 1-1.09-.799c-.872-.872-1.018-2.034-.436-3.051.581-.944 1.599-1.38 2.762-1.09.581.146 1.09.436 1.599.727 2.835 1.525 5.669 2.978 8.504 4.576.654.364 1.236.799 1.672 1.308.654.726.799 1.671.291 2.543-.509.871-1.309 1.307-2.472 1.38" style="fill:#3558a2;fill-rule:nonzero"/><path d="M70.069 327.992c-2.908.654-5.524 1.308-8.286 1.889 2.471-6.611 5.015-13.149 7.559-19.905 8.286 3.705 16.354 7.337 24.64 11.042a1253 1253 0 0 1-7.705 17.435 343 343 0 0 1-3.779-5.376c.291-.29.654-.726 1.017-1.162 2.181-2.76 2.835-5.739 1.672-9.081-1.962-5.23-8.141-6.683-12.284-2.905-1.817 1.67-2.834 3.777-2.834 6.32z" style="fill:#e6eefe;fill-rule:nonzero"/><path d="M55.604 346.444c1.018-2.615 1.89-5.158 2.98-7.628.364-.726 1.309-1.235 1.963-1.816q4.47-3.595 10.249-3.487c2.253.073 4.215.872 6.105 1.962.364.218.654.581 1.09.944-3.707 2.252-7.268 4.504-10.902 6.683-2.181 1.308-4.434 2.616-6.542 4.068-.945.654-1.745.8-2.689.291-.655-.436-1.381-.654-2.254-1.017M65.199 350.294c5.524-3.341 10.685-6.538 16.136-9.879.363 1.162.799 2.106 1.018 3.123.581 2.979.508 2.979-.8 5.885-.872 1.961-1.817 3.922-2.689 5.884 0 .072-.073.072-.291.218-4.289-1.671-8.65-3.415-13.374-5.231M75.157 326.176c.072-.29.218-.944.581-1.598.727-1.308 2.181-1.816 3.344-1.38 1.017.363 1.817 2.034 1.599 3.341-.073.509-.291 1.017-.509 1.453-.654 1.235-2.035 1.962-2.98 1.671-1.381-.363-2.035-1.38-2.035-3.487" style="fill:#fff;fill-rule:nonzero"/><path d="m65.707 119.283 1.309-1.961c3.925-6.103 8.94-11.042 15.264-14.675 6.323-3.559 13.156-5.157 20.352-4.213 9.812 1.308 17.081 6.611 22.023 15.11 4.216 7.337 5.452 15.328 4.725 23.682-.073 1.163-.218 2.325-.364 3.56q1.309.327 2.399.654c7.705 1.961 14.61 5.376 20.134 11.187 4.797 4.94 7.777 10.752 8.795 17.58 1.017 6.538-.146 12.858-2.98 18.888-3.344 7.192-8.359 12.931-14.683 17.58a38 38 0 0 1-2.253 1.598c.218.799.363 1.598.581 2.397 2.108 9.372 1.163 18.38-3.343 26.879-3.489 6.611-8.504 11.769-15.555 14.602-9.812 3.995-18.971 2.47-27.475-3.705-.436-.291-.799-.654-1.236-.944-.072-.073-.218-.073-.508-.073-1.163 1.453-2.254 2.978-3.489 4.359-5.233 5.956-11.848 9.371-19.698 10.315-10.394 1.308-19.625-1.816-27.838-7.918-11.048-8.136-17.59-19.251-20.207-32.69-.945-4.795-1.018-8.936-.509-14.747-.654-.291-1.381-.582-2.035-.945-8.068-3.777-14.173-9.371-17.372-17.798-5.015-12.931.727-26.878 14.101-32.763 1.672-.726 3.489-1.235 5.234-1.816.581-.218 1.09-.363 1.599-.508a624 624 0 0 0-.654-5.594c-.582-6.901 1.235-13.076 5.524-18.452 3.925-4.94 9.085-7.991 15.046-9.662 7.195-2.034 14.464-1.816 21.732-.29.437.218.873.29 1.381.363m-11.484 3.487c-5.088-.073-8.068.436-11.702 1.743-6.178 2.107-11.121 5.812-13.81 11.914-2.472 5.594-2.472 11.406-.509 17.217.872 2.615 1.163 3.56-2.399 3.996-3.707.508-7.196 1.598-10.394 3.559-9.304 5.521-13.301 16.345-8.286 26.879 2.035 4.286 5.015 7.7 8.868 10.461 2.544 1.816 5.306 3.196 8.213 4.286 1.89.726 2.253 1.307 2.108 3.269-.073.872-.073 1.743-.218 2.542-.363 2.979-.291 5.957.073 8.863 1.962 14.892 8.94 26.733 21.733 34.87 6.468 4.14 13.519 6.102 21.296 5.158 7.996-1.018 14.247-4.94 18.899-11.406.872-1.235 1.526-2.615 2.325-3.923.945-1.525 2.472-1.816 3.853-.726.363.291.654.654 1.017.944 1.454 1.235 2.835 2.543 4.434 3.56 6.178 3.995 12.793 4.795 19.698 2.325 5.524-1.962 9.667-5.667 12.72-10.534 5.451-8.717 6.541-18.089 3.779-27.896-.654-2.252-.218-3.705 1.745-5.375.727-.582 1.526-1.09 2.253-1.599 6.178-4.649 11.194-10.242 13.956-17.58 3.489-9.371 2.762-18.306-3.271-26.442-3.853-5.231-9.013-8.718-14.973-10.97-2.908-1.089-5.961-1.743-8.941-2.47-2.326-.581-3.052-1.598-2.689-3.923.727-4.213 1.163-8.426.581-12.785-.654-5.013-2.107-9.662-4.797-13.875-5.815-9.154-15.845-13.876-27.329-10.97-7.051 1.816-12.866 5.739-17.518 11.26-1.962 2.325-3.634 5.013-5.306 7.628-1.162 1.743-1.889 2.179-3.925 1.671-.218-.073-.363-.145-.581-.145-3.852-.945-7.559-1.671-10.903-1.526" style="fill:#3558a2;fill-rule:nonzero"/><path d="M54.223 122.77c3.344-.145 7.051.581 10.685 1.453.218.072.363.145.581.145 2.036.436 2.762.073 3.925-1.671 1.672-2.615 3.344-5.23 5.306-7.627 4.652-5.521 10.467-9.444 17.518-11.26 11.484-2.906 21.587 1.888 27.329 10.969 2.69 4.213 4.143 8.935 4.797 13.875.582 4.286.146 8.572-.581 12.786-.363 2.324.291 3.341 2.689 3.923 2.98.726 6.033 1.38 8.941 2.469 5.96 2.252 11.12 5.739 14.973 10.97 6.033 8.209 6.759 17.071 3.271 26.443-2.762 7.337-7.778 12.93-13.956 17.58-.727.581-1.526 1.017-2.253 1.598-1.963 1.671-2.399 3.124-1.745 5.376 2.762 9.807 1.745 19.178-3.779 27.895-3.053 4.868-7.269 8.572-12.72 10.534-6.905 2.47-13.52 1.598-19.698-2.325-1.599-1.017-2.98-2.397-4.434-3.559-.363-.291-.654-.654-1.017-.945-1.381-1.089-2.98-.726-3.853.727-.799 1.307-1.453 2.688-2.326 3.923-4.651 6.465-10.902 10.388-18.898 11.405-7.777 1.017-14.827-1.017-21.296-5.158-12.72-8.136-19.771-19.977-21.733-34.87-.364-2.978-.436-5.884-.073-8.862.073-.872.145-1.744.218-2.543.073-1.961-.291-2.542-2.108-3.269-2.907-1.09-5.669-2.47-8.213-4.286-3.853-2.76-6.833-6.175-8.868-10.461-5.015-10.533-.945-21.358 8.286-26.879 3.198-1.888 6.687-3.051 10.394-3.559 3.634-.509 3.271-1.38 2.399-3.996-1.89-5.811-1.89-11.55.509-17.216 2.689-6.103 7.632-9.808 13.81-11.914 3.852-1.163 6.832-1.671 11.92-1.671m57.64 88.118c1.308-.218 3.416-.436 5.378-.944 12.211-3.124 19.989-15.328 18.244-26.298-.654-4.213-2.326-7.991-5.233-11.114-5.306-5.594-11.848-7.919-19.48-6.902-8.431 1.163-14.827 5.449-18.898 12.859-4.143 7.7-4.216 15.618.8 23.028 4.361 6.466 10.757 9.153 19.189 9.371m-62.292 23.537c.945 1.235 1.817 2.616 2.908 3.705 5.815 5.957 12.938 8.209 21.078 6.684 11.848-2.252 19.553-13.222 18.026-24.191-.872-6.32-3.997-11.26-9.231-14.747-5.815-3.923-12.211-4.795-18.898-2.979-1.599.436-2.834.364-3.925-.871-.072-.073-.218-.146-.291-.218-1.889-1.308-3.852-1.308-5.814-.291-1.963 1.09-2.835 3.124-2.472 5.376.146.799.364 1.525.509 2.252-.145.218-.218.363-.363.508-4.071 4.722-6.687 10.243-8.068 16.345-.364 1.671-.364 3.56-.291 5.304.145 1.961 1.744 3.269 3.78 3.341 1.09 0 2.035-.145 3.052-.218m13.011-85.866c-6.905-.073-13.81 3.414-17.881 9.008-8.576 11.696-5.306 28.549 7.051 36.177 9.522 5.812 21.297 4.213 28.638-4.141 5.815-6.683 7.341-14.456 5.088-22.956-2.98-10.896-12.647-18.088-22.896-18.088m35.616-34.724c-5.597-.582-10.758.726-15.337 4.14-4.652 3.487-7.414 8.137-8.359 13.876-1.599 10.025 4.143 19.686 13.156 22.955 9.45 3.487 19.916-.145 25.368-8.79 2.689-4.286 3.634-9.008 3.052-14.02-.727-6.32-3.852-11.26-9.013-14.892.8-3.705.073-5.739-2.326-6.611-2.326-.799-4.869.436-6.541 3.342m-74.357 72.281c2.544-.145 4.652-.218 6.759-.436 1.091-.145 2.181-.363 3.199-.799 1.235-.508 1.744-1.816 1.381-2.905-.364-1.09-1.527-1.817-2.835-1.526-2.835.654-5.742.654-8.65.726-.508 0-1.09.001-1.526.146-1.236.29-1.89 1.089-1.89 2.179-.073 1.09.582 1.962 1.745 2.325.654.218 1.453.29 1.817.29m15.046 5.594c0-1.816-1.091-2.906-2.544-2.615-.582.072-1.236.436-1.745.799-1.744 1.162-3.489 2.325-5.233 3.559-.291.218-.654.436-.945.654-1.09.945-1.308 2.107-.654 3.197.654 1.017 1.89 1.453 3.125.871 2.617-1.38 5.161-2.905 7.269-5.012.436-.509.581-1.162.727-1.453m89.766-28.332c.145 1.09.436 1.817 1.308 2.252 1.018.509 2.035.291 2.69-.508 1.308-1.671 2.544-3.487 3.706-5.376.582-.944.146-2.179-.654-2.833-.799-.654-2.035-.581-2.907.145-.364.291-.654.654-.945 1.017-.872 1.235-1.744 2.47-2.544 3.778-.291.581-.509 1.162-.654 1.525m9.231 9.299c.291-.073.727-.145 1.09-.291 1.672-.799 3.344-1.525 4.943-2.397 1.308-.726 1.672-1.889 1.163-2.978-.509-1.163-1.599-1.816-2.98-1.308-1.963.799-3.853 1.889-5.815 2.906-.218.145-.364.363-.509.581-.509.799-.436 1.598 0 2.397.509.727 1.163 1.017 2.108 1.09m-29.438 62.983c1.309 0 2.399-1.162 2.399-2.397-.073-1.308-1.163-2.325-2.399-2.325-1.308 0-2.471.945-2.471 2.252-.073 1.308 1.163 2.47 2.471 2.47m-67.67-95.455c0 1.307.945 2.397 2.254 2.47 1.308.072 2.544-1.163 2.471-2.47 0-1.308-1.09-2.325-2.399-2.325-1.381 0-2.326.944-2.326 2.325m65.781 84.413c0-1.38-.945-2.397-2.326-2.397s-2.399.944-2.472 2.325c0 1.307 1.018 2.397 2.326 2.397s2.472-1.017 2.472-2.325m-58.221-80.127c-.073 1.307.872 2.397 2.108 2.47 1.308.072 2.543-1.163 2.616-2.47 0-1.235-1.017-2.325-2.18-2.325-1.381-.073-2.472 1.017-2.544 2.325m69.487 86.665c0-1.089-.945-2.252-2.035-2.324-1.236-.073-2.399.871-2.472 2.034-.072 1.235.945 2.324 2.108 2.397 1.236.073 2.399-.944 2.399-2.107M50.371 130.834c0-1.235-.872-2.107-2.108-2.107s-2.181.944-2.181 2.034c0 1.235 1.091 2.325 2.254 2.252 1.09 0 2.035-1.017 2.035-2.179" style="fill:#fff;fill-rule:nonzero"/><path d="M111.863 210.888c-8.432-.29-14.828-2.978-19.117-9.371-5.015-7.41-4.942-15.328-.799-23.028 3.998-7.41 10.466-11.696 18.898-12.858 7.632-1.017 14.246 1.307 19.48 6.901 2.907 3.124 4.579 6.829 5.233 11.115 1.744 10.969-6.033 23.173-18.244 26.297-2.108.581-4.216.726-5.451.944m.726-4.867c5.306-.145 10.903-3.269 15.046-9.008.8-1.089.8-2.034.073-3.196-3.707-5.884-5.015-12.422-4.216-19.324.146-1.089-.291-1.743-1.235-2.179-2.108-1.09-4.362-1.816-6.76-1.961-6.687-.436-12.284 1.816-16.79 6.828-3.78 4.286-5.597 9.299-4.725 14.965 1.454 8.282 8.286 13.875 18.607 13.875M49.571 234.425c-1.017.073-1.962.218-2.98.218-2.035 0-3.634-1.307-3.779-3.341-.146-1.744-.146-3.56.29-5.303 1.381-6.03 3.925-11.551 8.068-16.346.146-.145.218-.363.364-.508-.146-.727-.364-1.453-.509-2.252-.363-2.252.581-4.286 2.471-5.376 1.963-1.017 3.925-1.017 5.815.291.073.072.218.145.291.218 1.09 1.235 2.326 1.307 3.925.871 6.687-1.888 13.083-.944 18.898 2.979 5.233 3.487 8.359 8.427 9.231 14.747 1.526 10.969-6.178 21.939-18.026 24.191-8.141 1.525-15.264-.727-21.079-6.684-1.09-1.162-1.962-2.47-2.98-3.705m17.663 6.03c6.323 0 10.176-1.453 13.519-4.286 10.104-8.572 7.196-23.101-3.925-27.968-6.759-2.979-15.046-1.308-20.279 4.068-5.161 5.375-6.324 13.076-2.689 19.541 3.416 5.812 8.649 8.5 13.374 8.645M62.582 148.559c10.249 0 19.916 7.192 22.823 18.089 2.326 8.426.8 16.272-5.088 22.955-7.341 8.355-19.116 9.953-28.638 4.141-12.356-7.555-15.7-24.481-7.05-36.177 4.215-5.666 11.121-9.153 17.953-9.008m1.381 43.732c5.742-.218 10.612-2.542 14.028-7.555 2.835-4.068 3.853-8.572 3.271-13.512-.799-6.828-4.143-11.986-9.958-15.546-1.163-.726-2.253-.871-3.489-.145-2.035 1.235-4.288 2.107-6.614 2.397-3.343.509-6.614 1.017-9.958 1.308-1.381.073-2.18.508-2.907 1.525-4.725 6.756-4.797 15.982.072 23.029 3.707 5.376 8.795 8.281 15.555 8.499M98.198 113.835c1.672-2.979 4.215-4.214 6.541-3.342 2.399.944 3.126 2.906 2.326 6.611 5.088 3.632 8.214 8.572 9.013 14.892.582 5.013-.363 9.734-3.052 14.02-5.452 8.645-15.918 12.278-25.368 8.791-9.013-3.342-14.755-12.931-13.156-22.956.945-5.739 3.707-10.389 8.359-13.875 4.507-3.342 9.74-4.722 15.337-4.141m11.411 13.512c-2.544.436-4.506-.363-6.178-1.816-1.09-.945-1.962-2.18-2.835-3.269-.581-.727-1.163-.945-2.035-.8-1.526.218-2.98.436-4.506.509s-3.053 0-4.361-.872c-1.163-.726-2.036-.508-3.053.218-5.742 4.141-8.286 9.807-7.269 16.854 1.163 8.136 8.868 14.384 17.808 13.149 6.905-.945 12.284-6.103 13.81-12.931.8-3.85.436-7.483-1.381-11.042M23.841 186.116c-.291-.072-1.09-.072-1.89-.29-1.236-.363-1.817-1.235-1.745-2.325.073-1.09.727-1.889 1.89-2.179.509-.145 1.018-.145 1.527-.145 2.907-.073 5.742-.073 8.649-.727 1.309-.291 2.544.436 2.835 1.526.363 1.162-.145 2.397-1.381 2.905-1.018.436-2.108.727-3.198.799-2.035.218-4.143.291-6.687.436M38.887 191.71c-.146.291-.364.944-.8 1.38-2.108 2.107-4.652 3.633-7.268 5.013-1.236.654-2.472.218-3.126-.872-.654-1.017-.363-2.252.654-3.196.291-.291.654-.436.945-.654 1.745-1.162 3.489-2.397 5.234-3.56.508-.363 1.162-.726 1.744-.799 1.526-.145 2.689.872 2.617 2.688M128.653 163.379c.145-.436.291-1.017.654-1.453.8-1.308 1.672-2.543 2.544-3.778.291-.363.581-.726.945-1.017.872-.726 2.108-.726 2.907-.145.8.654 1.236 1.889.654 2.833a51 51 0 0 1-3.706 5.376c-.655.799-1.672 1.017-2.69.508-.872-.436-1.163-1.235-1.308-2.324M137.884 172.677c-.945-.072-1.599-.363-2.035-1.09q-.763-1.199 0-2.397c.145-.218.29-.508.508-.581 1.89-1.017 3.78-2.107 5.815-2.906 1.309-.508 2.472.146 2.98 1.308.509 1.09.146 2.252-1.163 2.978a62 62 0 0 1-4.942 2.398c-.436.145-.872.145-1.163.29M108.446 235.66c-1.381 0-2.616-1.162-2.544-2.47.073-1.307 1.163-2.252 2.472-2.252s2.398 1.09 2.398 2.325c.073 1.235-1.017 2.397-2.326 2.397M40.776 140.205c0-1.38.945-2.325 2.326-2.325 1.309 0 2.399 1.017 2.399 2.325 0 1.307-1.163 2.542-2.471 2.47-1.309-.146-2.326-1.163-2.254-2.47M106.557 224.618c0 1.308-1.163 2.325-2.472 2.325s-2.326-1.09-2.326-2.397c0-1.308 1.091-2.325 2.472-2.325s2.398 1.017 2.326 2.397M48.336 144.491c.072-1.235 1.163-2.325 2.471-2.325 1.163 0 2.253 1.163 2.18 2.325 0 1.308-1.308 2.542-2.616 2.47-1.163-.145-2.035-1.235-2.035-2.47M117.823 231.157c0 1.162-1.163 2.252-2.399 2.179-1.163-.073-2.181-1.235-2.108-2.397.073-1.163 1.236-2.18 2.471-2.034 1.091 0 2.108 1.089 2.036 2.252M50.371 130.834c0 1.162-.872 2.179-2.108 2.252-1.163.072-2.253-1.09-2.253-2.252 0-1.163 1.017-2.034 2.18-2.034 1.309-.073 2.108.799 2.181 2.034" style="fill:#3558a2;fill-rule:nonzero"/><path d="M112.589 206.021c-10.321 0-17.153-5.594-18.534-13.948-.945-5.666.872-10.679 4.724-14.965 4.434-5.012 10.103-7.264 16.79-6.828 2.399.145 4.652.872 6.76 1.961.945.509 1.308 1.09 1.236 2.18-.8 6.901.509 13.366 4.216 19.323.726 1.162.726 2.107-.073 3.197-4.216 5.811-9.813 8.935-15.119 9.08m-15.046-14.819c0 .508-.072 1.089 0 1.598.073.508.219 1.017.364 1.525 1.163 4.286 6.033 6.393 9.958 4.286 2.398-1.307 4.07-3.341 5.378-5.666.873-1.526.437-3.051-1.162-4.068-1.018-.654-2.181-1.235-3.199-1.889-1.671-1.017-2.907-2.397-3.852-4.141-1.163-2.106-2.98-2.324-4.579-.508-.291.363-.654.726-.8 1.09-1.235 2.469-2.18 5.012-2.108 7.773m16.573-6.829c1.453.073 2.544-1.017 2.544-2.397 0-1.235-1.163-2.325-2.472-2.325-1.235 0-2.398 1.162-2.471 2.325 0 1.235 1.09 2.324 2.399 2.397m-4.071-7.119c0-1.09-1.017-2.034-1.962-2.034-1.309.072-2.471 1.017-2.471 2.106 0 1.09 1.017 2.107 2.18 2.107 1.163.073 2.253-1.017 2.253-2.179M67.234 240.455c-4.725-.145-10.031-2.833-13.302-8.645-3.707-6.465-2.544-14.166 2.69-19.541 5.233-5.376 13.519-7.047 20.279-4.068 11.121 4.939 14.028 19.468 3.925 27.968-3.344 2.833-7.269 4.286-13.592 4.286m5.96-23.537c.218 2.034-.218 3.705-1.09 5.303-.582 1.017-1.309 1.453-2.617 1.308-1.454-.218-2.835-.654-3.998-1.599-.436-.363-.945-.726-1.526-.944-1.018-.508-2.035-.291-2.689.436-.727.799-.873 1.889-.218 2.906a6.2 6.2 0 0 0 1.381 1.38c1.962 1.598 4.215 2.252 6.687 2.615 2.834.363 4.942-.581 6.541-2.76 1.599-2.18 2.399-4.722 2.326-7.41 0-1.017-.072-2.107-.363-3.124-.291-1.162-1.236-1.671-2.399-1.598-1.09.145-1.817.799-2.035 1.889zm-13.447-.654c0 1.308 1.09 2.397 2.399 2.325 1.381-.073 2.544-1.235 2.471-2.543-.073-1.235-1.017-2.179-2.326-2.179-1.526-.073-2.616.944-2.544 2.397m11.121-4.068c0-1.235-1.09-2.47-2.326-2.47s-2.398 1.09-2.326 2.397a2.253 2.253 0 0 0 2.399 2.252c1.308.073 2.253-.871 2.253-2.179M63.963 192.291c-6.832-.218-11.92-3.123-15.555-8.426-4.869-7.047-4.869-16.273-.072-23.029.727-1.09 1.599-1.453 2.907-1.525 3.344-.218 6.687-.8 9.958-1.308a17.7 17.7 0 0 0 6.614-2.397c1.236-.727 2.326-.654 3.489.145 5.815 3.56 9.159 8.717 9.958 15.546.582 4.94-.436 9.444-3.271 13.512-3.416 4.867-8.286 7.192-14.028 7.482m9.595-17.434c-.219-1.09-.291-2.035-.655-2.906-.363-1.017-1.453-1.526-2.398-1.453-1.091.145-1.817.944-2.035 2.107-.073.435 0 .944-.073 1.38-.291 1.453-.509 2.978-1.018 4.431-.508 1.453-1.599 1.744-3.053 1.017q-1.853-.98-2.616-2.833c-.436-1.017-.654-2.107-1.09-3.196-.727-1.744-2.762-2.252-3.998-.872-.727.799-.872 1.743-.654 2.76.872 3.269 2.398 6.103 5.306 8.064 3.925 2.615 8.722 1.38 10.539-2.978.945-1.744 1.236-3.778 1.745-5.521m-11.703-7.919c-.072-1.307-1.235-2.397-2.616-2.397-1.454 0-2.69 1.235-2.617 2.615.073 1.308 1.308 2.325 2.762 2.252 1.454-.072 2.471-1.089 2.471-2.47m5.888 1.526c1.235 0 2.253-1.017 2.326-2.18.072-1.162-1.163-2.397-2.399-2.397-1.381 0-2.399 1.017-2.326 2.325 0 1.307 1.018 2.252 2.399 2.252M109.609 127.347c1.89 3.559 2.181 7.192 1.381 10.969-1.526 6.829-6.905 11.987-13.81 12.931-8.867 1.235-16.572-5.085-17.808-13.149-1.017-7.046 1.454-12.64 7.269-16.854 1.017-.726 1.89-.944 3.053-.217 1.308.799 2.907.944 4.361.871 1.526-.072 2.98-.29 4.506-.508.872-.145 1.527.145 2.035.799.873 1.162 1.745 2.325 2.835 3.269 1.599 1.525 3.634 2.325 6.178 1.889m-9.449 12.785c0-1.235-.581-2.106-1.526-2.47-1.018-.363-2.181-.072-2.835.799-.509.727-.945 1.599-1.454 2.325-1.235 1.671-2.616 1.671-3.779-.073-.509-.726-.872-1.598-1.236-2.47-.218-.435-.291-.871-.436-1.307-.436-.945-1.454-1.453-2.399-1.38-1.09.145-1.962.944-2.035 2.106-.072.509 0 1.09.073 1.526.509 1.961 1.381 3.705 2.689 5.23 1.89 2.252 5.452 3.051 7.923 1.962 2.544-1.09 3.78-3.342 4.943-5.667.072-.218.072-.508.072-.581m-4.797-8.717c-.073 1.307.945 2.47 2.18 2.542 1.236.073 2.399-.871 2.472-2.034.145-1.235-.945-2.542-2.181-2.615-1.235-.218-2.398.799-2.471 2.107m-4.288-1.017a2.264 2.264 0 0 0-2.254-2.252c-1.308-.073-2.398 1.017-2.398 2.324 0 1.235 1.163 2.325 2.471 2.252 1.163-.072 2.181-1.089 2.181-2.324" style="fill:#fff;fill-rule:nonzero"/><path d="M97.544 191.202c-.073-2.761.872-5.303 1.962-7.773.218-.436.509-.799.8-1.09 1.671-1.816 3.416-1.598 4.579.509.945 1.743 2.18 3.123 3.852 4.14 1.09.654 2.181 1.235 3.198 1.889 1.599 1.017 2.035 2.543 1.163 4.068-1.381 2.252-3.053 4.359-5.379 5.667-3.925 2.106-8.794 0-9.957-4.287-.146-.508-.291-1.017-.364-1.525.073-.509.146-1.09.146-1.598m5.596-2.398c-.872 1.235-.945 3.851-.145 4.94.654.872 1.599 1.09 2.617.509.945-.509 1.671-1.235 2.107-2.252-1.599-1.09-3.125-2.107-4.579-3.197M114.116 184.373c-1.309 0-2.399-1.162-2.326-2.397s1.235-2.325 2.471-2.325 2.471 1.162 2.471 2.325c-.072 1.38-1.163 2.397-2.616 2.397M110.045 177.254c0 1.235-1.09 2.252-2.326 2.179-1.163 0-2.18-1.017-2.18-2.107 0-1.089 1.163-2.034 2.471-2.106 1.018-.073 2.035.944 2.035 2.034M73.194 216.918c0-.363 0-1.017.073-1.598.218-1.09.945-1.744 2.035-1.889 1.163-.145 2.108.436 2.399 1.598.29 1.017.363 2.107.363 3.124 0 2.688-.727 5.23-2.326 7.41s-3.707 3.123-6.542 2.76c-2.471-.363-4.797-.944-6.687-2.615-.508-.436-1.017-.872-1.381-1.38-.654-1.017-.581-2.107.218-2.906.727-.727 1.672-.945 2.69-.436.509.218 1.017.581 1.526.944 1.163.945 2.471 1.381 3.998 1.599 1.236.145 2.035-.291 2.617-1.308.726-1.526 1.235-3.269 1.017-5.303M59.747 216.264c0-1.453 1.018-2.47 2.472-2.397 1.308.073 2.253.944 2.326 2.179.072 1.308-1.091 2.543-2.472 2.543-1.308.073-2.326-1.017-2.326-2.325M70.868 212.196c0 1.308-.945 2.179-2.253 2.252-1.381 0-2.399-.944-2.399-2.252 0-1.235 1.091-2.397 2.326-2.397s2.326 1.162 2.326 2.397M73.557 174.856c-.508 1.744-.799 3.778-1.526 5.522-1.817 4.358-6.614 5.593-10.539 2.978-2.908-1.961-4.434-4.795-5.306-8.064-.291-1.017-.073-1.961.654-2.76 1.236-1.308 3.271-.872 3.998.872.436 1.017.654 2.106 1.09 3.196.509 1.235 1.381 2.252 2.616 2.833 1.382.727 2.544.436 3.053-1.017.509-1.38.727-2.906 1.018-4.431.073-.436 0-.945.073-1.38.145-1.235.944-2.035 2.035-2.107a2.41 2.41 0 0 1 2.398 1.453c.073.871.146 1.816.436 2.905M61.855 166.938c.073 1.381-1.018 2.398-2.471 2.47-1.381.073-2.617-.944-2.762-2.252-.073-1.38 1.09-2.615 2.616-2.615 1.381 0 2.544 1.09 2.617 2.397M67.743 168.464c-1.381 0-2.399-.945-2.472-2.252a2.213 2.213 0 0 1 2.326-2.325c1.236 0 2.472 1.235 2.399 2.397 0 1.163-1.018 2.107-2.253 2.18M100.16 140.132c0 .073 0 .363-.073.581-1.09 2.325-2.398 4.577-4.942 5.667-2.471 1.089-5.96.218-7.923-1.962-1.308-1.525-2.18-3.269-2.689-5.23-.146-.509-.146-1.017-.073-1.526.146-1.089 1.018-1.961 2.035-2.106.945-.146 1.963.435 2.399 1.38.218.436.291.872.436 1.307.363.8.727 1.744 1.236 2.47 1.163 1.744 2.544 1.744 3.779.073.509-.726.945-1.598 1.454-2.325.654-.944 1.817-1.235 2.835-.799.945.291 1.526 1.235 1.526 2.47M95.363 131.415c.073-1.308 1.236-2.325 2.544-2.18 1.236.146 2.326 1.453 2.181 2.615s-1.236 2.107-2.472 2.035c-1.381 0-2.326-1.09-2.253-2.47M91.075 130.398c0 1.235-1.018 2.252-2.181 2.324-1.236.073-2.471-1.017-2.471-2.252 0-1.307 1.09-2.324 2.398-2.324a2.264 2.264 0 0 1 2.254 2.252" style="fill:#3558a2;fill-rule:nonzero"/><path d="M103.14 188.804c1.454 1.09 2.98 2.107 4.507 3.197-.436 1.017-1.163 1.743-2.108 2.252-1.018.581-1.962.363-2.617-.509-.727-1.09-.654-3.632.218-4.94" style="fill:#ced7ee;fill-rule:nonzero"/><path d="M284.563 454.831c-3.126-2.252-6.251-4.359-9.231-6.611-4.798-3.56-8.432-8.064-11.048-13.512-1.381-2.906-1.89-6.03-1.454-9.226.509-3.778 3.707-6.03 7.486-5.666 3.053.29 5.234 1.888 7.051 4.213 2.399 3.196 4.143 6.683 5.669 10.388a883 883 0 0 1 5.961 14.675c.218.508.508 1.089.799 1.743 5.306-.654 10.539-1.162 15.918-2.034-.654-1.453-1.163-2.76-1.744-3.995-4.434-9.735-9.013-19.397-13.302-29.131-1.599-3.632-2.398-7.555-2.035-11.551.218-2.106 1.018-3.922 2.471-5.521 1.527-1.671 3.271-2.978 5.452-3.777 4.579-1.744 9.158-3.632 13.737-5.521.582-.218 1.091-.945 1.454-1.526q4.143-6.756 11.775-8.717c10.83-2.833 21.878 4.141 24.204 15.11.945 4.577.218 8.935-1.962 13.003a951 951 0 0 0 4.434 8.573c8.504-5.594 17.081-5.885 25.149.217 7.704 5.812 9.958 13.803 7.195 23.32 1.527-.146 2.908-.291 4.289-.436 2.544-.291 5.088-.727 7.632-1.017 2.689-.291 3.634.218 4.579 2.688 3.634 9.589 7.414 19.178 9.086 29.421 1.017 6.175 1.453 12.349.145 18.452-.799 3.85-2.035 7.627-3.852 11.187-2.181 4.286-5.524 7.555-9.522 10.098a96 96 0 0 1-21.297 9.807c-5.306 1.743-10.83 2.833-16.354 3.705-2.253.363-4.579.726-6.832 1.235-3.562.799-7.196.944-10.831 1.017-4.869.145-9.739.217-14.609.072-9.231-.363-17.663-3.196-25.222-8.717-4.507-3.269-7.85-7.555-10.321-12.568-2.544-5.085-4.216-10.388-4.87-15.982-.291-2.252-.436-4.431-.582-6.683-.218-4.359-.509-8.717-.436-13.076 0-4.577.146-9.226 1.018-13.657m109.9-12.132c-4.216.508-8.359.944-12.502 1.598-3.998.654-7.995 1.526-12.138 1.816-3.344.218-6.687.654-10.031 1.017-4.943.581-9.958 1.09-14.9 1.671-3.562.436-7.051.872-10.613 1.308-3.779.508-7.559.944-11.338 1.453-3.635.435-7.342.871-10.976 1.307-4.87.581-9.667 1.235-14.537 1.816-2.617.364-5.233.654-7.923 1.017-.145.727-.436 1.308-.436 1.962-.291 4.431-.654 8.79-.727 13.221 0 4.286.509 8.572.655 12.858.218 7.192 2.18 13.875 5.669 20.196 1.09 2.034 2.471 3.922 3.998 5.593 3.925 4.141 8.795 6.902 14.101 8.863 4.215 1.598 8.722 2.252 13.156 2.397 7.922.146 15.845.291 23.695-1.089 5.451-.945 10.903-1.962 16.282-3.124 9.376-2.034 17.953-5.957 26.166-10.824 3.489-2.034 6.251-4.795 8.068-8.5 1.599-3.123 2.617-6.465 3.271-9.879 1.09-5.594.654-11.188-.218-16.709-1.526-9.444-5.015-18.306-8.286-27.169 0-.218-.145-.363-.436-.799m-65.49-31.02c7.632.291 14.174-5.884 14.319-13.584.146-7.628-6.032-14.892-14.973-14.965-8.14 0-14.173 6.175-14.246 13.73-.073 9.298 7.923 15.11 14.9 14.819m18.244 31.964c-.508-.872-.872-1.38-1.235-1.961-1.89-3.124-2.908-6.466-3.053-10.098-.145-3.85.8-7.482 2.907-10.751.655-1.017.655-1.816.073-2.833-.945-1.744-1.744-3.56-2.689-5.304a7 7 0 0 0-.872-1.307c-5.815 5.012-12.357 6.32-19.989 4.141a6391 6391 0 0 0 13.52 29.566c3.779-.508 7.413-.944 11.338-1.453m-24.131 2.906c2.471 0 4.797-.363 7.341-.872-.363-.944-.654-1.671-1.017-2.397-3.925-8.499-7.778-16.999-11.703-25.498-.872-1.962-1.89-3.923-2.616-5.957-.364-.945-.8-1.744-1.381-2.543-2.981-3.705-4.507-7.991-4.434-12.785 0-.509-.073-.945-.146-1.599-2.689 1.163-5.306 2.107-7.777 3.269 6.324 16.563 13.81 32.4 21.733 48.382m38.814-13.294c2.835.073 4.288.291 3.998 4.068 1.817-.799 3.198-1.816 3.925-3.705.654-1.525 1.889-2.106 3.125-1.743 1.308.363 1.963 1.671 1.672 3.341-.291 1.889-1.454 3.197-2.762 4.432-.509.436-.945.872-1.672 1.453 1.672-.364 2.907-.799 4.216-.799 2.18 0 3.053-1.163 3.561-2.979.073-.218.146-.363.218-.581 1.599-5.957.291-11.26-4.07-15.619-4.434-4.431-9.74-5.884-15.773-4.14-6.832 1.961-10.975 8.354-10.321 15.4.363 3.705 1.962 6.756 4.288 9.589.582.727 1.163.945 2.036.872.944-.073 1.962.073 2.907-.145 1.308-.291 2.689.072 3.998-.872-.8-.508-1.454-.872-2.108-1.235-.654.291-1.163.509-1.745.654-1.453.436-2.616.073-3.27-1.017-.655-1.09-.364-2.252.799-3.342.291-.29.509-.581.945-1.017-2.617.218-3.78-.29-4.143-1.671-.436-1.453.218-2.324 2.835-3.777.145-.581.29-1.235.363-1.889.145-1.453.8-2.615 1.672-3.705 2.108-2.542 4.87-3.487 7.995-3.632a3.98 3.98 0 0 1 2.908 1.017c.654.654.945 1.38.726 2.325-.218.871-.799 1.525-1.744 1.743-.509.073-1.09 0-1.599.145-1.236.218-2.617.073-3.78 1.381.436-.073.654-.073.945-.146.291-.072.654-.218.945-.29 1.599-.291 2.835.218 3.271 1.525.436 1.235-.145 2.543-1.526 3.269-.873.364-1.672.654-2.835 1.09m-44.338 14.093c-1.236-2.542-2.253-4.794-3.344-6.974-6.251-12.495-11.847-25.28-16.935-38.284-.146-.436-.436-.871-.727-1.38q-2.945 1.635-2.835 4.795c.073 3.632.945 7.191 2.471 10.533a3799 3799 0 0 0 13.665 30.003c.291.653.654 1.307 1.018 2.106 2.18-.218 4.288-.508 6.687-.799m-34.816.291c.145-.073.218-.218.363-.291-.363-.944-.727-1.889-1.163-2.833-1.744-4.141-3.343-8.282-5.233-12.35-.945-2.034-2.254-3.85-3.562-5.666-.654-1.017-1.599-1.743-2.907-1.816-1.817-.145-2.617.436-2.69 2.252-.072 2.107.291 4.068 1.236 5.957 2.253 4.576 5.379 8.427 9.449 11.55 1.454 1.017 2.98 2.107 4.507 3.197" style="fill:#3558a2;fill-rule:nonzero"/><path d="M394.463 442.699c.291.436.436.581.509.799 3.271 8.863 6.759 17.725 8.286 27.169.872 5.594 1.308 11.115.218 16.708a39.5 39.5 0 0 1-3.271 9.88c-1.817 3.632-4.652 6.393-8.068 8.5-8.214 4.867-16.79 8.79-26.167 10.824-5.378 1.162-10.83 2.179-16.281 3.123-7.85 1.381-15.773 1.235-23.696 1.09-4.506-.072-8.94-.799-13.156-2.397-5.306-1.962-10.176-4.722-14.101-8.863-1.599-1.671-2.907-3.632-3.997-5.593-3.417-6.248-5.452-12.931-5.67-20.196-.145-4.286-.654-8.572-.654-12.858 0-4.431.436-8.79.727-13.221.073-.654.291-1.235.436-1.962 2.762-.363 5.306-.654 7.923-1.017 4.87-.581 9.667-1.235 14.537-1.816 3.634-.436 7.341-.872 10.975-1.308 3.78-.435 7.56-.944 11.339-1.453 3.562-.435 7.051-.871 10.612-1.307 4.943-.581 9.958-1.162 14.901-1.671 3.343-.363 6.687-.799 10.03-1.017 4.071-.291 8.068-1.162 12.139-1.816 4.07-.727 8.286-1.09 12.429-1.598m-79.445 33.271c2.471 2.761 5.161 5.812 7.85 8.863l2.835 3.051c1.09 1.235 1.671 2.688 1.817 4.286.29 3.051.145 6.102-.945 8.935-.509 1.381-1.163 2.616-1.817 3.923-1.018 1.962-.509 3.778 1.381 4.649.436.218 1.017.364 1.526.436 4.143.799 8.286 1.671 12.357 2.398 3.779.726 7.341.072 10.466-2.252.436-.291.8-.654 1.236-.945 1.89-1.235 3.707-2.034 6.105-1.38 1.745.436 3.707.581 5.452.291 4.87-.727 8.286-3.851 10.903-7.846.872-1.308.654-2.688-.364-3.85-.581-.727-1.308-1.308-1.962-1.962-1.672-1.671-3.416-3.341-4.434-5.521-1.672-3.487-1.745-7.119-.363-10.751 1.235-3.269 2.689-6.466 3.997-9.662.364-.799.727-1.526.945-2.397.582-2.107-.363-3.633-2.471-4.141-.872-.218-1.817-.218-2.762-.291-2.035-.145-4.071-.218-6.106-.508-2.907-.363-5.669-1.235-8.068-2.979-2.18-1.525-4.288-3.269-6.323-5.012-2.326-1.962-5.016-1.235-5.743 1.671-.29 1.017-.508 2.034-.872 3.051-1.381 3.632-3.198 6.974-6.978 8.645-.654.29-1.308.653-1.962.871-3.78 1.235-7.487 2.47-11.266 3.56-2.254.799-4.289 1.525-4.434 4.867" style="fill:#ced7ee;fill-rule:nonzero"/><path d="M328.973 411.679c-6.977.291-14.973-5.593-14.9-14.747.073-7.555 6.033-13.802 14.246-13.729 8.941 0 15.119 7.337 14.973 14.964s-6.687 13.803-14.319 13.512m-2.471-14.674c-.945 1.816-1.89 3.342-2.616 5.013-.655 1.453-.219 2.76.944 3.414 1.236.654 2.762.29 3.562-1.09 1.817-3.124 3.634-6.247 5.306-9.444a5.6 5.6 0 0 0 .581-2.47c0-1.525-1.017-2.542-2.616-2.615q-.98 0-1.963.218c-1.599.581-3.198 1.163-4.797 1.816-.581.218-1.163.654-1.599 1.09-.654.726-.872 1.671-.436 2.543.363.871 1.018 1.38 1.962 1.38.509.145.945.145 1.672.145" style="fill:#e6eefe;fill-rule:nonzero"/><path d="M347.218 443.643c-3.925.509-7.56.945-11.267 1.38a6450 6450 0 0 1-13.519-29.566c7.632 2.252 14.101.872 19.988-4.141.291.509.654.872.873 1.308.872 1.743 1.744 3.559 2.689 5.303.581 1.017.581 1.816-.073 2.833-2.035 3.269-2.98 6.901-2.907 10.751.145 3.633 1.163 6.974 3.053 10.098.29.654.654 1.235 1.163 2.034" style="fill:#fff;fill-rule:nonzero"/><path d="M323.086 446.549c-7.923-15.909-15.337-31.746-21.66-48.382 2.471-1.162 5.015-2.106 7.777-3.269.073.654.145 1.163.145 1.599-.072 4.794 1.454 9.08 4.434 12.785.654.799 1.018 1.598 1.381 2.543.727 2.034 1.745 3.995 2.617 5.957 3.925 8.499 7.777 16.999 11.702 25.498.291.726.582 1.453 1.018 2.397-2.617.436-5.015.872-7.414.872M361.9 433.255c1.163-.436 1.962-.726 2.689-1.162 1.381-.727 1.963-2.034 1.527-3.269s-1.672-1.816-3.271-1.526c-.291.073-.654.218-.945.291-.218.072-.509.072-.945.145 1.09-1.308 2.471-1.162 3.78-1.38.508-.073 1.09 0 1.599-.145.944-.218 1.453-.8 1.744-1.744s0-1.671-.727-2.325c-.799-.799-1.89-1.089-2.907-1.017-3.126.146-5.96 1.09-7.996 3.633-.872 1.089-1.526 2.252-1.671 3.705-.073.653-.291 1.307-.364 1.888-2.616 1.453-3.198 2.325-2.835 3.778.437 1.453 1.527 1.961 4.144 1.671-.437.436-.655.726-.945 1.017-1.163 1.089-1.454 2.252-.8 3.341s1.89 1.526 3.271 1.017c.581-.145 1.09-.435 1.744-.653.655.363 1.309.726 2.108 1.235-1.308.944-2.762.581-3.997.871-.945.218-1.963.073-2.908.146-.872.072-1.454-.146-2.035-.872-2.326-2.833-3.925-5.884-4.288-9.589-.655-7.047 3.488-13.44 10.321-15.401 6.033-1.743 11.411-.218 15.773 4.141 4.361 4.358 5.596 9.662 4.07 15.618-.073.218-.145.364-.218.582-.509 1.816-1.381 2.978-3.562 2.978-1.308 0-2.544.436-4.215.799.726-.581 1.162-1.017 1.671-1.453 1.381-1.235 2.472-2.542 2.762-4.431.291-1.671-.363-2.979-1.671-3.342-1.236-.363-2.472.291-3.126 1.744-.799 1.816-2.108 2.905-3.925 3.705.436-3.705-1.017-3.923-3.852-3.996" style="fill:#e6eefe;fill-rule:nonzero"/><path d="M317.562 447.348c-2.399.291-4.507.509-6.687.799-.364-.799-.727-1.453-1.018-2.107-4.579-10.025-9.158-19.977-13.665-30.002-1.453-3.342-2.325-6.829-2.471-10.533q-.11-3.052 2.835-4.795c.218.508.509.944.727 1.38a486 486 0 0 0 16.935 38.284c1.163 2.18 2.181 4.431 3.344 6.974M282.746 447.639c-1.527-1.09-3.053-2.18-4.507-3.342-4.07-3.124-7.196-6.901-9.449-11.55-.945-1.889-1.308-3.851-1.236-5.957.073-1.816.8-2.398 2.69-2.252 1.308.145 2.253.871 2.907 1.816 1.236 1.816 2.617 3.705 3.562 5.666 1.89 4.068 3.561 8.209 5.233 12.35.364.944.727 1.889 1.163 2.833-.145.218-.218.363-.363.436" style="fill:#fff;fill-rule:nonzero"/><path d="M326.502 397.005h-1.599c-.945-.072-1.599-.581-1.962-1.38-.436-.944-.291-1.816.436-2.543.436-.436 1.017-.871 1.599-1.089 1.599-.654 3.198-1.308 4.797-1.816.582-.218 1.308-.291 1.963-.218 1.599.072 2.616 1.089 2.616 2.615 0 .799-.145 1.743-.581 2.47a399 399 0 0 1-5.306 9.444c-.8 1.38-2.326 1.816-3.562 1.089-1.163-.654-1.599-2.034-.945-3.414.654-1.816 1.599-3.414 2.544-5.158" style="fill:#3558a2;fill-rule:nonzero"/><path d="M330.064 505.609c1.235-3.123 2.108-6.029 2.326-9.153.436-5.012-.582-9.516-4.361-13.221-1.963-1.962-3.78-4.068-5.67-6.103-.363-.363-.654-.799-1.09-1.452 1.599-.436 3.053-.945 4.506-1.308 3.707-.944 7.269-2.252 10.612-4.213 2.835-1.671 4.87-3.923 6.251-6.974.654-1.526 1.381-2.979 2.035-4.504 13.956 8.717 11.194 6.61 21.879 8.063-.291.654-.582 1.308-.8 1.962-1.308 3.487-2.98 6.901-3.852 10.533-1.381 5.521-.218 10.752 3.489 15.183a199 199 0 0 0 3.779 4.286c-2.253 3.778-5.887 5.521-10.466 4.359-3.853-.945-7.051.218-9.958 2.47-2.253 1.743-4.725 2.542-7.559 2.397-1.091-.073-2.181-.436-3.271-.654l-6.542-1.307c-.436.072-.799-.146-1.308-.364" style="fill:#fff;fill-rule:nonzero"/><path d="M331.445 473.646c2.398 1.671 4.724 3.559 6.687 5.811 2.035 2.398 3.198 5.085 4.07 8.064.945 2.978 2.035 6.102 4.434 8.136 2.471 2.107 5.451 2.47 8.577 1.816 3.125-.654 6.105-2.252 9.303-2.106 2.326.145 2.326-3.487 0-3.633-2.907-.145-5.669.945-8.431 1.744-2.326.726-4.943 1.235-6.978-.509-2.18-1.889-2.907-4.94-3.779-7.555-1.018-3.124-2.399-5.811-4.507-8.354-2.181-2.615-4.797-4.722-7.559-6.611-.8-.581-2.035-.145-2.472.654-.508.944-.145 1.962.655 2.543" style="fill:#ced7ee;fill-rule:nonzero"/><path d="M353.687 465.8c-1.672 7.773-5.161 15.038-10.249 21.14-.654.726-.727 1.816 0 2.542.654.654 1.962.727 2.544 0a52.64 52.64 0 0 0 11.193-22.738c.509-2.252-3.052-3.196-3.488-.944M344.746 493.623c-1.308 2.543-3.707 4.213-5.524 6.393-2.18 2.542-3.707 5.666-2.98 9.008.218.944 1.308 1.525 2.253 1.235 1.018-.291 1.454-1.308 1.236-2.252-.218-1.017 0-2.18.509-3.197.581-1.162 1.381-2.179 2.326-3.196 1.889-1.961 3.997-3.85 5.306-6.248.436-.871.218-1.961-.654-2.469-.8-.436-2.036-.146-2.472.726M338.132 477.859c-3.053 3.487-7.414 5.23-11.993 4.94-.945-.073-1.817.872-1.817 1.816 0 1.017.799 1.743 1.817 1.816 5.451.363 10.975-1.889 14.609-5.957.655-.726.727-1.816 0-2.542-.726-.727-1.962-.799-2.616-.073" style="fill:#ced7ee;fill-rule:nonzero"/><path d="M315.018 475.97c.218-3.342 2.253-3.995 4.434-4.649 3.779-1.09 7.559-2.325 11.266-3.56.654-.218 1.308-.581 1.962-.872 3.853-1.67 5.597-5.012 6.978-8.644.364-.945.582-2.034.872-3.051.727-2.906 3.489-3.705 5.742-1.671 2.036 1.743 4.144 3.487 6.324 5.012 2.399 1.671 5.233 2.543 8.068 2.979 2.035.29 4.071.29 6.106.508.945.073 1.817.073 2.762.291 2.108.508 3.053 2.034 2.471 4.141-.218.799-.654 1.598-.945 2.397-1.308 3.196-2.762 6.393-3.998 9.662-1.381 3.632-1.308 7.264.364 10.751 1.017 2.179 2.762 3.85 4.434 5.521.654.654 1.381 1.235 1.962 1.962 1.018 1.162 1.236 2.542.364 3.85-2.617 3.995-6.033 7.046-10.903 7.845-1.745.291-3.707.146-5.452-.29-2.398-.654-4.215.145-6.105 1.38-.436.291-.872.654-1.236.944-3.198 2.252-6.687 2.979-10.466 2.252-4.144-.799-8.287-1.598-12.357-2.397a6 6 0 0 1-1.526-.436c-1.817-.871-2.326-2.76-1.381-4.649.654-1.308 1.308-2.543 1.817-3.923 1.017-2.906 1.235-5.884.945-8.935-.146-1.598-.727-3.051-1.817-4.286l-2.835-3.051c-2.762-3.269-5.452-6.32-7.85-9.081m15.046 29.639c.508.218.872.436 1.235.509l6.542 1.307c1.09.218 2.181.582 3.271.654 2.762.146 5.233-.581 7.559-2.397 2.908-2.252 6.106-3.414 9.958-2.47 4.579 1.162 8.213-.581 10.467-4.359-1.236-1.453-2.544-2.833-3.78-4.286-3.707-4.504-4.797-9.662-3.489-15.183.872-3.632 2.544-7.046 3.852-10.533.218-.654.509-1.308.8-1.962-10.685-1.452-7.923.654-21.878-8.063-.654 1.525-1.381 2.978-2.035 4.504-1.309 2.978-3.417 5.303-6.251 6.974-3.344 1.961-6.905 3.196-10.612 4.213-1.454.363-2.908.799-4.507 1.308.509.581.8 1.017 1.09 1.453 1.89 2.034 3.707 4.14 5.67 6.102 3.779 3.705 4.797 8.209 4.361 13.221-.145 2.979-1.018 5.957-2.253 9.008" style="fill:#3558a2;fill-rule:nonzero"/></g></g></g></g></svg>