<svg xmlns="http://www.w3.org/2000/svg" width="245" height="354" fill="none" viewBox="0 0 245 354"><path fill="#102185" d="M108.919 279.088c6.16 6.685 11.391 12.921 16.975 18.787 13.591 14.313 27.485 28.536 41.099 42.71 1.363 1.245 2.562 2.605 3.622 3.941.739.704 1.29 1.663 1.397 2.688.248 1.05.077 2.026-.234 2.978-.122.697-.663 1.321-1.179 1.805-.516.485-1.172.945-1.918 1.102-.746.156-1.492.313-2.19.191-.697-.122-1.534-.269-2.043-.646-.903-.589-1.666-1.154-2.381-1.998-14.238-14.715-28.502-29.289-42.577-44.119-7.407-7.767-14.346-15.739-21.59-23.621-.738-.705-1.478-1.409-2.192-2.253-.484-.516-.993-.893-1.666-1.155-.673-.261-1.395-.244-2.092-.366-9.662.175-19.184.374-28.846.549l-43.37.591c-4.192.128-8.243.28-12.27.293-5.028-.019-7.36-2.297-7.365-7.185L0 251.801c.169-17.363.313-34.588.343-51.975.063-15.945-.037-31.774.027-47.719.118-11.335.212-22.531.191-33.89-.02-3.166-.015-6.472.104-9.613.063-2.001.685-3.905 1.585-5.759.875-1.716 2.17-3.358 3.808-4.508C19.423 86.88 32.672 75.26 45.897 63.78c11.536-10.053 23.188-19.941 34.7-29.854 11.349-9.797 22.533-19.48 33.742-29.302.844-.715 1.525-1.314 2.369-2.029 4.334-3.409 8.526-3.537 12.778.084a2287 2287 0 0 1 27.545 24.09l52.454 45.994c8.851 7.732 17.652 15.744 26.667 23.361 1.387 1.106 2.447 2.441 3.342 3.892.872 1.59 1.3 3.247 1.45 4.854.465 5.544.652 11.039.839 16.534.179 6.356.055 12.803.235 19.159.195 12.828.529 25.68.724 38.507.185 11.245.37 22.489.531 33.873.24 15.854.455 31.848.834 47.726-.015 1.722.135 3.33.12 5.052.246 6.799-2.76 10.01-9.535 10.116l-41.977.835c-3.887.037-7.66.238-11.99.342a57 57 0 0 0 2.447 2.441l47.895 40.02c2.751 2.351 5.501 4.701 8.112 7.028a4.48 4.48 0 0 1 1.61 2.294 8.5 8.5 0 0 1 .372 2.797c-.122.697-.269 1.534-.67 2.182-.401.649-.917 1.133-1.573 1.593s-1.402.617-2.123.634a6.1 6.1 0 0 1-2.232-.391q-1.981-.995-3.472-2.334l-61.647-51.773c-.254-.189-.648-.401-.878-.729-1.363-1.245-2.915-2.236-4.679-2.833-1.764-.596-3.601-.775-5.487-.674-13.041.589-26.123.595-39.254.881-3.051.184-6.053.089-10.104.241zm-21.754-9.564c.284-3.256.354-6.119.589-9.096 1.03-9.163 3.202-18.269 6.301-26.926 2.805-6.983 6.513-13.376 12.536-18.214 7.195-5.782 15.731-7.736 24.786-7.73 7.029.082 13.733 2.839 18.602 7.861a39.4 39.4 0 0 1 8.553 12.711c4.506 9.559 5.559 19.949 6.777 30.225.462 3.099.622 6.29 1.06 9.529 10.08-.102 19.881-.252 29.707-.542.746-.157 1.492-.314 2.287-.749-1.658-52.039-3.596-104.127-5.37-156.33-48.489.269-96.56.61-144.607.813-.721.017-1.328.198-1.96.519.955 52.778 1.934 105.416 2.978 158.497 12.664-.08 25.049-.209 37.646-.731zM18.833 101.727l202.314-1.191c.698.123 1.583-.01 2.329-.166.304-.091.632-.321.935-.411-3.9-3.99-99.031-87.795-101.887-88.727-34.07 29.533-68.279 59.041-102.676 88.804-.377.509-.778 1.157-1.155 1.666zm-8.469 10.59c-.07 2.862-.141 5.725-.097 8.751-.112 16.224-.2 32.307-.428 48.367-.063 10.195-.01 20.554-.072 30.749l-.073 36.498c-.087 10.335-.034 20.694-.006 31.192.084 1.164.192 2.19.439 3.239l30.01-.633c-.234-10.965-.238-21.603-.545-32.15a12267 12267 0 0 0-.528-31.429c-.168-10.523-.427-21.349-.595-31.872-.143-10.662-.335-21.046-.667-31.454-.307-10.547-.172-21.16-.758-31.756-11.844-.495-23.392-.22-26.565.662zm223.94 154.251.293-1.673c-.298-17.158-.597-34.316-.756-51.45-.374-19.184-.585-38.482-.959-57.666-.237-13.41-.449-26.959-.686-40.369-.01-1.583.447-3.371-.637-4.567-.418-.074-.509-.377-.533-.238-8.916.019-17.692.061-26.468.104-.558-.098-1.074.387-1.705.708.529 17.485 1.106 34.692 1.659 52.038.553 17.347.991 34.529 1.823 51.924.856 17.256.851 34.505 1.937 52.088 9.006.285 17.437-.249 26.262-.571zm-77.76 1.606c.007-.861-.035-1.443-.101-1.886-.514-5.265-1.005-10.67-1.798-15.984-.926-6.199-1.991-12.423-4.876-18.104-2.129-4.254-4.562-8.418-8.518-11.268-4.581-3.39-9.814-3.876-15.383-3.271a25.25 25.25 0 0 0-9.92 3.292c-3.041 1.767-5.761 4.165-7.833 6.964-3.956 5.344-5.917 11.612-7.739 17.905s-2.2 12.552-3.3 18.827c-.13 1.559.02 3.166.17 4.774 19.905-.392 39.507-.693 59.158-1.273z"/><path fill="#102185" d="M162.792 166.924c-2.618 12.478-9.242 22.385-20.907 28.246s-23.418 5.67-34.605-1.035c-13.55-7.981-19.872-20.302-19.717-35.943-.09-6.053 1.217-11.861 3.753-17.31s6.37-10.095 11.057-13.874c6.915-5.831 15.598-8.621 24.555-8.057 6.562.288 12.97 2.273 18.387 5.81 8.266 5.33 14.271 13.714 16.636 23.184 1.647 6.183 1.827 12.539.726 18.815zm-9.64-2.409c.881-5.021.505-10.261-.944-15.115-1.588-4.878-4.251-9.37-7.921-13.032a28.23 28.23 0 0 0-15.601-7.766c-5.906-.748-11.9.645-16.908 3.792-15.909 9.574-19.025 31.452-8.018 45.743 2.67 3.631 6.183 6.546 10.286 8.559 4.104 2.013 8.566 2.796 13.061 2.577 12.597-.523 24.281-11.412 26.045-24.758M119.729 41.935c-.613 1.042-1.367 2.06-2.235 2.914-3.31 3.3-6.71 6.298-9.996 9.46-6.734 6.438-13.354 13.04-20.113 19.617-1.36 1.199-2.72 2.398-4.196 3.433a5.44 5.44 0 0 1-3.476.972c-1.255-.22-2.322-.695-3.152-1.703-.69-.983-1.052-2.197-.856-3.312.195-1.116.67-2.183 1.678-3.012 3.121-3.047 6.497-5.905 9.594-8.812 8.283-7.891 16.427-15.807 24.57-23.723.541-.624 1.221-1.223 1.992-1.52a6.3 6.3 0 0 1 2.378-.445c3.117.259 4.497 2.226 3.788 6.27zM131.605 55.372c-.426.788-.991 1.551-1.556 2.315-5.563 5.493-10.986 11.01-16.688 16.48-1.057 1.108-2.229 2.053-3.401 2.997-2.434 1.586-4.829 1.31-6.258-.378-.854-.868-1.216-2.082-1.16-3.222.195-1.116.555-2.346 1.399-3.06 6.128-6.258 12.395-12.49 18.662-18.722 1.033-.97 2.18-1.774 3.533-2.112 3.337-.997 6.038 1.633 5.305 5.817zM134.75 80.072c-3.626-.635-5.139-3.488-3.952-6.155.097-.558.45-.927.802-1.297 3.31-3.3 6.644-6.74 10.208-9.853a3.34 3.34 0 0 1 1.451-.896c.467-.206 1.049-.247 1.607-.15.558.098 1.116.196 1.65.433s.902.59 1.247 1.081c.37.353.715.844.92 1.312.206.467.387 1.074.289 1.632l-.293 1.673c-.098.558-.589.903-.942 1.272-3.195 3.465-6.644 6.742-10.093 10.018-.819.575-1.869.823-2.894.93M136.212 247.216c.122-.697.22-1.255.597-1.764s.753-1.018 1.385-1.338c.491-.345 1.122-.666 1.705-.708.606-.181 1.304-.058 1.861.039 1.256.22 2.389 1.138 3.079 2.121s1.028 2.336.947 3.616a4.52 4.52 0 0 1-2.121 3.078c-1.123.666-2.336 1.028-3.591.808-1.231-.359-2.249-1.113-2.914-2.236-.666-1.123-1.028-2.336-.808-3.591z"/><path fill="#102185" d="M123.293 174.948c-3.068-.537-5.801-2.167-7.666-4.65-1.338-1.384-2.349-2.999-3.36-4.613-.55-.959-.797-2.009-.602-3.125.196-1.115.646-2.043 1.514-2.897.844-.714 1.754-.986 2.779-1.094 1.025-.107 2.092.367 2.88.793 1.018.753 2.011 1.646 2.701 2.629.739.705 1.315 1.524 2.054 2.229 1.641 1.294 2.642 1.326 4.445.061 1.311-.921 2.229-2.054 3.54-2.974 3.417-2.275 7.545-.402 7.582 3.486-.007.861-.317 1.813-.579 2.486-2.153 4.078-8.988 8.63-15.378 7.366zM112.471 149.764c.098-.557.22-1.255.597-1.764.376-.509.753-1.018 1.245-1.363s1.098-.526 1.566-.731c.606-.181 1.164-.084 1.861.039a4.52 4.52 0 0 1 3.079 2.12c.665 1.123 1.003 2.476.644 3.707-.416 2.371-3.227 4.465-5.409 3.795-2.601-.743-4.334-2.341-3.583-5.803M129.671 150.048c.098-.557.22-1.255.596-1.764.377-.509.754-1.018 1.246-1.363.491-.345 1.098-.526 1.705-.707.582-.042 1.164-.083 1.862.039.557.098 1.255.22 1.6.712.509.376 1.018.753 1.223 1.22.345.492.526 1.099.708 1.706.181.606.083 1.164-.039 1.861-.098.558-.22 1.256-.712 1.601-.377.509-.753 1.018-1.245 1.363s-1.099.526-1.705.707-1.165.083-1.862-.039c-1.255-.22-2.273-.973-2.963-1.957-.69-.983-.889-2.312-.693-3.428z"/></svg>