<svg xmlns="http://www.w3.org/2000/svg" width="244" height="217" fill="none" viewBox="0 0 244 217"><path fill="#102185" d="M90.922 10.308c1.245 24.168 2.378 48.054 3.61 72.364l5.961-.099c19.567-.085 39.035-.736 58.574-.24 10.322.551 20.742 1.967 30.838 4.077 11.78 2.336 21.493 9.104 29.974 17.358 7.688 7.363 14.909 15.263 22.002 23.164 1.331 1.486 2.577 4.814 1.926 6.343a8.8 8.8 0 0 1-2.549 2.562c-1.034.666-2.194 1.162-3.327 1.232-5.281.708-10.69.977-16.084 1.119-2.705.142-4.021.92-3.752 3.907.821 11.101 1.203 22.329 2.024 33.429.071 1.274 1.558 2.634 2.789 3.554 6.287 4.446 9.218 10.562 8.538 17.896s-5.876 11.738-12.799 13.777c-10.52 3.115-19.78-6.457-17.047-17.798.892-3.497 3.752-6.598 5.493-9.911.921-1.373 1.43-2.761 1.515-4.46-.311-9.939-.92-19.765-1.387-29.563-.114-3.129-.241-6.116-.34-9.373l-109.928.736c.765 20.035 1.53 40.069 2.166 59.806 5.366.283 10.18.411 14.98.807a8.3 8.3 0 0 1 3.625 1.048c1.104.623 2.039 1.529 2.846 2.563a7.56 7.56 0 0 1 1.515 3.483 8.7 8.7 0 0 1-.213 3.823c-.368 1.684-2.35 4.12-3.922 4.332-1.713.198-4.176-1.359-5.522-2.846-1.061-1.331-1.43-2.492-3.553-2.463-10.365.297-20.856.156-31.22.439-1.7-.085-3.328 1.231-5.055 1.713-1.741.609-4.205 1.755-5.578.977-.822-.609-1.629-1.36-2.153-2.237-.523-.878-.892-1.897-.977-2.888-.495-3.852 1.926-6.698 5.791-7.349 3.568-.51 7.136-.75 10.676-.835 2.563-.142 5.111 0 8.085 0-.128-2.988-.27-5.409-.284-7.957-.68-16.198-1.373-32.409-1.925-48.451-.113-3.129-1.062-3.88-4.05-3.766-12.926.439-25.98.58-38.893.877-.85-.042-1.714.199-2.988.27l-.226 4.106c.311 9.939.778 19.751.807 29.676-.114 1.982.212 3.837 1.104 5.734s1.94 3.37 3.285 4.715c1.883 1.798 3.455 4.304 4.163 6.895s.835 5.437.283 7.957a15.7 15.7 0 0 1-3.653 7.179c-1.812 2.024-4.163 3.61-6.626 4.46-7.66 2.704-14.881-.241-18.307-7.646-3.427-7.419-.935-16.778 5.776-20.247 1.02-.368 1.912-1.175 2.52-2.138.623-.962.822-2.081.595-3.228-.24-11.213-.495-22.286-.75-33.499 0-2.832-1.246-3.186-3.526-2.889a98 98 0 0 1-13.082.567c-9.912-.255-11.044-3.002-12.474-13.295-.623-4.29.467-8.764.424-13.026.354-22.385.708-44.77 1.062-67.012.128-2.266.241-4.39.78-6.485a8.82 8.82 0 0 1 2.548-5.111c1.345-1.346 3.1-2.237 5.097-2.563 3.299-.68 6.584-1.204 9.868-1.6 6.131-.524 8.552 1.883 8.651 7.986.184 14.894.241 29.789.284 44.684.113 8.51.212 17.033.325 25.401.1.708.354 1.429.453 2.151 1.671-2.18 3.044-3.808 4.404-5.436 10.69-14.173 25.896-20.02 42.39-23.66 7.32-1.585 7.448-1.444 6.726-8.99.042-.708-.212-1.43-.425-2.718-3.837.212-7.674.297-11.525.65-10.25.864-16.14-3-17.019-12.968-.637-9.246-.566-18.463.071-27.652.128-2.265.949-4.489 2.322-6.258s3.554-2.931 5.706-3.384c5.89-1.388 11.752-2.35 17.91-3.568l-1.217-8.863c-2.832 0-5.394.141-7.943 0-2.973-.156-4.87-1.685-4.998-4.659l.113-1.982c.17-.552.496-1.246.935-1.657.453-.538.906-.948 1.487-1.189.58-.24 1.302-.495 1.868-.467C79.312 1.034 88.147.382 96.953 0l1.982.113c.708.043 1.246.496 1.798.949.538.453.949.906 1.19 1.487.24.58.509 1.16.467 1.868.113.567.071 1.275-.113 1.983-.043.708-.496 1.246-.807 1.798a6.7 6.7 0 0 1-1.487 1.33c-.58.256-1.161.51-1.883.61a74 74 0 0 1-7.844.85l.609-.68zm133.954 116.256c-4.134-4.758-7.574-9.487-11.61-13.394-8.735-8.835-19.043-14.924-31.701-16.877-14.201-2.322-28.6-3.385-42.943-3.03-13.21.424-26.392.424-39.73.41-3.114-.028-4.572.75-4.204 4.446a400 400 0 0 1 1.147 26.151c.099 3.412 1.047 4.304 4.445 4.347 37.464-.538 74.914-.779 112.505-1.303 3.979-.071 7.83-.566 12.091-.765zm-190.76 3.469 51.383-.921c-.51-11.511-1.062-22.455-1.6-33.414-18.675-.722-46.809 18.604-49.782 34.321zm47.56-98.247c-5.196-.991-10.463-.425-15.405 1.727-.453.397-.892.807-1.203 1.36a4 4 0 0 0-.524 1.812c-.142 7.787 0 15.603.297 23.418-.056 1.133 1.813 3.214 2.804 3.27 4.941.27 10.08-.17 15.334-.452a3695 3695 0 0 1-1.445-30.993l.156-.128zm-63.53 100.073c.014-29.209 0-57.71-.156-86.495-4.431.609-4.715.736-4.899 3.993-.311 5.649-.608 11.313-.778 16.976-.27 20.686-.524 41.372-.652 61.93-.056 1.133.014 2.265.085 3.695l6.244-.085h.142zm196.621 69.165c1.954-2.025 4.304-3.596 4.843-5.55.523-1.954-1.048-4.163-1.912-6.627-5.777 4.503-6.301 6.329-3.058 12.035l.127.156zm-183.085-2.067c.396.453 1.43 2.491 2.831 2.704l1.7.085c.566-.113 1.146-.368 1.458-.779.453-.396.764-.949.934-1.515q.255-.828.085-1.699c-.212-1.43-1.642-3.78-2.76-3.979-2.394-.41-4.588.892-4.404 5.437l.156-.269z"/></svg>