<svg xmlns="http://www.w3.org/2000/svg" width="283" height="258" fill="none" viewBox="0 0 283 258"><path fill="#102185" d="M81.667 57.739c.043-3.37.057-6.287.057-9.203.042-1.615.042-3.37.212-5.013.425-4.771 2.874-7.277 7.646-7.433 7.56-.113 15.15-.099 22.696-.212 1.161 0 2.308-.128 3.738-.199l.057-18.675c.042-2.775-.014-5.394.056-8.042.085-4.389 1.912-6.456 6.202-6.782 4.12-.439 8.169-.566 12.332-.863C140.978.92 147.264.382 153.452.028c5.323-.297 7.716 1.742 8.013 7.065.496 7.9.85 15.83 1.246 23.9.071.864.128 1.713.34 3.13 4.262.112 8.41.396 12.63.382 4.53.042 9.061.098 13.465.17 7.348.226 10.392 3.114 10.788 10.604.199 4.332.114 8.722.17 13.082-.042 1.034.057 2.025.128 3.47 4.12.141 8.07.198 12.02.24 19.78.368 39.517.58 59.438.92 2.535.241 5.013.808 7.349 1.983 2.605 1.104 3.044 3.483 3.115 6.088-.057 6.287.028 12.53-.014 18.817-.071 27.439.028 54.978.085 82.375.084 6.838.438 13.606.523 20.43.029 1.883-.212 3.851-.637 5.692-.24 1.373-1.147 2.464-2.109 3.285-1.105.849-2.478 1.189-3.809 1.09-18.718.396-37.577.821-56.252 1.359-9.713.213-19.582.467-29.266.821-1.034-.042-1.997.199-3.441.27l1.331 5.365c3.341 11.129 6.839 22.371 10.322 33.472.198.821.439 1.784.778 2.577 2.86 6.881-.821 10.845-8.509 11-10.888.213-21.804-.297-32.791-.495-19.638-.396-39.319-.934-58.957-1.331-8.212-.156-10.463-3.398-7.39-11.015 4.46-11.454 8.749-23.022 13.181-34.618.34-.963.552-1.883.722-2.945-6.117.057-11.808 0-17.514-.043-25.486.17-50.83.312-76.301.482-3.2.057-6.386.113-8.963-2.605-.963-.935-1.642-1.926-2.223-3.101-.58-1.175-.75-2.435-.92-3.71.127-6.598.1-13.153.255-19.609.467-31.177.75-62.468 1.218-93.645.056-6.867.07-13.876.254-20.77.043-1.615.354-3.3.836-4.871.34-.963 1.005-1.855 1.897-2.365s1.996-.779 2.888-.708c14.966.382 30.073.737 45.01.977 8.963.27 17.996.227 26.916.34.482.17 1.161 0 2.337 0l.028.141zm-.141 10.675-69.463-.764-1.685 129.494c1.614.043 2.96.142 4.12.142l33.203-.184c19.1-.057 38.327-.142 57.385-.326 1.713-.127 3.299-.226 4.983-.495.029-9.345.184-18.138.312-27.058 0-8.891.453-17.613.042-26.405-1.642-.17-2.817-.184-4.021-.326-1.345-.113-2.506-.694-3.469-1.628-.962-.935-1.401-2.138-1.43-3.441s.383-2.577 1.317-3.539c.935-.963 2.096-1.544 3.398-1.572 1.997-.198 3.88-.227 5.777-.255 16.452-.127 32.933-.113 49.385-.241 8-.084 15.901.001 23.929.071 3.808.085 5.932 2.181 5.819 5.267-.043 2.775-2.209 4.63-5.749 5.069-1.444.071-2.987.297-4.672.566l1.614 51.962c30.016-.708 59.452-1.416 88.704-2.237.694-4.262 1.034-116.2-.51-118.89-23.276-.368-46.737-.849-70.255-1.005-.142 1.784-.142 2.96-.326 4.022-.665 5.564-2.704 7.376-8.197 7.56-5.225.127-10.478.113-15.872.128-3.2.056-6.386.113-9.855.254-.17 1.643-.255 3.13-.212 4.432.014 5.975.071 12.092-.043 18.095-.085 4.984-1.939 6.895-6.753 6.923-11.327.17-22.597.043-33.967.085-4.531-.042-6.697-2.279-7.093-6.853-.17-3.015-.298-5.904-.425-8.792a927 927 0 0 1-.482-14.91c-4.148-.282-7.999-.495-11.808-.58-5.324-.283-10.845-.24-16.24-.793-6.116-.537-7.858-2.873-7.844-8.707.071-1.472-.028-3.058.085-4.984l.27-.07zm108.058 5.239c-.07-9.755-.254-18.746-.269-28.232-2.067-.071-3.879-.354-5.635-.354-8.212-.156-16.41-.312-24.65-.609-4.573-.184-6.173-1.968-6.4-6.442-.368-5.593-.594-11.228-.849-17.005-.227-3.299-.326-6.626-.666-10.336-8.382.326-16.282.821-24.381 1.657-.042 2.194-.212 3.851-.113 5.423-.014 7.008.071 13.833.042 20.841.029 4.814-1.798 6.867-6.47 7.433-2.988.298-6.187.369-9.232.383-5.975.014-11.95.042-18.618.227-.085 8.48-.114 16.65-.142 24.833a87 87 0 0 1 2.719.354c7.829.397 15.617.666 23.418.92 5.876.157 8.75 2.365 9.515 9.6.141.553.099.991.099 1.586.198 5.493.24 11.03.439 16.523.24.963.368 2.096.75 3.03 8.963-.326 17.614.453 26.307-.382 0-1.161.113-1.926.212-2.676-.014-6.556-.17-13.083.128-19.567.085-4.984 2.251-6.825 7.334-6.924 3.327-.1 6.697-.057 10.067 0 5.394-.014 10.789-.042 16.579-.156l-.169-.099zm-13.648 132.439-57.966-.254c-4.913 13.167-10.194 26.009-14.98 39.729l85.504 1.911a3794 3794 0 0 0-12.558-41.386m-5.806-63.614-20.53.113c.015 17.783.085 35.128.34 52.713h21.875l-1.713-52.968zm-30.724 52.67c-.198-17.897-.085-35.128-.481-52.684l-17.897.198c-.113 17.826-.538 34.986-.453 52.472l18.675.056.142-.028z"/><path fill="#102185" d="M204.706 122.995c-4.12-1.316-7.136-3.483-7.193-8.438.057-5.706-.042-11.369.184-16.962.184-3.979 2.351-6.414 6.471-6.853 3.44-.269 6.938-.255 10.336-.07l31.219.594c5.706.042 7.83 2.152 8.014 7.646.184 6.668.382 13.323.425 20.02.028 4.219-1.94 6.315-6.06 6.159-14.144-.581-28.331-1.317-42.334-1.94-.269.071-.751-.099-1.062-.17zm25.981-9.33 13.153.694c-.085-4.503-.283-8.241-.34-12.601l-12.7-.071c.057 4.361-.056 8.042-.071 12.119l-.028-.141zm-10.747-.411c.142-4.12.128-7.759.269-11.879l-11.85-.142c0 4.092-.014 7.59-.099 11.398l11.638.482.028.141zM34.675 125.501c-4.73-1.458-7.405-4.007-7.264-8.707.085-6.145.028-12.262.255-18.435.156-4.7 2.28-6.697 7.122-6.57 6.867.057 13.904.213 20.813.397 6.315.184 12.63.383 18.916.425 6.286.057 8.85 2.18 9.359 8.339.425 5.876.58 11.809.439 17.684-.043 4.531-2.733 7.235-7.235 7.334-13.564 0-27.157-.141-40.763-.283-.41.099-1.034-.042-1.515-.212l-.142.028zm38.794-10.024c-.198-4.332-.283-8.24-.41-12.289l-12.602-.241c-.085 4.389-.155 8.212-.141 12.431l13.11-.028.029.141zm-23.928-.071c.425-4.191.397-8.41.07-12.7l-11.708-.17c0 4.673.085 8.58.099 12.814l11.54.07zM84.74 163.447c-.737 4.12-3.073 5.861-7.575 5.96-7.278.043-14.556.1-22.017.043-6.556.014-13.111.028-19.68.056-4.39-.085-6.528-1.6-7.023-5.989-.34-3.709-.524-7.447-.41-11.128-.03-2.478-.058-4.942.084-7.32.057-5.706 2.874-8.439 8.538-8.524 10.789-.042 21.563-.085 32.352-.113 3.2-.057 6.386-.113 9.614-.043 3.54.142 5.62 2.11 5.72 5.437.156 6.528.312 13.055.326 19.61.028.722-.071 1.472-.071 2.053l.142-.028zm-10.45-4.56c-.198-4.332-.212-7.971-.34-12.02l-12.671.071c-.114 4.261-.227 7.928-.241 12.02l13.11-.028.142-.028zM50.76 146.909l-11.88.312.043 11.95 11.61-.241.24-12.021zM205.371 168.784c-3.908-1.076-6.513-3.341-6.81-6.923-.354-6.768-.312-13.635-.043-20.261.142-2.959 2.209-4.63 5.48-4.998 3.129-.34 6.456-.425 9.543-.312 10.958.057 21.776.156 32.763.368 5.253 0 7.858 2.294 8.155 7.618.397 6.315.623 12.53.708 18.788.127 3.469-2.279 5.522-6.329 5.65-4.46.226-8.991.184-13.493.269l-26.208.198c-1.444.07-2.775-.042-3.808-.085l.07-.312zm38.724-10.888c.255-3.709.057-7.447-.411-11.128h-12.403c-.042 3.95-.226 7.348-.17 11.128l12.942-.141.028.141zm-23.56.283.071-11.539h-11.809c0 4.092-.014 7.589-.07 11.539l11.681.029.141-.029zM167.016 216.032c-.383 1.401-1.275 2.506-2.379 3.355-1.133.722-2.648 1.091-3.993.991-1.232-.283-2.293-1.033-3.015-2.166-.723-1.133-1.02-2.379-.751-3.61a5.1 5.1 0 0 1 .694-1.926c.41-.68.892-1.09 1.373-1.501.623-.439 1.275-.75 1.997-.778.693-.17 1.401-.199 2.024-.057a6.2 6.2 0 0 1 1.784.722c.51.311 1.091.892 1.374 1.416.41.481.58 1.175.75 1.855s.028 1.302-.071 2.053l.213-.34zM123.619 225.73c.623.141 1.274.41 1.812.863s1.091.892 1.374 1.416c.41.482.58 1.175.75 1.855s.028 1.303-.071 2.053c-.41 1.274-1.175 2.336-2.449 3.086-1.133.723-2.549.921-3.809.51a6.2 6.2 0 0 1-1.784-.722c-.552-.453-.963-.934-1.373-1.416s-.581-1.175-.751-1.854c-.169-.68-.028-1.303.114-1.926.141-.623.41-1.274.863-1.812.454-.538.935-.963 1.416-1.374.652-.311 1.175-.58 1.898-.609.693-.17 1.302-.028 1.925.114l.099-.17zM146.471 222.572c1.232.283 2.464 1.133 3.186 2.28.722 1.132.92 2.548.637 3.78s-1.147 2.464-2.279 3.186c-1.133.722-2.549.92-3.781.637-1.231-.283-2.463-1.133-3.185-2.28-.722-1.132-.921-2.548-.637-3.78.283-1.232 1.146-2.463 2.279-3.186s2.549-.92 3.78-.637M128.179 220.534c-1.232-.283-2.294-1.034-2.846-2.067-.68-.991-.85-2.266-.708-3.469.283-1.232.892-2.266 1.897-2.945a5.12 5.12 0 0 1 3.441-.85c.623.142 1.231.284 1.784.723.509.311 1.061.764 1.33 1.274.411.481.581 1.175.723 1.713.169.694.169 1.274.028 1.883a6.2 6.2 0 0 1-.722 1.784c-.312.51-.793.92-1.274 1.331-.482.41-1.176.58-1.714.722a4.2 4.2 0 0 1-1.883.028l-.028-.141zM169.535 227.372c.623.142 1.133.454 1.643.765.51.312.92.793 1.203 1.303.269.509.552 1.033.581 1.755.141.552 0 1.161-.142 1.784a6.2 6.2 0 0 1-.722 1.784q-.467.765-1.444 1.232c-.51.269-1.175.581-1.756.581-.552.141-1.302.028-1.954-.241-1.231-.283-2.166-1.076-2.746-2.237-.553-1.034-.708-2.308-.439-3.54.283-1.232 1.076-2.166 2.208-2.874 1.034-.552 2.266-.85 3.498-.581z"/></svg>