<svg xmlns="http://www.w3.org/2000/svg" width="394" height="218" fill="none" viewBox="0 0 394 218"><path fill="#102185" d="M39.262 96.805c.043-4.814.07-8.92.1-13.026 0-.85.438-1.7 1.005-2.534C45.832 70.526 51.424 59.95 56.89 49.232c.141-.425.424-.85.722-1.133 2.435-2.959 3.85-3.511 6.952-1.925 2.959 1.302 5.635 3.44 7.603 6.003 4.615 6.683 9.529 13.238 14.286 19.935.566.708 1.118 1.43 1.685 2.138 14.357-8.382 28.034-17.769 43.226-24.452-.552-1.557-.977-2.704-1.246-3.978-1.387-3.979-1.784-8.368-.892-12.474.878-4.248 2.889-8.042 5.749-11.143 2.138-2.676 4.984-4.63 8.254-5.89.567-.141 1.133-.552 1.572-.977.425-.425.722-.99.863-1.557 2.464-7.915 8.439-11.837 16.099-13.465 3.964-.68 7.929-.227 11.737 1.076 1.133.297 2.124.722 3.243 1.02a6.1 6.1 0 0 0 2.265.014c3.965-.538 7.929.34 11.313 2.633s5.762 5.564 6.725 9.543c1.232 4.97.92 10.067-.821 14.867 1.699 0 3.398-.114 4.955-.383a29 29 0 0 1 11.044.085c2.549.44 5.097.609 7.788.906 2.407.298 4.672.737 6.923 1.048 1.416.297 2.69.297 4.106.311 6.513-.523 12.899-1.741 19.284-3.54 8.934-2.618 17.883-5.096 26.958-7.588 5.536-1.657 11.058-2.747 16.877-3.412 1.416 0 2.691-.41 3.965-.538 5.522-.383 10.463 1.5 15.263 3.653 4.092 1.727 7.9 3.879 11.568 6.456.566.425 1.132.722 1.826 1.005 6.853-7.306 13.564-14.484 20.275-21.79a13.9 13.9 0 0 1 2.563-2.393c.991-.835 2.279-1.26 3.412-1.104 1.274 0 2.407.58 3.242 1.586 2.662 3.129 5.338 6.13 8 9.26 3.087 3.709 6.032 7.404 9.118 11.114 3.781 4.7 7.717 9.26 11.511 13.96 1.26 1.572 1.954 3.554 1.94 5.678-.071 8.495-.127 17.132-.34 25.627-.042 5.38-.651 10.619-.977 16 0 .707.269 1.557.694 2.123 1.954 3.554 3.483 7.39 4.587 11.355a80.7 80.7 0 0 1 2.436 14.314c.269 1.841.396 3.823.524 5.664-.326 6.513-2.223 12.728-5.664 18.222-5.154 7.886-11.582 14.923-18.987 20.672-9.967 8.282-21.761 12.714-33.825 16.877-5.111 1.656-10.222 3.468-15.192 5.691-7.532 3.483-14.498 7.816-21.054 13.012-6.839 5.607-13.96 10.945-21.351 15.702-6.825 4.191-14.074 7.405-22.144 8.042-4.814.382-9.77.212-14.584-.396-11.596-1.784-22.753-5.409-34.065-8.326-12.007-3.058-24.028-6.413-36.176-9.33a219 219 0 0 0-19.227-3.54c-4.673-.594-9.345-.212-13.734.892-10.775 2.605-21.564 5.083-32.197 7.547-4.403.962-8.792 2.053-13.196 2.874-6.385 1.373-13.04 1.034-19.397-.991-3.526-1.161-6.485-3.299-8.736-6.301-4.205-5.55-8.127-11.525-11.483-17.641-4.332-8.241-11.072-15.093-19.256-19.681-3.808-2.01-7.475-4.304-11.284-6.315-.708-.424-1.557-.297-2.265-.58-6.782-2.747-12.686-7.178-17.175-13.012C.95 140.003-.014 137.313 0 134.339c.028-3.964.906-7.929 3.908-10.874a247 247 0 0 1 12.828-11.794c3.426-2.945 6.697-6.173 10.675-8.268 3.13-1.671 6.258-3.214 9.387-4.743a45 45 0 0 0 2.846-1.53l-.424-.283zm112.703 36.826c.694 2.266 1.246 3.979.382 5.805-.141.708-.297 1.558-.155 2.407-.057 6.655-.666 13.309-1.572 19.95-.453 3.823-2.591 6.074-6.697 6.456-2.124.269-4.248.538-6.371.524-7.788.226-15.575.453-23.504.382-3.54-.028-7.221-.481-9.741-3.469-9.387 5.168-20.714 23.773-21.337 32.126 2.407.014 4.672-.396 6.938-.651 8.509-1.77 17.018-3.554 25.386-5.465 9.076-2.053 17.882-5.239 27.369-5.876 2.265-.269 4.531-.397 6.796-.227 5.805.751 11.596 1.643 17.259 2.818 9.189 2.053 18.378 4.248 27.553 6.725 12.29 3.214 24.452 6.556 36.742 9.77 6.923 1.897 14.003 2.789 21.082 2.562 5.239-.24 10.35-1.614 14.895-3.851 6.824-3.624 13.224-7.829 19.213-12.742 5.848-4.914 11.964-9.402 18.364-13.31 7.249-4.474 14.923-7.957 23.022-10.732 6.244-1.94 12.346-4.29 18.463-6.654 6.527-2.648 12.644-6.273 17.925-10.902 5.408-4.489 10.123-9.557 14.272-15.037 3.582-5.21 6.031-11.001 5.508-17.372-.255-3.682-1.077-7.377-1.615-11.058-1.09-6.244-3.454-12.205-6.668-17.614-8.354-.34-16.708-.693-24.906-1.033-4.955-.043-10.052-.071-15.008-.255-5.663-.043-11.327-.368-16.99-.694-2.973-.028-4.233-1.302-4.786-4.29-.269-1.699-.538-3.398-.524-4.955.057-7.93.114-15.716.043-23.645v-2.69c-.099-2.549-.368-4.956-.354-7.504.014-2.549 1.034-5.367 4.29-6.202.566-.142 1.133-.552 1.572-.977.424-.425.863-.991 1.005-1.543-4.078-2.86-8.453-5.31-13.111-7.179-3.384-1.585-7.207-2.038-10.888-1.5-4.955.665-9.925 1.77-14.753 3.143-10.081 2.902-20.148 5.65-30.087 8.41-7.943 2.35-16.17 3.27-24.382 2.93h-1.982c-1.005 1.247-1.855 2.521-2.718 3.64-4.149 4.927-7.306 10.704-9.331 16.778-4.049 11.44-8.382 22.88-14.555 33.442-3.724 6.202-6.895 12.686-12.035 18.038a60 60 0 0 1-10.831 9.826c-4.559 2.945-9.671 5.027-14.499 7.25-2.846 1.245-5.55 2.789-8.382 4.332l-.283.142zm-78.481 62.27c2.194-8.623 6.074-16.665 11.51-23.702 2.86-3.794 5.58-7.744 9.572-10.548 2.563-1.826 5.267-3.497 7.83-5.182-.241-6.088-.623-12.176-.85-18.264.028-2.974.892-5.947 2.605-8.34 1.43-2.251 3.002-4.219 4.304-6.626 4.021-7.334 9.727-13.38 15.575-19.284 3.002-3.087 6.386-2.789 9.203.92.566.708.977 1.572 1.543 2.28 3.639 5.55 7.278 11.242 10.917 16.792.425.708.977 1.288 1.26 1.571 4.686-2.378 9.246-4.884 13.79-6.697 8.524-3.185 14.938-8.948 20.361-15.843 1.288-1.543 2.293-3.1 3.284-4.644 2.436-4.092 4.729-8.311 7.037-12.403 4.021-7.193 6.768-14.951 9.798-22.725 1.444-3.95 2.747-7.914 4.333-11.723 2.152-4.658 4.884-9.019 8.452-12.828-5.649-1.033-11.468-.934-17.132.44-.297 1.84-.311 3.539-.75 5.238-1.175 5.508-4.46 9.6-8.311 13.394-.708.566-1.289 1.402-1.714 2.251-.424.85-.58 1.84-.594 2.832-.057 8.07-.128 16.14-.184 24.353 0 1.557-.453 3.115-.595 4.672-.156 2.407-1.869 3.526-3.851 4.22-1.133.41-2.407.693-3.681.679-6.372.807-12.757 1.742-19.129 2.549-1.557.127-3.114-.17-4.375-1.02-1.274-.864-2.109-2.28-2.52-3.695-.269-1.558-.538-3.115-.679-4.673-.666-6.371-1.317-12.898-1.983-19.27-.269-1.982-.538-4.106-.665-6.088 0-.99-.269-1.84-1.402-1.996-3.115-.453-6.074-1.883-8.325-4.163-.425-.424-.85-.708-1.416-.722s-1.133 0-1.557.41c-.708.426-1.416.695-2.138 1.12-8.382 4.474-16.778 9.075-24.75 14.116-5.55 3.638-11.383 6.994-16.778 10.208-.311 4.106-.764 8.07-1.076 11.879-.326 5.239-.651 10.477-.963 15.716-.17 2.832-.467 5.663-.778 8.495-.312 3.965-2.167 5.649-6.131 5.621h-.708c-11.185-.085-22.37-.17-33.414-.396-1.416 0-2.974-.312-4.248-.737-.85-.283-1.7-.863-2.251-1.571-.552-.708-.836-1.558-.836-2.549-.254-3.115-.382-6.23-.637-9.486 0-1.133.014-2.265-.113-3.398-4.262 1.529-8.24 3.766-11.667 6.569-4.984 4.347-10.123 8.708-15.107 13.196-1.288 1.119-2.421 2.393-3.285 3.795a6.18 6.18 0 0 0-1.16 3.525c-.015 1.275.551 2.407 1.387 3.413.424.566.977 1.005 1.401 1.43 3.937 3.851 8.439 6.866 13.522 8.877 4.092 1.869 8.184 3.879 11.992 6.173 9.161 5.168 16.892 12.87 22.201 21.974 3.073 5.126 5.862 10.52 9.515 15.221 1.401 1.713 2.803 3.285 4.488 4.842l-.142-.142zm106.274-143.2c.85-.85 2.138-2.393 3.427-3.795 1.855-1.826 3.143-4.22 3.738-6.768.594-2.548.325-5.238-.51-7.645-.552-1.275-.694-2.549-.679-3.965s.438-2.69 1.019-3.95c1.444-2.817 1.317-5.79 1.062-8.622 0-1.416-.68-2.832-1.529-3.837a6.62 6.62 0 0 0-3.526-2.153c-.991-.297-1.982-.297-3.115-.028-2.69.41-5.38-.042-7.914-1.048-2.549-.863-5.225-1.316-7.915-1.189-1.982-.014-3.965.68-5.678 1.94-1.713 1.118-3.001 2.803-3.723 4.785-.284.567-.439 1.275-.581 1.983-.297 1.557-.878 2.973-2.011 4.091-1.146 1.119-2.421 1.827-3.978 2.238-3.257.68-5.267 3.072-7.263 5.323-2.138 2.535-2.592 5.933-2.62 8.906-.028 3.964 1.501 7.66 4.163 10.506 1.26 1.43 2.817 2.576 4.502 3.284 3.243 1.02 6.641 1.19 10.053.496 1.274-.127 2.548-.269 3.823.028 2.407.014 4.814.468 7.079.34 3.681-.255 7.504-.51 12.049-.906h.142zm196.056 25.698c.297-2.124.594-3.965.75-5.805.056-7.788.255-15.575.453-23.22 0-.85-.128-1.558-.269-2.407l-27.043-.199c-4.389-.028-9.062-.495-13.592-.665-4.531-.028-9.062-.354-13.734-.1l-.029 2.974c.114 3.681.368 7.22.482 10.902-.043 4.956-.071 9.77-.113 14.725 0 .85-.001 1.7.113 2.832 17.698-.298 35.241 1.26 52.953 1.104V78.4zM81.794 88.777c-4.247-.312-7.928-.765-11.61-.935-6.088-.325-12.176-.65-18.406-.99-.566 0-1.132-.156-1.699-.298H48.38c.496 9.614 1.133 18.973 1.628 28.317l29.45.793c.298-1.133.44-2.407.595-3.54.326-5.238.651-10.477.963-15.574v-1.416c.311-2.124.467-4.106.765-6.371zm61.067 51.58-27.185-.199a25.7 25.7 0 0 0-4.672.822c.255 2.973.524 5.805.779 8.636.255 2.832.524 5.664.637 8.496v.707c0 .284.127.425.41.567.142.141.425.283.567.425h.708l1.699.014c7.221-.227 14.442-.312 21.663-.538 1.415-.128 2.831-.397 4.106-.822.325-6.088.793-11.893 1.132-18.108zM352.367 13.793c-5.706 5.196-19.129 20.105-20.417 22.498 13.153 1.232 26.335.906 40.055 1.288L352.367 13.92v-.141zM176.007 62.3c-3.399.255-6.372.666-9.345.637-2.974-.028-5.947-.325-9.345-.495.637 9.203 1.841 17.854 3.058 26.788l15.447-2.152zM79.742 78.993 63.77 56.637 52.996 77.365c9.061.354 17.684 1.543 26.887 1.614h-.141zm58.659 51.552c-3.78-5.834-7.136-11.242-10.775-16.368-5.55 4.489-9.132 10.124-12.445 16.184l23.362.17h-.142z"/><path fill="#102185" d="m207.665 164.483-5.522-.043c-.991 0-2.123-.297-2.973-.877-.849-.567-1.402-1.572-1.685-2.563-.41-1.274-.552-2.69-.538-4.106.028-3.964.057-7.929-.056-11.752.028-4.672-.213-9.203-.468-13.875-.127-1.699.029-3.398.751-5.097.58-1.558 1.727-2.959 3.001-4.219 3.285-3.087 6.414-6.329 9.557-9.558 5.282-5.337 10.421-10.675 15.702-16.169.425-.425.85-.85 1.289-1.26 2.86-3.086 5.833-3.497 9.345-.637 1.543 1.288 3.1 2.435 4.644 3.568l21.252 17.004c3.384 2.719 6.753 5.437 10.137 8.142 2.393 1.996 2.804 4.134 1.643 7.093-.298.991-.581 1.982-.595 2.973v1.699c-.354 7.221-.552 14.301-.878 21.522 0 1.274-.297 2.548-1.161 3.525-.863.991-1.996 1.685-3.27 1.812-.425 0-.85.142-1.416.128-5.381.24-10.761.481-16.141.58-6.372.241-12.884.468-19.256.708-4.531.114-8.92.354-13.451.609-3.256.113-6.654.51-9.911.779zm55.601-31.574c-3.256.255-6.088.524-8.92.496-12.601-.099-25.344-.198-37.945 0-3.398-.029-6.796.368-10.336.623l-.028 3.539c.099 4.956.354 9.911.453 14.867 0 .708.128 1.557.269 2.548 4.531-.254 8.92-.637 13.168-.75 4.955-.241 9.769-.496 14.725-.595 7.645-.226 15.149-.453 22.654-.679 1.84 0 3.822-.397 5.663-.666l.142-19.255.141-.142zm-31.361-29.407-19.553 19.822v.283c0 .142.141.283.283.425h2.549c5.663-.085 11.185-.326 16.848-.425 7.08.057 13.876.099 20.955.156l3.257.028v-.566c-7.873-6.57-16.042-13.012-24.339-19.723M252.321 81.004c.029-3.823.057-7.646-.198-11.469 0-.99.014-1.982.312-2.831.297-.85.863-1.7 1.571-2.393 4.559-4.644 9.274-9.133 13.975-13.635 2.704-2.534 5.564-5.055 8.552-7.292 1.288-.977 2.562-1.684 4.12-2.237a3.82 3.82 0 0 1 2.831-.255c.992.298 1.7.864 2.252 1.714 1.118 1.43 2.095 2.987 3.086 4.417 3.073 4.7 6.018 9.67 9.373 14.23 3.639 4.842 3.738 10.364 3.271 16.027-.311 4.106-.906 8.354-1.373 12.445-.015 2.266-.453 4.531-.765 6.797-.595 2.831-1.741 5.507-5.989 5.196l-16.552-1.402h-.991c-4.813-.326-9.486-.51-14.3-.963-1.699 0-3.398-.311-5.097-.75-.991-.297-1.841-.864-2.534-1.572-.708-.85-.977-1.713-1.105-2.846-.255-4.247-.495-8.636-.609-12.884h.284l-.142-.283zm9.43 8.424c5.097.467 9.614 1.204 14.428 1.388 4.672.028 9.472 1.062 14.017.948.609-5.238 1.203-10.038 1.67-15.135-5.097-.892-10.038-1.062-14.852-1.53s-10.039-1.486-15.136-1.245l-.113 15.716v-.142zm19.256-37.379c-3.412 2.38-12.403 10.662-13.55 12.644 3.823.312 7.504.906 11.171 1.076 3.681.17 7.49 1.473 11.61.51zM306.28 117.094c6.725-9.288 17.925-11.61 28.346-3.044a19.7 19.7 0 0 1 8.24-3.624c5.253-1.232 9.911-.354 13.706 3.638 2.534 2.563 4.205 5.834 5.026 9.388a24.33 24.33 0 0 1-.807 13.875c-.439 1.416-1.147 2.534-2.294 3.526-1.147.976-2.421 1.543-3.837 1.67-3.964.68-8.084.935-12.049 1.331-12.049 1.048-24.069.382-35.963.581-1.982-.015-3.823.254-5.663.665-2.69.835-4.814-.609-6.924-1.614-1.699-.722-2.251-2.704-2.237-4.262-.255-3.964-.51-7.929.651-11.751 1.586-4.659 4.446-8.326 9.416-9.841 1.557-.269 3.115-.538 4.672-.538zm-5.239 18.647c2.549-.269 4.673-.679 6.797-.651 11.751.085 23.503.184 35.255-.581 2.548-.127 4.955-.382 7.362-.651.425 0 .708-.141 1.133-.41.283-.284.566-.567.58-.992q.872-2.76.468-5.521a14.6 14.6 0 0 0-1.798-5.253c-.425-.708-.977-1.289-1.685-1.713s-1.416-.581-2.266-.581a11.4 11.4 0 0 0-6.668 2.067c-1.572.977-3.13 1.954-4.546 2.804-.566.283-1.132.41-1.698.552-.567 0-1.275 0-1.841-.297-1.699-.581-3.101-1.728-4.078-3.285-.694-.991-1.685-1.714-2.676-2.28-1.132-.58-2.265-.864-3.398-.878s-2.407.128-3.398.68c-1.133.411-2.138 1.118-2.846 2.095a28 28 0 0 0-2.435 3.243c-2.294 3.242-3.285 3.653-7.377 2.775-1.982-.439-2.548-.014-3.695 1.671-1.289 2.109-1.303 4.375-1.048 7.206z"/></svg>