<svg xmlns="http://www.w3.org/2000/svg" width="374" height="325" fill="none" viewBox="0 0 374 325"><path fill="#102185" d="M124.292 247.057c-5.055-.736-9.472-1.147-13.791-1.883-11.015-1.713-21.323-6.301-29.945-13.394-7.957-6.655-11.808-15.122-10.265-25.528.481-3.412 1.09-6.853 2.01-10.208 1.643-6.244 3.625-12.262 5.437-18.407 3.88-12.459 7.618-24.89 9.416-37.661 1.911-12.941 3.228-25.896 2.506-39.036-.212-3.992-.991-7.886-1.345-11.865-.552-5.663-1.345-11.142-1.614-16.862-.128-3.582 1.373-6.91 2.577-10.322 2.095-6.187 7.263-8.51 12.615-10.59 9.387-3.597 19.199-3.668 28.827-2.408a152 152 0 0 1 48.324 13.65c2.222 1.004 4.544 1.84 6.654 3.015 8.325 4.12 13.649 10.576 15.221 19.935.906 5.31.155 10.945-2.053 15.858-2.591 5.862-5.494 11.624-8.241 17.373l-2.534 5.408c.609.17 1.076.368 1.331.17 6.414-1.855 11.992.071 16.934 3.851 3.214 2.393 6.215 5.126 8.679 8.099 4.658 6.003 11.483 9.84 18.888 10.831 11.737 1.713 23.545 3.696 35.453 5.522 22.455 3.342 45.081 6.06 67.183 11.214 9.514 2.152 19.043 4.304 27.779 9.061 2.548 1.232 4.8 3.087 6.654 5.168 5.494 6.556 2.62 15.362-5.606 17.571-3.554.991-7.363 1.458-11.058 1.033-11.412-.764-22.739-1.84-34.123-3.185-22.314-2.648-44.529-5.451-66.8-8.538-10.378-1.401-20.743-3.384-31.178-5.069-2.392-.396-4.771-.778-7.249-.878-3.964-.368-7.971.567-11.468 2.563a366 366 0 0 1-5.692 3.299c-5.338 2.931-10.86 4.899-17.585 1.614l1.133 5.692c1.161 7.277 2.562 14.357 3.44 21.691.467 3.809-.34 7.716-.595 11.525-.679 9.656-6.159 15.518-14.739 18.803-3.638 1.302-7.362 2.18-10.973 3.624 5.635.043 11.129.099 16.75 0 11.695 0 23.376-.014 35.043-.17 3.893-.056 7.532-.623 11.355.496a23.84 23.84 0 0 1 9.486 4.899c6.131 5.423 10.067 12.148 12.743 19.85 2.209 6.06 2.733 12.304 3.242 18.548.652 7.66.722 15.306.963 23.05l.142.694c-.043 6.357-1.841 8.155-8.311 8.297-35.015 1.033-70.057.481-105.043.92-22.045.184-44.09.382-66.164.425-7.504.042-15.192-.156-22.739-.397-4.36-.141-6.654-2.293-7.631-7.15l-.085-.41c.609-12.969-1.572-26.109 1.175-39.205 1.572-6.669 4.375-12.856 8.637-18.308 6.145-8.296 14.57-11.694 24.848-11.567 16.353.212 32.792.127 49.258.184.836-.17 1.671-.326 2.478-.637l-.34-.227zm113.751 66.206c.325-12.191-.184-24.211-3.115-36.048-1.487-6.06-4.588-11.497-8.948-15.985-1.445-1.444-3.13-2.704-5.027-3.483s-3.993-1.232-5.989-1.119c-20.332.142-40.508.241-60.698.354l-67.339.368c-2.888 0-5.607.1-8.495.1-2.747-.029-5.465.07-8.113-.128-6.824-.226-12.049 3.257-16.112 8.977-5.82 8.509-6.797 18.094-6.867 27.92-.043 5.636.212 11.214.34 16.962.056 1.006.382 1.94.467 3.087 59.424 1.203 118.678-.595 177.96-.099 3.894-.057 7.83-.538 12.077-.949l-.141.029zM99.514 109.79l78.538 12.417c1.643-3.356 3.314-6.57 4.956-9.94 2.449-5.111 5.069-10.095 7.221-15.291 4.063-10.053.113-19.072-9.713-23.475-1.741-.807-3.61-1.444-5.352-2.251a143.2 143.2 0 0 0-44.996-12.87c-7.603-1.232-15.433-.694-22.852 1.217-6.556 1.883-11.37 6.726-11.044 14.173.085 1.855.184 3.865.41 5.692.793 6.909 1.728 13.804 2.492 20.572.241 3.412.326 6.726.34 9.741zM87.58 177.694c-2.478 8.58-4.885 16.849-7.009 25.061-.722 2.888-.864 5.805-.85 8.835.185 6.753 4.376 11.114 9.275 14.753 6.54 4.616 13.96 7.773 21.889 9.217 11.185 1.827 22.455 2.62 33.782 2.251 6.216.071 12.304-.566 18.364-2.052 7.971-2.011 10.888-5.48 11.738-13.593.736-8.665 0-17.471-2.266-25.967-1.048-4.559-1.161-4.389-5.762-5.068-18.761-2.917-37.535-5.834-56.323-8.892-7.335-1.288-14.711-2.86-22.824-4.417l-.029-.142zm81.185 3.95c-.764-8.948-1.246-17.217.128-25.57 1.401-8.212 3.129-16.212 4.955-24.509-24.848-4.445-49.668-8.764-74.956-11.836a196.7 196.7 0 0 1-8.424 48.436c26.094 5.65 51.877 9.77 78.283 13.338l.029.141zm195.093 3.299c-1.105-2.662-3.158-3.554-5.069-4.474-8.765-4.177-18.123-6.216-27.61-8.226-23.234-5.055-46.865-7.731-70.241-11.327-11.907-1.826-23.758-4.092-35.595-6.215-4.361-.864-8.24-2.988-11.426-5.961-2.308-2.138-4.219-4.503-6.484-6.513-2.521-2.535-5.154-4.899-8.042-7.065-1.218-1.062-2.804-1.756-4.418-1.869a9.2 9.2 0 0 0-4.715.934 36 36 0 0 1-5.309 2.35c-.977.199-1.699.921-2.28 1.615s-.977 1.642-1.062 2.661c-1.203 7.023-2.407 14.046-3.893 21.125-.921 4.8.566 8.693 3.341 12.474 3.129 4.148 5.579 4.814 10.293 2.435a156 156 0 0 0 8.057-4.488c3.865-2.351 8.396-3.54 12.912-3.285 3.328.057 6.726.397 9.996.906 14.442 2.195 28.842 4.956 43.227 6.867 19.44 2.633 38.95 4.97 58.433 7.164 10.321 1.133 20.6 1.968 31.007 2.79 3.115.396 6.301-.241 8.892-1.77l-.029-.142zM281.68 47.238a18.5 18.5 0 0 1-1.869 3.695c-1.416 1.586-2.888 2.888-4.701 3.964-12.459 8.538-25.103 16.82-37.718 25.245a12.4 12.4 0 0 1-2.747 1.416c-.935.34-2.082.41-3.002.156-.92-.255-1.911-.92-2.52-1.813s-.807-1.855-.722-2.888c.085-1.034.481-1.968 1.331-2.718a23.6 23.6 0 0 1 3.61-2.889c9.812-6.57 19.652-12.998 29.464-19.553 3.554-2.435 6.811-4.955 10.209-7.504 1.501-1.16 2.916-2.024 4.885-1.543s3.086 1.699 3.624 4.474l.142-.029zM216.14 66.875c-4.163.82-7.051-2.067-6.273-5.395.425-1.529 1.175-2.831 1.926-4.134 8.014-13.422 15.843-27.1 22.583-41.145.496-1.104 1.203-1.968 1.897-2.832a5.16 5.16 0 0 1 2.605-1.387c.963-.198 2.025.028 2.832.453s1.558 1.274 2.025 2.195.382 1.94.297 2.973a25 25 0 0 1-1.317 3.582 2723 2723 0 0 1-18.93 34.788c-1.472 2.746-3.058 5.663-4.842 8.325-.807 1.02-1.756 2.081-2.747 2.86zM196.827 5.172c.085 3.299.241 7.023.396 10.746.397 10.025.949 20.02 1.317 29.903.057 1.728-.141 3.639-.679 5.324-.34 1.217-1.034 2.081-2.053 2.718a4.66 4.66 0 0 1-3.328.666c-2.421-.538-3.469-2.195-3.596-5.055-.481-11.88-.821-23.8-1.303-35.68-.113-2.718-.354-5.408-.297-8.027 0-3.61 1.614-5.664 4.347-5.763 2.732-.1 4.658 1.67 5.239 5.31l-.029-.142zM45.089 115.934c1.359 2.322 1.6 3.823.75 5.465-.51.793-1.104 1.473-1.84 1.898-.737.424-1.799.566-2.634.566-.892-.128-1.67-.326-2.591-.779-11.37-4.8-22.626-9.684-33.995-14.484-.85-.326-1.642-.835-2.365-1.232C.15 105.74-.559 103.701.446 101.79c.992-2.223 3.158-3.016 5.89-1.997 2.662.892 5.395 1.912 7.943 2.889 9.274 3.738 18.492 7.688 27.751 11.426 1.119.495 2.18 1.189 3.115 1.939l-.07-.127zM55.311 90.86c1.218 2.067 1.402 3.78.496 5.295-.397.722-1.105 1.472-1.912 1.784-.736.425-1.684.496-2.647.24-1.09-.183-2.209-.679-3.313-1.175a2920 2920 0 0 1-28.912-15.348c-.92-.439-1.784-1.09-2.535-1.798-.793-.51-1.302-1.373-1.557-2.364s-.128-1.897.311-2.818c.637-.863 1.416-1.486 2.35-1.869.92-.382 2.068-.396 3.116-.028.382.1.65.27 1.118.496 10.25 5.14 20.7 10.321 31.022 15.588a13.6 13.6 0 0 1 2.605 1.912l-.128.07zM61.598 67.781c1.656 2.803 1.614 4.97-.057 6.598-.835.821-1.826 1.076-2.902 1.218-1.147.014-2.18-.354-3.059-.991-3.469-2.55-6.852-5.494-10.208-8.127-4.22-3.271-8.51-6.655-12.743-9.911-2.407-1.87-3.072-4.106-1.883-6.287.623-1.19 1.642-1.954 2.888-2.35s2.648-.241 3.71.439c1.303.552 2.435 1.359 3.582 2.166 6.06 4.984 12.035 9.84 18.08 14.824.935.764 1.756 1.6 2.45 2.492l.127-.071z"/></svg>