<svg xmlns="http://www.w3.org/2000/svg" width="222" height="222" fill="none" viewBox="0 0 222 222"><path fill="#102185" d="M185.067 45.845c2.251 5.027 4.148 9.345 6.046 13.664 5.338 11.666 10.647 23.46 15.985 35.127.41 1.02 1.147 1.997 1.911 2.846.949.75 1.643 1.855 2.011 3.016s.255 2.463-.128 3.667c-2.208 5.536-4.474 11.199-7.221 16.565-2.01 3.965-5.932 5.536-10.222 5.947-5.055.467-10.237.892-15.348 1.048-7.207.226-14.371.311-21.493.269-2.817 0-5.564-.736-7.915-2.223s-4.205-3.568-5.451-6.202c-2.024-3.907-4.446-7.504-6.64-11.327-2.605-4.403-1.841-7.277 1.557-10.944 1.94-2.35 3.384-5.012 4.602-7.9 6.145-12.758 12.261-25.373 18.406-38.116.793-1.529 1.487-3.242 2.478-5.45-16.976-.369-33.627-.34-50.688-.425-.311 45.675-.581 91.223-.807 137.069 1.614.071 3.086.099 4.573.127 7.702.085 15.49-.113 22.994 1.997 12.714 3.468 24.381 8.821 32.848 19.553 1.77 2.35 3.724 4.616 5.55 6.824a7.4 7.4 0 0 1 1.374 2.223c.325.85.339 1.742.212 2.591-.255.807-.51 1.614-1.048 2.336-.538.723-1.288 1.232-1.996 1.586a15 15 0 0 1-6.924 1.657l-69.675-.099H53.094c-1.033-.015-2.11.085-3.129.056-4.22-.311-6.357-3.808-4.672-7.73 2.789-6.4 6.555-12.177 11.2-17.387 5.295-5.89 12.147-9.203 19.821-11.355 7.632-2.025 15.56-2.167 23.348-2.351l3.129-.042.708-137.254-49.938-.48c.822 1.6 1.331 2.802 1.983 4.048 8.438 15.929 16.877 31.843 25.5 47.672 1.09 1.685 1.656 3.653 1.77 5.621a13.36 13.36 0 0 1-.964 5.791c-2.18 4.956-4.488 9.869-7.164 14.513-2.407 4.29-6.555 6.088-11.341 6.187-5.593.297-11.1.326-16.608.34s-10.79-.17-16.212-.425c-2.194-.113-4.346-.354-6.414-.864-2.237-.424-4.318-1.373-6.074-2.831a15 15 0 0 1-4.092-5.324c-1.883-3.865-3.992-7.518-5.918-11.256-2.478-4.8-2.676-9.33.354-14.159 10.053-15.66 19.752-31.602 29.535-47.346.128-.41.439-.906.835-1.67a8 8 0 0 0-2.562-.369c-5.012-.113-10.025.212-14.952-.17-3.766-.311-7.617-.793-11.313-1.826C3.864 41.173-.68 32.14.084 25.995c.07-1.16.694-2.152 1.487-2.79.835-.778 1.869-1.188 2.945-1.287 1.076-.1 2.01.198 2.831.906.864.566 1.459 1.5 1.728 2.491.368 1.161.396 2.507.722 3.795.991 3.88 2.492 5.253 6.343 5.296 8.07.34 16.226.863 24.183.58 4.205-.142 8.127-1.274 12.233.34l48.904.453c.623-.1 1.246-.198 1.742-.34.085-7.25.127-14.37.17-21.493.056-2.506.028-5.196.084-7.702.029-1.034.057-2.067.369-3.002.311-.934.877-1.798 1.628-2.308s1.784-.92 2.676-.934c1.033.028 1.968.34 2.704.864.864.566 1.317 1.458 1.642 2.308.284 1.43.44 2.817.326 4.12l-.085 25.386c.057.765.114 1.515.071 2.548.807.255 1.699.241 2.563.369 16.749.141 33.358.24 50.065.524.849.127 1.784-.029 2.633-.354.85-.326 1.558-.694 2.351-1.331a6 6 0 0 1 1.557-1.133c.538-.269 1.161-.368 1.926-.425.623-.099 1.302.114 1.968.34s1.132.651 1.585 1.104c1.77 1.459 4.107 2.053 6.471 2.068 5.819-.071 11.596 0 17.288-.128 1.656-.07 3.256-.439 4.913-.963 1.118-.24 2.223-.92 3.072-1.699.836-.778 1.458-1.77 1.713-3.015l1.643-5.126c.863-2.704 3.044-3.936 5.281-3.511 1.076.34 2.11.821 2.846 1.798.722.977 1.104 2.138 1.033 3.3-.085 3.539-1.076 7.092-3.185 9.98-1.983 2.931-4.673 5.338-7.844 6.868a28.4 28.4 0 0 1-12.021 2.251c-4.262-.17-8.594-.07-13.79-.1l.226-.226zM165.599 211.6l.297-.948c-2.364-2.393-4.715-4.772-7.391-7.122-3.355-3.002-7.574-4.644-11.723-6.57-5.536-2.661-11.61-4.148-17.741-4.474-12.983-.283-25.839-.524-38.865-.226a65.2 65.2 0 0 0-15.815 2.973c-8.071 2.478-13.324 8.226-17.175 16.07l108.314.099.085.184zm-19.072-105.524a605 605 0 0 1 5.352 8.849c.552 1.062 1.317 1.912 2.322 2.521.991.608 2.11.821 3.327.764 6.273-.085 12.488-.028 18.761-.099 4.658-.156 9.217-.481 13.776-.807 1.968-.113 4.347-.099 5.564-2.081 2.11-2.889 3.455-6.173 4.262-9.642zm-75.21 1.855-53.761-1.996c1.699 3.072 3.03 5.423 4.035 7.829.552 1.515 1.742 2.931 3.087 3.809 1.486.92 3.115 1.444 4.814 1.232 6.187.184 12.36.382 18.406.524 4.432.085 8.948-.114 13.436-.17 2.11-.071 4.163-.453 5.38-2.436 1.53-2.477 2.847-5.182 4.588-8.792zm98.713-50.83-.807-.254c-6.371 12.983-12.785 26.094-19.057 39.686l20.87-.17c-.354-13.337-.694-26.236-1.034-39.12l.043-.141zm-130.599 39.9c1.034-6.513 1.586-33.386.835-36.147-7.291 11.638-14.342 23.064-21.946 35.212l21.14.807-.043.142zm12.007-35.255-.807.184-1.246 35.566 21.464.75-19.412-36.514zm129.155-2.308-.85.325c.283 12.134.623 24.127.963 36.572l16.566-.212z"/></svg>