<svg xmlns="http://www.w3.org/2000/svg" width="284" height="236" fill="none" viewBox="0 0 284 236"><path fill="#102185" d="M267.749 84.249c1.416 7.362 2.832 14.442 4.107 21.662.283 1.841.566 3.823.566 5.664.142 1.274 0 2.548-.85 3.539-.708.992-1.699 1.841-2.831 2.266-3.399 1.274-7.08 2.265-10.761 2.973-4.389.708-6.938-1.133-7.929-5.522-1.557-6.513-2.69-13.026-3.964-19.539-.283-1.699-.567-3.54-.991-5.238 0-.567-.85-.85-1.416-1.275l-.708.284c.283 1.982.708 3.964.991 5.805.566 4.955 1.274 9.911 1.557 14.866.284 4.106-1.557 6.655-5.522 7.787a41 41 0 0 1-8.353 1.275c-3.965.283-6.23-1.558-7.221-5.522-1.416-5.664-2.549-11.327-3.823-16.849-.283-.991-.566-1.982-.85-3.115l-15.999 3.115c-9.061 1.7-18.123 3.54-27.184 5.38-.708 0-1.416.284-1.983.567-.566.424-.991.849-1.274 1.557-5.522 11.185-8.353 13.876-19.822 18.973-.85 7.079-3.398 13.733-7.504 19.538.849.992 1.699 1.841 2.548 2.832l56.494 58.05c.991.85 1.699 1.841 2.548 2.832 1.841 2.69 1.841 5.097 0 6.938-.991.991-2.265 1.416-3.681 1.416s-2.69-.567-3.681-1.416a73 73 0 0 1-4.673-4.673c-.566-.707-.991-1.415-1.416-2.123-1.557 1.132-2.69 1.84-3.822 2.69l-13.168 10.619c-4.672 3.681-7.221 3.539-11.327-.708-3.257-3.398-6.513-6.938-9.77-10.478-3.822-4.106-3.539-7.22.85-10.76l12.318-9.769c1.133-.85 2.124-1.7 3.54-2.974a3993 3993 0 0 0-33.698-34.547c-3.256 1.982-6.088 3.965-9.061 5.522a27.25 27.25 0 0 1-15.292 3.257c-3.823-.284-7.504-1.699-10.477-4.106s-5.38-5.522-6.513-9.203l-7.504-.85c-1.133 1.699-2.124 3.398-3.257 4.814-2.407 3.256-5.38 5.805-8.92 7.787a27 27 0 0 1-11.327 3.398c-.99 0-1.84.283-2.69.85-.85.566-1.416 1.274-1.982 1.982-3.681 6.371-7.504 12.601-11.044 18.972-8.778 15.575-17.557 31.008-26.335 46.582-.708 1.274-1.416 2.407-2.265 3.54-.708 1.132-1.7 1.84-2.974 2.407-1.274.425-2.548.566-3.823.141-1.132-.283-2.265-.991-3.114-1.982q-1.275-1.487-1.275-3.398c-.566-4.389-.99-8.637-1.416-13.026-.424-4.247-1.132-8.92-1.982-13.309-.283-1.699-.283-3.398.283-4.955.567-1.558 1.558-2.974 2.832-3.965 1.84-1.699 3.965-3.256 5.947-4.955-.85-2.69-1.558-5.239-2.266-7.788-1.132-4.53 0-7.22 4.106-9.769 2.266-1.416 4.673-2.69 7.08-3.964 1.274-.708 2.407-1.416 3.681-2.124-.283-1.841-.425-3.54-.708-5.097-.283-1.841 0-3.823.708-5.38a9.4 9.4 0 0 1 3.823-3.965c1.699-.991 3.398-2.265 5.238-3.54-3.964-6.229-5.38-13.875-3.964-21.237 1.558-7.08 5.522-13.309 11.327-17.557-1.557-5.38-3.54-10.619-4.53-15.858-4.815-26.76 1.273-50.262 21.662-69.093 10.053-9.487 23.362-14.584 37.096-14.159 14.158.283 26.476 5.663 36.812 15.433 9.77 9.344 16.424 21.238 19.398 34.405 0 1.133.566 2.124 1.132 2.973.567.85 1.416 1.558 2.407 2.124 3.823 2.124 7.08 5.239 9.487 8.92.424.85 1.274 1.558 2.123 1.982q1.488.638 2.974 0c11.751-2.407 23.645-4.955 35.396-7.22l60.458-12.177c4.814-.991 8.778 1.133 10.194 5.947a92.5 92.5 0 0 1 2.549 12.46c.566 3.397-1.416 5.804-4.956 6.654-2.548.566-5.097.99-7.504 1.416-.849.141-1.557.566-2.69.85zM145.56 60.179c-2.69-12.176-12.176-27.467-26.901-34.688-5.947-3.115-12.46-4.673-19.115-4.673A42.66 42.66 0 0 0 80.43 25.35c-7.646 3.681-14.159 9.486-18.972 16.566-9.911 14.441-13.168 30.44-10.336 47.714.708 5.38 2.407 10.619 4.955 15.291 9.628-1.982 18.265-.283 25.91 5.664 7.646 5.946 11.044 14.441 10.761 24.352h3.115c.142 0 .425-.283.708-.424 2.124-12.743 9.203-22.229 19.539-29.45-8.354-20.813 3.823-43.892 29.45-44.883M19.973 214.508h.707c.425-.425.85-1.133 1.275-1.699 8.07-14.159 16-28.318 24.07-42.618a792 792 0 0 0 8.353-15.008c1.982-3.681 4.673-5.097 8.495-4.672 3.257.425 6.655-.142 9.487-1.699 2.973-1.558 5.38-3.823 6.938-6.655l-8.354-4.247c-4.956 2.69-7.646 2.831-10.62.424-2.83-2.406-3.397-5.521-1.698-10.477l-7.221-9.061c-2.549 1.699-4.53 4.247-5.663 7.221-2.407 6.512-1.7 12.601 2.831 17.981 3.257 3.823 3.115 7.079-.283 10.053-1.84 1.699-3.964 3.256-6.088 4.53s-3.398 2.69-2.69 5.239c.141.566 0 1.274 0 1.982.708 4.956-1.558 8.071-5.805 10.194-2.124 1.133-4.248 2.266-6.372 3.54-.85.425-1.557 1.133-2.407 1.699.85 2.124 1.416 4.106 2.265 5.947a7.54 7.54 0 0 1 .567 5.238c-.425 1.841-1.416 3.398-2.832 4.389-1.699 1.558-3.681 2.832-5.239 4.531-.424.283-.708.708-.99 1.133a2.4 2.4 0 0 0-.425 1.416c.566 3.681 1.274 7.221 1.84 10.619zM147.967 71.931c-8.637-2.69-18.689 2.407-22.371 11.185-1.982 4.956-2.123 10.477-.424 15.575s5.238 9.344 9.911 12.034c4.247 2.407 9.344 3.115 14.158 2.124 4.814-1.133 9.062-3.964 11.894-7.929 5.946-8.212 3.822-22.37-2.549-26.618-.425 4.956-.85 9.628-1.133 14.3-.283 2.832-1.415 5.38-3.398 7.363a12.43 12.43 0 0 1-7.221 3.823c-2.69.566-5.38.141-7.929-1.133-2.407-1.274-4.389-3.257-5.521-5.664-2.691-5.521-.284-13.309 4.955-15.29 3.115-1.133 6.23-1.983 9.628-2.974v-7.08zm122.897-4.39L175.152 86.94v2.69c0 .566.283 1.133.566 1.699l95.996-18.972-.991-4.814zM107.756 134.37c9.062-1.982 17.274-6.654 23.504-13.309l-9.203-6.938c-7.221 3.965-13.451 12.46-14.301 20.247m33.84-8.495a63.07 63.07 0 0 1-32.99 19.114c1.274 1.699 3.115 2.832 5.097 3.54s4.106.708 6.088.141c7.646-1.699 13.309-6.23 17.84-12.601 2.407-2.832 3.823-6.371 3.965-10.052zm38.087 67.253-6.655 5.239-7.221 5.663 6.088 6.372 14.3-11.469zm-98.12-61.59c.566-9.769-10.336-18.689-19.822-16.282 4.955 7.221 11.893 12.884 19.822 16.424zm177.833-22.087c2.265-1.416 2.407-1.416 2.124-3.115-.425-2.548-.991-4.955-1.416-7.504-.708-3.681-1.558-7.504-2.266-11.185-.283-1.275-.991-1.7-2.548-.85 1.274 7.504 2.69 14.867 4.106 22.796zm-28.459-18.69c0 4.956 2.265 14.867 3.823 16.566 0-3.964-1.416-14.158-2.266-15.716-.141-.283-.849-.425-1.557-.708zM13.178 41.491c.85-2.973 1.84-5.946 2.973-8.778 3.257-7.363 8.354-13.876 14.725-18.973a28 28 0 0 1 5.664-3.256c1.132-.567 2.407-.567 3.54-.283 1.132.424 2.123 1.132 2.831 2.265 1.274 2.265.708 4.53-1.558 6.513-.707.708-1.699 1.274-2.406 1.84-7.646 5.947-13.31 13.027-15.433 22.654 0 .425-.142.708-.284 1.133-1.132 3.115-3.256 4.53-6.088 4.106-2.548-.425-4.106-2.69-4.106-7.22zM.01 26.766c0-.567.424-1.983.85-3.399C3.407 15.58 6.946 8.36 13.743 3.404c1.699-1.274 3.398-2.266 5.38-2.973.991-.425 1.982-.567 2.973-.284q1.486.425 2.549 1.7c.708.849 1.132 1.982 1.132 2.973s-.424 2.123-1.132 2.973c-.708.991-1.558 1.699-2.549 2.265-6.088 3.682-8.92 9.628-11.327 16-.425 1.132-.566 2.265-.99 3.256-.284 1.274-1.133 2.265-2.266 2.973s-2.407.991-3.682.708C1.284 32.43-.132 30.447.01 26.482z"/></svg>