<svg xmlns="http://www.w3.org/2000/svg" width="300" height="300" fill="none" viewBox="0 0 300 300"><path fill="#fff" d="M144 179.328c.808-2.042 1.695-1.173 2.575-.977.88.195 1.588 0 2.425 0-1.059 5.842-3.004 6.19-5 .977"/><path fill="#3558a2" d="M96.877 187.976c-2.05 1.782-3.73 3.283-5.441 4.743-1.712 1.461-3.497 1.975-5.627 1.108-1.607-.65-3.215-1.188-4.967-1.814-.804.803-1.696 1.605-2.467 2.456a4.38 4.38 0 0 1-4.75 1.292c-.981-.24-1.97-.457-2.942-.73-3.215-.923-6.43-1.461-9.686-2.223a19 19 0 0 1-3.866-1.405 3.55 3.55 0 0 1-1.991-3.464c.036-.472.167-.931.384-1.352a33 33 0 0 1 2.105-3.01 45 45 0 0 1 6.222-6.999c1.744-1.734 4.019-2.311 6.245-2.801a130 130 0 0 0 14.757-4.23c6.43-2.255 12.933-4.535 19.371-6.895 3.215-1.196 6.43-2.592 9.645-3.885a1.35 1.35 0 0 0 .924-1.091c.193-1.132.466-2.248.74-3.524a5.5 5.5 0 0 0-1.174-.184 25.2 25.2 0 0 1-8.174-.972 25.6 25.6 0 0 1-10.015-5.056 20.9 20.9 0 0 1-4.019-3.965 3.22 3.22 0 0 0-2.411-1.373 64 64 0 0 1-6.43-1.083 2.6 2.6 0 0 0-2.235.353q-1.608 1.075-3.215 2.199c-1.97 1.389-4.019 1.605-6.084.297-1.777-1.116-3.553-2.239-5.345-3.339-.98-.602-1.994-1.164-2.99-1.75a1.61 1.61 0 0 0-2.002.241c-.803.666-1.607 1.284-2.355 1.942-2.098 1.75-4.348 2.28-6.816.803-1.037-.634-1.993-.859-2.941.144-.185.201-.53.257-.74.442-2.323 2.047-4.823 1.517-7.306.441-1.608-.682-3.119-1.517-4.75-2.319-1.407.634-2.894 1.204-4.268 1.966-1.753.963-3.328.385-4.694-.57-2.91-2.03-5.731-4.198-8.504-6.421a7.9 7.9 0 0 1-1.76-2.408c-.732-1.348 0-2.624.667-3.668 1.543-2.36 3.271-4.607 4.991-6.846.804-1.084 2.138-1.405 3.424-1.678q.427-.077.86-.08c4.485-.185 8.962-.313 13.44-.554 3.616-.185 7.233-.506 10.834-.763h.442c4.212-.176 8.423-.337 12.643-.521q5.064-.218 10.136-.474 3.585-.184 7.17-.417c2.161-.153 4.331-.353 6.694-.554 4.02-7.697 10.28-12.77 19.034-14.448 8.576-1.605 16.332.402 23.124 5.827 13.23-8.347 28.518-7.408 39.296 2.079 1.897-.562 3.738-1.164 5.626-1.645 4.582-1.196 8.745-.08 12.595 2.448a18.05 18.05 0 0 1 6.985 9.198c.394 1.076.539 1.18 1.608.931a12 12 0 0 1 4.501 0c3.898.498 7.234 2.296 10.722 3.925a188 188 0 0 1 3.922 1.895 3.36 3.36 0 0 0 3.448-.177 60 60 0 0 1 6.543-2.89c4.879-2.03 9.758-4.013 14.637-6.068 2.941-1.22 5.851-2.512 8.841-3.66a5.3 5.3 0 0 1 2.757-.256c2.411.465 4.766 1.131 7.153 1.717l8.842 2.151 4.019.963 6.92 1.718q.521.154 1.021.369c2.411.803 3.215 2.288 2.604 4.72s-1.133 4.623-1.712 6.927q-2.709 10.908-5.433 21.816c-.394 1.605-.684 3.21-1.045 4.864q-.162.63-.402 1.236a3.34 3.34 0 0 1-1.301 1.823 3.33 3.33 0 0 1-2.163.585 17 17 0 0 1-2.364-.289 388 388 0 0 1-6.188-1.052c-1.777-.321-3.545-.682-5.313-1.011-2.982-.546-5.972-1.067-8.946-1.605-1.56-.289-3.111-.658-4.662-.963-.7-.174-1.417-.273-2.138-.297a3.86 3.86 0 0 1-3.087-1.349c-1.663-1.822-3.351-3.636-4.983-5.49s-2.998-3.548-4.533-5.297c-1.535-1.75-3.336-3.652-4.975-5.499-1.439-1.605-2.798-3.339-4.26-4.952a4 4 0 0 0-1.881-1.372c-2.854-.482-5.281-1.935-7.821-3.115-1.447-.674-2.829-1.509-4.308-2.095-2.146-.85-4.332-1.685-6.719-1.444q-1.112.173-2.195.473c-.804 11.085-10.537 20.909-22.706 18.333-.434.489-.9 1.035-1.399 1.605-1.655 1.734-3.158 3.668-5.031 5.121a2.947 2.947 0 0 0-1.182 3.162c.153 1.285.322 2.577.41 3.869.178 4.074-.75 8.12-2.684 11.711a24.9 24.9 0 0 1-14.733 12.754 19.2 19.2 0 0 1-7.234 1.244c-1.359-.072-2.709.056-4.067.04a13.75 13.75 0 0 1-5.41-1.445c-1.712-.762-3.448-1.461-5.007-2.119-2.307 1.18-4.405 2.288-6.543 3.331a6.78 6.78 0 0 1-6.775-.417c-1.303-.803-2.645-1.445-4.148-2.256-.45.57-.804 1.06-1.222 1.55-.747.971-1.446 1.99-2.25 2.913a3.96 3.96 0 0 1-4.348 1.18c-1.817-.562-3.577-.915-5.169-1.276m-22.312-48.889c1.213-.843 2.363-1.734 3.609-2.481 1.76-1.059 3.56-1.741 5.763-1.075 1.896.444 3.818.773 5.755.987 1.133.201 2.242.546 3.375.738a4.87 4.87 0 0 1 3.272 2.272 19.1 19.1 0 0 0 5.94 5.37 22.27 22.27 0 0 0 13.599 2.929c1.696-.128 3.32-.505 4.083-2.327q.129-.25.298-.474c-.852-2.287-1.841-4.463-2.09-6.879a2.13 2.13 0 0 0-.699-1.26 8.82 8.82 0 0 1-3.215-7.448 9.5 9.5 0 0 1 4.018-7.585 5.9 5.9 0 0 1 4.236-1.461c1.809.249 3.834 0 5.257 1.605 2.821 1.132 3.577 3.652 3.971 6.253.602 4.013-2.476 9.078-6.431 10.001a4.2 4.2 0 0 0-.988.562l.667 1.509c1.849-.931 3.536-1.927 5.329-2.657a4.42 4.42 0 0 0 2.789-3.034 19.14 19.14 0 0 0 .145-11.301 15.72 15.72 0 0 0-5.804-8.573 3.4 3.4 0 0 1-1.101-1.035 4.28 4.28 0 0 0-1.897-1.71 23.47 23.47 0 0 0-10.738-3.098 18.8 18.8 0 0 0-6.647.891c-5.747 1.718-10.272 5.033-12.732 10.635a5.62 5.62 0 0 1-5.313 3.708c-2.604.137-5.216.289-7.828.418-3.119.168-6.237.313-9.356.473l-7.604.426-7.611.425c-2.412.128-4.823.369-7.17.353-1.656 0-3.287.177-4.935.185s-3.464.257-5.2.345c-3.336.176-6.68.321-10.015.481l-1.8.081c-.732.802-1.4 1.493-1.978 2.231a6.24 6.24 0 0 0-1.543 2.681l6.639 4.816c1.198-.578 2.259-1.036 3.28-1.605a4.691 4.691 0 0 1 4.372-.225c2.106.955 4.22 1.894 6.47 2.897.458-.273 1.02-.594 1.608-.931.868-.521 1.72-1.075 2.604-1.605a3.51 3.51 0 0 1 3.343-.193c.973.45 1.938.923 2.974 1.421.274-.217.53-.465.804-.666 1.48-1.044 2.934-2.127 4.453-3.098a2.71 2.71 0 0 1 2.693-.321q1.539.482 3.022 1.115c2.74 1.67 5.417 3.403 8.327 5.226zm13.077 49.13c1.776-1.606 3.537-3.05 5.072-4.68a5.01 5.01 0 0 1 5.36-1.388c1.19.297 2.412.417 3.594.802a1.287 1.287 0 0 0 1.744-.714c.603-1.068 1.326-2.071 2.017-3.082 1.423-2.079 3.344-2.48 5.265-1.606a91 91 0 0 1 5.031 2.513 3.56 3.56 0 0 0 3.714.2 8.2 8.2 0 0 0 1.921-.995c1.447-1.509 3.48-1.669 5.248-2.408a3.72 3.72 0 0 1 3.151.345 36.6 36.6 0 0 0 5.337 2.408c1.553.552 3.177.876 4.823.963a19.4 19.4 0 0 0 12.78-4.013 18.7 18.7 0 0 0 6.558-8.765 24.4 24.4 0 0 0 1.093-7.039c.169-4.776-1.607-8.829-4.597-12.329-4.147-4.904-9.798-6.79-16.027-6.999a19.3 19.3 0 0 0-5.763.851 14.16 14.16 0 0 0-6.205 3.355c2.604 3.781 6.125 6.036 10.376 7.706.555-.643 1.053-1.261 1.608-1.839a8.58 8.58 0 0 1 6.478-2.592 9.22 9.22 0 0 1 6.342 2.408 11.37 11.37 0 0 1 3.392 5.923 7.1 7.1 0 0 1 .241 3.211c-.924 3.821-3.014 6.566-7.081 7.689a9.92 9.92 0 0 1-7.535-1.104 9.9 9.9 0 0 1-4.522-6.119 3.2 3.2 0 0 0-2.258-2.585 25 25 0 0 1-8.914-5.691c-.731-.706-1.439-1.428-2.13-2.127a30 30 0 0 0-2.508 5.619c-.618 2.063-.265 4.174-.651 6.421-2.323.907-4.694 1.758-7.008 2.745-7.644 3.275-15.465 6.052-23.31 8.829a146 146 0 0 1-18.856 5.554 11.1 11.1 0 0 0-6.14 3.805 30 30 0 0 0-2.074 2.52 3.1 3.1 0 0 0-.266 1.044l11.639 2.777c.659-.634 1.318-1.212 1.92-1.838 2.412-2.545 4.606-2.512 7.291-1.3 1.206.481 2.427.947 3.85 1.525m47.639-74.181c.161.321.249.514.362.698.265.426.554.803.804 1.276 3.448 5.619 4.629 11.599 2.941 18.052a6.4 6.4 0 0 0 0 1.469c10.578-.209 18.206 4.687 23.888 13.235a10.5 10.5 0 0 0 4.461-4.446 19.05 19.05 0 0 1-5.299-6.177 19 19 0 0 1-2.232-7.821c-.49-5.771 1.672-10.515 4.991-14.906-6.607-7.039-21.822-7.705-29.932-1.38zm117.301 7.601c-2.805 10.571-5.513 21.11-8.246 31.721l24.627 4.398c2.46-10.073 4.919-20.13 7.419-30.38-7.411-2.191-14.99-3.612-22.377-5.731a6 6 0 0 0-1.439-.008zm-6.751 2.207c-2.042.257-20.271 7.89-21.605 8.982a4075 4075 0 0 0 14.516 16.422c.265-.217.45-.281.482-.393 2.17-8.235 4.348-16.519 6.591-25.011zm-71.583-7.761q.258.691.61 1.34c2.733 4.118 3.537 8.781 3.762 13.581a23.7 23.7 0 0 1-1.382 8.283 2.73 2.73 0 0 0-.225 1.822c5.433 1.052 12.498-4.647 12.948-11.47-1.479-.297-2.7-.955-2.974-2.656-.321-2.031 1.109-2.786 2.629-3.436-1.23-3.692-3.441-6.421-7.041-7.593a11.86 11.86 0 0 0-8.343.129zm-3.473 23.028a13.44 13.44 0 0 0 1.712-5.731 19.76 19.76 0 0 0-2.531-12.522 3.8 3.8 0 0 0-.692-.69 13.586 13.586 0 0 0 1.495 18.943zm-27.038 21.936c2.242 1.926 4.428 1.798 5.626-.345-.94 0-1.841.056-2.725 0s-2.009-.41-2.917.345zm-18.832-33.816c-.499 1.092-.941 2.135-1.431 3.163a1.25 1.25 0 0 0-.136.988 1.26 1.26 0 0 0 .626.778c2.001-1.236 2.347-3.018.924-4.929z"/><path fill="#979fbb" d="M74.572 139.084c-2.908-1.819-5.624-3.55-8.33-5.161a32 32 0 0 0-3.022-1.114 2.7 2.7 0 0 0-2.69.32c-1.52.97-2.973 2.052-4.452 3.094-.289.2-.546.449-.803.665-1.036-.497-2-.97-2.972-1.419a3.51 3.51 0 0 0-3.342.193c-.884.497-1.736 1.05-2.603 1.603a51 51 0 0 1-1.607.93c-2.25-1.002-4.362-1.94-6.467-2.894a4.7 4.7 0 0 0-4.37.225c-1.02.545-2.081 1.001-3.278 1.603L24 132.32a6.2 6.2 0 0 1 1.543-2.677c.578-.738 1.245-1.411 1.976-2.229l1.8-.08c3.333-.16 6.675-.304 10.01-.481 1.734-.088 3.462-.336 5.197-.344s3.278-.193 4.933-.185c2.41 0 4.82-.224 7.166-.352l7.608-.425 7.6-.425c3.117-.16 6.234-.304 9.35-.473 2.612-.128 5.223-.28 7.826-.416a5.64 5.64 0 0 0 3.243-1.012 5.6 5.6 0 0 0 2.067-2.691c2.458-5.611 6.981-8.905 12.725-10.62a18.8 18.8 0 0 1 6.644-.89 23.47 23.47 0 0 1 10.733 3.094 4.27 4.27 0 0 1 1.896 1.707c.285.422.661.776 1.101 1.034a15.7 15.7 0 0 1 5.8 8.56 19.1 19.1 0 0 1-.145 11.285 4.416 4.416 0 0 1-2.787 3.03c-1.792.729-3.479 1.723-5.327 2.653l-.666-1.507a4.3 4.3 0 0 1 .988-.561c3.936-.922 7.013-5.979 6.427-9.987-.394-2.597-1.149-5.113-3.969-6.243-1.422-1.603-3.446-1.363-5.254-1.603a5.9 5.9 0 0 0-4.234 1.458 9.482 9.482 0 0 0-4.017 7.574 8.8 8.8 0 0 0 3.214 7.438c.373.325.62.771.699 1.259.249 2.404 1.237 4.584 2.089 6.868a3.3 3.3 0 0 0-.298.473c-.803 1.82-2.41 2.196-4.081 2.325a22.3 22.3 0 0 1-13.593-2.926 19.1 19.1 0 0 1-5.937-5.362 4.86 4.86 0 0 0-3.27-2.268c-1.132-.192-2.24-.537-3.374-.737a49 49 0 0 1-5.752-.986c-2.2-.666-4.016 0-5.76 1.074-1.237.681-2.386 1.547-3.599 2.412"/><path fill="#cbcfdd" d="M87.545 188.407c-1.4-.585-2.617-1.048-3.785-1.584-2.673-1.227-4.802-1.26-7.259 1.316-.6.634-1.256 1.219-1.913 1.861L63 187.188c.026-.365.116-.722.264-1.056a30 30 0 0 1 2.065-2.552 11.04 11.04 0 0 1 6.114-3.851 144 144 0 0 0 18.775-5.623c7.803-2.796 15.59-5.607 23.209-8.939 2.305-1 4.666-1.861 6.979-2.779.384-2.275 0-4.413.648-6.501a30.7 30.7 0 0 1 2.497-5.688c.688.707 1.393 1.438 2.121 2.153a24.9 24.9 0 0 0 8.875 5.762c.581.175 1.1.514 1.498.977s.658 1.032.751 1.639a10.1 10.1 0 0 0 1.641 3.555 9.9 9.9 0 0 0 2.861 2.641 9.8 9.8 0 0 0 3.642 1.32c1.287.192 2.6.123 3.861-.202 4.049-1.138 6.13-3.917 7.051-7.785a7.35 7.35 0 0 0-.241-3.251 11.55 11.55 0 0 0-3.377-5.997 9.1 9.1 0 0 0-6.314-2.437 8.4 8.4 0 0 0-3.5.616 8.5 8.5 0 0 0-2.951 2.008c-.544.585-1.04 1.211-1.6 1.861-4.234-1.69-7.739-3.973-10.332-7.801a14 14 0 0 1 6.178-3.396 19 19 0 0 1 5.738-.862c6.203.212 11.829 2.121 15.958 7.086 2.954 3.551 4.746 7.647 4.578 12.482a25.1 25.1 0 0 1-1.088 7.126 18.9 18.9 0 0 1-6.531 8.874 19.1 19.1 0 0 1-12.725 4.063 16.8 16.8 0 0 1-4.802-.975 36 36 0 0 1-5.314-2.438 3.646 3.646 0 0 0-3.137-.35c-1.76.748-3.785.91-5.226 2.438a8 8 0 0 1-1.912 1.008 3.5 3.5 0 0 1-3.698-.203 84 84 0 0 0-5.01-2.544c-1.913-.902-3.825-.495-5.242 1.625-.688 1.024-1.408 2.04-2.009 3.121a1.3 1.3 0 0 1-.713.746 1.26 1.26 0 0 1-1.023-.023c-1.169-.349-2.401-.471-3.578-.813a4.9 4.9 0 0 0-2.877-.114c-.95.25-1.806.779-2.46 1.52-1.593 1.69-3.346 3.137-5.099 4.778"/><path fill="#fff" d="M252.235 122.043a6 6 0 0 1 1.42 0c7.376 2.11 14.945 3.524 22.345 5.706-2.496 10.206-4.952 20.221-7.408 30.251L244 153.62c2.729-10.558 5.434-21.051 8.235-31.577m17.184 17.183q.042-.76 0-1.518a10.1 10.1 0 0 0-1.846-4.996 2.85 2.85 0 0 0-3.323-.927 2.62 2.62 0 0 0-1.79 2.686c.078.781.273 1.546.578 2.27.851 2.301.321 6.289-2.456 7.848a7 7 0 0 0-1.092.719 3.38 3.38 0 0 0-.931 3.373 2.83 2.83 0 0 0 2.801 1.654 5.3 5.3 0 0 0 2.256-.615c3.9-2.382 5.618-6.042 5.803-10.494m-17.931 4.795a3.34 3.34 0 0 0 .823 2.502 3.35 3.35 0 0 0 2.388 1.127 3.08 3.08 0 0 0 2.071-.949 3.05 3.05 0 0 0 0-4.217 3.08 3.08 0 0 0-2.071-.948c-1.814.008-3.106.895-3.211 2.47zm6.1-5.882c1.67 0 2.809-1.223 2.865-3.093 0-1.303-1.516-2.861-2.937-2.949s-2.881 1.471-2.922 2.957c-.032 1.343 1.557 3.349 2.994 3.069z"/><path fill="#cbcfdd" d="M246 124c-2.283 8.357-4.502 16.485-6.728 24.613 0 .111-.221.174-.491.387A6771 6771 0 0 0 224 132.839c1.359-1.074 19.921-8.586 22-8.839"/><path fill="#fff" d="M124.953 127c1.722 1.938 1.304 3.746-1.139 5a1.5 1.5 0 0 1-.476-.329 1.2 1.2 0 0 1-.282-.46 1.1 1.1 0 0 1-.042-.515c.029-.173.099-.339.206-.488.594-1.026 1.129-2.101 1.733-3.208"/><path fill="#3558a2" d="M269.983 138.74c-.185 4.508-1.9 8.208-5.804 10.628a5.2 5.2 0 0 1-2.253.623 2.8 2.8 0 0 1-1.662-.39 2.84 2.84 0 0 1-1.136-1.285 3.46 3.46 0 0 1-.007-1.839 3.43 3.43 0 0 1 .937-1.577q.511-.415 1.09-.729c2.774-1.578 3.303-5.617 2.453-7.949a8 8 0 0 1-.577-2.298 2.67 2.67 0 0 1 .429-1.672 2.62 2.62 0 0 1 1.359-1.048 2.82 2.82 0 0 1 3.319.939 10.3 10.3 0 0 1 1.844 5.059q.045.768.008 1.538M252.014 143.439c.103-1.568 1.347-2.415 3.106-2.439a3.05 3.05 0 0 1 2.045.931c.536.558.835 1.299.835 2.069s-.299 1.511-.835 2.069a3.05 3.05 0 0 1-2.045.931 3.34 3.34 0 0 1-2.317-1.128 3.235 3.235 0 0 1-.789-2.433M258.066 137.974c-1.471.276-3.098-1.706-3.066-3.049 0-1.469 1.595-2.994 2.992-2.923s3.04 1.628 3.008 2.915c-.058 1.848-1.225 3.065-2.934 3.057"/></svg>