<svg xmlns="http://www.w3.org/2000/svg" width="226" height="332" fill="none" viewBox="0 0 226 332"><path fill="#102185" d="M145.654 115.664c3.78-.382 7.164-.85 10.591-1.005 7.589-.453 14.965 1.925 20.855 6.739 12.361 10.265 9.019 25.627 1.671 34.136-2.223 2.577-5.14 4.588-8.269 5.735-3.327 1.104-6.668 1.373-10.109.708-12.955-2.195-21.535-9.657-25.471-22.244-.623-1.784-1.006-3.709-1.699-6.13-1.926 1.727-3.639 2.973-5.338 4.545-10.761 9.996-16.948 22.455-20.7 36.387-2.266 9.133-3.54 18.491-3.681 27.808-.142 4.276.127 4.446 4.53 4.502l94.495.51c8.283.113 9.628 1.444 9.756 9.585l1.968 101.305c.07 1.968.07 3.809.014 5.848-.085 5.422-1.94 7.263-7.518 7.447-1.147.057-2.28.099-3.498.028l-169.295-.085c-8.721 0-17.443-.014-26.165-.028-6.046-.028-7.886-1.869-7.787-7.801.453-35.807.864-71.431 1.402-107.124.099-.906 0-1.841.099-2.747.396-4.941 2.888-7.363 7.957-7.547 4.318-.056 8.721 0 13.11.071l66.292.425c1.33 0 2.789-.085 4.445-.127.071-1.218.1-2.238.114-3.257.283-16.764 2.789-32.933 9.939-48.352 6.003-13.011 15.376-24.14 27.354-32.224 1.317-.836 2.521-2.096 3.144-3.498 3.469-13.592 9.967-26.08 18.944-36.784 8.495-10.406 18.024-19.963 27.213-29.804a464 464 0 0 1 13.04-13.28c-.453-.722-.481-1.034-.68-1.076-5.465-3.073-5.975-4.928-3.355-10.605 2.605-5.678 5.38-11.624 8.226-17.444 3.143-6.682 4.29-7.249 11.313-5.153 3.624-5.65 6.159-6.414 11.114-3.356 4.064 2.45 4.559 4.828 2.308 8.934 1.444 1.756 3.384 3.228 3.696 5.04.311 1.813-.538 4.192-1.36 6.06-2.69 6.06-5.592 12.078-8.481 18.11-2.732 5.748-4.516 6.37-10.265 4.162-1.316-.51-2.534-1.076-3.78.382-9.147 9.642-18.491 19.242-27.624 28.884-6.852 7.178-13.422 14.527-18.618 23.008-2.945 4.884-5.423 9.967-7.971 14.937-.623 1.402-1.246 2.803-1.799 4.318l-.113.071zm-17.203 194.383H43.485l-.467 11.171 84.839.085.467-11.185.113-.071zm9.784 11.228 66.064.071-.283-11.044H138.66c-.128 3.752-.284 7.207-.34 11.086l-.071-.113zm-127.74-21.521 46.27.028c0-5.026.114-9.628.185-14.526l-46.341-.156-.227 14.725zm162.103-168.799c-1.657-1.302-3.313-2.591-5.211-3.738-4.884-2.435-10.378-3.157-15.659-1.982-9.231 1.827-9.571 1.034-7.023 11.143 2.152 8.693 8.241 13.55 17.005 15.206 2.534.567 5.182.241 7.405-1.005 4.304-2.733 8.382-12.176 3.483-19.638zm30.54 129.792-41.995.099 1.105 14.711 41.315.156-.354-14.853zm-41.641 25.018 1.119 14.201 41.442.071-.141-13.989-42.221-.254-.199-.043zm-150.45-24.593-.155 13.521 35.467.17-1.047-13.578-.071-.113zm.496-32.296 36.374-.241.24-12.049-36.486-.198c-.015 4.205-.156 7.971-.213 12.375l.07.113zm117.305-11.907-35.468-.17-.042 11.581 35.241-.184zm-4.871 82.842 28.204.085-1.119-14.202-26.858-.085c-.071 4.914-.142 9.303-.142 14.329l-.071-.113zm-65.441-83.253-.128 11.978 24.75-.085c-.029-4.007 0-7.702-.043-11.709-8.212 0-16.098-.028-24.508-.071zm120.561 21.549c.17 4.248.439 8.099.609 12.347l23.22-.114-.298-12.374-23.645.226.114-.07zm-4.021-20.912.056 10.69 27.426-.099-.227-10.421zm-71.346 58.05c-.269-5.196-.524-9.557-.807-14.243H83.328l-.61 14.13 21.012.099zm35.015-47.134 26.207-.169-.141-10.803-26.236-.156c.184 3.738.141 7.107.283 11.044l-.113.07zM113.74 285.51H94.654l-.07 14.47h19.086l.141-14.356zM10.453 310.005l-.27 11.228 22.513-.17.34-11.115zm.651-59.07 21.054-.085c.014-4.205.156-7.971.128-11.978l-20.856.142-.198 11.85-.114.071zm61.76-12.275-.24 12.049 20.43-.029.17-12.176-20.346.141zm11.469 46.695-17.118-.057c0 5.026-.113 9.628-.07 14.456l17.117.057zM42.65 238.844l-.128 11.978 19.922-.043.24-12.049-19.921.043zm13.833 36.147 15.985.099.566-13.932-17.557.056 1.09 13.89-.07-.113zm57.625.226 15.164.128c-.198-5.069-.396-9.628-.566-14.386l-15.206.071.679 14.315-.071-.114zm29.436-36.897-15.829.141.849 12.191h15.079l-.226-12.261.113-.071zm10.393 12.19 15.206-.07-.226-12.262-15.207.071zm-14.414 24.877 12.219-.028c-.198-5.069-.396-9.628-.524-14.584l-12.332.099.765 14.428-.114.071zm-36.232-24.664 14.895-.043-.849-12.19-13.862.071-.24 12.048.07.114zm102.75-235.288-6.981 14.64 8.396 3.738 6.74-14.498c-2.874-1.36-5.352-2.648-8.155-3.88"/></svg>