<svg xmlns="http://www.w3.org/2000/svg" width="330" height="229" fill="none" viewBox="0 0 330 229"><path fill="#102185" d="M277.742 144.134c-11.468 5.069-23.998 7.561-36.458 7.221.382 1.572.779 2.86 1.302 4.007 4.772 12.177 9.388 24.48 14.301 36.657.934 2.01 1.302 4.29 1.232 6.555-.071 2.266-.68 4.375-1.742 6.471-3.016 6.569-6.994 12.134-13.734 15.631-2.732 1.487-5.72 2.251-8.849 2.308-24.353-.099-48.578-.34-72.931-.439l-106.502-.496c-2.973-.085-5.946.128-8.934.184-4.53.014-9.075.468-13.266-1.5-.425-.156-.977-.312-1.544-.326-4.814-.128-9.302-1.671-13.196-4.333-5.012-3.398-10.321-6.088-14.725-10.321-2.35-2.195-3.27-4.616-2.336-7.575 1.855-5.763 3.71-11.511 5.848-17.118a3148 3148 0 0 1 17.84-46.681c.92-2.52.552-4.8.623-7.207.198-7.504.41-15.149.34-22.795.184-27.326.226-54.808.254-82.148.142-4.956 0-10.053.128-15.008.127-4.956 3.327-7.986 7.957-5.876C35.913.708 38.617.212 41.18 0c27.057.028 53.958.34 81.001.51l65.994.382 36.246.283 3.823.1c1.274.028 2.393.495 3.355 1.373.963.877 1.501 1.883 1.756 3.157.255 1.147.368 2.28.326 3.412.042 8.92.085 17.713-.014 26.633-.199 17.415-.383 34.971-.439 52.4-.085 13.734-.043 27.482.155 41.216-.056 1.841.468 3.696 1.119 5.55 1.048 3.144 2.378 6.159 3.455 8.595 2.987-.623 5.422-1.275 7.829-1.629 10.081-1.005 19.766-3.001 28.955-7.419 1.147-.538 2.293-1.076 3.44-1.741.425-4.942.836-9.614 1.388-14.414a39.5 39.5 0 0 1 5.55-16.707c5.31-7.929 12.644-11.836 22.257-11.143 9.614.694 15.207 8.354 13.253 17.784-1.274 5.21-3.95 9.811-7.872 13.379-5.961 5.791-12.616 10.563-19.936 14.47-3.015 1.615-4.346 3.427-4.148 6.825.283 5.394.127 10.775.283 15.73.835.453.977.736 1.26.595 6.103-.538 12.162.892 17.302 4.148 1.402.751 2.506 1.629 3.611 2.648 5.507 5.819 9.996 12.459 13.493 19.638 2.676 5.734 4.361 11.737 5.168 17.981 1.883 14.074-9.883 24.523-22.626 24.594-3.681.042-7.348-.765-10.704-2.28-3.355-1.515-6.272-3.709-8.736-6.612-5.776-6.102-10.109-13.45-12.87-21.309-3.667-11.001-3.228-21.761 3.412-31.63a3.9 3.9 0 0 0 .921-2.378c-.383-6.669-1.062-13.196-1.572-20.304l.127.283zM35.927 10.336c-.482 38.37-.538 76.754-.453 115.137l187.22 1.006c.212-38.667.538-76.754.736-115.138zM12.96 192.996c4.531-.014 8.51-.198 12.333-.227h88.661c19.128-.028 38.243.071 57.498.029l71.374.254c.991.029 1.841-.085 3.115-.198-7.419-18.902-14.555-37.364-21.974-56.125l-189.627-.934a14610 14610 0 0 1-21.394 57.201zm3.965 10.166c.269.439.269.722.396.863.552.439 1.246.878 1.813 1.331 6.13 3.71 13.153 5.89 20.374 6.074 19.1.524 38.228.482 57.484.581 28.176.198 56.224.113 84.414.325 15.858 0 31.871.156 47.87.312 1.841.057 3.54-.043 5.395-.566 4.573-1.289 8.594-3.597 10.576-8.779L16.94 203.02v.142zm272.611 1.911c2.053 2.747 3.964 5.352 6.017 7.957 3.695 4.488 8.623 5.904 14.173 5.055a11.47 11.47 0 0 0 7.334-3.908c1.756-2.223 2.69-5.026 2.478-7.858-.397-6.244-2.351-12.247-5.466-17.571-2.562.496-4.983.991-7.263 1.501-1.43.241-2.01 1.076-2.336 2.492-.949 3.653-3.101 4.871-6.626 4.064-.567-.015-1.119-.312-2.11-.624l-6.201 9.034zm-.255-78.75c6.159-2.52 15.857-10.053 18.958-14.782.878-1.246 1.487-2.647 1.954-4.049 1.388-4.205.028-6.23-4.361-6.357-6.088-.17-10.279 2.831-12.828 8.141-2.69 5.309-3.27 10.959-3.723 17.033zm-3.299 47.785c-3.158 6.57-3.88 12.644-1.657 19.213l6.995-7.178-5.197-12.035zm10.86-3.539c.467 3.695 1.925 7.277 4.12 10.166l6.569-1.94c-2.138-4.729-6.923-5.848-10.675-8.368v.142z"/><path fill="#102185" d="M130.167 112.631c-17.274-.184-34.689-.24-52.118-.425-8.637-.099-17.274-.184-25.783 0-5.239.142-7.872-2.336-7.858-7.999-.17-19.836-.468-39.814-.779-59.792-.142-5.097-.283-10.208-.283-15.447.057-1.982.1-3.823.58-5.79.85-4.942 4.036-7.816 9.147-7.972 2.832-.07 5.663.156 8.495.226l146.075 3.71 3.54.1c1.132.027 2.251.622 3.072 1.5s1.359 1.883 1.473 3.016c.226 1.854.325 3.837.41 5.819.071 13.167-.156 26.476-.085 39.658-.042 11.752.213 23.376.17 35.128l-.071 2.69c-.523 3.667-2.421 5.451-6.102 5.635-4.389.17-8.792.184-13.04.212-22.229-.184-44.472-.226-66.702-.41zm-6.896-84.753L53.639 25.98c.241 11.765.496 23.106.75 34.717l11.342-.255c3.03-7.42 6.272-11.865 14.187-16.325-1.02-4.135-.354-7.802 3.823-10.095 3.299-1.756 6.71-2.082 9.91.269 4.163 3.086 3.342 7.32 1.388 11.51 5.027 2.69 9.161 7.052 11.709 12.22.269.58.68 1.146 1.232 1.585a4.56 4.56 0 0 0 1.813.906c4.106.114 8.353-.056 12.884-.07l.878-32.41zM159.872 82.7c-.142-5.38 1.076-8.184 4.53-10.081a6.8 6.8 0 0 1 4.418-1.02 7.27 7.27 0 0 1 4.205 1.53c4.177 2.803 3.781 6.895 2.251 11.114 3.356 1.798 6.258 4.418 8.58 7.462a25.5 25.5 0 0 1 4.673 10.321l8.637.241c2.831.071 5.521.156 8.636.099 0-10.76-.127-21.11-.127-31.73l-73.37.128-.85 31.135 13.876.382c4.021-7.249 6.923-14.966 14.413-19.581h.142zm45.789-52.996c-6.485-1.033-69.066-1.883-71.629-1.246-.906 7.334-1.217 28.997-.58 31.857l6.937.184c1.133.17 2.124.057 3.129-.623.864-.538 1.6-1.373 1.912-2.492 2.393-4.899 6.329-8.891 11.355-11.157.581-.269 1.147-.68 1.727-1.09-2.237-6.003-1.727-9.401 2.039-12.403 1.742-1.515 3.894-2.45 6.159-2.52 2.266-.085 4.517.552 6.329 1.869 4.729 3.1 6.032 7.532 4.446 13.437 2.45 3.893 4.474 7.348 6.641 10.944 1.217 2.01 2.732 3.61 4.997 3.681 5.381.142 10.775-.127 16.58-.113 0-10.336-.155-20.26-.155-30.455l.141.141zM54.39 70.892c.141 10.35.297 20.402.439 30.61l10.194.284c2.62-8 5.932-15.136 13.691-18.888 1.317-6.91 4.106-10.08 8.481-9.684 1.685.325 3.37 1.09 4.758 2.11 2.775 1.91 1.557 5.139 1.77 7.843 6.725 2.733 10.548 8.085 12.771 14.654.651 1.997 1.869 4.021 4.134 4.078 3.256.227 6.513.042 10.053 0l.849-31.276-67.282.141.142.142zm41.924 31.035c.07-2.548-1.133-4.984-2.931-6.74-1.799-1.74-4.177-2.803-6.726-2.873-5.083-.425-8.424 2.605-10.321 9.769l19.978-.17zm80.874.51c-1.005-4.56-5.692-9.5-9.642-10.18-.836-.312-1.841-.198-2.69-.07-.864.254-1.586.806-2.167 1.5-1.911 2.492-3.539 5.281-5.607 8.198l20.092.552zm-81.3-41.881c-2.718-4.035-5.635-6.386-9.599-6.499-4.248-.113-6.867 2.506-8.962 6.697zm78.185-.128c-1.161-4.275-3.667-5.762-7.065-5.861-2.124-.057-4.121.453-5.989 1.387-1.869.935-3.469 2.308-4.786 3.979l17.84.481zM96.512 188.054l-60.486.468-3.115-.085c-4.517-.694-6.824-4.007-5.295-8.354 3.978-11.086 7.971-22.158 12.091-33.244.467-1.402 1.345-2.648 2.506-3.611s2.591-1.628 4.021-1.869c1.997-.368 4.12-.595 6.103-.538 33.13.623 66.248 1.388 99.507 2.152 1.557.043 3.115.085 4.516.411 1.685.326 3.228 1.076 4.474 2.251 1.246 1.161 2.053 2.605 2.436 4.318 2.421 9.699 4.856 19.398 7.136 29.096 1.146 4.843-.623 7.207-5.735 7.915-1.854.368-3.837.467-5.677.552-8.92.043-17.713.085-26.633.269l-35.85.298zm15.687-19.27c-11.185-.311-22.101.099-32.99-.339l-.254 9.344 33.018-.368.241-8.637zm45.167.538-34.123-.226-.226 8.353 36.274-.424-1.911-7.703zm-88.634-.863-25.754-.708c-1.232 3.511-2.45 6.725-3.823 10.378l28.614-.354.822-9.472.141.142zm11.483-11.016 31.418.864.085-3.115c.028-.849-.241-1.699-.354-2.846l-31.007-.283-.142 5.239zm73.328-3.667-31.418-.863c.226 1.982.325 3.553.566 5.252l32.126.878-1.274-5.281zm-106.757 3.597 22.64.623.156-5.805-20.658-.567a253 253 0 0 0-2.138 5.749M200.777 182.688l-14.584-.396c-4.531-.127-6.612-1.6-7.476-6.159-1.387-6.272-2.633-12.53-3.879-18.803-.751-3.709 1.175-6.767 3.086-9.542.878-1.105 3.158-1.756 4.857-1.714 9.344.255 18.675.935 28.147 1.614 1.558.043 2.959.51 4.064 1.53 1.104 1.019 1.925 2.18 2.308 3.751 2.208 7.278 4.559 14.428 6.626 21.706 1.288 4.715-1.062 7.759-6.018 7.914-5.663.128-11.341.113-17.004.099h-.142zm-15.433-26.207a694 694 0 0 0 3.143 14.81l23.63.651-4.289-14.003-22.484-1.317z"/></svg>