<svg xmlns="http://www.w3.org/2000/svg" width="283" height="168" fill="none" viewBox="0 0 283 168"><path fill="#102185" d="M1.72 156.367c-.113-7.263-.24-14.682-.367-22.087-.255-14.824-.354-29.521-.468-44.359C.8 76.357.73 62.95.66 49.527.602 37.25.234 24.877.036 12.615.05 10.62-.078 8.495.078 6.47.291 2.733 2.74.694 6.478.906c6.725.1 13.31.227 20.02.198 10.718 0 21.266-.113 31.985-.113L88.457.864c14.994 0 30.002 0 44.982-.114 19.425 0 38.823-.155 58.093-.297 14.555-.07 29.28-.028 43.835-.113 13.691-.1 27.397-.213 41.23-.34 4.29 0 6.371 1.727 6.357 5.876.085 8.127-.142 16.155-.198 24.31-.425 18.335-.694 36.657-1.119 54.992-.538 22.781-1.076 45.704-1.614 68.485-.042 1.869-.241 3.597-.127 5.451.453 5.508-3.342 8.156-8.326 8.255-3.568.042-7.15-.057-10.732-.142l-67.013-1.232c-14.173-.254-28.501-.637-42.688-.906-16.891-.325-33.896-.354-50.801-.679-15.759-.34-31.517-.666-47.262-1.006-13.45-.212-27.043-.41-40.48-.481l-4.304-.142c-4.148-.014-6.102-1.897-6.428-6.428h-.141zM272.59 10.69l-261.68.92c.481 40.21.934 80.152 1.26 120.235l13.167.255c-.028-3.427-.141-6.414.029-9.43.198-3.879 2.647-5.918 6.626-6.017 2.704-.071 5.423 0 8.014.085 9.288.056 18.434.127 27.737.169 4.729.085 6.71 2.11 7.178 6.754.184 1.402.099 2.846.141 4.262.184 1.402.255 2.959.354 4.814l194.385 3.171c.877-41.824 1.798-83.224 2.789-125.204zm-2.931 135.936-257.39-4.375c.028 3.427.155 6.556.184 9.968 28.912.439 57.385.807 85.872 1.303s57.144 1.118 85.745 1.458c28.6.34 56.875 1.302 85.447 1.359.114-3.44.142-6.442.114-9.868v.141zM36.126 127.229c.24 1.827.142 3.271.397 5.083 9.57 0 18.802.651 28.147.113l-.07-4.842z"/><path fill="#102185" d="M144.78 96.802c-.921.552-1.713 1.09-2.379 1.459-1.048.708-2.449.892-3.752.778-1.317-.255-2.407-.963-3.271-1.996-.708-1.048-1.175-2.421-.906-3.596.114-1.303.666-2.52 1.699-3.37 1.643-1.642 3.441-3.172 5.253-4.56.793-.537 1.529-1.344 1.841-2.25.453-.92.594-1.94.467-2.917 0-5.423.382-11.044.949-16.552.269-3.327 1.543-6.626 3.638-9.189a12.63 12.63 0 0 1 6.726-4.176c2.633-.637 5.394-.283 7.815.82 4.39 1.842 6.57 6.415 5.848 11.795-.963 6.697-4.064 12.389-7.929 17.77-1.076 1.57-2.478 2.902-3.695 4.487-.85 1.119-2.761 1.798-2.379 3.597.368 2.803 1.147 5.422 2.081 8.155.467 1.36 1.855 1.034 3.101.736 2.605-.779 4.871-4.219 4.743-7.348-.255-5.111.595-6.216 5.239-7.844 1.911-.68 3.624-1.77 5.338-2.846 3.553-2.322 6.711-2.18 8.481.44s.764 5.748-2.464 8.325c-.283.042-.382.34-.665.368-3.625 1.77-5.366 4.714-6.853 8.622-1.005 3.129-2.917 5.961-5.508 8.014s-5.862 3.2-9.118 3.356c-5.536.311-9.585-2.294-12.106-7.25-.764-1.472-1.529-2.945-2.18-4.573l-.043-.283zm10.109-27.057c1.642-2.648 3.271-5.437 2.534-8.906-2.973 2.393-2.378 5.749-2.534 8.906M96.838 100.455c-1.812 1.387-3.808 2.506-5.96 3.511-2.55 1.189-5.395 1.289-8.1.368s-4.799-2.789-6.13-5.323c-1.883-3.47-2.563-7.518-1.954-11.455.609-3.936 2.421-7.603 5.324-10.42 2.308-2.025 5.281-3.27 8.368-3.681 3.086-.411 6.201.467 8.835 1.968 1.387.82 2.803 1.77 4.091 2.888a7.1 7.1 0 0 1 1.756 2.477c.411.95.538 1.926.411 3.087-.114 3.44.637 6.91 1.925 10.166.34.382.68.765 1.006 1.147 1.713-1.09 3.27-2.294 4.998-3.228 1.061-.567 2.166-.864 3.327-.722 1.161.127 2.237.707 3.072 1.585.694.907 1.105 1.855 1.246 2.974.142 1.118-.141 2.166-.736 3.1-.34.623-.835 1.26-1.317 1.883-2.506 2.62-5.847 4.347-9.316 5.098-1.685.226-3.384.311-4.899-.354-1.642-.496-2.903-1.473-4.078-2.747-.68-.765-1.345-1.529-2.024-2.308h.141zm-4.913-15.49c-3.426-1.118-4.658-.665-5.904 1.784-1.614 2.931-1.133 5.437 1.288 7.547a33.6 33.6 0 0 0 4.758-9.345h-.142zM106.863 36.133c-5.989.084-11.129.056-16.269.155H64.882c-10.406.1-20.7.043-31.12.142-.836.113-1.728-.057-2.747-.213-1.161-.127-2.379-.68-3.228-1.713-.836-.892-1.275-2.11-1.289-3.256-.028-1.289.382-2.478 1.274-3.313a5.06 5.06 0 0 1 3.2-1.713c3.087-.411 6.088-.383 9.232-.369 17.981-.099 35.991-.07 53.83-.155 4.008.042 7.986-.057 11.993-.029 1.119-.155 2.181.284 3.115.878s1.77 1.473 2.181 2.421c.396.807.665 1.77.495 2.648s-.481 1.784-1.104 2.435c-1.147 1.005-2.336 1.742-3.681 2.35l-.184-.268zM207.05 102.239a56 56 0 0 1-6.06 3.809c-1.614.779-3.441 1.033-5.055.665-.878-.17-1.798-.623-2.449-1.246-.652-.623-1.19-1.415-1.445-2.237-.113-.835-.24-1.826.071-2.718.312-.892.779-1.67 1.43-2.195.623-.651 1.416-1.189 2.195-1.727 1.557-1.204 3.086-2.549 4.644-3.752 2.931-2.676 5.508-5.876 7.461-9.416 5.253-8.835 16.552-6.626 21.111-2.378 1.119.85 1.699 2.053 1.883 3.469s-.212 2.746-.92 3.837c-1.586 2.067-4.092 2.548-6.98 1.217-.453-.226-.935-.594-1.388-.821-1.515-.651-3.186-1.43-4.701.057-.764.68-1.231 1.444-1.543 2.35a4.7 4.7 0 0 0-.042 2.86 5.92 5.92 0 0 0 2.152 3.285c1.118.85 2.308 1.26 3.752 1.359 2.577.085 5.196-.694 7.291-2.11.793-.538 1.43-1.047 2.393-1.316.524-.354 1.204-.595 1.912-.68s1.401-.184 1.996.014c.736.184 1.331.397 1.827.906.623.34.976.864 1.345 1.53.368.665.594 1.203.679 1.911s.184 1.402-.014 1.996-.396 1.331-.892 1.827c-.34.623-.864.977-1.529 1.345-3.851 3.228-8.736 5.154-13.734 5.253-2.704.07-5.465-.269-7.9-1.374a17.86 17.86 0 0 1-6.358-4.87c-.042-.283-.509-.651-1.175-1.274l.057.424z"/></svg>