<svg xmlns="http://www.w3.org/2000/svg" width="214" height="219" fill="none" viewBox="0 0 214 219"><path fill="#102185" d="M34.972 61.468c.637-2.634 1.232-4.984 1.982-7.448 6.91-24.225 22.017-41.215 45.732-49.937 14.881-5.607 31.277-5.437 45.917.496 27.709 10.803 41.782 31.8 45.987 60.485.524 3.639.496 3.78 4.191 3.979 6.655.453 13.324.764 19.993 1.076 5.267.127 7.574 1.005 8.636 8.14.482 3.923.666 7.944.722 11.81.821 18.674 1.628 37.35 2.45 56.025.764 16.948 1.401 33.74 2.152 50.702.099 3.582.34 7.178.439 10.774-.071.567.113 1.303.042 1.855-.127 7.405-2.067 9.147-9.613 9.019-16.24-.283-32.381-.283-48.48-.552l-93.97-1.133-50.632-.552c-1.416-.042-2.888.184-4.163.17-4.02.184-6.315-1.982-6.357-5.975.156-13.111.326-26.236.467-39.219.1-11.554.057-23.135.156-34.689s.34-23.092.439-34.646c.099-9.415.043-18.703.142-28.119.056-2.562.113-5.125.438-7.66.482-3.653 2.124-5.295 5.735-5.522 3.61-.226 7.136.086 10.817.284 4.403.155 8.778.594 13.04.722 1.147 0 2.435-.1 3.596-.24l.128.155zM10.619 205.772l189.669 2.067c.567.071 1.303-.113 1.898-.325 0 0 .283.042.311-.241 0 0 .043-.283.354-.524a56187 56187 0 0 1-5.564-126.55L11.95 71.28c-.354 44.799-.821 89.441-1.19 134.38l-.155.127zM164.34 68.137c.439-24.934-21.635-55.7-54.157-58.136-37.62-2.831-62 28.233-64.677 52.869 5.579 1.019 11.341.637 17.132 1.118.198-1.543.637-2.633.779-3.752 2.138-9.713 7.56-18.279 15.234-24.551a43.93 43.93 0 0 1 27.369-9.373 40.82 40.82 0 0 1 26.986 10.845c7.405 6.698 12.035 15.872 13.296 25.897l.566 4.36 14.909.68c.835.113 1.557.057 2.563.057zm-28.672-1.36c1.487-6.937-4.531-19.737-13.918-25.4-5.422-3.285-11.511-4.8-17.811-4.644s-12.29 2.237-17.486 5.833c-7.73 5.55-13.833 16.028-12.658 21.181l61.732 3.016h.141z"/><path fill="#102185" d="M124.809 137.033c1.953 8.976 4.049 17.953 6.017 26.929.467 1.912.779 3.823.963 5.692.184.736.071 1.586-.17 2.407s-.481 1.501-1.005 2.152a6.2 6.2 0 0 1-1.77 1.487c-.75.325-1.515.651-2.379.679-4.375.708-8.863 1.119-13.365 1.657-5.819.807-11.639 1.6-17.444 2.265-1.741.198-3.582.099-5.409-.141-3.794-.496-6.173-2.959-5.96-6.782.297-5.536 1.02-11.002 1.883-16.467.68-5.196 1.94-10.307 3.044-15.447.127-.977.255-1.968.113-2.987-.156-1.02-.594-1.94-1.345-2.747a29.6 29.6 0 0 1-4.771-11.483c-.75-4.091-.326-8.325.934-12.445 2.987-10.746 10.945-15.83 21.082-16.92a31.3 31.3 0 0 1 11.427 1.076c9.585 3.13 14.951 11.115 15.616 21.196a27.25 27.25 0 0 1-1.416 10.661c-1.302 3.398-3.412 6.4-6.031 8.92l-.042.283zm-4.446 29.407c-.212-1.6-.411-2.336-.58-3.214-1.855-8.665-3.71-17.344-5.579-25.868-.383-1.472-.326-2.902.142-4.262s1.331-2.534 2.605-3.511c1.911-1.458 3.313-3.412 4.191-5.734 3.341-10.123-2.96-18.675-13.55-18.505-5.451.141-10.435 2.194-12.559 7.475-2.562 6.372-2.421 12.955 2.719 18.35 1.132 1.147 1.953 2.548 2.307 4.163.354 1.614.44 3.199-.056 4.7-1.274 6.4-2.549 12.8-3.681 19.228a34.5 34.5 0 0 0-.992 10.718l24.891-3.568h.142zM31.602 180.994c.708.099 1.402.184 1.911.68a4.8 4.8 0 0 1 1.53 1.345c.353.623.693 1.232.906 1.826.184.736.24 1.459 0 2.138-.1.708-.184 1.402-.553 2.067a4.8 4.8 0 0 1-1.345 1.529c-.637.482-1.232.694-1.826.907-.736.184-1.459.24-2.138 0-.708-.099-1.388-.326-1.912-.68a4.8 4.8 0 0 1-1.529-1.345c-.354-.623-.694-1.232-.906-1.827-.184-.736-.24-1.458-.155-2.024.099-.708.184-1.402.693-2.053a4.8 4.8 0 0 1 1.345-1.529c.496-.51 1.232-.694 1.827-.906.736-.185 1.317-.255 2.024-.156h.142zM180.777 100.447c-.708-.099-1.245-.311-1.911-.68a6.3 6.3 0 0 1-1.402-1.33c-.368-.482-.694-1.232-.906-1.827s-.113-1.303-.014-1.996c.184-1.402.92-2.591 2.011-3.3 1.118-.849 2.435-1.104 3.837-.92 1.401.184 2.59.92 3.298 2.01.85 1.12 1.105 2.436.921 3.838s-.92 2.59-2.011 3.299c-1.118.849-2.435 1.104-3.837.92zM184.855 194.955c-1.402-.184-2.591-.92-3.299-2.01-.85-1.119-1.104-2.435-.92-3.837.099-.708.311-1.246.679-1.911.354-.524.85-1.034 1.473-1.374s1.232-.694 1.812-.764c.595-.213 1.303-.114 1.996-.015 1.261.17 2.45.892 3.172 1.983.708 1.09 1.118 2.293.963 3.553-.156 1.261-.312 1.246-.68 1.912-.354.524-.849 1.033-1.345 1.529a5.2 5.2 0 0 1-1.827.906c-.594.212-1.316.255-2.024.156v-.142zM37.35 92.064c-.099.708-.17 1.26-.538 1.925-.354.524-.85 1.034-1.345 1.53-.481.368-1.231.693-1.812.764-.736.184-1.302.113-1.996.014a4.58 4.58 0 0 1-3.172-1.982c-.708-1.09-.963-2.407-.793-3.681.1-.708.312-1.246.666-1.77s.708-1.048 1.33-1.402c.482-.368 1.09-.708 1.671-.779.595-.212 1.317-.254 1.883-.184.708.1 1.246.312 1.77.666s1.048.708 1.402 1.33c.368.482.708 1.091.92 1.7.213.594.255 1.317.043 1.855z"/></svg>