<svg xmlns="http://www.w3.org/2000/svg" width="311" height="240" fill="none" viewBox="0 0 311 240"><path fill="#102185" d="M187.894 170.267c-2.407-.566-4.673-.991-6.796-1.841-2.407-.849-4.814-1.84-7.08-2.973-3.964-2.124-5.946-5.947-6.796-10.194-.142-1.274 0-2.549.283-3.823.425-1.274.991-2.407 1.982-3.256 1.699-2.124 3.823-4.106 5.805-6.372-.849-.283-1.699-.708-2.548-.991-4.389-1.133-8.354-3.54-11.469-6.796-1.699-1.699-2.973-3.964-3.539-6.23a9.76 9.76 0 0 1 0-6.938c.708-2.265 2.265-4.247 4.247-5.521 1.558-1.133 3.115-2.124 4.673-3.257-2.832-.991-5.664-1.841-8.354-2.832a21.2 21.2 0 0 1-4.248-2.548c-8.07-5.805-6.654-17.982-.566-22.937 4.389-3.115 9.345-5.522 14.583-6.796 7.221-1.983 14.442-3.398 21.946-4.106 1.558-.142 3.257-.567 5.239-.991-.425-1.133-.849-2.266-1.416-3.398a43.5 43.5 0 0 1-4.672-13.026c-1.274-6.23-.708-12.177 3.115-17.699 3.823-5.521 13.167-8.778 20.247-5.238 5.522 2.973 10.902 6.371 15.857 10.194 6.655 5.239 14.584 8.778 22.937 10.336a14 14 0 0 0 3.399.425h21.521q5.097-.426 10.194-1.275c1.133-.141 2.124 0 3.115.567a5.8 5.8 0 0 1 2.265 2.265c.425 1.133.708 2.124.991 3.256 2.832 13.876 5.522 27.61 8.212 41.344l9.345 47.148c.849 4.106 0 6.088-3.823 7.787s-8.212 3.115-12.318 4.531c-3.115 1.132-6.371 1.982-9.486 3.256-10.619 4.248-21.238 8.354-31.716 12.884-6.796 2.974-13.309 6.655-20.105 9.77a103.9 103.9 0 0 1-25.769 8.495c-4.247.991-8.778.85-13.026-.425-5.38-1.699-9.061-5.238-9.769-11.185-.283-2.832.283-5.663 1.557-8.212.567-1.274 1.275-2.265 1.983-3.54zm112.844-23.22a14794 14794 0 0 0-16.707-84.386h-4.106c-6.513.284-13.026.709-19.681.709-4.955 0-10.052-.567-14.866-1.7-8.779-2.407-17.132-6.513-24.353-12.034a148 148 0 0 0-12.601-8.212c-2.974-1.7-5.664-1.133-8.071 1.274-.849.85-1.557 1.699-1.982 2.832-.425.99-.708 2.265-.849 3.398-.142 4.53 1.274 8.637 2.973 12.6.991 2.408 2.265 4.532 3.256 6.939q.637 1.485.85 3.398c.141 1.274 0 2.265-.566 3.398-.567 1.132-.992 2.123-1.841 2.973-.85.85-1.699 1.557-2.832 1.982-1.274.567-2.548 1.133-3.964 1.275-3.257.566-6.513 1.132-9.911 1.557a79.3 79.3 0 0 0-19.822 4.672c-1.558.567-3.115 1.275-4.531 2.124-1.133.425-2.124 1.274-2.832 2.266-.708.99-.991 2.265-.991 3.54 0 2.83 1.982 4.105 4.106 5.096q2.335 1.275 5.097 1.699c9.062 1.982 18.406 2.266 27.468.991.991-.141 1.982-.141 3.115 0 .991 0 1.982.425 2.831.991.85.708 1.416 1.558 1.558 2.549.141.991 0 2.124-.425 2.973a3.9 3.9 0 0 1-2.124 2.124c-.991.425-2.123.85-3.256 1.133-2.549.566-5.239 1.132-7.929 1.699-6.088 1.416-12.176 2.973-17.698 6.23-1.558.849-3.257 1.557-4.106 3.539.424 1.841 1.557 3.54 3.115 4.531a17.3 17.3 0 0 0 7.787 3.256c7.504 1.416 15.15.425 22.654-.283 3.398-.283 6.796-1.274 10.194-1.84 3.115-.567 5.522.849 6.23 3.256.708 2.69-.708 4.956-3.965 5.947-1.84.566-3.681.991-5.522 1.416a112.8 112.8 0 0 0-23.361 7.645c-2.266.991-4.248 2.549-5.805 4.389-.284.284-.425.567-.567.85s-.141.708-.141.991c0 .425 0 .708.283.991.142.283.425.567.708.85.566.708 1.274 1.132 2.124 1.557 2.973 1.558 6.229 2.407 9.627 2.69 7.221.425 14.301-.566 21.238-2.548 4.956-1.416 9.77-3.115 14.725-4.531 1.558-.566 3.257-.708 4.956-.566.708 0 1.416.424 1.982.849q.85.637 1.275 1.699t.424 2.124c0 .708-.283 1.416-.708 1.982-.424.708-1.132 1.416-1.84 1.982s-1.558.85-2.407 1.133c-5.381 1.699-10.761 3.398-16.141 4.956-5.38 1.557-10.336 3.114-14.725 6.371-1.416.991-2.549 2.124-3.681 3.398-.425.566-.708 1.133-.85 1.841v1.982c.142.708.566 1.274 1.133 1.699.425.425 1.132.849 1.699.991 2.832.991 5.805 1.133 8.778.283a378 378 0 0 0 17.982-5.522 43 43 0 0 0 7.362-3.256c13.592-7.079 27.751-13.309 42.193-18.69 7.221-2.973 14.583-5.663 22.087-7.787 1.841-.425 3.54-1.274 5.806-1.982zM93.455 109.81c3.823-.425 7.079-.708 10.336-1.132a50.9 50.9 0 0 1 20.672 1.274c4.814 1.274 8.92 4.106 12.035 7.929 1.84 2.265 2.831 5.097 2.973 7.928 0 2.974-.708 5.805-2.407 8.212-2.266 3.115-5.097 5.805-8.495 7.788l-3.54 2.123c3.681 1.558 7.363 3.115 10.902 4.814 2.832 1.275 5.239 3.257 6.938 5.947 3.256 5.239 3.115 9.911 0 14.442-3.964 5.805-9.769 8.92-16.282 10.902-.708.283-1.416.425-2.266.566-.566 0-.991.283-1.699.567 2.265 1.557 4.531 2.831 6.513 4.389a26.8 26.8 0 0 1 5.663 5.663c2.974 4.814 2.549 9.345-1.274 13.876-1.84 2.265-3.964 3.964-6.513 5.238s-5.38 1.983-8.212 2.124c-1.416 0-2.831 0-4.247.283-3.257.567-3.965 2.124-2.832 5.239a31 31 0 0 1 1.699 4.672c.708 2.549.566 5.097-.283 7.504-.991 2.407-2.549 4.39-4.814 5.805-1.841 1.133-3.823 2.124-5.947 2.549-8.495 1.699-16.99 1.841-25.202-1.416-11.186-4.531-22.513-8.637-33.84-13.026A300 300 0 0 0 8.08 213.026c-.992-.283-1.983-.424-2.974-.707-3.54-.992-5.238-2.974-5.097-6.655 0-2.69.425-5.38.85-8.07 1.982-13.734 4.106-27.327 6.088-41.06 1.699-11.186 3.54-22.229 5.239-33.415.283-2.265.566-4.53.99-6.796.567-3.539 2.124-5.097 5.523-5.097 11.468-.141 21.096-5.097 29.45-12.46 5.38-4.672 10.194-9.769 15.15-14.724 5.663-5.664 11.751-10.478 19.68-12.177a33.2 33.2 0 0 1 9.203-.425c5.239.708 9.345 5.24 10.336 10.62.849 5.521 0 11.043-2.69 15.999-1.275 2.831-3.115 5.38-4.673 7.928l-1.982 3.682zm-70.793 11.044c-.142.283-.425.425-.425.708-.85 5.663-1.699 11.327-2.548 17.132-.991 6.088-1.84 12.176-2.69 18.264-.85 6.089-1.7 12.035-2.69 17.84-.992 6.23-1.983 12.46-2.832 18.69-.425 3.539-1.7 6.937-.991 10.619.566.283 1.132.424 1.557.566 6.371 1.699 13.026 3.115 19.256 5.38 10.76 3.681 21.38 7.929 31.998 12.035 8.92 3.54 17.982 6.796 27.61 8.07 3.256.567 6.654.425 9.911-.566 3.823-1.133 4.672-3.115 2.973-6.655-2.265-5.097-6.513-9.061-11.61-11.326-3.681-1.558-7.363-2.832-11.044-4.39-1.416-.566-2.832-1.132-4.248-1.84-1.132-.567-1.982-1.699-2.406-2.832a5.9 5.9 0 0 1 0-3.823c.85-1.982 3.54-2.973 6.371-2.124 1.274.425 2.549.992 3.965 1.558 10.618 3.964 21.945 5.805 33.131 5.239 2.831-.142 5.522-1.416 7.645-3.257.425-.283.708-.566.992-.991.283-.425.424-.85.424-1.416 0-.425 0-.991-.283-1.416-.141-.424-.566-.849-.849-1.132a16.4 16.4 0 0 0-2.407-1.983c-3.54-2.69-7.363-4.672-11.61-5.946-7.08-1.982-14.16-3.823-21.097-5.664l-2.973-.849c-.991-.425-1.7-.991-2.266-1.982q-.85-1.275-.85-2.974c0-1.132.709-2.123 1.417-2.831a5.64 5.64 0 0 1 2.973-1.275c1.982 0 3.823 0 5.805.142 8.92.991 17.982.849 26.902-.283 4.247-.567 8.212-2.407 11.326-5.239 3.399-2.973 3.115-6.088-.707-8.354-2.832-1.699-5.947-3.114-9.204-3.964-5.946-1.416-12.034-2.265-18.123-3.115-2.973-.425-6.088-.425-9.203-.708s-5.097-2.548-4.53-5.522c0-.991.566-1.982 1.415-2.69.708-.708 1.7-1.132 2.832-1.274 3.965-.425 7.929-.85 11.893-1.416a38.16 38.16 0 0 0 15.575-5.097c2.265-1.416 4.247-3.256 5.946-5.38 1.699-1.982 1.275-3.54-.424-5.522-1.983-1.982-4.39-3.54-7.221-4.248-7.363-2.123-14.725-1.132-22.23-.283-3.964.567-7.928.85-11.893.991-5.663 0-8.353-4.53-5.805-9.486.85-1.557 1.983-2.973 2.974-4.531 2.265-3.539 4.672-7.08 6.796-10.76a17.7 17.7 0 0 0 2.548-9.203c0-3.682-1.699-5.522-5.522-5.097-2.406.283-4.813.849-6.937 1.84-4.39 1.84-7.646 5.097-10.902 8.354-5.24 5.238-10.478 10.619-16.141 15.433-8.779 7.504-18.69 13.026-30.583 14.158-.283 0-.566.142-.85.283zM120.924 14.664c1.84-4.106 4.53-7.645 7.928-10.619 2.407-2.123 5.381-3.54 8.637-3.964 8.779-.85 14.017 5.097 15.716 12.318 1.416 5.664.708 11.185-.283 16.849-2.124 11.61-6.513 22.653-10.902 33.556a290 290 0 0 0-5.947 15.433c-1.274 3.68-4.389 4.955-7.362 6.23-1.982.849-3.965-.425-5.38-1.983-3.257-3.681-6.655-7.08-9.911-10.76-9.345-10.195-16.708-22.23-21.38-35.397-1.84-5.38-3.257-10.76-2.832-16.565.283-3.115 1.275-6.089 2.974-8.637a19.2 19.2 0 0 1 6.796-6.23c4.814-2.973 10.619-2.124 15.291 2.124 2.407 2.265 4.531 4.955 6.938 7.787zm6.796 58.475c.424-.99.708-1.557.849-2.123 1.416-3.54 2.69-7.221 4.106-10.76 3.823-9.487 7.646-18.973 9.911-29.026 1.133-5.38 2.407-10.76 1.133-16.282 0-1.133-.566-2.124-1.133-2.974-.708-.85-1.557-1.557-2.548-1.982-2.407-.85-4.248.425-5.947 1.982-2.832 2.832-4.955 6.372-5.946 10.195-.992 3.54-1.558 7.22-1.558 11.043 0 1.133-.425 2.124-1.133 2.973-.708.85-1.699 1.416-2.69 1.558s-2.124 0-2.973-.566c-.991-.567-1.699-1.416-1.982-2.407-.284-.708-.425-1.416-.567-2.266-1.132-5.38-3.539-10.477-6.796-14.866-1.274-1.416-2.69-2.832-4.106-3.965-.566-.566-1.416-.708-2.265-.708-.708 0-1.558.425-1.982.992-1.275.99-2.266 2.123-2.974 3.54-.708 1.415-1.132 2.83-1.132 4.388 0 2.832.424 5.664 1.415 8.354 5.098 16.99 15.009 30.724 28.035 43.184z"/></svg>