<svg width="358" height="304" viewBox="0 0 358 304" fill="none" xmlns="http://www.w3.org/2000/svg">
<path d="M157.038 276.246L157.378 293.01C162.362 292.981 166.893 292.981 171.565 293.024C172.868 293.066 174.17 293.109 175.402 293.434C176.492 293.718 177.526 294.27 178.304 295.204C179.083 296.139 179.381 297.243 179.381 298.404C179.239 299.537 178.814 300.599 178.05 301.278C177.257 302.1 176.393 302.609 175.289 302.907C174.354 303.105 173.462 303.161 172.613 303.091C141.223 303.445 109.833 303.784 78.3445 303.969C69.8635 303.969 61.4247 303.246 52.9436 302.652C51.5985 302.737 50.2678 302.255 49.2059 301.25C48.2856 300.287 47.5777 299.07 47.5211 297.597C47.5211 294.822 49.6873 292.599 53.0995 292.458C58.0834 292.429 63.1661 292.585 68.1075 292.684C68.6597 292.826 69.4103 292.727 70.4439 292.698L70.3305 273.952C64.214 273.825 58.2816 273.613 52.4483 273.556C37.0295 273.216 21.7238 273.046 6.26255 272.848C1.90168 272.749 -0.108743 270.908 0.00452672 266.547C1.20801 221.806 2.55296 177.107 3.77061 132.38C3.96883 125.414 7.63606 121.974 14.8853 122.243C50.4943 123.135 86.0607 124.154 121.627 125.188L216.009 127.85C221.942 128.076 225.835 131.715 225.708 137.817C225.41 163.77 224.957 189.836 224.632 215.93L223.952 267.099C223.853 274.83 221.842 276.94 214.112 276.841C204.64 276.727 195.196 276.472 185.582 276.317C175.969 276.161 166.864 276.288 156.911 276.345L157.081 276.246H157.038ZM215.669 138.016L13.795 132.508C12.5916 176.074 11.4731 219.371 10.3404 262.668L213.715 266.363C214.423 223.548 215.103 180.859 215.712 137.874L215.669 138.016ZM80.8223 293.803L147 292.967C146.872 287.233 146.787 281.938 146.759 276.373C124.417 274.533 102.612 274.589 80.4963 274.703C80.5813 281.159 80.7373 287.346 80.7798 293.93L80.8223 293.788V293.803Z" fill="#102185"/>
<path d="M246.549 87.073C243.646 84.2413 240.984 81.877 238.761 79.2718C222.578 60.8798 223.357 36.6827 240.758 19.3667C251.207 8.94597 264.134 3.31091 278.604 1.01721C297.577 -1.78619 315.473 1.11623 331.996 10.829C337.278 13.9864 342.162 17.9509 346.084 22.6374C362.183 41.5816 360.795 66.1183 342.587 83.0378C330.269 94.6196 315.232 99.9716 298.638 101.118C296.033 101.331 293.471 101.26 291.715 103.596C291.389 103.837 291.078 104.078 290.78 104.177C276.806 110.109 263.667 118.293 248.29 121.025C246.973 121.266 245.784 121.535 244.467 121.79C239.087 122.47 236.227 119.369 237.785 114.286C239.427 108.651 241.338 103.058 243.122 97.4372C244.184 93.8692 245.374 90.4571 246.563 87.0448L246.549 87.073ZM249.89 110.407C252.411 109.755 254.945 108.962 257.493 108.169C266.173 104.361 274.866 100.425 283.56 96.4743C284.622 96.0496 285.556 95.4691 286.391 94.5771C287.411 93.4303 288.529 92.5807 289.889 92.0569C291.248 91.533 292.706 91.3065 294.136 91.3631C302.589 91.2498 311.112 89.5649 318.985 86.3651C327.466 82.967 334.871 77.9832 340.477 70.465C344.456 65.4387 346.735 59.3222 347.047 52.9367C347.358 46.5511 345.674 40.1657 342.261 34.8421C338.793 28.9238 333.738 24.0815 327.947 20.5701C310.305 9.69634 291.403 7.79916 271.652 13.2077C262.166 15.6147 253.458 20.6977 246.747 27.9185C240.687 34.5164 237.204 42.1762 237.516 51.2235C237.813 59.4072 241.168 67.1661 246.917 73.1127C249.55 75.7603 252.368 78.1531 255.186 80.5459C257.862 82.9104 258.442 84.8503 257.281 88.1209C256.63 89.7491 255.95 91.5047 255.44 93.1613C253.656 98.7822 251.887 104.389 249.876 110.69L249.919 110.407H249.89Z" fill="#102185"/>
<path d="M318.688 189.666C316.507 202.366 312.826 214.443 306.157 225.529C302.972 230.952 298.738 235.794 293.641 239.518C283.319 246.951 271.738 244.927 264.318 234.464C259.306 227.342 256.998 219.158 256.177 210.606C255.696 205.821 255.639 201.092 255.852 196.405C255.965 195.57 255.781 194.82 255.597 194.083C255.271 193.319 254.804 192.54 254.308 192.044C250.018 187.882 245.785 183.436 241.523 179.132C236.539 173.865 237.87 168.329 244.864 166.304C250.089 164.733 255.243 163.6 260.581 162.184C261.614 161.901 262.676 161.476 263.511 160.584C264.332 159.834 264.885 158.913 265.324 157.837C268.495 149.413 274.088 142.036 281.408 136.628C292.041 128.954 303.368 130.808 311.028 141.583C316.989 150.121 319.084 159.848 319.382 170.042C319.75 176.668 319.141 183.153 318.943 189.708L318.66 189.666H318.688ZM252.227 175.182C252.836 175.975 253.331 176.484 253.841 176.98C257.225 180.448 260.481 183.762 263.851 187.231C264.729 188.066 265.437 189.17 265.848 190.36C266.258 191.549 266.357 192.866 266.187 194.126C265.366 202.154 266.074 210.408 268.155 218.125C269.316 222.146 271.214 225.983 273.436 229.579C276.523 234.152 281.125 234.931 285.939 232.17C287.935 231.165 289.691 229.834 291.064 228.163C294.307 224.326 297.152 220.291 299.474 215.888C305.959 203.06 309.201 188.93 308.904 174.601C308.847 166.729 307.913 159.027 304.642 151.707C299.743 140.592 291.928 139.233 283.447 147.912C278.888 152.995 275.221 158.786 272.63 165.143C272.177 166.361 271.582 167.564 270.605 168.442C269.628 169.32 268.509 170.155 267.164 170.538C262.223 172.137 257.324 173.468 251.944 175.153L252.227 175.196V175.182Z" fill="#102185"/>
<path d="M53.6942 202.083C54.473 199.648 55.8465 195.471 57.3615 191.337C58.9047 187.061 61.4814 183.337 64.9078 180.279C67.8528 177.39 71.0386 174.7 73.842 171.77C78.0754 167.31 83.5975 164.053 89.6433 162.708C96.312 161.221 102.896 159.565 109.791 160.613C112.878 161.122 115.964 162.212 119.178 162.751C121.854 163.147 124.459 163.246 127.248 163.232C130.377 163.019 133.606 162.977 136.905 163.232C139.892 163.572 142.738 164.449 145.301 165.851C147.835 167.38 150.115 169.292 151.842 171.642C155.438 176.371 159.077 180.973 162.716 185.574C167.402 191.761 170.701 198.756 172.528 206.401C173.816 211.569 172.953 216.61 171.508 221.636C171.324 222.316 170.985 223.108 170.532 223.717C163.99 233.133 155.835 239.802 143.715 239.731C136.947 239.872 130.151 239.575 123.426 239.009C112.523 237.649 101.522 238.301 90.9599 240.693C79.6047 243.313 68.9856 240.849 59.0037 235.342C52.9863 232.029 49.1635 225.912 50.5652 218.238C51.4997 213.509 52.4341 208.78 53.7226 202.097L53.6942 202.083ZM155.339 193.616C152.833 189.751 152.734 189.581 149.251 191.167C147.764 191.804 146.561 192.512 145.287 193.503C141.662 196.221 137.259 196.83 132.898 197.312C131.836 197.467 130.703 197.326 129.712 196.632C128.693 196.08 128.041 195.174 127.744 194.069C127.305 192.937 127.319 191.761 127.744 190.7C128.027 189.609 128.862 188.647 130.038 188.08C131.114 187.33 132.246 186.891 133.591 186.806C138.335 186.565 141.79 183.379 145.896 181.072C144.905 179.797 144.196 178.58 143.319 177.475C139.482 173.115 137.513 173.341 134.993 178.537C134.88 178.948 134.738 179.5 134.328 179.967C130.462 186.424 125.309 190.501 117.323 189.156C115.638 188.873 113.897 188.859 112.17 188.703C108.46 201.347 107.214 214.628 108.786 227.753L132.048 229.395C132.048 228.234 132.105 227.512 132.133 226.79C132.374 222.471 131.751 218.649 126.965 216.822C125.946 216.27 125.082 215.604 124.304 214.67C123.242 213.665 122.336 212.702 120.693 211.102C120.636 212.985 120.665 214.019 120.551 215.01C120.551 216.171 120.127 217.233 119.461 218.096C118.796 218.946 117.762 219.555 116.658 219.852C115.454 219.979 114.322 219.838 113.302 219.271C112.283 218.719 111.49 217.785 111.023 216.78C109.904 214.302 109.762 211.484 110.569 208.907C111.249 206.302 113.019 203.98 115.157 202.494C120.339 198.869 123.978 199.506 128.537 204.49C129.118 205.085 129.627 205.948 130.335 206.571C131.256 207.534 132.204 208.369 133.238 208.936C139.736 212.079 141.959 217.629 141.959 224.355C141.945 226.11 142.2 227.922 142.214 230.131L151.163 228.347L151.757 227.767C143.828 223.958 143.956 217.261 144.324 210.196C144.805 202.72 148.515 197.382 155.042 193.673L155.354 193.602L155.339 193.616ZM83.4558 231.151C82.3372 225.303 78.4861 222.117 72.5395 221.891C69.4812 221.834 67.6405 220.475 67.1166 217.997C66.8476 216.766 67.0319 215.491 67.7257 214.5C68.2779 213.481 69.3961 212.589 70.6279 212.334C72.7234 211.555 75.1304 211.314 77.3675 211.739C84.9424 214.146 90.7335 218.861 93.2113 226.818C93.5511 227.781 93.8764 228.744 94.3154 229.89L97.8975 229.069C98.1524 219.045 97.8977 209.318 99.0728 199.69C100.149 189.878 102.74 180.463 106.421 171.316L104.496 170.821C94.5563 171.897 92.0219 171.543 93.1263 183.082C93.4377 186.381 93.6216 189.652 93.6216 193.007C93.5508 201.177 87.8166 205.255 81.969 206.373C80.3125 206.529 78.7411 206.996 77.2119 207.775C72.6953 210.55 68.2211 211.442 62.9541 208.61C62.2036 212.66 61.2407 216.355 60.6885 220.163C60.3346 221.537 60.5613 222.91 61.2693 224.114C61.9772 225.317 63.0672 226.195 64.2707 226.648C66.6352 227.696 68.7875 228.984 71.2087 229.763C75.1165 231.066 79.0809 232.099 83.286 231.136L83.4274 231.165L83.4558 231.151ZM82.5356 178.835L81.6434 178.311C77.4808 182.502 73.3607 186.551 69.3396 190.77C68.2636 192.101 67.4564 193.503 66.7626 195.074C66.6919 195.344 66.4511 195.726 66.3803 195.995C66.3095 196.264 66.1965 196.674 66.2673 196.986C66.3381 197.297 66.3947 197.609 66.6071 197.949C66.8195 198.289 67.046 198.501 67.2867 198.713C67.8672 199.308 68.5466 199.478 69.2404 199.662C69.9342 199.846 70.713 199.605 71.4067 199.195C73.7571 198.048 76.1641 197.212 78.5002 196.646C82.5638 195.655 83.5267 194.735 83.286 190.572C83.0453 186.41 82.7052 182.672 82.2521 178.75L82.5214 178.82L82.5356 178.835ZM160.139 202.749C155.169 206.147 153.272 211.201 154.603 216.228C154.971 217.643 158.044 219.895 159.686 219.739C161.683 219.385 162.107 217.728 162.39 216.058C163.254 211.598 162.433 206.854 160.238 202.918L160.139 202.749ZM125.125 174.219C118.357 173.78 116.913 174.29 114.987 178.325C119.263 180.463 123.638 179.401 125.125 174.219Z" fill="#102185"/>
<path d="M191.868 158.758C192.222 157.385 193.199 156.465 194.402 155.757C195.578 155.176 196.951 154.95 198.324 155.304C199.004 155.488 199.485 155.898 200.094 156.351C200.576 156.762 201.014 157.314 201.283 157.98C201.552 158.645 201.68 159.254 201.822 159.877C201.779 160.599 201.779 161.179 201.468 161.831C201.284 162.51 201.014 163.034 200.561 163.643C200.151 164.124 199.599 164.563 199.032 165.002C198.381 165.271 197.73 165.54 197.135 165.54C196.385 165.639 195.833 165.498 195.139 165.314C193.935 164.861 192.887 163.855 192.179 162.638C191.599 161.463 191.415 159.948 191.868 158.758Z" fill="#102185"/>
<path d="M203.167 183.478C202.842 184.71 202.119 185.843 201.043 186.579C199.967 187.329 198.735 187.584 197.461 187.4C196.088 187.046 194.856 186.14 194.19 184.795C193.483 183.592 193.284 182.077 193.638 180.703C193.964 179.471 194.686 178.339 195.762 177.603C196.838 176.852 198.211 176.626 199.443 176.951C200.123 177.135 200.817 177.305 201.256 177.857C201.864 178.31 202.317 178.863 202.615 179.387C202.884 180.038 203.153 180.689 203.281 181.312C203.38 182.062 203.365 182.657 203.196 183.337L203.167 183.478Z" fill="#102185"/>
<path d="M200.732 199.662C201.284 199.804 201.963 199.988 202.445 200.398C202.926 200.809 203.393 201.234 203.705 201.744C204.016 202.267 204.285 202.919 204.413 203.542C204.54 204.165 204.498 204.887 204.356 205.425C204.215 205.963 204.031 206.656 203.62 207.138C203.21 207.619 202.784 208.087 202.275 208.398C201.751 208.71 201.1 208.979 200.477 209.106C199.854 209.233 199.273 209.233 198.594 209.049C198.042 208.908 197.362 208.724 196.881 208.313C196.399 207.902 195.932 207.478 195.62 206.968C195.309 206.444 195.04 205.793 194.912 205.17C194.785 204.547 194.827 203.825 194.969 203.287C195.295 202.055 196.158 200.965 197.192 200.356C198.268 199.605 199.599 199.521 200.873 199.705L200.732 199.662Z" fill="#102185"/>
<path d="M180.428 159.451C180.103 160.683 179.38 161.816 178.205 162.382C177.129 163.133 175.798 163.218 174.524 163.034C173.292 162.708 172.202 161.844 171.593 160.811C170.984 159.777 170.758 158.404 170.942 157.13C171.268 155.898 172.131 154.807 173.165 154.199C174.241 153.448 175.572 153.363 176.846 153.547C177.398 153.689 178.078 153.873 178.559 154.284C179.041 154.694 179.508 155.119 179.82 155.629C180.131 156.152 180.4 156.804 180.527 157.427C180.655 158.05 180.612 158.772 180.471 159.31L180.428 159.451Z" fill="#102185"/>
<path d="M180.088 179.982C179.947 180.534 179.763 181.214 179.395 181.553C178.984 182.035 178.559 182.502 178.05 182.813C177.54 183.125 176.917 183.252 176.294 183.38C175.671 183.507 175.133 183.38 174.581 183.224C173.349 182.898 172.386 182.077 171.777 181.044C171.169 180.01 171.084 178.665 171.367 177.575C171.692 176.343 172.514 175.38 173.547 174.771C174.581 174.163 175.954 173.936 177.016 174.361C178.248 174.686 179.211 175.508 179.819 176.541C180.428 177.575 180.513 178.92 180.23 180.01L180.088 179.982Z" fill="#102185"/>
<path d="M204.3 247.391C204.045 248.354 203.564 249.104 202.842 249.642C202.12 250.18 201.284 250.562 200.364 250.761C199.472 250.817 198.481 250.704 197.73 250.223C196.937 249.869 196.258 249.104 195.72 248.382C195.352 247.561 195.012 246.584 195.097 245.734C195.21 244.743 195.564 243.95 196.046 243.2C196.669 242.478 197.39 241.94 198.353 241.6C199.288 241.402 200.18 241.345 201.129 241.6C202.36 241.926 203.323 242.747 203.932 243.78C204.541 244.814 204.626 246.159 204.343 247.249L204.3 247.391Z" fill="#102185"/>
<path d="M204.796 226.323C204.654 226.875 204.513 227.413 204.102 227.894C203.691 228.376 203.267 228.843 202.757 229.155C202.233 229.466 201.724 229.763 201.143 229.763C200.52 229.891 199.982 229.763 199.43 229.608C198.339 229.324 197.348 228.631 196.74 227.597C196.088 226.705 195.834 225.459 196.117 224.369C196.442 223.137 197.136 222.146 198.028 221.495C199.104 220.744 200.336 220.489 201.44 220.773C201.993 220.914 202.672 221.098 203.154 221.509C203.635 221.919 204.102 222.344 204.414 222.854C204.725 223.378 204.994 224.029 205.023 224.468C205.15 225.091 205.15 225.671 205.008 226.224L204.838 226.323H204.796Z" fill="#102185"/>
<path d="M300.678 58.4017C290.597 66.1607 284.948 65.6652 280.261 56.1506C279.384 57.3116 278.251 58.3026 277.118 59.2937C270.492 63.8103 263.172 60.9363 261.232 53.234C260.128 48.7882 260.468 44.2715 262.054 40.0523C263.215 36.7816 265.834 35.4366 268.708 36.3994C271.441 37.348 272.531 39.7833 271.639 43.0964C271.016 45.5883 270.265 47.9103 271.398 51.0677L277.755 44.3707C278.775 43.2239 279.794 42.077 280.941 40.9584C283.447 38.3108 285.698 37.617 288.12 38.6648C290.541 39.7125 291.645 42.1478 291.277 45.8149L290.81 49.1847C290.696 50.02 290.711 50.8836 290.64 52.4552C291.419 51.988 292.197 51.5208 292.976 51.0677C295.652 48.2926 298.201 45.3618 300.862 42.5867C303.538 39.8116 305.591 39.3868 308.027 40.4346C310.703 41.808 311.368 44.1867 311.142 46.8626C310.873 48.8307 310.858 50.9686 311.014 52.9932C311.977 52.2712 312.925 51.549 313.747 50.7986C315.885 48.8022 317.768 46.4945 320.047 44.5264C320.543 44.0167 321.024 43.6628 321.619 43.4645C322.214 43.2663 322.822 43.054 323.516 43.1531C324.21 43.2522 324.776 43.3229 325.456 43.5636C325.994 43.776 326.659 44.1582 327.028 44.6396C327.905 45.475 328.458 46.6927 328.585 47.8537C328.557 49.1421 328.231 50.3739 327.396 51.2659C323.828 55.3436 319.722 59.2089 315.276 62.4513C309.57 66.5148 304.812 64.7165 300.706 58.2885V58.4301L300.678 58.4017Z" fill="#102185"/>
<path d="M283.617 179.671C284.58 174.8 285.302 170.609 286.039 166.291C286.138 165.583 286.251 164.747 286.633 164.082C286.93 162.978 287.78 161.958 288.729 161.364C289.663 160.783 290.853 160.514 292.113 160.684C293.231 160.84 294.293 161.42 295.029 162.369C295.751 163.332 296.176 164.379 296.162 165.526C296.133 166.815 296.091 168.089 295.78 169.335C294.406 177.15 293.188 184.98 291.815 192.796L291.603 194.339C291.305 195.443 290.598 196.491 289.635 197.213C288.672 197.935 287.483 198.346 286.208 198.176C284.934 198.006 283.745 197.411 282.895 196.293C282.032 195.316 281.649 193.971 281.819 192.711C281.989 190.445 282.456 188.081 282.768 185.844L283.646 179.529V179.671H283.617Z" fill="#102185"/>
<path d="M281.719 216.143C280.317 215.945 279.128 215.209 278.42 214.119C277.57 213 277.188 211.655 277.386 210.253C277.556 208.993 278.293 207.804 279.397 207.096C280.36 206.374 281.69 205.992 282.979 206.02C284.239 206.19 285.57 206.954 286.434 207.931C287.283 209.05 287.665 210.395 287.637 211.669C287.538 212.377 287.439 213.071 286.943 213.581C286.589 214.105 286.221 214.628 285.584 215.11C285.103 215.478 284.48 215.818 283.744 216.002C283.149 216.2 282.427 216.242 281.719 216.158V216.143Z" fill="#102185"/>
</svg>
