<svg xmlns="http://www.w3.org/2000/svg" width="358" height="304" fill="none" viewBox="0 0 358 304"><path fill="#102185" d="m157.038 276.246.34 16.764c4.984-.029 9.515-.029 14.187.014 1.303.042 2.605.085 3.837.41 1.09.284 2.124.836 2.902 1.77.779.935 1.077 2.039 1.077 3.2-.142 1.133-.567 2.195-1.331 2.874a5.74 5.74 0 0 1-2.761 1.629 9.2 9.2 0 0 1-2.676.184c-31.39.354-62.78.693-94.268.878-8.481 0-16.92-.723-25.401-1.317-1.346.085-2.676-.397-3.738-1.402-.92-.963-1.628-2.18-1.685-3.653 0-2.775 2.166-4.998 5.578-5.139 4.984-.029 10.067.127 15.009.226.552.142 1.302.043 2.336.014l-.114-18.746c-6.116-.127-12.048-.339-17.882-.396-15.419-.34-30.724-.51-46.185-.708-4.361-.099-6.372-1.94-6.258-6.301 1.203-44.741 2.548-89.44 3.766-134.167.198-6.966 3.865-10.406 11.114-10.137 35.61.892 71.176 1.911 106.742 2.945l94.382 2.662c5.933.226 9.826 3.865 9.699 9.967-.298 25.953-.751 52.019-1.076 78.113l-.68 51.169c-.099 7.731-2.11 9.841-9.84 9.742-9.472-.114-18.916-.369-28.53-.524-9.613-.156-18.718-.029-28.671.028l.17-.099zm58.631-138.23-201.874-5.508c-1.203 43.566-2.322 86.863-3.455 130.16l203.375 3.695c.708-42.815 1.388-85.504 1.997-128.489zM80.822 293.803l66.178-.836a941 941 0 0 1-.241-16.594c-22.342-1.84-44.147-1.784-66.263-1.67.085 6.456.241 12.643.284 19.227l.042-.142zM246.549 87.073c-2.903-2.832-5.565-5.196-7.788-7.801-16.183-18.392-15.404-42.59 1.997-59.905 10.449-10.421 23.376-16.056 37.846-18.35 18.973-2.803 36.869.1 53.392 9.812 5.282 3.157 10.166 7.122 14.088 11.808 16.099 18.945 14.711 43.481-3.497 60.4-12.318 11.583-27.355 16.935-43.949 18.081-2.605.213-5.167.142-6.923 2.478-.326.241-.637.482-.935.581-13.974 5.932-27.113 14.116-42.49 16.848-1.317.241-2.506.51-3.823.765-5.38.68-8.24-2.421-6.682-7.504 1.642-5.635 3.553-11.228 5.337-16.849 1.062-3.568 2.252-6.98 3.441-10.392zm3.341 23.334c2.521-.652 5.055-1.445 7.603-2.238 8.68-3.808 17.373-7.744 26.067-11.695 1.062-.424 1.996-1.005 2.831-1.897 1.02-1.147 2.138-1.996 3.498-2.52a10.7 10.7 0 0 1 4.247-.694c8.453-.113 16.976-1.798 24.849-4.998 8.481-3.398 15.886-8.382 21.492-15.9a30.6 30.6 0 0 0 6.57-17.528c.311-6.386-1.373-12.771-4.786-18.095-3.468-5.918-8.523-10.76-14.314-14.272-17.642-10.874-36.544-12.77-56.295-7.362-9.486 2.407-18.194 7.49-24.905 14.71-6.06 6.598-9.543 14.258-9.231 23.306.297 8.183 3.652 15.942 9.401 21.889 2.633 2.647 5.451 5.04 8.269 7.433 2.676 2.364 3.256 4.304 2.095 7.575-.651 1.628-1.331 3.384-1.841 5.04-1.784 5.621-3.553 11.228-5.564 17.529l.043-.283zM318.688 189.666c-2.181 12.7-5.862 24.777-12.531 35.863-3.185 5.423-7.419 10.265-12.516 13.989-10.322 7.433-21.903 5.409-29.323-5.054-5.012-7.122-7.32-15.306-8.141-23.858-.481-4.785-.538-9.514-.325-14.201.113-.835-.071-1.585-.255-2.322-.326-.764-.793-1.543-1.289-2.039-4.29-4.162-8.523-8.608-12.785-12.912-4.984-5.267-3.653-10.803 3.341-12.828 5.225-1.571 10.379-2.704 15.717-4.12 1.033-.283 2.095-.708 2.93-1.6.821-.75 1.374-1.671 1.813-2.747 3.171-8.424 8.764-15.801 16.084-21.209 10.633-7.674 21.96-5.82 29.62 4.955 5.961 8.538 8.056 18.265 8.354 28.459.368 6.626-.241 13.111-.439 19.666l-.283-.042zm-66.461-14.484a15.5 15.5 0 0 0 1.614 1.798c3.384 3.468 6.64 6.782 10.01 10.251a8 8 0 0 1 1.997 3.129c.41 1.189.509 2.506.339 3.766-.821 8.028-.113 16.282 1.968 23.999 1.161 4.021 3.059 7.858 5.281 11.454 3.087 4.573 7.689 5.352 12.503 2.591 1.996-1.005 3.752-2.336 5.125-4.007 3.243-3.837 6.088-7.872 8.41-12.275 6.485-12.828 9.727-26.958 9.43-41.287-.057-7.872-.991-15.574-4.262-22.894-4.899-11.115-12.714-12.474-21.195-3.795-4.559 5.083-8.226 10.874-10.817 17.231-.453 1.218-1.048 2.421-2.025 3.299s-2.096 1.713-3.441 2.096c-4.941 1.599-9.84 2.93-15.22 4.615l.283.043z"/><path fill="#102185" d="M53.694 202.083a286 286 0 0 1 3.667-10.746c1.544-4.276 4.12-8 7.547-11.058 2.945-2.889 6.13-5.579 8.934-8.509 4.233-4.46 9.755-7.717 15.801-9.062 6.669-1.487 13.253-3.143 20.148-2.095 3.087.509 6.173 1.599 9.387 2.138 2.676.396 5.281.495 8.07.481 3.129-.213 6.358-.255 9.657 0 2.987.34 5.833 1.217 8.396 2.619 2.534 1.529 4.814 3.441 6.541 5.791 3.596 4.729 7.235 9.331 10.874 13.932 4.686 6.187 7.985 13.182 9.812 20.827 1.288 5.168.425 10.209-1.02 15.235-.184.68-.523 1.472-.976 2.081-6.542 9.416-14.697 16.085-26.817 16.014-6.768.141-13.564-.156-20.289-.722-10.903-1.36-21.904-.708-32.466 1.684-11.355 2.62-21.974.156-31.956-5.351-6.018-3.313-9.84-9.43-8.439-17.104.935-4.729 1.87-9.458 3.158-16.141zm101.645-8.467c-2.506-3.865-2.605-4.035-6.088-2.449a17.2 17.2 0 0 0-3.964 2.336c-3.625 2.718-8.028 3.327-12.389 3.809-1.062.155-2.195.014-3.186-.68-1.019-.552-1.671-1.458-1.968-2.563-.439-1.132-.425-2.308 0-3.369.283-1.091 1.118-2.053 2.294-2.62 1.076-.75 2.208-1.189 3.553-1.274 4.744-.241 8.199-3.427 12.305-5.734-.991-1.275-1.7-2.492-2.577-3.597-3.837-4.36-5.806-4.134-8.326 1.062-.113.411-.255.963-.665 1.43-3.866 6.457-9.019 10.534-17.005 9.189-1.685-.283-3.426-.297-5.153-.453-3.71 12.644-4.956 25.925-3.384 39.05l23.262 1.642c0-1.161.057-1.883.085-2.605.241-4.319-.382-8.141-5.168-9.968-1.019-.552-1.883-1.218-2.661-2.152-1.062-1.005-1.968-1.968-3.611-3.568-.057 1.883-.028 2.917-.142 3.908 0 1.161-.424 2.223-1.09 3.086-.665.85-1.699 1.459-2.803 1.756-1.204.127-2.336-.014-3.356-.581-1.019-.552-1.812-1.486-2.279-2.491-1.119-2.478-1.261-5.296-.454-7.873.68-2.605 2.45-4.927 4.588-6.413 5.182-3.625 8.821-2.988 13.38 1.996.581.595 1.09 1.458 1.798 2.081.921.963 1.869 1.798 2.903 2.365 6.498 3.143 8.721 8.693 8.721 15.419-.014 1.755.241 3.567.255 5.776l8.949-1.784.594-.58c-7.929-3.809-7.801-10.506-7.433-17.571.481-7.476 4.191-12.814 10.718-16.523l.312-.071zm-71.883 37.535c-1.119-5.848-4.97-9.034-10.916-9.26-3.059-.057-4.9-1.416-5.423-3.894-.27-1.231-.085-2.506.609-3.497.552-1.019 1.67-1.911 2.902-2.166 2.095-.779 4.502-1.02 6.74-.595 7.574 2.407 13.366 7.122 15.843 15.079.34.963.665 1.926 1.104 3.072l3.582-.821c.255-10.024 0-19.751 1.176-29.379 1.076-9.812 3.667-19.227 7.348-28.374l-1.925-.495c-9.94 1.076-12.474.722-11.37 12.261.312 3.299.496 6.57.496 9.925-.071 8.17-5.805 12.248-11.653 13.366-1.656.156-3.228.623-4.757 1.402-4.517 2.775-8.99 3.667-14.258.835-.75 4.05-1.713 7.745-2.266 11.553-.353 1.374-.127 2.747.581 3.951a5.93 5.93 0 0 0 3.002 2.534c2.364 1.048 4.516 2.336 6.938 3.115 3.907 1.303 7.872 2.336 12.077 1.373l.141.029zm-.92-52.316-.893-.524c-4.162 4.191-8.282 8.24-12.303 12.459-1.076 1.331-1.884 2.733-2.577 4.304-.071.27-.312.652-.383.921-.07.269-.183.679-.113.991.071.311.128.623.34.963s.439.552.68.764c.58.595 1.26.765 1.953.949s1.473-.057 2.167-.467a35 35 0 0 1 7.093-2.549c4.064-.991 5.027-1.911 4.786-6.074-.24-4.162-.58-7.9-1.034-11.822l.27.07zm77.603 23.914c-4.97 3.398-6.867 8.452-5.536 13.479.368 1.415 3.441 3.667 5.083 3.511 1.997-.354 2.421-2.011 2.704-3.681.864-4.46.043-9.204-2.152-13.14zm-35.014-28.53c-6.768-.439-8.212.071-10.138 4.106 4.276 2.138 8.651 1.076 10.138-4.106M191.868 158.758c.354-1.373 1.331-2.293 2.534-3.001 1.176-.581 2.549-.807 3.922-.453.68.184 1.161.594 1.77 1.047.482.411.92.963 1.189 1.629.269.665.397 1.274.539 1.897-.043.722-.043 1.302-.354 1.954-.184.679-.454 1.203-.907 1.812-.41.481-.962.92-1.529 1.359-.651.269-1.302.538-1.897.538-.75.099-1.302-.042-1.996-.226-1.204-.453-2.252-1.459-2.96-2.676-.58-1.175-.764-2.69-.311-3.88M203.167 183.478c-.325 1.232-1.048 2.365-2.124 3.101-1.076.75-2.308 1.005-3.582.821-1.373-.354-2.605-1.26-3.271-2.605-.707-1.203-.906-2.718-.552-4.092.326-1.232 1.048-2.364 2.124-3.1a4.5 4.5 0 0 1 3.681-.652c.68.184 1.374.354 1.813.906a5 5 0 0 1 1.359 1.53c.269.651.538 1.302.666 1.925.099.75.084 1.345-.085 2.025zM200.732 199.662c.552.142 1.231.326 1.713.736.481.411.948.836 1.26 1.346.311.523.58 1.175.708 1.798a4.4 4.4 0 0 1-.057 1.883c-.141.538-.325 1.231-.736 1.713-.41.481-.836.949-1.345 1.26a6 6 0 0 1-1.798.708 3.9 3.9 0 0 1-1.883-.057c-.552-.141-1.232-.325-1.713-.736s-.949-.835-1.261-1.345a6 6 0 0 1-.708-1.798 4.4 4.4 0 0 1 .057-1.883 4.97 4.97 0 0 1 2.223-2.931c1.076-.751 2.407-.835 3.681-.651zM180.428 159.451c-.325 1.232-1.048 2.365-2.223 2.931-1.076.751-2.407.836-3.681.652a4.97 4.97 0 0 1-2.931-2.223c-.609-1.034-.835-2.407-.651-3.681a4.97 4.97 0 0 1 2.223-2.931c1.076-.751 2.407-.836 3.681-.652.552.142 1.232.326 1.713.737.482.41.949.835 1.261 1.345.311.523.58 1.175.707 1.798a4.4 4.4 0 0 1-.056 1.883zM180.088 179.982c-.141.552-.325 1.232-.693 1.571-.411.482-.836.949-1.345 1.26-.51.312-1.133.439-1.756.567s-1.161 0-1.713-.156c-1.232-.326-2.195-1.147-2.804-2.18-.608-1.034-.693-2.379-.41-3.469.325-1.232 1.147-2.195 2.18-2.804 1.034-.608 2.407-.835 3.469-.41 1.232.325 2.195 1.147 2.803 2.18s.694 2.379.411 3.469zM204.3 247.391c-.255.963-.736 1.713-1.458 2.251a6.4 6.4 0 0 1-2.478 1.119c-.892.056-1.883-.057-2.634-.538-.793-.354-1.472-1.119-2.01-1.841-.368-.821-.708-1.798-.623-2.648.113-.991.467-1.784.949-2.534.623-.722 1.344-1.26 2.307-1.6.935-.198 1.827-.255 2.776 0 1.231.326 2.194 1.147 2.803 2.18s.694 2.379.411 3.469zM204.796 226.323c-.142.552-.283 1.09-.694 1.571-.411.482-.835.949-1.345 1.261-.524.311-1.033.608-1.614.608-.623.128-1.161 0-1.713-.155a4.4 4.4 0 0 1-2.69-2.011c-.652-.892-.906-2.138-.623-3.228.325-1.232 1.019-2.223 1.911-2.874 1.076-.751 2.308-1.006 3.412-.722.553.141 1.232.325 1.714.736.481.41.948.835 1.26 1.345.311.524.58 1.175.609 1.614.127.623.127 1.203-.015 1.756l-.17.099zM300.678 58.402c-10.081 7.759-15.73 7.263-20.417-2.251-.877 1.16-2.01 2.152-3.143 3.143-6.626 4.516-13.946 1.642-15.886-6.06-1.104-4.446-.764-8.962.822-13.182 1.161-3.27 3.78-4.615 6.654-3.653 2.733.949 3.823 3.384 2.931 6.697-.623 2.492-1.374 4.814-.241 7.972l6.357-6.697c1.02-1.147 2.039-2.294 3.186-3.413 2.506-2.647 4.757-3.341 7.179-2.293 2.421 1.047 3.525 3.483 3.157 7.15l-.467 3.37c-.114.835-.099 1.699-.17 3.27.779-.467 1.557-.934 2.336-1.387 2.676-2.775 5.225-5.706 7.886-8.481 2.676-2.775 4.729-3.2 7.165-2.152 2.676 1.373 3.341 3.752 3.115 6.428-.269 1.968-.284 4.106-.128 6.13.963-.722 1.911-1.444 2.733-2.194 2.138-1.997 4.021-4.304 6.3-6.273.496-.51.977-.863 1.572-1.062.595-.198 1.203-.41 1.897-.31.694.098 1.26.169 1.94.41.538.212 1.203.594 1.572 1.076.877.835 1.43 2.053 1.557 3.214-.028 1.288-.354 2.52-1.189 3.412-3.568 4.078-7.674 7.943-12.12 11.185-5.706 4.064-10.464 2.265-14.57-4.163v.142zM283.617 179.671c.963-4.871 1.685-9.062 2.422-13.38.099-.708.212-1.544.594-2.209.297-1.104 1.147-2.124 2.096-2.718.934-.581 2.124-.85 3.384-.68a4.47 4.47 0 0 1 2.916 1.685c.722.963 1.147 2.01 1.133 3.157-.029 1.289-.071 2.563-.382 3.809-1.374 7.815-2.592 15.645-3.965 23.461l-.212 1.543a5.43 5.43 0 0 1-1.968 2.874c-.963.722-2.152 1.133-3.427.963s-2.463-.765-3.313-1.883a4.56 4.56 0 0 1-1.076-3.582c.17-2.266.637-4.63.949-6.867l.878-6.315v.142zM281.719 216.143c-1.402-.198-2.591-.934-3.299-2.024-.85-1.119-1.232-2.464-1.034-3.866a4.5 4.5 0 0 1 2.011-3.157c.963-.722 2.293-1.104 3.582-1.076 1.26.17 2.591.934 3.455 1.911a6 6 0 0 1 1.203 3.738c-.099.708-.198 1.402-.694 1.912-.354.524-.722 1.047-1.359 1.529a5.1 5.1 0 0 1-1.84.892c-.595.198-1.317.24-2.025.156z"/></svg>