<svg xmlns="http://www.w3.org/2000/svg" width="300" height="300" fill="none" viewBox="0 0 300 300"><path fill="#3558a2" d="M101.548 195.759c-3.34-3.28-6.62-6.16-9.5-9.39a71 71 0 0 1-18.37-45.78c-.87-23.13 7.19-42.9 23.75-59 14.51-14.08 32.1-21.27 52.37-21.22 19.51 0 36.18 7.18 50.17 20.85 12.49 12.2 19.08 27.12 21 44.26 3.41 30.9-13.12 61.64-40.89 76.12a73.2 73.2 0 0 1-45.1 7.81c-1.93-.27-2.76.3-3.57 1.89-5.61 11.09-11.35 22.11-16.93 33.21-3.55 7.05-6.8 14.24-10.38 21.27-3 6-6.25 11.87-9.66 17.63a24.2 24.2 0 0 1-5.41 6.38 12.21 12.21 0 0 1-12.27 2.23 24.2 24.2 0 0 1-9.76-6.23c-3.8-4-5-8.66-3.13-13.81 2-5.44 4-10.87 6.55-16.09q8-16.68 16.49-33.12c4.25-8.21 8.9-16.23 13.36-24.33.41-.85.83-1.76 1.28-2.68m113.07-63.57c-.07-1.34-.1-2.15-.15-3-.94-16.54-6.93-31.23-18.63-42.73-19.07-18.75-42.09-24-67.53-15.83-32.32 10.36-52.86 43.87-47 78.2 6.44 37.86 42.6 61.77 79.85 52.64 20.55-5 35.62-17.42 45.54-36a68.6 68.6 0 0 0 7.92-33.28m-107.32 67.68c-3.14 5.45-6.41 10.8-9.35 16.31-8.42 15.77-16.86 31.53-24 47.94-1.51 3.48-2.63 7.13-3.84 10.73a5.86 5.86 0 0 0 1.69 6.23 20 20 0 0 0 3.14 2.6c5.25 3.58 9 2.88 12.77-2.29q.55-.763 1-1.59c4-7.5 8.18-15 12.05-22.55 3.09-6.05 5.74-12.33 8.76-18.42 4-8.12 8.24-16.16 12.38-24.23 1.15-2.24 2.36-4.45 3.54-6.67zM220.427 13.91c-1 6.23 1.27 10.8 6.07 14.34 2.57 1.89 5 3.82 8.31 4.38a3.23 3.23 0 0 1 2.91 2.82c.25 1.65-.59 2.72-1.93 3.57-5.07 3.23-8.85 7.73-12.24 12.58-2 2.82-2.57 6.16-3.15 9.46-.46 2.59-.83 5.19-1.23 7.78s-1.82 4-3.73 3.92-3.09-1.75-3.35-4.22c-.58-5.3-1.18-10.61-2-15.87-.87-5.55-4.83-8-9.86-9.15a15.8 15.8 0 0 1-3.39-.9 3.611 3.611 0 0 1-.3-6.54 14.3 14.3 0 0 1 3.49-1.47c7.65-2.34 11.65-7.56 12.65-15.34q.49-3.9 1.06-7.79c.101-.716.279-1.42.53-2.1a3.18 3.18 0 0 1 3.52-2.35 3.23 3.23 0 0 1 2.64 3.32c.06 1.28 0 2.55 0 3.56m-3.51 14.87a18.3 18.3 0 0 1-9.88 10.06c5.09 2.41 8.13 5.84 9.28 10.68 3.57-4.3 7-8.37 10.32-12.4z"/><path fill="#eaecf1" d="M214.618 132.19a68.6 68.6 0 0 1-8 33.29c-9.92 18.6-25 31-45.54 36-37.25 9.13-73.41-14.78-79.85-52.64-5.83-34.33 14.71-67.84 47-78.2 25.44-8.16 48.46-2.92 67.53 15.83 11.7 11.5 17.69 26.19 18.63 42.73.13.84.16 1.65.23 2.99m-68.2 59.56a59.3 59.3 0 0 0 23.89-4.7c31.77-13.37 45.17-50.35 30.76-80.22-10.14-21-33.25-34.13-56.48-31.62-20.48 2.22-36 12.28-46.27 30.08-8 13.83-9.78 28.72-5.7 44.21 2.9 11 8.82 20.13 17.09 27.95a32.2 32.2 0 0 0 11.48 7c3.75 1.35 7.41 2.94 11.07 4.51 2.06.89 3.93 2.18 6.33 2.24 2.61.07 5.22.34 7.83.55"/><path fill="#979fbb" d="m107.298 199.871 18.2 8.06c-1.18 2.22-2.39 4.43-3.54 6.67-4.14 8.07-8.34 16.11-12.38 24.23-3 6.09-5.67 12.37-8.76 18.42-3.87 7.59-8 15-12.05 22.55q-.45.826-1 1.59c-3.74 5.17-7.52 5.87-12.77 2.29a20 20 0 0 1-3.14-2.6 5.86 5.86 0 0 1-1.69-6.23c1.21-3.6 2.33-7.25 3.84-10.73 7.13-16.41 15.57-32.17 24-47.94 2.88-5.51 6.15-10.86 9.29-16.31"/><path fill="#fff" d="m216.917 28.78 9.72 8.34c-3.36 4-6.75 8.1-10.32 12.4-1.15-4.84-4.19-8.27-9.28-10.68a18.3 18.3 0 0 0 9.88-10.06"/><path fill="#3558a2" d="M146.418 191.749c-2.61-.21-5.22-.52-7.83-.58-2.4-.06-4.27-1.35-6.33-2.24-3.66-1.57-7.32-3.16-11.07-4.51a32.2 32.2 0 0 1-11.48-7c-8.27-7.82-14.19-16.95-17.09-27.95-4.08-15.49-2.25-30.38 5.7-44.21 10.23-17.8 25.79-27.86 46.27-30.08 23.23-2.51 46.34 10.61 56.48 31.62 14.41 29.87 1 66.85-30.76 80.22a59.3 59.3 0 0 1-23.89 4.73m-5-61.11-.63.66a27 27 0 0 0 1.72 2.27c1 1.13 2.21 2.16 3.27 3.28 1.45 1.54 1.78 3 1.08 4.43q-1.19 2.3-4.45 1.75l-2.94-.47c2.74 6.29 7.34 9.43 13.07 10.94a41.3 41.3 0 0 0 15.67.9 4.736 4.736 0 0 1 5.18 2.62c.31.55.6 1.12.87 1.69 2.17 4.57 4.34 9.15 6.71 14.13 10.11-8.71 16.31-19.32 18.49-32.22a50.1 50.1 0 0 0-4.62-31.15c-.48.41-.67.5-.75.65-4.09 7.87-10.66 11.87-19.44 12.29-1.37.07-1.83.76-2.31 1.85-2.45 5.56-7.54 7.73-13.19 5.34a51 51 0 0 1-7.47-4.33c-1.54-1-2.85-2.39-4.93-2.48 0 .55-.15.87 0 1.06.84 1.4 1.73 2.76 2.58 4.14 1.2 1.94 1.12 3.78-.2 5s-3.06 1.12-4.93-.3c-.94-.78-1.88-1.42-2.8-2.05zm1.8-26.54c-.68 1.27-1 2-1.45 2.7a19.86 19.86 0 0 1-15.85 10.59c-3.45.38-3.45.32-4.53 3.68-.14.43-.23.88-.39 1.3a5.55 5.55 0 0 0 .64 5.37c3.34 5.35 4 11.2 2.58 17.29-.25 1.14-.56 2.26-.89 3.58 6.93 3 10.76 8.82 14.44 14.8 3.1 5 6.26 10 9.3 15 1.17 2 2.1 4.06 3.29 6.38a50.6 50.6 0 0 0 22.61-6.58c1.87-1.05 2.08-1.54 1.22-3.5-1.74-4-3.63-7.91-5.4-11.88a2.345 2.345 0 0 0-2.53-1.52c-3.43 0-6.89-.05-10.31-.33a27.5 27.5 0 0 1-12.81-4.19c-4.81-3.07-8.53-7-10.09-12.67a7.17 7.17 0 0 1 1.36-6.9 2.635 2.635 0 0 0 .41-2.93 20.9 20.9 0 0 1-.93-5.32c-.09-2.85 1.26-4.54 4-5.5l1.59-.51c.13-.67.24-1.28.36-1.89 1-4.69 4-6.49 8.63-5.2a22.6 22.6 0 0 1 7.83 4.23 23.6 23.6 0 0 0 5.59 3.26c2.1.86 3.4 0 3.89-2.1a3.3 3.3 0 0 0-.64-.47 24.83 24.83 0 0 1-13.33-12.22 2.56 2.56 0 0 0-1-1.26c-2.46-1.04-4.95-2.04-7.61-3.21zm29.88 11.59c8.54.11 14.79-5.13 16-12.55a4.61 4.61 0 0 0-1.19-4.2 67 67 0 0 0-14.6-11.63c-4.33-2.7-7.6-1.6-11.07 1.11-5.34 4.18-7.12 10.63-4.41 16.78 3.04 6.97 8.74 10.07 15.25 10.49zm-66.09 48.09c6.4 11.16 24.12 21 35.3 20.42a2.6 2.6 0 0 0-.19-.77c-4.56-7.32-9-14.7-13.75-21.91a16.55 16.55 0 0 0-6.26-5.93c-1.51-.77-2.55-.8-3.73.65a22.8 22.8 0 0 1-8 6c-1.03.56-2.12 1.03-3.39 1.54zm-6.82-12.63c.65 1.71 1.07 3 1.61 4.21.91 2.12 1.39 2.31 3.54 1.64a18.44 18.44 0 0 0 12.63-19.37c-1-8.93-8.43-14.77-17.11-13.46-1.38.21-2.93.38-2.88 2.2.07 2.44-1.94 5.18.61 7.28s2.72 4.25.5 6.37c-1.9 1.81-1.7 3.08.79 3.76 1.13.21 2.289.21 3.42 0 .7-.08 1.35-.53 2.06-.67a3.15 3.15 0 0 1 3.69 1.59 3 3 0 0 1-.85 3.9 22.2 22.2 0 0 1-4.85 2.23c-1.046.222-2.112.33-3.18.32zm37.28-55.26a13 13 0 0 0-4.44-9 3.6 3.6 0 0 0-4.42-.72 57.2 57.2 0 0 0-15 10.17 4 4 0 0 0-1.26 3.63 12.46 12.46 0 0 0 9.68 10.48c7.94 1.62 15.48-5.09 15.42-14.56zm12.31 2.86a21.34 21.34 0 0 1 8.28-15.78c-4.71-2-15.83-1.68-18.79.47a22.14 22.14 0 0 1 4.63 9.67c.25 1.49 0 3.41.89 4.35s2.8 1 4.27 1.42a4 4 0 0 0 .7-.13zm-33.65 17.22a55 55 0 0 1-5.53-4.7 56 56 0 0 1-4.17-5.85c-2.63 3.1-5.27 8.56-5.62 11.72 4.724-.29 9.436.749 13.6 3z"/><path fill="#fff" d="M141.398 130.64c.92.65 1.86 1.27 2.76 1.95 1.87 1.42 3.53 1.54 4.93.3s1.4-3 .2-5c-.85-1.38-1.74-2.74-2.58-4.14-.11-.19 0-.51 0-1.06 2.08.09 3.39 1.49 4.93 2.48a51 51 0 0 0 7.45 4.38c5.65 2.39 10.74.22 13.19-5.34.48-1.09.94-1.78 2.31-1.85 8.78-.42 15.35-4.42 19.44-12.29.08-.15.27-.24.75-.65a50.1 50.1 0 0 1 4.62 31.15c-2.18 12.9-8.38 23.51-18.49 32.22-2.37-5-4.54-9.56-6.71-14.13-.27-.57-.56-1.14-.87-1.69a4.73 4.73 0 0 0-5.18-2.62 41.3 41.3 0 0 1-15.67-.9c-5.73-1.51-10.33-4.65-13.07-10.94l2.94.47q3.27.54 4.45-1.75c.7-1.38.37-2.89-1.08-4.43-1.06-1.12-2.22-2.15-3.27-3.28a28 28 0 0 1-1.72-2.27z"/><path fill="#eaecf1" d="M143.197 104.1c2.66 1.12 5.15 2.13 7.59 3.25.461.301.812.743 1 1.26a24.84 24.84 0 0 0 13.33 12.22q.35.195.64.47c-.49 2.09-1.79 3-3.89 2.1a23.7 23.7 0 0 1-5.59-3.26 22.6 22.6 0 0 0-7.83-4.23c-4.66-1.29-7.66.51-8.63 5.2-.12.61-.23 1.22-.36 1.89l-1.59.51c-2.7 1-4.05 2.65-4 5.5.079 1.806.392 3.594.93 5.32a2.64 2.64 0 0 1-.41 2.93 7.18 7.18 0 0 0-1.36 6.9c1.56 5.67 5.28 9.6 10.09 12.67a27.55 27.55 0 0 0 12.81 4.19c3.42.28 6.88.34 10.31.33a2.339 2.339 0 0 1 2.53 1.52c1.77 4 3.66 7.89 5.4 11.88.86 2 .65 2.45-1.22 3.5a50.66 50.66 0 0 1-22.61 6.58c-1.19-2.32-2.12-4.42-3.29-6.38-3-5-6.2-10-9.3-15-3.68-6-7.51-11.81-14.44-14.8.33-1.32.64-2.44.89-3.58 1.37-6.09.76-11.94-2.58-17.29a5.55 5.55 0 0 1-.64-5.37c.16-.42.25-.87.39-1.3 1.08-3.36 1.08-3.3 4.53-3.68a19.88 19.88 0 0 0 15.85-10.59c.4-.74.77-1.47 1.45-2.74"/><path fill="#fff" d="M173.077 115.69c-6.51-.45-12.21-3.52-15.29-10.49-2.71-6.15-.93-12.6 4.41-16.78 3.47-2.71 6.74-3.81 11.07-1.11a67 67 0 0 1 14.6 11.63 4.608 4.608 0 0 1 1.19 4.2c-1.19 7.42-7.44 12.66-15.98 12.55m.23-4.42a10.22 10.22 0 0 0 9.12-5.18 3.66 3.66 0 0 0-.84-5.09c-1.51-1-3.34-.62-4.69 1.27a4.45 4.45 0 0 1-4.41 2 6.8 6.8 0 0 0-1.63.08 3 3 0 0 0-2.68 2.36 2.894 2.894 0 0 0 1.55 3.45 20.3 20.3 0 0 0 3.58 1.11m2.72-18.14a3.17 3.17 0 0 0-3.047 1.95 3.2 3.2 0 0 0-.243 1.25 3.45 3.45 0 0 0 3.33 3.53 3.36 3.36 0 0 0 3.31-3.25 3.32 3.32 0 0 0-.921-2.466 3.31 3.31 0 0 0-2.429-1.014m-8.63 4.47a3.22 3.22 0 0 0-3.066 1.941c-.171.395-.26.819-.264 1.249a3.25 3.25 0 0 0 1.883 3.197 3.25 3.25 0 0 0 3.652-.651 3.25 3.25 0 0 0 .955-2.376 3.27 3.27 0 0 0-.881-2.338 3.25 3.25 0 0 0-2.279-1.022M106.986 163.781c1.27-.55 2.36-1 3.4-1.49a22.8 22.8 0 0 0 8-6c1.18-1.45 2.22-1.42 3.73-.65a16.55 16.55 0 0 1 6.26 5.93c4.72 7.21 9.19 14.59 13.75 21.91.103.245.167.505.19.77-11.21.49-28.93-9.31-35.33-20.47M100.167 151.151a14.8 14.8 0 0 0 3.16-.36 22.3 22.3 0 0 0 4.85-2.23 3 3 0 0 0 .85-3.9 3.146 3.146 0 0 0-3.69-1.59c-.71.14-1.36.59-2.06.67a9.4 9.4 0 0 1-3.42 0c-2.49-.68-2.69-1.95-.79-3.76 2.22-2.12 1.93-4.36-.5-6.37s-.54-4.84-.61-7.28c0-1.82 1.5-2 2.88-2.2 8.68-1.31 16.12 4.53 17.11 13.46a18.444 18.444 0 0 1-12.63 19.37c-2.15.67-2.63.48-3.54-1.64-.54-1.19-.96-2.46-1.61-4.17m10.56-14a3.137 3.137 0 0 0-2.93-3.24 3.32 3.32 0 0 0-3.47 3 3.2 3.2 0 0 0 3.095 3.305 3.204 3.204 0 0 0 3.305-3.095zM137.447 95.89c.06 9.47-7.48 16.18-15.42 14.57a12.47 12.47 0 0 1-9.68-10.48 4 4 0 0 1 1.26-3.63 57.2 57.2 0 0 1 15-10.17 3.6 3.6 0 0 1 4.42.72 13 13 0 0 1 4.42 8.99m-12.77 12.89a10.06 10.06 0 0 0 6.42-2.56c1.59-1.48 1.92-3.4.84-4.83s-2.69-1.58-4.65-.61a27 27 0 0 1-3.46 1.46c-2.08.67-3.08 1.86-2.86 3.65s1.71 2.85 3.71 2.89m-5.11-6.82a3.13 3.13 0 0 0 3.16-3.29 3.361 3.361 0 0 0-3.21-3.35 3.29 3.29 0 0 0-3.2 3.31 3.44 3.44 0 0 0 3.26 3.33zm12-7.74a2.784 2.784 0 0 0-1.789-2.677 2.8 2.8 0 0 0-1.121-.183 2.95 2.95 0 0 0-2.808 1.865 2.94 2.94 0 0 0 .067 2.326 2.94 2.94 0 0 0 1.732 1.553c.379.129.78.178 1.179.146a2.82 2.82 0 0 0 2.72-2.98z"/><path fill="#3558a2" d="M173.308 111.27a20 20 0 0 1-3.58-1.07 2.9 2.9 0 0 1-1.55-3.45 3 3 0 0 1 2.68-2.36 7 7 0 0 1 1.63-.08 4.45 4.45 0 0 0 4.41-2c1.35-1.89 3.18-2.25 4.69-1.27a3.66 3.66 0 0 1 .84 5.09 10.21 10.21 0 0 1-9.12 5.14M176.027 93.131a3.31 3.31 0 0 1 3.35 3.48 3.36 3.36 0 0 1-3.31 3.25 3.45 3.45 0 0 1-3.33-3.53 3.18 3.18 0 0 1 2.033-2.991 3.2 3.2 0 0 1 1.257-.209M167.398 97.6a3.26 3.26 0 0 1 2.279 1.022 3.24 3.24 0 0 1 .881 2.338 3.26 3.26 0 0 1-2.048 3.093 3.24 3.24 0 0 1-3.613-.841 3.24 3.24 0 0 1-.829-2.422 3.22 3.22 0 0 1 2.071-2.98 3.2 3.2 0 0 1 1.259-.21M110.728 137.111a3.204 3.204 0 0 1-3.305 3.095 3.2 3.2 0 0 1-3.095-3.305 3.32 3.32 0 0 1 3.47-3 3.14 3.14 0 0 1 2.93 3.21M124.677 108.779c-2 0-3.51-1.19-3.71-2.89s.78-3 2.86-3.65a27 27 0 0 0 3.46-1.46c2-1 3.6-.79 4.65.61s.75 3.35-.84 4.83a10.06 10.06 0 0 1-6.42 2.56M119.576 101.96a3.437 3.437 0 0 1-3.25-3.33 3.294 3.294 0 0 1 3.2-3.31 3.36 3.36 0 0 1 3.21 3.35 3.13 3.13 0 0 1-1.915 3.047 3.1 3.1 0 0 1-1.245.243M131.547 94.27a2.82 2.82 0 0 1-2.74 3 2.94 2.94 0 0 1-2.204-.745 2.94 2.94 0 0 1-.979-2.111 2.96 2.96 0 0 1 .856-2.164 2.94 2.94 0 0 1 2.157-.87 2.8 2.8 0 0 1 2.088.807 2.79 2.79 0 0 1 .822 2.083"/><path fill="#3558a2" d="M101.548 195.759c-3.34-3.28-6.62-6.16-9.5-9.39a71 71 0 0 1-18.37-45.78c-.87-23.13 7.19-42.9 23.75-59 14.51-14.08 32.1-21.27 52.37-21.22 19.51 0 36.18 7.18 50.17 20.85 12.49 12.2 19.08 27.12 21 44.26 3.41 30.9-13.12 61.64-40.89 76.12a73.2 73.2 0 0 1-45.1 7.81c-1.93-.27-2.76.3-3.57 1.89-5.61 11.09-11.35 22.11-16.93 33.21-3.55 7.05-6.8 14.24-10.38 21.27-3 6-6.25 11.87-9.66 17.63a24.2 24.2 0 0 1-5.41 6.38 12.21 12.21 0 0 1-12.27 2.23 24.2 24.2 0 0 1-9.76-6.23c-3.8-4-5-8.66-3.13-13.81 2-5.44 4-10.87 6.55-16.09q8-16.68 16.49-33.12c4.25-8.21 8.9-16.23 13.36-24.33.41-.85.83-1.76 1.28-2.68m113.07-63.57c-.07-1.34-.1-2.15-.15-3-.94-16.54-6.93-31.23-18.63-42.73-19.07-18.75-42.09-24-67.53-15.83-32.32 10.36-52.86 43.87-47 78.2 6.44 37.86 42.6 61.77 79.85 52.64 20.55-5 35.62-17.42 45.54-36a68.6 68.6 0 0 0 7.92-33.28m-107.32 67.68c-3.14 5.45-6.41 10.8-9.35 16.31-8.42 15.77-16.86 31.53-24 47.94-1.51 3.48-2.63 7.13-3.84 10.73a5.86 5.86 0 0 0 1.69 6.23 20 20 0 0 0 3.14 2.6c5.25 3.58 9 2.88 12.77-2.29q.55-.763 1-1.59c4-7.5 8.18-15 12.05-22.55 3.09-6.05 5.74-12.33 8.76-18.42 4-8.12 8.24-16.16 12.38-24.23 1.15-2.24 2.36-4.45 3.54-6.67zM220.427 13.91c-1 6.23 1.27 10.8 6.07 14.34 2.57 1.89 5 3.82 8.31 4.38a3.23 3.23 0 0 1 2.91 2.82c.25 1.65-.59 2.72-1.93 3.57-5.07 3.23-8.85 7.73-12.24 12.58-2 2.82-2.57 6.16-3.15 9.46-.46 2.59-.83 5.19-1.23 7.78s-1.82 4-3.73 3.92-3.09-1.75-3.35-4.22c-.58-5.3-1.18-10.61-2-15.87-.87-5.55-4.83-8-9.86-9.15a15.8 15.8 0 0 1-3.39-.9 3.611 3.611 0 0 1-.3-6.54 14.3 14.3 0 0 1 3.49-1.47c7.65-2.34 11.65-7.56 12.65-15.34q.49-3.9 1.06-7.79c.101-.716.279-1.42.53-2.1a3.18 3.18 0 0 1 3.52-2.35 3.23 3.23 0 0 1 2.64 3.32c.06 1.28 0 2.55 0 3.56m-3.51 14.87a18.3 18.3 0 0 1-9.88 10.06c5.09 2.41 8.13 5.84 9.28 10.68 3.57-4.3 7-8.37 10.32-12.4z"/><path fill="#eaecf1" d="M214.618 132.19a68.6 68.6 0 0 1-8 33.29c-9.92 18.6-25 31-45.54 36-37.25 9.13-73.41-14.78-79.85-52.64-5.83-34.33 14.71-67.84 47-78.2 25.44-8.16 48.46-2.92 67.53 15.83 11.7 11.5 17.69 26.19 18.63 42.73.13.84.16 1.65.23 2.99m-68.2 59.56a59.3 59.3 0 0 0 23.89-4.7c31.77-13.37 45.17-50.35 30.76-80.22-10.14-21-33.25-34.13-56.48-31.62-20.48 2.22-36 12.28-46.27 30.08-8 13.83-9.78 28.72-5.7 44.21 2.9 11 8.82 20.13 17.09 27.95a32.2 32.2 0 0 0 11.48 7c3.75 1.35 7.41 2.94 11.07 4.51 2.06.89 3.93 2.18 6.33 2.24 2.61.07 5.22.34 7.83.55"/><path fill="#979fbb" d="m107.298 199.871 18.2 8.06c-1.18 2.22-2.39 4.43-3.54 6.67-4.14 8.07-8.34 16.11-12.38 24.23-3 6.09-5.67 12.37-8.76 18.42-3.87 7.59-8 15-12.05 22.55q-.45.826-1 1.59c-3.74 5.17-7.52 5.87-12.77 2.29a20 20 0 0 1-3.14-2.6 5.86 5.86 0 0 1-1.69-6.23c1.21-3.6 2.33-7.25 3.84-10.73 7.13-16.41 15.57-32.17 24-47.94 2.88-5.51 6.15-10.86 9.29-16.31"/><path fill="#fff" d="m216.917 28.781 9.72 8.34c-3.36 4-6.75 8.1-10.32 12.4-1.15-4.84-4.19-8.27-9.28-10.68a18.3 18.3 0 0 0 9.88-10.06"/><path fill="#3558a2" d="M146.418 191.749c-2.61-.21-5.22-.52-7.83-.58-2.4-.06-4.27-1.35-6.33-2.24-3.66-1.57-7.32-3.16-11.07-4.51a32.2 32.2 0 0 1-11.48-7c-8.27-7.82-14.19-16.95-17.09-27.95-4.08-15.49-2.25-30.38 5.7-44.21 10.23-17.8 25.79-27.86 46.27-30.08 23.23-2.51 46.34 10.61 56.48 31.62 14.41 29.87 1 66.85-30.76 80.22a59.3 59.3 0 0 1-23.89 4.73m-5-61.11-.63.66a27 27 0 0 0 1.72 2.27c1 1.13 2.21 2.16 3.27 3.28 1.45 1.54 1.78 3 1.08 4.43q-1.19 2.3-4.45 1.75l-2.94-.47c2.74 6.29 7.34 9.43 13.07 10.94a41.3 41.3 0 0 0 15.67.9 4.736 4.736 0 0 1 5.18 2.62c.31.55.6 1.12.87 1.69 2.17 4.57 4.34 9.15 6.71 14.13 10.11-8.71 16.31-19.32 18.49-32.22a50.1 50.1 0 0 0-4.62-31.15c-.48.41-.67.5-.75.65-4.09 7.87-10.66 11.87-19.44 12.29-1.37.07-1.83.76-2.31 1.85-2.45 5.56-7.54 7.73-13.19 5.34a51 51 0 0 1-7.47-4.33c-1.54-1-2.85-2.39-4.93-2.48 0 .55-.15.87 0 1.06.84 1.4 1.73 2.76 2.58 4.14 1.2 1.94 1.12 3.78-.2 5s-3.06 1.12-4.93-.3c-.94-.78-1.88-1.42-2.8-2.05zm1.8-26.54c-.68 1.27-1 2-1.45 2.7a19.86 19.86 0 0 1-15.85 10.59c-3.45.38-3.45.32-4.53 3.68-.14.43-.23.88-.39 1.3a5.55 5.55 0 0 0 .64 5.37c3.34 5.35 4 11.2 2.58 17.29-.25 1.14-.56 2.26-.89 3.58 6.93 3 10.76 8.82 14.44 14.8 3.1 5 6.26 10 9.3 15 1.17 2 2.1 4.06 3.29 6.38a50.6 50.6 0 0 0 22.61-6.58c1.87-1.05 2.08-1.54 1.22-3.5-1.74-4-3.63-7.91-5.4-11.88a2.345 2.345 0 0 0-2.53-1.52c-3.43 0-6.89-.05-10.31-.33a27.5 27.5 0 0 1-12.81-4.19c-4.81-3.07-8.53-7-10.09-12.67a7.17 7.17 0 0 1 1.36-6.9 2.635 2.635 0 0 0 .41-2.93 20.9 20.9 0 0 1-.93-5.32c-.09-2.85 1.26-4.54 4-5.5l1.59-.51c.13-.67.24-1.28.36-1.89 1-4.69 4-6.49 8.63-5.2a22.6 22.6 0 0 1 7.83 4.23 23.6 23.6 0 0 0 5.59 3.26c2.1.86 3.4 0 3.89-2.1a3.3 3.3 0 0 0-.64-.47 24.83 24.83 0 0 1-13.33-12.22 2.56 2.56 0 0 0-1-1.26c-2.46-1.04-4.95-2.04-7.61-3.21zm29.88 11.59c8.54.11 14.79-5.13 16-12.55a4.61 4.61 0 0 0-1.19-4.2 67 67 0 0 0-14.6-11.63c-4.33-2.7-7.6-1.6-11.07 1.11-5.34 4.18-7.12 10.63-4.41 16.78 3.04 6.97 8.74 10.07 15.25 10.49zm-66.09 48.09c6.4 11.16 24.12 21 35.3 20.42a2.6 2.6 0 0 0-.19-.77c-4.56-7.32-9-14.7-13.75-21.91a16.55 16.55 0 0 0-6.26-5.93c-1.51-.77-2.55-.8-3.73.65a22.8 22.8 0 0 1-8 6c-1.03.56-2.12 1.03-3.39 1.54zm-6.82-12.63c.65 1.71 1.07 3 1.61 4.21.91 2.12 1.39 2.31 3.54 1.64a18.44 18.44 0 0 0 12.63-19.37c-1-8.93-8.43-14.77-17.11-13.46-1.38.21-2.93.38-2.88 2.2.07 2.44-1.94 5.18.61 7.28s2.72 4.25.5 6.37c-1.9 1.81-1.7 3.08.79 3.76 1.13.21 2.289.21 3.42 0 .7-.08 1.35-.53 2.06-.67a3.15 3.15 0 0 1 3.69 1.59 3 3 0 0 1-.85 3.9 22.2 22.2 0 0 1-4.85 2.23c-1.046.222-2.112.33-3.18.32zm37.28-55.26a13 13 0 0 0-4.44-9 3.6 3.6 0 0 0-4.42-.72 57.2 57.2 0 0 0-15 10.17 4 4 0 0 0-1.26 3.63 12.46 12.46 0 0 0 9.68 10.48c7.94 1.62 15.48-5.09 15.42-14.56zm12.31 2.86a21.34 21.34 0 0 1 8.28-15.78c-4.71-2-15.83-1.68-18.79.47a22.14 22.14 0 0 1 4.63 9.67c.25 1.49 0 3.41.89 4.35s2.8 1 4.27 1.42a4 4 0 0 0 .7-.13zm-33.65 17.22a55 55 0 0 1-5.53-4.7 56 56 0 0 1-4.17-5.85c-2.63 3.1-5.27 8.56-5.62 11.72 4.724-.29 9.436.749 13.6 3z"/><path fill="#fff" d="M141.398 130.64c.92.65 1.86 1.27 2.76 1.95 1.87 1.42 3.53 1.54 4.93.3s1.4-3 .2-5c-.85-1.38-1.74-2.74-2.58-4.14-.11-.19 0-.51 0-1.06 2.08.09 3.39 1.49 4.93 2.48a51 51 0 0 0 7.45 4.38c5.65 2.39 10.74.22 13.19-5.34.48-1.09.94-1.78 2.31-1.85 8.78-.42 15.35-4.42 19.44-12.29.08-.15.27-.24.75-.65a50.1 50.1 0 0 1 4.62 31.15c-2.18 12.9-8.38 23.51-18.49 32.22-2.37-5-4.54-9.56-6.71-14.13-.27-.57-.56-1.14-.87-1.69a4.73 4.73 0 0 0-5.18-2.62 41.3 41.3 0 0 1-15.67-.9c-5.73-1.51-10.33-4.65-13.07-10.94l2.94.47q3.27.54 4.45-1.75c.7-1.38.37-2.89-1.08-4.43-1.06-1.12-2.22-2.15-3.27-3.28a28 28 0 0 1-1.72-2.27z"/><path fill="#eaecf1" d="M143.197 104.1c2.66 1.12 5.15 2.13 7.59 3.25.461.301.812.743 1 1.26a24.84 24.84 0 0 0 13.33 12.22q.35.195.64.47c-.49 2.09-1.79 3-3.89 2.1a23.7 23.7 0 0 1-5.59-3.26 22.6 22.6 0 0 0-7.83-4.23c-4.66-1.29-7.66.51-8.63 5.2-.12.61-.23 1.22-.36 1.89l-1.59.51c-2.7 1-4.05 2.65-4 5.5.079 1.806.392 3.594.93 5.32a2.64 2.64 0 0 1-.41 2.93 7.18 7.18 0 0 0-1.36 6.9c1.56 5.67 5.28 9.6 10.09 12.67a27.55 27.55 0 0 0 12.81 4.19c3.42.28 6.88.34 10.31.33a2.339 2.339 0 0 1 2.53 1.52c1.77 4 3.66 7.89 5.4 11.88.86 2 .65 2.45-1.22 3.5a50.66 50.66 0 0 1-22.61 6.58c-1.19-2.32-2.12-4.42-3.29-6.38-3-5-6.2-10-9.3-15-3.68-6-7.51-11.81-14.44-14.8.33-1.32.64-2.44.89-3.58 1.37-6.09.76-11.94-2.58-17.29a5.55 5.55 0 0 1-.64-5.37c.16-.42.25-.87.39-1.3 1.08-3.36 1.08-3.3 4.53-3.68a19.88 19.88 0 0 0 15.85-10.59c.4-.74.77-1.47 1.45-2.74"/><path fill="#fff" d="M173.077 115.69c-6.51-.45-12.21-3.52-15.29-10.49-2.71-6.15-.93-12.6 4.41-16.78 3.47-2.71 6.74-3.81 11.07-1.11a67 67 0 0 1 14.6 11.63 4.608 4.608 0 0 1 1.19 4.2c-1.19 7.42-7.44 12.66-15.98 12.55m.23-4.42a10.22 10.22 0 0 0 9.12-5.18 3.66 3.66 0 0 0-.84-5.09c-1.51-1-3.34-.62-4.69 1.27a4.45 4.45 0 0 1-4.41 2 6.8 6.8 0 0 0-1.63.08 3 3 0 0 0-2.68 2.36 2.894 2.894 0 0 0 1.55 3.45 20.3 20.3 0 0 0 3.58 1.11m2.72-18.14a3.17 3.17 0 0 0-3.047 1.95 3.2 3.2 0 0 0-.243 1.25 3.45 3.45 0 0 0 3.33 3.53 3.36 3.36 0 0 0 3.31-3.25 3.32 3.32 0 0 0-.921-2.466 3.31 3.31 0 0 0-2.429-1.014m-8.63 4.47a3.22 3.22 0 0 0-3.066 1.941c-.171.395-.26.819-.264 1.249a3.25 3.25 0 0 0 1.883 3.197 3.25 3.25 0 0 0 3.652-.651 3.25 3.25 0 0 0 .955-2.376 3.27 3.27 0 0 0-.881-2.338 3.25 3.25 0 0 0-2.279-1.022M106.986 163.781c1.27-.55 2.36-1 3.4-1.49a22.8 22.8 0 0 0 8-6c1.18-1.45 2.22-1.42 3.73-.65a16.55 16.55 0 0 1 6.26 5.93c4.72 7.21 9.19 14.59 13.75 21.91.103.245.167.505.19.77-11.21.49-28.93-9.31-35.33-20.47M100.167 151.151a14.8 14.8 0 0 0 3.16-.36 22.3 22.3 0 0 0 4.85-2.23 3 3 0 0 0 .85-3.9 3.146 3.146 0 0 0-3.69-1.59c-.71.14-1.36.59-2.06.67a9.4 9.4 0 0 1-3.42 0c-2.49-.68-2.69-1.95-.79-3.76 2.22-2.12 1.93-4.36-.5-6.37s-.54-4.84-.61-7.28c0-1.82 1.5-2 2.88-2.2 8.68-1.31 16.12 4.53 17.11 13.46a18.444 18.444 0 0 1-12.63 19.37c-2.15.67-2.63.48-3.54-1.64-.54-1.19-.96-2.46-1.61-4.17m10.56-14a3.137 3.137 0 0 0-2.93-3.24 3.32 3.32 0 0 0-3.47 3 3.2 3.2 0 0 0 3.095 3.305 3.204 3.204 0 0 0 3.305-3.095zM137.447 95.89c.06 9.47-7.48 16.18-15.42 14.57a12.47 12.47 0 0 1-9.68-10.48 4 4 0 0 1 1.26-3.63 57.2 57.2 0 0 1 15-10.17 3.6 3.6 0 0 1 4.42.72 13 13 0 0 1 4.42 8.99m-12.77 12.89a10.06 10.06 0 0 0 6.42-2.56c1.59-1.48 1.92-3.4.84-4.83s-2.69-1.58-4.65-.61a27 27 0 0 1-3.46 1.46c-2.08.67-3.08 1.86-2.86 3.65s1.71 2.85 3.71 2.89m-5.11-6.82a3.13 3.13 0 0 0 3.16-3.29 3.361 3.361 0 0 0-3.21-3.35 3.29 3.29 0 0 0-3.2 3.31 3.44 3.44 0 0 0 3.26 3.33zm12-7.74a2.784 2.784 0 0 0-1.789-2.677 2.8 2.8 0 0 0-1.121-.183 2.95 2.95 0 0 0-2.808 1.865 2.94 2.94 0 0 0 .067 2.326 2.94 2.94 0 0 0 1.732 1.553c.379.129.78.178 1.179.146a2.82 2.82 0 0 0 2.72-2.98z"/><path fill="#3558a2" d="M173.308 111.27a20 20 0 0 1-3.58-1.07 2.9 2.9 0 0 1-1.55-3.45 3 3 0 0 1 2.68-2.36 7 7 0 0 1 1.63-.08 4.45 4.45 0 0 0 4.41-2c1.35-1.89 3.18-2.25 4.69-1.27a3.66 3.66 0 0 1 .84 5.09 10.21 10.21 0 0 1-9.12 5.14M176.027 93.131a3.31 3.31 0 0 1 3.35 3.48 3.36 3.36 0 0 1-3.31 3.25 3.45 3.45 0 0 1-3.33-3.53 3.18 3.18 0 0 1 2.033-2.991 3.2 3.2 0 0 1 1.257-.209M167.398 97.6a3.26 3.26 0 0 1 2.279 1.022 3.24 3.24 0 0 1 .881 2.338 3.26 3.26 0 0 1-2.048 3.093 3.24 3.24 0 0 1-3.613-.841 3.24 3.24 0 0 1-.829-2.422 3.22 3.22 0 0 1 2.071-2.98 3.2 3.2 0 0 1 1.259-.21M110.728 137.111a3.204 3.204 0 0 1-3.305 3.095 3.2 3.2 0 0 1-3.095-3.305 3.32 3.32 0 0 1 3.47-3 3.14 3.14 0 0 1 2.93 3.21M124.677 108.779c-2 0-3.51-1.19-3.71-2.89s.78-3 2.86-3.65a27 27 0 0 0 3.46-1.46c2-1 3.6-.79 4.65.61s.75 3.35-.84 4.83a10.06 10.06 0 0 1-6.42 2.56M119.576 101.96a3.437 3.437 0 0 1-3.25-3.33 3.294 3.294 0 0 1 3.2-3.31 3.36 3.36 0 0 1 3.21 3.35 3.13 3.13 0 0 1-1.915 3.047 3.1 3.1 0 0 1-1.245.243M131.547 94.27a2.82 2.82 0 0 1-2.74 3 2.94 2.94 0 0 1-2.204-.745 2.94 2.94 0 0 1-.979-2.111 2.96 2.96 0 0 1 .856-2.164 2.94 2.94 0 0 1 2.157-.87 2.8 2.8 0 0 1 2.088.807 2.79 2.79 0 0 1 .822 2.083"/></svg>