<svg xmlns="http://www.w3.org/2000/svg" width="290" height="275" fill="none" viewBox="0 0 290 275"><path fill="#102185" d="M261.85 251.734c-24.07-6.031-47.573-11.454-70.85-18.123-7.9-2.265-13.719-.651-20.388 3.243-20.077 11.921-40.621 23.404-60.797 35.141-2.209 1.402-4.871 2.365-7.462 2.605-2.634.383-5.366.128-7.943-.651-27.921-7.957-55.97-15.504-83.933-23.319-9.019-2.464-8.976-2.605-9.075-11.964C.892 169.218.51 99.798 0 30.351c.057-3.087.382-6.103.892-9.204.41-3.284 2.846-4.46 5.65-4.927 18.42-3.1 36.798-6.06 55.048-9.061 5.621-.949 11.1-1.926 16.835-2.252 6.343-.424 7.745 1.784 7.008 8.07-.807 7.01-1.175 14.004-1.444 21.182.1.623.382 1.161.666 1.685.325.396.92.878 1.415 1.175 4.064 1.246 8.255 2.082 12.432 2.917 1.16.056 2.279-.184 3.157-.666 25.231-12.275 50.405-24.409 75.579-36.982 4.064-2.166 8.708-2.817 13.295-1.855 17.882 3.993 35.836 7.717 53.902 11.61 12.106 2.52 24.183 5.183 36.161 7.66 7.108 1.43 9.048 3.809 8.425 11.171-1.912 26.066-3.951 52.09-5.89 78.297-3.441 45.591-6.74 91.224-10.223 136.942 0 1.473-.241 2.733-.665 4.092-.949 3.115-3.073 4.248-6.372 3.384a33 33 0 0 1-3.978-1.515l-.057-.311zm-154.867 9.614c.849-.34 1.515-.58 2.35-.906a4457 4457 0 0 0 44.416-25.641c.566-.411 1.005-.878 1.217-1.558l.581-1.897c-.241-9.84-1.203-19.766-.864-29.577.354-5.522 1.841-10.846 4.092-15.773 3.271-7.292 10.294-11.369 17.047-15.065 1.02-.424 2.025-1.302 2.634-2.308s.977-2.223.863-3.284c.383-15.278.807-30.696 1.36-46.072.254-8.071.396-16.311.679-24.962-5.918 1.444-11.355 4.22-16.013 8.283-13.295 11.029-26.406 22.427-39.843 33.414-5.139 4.205-10.689 7.83-16.183 11.78-.75.51-2.025 1.303-2.053 1.883-.227 5.564-.17 11.199-.156 16.976.496-.141 1.119-.255 1.6-.396 11.072-4.758 20.644 1.727 19.907 13.79-.764 12.644-7.433 21.861-18.208 28.034-2.336 1.359-3.78 2.69-3.355 5.635.07 1.204.056 2.237 0 3.398l.028 44.43-.099-.17zm-10.209-50.801c-2.661-.51-4.672-.694-6.753-1.175-10.549-2.79-20.19-7.065-26.477-16.537-4.05-6.131-4.814-13.763-1.26-18.152 4.39-5.621 10.378-5.861 16.778-4.488 4.899.906 9.854 2.124 14.782.085 2.038-.864 3.086-1.869 3.03-4.106-.17-4.786-.199-9.529.056-14.201.283-.949-.099-2.11-.609-2.846-.608-.92-1.472-1.487-2.42-1.77-6.91-2.563-13.579-5.479-20.53-7.914-20.56-7.335-41.202-3.724-62.143-.652-.283.949-.27 1.841-.24 2.733.098 18.533.381 36.982.339 55.487-.028 2.506.934 3.243 3.143 3.781 15.943 3.539 31.885 7.093 47.828 10.633 7.476 1.699 9.373 4.205 8.807 11.879-.567 7.674-1.275 15.305-2.025 23.064-.566 6.343 2.18 10.435 8.226 12.29l5.55 1.699c4.503 1.232 9.062 2.322 14.018 3.554l-.057-53.024-.057-.312zm172.736-56.422c1.77-24.636 3.54-48.819 5.522-73.681-3.965.863-7.037 1.699-10.152 2.222-13.111 2.21-26.179 4.73-39.432 6.443-10.18 1.33-20.374 1.755-30.568 2.633-1.968.142-3.243.935-3.228 3.3-.567 24.111-1.402 48.138-1.968 72.25-.015 1.034.608 2.846 1.415 3.101 4.347 1.77 8.85 3.002 13.21-.099a41.7 41.7 0 0 0 5.579-4.658c13.861-13.819 30.427-17.642 49.23-14.258 3.369.595 6.753 1.628 10.59 2.648l-.17.099zM107.082 136.71c.849-.34 1.727-.807 2.563-1.133 1.897-1.345 3.78-2.69 5.536-4.078 13.422-11.44 26.703-22.922 40.083-34.22 6.4-5.438 13.366-10.28 21.691-12.319 3.964-.863 4.955-2.633 4.899-6.343-.085-8.906.41-17.797.623-27.199-4.588-.51-9.246-.75-13.819-.82-3.313.17-6.513.962-9.486 2.435-2.889 1.189-5.282 2.237-7.533-.524-1.798-2.322-.977-5.04 2.322-7.575 4.828-3.71 10.364-4.828 16.368-4.616 4.219.255 8.297.467 12.643.765l.864-29.946c-.411-.127-.892.029-1.388.17-24.522 11.893-49.031 23.787-73.455 35.864-.354.184-.708.382-.962.736-.255.368-.524.736-.638 1.133-.141 7.22 0 14.512-.042 21.903 3.568-.538 6.598-1.232 9.5-1.529 9.827-1.133 19.2-.34 27.171 6.541 3.299 2.79 4.177 5.72 2.039 8.326-2.138 2.605-4.786 2.095-8.283-.015-3.143-1.854-6.556-4.233-9.911-4.36-6.145-.255-12.431.934-18.718 1.67-.524.284-.963.737-1.402 1.204-.297.495-.467 1.048-.538 1.755-.113 17.288-.042 34.491-.085 52.543l-.056-.311zM34.929 93.753c.722.07 1.161.056 1.714.226 9.585.128 13.153 2.988 15.348 12.247.141.496.467.878.792 1.275a2.75 2.75 0 0 0 1.232.821c7.363 2.548 11.214 7.872 11.851 15.475-.113.85.227 1.699.637 2.266.552.608 1.317.991 2.04 1.076 3.963 1.062 7.857 2.407 11.78 3.61 5.337 1.926 10.66 3.851 16.494 6.088l.085-52.542C82.162 87.48 68.5 87.594 57.158 76.28c-10.788-10.704-13.89-23.8-12.473-38.61l-34.42-8.014c.085 18.094.34 35.637.382 53.42 16.099-4.7 22.074-1.982 24.183 10.506zM191.836 81.35c7.73-.595 14.753-1.26 21.677-1.657 17.132-.821 34.334-2.379 50.872-7.532 2.761-.779 5.564-1.26 8.382-1.289 1.968-.141 2.987-.566 3.072-2.76.736-12.064 1.6-24.084 2.605-36.077.156-2.463-.793-3.2-2.775-3.511-5.04-.949-9.996-2.166-15.079-2.987-.722-.071-1.345.028-2.01.269-.666.24-1.232.65-1.813 1.076-6.3 6.074-12.006 12.615-18.491 18.335-10.831 9.274-23.928 11.922-37.804 10.789-2.463-.156-4.898-.906-7.829-1.5-.312 9.23-.496 18.066-.807 26.844m75.295 103.74c.383-6.102.977-11.398 1.02-16.863a5.9 5.9 0 0 0-.637-2.265 3.87 3.87 0 0 0-1.699-1.7c-18.392-6.668-35.326-5.04-49.655 9.388-4.063 4.091-8.679 7.56-14.399 8.325-4.021.552-8.382-.198-12.814-.227-.311 12.644-.75 25.684-1.047 38.767.028.892 1.529 2.251 2.52 2.407 8.339 2.251 16.594 4.332 24.976 6.456 1.359.41 2.931.595 5.451 1.076-1.275-2.605-2.039-4.474-3.016-6.102-1.175-1.983-2.52-3.88-3.865-5.777-3.214-4.984-2.889-9.911.623-14.612 4.587-6.3 10.732-9.444 18.321-10.973a119 119 0 0 0 18.42-5.026c5.055-2.011 9.741-4.715 15.83-2.86zm-4.516 56.365.623-2.024c.92-13.196 1.996-26.335 2.916-39.531.383-4.616-2.138-6.57-6.244-4.276-8.353 4.545-17.528 6.485-26.802 8.24-3.129.524-6.017 2.747-8.665 4.602s-2.407 4.006-.722 6.739c2.322 3.526 5.508 7.164 5.918 11.143.666 7.008 4.687 8.396 10.407 9.557 7.561 1.43 14.867 3.667 22.668 5.748l-.099-.169zM246.531 22.578l-52.444-11.016c-.241 9.996-.51 19.086-.963 28.289-.156 2.916.779 4.233 3.625 5.111 17.047 4.772 41.074-5.493 49.81-21.479 0 0 .085-.268-.028-.891zM53.477 39.908c1.006 6.385 1.544 11.879 3.073 17.075 3.992 13.068 14.88 20.105 28.459 18.774 3.044-.255 6.074-.963 9.104-1.218 2.01-.269 2.746-1.231 2.647-3.341-.198-6.13-.212-12.36.029-18.491 0-2.379-.977-3.115-3.044-3.596-4.46-.92-8.963-2.152-13.565-3.115l-26.986-6.188.27.085zm-42.66 87.627 44.345-3.61c-.368-4.106-2.294-6.032-6.867-6.103-6.626-.099-8.056-1.727-7.023-8.509.085-.269.17-.538.071-.722.779-3.016-.835-4.545-3.695-4.389-2.11.099-4.333.594-6.33 1.316-5.365 2.053-9.06-.849-8.225-6.513.141-1.43.835-2.704.977-4.148.552-3.242-1.105-4.63-4.262-3.964-6.541 1.557-9.373 4.983-9.302 11.511 0 3.851 0 7.702.155 11.595.199 4.659.142 9.218.114 13.664l.042-.142zm47.205 126.38c.864-10.548 1.53-19.525 2.52-28.544.326-3.016-.68-4.064-3.468-4.616-10.308-2.123-20.53-4.502-30.767-6.895-4.857-1.048-9.586-2.053-14.895-3.072.113 9.812.156 18.845.34 27.935a3.2 3.2 0 0 0 .892 1.458c.453.439.963.736 1.5.906 6.768 2.067 13.664 3.738 20.431 5.805 7.575 2.322 15.164 4.644 23.56 7.207l-.099-.17zm120.646-72.945c-6.442 4.106-12.431 7.744-13.026 14.965-.835 9.515-.241 19.171-.226 28.799.155.934.311 1.869.75 2.888 7.476-3.44 11.369-9.104 11.709-16.99l.128-.411.75-29.081-.099-.17zM74.772 15.328l-45.464 7.264-.056 1.16 44.231 10.28zM96.83 200.197l-.057-20.148c-7.008 2.591-13.323.963-19.567.085-2.11-.354-4.417.425-6.612.793.51 2.223 1.048 4.319 1.727 6.457.524 1.189 1.402 2.208 2.35 2.944 5.877 5.947 13.367 8.085 22.102 10.025l.043-.142zm10.251-2.039c7.023-5.55 11.355-11.482 11.199-19.666a3.9 3.9 0 0 0-.948-2.223c-.552-.623-1.105-1.232-1.742-1.572-2.124-.793-8.367 4.106-8.396 6.612-.141 5.296-.099 10.478-.156 16.977l.043-.142z"/><path fill="#102185" d="m27.071 228.302-2.577-.793c-2.803-1.005-4.729-2.931-3.907-6.088.82-3.157 3.214-4.205 6.272-3.554 6.484 1.543 13.012 2.945 19.426 4.757 2.973.907 4.998 3.016 4.148 6.301-1.033 3.384-3.483 4.12-6.414 3.511-5.72-1.161-11.171-2.676-16.806-4.106l-.142-.042zM31.05 242.404l-8.806-2.69c-3.526-1.076-5.338-3.851-4.333-6.655 1.133-3.214 3.752-4.035 6.867-3.086 6.003 1.684 11.907 3.199 17.854 5.026 3.922 1.203 5.508 3.766 4.559 6.867s-3.653 4.205-7.632 3.143l-8.523-2.605z"/></svg>