<svg xmlns="http://www.w3.org/2000/svg" width="235" height="129" fill="none" viewBox="0 0 235 129"><path fill="#102185" d="M195.657 86.354c-1.812 2.124-4.191 5.012-6.853 7.844-9.67 10.803-20.643 20.077-33.952 26.222-17.061 7.914-36.26 9.996-54.525 5.918-20.912-4.545-40.607-11.907-57.838-25.004a11.13 11.13 0 0 0-6.782-2.35c-11.936-.807-22.272-4.927-29.748-14.74-1.883-2.35-3.426-5.054-4.346-7.957C-2.026 62.71.296 50.32 10.589 40.055c3.668-3.667 8.41-6.13 13.565-6.81a69 69 0 0 1 12.204-.722c3.285.142 6.612-.85 9.5-2.492 9.246-5.125 18.251-10.59 27.794-14.937 10.633-4.885 21.564-8.99 32.508-13.11 8.014-3.045 16.311-2.011 24.707-.68 16.042 2.831 30.158 10.774 45.067 16.72 3.2 1.43 6.188 3.243 8.821 5.438 1.388 1.104 3.143 1.699 4.899 1.585 5.38-.34 10.831-.254 16.113-.042 4.417.198 8.58 1.076 12.785 2.534 9.189 3.342 14.895 10.095 16.042 19.935.778 6.174-1.133 12.163-3.866 17.869-2.463 5.026-6.088 9.274-10.661 12.36-4.644 3.497-9.968 6.004-15.546 7.462-2.96.481-5.763.85-8.807 1.033l-.029.142zM45.845 41.556a298 298 0 0 0 1.019 50.504c4.786 3.001 9.458 6.697 14.739 9.359 13.55 7.136 28.034 12.275 43.057 15.064 13.111 2.308 26.504 1.36 39.176-2.873 18.803-6.315 32.466-19.44 44.317-34.463.566-.764.991-1.543 1.133-2.392.141-.85.184-1.841-.113-2.606-1.006-4.927-1.728-9.797-2.733-14.71-1.373-6.853-2.648-13.55-4.021-20.403-1.175-5.522-4.729-9.033-9.67-11.2-4.007-1.712-8.028-3.426-12.035-5.14-10.803-4.785-21.606-9.556-33.316-11.623-6.527-1.289-13.351-.92-19.638 1.288-12.544 4.262-24.664 9.458-36.529 15.56-8.254 4.447-16.396 9.048-25.146 13.82l-.255-.185zm153.904 33.882c10.647-1.713 21.507-9.43 24.056-21.493 1.699-8.042-1.954-15.008-10.039-17.302-6.966-2.095-14.229-2.506-21.224-1.147l7.165 40.083.028-.141zM34.829 42.916c-13.068-.864-17.4 3.256-21.988 11.369a22.38 22.38 0 0 0-2.365 13.38c.382 3.511.821 6.753 3.03 9.741 5.267 6.824 12.53 9.685 20.474 11.086.424.071.892-.127 1.33-.198-.212-15.136-.297-30.101-.481-45.378"/><path fill="#102185" d="M85.375 76.291c-5.196-1.486-10.407-2.987-15.433-4.587-1.373-.382-2.718-.906-3.865-1.685-1.062-.482-1.898-1.487-2.308-2.421a5.55 5.55 0 0 1-.113-3.47c.481-1.061 1.203-1.939 2.307-2.463 1.105-.523 2.294-.75 3.384-.41.694.127 1.53.269 2.18.665a123.5 123.5 0 0 0 33.33 5.876c16.892.396 33.67-.963 49.895-5.734 1.827-.538 3.639-1.09 5.579-1.459.609-.184 1.331-.198 2.053-.212s1.387.24 2.039.651c.651.411 1.132.92 1.614 1.43.453.652.637 1.26.821 1.87.184.608.198 1.33.071 2.024-.128.694-.241 1.387-.765 1.883-.382.51-.892.991-1.416 1.473-.495.34-1.26.637-1.84.68-8.113 2.024-16.24 4.034-24.396 5.479-16.013 2.789-32.211 2.52-48.422.665l-4.602-.807-.07.425-.029.141zM73.056 53.992c-1.954-.34-3.965-1.133-5.848-1.898-1.203-.495-2.053-1.373-2.59-2.463-.539-1.09-.44-2.38-.086-3.61.836-2.295 2.733-3.257 5.565-3.045 7.093.538 14.399 1.53 21.493 1.203 12.601-.51 25.046-1.77 37.534-3.298 9.09-.991 17.925-3.016 26.972-4.588l.751-.156c3.681-.495 6.3.963 6.952 3.809.651 2.846-1.572 5.621-5.267 6.258-5.225 1.09-10.676 1.855-15.872 2.804-13.805 2.45-27.765 4.162-41.712 5.012-9.344.793-18.816.708-28.161-.07l.283.042zM94.733 99.795l-6.13-1.076c-1.785-.453-3.37-1.317-4.772-2.28-.765-.566-1.473-1.416-1.742-2.322s-.24-1.911.07-2.86a3.83 3.83 0 0 1 1.587-2.45c.82-.566 1.727-.849 2.732-.806 1.161-.085 2.28.113 3.398.311 17.147 3.88 34.194 2.577 50.915-2.534 3.03-.906 6.187-1.642 9.33-2.379 1.19-.226 2.351-.297 3.441.028.835.142 1.628.581 2.251 1.119s1.204 1.36 1.359 2.11c.269.906.27 1.77-.028 2.577-.141.835-.708 1.6-1.26 2.223-.864.85-1.826 1.401-2.902 1.784-13.111 3.44-26.208 7.603-39.871 7.631-6.188.057-12.29-.439-18.435-.665l.071-.425z"/></svg>