<svg xmlns="http://www.w3.org/2000/svg" width="267" height="218" fill="none" viewBox="0 0 267 218"><path fill="#102185" d="M230.818 183.487c-.071 2.605-.128 5.027-.071 7.349 0 6.739.085 13.394.071 20.147.042.51-.014 1.105-.057 1.501-.382 3.582-1.416 4.786-5.239 4.786-5.833-.014-11.567-.128-17.287-.227-4.22-.042-8.453-.099-12.757-.255-1.898-.099-3.894-.311-5.664-.708-3.738-.807-4.87-2.435-4.984-6.173 0-5.635.001-11.27.1-17.004v-9.67c-1.487-.057-3.073-.227-4.489-.185-7.348-.07-14.597-.042-21.931-.113-1.02.099-2.011 0-3.101-.226a4.36 4.36 0 0 1-2.945-1.629c-.708-.892-1.09-2.024-.963-3.228.128-11.567.128-23.036.368-34.703 0-3.822 1.374-5.295 5.253-5.89 2.365-.453 4.8-.594 7.207-.537 6.031.042 12.035.467 18.151.622.906 0 1.728-.113 2.945-.184.099-5.734.099-11.369.099-17.004.029-3.115-.056-6.145-.127-9.175-.113-.821.056-1.501.34-2.279.283-.779.651-1.445 1.203-1.884.665-.538 1.218-.977 1.94-1.203s1.543-.34 2.336-.255c11.341.298 22.583.694 33.811 1.076 4.205.241 5.932 1.94 5.975 6.272.028 7.25-.014 14.4-.071 21.536-.057 1.501.085 3.03.085 4.842 1.798.184 3.299.255 4.8.311l21.563.779 1.898.099c5.309.269 7.022 2.152 6.739 7.66-.141 2.294-.283 4.602-.34 7.009-.368 7.206-.623 14.328-.977 21.535-.368 5.394-2.067 7.136-7.39 7.065-7.25.028-14.4-.014-21.536-.071-1.415.057-3.03.085-4.757.198l-.184-.226zm-36.374 23.914 26.845.34v-7.646c.156-7.037 0-14.201.241-21.124.056-3.313 1.812-4.743 5.168-5.083.821-.113 1.529-.142 2.322-.057 4.417.071 8.735.227 13.153.297 4.417.071 8.75.029 13.295 0l1.161-24.239c-1.897-.099-3.412-.156-4.913-.227-7.122-.255-14.357-.424-21.564-.778-7.206-.354-9.005-2.365-8.764-9.487.113-3.907.213-7.631.326-11.539 0-3.823 0-7.645-.142-11.893l-26.491-.807-.085 4.616c-.184 6.527.015 13.096-.368 19.595-.382 6.499-2.435 7.801-8.566 7.646-6.725-.213-13.337-.51-20.062-.722-1.501-.057-2.917 0-4.73 0l-.07 27.17c.594.057 1.387.142 1.897.099 7.447 0 14.909-.028 22.328.156 1.812 0 3.611.184 5.381.566 1.189.128 2.321.85 3.129 1.841s1.076 2.223.948 3.426c-.014 4.928-.127 9.756-.156 14.683-.24 4.205-.113 8.651-.198 13.266l-.085-.113zM.314 146.208c.807-1.076 1.968-1.883 3.13-2.69 2.052-.807 4.247-1.132 6.357-1.175 29.69-.453 59.24-.934 88.874-1.26.58.042 1.203-.042 1.925.042 3.809.213 5.649 1.869 5.876 5.678.142 1.841.057 3.894.184 5.734.057 7.929.071 15.985 0 23.857.042 1.204.042 2.549-.212 3.809-.623 2.775-3.087 4.347-6.839 4.446-7.787.099-15.362-.028-23.15.085-22.568.127-45.137.241-67.65.241-.452 0-1.075.084-1.528.084-4.744-.084-6.995-2.321-7.222-7.022-.099-2.86-.056-5.692 0-8.509.029-6.4.071-12.8.1-19.214-.043-1.203.042-2.378.127-3.978l.043-.142zm96.76 4.205c-29.364.397-58.29.807-87.528 1.246.141 8.099-.34 15.844.127 23.461 9.402.878 84.797.227 87.67-.764l-.127-23.914-.141-.043zM71.943 40.67c2.266-.34 4.673-.44 7.066-.538 16.339.424 32.621 1.047 48.918 1.67 13.55.425 27.283.892 40.833 1.317 8.014.227 9.458 1.84 9.161 9.727-.213 7.193-.113 14.357-.255 21.663-.141 7.306-2.449 9.812-10.081 9.684-5.777-.056-11.511-.311-17.358-.481-23.716-.694-47.248-1.331-70.964-2.025-1.968 0-3.766-.255-5.748-.566-3.157-.609-4.375-1.87-4.658-5.14-.184-1.699-.156-3.355-.142-4.998-.099-7.985-.184-15.985-.283-23.97-.085-1.26.142-2.549.835-3.61.623-1.19 1.643-1.955 2.62-2.521l.056-.198zm5.862 8.863.312 22.64 90.091 2.449.241-21.974-90.573-2.988zM137.837 7.751c3.554 3.823 4.135 8.736 2.535 14.102-.68 2.209-1.742 4.304-3.144 6.117-1.401 1.812-3.143 3.327-5.281 4.417-8.198 4.488-17.387 1.996-21.917-6.017-1.218-2.082-1.883-4.319-2.096-6.655-.212-2.336 0-4.757.68-6.966.679-2.209 1.741-4.304 3.271-6.187 1.401-1.813 3.327-3.27 5.281-4.418 1.713-1.005 3.638-1.642 5.578-1.968 1.94-.325 3.979-.198 5.805.368 1.827.567 3.78 1.402 5.324 2.62 1.543 1.217 2.916 2.718 3.922 4.431l.071.128zm-10.265 16.353c1.954-1.147 3.228-2.888 3.908-5.083.552-2.138.411-4.346-.552-6.244-1.402-2.945-6.428-3.95-9.472-2.152-1.827 1.076-3.228 2.889-3.908 5.083-.552 2.138-.34 4.46.736 6.3.425.737.935 1.587 1.657 1.983.679.595 1.515.906 2.492 1.161.892.127 1.798.255 2.676.07.877-.183 1.685-.495 2.463-1.118M107.368 114.436c-5.111-8.156-1.628-19.568 6.188-24.155 7.32-4.304 16.65-2.393 20.558 3.695 2.988 4.814 5.012 9.374 3.299 15.136-.609 2.322-1.543 4.361-2.945 6.159a18.4 18.4 0 0 1-5.21 4.545c-8.057 4.729-17.415 2.506-22.074-5.437l.199.057zm17.217-2.549c1.827-1.076 3.229-2.888 3.979-4.969s.411-4.347-.425-6.315c-1.288-3.03-6.3-4.021-9.345-2.223-3.044 1.798-3.228 2.888-3.907 5.083-.552 2.138-.411 4.347.736 6.3.425.737.934 1.586 1.657 1.983.679.594 1.515.92 2.364 1.231.892.128 1.798.255 2.676.071s1.685-.495 2.464-1.118l-.199-.057z"/></svg>