<svg xmlns="http://www.w3.org/2000/svg" width="222" height="388" fill="none" viewBox="0 0 222 388"><path fill="#102185" d="M51.17 263.655c.17-.269.34-.68.383-1.104.113-4.545.07-8.949.042-13.494.071-.849.015-1.84-.042-2.704.24-9.359.495-18.718.736-28.076.198-7.235.255-14.329.312-21.578.042-8.665.099-17.472.141-26.137.015-5.111.326-10.208.354-15.461.057-3.979.128-7.943.071-12.219-.807-.495-1.628-.849-2.591-1.218-24.89-7.999-40.31-25.117-47.672-49.781C.17 82.553-.693 72.81.568 63.254 4.56 32.19 25.827 8.32 54.824 1.75 71.517-2.2 89.173.616 103.756 9.423c7.023 4.163 13.592 8.722 18.873 15.008 9.784 11.653 15.759 26.25 17.005 41.414 1.713 21.181-4.191 39.857-18.364 55.813-9.939 11.356-23.56 19.129-38.568 21.79-1.005.199-2.025.397-3.186.723-.085.991.128 1.854.043 2.704-.057 7.107-.085 14.059-.142 21.167-.056 5.536.028 11.086-.014 16.481-.057 3.837-.1 7.659-.156 11.496-.042 5.395.057 10.803 0 16.198 0 3.27 0 6.683-.014 9.953-.113 4.545-.24 9.217-.212 13.904-.043 8.665.056 17.344.113 26.448l3.724-.382.948-10.86c.184-2.109.071-4.12.1-6.102.198-7.094.226-14.045.424-21.139.029-1.982.184-3.823.51-5.777.651-4.205 2.492-5.748 6.754-5.805 6.4 0 12.785.114 19.17.114 9.954 0 19.766-.128 29.578-.128 4.828 0 9.784.283 14.612.283 14.059.085 27.977.312 41.895.383 5.819.085 11.808-.114 17.755.127 5.239.17 7.051 2.322 6.867 7.561-.198 8.792-.127 17.755-.326 26.547-.17 1.968-.325 3.809-.226 5.805l-.128 16.183c-.07.85-.155 1.841-.099 2.691-.212 10.647-.439 21.28-.509 31.927-.156 1.841-.312 3.526-.185 5.38-.155 9.94-.325 20.007-.495 30.087-.127 4.673-.255 9.501-.241 14.187-.198 7.235-.141 14.626-.495 21.989-.227 2.676-.468 5.366-1.26 7.985-.383 1.104-1.034 2.039-2.096 2.804s-2.067.963-3.356.991c-9.415.453-18.731-.354-27.949-2.152-8.254-1.572-16.608-3.441-24.82-5.437-15.985-4.092-31.701-9.727-46.553-16.991-12.149-5.748-23.49-12.558-34.165-20.6a165.2 165.2 0 0 1-33.004-33.854c-6.102-8.212-11.469-16.778-16.24-25.712-1.473-2.69-2.648-5.493-3.809-8.438-2.095-5.295 1.147-9.855 6.966-9.77l17.359-.198c.424.043.863-.071 1.146-.184l.185-.41zm-13.86 10.732c.962 2.067 1.684 3.554 2.562 4.913 3.724 6.159 7.462 12.304 11.483 18.336 7.546 11.171 16.622 21.351 26.944 30.058 17.457 15.023 37.577 25.443 58.9 33.556a257 257 0 0 0 35.056 10.307 184.4 184.4 0 0 0 32.679 4.984c1.274.114 2.52.51 3.582-.396.764-5.48.849-19.539.226-22.158-3.992.085-8.113.141-12.105.368-8.127.283-16.226.297-24.282-.269-4.106-.212-6.06-2.237-6.712-6.131-.538-3.596-.651-7.164-.906-10.732-.368-4.007.142-8.085-.807-12.006-6.81-.17-13.337-.312-19.864-.454-.425-.042-.722.085-1.147.184-3.412 0-6.697.269-9.954 0-4.8-.424-7.122-3.03-7.575-7.617s-.623-9.146-1.217-13.748c-.255-2.01.24-4.389-1.558-6.527-4.828 0-9.812 0-14.796.127-4.983.128-9.996.553-14.951.397-6.23-.255-8.297-2.719-8.524-8.127-.141-3.285-.41-6.711-.552-9.996-.099-2.138-.481-4.304-.793-7.178-2.76 2.322-5.677 1.5-8.367 1.401l-.708-.056c-7.391.07-14.796.127-22.343.325-4.545.028-8.976.212-14.102.34l-.155.127zm171.645 68.967.184-2.11c.325-6.938.495-13.89.679-20.827l.057-.708.127-16.184c.043-2.123.383-4.375.284-6.512.198-10.506.41-20.998.608-31.503.114-1.275.227-2.535.185-3.823v-14.64c.07-5.678.424-11.327.481-17.019.17-1.968-.227-3.992-.297-6.428-11.2-.269-22.145-.368-33.387-.212-.169 5.239-.169 10.081-.297 14.895-.127 7.943-.382 15.886-.51 23.829-.339 10.35-.679 20.827-.863 31.191-.114 4.545-.213 8.934-.184 13.479 0 4.97.269 9.968-1.303 14.951l-.141 1.558c.212 5.706.41 11.553.623 17.245.169 1.288.339 2.591.665 3.752 10.973-.326 21.861.34 33.075-1.104v.141zm-73.668-28.87c5.607.921 27.227.666 29.875-.382.127-4.672.099-9.373.241-14.187.155-8.226.439-16.452.58-24.678.34-13.763.694-27.51 1.02-41.131.028-3.554.056-7.108-.043-10.945l-33.23-.34c.028 2.988.071 5.692.127 8.255-.17 10.081-.212 20.303-.368 30.384-.156 9.94-.58 19.709-.878 29.634-.071.85.142 1.713.184 2.719.482 4.304 1.091 8.622 1.572 12.927.34 2.591.538 5.167.892 7.758zM129.85 78.503c.595-5.21.482-10.477-.325-15.801-3.483-20.346-14.216-35.779-31.942-46.129-9.33-5.507-19.85-7.136-30.555-6.499a56.8 56.8 0 0 0-21.21 5.253c-6.668 3.115-12.6 7.575-17.613 12.955-8.778 9.33-14.64 21.182-16.735 33.783-2.11 12.743-.255 25.698 5.267 37.407 9.189 20.133 31.418 37.421 58.617 35.241 11.015-.751 21.45-4.814 30.143-11.582a61.9 61.9 0 0 0 17.047-19.553c4.234-7.73 6.811-16.183 7.434-24.934l-.128-.155zM95.53 222.751c-.071.849-.284 1.685-.368 2.52-.184 3.823-.241 7.66-.298 11.483-.425 11.468-.878 23.092-1.302 34.561-.114 4.545.184 9.259.354 13.818-.029.284-.043.567.07.864-.028.283.241.453.51.751.27.169.538.325.807.495l.85.071 10.392-.227 12.247-.212c1.133.099 2.266.057 3.696.042l.325-3.667c.1-5.96.057-12.077.156-18.038.156-9.939.439-19.723.736-29.634.071-4.12 0-8.098.071-12.219-2.506-.651-24.07-1.104-28.232-.608zm-31.687-76.796c-.156 6.668-.411 12.898-.538 19.284 0 3.412-.184 6.951-.199 10.364-.07 5.677.015 11.227-.198 16.891-.028 5.253-.34 10.491-.382 15.744-.057 3.837-.1 7.66-.156 11.497-.07 5.678.014 11.228-.198 16.891-.028 5.253-.34 10.492-.382 15.744 0 3.271 0 6.683.099 10.237l6.64-1.133.567-6.484c.113-4.545-.043-9.246-.071-13.791-.029-4.545.212-8.934.184-13.479 0-3.27 0-6.682.014-9.953-.028-4.545-.043-9.246-.07-13.791-.03-4.544.212-8.934.183-13.479 0-3.27 0-6.682.014-9.953l-.042-14.215c-.043-4.404.184-8.651.141-13.069.057-2.265-.17-4.559-.254-6.838l-5.366-.467z"/><path fill="#102185" d="M123.663 75.982c-.665 7.618-2.874 15.093-6.584 21.734-3.709 6.64-8.778 12.601-14.852 17.174-8.694 6.782-19.256 10.548-30.37 10.86a52.9 52.9 0 0 1-19.78-3.002c-6.343-2.251-12.134-5.89-16.99-10.576-5.55-4.885-9.84-10.945-12.814-17.6-2.974-6.654-4.46-14.03-4.545-21.294-.17-17.642 6.513-32.267 19.865-43.608 12.587-10.704 27.27-14.541 43.495-11.554 11.058 1.954 21.096 7.377 28.473 15.702 7.943 8.368 12.828 19.17 13.819 30.625.51 3.88.609 7.73.269 11.54zM47.787 49.761c-.071.85-.425 1.67-.51 2.52-1.458 16.778-2.93 33.57-4.375 50.22-.07.85-.142 1.699.354 2.45a5 5 0 0 0 1.543 1.84c7.603 5.777 17.005 8.736 26.562 8.283 7.136-.368 14.272-2.308 20.417-6.031.594-.227 1.203-.751 1.529-1.289s.538-1.232.594-1.94c0-4.828.128-9.656.142-14.625-.042-2.846.07-5.678.014-8.382-.042-4.404-.099-8.68-.141-13.083.056-3.978.127-7.943.042-11.935-.042-2.846-.198-5.848-.17-9.402-1.246 1.317-2.166 2.081-2.959 3.016-5.055 5.82-9.982 11.78-14.895 17.6-3.964 4.77-7.532 4.884-11.652-.015-4.489-5.508-9.43-10.916-14.074-16.297-.637-.764-1.558-1.699-2.464-2.775v-.141zm44.302-15.9c-11.37-8.24-33.032-7.434-43.028 1.217l21.181 24.438 21.706-25.684h.141zm12.8 11.34c-.68 4.489-.85 47.248.382 51.056 11.341-14.357 11.015-38.27-.241-51.041h-.141zm-67.707.638C26.28 58.397 25.302 81.05 33.812 92.59c1.345-15.517 2.407-30.908 3.512-46.737h-.142z"/></svg>