<svg xmlns="http://www.w3.org/2000/svg" width="236" height="267" fill="none" viewBox="0 0 236 267"><path fill="#102185" d="m208.71 229.549-7.787 4.672c-3.54 2.124-5.381 1.841-8.071-1.274s-5.097-6.513-7.504-9.77c-.708-.849-1.416-1.84-2.407-2.973-.849.85-1.699 1.557-2.407 2.407-6.654 8.07-13.167 16.141-19.822 24.069-1.274 1.558-2.69 3.116-4.248 4.39-3.114 2.69-6.512 2.124-8.07-1.699-.849-1.982-2.124-2.266-3.823-2.691-16.849-3.964-33.839-7.928-50.688-11.893-29.308-6.796-58.475-13.592-87.925-20.105-4.956-1.132-7.08-4.247-5.38-8.92 2.548-6.796 4.955-13.733 7.787-20.388 3.964-9.628 8.778-18.973 14.159-27.751 6.513-10.619 13.875-20.672 23.22-29.167a35.8 35.8 0 0 1 15.858-8.353c9.344-2.124 19.397 3.822 21.379 12.601.283 1.416.425 2.973.708 5.097 8.07-6.938 15.433-14.017 25.344-18.264-.425-1.275-.708-2.124-1.133-2.974-2.548-5.38-4.955-10.76-7.645-15.999-1.275-2.549-2.124-4.956-.708-7.787-2.124-1.558-4.106-2.832-5.947-4.39-13.734-10.76-20.955-24.777-20.955-42.192 0-10.477 3.682-20.672 10.336-28.884a46.54 46.54 0 0 1 26.052-16.14c31.715-6.797 60.316 16.99 63.289 45.732.991 8.07-.141 16.282-3.398 23.786q-.637 1.487-.425 2.974 0 1.486.85 2.973l10.336 24.919 43.75 106.189c.85 2.124 1.557 4.39 2.124 6.655.849 3.398.283 4.814-2.69 6.796-1.558 1.133-3.257 1.982-5.239 3.257l1.699 3.822c4.956 9.77 9.769 19.539 14.725 29.309.566.849.849 1.841 1.133 2.832a5.3 5.3 0 0 1 0 2.973c-.425.991-.992 1.84-1.983 2.407-.849.566-1.982.849-3.114.708a4.38 4.38 0 0 1-2.832-1.558 13.7 13.7 0 0 1-2.266-3.539 2576 2576 0 0 0-14.158-27.893c-.567-1.132-1.275-2.265-2.124-3.823zm-81.979-103.358c-5.663-.708-10.335.991-14.866 3.257-9.062 4.389-16.283 11.185-23.362 18.122-6.23 6.372-11.61 13.451-16 21.097-.707 1.133-1.557 2.265-2.548 3.256-.566.708-1.416 1.133-2.407 1.275-.85 0-1.84 0-2.69-.567-.991-.424-1.7-1.132-2.266-2.123-.424-.85-.707-1.983-.566-2.974.283-1.416.708-2.69 1.416-3.964 3.398-6.655 6.372-13.451 8.779-20.53.707-1.983 1.132-4.248 1.132-6.372 0-4.389-4.955-7.645-9.203-6.229 0 .283-.142.424-.142.708v3.114c.992 11.894-3.68 21.805-11.468 30.441-.566.567-1.274 1.133-2.124 1.416a3.93 3.93 0 0 1-2.548 0c-1.416-.283-2.69-.849-3.965-1.416-3.54-1.699-7.08-3.398-11.044-5.38-9.203 14.583-15.857 30.158-22.229 46.299.991.283 1.841.708 2.69.849l51.821 11.893c28.317 6.513 56.493 13.026 84.811 19.822 2.973.708 4.813.142 6.654-2.123 5.239-6.513 10.477-13.026 15.716-19.398.283-.283.425-.708.425-1.132-.425-.567-.85-.992-1.274-1.416-1.841-1.841-3.682-3.54-5.522-5.522-.85-.85-1.558-1.699-1.982-2.832-.425-1.132-.708-2.265-.708-3.398 0-1.132.283-2.265.708-3.398.424-1.133 1.132-1.982 2.123-2.69 3.823-3.964 8.779-6.796 14.301-7.929 1.699-.283 3.256-.425 4.955-.708-1.416-3.256-3.115-4.247-6.088-3.964-3.965.566-7.787 1.982-11.044 4.389-8.07 5.239-14.725 11.893-21.804 18.264-.991.992-2.124 1.841-3.257 2.549-.991.566-1.982.85-3.115.708-1.132 0-2.123-.566-2.973-1.416-.849-.708-1.274-1.84-1.416-2.832 0-1.132 0-2.265.708-3.114.425-.708.991-1.558 1.558-2.124 2.548-2.973 5.238-5.947 7.787-9.062 1.699-1.982 3.115-3.964 5.38-6.654-.849-.425-1.699-.991-2.548-1.558-1.983-1.699-3.965-3.256-5.805-5.097-.85-.708-1.558-1.699-2.124-2.69q-.85-1.487-.85-3.398c0-1.133.142-2.265.567-3.398s1.132-1.982 1.982-2.832c3.964-4.672 9.345-7.929 15.291-9.345.567-.141.991-.424 1.416-.707-2.265-1.133-4.814-1.416-7.221-.567a33.24 33.24 0 0 0-15.574 8.212c-6.797 6.23-13.593 12.602-20.247 18.831-1.133 1.133-2.266 2.124-3.54 2.973-.991.567-2.124.85-3.115.708-1.133-.141-2.124-.708-2.832-1.415s-1.132-1.699-1.274-2.69c0-.992 0-2.124.708-2.974a25 25 0 0 1 2.266-3.115c4.813-5.663 9.769-11.327 14.725-17.132-.992-1.132-1.841-1.982-2.832-2.973-2.549-2.548-5.097-4.955-7.646-7.504-1.557-1.557-2.549-3.398-1.699-5.522 1.133-3.256 2.549-6.513 5.522-8.495 3.398-2.407 6.654-4.814 10.477-7.504m64.847 30.582c-.425-.141-.991-.282-1.416-.424-17.981-1.274-27.185-21.946-16.566-36.529.708-.991 1.133-1.983 1.7-2.832-2.549-6.088-4.815-11.893-7.221-17.698-2.407-5.805-4.956-11.752-7.363-17.557-12.46 3.681-47.007 16.566-49.555 18.548 1.274 2.548 2.548 5.239 3.681 7.929 1.274 2.69 2.549 5.521 3.823 7.928h8.212c2.548 0 4.955.708 7.221 1.841s4.247 2.832 5.663 4.814c5.239 6.654 5.664 14.017 3.257 21.804-.283.85-.425 1.841-.708 2.265 4.672-.849 9.203-1.84 13.875-2.265 6.797-.566 14.017 4.389 16 12.884a25.05 25.05 0 0 1-1.558 15.433c-.283.708-.425 1.558-.849 2.832 1.84-.566 3.115-.991 4.53-1.274 3.823-.85 7.646-1.558 11.327 0 3.257 1.274 6.089 3.681 8.071 6.513a16.96 16.96 0 0 1 2.832 10.052c0 2.124-.567 4.39-1.133 6.372-1.274 4.955-3.54 9.769-6.655 13.875 2.974 4.389 6.23 8.495 9.628 12.46l16.566-9.628c-7.929-19.398-15.716-38.653-23.645-57.626zM120.077 9.949h-2.832a38.62 38.62 0 0 0-24.353 11.185C86.521 27.79 82.84 36.567 82.698 45.77c-.566 17.274 10.76 34.406 28.317 41.06 1.841.708 4.106.708 5.947 0 12.601-4.672 25.344-9.203 38.087-13.734.849-.283 1.699-.708 2.265-1.274.708-.567 1.133-1.275 1.557-2.124 6.513-14.3 5.239-28.034-3.681-40.918-8.212-12.035-19.963-18.123-35.113-18.973zM39.089 151.11l8.779 4.248c4.53-6.23 7.504-12.602 6.23-20.814-5.664 4.814-10.761 10.336-14.867 16.566zm95.005-16.282c-5.381.991-9.062 4.106-12.743 7.787l7.504 6.938c4.531-5.381 6.088-9.487 5.239-14.725m28.317 30.865c-4.955.142-8.353 2.407-11.752 5.664l6.372 5.663a23.4 23.4 0 0 0 5.38-11.327m23.22 32.14c-2.123 0-4.247.284-6.23 1.133-1.982.85-3.681 2.124-5.097 3.681l5.381 5.097zm1.133-52.811a175 175 0 0 0-6.796-15.999c-2.124 7.079.283 13.026 6.796 15.857z"/><path fill="#102185" d="M120.36 69.84c-1.982 1.557-3.681 2.973-5.38 4.247-.85.708-1.841 1.416-2.832 2.124a5.7 5.7 0 0 1-3.681.85c-1.275-.142-2.407-.85-3.257-1.983-.708-.99-.991-2.265-.849-3.54a4.47 4.47 0 0 1 1.84-3.114c1.558-1.416 3.398-2.69 5.097-4.106.992-.85 1.841-1.7 2.974-2.69l-6.655-8.779c-1.416.991-2.407 1.84-3.539 2.69-1.699 1.416-3.257 2.832-5.097 4.106-2.69 1.983-5.38 1.841-7.221-.283s-1.7-4.814.85-7.079c2.264-2.124 4.671-3.965 7.078-5.947.425-.425.991-.85 1.699-1.416-.991-1.416-1.982-2.69-2.831-4.105-.567-1.133-1.133-2.266-1.275-3.54-.141-.85 0-1.7.284-2.407.283-.708.99-1.416 1.699-1.84.708-.567 1.699-.85 2.548-.709.85 0 1.841.284 2.549.85a19.4 19.4 0 0 1 2.407 2.407c.708.85 1.416 1.699 2.407 2.973l5.805-4.814a95 95 0 0 1-1.841-2.69c-.849-1.274-1.841-2.407-2.69-3.823-1.841-2.973-1.558-5.521.708-7.22 2.265-1.7 4.955-1.133 7.221 1.415 1.557 1.7 2.831 3.682 4.389 5.664 1.982-1.558 3.54-2.832 5.38-4.106a20 20 0 0 1 2.832-1.983c.991-.566 2.124-.707 3.115-.424 1.133.283 1.982.85 2.69 1.699s.991 1.982.991 2.973c0 1.133-.425 2.124-1.133 2.974-.991.99-1.982 1.982-3.114 2.831-1.133.991-2.124 1.84-3.257 2.69-.425.425-.849.85-1.274 1.416l6.938 9.203c2.548-1.982 4.955-3.823 7.362-5.663 1.133-.85 2.265-1.7 3.54-2.407.991-.566 2.124-.708 3.115-.567 1.132.142 2.123.85 2.69 1.7.708.85 1.132 1.982.991 3.114q0 1.7-1.274 2.974c-1.275 1.274-2.549 2.548-3.965 3.54-1.982 1.557-3.964 3.256-6.371 5.096 1.133 1.558 2.265 3.115 3.398 4.531.849.991 1.557 2.124 2.124 3.115.707.991.849 2.265.707 3.54-.283 1.274-.849 2.265-1.84 3.115-.991.708-2.265.99-3.54.849s-2.407-.85-3.115-1.699c-1.416-1.557-2.548-3.256-3.822-4.814-.425-.566-.992-1.133-1.558-1.84-2.69.85-4.106 2.973-6.513 4.53 1.274 1.84 2.407 3.398 3.54 4.956.566.708.991 1.557 1.132 2.407.142.85 0 1.84-.283 2.69-.283.708-.708 1.416-1.416 1.982-.566.566-1.415.85-2.123.991-.85.142-1.699 0-2.407-.141-.708-.283-1.416-.708-1.982-1.416-1.416-1.7-2.832-3.398-4.107-5.24zm1.841-14.159 6.229-4.956-7.079-9.202-5.947 5.097z"/></svg>