<svg xmlns="http://www.w3.org/2000/svg" width="208" height="282" fill="none" viewBox="0 0 208 282"><path fill="#102185" d="M151.061 143.285c-4.673-.566-6.23-3.398-6.796-7.504-1.133-8.071-2.549-16.141-3.965-24.353h-1.557c-4.389.991-9.062.566-13.168-1.416-.566-.283-1.274-.425-1.982-.425s-1.416.284-1.841.85c-9.344 7.079-15.008 15.999-13.45 28.034.708 3.823 1.982 7.362 3.964 10.761a203 203 0 0 0 24.211 35.679q1.275 1.699 2.974 2.549c1.132.566 2.548.849 3.822.849 19.256.284 38.512.85 57.768 1.275.991 0 1.982 0 2.973.424 1.133.284 2.124.992 2.832 1.841.708.991 1.133 1.982 1.133 3.256 0 1.275-.567 2.407-1.416 3.257-.85.85-1.983 1.557-3.115 1.699a21.2 21.2 0 0 1-4.248 0l-55.927-1.133h-3.114c-.425 1.133-.85 1.983-1.275 2.974.425.283.708.566.991.566 6.23.283 12.318.566 18.407.708 10.76.283 21.521.708 32.423.991 1.557 0 3.115.283 4.531.566 1.132.284 2.265.85 3.115 1.841.708.991 1.132 2.124 1.132 3.398 0 1.133-.566 2.265-1.416 3.115a6.3 6.3 0 0 1-2.973 1.699c-.849.142-1.84.283-2.69.142l-53.52-1.841c-1.132 0-2.265-.142-3.823-.283l-6.371 17.84c.708.424 1.558.849 2.265 1.132l53.237 19.256c1.274.425 2.407.849 3.54 1.416 1.415.566 2.69 1.557 3.398 2.973s.991 2.974.566 4.531c-.991 5.38-1.982 10.619-3.115 15.858-1.274 5.663-4.106 7.22-9.486 5.521-15.433-4.955-30.724-10.052-46.157-15.149l-79.006-25.911c-7.504-2.548-8.495-4.106-6.371-11.893.425-2.124.991-4.247 1.699-6.23 3.115-7.079 1.558-14.3.566-21.521-2.265-17.556-3.68-35.255-2.123-52.953 1.982-22.654 10.052-42.9 25.202-60.032 5.239-6.089 12.035-10.62 19.539-13.31 8.637-3.114 17.557-5.663 26.335-8.353 1.274-.425 3.115-.85 4.106-.283 3.398 1.84 6.371.566 9.486-.425 0-.283.283-.425.283-.708 0-5.946 1.133-7.646 6.938-8.353 9.487-1.275 18.831-2.549 28.176-3.823 5.38-.708 7.504.85 8.637 6.23 3.115 14.724 6.088 29.45 9.061 44.033 1.558 7.362 2.974 14.583 4.389 21.946.708 3.398 1.275 6.796-2.265 9.486-.566.425-.708 1.841-.708 2.832 0 2.407.142 4.813 0 7.362 0 3.823-1.557 5.805-5.239 6.513-7.221 1.416-14.3 2.832-21.521 4.106-3.681.566-6.23-.991-7.504-4.531-.708-1.982-1.274-4.106-2.124-6.654zM114.39 78.014q-1.062 0-2.124.425c-5.947 2.123-11.893 4.106-17.698 6.513C88.763 87.5 83.666 91.323 79.7 96.278c-5.38 6.372-9.91 13.451-13.309 21.097-5.522 12.601-8.354 26.335-8.354 40.069 0 10.335.708 20.813 1.416 31.149.425 6.088 1.416 12.176 2.266 18.406l56.634 20.388c.283-.425.567-.991.708-1.557 3.54-9.911 6.938-19.822 10.478-29.733.283-.708.283-1.416 0-1.983-.142-.708-.567-1.274-1.133-1.699-9.911-11.751-18.69-24.494-26.194-37.945-8.07-14.3-6.937-30.582 3.398-43.183 2.832-3.54 6.23-6.797 9.062-9.77-.708-3.823-1.982-7.504-2.124-11.327 0-3.681.991-7.787 1.558-12.035zM58.463 230.219l120.49 39.644 1.699-8.92c-19.963-7.221-39.644-14.442-59.466-21.521S81.825 224.98 61.72 218.184c-1.133 4.106-2.124 7.787-3.257 11.893zm85.802-164.381c15.857 8.495 18.123 27.467 5.946 39.644 1.416 8.778 2.832 17.273 4.248 25.91l25.202-6.372c-4.247-20.954-8.495-41.484-12.743-62.156l-22.653 3.115zM123.31 90.615c0 6.938 7.079 12.459 14.866 9.769 3.115-1.274 5.805-3.54 7.363-6.654 1.557-2.973 2.124-6.513 1.274-9.911-.425-1.982-1.416-3.681-2.69-5.097-1.416-1.416-3.115-2.549-4.956-3.115-1.84-.567-3.964-.567-5.805-.142-1.982.425-3.681 1.416-5.097 2.832-3.256 2.832-5.097 6.513-4.955 12.176zm38.511 49.838c0 2.69 1.275 2.832 2.832 2.549 3.823-.708 7.787-1.558 11.61-2.407.142 0 .425-.283.708-.708l-.425-3.256-14.866 3.681zM29.863 91.181c-2.974 0-4.956-1.982-5.664-5.097-.85-4.53-1.982-9.061-3.256-13.45-2.266-7.08-6.089-13.734-11.186-19.115-1.982-1.84-3.964-3.54-6.23-5.238-4.53-3.54-4.672-6.938-.566-10.902 2.69-2.69 5.522-5.38 8.354-8.07 4.955-4.956 8.353-11.186 9.77-17.982.566-2.265.99-4.531 1.698-6.655C23.774 1.557 25.756 0 28.163 0s4.531 1.84 5.522 5.097c.283 1.274.567 2.549.708 3.823A27 27 0 0 0 38.5 19.68a25.8 25.8 0 0 0 8.212 7.93c2.974 1.84 5.947 3.539 9.062 5.096 4.814 2.549 5.663 6.088 2.265 10.336-2.124 2.69-4.247 5.38-6.654 8.07-7.363 8.354-12.743 17.699-14.442 28.884-.425 3.115-1.416 5.947-2.974 8.637-.424.708-1.132 1.274-1.84 1.699s-1.558.708-2.407.85zm-.142-25.485c3.964-10.194 10.336-17.84 17.132-25.769-7.929-3.398-14.442-9.344-18.69-16.849-3.398 7.93-8.778 13.734-14.866 19.115C20.8 48.423 25.615 56.35 29.72 65.696"/></svg>