<svg xmlns="http://www.w3.org/2000/svg" width="442" height="306" fill="none" viewBox="0 0 442 306"><path fill="#102185" d="M256.572 250.061c-1.851-7.126-3.462-13.932-5.332-20.918l-123.586-.768c-2.133 6.99-4.427 14.102-6.801 21.773 4.067 1.577 7.694 4.236 10.362 7.616 2.667 3.381 4.374 7.484 5.04 11.868 1.009 6.006-.005 12.154-3.062 17.584-2.717 5.05-7.017 9.16-12.34 11.409-5.324 2.249-11.25 2.697-16.738 1.062-11.277-3.17-18.74-14.094-18.355-26.909.405-12.956 9.424-22.117 25.759-25.381 2.533-7.793 4.946-15.745 7.5-23.677 6.442-20.252 12.764-40.663 19.207-60.915a4.37 4.37 0 0 0 .377-2.663c-.161-.881-.763-1.681-1.545-2.221-17.48-15.917-28.377-35.907-36.273-57.903-3.255-9.326-2.806-18.558-.475-27.951 1.573-7.07-.217-13.616-3.99-20.3-3.479 4.37-7.782 5.477-12.587 6.083-3.944.586-7.807 1.612-11.65 2.498-7.968 1.732-14.54-1.344-18.393-8.468-.782-1.54-1.425-3.061-2.068-4.582-1.125-3.163-.547-5.226 2.395-6.811 6.543-3.793 13.708-5.924 21.217-6.434 6.467-.228 12.856 1.106 18.586 4.062 3.486 1.638 6.573 4.077 9.16 7.017 2.446 2.92 4.373 6.482 5.278 10.185 2.212 7.606 2.983 15.294.309 23.067-1.037 3.285-.712 7.049-.788 10.613-.198 1.402.864 1.981 2.266 2.18l7.57 1.072c18.083 1.56 36.186 2.979 54.148 4.378.701.1 1.562.078 2.283.037 5.366-16.686 13.838-31.073 27.521-41.862 20.464-16.264 45.235-14.473 63.619 4.146 10.987 11.28 17.491 24.928 21.514 39.94.906 3.703 1.211 7.608 1.977 11.291.261 1.181.083 2.443-.076 3.564-.179 1.262-.758 2.324-1.618 3.346-10.911 17.474-23.987 33.068-40.852 45.123-.64.481-1.14.982-1.94 1.584 7.384 28.644 14.788 57.148 22.051 85.633 2.324.758 4.387 1.336 6.43 2.054 4.327 1.757 8.055 4.716 10.823 8.396 3.93 4.561 6.14 10.165 6.608 15.951.709 7.107-1.585 14.218-6.083 19.73-4.639 5.492-11.142 9.005-18.25 9.714-13.914 1.319-27.063-9.838-28.703-24.513-.849-6.126.325-12.395 3.502-17.665 3.037-5.29 7.918-9.461 13.681-11.791l2.302-1.104zm20.476-135.523c-55.29-4.397-109.979-8.995-165.569-13.291 1.506 3.502 2.55 6.224 3.735 8.966 7.269 16.33 16.798 30.835 30.428 42.632 13.129 11.297 28.235 17.726 45.616 18.185 13.536.343 26.206-3.296 37.972-9.638 18.57-9.955 32.668-24.689 44.661-41.724 1.06-1.423 1.859-3.026 3.278-4.97zm-40.801 53.853c-14.227 7.567-28.758 12.23-44.737 11.969-15.979-.26-30.543-5.469-44.43-14.442-5.524 17.808-11.009 35.335-16.534 53.142l118.219.295zm41.751-63.585c-1.134-10.17-8.182-26.04-15.642-34.962-2.807-3.4-5.955-6.42-9.282-9.179-12.246-9.456-26.584-10.199-39.97-2.514-9.504 5.519-16.222 13.576-21.837 22.934-3.137 4.99-5.634 10.5-7.569 16.088zM266.535 259.48c-11.436-2.048-18.454 6.11-19.805 14.641-1.69 9.914 5.611 19.957 15.164 21.166 8.691 1.231 17.253-5.708 18.743-15.221 1.729-10.194-6.934-20.715-13.942-20.706zm-139.643 16.691c1.312-8.251-5.691-20.397-16.042-19.002-7.127.85-13.388 5.683-14.981 12.893-1.792 8.612 1.702 16.257 8.534 19.512 9.937 4.554 21.022-2.028 22.469-13.263zM62.235 47.084c2.728 3.962 3.93 4.56 8.054 3.715 4.724-1.047 9.428-1.954 14.293-2.981 1.2-.402 2.401-.804 3.622-1.346-5.17-3.879-16.545-4.345-25.83.632zM366.275 213.544l-2.8 2.606c-6.46 6.235-14.163 11.15-22.509 14.545-8.045 3.293-16.955 3.605-25.308.992-3.706-1.097-7.012-2.995-9.958-5.414s-5.233-5.46-7.039-8.862c-2.248-4.322-4.036-8.865-5.523-13.509-2.392-7.345-1.08-14.595 1.755-21.487 4.512-10.658 9.425-21.116 14.458-31.414 7.99-16.029 16.26-32.017 24.109-48.066 4.015-8.154 6.948-16.748 10.842-25.062 7.968-16.89 18.863-31.22 36.675-38.85q7.565-3.434 15.914-3.324c5.427.053 10.795 1.529 15.744 3.945 4.287 2.037 7.956 5.417 10.204 9.739 4.555 8.224 6.588 17.092 4.998 26.304-1.153 7.13-3.127 14-4.72 21.211 9.994 1.129 16.528 6.487 17.902 16.978.525 3.363-.111 6.848-1.69 9.913s-4.077 5.572-7.139 6.997c-8.105 3.715-14.936 1.46-21.191-4.859-8.385 19.833-16.731 39.386-25.136 59.36.401.199 1.042.719 1.723.959 2.805 1.398 5.23 3.457 7.016 5.998s3.09 5.442 3.514 8.506c.565 3.082.268 6.186-.589 9.211-.998 3.005-2.516 5.65-4.696 7.915-1.66 1.624-3.701 2.908-5.842 3.892-2.121.843-4.604 1.207-6.886 1.17-2.403-.198-4.627-.656-6.751-1.814-2.143-1.019-3.927-2.558-5.391-4.339a55 55 0 0 1-1.967-3.281zm52.492-137.425c.814-5.748.065-11.573-1.603-16.958-.845-3.122-2.571-6.084-4.956-8.423s-5.311-3.898-8.496-4.635c-4.126-1.157-8.411-1.191-12.555-.205-9.788 2.475-18.591 8.092-24.969 15.77-8.238 9.7-13.971 20.9-18.502 32.7-1.557 3.926-3.114 7.853-4.951 11.74-8.409 16.97-16.958 33.92-25.367 50.89-4.794 9.617-9.187 19.434-13.44 29.271-1.916 4.447-3.032 9.294-1.444 14.238 1.267 4.183 2.834 8.266 4.721 12.108 1.224 2.462 2.909 4.702 5.094 6.441 2.184 1.74 4.569 3.078 7.333 3.756 6.61 1.794 13.717 1.084 19.861-1.907 12.227-5.561 21.467-14.263 28.902-25.365 7.975-11.884 13.946-24.766 19.396-38.008 7.786-18.631 15.292-37.302 22.918-55.813 3.474-8.374 6.106-16.867 8.078-25.74zm-30.015 130.169c.675-4.767-.411-8.21-3.797-10.548-1.183-.739-3.787-1.537-4.146-1.016-2.9 3.307-5.298 7.115-7.135 11.001-.898 2.304 3.091 6.444 5.836 7.262 1.542.218 3.123.156 4.504-.506 1.381-.663 2.541-1.786 3.3-3.108.58-1.062.999-2.004 1.298-3.105zm43.02-89.718c.635-4.486-2.955-9.427-7.181-9.882-.981-.139-1.842-.118-2.743.183-.9.302-1.801.603-2.461 1.225-.8.601-1.32 1.243-1.88 2.164-.399.802-.818 1.743-.957 2.725-.476 4.365 3.656 9.526 7.881 9.982 1.823.258 3.644-.485 4.944-1.588 1.32-1.243 2.259-2.826 2.377-4.669z"/><path fill="#102185" d="M28.94 83.267c10.734.948 20.93 3.679 31.186 6.99 9.034 2.852 12.486 9.776 9.895 18.99-.519 1.642-.757 3.325-1.116 4.847-.417 2.944-1.475 5.368-4.397 6.813a4.4 4.4 0 0 0-1.618 2.345c-1.137 3.986-2.133 7.992-3.11 11.858-4.899 21.471-9.958 43.062-14.857 64.533-4.541 19.949-9.202 39.737-13.883 59.666-1.852 8.032-3.704 16.064-5.677 23.935-.976 3.866-2.917 5.45-6.982 4.874-4.066-.575-8.131-1.151-12.137-2.147-4.146-1.016-5.43-3.057-5.095-7.442l.437-3.085c3.106-13.86 6.213-27.719 9.48-41.7 2.389-10.815 4.778-21.631 7.288-32.286 3.186-14.421 6.512-28.822 9.698-43.243l6.99-31.184a169 169 0 0 1 2.929-11.598c1.116-3.845-.548-6.226-4.533-6.361-4.686-.235-9.23.552-13.493 2.379-2.442 1.084-4.883 2.169-7.445 3.093-3.463 1.225-6.887 1.17-9.813-1.39-1.263-1.18-2.186-2.74-2.509-4.502s-.224-3.464.435-5.086c1.715-5.048 3.992-10.017 6.65-14.645 3.177-5.27 8.7-6.92 14.688-6.787a59 59 0 0 1 7.01.993zM43.4 134.65c-9.28 41.3-18.52 82.319-27.839 123.899l5.647.513c9.56-41.26 19.081-82.239 28.641-123.499zm-33.175-30.294.641.52c1.06-.422 2.102-.704 3.022-1.145 5.784-2.47 12.01-4.02 18.196-4.288 7.929-.45 17.867 5.104 14.998 16.281-.678 2.764-.814 5.747-1.27 8.972l6.088 1.434c.996-4.006 1.653-7.631 2.71-11.056.479-1.363 1.317-3.246 2.378-3.668 2.862-1.024 3.3-3.107 3.657-5.631.596-4.205.294-5.106-3.932-6.562a93 93 0 0 0-12.239-3.45c-7.09-1.432-14.04-2.845-21.17-3.998-3.084-.437-6.407-.192-8.386 2.673-1.878 3.166-3.476 6.372-4.954 9.738zm8.693 164.821c-5.388-1.335-5.688-1.235-6.503 3.512l-.675 4.766 5.047.715zM334.707 41.623c-3.225-.457-6.53-1.354-9.695-2.23-2.183-.739-4.027-1.858-5.65-3.518-1.644-1.52-2.788-3.54-3.632-5.662-.743-1.821-1.046-3.723-.787-5.546.258-1.822.956-3.725 2.035-5.288q1.62-2.344 4.381-3.67c1.841-.883 3.603-1.206 5.585-1.068 2.423.057 4.907.695 7.051 1.713 2.143 1.019 4.048 2.719 5.632 4.659 1.343 1.62 2.507 3.5 3.931 5.561 2.482-1.364 4.221-3.549 5.299-6.113 1.996-5.008 3.572-10.076 5.307-15.264.119-.842.519-1.643.938-2.585.42-.941 1.24-1.683 2.16-2.125q1.382-.662 3.063-.424c1.122.159 2.024.859 2.746 1.819.581.94.863 1.981.704 3.102-2.108 11.857-5.177 23.434-15.94 30.776-.781.461-1.441 1.083-1.84 1.884a8 8 0 0 0-.778 2.464c-.692 6.91-4.009 13.16-9.229 17.712-.5.501-1.14.983-1.78 1.464-2.861 2.026-5.564 1.93-7.249-.311-1.565-2.08-1.067-4.584 1.393-6.81 3.28-2.967 6.039-6.295 6.815-10.76zm-10.012-16.147c1.628 4.664 4.693 6.242 9.277 5.175-2.089-5.444-5.255-7.322-9.277-5.175M190.572 150.627c-9.673-1.37-18.649-5.644-25.865-12.242-2.165-1.88-4.03-3.86-5.874-5.98-1.725-1.96-3.55-4.221-2.312-6.905.619-1.343 1.799-2.605 3.18-3.268q2.101-1.204 4.444-1.087c5.306-.106 10.452-.093 15.738-.059 8.991.129 18.001.118 26.852.227 5.286.034 10.572.067 15.819.381 5.246.314 7.453 3.915 5.337 8.764-.24.681-.619 1.342-.999 2.003-6.715 10.06-21.239 20.73-36.3 18.026zm24.505-19.553-43.992-.366c13.852 13.258 32.015 14.257 43.992.366M346.304 190.982c-.179 1.262-.918 2.444-1.878 3.166-.981.863-2.302 1.104-3.583 1.066-.561-.079-1.262-.179-1.783-.538s-1.042-.72-1.403-1.2-.562-1.081-.763-1.681c-.061-.581-.122-1.161-.022-1.862.099-.701.178-1.262.418-1.943.219-.541.719-1.042 1.219-1.543a6.3 6.3 0 0 1 1.701-.903 4.4 4.4 0 0 1 1.882-.163c.701.099 1.262.179 1.783.538s1.042.72 1.383 1.34c.361.48.702 1.101.743 1.822.201.6.102 1.301.003 2.002zM327.012 182.816c-.139.981-.539 1.783-1.219 2.544q-1.019 1.143-2.341 1.385c-.9.301-1.882.162-2.843-.117s-1.723-.959-2.185-1.739a4.4 4.4 0 0 1-.904-2.702c-.002-1.001.278-1.963.817-2.744.54-.782 1.2-1.403 2.121-1.845.92-.442 1.781-.463 2.762-.324 1.262.179 2.304.898 3.006 1.999.722.96.984 2.141.946 3.423zM338.197 160.377a4.52 4.52 0 0 1-2.018 3.146c-1.101.702-2.302 1.104-3.704.905-1.261-.178-2.303-.898-3.025-1.858s-.964-2.282-.806-3.403a4.53 4.53 0 0 1 2.019-3.146c1.1-.702 2.301-1.104 3.683-.766.561.08 1.262.179 1.783.539s1.042.719 1.403 1.199.562 1.081.763 1.681.122 1.162.022 1.863zM369.98 100.527c-.178 1.262-.898 2.304-1.999 3.006-.96.722-2.281.964-3.403.805-1.261-.178-2.424-1.058-3.146-2.018-.702-1.101-.944-2.422-.765-3.683.079-.561.179-1.262.659-1.623.359-.521.699-.902 1.18-1.263.48-.361 1.08-.562 1.68-.763.601-.201 1.162-.122 1.863-.022 1.261.178 2.424 1.058 3.146 2.018.702 1.1.944 2.422.765 3.683zM387.201 101.107c.561.08 1.262.179 1.783.539.541.219 1.042.719 1.403 1.199s.722.961.783 1.541q.301.901.182 1.742c-.079.561-.179 1.262-.398 1.803s-.58 1.062-1.06 1.423-.96.722-1.56.923a3.8 3.8 0 0 1-1.742.182c-.701-.099-1.262-.179-1.783-.539-.521-.359-1.042-.719-1.543-1.219a6.3 6.3 0 0 1-.903-1.701 4.4 4.4 0 0 1-.163-1.882c.179-1.262.758-2.324 1.718-3.046.961-.722 2.162-1.124 3.423-.945zM357.971 169.182c-.179 1.261-.758 2.323-1.718 3.045-.961.722-2.162 1.124-3.423.946s-2.304-.899-3.026-1.859-.964-2.281-.945-3.423c.158-1.121.878-2.163 1.698-2.905a4.4 4.4 0 0 1 3.263-.825c1.262.179 2.323.758 3.046 1.718s1.123 2.161.945 3.423zM400.377 84.812c-.159 1.122-.719 2.043-1.539 2.785-.8.602-2.001 1.004-2.982.865-.561-.08-1.122-.159-1.643-.519-.541-.22-.902-.7-1.283-1.04-.361-.48-.581-.94-.782-1.54s-.122-1.161-.043-1.722c.08-.56.159-1.122.659-1.623.36-.52.7-.902 1.18-1.263s.94-.581 1.521-.642 1.161-.122 1.722-.043c1.121.16 2.023.859 2.625 1.66.582.94.863 1.98.705 3.102zM375.322 80.978c-1.121-.159-2.063-.578-2.785-1.538-.742-.82-1.023-1.861-1.005-3.003.159-1.121.719-2.043 1.539-2.785s1.861-1.023 3.002-1.005c1.121.16 2.043.719 2.785 1.539s1.024 1.86.865 2.982c-.08.56-.159 1.122-.359 1.522-.219.541-.559.922-1.039 1.283-.481.361-.941.582-1.401.803-.46.22-1.021.141-1.602.202"/></svg>