<svg width="442" height="306" viewBox="0 0 442 306" fill="none" xmlns="http://www.w3.org/2000/svg">
<path d="M256.572 250.061C254.721 242.935 253.11 236.129 251.24 229.143L127.654 228.375C125.521 235.365 123.227 242.477 120.853 250.148C124.92 251.725 128.547 254.384 131.215 257.764C133.882 261.145 135.589 265.248 136.255 269.632C137.264 275.638 136.25 281.786 133.193 287.216C130.476 292.266 126.176 296.376 120.853 298.625C115.529 300.874 109.603 301.322 104.115 299.687C92.8377 296.517 85.3755 285.593 85.7601 272.778C86.1646 259.822 95.1839 250.661 111.519 247.397C114.052 239.604 116.465 231.652 119.019 223.72C125.461 203.468 131.783 183.057 138.226 162.805C138.625 162.004 138.764 161.023 138.603 160.142C138.442 159.261 137.84 158.461 137.058 157.921C119.578 142.004 108.681 122.014 100.785 100.018C97.5295 90.6916 97.9786 81.4603 100.31 72.0665C101.883 64.9964 100.093 58.4509 96.3201 51.7678C92.8414 56.1372 88.5377 57.2438 83.7328 57.8504C79.7889 58.4359 75.9258 59.4619 72.0824 60.3476C64.1152 62.0795 57.5437 59.004 53.6904 51.8804C52.9076 50.3396 52.2649 48.8186 51.6223 47.2976C50.4971 44.1354 51.0752 42.0722 54.0167 40.4868C60.5597 36.6943 67.7255 34.563 75.2336 34.0532C81.7009 33.8249 88.09 35.1586 93.8203 38.115C97.3064 39.7526 100.393 42.1917 102.98 45.1319C105.426 48.0523 107.353 51.6141 108.258 55.3172C110.47 62.9234 111.241 70.6114 108.567 78.3837C107.53 81.6688 107.855 85.4328 107.779 88.997C107.581 90.3989 108.643 90.9783 110.045 91.1768L117.615 92.2487C135.698 93.8082 153.801 95.2276 171.763 96.6271C172.464 96.7264 173.325 96.7053 174.046 96.6643C179.412 79.9783 187.884 65.5912 201.567 54.8018C222.031 38.5377 246.802 40.3292 265.186 58.9483C276.173 70.2279 282.677 83.8757 286.7 98.8882C287.606 102.591 287.911 106.496 288.677 110.179C288.938 111.36 288.76 112.622 288.601 113.743C288.422 115.005 287.843 116.067 286.983 117.089C276.072 134.563 262.996 150.157 246.131 162.212C245.491 162.693 244.991 163.194 244.191 163.796C251.575 192.44 258.979 220.944 266.242 249.429C268.566 250.187 270.629 250.765 272.672 251.483C276.999 253.24 280.727 256.199 283.495 259.879C287.425 264.44 289.635 270.044 290.103 275.83C290.812 282.937 288.518 290.048 284.02 295.56C279.381 301.052 272.878 304.565 265.77 305.274C251.856 306.593 238.707 295.436 237.067 280.761C236.218 274.635 237.392 268.366 240.569 263.096C243.606 257.806 248.487 253.635 254.25 251.305L256.552 250.201L256.572 250.061ZM277.048 114.538C221.758 110.141 167.069 105.543 111.479 101.247C112.985 104.749 114.029 107.471 115.214 110.213C122.483 126.543 132.012 141.048 145.642 152.845C158.771 164.142 173.877 170.571 191.258 171.03C204.794 171.373 217.464 167.734 229.23 161.392C247.8 151.437 261.898 136.703 273.891 119.668C274.951 118.245 275.75 116.642 277.169 114.698L277.048 114.538ZM236.247 168.391C222.02 175.958 207.489 180.621 191.51 180.36C175.531 180.1 160.967 174.891 147.08 165.918C141.556 183.726 136.071 201.253 130.546 219.06L248.765 219.355L236.247 168.391ZM277.998 104.806C276.864 94.6354 269.816 78.7656 262.356 69.8444C259.549 66.4439 256.401 63.4243 253.074 60.6652C240.828 51.2093 226.49 50.466 213.104 58.1515C203.6 63.6696 196.882 71.7272 191.267 81.085C188.13 86.0747 185.633 91.5842 183.698 97.173L277.998 104.806ZM266.535 259.48C255.099 257.432 248.081 265.59 246.73 274.121C245.04 284.035 252.341 294.078 261.894 295.287C270.585 296.518 279.147 289.579 280.637 280.066C282.366 269.872 273.703 259.351 266.695 259.36L266.535 259.48ZM126.892 276.171C128.204 267.92 121.201 255.774 110.85 257.169C103.723 258.019 97.4615 262.852 95.8686 270.062C94.0771 278.674 97.5706 286.319 104.403 289.574C114.34 294.128 125.425 287.546 126.872 276.311L126.892 276.171ZM62.2345 47.0843C64.9626 51.0456 66.1647 51.6448 70.2885 50.7987C75.0127 49.7517 79.7171 48.8449 84.5815 47.8177C85.7824 47.4157 86.9833 47.0138 88.204 46.4716C83.0332 42.5935 71.6594 42.127 62.3746 47.1042L62.2345 47.0843Z" fill="#102185"/>
<path d="M366.275 213.544L363.475 216.15C357.015 222.385 349.312 227.3 340.966 230.695C332.921 233.988 324.011 234.3 315.658 231.687C311.952 230.59 308.646 228.692 305.7 226.273C302.753 223.854 300.467 220.813 298.661 217.411C296.413 213.089 294.625 208.546 293.138 203.902C290.746 196.557 292.058 189.307 294.893 182.415C299.405 171.757 304.318 161.299 309.351 151.001C317.341 134.972 325.611 118.984 333.46 102.935C337.475 94.7809 340.408 86.1873 344.302 77.8729C352.27 60.9834 363.165 46.6533 380.977 39.0225C386.02 36.7336 391.325 35.6258 396.891 35.6991C402.318 35.7524 407.686 37.2275 412.635 39.6443C416.922 41.6814 420.591 45.0608 422.839 49.383C427.394 57.607 429.427 66.4748 427.837 75.6875C426.684 82.8172 424.71 89.6876 423.117 96.898C433.111 98.027 439.645 103.385 441.019 113.876C441.544 117.239 440.908 120.724 439.329 123.789C437.751 126.855 435.252 129.361 432.19 130.786C424.085 134.501 417.254 132.246 410.999 125.927C402.614 145.76 394.268 165.313 385.863 185.287C386.264 185.486 386.905 186.006 387.586 186.246C390.391 187.644 392.816 189.703 394.602 192.244C396.387 194.785 397.692 197.686 398.116 200.75C398.681 203.832 398.384 206.936 397.527 209.961C396.529 212.966 395.011 215.611 392.831 217.876C391.171 219.5 389.13 220.784 386.989 221.768C384.868 222.611 382.385 222.975 380.103 222.938C377.7 222.74 375.476 222.282 373.352 221.124C371.209 220.105 369.425 218.566 367.961 216.785C367.259 215.685 366.677 214.745 365.994 213.504L366.275 213.544ZM418.767 76.1191C419.581 70.3715 418.832 64.5456 417.164 59.1614C416.319 56.0388 414.593 53.0775 412.208 50.7377C409.822 48.3979 406.897 46.8397 403.712 46.1028C399.586 44.9465 395.301 44.9117 391.157 45.898C381.369 48.3729 372.566 53.9903 366.188 61.6671C357.95 71.3685 352.217 82.5686 347.686 94.3679C346.129 98.2944 344.572 102.221 342.735 106.108C334.326 123.078 325.777 140.028 317.368 156.998C312.574 166.615 308.181 176.432 303.928 186.269C302.012 190.716 300.896 195.563 302.484 200.507C303.751 204.69 305.318 208.773 307.205 212.615C308.429 215.077 310.114 217.317 312.299 219.056C314.483 220.796 316.868 222.134 319.632 222.812C326.242 224.606 333.349 223.896 339.493 220.905C351.72 215.344 360.96 206.642 368.395 195.54C376.37 183.656 382.341 170.774 387.791 157.532C395.577 138.901 403.083 120.23 410.709 101.719C414.183 93.3448 416.815 84.8517 418.787 75.979L418.767 76.1191ZM388.752 206.288C389.427 201.521 388.341 198.078 384.955 195.74C383.772 195.001 381.168 194.203 380.809 194.724C377.909 198.031 375.511 201.839 373.674 205.725C372.776 208.029 376.765 212.169 379.51 212.987C381.052 213.205 382.633 213.143 384.014 212.481C385.395 211.818 386.555 210.695 387.314 209.373C387.894 208.311 388.313 207.369 388.612 206.268L388.752 206.288ZM431.772 116.57C432.407 112.084 428.817 107.143 424.591 106.688C423.61 106.549 422.749 106.57 421.848 106.871C420.948 107.173 420.047 107.474 419.387 108.096C418.587 108.697 418.067 109.339 417.507 110.26C417.108 111.062 416.689 112.003 416.55 112.985C416.074 117.35 420.206 122.511 424.431 122.967C426.254 123.225 428.075 122.482 429.375 121.379C430.695 120.136 431.634 118.553 431.752 116.71L431.772 116.57Z" fill="#102185"/>
<path d="M28.9406 83.2672C39.6743 84.2151 49.8696 86.9457 60.1256 90.2569C69.1597 93.1091 72.6122 100.033 70.0206 109.247C69.502 110.889 69.2638 112.572 68.9053 114.094C68.4884 117.038 67.4301 119.462 64.5085 120.907C63.7083 121.509 63.1687 122.29 62.8895 123.252C61.7531 127.238 60.7569 131.244 59.7805 135.11C54.8813 156.581 49.822 178.172 44.9227 199.643C40.382 219.592 35.721 239.38 31.0401 259.309C29.1878 267.341 27.3355 275.373 25.3629 283.244C24.3865 287.11 22.4462 288.694 18.3808 288.118C14.3153 287.543 10.2498 286.967 6.24393 285.971C2.09784 284.955 0.813843 282.914 1.14883 278.529L1.58554 275.444C4.69208 261.584 7.79863 247.725 11.0652 233.744C13.4547 222.929 15.8441 212.113 18.3539 201.458C21.5398 187.037 24.866 172.636 28.0519 158.215C30.3818 147.82 32.7117 137.426 35.0416 127.031C35.8778 123.145 36.8542 119.279 37.9708 115.433C39.0873 111.588 37.4225 109.207 33.4377 109.072C28.7519 108.837 24.2075 109.624 19.9448 111.451C17.5033 112.535 15.0617 113.62 12.4999 114.544C9.03736 115.769 5.61329 115.714 2.68672 113.154C1.42379 111.974 0.500853 110.414 0.178305 108.652C-0.144244 106.89 -0.0462431 105.188 0.612526 103.566C2.32831 98.5177 4.60486 93.5491 7.26226 88.9205C10.4395 83.6504 15.9639 82.0017 21.951 82.1345C24.3541 82.3317 26.5971 82.6494 28.9604 83.127L28.9406 83.2672ZM43.4008 134.649C34.1209 175.949 24.8806 216.968 15.561 258.548L21.2082 259.061C30.7685 217.801 40.2891 176.822 49.8494 135.562L43.4008 134.649ZM10.2247 104.355L10.8661 104.875C11.9268 104.453 12.9677 104.171 13.8882 103.73C19.6719 101.26 25.8973 99.7101 32.0842 99.4421C40.0129 98.9919 49.9514 104.546 47.0818 115.723C46.4044 118.487 46.2679 121.47 45.8114 124.695L51.9002 126.129C52.8964 122.123 53.5527 118.498 54.6097 115.073C55.0886 113.71 55.9273 111.827 56.9881 111.405C59.8501 110.381 60.2881 108.298 60.6454 105.774C61.2409 101.569 60.9394 100.668 56.7127 99.2115C52.7663 97.7948 48.64 96.6385 44.4741 95.7626C37.384 94.3297 30.4342 92.9166 23.3045 91.764C20.2204 91.3273 16.8967 91.5717 14.9179 94.4374C13.0397 97.6034 11.4417 100.809 9.96417 104.175L10.2247 104.355ZM18.9181 269.176C13.5301 267.841 13.2299 267.941 12.4148 272.688L11.7399 277.454L16.7866 278.169L18.9181 269.176Z" fill="#102185"/>
<path d="M334.707 41.6229C331.482 41.1663 328.177 40.2693 325.012 39.3922C322.829 38.6541 320.985 37.535 319.362 35.8751C317.718 34.3554 316.574 32.3344 315.73 30.213C314.987 28.3918 314.684 26.4899 314.943 24.6675C315.201 22.8451 315.899 20.942 316.978 19.3788C318.058 17.8157 319.518 16.5925 321.359 15.7092C323.2 14.8259 324.962 14.5033 326.944 14.641C329.367 14.6981 331.851 15.3358 333.995 16.3544C336.138 17.3729 338.043 19.0725 339.627 21.0128C340.97 22.6331 342.134 24.5138 343.558 26.5745C346.04 25.2098 347.779 23.0252 348.857 20.4608C350.853 15.4526 352.429 10.3847 354.164 5.19656C354.283 4.35543 354.683 3.554 355.102 2.61239C355.522 1.67078 356.342 0.928916 357.262 0.487269C358.183 0.0456215 359.204 -0.0958055 360.325 0.0629984C361.447 0.221802 362.349 0.921501 363.071 1.88173C363.652 2.82211 363.934 3.86298 363.775 4.98448C361.667 16.8409 358.598 28.4181 347.835 35.7599C347.054 36.2214 346.394 36.8429 345.995 37.6444C345.595 38.4458 345.336 39.2671 345.217 40.1082C344.525 47.0171 341.208 53.2684 335.988 57.8201C335.488 58.3213 334.848 58.8027 334.208 59.284C331.347 61.3099 328.644 61.2131 326.959 58.9726C325.394 56.8921 325.892 54.3886 328.352 52.163C331.632 49.1955 334.391 45.8682 335.167 41.4021L334.707 41.6229ZM324.695 25.4764C326.323 30.1398 329.388 31.7179 333.972 30.651C331.883 25.2073 328.717 23.329 324.695 25.4764Z" fill="#102185"/>
<path d="M190.572 150.627C180.899 149.257 171.923 144.983 164.707 138.385C162.542 136.505 160.677 134.525 158.833 132.405C157.108 130.445 155.283 128.184 156.521 125.5C157.14 124.157 158.32 122.895 159.701 122.232C161.102 121.429 162.583 121.067 164.145 121.145C169.451 121.039 174.597 121.052 179.883 121.086C188.874 121.215 197.884 121.204 206.735 121.313C212.021 121.347 217.307 121.38 222.554 121.694C227.8 122.008 230.007 125.609 227.891 130.458C227.651 131.139 227.272 131.8 226.892 132.461C220.177 142.521 205.653 153.191 190.592 150.487L190.572 150.627ZM215.077 131.074L171.085 130.708C184.937 143.966 203.1 144.965 215.077 131.074Z" fill="#102185"/>
<path d="M346.304 190.982C346.125 192.244 345.386 193.426 344.426 194.148C343.445 195.011 342.124 195.252 340.843 195.214C340.282 195.135 339.581 195.035 339.06 194.676C338.539 194.316 338.018 193.956 337.657 193.476C337.296 192.996 337.095 192.395 336.894 191.795C336.833 191.214 336.772 190.634 336.872 189.933C336.971 189.232 337.05 188.671 337.29 187.99C337.509 187.449 338.009 186.948 338.509 186.447C338.989 186.086 339.61 185.745 340.21 185.544C340.81 185.343 341.531 185.302 342.092 185.381C342.793 185.48 343.354 185.56 343.875 185.919C344.396 186.279 344.917 186.639 345.258 187.259C345.619 187.739 345.96 188.36 346.001 189.081C346.202 189.681 346.103 190.382 346.004 191.083L346.304 190.982Z" fill="#102185"/>
<path d="M327.012 182.816C326.873 183.797 326.473 184.599 325.793 185.36C325.114 186.122 324.333 186.584 323.452 186.745C322.552 187.046 321.57 186.907 320.609 186.628C319.647 186.349 318.886 185.669 318.424 184.889C317.822 184.089 317.521 183.188 317.52 182.187C317.518 181.186 317.798 180.224 318.337 179.443C318.877 178.661 319.537 178.04 320.458 177.598C321.378 177.156 322.239 177.135 323.22 177.274C324.482 177.453 325.524 178.172 326.226 179.273C326.948 180.233 327.21 181.414 327.172 182.696L327.012 182.816Z" fill="#102185"/>
<path d="M338.197 160.377C338.019 161.638 337.279 162.821 336.179 163.523C335.078 164.225 333.877 164.627 332.475 164.428C331.214 164.25 330.172 163.53 329.45 162.57C328.728 161.61 328.486 160.288 328.644 159.167C328.823 157.905 329.563 156.723 330.663 156.021C331.763 155.319 332.964 154.917 334.346 155.255C334.907 155.335 335.608 155.434 336.129 155.794C336.65 156.154 337.171 156.513 337.532 156.993C337.893 157.474 338.094 158.074 338.295 158.674C338.496 159.275 338.417 159.836 338.317 160.537L338.197 160.377Z" fill="#102185"/>
<path d="M369.98 100.527C369.802 101.789 369.082 102.831 367.981 103.533C367.021 104.255 365.7 104.497 364.578 104.338C363.317 104.16 362.154 103.28 361.432 102.32C360.73 101.219 360.488 99.8982 360.667 98.6366C360.746 98.0758 360.846 97.3749 361.326 97.0139C361.685 96.4928 362.025 96.112 362.506 95.7509C362.986 95.3899 363.586 95.189 364.186 94.988C364.787 94.787 365.348 94.8664 366.049 94.9657C367.31 95.1443 368.473 96.0239 369.195 96.9841C369.897 98.0846 370.139 99.4058 369.96 100.667L369.98 100.527Z" fill="#102185"/>
<path d="M387.201 101.107C387.762 101.187 388.463 101.286 388.984 101.646C389.525 101.865 390.026 102.365 390.387 102.845C390.748 103.326 391.109 103.806 391.17 104.386C391.371 104.987 391.431 105.567 391.352 106.128C391.273 106.689 391.173 107.39 390.954 107.931C390.734 108.471 390.374 108.993 389.894 109.354C389.414 109.715 388.934 110.076 388.334 110.277C387.733 110.478 387.153 110.538 386.592 110.459C385.891 110.36 385.33 110.28 384.809 109.92C384.288 109.561 383.767 109.201 383.266 108.701C382.905 108.221 382.564 107.601 382.363 107C382.162 106.4 382.121 105.679 382.2 105.118C382.379 103.856 382.958 102.794 383.918 102.072C384.879 101.35 386.08 100.948 387.341 101.127L387.201 101.107Z" fill="#102185"/>
<path d="M357.971 169.182C357.792 170.443 357.213 171.505 356.253 172.227C355.292 172.949 354.091 173.351 352.83 173.173C351.568 172.994 350.526 172.274 349.804 171.314C349.082 170.354 348.84 169.033 348.859 167.891C349.017 166.77 349.737 165.728 350.557 164.986C351.517 164.264 352.698 164.002 353.82 164.161C355.082 164.34 356.143 164.919 356.866 165.879C357.588 166.839 357.989 168.04 357.811 169.302L357.971 169.182Z" fill="#102185"/>
<path d="M400.377 84.8121C400.218 85.9336 399.658 86.8553 398.838 87.5972C398.038 88.1989 396.837 88.6008 395.856 88.4619C395.295 88.3825 394.734 88.3031 394.213 87.9433C393.672 87.7237 393.311 87.2436 392.93 86.9037C392.569 86.4236 392.349 85.9633 392.148 85.3629C391.947 84.7624 392.026 84.2017 392.105 83.6409C392.185 83.0802 392.264 82.5194 392.764 82.0182C393.124 81.4972 393.464 81.1163 393.944 80.7553C394.424 80.3943 394.884 80.1735 395.465 80.1127C396.046 80.0519 396.626 79.9911 397.187 80.0705C398.308 80.2293 399.21 80.929 399.812 81.7292C400.394 82.6696 400.675 83.7104 400.517 84.8319L400.377 84.8121Z" fill="#102185"/>
<path d="M375.322 80.978C374.201 80.8192 373.259 80.3998 372.537 79.4396C371.795 78.6196 371.514 77.5787 371.532 76.4373C371.691 75.3158 372.251 74.3941 373.071 73.6522C373.891 72.9103 374.932 72.6287 376.073 72.6473C377.194 72.8062 378.116 73.3657 378.858 74.1857C379.6 75.0057 379.882 76.0466 379.723 77.1681C379.643 77.7289 379.564 78.2896 379.364 78.6903C379.145 79.2312 378.805 79.6121 378.325 79.9731C377.844 80.3341 377.384 80.5549 376.924 80.7757C376.464 80.9966 375.903 80.9172 375.322 80.978Z" fill="#102185"/>
</svg>
