<svg xmlns="http://www.w3.org/2000/svg" width="269" height="289" fill="none" viewBox="0 0 269 289"><path fill="#102185" d="M34.958 135.536c-5.394-5.21-10.831-10.152-15.956-15.319-8.142-8.043-14.13-18.067-17.543-29.139-1.87-5.847-1.94-12.304-.227-18.208 2.04-7.15 8.821-10.605 16.014-8.85 5.805 1.417 9.557 5.098 12.417 10.096 3.596 6.81 6.4 14.088 8.042 21.62 2.563 9.954 4.998 19.893 7.405 29.96.255 1.175.68 2.237 1.062 3.582 10.407.212 20.643.694 31.262.51-.85-2.988-1.472-5.65-2.251-8.198-5.833-20.006-11.978-39.927-17.528-59.891-2.21-7.476-2.52-15.234-.708-22.852a19.25 19.25 0 0 1 6.3-9.968c3.27-2.817 7.278-4.814 11.568-5.762 9.458-2.067 18.803-4.432 28.02-6.825 1.359-.524 2.35-1.373 3.228-2.534 2.988-3.865 6.881-7.023 11.228-9.387 4.347-2.379 8.976-3.71 13.904-4.149a37.8 37.8 0 0 1 15.376 1.501 40.5 40.5 0 0 1 13.522 7.391c3.964 3.285 7.22 7.476 9.557 12.105 2.336 4.63 3.752 9.7 4.006 14.881.581 8.807-2.095 17.444-7.405 24.537l6.159 17.77c17.954-8.425 34.576-6.599 48.423 7.418 13.097 13.338 15.348 29.393 7.377 46.993 2.987.141 5.692.254 8.396.354 4.984.141 10.01.014 14.994.17 5.267.184 6.923 1.571 8.056 6.597 4.333 19.511 8.807 39.035 9.317 59.282.24 12.191-.638 24.226-4.857 35.638-2.619 7.206-6.046 14.144-10.548 20.501-5.38 7.519-12.658 13.338-21.167 16.835-14.046 6.13-28.827 10.435-43.935 12.969a206.4 206.4 0 0 1-32.564 2.591c-4.446.071-9.034.128-13.522.482-7.051.269-14.159-.043-21.167-1.048-9.43-1.076-18.845-2.294-28.303-4.092-17.43-3.086-33.542-11.426-46.2-23.843-7.632-7.547-13.31-16.807-16.396-27.114-3.511-10.378-5.238-21.21-4.941-32.182.07-4.432.396-8.666.736-13.055.793-8.467 1.444-16.962 2.775-25.202 1.289-8.962 2.874-17.896 5.933-26.179h.141zm215.268 7.193c-8.268-.199-16.381-.51-24.551-.397-7.886.142-15.843.722-23.914.128-6.513-.51-13.068-.595-19.623-.836-9.685-.255-19.497-.665-29.196-.92-6.994-.156-13.833-.283-20.827-.425l-22.272-.354c-7.121-.17-14.399-.368-21.55-.396-9.556-.241-18.986-.312-28.529-.538l-15.56-.241c-.609 1.203-.92 2.435-1.388 3.667-1.798 8.467-3.71 16.778-5.083 25.301-1.189 8.269-1.401 16.679-2.322 24.99-1.557 13.791.298 27.652 5.31 40.536 1.529 4.234 3.667 8.255 6.145 11.908 6.414 9.076 15.036 15.758 24.72 21.025 7.703 4.12 16.028 6.896 24.693 8.283 15.235 2.492 30.47 4.97 45.988 4.488 10.774-.297 21.563-.75 32.253-1.486 18.647-1.317 36.416-6.471 53.463-13.592 7.278-2.818 13.564-7.774 17.897-14.003 3.808-5.607 6.98-11.723 9.061-18.152 3.653-10.491 4.375-21.393 4.234-32.295-.312-18.647-4.588-36.572-8.41-54.723-.199-.595-.397-1.204-.623-1.657l.042-.283zm-117.644-77.93c7.122 1.176 14.371-.495 20.247-4.516 5.89-4.163 9.812-10.463 11.115-17.556.552-3.78.396-7.674-.51-11.37s-2.676-7.249-4.956-10.293c-2.279-3.044-5.196-5.621-8.481-7.66-3.299-1.912-6.98-3.157-10.76-3.695-3.497-.51-7.221-.468-10.633.325-3.54.779-6.768 2.308-9.657 4.474-2.888 2.166-5.408 4.8-7.277 7.816s-3.073 6.428-3.596 10.067c-2.705 17.783 11.086 31.22 24.763 32.621l-.255-.184zm26.279 66.73c-.737-1.826-1.303-2.902-1.841-4.134-2.789-6.414-3.78-13.422-3.072-20.332.778-7.334 3.766-14.187 8.594-19.935.68-.765 1.246-1.685 1.387-2.662s0-1.996-.438-2.93c-1.331-3.625-2.393-7.208-3.71-10.974q-.445-1.359-1.317-2.76c-12.743 8.027-25.584 8.75-39.686 2.42l17.854 60.656 22.087.609h.142zm-47.319-1.246c4.772.694 9.628.68 14.4.368-.439-1.925-.793-3.412-1.289-4.913l-15.461-52.443c-1.133-4.021-2.548-8.099-3.384-12.219-.297-1.897-1.062-3.582-1.954-5.295-4.757-7.703-6.428-16.948-4.983-25.896.141-.977.269-1.827.17-3.13-5.508 1.487-10.676 2.606-15.9 4.135 7.56 33.853 17.443 66.46 28.288 99.365h.142zm78.539-14.838c5.465.793 8.183 1.756 6.569 8.962 1.756-.311 3.441-1.076 4.885-2.152s2.761-2.322 3.709-3.893c1.685-2.761 4.234-3.54 6.513-2.492 2.28 1.047 3.314 3.766 2.294 6.909-1.189 3.256-3.596 6.06-6.555 7.773-1.105.694-2.068 1.416-3.625 2.336 3.327-.24 5.833-.736 8.354-.368 4.205.609 6.215-1.387 7.56-4.771.057-.425.383-.666.581-1.062 4.601-11.072 3.695-21.634-3.483-31.404-7.193-9.628-17.132-14.06-29.252-12.374-6.57.906-12.601 4.049-17.033 8.99-4.431 4.942-7.065 11.285-7.292 17.826-.325 7.249 1.898 13.578 5.593 19.695.34.623.821 1.26 1.473 1.642.651.382 1.345.623 2.194.609 1.827.269 3.781.552 5.65.524 2.605-.199 5.309.906 7.957-.567l-3.724-2.973c-1.345.382-2.52.637-3.54.779-1.175.255-2.463.212-3.525-.368-1.062-.581-1.94-1.431-2.478-2.648-.963-2.28-.071-4.446 2.478-6.23.637-.481 1.147-.977 2.109-1.699-5.111-.311-7.206-1.614-7.659-4.403s1.062-4.418 6.513-6.499c.467-1.218.906-2.308 1.231-3.54.666-2.619 2.294-4.955 4.262-6.683 4.772-4.318 10.364-5.366 16.424-4.785.977.142 2.096.297 2.889.85.934.424 1.699 1.104 2.435 1.925.623.665.934 1.416 1.118 2.166.156.878.043 1.728-.339 2.379-.255.821-.779 1.458-1.445 2.081-.637.481-1.543.779-2.407.793-1.005 0-2.095-.297-3.129-.17-2.449.071-5.04-.722-7.674 1.614.836.128 1.289.043 1.869-.014s1.317-.241 1.898-.297c3.157-.113 5.408 1.203 5.875 3.851.241 1.317-.085 2.562-.821 3.738-.722 1.033-1.84 1.883-3.03 2.138-1.501.495-3.129.835-5.507 1.486l.099.298zm-89.427 14.98c-1.67-5.253-3.001-9.883-4.502-14.386C87.586 90.2 80.209 63.95 74.164 37.473c-.156-.877-.595-1.797-1.02-2.86-1.798.595-3.525 1.643-4.757 3.172s-1.912 3.3-2.195 5.267c-.878 7.023-.184 14.13 1.713 20.842 5.89 20.586 11.936 41.201 17.982 61.675.382 1.345.892 2.704 1.373 4.346l13.253.34.113.156zm-67.196-9.274.778-.453c-.439-1.926-.878-3.851-1.317-5.763-2.208-8.466-4.134-16.905-6.654-25.273-1.416-4.063-3.13-8.028-5.296-11.921a6.6 6.6 0 0 0-2.038-2.733c-.907-.708-1.954-1.288-3.059-1.586-3.469-.793-5.167.114-5.819 3.597-.85 3.88-.566 7.928.722 11.836 2.945 9.302 8.142 17.911 14.994 24.905 2.478 2.648 5.112 5.168 7.76 7.702l-.1-.297z"/><path fill="#102185" d="m131.11 37.785-2.874 1.19c-.779.325-1.728.254-2.549.127-.864-.255-1.614-.566-2.195-1.232-.58-.665-1.047-1.401-1.231-2.251s-.128-1.784.184-2.52c.41-1.246 1.189-2.322 2.067-3.158 2.393-2.364 4.785-4.729 7.291-6.838 1.02-.878 2.138-1.501 3.37-1.855.652-.27 1.303-.538 1.94-.495.637.042 1.26.084 1.996.396.609.368 1.218.722 1.699 1.132.482.411.751 1.076 1.02 1.728.651 1.571.849 3.171.793 4.885a777 777 0 0 1-2.535 20.954 4.45 4.45 0 0 1-.58 1.926c-.354.609-.779 1.09-1.19 1.557-.594.397-1.076.75-1.783.892-.652.27-1.289.227-2.054.227-1.316-.227-2.477-.821-3.228-1.883-.75-1.076-1.104-2.308-1.005-3.568.198-3.61.581-7.136.991-10.973l-.113-.255zM87.657 184.765c1.345-6.385 5.324-7.093 9.84-7.73 7.589-1.048 15.221-2.379 22.711-3.724 1.317-.241 2.69-.75 4.021-1.133 7.886-2.152 12.191-8.112 15.858-14.739a48 48 0 0 0 2.534-5.649c2.209-5.409 7.759-6.173 11.539-1.628 3.441 3.936 7.023 7.886 10.789 11.426 4.177 3.752 9.359 6.498 14.725 7.985 3.837 1.133 7.773 1.699 11.653 2.534 1.826.27 3.469.793 5.239 1.331 4.063 1.586 5.323 4.772 3.61 8.68-.779 1.458-1.572 2.916-2.492 4.36-3.554 5.777-7.108 11.568-10.392 17.529-1.884 3.157-2.96 6.584-3.342 10.251-.51 3.497-.028 7.15 1.048 10.59 1.359 4.489 4.247 8.198 7.008 11.88 1.077 1.444 2.322 2.76 3.243 4.332.835 1.118 1.217 2.463 1.161 3.879-.198 1.402-.666 2.62-1.529 3.639-6.159 6.98-13.479 12.077-23.206 12.106-3.583.056-7.193-.751-10.435-2.082-4.446-1.925-8.17-.892-12.163.963-.92.439-1.869 1.02-2.647 1.473-3.243 1.67-6.697 2.747-10.294 2.945a27.3 27.3 0 0 1-10.647-1.544c-7.759-2.69-15.532-5.394-23.135-8.197a12.2 12.2 0 0 1-2.818-1.26c-3.256-2.181-3.71-5.975-1.373-9.359 1.741-2.181 3.256-4.687 4.601-7.066 2.776-5.323 4.177-11.128 4.305-16.976.17-3.129-.538-6.229-2.308-8.778-1.544-2.223-3.073-4.446-4.616-6.669-4.474-6.654-8.807-13.295-12.8-19.298l.298-.099zm20.87 61.52c.779.538 1.444.92 2.237 1.33 4.078 1.445 8.17 2.903 12.247 4.347a50 50 0 0 0 6.131 2.166c5.14 1.034 10.548.241 15.107-2.534 6.23-3.54 12.729-4.885 19.893-1.997 8.51 3.512 15.999 1.162 21.394-5.493-1.982-3.143-4.12-6.173-6.088-9.316-2.804-4.404-4.489-9.515-4.998-14.881-.397-5.21.382-10.534 2.52-15.518 2.69-6.768 6.867-12.884 10.364-19.241.609-1.204 1.345-2.379 2.11-3.696-20.191-5.776-15.462-.948-39.928-21.648-1.685 2.761-3.497 5.366-5.182 8.127-3.327 5.238-8.226 9.401-13.988 11.709-6.967 2.718-14.244 4.531-21.635 5.168-2.902.297-5.833.736-9.047 1.274.821 1.26 1.26 2.181 1.699 3.101 3.072 4.446 5.989 9.019 9.231 13.351 6.258 8.198 6.966 17.175 4.729 26.718-1.43 5.946-3.837 11.751-7.008 16.863l.254.183z"/></svg>