<svg xmlns="http://www.w3.org/2000/svg" width="285" height="246" fill="none" viewBox="0 0 285 246"><path fill="#102185" d="M44.674 183.84c1.345-7.348 2.237-14.328 3.639-21.238 5.14-25.174 10.59-50.348 15.787-75.408.184-1.204.297-2.535.283-3.795-.1-4.247 2.93-6.74 7.108-5.692 1.147.369 2.28.737 3.171 1.247 24.197 10.718 48.338 21.62 72.549 32.338 1.912.934 4.064.792 5.904 1.288 3.172.92 5.848 3.058 8.779 4.743-.057 1.147-.113 1.968-.298 2.846-5.267 34.292-10.208 68.584-15.971 102.82-1.09 6.598-4.658 12.7-10.01 16.848-5.352 4.149-12.12 6.174-18.831 5.452-14.258-1.487-24.169-14.711-22.187-29.535 1.983-14.824 15.519-25.373 29.847-23.135 3.228.424 6.216 1.6 8.821 3.61 1.656 1.062 3.242 1.996 5.083 2.818l5.805-37.592a26509 26509 0 0 1-76.698-36.741c-.424 1.657-.807 2.789-1.104 4.064-3.469 18.448-6.952 36.897-10.237 55.416-1.16 6.782-1.614 13.692-2.194 20.658-.878 10.774-5.947 18.915-15.603 23.673-3.908 1.996-8.396 2.846-12.842 2.562-4.375-.155-8.75-1.585-12.559-3.766-3.88-2.308-6.938-5.522-9.189-9.302-2.237-3.78-3.54-8.212-3.695-12.573-.227-4.488.764-8.806 2.69-12.813 1.94-4.007 4.757-7.504 8.41-9.996a27 27 0 0 1 12.12-4.899c4.432-.666 8.863-.071 13.11 1.43a82 82 0 0 1 8.581 4.686h-.311zM74.45 90.974l-5.154 22.64 76.372 36.43 3.936-25.67-75.211-33.527.07.127zM33.333 218.685c8.65-3.922 11.044-14.513 7.32-21.833-4.757-9.331-14.64-9.713-21.38-6.428-3.907 1.996-6.796 5.366-8.17 9.557-1.358 4.191-1.019 8.623.85 12.601 3.795 7.447 13.494 10.293 21.323 6.301l.057-.184zm80.832-13.508c-3.78 1.926-6.669 5.31-8.099 9.373-1.43 4.064-1.076 8.495.85 12.276.835 1.642 1.854 3.03 3.256 4.219s2.931 2.01 4.701 2.69c1.713.552 3.554.736 5.267.666 1.84-.142 3.483-.666 5.111-1.487 3.78-1.926 6.669-5.31 8.099-9.373 1.43-4.064 1.076-8.495-.722-12.346-.836-1.643-1.926-3.158-3.2-4.404-1.402-1.189-2.988-2.138-4.701-2.69s-3.554-.736-5.38-.594c-1.827.141-3.611.722-5.239 1.557l.071.127zM226.103 188.47c0-.991.141-1.84.141-2.832.425-31.29.991-62.439 1.416-93.73 0-4.813 1.557-6.796 5.38-7.645 4.531-.85 7.08.708 8.354 5.239 2.973 9.91 8.92 17.132 19.114 19.822 13.309 3.539 19.964 12.742 22.371 25.627.991 5.38 1.133 10.902 1.699 16.424v1.982c-.425 3.398-2.407 5.38-5.38 5.522-2.974.141-5.098-1.699-5.522-5.239-.567-4.672-.567-9.486-1.416-14.159-.567-3.398-1.558-6.654-2.69-9.911-.708-1.982-1.982-3.822-3.54-5.238-1.557-1.416-3.398-2.549-5.522-3.115-1.416-.425-2.973-.991-4.389-1.416-5.522-1.699-10.619-4.672-14.725-8.92-.85-.849-1.699-1.557-2.832-2.69 0 1.416-.283 2.407-.283 3.256-.283 21.946-.566 43.892-.991 65.979 0 8.92-.142 17.699-.85 26.619-.424 5.097-1.415 10.194-3.256 15.008a24.4 24.4 0 0 1-10.761 12.742c-4.955 2.974-10.619 4.106-16.282 3.257-5.664-.991-10.902-3.823-14.725-8.212s-5.947-9.911-6.088-15.716c-.425-12.601 8.212-25.061 22.37-26.618 5.381-.567 11.044 0 15.858 3.256.566.283 1.133.708 1.699.991.142 0 .283-.141.708-.141zm-16 35.397c2.832 0 5.664-.708 7.929-2.407 2.407-1.558 4.106-3.965 5.097-6.655 2.124-5.663 1.558-11.185-2.69-15.716-2.265-2.407-5.097-4.389-8.354-4.247-2.265 0-4.53.424-6.513 1.415-2.123.992-3.822 2.407-5.238 4.106-3.823 4.814-4.673 10.195-2.124 15.858.991 2.407 2.549 4.389 4.672 5.663 2.124 1.416 4.673 1.983 7.221 1.841zM187.592 54.53c1.699-8.778 3.256-17.556 4.814-26.193 1.274-6.655 2.407-13.45 3.822-20.105.425-1.841 1.133-3.682 2.266-5.24.708-1.273 1.982-2.264 3.398-2.69 1.416-.424 2.973-.424 4.389.142 9.203 2.974 18.406 5.805 27.468 8.637 5.522 1.7 9.061 5.097 10.053 10.902.991 4.956 2.123 9.77 3.115 14.725.141 1.133.283 2.265.141 3.398q0 1.911-1.274 3.398c-.708.991-1.841 1.558-3.115 1.983-1.133.283-2.407 0-3.54-.425a5.56 5.56 0 0 1-2.548-2.549c-.567-1.133-.85-2.407-.991-3.681-.85-4.672-1.558-9.345-2.549-13.876q-.213-.849-.85-1.698c-.424-.425-.849-.85-1.415-1.133-7.929-2.69-15.858-5.097-24.07-7.787a2074 2074 0 0 0-2.69 14.017c-2.69 14.158-5.522 28.175-8.212 42.334l-1.275 6.796c-.707 4.672-2.973 9.061-6.229 12.601a23.6 23.6 0 0 1-12.319 6.796c-12.034 2.549-24.211-5.522-26.759-17.981-.991-3.965-.708-8.07.566-12.035 1.274-3.823 3.681-7.363 6.796-9.911 6.513-5.805 14.159-7.504 22.512-3.965 2.549 1.133 5.098 2.124 8.354 3.398zm-4.106 17.84c0-6.371-4.814-12.035-10.336-12.176-7.363-.142-13.168 5.238-13.168 12.176 0 1.557.283 3.115.85 4.53q.85 2.124 2.548 3.823 1.7 1.7 3.823 2.549c1.416.566 2.973.85 4.531.85s3.115-.284 4.531-.85q2.124-.85 3.822-2.549 1.7-1.698 2.549-3.822c.566-1.416.85-2.974.85-4.531"/></svg>