<svg xmlns="http://www.w3.org/2000/svg" width="298" height="153" fill="none" viewBox="0 0 298 153"><path fill="#102185" d="M236.427 22.342c5.381-.382 10.251-.68 15.122-.99 9.5-.425 19.058-.652 28.615-1.204 4.488-.17 7.235 1.94 9.118 5.847 5.38 10.96 8.24 22.895 8.566 35.17.156 8.099-.765 16.155-2.832 23.97-1.331 5.65-3.101 11.243-5.508 16.524-1.359 2.803-2.209 5.847-3.639 8.467-3.157 6.173-6.767 11.978-10.633 17.655-2.747 4.021-5.677 7.788-8.99 11.37-.694.764-1.501 1.472-2.506 1.925-1.006.454-2.082.723-3.03.737-4.998.24-9.94.679-14.938.92-22.965 1.274-45.888 2.407-68.853 3.681-17.6.892-35.128 1.657-52.784 2.676-22.271 1.133-44.557 2.265-67.027 3.469-3.228.17-6.386.51-9.387-1.105-1.402-.679-3.172-.594-4.885-.962-5.706-1.204-10.123-4.446-14.47-8.127-6.584-5.876-11.922-13.04-15.744-21.04C5.23 106.402.997 90.176.19 73.724-.518 61.576.742 49.272 4.098 37.52a25.94 25.94 0 0 1 6.145-10.703c3.186-3.328 6.584-6.4 10.222-9.36 1.317-.778 2.832-1.302 4.29-1.373 6.952-.708 13.975-1.232 20.998-1.755 13.28-1.105 26.505-2.068 39.8-3.172 13.606-1.104 27.326-2.138 40.932-3.242l68.967-5.522L225.695.085c.637 0 1.133-.07 1.77-.085 3.299.028 4.828 1.402 5.366 4.503 1.076 5.876 2.223 11.624 3.37 17.698l.255.127zm43.397 6.938c-4.814.184-8.991.354-13.352.595-7.915.41-15.815.807-23.857 1.472-13.862.977-27.78 2.081-41.627 3.059l-45.237 3.355c-12.587.963-25.174 1.926-37.704 2.761-12.969.779-25.882 1.43-38.78 3.03-2.153.212-4.234.623-6.641 1.02 1.36 2.08 2.633 3.638 3.667 5.408 3.554 6.286 5.72 13.168 6.683 20.247 1.458 11.893.906 24.055-1.812 35.793-1.147 5.578-3.229 11.185-4.942 16.65l-.623 1.274c-.495 1.02-1.302 2.039-1.925 3.002l-6.33 11.086c-.551 1.147-1.5 2.11-2.491 3.511 2.025.354 4.12.581 6.272.694 8.538-.41 17.146-.948 25.698-1.359 12.403-.58 25.004-1.232 37.407-1.812 23.674-1.091 47.276-2.365 70.949-3.455l47.842-2.251c2.407-.085 4.871-.311 7.151-.453.991-1.402 1.741-2.62 2.619-3.766 4.998-6.386 9.6-13.281 13.451-20.545 2.166-4.46 4.389-9.047 6.173-13.677a98.5 98.5 0 0 0 5.791-25.513 72.1 72.1 0 0 0-4.744-33.316c-.849-2.138-2.01-4.29-3.114-6.555l-.51-.24zm-56.89-19c-1.586.013-2.846.028-4.177.17a6701 6701 0 0 0-49.47 3.978 5784 5784 0 0 1-59.027 4.516c-19.738 1.43-39.418 3.03-58.971 4.715-7.533.595-14.938 1.246-22.456 1.84-1.26 0-2.59.468-3.667 1.048-3.327 1.997-6.088 4.758-8.268 7.943-2.18 3.186-3.78 6.825-4.503 10.563a104.3 104.3 0 0 0-2.18 31.05c1.033 13.733 4.672 27.297 10.76 39.714 4.149 8.623 9.486 16.424 17.727 21.833 3.511 2.492 7.773 3.78 11.95 3.596 5.394-4.304 9.826-9.868 12.87-16.098-.949 0-1.26 0-1.77.085-5.125.495-10.25 1.005-15.249 1.557-1.713.269-3.61-.028-5.196-.948-.637-.312-1.09-.68-1.53-1.374-.382-.495-.65-1.26-.65-1.897-.142-.694.042-1.387.17-1.968.311-.637.623-1.274 1.118-1.657 1.19-1.146 2.832-1.925 4.418-1.953l23.333-2.351c2.846-6.485 4.276-13.663 4.134-20.813l-.51-.24-16.324 1.514c-4.432.369-8.736.793-13.154 1.161-2.28.156-4.559 0-5.975-2.28-1.925-2.83-3.355-6.045-4.417-9.386-1.19-4.361-1.812-8.906-1.67-13.409-.072-.82-.213-1.515-.34-2.208-1.898.34-3.597.609-5.183.623-.948 0-1.897-.297-2.605-.793-.835-.566-1.402-1.317-1.741-2.266-1.176-2.775.51-5.578 3.794-6.498 2.591-.793 5.31-1.204 8.028-1.614l.311-.638.496-1.019c1.572-6.159 5.564-11.454 11.1-14.753 5.791-3.483 12.29-5.834 18.987-6.669 2.082-.396 4.177-.496 6.33-.708 10.307-1.133 20.557-2.45 30.808-3.129 18.279-1.345 36.572-2.378 54.865-3.71 22.654-1.585 45.308-3.171 68.018-4.87.949 0 1.841-.212 3.03-.41l-3.313-12.63.128.382zM43.941 86.678l29.86-2.803c.028-2.662.07-4.998-.014-7.405-.085-2.407-.552-4.687-.835-7.023-2.153-.1-4.05-.085-5.834-.311-1.33-.17-2.605-.482-3.752-1.034a3.87 3.87 0 0 1-1.925-2.195c-.326-.948-.27-2.025.028-2.973.495-1.02.934-1.911 1.869-2.548.934-.638 1.883-.977 3.03-1.048 1.133-.07 2.223-.029 3.993-.114-1.232-2.336-2.592-4.714-4.064-6.852a11.94 11.94 0 0 0-6.499-4.106c-2.534-.609-5.196-.326-7.589.722-2.648 1.232-4.899 2.973-6.782 5.21a17.1 17.1 0 0 0-3.71 7.646c-1.77 6.23-1.953 12.743-.552 18.944.213 2.152 1.246 4.233 2.79 5.918z"/><path fill="#102185" d="M103.676 116.667c-.892-.439-1.6-.935-2.167-1.685-.58-.751-.778-1.642-.792-2.591-.071-.821.17-1.642.538-2.407.368-.764 1.118-1.345 1.883-1.6 1.26-.651 2.647-.92 4.106-.991 14.994-.736 30.129-1.416 45.251-2.095l64.804-3.129c11.964-.638 23.985-1.091 35.892-1.6 1.26 0 2.535.283 3.809.906.764.368 1.529 1.062 1.925 1.883.383.821.595 1.699.284 2.662-.114.892-.354 1.713-.921 2.548-.495.708-1.246 1.274-2.138 1.487-1.076.269-2.081.396-3.1.538-10.945.495-21.776 1.062-32.721 1.571-22.272 1.133-44.614 2.082-67.027 3.158-13.55.651-27.086 1.316-40.565 1.84-1.897.029-3.794.355-5.635.255-1.203-.113-2.279-.169-3.426-.41zM110.005 133.43c-.765-.368-1.345-1.118-1.798-1.812s-.652-1.571-.666-2.52c-.071-.821.043-1.713.411-2.478.368-.764.991-1.402 1.755-1.671 1.388-.58 2.959-.92 4.418-1.005 14.739-.864 29.492-1.727 44.175-2.464 17.146-.948 34.363-2.024 51.58-3.114l28.473-1.586c.311 0 .637 0 1.133-.071 3.299.028 5.72 1.841 5.876 4.432.155 2.591-2.167 5.083-5.452 5.38-1.84.212-3.737.227-5.691.382-12.148.708-24.24 1.289-36.261 2.053l-52.967 3.058c-10.067.623-20.19 1.048-30.243 1.671-1.388-.042-3.044-.212-4.559-.325zM250.275 89.057c-.311.637-.68 1.09-1.189 1.473a4.5 4.5 0 0 1-1.827.849c-1.076.269-2.081.396-3.228.481-14.244.482-28.544 1.076-42.787 1.558-15.249.608-30.64 1.16-45.889 1.784a13.4 13.4 0 0 1-4.941-.51c-.949-.311-1.784-.863-2.492-1.685-.51-.878-.849-1.826-.793-2.902a5.9 5.9 0 0 1 1.359-2.804c.68-.764 1.699-1.217 2.775-1.486a23 23 0 0 1 3.611-.298l55.134-2.01c11.072-.44 22.087-.75 33.046-1.26 1.133-.071 2.35.042 3.554.155a5.5 5.5 0 0 1 1.911.935c.581.439 1.091 1.005 1.416 1.628.326.623.453 1.331.524 2.152-.057.765-.113 1.515-.425 2.152l.255-.198zM130.875 74.63c-2.293-1.119-3.639-3.186-3.214-4.715.354-1.713.977-3.625 3.058-4.021 1.643-.467 3.158-.666 4.8-.807 10.69-.623 21.394-1.246 31.956-1.94l37.407-2.124c1.006-.141 2.096-.085 3.172-.028 1.26 0 2.279.481 3.186 1.232.892.75 1.416 1.954 1.486 3.087.071 1.132-.354 2.35-.977 3.298-.75.892-1.826 1.473-3.015 1.685-1.714.27-3.356.41-4.998.567-13.989.92-28.035 1.642-41.952 2.435-9.048.481-18.039 1.147-27.086 1.628-1.26 0-2.591-.156-3.809-.269zM260.611 44.812c1.019.495 2.038 1.302 2.619 2.378.58 1.076.779 2.266.864 3.412-.114.892-.553 1.784-1.232 2.549-.623.637-1.501 1.16-2.521 1.288-.382.128-.877.199-1.387.27-3.795.353-7.773.778-11.582 1.146-.694.142-1.458.085-2.095.085-1.26 0-2.28-.481-3.313-1.288-.892-.75-1.416-1.954-1.487-3.087-.198-1.203.042-2.35.793-3.242.623-.963 1.699-1.543 2.761-1.798 4.998-.878 10.052-1.246 15.234-1.883.51-.071 1.077.056 1.643.17h-.312z"/></svg>