<svg xmlns="http://www.w3.org/2000/svg" width="81" height="81" fill="none" viewBox="0 0 81 81"><path fill="#3558a2" d="M52.13 17.723a456 456 0 0 0 4.638-.027c.372 0 .743.003 1.085.018.206.01.408.086.596.203.16.129.276.313.335.522.184.557.27 1.125.301 1.718-.095 5.637-.23 11.259-.366 16.88-.215 9.87-.442 19.71-.63 29.564.013.4.077.775.172 1.134.166.667-.006 1.113-.645 1.334-.252.114-.541.142-.818.132-7.812-.061-15.65-.11-23.475-.2-1.35 0-2.668-.015-4.002-.055-.578-.009-1.152-.089-1.74-.196-.697-.126-.946-.385-1.01-1.128-.167-1.645-.32-3.261-.486-4.903-1.214-13.572-2.44-27.172-3.658-40.748-.076-.775-.129-1.561-.206-2.333-.067-.676.133-1.205.83-1.45l.083-.037c.836-.916 2.047-.92 3.108-1.26 2.296-.661 4.619-1.267 6.93-1.903 2.533-.667 5.062-1.33 7.583-2.025 2.197-.584 4.41-1.208 6.608-1.792.335-.083.654-.194.959-.265.28-.126.608-.07.891.037s.523.338.648.618l.342.756c.627 1.773 1.26 3.476 1.9 5.277l.02.126zM24.382 20.02c1.417 15.672 2.81 31.288 4.217 46.797.206.01.286.04.424.046l26.57.188c.056-.025.127-.022.154-.034l.083-.037c.056-.024.07-.064.114-.12l1.005-47.021-32.542.169-.028.012zm23.875-6.79-16.47 4.439.06.141c-.027.013 17.984-.098 17.984-.098-.517-1.521-1.033-2.972-1.55-4.493l-.027.012z"/><path fill="#3558a2" d="M29.764 23.296a4 4 0 0 1 .897-.102c4.211-.006 8.419-.01 12.602 0 .907-.003 1.318.384 1.334 1.322.04 1.666.055 3.344.055 4.994.03 3.894.065 7.788.095 11.683.007.166.016.332-.006.51-.086 1.082-.7 1.662-1.749 1.73-1.515.074-3.006.138-4.52.212-1.943.098-3.901.17-5.844.267-.331.016-.66.028-1.005.013-1.168-.05-1.62-.452-1.665-1.61-.108-1.737-.203-3.45-.308-5.186-.224-3.875-.464-7.779-.7-11.682-.016-.261-.019-.566-.034-.827-.031-.289.049-.562.212-.802.16-.24.375-.44.639-.523zm4.684 8.845-.277-.618a3.4 3.4 0 0 1-.282-1.457c.009-.51.122-.998.322-1.46.185-.488.52-.94.907-1.284a3 3 0 0 1 1.417-.67 3.05 3.05 0 0 1 1.564.104c.517.172.944.452 1.328.852 1.057 1.075 1.294 2.35.931 3.792-.064.23-.129.461-.19.624l2.391 1.42-.052-8.065-11.418.01c.178 3.02.372 5.999.538 8.993l2.827-2.182v-.068zm-2.391 9.599c.36-.028.731-.025 1.072-.01.206.01.428-.024.584-.126a.77.77 0 0 0 .403-.451c.563-.926 1.217-1.792 1.816-2.705l3.046-4.469c-.203-.077-.393-.126-.584-.175a5.7 5.7 0 0 0-2.695.301 6.4 6.4 0 0 0-3.347 3.123c-.178.35-.455.71-.443 1.042-.021 1.155.102 2.246.172 3.46l-.027.013zm4.367-.176 6.037-.288c.058-.096.073-.136.073-.136-.003-.906.022-1.828.016-2.735q0-1.35-.713-2.41c-.302-.369-.59-.713-.935-1.03l-4.508 6.612.027-.013zm-.329-11.006c.354.784.781 1.064 1.362 1.005.443-.064.82-.571.86-1.162.01-.206.004-.44-.055-.648-.058-.277-.227-.504-.44-.68a1.25 1.25 0 0 0-.743-.304c-.289.031-.529.173-.756.342-.203.224-.295.47-.335.756.003.233.009.467.04.688h.067zM50.7 52.334c.062.141.127.28.093.43a1.1 1.1 0 0 1-.074.437c-.074.135-.147.27-.276.36-.13.092-.255.18-.382.205a4 4 0 0 1-.897.102c-5.456.16-10.92.292-16.376.451a9 9 0 0 1-.839.007c-.138-.007-.273-.013-.409-.087a1.2 1.2 0 0 1-.334-.22c-.108-.087-.17-.228-.222-.339-.052-.11-.114-.252-.08-.402.006-.139.012-.274.086-.41.046-.122.132-.227.222-.334.089-.108.2-.157.338-.221a.95.95 0 0 1 .402-.08c.581-.059 1.187-.062 1.752-.08 5.096-.133 10.192-.268 15.276-.43.3 0 .605 0 .922.024.178.021.34.083.476.157a.9.9 0 0 1 .341.384l-.015.04zM50.105 49.804c-.234.003-.609.071-.941.086l-10.438.243c-2.065.052-4.103.092-6.18.117-.302 0-.606 0-.935-.052a.9.9 0 0 1-.55-.326c-.144-.172-.246-.397-.237-.602a.85.85 0 0 1 .176-.584.85.85 0 0 1 .51-.363c.252-.114.54-.142.817-.132 5.603-.126 11.237-.265 16.852-.363.332-.015.658.04.987.095.19.05.366.139.483.323.132.145.19.35.212.544a1.03 1.03 0 0 1-.219.636 1.2 1.2 0 0 1-.513.434zM32.708 61.936c.221-.031.47-.077.704-.08 1.512-.007 3.067 0 4.594.024 1.43.031 2.831.077 4.26.108l.412.018c.246.025.492.117.676.305q.278.28.302.673c.015.26-.077.507-.222.707-.144.2-.384.34-.624.414a2 2 0 0 1-.648.056c-1.045 0-2.062-.016-3.08-.031-1.868-.037-3.737-.07-5.581-.12-.274-.012-.55-.021-.82-.101-.22-.037-.379-.166-.523-.338a1.04 1.04 0 0 1-.225-.575c-.037-.455.215-.873.787-1.094l-.015.04zM43.217 58.997c.05.111.102.225.096.363a.75.75 0 0 1-.031.384c-.046.123-.092.243-.194.323a.8.8 0 0 1-.298.237 1.8 1.8 0 0 1-.805.16q-4.339.13-8.677.26a2.8 2.8 0 0 1-.756-.03.9.9 0 0 1-.562-.354.93.93 0 0 1-.237-.602 1.1 1.1 0 0 1 .206-.667c.144-.203.357-.329.566-.39a2.6 2.6 0 0 1 .731-.092c2.714-.108 5.443-.188 8.17-.268.3 0 .617.025.906.065q.267.032.489.184a1 1 0 0 1 .326.427h.07M53.5 60.81c-.221.031-.47.078-.704.08-1.804.038-3.636.084-5.44.12a2.3 2.3 0 0 1-.74-.07 1.1 1.1 0 0 1-.51-.31 1.04 1.04 0 0 1-.253-.56.98.98 0 0 1 .15-.64.93.93 0 0 1 .526-.405c.253-.114.541-.141.806-.16 1.804-.037 3.636-.083 5.44-.12.261-.015.51.006.74.071a.95.95 0 0 1 .538.298c.145.172.234.366.253.56.036.454-.188.857-.775 1.124l-.028.013zM54.309 25.945c.049.11.113.252.107.39a1.3 1.3 0 0 1-.058.397 1.2 1.2 0 0 1-.221.335c-.099.08-.2.156-.339.221-.28.126-.599.169-.9.169-1.457-.018-2.886-.05-4.343-.07-.234.002-.492-.05-.753-.099a.95.95 0 0 1-.56-.421 1 1 0 0 1-.193-.655c.025-.246.13-.46.289-.636a.92.92 0 0 1 .633-.317l.083-.036c1.773.046 3.562.049 5.333.095.206.01.38.098.556.187.16.13.264.286.338.455l.028-.012zM54.115 30.918c.062.141.126.28.105.458a.84.84 0 0 1-.102.448c-.073.133-.19.256-.316.345l-.421.187a2.5 2.5 0 0 1-.732.025c-1.334-.04-2.677-.11-3.983-.163-.234.003-.492-.05-.74-.07-.25-.022-.477-.158-.662-.345-.156-.2-.258-.424-.245-.698.012-.273.116-.492.288-.704q.282-.277.674-.3c.083-.038.22-.031.32-.044 1.619.08 3.226.132 4.819.228a1.07 1.07 0 0 1 .611.163c.188.116.332.288.421.485l-.04-.015zM53.145 37.452c-.222.03-.455.037-.661.028q-2.244-.156-4.484-.31a1.8 1.8 0 0 1-.56-.12 1.1 1.1 0 0 1-.52-.406 1.08 1.08 0 0 1-.165-.667c.037-.218.101-.449.273-.593.16-.172.385-.274.606-.305.249-.046.495-.021.744.003 1.358.099 2.704.166 4.072.292.317.028.615.096.873.215.175.09.335.222.44.376.076.169.162.365.113.556a1 1 0 0 1-.215.568c-.13.16-.301.305-.498.394l-.012-.028z"/></svg>