<svg xmlns="http://www.w3.org/2000/svg" width="300" height="300" fill="none" viewBox="0 0 300 300"><path fill="#3558a2" d="M60.495 123.457c-.85-2.67-1.67-5.24-2.47-7.82-1-3.24-.36-4.61 2.82-6 2.9-1.25 5.82-2.45 9-3.77-1-2.94-1.8-5.78-2.87-8.53-1.29-3.34-.66-5 2.84-6.2 9.63-3.26 19.27-6.46 28.91-9.68l60.659-20.26c3.56-1.19 5.06-.51 6.5 3.11q5.16 12.86 10.281 25.74c.17.42.399.81.789 1.62.6-1 1.07-1.8 1.52-2.6q12.71-22.821 25.421-45.63c2.65-4.75 5.859-5.64 10.569-2.89q18.68 10.92 37.34 21.89c2.15 1.26 2.67 2.71 1.78 5a17 17 0 0 1-1.1 2.19q-20.43 36.91-40.88 73.82a74 74 0 0 1-5.23 8.26c-.92 1.24-2.52 2-4.05 3.08 1.31 4.31 2.65 8.79 4 13.27s2.57 8.69 4 13a8 8 0 0 1-.61 6.56 6.32 6.32 0 0 1-3 2.45c-2.75 1.15-5.63 2-8.45 3-.59.21-1.16.46-1.92.77.76 3.32 1.49 6.56 2.24 9.8 1 4.36.27 5.85-4 7.45-2.72 1-5.5 1.84-8.25 2.77q-.698.304-1.35.7c1 3.17 2 6.26 2.87 9.37a10.4 10.4 0 0 1 .6 3.45c-.17 2.25-2 3.12-3.83 3.76-6.08 2.09-12.18 4.12-18.28 6.19l-68.46 23.18c-.78.27-1.55.53-2.34.74-2.72.73-3.58.22-5.3-1.94a20.3 20.3 0 0 1-3.12-6.54 155900 155900 0 0 0-38.66-115.17 43 43 0 0 1-1.23-4.4c-.7-3.24.11-4.73 3.21-5.92 2.8-1.07 5.62-2 8.43-3.07.45-.22.93-.45 1.62-.75m100.739-3.44c3.49-6.25 6.89-12.45 10.411-18.59a3.42 3.42 0 0 0 0-3.31q-5.42-13.5-10.801-27c-.32-.8-.74-1.56-1.13-2.37l-85.2 28.45c13.17 39.16 26.21 77.92 39.34 117l89.7-30.59c-2.71-8.85-5.29-17.3-7.93-25.91l-9.82 4.69c-5.39 2.59-10.75 5.25-16.19 7.75-3.73 1.72-7 0-7.52-3.83-.66-4.39-1.16-8.81-1.74-13.21-.59-4.57-1.2-9.14-1.79-13.62-7.1-1.73-10.33-5.63-9.71-11.5.57-5.37 4.38-7.84 12.38-7.96m-106.74 13.48c1.52 4.42 3 8.6 4.4 12.79q17.22 51.1 34.43 102.22c.59 1.75 1.32 3.46 2 5.25l85.29-28.86c-.92-3-1.729-5.51-2.569-8.2-1.2.35-2.161.6-3.101.91-13.43 4.43-26.81 9-40.3 13.27-10.17 3.22-19.999 7.5-30.609 9.42-2.83.51-4.56-.17-5.72-2.77a54 54 0 0 1-1.84-5.11q-16.32-49.41-32.63-98.82c-.33-1-.73-2-1.14-3.11zm10.91-18c1.73 5.19 3.38 10.07 5 15a518731 518731 0 0 1 33.08 100.09c.87 2.64 1 2.7 3.4 1.91q41.22-13.63 82.43-27.27c.67-.22 1.3-.56 2-.87l-2-8.13c-1.16.32-2 .52-2.86.81a13447 13447 0 0 0-37.28 12.74c-12.06 4.17-24.089 8.43-36.139 12.64a3.503 3.503 0 0 1-4.421-1.67 16 16 0 0 1-1.13-2.76q-5.21-15.45-10.38-30.9-12-35.77-24.05-71.56c-.3-.9-.7-1.76-1.1-2.74zm157.08-61.85-43.079 78.55 9.419 5.15c14.43-26.05 28.751-51.89 43.191-78zm15.44 9.1c-14.3 26.13-28.46 52-42.7 78l7.37 4c14.39-26 28.631-51.74 42.941-77.58zm-64.94 65.89 43.34-78.58c-2-1.16-3.859-2.29-5.929-3.53-14.68 26.37-29.18 52.44-43.74 78.61zm-7.41 4.15-.52.43c.6 4.48 1.18 9 1.84 13.43.134.507.46.941.91 1.21a960 960 0 0 0 12.5 7.71 2.605 2.605 0 0 0 2 .37c4.42-2 8.78-4.18 13.64-6.52z"/><path fill="#fff" d="M161.236 120.017c-8.06.12-11.83 2.59-12.4 8-.62 5.87 2.61 9.77 9.71 11.5.59 4.48 1.2 9.05 1.79 13.62.58 4.4 1.08 8.82 1.74 13.21.57 3.88 3.79 5.55 7.52 3.83 5.44-2.5 10.8-5.16 16.19-7.75l9.82-4.69c2.64 8.61 5.22 17.06 7.93 25.91l-89.68 30.55c-13.13-39.06-26.17-77.82-39.34-117l85.23-28.47c.39.81.81 1.57 1.13 2.37q5.4 13.49 10.8 27a3.42 3.42 0 0 1 0 3.31c-3.53 6.16-6.93 12.36-10.44 18.61m-36.87 26.74c-.22-7.08-4.67-10.56-11.12-10.82-5.25-.21-9.55 4.55-9.58 10.14a11 11 0 0 0 10.61 11 10 10 0 0 0 7.258-3.002 10 10 0 0 0 2.852-7.318zm2.56-9.23a10.125 10.125 0 0 0 10.31 10.34 10.604 10.604 0 0 0 10.37-10.44 10.331 10.331 0 0 0-20.65.1zm19.81-41.46c-5.07.07-9.17 4.58-9 10 .12 5.94 5 11.14 10.5 11.13a9.65 9.65 0 0 0 9.067-6.117 9.6 9.6 0 0 0 .663-3.793c-.22-6-3.96-11.09-11.21-11.22zm-25 76.77c.9 2.61 1.76 5.14 2.64 7.67a23 23 0 0 0 1.26 3.28 3.466 3.466 0 0 0 4.11 1.82 3.34 3.34 0 0 0 2.38-3.79 11 11 0 0 0-.57-2.36q-1.24-3.87-2.56-7.72c-.75-2.22-1.42-4.48-2.37-6.62-1.21-2.69-4.19-3.58-6.25-1.62-3.47 3.3-6.69 6.87-9.82 10.5a3.229 3.229 0 0 0 .41 4.65 3.43 3.43 0 0 0 4.49.13 16 16 0 0 0 1.77-1.67zm-18.27-51.25c.62 1.86 1 3.25 1.54 4.6a26.5 26.5 0 0 0 1.83 4.19 3 3 0 0 0 1.676 1.342 3 3 0 0 0 2.144-.122 3.064 3.064 0 0 0 2.25-3.06 7.3 7.3 0 0 0-.21-2.15c-1.29-4.06-2.52-8.14-4-12.14s-5.15-4.63-7.88-1.12c-2.57 3.29-5 6.66-7.51 10-.33.431-.606.901-.82 1.4a3.448 3.448 0 0 0 3.11 4.94 3.45 3.45 0 0 0 2.15-.75 11 11 0 0 0 1.83-2c1.26-1.52 2.43-3.15 3.91-5.13zm41.27 41.23c.4 1.36.67 2.29 1 3.22.76 2.51 1.4 5.07 2.33 7.52a3.36 3.36 0 0 0 4 2 3.51 3.51 0 0 0 2.52-3.74 4 4 0 0 0-.17-1.07c-1.53-4.92-2.89-9.9-4.68-14.72-1.22-3.3-4.08-3.83-6.75-1.5s-5.07 4.68-7.49 7.13c-1.73 1.76-1.82 3.93-.44 5.35s3.4 1.4 5.36-.23c1.36-1.11 2.64-2.39 4.34-3.96zm-20.5-51.11 1.2 3.3c.62 1.7 1.11 3.47 1.89 5.09a3.467 3.467 0 0 0 4.33 1.88 3.63 3.63 0 0 0 2.21-4.19 4.5 4.5 0 0 0-.22-.79c-1.1-3.26-2.13-6.54-3.34-9.76a15 15 0 0 0-2.16-3.75c-1.47-1.91-3.84-2.33-5.48-.67-2.85 2.9-5.47 6-8 9.2a2.71 2.71 0 0 0 .11 3.76 5.28 5.28 0 0 0 3.28 1.42c.9 0 1.94-.86 2.7-1.57 1.17-1.1 2.17-2.43 3.48-3.92"/><path fill="#979fbb" d="m54.496 133.496 8.22-3c.41 1.12.81 2.11 1.14 3.11q16.32 49.41 32.63 98.82a54 54 0 0 0 1.84 5.11c1.16 2.6 2.89 3.28 5.72 2.77 10.58-1.92 20.44-6.2 30.61-9.42 13.49-4.27 26.87-8.84 40.3-13.27.94-.31 1.9-.56 3.1-.91.84 2.69 1.65 5.25 2.57 8.2l-85.29 28.86c-.69-1.79-1.42-3.5-2-5.25q-17.23-51.1-34.43-102.22c-1.42-4.2-2.89-8.38-4.41-12.8"/><path fill="#cbcfdd" d="m65.406 115.525 6.6-2.75c.4 1 .8 1.84 1.1 2.74q12 35.77 24.05 71.56l10.38 30.9c.289.954.668 1.878 1.13 2.76a3.5 3.5 0 0 0 4.42 1.67c12.05-4.21 24.08-8.47 36.14-12.64q18.62-6.44 37.28-12.74c.84-.29 1.7-.49 2.86-.81l2 8.13c-.72.31-1.35.65-2 .87q-41.2 13.65-82.43 27.27c-2.42.79-2.53.73-3.4-1.91q-16.55-50-33.08-100.09c-1.67-4.89-3.32-9.77-5.05-14.96"/><path fill="#fff" d="m222.486 53.678 9.53 5.66c-14.44 26.08-28.76 51.92-43.19 78l-9.42-5.15z"/><path fill="#cbcfdd" d="m237.925 62.775 7.61 4.49c-14.31 25.84-28.55 51.58-42.94 77.58l-7.37-4c14.24-26.07 28.4-51.94 42.7-78.07M172.986 128.667l-6.33-3.5c14.56-26.17 29.06-52.24 43.74-78.61 2.07 1.24 4 2.37 5.93 3.53z"/><path fill="#fff" d="m165.575 132.816 30.37 16.63c-4.86 2.34-9.22 4.49-13.64 6.52a2.6 2.6 0 0 1-2-.37 674 674 0 0 1-12.5-7.71 2 2 0 0 1-.91-1.21c-.66-4.47-1.24-9-1.84-13.43z"/><path fill="#3558a2" d="M124.386 146.755a10 10 0 0 1-2.86 7.286 10.002 10.002 0 0 1-7.23 2.994 11 11 0 0 1-10.61-11c0-5.59 4.33-10.35 9.58-10.14 6.45.3 10.9 3.78 11.12 10.86m-10.15 2.86a2.997 2.997 0 0 0 3-2.87c0-1.72-1.75-3.74-3.3-3.73a3.18 3.18 0 0 0-3 2.95 3.717 3.717 0 0 0 3.3 3.65M126.946 137.525a10.328 10.328 0 0 1 17.481-7.183 10.33 10.33 0 0 1 3.169 7.083 10.6 10.6 0 0 1-10.36 10.44 10.13 10.13 0 0 1-9.566-6.361 10.1 10.1 0 0 1-.724-3.979m13.27-.15a2.83 2.83 0 0 0-3-2.84 3.143 3.143 0 0 0-3.07 3.16 2.83 2.83 0 0 0 .902 2.041c.28.262.61.464.971.594.36.131.744.187 1.127.165a3 3 0 0 0 2.224-.887 3 3 0 0 0 .866-2.233zM146.754 96.066c7.25.17 11 5.22 11.18 11.17a9.647 9.647 0 0 1-5.916 9.215 9.7 9.7 0 0 1-3.784.746c-5.47 0-10.38-5.19-10.5-11.131-.15-5.42 3.95-9.93 9.02-10m3.84 11.14c.06-2-1.56-4-3.25-4-1.37 0-2.289 1.12-2.299 2.79a3.694 3.694 0 0 0 3.12 3.81c1.47.07 2.379-.9 2.429-2.61zM121.756 172.836l-4.51 4.27a15.5 15.5 0 0 1-1.77 1.67 3.43 3.43 0 0 1-4.49-.13 3.227 3.227 0 0 1-.41-4.65c3.13-3.63 6.35-7.2 9.82-10.5 2.06-2 5-1.07 6.25 1.62.95 2.14 1.62 4.4 2.37 6.62q1.32 3.86 2.56 7.72c.278.763.469 1.554.57 2.36a3.34 3.34 0 0 1-2.38 3.79 3.47 3.47 0 0 1-4.11-1.82 23 23 0 0 1-1.26-3.28c-.88-2.53-1.74-5.06-2.64-7.67M103.486 121.586c-1.48 2-2.65 3.59-3.87 5.15a10.8 10.8 0 0 1-1.83 2 3.446 3.446 0 0 1-4.298 0 3.45 3.45 0 0 1-.962-4.19c.215-.498.49-.969.82-1.4 2.49-3.35 4.94-6.72 7.51-10 2.73-3.51 6.36-3 7.88 1.12s2.69 8.08 4 12.14c.176.703.247 1.427.21 2.15a3.056 3.056 0 0 1-2.25 3.06 2.998 2.998 0 0 1-3.82-1.22 26.6 26.6 0 0 1-1.83-4.19c-.54-1.37-.94-2.76-1.56-4.62M144.755 162.816c-1.7 1.57-3 2.85-4.36 4-2 1.63-4 1.67-5.36.23s-1.29-3.59.44-5.35c2.42-2.45 4.9-4.86 7.49-7.13s5.53-1.8 6.75 1.5c1.79 4.82 3.15 9.8 4.68 14.72.106.347.163.707.169 1.07a3.51 3.51 0 0 1-2.519 3.74 3.36 3.36 0 0 1-4-2c-.93-2.45-1.57-5-2.33-7.52-.29-.97-.56-1.88-.96-3.26M124.235 111.708c-1.35 1.52-2.35 2.82-3.53 3.92-.76.71-1.8 1.58-2.7 1.57a5.3 5.3 0 0 1-3.28-1.42 2.71 2.71 0 0 1-.11-3.76c2.58-3.15 5.2-6.3 8-9.2 1.64-1.66 4-1.24 5.48.67a15 15 0 0 1 2.16 3.75c1.21 3.22 2.24 6.5 3.34 9.76q.147.384.22.79a3.632 3.632 0 0 1-2.21 4.19 3.47 3.47 0 0 1-4.33-1.88c-.78-1.62-1.27-3.39-1.89-5.09z"/><path fill="#fff" d="M114.236 149.618a3.72 3.72 0 0 1-3.33-3.65 3.18 3.18 0 0 1 3-2.95c1.55 0 3.34 2 3.3 3.73a3 3 0 0 1-2.97 2.87M140.234 137.377c.017.404-.049.807-.193 1.185a3.001 3.001 0 0 1-2.807 1.935 2.84 2.84 0 0 1-3-2.8 3.144 3.144 0 0 1 3.07-3.16 2.837 2.837 0 0 1 2.709 1.73c.148.351.223.729.221 1.11M150.596 107.196c0 1.7-1 2.67-2.43 2.59a3.703 3.703 0 0 1-3.12-3.81c0-1.67.93-2.78 2.3-2.79 1.69.01 3.31 2.01 3.25 4.01"/></svg>