<svg xmlns="http://www.w3.org/2000/svg" width="385" height="318" fill="none" viewBox="0 0 385 318"><path fill="#102185" d="m186.894 88.691.269-3.809c.608-24.225 1.203-48.323 1.67-72.42.156-2.266.057-4.687.354-6.924.312-4.375 3.752-6.683 7.887-4.97a26.3 26.3 0 0 1 6.796 4.177 57.6 57.6 0 0 1 13.068 15.56c4.927 8.453 11.78 15.759 20.063 21.04 5.564 3.525 7.632 8.354 7.178 14.71-.339 4.659-.382 9.204-.707 13.862-.439 6.074-3.314 8.566-9.543 8.396-9.487-.255-17.77-3.554-25.486-8.792-2.166-1.43-4.191-3.002-6.201-4.56-1.076-.792-2.308-1.444-4.22-2.435-.212 8.934-.396 17.288-.566 25.655 1.416.1 2.393.312 3.384.383 26.958 2.223 53.987 1.33 80.917 1.996 19.553.41 39.134.694 58.701.963 7.519.113 15.207-.184 22.739-.354 4.545-.1 8.949-.07 13.493-.028 1.275.085 2.549.184 3.795.552.821.34 1.656.694 2.322 1.302.665.61 1.175 1.36 1.557 2.096.368.878.581 1.741.524 2.59-.056.85-.127 1.842-.609 2.507-.651 1.232-1.458 2.449-2.237 3.525-4.913 7.165-9.967 14.329-15.036 21.493-.623.807-.963 1.629-1.317 2.605-.212.977-.142 1.983-.212 2.96.538 4.446.212 8.962.594 13.38 2.521 29.987 1.926 60.046 3.03 90.076.836 23.914 1.246 47.786 1.798 71.671.1 6.542-2.208 8.92-9.047 9.288-5.833.142-11.794.142-17.769.284l-78.255.467c-14.484.099-29.096.028-43.594.127-22.159.113-44.176.368-66.334.482-14.059.127-27.977.113-42.037.24l-67.452.397c-3.27.042-6.4.113-9.656.014-1.133-.085-2.265-.156-3.37-.524-1.401-.241-2.619-1.034-3.54-2.096a5.4 5.4 0 0 1-1.274-3.922c-.141-5.975-.566-11.822-.722-17.655-.835-29.733-1.826-59.325-2.675-89.058-.595-19.355-1.063-38.54-1.657-57.753-.128-6.116-.524-12.389-.935-18.519-.17-1.572-.778-2.903-1.684-4.234-6.032-8.948-12.205-17.769-18.52-26.604C.708 94.44-.964 92.047.665 89.045c1.486-2.874 4.545-4.078 7.801-3.837 5.933.425 11.865.85 17.67.992 11.044.368 22.102.594 33.16.82 13.89.298 27.793.44 41.697.595 22.541.34 44.954.68 67.494 1.034 5.112.085 10.223.028 15.461.113.992.07 1.855-.156 3.144-.198l-.156.127zm-41.74 219.02 13.281.948c3.667.269 4.757-.934 4.87-4.616.284-23.687.708-47.219.991-70.906.085-7.093.453-14.158.099-21.139a158.7 158.7 0 0 1 2.209-30.639c1.076-7.022 3.965-13.62 8.198-19.284 3.922-5.111 9.302-8.835 15.391-10.675a31.16 31.16 0 0 1 18.717.212c3.597 1.246 7.164 2.931 9.642 6.088 6.244 7.972 11.44 16.58 11.681 27.1l.977 39.672c.397 24.013.666 48.026 1.062 72.053.043 3.271.085 6.683.241 10.379 7.56-.595 14.895 2.208 22.611-.638a241145 241145 0 0 1-4.842-169.407c-2.096-.439-4.191-.864-6.315-1.02-10.194-.453-20.218-1.033-30.427-1.345-11.907-.283-23.829-.297-35.878-.594-6.371-.17-12.856-.921-19.213-1.246-3.951-.284-7.873-.991-11.738 1.288-.042.567-.226 1.26-.269 1.826-.679 54.752-1.359 109.489-2.024 164.24-.029 2.265.368 4.715.722 7.717zm226.992-207.098c-2.549-.184-4.234-.312-5.947-.142-5.692.156-11.256.609-16.934.623-10.647-.057-21.266-.396-32.041-.609-31.05-.538-62.256-.934-93.306-1.316-10.633-.199-21.294.028-31.941-.029-6.527-.042-13.026-.51-19.681-.708-27.227-.396-54.454-.793-81.823-1.203-16.735-.213-33.471-.425-50.192-.779-5.947-.141-12.035-.439-18.123-.736-2.818-.198-5.522-.255-8.637-.34.226.722.467 1.317.85 2.053 4.884 7.023 9.91 14.201 14.654 21.21.51.892 1.316 1.515 2.279 1.869.963.495 1.94.566 2.945.495 20.134.312 40.395.779 60.528 1.232 12.049.297 24.084.595 36.289.765 23.957.453 47.8.608 71.756 1.047 26.647.496 53.279 1.275 79.798 1.77 21.833.439 43.665.878 65.484 1.444 4.106.156 7.249-.184 8.708-4.629.17-.411.481-.822.793-1.218 3.95-5.536 7.759-11.228 11.709-16.764.793-1.218 1.444-2.308 2.577-4.219l.269.155zm-301.75 30.936c-.906 4.757 2.337 172.636 3.356 176.119l28.544-.212c.651-3.214 1.047-6.598 1.274-9.841-.609-28.996-1.359-58.007-1.954-87.16-.538-24.169-1.062-48.337-1.742-72.52 0-1.841-.297-3.71-.424-5.848l-28.926-.524h-.142zm230.064 4.503a66 66 0 0 0-.538 7.49c.467 21.181.921 42.362 1.388 63.558.835 31.856 1.515 63.699 2.35 95.556-.085 1.133.113 2.28.326 3.285 4.757.906 17.273.679 20.473-.51-.368-56.096-.566-112.462-.892-168.983l-23.107-.382zm-39.715 27.099c1.175 40.819 2.393 81.087 3.582 121.764l29.337-1.288a31083 31083 0 0 1-2.874-121.722zM62.524 288.129c.835-5.621-1.642-127.017-2.69-130.216l-26.661-.354c1.67 43.835 2.379 87.188 4.078 130.74zm72.45-.75c.552-43.255 1.203-85.801 1.6-128.773-9.104.34-17.854-.439-26.293.524-.666 5.21 2.435 125.941 3.356 128.857l21.478-.58h-.141zm198.83-3.285c4.545-.099 8.665-.085 12.785-.071a139 139 0 0 0 10.831-.495c3.144-.34 3.314-.751 3.271-4.021-.411-15.929-.835-31.857-1.246-47.786-.552-21.903-1.09-43.948-1.501-65.837.085-1.133-.127-2.138-.297-3.71-8.283.68-16.212.397-24.254 1.657.241 40.054.354 79.798.581 120.136l-.156.127zm-139.477 22.895c.835-7.604-.212-40.466-1.274-43.383a24.4 24.4 0 0 1-4.489-.75c-1.132-.085-2.209-.864-2.86-1.77s-.991-2.053-.892-3.327c.17-2.407 1.997-3.979 4.828-4.049 1.147-.057 2.422-.113 3.979-.142-.34-18.902-.722-37.237-1.062-56.153l-18.349.524c-.199 18.576-.227 36.756-.822 54.737-.679 23.234-.863 51.467.199 54.383l20.742-.212zm26.958-110.339-19.327.312c.467 19.058.963 37.832 1.331 56.45 6.641.482 8.425 1.317 8.637 4.319s-1.911 4.828-8.41 6.357c.269 14.074.524 28.289.877 42.929l18.463-.085c-.467-36.798-.991-73.03-1.444-110.112l-.127-.155zm-.85-9.868c.043-.567.227-1.26.269-1.826-.396-8.269-4.318-14.938-9.273-21.111-.921-1.062-2.138-1.855-3.37-2.52-3.285-1.657-6.782-2.336-10.492-2.181-3.568.312-7.065 1.473-10.053 3.54-8.792 5.89-11.17 15.093-12.204 25.528l45.109-1.572v.142zM199.75 14.67c-.198.836-.411 1.67-.468 2.52-.184 10.492-.523 21.11-.708 31.602-.127 1.7.822 2.478 2.181 3.285 4.361 2.591 8.693 5.451 13.054 8.042 3.526 2.237 7.363 4.22 11.072 5.904 2.747 1.331 5.692 1.685 8.58 1.19.142-3.965.001-7.802.27-11.625.226-3.1-1.062-4.899-3.512-6.498-8.665-5.735-15.914-13.493-21.379-22.413-1.77-2.974-3.838-5.82-6.06-8.524-1.048-1.217-2.096-2.42-3.158-3.497h.142zm60.938 121.778c-.948 3.342-.679 13.437.496 16.792 9.67-.297 19.341-.453 29.195-1.302-.042-5.253.297-10.053-.637-14.81-9.968-1.572-19.525-.977-29.039-.807v.141zm-200.16 11.851c-.142-5.975-.326-11.242-.369-16.495-5.026-1.076-24.324-1.331-27.524-.283l.382 16.353 27.652.425zm76.329-15.221-25.429-1.826c-.283-.014-.58.241-.892.51-.297.269-.467.538-.623.807-.014.283-.184.552-.212.977a71.2 71.2 0 0 0 .155 15.631c9.104-.198 17.869.297 26.718-.354.099-3.398.169-6.23.24-9.203.142-1.982 0-4.12-.113-6.4l.156-.127zm157.189 172.863-.382-12.375c-6.187-.736-26.293.382-29.082 1.742-.028 4.261-.325 8.495 1.359 12.587 9.487.254 18.732.071 28.105-1.954m39.347-152.191 24.084-1.246c-.028-5.536.326-10.477-1.444-15.433-7.632-.41-15.15-.524-22.824-.368 0 5.819.071 10.93.198 16.905v.142zm27.935 152.205c-.085-4.687-.226-8.679-.34-12.941l-27.014.609.241 12.36zM63.26 297.7c-8.934-.07-17.174-.099-25.57.284-.043 2.548-.057 4.828.07 6.966.1 2.563.369 2.86 2.917 2.902 4.97.071 9.94 0 15.05-.057l7.675-.155c-.043-3.271-.114-6.258-.142-9.954zm71.601 9.118-.142-9.811-21.196.608-.708 9.883z"/><path fill="#102185" d="M136.645 102.538c2.818.199 5.281 1.515 7.278 3.512.92 1.061 2.01 1.699 3.384 2.237 1.246.368 2.662.481 3.964.141a95 95 0 0 0 9.246-2.322c5.38-1.741 10.364-2.095 14.753 2.053 1.204 1.076 2.634.906 3.95.425 3.469-.892 6.952-1.911 10.407-2.662 4.771-1.217 9.316-1.175 13.805 1.416 1.231.652 2.647.765 4.077.581 2.153-.269 4.319-.822 6.358-1.53a18 18 0 0 1 6.583-.806c2.266.155 4.474.891 6.386 2.024 2.86 1.628 6.371 2.166 9.699 1.26 1.585-.311 3.015-.495 4.474-.948 4.927-1.345 10.293-1.105 15.135.807 2.62 1.033 5.593 1.26 8.326.594 1.302-.325 2.718-.368 4.148-.41.991.07 1.954.424 2.62 1.033.807.623 1.316 1.515 1.528 2.379.213 1.005.142 1.996-.198 2.818-.354.962-1.104 1.628-1.854 2.138-.892.509-1.912.849-2.917 1.062-4.899 1.061-9.755 1.429-14.442-.468a17.34 17.34 0 0 0-11.327-.396c-2.591.524-5.323 1.033-8.042 1.26-3.596.595-7.221-.241-10.35-2.166-1.218-.793-2.605-1.175-4.148-1.43-1.416-.099-2.988.07-4.305.538-2.024.566-3.907 1.132-5.932 1.557-1.742.439-3.596.595-5.423.326-1.841-.128-3.483-.821-4.984-1.784-.948-.637-1.911-.991-3.044-1.076s-2.265-.156-3.285.184c-3.61.877-7.221 1.755-10.845 2.761-4.63 1.232-8.892 1.345-12.616-2.181-1.458-1.387-3.313-1.231-5.068-.651-3.186.906-6.386 1.954-9.699 2.562-2.294.397-4.573.524-6.853.496-1.699.014-3.525-.255-5.04-.934-1.657-.694-3.002-1.643-4.333-2.874a4.42 4.42 0 0 0-2.449-1.459c-.991-.071-1.983-.141-2.86.368-2.62.949-5.267 2.181-8.028 2.973-2.181.694-4.46.822-6.867.779-1.133-.085-2.082-.58-2.889-1.345-.807-.764-1.132-1.925-1.062-3.058.071-.991.298-2.11.921-2.917s1.529-1.458 2.534-1.656c3.78-1.289 7.561-2.435 11.327-3.582 2.464-.68 5.04-1.062 7.49-1.444l.439-.255z"/></svg>