<svg xmlns="http://www.w3.org/2000/svg" width="229" height="216" fill="none" viewBox="0 0 229 216"><path fill="#102185" d="M105.388 35.547c.283.014.58-.24.877-.51 3.172-3.214 6.598-3.426 10.577.935 1.869 1.954 3.582 3.908 5.72 6.173a40 40 0 0 0 3.752-3.313c3.511-4.035 4.814-4.39 10.138-3.342 1.047-.934.566-2.378.793-3.638.679-6.485 1.939-12.927 5.422-18.675C147.722 4.979 155.198.9 164.599.349c5.55-.368 11.228-.44 16.75-.24 5.253-.1 10.449.792 15.447 2.52 3.044 1.189 5.762 3.058 8.028 5.465 2.265 2.407 3.936 5.21 5.012 8.396 2.053 5.663 3.101 11.68 2.874 17.769-.212 3.398.142 6.966.213 10.364-.071 1.133-.142 2.265-.085 3.54.821.48 1.628 1.09 2.449 1.713 8.354 4.913 12.431 12.261 12.686 21.79.255 4.984.099 9.939-.637 14.852-.892 5.338-.396 10.902-.594 16.424-.326 9.911-.652 19.68-.992 29.591-.17 7.363-.481 14.584-.651 21.946-.141 6.938-.283 13.748-.58 20.672-.255 8.778-.538 17.698-.793 26.476.184 1.714.056 3.554-.34 5.366-.213 1.119-.835 1.94-1.727 2.733a4.84 4.84 0 0 1-2.917 1.232c-1.572.184-3.002.382-4.559.425-4.262.014-8.51.042-12.63.07-7.376.114-14.909.213-22.286.17l-26.108.085c-8.509.043-16.877-.056-25.401.128-8.509.042-16.622.382-24.99.439-3.978.042-7.929-.213-11.893-.453-2.973-.185-4.304-1.544-4.828-4.56-.114-.58-.198-1.288-.17-1.854.056-5.395.099-10.775.156-16.169.07-5.664-.156-11.214-.085-16.892.099-1.699.085-3.539.056-5.394.142-6.938.298-13.89.44-20.827.056-5.522-.03-11.072.042-16.594.127-1.982-.043-3.979-.043-6.102.156-7.08.312-14.173.453-21.111 0-6.952.043-14.328.057-21.422.113-1.84-.043-3.837 1.742-5.281.764-.807 1.387-1.756 2.01-2.719l-4.46-5.805c-.524-.594-1.062-1.203-1.444-1.798-1.94-2.959-3.37-5.026.566-9.189.312-.41.623-.807 1.076-1.345L71.846 40.942c-.864.226-1.586.467-2.18.863l-14.627 7.037c-.736.382-1.614.75-2.477.977-2.294.425-4.418.297-5.99-1.784-2.902-3.582-5.79-7.164-8.396-11.015-.51-.878-.878-1.898-1.09-2.903s-.156-1.996.198-3.115c.199-.977.694-1.94 1.303-2.76a7.7 7.7 0 0 1 2.251-1.983c4.134-2.577 8.396-5.012 12.516-7.447 5.31-3.214 10.478-6.443 15.773-9.515 2.209-1.288 4.56-2.548 7.164-1.26 1.119.354 2.068.977 2.875 1.742 3.483 3.341 6.952 6.81 10.42 10.293L104 34.584c.411.312.807.623 1.232.78l.127.155zm108.738 165.641.227-3.667c.127-4.389.127-8.792.24-13.04.241-8.495.496-17.132.737-25.627.198-7.645.396-15.433.722-23.078.311-7.363.623-14.569.934-21.932.241-8.353.184-16.58.411-24.947.17-2.832.354-5.65.948-8.311.623-3.228 0-6.67-.226-9.94-.142-2.28-.85-4.587-2.011-6.513-1.161-1.911-2.746-3.723-4.799-4.983-3.682-2.492-7.533-4.305-11.865-5.423-6.542-1.968-13.281-3.243-20.063-3.653-7.759-.623-15.518-1.388-23.277-2.152-6.768-.708-13.536-1.402-20.304-2.11-.708-.042-1.557-.1-2.152.297-.722.241-1.331.765-1.784 1.303-2.747 3.087-5.762 5.89-8.637 8.82-7.858 7.746-15.716 15.476-23.701 23.065-.595.524-1.218 1.345-1.558 2.166-.34.822-.523 1.671-.439 2.52.015 8.793-.084 17.444-.056 26.095-.057 10.067-.128 20.275-.326 30.342-.042 9.925-.113 19.992-.297 29.917-.1 8.509-.34 17.004-.58 25.358-.128 1.982.17 4.12.764 6.003l15.603-.028 24.551-.17c7.235.028 14.612-.085 21.847-.057 6.527-.014 13.068-.184 19.595-.198l1.983.127c5.96-.056 11.794-.254 17.613-.325 4.97.028 10.223-.071 15.886 0v.141zm-62.44-164.182c.368-1.26.567-2.238.907-3.2a52 52 0 0 1 2.109-6.542c1.175-2.902 3.03-5.479 5.565-7.461 2.392-1.982 5.451-3.356 8.466-3.866 4.305-.863 8.708-.877 13.069-.183 8.141 1.359 11.723 5.408 13.536 12.756.311 1.87.608 3.866.778 5.72.255 2.705.51 5.565.906 8.283l5.876 1.36c.17-.411.34-.836.368-1.26-.085-3.271.128-6.655-.226-9.94a69.5 69.5 0 0 0-1.883-10.902c-1.586-6.485-6.188-10.024-12.97-10.45-7.475-.608-14.838-.92-22.243-.381-2.563.127-5.154.68-7.348 1.812-2.336 1.132-4.29 2.86-5.834 4.885-4.191 5.691-4.318 12.36-5.295 19.1l4.503.566-.269-.297zm-53.293 6.187L74.097 18.698c-8.552 5.14-17.075 9.869-25.203 15.179.652.892 1.034 1.628 1.43 2.08.793.907 1.459 1.657 2.38 2.705l3.794-1.756c4.233-2.01 8.48-4.148 12.856-6.017 1.33-.765 2.76-.963 4.304-.722 1.416.085 2.79.878 3.837 2.081 2.534 2.563 5.224 4.87 7.773 7.434l8.58 8.056 4.531-4.404v-.141zm87.982-2.761c-.467-4.007-.679-7.278-1.331-10.435-.212-1.147-.722-2.025-1.529-2.79-.807-.764-1.77-1.245-2.902-1.316-2.945-.467-5.791-.354-8.793-.113a6.5 6.5 0 0 0-3.299.651c-1.019.51-2.053 1.147-2.818 1.954-2.166 2.846-3.355 6.173-3.44 9.713 8 1.486 15.645 1.543 24.112 2.35zm-75.451 4.39L94.868 61.272l3.525 4.9 17.061-16.68zM55.648 215.178c-2.93-.751-6.017-1.232-8.934-2.252-7.645-2.605-15.83-3.256-23.843-2.194-3.285.368-6.683.155-9.883-.751s-6.23-2.52-8.792-4.658c-1.218-.92-2.266-2.265-2.903-3.582-.764-1.331-1.09-2.902-1.288-4.474a13.5 13.5 0 0 1 .708-4.644c.524-1.529 1.444-2.747 2.52-3.964 4.517-4.262 10.223-6.882 16.367-7.632 9.586-1.246 19.384-1.487 29.125-.609 5.65.354 11.327.283 16.834.765 1.983.127 4.064.821 5.848 1.784 2.464 1.43 4.602 3.554 6.159 5.918 1.543 2.506 2.364 5.253 2.605 8.255.609 6.272-3.072 10.59-8.099 13.96-5.012 3.086-10.774 4.431-16.58 4.219l.156-.127zM10.44 196.191c.382.736.906 1.472 1.444 1.94.68.467 1.36.934 2.194 1.132 4.022 1.388 8.255 1.784 12.56 1.062a51.4 51.4 0 0 1 16.112 1.005c3.908.949 7.943 2.337 11.865 3.002 4.913.878 9.77.326 13.677-3.271.75-.665 1.373-1.614 1.586-2.59.198-.977.127-2.124-.382-3.002-.34-1.303-1.133-2.336-2.223-3.115s-2.337-1.133-3.61-1.218c-10.62-.382-21.168-1.741-31.985-1.274-4.828.127-9.699.821-14.442 1.94-2.733.679-5.097 2.095-6.938 4.247l.128.156z"/><path fill="#102185" d="M146.618 102.801a71 71 0 0 0 1.982-4.56c3.058-8.042 5.961-16.084 9.161-24.112a12.4 12.4 0 0 1 2.378-3.964c.468-.68 1.204-1.204 2.082-1.572.736-.382 1.585-.467 2.577-.41.991.056 1.684.382 2.506.722a7.6 7.6 0 0 1 1.869 1.812c.778 1.19 1.415 2.365 1.897 3.809 1.076 3.186 1.869 6.357 2.817 9.543.383.736.609 1.6 1.133 2.336.878-.51 1.614-.75 2.35-1.274 1.77-1.02 3.413-2.337 5.31-3.214.878-.51 2.025-.722 3.03-.807.991.056 2.124.127 3.087.623.962.495 1.769 1.104 2.435 1.996.665.75 1.161 1.77 1.387 2.775.34 1.444.524 3.016.567 4.573 0 4.404-.114 8.651-.099 13.04.113 5.112.495 10.251.608 15.362.043 6.103-.056 12.333-.155 18.435.141 6.824-.85 13.564-2.945 19.963-2.988 9.317-8 16.948-17.458 20.757-2.478.977-5.069 1.671-7.787 1.926-3.866.467-7.703.651-11.54.707-1.274-.084-2.548-.155-3.638-.792-2.337-1.133-4.39-2.407-6.726-3.682-4.375-2.548-7.405-6.414-10.279-10.279-5.777-7.589-8.056-16.396-8.184-25.896-.042-8.368.326-16.58 1.26-24.891.595-7.192 1.176-14.257 1.898-21.45.085-1.274.297-2.534.807-3.78 1.529-4.163 6.145-5.296 9.203-1.982a50 50 0 0 1 4.941 7.263c1.289 2.067 2.152 4.106 3.682 7.037h-.142zm-8.977 5.111-.58.241c-.793 8.183-1.572 16.211-2.223 24.409-.255 4.092-.227 8.212.226 12.36.751 8.411 4.857 15.334 10.449 21.366a13.5 13.5 0 0 0 4.616 3.412 12.9 12.9 0 0 0 5.607 1.203c3.271-.085 6.4-.17 9.543-.679 2.294-.283 4.474-1.147 6.4-2.436 1.925-1.288 3.582-2.902 4.842-4.799 2.973-4.503 4.998-9.614 5.607-14.966 1.288-9.429 1.6-18.916.92-28.459-.382-7.546-1.048-15.107-.722-22.597.057-.85-.042-1.699-.113-2.846-1.912 1.161-3.257 2.209-4.871 2.96-3.525 2.052-7.759 1.5-9.713-1.317-1.047-1.487-1.798-3.087-2.548-4.701-.637-1.175-1.119-2.478-1.742-3.936-.878 2.648-1.586 4.87-2.421 6.938-2.195 5.536-4.233 10.944-6.555 16.48a13.1 13.1 0 0 1-4.036 5.565c-1.189.92-2.633 1.401-4.191 1.302s-2.916-.892-3.851-1.94a16 16 0 0 1-1.826-2.52c-1.048-1.486-1.94-3.101-2.974-4.729l.156-.269z"/><path fill="#102185" d="M175.133 139.188c-.51 3.653-.708 6.768-1.175 9.713-.665 3.937-2.733 7.49-5.734 10.138a12.07 12.07 0 0 1-6.981 2.69c-2.562.127-5.082-.453-7.263-1.869-3.002-1.883-5.522-4.743-6.881-8.085-1.855-4.375-3.129-8.99-3.412-13.691-.085-.863.099-1.699.155-2.407q.51-1.253 1.402-2.039c1.062-1.076 2.251-1.982 3.582-2.902 4.588-2.973 7.958-7.164 11.483-11.199.765-.949 1.671-1.884 2.591-2.818 3.894-3.299 9.472-1.826 10.435 3.341a204 204 0 0 1 1.756 12.871c.141 2.279.141 4.544.184 6.257zm-14.951 12.403c3.171-.792 3.454-3.185 3.879-5.436.609-2.945.92-5.763.963-8.736-.014-1.983.552-4.361-.368-5.409l-11.03 8.538c2.039 3.667 1.572 8.891 6.683 11.058h-.142z"/></svg>