<svg xmlns="http://www.w3.org/2000/svg" width="316" height="210" fill="none" viewBox="0 0 316 210"><path fill="#102185" d="M77.833 31.84c30.498-6.06 61.024-8.424 92.273-4.884.113-6.003 2.973-10.506 6.144-14.88 5.862-8 14.003-11.3 23.475-12.05a30 30 0 0 1 14.966 3.285c.736.198 1.374.68 1.855 1.19 4.205 5.181 8.948 10.024 10.902 16.622 1.94 6.47 1.657 13.351-1.118 19.68l-1.133 2.421c17.542 7.957 31.404 19.652 37.577 38.427 3.78-.61 7.292-2.195 10.435-4.432-.495-.51-1.005-1.161-1.487-1.67-4.998-4.659-7.334-10.79-8.155-17.388a14.36 14.36 0 0 1 .948-7.249c.864-2.25 2.464-4.304 4.418-5.819 1.671-1.487 3.667-2.591 5.862-3.299 2.194-.694 4.46-.835 6.64-.538 5.777.566 10.35 5.281 12.035 11.922 1.614 6.074.977 12.43-1.614 18.038-.453.906-.921 1.826-1.586 3.341a12 12 0 0 0 3.087-.382c2.166-.977 4.276-2.379 5.918-4.021 3.625-4.163 6.272-9.203 7.462-14.626.778-2.945 2.152-4.545 4.46-4.262.58.071 1.316.27 1.783.637.609.354 1.091.722 1.445 1.246s.708 1.048.934 1.742l.227 1.826c-.128 1.303-.382 2.62-.963 3.682-2.039 4.247-3.795 8.466-6.173 12.317-4.842 8.156-16.07 13.126-24.948 10.52-.878-.17-1.741-.212-2.548.17-5.267 2.365-10.364 4.998-15.617 7.504-.269.17-.524.354-.779.666-.127 4.729-.099 9.571-.354 14.456-.58 14.909-5.607 28.373-13.182 41.017-8.198 13.281-19.553 24.112-33.173 31.645a200 200 0 0 1-7.745 4.247c-.949.397-1.728 1.076-2.478 1.883a9.4 9.4 0 0 0-1.387 2.591c-1.53 4.899-3.2 9.812-4.899 14.584-.85 2.392-1.544 4.757-4.503 5.125s-4.333-1.6-5.734-3.709c-1.94-3.045-4.021-5.919-6.273-9.204-.707 1.232-1.316 2.025-1.798 2.79-1.727 3.355-3.468 6.569-5.196 9.911-.311.892-1.076 1.699-1.869 2.223a4.76 4.76 0 0 1-2.761.764c-1.005-.014-1.911-.481-2.69-.948a4.27 4.27 0 0 1-1.571-2.379c-1.048-2.719-2.096-5.451-3.3-8.156-.608-1.486-1.373-2.973-1.982-4.46-4.545.142-8.792.383-13.068.482-6.952.297-13.89-.411-20.544-2.308-1.034-.297-2.053-.453-3.073-.623-3.369-.722-3.497-.566-5.281 2.223l-7.306 11.327c-.354.609-.722 1.09-1.09 1.557-1.218 1.714-2.761 3.059-5.239 2.648a4.46 4.46 0 0 1-2.463-1.402c-.652-.637-1.19-1.557-1.317-2.548-1.331-3.823-2.534-7.816-3.865-11.653-.468-1.515-1.105-3.143-1.784-5.196-1.53 1.472-2.676 2.619-3.795 3.894-2.888 3.214-5.649 6.258-8.523 9.472-.736.948-1.657 1.628-2.563 2.322-.51.495-1.331.736-2.025.962-.708.085-1.543.199-2.166-.155-.736-.198-1.373-.68-1.855-1.19a3.5 3.5 0 0 1-.963-2.024c-.283-1.105-.566-2.209-.552-3.356-.878-7.023-1.883-14.031-2.619-21.082-.127-.977-.227-1.826-.892-2.605a4.5 4.5 0 0 0-2.209-1.727c-15.447-7.221-29.592-16.594-42.405-27.836a76.7 76.7 0 0 1-18.86-23.206c-.736-1.331-1.614-2.648-2.477-3.837-8.1-12.403-8.962-25.146-2.18-38.257 6.23-11.907 15.9-20.232 27.354-26.788 2.124-1.26 4.092-2.647 6.202-4.05-.68-4.332-2.068-8.593-4.12-12.473-.737-1.33-1.742-2.492-2.861-3.497-1.26-.991-2.633-1.67-4.12-2.195-2.534-.82-5.196-1.642-7.73-2.463-1.034-.298-1.954-.75-2.86-1.218-.751-.34-1.403-.963-1.912-1.614a4.94 4.94 0 0 1-1.02-2.435c-.099-.85-.212-1.685.114-2.577.17-.878.65-1.657 1.288-2.294 1.373-1.6 3.044-3.087 4.87-4.46a29.5 29.5 0 0 1 9.671-4.913c3.582-1.02 7.25-1.33 10.874-.92 5.933.694 11.582 2.563 16.679 5.635 7.22 4.092 13.62 9.727 18.86 16.353.665.779 1.33 1.544 1.995 2.322l-.056-.425zM35.811 60.03c21.79 3.144 33.57 19.95 32.083 37.818-1.486 19.015-14.852 35.51-40.947 33.329 2.436 2.407 4.418 4.588 6.655 6.457 12.474 10.859 26.463 20.119 41.33 27.255 1.344.552 2.463 1.402 3.44 2.421 2.208 2.86 4.29 5.89 4.375 10.01.283 3.384.68 6.626 1.231 9.982.128.977.369 1.812.694 3.341 3.653-3.879 6.782-7.405 10.053-10.944 1.005-1.119 2.138-2.266 3.299-3.257.51-.495 1.175-.863 1.883-.948s1.402-.17 2.138.014 1.345.552 1.826.92c.496.51.977 1.02 1.204 1.699.595 1.359 1.033 2.577 1.486 3.95 1.345 3.965 2.691 7.943 4.135 12.616 2.52-3.88 4.531-7.122 6.584-10.237 2.407-3.582 3.652-3.879 7.758-2.959 7.335 1.657 14.711 3.596 22.428 3.639 5.281.056 10.534-.17 15.773-.524 5.507-.397 7.065.552 9.245 5.564a401 401 0 0 0 1.982 4.46c.821-1.387 1.303-2.152 1.643-2.917 1.387-2.591 2.619-5.323 4.162-7.787 2.252-3.709 5.805-3.851 8.496-.481 1.019 1.303 1.911 2.761 2.789 4.078 1.189 1.557 2.265 3.284 3.823 5.521 1.444-4.46 2.718-8.042 3.681-11.723.156-1.019.623-1.926 1.232-2.718.609-.793 1.529-1.473 2.478-1.883a311 311 0 0 0 10.335-5.282c10.01-5.521 18.789-13.026 25.939-22.045 5.041-6.47 9.147-13.691 12.035-21.464 4.8-11.865 5.55-24.225 4.559-36.798-.34-5.097-1.798-9.911-4.347-14.3-1.968-3.186-4.049-6.202-6.272-9.204-4.403-5.592-10.166-9.443-16.283-12.813-3.072-1.756-6.385-3.2-9.443-4.814-8.51 7.334-17.571 9.033-28.034 6.329-10.775-2.945-16.835-10.322-20.474-20.148-1.317-.269-2.619-.382-3.936-.651-12.304-1.473-24.622-1.798-36.954-1.119-17.288 1.006-34.717 1.884-51.538 6.683-11.298 3.257-22.413 6.782-32.678 12.616-3.455 1.996-6.768 4.12-10.067 6.243l.156.128zm-4.163 10.067c-5.762.708-10.973 3.497-15.022 7.717-3.908 4.19-6.386 9.5-6.952 15.277-1.544 10.604 2.393 19.255 11.143 25.443 6.74 4.87 14.328 5.068 21.946 2.123 11.553-4.573 19.27-18.363 15.376-32.437-1.558-5.663-4.885-10.661-9.6-14.074-4.715-3.553-10.42-4.7-17.033-3.879l.128-.156zM198.409 9.045c-7.207.61-12.474 4.12-16.424 10.166-2.167 3.27-3.101 7.235-2.903 11.058.212 3.964 1.657 7.646 4.05 10.775 4.728 5.975 11.086 7.759 18.094 7.886 1.855.057 3.682-.17 5.31-.949 1.628-.637 3.2-1.826 4.318-3.1 2.124-2.407 4.573-4.56 6.697-6.966.864-1.105 1.572-2.337 1.827-3.653 1.118-5.99.538-11.766-3.781-16.65-.977-1.02-1.84-2.195-2.562-3.399-2.492-3.964-6.075-5.238-10.492-5.267-1.444-.113-2.846.07-4.248.24l.128-.155zM67.385 33.851c-3.95-6.499-9.784-9.91-15.49-13.337a29.75 29.75 0 0 0-15.787-4.177c-3.681.17-7.22 1.614-10.067 3.964 1.048.44 2.11.878 3.143 1.176 3.229.736 6.287 2.364 8.85 4.615s4.474 5.012 5.578 8.156c.835 2.18 1.543 4.375 2.379 6.555.424 1.09.693 2.195 1.09 3.002.566-.071.864.042.977-.128 5.678-2.563 11.497-5.14 17.146-7.83.793-.523 1.544-1.33 2.308-2.137l-.127.155zm213.809 37.535c4.687-4.715 5.961-12.87 3.002-18.35-.567-1.076-1.543-2.095-2.619-2.676-4.22-1.756-9.699 2.35-9.118 6.98.849 5.749 3.199 10.874 8.735 14.046"/><path fill="#102185" d="m223.017 100.44-15.801-.892-38.469-1.94c-.708.085-1.586-.085-2.294-.142-5.055-.51-6.088-1.954-5.72-6.994.425-5.763.566-11.483.864-17.231.014-1.005.042-1.996.198-3.016.552-3.639 1.657-5.054 5.508-5.111 6.527-.24 13.125-.057 19.553 0 11.865.24 23.885.467 35.779.835 5.309.199 6.966 2.138 6.626 7.448-.396 7.178-.793 14.37-1.175 21.55-.142 3.44-1.798 5.068-5.182 5.351l.155.127zm-52.132-11.936c4.559 1.147 44.444 2.902 47.63 2.081l.75-15.786c-16.028-.44-31.8-1.048-47.785-1.062-.213 5.168-.34 9.882-.595 14.767M140.061 81.48c.934 11.016.566 20.616-3.582 29.833-.652 1.657-1.148 3.426-1.657 5.055-.156 1.019-.75 1.954-1.529 2.619s-1.728 1.076-2.846 1.203c-2.251.284-3.441-1.288-4.389-3.171-.397-.949-1.077-1.727-1.473-2.676-1.034-2.577-2.605-4.956-4.559-6.853s-4.276-3.469-6.966-4.417c-3.61-1.544-7.348-2.945-10.973-4.489-1.345-.552-2.563-1.104-3.908-1.656-3.978-2.223-5.635-5.154-4.743-9.543 1.515-7.32 3.327-14.54 5.154-21.748.425-1.189 1.005-2.265 1.897-3.086s1.954-1.53 3.2-1.827c3.525-1.43 7.433-2.208 11.299-2.11 3.865.086 7.674.907 11.171 2.606 6.173 2.662 9.84 8.056 12.176 14.187.666 1.911 1.048 3.865 1.43 5.819l.312.24zm-10.832 23.164c.34-.75.666-1.515 1.005-2.265 1.784-7.504 1.94-15.362.156-22.852-.439-2.365-1.416-4.53-3.072-6.329a14.3 14.3 0 0 0-5.791-4.134c-4.333-1.6-8.977-2.166-13.691 0-2.634 6.315-4.064 13.196-5.791 19.978 9.67 4.36 20.062 6.498 27.184 15.602M81.571 73.466a4.38 4.38 0 0 1-3.242-.877c-.949-.737-1.515-1.813-1.784-2.917-.142-1.119.156-2.166.892-3.1.75-.808 1.67-1.488 2.79-1.63.566-.07 1.118-.14 1.727.072s1.047.439 1.529.807c.481.368.807.75 1.16 1.288.355.538.426 1.09.496 1.657.071.566.142 1.118.057 1.557-.07.58-.297 1.034-.665 1.515-.369.482-.751.807-1.303 1.02s-1.09.424-1.515.467l-.127.156zM64.482 55.33c.567-.071.977-.128 1.586.085.44.084 1.034.297 1.374.68.453.226.792.608 1.005 1.16.198.41.396.949.467 1.515s.127.977-.085 1.586c-.085.439-.297 1.033-.68 1.373-.226.453-.75.807-1.16 1.006-.411.198-.95.396-1.516.467-.977.127-2.024-.184-2.803-.793a3.92 3.92 0 0 1-1.458-2.534c-.128-.992.042-1.997.651-2.79a4.28 4.28 0 0 1 2.379-1.571l.269-.17zM50.167 96.333c.453 3.653-.538 7.207-2.733 10.18-.722 1.09-1.614 1.911-2.704 2.336a7.4 7.4 0 0 1-3.511.439c-1.175-.283-2.251-.864-3.214-1.741-.821-.892-1.388-1.969-1.685-3.214-.51-1.799-.467-3.795-.297-5.82.34-1.897.962-3.68 1.897-5.366.566-1.217 1.585-2.194 2.775-2.916 1.218-.581 2.605-.892 3.922-.623s2.662.807 3.511 1.84c.977 1.02 1.558 2.237 1.87 3.625l.198 1.543zM17.39 95.555c-.368-2.946.269-5.89 1.5-8.609.524-1.487 1.671-2.633 3.002-3.37 1.331-.736 3.016-.948 4.474-.693 2.776.51 4.46 2.59 5.041 6.074.439 3.511-.128 7.008-1.912 9.939-1.642 2.917-4.318 4.247-6.98 3.582-1.316-.269-2.563-1.104-3.398-2.152s-1.416-2.251-1.6-3.653l-.141-1.118z"/></svg>