<svg xmlns="http://www.w3.org/2000/svg" width="131" height="181" fill="none" viewBox="0 0 131 181"><path fill="#102185" d="M56.768 163.188c-4.106 3.54-7.787 6.796-11.61 9.77-12.035 9.061-25.769 6.371-34.83-1.983-5.806-5.38-9.487-12.601-10.195-20.53-.708-7.928 1.416-15.715 6.089-22.087 8.353-11.185 18.123-21.379 27.75-31.432C43.6 86.874 54.361 76.821 64.415 66.91c.99-.992 1.982-1.982 3.114-3.256C59.175 55.44 55.21 45.53 56.06 33.92c.708-9.061 4.814-17.556 11.468-23.786A35.48 35.48 0 0 1 90.042.08c8.495-.566 16.849 1.841 23.786 6.938 15.15 11.327 17.699 29.167 7.646 49.413 2.973 5.664 5.947 10.62 7.929 15.858a18.1 18.1 0 0 1 1.274 10.194c-.566 3.398-1.841 6.797-3.964 9.487-4.389 5.663-8.92 11.185-13.451 16.848-.85 1.133-1.841 1.982-2.973 3.257 1.274.849 2.123 1.699 2.973 2.265 7.221 4.814 10.619 11.61 11.044 20.105.283 6.513.708 13.026.991 19.539.283 5.947-1.274 11.327-6.23 14.867-17.415 12.742-35.963 14.725-55.643 6.088a7.73 7.73 0 0 1-3.682-3.965c-1.132-2.548-2.124-5.238-2.973-7.928zm-4.672-70.085c.424.283.708.708.99.85C61.3 96.5 68.379 101.88 72.91 109.102c.566.425 1.132.708 1.84.991a4.7 4.7 0 0 0 1.983 0c6.796-2.265 14.158-2.973 21.238-1.982h1.557c.566-.141.991-.424 1.416-.708 4.531-4.672 9.345-9.203 13.451-14.3 3.115-3.681 6.229-7.504 6.229-12.884 0-8.778-4.106-14.867-12.034-18.548-8.354-3.681-16.99-6.088-24.636.708-10.761 9.486-20.955 19.68-31.291 29.733-.283.425-.566.85-.708 1.275zm-42.052 53.661c.284 2.407.567 4.814 1.133 7.221 3.681 13.875 19.822 19.256 29.592 10.336 3.398-2.973 6.513-6.088 9.91-9.062 3.116-2.69 3.682-6.229 2.974-9.911-1.84-10.902 1.558-19.963 9.628-27.326 2.124-1.84 1.699-3.115.425-5.097-3.965-6.088-10.195-8.637-16.708-10.902-2.548-.849-4.247-.566-6.088 1.416-8.07 9.061-16.282 17.84-24.353 26.76-4.247 4.531-6.513 10.477-6.513 16.565m62.157-126.72 45.308 18.832c3.114-9.628-3.398-21.663-13.876-26.76s-24.778-1.558-31.432 8.07zm-7.787 123.322c4.247 10.336 18.123 14.867 31.573 11.044 10.903-3.115 19.256-11.893 17.84-19.68l-49.555 8.636zm10.052-86.934c4.673-2.407 8.779-5.38 13.31-6.796 7.22-2.407 14.583-1.274 21.521 1.558 3.398 1.416 4.672.141 5.521-3.257L67.67 28.398c-1.982 4.814-2.265 10.053-1.133 15.15s3.965 9.486 7.93 12.884m-9.77 77.165 46.724-8.071c-7.362-7.787-15.857-8.919-24.777-7.787-10.903 1.274-20.389 8.354-21.946 15.999zm1.983 27.184c0 3.115 0 5.664 3.115 6.796 15.716 5.664 30.441 3.965 44.033-6.371 2.266-1.699 2.69-3.681 1.275-6.371-14.867 11.468-30.866 13.592-48.281 5.805z"/></svg>