<svg xmlns="http://www.w3.org/2000/svg" width="286" height="250" fill="none" viewBox="0 0 286 250"><path fill="#102185" d="M123.007 37.392c-1.6-1.204-2.945-2.577-4.05-4.276-1.104-1.7-1.529-3.639-1.67-5.621-.411-2.803.311-5.763 1.996-8.014s4.163-3.894 7.108-4.318a33.5 33.5 0 0 1 11.879 0c1.019.141 1.925.439 3.681.75.58-.949 1.118-2.166 1.841-3.129a37 37 0 0 1 2.76-3.695c7.972-9.16 16.495-11.54 27.1-6.485 6.754 3.172 13.168 6.966 19.582 10.76 2.208 1.402 4.148 2.974 6.116 4.701 2.903 2.294 5.069 5.423 6.145 8.835 1.09 3.568 1.189 7.264.142 10.846-.822 3.27-1.926 6.428-3.214 9.472-.34.623-.538 1.217-.439 1.925s.198 1.402.566 1.926c3.993 6.867 6.669 14.484 7.943 22.314 1.133 5.847.524 11.51-.651 17.26a56.5 56.5 0 0 1-7.221 19.354c-4.517 7.377-10.605 13.691-17.953 18.335l-3.144 2.025c3.03 1.133 5.593 2.053 8.17 3.115 2.591 1.062 5.012 1.996 7.447 3.072s5.069 2.421 8.439 3.936a36 36 0 0 1 2.279-4.049c2.634-3.525 5.522-4.375 9.501-2.52 8.58 3.908 16.608 9.047 23.914 14.994 2.945 2.577 3.313 5.097 1.671 8.622-1.076 2.45-2.294 4.913-3.497 7.519.835.877 1.543 1.784 2.364 2.52 18.93 19.156 32.763 41.612 43.071 66.446.24.68.509 1.501.75 2.181 1.388 4.658-1.189 8.608-6.159 8.905-4.545.227-9.274.199-13.833.284l-27.255.509-26.973.467c-8.99.156-18.279.213-27.269.369-8.991.155-18.421.226-27.695.424l-26.972.468-81.809 1.104-26.972.467c-4.29.043-8.523.368-12.714.128a15.15 15.15 0 0 1-5.734-2.039c-.92-.439-1.6-1.204-1.884-2.166-.424-.935-.424-1.94-.269-2.818a28 28 0 0 1 1.799-5.409C13.46 210.042 29.149 185.887 50.4 165.64c.496-.495.864-.977 1.246-1.316-.764-3.328-1.628-6.343-2.096-9.572-.467-2.223-.382-4.658.595-6.81.835-2.124 2.435-3.922 4.418-5.069 7.56-5.097 15.135-10.052 23.885-12.898 6.004-2.011 8.212-1.614 12.064 3.27.863 1.02 1.585 2.053 2.633 3.342 10.492-4.658 21.45-7.957 32.749-10.024-14.399-11.511-22.328-25.812-22.937-43.892s6.4-32.976 20.077-45.251zm23.829 127.314-2.931-.439c-6.612-1.189-13.182-2.096-19.667-3.455-7.093-1.543-11.383-5.507-8.509-14.357.184-.736.496-1.5.68-2.237.58-1.939 1.019-3.865 1.699-6.116-4.885-.156-8.864 1.996-12.828 3.285-2.704 1.104-5.38 2.35-7.886 3.851-1.586.948-3.101 2.308-4.701 3.115-9.585 4.955-18.59 10.987-26.901 17.769-23.235 19.383-39.772 43.509-52.147 70.764-.198.595-.255 1.175-.453 1.784l133.219-1.798c.255-23.928.34-48.111.566-72.322l-.113.156zm44.529-19.596c-1.827 6.131-3.271 12.063-5.154 17.769-1.6 4.814-4.488 6.513-9.486 5.664-4.121-.836-8.297-1.954-12.304-2.945-2.237-.68-4.489-1.359-7.334-2.237-.241 25.075-.425 49.555-.538 74.474 13.521-.524 26.434-1.246 39.261-1.529 12.97-.298 26.137-.34 39.248-.666 12.828-.283 25.727-.141 38.951-.764-.439-1.076-.68-1.756-.906-2.308-5.126-11.709-11.313-22.824-18.534-33.23-16.396-23.376-36.487-42.646-63.318-54.086l.114-.156zm-28.063-19.977c5.069-.595 9.855-2.138 14.046-4.744 15.022-8.891 22.229-22.384 22.88-39.644.085-7.306-1.543-14.654-4.913-21.18a9.2 9.2 0 0 0-4.389-4.66c-3.965-1.712-7.858-3.864-12.021-4.983a334 334 0 0 0-24.395-5.493c-5.154-.977-10.435-.92-15.575-1.898-1.317-.24-2.761-.311-4.148.029-1.388.34-2.563 1.09-3.583 1.953-.906.708-1.798 1.402-2.676 2.252-13.818 13.295-18.377 29.266-13.139 47.672 5.296 18.831 23.079 34.009 47.8 30.865l.113-.155zm30.696-84.556c.382-1.345.892-2.704 1.402-4.205 1.614-4.672.34-8.495-3.54-11.652-7.561-5.777-15.815-10.45-24.636-14.031-1.685-.765-3.724-1.034-5.522-.637-1.826.268-3.539 1.231-4.927 2.576a87 87 0 0 0-4.913 5.579c1.062.425 1.685.764 2.28.963s1.345.382 2.081.552c2.379-4.347 4.602-5.82 7.476-4.658 1.062.424 1.883 1.16 2.605 2.194 1.586 2.053.623 4.347.17 6.13l27.666 17.175h-.142zm-55.658 95.019c5.296 4.955 9.968 9.571 14.924 14.158l17.061-10.619c-10.492-3.341-20.672-5.451-31.985-3.539m26.548-100.399c-.34-.382-.821-.736-1.161-1.118a117 117 0 0 0-27.652-9.161c-2.209-.396-4.347-.368-6.47-.212-.425.056-.836.127-1.077.439-.254.184-.623.665-.722.962-.184.737.637 1.487 1.048 2.28.326.24.637.481 1.076.552 4.163 1.119 8.241 2.534 12.502 3.342 5.862 1.005 11.95 1.557 17.925 2.279l4.673.609h-.142zM60.779 156.253l23.079-15.489c-.524-.637-1.43-.935-2.138-.977-.708-.043-1.685.24-2.322.764-5.578 2.959-11.284 6.06-16.679 9.274-3.299 1.912-3.242 2.322-1.911 6.57v-.142zm79.983-2.973.325-.765-12.771-12.176c-1.189 3.61-2.478 6.654-2.69 10.109 5.154.977 9.982 2.704 14.98 2.704l.156.114zm35.764 4.984c2.45-4.786 3.682-10.124 3.144-12.899l-15.079 9.472zm37.861-13.196 17.415 12.644.892-2.705c-6.202-5.253-15.093-10.406-18.336-10.081v.142z"/><path fill="#102185" d="M107.914 215.095c-8.523.369-16.905.864-25.301 1.076-4.843.128-6.966-1.713-7.235-6.541a835 835 0 0 1-.78-26.207c.114-1.161.242-2.322.652-3.384.34-1.628 1.275-3.044 2.577-3.95 1.274-1.048 2.945-1.431 4.517-1.374 5.28-.042 10.576-.099 15.702-.269 4.29-.042 8.424-.071 12.728.014 4.163.114 6.117 1.699 6.442 5.933.453 6.088.482 12.233.666 18.505.127 2.846.113 5.706.071 8.424-.099 4.305-1.558 6.089-5.735 6.839l-4.205.609-.099.297zm-22.413-8.622c7.787-1.558 14.937-.581 22.328-1.94-.481-4.361.184-8.608-.92-13.309-1.784 2.549-3.073 4.446-4.389 6.216-3.681 5.253-7.462 5.805-12.729 1.982-1.444-1.076-2.902-2.294-4.856-3.88.127 3.852.311 7.108.58 10.931zm9.387-16.24 3.653-5.394-8.849.127-.184.736 5.394 4.658v-.141zM221.72 207.677c-2.194 6.612-6.513 10.378-13.337 10.647-7.25.326-10.138-4.828-12.531-10.491-2.747-.17-5.465-.213-8.084-.552-1.006 0-1.898-.298-2.662-.623-.779-.453-1.558-.921-2.251-1.685a6.3 6.3 0 0 1-1.345-2.379c-.255-.821-.27-1.826-.411-2.803.071-3.441.283-6.91.51-10.379.354-3.483 1.968-5.153 5.38-5.351 4.106-.312 8.254-.34 12.247-.34 9.869 0 19.766.141 29.521.311 6.173.113 8.637 2.322 9.359 8.368.283 1.968.552 3.78.694 5.762.212 4.404-1.827 7.136-6.159 7.901l-10.931 1.586zm-30.653-10.166c2.562-.085 4.559-.085 6.682-.255 4.262-.184 6.514 1.487 7.519 5.494.156 1.118.609 2.194.906 3.299.439 1.076 1.048 2.279 2.421 1.94 1.076-.439 1.982-1.147 2.563-2.082.354-.481.396-1.203.453-1.784.835-4.12 2.095-5.309 6.272-6.06 2.945-.424 5.862-.991 8.651-1.529.68-.24 1.345-.623 1.841-1.118-3.073-1.416-32.041-1.954-37.039-.935l-.553 3.087.284-.043zM172.986 226.876c.184 1.261.085 2.563-.75 3.682-.694 1.104-1.883 1.84-3.115 2.166-1.26.184-2.577-.057-3.681-.75-1.105-.694-1.841-1.883-2.167-3.115-.198-1.402.043-2.719.878-3.851.694-1.105 1.855-1.983 3.257-2.195.693-.099 1.26-.184 1.868.014s1.204.397 1.827.736c.481.354.977.864 1.345 1.374.368.524.609 1.203.68 1.755l-.114.156zM173.086 185.943c.085.567.184 1.26-.014 1.869-.198.595-.397 1.204-.765 1.685-.354.482-.864.977-1.402 1.204-.523.368-1.217.467-1.784.538-.566.07-1.288.042-1.883-.156a6.5 6.5 0 0 1-1.699-.892c-.481-.354-.835-.878-1.203-1.402-.227-.538-.467-1.217-.538-1.784-.156-1.118.382-2.35 1.09-3.299a3.9 3.9 0 0 1 3.058-1.585c1.119-.156 2.322.24 3.285.962a4.45 4.45 0 0 1 1.713 2.903h.142zM163.713 207.181c-.085-.566-.184-1.26.014-1.869.198-.594.397-1.203.765-1.685.354-.481.878-.835 1.402-1.203.538-.227 1.076-.439 1.784-.538 1.118-.156 2.322.241 3.27.821a4.44 4.44 0 0 1 1.713 2.903 4.37 4.37 0 0 1-.821 3.27c-.722.963-1.614 1.671-2.874 1.841-.566.085-1.26.184-1.869-.014-.609-.199-1.203-.397-1.685-.765-.481-.354-.977-.864-1.189-1.26-.368-.524-.581-1.062-.68-1.756l.184.255zM132.168 77.984c.722.043 2.024.142 3.2.397 3.228.538 6.314 1.09 9.387 1.642 1.019.142 2.067.41 2.987.85a4.93 4.93 0 0 1 2.761 2.322 5.1 5.1 0 0 1 .51 3.497 4.99 4.99 0 0 1-1.997 3.001c-1.033.722-2.279 1.048-3.44.92-5.111-.693-10.095-1.543-15.122-2.675a4.98 4.98 0 0 1-3.001-1.997c-.722-1.033-1.048-2.28-.92-3.44.212-2.464 2.109-4.163 5.493-4.517zM141.412 62.778c.198 1.401-.17 2.746-1.033 3.723-.836 1.119-2.039 1.728-3.441 1.926-1.26.184-2.619-.34-3.752-1.175-1.133-.836-1.727-2.04-1.784-3.455-.184-1.26.198-2.605 1.034-3.724.863-.977 2.038-1.727 3.44-1.925 1.26-.184 2.605.198 3.724 1.033 1.118.836 1.727 2.04 1.784 3.455v.142zM158.389 66.474c.142.977 0 1.996-.311 2.761-.439.92-1.062 1.586-1.841 2.124s-1.741.821-2.761.68a4.43 4.43 0 0 1-2.704-.892c-.807-.595-1.345-1.374-1.77-2.323-.283-.962-.283-1.968-.127-2.845.297-.907.736-1.827 1.501-2.507s1.557-1.09 2.534-1.231c.694-.1 1.26-.184 1.869.014s1.203.396 1.685.764c.481.354.977.864 1.345 1.374.368.524.609 1.203.538 1.784l.042.283z"/></svg>