<svg xmlns="http://www.w3.org/2000/svg" width="377" height="132" fill="none" viewBox="0 0 377 132"><path fill="#102185" d="M113.141 120.285c-2.987 2.535-5.253 4.659-7.674 6.627-2.421 2.109-4.969 2.817-7.928 1.529-2.266-1.006-4.531-1.713-7.066-2.577-1.132 1.133-2.42 2.251-3.553 3.525-.85.991-1.841 1.558-3.13 1.968-1.132.284-2.548.269-3.68 0-1.416-.283-2.832-.722-4.107-1.005-4.53-1.288-9.047-2.152-13.72-3.171-1.84-.425-3.68-1.147-5.507-1.997a4.4 4.4 0 0 1-1.558-1.274c-.425-.566-.85-1.133-.99-1.699-.284-.566-.284-1.274-.27-1.982s.283-1.275.58-1.982c.992-1.416 1.856-2.832 2.988-4.234 2.563-3.525 5.55-6.923 8.821-9.883 2.421-2.392 5.678-3.242 8.793-3.936a183 183 0 0 0 20.983-5.876c9.075-3.228 18.293-6.3 27.496-9.67 4.531-1.685 9.075-3.653 13.748-5.465.283 0 .708-.283.849-.566.142-.284.425-.567.425-.992.283-1.557.722-3.114 1.005-4.955-.566-.142-1.132-.283-1.699-.283-3.964.127-7.787-.312-11.61-1.459-5.239-1.288-10.038-3.865-14.13-7.277a27.2 27.2 0 0 1-5.649-5.678A5.05 5.05 0 0 0 105 56.557c-.566-.283-1.274-.566-1.982-.58-3.115-.439-6.088-.878-9.062-1.586a3.45 3.45 0 0 0-1.699 0c-.566 0-1.132.283-1.557.567-1.558.99-2.988 2.11-4.545 3.1-2.846 1.968-5.678 2.252-8.637.397-2.548-1.572-5.083-3.13-7.49-4.7-1.416-.85-2.832-1.714-4.233-2.564-.425-.283-.991-.424-1.416-.283-.566 0-.991.283-1.416.708-1.133.991-2.265 1.827-3.412 2.676-2.988 2.535-6.102 3.228-9.628 1.105-1.416-.85-2.832-1.289-4.106.127-.283.283-.708.425-.991.566-3.27 2.818-6.81 2.096-10.336.524-2.265-1.005-4.375-2.138-6.782-3.285-1.982.836-4.106 1.685-6.102 2.804-2.549 1.401-4.673.552-6.655-.878-4.092-2.846-8.042-5.975-12.006-9.104A15 15 0 0 1 .41 42.739c-.99-1.84 0-3.681 1.005-5.239 2.138-3.384 4.701-6.499 7.108-9.6 1.133-1.557 2.988-1.967 4.828-2.392h1.274c6.372-.255 12.743-.368 18.973-.779 5.097-.269 10.194-.665 15.291-1.076h.567c5.946-.255 11.893-.382 17.981-.637 4.814-.128 9.628-.397 14.3-.651 3.398-.128 6.797-.397 10.195-.524 3.115-.27 6.088-.538 9.486-.822C107.124 10.133 116.072 2.954 128.39.73c12.191-2.223 23.079.651 32.678 8.325 18.732-11.68 40.395-10.335 55.63 3.172 2.69-.835 5.239-1.685 7.943-2.237 6.513-1.67 12.318.042 17.826 3.469 4.658 3.129 8.042 7.815 9.868 13.068.566 1.558.708 1.7 2.266 1.289 2.123-.411 4.247-.411 6.371.028 5.522.722 10.18 3.299 15.136 5.578 1.84.85 3.681 1.714 5.507 2.705.708.424 1.558.566 2.549.58s1.699-.283 2.407-.835c2.973-1.544 6.102-2.945 9.217-4.078 6.952-2.803 13.89-5.607 20.7-8.566 4.106-1.685 8.226-3.511 12.474-5.196 1.274-.425 2.548-.552 3.964-.41 3.398.721 6.796 1.585 10.18 2.449l12.446 3.157 5.663 1.43 9.755 2.45c.425.141.992.283 1.416.566 3.398 1.147 4.517 3.27 3.653 6.669-.863 3.398-1.586 6.513-2.449 9.755-2.591 10.322-5.168 20.516-7.759 30.837-.581 2.266-1.005 4.531-1.586 6.938 0 .566-.283 1.133-.566 1.7-.283.99-1.005 1.981-1.855 2.548-.849.566-1.982.835-3.115.835s-2.265-.156-3.398-.439c-2.973-.439-5.805-1.005-8.778-1.586-2.549-.439-4.956-1.005-7.504-1.444-4.248-.722-8.496-1.586-12.587-2.308-2.266-.439-4.39-1.005-6.655-1.444a10.8 10.8 0 0 0-2.973-.439c-.85 0-1.699 0-2.407-.439-.708-.283-1.416-.85-1.983-1.43-2.392-2.562-4.799-5.11-7.05-7.815-2.252-2.704-4.234-4.97-6.344-7.533-2.109-2.562-4.658-5.252-7.051-7.815-1.968-2.28-3.95-4.687-6.059-7.108-.708-.85-1.558-1.557-2.676-1.996-4.106-.722-7.49-2.719-11.03-4.432-1.982-1.005-3.95-2.138-6.074-3.001-3.115-1.147-6.074-2.436-9.472-2.01-.991.14-2.124.41-3.115.693-1.189 15.716-14.98 29.535-32.239 25.797-.567.708-1.275 1.416-1.997 2.251-2.421 2.393-4.545 5.225-7.108 7.193-.707.424-1.274 1.132-1.571 1.982a3.93 3.93 0 0 0 0 2.548c.141 1.84.411 3.682.552 5.522.269 5.805-1.175 11.469-3.879 16.552-2.138 4.233-4.984 8.056-8.68 11.157-3.553 3.1-7.801 5.352-12.346 6.895a25.3 25.3 0 0 1-10.194 1.656h-5.805c-2.69-.17-5.239-.892-7.632-2.024a96 96 0 0 0-7.065-3.002c-3.256 1.685-6.244 3.228-9.217 4.644-1.558.708-3.257 1.119-4.814.977-1.699 0-3.257-.722-4.673-1.572-1.84-1.132-3.667-1.996-5.79-3.27-.567.849-1.133 1.557-1.714 2.124-.991 1.415-1.996 2.817-3.129 4.091-.708.85-1.699 1.558-2.831 1.827-1.133.269-2.266.269-3.257 0-2.549-.864-5.097-1.289-7.362-1.869l.283.425zM81.808 50.937c1.7-1.133 3.412-2.393 5.111-3.526 2.55-1.543 5.112-2.393 8.213-1.529 2.69.58 5.38 1.147 8.212 1.444 1.557.283 3.114.722 4.814 1.005.991.142 1.84.567 2.69 1.147.849.567 1.416 1.274 1.968 2.138 2.251 3.13 5.083 5.678 8.325 7.674 5.791 3.412 12.587 4.857 19.242 4.177 2.407-.127 4.672-.694 5.819-3.242 0-.284.283-.425.425-.708-1.119-3.257-2.521-6.386-2.931-9.784 0-.708-.425-1.274-.991-1.84-1.558-1.275-2.818-2.846-3.526-4.687-.708-1.84-1.118-3.823-.977-5.805 0-2.124.581-4.248 1.586-6.088s2.421-3.526 4.12-4.658c1.699-1.416 3.837-2.11 5.961-2.096 2.548.297 5.38.014 7.49 2.294 3.964 1.571 5.083 5.253 5.635 8.934.835 5.663-3.582 12.87-9.118 14.13-.566.142-.991.425-1.416.85l.977 2.124c2.548-1.26 4.97-2.677 7.518-3.795.991-.283 1.841-.85 2.549-1.685.708-.708 1.132-1.699 1.43-2.69 1.713-5.239 1.741-10.76.339-16-1.26-4.813-4.219-9.216-8.169-12.204-.566-.425-1.133-.85-1.557-1.416-.567-1.133-1.558-1.84-2.677-2.421-4.658-2.704-9.896-4.148-15.135-4.446-3.115-.156-6.371.255-9.345 1.246-8.226 2.379-14.611 7.023-18.038 14.938-.566 1.557-1.571 2.831-2.987 3.808a7.87 7.87 0 0 1-4.531 1.402c-3.681.127-7.362.396-11.044.524-4.389.269-8.778.396-13.309.665L56.96 31.865c-3.398.127-6.796.538-10.194.524-2.407 0-4.673.269-6.938.255-2.266-.014-4.956.41-7.363.396-4.672.27-9.486.397-14.158.651h-2.549c-.991 1.26-1.996 2.252-2.846 3.243-.99 1.132-1.855 2.407-2.138 3.808l9.317 6.825c1.699-.85 3.256-1.402 4.686-2.251.991-.567 1.982-.836 3.115-.977s2.124.155 3.115.58c2.973 1.43 5.933 2.719 9.189 4.135.708-.425 1.416-.85 2.265-1.26 1.275-.709 2.407-1.544 3.696-2.252.708-.425 1.557-.708 2.407-.694s1.699 0 2.407.44c1.416.707 2.69 1.288 4.233 1.996.425-.283.708-.708 1.133-.992 2.124-1.401 4.12-2.959 6.385-4.36.567-.425 1.133-.708 1.841-.708s1.416 0 1.982.297c1.416.425 2.832 1.005 4.248 1.572 3.808 2.42 7.631 4.842 11.723 7.405l-.708.424zm18.166 69.731c2.562-2.252 4.969-4.234 7.249-6.627.991-.991 2.124-1.826 3.554-2.109s2.832-.269 4.106.156c1.699.424 3.398.58 5.097 1.146.283 0 .425.142.708.142h.708c.283 0 .425-.283.566-.425.142-.141.283-.425.425-.566.85-1.558 1.855-2.973 2.846-4.375 1.996-2.959 4.686-3.526 7.518-2.237 2.407 1.147 4.8 2.279 7.065 3.568.708.566 1.699.849 2.549.863.991 0 1.841-.141 2.69-.552.991-.283 1.841-.849 2.69-1.401 2.138-2.11 4.97-2.393 7.377-3.37.708-.283 1.557-.283 2.265-.269.85 0 1.558.283 2.124.722 2.407 1.288 4.941 2.421 7.49 3.426 2.265.864 4.531 1.289 6.796 1.444 6.513.312 12.884-1.656 18.137-5.592 4.262-3.101 7.533-7.476 9.388-12.431 1.005-3.257 1.585-6.655 1.599-9.911.312-6.797-2.222-12.474-6.456-17.444-5.777-6.952-13.847-9.684-22.611-9.996-2.832 0-5.522.41-8.212 1.246-3.257.835-6.244 2.379-8.793 4.786 3.667 5.394 8.609 8.523 14.683 10.958.849-.849 1.557-1.84 2.279-2.534 1.133-1.274 2.563-2.11 4.262-2.817 1.557-.567 3.256-.977 4.956-.836 3.256 0 6.513 1.161 8.905 3.427 2.393 2.28 4.092 5.11 4.786 8.367a9.7 9.7 0 0 1 .269 4.531c-1.289 5.38-4.276 9.33-10.095 10.86-1.841.424-3.681.552-5.522.269a14.5 14.5 0 0 1-5.239-1.855 17 17 0 0 1-4.092-3.695c-1.132-1.558-1.826-3.115-2.251-4.97-.141-.85-.566-1.7-1.118-2.265-.567-.708-1.275-1.133-2.124-1.43-4.673-1.714-9.048-4.56-12.573-8.113-.991-.992-1.968-1.997-2.959-2.988-1.43 2.549-2.705 5.225-3.568 7.915-.864 2.973-.453 5.946-1.02 9.061-3.256 1.26-6.668 2.52-9.925 3.78-10.916 4.63-21.974 8.552-33.032 12.347-8.792 3.228-17.712 5.734-26.788 7.83-3.398.693-6.527 2.661-8.651 5.352-.991 1.132-1.996 2.251-2.987 3.525-.142.425-.284.991-.425 1.416l16.41 4.021c.99-.85 1.84-1.699 2.704-2.534 3.412-3.526 6.527-3.512 10.336-1.799 1.699.708 3.398 1.289 5.366 2.138l.566-.141zm67.905-104.816c.283.424.283.707.566.99.425.567.85 1.133 1.133 1.841 4.785 7.943 6.456 16.453 4.007 25.642v2.123c15.008-.226 25.74 6.754 33.768 18.817 2.69-1.402 4.97-3.525 6.4-6.201-3.101-2.422-5.649-5.395-7.476-8.807s-2.945-7.235-3.072-11.058c-.68-8.212 2.463-14.852 7.15-21.068-9.302-9.94-30.824-11.015-42.32-2.138l-.142-.141zM333.931 27.22c-4.021 14.994-7.9 29.846-11.78 44.84l34.802 6.357c3.597-14.286 7.037-28.43 10.634-43-10.464-3.157-21.224-5.167-31.688-8.183h-1.982zm-9.642 3.087c-2.831.41-28.784 11.086-30.625 12.629 6.768 7.816 13.677 15.631 20.445 23.29.425-.282.567-.424.708-.566 3.158-11.595 6.173-23.333 9.472-35.368zM223.098 18.896c.283.708.566 1.274.849 1.84 3.809 5.82 4.913 12.474 5.31 19.27-.015 3.965-.595 7.929-2.025 11.738-.425.85-.567 1.699-.297 2.548 7.645 1.586 17.726-6.442 18.321-16.211-2.124-.44-3.823-1.43-4.234-3.837-.41-2.832 1.572-3.965 3.696-4.8-1.685-5.239-4.786-9.076-10.01-10.803-3.823-1.43-8.071-1.303-11.752.099l.142.142zm-5.084 32.678c1.431-2.549 2.28-5.225 2.436-8.057.878-6.088-.382-12.318-3.469-17.712a3.3 3.3 0 0 0-.991-.991c-3.271 3.809-4.842 8.764-4.446 13.861.411 4.956 2.662 9.642 6.47 13.055zm-38.483 30.865c3.101 2.705 6.216 2.577 7.929-.396h-3.823c-1.274-.014-2.831-.595-4.106.396M153.097 34.5c-.708 1.557-1.288 2.973-1.996 4.516 0 .142-.142.425-.283.708v.708c0 .283.141.425.283.708.141.141.283.283.566.425 2.832-1.685 3.412-4.234 1.303-6.938l.141-.142z"/><path fill="#102185" d="M358.468 51.517c-.311 6.371-2.732 11.596-8.268 14.98a6.43 6.43 0 0 1-3.115.835c-.85 0-1.699 0-2.407-.58s-1.274-.992-1.558-1.841a3.93 3.93 0 0 1 0-2.549c.284-.85.708-1.557 1.289-2.265.424-.425.991-.708 1.557-.991 3.979-2.251 4.701-7.915 3.441-11.171-.425-.991-.694-2.124-.836-3.257 0-.85.142-1.699.581-2.407s1.132-1.274 1.982-1.401c.85-.283 1.699-.425 2.549 0 .849.283 1.557.708 2.123 1.43 1.544 2.124 2.393 4.545 2.521 7.235v2.124l.127-.142zM332.969 58.087c.155-2.265 1.854-3.398 4.403-3.384 1.133 0 2.124.58 2.973 1.289.708.85 1.133 1.84 1.119 2.973s-.439 2.124-1.147 2.973c-.708.85-1.841 1.275-2.973 1.26a4.4 4.4 0 0 1-1.841-.424c-.566-.284-1.133-.708-1.416-1.133-.425-.425-.708-.991-.85-1.557-.141-.567-.283-1.275-.283-1.841V58.1zM341.633 50.328c-2.124.41-4.375-2.421-4.375-4.262 0-2.123 2.28-4.233 4.262-4.092s4.233 2.28 4.233 4.12c0 2.55-1.713 4.39-4.12 4.376z"/></svg>