<svg xmlns="http://www.w3.org/2000/svg" width="289" height="310" fill="none" viewBox="0 0 289 310"><path fill="#102185" d="M30.235 104.106c-.212-6.13-.212-11.85-.368-17.698-.028-3.002-.184-5.989-.042-8.863.184-4.46 1.869-6.584 6.513-7.136 3.086-.467 6.088-.482 9.245-.397 21.252.383 42.335.638 63.445 1.034 1.728.028 3.568-.113 5.72 0 .708-3.837 1.303-7.504 2.039-11.185.581-2.804 1.02-5.593 1.614-8.269 1.048-4.46 3.101-6.046 7.731-5.748 6.046.24 11.978.623 18.335.962.326-1.628.68-3.114 1.02-4.587 1.911-12.035 3.823-24.055 5.876-36.104.056-.58.226-1.317.424-1.926.977-3.016 3.314-4.644 6.117-4.078 1.345.369 2.449 1.062 3.2 2.237.75 1.176 1.104 2.549.736 3.894-.354 3.341-1.147 6.612-1.671 9.84-1.741 10.28-3.369 20.417-5.196 31.135l10.421.722c3.327.213 6.654.425 9.982.651 5.21.354 6.555 1.728 7.504 7.037l2.506 16.665 18.661.34c15.362.269 30.724.524 46.228.764 5.168.085 6.499 2.308 5.706 7.448-.354 3.341-.283 6.626-.085 9.897-.042 4.445.042 8.863.085 13.875l10.817.524c5.182.227 10.209.326 15.447.821 4.347.354 6.018 1.954 6.23 6.216.241 8.268.227 16.721.184 25.032.071 14.739 0 29.492-.056 44.26-.057 5.309-1.473 7.377-6.825 7.9-7.037.779-14.102 1.416-21.167 2.039l-3.823.283c-.071 4.305-.042 8.312 0 12.318.071 6.145.411 12.248.481 18.392.085 3.427-2.576 5.692-6.328 5.536-5.466-.184-11.058-.198-16.807-.325-.679 10.704-1.26 21.096-1.925 31.927l10.916.213 1.118-.17c6.287-.085 8.482 2.152 8.453 8.608 0 3.724-.297 7.49-.481 11.101-.326 7.348-.765 14.866-1.232 22.229-.411 5.79-2.379 7.943-8.127 7.815-13.196-.156-26.392-.325-39.588-.481l-50.504-.694c-16.778-.198-33.697-.368-50.489-.552-18.506-.227-37.011-.439-55.39-.821-2.718-.015-5.45-.043-8.055-.213-5.508-.453-8.283-3.624-8.1-9.09.525-9.811.751-19.722 1.417-29.563.24-2.18.948-4.148 1.954-6.017.65-1.388 1.755-2.563 3.242-3.214 1.33-.637 3.016-.878 4.474-.68 5.508.453 11.001.779 17.075 1.147-.113-10.293-.198-20.303-.453-30.568-4.02-.114-7.914-.241-11.68-.538-2.903-.284-5.848-.836-8.68-1.558-3.426-.92-4.927-3.27-5.04-6.824-.17-5.848-.354-11.837-.51-17.684-.17-1.119-.057-2.28-.113-3.568l-18.42-5.381c-2.11-.679-4.192-1.231-6.301-1.911-4.375-1.487-5.593-2.874-5.706-7.447-.382-10.11-.75-20.219-1.02-30.484-.368-11.978-.608-23.97-.948-35.793-.227-6.272 1.345-8.226 7.603-9.443 7.377-1.402 14.598-2.917 22.399-4.376l.227.538zm215.24-20.685L39.807 80.178c1.231 46.2 2.42 92.13 3.695 138.613l203.177-.963c-.482-45.024-.864-89.355-1.345-134.393h.141zM42.497 268.203c-.51 9.954-.793 19.454-1.317 29.266l199.934 2.237c.524-9.812.949-19.326 1.487-29.152-1.727-.029-3.186-.241-4.771-.283-17.161.155-34.434.467-51.623.467-24.324.085-48.776.325-73.129.283-16.198-.142-32.325-.722-48.593-1.274-7.05-.227-14.328-.991-22.017-1.699v.141zm181.542-40.082-155.235.764c.184 10.718.467 21.125.693 31.248 11.072 2.195 144.659.255 152.574-.354a7337 7337 0 0 1 1.841-31.489l.113-.155zm54.256-48.55c-.057-21.323-.085-42.377.014-63.573l-22.328-.934c.255 22.583.396 44.472.595 66.63l21.733-2.123zm-245.978 8.707c.07-28.076-1.459-70.51-2.761-73.469l-19.2 3.752c.666 21.521 1.26 42.618 1.87 63.728l19.95 6.018h.14zM172.884 58.714l-44.911-2.535c-.921 5.296-1.784 10.01-2.875 15.179l49.811.806-2.025-13.436z"/><path fill="#102185" d="m105.177 183.309 69.292.878c.623-2.534 1.105-5.04 1.6-7.405.255-1.189.524-2.223.779-3.412.396-1.204 1.09-2.308 2.265-3.058 1.034-.722 2.435-.935 3.625-.694 1.317.226 2.308 1.09 3.044 2.124.736 1.033.934 2.435.566 3.78-.708 4.828-1.713 9.571-2.86 14.314-.92 3.427-3.001 4.744-7.037 4.644-6.725 0-13.337-.141-19.949-.283l-50.787-.651c-1.416.071-2.86 0-4.191-.227-1.147.029-2.365-.495-3.2-1.231a4.4 4.4 0 0 1-1.727-2.889c-1.161-5.833-2.45-11.511-3.483-17.372-.1-.694-.213-1.402-.156-1.983.17-.736.368-1.345.722-1.826.34-.623.835-1.133 1.515-1.373.651-.383 1.203-.609 1.897-.722.694-.114 1.402-.213 1.996-.015.737.17 1.346.368 1.855.864.482.354 1.006.991 1.374 1.515s.608 1.204.58 1.911c.906 4.163 1.26 8.397 1.982 13.168l.284-.043zM140.05 164.889l-6.443.977c-5.875.892-8.155-.92-8.481-6.881-.311-4.97-.354-9.967-.538-14.951-.155-7.703-.311-15.419-.623-23.107-.056-5.14 2.025-7.462 7.051-7.363 5.027.1 10.209.326 15.419.68 4.488.326 6.329 2.053 6.556 6.456.311 8.694.339 17.415.354 26.151.042 3.143.07 6.145.113 9.288.085 5.281-1.628 7.264-6.669 8.014l-6.442.977-.326-.241zm-5.876-40.932c.326 10.689.722 20.94 1.005 31.347l7.702-1.161c-.071-10.01.284-19.95-.368-30.016l-8.325-.17zM95.054 112.389c.694-.099 1.274-.056 1.883.142s1.203.396 1.713.892c.481.354.991.849 1.218 1.387.368.524.467 1.218.552 1.784.184 1.26-.326 2.62-1.034 3.597-.85.991-1.883 1.713-3.129 2.053a4.57 4.57 0 0 1-3.596-1.034c-.991-.85-1.713-1.883-1.912-3.143a4.52 4.52 0 0 1 1.034-3.597c.85-.991 1.883-1.713 3.143-1.911l.114-.156zM188.543 119.922c.184 1.26-.198 2.464-.92 3.426-.708.963-1.756 1.699-3.016 1.883s-2.605-.184-3.568-.892c-.991-.849-1.713-1.883-2.053-3.129a4.57 4.57 0 0 1 1.034-3.596c.849-.991 1.883-1.713 3.171-1.77a4.57 4.57 0 0 1 3.596 1.034c.992.849 1.714 1.883 1.77 3.171v-.141z"/></svg>