<svg xmlns="http://www.w3.org/2000/svg" width="352" height="254" fill="none" viewBox="0 0 352 254"><path fill="#102185" d="M246.615 234.482c.042 2.888.057 5.635-.071 8.41 0 1.303-.014 2.605-.198 3.809-.496 3.723-2.421 5.592-6.131 5.819-6.612.269-13.125.226-19.652.184-4.361-.071-6.414-2.237-6.683-6.81a686 686 0 0 1-.623-11.596c-15.135-.354-30.158-.156-45.265-.368-15.107-.213-29.988-.043-44.94-.156a832 832 0 0 1-1.132 12.842c-.609 5.196-2.45 6.753-7.533 6.697-5.833-.184-11.78-.213-17.613-.397-5.395-.141-7.448-2.308-7.448-7.66.029-1.883.199-3.808.184-5.833-.014-2.025.114-3.497.184-5.833-2.138.17-4.332.07-6.527-.043-2.053-.141-4.035-.58-5.79-1.359-3.554-1.699-4.517-4.814-4.46-8.594.056-12.474.127-24.934.07-37.237.1-28.417.029-56.932.128-85.334.056-27.241-.014-54.454.014-81.837.028-1.883.028-3.922.057-5.805.028-5.946 3.822-9.812 9.939-9.67 7.136.198 14.314.538 21.479.864 48.691 2.095 97.34 4.063 146.032 6.158 1.444-.028 2.775.128 4.149.411 1.67.368 3.157 1.204 4.176 2.577s1.515 3.002 1.43 4.616c.425 13.38.68 26.646 1.105 40.026.453 18.873 1.047 37.719 1.458 56.464.51 17.132.878 34.278 1.416 51.552.453 18.873 1.048 37.718 1.458 56.464.142 1.997 0 4.05-.127 6.117-.425 3.426-2.294 4.842-5.734 4.998-4.333.071-8.765.297-13.522.453l.17.113zM83.705 14.415c-.028 69.674-.099 139.221-.24 209.065l172.042.539c-1.742-67.848-3.54-135.243-5.338-202.638L83.578 14.585l.113-.17zm29.111 219.529-11.894-.043c-.793 4.375-.736 5.961.029 8.835l11.058.227c.339-3.115.467-5.89.807-9.005zm111.612.396c-.736 2.619-.028 5.225 0 8.113l11.724-.071c-.043-2.888.028-5.224.042-7.829l-11.638-.241-.142.028zM323.057 98.644c-.962.212-1.968.283-2.888.042s-1.869-.608-2.704-1.146-1.43-1.289-1.926-2.195c-.495-.906-.835-1.855-.878-2.704-.425-8.014-2.676-15.787-6.612-22.612-2.308-3.992-5.847-6.994-10.208-8.367-2.676-1.02-5.437-1.728-8.099-2.605-2.478-.765-4.417-2.38-4.856-5.04-.269-1.247.014-2.606.637-3.753s1.444-2.053 2.591-2.733c2.039-1.302 4.007-2.888 6.046-4.205 2.18-1.33 3.95-3.171 5.394-5.224s2.379-4.418 2.874-6.853c1.529-5.692 1.968-11.723 1.43-17.542-.226-2.407-.325-4.857-.141-7.363.198-3.809 1.656-5.72 4.601-6.201 1.529-.326 3.158-.1 4.644.736a6.5 6.5 0 0 1 3.186 3.37c1.345 2.902 2.449 5.989 3.667 8.92a27.65 27.65 0 0 0 8.693 11.454c5.735 4.417 11.653 8.353 18.916 9.826 4.404.934 5.664 5.437 2.832 9.09-2.364 3.115-5.069 6.017-7.575 9.16-9.104 11.525-15.319 24.31-16.155 39.262-.198 1.784-.694 3.483-1.529 4.97-.269.779-1.586 1.359-2.11 1.614l.17.113zm-8.736-74.021c-.594 3.313-1.175 6.626-2.067 9.868-1.033 3.271-2.506 6.485-4.36 9.345-2.011 2.747-4.092 5.225-6.499 7.49 9.104 3.256 14.838 9.684 18.689 18.845 4.871-10.322 10.123-19.567 17.458-27.807-9.119-4.701-16.948-10.11-23.263-17.869l.028.142zM46.638 114.53c-1.104.24-2.138.17-3.228-.17s-1.926-.892-2.662-1.6c-2.903-2.705-5.805-5.409-8.807-7.943-3.568-3.143-8.183-5.04-12.912-5.465-3.668-.227-7.42-.142-11.13.084-2.718.156-5.224-.028-6.894-2.42-1.671-2.393-1.048-4.843.34-7.165 1.387-2.322 2.76-4.658 4.318-6.867 5.55-7.858 7.957-17.5 6.612-27.071-.297-1.387-.184-2.86-.043-4.19.071-1.035.44-1.983 1.119-2.847.708-.736 1.586-1.359 2.563-1.571.976-.213 2.138-.17 3.086.198.949.368 1.827 1.062 2.308 1.968 4.007 5.805 10.039 8.269 16.523 9.472 4.474.623 9.203 1.062 13.706 1.104 4.247.241 6.88 3.724 5.422 7.66-.155.609-.48 1.119-.806 1.628-5.296 7.66-6.301 16.424-6.556 25.316-.156 4.672.382 9.189.51 13.79.07 3.03-1.727 5.437-3.667 5.862l.198.241zm-2.93-43.835c-3.895-.61-7.32-1.034-10.69-1.898s-6.585-2.35-10.223-3.737c.127 8.665-3.809 15.885-7.972 23.446 9.388-.141 16.906 3.157 24.127 8.41.665-8.976.85-17.556 4.63-26.207l.141-.029z"/><path fill="#102185" d="M93.616 207.383c-.198-3.582-.382-7.164-.41-10.633l-.977-125.374c-.114-12.573-.213-25.16-.326-37.733-.07-1.005 0-2.025.071-3.058.354-3.696 2.42-5.593 6.06-5.508l96.491 2.79c12.219.254 24.311.551 36.529.806 3.498.114 5.692 1.53 7.193 5.112a29.2 29.2 0 0 1 2.095 9.684c.949 31.956 1.912 63.898 2.86 95.854.652 22.455 1.289 44.911 1.94 67.366.043 2.889-.807 5.678-2.492 7.929-1.543 2.223-3.837 3.002-6.031 1.586a11.1 11.1 0 0 0-6.556-1.487c-17.132-.212-34.306-.566-51.438-.779-16.283-.254-32.551-.509-48.777-.481-8.693 0-17.401.566-26.207.722-6.768.156-7.646-.524-10.01-6.824zm10.152-3.936a87 87 0 0 0 3.667.226c6.499-.099 13.04-.637 19.567-.594 17.557.127 35.1.255 52.685.51 17.004.24 33.853.509 50.688.651 1.161.042 2.435-.099 4.021-.142a70764 70764 0 0 0-5.012-164.905l-127.188-3.412c.51 56.082.935 111.768 1.416 167.708l.142-.028z"/><path fill="#102185" d="M124.525 160.007c-1.798-8.311-1.204-16.976 1.869-24.876s8.382-14.838 15.305-19.666a42.5 42.5 0 0 1 23.617-8c8.495-.241 16.92 1.855 24.112 6.385 7.179 4.39 13.083 10.945 16.608 18.576 3.568 7.774 4.828 16.34 3.597 24.721s-4.899 16.269-10.634 22.569c-5.734 6.301-13.026 10.775-21.238 12.984-28.331 6.98-49.399-12.814-53.25-32.693zm61.505-35.863c-9.812-6.57-20.006-8.141-30.583-4.12a29 29 0 0 0-11.029 6.583c-3.115 2.988-5.706 6.442-7.448 10.449.538.468.737.708 1.006.652 8.75 2.308 17.514 4.63 26.434 7.036.778.269 1.501.255 2.166-.028.694-.156 1.288-.708 1.897-1.274 2.676-3.044 5.522-5.975 8.34-9.033 3.058-3.271 5.961-6.641 9.231-10.251zm-51.552 23.574c-3.384 18.548 15.391 39.12 35.411 35.241l-1.048-4.843c-1.43-6.64-2.86-13.28-3.879-20.02-.184-.835-.354-1.657-.892-2.124-.566-.609-1.373-1.005-2.124-1.132l-17.486-4.489c-3.228-.892-6.442-1.656-9.982-2.633m58.943-15.461c-.283.056-.666.283-.906.481-5.522 5.975-10.902 11.907-16.424 17.882-.567.708-1.006 1.374-1.246 2.294-.241.92-.198 1.784.127 2.577 1.558 7.192 2.804 14.314 4.219 21.535.269 1.246.652 2.322 1.19 3.511 19.864-8.636 24.976-33.924 13.04-48.295zM192.656 66.236c2.62 13.479-5.139 25.882-18.151 28.685-3.186.694-6.315.935-9.486.312-3.143-.482-6.159-1.714-8.849-3.455a25.7 25.7 0 0 1-6.938-6.612c-1.883-2.634-3.087-5.564-3.766-8.75-2.931-13.564 5.167-25.74 17.896-28.487 13.564-2.931 25.641 4.757 29.266 18.165zm-17.627 17.698c6.98-3.242 10.265-11.483 6.569-17.203-2.293.78-4.785 1.317-6.598-1.033-1.925-2.195-.991-4.573 0-6.669-5.96-2.775-11.411-1.883-15.376 2.591 2.11 1.713 3.412 3.752 2.294 6.598-1.232 3.016-4.007 2.888-6.655 2.733-.608 5.918 2.832 11.114 8.977 13.422.538-2.874 1.557-5.55 4.998-5.706 3.441-.17 4.616 2.62 5.607 5.168l.17.113z"/></svg>