<svg xmlns="http://www.w3.org/2000/svg" width="277" height="245" fill="none" viewBox="0 0 277 245"><path fill="#102185" d="m194.043 109.792-4.842 15.66c-.297.991-.722 1.968-1.019 2.959-.595 2.407-1.742 4.516-3.611 6.329-1.713 1.685-3.993 2.789-6.4 3.185-4.545 1.091-8.934 1.884-13.479 2.832-1.557.269-3.256.538-5.111.935-.311 3.256-.637 6.513-.807 9.613-.028 2.832-.057 5.664-.226 8.495-.015 1.699-.468 3.54-1.615 4.942-1.005 1.401-2.576 2.378-4.134 2.931-4.12 1.515-8.098 3.171-12.233 4.686-.991.269-1.713.694-2.421 1.529-.581.708-1.005 1.685-1.02 2.535-.764 4.941-1.798 9.896-2.704 14.696-.156 1.275-.736 2.535-1.6 3.526-.863.991-1.855 1.826-3.143 2.378-5.409 2.917-10.548 6.258-15.532 9.897-10.562 7.533-20.969 15.221-31.39 22.895-9.274 6.838-19.808 11.681-31.021 14.116-5.82 1.217-11.894.297-17.104-2.733-4.36-2.308-8.297-5.04-11.95-8.339-7.292-6.301-13.309-14.017-17.74-22.555-8.184-16.509-5.89-32.055 4.587-46.681 6.47-8.99 15.178-15.702 24.154-21.832 6.414-4.46 13.111-8.495 19.54-12.97 2.845-1.953 5.422-4.332 8.14-6.428.708-.552 1.572-.977 2.422-1.246 1.855-.693 3.837-1.373 5.55-2.35 65.399-39.106 130.798-78.07 196.055-117.176.991-.553 1.996-1.119 3.129-1.388 3.837-.949 6.923 1.062 7.164 4.885.326 9.91.496 19.822.538 29.605 0 1.275-.311 2.549-1.034 3.668-.58 1.132-1.585 2.11-2.718 2.803-3.851 2.79-7.702 5.578-11.695 8.226a11.7 11.7 0 0 0-3.285 3.228 11.2 11.2 0 0 0-1.741 4.234c-.892 3.808-2.053 7.348-3.229 11.015-1.316 4.233-4.035 6.187-8.565 6.57-4.389.24-8.368 1.047-12.616 1.43-.991 0-1.982.41-2.704 1.104s-1.289 1.543-1.586 2.534c-1.897 5.65-4.219 11.002-5.975 16.65-.736 2.535-2.18 4.786-4.177 6.613-1.996 1.826-4.417 3.072-6.98 3.61-5.253 1.36-10.506 2.294-16.325 3.512l.425-.142zm71.657-96.25L73.355 128.496l47.361 61.802c1.274-.552 2.421-1.387 3.284-2.52.864-1.133 1.303-2.535 1.459-3.95.467-4.248 1.642-8.34 2.251-12.432.156-1.699.878-3.242 1.883-4.516 1.005-1.26 2.435-2.237 4.134-2.79 3.837-1.373 7.674-3.029 11.511-4.417 1.133-.269 2.138-.821 2.705-1.812.722-.977 1.019-2.11.877-3.243.057-4.814.241-9.486.581-14.3.496-6.513 2.35-8.183 8.736-8.976 5.111-.652 10.067-1.883 15.178-2.676 1.416.014 2.846-.68 3.979-1.657 1.132-.977 1.868-2.251 2.024-3.809 1.473-5.79 3.228-11.298 4.857-17.075.736-2.534 1.755-4.941 4.446-5.762 1.415-.411 2.987-.822 4.544-1.09 4.687-.95 9.359-1.742 13.904-2.69 1.275-.27 2.28-.822 3.271-1.671.864-.836 1.571-1.969 1.869-3.101 2.194-6.343 4.658-12.417 6.853-18.76.439-1.84 1.444-3.384 2.874-4.644s3.27-1.954 5.125-2.067c5.395-.652 10.917-1.586 16.453-2.52 1.175-4.234 2.492-8.468 3.525-12.56.736-3.242 2.761-6.2 5.465-8.155 3.993-2.789 7.986-5.72 11.979-8.509.708-.41 1.288-.977 1.571-1.543.439-.708.581-1.416.453-2.266-.368-5.663-.594-11.327-.807-17.57zM64.52 133.92c-.708.41-1.274.552-1.713.835-7.844 5.154-15.688 10.166-23.376 15.475-7.703 5.296-15.405 11.313-21.153 18.888-7.179 9.415-10.407 19.992-6.272 31.361 4.813 13.083 13.917 22.937 25.3 30.71.992.581 1.97 1.147 3.102 1.444 2.959 1.02 6.074 2.039 9.33 1.232 9.798-2.308 19.044-6.598 27.03-12.601 8.848-6.428 17.697-12.842 26.391-19.27 2.86-2.095 5.564-4.049 8.566-6.428l-47.36-61.802.14.141z"/><path fill="#102185" d="M58.445 200.125c-6.937-.071-15.008-.014-22.767-2.223-3.525-1.034-6.91-3.044-9.43-5.763a11.9 11.9 0 0 1-3.61-6.838c-.538-2.549.057-5.381 1.076-7.632 1.303-2.959 3.172-5.635 5.324-7.872 7.306-7.858 16.282-13.706 24.99-19.709 6.994-4.743 13.351-3.539 17.938 3.582 4.871 7.844 9.317 15.957 13.197 24.212 1.104 2.845 1.5 5.96 1.175 9.075-.029 2.407-.623 4.814-2.053 6.782a10.95 10.95 0 0 1-5.706 4.05c-3.27 1.104-6.67 1.769-10.081 2.166-2.832.538-5.947.368-10.053.609zm-1.741-9.925c4.672-.524 10.491-.737 16.155-1.671 3.54-.524 4.276-2.082 3.454-5.48-.127-.849-.41-1.699-.821-2.562-3.469-6.556-6.938-13.239-10.562-19.652-1.94-3.413-3.356-3.852-6.499-1.487-7.277 5.451-14.414 11.171-21.422 16.905-2.28 1.813-4.857 4.191-3.908 7.462.949 3.412 4.489 4.148 7.59 5.04h.707l15.277 1.303v.142z"/></svg>