<svg xmlns="http://www.w3.org/2000/svg" width="122" height="101" fill="none" viewBox="0 0 122 101"><path fill="#ececf1" d="M95.768 39.115h-.555q-.178-.618-.243-1.259c0-1.953-.03-3.906 0-5.86q.066-.901.243-1.79h.555zM93.858 15.082a8.7 8.7 0 0 1-.575-1.463c-.456-2.216-.858-4.462-1.28-6.668.165.13.442.233.497.392.456 2.573.902 5.156 1.358 7.739M94.677 46.676a6.6 6.6 0 0 1-.243-1.403q.074-2.415.278-4.829c0-.278.327-.535.495-.798zM94.969 28.035v-2.974c-.015.996-.005 1.983 0 2.974M90.656 65.336l1.071-3.258zM91.454 4.016c-.184-.813-.372-1.62-.556-2.434.184.789.372 1.597.556 2.434M89.303 69.386l1.046-2.186q-.526 1.09-1.047 2.186M88.223 72.356l1.04-1.919zM94.434 21.283l-.268-1.636c.897.412.545 1.032.268 1.636M94.697 23.445c-.09-.546-.174-1.09-.263-1.636.897.416.55 1.046.263 1.636M94.166 49.13l.496-1.641c-.164.535-.352 1.085-.496 1.64M94.137 50.73v-1.08c.015.357.01.719 0 1.08M93.592 53.973l.267-1.09zM91.965 5.355l-.496-.838zM93.864 52.352c.089-.278.173-.55.262-.823-.089.273-.173.545-.263.823M93.318 55.321a40 40 0 0 0 .263-.823q-.12.415-.263.823M91.994 6.42v-.54c-.014.184-.004.362 0 .54M93.05 56.675c.09-.188.174-.372.264-.555-.09.183-.174.367-.263.555M91.736 61.553l.496-.57z"/><path fill="#000" d="m61.333 55.153-1.884 3.743c4.12.937 5.16 2.062 5.835 6.28q.248.044.495 0c3.793-.99 6.029 1.116 6.94 4.69a5.7 5.7 0 0 1-.108 3.198c-.382 1.2-.759 2.405-1.254 3.555-1.621 3.753-3.297 7.48-4.958 11.219-.397.897-1.2 1.175-2.057 1.348-2.821.565-5.647 1.11-8.468 1.666l-34.806 6.88c-4.675.928-9.345 1.885-14.03 2.767-.93.15-1.875.172-2.81.064a1.868 1.868 0 0 1-1.735-1.636C1.122 92.18-.146 85.429.012 78.494c.189-7.337 2.023-14.134 6.51-20.043 1.22-1.602 2.716-2.975 4.189-4.591-3.089-4.16-4.571-8.924-3.649-14.283s3.654-9.493 8.125-12.676c-.421-.342-.763-.605-1.09-.887-3.47-3.014-2.87-8.532 1.12-10.411a5.73 5.73 0 0 1 6.346.734c2.057 1.601 2.805 3.777 2.394 6.35-.044.303-.129.605-.203.942 1.343.094 2.637.114 3.916.283 6.296.823 11.036 4 13.881 9.677a17.48 17.48 0 0 1 1.567 12.18c-.03.13-.065.258-.09.392 0 .04.025.084.08.238.59.322 1.25.689 1.918 1.046 3.966 2.137 6.94 5.34 9.534 8.988q.65.748 1.417 1.378c.913-1.909 1.75-3.59 2.514-5.304.09-.386.065-.789-.07-1.16a7783 7783 0 0 0-4.759-20.743c-.991-4.337-1.983-8.665-2.944-13.008-.437-1.983.094-2.895 2.052-3.41 5.3-1.384 10.609-2.718 15.923-4.046Q88.486 5.18 108.28.249c1.21-.303 2.29-.446 3.47.267a3.39 3.39 0 0 1 1.73 2.241c1.314 5.315 2.668 10.624 3.966 15.939q2.221 8.952 4.417 17.916c.496 2.037-.366 3.47-2.449 4.035-3.128.813-6.261 1.607-9.419 2.4q-23.23 5.88-46.471 11.754c-.615.173-1.334.223-2.191.352M109.98 3.595 54.372 17.441c2.28 9.88 4.526 19.577 6.822 29.522.332-.595.555-.967.748-1.358q5.101-10.357 10.198-20.698a7.3 7.3 0 0 1 .724-1.289 1.74 1.74 0 0 1 2.166-.595 1.63 1.63 0 0 1 .927 2.023 8.2 8.2 0 0 1-.679 1.745q-5.562 11.323-11.135 22.646c-.223.46-.43.932-.783 1.695 18.526-4.69 36.72-9.29 54.959-13.945a51055 51055 0 0 0-8.339-33.592M41.716 49.913c-2.727 5.19-6.846 8.666-12.543 10.093-5.78 1.448-11.02.065-15.804-3.47a22.7 22.7 0 0 0-4.204 4.462c-3.862 5.22-5.36 11.189-5.587 17.57-.154 4.292.456 8.516 1.135 12.735.298 1.849.655 3.693.992 5.498 1.403.099 32.352-6.068 33.25-6.589l-4.22-15.393c-.99.496-1.858.917-2.756 1.294-1.1.456-2.116.129-2.553-.768-.436-.898-.064-1.785.902-2.41a2.4 2.4 0 0 1 .357-.183c3.07-1.378 5.716-3.426 8.29-5.518a83 83 0 0 0 6.067-5.71c1.487-1.488 2.94-2.916 4.76-3.967a8 8 0 0 0 .733-.495c-2.459-3.08-5.146-5.677-8.82-7.15m11.898 10.604a2.54 2.54 0 0 0-2.548.535 49 49 0 0 0-3.709 3.322c-2.622 2.662-5.254 5.3-8.363 7.436-1.086.734-1.08.773-.724 2.117q1.815 6.752 3.659 13.504c.198.729.496 1.433.724 2.211.416-.035.773-.03 1.115-.094 6.172-1.22 12.34-2.479 18.516-3.659a1.81 1.81 0 0 0 1.488-1.155c1.22-2.751 2.478-5.478 3.708-8.23.496-1.15.947-2.33 1.343-3.52a4.7 4.7 0 0 0 .347-1.982c-.267-2.137-1.378-2.974-3.291-1.879a16 16 0 0 0-2.216 1.735c-.278.228-.496.54-.769.754a1.76 1.76 0 0 1-2.136.079 1.79 1.79 0 0 1-.695-2.028c.16-.495.496-.991.615-1.487.367-1.053.617-2.144.744-3.252.084-1.814-1.16-2.598-2.88-1.983a2.9 2.9 0 0 0-1.042.6 35 35 0 0 0-2.082 2.27c-.431.496-.733 1.14-1.17 1.651a1.775 1.775 0 0 1-2.414.441 1.88 1.88 0 0 1-.62-2.389q.304-.604.675-1.17c.456-.773.956-1.522 1.348-2.325.18-.48.307-.98.382-1.487zM22.382 29.18c-1.126 1.03-2.053 2.032-3.129 2.83-2.344 1.735-4.749 3.396-7.168 5.032a2.22 2.22 0 0 0-1.031 1.319 15 15 0 0 0-.432 6.276 14.266 14.266 0 0 0 16.36 12.077c7.545-1.18 13.242-7.933 12.85-15.562-.07-1.383-.11-2.846-.575-4.115a14.9 14.9 0 0 0-3.381-5.32 2.67 2.67 0 0 0-1.983-.847 70 70 0 0 1-6.975-.545 39 39 0 0 1-4.492-1.145z"/><path fill="#fff" d="M109.981 3.595c2.781 11.194 5.538 22.309 8.339 33.592-18.239 4.655-36.433 9.256-54.959 13.945.352-.763.56-1.234.783-1.695Q69.717 38.119 75.28 26.79a8.2 8.2 0 0 0 .679-1.745 1.63 1.63 0 0 0-.927-2.023 1.74 1.74 0 0 0-2.166.595 7.3 7.3 0 0 0-.724 1.29q-5.097 10.34-10.198 20.697c-.193.391-.416.763-.748 1.358-2.296-9.945-4.541-19.641-6.822-29.522zM91.817 20.946c.055.263.134.71.253 1.14a67 67 0 0 0 .64 2.197c.99 3.4 1.982 6.806 3.009 10.202.639 2.166 1.417 2.652 3.554 2.122q5.453-1.339 10.832-2.781c1.948-.496 2.479-1.487 1.929-3.42a1718 1718 0 0 0-3.471-12.315c-.629-2.192-1.447-2.638-3.693-2.132-1.884.426-3.773.843-5.657 1.274s-3.767.853-5.636 1.338c-1.304.318-1.785.992-1.745 2.355zm-24.703 1.616c.322-.074.852-.168 1.373-.312l33.374-9.186a5.7 5.7 0 0 0 1.135-.417 1.81 1.81 0 0 0 .962-2.037 1.715 1.715 0 0 0-1.839-1.264q-.674.041-1.319.238a31314 31314 0 0 0-33.354 9.26 7 7 0 0 0-1.393.496 1.66 1.66 0 0 0-.992 1.983c.223.808.873 1.24 2.053 1.22zm19.22 13.678a3.5 3.5 0 0 1-.674.332 1.87 1.87 0 0 0-1.527 2.191c.248.962 1.13 1.537 2.345 1.304a36 36 0 0 0 4.16-1.095c.876-.288 1.695-.893 1.828-1.835a10.75 10.75 0 0 0-1.422-6.846 1.6 1.6 0 0 0-2.048-.555 1.794 1.794 0 0 0-.991 1.983c.079.416.203.828.332 1.338a5.66 5.66 0 0 1-2.856-2.94c-.689-1.487-1.23-3.078-1.784-4.64-.377-1.056-.625-2.156-.992-3.207a1.77 1.77 0 0 0-2.127-1.225 1.86 1.86 0 0 0-1.308 2.097q.03.337.133.66c.452 1.487.873 3.019 1.379 4.506 1.006 3.138 2.409 6.033 5.552 7.932M41.716 49.913c3.673 1.487 6.36 4.07 8.82 7.119a8 8 0 0 1-.735.496c-1.819 1.036-3.291 2.478-4.759 3.965a83 83 0 0 1-6.083 5.736c-2.572 2.092-5.22 4.14-8.288 5.518a2.4 2.4 0 0 0-.357.183c-.992.625-1.314 1.557-.903 2.41.412.852 1.453 1.224 2.553.768.898-.377 1.765-.823 2.757-1.294l4.219 15.393c-.898.496-31.847 6.688-33.25 6.589-.322-1.805-.68-3.649-.992-5.498-.679-4.219-1.289-8.428-1.135-12.736.228-6.38 1.725-12.349 5.587-17.57a22.7 22.7 0 0 1 4.204-4.46c4.784 3.514 10.024 4.897 15.805 3.47 5.71-1.424 9.83-4.899 12.557-10.09"/><path fill="#e6eefe" d="M53.619 60.532a7.3 7.3 0 0 1-.377 1.487c-.391.803-.892 1.552-1.348 2.325a12 12 0 0 0-.675 1.17 1.88 1.88 0 0 0 .62 2.39 1.775 1.775 0 0 0 2.415-.442c.436-.496.738-1.135 1.17-1.65a35 35 0 0 1 2.082-2.271 2.9 2.9 0 0 1 1.04-.6c1.721-.635 2.975.149 2.881 1.983a15 15 0 0 1-.744 3.252c-.138.496-.456.992-.614 1.487a1.79 1.79 0 0 0 .694 2.028 1.76 1.76 0 0 0 2.136-.08c.283-.213.496-.525.769-.753a16 16 0 0 1 2.216-1.735c1.913-1.09 3.024-.258 3.292 1.879a4.7 4.7 0 0 1-.347 1.983 41 41 0 0 1-1.344 3.52c-1.215 2.751-2.479 5.453-3.708 8.23a1.8 1.8 0 0 1-1.487 1.154c-6.177 1.195-12.344 2.44-18.517 3.659-.342.064-.699.06-1.115.094-.253-.778-.526-1.487-.724-2.211q-1.844-6.773-3.644-13.514c-.356-1.344-.361-1.383.724-2.117 3.108-2.117 5.741-4.754 8.363-7.436a49 49 0 0 1 3.709-3.322 2.54 2.54 0 0 1 2.533-.51M22.425 29.18q2.225.707 4.517 1.146c2.314.298 4.642.48 6.975.545a2.67 2.67 0 0 1 1.983.848 14.9 14.9 0 0 1 3.38 5.32c.467 1.268.497 2.73.576 4.114.392 7.65-5.305 14.377-12.85 15.562a14.26 14.26 0 0 1-16.36-12.077 15 15 0 0 1 .432-6.276 2.22 2.22 0 0 1 1.03-1.319c2.42-1.636 4.825-3.297 7.17-5.032 1.08-.798 2.007-1.8 3.147-2.83m4.958 17.401c3.42-.104 5.453-1.229 6.509-4.59a3.25 3.25 0 0 0-.04-1.7 1.65 1.65 0 0 0-1.715-1.24 1.695 1.695 0 0 0-1.576 1.254c-.09.253-.13.52-.209.779a2.2 2.2 0 0 1-2.354 1.79 3.18 3.18 0 0 1-2.27-.992c-.368-.332-.69-.72-1.082-1.017a1.73 1.73 0 0 0-2.34.065 1.675 1.675 0 0 0-.287 2.216 7.84 7.84 0 0 0 5.364 3.435m-4.814-8.76a1.856 1.856 0 0 0 1.795-1.953 1.727 1.727 0 0 0-1.874-1.69 1.804 1.804 0 0 0-1.725 1.869 1.75 1.75 0 0 0 1.8 1.775zm8.235-2.438a1.76 1.76 0 0 0-1.765-1.82 1.795 1.795 0 0 0-1.346 3.034 1.78 1.78 0 0 0 1.266.54 1.824 1.824 0 0 0 1.84-1.755z"/><path fill="#000" d="M91.832 20.926c0-1.363.456-2.032 1.76-2.374 1.869-.496 3.758-.902 5.637-1.339s3.772-.848 5.656-1.274c2.246-.496 3.064-.06 3.693 2.132q1.77 6.152 3.471 12.314c.545 1.954 0 2.905-1.929 3.42a548 548 0 0 1-10.852 2.782c-2.136.53-2.915.045-3.554-2.122-.992-3.396-1.983-6.801-3.01-10.202-.218-.729-.44-1.488-.639-2.196a11 11 0 0 1-.233-1.14m13.385-1.289-9.419 2.152 3.277 11.08 9.176-2.38zM67.113 22.542c-1.18 0-1.83-.411-2.068-1.239a1.66 1.66 0 0 1 .992-1.983 7 7 0 0 1 1.393-.496q16.671-4.64 33.354-9.26a5.8 5.8 0 0 1 1.318-.238 1.71 1.71 0 0 1 1.84 1.264 1.812 1.812 0 0 1-.962 2.037 5.7 5.7 0 0 1-1.135.417L68.471 22.23c-.506.129-1.036.238-1.359.312M86.334 36.24c-3.143-1.909-4.546-4.804-5.602-7.932-.496-1.487-.927-3.004-1.378-4.506a3 3 0 0 1-.134-.66 1.86 1.86 0 0 1 1.309-2.097 1.77 1.77 0 0 1 2.127 1.225c.391 1.05.639 2.151.991 3.207.555 1.562 1.096 3.138 1.785 4.64a5.66 5.66 0 0 0 2.855 2.94c-.129-.495-.253-.922-.332-1.338a1.795 1.795 0 0 1 .992-1.983 1.6 1.6 0 0 1 2.047.555 10.75 10.75 0 0 1 1.423 6.846c-.134.942-.952 1.547-1.83 1.835a36 36 0 0 1-4.159 1.095c-1.215.233-2.097-.342-2.345-1.304a1.87 1.87 0 0 1 1.527-2.19q.38-.126.724-.333M27.384 46.581a7.84 7.84 0 0 1-5.364-3.47 1.675 1.675 0 0 1 .288-2.216 1.73 1.73 0 0 1 2.34-.064c.391.297.713.684 1.08 1.016a3.18 3.18 0 0 0 2.27.992 2.2 2.2 0 0 0 2.356-1.79c.079-.258.119-.526.208-.779a1.695 1.695 0 0 1 1.576-1.254 1.65 1.65 0 0 1 1.716 1.24c.163.553.177 1.14.04 1.7-1.057 3.396-3.094 4.521-6.51 4.625M22.566 37.822a1.75 1.75 0 0 1-1.805-1.775 1.804 1.804 0 0 1 1.725-1.87 1.726 1.726 0 0 1 1.874 1.691 1.854 1.854 0 0 1-1.794 1.954M30.8 35.382a1.825 1.825 0 0 1-2.533 1.613 1.77 1.77 0 0 1-1.077-1.682 1.795 1.795 0 0 1 1.845-1.75 1.76 1.76 0 0 1 1.764 1.82"/><path fill="#979fbb" d="m105.186 19.638 3.064 10.851-9.176 2.38-3.277-11.08z"/></svg>