<svg xmlns="http://www.w3.org/2000/svg" width="134" height="124" fill="none" viewBox="0 0 134 124"><path fill="#3558a2" d="M109.961 63.89c.481.234.899.422 1.313.63 2.769 1.406 4.281 3.64 4.286 6.749 0 2.544-.097 5.089-.25 7.633-.307 5.064 1.93 9.13 5.077 12.794 2.089 2.433 2.196 3.725-.24 5.807-4.148 3.562-8.633 6.499-14.206 7.455a23.95 23.95 0 0 1-16.197-2.926c-2.233-1.252-4.536-2.035-7.03-1.221a8.26 8.26 0 0 0-3.064 1.949c-.85.917-1.591 1.93-2.207 3.018-1.261 1.974-3.187 3.053-5.256 3.923a4.6 4.6 0 0 1-4.153-.31 7.9 7.9 0 0 1-1.89-1.395c-2.605-2.763-5.905-3.781-9.577-4.132a51.5 51.5 0 0 1-18.865-5.776 23 23 0 0 1-4.086-2.865c-1.461-1.206-1.62-2.204-.925-3.939.802-2.036 1.655-4.01 2.396-6.046a1.57 1.57 0 0 0-.276-1.359c-2.329-2.376-2.35-2.36-5.235-.788q-11.698 6.396-23.41 12.788c-1.86 1.018-2.693.723-3.623-1.18a253 253 0 0 1-1.798-3.75C-.52 88.296-.276 87.583 2.278 86.21c8.173-4.381 16.295-8.783 24.468-13.12 1.021-.549 1.297-1.109 1.154-2.243-1.022-7.787 1.533-14.25 7.478-19.39a2.036 2.036 0 0 0 .751-2.478c-.986-3.476-2.722-6.295-6.099-8.01a53 53 0 0 1-5.665-3.501 13.9 13.9 0 0 1-5.695-7.46 3.67 3.67 0 0 1 .725-3.528c2.774-3.684 6.82-4.681 10.998-4.391 3.305.234 6.559 1.425 9.797 2.325 2.922.81 3.131.814 4.72-1.725.756-1.211 1.38-2.544 2.212-3.674 1.486-2.036 3.065-2.397 5.317-1.252 1.022.509 2.044 1.14 3.035 1.69 1.935 1.048 3.744.89 5.414-.51a12.4 12.4 0 0 0 1.839-1.882 23.8 23.8 0 0 1 8.382-6.713 22.9 22.9 0 0 0 8.888-8.346C80.881.618 82.42.476 83.62 1.773c2.334 2.545 4.75 5.059 6.855 7.797a26.73 26.73 0 0 0 12.842 9.277c3.575 1.231 6.901 3.13 10.39 4.616 4.244 1.806 8.52 3.562 12.836 5.206 2.411.92 2.999 1.796 2.156 4.285a1910 1910 0 0 1-5.854 16.997c-.853 2.443-2.743 4.071-4.858 5.333a21.7 21.7 0 0 0-8.025 8.606M38.515 86.592c-.654 1.67-1.19 3.293-1.921 4.824-.47.988-.184 1.481.628 2.036 5.548 3.684 11.749 5.491 18.246 6.616 2.769.483 5.62.85 8.209 1.832 1.916.727 3.52 2.325 5.185 3.633.945.743 1.834 1.13 2.85.301a32.5 32.5 0 0 0 3.162-2.81 27 27 0 0 0 1.956-2.687c1.456-1.974 3.443-2.977 5.854-3.363a12.44 12.44 0 0 1 8.53 1.7c6.217 3.663 12.689 3.959 19.166 1.017 2.723-1.231 5.108-3.262 7.77-5.033-5.813-5.99-7.346-12.895-6.217-20.59a13.3 13.3 0 0 0-.128-3.308c-.189-1.705-1.261-2.723-2.845-3.226-.572-.184-1.18-.235-1.762-.382-1.9-.509-2.554-1.929-1.532-3.562 2.794-4.494 5.741-8.84 10.568-11.527a7.4 7.4 0 0 0 2.353-2.013 7.4 7.4 0 0 0 1.32-2.796c.781-2.977 1.854-5.888 2.86-8.804.721-2.087 1.533-4.132 2.34-6.26-2.043-.758-4.087-1.384-6.033-2.244-5.236-2.336-10.415-4.789-15.636-7.16-2.482-1.125-5.077-2.036-7.478-3.288-4.173-2.193-6.937-5.903-9.792-9.5-1.21-1.528-2.62-2.902-3.775-4.164-2.61 2.341-4.715 4.921-7.417 6.484-4.23 2.448-8.05 5.18-11.171 8.951-1.584 1.909-3.852 2.59-6.38 2.504-2.115-.071-3.77-1.15-5.497-2.127-1.644-.931-1.609-.89-2.62.738a68 68 0 0 1-3.249 4.804 3.773 3.773 0 0 1-4.347 1.369 221 221 0 0 1-7.151-2.168 14.24 14.24 0 0 0-9.92.432c-2.283.916-2.85 2.31-1.38 4.209a20.3 20.3 0 0 0 3.806 3.766 45 45 0 0 0 5.425 3.359 12.8 12.8 0 0 1 5.517 5.628c.72 1.481 1.328 3.018 1.992 4.534 12.219-5.089 22.66.82 27.2 7.634a21.51 21.51 0 0 1-1.24 25.567c-5.339 6.54-15.851 10.911-27.446 5.074m10.727-.967c9.889.03 17.919-7.806 17.94-17.506a17.9 17.9 0 0 0-5.168-12.684 18.03 18.03 0 0 0-12.645-5.357 17.9 17.9 0 0 0-6.922 1.243 17.9 17.9 0 0 0-5.903 3.812 17.8 17.8 0 0 0-3.965 5.789 17.72 17.72 0 0 0-.05 13.74 17.8 17.8 0 0 0 3.924 5.817 17.85 17.85 0 0 0 5.875 3.854 17.9 17.9 0 0 0 6.914 1.292M5.465 92.078l24.943-13.69-1.251-2.544-25.03 13.48zM134 111.467c-.485 2.753-.751 5.598-1.532 8.341-.966 3.364-4.087 4.295-6.937 2.204-4.551-3.334-6.482-7.944-5.619-13.44.261-1.624 1.645-3.135 2.728-4.535 1.604-2.076 3.346-4.071 5.108-5.98a5.73 5.73 0 0 1 2.375-1.526 1.54 1.54 0 0 1 1.845.683c.118.207.186.438.198.676.675 4.483 1.231 8.961 1.834 13.577m-5.619 7.929c2.217-1.924 1.834-13.832.899-16.137-.889.702-1.915 1.562-2.988 2.361-2.59 1.918-3.525 4.407-2.666 7.521a9.7 9.7 0 0 0 1.724 3.626 9.8 9.8 0 0 0 3.041 2.629z"/><path fill="#fff" d="M38.515 86.592c11.595 5.837 22.108 1.45 27.446-5.058a21.513 21.513 0 0 0 1.241-25.567c-4.541-6.82-14.982-12.723-27.2-7.634-.665-1.527-1.273-3.054-1.993-4.535a12.8 12.8 0 0 0-5.542-5.659 45 45 0 0 1-5.425-3.358 20.3 20.3 0 0 1-3.806-3.766c-1.47-1.898-.904-3.293 1.38-4.209a14.23 14.23 0 0 1 9.92-.432q3.575 1.129 7.15 2.168c.776.277 1.621.294 2.407.046a3.76 3.76 0 0 0 1.94-1.416c1.155-1.526 2.228-3.165 3.25-4.803 1.021-1.64.975-1.67 2.62-.738 1.727.977 3.382 2.035 5.496 2.127 2.529.086 4.797-.596 6.38-2.504 3.121-3.771 6.942-6.504 11.172-8.952 2.702-1.562 4.807-4.142 7.417-6.483 1.154 1.262 2.554 2.636 3.775 4.163 2.855 3.598 5.618 7.308 9.792 9.501 2.4 1.262 4.995 2.163 7.478 3.287 5.22 2.372 10.4 4.825 15.636 7.16 1.936.86 3.974 1.487 6.033 2.245-.797 2.127-1.62 4.173-2.34 6.26-1.022 2.916-2.079 5.826-2.861 8.804a7.37 7.37 0 0 1-3.672 4.809c-4.827 2.687-7.775 7.033-10.569 11.526-1.021 1.654-.352 3.09 1.533 3.563.582.147 1.19.198 1.762.381 1.583.51 2.656 1.527 2.845 3.227.18 1.093.223 2.204.128 3.308-1.129 7.694.403 14.6 6.216 20.59-2.687 1.77-5.046 3.801-7.769 5.033-6.477 2.926-12.949 2.631-19.166-1.018a12.44 12.44 0 0 0-8.53-1.7c-2.411.387-4.398 1.39-5.854 3.364a27 27 0 0 1-1.956 2.687 32.5 32.5 0 0 1-3.162 2.809c-1.022.83-1.906.443-2.85-.3-1.666-1.308-3.27-2.906-5.185-3.633-2.59-.983-5.44-1.349-8.209-1.833-6.482-1.13-12.699-2.936-18.246-6.615-.812-.535-1.098-1.018-.628-2.036.756-1.516 1.292-3.14 1.946-4.809M72.59 50.847c1.63-.23 2.17-1.018 2.13-2.173-.133-3.629 1.45-6.392 4.22-8.6.822-.657 1.532-1.416 1.276-2.58-.255-1.166-1.246-1.584-2.268-1.751-2.518-.418-3.907-2.097-4.995-4.184-.276-.509-.511-1.231-.971-1.465-.766-.392-1.808-.815-2.518-.58-.578.193-1.18 1.338-1.175 2.035 0 2.957-.884 5.293-3.576 6.865a2.24 2.24 0 0 0-.853 1.832c.082.56.802 1.1 1.349 1.527a2.9 2.9 0 0 0 1.323.366c1.665.23 2.615 1.191 3.11 2.753a47 47 0 0 0 1.67 4.677c.277.575.956.967 1.278 1.278m5.89 32.396c2.104-.56 2.865-1.2 2.691-2.31-.26-1.639-1.578-1.527-2.988-1.527 0-.855.046-1.633 0-2.397-.097-1.414-.786-2.198-1.839-2.193s-1.752.83-1.834 2.203c-.05.82 0 1.644 0 2.459-1.833.244-2.528.661-2.553 1.664-.077 1.842 1.435 1.984 2.737 2.325.031.412.057.779.077 1.14.02.362 0 .84.072 1.247.224 1.308 1.021 2.071 2.12 1.919 1.297-.184 1.532-1.145 1.532-2.245-.016-.758-.015-1.542-.015-2.285M47.725 35.788c-.067-.264-.118-.437-.148-.615-.19-1.018-.65-1.797-1.752-1.843-1.022-.045-1.533.58-1.85 1.527-.107.356-.577.636-.934.875-1.058.723-1.349 2.168-.292 2.774 1.196.682 1.267 1.68 1.64 2.733a2.2 2.2 0 0 0 1.645 1.262c.567 0 1.241-.733 1.645-1.303.276-.392.163-1.053.23-1.608 1.128-.351 2.385-.621 2.263-2.163-.128-1.374-1.221-1.547-2.447-1.639"/><path fill="#3558a2" d="M49.226 85.625a17.9 17.9 0 0 1-6.913-1.292 17.85 17.85 0 0 1-5.875-3.854 17.8 17.8 0 0 1-3.923-5.817 17.72 17.72 0 0 1 .049-13.74 17.8 17.8 0 0 1 3.965-5.789 17.85 17.85 0 0 1 5.902-3.812 17.9 17.9 0 0 1 6.923-1.243c4.76.05 9.306 1.976 12.645 5.357a17.9 17.9 0 0 1 5.167 12.684c-.02 9.7-8.05 17.537-17.94 17.506M5.45 92.078l-1.338-2.713 25.03-13.48 1.25 2.544z" opacity=".5"/><path fill="#fff" d="M128.391 119.396a9.8 9.8 0 0 1-3.036-2.631 9.7 9.7 0 0 1-1.719-3.624c-.858-3.114.076-5.597 2.666-7.521 1.073-.799 2.1-1.659 2.988-2.361.951 2.305 1.318 14.213-.899 16.137"/><path fill="#3558a2" d="M72.59 50.847c-.321-.31-1.02-.703-1.256-1.278a47 47 0 0 1-1.67-4.677c-.511-1.562-1.446-2.544-3.111-2.753a2.9 2.9 0 0 1-1.323-.366c-.547-.407-1.267-.947-1.349-1.527a2.23 2.23 0 0 1 .853-1.832c2.672-1.572 3.576-3.908 3.576-6.865 0-.717.598-1.863 1.175-2.035.71-.235 1.752.188 2.518.58.46.234.695.941.97 1.465 1.089 2.087 2.478 3.766 4.996 4.183 1.022.168 2.013.56 2.269 1.751.255 1.19-.455 1.924-1.278 2.58-2.768 2.209-4.352 4.972-4.219 8.6.02 1.156-.52 1.945-2.15 2.174m-2.952-11.705.537-.473 2.554 2.951 2.043-2.824-3.443-2.774a140 140 0 0 1-1.69 3.125zM78.48 83.243v2.3c0 1.1-.25 2.062-1.532 2.245-1.073.153-1.895-.61-2.12-1.919-.066-.407-.046-.83-.072-1.246a79 79 0 0 0-.076-1.14c-1.303-.341-2.815-.484-2.738-2.326.04-1.018.735-1.42 2.554-1.664 0-.814-.04-1.639 0-2.458.082-1.374.792-2.193 1.834-2.204 1.042-.01 1.742.779 1.839 2.194.056.763 0 1.526 0 2.397 1.41 0 2.727-.128 2.988 1.526.189 1.094-.572 1.736-2.677 2.295M47.725 35.788c1.226.092 2.34.265 2.446 1.654.123 1.527-1.134 1.812-2.263 2.163-.066.555.047 1.216-.23 1.608-.403.57-1.077 1.298-1.644 1.303a2.22 2.22 0 0 1-1.645-1.262c-.373-1.053-.444-2.036-1.64-2.733-1.057-.605-.766-2.035.292-2.773.357-.24.827-.51.934-.876.291-.962.838-1.587 1.85-1.526 1.103.045 1.563.85 1.752 1.842.03.163.081.336.148.6M48.685 80.933c-1.79.027-3.567-.3-5.228-.961a13.55 13.55 0 0 1-4.454-2.893 13.5 13.5 0 0 1-2.993-4.377 13.45 13.45 0 0 1-1.07-5.189c-.042-7.521 6.394-13.806 14.128-13.806s13.654 5.852 13.67 13.42a13.8 13.8 0 0 1-1.09 5.32 13.9 13.9 0 0 1-3.055 4.494 13.9 13.9 0 0 1-4.554 2.982c-1.7.685-3.52 1.028-5.354 1.01m2.498-4.25c-.455-.193-.91-.376-1.354-.58-1.961-.9-2.646-2.737-1.532-4.58a3.22 3.22 0 0 0 .066-3.597 7.93 7.93 0 0 1 .123-8.285c.413-.703.792-1.43 1.261-2.29a10.7 10.7 0 0 0-6.768 1.938 1.7 1.7 0 0 0-.858 1.98c.172.947.416 1.88.73 2.789 1.4 3.318 1.022 6.615-.153 9.842-.362.987-.097 1.496.777 1.974 2.426 1.324 4.934 1.797 7.708.8zm4.234-1.974c5.108-4.173 4.797-11.96-.572-15.542-.357-.239-1.021-.473-1.307-.305-1.895 1.13-3.04 4.946-2.008 7.033 1.144 2.315 1.665 4.58.281 6.977zm-16.151-9.47-.598.045.398 5.802.557-.036a7 7 0 0 0-.357-5.822z"/><path fill="#fff" d="M69.638 39.147c.572-1.018 1.14-2.066 1.716-3.12l3.443 2.774-2.043 2.824z"/><path fill="#f2f7ff" d="M51.183 76.674c-2.774 1.017-5.282.508-7.698-.784-.874-.479-1.14-.987-.777-1.975 1.196-3.247 1.533-6.524.154-9.842a19 19 0 0 1-.73-2.789 1.694 1.694 0 0 1 .857-1.98 10.7 10.7 0 0 1 6.769-1.938c-.47.86-.848 1.587-1.262 2.29a7.93 7.93 0 0 0-.123 8.285 3.22 3.22 0 0 1-.066 3.598c-1.124 1.817-.44 3.654 1.532 4.58.434.178.89.361 1.344.555M55.417 74.699l-3.606-1.837c1.384-2.402.863-4.662-.28-6.977-1.023-2.087.111-5.904 2.007-7.033.28-.168.95.066 1.307.305 5.369 3.583 5.696 11.369.572 15.542M39.266 65.228a7 7 0 0 1 .357 5.812l-.557.035-.398-5.8z"/></svg>