<svg xmlns="http://www.w3.org/2000/svg" width="257" height="253" fill="none" viewBox="0 0 257 253"><path fill="#102185" d="M130.237 222.875c-11.185-8.07-23.22-14.017-37.38-14.725-11.326-.566-22.511-.566-33.838-.425-11.327 0-22.654.566-33.415-3.54C10.88 198.664 1.818 188.47.12 172.47c-1.558-15.149 12.46-30.865 27.468-31.432 10.477-.283 20.388 2.266 30.157 5.239 10.478 3.115 20.814 4.248 31.008-1.416 5.663-2.973 10.336-7.504 13.451-13.168-3.398-1.557-6.655-2.973-9.911-4.53-11.752-5.805-20.247-14.583-23.504-27.468-2.265-8.636-.708-17.415 1.416-25.91 3.823-15.15 8.07-30.158 12.177-45.307.708-3.257 1.698-6.372 2.973-9.487C90.593 8.09 99.654 3.841 111.83 6.39c1.982.425 3.964.991 6.371 1.558.708-1.558 1.133-3.115 1.84-4.531 1.275-2.549 3.399-4.106 6.23-3.115.708.141 1.275.425 1.841.85.567.424.991.99 1.274 1.557.283.566.567 1.274.567 1.982s0 1.416-.284 1.982c-1.84 6.088-3.681 12.318-5.663 18.406-.991 3.115-3.115 4.814-6.513 3.965-2.832-.708-4.106-3.681-3.256-7.221.283-1.133.566-2.265.849-3.681-2.549-.708-4.814-1.416-7.221-1.841-6.23-1.133-10.76 1.133-12.601 7.221C90.45 39.38 85.92 55.237 81.53 71.095c-1.274 4.53-1.558 9.344-2.549 14.017-2.69 13.309 2.974 23.078 13.593 29.874 11.044 7.08 23.078 11.61 36.529 11.752 9.911 0 16.566-5.38 21.38-13.026a100.2 100.2 0 0 0 10.477-20.53c5.522-15.291 10.336-30.866 15.292-46.298 1.132-3.398.141-6.089-3.399-7.504-4.389-1.7-8.778-3.257-13.026-4.814-2.973 5.946-5.097 7.362-8.212 6.23-3.115-1.133-3.822-4.106-1.982-9.77 1.558-4.814 3.115-9.77 4.814-14.583 1.416-4.106 3.964-5.806 7.079-4.815 3.115.992 3.965 3.824 2.832 8.071-.425 1.558-.849 3.115-1.416 4.672 4.531 1.7 8.92 3.115 13.026 4.956 10.194 4.672 13.451 11.185 10.195 21.804-5.239 16.424-10.478 32.99-16.849 49.13-3.54 8.779-8.354 16.991-14.159 24.495-7.929 10.336-19.256 14.3-32.282 11.893-6.513-1.274-10.76-.283-15.433 5.805-11.893 15.291-28.175 20.105-47.148 15.292-8.92-2.407-17.84-4.39-27.043-5.806-11.044-1.415-16.424 2.124-20.955 11.752-3.398 7.079-1.274 16.707 4.814 23.079 7.363 7.787 16.849 10.052 26.902 10.477 6.23.283 12.6 0 18.83-.283 14.726-.567 29.309-.425 43.751 2.831 11.468 2.691 21.238 8.92 31.007 15.15 13.31-7.362 22.654-2.69 28.459 4.248 5.805 6.937 5.522 17.84-.566 25.202-2.973 3.823-7.363 6.372-12.035 7.504-4.814.991-9.769.425-14.017-1.84-9.486-4.814-12.318-13.593-8.779-27.327zm19.68-.991c-2.831 0-5.663.991-7.645 2.973-2.124 1.982-3.398 4.673-3.54 7.504 0 1.275.283 2.549.708 3.823.425 1.133 1.274 2.265 2.124 3.115.849.849 1.982 1.557 3.115 2.124 1.132.566 2.407.708 3.822.708 2.832 0 5.522-1.133 7.646-3.115s3.257-4.673 3.398-7.504c0-5.805-3.681-9.628-9.628-9.628M240.391 78.316c1.982 5.239 5.522 9.628 10.195 12.885a43 43 0 0 1 3.964 3.114c3.823 3.54 2.69 8.637-2.265 10.194-1.841.567-3.823.85-5.664 1.275-14.3 3.964-23.503 13.592-29.308 26.76-.567 1.557-1.274 3.114-2.124 4.53-1.416 2.407-4.106 3.54-6.23 2.124-1.699-1.416-2.832-3.256-3.115-5.522-.283-1.84 1.133-3.823 1.699-5.805 2.407-8.778 5.239-17.557 7.079-26.618.708-2.69.567-5.522-.283-8.212-.991-2.69-2.69-4.955-4.955-6.513-.85-.85-1.416-1.699-1.841-2.832-.283-1.132-.425-2.265-.283-3.398.566-1.699 3.257-3.256 5.38-3.823 2.124-.708 4.814-.283 7.221-.424 11.61-1.133 17.698-8.779 21.946-18.548.566-1.557 1.133-3.115 1.841-4.53 1.557-2.55 3.822-3.54 6.654-2.266 2.69 1.274 3.398 3.54 2.549 6.513-2.266 8.212-6.796 15.15-12.46 21.38zm-14.866 25.91 14.3-7.645-8.778-12.46-7.08 1.982c.425 6.23.991 12.177 1.558 17.982z"/></svg>