<svg xmlns="http://www.w3.org/2000/svg" width="308" height="283" fill="none" viewBox="0 0 308 283"><path fill="#102185" d="M.623 275.666c-.057-6.174-.17-11.752-.113-17.232 0-14.937-.17-30.002-.17-44.953l-.213-43.51C.042 153.746.071 137.364 0 121.138c.028-2.307.056-4.615.099-6.909-.057-1.147.312-2.35 1.034-3.2a4.4 4.4 0 0 1 2.846-1.784c2.605-.736 5.252-1.203 7.815-1.359 27.397.566 54.667 1.161 81.979 2.025l79.968 2.081c15.744.439 31.474.864 47.36 1.274 1.303.057 2.563-.156 3.865-.099a4.3 4.3 0 0 1 1.884.099c.609.184 1.217.368 1.727.85.496.339.864.849 1.246 1.359.241.538.467 1.062.595 1.77.212 1.26.438 2.506.509 3.794.425 25.656.737 51.467 1.161 77.108.326 25.089.623 50.037 1.091 75.111.056 5.31-2.577 8.354-7.745 8.382-21.677.17-43.34.326-65.017.496-25.273.071-50.532.283-75.805.354l-72.832.127c-3.186-.17-6.272-1.359-8.92-3.341-1.147-.807-1.6-2.591-2.025-3.384l-.184-.255zm117.319-60.146c3.964 1.331 7.433 2.308 10.802 3.44 1.218.368 2.365 1.175 3.229 2.025s1.642 2.01 2.138 3.228c.254.68.382 1.373.368 2.095s-.17 1.473-.496 2.096-.807 1.147-1.288 1.657c-.51.382-1.161.778-1.827 1.033-.948.312-1.954.34-2.832.198-.877-.141-1.84-.679-2.52-1.288a17.84 17.84 0 0 0-7.334-3.327l.312 44.925 103.839-.326c-.651-49.314-1.274-98.501-1.755-147.702l-102.807-2.875c-.424 5.82-.623 32.877.553 35.539 1.684.566 3.384 1.288 4.856 2.322 2.322 1.755 4.403 3.837 6.23 6.102.75 1.019.949 2.138.864 3.299s-.751 2.279-1.629 3.016a5.06 5.06 0 0 1-2.647 1.317c-.977.169-2.025-.086-2.988-.638-.977-.694-1.826-1.401-2.549-2.293-.679-.595-1.5-1.176-2.661-2.124l.184 20.091c.934.411 1.543.594 2.152.779 4.686 1.345 7.858 4.672 10.647 8.353.751 1.02 1.246 2.223 1.161 3.384s-.594 2.407-1.444 3.271a5.74 5.74 0 0 1-3.483 1.472c-1.274.085-2.52-.425-3.525-1.26-1.147-.807-1.926-1.968-3.087-2.917-.651-.467-1.302-.92-2.478-1.869l.071 16.948zM11.03 271.843l96.944-.283c-.113-14.782-.255-28.842-.283-43.057-6.386-1.189-8.184-2.463-8.142-5.493.128-5.055 4.319-4.913 8.014-5.989-.014-5.89-.057-11.922-.099-17.954l-3.072.538c-3.257.284-5.635-1.033-6.4-3.78-.736-2.605.708-5.012 3.794-6.258 1.6-.708 3.413-1.019 5.466-1.671 0-6.612-.128-13.196-.185-20.091-1.883.751-3.058 1.388-4.431 1.77-1.204.496-2.506.439-3.724.071s-2.237-1.331-2.86-2.379c-1.246-2.223-.425-4.955 2.138-6.697 1.557-.991 3.157-1.699 4.757-2.407 1.345-.524 2.549-1.019 4.036-1.557-.099-12.191-.043-24.282-.17-36.615l-96.944-3.015c.34 51.679.736 102.905 1.076 154.569l.042.283zM97.383 15.741c5.565-2.69 10.605-5.14 15.801-7.475 4.389-2.053 9.147-2.733 13.89-1.982 2.789.382 5.437 1.5 7.731 3.114 2.322 1.756 4.12 3.88 5.309 6.556a12.6 12.6 0 0 1 .963 5.578c.056 1.147-.481 2.237-1.218 2.945-.722.85-1.784 1.317-2.931 1.374-1.118.198-2.166-.057-3.129-.61a4.4 4.4 0 0 1-2.025-2.52c-.736-2.605-1.968-4.686-4.601-5.818-1.374-.482-2.874-.793-4.29-.694-1.444-.043-2.931.51-4.276 1.033a50.3 50.3 0 0 0-12.686 6.372c2.648 1.982 4.955 3.738 7.277 5.493 4.8 3.625 9.586 7.25 14.527 10.846 1.869 1.685 4.234 2.86 6.768 3.426 10.747 1.444 18.576 6.839 21.861 17.472 3.497 11.03.765 20.997-7.631 28.912-4.758 4.856-11.327 7.575-18.223 7.617-6.895.043-13.38-2.563-18.363-7.306-3.469-3.426-5.777-7.617-6.882-12.318-.198-1.118-.835-2.293-1.416-3.2-.722-.877-1.599-1.741-2.69-2.265-1.104-.524-2.152-.779-3.454-.835a7.36 7.36 0 0 0-3.483.608c-.807.284-1.6.708-2.549 1.02-1.09.34-1.968 1.062-2.548 1.883-.722.85-1.105 1.911-1.218 2.945a30.6 30.6 0 0 1-4.715 11.737c-2.42 3.441-5.635 6.443-9.302 8.51-3.78 2.237-7.844 3.653-12.261 3.851a25.8 25.8 0 0 1-12.602-2.265c-3.893-1.77-7.39-4.475-10.01-8.043-2.605-3.426-4.446-7.419-5.054-11.765-.992-5.72-.425-11.568 1.967-16.863 2.393-5.296 6.216-9.699 11.158-12.715 6.626-4.02 12.53-8.934 18.972-13.21s12.601-8.51 18.775-12.742l3.85-2.677c-1.6-1.741-2.902-3.525-4.46-4.97-1.557-1.443-2.873-2.52-4.261-3.865-3.256-3.03-6.626-3.454-10.336-.792-.906.594-1.755 1.458-2.803 2.067a5.06 5.06 0 0 1-3.158.835c-1.16-.085-2.095-.495-2.945-1.218-.85-.722-1.316-1.783-1.642-2.874-.198-1.118-.085-2.138.312-3.214.212-.467.41-.934.778-1.288 5.31-6.669 18.307-8.778 24.438-3.228 3.752 3.37 7.235 6.938 10.732 10.491.68.595 1.388 1.345 2.082 2.082zm-53.505 61.01c1.699 9.77 8.58 15.475 17.09 14.852 11.793-.75 20.062-13.535 15.998-24.621-1.118-3.115-2.647-6.145-5.691-7.93-6.287-3.935-12.757-3.964-18.803.1-2.987 1.812-5.281 4.36-6.881 7.518-1.473 3.129-2.166 6.555-1.699 10.067zm43.085-13.352c3.157-.835 6.102-2.067 9.103-2.152 3.002-.085 6.145.651 9.685 1.19 2.308-6.584 6.853-11.823 13.422-16.269-7.815-6.116-15.716-11.072-23.262-16.509-8.623 5.806-17.245 10.747-25.443 17.345 7.306 3.185 13.21 9.061 16.495 16.395m60.074 3.37c-1.911-11.015-12.487-16.509-22.398-11.497-2.393 1.133-4.517 2.945-6.301 5.112a17.8 17.8 0 0 0-3.327 7.334c-1.94 8.665 3.285 17.245 11.341 19.015 11.327 2.35 22.668-8.524 20.657-20.105zM291.187 149.696l.651 3.766c2.69 15.489 5.352 30.837 8.17 46.284l.538 3.073c.665 4.63-1.076 7.079-5.465 8.268-4.39 1.19-9.246 2.181-13.805 3.257-1.812.311-3.724.934-5.692 1.133-.835.141-1.529.269-2.279.113a8.8 8.8 0 0 1-2.152-.779c-.652-.467-1.176-.949-1.572-1.6a5.8 5.8 0 0 1-.807-2.166l-.538-3.073c-3.781-20.176-7.575-40.366-11.355-60.542l-.198-1.118c-2.705-4.843-1.247-9.699-.241-14.612 1.146-5.805 2.293-11.61 3.468-17.273.453-2.379 1.346-4.687 2.393-6.882 2.549-5.182 7.731-5.932 11.511-1.571 3.044 3.497 5.635 7.645 8.453 11.468.75 1.02 1.501 2.039 2.393 3.03 9.741 9.812 15.489 22.173 22.399 33.91.453.935.75 1.883.793 2.874.17.977.085 2.138-.354 2.931-.411.935-1.289 1.657-2.223 2.11-.935.453-2.039.637-3.214.552-1.048-.255-2.011-.807-2.704-1.543a22 22 0 0 1-2.322-3.483c-1.629-2.733-3.115-5.494-4.729-8.227l-1.119.199-.028-.142zm-13.38 54.624 11.483-2.563-9.939-57.343-12.871.369c3.766 20.034 7.448 39.658 11.214 59.706zm4.616-70.341-12.856-16.169-3.016 16.623 15.9-.312z"/><path fill="#102185" d="m148.737 190.063 19.185.41c9.076.156 18.151.298 27.255.595a14.7 14.7 0 0 1 3.498.255c1.189.226 2.308.892 3.171 1.741.751 1.02 1.218 2.081 1.303 3.37.099.552-.085 1.161-.269 1.77s-.524 1.104-1.02 1.614c-.495.51-1.019.75-1.529 1.133-.552.099-1.231.354-1.812.311-5.253.34-10.562.396-15.759.283-11.1-.226-22.257-.736-33.386-1.104-1.005.028-2.053-.213-2.959-.496-1.048-.255-1.869-.821-2.449-1.727-.567-.765-.892-1.855-.92-2.86s.354-2.067 1.076-2.917c.58-.821 1.486-1.401 2.435-1.713l2.237-.382-.042-.283zM159.285 169.688c3.752.071 8.198.014 12.686.241 5.933.269 11.71.411 17.699.949 2.194.198 4.177.863 6.088 1.968.977.693 1.713 1.571 2.039 2.662.34 1.09.41 2.364-.142 3.327-.382 1.076-1.217 2.081-2.294 2.548-1.047.609-2.322.694-3.341.581-8.538-1.968-17.33-1.303-26.009-1.671-2.45 0-4.885-.014-7.363-.156-3.497-.255-5.55-2.194-5.508-5.224.057-3.03 1.813-4.474 6.159-5.097l-.028-.142zM185.435 235.144c-4.006.113-7.999.24-11.893.198-5.748 0-11.468.127-17.245-.028-1.444-.043-2.775-.241-4.035-.878-.935-.411-1.614-1.02-2.195-1.912-.453-.934-.623-1.911-.481-2.789-.029-1.005.382-1.94.962-2.747.595-.679 1.501-1.26 2.478-1.43 2.365-.41 4.743-.821 7.193-.821 4.729-.099 9.5.071 14.215-.028 3.582-.043 7.094-.51 10.662-.694.977-.17 1.953-.34 3.001-.085q1.53.17 2.804 1.232c.849.708 1.288 1.642 1.458 2.619.198 1.119.382 2.237-.17 3.186-.382 1.076-1.246 1.94-2.166 2.393a27.6 27.6 0 0 1-4.743 1.684l.17.114zM168.545 157.597c-3.767-.213-7.689-.397-11.483-.737-3.795-.353-7.901-.792-11.738-1.415-1.486-.312-2.874-.793-4.177-1.714-.962-.552-1.514-1.316-1.996-2.378-.311-.949-.368-2.096.057-3.03.269-.906.849-1.728 1.586-2.435.764-.567 1.698-1.006 2.69-1.048.976-.17 1.996-.057 3.03.056 7.433.581 14.739 1.317 22.172 1.898 4.375.396 6.839 3.837 5.14 7.291-.991 1.756-2.294 2.549-5.168 3.342zM28.84 212.135c5.608.028 11.385.184 17.133.184 9.755-.113 19.51-.227 29.252-.326 1.727 0 3.327.142 4.955.439 1.331.199 2.535.567 3.639 1.091 2.945 1.217 4.262 3.865 3.554 6.428-.85 2.591-3.101 3.695-6.174 3.369-3.072-.325-6.173-.793-9.174-.708-12.913.085-25.84.17-38.866.411-1.557.127-3.001.085-4.615-.057-3.214-.311-5.324-2.52-5.338-5.111-.071-2.86 2.152-4.97 5.663-5.437l-.042-.283zM35.1 157.894c10.407-.509 20.686-.849 31.092-1.373 2.563-.156 5.097-.453 7.632-.75 1.812-.312 3.54-.326 5.422-.227 1.162.085 2.266.609 3.101 1.331.864.85 1.345 1.926 1.388 3.058a4.35 4.35 0 0 1-.722 3.285c-.694.977-1.714 1.727-2.832 1.926-2.761.623-5.55 1.104-8.396 1.316-5.395.369-10.732.284-16.127.638-7.674.467-15.306 1.217-22.965 1.826l-2.648.453c-1.26.212-2.463-.141-3.454-.835s-1.87-1.685-2.21-2.775c-.212-1.26-.014-2.577.652-3.71q.998-1.677 3.058-2.251l7.25-1.26-.128-.694-.141.028zM44.529 180.817l26.462-1.572c2.421-.127 4.843-.269 7.278-.255 3.327.142 5.366 1.94 5.55 4.644s-1.685 5.182-5.225 5.508c-4.53.354-9.26.453-13.804.807-7.235.538-14.329 1.048-21.564 1.586-.552.099-1.26.212-1.982.198-1.147.057-2.35-.311-3.341-1.005-.977-.694-1.6-1.742-1.813-2.988-.198-1.118 0-2.449.566-3.398.694-.977 1.544-1.854 2.634-2.18l4.885-.85-.071-.424.41-.071z"/></svg>