<svg xmlns="http://www.w3.org/2000/svg" width="425" height="278" fill="none" viewBox="0 0 425 278"><path fill="#102185" d="M318.679 51.396c8.354-.283 16.566 1.699 23.929 5.522a966 966 0 0 0 6.088-10.336q8.92-15.93 17.84-31.857c.991-1.7 1.699-3.54 2.548-5.097a5.56 5.56 0 0 1 2.549-2.549c1.133-.566 2.407-.566 3.54-.283.708 0 1.557.425 1.982.991.566.567.849 1.275.991 2.124a8.6 8.6 0 0 1-.708 5.664c-8.071 14.3-16.141 28.6-24.07 42.9-.708 1.274-1.416 2.69-2.265 4.248 4.814 4.389 8.778 9.628 11.752 15.291 1.132 0 2.265-.283 3.539-.566 9.345-2.69 18.69-5.522 27.893-8.354 6.796-1.982 13.45-4.106 20.247-6.088 1.415-.425 2.973-.991 4.389-1.274 1.274-.283 2.548 0 3.681.566s1.982 1.699 2.265 2.973c.284 1.133 0 2.407-.566 3.398s-1.557 1.7-2.69 2.124c-5.522 1.84-11.185 3.681-16.849 5.38-7.221 2.266-14.442 4.248-21.663 6.513-4.955 1.416-9.769 2.974-14.725 4.531-.708.283-1.415.566-2.407.991 1.983 8.637 1.275 17.84-1.982 26.194.708.566 1.416 1.132 2.124 1.557 9.911 4.955 19.964 10.053 30.016 15.008 5.664 2.832 11.469 5.239 17.132 7.787 1.133.425 1.983.991 2.832 1.841.708.708 1.133 1.557 1.133 2.549 0 .991 0 1.982-.567 2.831-.424.991-1.274 1.699-2.123 2.124s-1.983.708-2.974.566a3.8 3.8 0 0 1-2.123-.708c-3.115-1.416-6.23-2.973-9.345-4.53l-38.087-18.548c-.849-.425-1.699-.708-2.407-1.133-2.69 2.69-5.239 5.664-8.07 8.071s-5.947 4.389-9.062 6.654c.708 2.407 1.557 4.673 2.265 6.938 5.098 15.008 10.478 30.016 16.849 44.599.567.992.708 2.124.708 3.257s-.566 2.265-1.274 3.115a6.3 6.3 0 0 1-2.973 1.699c-1.275 0-2.407-.283-3.398-.991s-1.841-1.699-2.266-2.832c-1.416-3.115-2.69-6.371-3.823-9.628-3.681-10.052-7.362-20.247-11.185-30.299-1.416-4.106-2.832-8.212-4.389-12.46-2.974.283-5.664.708-8.495.708-2.974 0-5.947 0-8.779-.566-2.832-.425-5.522-1.275-8.495-1.982-4.814 7.928-9.062 16.282-13.734 24.777 2.69-.283 4.814-.566 7.079-.708 2.124-.283 4.39-.425 6.513-.849 1.275-.142 2.407-.708 3.398-1.558 3.399-3.398 7.788-1.699 8.92 3.115.992 3.681 1.7 7.504 2.549 11.185 3.54 15.433 7.079 30.866 10.477 46.299.142.85.284 1.699.425 2.69.708 4.248-.849 6.23-4.955 6.938-9.77 1.416-19.539 2.69-29.309 4.106-12.176 1.699-24.211 3.539-36.388 5.38-3.681.566-7.362 1.133-10.194 1.699l-6.371-4.531v5.381l-13.026 1.699-17.84 2.548c-5.947.85-12.176 1.982-18.123 2.832-10.053 1.557-19.964 3.115-29.875 4.531-3.823.566-7.646 1.132-11.327 1.699-1.557.141-2.973.425-4.531.991-.991.425-2.123.566-3.256.425-1.133-.142-2.124-.567-2.973-1.133a44 44 0 0 0-3.54-1.982l-.283 3.681c-6.088.85-12.035 1.699-17.982 2.69-5.946.85-11.893 1.841-17.84 2.832l-12.176 1.84c-10.053 1.558-20.247 3.115-30.3 4.531-4.247.566-8.353 1.133-12.6 1.699-.992 0-1.983.567-2.55 1.275-2.406 3.681-6.088 3.539-9.486 1.84-5.097-2.407-10.335-4.672-15.15-7.504-6.088-3.539-12.742-6.088-19.114-9.203C.251 257.545-.74 255.28.534 251.74c.284-.85.708-1.699 1.275-2.407 2.548-4.814 5.097-9.486 7.645-14.3 3.257-6.23 6.513-12.601 9.77-18.831 1.982-3.681 4.106-7.079 6.088-10.761.708-1.274 1.7-2.265 2.832-3.115 1.133-.849 2.548-1.274 3.964-1.415 6.23-.85 12.46-1.558 18.69-2.549 6.654-.991 13.167-1.982 19.822-2.832s12.884-1.699 19.397-2.548l18.265-2.549 14.866-2.124 5.806-.849 1.557 3.115c.283 0 .566-.142.566-.283 1.983-3.115 4.673-4.106 8.496-4.248 4.53-.283 9.203-.991 13.733-1.84l18.973-2.691c6.655-.991 13.451-1.982 20.105-2.831 6.513-.85 12.885-1.699 19.398-2.549s12.884-1.841 19.397-2.832c.708 0 1.274 0 2.124-.141.425 1.132.849 2.265 1.416 3.681.424-.566.849-1.133 1.416-1.557a10.26 10.26 0 0 1 6.229-3.54c6.513-.85 12.885-1.699 19.398-2.549 5.805-.849 11.61-1.557 17.556-2.407.708 0 1.558-.424 2.124-.849a4.6 4.6 0 0 0 1.416-1.841 192 192 0 0 0 3.965-7.504c3.539-6.513 7.22-13.026 10.76-19.539.425-.708.708-1.416.991-2.265-8.212-5.663-14.583-13.734-18.264-22.937-2.549.708-4.814 1.416-7.08 2.124-8.637 2.69-17.273 5.522-25.91 8.353-6.513 2.124-12.884 4.39-19.256 6.655a7.7 7.7 0 0 1-4.389 0c-.991-.283-1.841-.708-2.407-1.416-.708-.708-1.133-1.557-1.133-2.549 0-1.132.142-2.123.708-3.114a5 5 0 0 1 2.407-2.124c1.274-.566 2.69-.708 4.106-1.133 6.513-2.124 13.168-4.389 19.681-6.513s12.884-4.106 19.397-6.23c3.823-1.274 7.504-2.548 11.61-3.964-.708-7.787.425-15.716 3.257-23.078-2.832-1.7-5.522-3.115-8.212-4.673-10.053-5.522-20.106-10.902-30.158-16.282-2.549-1.416-5.239-2.832-7.788-4.248a25 25 0 0 1-3.114-2.265c-.85-.85-1.416-1.84-1.416-2.974 0-1.132.141-2.265.849-3.256s1.841-1.557 2.974-1.84c1.132-.284 2.406-.142 3.539.424 3.965 2.266 7.929 4.672 12.035 6.796 8.495 4.673 16.849 9.203 25.344 13.876l10.619 5.805c6.088-7.646 13.168-13.451 22.371-16.424.849-1.558.283-2.832 0-4.248-1.983-7.08-3.965-14.017-5.947-21.096-2.124-7.08-4.248-13.734-6.23-20.53-.425-1.274-.425-2.69 0-4.106.283-1.133.85-2.124 1.699-2.69C298.716.425 299.848 0 300.84 0c.991 0 2.123.283 2.973.991.849.567 1.557 1.558 1.982 2.549 1.558 5.097 2.832 10.335 4.389 15.574 1.983 7.08 3.965 14.017 5.947 21.097.708 3.54 1.841 7.22 3.115 11.185zm4.248 80.987c17.84 0 34.406-13.592 34.406-34.972 0-4.672-.708-9.344-2.549-13.734-1.699-4.389-4.389-8.353-7.646-11.61a36.4 36.4 0 0 0-11.61-7.787c-4.389-1.84-9.061-2.69-13.734-2.69-20.53 0-34.405 16.282-34.405 34.83 0 4.673.849 9.345 2.69 13.734s4.389 8.212 7.646 11.61a36.4 36.4 0 0 0 11.61 7.787c4.389 1.841 8.92 2.69 13.592 2.832M44.851 263.492l37.52-5.664a1345 1345 0 0 1-3.54-21.379l-37.52 5.097c1.275 7.362 2.407 14.583 3.682 21.946zm85.377-12.743c-.85-7.079-2.549-13.734-3.823-20.813-12.884 1.557-25.344 3.398-38.087 5.238 1.84 7.221 2.266 14.442 3.823 21.238zm-90.474-18.973c2.549-.283 4.672-.566 6.655-.849 8.92-1.274 17.981-2.549 26.901-3.823 1.274-.283 2.549-.566 3.823-.991-.566-3.823-.991-7.221-1.558-10.619-.708-3.398-.566-6.796-2.123-9.911-6.372.849-12.602 1.416-18.831 2.548-6.23 1.133-12.318 1.275-18.407 2.974 1.275 7.079 1.983 13.875 3.682 20.671zm84.81-11.751c-1.416-7.08-2.69-13.876-4.106-20.955l-36.954 5.239c1.274 7.079 2.407 13.875 3.682 20.954l37.378-5.097zm63.714-30.441a359 359 0 0 0 3.965 20.813l36.812-4.956a1087 1087 0 0 1-3.964-20.954l-36.671 5.097zm6.089 30.582c.707 3.965 1.274 7.08 1.699 10.336.283 3.398.991 6.796 1.982 10.194l36.529-5.38-3.823-20.105-36.387 4.814zm-9.912 1.416-33.98 4.531c1.274 7.221 2.548 14.159 3.823 21.238l33.414-4.956c-1.133-6.937-2.124-13.592-3.398-20.813zM178.367 191c-11.327 1.699-22.229 2.831-33.414 4.955 1.274 6.938 2.407 13.592 3.681 20.388l33.556-4.53c-1.274-7.08-2.549-13.876-3.823-20.813m106.615 15.432-29.875 4.248c1.274 7.221 2.549 14.159 3.965 20.955 5.38-.708 10.335-1.274 15.149-2.124s9.77-1.133 14.584-2.549a27.5 27.5 0 0 0 0-4.814c-1.133-5.238-2.549-10.335-3.823-15.716m-31.574-5.521c10.053-1.558 19.681-2.691 29.45-4.39-1.133-6.796-2.973-13.026-4.389-19.539-9.911 1.7-19.539 2.408-29.025 4.39 1.416 6.654 2.123 13.167 3.823 19.539zm41.485 4.247c.849 3.681 1.699 6.938 2.407 10.336s1.416 6.654 2.124 10.336l22.795-3.398-4.672-20.53-22.796 3.256zm16.141-32.565-22.937 3.257a960 960 0 0 1 4.814 19.256c7.504-.708 14.725-1.983 22.512-3.115zM11.72 252.023l22.654 11.327c-.425-5.239-1.416-9.628-2.124-14.159-.708-4.389-1.416-9.061-2.265-13.592-.708-4.531-1.416-8.92-2.266-14.017zm228.945-63.855L236.418 191c2.407 12.742 4.814 25.343 7.221 37.945l4.53-.284c-2.548-13.733-5.097-27.042-7.645-40.635zm-96.986 57.201c-1.416-7.646-2.549-14.725-3.823-21.663a2548 2548 0 0 0-3.965-21.096l-3.539 5.238c2.265 11.752 4.53 23.645 6.796 35.255z"/><path fill="#102185" d="M166.332 170.894c0 2.69-.849 4.106-3.115 4.956-.849.283-1.84.283-2.831 0-.85-.284-1.7-.85-2.266-1.7-.849-1.132-1.557-2.406-1.982-3.681-.85-2.831-1.416-5.663-2.124-8.495-.566-2.407-1.274-4.672-1.982-6.938-.991-2.973-.566-5.663 1.416-6.937 2.265-1.275 5.097-.567 6.938 2.124a19.6 19.6 0 0 1 2.548 5.521c1.274 4.389 2.124 8.92 3.257 13.451 0 .566.141 1.133.283 1.699zM86.76 177.691v3.823c0 1.133-.424 2.265-1.274 2.973q-1.274 1.275-2.973 1.274c-1.133 0-2.124-.141-3.115-.708-.85-.566-1.557-1.557-1.982-2.548-.425-1.133-.566-2.266-.708-3.398 0-4.956-1.557-9.487-2.69-14.159-.283-.708-.425-1.416-.566-2.265-.142-1.133 0-2.265.707-3.257.567-.991 1.558-1.699 2.55-2.123 1.273-.425 2.548-.284 3.68.283 1.133.566 1.983 1.557 2.407 2.831 1.133 3.257 2.124 6.513 2.832 9.912.566 2.406.708 5.097 1.133 7.504h-.142zM197.057 165.514c0 1.274-.425 2.407-1.275 3.257-.849.849-1.982 1.415-3.256 1.415s-2.407-.283-3.398-.991a4.47 4.47 0 0 1-1.841-3.115c-.708-3.964-1.133-8.07-1.699-12.034v-1.558c0-1.133.425-2.124 1.133-2.973.708-.85 1.699-1.416 2.69-1.699 1.133-.142 2.124 0 3.115.566a5 5 0 0 1 2.124 2.407c.566 1.416.849 2.973 1.132 4.389.567 2.832.991 5.805 1.275 7.788zM323.635 112.277c-5.947.425-10.477-2.548-14.583-6.513a6.74 6.74 0 0 1-1.983-4.814c-.283-3.398 4.106-5.805 6.797-3.964.991.708 1.982 1.557 2.973 2.407 3.823 3.54 6.938 3.823 11.468 1.416a8.25 8.25 0 0 1 3.682-.85c.991 0 1.84 0 2.69.708.708.567 1.416 1.275 1.557 2.124.425.708.567 1.557.425 2.407 0 .849-.425 1.557-.991 2.265-2.549 2.69-5.38 4.814-9.203 4.814zM314.007 93.871c-1.274 0-2.407-.708-3.115-1.699-.849-.991-1.133-2.124-.991-3.398s.708-2.266 1.699-3.115 2.124-1.133 3.398-1.133c.708 0 1.274.142 1.841.425a6.3 6.3 0 0 1 1.557 1.133q.637.849.85 1.699c.141.566.141 1.274 0 1.982 0 .566-.142 1.274-.425 1.7-.283.424-.708.99-1.133 1.415q-.637.637-1.699.85a4.04 4.04 0 0 1-1.84 0zM331.705 95.005c-1.274 0-2.407-.566-3.256-1.416-.85-.85-1.416-1.982-1.416-3.257 0-1.274.566-2.548 1.557-3.398.992-.85 2.124-1.415 3.54-1.415 1.133.141 2.124.707 2.974 1.557.849.85 1.274 1.84 1.557 2.973 0 1.275-.566 2.549-1.416 3.54-.849.991-2.124 1.416-3.398 1.558z"/></svg>