<svg xmlns="http://www.w3.org/2000/svg" width="274" height="210" fill="none" viewBox="0 0 274 210"><path fill="#102185" d="M79.482 162.635c-8.17-.794-16.061-.774-23.882-1.196-.7 2.699-.956 5.469-.934 8.193-.237 9.799-.497 19.459-.897 29.141-.07 2.165-.095 4.609-2.749 5.912s-5.354.603-6.377-2.098a10.7 10.7 0 0 1-.696-4.19c.307-11.103.754-22.229 1.037-33.471.094-1.164-.092-2.281-.184-3.701-5.493-1.097-11.033-.75-16.387-1.008l-16.06-.774c-1.328 2.373-.933 4.748-1.12 7.075-.563 9.567-1.125 19.133-1.525 28.816-.094 1.164-.187 2.328-.444 3.375a5.53 5.53 0 0 1-1.56 2.699c-.885.722-1.98 1.047-2.98 1.07-1.164-.094-2.235-.49-2.933-1.235-.837-.722-1.302-1.793-1.488-2.91s-.372-2.235-.278-3.399c.656-11.591 1.01-23.276 1.946-34.914.725-8.589.007-17.224 1.035-25.72 1.121-9.659 3.15-19.039 8.833-27.16 4.751-6.818 11.177-10.47 19.58-10.001 2.886.094 5.656.351 8.449.748 7.099 1.26 11.566 5.684 14.612 11.924 3.047 6.239 3.79 13.292 3.647 20.205-.003 6.029-.284 12.104-.45 18.016.163.978.186 1.979.371 3.096 2.747.118 5.377.398 7.984.539l17.737.496c4.608.095 6.377 2.097 6.026 6.892-.376 7.239-.914 14.361-1.313 21.46-.305 5.936-.493 11.708-.798 17.644-.047 1.443-.257 2.77-.747 4.143a4.16 4.16 0 0 1-1.77 2.303c-.768.559-1.746.721-2.747.744s-1.908-.257-2.746-.979c-.675-.605-1.256-1.513-1.419-2.491-.232-1.397-.464-2.793-.417-4.236.423-9.544 1.009-18.97 1.594-28.397.071-2.165.118-4.469.26-7.076zM47.457 151.31c.257-1.047.35-2.211.467-3.235.143-6.913.565-13.873.428-20.74.002-4.306-.835-8.473-2.486-12.36-1.86-4.284-4.908-7.078-9.843-7.406-1.303-.071-2.49-.304-3.794-.374-5.493-.235-9.916 1.648-12.711 6.419-1.422 2.676-2.82 5.492-3.938 8.261-3.192 8.425-3.312 17.201-3.409 26.115.116.699.21 1.257.605 1.909z"/><path fill="#102185" d="M108.77 147.145c-12.615-4.218-23.994-11.368-33.44-20.706-.28.908-.537 1.955-.793 3.002-.327 3.212-.515 6.401-.702 9.59-.094 1.164-.188 2.328-.42 3.515-.257 1.047-.956 2.024-1.701 2.722-.885.721-1.98 1.047-2.98 1.07-1.14.046-2.095-.513-2.932-1.235-.838-.722-1.303-1.793-1.466-2.771a17.6 17.6 0 0 1-.208-3.84c.655-7.286 1.31-14.571 1.825-21.833.024-1.583-.209-2.98-1.023-4.423a55.2 55.2 0 0 1-5.65-15.854c-1.579-7.775-1.366-15.991.802-23.672 1.328-4.957 3.402-9.751 5.964-14.196.582-.814.839-1.862.979-2.746.14-2.607.002-5.168.306-7.658.794-7.309 1.03-14.524 2.709-21.693 2.075-9.1 6.687-16.756 14.417-22.06 9.267-6.42 25.863-6.74 33.842 5.856 1.582 2.608 2.651 5.588 3.022 8.684l.743 4.469c1.327.21 2.607.14 3.888.071 8.007-1.044 16.201-.97 24.161.29 4.119.606 8.029 1.679 12.033 2.448 1.047.257 2.211.35 3.398.584.886-3.305 1.678-6.308 2.634-9.194C171.861 5.184 184.898-.14 195.045 2.19c3.119.63 6.075 2.005 8.704 4.008 2.63 2.002 4.491 4.564 5.84 7.497 3.605 7.008 3.858 14.573 3.249 22.137-.608 7.565-1.379 15.013-2.127 22.601a9.25 9.25 0 0 0 .79 4.749c2.698 5.005 4.581 10.29 5.51 15.877 1.579 9.497.783 19.39-2.596 28.419-.302.768-.629 1.397-.792 2.141.047.28.07.419-.023.722 4.562-.184 5.796-1.394 6.706-5.421 1.539-7.145 3.217-14.314 5.362-21.272 2.004-6.936 7.034-12.078 13.646-15.474 5.285-2.744 10.685-2.207 16.085-.808 4.352 1.142 8.331 3.495 11.705 6.522 5.259 4.867 6.886 11.2 6.883 18.089.043 8.03-1.683 15.781-2.663 23.694-.818 7.169-1.938 14.245-2.919 21.297.023 1.001-.233 2.049-.652 2.979-2.47 4.143-1.703 8.752-1.984 13.104-.26 7.938-.24 15.828-.476 23.905l-.285 13.826a11.8 11.8 0 0 1-.35 3.073 3.9 3.9 0 0 1-1.747 2.443c-.908.582-1.839 1.023-2.863.907-1.001.023-2.072-.374-2.77-1.119-.837-.722-1.279-1.653-1.442-2.631a129 129 0 0 1-.438-10.404c.167-10.219.334-20.437.618-30.818l-.511-3.073c-3.911 2.373-7.45 4.396-10.826 6.536-8.848 5.49-17.695 10.98-26.566 16.33-.931.442-1.816 1.163-2.375 2.117s-.955 2.025-.932 3.025c-.632 8.287-1.264 16.573-2.035 24.882l-.281 3.492c-.094 1.163-.629 2.257-1.514 2.978a5.48 5.48 0 0 1-3.236 1.256c-2.561.139-4.12-1.468-4.584-4.261-.162-.978-.046-2.002-.068-3.003.562-8.705 1.264-17.434 1.965-26.162.187-1.467-.231-3.119-1.022-4.423-5.165-6.892-10.19-13.807-15.238-20.862-.023-.14-.325-.233-.954-.559-.233 1.187-.49 2.234-.583 3.398l-2.384 24.509c-.047 1.443-.397 2.793-.887 4.166-.419.931-1.141 1.769-1.909 2.327a3.96 3.96 0 0 1-3.073.511c-1.024-.117-1.978-.676-2.676-1.421s-1.163-1.816-1.186-2.817q.072-4.748.562-9.566c.819-8.892 1.777-17.806 2.642-27.279l-3.073.511c-8.73 3.604-17.832 5.835-27.19 6.529-7.775.719-15.712.459-23.393-.847-1.629-.303-3.235-.467-5.143-.724-1.305 3.375-1.33 6.68-1.797 9.915-1.89 12.802-2.454 25.813-3.181 38.708-.047 1.443-.257 2.77-.747 4.143a4.16 4.16 0 0 1-1.77 2.304c-.908.581-1.746.72-2.77.604-1.001.022-2.071-.374-2.769-1.119-.838-.722-1.28-1.653-1.442-2.631-.14-.838-.302-1.815-.162-2.7.518-15.013 1.897-30.026 4.022-44.875.373-2.072.467-4.097.561-6.122-.07-.419-.139-.838-.512-1.35zm45.345-6.103 2.235-.372c.698-.116 1.792-.441 2.607-.72 13.548-3.114 25.631-8.998 35.272-19.212 7.498-7.562 12.321-17.406 13.442-27.927 1.145-10.38-1.481-20.996-7.367-29.634-6.141-9.313-14.564-16.811-24.548-21.61a84.78 84.78 0 0 0-62.03-6.194C100.131 39.07 88.49 45.884 79.245 56.75c-4.355 4.887-7.546 10.728-9.364 17.058s-2.147 12.988-1.079 19.413c1.277 7.681 4.347 14.922 9.21 20.859 12.98 16.788 30.668 24.756 51.197 27.371 8.379 1.19 16.805.938 25.023-.572zm93.665 1.365-1.675-2.305c-7.166-6.847-14.31-13.553-21.476-20.399-.535-.629-1.326-1.072-2.211-1.212q-1.326-.21-2.514.418c-5.331 2.465-10.686 4.791-16.157 7.279-.559.093-1.211.489-1.7 1.001a655 655 0 0 0-11.502 10.237c6.839 9.197 13.26 18.463 20.402 27.753l36.973-22.796zm9.569-5.466c1.863-1.745 1.677-3.724 1.934-5.633 1.168-8.518 2.335-17.037 3.362-25.533.561-5.26.936-10.776 1.357-16.013.163-.745.024-1.583-.092-2.281-1.534-5.774-5.513-8.988-11.006-10.945a13.46 13.46 0 0 0-7.541-.469c-2.491.558-4.842 1.954-6.519 3.955-1.584 1.698-2.841 3.63-3.634 5.77-2.959 7.239-3.963 15.013-5.688 22.763a3.24 3.24 0 0 0 .185 1.979c.116.698.628 1.187 1.28 1.653 5.258 4.867 10.517 9.734 15.798 14.74 3.56 3.284 7.12 6.567 10.564 10.014m-55.781-88.614c.443-2.513.746-4.143.886-5.888.328-4.074.516-8.124.541-12.29-.046-2.863-.207-5.563-.811-8.333-.465-2.794-1.767-5.448-3.815-7.404-6.143-5.868-17.037-3.196-19.903 3.74a51.4 51.4 0 0 0-2.727 9.495c-.583 2.537-.42 2.654 1.79 3.865 6.866 3.308 13.335 7.687 19.199 12.74 1.349 1.21 2.838 2.399 4.723 4.238zm-89.909-22.8c.723-2.56.561-5.26-.439-7.822-.977-2.42-2.629-4.586-4.769-6.24-4.515-2.981-12.336-2.542-17.04 1.11-4.75 3.374-8.08 8.377-9.432 14.056-1.003 4.329-1.54 8.868-2.24 13.29q.07 1.71.557 3.352c9.99-8.98 21.048-14.12 33.223-17.723z"/></svg>