<svg xmlns="http://www.w3.org/2000/svg" width="413" height="312" fill="none" viewBox="0 0 413 312"><path fill="#102185" d="m142.826 216.994 95.246-80.69c1.755-1.387 3.37-2.775 5.777-2.661.707-.043 1.557-.1 2.237-.581 8.651-4.403 15.914-1.77 22.554 4.177a40 40 0 0 1 10.435 16.056c6.343 16.325 7.872 33.102 3.342 50.291-1.331 5.621-4.092 10.916-8.071 15.15-1.331 1.359-2.803 2.605-4.446 3.553-2.18 1.275-4.389 2.28-5.635 4.772-.637 1.175-2.577 1.869-4.092 2.548-16.041 6.315-32.225 12.644-48.408 18.973l-40.805 15.914c-.411.17-.821.482-1.218.793.085 1.274-.113 2.563-.156 3.979.383 9.911.609 19.822.977 29.591.099 1.416.326 2.818.836 4.064 1.557 4.29-.071 7.39-4.715 7.971-2.832.184-5.649.382-8.51.141l-48.139-.481-76.542-.878c-8.523-.141-16.905-.297-25.429-.439-4.545-.127-7.249-2.208-7.97-6.711-.086-1.274-.17-2.548.027-3.837 4.531-25.839 14.187-49.187 31.73-69.094 11.483-12.969 25.004-22.951 41.711-27.751 25.047-7.348 47.8-2.463 67.919 14.074.298.269.751.524 1.345 1.048zm-25.768-3.398c-1.161-.495-1.756-.736-2.336-.977-12.644-4.403-26.265-4.502-38.894-.255-14.032 4.474-25.4 12.757-35.184 23.489-13.89 15.249-22.626 33.146-27.695 53.067-.793 3.03-1.288 6.187-2.081 9.217 5.026.949 47.757 1.218 50.249.34.255-6.825.099-13.493.651-20.049 1.218-13.705 5.876-26.929 13.48-38.497 7.617-11.426 17.683-20.049 31.021-24.197 3.327-1.076 6.711-1.444 10.775-2.279v.141zm80.931-29.223c-1.614 1.387-2.691 2.166-3.767 3.086-7.39 6.173-14.64 12.474-22.03 18.633-16.651 14.159-33.316 28.19-49.966 42.348-1.36.949-2.266 2.28-2.86 3.88-.68 2.605-.921 5.309-.892 7.999.269 3.951 2.307 6.938 5.309 9.444.453.397 1.048.779 1.756.878.566-.043 1.274-.085 1.826-.269 2.209-.991 4.559-1.869 6.768-2.718l80.209-31.447c.977-.354 1.925-.835 3.03-1.331-12.177-14.512-17.415-31.333-19.511-50.206zm-66.858 42.475c-7.546-2.619-15.928-2.775-23.56 0-10.392 3.668-18.01 10.846-23.786 19.893-9.897 15.419-12.885 32.494-11.398 50.561.043.708.382 1.387.567 2.095 15.107.977 83.38 1.26 86.863.326-.382-9.911-.184-19.851-1.02-30.3-9.953 3.922-19.354 7.674-28.742 11.568-1.09.637-2.35.864-3.624.949a8.15 8.15 0 0 1-3.724-.609c-5.678-2.181-10.223-6.556-12.729-12.205-2.661-5.777-2.477-11.751-1.472-17.783a16.4 16.4 0 0 1 2.01-5.947c1.161-1.784 2.606-3.44 4.375-4.545 3.512-2.647 6.726-5.55 10.096-8.339a242 242 0 0 1 6.3-5.522l-.156-.127zm143.399-47.856c-1.062-5.323-1.84-10.661-3.327-15.815a42.15 42.15 0 0 0-8.651-17.018c-5.833-6.712-11.907-6.159-16.212 1.642-1.529 2.662-2.605 5.564-3.398 8.594-3.454 14.272-2.166 29.379 3.568 43.042 1.714 4.432 4.404 8.51 7.873 11.681 4.842 4.503 9.486 4.05 13.394-1.317 1.288-1.925 2.435-3.992 3.284-6.173 3.172-7.73 3.753-16.14 3.611-24.65h-.142zm-24.098 43.043c-2.407-2.11-4.686-4.234-6.683-6.655a54.3 54.3 0 0 1-5.21-8.028c-7.15-13.72-8.991-28.487-7.731-43.764.128-2.28.553-4.432.921-7.575-1.614 1.246-2.705 2.025-3.639 2.803-4.97 4.163-9.784 8.736-15.051 12.644-3.384 2.492-4.29 5.819-4.615 9.529l.127 1.982c.241 12.049 4.233 23.135 9.345 33.853 2.619 5.225 6.201 10.081 10.59 14.06l21.989-8.694v-.141zM338.924 110.493c-15.433 26.335-51.962 26.194-62.723-4.813-5.805-.85-11.61-1.699-17.415-2.832-2.69-.425-5.239-1.274-7.645-2.407-2.124-.991-4.106-2.549-5.806-4.248-4.672-5.38-4.389-11.043.284-16.282 2.548-2.832 5.805-5.097 9.486-6.23 8.637-3.115 17.557-2.831 26.901-1.699 8.071-10.902 18.973-17.273 32.99-15.716 14.159 1.558 22.796 10.76 27.609 23.786 4.248.425 8.212.708 12.318 1.275 5.381.566 10.478 2.549 14.867 5.947 4.389 3.54 6.088 8.495 3.823 12.884-1.133 2.124-2.832 3.964-4.672 5.522-4.39 3.539-9.628 4.672-15.15 4.955-4.814.283-9.77 0-14.725 0zm-7.079-10.76c1.982-7.504 1.841-14.159-1.133-20.672-1.982-4.53-5.663-8.212-10.194-10.335s-9.628-2.69-14.442-1.416c-10.053 2.548-15.999 9.486-19.256 19.114-.991 2.973-1.274 6.23-.849 9.345l45.732 3.964zm-43.75 6.938c4.814 8.353 11.327 12.601 20.388 12.318 6.796 0 14.725-4.531 16.707-9.062l-36.954-3.256zm-11.327-24.778c-6.23-.425-12.46-.424-18.265 1.84-2.407.709-4.389 2.125-5.663 4.248 2.69 3.823 12.742 6.655 21.804 6.089.708-3.965 1.416-7.93 2.124-12.177M363.56 95.77c-5.946-4.673-12.601-4.531-19.397-4.814-.283 2.973-.708 5.663-.991 8.495 7.646 1.416 16.141 0 20.388-3.823zM331.703 186.808c0-14.3 4.248-25.627 13.309-34.83 13.309-13.309 33.131-15.574 48.847-4.531 2.407 1.699 4.531 3.823 3.54 7.08a7.7 7.7 0 0 1-2.407 3.822c-1.133.991-2.69 1.699-4.247 1.841a28.8 28.8 0 0 0-8.496 2.124c-7.928 3.539-13.309 9.203-13.875 18.264-.283 3.54.708 6.938 2.973 9.77 2.124 2.69 5.381 4.53 8.779 5.097 3.539.708 7.22.566 10.76-.283a21.86 21.86 0 0 0 9.486-4.956c.567-.425.992-.849 1.416-1.274 1.983-1.699 4.106-2.69 6.655-1.416a7 7 0 0 1 2.832 2.549c.708 1.132 1.132 2.265 1.132 3.681v2.265c-3.256 16.424-11.893 28.742-28.175 34.122-15.292 5.097-28.601.567-39.645-10.902-8.353-8.778-13.026-20.247-12.884-32.423m46.016-34.547v-.991a44 44 0 0 0-8.637 0c-4.248.425-8.354 1.841-11.893 4.248-3.54 2.265-6.513 5.522-8.637 9.203-8.212 13.592-8.354 27.467-.708 41.343 3.256 5.946 8.353 10.477 14.583 13.167 4.248 1.983 8.92 2.832 13.451 2.124 9.628-1.416 16.566-6.654 21.38-14.725.424-.849.707-1.841.991-2.69l-3.823 1.274c-5.805 1.841-12.035 1.983-17.84.425-11.893-3.256-19.822-13.026-19.114-25.627.566-9.628 5.38-16.99 12.743-22.795 2.265-1.841 4.813-3.257 7.362-4.814zM356.622 31.347c-2.831.991-4.955 1.84-7.221 2.548-1.274.425-2.548.284-3.822-.283-1.133-.566-2.124-1.557-2.549-2.831-.566-1.133-.566-2.55 0-3.823.425-1.275 1.274-2.266 2.549-2.832.991-.566 2.123-.991 3.115-1.416 1.132-.425 2.123-.85 3.256-1.133.283-1.699-1.133-2.407-1.841-3.256-1.415-1.7-2.973-3.257-4.247-4.956-.708-.85-.991-1.982-.991-3.114q0-1.7 1.274-2.974a4.38 4.38 0 0 1 2.832-1.557c1.132-.142 2.265 0 3.256.425 1.133.566 2.124 1.274 3.115 2.123.85.567 1.558 1.275 2.549 2.124.141-1.84.283-3.115.566-4.53.708-4.248 2.973-6.23 6.23-5.806 2.973.425 4.814 3.257 4.389 7.08 0 1.699-.283 3.256-.425 5.522 1.416-.567 2.407-.992 3.398-1.275 2.407-.99 4.814-1.699 7.363-2.265 1.274-.283 2.69 0 3.964.708 1.133.708 1.983 1.84 2.407 3.256.708 2.974-.708 5.38-4.106 6.372-3.681 1.132-7.079 2.548-10.336 4.53.284.85.708 1.558 1.275 2.407 1.982 2.407 4.106 4.673 6.088 7.08.849.85 1.557 1.699 2.124 2.69.566.99.708 2.124.566 3.115-.142 1.132-.708 2.124-1.416 2.831a4.38 4.38 0 0 1-2.832 1.558c-1.132.141-2.265 0-3.114-.566-1.133-.708-2.266-1.7-3.257-2.69-.991-.992-1.841-1.983-2.973-3.257-.283.991-.567 1.699-.85 2.407-1.274 2.973-3.398 4.248-5.946 3.823-1.275-.425-2.407-1.275-3.115-2.266-.708-1.132-1.133-2.407-1.133-3.822.142-1.841.142-3.54.283-5.947zM311.314 35.877c-3.681.567-7.362 1.275-11.043 1.558a38.7 38.7 0 0 1-9.912 0c-5.238-.708-9.061-4.106-12.176-8.212-1.274-1.7-2.407-3.681-3.681-5.38-2.266-3.115-4.814-5.664-8.779-6.372a12.2 12.2 0 0 0-4.53 0c-3.965 1.133-7.646 2.69-11.61 4.106q-2.336 1.062-4.673 1.274c-.991 0-1.982-.424-2.69-.99-.708-.709-1.274-1.558-1.557-2.408-.425-.99-.425-2.123 0-3.256.424-.991 1.132-1.982 1.982-2.549a41 41 0 0 1 8.212-4.247c2.973-.991 5.946-1.7 8.92-2.407a20.2 20.2 0 0 1 9.203 0c2.973.708 5.805 2.265 8.07 4.389 2.69 2.549 5.097 5.38 7.363 8.212.425.566.849 1.274 1.274 1.982 2.973 4.956 7.363 6.372 12.743 5.522 3.964-.708 7.787-1.416 11.752-1.699 2.123 0 4.247.425 6.229 1.274a4.97 4.97 0 0 1 2.691 2.407c.566 1.133.707 2.407.424 3.54-.708 2.548-2.548 3.823-5.522 3.681-.849 0-1.84-.142-2.69-.283v-.283zM315.845 158.916c0 3.822-2.69 6.654-6.088 6.513-1.416 0-2.69-.567-3.54-1.558-.991-.991-1.416-2.265-1.416-3.681 0-3.54 2.974-6.796 5.947-6.796 1.416 0 2.832.708 3.681 1.699.991.991 1.416 2.407 1.416 3.823M239.247 118.847c0 1.557-.708 3.115-1.841 4.247-1.132 1.133-2.548 1.841-4.247 1.983-3.115 0-5.097-1.983-5.239-5.381-.142-.849 0-1.557 0-2.407.142-.707.566-1.415.991-2.123.425-.567 1.133-1.133 1.841-1.558s1.416-.566 2.265-.708c.85 0 1.558 0 2.266.283a9 9 0 0 1 1.982 1.133c.566.567.991 1.274 1.416 1.982.283.708.424 1.558.424 2.266zM384.657 114.883c0-1.557.708-2.832 1.699-3.964s2.407-1.699 3.964-1.699 2.973.707 4.106 1.699c1.133 1.132 1.699 2.548 1.557 4.106 0 1.557-.707 2.973-1.699 4.106-1.132 1.132-2.548 1.699-4.106 1.557-1.415 0-2.831-.85-3.822-1.841-.991-1.132-1.558-2.548-1.558-3.964z"/></svg>