<svg xmlns="http://www.w3.org/2000/svg" width="164" height="251" fill="none" viewBox="0 0 164 251"><path fill="#102185" d="M102.884 152.531c-6.23 9.344-12.318 18.689-18.548 27.892-3.398 5.098-6.796 10.336-10.619 15.15a74 74 0 0 1-8.353 7.929c-.567.424-1.275.85-2.124.991-5.239 1.558-10.619 1.841-16 .991-4.105-.849-5.946-3.115-6.23-7.221-.282-4.814-.566-9.769-.566-14.583 0-1.841.284-3.54.992-5.239s1.699-3.115 2.973-4.389c6.938-6.796 13.875-13.734 20.53-20.955 3.398-3.681 6.513-7.646 9.203-11.893a312.3 312.3 0 0 0 28.317-48.989c1.983-4.389.992-8.636.708-12.884 0-1.416-2.265-2.69-3.54-4.106-.99.425-1.981.85-2.831 1.274-12.601 6.655-25.202 13.31-38.795 17.84-6.371 2.124-13.026 4.248-19.68 4.814-17.415 1.416-31.999-8.212-36.53-26.335-2.265-8.07-2.407-16.707-.283-24.777 1.274-4.814 3.681-9.345 6.938-13.168 6.371-7.362 14.159-13.45 22.795-17.981C44.126 10.096 57.86 6.13 72.018 3.158 82.638.892 93.398-.24 104.158.043c6.938 0 13.876 1.416 20.389 3.823 3.115 1.274 6.088 2.831 8.778 4.672 8.354 5.947 10.902 15.433 6.796 24.92-.849 1.981-1.274 4.105-1.132 6.37-.142 9.204-1.416 18.407-3.965 27.327 0 .566-.283 1.274-.708 1.699-2.69 2.973-1.415 5.946-.424 9.203 4.247 13.875 8.353 27.751 12.176 41.768 5.38 19.822 10.336 39.785 15.716 59.607 2.124 7.363 1.841 15.15-.849 22.229-4.39 11.752-8.637 23.645-12.885 35.397-.991 2.832-1.699 5.946-2.69 8.778-1.84 5.522-6.371 6.655-10.336 2.407-4.672-4.955-8.92-10.336-13.167-15.574-3.965-4.814-7.646-9.77-11.469-14.584s-5.946-10.902-5.805-17.132c0-9.344 0-18.831-.141-28.175 0-6.796-.425-13.592-.708-20.389h-.567zm28.318-48.423c-3.399 0-6.372-.283-7.363-3.822-.85-3.257 1.274-5.239 4.106-7.08l-5.097-15.008-8.354 2.407c0 .425-.141.992-.283 1.416 0 8.92.283 17.698 0 26.618s.991 17.699-.425 26.477v.424c.425 22.088.85 44.175 1.133 66.263 0 4.106 1.699 8.07 4.531 10.902 3.964-1.841 6.088-1.699 7.787.425.708.849 1.133 1.84 1.133 2.831-.425 2.124-1.133 4.106-1.841 6.089l10.902 13.592c1.699-5.239 3.257-9.77 4.673-14.3-3.965-1.983-5.381-4.106-4.531-6.938q.424-1.911 2.124-2.973c2.265-.708 4.53-1.133 6.937-1.558 1.275-3.256 2.691-7.221 4.248-11.043 2.407-5.381 2.549-11.327.708-16.849-.566-1.841-.85-3.682-1.416-5.664l-13.875-52.953a3640 3640 0 0 1-5.097-19.256m-108.88-39.36v-1.133c-2.832-8.92.141-15.858 6.937-21.663 4.672-3.964 10.336-6.23 16.141-7.929 9.628-2.973 19.539-4.672 29.45-5.238 6.372-.283 12.884 0 19.256.425 3.115.283 6.371.283 9.486-.142 9.203-1.416 18.123-4.39 27.61-3.257a6.34 6.34 0 0 0 0-3.964c-.425-1.274-1.275-2.407-2.407-3.256-2.832-2.124-5.947-3.965-9.204-5.38-6.654-2.55-13.733-2.832-20.954-2.69-15.716.14-30.725 3.539-45.591 8.353-9.628 2.973-18.69 7.362-26.76 13.309-5.239 3.68-9.628 8.212-12.885 13.592-4.672 7.929-.566 16.707 8.779 18.831zm81.412 49.555c-.425.424-.85.849-1.133 1.274-5.947 9.769-11.893 19.539-18.123 29.025a160.6 160.6 0 0 1-24.211 29.308c-2.69 2.549-5.24 5.239-7.788 7.929-.708.567-1.132 1.274-1.274 2.266 0 3.681.283 7.362.566 10.902 6.23.566 7.646.424 9.77-2.124 4.248-5.097 8.495-10.194 12.601-15.575 1.558-1.982 2.549-4.53 4.106-6.512 7.504-10.478 14.584-21.38 20.955-32.707 3.115-5.38 5.38-10.76 4.814-16.99-.142-1.982 0-4.106 0-6.796zm-91.182-41.91c3.115 7.93 8.07 13.31 15.858 15.433 5.663 1.7 11.327.991 16.99-.425 16.566-4.389 31.715-12.176 46.724-20.246.566-.425 1.274-.85 1.84-1.416l-4.53-12.46a615 615 0 0 1-5.806 4.956c-5.663 5.097-12.176 9.061-19.255 11.893a97.1 97.1 0 0 1-26.76 6.371c-8.07.708-15.858 0-23.22-3.54-.284-.141-.708-.282-1.7-.566zm19.114-14.725c-.283 2.549 1.7 4.531 3.257 6.796a3.9 3.9 0 0 0 1.84 1.558c.708.283 1.558.283 2.407 0 8.354-.991 16.566-3.398 24.353-6.796 8.495-3.965 15.433-10.053 21.804-16.849.284-.283.567-.708.708-1.274a2.4 2.4 0 0 0 0-1.416c-.283-.566-1.699-1.133-2.548-1.133-2.549 0-5.097.283-7.646.425A110 110 0 0 0 45.683 44.5c-3.964 1.133-7.645 3.115-10.76 5.947-.992.849-1.841 1.982-2.407 3.114-.567 1.275-.991 2.549-.991 3.823zm68.811-5.238c2.69 0 5.381 0 6.513 2.973 1.274 3.115-.425 5.38-2.548 7.504.424.708.708 1.416 1.132 2.124.567.991 1.133 1.982 1.841 2.973 1.699 2.549 2.407 2.973 5.522 2.124 2.548-.567 4.955-1.557 7.362-2.265 1.416-.284 2.691-1.133 3.682-2.266a7.1 7.1 0 0 0 1.699-3.964c.424-2.69 1.132-5.239 1.557-7.929.566-4.39.991-8.637 1.133-13.026 0-4.39-.85-4.955-5.097-4.39-3.115.426-6.372.992-9.487 1.558-5.38.991-10.76 1.983-16.282 3.115-.425 4.531 1.84 7.787 2.973 11.469"/><path fill="#102185" d="M128.087 124.356c0 1.416-.708 2.548-1.699 3.539-.991.85-2.266 1.416-3.681 1.416s-1.275-.141-1.841-.425c-.566-.283-1.133-.566-1.557-1.132-.425-.425-.85-.991-.992-1.558-.283-.566-.283-1.274-.283-1.84 0-1.274.567-2.69 1.558-3.682.991-.991 2.265-1.557 3.539-1.557 1.416 0 2.69.566 3.54 1.557.991.992 1.416 2.266 1.416 3.682M127.379 198.546c-.708 0-1.275 0-1.983-.425-.566-.283-1.132-.566-1.699-1.133a5.1 5.1 0 0 1-1.132-1.699c-.283-.566-.425-1.274-.425-1.982s0-1.274.425-1.982c.283-.566.566-1.133 1.132-1.699.425-.425.992-.85 1.699-1.133.567-.283 1.275-.425 1.983-.425s1.274.142 1.982.425a6.3 6.3 0 0 1 1.557 1.133c.425.566.85 1.133.991 1.699.284.708.284 1.274.284 1.982 0 .566 0 1.274-.284 1.841-.283.566-.566 1.132-.991 1.557-.424.425-.991.85-1.557.991-.566.283-1.274.283-1.841.283zM140.971 190.051c-1.274 0-2.549-.566-3.398-1.415s-1.416-2.124-1.416-3.398c0-1.416.566-2.691 1.557-3.682.992-.991 2.266-1.557 3.682-1.557.708 0 1.274.142 1.84.425s1.133.566 1.558 1.132c.425.425.849.992.991 1.558.283.566.425 1.274.425 1.841 0 .707 0 1.415-.284 1.982-.283.566-.566 1.132-1.132 1.699a5.1 5.1 0 0 1-1.699 1.132c-.567.283-1.275.425-1.982.283zM127.803 159.894c-.566 0-1.132-.001-1.699-.284-.566-.283-1.132-.566-1.557-.991-.425-.424-.708-.991-.991-1.557s-.283-1.133-.283-1.699c0-1.275.566-2.407 1.415-3.256.85-.85 2.124-1.275 3.257-1.275 1.274 0 2.407.566 3.256 1.416.85.849 1.416 1.982 1.416 3.256 0 1.275-.566 2.407-1.416 3.257-.849.85-2.123 1.274-3.256 1.274zM118.317 42.802c.708 0 1.416 0 1.982.424.566.284 1.133.567 1.699 1.133.425.425.85.991 1.133 1.7.283.566.425 1.274.425 1.982 0 1.274-.425 2.548-1.275 3.54-.849.99-2.124 1.557-3.398 1.698-1.416 0-2.69-.425-3.681-1.274-.991-.85-1.558-2.124-1.699-3.54 0-1.416.425-2.69 1.274-3.681.85-.991 2.124-1.557 3.54-1.699z"/></svg>