<svg xmlns="http://www.w3.org/2000/svg" width="173" height="151" fill="none" viewBox="0 0 173 151"><path fill="#102185" d="M46.282 40.777c-.892-4.8-1.685-9.16-2.464-13.663a8 8 0 0 0-1.33-3.427c-.751-.934-1.657-1.755-2.875-2.307-.666-.354-1.345-.723-1.996-1.218-3.13-2.634-2.606-7.277 1.245-8.693 2.237-.892 4.701-1.331 7.108-1.204 7.66.283 15.419-.283 22.994-1.855 4.36-.792 8.65-.892 12.998-.269 7.985 1.175 15.107-.028 21.393-5.31.935-.75 1.855-1.359 2.903-1.812C107.334.283 108.651 0 109.939 0c1.26.142 2.506.566 3.554 1.388 1.048.835 1.784 1.911 2.067 3.228.297 1.175.283 2.59-.142 3.837-.509 2.081-1.316 4.134-2.251 6.159-2.407 4.998-1.84 10.194-1.501 16.07 1.898-.354 3.498-.75 5.083-.864a34 34 0 0 1 7.646-.863c1.826.198 3.766.707 5.21 1.854 10.987 8.778 21.819 17.67 32.679 26.434 1.316 1.006 2.605 2.138 3.907 3.285a10.6 10.6 0 0 1 3.129 3.908c.694 1.5 1.076 3.115 1.175 4.828.694 15.461 1.388 31.064 1.94 46.511.269 6.584-.863 7.745-7.15 9.175-25.117 5.465-50.093 11.086-75.196 16.424-15.023 3.171-30.272 5.748-45.294 8.92-5.848 1.345-9.996-1.119-13.11-5.027-8.907-10.817-17.515-21.889-26.11-32.961-2.619-3.285-2.732-7.433-2.874-11.284C1.767 86.382.96 71.912.025 57.272c-.028-1.005-.056-1.997.057-3.13.34-5.663.651-5.903 6.456-6.838 12.46-1.883 24.792-3.936 37.28-5.96.878-.185 1.628-.539 2.662-.85l-.17.269zm115.492 55.445c-.297-7.59-.736-15.178-1.034-22.767L43.068 95.259c.297 7.589.269 15.56 1.09 23.489l4.955-1.019c6.995-1.359 13.834-2.733 20.814-3.95 4.658-.907 9.4-1.232 14.06-2.138 16.31-3.172 32.493-6.499 48.804-9.671zm-48.692-46.313 1.473-.41c3.554-1.176 5.89-.482 7.065 1.783 1.175 2.266.141 5.14-2.931 7.08-.623.495-1.373.85-1.968 1.062-4.474 1.784-8.977 3.85-13.663 5.026-16.34 4.729-33.429 5.96-50.292 3.808-1.132-.127-2.25-.254-3.341-.65-.949-.397-1.742-1.049-2.365-1.827-.608-.92-.778-1.94-.807-2.945.114-.991.51-2.081 1.175-2.86.666-.779 1.558-1.246 2.719-1.402 1.02-.17 2.01-.198 2.747-.41 2.209-3.172-.524-5.48-.496-8.325l-37.733 6.2 24.636 29.522c38.838-5.933 77.066-14.074 115.592-21.04l.099-.85-30.838-24.947-11.44 1.713c.028 2.28.113 4.149.326 6.017.028 1.006.198 2.011.481 3.328l-.439.099zm-68.57 89.964c39.828-7.108 78.949-15.575 118.111-24.466-.07-3.143-.184-6.003-.311-8.722-.708-.085-117.361 21.55-118.112 21.903.029 3.568.184 7.292.312 11.285m49.994-83.054 8.524-2.323c-.524-13.167-1.105-25.91-1.685-38.652-6.91 3.214-14.286 2.973-22.017 1.968-3.384-.383-6.683-.17-10.024.453-4.9.453-9.685 1.203-14.47 1.953-.878.185-1.884.213-2.733.27.708 3.921 1.274 7.688 2.166 11.213a66 66 0 0 0 3.073 9.458c2.053 4.644 4.375 9.316 6.583 13.833a122 122 0 0 1 2.053 4.644l6.16-.311c-1.204-4.545-2.28-8.949-3.668-13.083-.75-2.223-2.11-4.078-2.86-6.3-1.147-2.55-2.124-5.225-2.676-7.986-.708-3.922 2.747-6.81 6.145-5.295a9.46 9.46 0 0 1 3.172 3.483 69 69 0 0 1 2.223 5.663c1.444 3.724 3.171 7.334 4.332 11.03 1.303 3.71 2.152 7.504 3.172 11.185l1.401.156c.44-.1.892-.326 1.204-.58-1.175-7.391.085-14.81 1.033-22.102.397-3.512 2.152-5.31 4.984-5.14 2.818.312 4.743 2.237 4.8 5.522a25 25 0 0 1-.722 6.47c-1.218 4.56-.439 9.062-.142 14.088l-.042.425zm-84.272 9.57c.255 4.163.481 7.18.438 10.167-.014 3.992.581 7.617 4.319 9.882.396.326.779.652 1.02 1.105 5.04 5.975 10.066 11.95 15.107 17.924.623.779 1.402 1.445 2.548 2.705-.099-4.29-.424-7.745-.297-11.426.085-1.982-.694-4.064-2.096-5.508-5.918-6.923-11.695-13.974-17.471-20.898a193 193 0 0 1-3.554-3.95zm2.364 32.608c-.354 1.954-.439 3.936.198 5.862.496 1.911 1.6 3.596 2.86 5.026 5.409 6.442 10.648 13.153 15.887 19.865.75.934 1.642 1.897 2.888 3.454-.17-3.582-.283-6.442-.326-8.58L12.598 99.011z"/></svg>