<svg width="302" height="409" viewBox="0 0 302 409" fill="none" xmlns="http://www.w3.org/2000/svg">
<path d="M157.877 74.0738C157.722 76.0702 157.58 78.2082 157.58 80.4735C157.509 83.7442 157.58 87.1423 157.368 90.4129C157.41 91.1208 157.467 91.9701 157.792 92.6497C158.118 93.3293 158.585 93.8817 159.322 94.2498C165.297 98.9647 171.286 103.693 177.275 108.55C185.954 115.502 194.619 122.326 203.44 129.278C208.226 133.087 213.153 136.881 217.797 140.69C219 141.752 220.586 142.205 222.144 142.106C230.794 142.106 239.318 142.134 247.969 142.134L286.849 142.176C287.84 142.106 288.689 142.205 289.567 142.432C290.148 142.531 290.728 142.786 291.181 143.182C291.634 143.578 292.087 143.975 292.257 144.527C292.583 145.079 292.753 145.631 292.654 146.198C292.696 146.764 292.583 147.33 292.342 147.925C291.733 149.525 291.408 151.111 291.521 152.795C291.62 161.022 292.031 169.361 292.13 177.587C292.399 190.486 292.512 203.243 292.781 216.141C293.008 226.194 293.234 236.26 293.461 246.313C293.758 259.636 293.914 273.101 294.211 286.41C294.268 291.663 294.608 297.029 294.806 302.268C294.947 304.392 295.514 306.615 296.76 308.384C297.878 310.296 298.997 312.207 299.96 313.991C300.441 314.812 300.781 315.648 301.106 316.469C302.324 319.938 300.908 322.161 297.227 322.401C293.97 322.614 290.572 322.543 287.302 322.472C277.079 322.43 266.715 322.246 256.492 322.047C247.119 321.948 237.605 321.708 228.232 321.609C222.271 321.566 216.452 321.524 210.491 321.481C200.268 321.297 190.187 321.226 179.965 321.042C174.004 321 167.902 320.971 161.941 320.929C152.143 320.858 142.487 320.632 132.675 320.405C126.275 320.249 119.748 320.249 113.363 320.235C103.99 320.136 94.475 319.895 85.1019 319.796C79.1411 319.754 73.3219 319.711 67.3611 319.669C56.997 319.485 46.916 319.428 36.5519 319.244C30.1522 319.088 23.625 319.088 17.2394 319.074C13.9688 319.003 10.8681 319.201 7.58326 318.848C5.72848 318.678 3.85951 318.239 2.24542 317.488C1.8065 317.233 1.36759 316.979 1.0561 316.71C0.744609 316.299 0.433122 315.903 0.263218 315.478C0.0933146 315.067 -0.0765945 314.501 0.0366748 314.076C-0.00580119 313.51 0.107484 313.085 0.362339 312.632C0.829575 311.188 1.32513 309.871 2.0897 308.696C4.5533 305.128 4.85065 300.993 5.02055 296.873C5.38868 285.079 5.91252 273.257 6.28065 261.463C6.50719 254.072 6.74788 246.823 6.98858 239.432C7.38502 227.921 7.89475 216.24 8.2912 204.729C8.67348 195.342 8.92833 186.097 9.16903 176.724C9.4522 170.041 9.73537 163.485 10.0044 156.802C10.0752 153.532 10.1601 150.403 10.3725 147.132C10.2876 145.858 10.6274 144.414 10.9672 143.125C11.5477 141.101 13.0485 140.294 15.3422 140.577C18.4854 140.945 21.4871 141.171 24.602 141.256C33.2529 141.256 42.0454 141.115 50.6964 141.129C59.3473 141.129 67.8708 141.157 76.5359 141.299C78.6597 141.157 80.7411 140.605 82.4967 139.218C90.4964 133.455 98.496 127.82 106.651 122.185C119.819 112.967 133.142 104.019 146.31 94.7877C146.848 94.3205 147.527 93.8534 148.08 93.5419C148.632 93.2163 149.028 92.7772 149.283 92.3241C149.524 91.7436 149.637 91.3047 149.595 90.5968C149.68 83.2202 149.92 75.9567 150.161 68.5659C150.487 58.3293 150.826 48.0927 151.01 37.8702C151.081 34.5996 151.152 31.1873 151.223 27.9308C151.237 23.8107 152.285 22.4656 156.391 22.2107C160.497 21.9559 164.886 21.9418 169.148 21.956C175.831 22.0975 182.641 22.225 189.324 22.3524L218.009 22.7631C224.409 22.9188 230.936 22.9188 237.322 23.0745C239.021 23.1029 240.875 23.1311 242.589 23.301C245.718 23.5275 247.247 25.1274 247.445 28.2423C247.615 30.7908 247.785 33.4668 247.672 36.0295C247.289 47.682 246.907 59.2071 246.511 70.7181C246.553 71.426 246.454 72.134 246.086 72.8702C245.704 73.6065 245.18 74.2012 244.5 74.6684C243.821 75.1356 242.985 75.3339 242.121 75.1074C235.014 74.9941 227.793 75.0364 220.685 74.9373C214.441 74.909 208.325 74.5975 202.081 74.5834C191.575 74.4134 181.211 74.3713 170.705 74.2014C166.585 74.1872 162.606 74.017 158.345 73.8613L157.934 74.0313L157.877 74.0738ZM283.422 150.516C281.582 150.488 280.293 150.29 279.005 150.233C272.053 150.261 265.101 150.276 258.149 150.304L227.637 150.148C223.8 150.105 219.977 150.219 216.14 150.176C203.652 150.134 191.292 149.936 178.804 149.893C169.431 149.794 160.214 149.822 150.855 149.851L102.319 149.723C95.9333 149.723 89.6893 149.695 83.3037 149.681C71.6653 149.581 60.0269 149.624 48.3885 149.525C42.1445 149.497 35.8864 149.341 29.784 149.171C25.947 149.129 22.1242 149.242 18.4429 149.341C17.5085 152.527 15.8944 202.138 16.6306 204.786C17.6217 204.715 18.627 204.942 19.6181 205.013C32.1061 205.055 44.4524 205.112 56.9403 205.154L125.341 205.409C128.895 205.466 132.434 205.381 135.988 205.437C148.476 205.48 160.837 205.678 173.325 205.72C184.963 205.82 196.601 205.918 208.098 205.89L253.519 206.074C262.029 206.089 270.552 206.244 279.061 206.131L284.569 205.777C284.229 187.357 283.904 169.22 283.422 150.658V150.516ZM202.081 213.664C201.076 213.593 200.07 213.366 199.093 213.437C195.823 213.366 192.708 213.437 189.437 213.352L154.947 213.168C142.034 213.154 128.965 212.998 116.053 212.984C111.649 212.984 107.104 212.856 102.701 212.856L97.9013 213.168C97.9579 220.686 98.1421 227.766 98.0288 234.873C97.9155 241.981 97.8305 249.357 97.873 256.592C97.9155 263.827 97.8022 270.921 97.9863 278.014C98.1703 285.235 97.6323 292.371 97.9863 299.861C102.248 300.017 106.099 300.187 110.191 299.918C110.248 298.643 110.333 297.78 110.418 296.916C110.658 289.667 110.757 282.418 110.998 275.168C111.239 263.516 111.607 251.722 111.848 240.069C111.72 238.087 112.018 236.09 112.173 234.236C112.244 233.245 112.626 232.367 113.292 231.758C113.957 231.149 114.92 230.654 115.77 230.611C116.761 230.541 117.638 231.064 118.389 231.716C119.139 232.367 119.635 233.344 119.692 234.321L119.776 235.595C119.578 243.411 119.366 251.085 119.295 258.9C119.097 266.857 119.352 275.069 118.587 283.069C118.276 286.92 118.247 290.898 118.219 294.863L118.573 300.371L147.825 300.753C147.91 293.376 148.023 286.269 148.108 278.878L144.554 278.68C142.43 278.68 140.151 278.68 138.013 278.397C137.163 278.453 136.285 277.944 135.535 277.278C134.926 276.613 134.445 275.791 134.53 274.786C134.473 273.937 134.841 272.917 135.365 272.323C135.889 271.586 136.71 271.105 137.687 271.034L141.085 270.822C143.351 270.68 145.63 270.822 148.165 270.652C148.235 265.116 148.462 259.849 148.391 254.468C148.32 249.074 148.972 243.651 148.179 238.03C147.471 238.073 146.904 237.974 146.338 238.002C142.232 238.13 137.97 238.115 133.864 238.243C131.741 238.384 129.461 238.243 127.323 238.101C126.332 238.172 125.454 237.79 124.704 237.138C123.953 236.487 123.613 235.652 123.557 234.661C123.5 233.669 123.854 232.65 124.52 231.9C125.185 231.149 126.148 230.654 127.125 230.597L129.957 230.413C134.36 230.413 138.607 230.413 142.997 230.286C152.908 230.073 162.691 229.861 172.602 229.648C173.169 229.606 173.594 229.578 174.16 229.691C175.165 229.903 176.057 230.413 176.666 231.234C177.289 232.041 177.629 233.018 177.558 234.009C177.629 235 177.105 235.878 176.439 236.487C175.774 237.096 174.953 237.577 173.962 237.634L171.13 237.818C167.024 237.945 162.762 237.931 158.656 238.059C157.948 238.101 157.24 238.143 156.561 238.483C156.688 249.258 155.966 259.948 156.362 270.567C158.401 271.431 160.355 270.878 162.068 271.048C163.484 270.963 164.928 271.289 166.358 271.487C167.081 271.728 167.675 272.11 168.142 272.648C168.61 273.186 168.935 273.88 168.978 274.574C169.034 275.423 168.935 276.131 168.411 276.882C168.029 277.618 167.35 278.085 166.67 278.411C165.835 278.751 164.858 278.949 164.008 279.005C162.167 279.119 160.313 278.963 158.486 279.076C157.637 279.133 156.787 279.189 155.952 279.388C155.867 286.764 155.612 293.886 155.796 301.107C157.07 301.163 157.934 301.248 158.784 301.192C164.886 301.22 170.988 301.249 177.105 301.433C180.517 301.489 180.8 301.475 180.998 297.921L180.914 296.647C180.814 286.297 180.857 275.933 180.744 265.583C180.744 256.649 180.588 247.715 180.432 238.922C180.319 237.223 180.503 235.652 180.531 233.953C180.645 231.39 182.117 229.875 184.227 229.606C186.336 229.337 187.865 230.937 188.446 233.443L188.559 235.283C188.616 236.133 188.531 236.983 188.446 237.846C188.418 248.493 188.531 258.985 188.644 269.477C188.729 279.543 188.672 289.624 188.743 299.549L188.871 301.532C192.283 301.588 195.412 301.673 198.669 301.602L201.642 301.404C201.996 300.243 202.208 299.096 202.265 297.964C202.435 296.25 202.321 294.41 202.35 292.711C202.321 279.09 202.307 265.611 202.265 251.991C202.166 241.641 202.222 231.56 202.123 221.21C202.265 218.93 201.826 216.693 201.656 214.003L202.067 213.692L202.081 213.664ZM284.541 213.862C259.721 214.046 235.41 213.352 210.463 213.55C210.519 242.915 210.548 271.997 210.59 301.079C215.178 301.772 283.479 302.749 286.268 301.999C286.197 301.008 286.268 300.017 286.353 299.011C286.183 296.321 285.999 293.645 285.971 290.955C285.744 276.499 285.532 262.185 285.305 247.729C285.093 237.818 284.881 227.893 284.654 217.84L284.385 213.607L284.541 213.876V213.862ZM89.93 212.686L15.682 212.092C14.5635 240.961 13.5865 269.547 12.6096 298.417C17.9191 299.351 23.1294 298.728 28.2549 298.969C33.3803 299.21 38.4775 299.153 43.4613 299.266L58.9367 299.408C64.048 299.507 69.1593 299.592 74.129 299.564C79.2402 299.521 84.3798 300.172 89.7318 299.408C89.8451 270.453 89.8309 241.796 89.8026 212.715H89.9442L89.93 212.686ZM205.805 141.624C204.459 140.577 203.553 139.642 202.506 138.864C197.111 134.531 191.603 130.34 186.209 126.007C176.029 117.866 165.721 109.739 155.555 101.74C154.055 100.513 152.535 100.423 150.996 101.471C132.378 114.171 113.773 126.998 95.013 139.713C94.4608 140.039 93.9369 140.633 92.9883 141.398C93.7104 141.497 94.4183 141.596 95.282 141.681C104.23 141.809 113.164 141.809 121.957 141.795C126.077 141.809 130.183 141.695 134.431 141.695C148.476 141.78 162.394 141.879 176.439 141.964C183.689 142.063 190.924 142.163 198.159 142.12C200.721 142.233 203.412 142.063 205.932 141.624H205.79H205.805ZM8.65929 311.726C9.09821 311.839 9.66459 311.938 10.1035 312.052C15.6395 312.122 21.3171 312.179 26.8532 312.25C33.2387 312.25 39.7801 312.406 46.1656 312.42C55.6802 312.519 65.1948 312.745 74.851 312.83C81.2507 312.986 87.7637 312.844 94.1635 313C103.395 313.113 112.343 313.382 121.575 313.496C128.116 313.637 134.643 313.637 141.17 313.651C150.543 313.751 159.775 314.005 169.148 314.119C175.831 314.26 182.358 314.26 189.026 314.246C199.391 314.288 209.613 314.473 219.836 314.671C225.796 314.713 231.899 314.741 237.874 314.926C247.247 315.025 256.478 315.28 265.851 315.393C272.959 315.506 280.194 315.605 287.302 315.704L292.385 315.379L291.535 313.312C290.53 310.82 288.916 310.069 286.226 310.112C280.279 310.211 274.163 310.041 268.202 309.998C258.829 309.899 249.597 309.645 240.224 309.531C233.541 309.39 226.731 309.404 220.062 309.276C210.264 309.205 200.608 308.979 190.796 308.753C184.836 308.71 179.016 308.668 173.041 308.484C163.668 308.385 154.154 308.144 144.766 307.903C138.523 307.875 132.279 307.861 126.162 307.691C117.214 307.563 108.407 307.28 99.4588 307.152C93.2007 306.983 86.8151 306.983 80.4295 306.969C68.4938 306.742 56.558 306.53 44.6364 306.303C38.3783 306.133 32.1344 305.978 26.032 305.949C21.3455 305.822 16.5174 305.85 11.5477 305.751L8.65929 311.471V311.754V311.726ZM187.115 30.4653C186.322 35.7606 186.181 64.2901 186.889 66.513C190.754 67.1077 206.781 67.0654 208.877 66.3716C208.919 60.5525 208.976 54.733 209.16 48.7581C209.344 42.9247 210.095 36.9215 209.273 30.7342L187.257 30.4511H187.115V30.4653ZM238.044 67.4619C239.106 57.6075 239.559 33.8775 238.695 31.5272C231.842 30.8334 220.77 30.8475 217.415 31.4847C217.471 43.2646 216.381 54.9595 216.877 67.1359L237.902 67.4761H238.044V67.4619ZM158.996 29.8707C158.529 42.3869 158.175 54.4642 157.991 66.9662C164.886 66.0884 171.625 67.0796 178.379 66.3575C178.407 60.1135 178.436 54.0109 178.478 48.0502C178.521 42.0894 179.13 36.2279 178.464 30.168L158.868 29.8707H159.01H158.996Z" fill="#102185"/>
<path d="M55.3548 26.6426C60.4236 30.423 65.7331 33.6369 72.1753 34.359C73.0248 34.3024 73.761 34.8262 74.3699 35.35C74.9645 35.8739 75.446 36.6952 75.5026 37.5447C75.5592 38.3942 75.6159 39.2437 75.3752 39.9658C74.9929 40.702 74.4831 41.4383 73.7894 41.7639C72.9682 42.2453 72.147 42.7268 71.3116 42.9109C69.655 43.7321 67.9985 44.3973 66.3561 45.2185C63.4819 46.8185 61.0749 49.1123 59.4183 52.0573C56.1052 57.8056 54.661 63.9931 53.9531 70.5768C53.3018 75.8721 52.5089 81.1675 53.0045 86.5336C53.0469 87.2415 52.9479 87.9495 52.7213 88.6857C52.5089 89.691 51.9992 90.583 51.178 91.1918C50.3709 91.8148 49.394 92.1544 48.4029 92.0836C47.4118 92.0128 46.534 91.6305 45.7835 90.9792C45.0331 90.3279 44.6792 89.3509 44.481 88.3739C44.2403 86.8306 44.1411 85.2735 44.1836 83.716C44.7216 76.7358 43.8438 69.6848 43.3907 62.7612C43.2067 59.9295 42.7395 56.9844 42.2722 54.181C41.7908 51.0945 40.8846 50.3017 37.7697 50.3583C35.3628 50.514 32.97 50.6696 30.5913 51.2501C27.3632 51.7457 24.6588 49.3671 25.3101 46.3371C25.5508 45.615 25.919 44.8788 26.457 44.27C26.995 43.6612 27.6605 43.1941 28.51 42.9959C31.2568 41.6791 34.0036 40.235 36.6088 38.7767C37.699 38.1395 38.6476 37.3749 39.5962 36.5962C45.4296 32.5327 47.61 26.7133 47.4401 19.7756C47.1428 15.1174 46.8313 10.445 46.5481 5.92843C46.4632 4.65416 46.6614 3.36575 47.1428 2.06316C47.5251 1.32692 48.0489 0.732352 48.7427 0.392545C49.4365 0.0527391 50.2719 -0.131254 50.994 0.109443C51.7019 0.0669668 52.5797 0.434883 53.1744 0.958751C53.769 1.48262 54.2504 2.16237 54.4345 2.8703C54.8026 4.13041 55.0291 5.53214 55.1141 6.79226C55.822 13.2769 55.9495 19.7898 55.3831 26.2178L55.4539 27.2088L55.4115 26.6426H55.3548ZM44.9199 43.0664C46.1234 44.1283 47.341 45.3177 48.4171 46.6769C49.21 48.0503 50.017 49.5513 50.5409 51.0804C52.9478 46.5213 55.6521 42.3727 59.8573 39.272C56.9406 38.0402 54.9584 35.9022 52.3674 35.3642L44.9199 43.0806V43.0664Z" fill="#102185"/>
<path d="M119.38 369.692C122.212 369.508 124.293 371.079 124.293 373.344C124.449 375.751 121.759 378.045 118.927 378.229C117.794 378.3 116.633 377.805 115.869 377.012C115.104 376.219 114.481 375.256 114.41 374.123C114.24 371.433 116.109 369.762 119.366 369.55V369.692H119.38Z" fill="#102185"/>
<path d="M164.588 338.103C164.546 337.537 164.518 336.971 164.758 336.39C164.999 335.81 165.254 335.371 165.664 335.059C166.061 334.606 166.471 334.295 167.024 334.125C167.576 333.955 168.142 333.771 168.709 333.87C169.275 333.827 169.841 333.799 170.28 334.054C170.861 334.294 171.3 334.549 171.753 334.946C172.206 335.342 172.517 335.753 172.687 336.305C172.857 336.857 173.041 337.424 173.069 337.834C173.14 338.967 172.786 340.128 171.993 340.878C171.2 341.784 170.238 342.266 169.105 342.337C167.972 342.408 166.811 341.912 165.905 341.119C164.999 340.326 164.503 339.222 164.433 338.089H164.574L164.588 338.103Z" fill="#102185"/>
<path d="M137.631 403.828C137.673 404.394 137.701 404.96 137.319 405.555C137.078 406.135 136.824 406.574 136.427 407.027C136.031 407.48 135.478 407.792 135.082 408.103C134.53 408.288 133.963 408.457 133.411 408.5C132.859 408.542 132.42 408.571 131.84 408.316C131.401 408.203 130.82 407.82 130.509 407.551C130.056 407.155 129.744 406.744 129.574 406.334C129.39 405.781 129.234 405.357 129.192 404.805C129.121 403.672 129.475 402.511 130.268 401.619C131.061 400.713 132.024 400.231 133.156 400.161C133.723 400.118 134.289 400.09 134.728 400.345C135.309 400.444 135.747 400.84 136.201 401.095C136.654 401.491 136.965 401.902 137.277 402.44C137.588 402.978 137.631 403.558 137.815 404.111L137.659 403.842L137.631 403.828Z" fill="#102185"/>
<path d="M107.883 338.925C108.053 341.615 106.481 343.555 103.933 343.725C103.367 343.767 102.8 343.796 102.361 343.541C101.781 343.442 101.342 343.187 100.889 342.791C100.436 342.394 100.124 341.983 99.9543 341.573C99.7703 341.021 99.6145 340.596 99.5721 340.044C99.5296 339.491 99.5013 338.911 99.6004 338.345C99.6995 337.778 100.096 337.325 100.351 336.872C100.606 336.419 101.158 336.107 101.696 335.796C102.234 335.484 102.814 335.442 103.508 335.258C104.075 335.216 104.641 335.187 105.221 335.428C105.802 335.527 106.241 335.782 106.694 336.178C107.147 336.575 107.458 336.985 107.628 337.396C107.798 337.807 107.968 338.373 108.011 338.925H107.869H107.883Z" fill="#102185"/>
<path d="M153.899 370.144C153.941 370.711 153.969 371.277 153.729 371.858C153.488 372.438 153.233 372.877 152.837 373.33C152.44 373.783 152.03 374.095 151.492 374.406C150.939 374.59 150.373 374.76 149.821 374.803C149.269 374.845 148.688 374.874 148.249 374.619C147.669 374.52 147.23 374.123 146.777 373.868C146.324 373.472 146.012 373.061 145.842 372.509C145.672 371.957 145.488 371.39 145.46 370.98C145.418 370.413 145.389 369.847 145.63 369.267C145.871 368.686 146.126 368.247 146.522 367.794C146.918 367.341 147.329 367.03 147.867 366.718C148.419 366.534 148.986 366.364 149.538 366.322C150.67 366.251 151.69 366.605 152.582 367.398C153.332 368.063 153.969 369.153 154.04 370.286L153.884 370.159L153.899 370.144Z" fill="#102185"/>
<path d="M167.901 389.244C168.468 389.202 169.034 389.173 169.459 389.287C170.039 389.386 170.478 389.641 170.931 390.037C171.384 390.433 171.696 390.844 171.866 391.255C172.192 391.807 172.206 392.232 172.248 392.784C172.305 393.633 172.361 394.483 171.838 395.219C171.455 395.956 170.79 396.564 170.11 397.031C169.431 397.499 168.454 397.711 167.59 397.626C166.74 397.683 165.863 397.173 165.254 396.635C164.659 396.111 164.178 395.431 163.852 394.596C163.654 393.761 163.739 392.897 163.824 392.048C164.05 391.184 164.574 390.575 165.254 389.966C165.933 389.499 166.769 389.159 167.604 389.103L167.901 389.23V389.244Z" fill="#102185"/>
<path d="M140.859 344.036C140.93 345.169 140.576 346.33 139.924 347.222C139.273 348.114 138.169 348.609 137.036 348.68C135.903 348.751 134.742 348.397 133.992 347.746C133.086 346.953 132.604 345.99 132.533 344.857C132.463 343.724 132.817 342.705 133.468 341.813C134.119 340.921 135.082 340.425 136.201 340.213C137.333 340.142 138.494 340.496 139.386 341.147C140.278 341.799 140.915 342.889 140.986 344.022H140.845L140.859 344.036Z" fill="#102185"/>
<path d="M182.613 355.661C183.745 355.59 184.765 355.944 185.657 356.595C186.549 357.247 187.044 358.351 187.257 359.328C187.328 360.46 186.974 361.621 186.181 362.513C185.388 363.42 184.425 363.901 183.292 363.972C182.16 364.043 181.14 363.689 180.248 362.896C179.356 362.244 178.861 361.14 178.79 360.007C178.719 358.875 179.215 357.855 179.866 356.963C180.517 356.071 181.622 355.576 182.613 355.505V355.661Z" fill="#102185"/>
<path d="M152.681 156.122C157.906 155.783 162.989 157.439 166.883 160.738C170.79 164.179 173.367 168.978 173.849 174.189C174.033 177.02 173.792 179.866 172.829 182.486C172.008 185.233 170.606 187.597 168.766 189.848C166.911 191.958 164.759 193.657 162.281 194.945C159.803 196.234 157.014 196.843 154.324 197.027C144.569 197.664 134.374 191.222 133.143 178.819C132.958 175.987 133.199 173.141 134.02 170.394C134.842 167.648 136.229 165.142 138.084 163.032C139.939 160.922 142.232 159.223 144.71 157.921C147.188 156.618 149.977 156.023 152.809 155.981L152.681 156.137V156.122ZM153.191 164.037C149.793 164.249 146.636 165.736 144.385 168.299C142.133 170.862 140.788 174.203 140.873 177.601C141.298 184.1 147.33 189.664 153.673 188.97C160.299 188.262 166.076 183.349 165.863 175.69C165.764 174.132 165.509 172.447 164.844 170.932C164.178 169.417 163.244 168.2 162.04 166.996C160.837 165.934 159.506 165.028 157.906 164.561C156.462 164.094 154.734 163.768 153.191 164.009V164.037Z" fill="#102185"/>
<path d="M68.5224 190.939C68.933 181.977 69.3719 173.439 69.8109 164.887C69.7542 164.038 69.9949 163.316 70.3631 162.438C70.5896 161.574 71.1134 160.966 71.7931 160.498C72.4727 160.031 73.3081 159.833 74.1576 159.776C75.0071 159.72 75.885 160.088 76.4796 160.626C77.0743 161.164 77.5557 161.829 77.7539 162.679C77.7964 163.245 77.9804 163.939 77.8671 164.519C77.4424 173.199 77.0035 181.878 76.7061 190.557C76.7486 191.124 76.6354 191.548 76.5221 192.129C76.2956 192.992 75.7717 193.743 75.1062 194.352C74.4408 194.96 73.4638 195.314 72.4727 195.371C71.4816 195.428 70.6038 194.918 69.9949 194.394C69.2587 193.87 68.7773 193.049 68.5791 192.214C68.5366 191.647 68.5083 191.081 68.3525 190.954H68.4941L68.5224 190.939Z" fill="#102185"/>
<path d="M44.325 187.399C44.4666 180.858 44.4666 174.189 44.6082 167.662C44.5374 166.529 44.7498 165.383 45.1038 164.363C45.3303 163.5 45.7126 162.763 46.3922 162.296C47.0718 161.829 47.9072 161.489 48.7425 161.432C49.7336 161.362 50.6115 161.744 51.3478 162.254C52.084 162.763 52.4238 163.599 52.6362 164.576C52.7777 166.841 52.9335 169.092 52.9335 171.372C52.976 176.341 52.8627 181.169 52.7494 186.139C52.8769 188.121 52.5654 189.976 52.4238 191.973C52.4804 192.822 51.9566 193.558 51.4327 194.167C50.9088 194.762 50.0876 195.243 49.2381 195.3C48.3886 195.356 47.539 195.413 46.8028 195.031C46.0665 194.648 45.4719 194.125 45.1321 193.431C44.7923 192.737 44.6082 191.902 44.5516 191.052L44.3109 187.385L44.325 187.399Z" fill="#102185"/>
<path d="M230.059 165.595C229.846 173.268 229.761 180.659 229.521 188.05C229.591 189.041 229.082 190.061 228.558 190.811C228.317 191.392 227.779 191.859 227.213 192.029C226.646 192.199 225.952 192.397 225.4 192.425C224.848 192.454 224.112 192.227 223.659 191.83C223.064 191.448 222.753 191.038 222.441 190.485C221.79 189.254 221.563 187.852 221.606 186.422C221.747 179.739 221.875 172.929 222.144 166.246C222.073 165.113 222.271 163.825 222.484 162.678C222.71 161.814 223.092 161.078 223.899 160.455C224.579 159.988 225.556 159.634 226.406 159.719C227.255 159.662 228.133 160.172 228.883 160.696C229.634 161.22 229.959 162.041 230.03 163.032L230.186 165.439L230.059 165.595Z" fill="#102185"/>
<path d="M251.367 166.062C251.141 173.595 250.9 180.844 250.674 188.234C250.744 189.226 250.532 190.372 250.164 191.392C249.782 192.128 249.272 192.864 248.592 193.332C247.913 193.799 247.077 193.997 246.369 194.04C245.506 193.955 244.784 193.572 244.175 192.907C243.58 192.383 243.24 191.548 243.042 190.712L242.872 188.164C243.099 180.773 243.325 173.241 243.552 165.85C243.481 164.717 243.835 163.556 244.175 162.409C244.401 161.546 244.925 160.937 245.605 160.47C246.284 160.002 247.12 159.804 247.842 159.903C248.691 159.846 249.428 160.371 250.036 160.895C250.631 161.418 250.971 162.253 251.169 163.089L251.367 166.062Z" fill="#102185"/>
</svg>
