<svg xmlns="http://www.w3.org/2000/svg" width="302" height="409" fill="none" viewBox="0 0 302 409"><path fill="#102185" d="M157.877 74.074c-.155 1.996-.297 4.134-.297 6.4-.071 3.27 0 6.668-.212 9.939.042.708.099 1.557.424 2.237.326.68.793 1.232 1.53 1.6 5.975 4.715 11.964 9.443 17.953 14.3 8.679 6.952 17.344 13.776 26.165 20.728 4.786 3.809 9.713 7.603 14.357 11.412 1.203 1.062 2.789 1.515 4.347 1.416 8.65 0 17.174.028 25.825.028l38.88.042c.991-.07 1.84.029 2.718.256a3.33 3.33 0 0 1 1.614.75c.453.396.906.793 1.076 1.345.326.552.496 1.104.397 1.671.042.566-.071 1.132-.312 1.727-.609 1.6-.934 3.186-.821 4.87.099 8.227.51 16.566.609 24.792.269 12.899.382 25.656.651 38.554l.68 30.172c.297 13.323.453 26.788.75 40.097.057 5.253.397 10.619.595 15.858.141 2.124.708 4.347 1.954 6.116 1.118 1.912 2.237 3.823 3.2 5.607.481.821.821 1.657 1.146 2.478 1.218 3.469-.198 5.692-3.879 5.932-3.257.213-6.655.142-9.925.071-10.223-.042-20.587-.226-30.81-.425-9.373-.099-18.887-.339-28.26-.438l-17.741-.128c-10.223-.184-20.304-.255-30.526-.439-5.961-.042-12.063-.071-18.024-.113-9.798-.071-19.454-.297-29.266-.524-6.4-.156-12.927-.156-19.312-.17-9.373-.099-18.888-.34-28.261-.439l-17.74-.127c-10.365-.184-20.446-.241-30.81-.425-6.4-.156-12.927-.156-19.313-.17-3.27-.071-6.37.127-9.656-.226-1.855-.17-3.723-.609-5.338-1.36-.439-.255-.877-.509-1.189-.778-.311-.411-.623-.807-.793-1.232-.17-.411-.34-.977-.226-1.402-.043-.566.07-.991.325-1.444.468-1.444.963-2.761 1.728-3.936 2.463-3.568 2.76-7.703 2.93-11.823.369-11.794.893-23.616 1.26-35.41.227-7.391.468-14.64.709-22.031.396-11.511.906-23.192 1.302-34.703.382-9.387.637-18.632.878-28.005.283-6.683.566-13.239.835-19.922.071-3.27.156-6.399.369-9.67-.085-1.274.254-2.718.594-4.007.58-2.024 2.082-2.831 4.375-2.548 3.143.368 6.145.594 9.26.679 8.65 0 17.443-.141 26.094-.127 8.651 0 17.175.028 25.84.17 2.124-.142 4.205-.694 5.96-2.081 8-5.763 16-11.398 24.155-17.033 13.168-9.218 26.491-18.166 39.659-27.397a11.5 11.5 0 0 1 1.77-1.246 3.3 3.3 0 0 0 1.203-1.218c.241-.58.354-1.02.312-1.727.085-7.377.325-14.64.566-22.031.326-10.237.665-20.473.849-30.696.071-3.27.142-6.683.213-9.94.014-4.12 1.062-5.464 5.168-5.72 4.106-.254 8.495-.268 12.757-.254 6.683.142 13.493.269 20.176.396l28.685.411c6.4.156 12.927.156 19.313.311 1.699.029 3.553.057 5.267.227 3.129.227 4.658 1.826 4.856 4.941.17 2.549.34 5.225.227 7.787a22653 22653 0 0 1-1.161 34.69 4.1 4.1 0 0 1-.425 2.151 4.85 4.85 0 0 1-1.586 1.798c-.679.468-1.515.666-2.379.44-7.107-.114-14.328-.072-21.436-.17-6.244-.029-12.36-.34-18.604-.355-10.506-.17-20.87-.212-31.376-.382-4.12-.014-8.099-.184-12.36-.34l-.411.17zm125.545 76.442c-1.84-.028-3.129-.226-4.417-.283-6.952.028-13.904.043-20.856.071l-30.512-.156c-3.837-.043-7.66.071-11.497.028-12.488-.042-24.848-.24-37.336-.283-9.373-.099-18.59-.071-27.949-.042l-48.536-.128c-6.386 0-12.63-.028-19.015-.042-11.639-.1-23.277-.057-34.915-.156-6.245-.028-12.503-.184-18.605-.354-3.837-.042-7.66.071-11.341.17-.934 3.186-2.549 52.797-1.812 55.445.99-.071 1.996.156 2.987.227 12.488.042 24.834.099 37.322.141l68.401.255c3.554.057 7.093-.028 10.647.028 12.488.043 24.849.241 37.337.283 11.638.1 23.276.198 34.773.17l45.421.184c8.51.015 17.033.17 25.542.057l5.508-.354c-.34-18.42-.665-36.557-1.147-55.119zm-81.341 63.148c-1.005-.071-2.011-.298-2.988-.227-3.27-.071-6.385 0-9.656-.085l-34.49-.184c-12.913-.014-25.982-.17-38.894-.184-4.404 0-8.949-.128-13.352-.128l-4.8.312c.057 7.518.241 14.598.128 21.705-.114 7.108-.198 14.484-.156 21.719s-.07 14.329.113 21.422c.184 7.221-.354 14.357 0 21.847 4.262.156 8.113.326 12.205.057.057-1.275.142-2.138.227-3.002.24-7.249.339-14.498.58-21.748.241-11.652.609-23.446.85-35.099-.128-1.982.17-3.979.325-5.833.071-.991.453-1.869 1.119-2.478s1.628-1.104 2.478-1.147c.991-.07 1.868.453 2.619 1.105.75.651 1.246 1.628 1.303 2.605l.084 1.274c-.198 7.816-.41 15.49-.481 23.305-.198 7.957.057 16.169-.708 24.169-.311 3.851-.34 7.829-.368 11.794l.354 5.508 29.252.382c.085-7.377.198-14.484.283-21.875l-3.554-.198c-2.124 0-4.403 0-6.541-.283-.85.056-1.728-.453-2.478-1.119-.609-.665-1.09-1.487-1.005-2.492-.057-.849.311-1.869.835-2.463a3.08 3.08 0 0 1 2.322-1.289l3.398-.212c2.266-.142 4.545 0 7.08-.17.07-5.536.297-10.803.226-16.184-.071-5.394.581-10.817-.212-16.438-.708.043-1.275-.056-1.841-.028-4.106.128-8.368.113-12.474.241-2.123.141-4.403 0-6.541-.142-.991.071-1.869-.311-2.619-.963s-1.091-1.486-1.147-2.477a3.88 3.88 0 0 1 .963-2.761c.665-.751 1.628-1.246 2.605-1.303l2.832-.184c4.403 0 8.65 0 13.04-.127l29.605-.638c.567-.042.992-.07 1.558.043 1.005.212 1.897.722 2.506 1.543.623.807.963 1.784.892 2.775.071.991-.453 1.869-1.119 2.478s-1.486 1.09-2.477 1.147l-2.832.184c-4.106.127-8.368.113-12.474.241-.708.042-1.416.084-2.095.424.127 10.775-.595 21.465-.199 32.084 2.039.864 3.993.311 5.706.481 1.416-.085 2.86.241 4.29.439.723.241 1.317.623 1.784 1.161s.793 1.232.836 1.926c.056.849-.043 1.557-.567 2.308-.382.736-1.061 1.203-1.741 1.529-.835.34-1.812.538-2.662.594-1.841.114-3.695-.042-5.522.071-.849.057-1.699.113-2.534.312-.085 7.376-.34 14.498-.156 21.719 1.274.056 2.138.141 2.988.085 6.102.028 12.204.057 18.321.241 3.412.056 3.695.042 3.893-3.512l-.084-1.274c-.1-10.35-.057-20.714-.17-31.064 0-8.934-.156-17.868-.312-26.661-.113-1.699.071-3.27.099-4.969.114-2.563 1.586-4.078 3.696-4.347 2.109-.269 3.638 1.331 4.219 3.837l.113 1.84c.057.85-.028 1.7-.113 2.563-.028 10.647.085 21.139.198 31.631.085 10.066.028 20.147.099 30.072l.128 1.983c3.412.056 6.541.141 9.798.07l2.973-.198a14.2 14.2 0 0 0 .623-3.44c.17-1.714.056-3.554.085-5.253-.029-13.621-.043-27.1-.085-40.72-.099-10.35-.043-20.431-.142-30.781.142-2.28-.297-4.517-.467-7.207l.411-.311zm82.46.198c-24.82.184-49.131-.51-74.078-.312.056 29.365.085 58.447.127 87.529 4.588.693 72.889 1.67 75.678.92-.071-.991 0-1.982.085-2.988-.17-2.69-.354-5.366-.382-8.056-.227-14.456-.439-28.77-.666-43.226-.212-9.911-.424-19.836-.651-29.889l-.269-4.233.156.269zM89.93 212.686l-74.248-.594c-1.119 28.869-2.096 57.455-3.072 86.325 5.31.934 10.52.311 15.645.552s10.223.184 15.206.297l15.476.142c5.111.099 10.222.184 15.192.156 5.111-.043 10.25.608 15.603-.156.113-28.955.099-57.612.07-86.693h.142zm115.875-71.062c-1.346-1.047-2.252-1.982-3.299-2.76-5.395-4.333-10.903-8.524-16.297-12.857-10.18-8.141-20.488-16.268-30.654-24.267q-2.25-1.84-4.559-.269c-18.618 12.7-37.223 25.527-55.983 38.242-.552.326-1.076.92-2.025 1.685.722.099 1.43.198 2.294.283 8.948.128 17.882.128 26.675.114 4.12.014 8.226-.1 12.474-.1 14.045.085 27.963.184 42.008.269 7.25.099 14.485.199 21.72.156a36.6 36.6 0 0 0 7.773-.496h-.142zM8.659 311.726c.44.113 1.006.212 1.444.326 5.537.07 11.214.127 16.75.198 6.386 0 12.927.156 19.313.17 9.514.099 19.029.325 28.685.41 6.4.156 12.913.014 19.313.17 9.231.113 18.179.382 27.411.496 6.541.141 13.068.141 19.595.155 9.373.1 18.605.354 27.978.468 6.683.141 13.21.141 19.878.127 10.365.042 20.587.227 30.81.425 5.96.042 12.063.07 18.038.255 9.373.099 18.604.354 27.977.467 7.108.113 14.343.212 21.451.311l5.083-.325-.85-2.067c-1.005-2.492-2.619-3.243-5.309-3.2-5.947.099-12.063-.071-18.024-.114-9.373-.099-18.605-.353-27.978-.467-6.683-.141-13.493-.127-20.162-.255-9.798-.071-19.454-.297-29.266-.523-5.96-.043-11.78-.085-17.755-.269-9.373-.099-18.887-.34-28.275-.581-6.243-.028-12.487-.042-18.604-.212-8.948-.128-17.755-.411-26.703-.539-6.258-.169-12.644-.169-19.03-.183-11.935-.227-23.871-.439-35.793-.666-6.258-.17-12.502-.325-18.604-.354-4.686-.127-9.515-.099-14.484-.198l-2.889 5.72v.283zm178.456-281.26c-.793 5.295-.934 33.824-.226 36.047 3.865.595 19.892.552 21.988-.141.042-5.82.099-11.639.283-17.614.184-5.833.935-11.836.113-18.024l-22.016-.283h-.142zm50.929 36.996c1.062-9.855 1.515-33.585.651-35.935-6.853-.694-17.925-.68-21.28-.042.056 11.78-1.034 23.475-.538 35.65l21.025.341h.142zM158.996 29.87c-.467 12.516-.821 24.593-1.005 37.095 6.895-.878 13.634.114 20.388-.608.028-6.245.057-12.347.099-18.308.043-5.96.652-11.822-.014-17.882l-19.596-.297h.142zM55.355 26.643c5.069 3.78 10.378 6.994 16.82 7.716.85-.057 1.586.467 2.195.991.594.524 1.076 1.345 1.133 2.195s.113 1.699-.128 2.42c-.382.737-.892 1.473-1.586 1.799-.82.481-1.642.963-2.477 1.147-1.657.821-3.313 1.486-4.956 2.307-2.874 1.6-5.281 3.894-6.938 6.84-3.313 5.748-4.757 11.935-5.465 18.519-.651 5.295-1.444 10.59-.949 15.957.043.707-.056 1.415-.283 2.152-.212 1.005-.722 1.897-1.543 2.506-.807.623-1.784.962-2.775.892-.991-.071-1.869-.454-2.62-1.105-.75-.651-1.104-1.628-1.302-2.605-.24-1.543-.34-3.1-.297-4.658.538-6.98-.34-14.031-.793-20.955-.184-2.832-.651-5.777-1.119-8.58-.481-3.087-1.387-3.88-4.502-3.823-2.407.156-4.8.312-7.179.892-3.228.496-5.932-1.883-5.28-4.913.24-.722.608-1.458 1.146-2.067s1.203-1.076 2.053-1.274a146 146 0 0 0 8.099-4.22c1.09-.637 2.039-1.401 2.987-2.18 5.834-4.063 8.014-9.883 7.844-16.82-.297-4.659-.609-9.331-.892-13.848q-.128-1.91.595-3.865c.382-.736.906-1.33 1.6-1.67s1.529-.524 2.251-.284c.708-.042 1.586.326 2.18.85s1.076 1.203 1.26 1.911c.369 1.26.595 2.662.68 3.922.708 6.485.836 12.998.27 19.426l.07.99-.043-.565zM44.92 43.066c1.203 1.062 2.421 2.252 3.497 3.61.793 1.374 1.6 2.875 2.124 4.404 2.407-4.559 5.111-8.707 9.316-11.808-2.916-1.232-4.899-3.37-7.49-3.908l-7.447 7.717zM119.38 369.692c2.832-.184 4.913 1.387 4.913 3.652.156 2.407-2.534 4.701-5.366 4.885-1.133.071-2.294-.424-3.058-1.217-.765-.793-1.388-1.756-1.459-2.889-.17-2.69 1.699-4.361 4.956-4.573v.142zM164.588 338.103c-.042-.566-.07-1.132.17-1.713.241-.58.496-1.019.906-1.331.397-.453.807-.764 1.36-.934.552-.17 1.118-.354 1.685-.255.566-.043 1.132-.071 1.571.184.581.24 1.02.495 1.473.892.453.396.764.807.934 1.359s.354 1.119.382 1.529c.071 1.133-.283 2.294-1.076 3.044-.793.906-1.755 1.388-2.888 1.459s-2.294-.425-3.2-1.218a4.37 4.37 0 0 1-1.472-3.03h.141zM137.631 403.828c.042.566.07 1.132-.312 1.727-.241.58-.495 1.019-.892 1.472-.396.453-.949.765-1.345 1.076-.552.185-1.119.354-1.671.397-.552.042-.991.071-1.571-.184-.439-.113-1.02-.496-1.331-.765-.453-.396-.765-.807-.935-1.217-.184-.553-.34-.977-.382-1.529a4.38 4.38 0 0 1 1.076-3.186c.793-.906 1.756-1.388 2.888-1.458.567-.043 1.133-.071 1.572.184.581.099 1.019.495 1.473.75.453.396.764.807 1.076 1.345.311.538.354 1.118.538 1.671l-.156-.269zM107.883 338.925c.17 2.69-1.402 4.63-3.95 4.8-.566.042-1.133.071-1.572-.184-.58-.099-1.019-.354-1.472-.75-.453-.397-.765-.808-.935-1.218-.184-.552-.34-.977-.382-1.529-.042-.553-.07-1.133.028-1.699.1-.567.496-1.02.751-1.473s.807-.765 1.345-1.076 1.118-.354 1.812-.538c.567-.042 1.133-.071 1.713.17.581.099 1.02.354 1.473.75.453.397.764.807.934 1.218s.34.977.383 1.529h-.142zM153.899 370.144c.042.567.07 1.133-.17 1.714-.241.58-.496 1.019-.892 1.472-.397.453-.807.765-1.345 1.076-.553.184-1.119.354-1.671.397-.552.042-1.133.071-1.572-.184-.58-.099-1.019-.496-1.472-.751-.453-.396-.765-.807-.935-1.359s-.354-1.119-.382-1.529c-.042-.567-.071-1.133.17-1.713s.496-1.02.892-1.473.807-.764 1.345-1.076c.552-.184 1.119-.354 1.671-.396 1.132-.071 2.152.283 3.044 1.076.75.665 1.387 1.755 1.458 2.888l-.156-.127zM167.901 389.244c.567-.042 1.133-.071 1.558.043.58.099 1.019.354 1.472.75s.765.807.935 1.218c.326.552.34.977.382 1.529.057.849.113 1.699-.41 2.435-.383.737-1.048 1.345-1.728 1.812s-1.656.68-2.52.595c-.85.057-1.727-.453-2.336-.991a5.2 5.2 0 0 1-1.402-2.039c-.198-.835-.113-1.699-.028-2.548.226-.864.75-1.473 1.43-2.082.679-.467 1.515-.807 2.35-.863l.297.127zM140.859 344.036a4.97 4.97 0 0 1-.935 3.186c-.651.892-1.755 1.387-2.888 1.458s-2.294-.283-3.044-.934c-.906-.793-1.388-1.756-1.459-2.889-.07-1.133.284-2.152.935-3.044s1.614-1.388 2.733-1.6a4.97 4.97 0 0 1 3.185.934c.892.652 1.529 1.742 1.6 2.875h-.141zM182.613 355.661c1.132-.071 2.152.283 3.044.934.892.652 1.387 1.756 1.6 2.733a4.38 4.38 0 0 1-1.076 3.185c-.793.907-1.756 1.388-2.889 1.459s-2.152-.283-3.044-1.076c-.892-.652-1.387-1.756-1.458-2.889s.425-2.152 1.076-3.044 1.756-1.387 2.747-1.458z"/><path fill="#102185" d="M152.681 156.122c5.225-.339 10.308 1.317 14.202 4.616 3.907 3.441 6.484 8.24 6.966 13.451.184 2.831-.057 5.677-1.02 8.297-.821 2.747-2.223 5.111-4.063 7.362a22.2 22.2 0 0 1-6.485 5.097c-2.478 1.289-5.267 1.898-7.957 2.082-9.755.637-19.95-5.805-21.181-18.208-.185-2.832.056-5.678.877-8.425a19.7 19.7 0 0 1 4.064-7.362c1.855-2.11 4.148-3.809 6.626-5.111 2.478-1.303 5.267-1.898 8.099-1.94l-.128.156zm.51 7.915c-3.398.212-6.555 1.699-8.806 4.262-2.252 2.563-3.597 5.904-3.512 9.302.425 6.499 6.457 12.063 12.8 11.369 6.626-.708 12.403-5.621 12.19-13.28-.099-1.558-.354-3.243-1.019-4.758-.666-1.515-1.6-2.732-2.804-3.936-1.203-1.062-2.534-1.968-4.134-2.435-1.444-.467-3.172-.793-4.715-.552zM68.522 190.939c.411-8.962.85-17.5 1.289-26.052-.057-.849.184-1.571.552-2.449.227-.864.75-1.472 1.43-1.94s1.515-.665 2.365-.722 1.727.312 2.322.85c.594.538 1.076 1.203 1.274 2.053.042.566.226 1.26.113 1.84-.425 8.68-.864 17.359-1.16 26.038.042.567-.072.991-.185 1.572-.226.863-.75 1.614-1.416 2.223s-1.642.962-2.633 1.019-1.87-.453-2.478-.977c-.736-.524-1.218-1.345-1.416-2.18-.042-.567-.07-1.133-.226-1.26h.141zM44.325 187.399c.142-6.541.142-13.21.283-19.737-.07-1.133.142-2.279.496-3.299.226-.863.609-1.6 1.288-2.067.68-.467 1.515-.807 2.35-.864.992-.07 1.87.312 2.606.822.736.509 1.076 1.345 1.288 2.322.142 2.265.297 4.516.297 6.796.043 4.969-.07 9.797-.184 14.767.128 1.982-.184 3.837-.325 5.834.056.849-.467 1.585-.991 2.194-.524.595-1.345 1.076-2.195 1.133s-1.699.113-2.435-.269c-.736-.383-1.331-.906-1.67-1.6-.34-.694-.525-1.529-.581-2.379l-.241-3.667zM230.059 165.595c-.213 7.673-.298 15.064-.538 22.455.07.991-.439 2.011-.963 2.761a2.2 2.2 0 0 1-1.345 1.218c-.567.17-1.261.368-1.813.396s-1.288-.198-1.741-.595c-.595-.382-.906-.792-1.218-1.345-.651-1.231-.878-2.633-.835-4.063.141-6.683.269-13.493.538-20.176-.071-1.133.127-2.421.34-3.568.226-.864.608-1.6 1.415-2.223.68-.467 1.657-.821 2.507-.736.849-.057 1.727.453 2.477.977.751.524 1.076 1.345 1.147 2.336l.156 2.407zM251.367 166.062c-.226 7.533-.467 14.782-.693 22.172.07.992-.142 2.138-.51 3.158-.382.736-.892 1.472-1.572 1.94-.679.467-1.515.665-2.223.708-.863-.085-1.585-.468-2.194-1.133-.595-.524-.935-1.359-1.133-2.195l-.17-2.548c.227-7.391.453-14.923.68-22.314-.071-1.133.283-2.294.623-3.441.226-.863.75-1.472 1.43-1.939s1.515-.666 2.237-.567c.849-.057 1.586.468 2.194.992.595.523.935 1.358 1.133 2.194z"/></svg>