<svg xmlns="http://www.w3.org/2000/svg" width="300" height="300" fill="none" viewBox="0 0 300 300"><path fill="#3558a2" d="M189.07 192.47c-.41 2.31-.62 4.31-1.13 6.22-2.51 9.47-8.59 15.58-18.14 17.45-8.72 1.71-16.62-1.37-22-9.66a22.8 22.8 0 0 1-3.14-8.44 9.6 9.6 0 0 0-1.63-.13l-14.32 1.44c-2.34.23-4.68.46-7 .66l-14.07 1.17c-1.63.14-1.65.16-2.06 1.91-2.34 9.94-8.29 16.56-18.19 19.31-11.06 3.07-23.22-2.55-26.83-14.68-.13-.43-.2-.87-.33-1.45a18 18 0 0 0-1.85-.22c-2.91 0-5.82 0-8.72-.05a59 59 0 0 1-5.93-.57 3.16 3.16 0 0 1-2.55-1.83 18 18 0 0 1-.89-2.55c-1.45-5.44-2-11-2.73-16.59a82 82 0 0 1-.4-14.67c.42-8.91 3.71-16.56 10.71-22.34q4.41-3.63 9-7a77 77 0 0 0 16.11-16.1 32 32 0 0 1 6.92-6.87c3.93-2.85 8.46-3.52 13.11-3.86 11.32-.82 22.67-.63 34-.48 5 .07 10 .25 15 .43 3.09.103 6.125.849 8.91 2.19a14.1 14.1 0 0 1 5.92 5.06c1.27 2 2.69 3.88 3.88 5.91a28.57 28.57 0 0 0 15.94 12.88 88.3 88.3 0 0 0 23.54 5.11l6.78.4a4.474 4.474 0 0 1 4.47 3.31 49 49 0 0 1 1.44 6.05 478 478 0 0 1 2 14.53c.55 4.68 1 9.37 1.38 14.07.23 3.07-1.25 5-4.34 5.6-4.16.82-8.37 1.45-12.56 2.14-3.45.54-6.83 1.08-10.3 1.65m-.52-41.76-2.58-.75c-3.73-1.08-7.5-2-11.19-3.26a35.9 35.9 0 0 1-20.37-16.26c-.91-1.57-2-3-3-4.55a10.16 10.16 0 0 0-8.4-4.81c-3.8-.28-7.61-.39-11.41-.47-4.45-.09-8.9 0-13.35-.12-8.81-.22-17.6.05-26.4.6a15.17 15.17 0 0 0-11 5.24c-.72.81-1.4 1.66-2.08 2.51-3.84 4.84-7.75 9.62-12.63 13.49-3.76 3-7.54 6-11.39 8.84a24.4 24.4 0 0 0-10.33 20 134.5 134.5 0 0 0 1.87 23.29 40 40 0 0 0 1 4.14h12c.31-.31.42-.37.44-.44.08-.35.13-.71.2-1.06a25.16 25.16 0 0 1 9.41-15.45c5.78-4.39 12.3-6.23 19.44-4.7a20.29 20.29 0 0 1 14.81 11.7c.83 1.78 1.53 3.63 2.3 5.47 13-1.37 25.85-2.33 38.62-3.74 2.88-11.67 9.8-19 21.76-19.81 10.32-.69 17.12 5.18 21.35 14.45a373 373 0 0 0 21.14-3.42c-.52-5-.85-9.77-1.83-14.55-.79-.06-1.42-.06-2-.17a38 38 0 0 1-5.56-1.07 13.82 13.82 0 0 1-9.61-10.21c-.4-1.6-.8-3.18-1.23-4.89zm-89.89 48v-.55c.21-10.32-9.82-16-17.42-14.07s-12.1 6.48-13.88 14a14.58 14.58 0 0 0 .84 9c2.93 7.27 10.9 9.65 16.45 8.47 7.34-1.52 14.18-9.17 13.99-16.83zm82.8-7.48a15.1 15.1 0 0 0-4.07-9.1 13.1 13.1 0 0 0-11.76-4.28 15.32 15.32 0 0 0-10.11 5.81c-4.61 5.52-4.94 14.37-.92 19.71 3.06 4.07 7.16 6.27 12.18 5.85 8.29-.67 14.59-7.92 14.66-17.97zm24.09-31.69a16.8 16.8 0 0 0-.69-6.94c-2.16-.19-4.4-.39-6.64-.56a9.5 9.5 0 0 0-1.28.09c.45 5.02 2.38 6.65 8.59 7.43zM252.07 158.1c-.145.32-.252.656-.32 1-.25 5.07-.5 10.14-.71 15.22-.24 6.07-.48 12.14-.65 18.21-.08 2.89.06 5.78 0 8.67a25 25 0 0 1-.41 4c-.4 2.28-1.64 3.67-3.92 3.87a46.5 46.5 0 0 1-12.2-.33 3.4 3.4 0 0 1-2.79-2.64 10 10 0 0 1-.39-2.66c.12-7.08.3-14.15.46-21.22l.54-23.12v-2.07c-1.23-.8-2.45-.57-3.6-.57-4.22 0-5.61-1.35-6.72-6.26a11 11 0 0 1 0-2.18c-.07-11-.11-22-.21-32.94-.1-9.61-.31-19.22-.38-28.84.037-1.804.254-3.6.65-5.36a4 4 0 0 1 3.53-3.31 35.6 35.6 0 0 1 5.13-.54q10.21-.06 20.42 0c2.53 0 5.07.23 7.6.4s4.78 2.4 4.29 4.92a37 37 0 0 0-.26 7c-.08 11.89-.06 23.78-.18 35.67-.09 9.07-.33 18.14-.53 27.2a14.4 14.4 0 0 1-.32 2.69 3.52 3.52 0 0 1-3.57 3.07c-1.09.06-2.18 0-3.27 0zm-23.26-8.75c4.38.24 8.45.65 12.51.64s8.24 1 12.55.45c.14-1.93.37-3.72.38-5.51.11-15.5.16-31 .27-46.51 0-3.08.2-6.16.28-9.24v-4.3a4 4 0 0 0-.81-.24c-7-.18-14-.38-20.93-.49a45 45 0 0 0-4.94.48c-.13 21.63.32 43.07.72 64.7zm10.42 8.33c-.2 5.13-.44 10-.56 14.89s-.24 9.62-.16 14.43-.74 9.71-.36 14.81c1.71-.17 3.21.39 4.72-.3 0-.44.1-.79.11-1.14.14-7.17.18-14.34.44-21.49.2-5.53.69-11 1-16.57.08-1.5.39-3.06-.44-4.63z"/><path fill="#fff" d="M188.53 150.711c.43 1.71.83 3.29 1.24 4.87a13.82 13.82 0 0 0 9.61 10.21 38.4 38.4 0 0 0 5.56 1.07c.61.11 1.24.11 2 .17 1 4.78 1.31 9.54 1.83 14.55a374 374 0 0 1-21.14 3.42c-4.23-9.27-11-15.14-21.35-14.45-12 .8-18.88 8.14-21.76 19.81-12.77 1.41-25.66 2.37-38.62 3.74-.77-1.84-1.47-3.69-2.3-5.47a20.28 20.28 0 0 0-14.81-11.7c-7.14-1.53-13.66.31-19.44 4.7a25.16 25.16 0 0 0-9.38 15.47c-.07.35-.12.71-.2 1.06 0 .07-.13.13-.44.44h-12a40 40 0 0 1-1-4.14 134.5 134.5 0 0 1-1.87-23.29 24.39 24.39 0 0 1 10.33-20c3.85-2.87 7.63-5.86 11.39-8.84 4.88-3.87 8.79-8.65 12.63-13.49.68-.85 1.36-1.7 2.08-2.51a15.16 15.16 0 0 1 11-5.24c8.8-.55 17.59-.82 26.4-.6 4.45.11 8.9 0 13.35.12 3.8.08 7.61.19 11.41.47a10.15 10.15 0 0 1 8.4 4.81c1 1.54 2.07 3 3 4.55a35.9 35.9 0 0 0 20.37 16.26c3.69 1.22 7.46 2.18 11.19 3.26zm-105.46 14.39v.13c2.07-.18 4.14-.39 6.22-.54 6.14-.42 12.29-.81 18.43-1.23 2.62-.18 5.24-.39 7.85-.61 5.77-.48 11.54-1 17.31-1.47 3.16-.26 6.32-.42 9.48-.65 1.81-.14 3.61-.31 5.41-.5 2.87-.31 4.21-1.79 4.21-4.64a29 29 0 0 0-.17-3.26c-.3-2.6-.67-5.2-1-7.8-.37-3-.71-5.92-1.11-8.87-.45-3.26-2.46-4.78-5.62-4.53-6.5.52-13 1-19.5 1.42-4 .27-8 .42-11.93.66-2.81.16-5.61.36-8.4.57-4.06.31-8.12.66-12.18 1-2.89.22-5.79.36-8.67.61a4.44 4.44 0 0 0-4.31 3.83c-.29 1.78-.42 3.59-.6 5.39-.31 3-.62 5.93-.91 8.9-.24 2.43-.54 4.86-.65 7.3-.14 3 1.48 4.5 4.5 4.41z"/><path fill="#979fbb" d="M98.64 198.731c.19 7.66-6.65 15.31-14 16.87-5.55 1.18-13.52-1.2-16.45-8.47a14.58 14.58 0 0 1-.84-9c1.78-7.5 6.37-12.09 13.88-14s17.63 3.75 17.42 14.07c-.02.17-.01.35-.01.53M181.44 191.251c-.07 10.05-6.34 17.3-14.68 18-5 .42-9.12-1.78-12.18-5.85-4-5.34-3.69-14.19.92-19.71a15.32 15.32 0 0 1 10.11-5.81 13.11 13.11 0 0 1 11.76 4.28 15.1 15.1 0 0 1 4.07 9.09"/><path fill="#fff" d="M205.53 159.562c-6.21-.779-8.14-2.41-8.61-7.41a9.5 9.5 0 0 1 1.28-.09c2.24.171 4.48.37 6.64.56a16.8 16.8 0 0 1 .69 6.94M228.838 149.331c-.4-21.629-.85-43.069-.69-64.72a45 45 0 0 1 4.92-.51c7 .11 14 .31 20.93.49q.418.078.81.24v4.3c-.08 3.08-.26 6.16-.28 9.24-.11 15.501-.16 31.001-.27 46.511 0 1.79-.24 3.579-.38 5.509-4.31.52-8.41-.459-12.55-.449s-8.11-.371-12.49-.611m21.15-10.999a9.12 9.12 0 0 0-5.694-8.443 9.1 9.1 0 0 0-3.516-.667 9.385 9.385 0 0 0-8.964 5.952 9.4 9.4 0 0 0-.646 3.738c.11 6 4.23 9.149 9.35 9.299s9.55-4.479 9.47-9.899zm-17.92-21.91a8.55 8.55 0 0 0 3.56 7.33c3.68 2.88 8.49 3.27 12.31-.46a8.94 8.94 0 0 0 .16-12.51 10.14 10.14 0 0 0-9.38-3 8.454 8.454 0 0 0-6.65 8.64m18.49-20.83c.1-5.59-4.1-8.32-9.42-8.69-4.88-.34-8.93 4.12-9.09 9.15a9.204 9.204 0 0 0 9.35 8.88c5.39-.01 9.58-4.83 9.18-9.34z"/><path fill="#979fbb" d="M239.259 157.66h4.73c.83 1.57.52 3.13.44 4.63-.29 5.53-.78 11-1 16.57-.26 7.15-.3 14.32-.44 21.49 0 .35-.07.7-.11 1.14-1.51.69-3 .13-4.72.3-.38-5.1.45-10 .36-14.81s0-9.62.16-14.43.39-9.76.58-14.89"/><path fill="#3558a2" d="m83.07 165.101-1.63.08c-3 .09-4.64-1.43-4.5-4.41.11-2.44.41-4.87.65-7.3.29-3 .6-5.93.91-8.9.18-1.8.31-3.61.6-5.39a4.44 4.44 0 0 1 4.31-3.83c2.88-.25 5.78-.39 8.67-.61 4.06-.3 8.12-.65 12.18-1 2.79-.21 5.59-.41 8.4-.57 4-.24 8-.39 11.93-.66 6.5-.44 13-.9 19.5-1.42 3.16-.25 5.17 1.27 5.62 4.53.4 2.95.74 5.92 1.11 8.87.33 2.6.7 5.2 1 7.8q.175 1.625.17 3.26c0 2.85-1.34 4.33-4.21 4.64-1.8.19-3.6.36-5.41.5-3.16.23-6.32.39-9.48.65-5.77.47-11.54 1-17.31 1.47-2.61.22-5.23.43-7.85.61-6.14.42-12.29.81-18.43 1.23-2.08.15-4.15.36-6.22.54zm25-24.09-22 1.45c-.5 5.26-1 10.34-1.48 15.6l5.06-.41c4.78-.39 9.56-.76 14.33-1.18 1.64-.14 2.05-.51 2.29-2.14.41-2.77.74-5.55 1.11-8.32.16-1.47.37-2.97.69-4.98zm36.3 12.09c-.63-5-1.23-9.67-1.84-14.48l-16 1.13c-.69 5-1.35 9.79-2 14.88zm-25.3-12.84c-.8.05-1.33 0-1.84.13s-1.17.3-1.69.44a71 71 0 0 0-1.13 7.37c-.12 2.38-1.14 4.72-.46 7.33l2.9-.23c.79-5.1 1.49-9.9 2.22-15.04M249.989 138.312c0 5.42-4.23 10-9.47 9.88s-9.24-3.32-9.35-9.3a9.4 9.4 0 0 1 2.718-6.915 9.38 9.38 0 0 1 6.892-2.775 9.12 9.12 0 0 1 8.504 5.602 9.1 9.1 0 0 1 .706 3.508m-7.48.19c0-1.22-.66-2.1-1.63-2.06a2.52 2.52 0 0 0-2.32 2.24 2.116 2.116 0 0 0 1.76 2.07 2.233 2.233 0 0 0 2.19-2.25M232.069 116.421a8.46 8.46 0 0 1 6.65-8.69 10.15 10.15 0 0 1 9.38 3 8.94 8.94 0 0 1-.16 12.51c-3.82 3.73-8.63 3.34-12.31.46a8.53 8.53 0 0 1-3.56-7.28m9-1.45a1.33 1.33 0 0 0-1.12.338 1.3 1.3 0 0 0-.336.498 1.3 1.3 0 0 0-.084.594 1.9 1.9 0 0 0 1.71 2 1.45 1.45 0 0 0 1.137-.282 1.47 1.47 0 0 0 .563-1.028 1.92 1.92 0 0 0-1.8-2.12zM250.58 95.592c.4 4.49-3.79 9.33-9.16 9.34a9.2 9.2 0 0 1-9.35-8.83c.16-5 4.21-9.49 9.09-9.15 5.32.32 9.52 3.05 9.42 8.64m-7.48.17a1.358 1.358 0 0 0-1.49-1.5c-1.21 0-2 .72-2 1.74a1.75 1.75 0 0 0 1.54 1.59 1.94 1.94 0 0 0 1.92-1.83z"/><path fill="#cbcfdd" d="M108.07 141.031c-.27 2-.48 3.51-.68 5-.37 2.77-.7 5.55-1.11 8.32-.24 1.63-.65 2-2.29 2.14-4.77.42-9.55.79-14.33 1.18l-5.06.41c.5-5.26 1-10.34 1.48-15.6zM144.37 153.101l-19.88 1.53c.7-5.09 1.36-9.89 2-14.88l16-1.13c.65 4.85 1.25 9.55 1.88 14.48M119.069 140.262c-.76 5.14-1.46 9.94-2.22 15l-2.9.23c-.68-2.61.34-4.95.46-7.33a71 71 0 0 1 1.13-7.37c.52-.14 1.09-.33 1.69-.44s1.07-.04 1.84-.09"/><path fill="#fff" d="M242.509 138.501a2.23 2.23 0 0 1-2.19 2.25 2.122 2.122 0 0 1-1.76-2.07 2.52 2.52 0 0 1 2.32-2.24c.97-.04 1.67.84 1.63 2.06M241.139 114.971a1.92 1.92 0 0 1 1.796 1.349c.079.256.105.525.074.791a1.45 1.45 0 0 1-.563 1.027 1.47 1.47 0 0 1-1.137.283 1.9 1.9 0 0 1-1.71-2 1.34 1.34 0 0 1 .411-1.106 1.332 1.332 0 0 1 1.129-.344M243.07 95.76a1.94 1.94 0 0 1-1.94 1.83 1.746 1.746 0 0 1-1.54-1.59c0-1 .78-1.71 2-1.74a1.362 1.362 0 0 1 1.48 1.5"/></svg>