<svg xmlns="http://www.w3.org/2000/svg" width="259" height="355" fill="none" viewBox="0 0 259 355"><path fill="#102185" d="m231.782 218.339-109.361-62.708a6.4 6.4 0 0 0-1.274.948c-5.296 6.683-10.619 13.225-15.9 19.908a21.5 21.5 0 0 1-2.252 2.69c-.835 1.005-1.869 1.628-3.157 1.699-1.26.226-2.45 0-3.426-.694a222 222 0 0 1-12.942-9.798c-2.534-2.138-2.506-4.446-.722-7.348 1.246-1.94 2.648-3.766 4.05-5.593 3.469-4.785 7.107-9.444 10.42-14.343 2.294-3.284 4.956-6.187 8.283-8.495a184.6 184.6 0 0 1 25.783-16.891c13.111-7.192 27.355-12.006 42.264-13.904 9.387-1.359 19.128-.778 28.275 1.36 1.047.24 1.939.382 3.129.594 2.35-3.001 4.559-5.975 6.923-8.835 3.285-4.177 5.239-4.516 9.756-1.713 4.516 2.803 9.358 5.833 13.932 8.906 5.196 3.398 5.521 5.21 2.251 10.378l-2.704 4.219q-2.025 3.228.453 5.82c6.937 7.546 12.204 16.254 15.758 25.839 4.8 13.394 7.278 27.468 7.023 41.598.028 9.189-.765 18.534-2.478 27.609a5.86 5.86 0 0 0 .765 4.319c.821 1.43 1.26 3.086 1.245 4.672a281 281 0 0 1-1.189 15.306c-.113 1.019-.354 2.081-.764 3.015-.552.963-1.147 1.643-2.025 2.365-.623.538-1.246 1.076-1.543 1.855-.298.778-.453 1.515-.439 2.378-.949 14.258-2.138 28.7-2.945 42.929-.935 17.557-1.6 35.071-2.535 52.628-.198 3.766-.538 4.261-4.219 4.629-4.233.453-8.367.609-12.686.652-15.107-.071-30.243-.283-45.506-.481l-65.144-.907-22.739-.17c-1.444-.028-2.774-.226-4.658-.325-.566-3.214-1.274-6.386-1.67-9.486-1.09-9.444-2.167-18.888-3.115-28.346-.793-7.773-1.303-15.589-1.954-23.376s-1.445-15.56-2.252-23.461c-.977-8.028-2.095-16.013-3.072-24.041-.099-.552-.227-1.26-.595-1.77-.24-.538-.75-1.019-1.245-1.359-.963-.552-1.685-1.43-2.139-2.35-.594-.907-.792-2.025-.85-3.158-.367-4.531-.707-8.934-.933-13.493-.383-6.258 2.661-9.387 8.877-9.175 13.012.439 26.193 1.006 39.234 1.586 13.762.595 27.524 1.203 41.145 1.826l38.837 1.799c9.274.382 18.533.764 27.666 1.175l2.095-.368.283-.043zm17.613-24.947c.156-.751.312-1.487.468-2.237-.156-14.782-2.407-29.195-8.524-42.773-11.228-24.622-33.329-38.271-61.25-36.813-15.235.807-29.492 5.621-42.929 12.587l-1.104 1.062a85346 85346 0 0 0 113.453 68.032l-.114.17zm-29.577 90.162-104.42-4.347c1.912 10.874 2.478 21.422 4.474 31.985l98.12.424c.495-9.429 1.203-18.463 1.713-27.906l.113-.17zm-105.553-14.06 106.162 4.475 1.586-23.716c-4.064-1.005-107.521-5.678-110.848-4.941.977 8.027 1.939 15.9 3.1 24.182m103.146 51.863c-10.944-.085-21.606-.226-32.239-.226s-21.578-.085-32.353-.057c-10.491-.028-21.181-.297-31.913 0 .863 8.184 1.515 15.985 3.313 23.716l30.653.212c10.081.1 20.318.312 30.385.269s20.119.779 30.497.1c.581-8.156 1.119-15.717 1.643-24.155l.028.141zM84.32 220.987c-.368 3.653-.255 7.518.524 11.129.297 1.67 1.416 2.336 3.115 2.18 1.274-.085 2.534-.297 3.837-.241l42.617 1.997 103.627 4.771c2.747.085 5.636.156 8.807.184l1.118-13.281-163.518-6.895-.113.17zm165.061-16.226-123.293-74.064c-6.555 3.597-11.37 7.32-12.927 9.897l134.437 76.995c.637-4.573 1.231-8.552 1.882-12.983l-.113.169zm-159.34 38.936c.396 3.087.608 5.933.934 8.609.92 6.881 1.84 13.762 2.605 20.53.269 1.529-.043 3.03.085 4.587.637 6.938 1.43 13.833 2.053 20.629 1.203 11.724 2.123 23.49 3.341 35.355.34 3.539 1.232 6.965 1.94 11.015l13.224-.029c-4.347-33.74-8.467-66.942-12.743-100.257l-11.454-.566.028.142zm141.614 6.584c-2.025 31.843-4.092 63.403-6.131 95.104 3.71.637 7.462.707 11.101.198.212-2.053.339-3.795.467-5.55 1.331-17.769.807-35.51 2.407-53.322.283-4.077.141-8.212.424-12.289.142-2.464.751-4.729 1.034-7.221.495-4.545.679-9.175 1.019-13.833 0-.864-.014-1.728-.07-2.86l-9.996-.397-.255.184zM91.3 165.853l7.264 5.338c5.238-6.966 10.831-12.827 15.744-20.02l-8.778-4.927-14.372 19.638zm122.331-57.314 13.125 7.618 3.214-5.451-12.12-7.646-4.332 5.649zM176.237 37.579l3.964 1.982c3.965 1.982 6.938 5.522 8.495 9.628 4.531 11.893-6.088 21.946-15.432 20.813-6.796-.85-13.168-7.646-13.734-15.15-.142-2.265 0-4.53 0-7.22-.708.14-1.558.424-2.266.707-10.335 6.088-16.707 15.008-18.689 26.902-.425 2.406-.425 4.814-.567 7.22-.141 2.69-1.415 4.248-3.822 4.531-1.133 0-2.266-.283-3.115-.99a4.38 4.38 0 0 1-1.558-2.833c-.141-1.132-.283-2.265-.283-3.398 0-12.176 4.956-22.37 13.168-31.149 5.38-6.088 12.601-10.052 20.53-11.468 1.699-.425 3.256-1.416 4.247-2.973 6.797-8.354 16.424-14.017 27.043-15.858 2.832-.425 5.664-.425 8.495-.283 1.133 0 2.266.424 3.257.99.708.425 1.416.992 1.699 1.7.425.708.566 1.557.425 2.407 0 .85-.425 1.699-.991 2.265s-1.275.991-2.124 1.133a21.3 21.3 0 0 1-4.248 0c-9.769-.425-17.415 4.106-24.636 10.619zm-5.947 8.495c-1.274 1.982-2.124 4.389-2.124 6.796 0 1.699.284 3.256 1.133 4.672.85 1.416 2.124 2.549 3.54 3.115.849.425 1.982.567 2.973.425 1.557-.425 2.832-1.416 3.823-2.832.85-1.416 1.274-2.973.991-4.53-.708-4.39-4.955-7.505-10.336-7.505zM47.96 129.468v-15.433c0-1.982-.283-3.823-.425-5.805-.425-6.371-3.256-10.619-9.628-12.318-.99-.142-1.982-.708-2.69-1.557-.708-.85-.991-1.841-.991-2.832 0-1.982 1.416-3.398 4.247-4.39a69 69 0 0 0 8.92-3.539c5.947-3.115 8.779-8.495 9.911-14.866.567-2.832.567-5.947.85-8.779 0-1.557.283-3.115.708-4.53 0-.567.283-.992.566-1.558a4.3 4.3 0 0 1 1.133-1.133c.425-.283.991-.425 1.558-.566h1.699q1.486.425 2.548 1.7c.567.849.85 1.84.708 2.972-.141 3.54-.566 6.938-.85 10.336 0 1.274-.141 2.549-.566 3.823-1.84 3.964-.142 7.362 1.558 10.902 1.699 3.257 4.53 5.805 7.929 6.938 1.982.85 4.106 1.416 6.088 2.265.99.283 1.84.85 2.407 1.558.566.707.99 1.699 1.132 2.69.284 2.123-1.132 3.54-2.831 4.672-3.54 2.124-7.221 4.106-10.478 6.513-6.513 4.672-10.76 10.902-11.893 18.973-.85 6.088-1.416 12.176-2.266 18.406-.141 1.982-.566 3.823-.566 5.805 0 1.132-.566 2.265-1.416 3.115a4.4 4.4 0 0 1-3.114 1.274c-2.266-.142-3.965-1.982-4.107-4.814v-19.68zM69.198 96.62 58.296 86.143l-8.212 6.23c1.557 2.548 2.973 5.096 4.247 7.787.85 2.69 1.7 5.38 2.265 8.212zM29.809 182.094c-.85 6.938.566 14.017 3.964 20.105 1.558 2.973 3.823 5.522 6.655 7.363a25 25 0 0 1 3.115 2.265c2.548 2.549 2.407 5.663-.566 7.787-1.275.85-2.69 1.558-4.107 2.124-5.097 2.407-9.344 6.655-11.61 11.893-1.699 3.682-1.274 7.787-1.416 11.752 0 3.964.142 7.504.284 11.185v2.266c0 .991-.425 1.982-1.133 2.831-.708.708-1.699 1.133-2.69 1.275-.991 0-1.982-.284-2.832-.991s-1.274-1.558-1.416-2.691c-.141-1.557-.283-3.114-.283-4.53 0-8.071-.85-16.141-2.549-24.07-.566-2.407-1.557-4.672-2.69-6.796-.707-1.274-1.699-2.265-2.831-3.115-1.274-.708-2.69-1.133-4.106-1.133H4.89c-2.832-.283-4.531-1.557-4.814-3.681-.425-2.407.991-3.823 2.832-4.955.708-.425 1.557-.85 2.406-1.275 9.77-4.389 14.159-12.601 15.433-22.795.283-2.407.425-4.814.85-7.221.566-3.115 1.982-4.531 4.39-4.248 2.406.284 3.539 1.699 3.822 4.531zm-5.097 22.087-8.778 9.911 6.937 9.77c1.7-1.558 3.257-3.115 4.956-4.673s3.54-2.831 5.097-4.105l-8.07-10.903zM48.243 58.392c-1.132 0-2.265-.566-2.973-1.416a4.95 4.95 0 0 1-1.133-3.114c0-1.133.566-2.266 1.416-2.974.85-.85 1.983-1.133 3.115-1.133.566 0 1.133 0 1.7.284.566.283.99.566 1.415.99s.708.85.991 1.417c.142.566.283 1.132.283 1.699 0 1.132-.566 2.265-1.416 3.114-.85.85-1.982 1.133-3.115 1.133zM83.78 29.792c-.566 0-1.132 0-1.698-.284-.566-.141-.991-.566-1.416-.849-.425-.425-.708-.85-.991-1.416s-.283-1.133-.283-1.699 0-1.133.283-1.557c.142-.567.425-.991.85-1.416.424-.425.85-.708 1.274-.991s.991-.425 1.557-.425c.567 0 1.133 0 1.7.142.566.141 1.132.424 1.557.85.424.424.85.849 1.132 1.415q.426.85.425 1.699c0 .566 0 1.133-.283 1.7-.141.565-.425 1.132-.85 1.415-.424.425-.85.85-1.415.991q-.85.425-1.7.425zM102.046 53.294c0 .567 0 1.133-.283 1.7-.283.566-.567.99-.992 1.415-.424.425-.85.708-1.415.991-.567.283-1.133.283-1.7.283-.566 0-1.132 0-1.698-.283-.567-.141-.992-.566-1.416-.991-.425-.425-.708-.85-.991-1.416s-.283-1.133-.283-1.699c0-1.133.424-2.265 1.274-3.115a4.4 4.4 0 0 1 3.114-1.274c.567 0 1.133 0 1.7.283.566.283.991.566 1.415.991s.709.85.992 1.416c.141.566.283 1.133.283 1.7M100.348 4.306c0 1.133-.425 2.124-1.133 2.974-.708.849-1.7 1.274-2.832 1.274-.85 0-1.699 0-2.407-.567-.708-.424-1.274-1.132-1.699-1.84s-.566-1.7-.283-2.549c0-.85.566-1.557 1.133-2.265q.849-.85 2.124-1.274c.849-.142 1.699 0 2.548.141.85.283 1.416.85 1.982 1.558s.708 1.557.708 2.407z"/></svg>