<svg xmlns="http://www.w3.org/2000/svg" width="244" height="323" fill="none" viewBox="0 0 244 323"><path fill="#102185" d="M192.829 282.779c7.405 1.529 8.353 2.435 8.82 9.925.425 7.066.85 14.145 1.133 21.097.128 1.274-.028 2.562-.326 3.879-.056.864-.552 1.614-1.061 2.237-.51.623-1.303 1.133-2.138 1.359-2.492.68-4.998 1.218-7.533 1.473-5.38.255-10.803.099-16.084-.085-5.409-.028-10.987-.311-16.537-.326-8.411-.141-16.821-.297-25.373-.439h-16.933c-5.692 0-11.271-.283-16.962-.283-5.267-.042-10.534-.071-15.66-.127-5.989-.114-11.978-.213-17.967-.326-5.409-.028-10.817-.042-16.084-.085-5.848-.127-11.696-.24-17.685-.354-4.842-.085-9.698-.156-14.54-.24-.85.084-1.728-.255-2.606-.453-.878-.199-1.5-.708-2.124-1.346-.495-.665-.863-1.472-.948-2.322-.184-1.826-.354-3.525-.397-5.366.114-5.989.213-11.978.468-17.981.056-2.28.113-4.559.438-6.881.312-2.591 1.374-4.687 4.305-5.267 1.94-.482 3.88-1.105 6.23-1.77.184-1.019.368-2.025.41-3.03-.042-3.271-.099-6.683-.142-9.939-.184-7.519-.396-15.192-.58-22.711-.24-9.514-.34-18.887-.439-28.416-.24-9.515-.325-18.746-.538-27.977-.283-12.644-.41-25.288-.708-38.073-.212-9.231-.439-18.448-.51-27.694.085-6.272-.537-12.474.524-18.831 2.266-14.173 8.028-27.708 16.693-39.106 8.028-10.775 18.846-19.114 31.305-24.07 6.13-2.746 12.46-4.813 19.044-5.904 4.488-.594 8.806-1.6 13.309-2.053 6.782-.538 13.634-.24 20.289.807 9.231 1.204 18.137 3.44 26.732 6.839 12.728 4.842 22.285 13.55 30.058 24.296 2.492 3.596 4.729 7.348 6.952 11.115 3.271 5.649 5.607 11.822 6.966 18.222 1.671 6.668 2.209 13.436 1.756 20.317-.51 4.885-.156 9.699-.241 14.541-.141 8.552-.269 17.104-.396 25.655-.028 5.409-.043 10.818-.085 16.085-.057 6.555-.099 13.096-.17 19.51-.028 5.409-.042 10.817-.085 16.084-.141 8.552-.269 17.104-.269 25.642l-.085 16.084c-.056 6.555-.099 13.096-.17 19.51-.155 5.565-.156 11.115-.156 16.807h.142zm-50.957-151.256c1.854.099 3.596.354 5.437.311 2.421.043 4.898.652 7.008 1.714 2.237 1.061 4.106 2.577 5.72 4.545 2.124 2.775 3.724 5.89 4.63 9.217 2.067 6.343 2.265 12.573-2.138 18.293-.382.467-.609 1.062-.68 1.769.057.567.128 1.275.468 1.799a52.7 52.7 0 0 1 3.2 7.787c3.1 11.072-.935 23.149-12.488 27.156-.567.057-.963.382-1.345.708-.397.326-.638.779-.878 1.232-1.43 4.134-4.347 7.702-8.283 9.656-2.152 1.218-2.11 1.642-1.713 4.163.693 4.063 1.387 8.113 1.656 12.219.567 5.635.708 11.312 1.26 16.806.921 9.16 1.699 18.321 2.507 27.637.169 1.685.212 3.54.24 5.239 4.234.991 33.16 1.501 36.487.595.085-6.273.156-12.545.099-18.789-.028-5.975-.085-12.091-.113-18.066.099-8.835.212-17.67.311-26.505-.028-3.129.1-6.131.057-9.26.142-5.706.142-11.256.297-16.82.057-3.71-.028-7.391-.127-11.086.099-6.131.184-12.262.283-18.393 0-5.691-.028-11.524-.028-17.216.141-8.552.269-17.104.269-25.641-.128-2.691.028-5.409.184-8.127.793-6.202-.397-12.347-1.699-18.322-2.166-10.166-7.334-19.185-13.706-27.227-3.086-3.808-6.286-7.334-9.897-10.675-4.87-4.489-10.973-7.15-17.018-9.387-10.931-4.022-22.654-5.975-34.321-5.933-11.964-.07-23.8 2.393-34.675 7.476-4.502 1.883-8.835 4.162-12.827 6.838-8.113 5.65-14.315 13.253-19.313 21.578-3.78 6.216-6.654 13.054-8.212 20.176-1.543 7.278-2.067 14.725-1.897 22.102.142 9.939.453 20.02.595 29.959.226 10.789.453 21.436.68 32.239.07 3.554.155 7.235.226 10.789 0 7.108 0 14.088.127 21.054.085 7.957.467 15.886.694 23.843.07 3.554.156 7.235.227 10.789.141 9.939.155 19.907.311 29.988.057.566.255 1.118.595 1.642 10.336.949 37.138 1.388 40.324.496 1.925-21.818 3.992-43.665 5.89-65.767-19.794-1.557-31.178-22.753-24.566-37.647-3.68-4.036-6.966-8.411-7.546-14.187-.977-5.451.297-11.129 3.242-15.844 3.214-4.87 8.269-6.952 13.366-8.608 0-9.954 4.403-17.09 12.771-21.493 8.92-4.743 17.146-2.152 24.778 3.058 9.514-4.375 8.693-4.148 16.594-4.8 2.392-.24 4.842.085 7.093 1.133 7.292 3.115 13.026 7.801 15.971 15.9l-.156-.127zm-1.898 74.333c.949-1.94 1.784-3.455 2.337-5.069 1.132-2.818 2.789-4.828 5.847-5.565.708-.07 1.515-.439 2.195-.792 1.642-.595 3.242-1.756 4.233-3.129 1.147-1.402 1.812-3.172 1.912-5.027a17.3 17.3 0 0 0-.765-7.603c-.821-2.478-2.053-4.771-3.795-6.584-2.718-3.001-2.845-5.691-.311-8.792a24 24 0 0 0 2.407-2.945c.864-1.374 1.402-2.988 1.671-4.573.07-3.568-.864-7.165-3.016-10.223-.68-1.076-1.628-1.968-2.69-2.718-1.062-.609-2.365-.907-3.653-.907-2.124.071-4.276-.141-6.57-.198-4.134 0-6.131-1.515-7.504-5.224l-.113-1.133c-.482-1.94-1.388-3.851-2.676-5.423a14.9 14.9 0 0 0-4.658-3.794c-1.813-.949-3.71-1.473-5.862-1.685-1.996-.085-4.12.127-5.89.878-2.478.821-4.941 1.784-6.683 4.233-2.237 3.214-5.239 3.087-8.099.099-1.741-1.812-3.766-3.468-6.145-4.502-1.94-.949-4.12-1.288-6.244-1.218-2.11.213-4.176.85-6.06 2.039-1.727 1.175-3.27 2.888-4.205 4.842-.948 1.94-1.288 4.12-1.217 6.244a17.5 17.5 0 0 1-.043 3.851c-.396 4.588-1.67 6.004-6.116 7.023l-1.827.184c-1.543.156-3.228.467-4.559 1.317s-2.492 2.095-3.214 3.455c-.963 1.798-1.444 3.992-1.515 6.13a12.65 12.65 0 0 0 1.742 5.947c1.19 1.869 2.62 3.44 4.332 4.828 3.752 3.327 4.276 5.692 1.87 10.053-.369.608-.723 1.359-1.077 2.095-.439 1.331-.736 2.634-.736 4.064.878 7.305 3.922 13.549 11.2 16.523.75.353 1.486.566 2.208.778.453.241 1.02.184 1.444.142.567-.057.991-.099 1.36-.567.396-.325.792-.651 1.033-1.104s.34-.892.425-1.472l.552-3.044c.312-1.176.934-2.082 1.855-2.747.92-.666 2.18-.935 3.341-.765 1.006.043 2.01.227 3.016.269 10.973.17 21.946.354 32.933.666 2.846 0 5.565.155 8.439.424 4.035.454 4.814 1.218 5.493 5.14a10.8 10.8 0 0 0 2.676 5.423l.736.212zm51.906 87.259a5722 5722 0 0 0-34.391-.949c-11.271-.283-22.527-.439-33.797-.722s-22.229-.325-33.358-.623c-11.129-.297-22.569-.863-33.825-1.005s-22.413-.736-33.924-.566l-.595 20.983c1.713.113 3.313.382 4.73.382 1.415 0 2.817-.283 4.247-.142l24.947.482c2.988-.014 5.834-.014 8.835.099 5.706.141 11.554.255 17.26.396 5.408.029 10.817.043 16.084.085 5.706.142 11.554.255 17.259.397 5.706.141 11.526-.028 17.217-.028 8.269.169 16.679.311 24.948.481 5.125.056 10.251.099 15.39.156 5.706.141 11.554.255 17.246.255.849-.085 1.543-.156 2.364-.524l-.793-19.129h.142zm-83.763-12.191c3.186.539 6.471.623 9.6.595s6.145.241 9.274.198c3.129-.028 6.343.779 9.67-.113-.311-5.947-.453-11.624-.906-17.415-.538-5.352-1.487-10.52-1.741-15.9-.581-14.173-3.101-28.006-4.673-42.079-.042-.425-.368-.822-.694-1.218-6.697-.043-13.578-.623-20.501-.071-1.827 7.306-1.26 14.357-.553 21.394.708 7.037 1.77 9.075 2.507 13.55 2.194 11.879 1.869 24.14-.949 35.807-.411 1.599-.68 3.199-1.175 5.238h.141zm-10.52.071c1.006-4.092 2.323-8.056 3.059-11.978 1.458-9.543 1.345-19.199-.467-28.699-1.119-6.867-2.096-13.734-2.79-20.644-.212-3.539-.156-7.235.198-10.689 0-1.416 0-2.705.142-4.276l-5.876-.411c-1.19 3.681-7.376 72.322-6.824 76.386l12.714.425-.156-.128zM39.392 21.03c-.184 1.018-.51 2.038-.85 2.93-.595 1.203-1.303 2.549-2.053 3.624-3.554 5.622-5.451 12.22-5.635 18.93 0 2.705-.326 5.296-.75 8.043-.17 1.16-.638 2.194-1.402 2.987a4.94 4.94 0 0 1-2.988 1.444c-1.132.114-2.28-.056-3.341-.665s-1.713-1.53-2.237-2.478c-.567-1.36-.722-2.917-1.303-4.417-1.246-3.866-2.492-7.717-3.865-11.568-1.345-3.426-3.78-5.026-7.547-4.22l-.708.072c-2.534.254-4.587-.397-5.96-2.676-.524-.95-.78-2.053-.75-3.2a4.4 4.4 0 0 1 1.26-2.974c1.118-1.67 2.364-3.37 3.765-4.927a21.6 21.6 0 0 0 5.21-10.491c.27-1.586.695-3.058 1.105-4.517.552-1.614 1.105-3.1 2.11-4.488 2.237-3.214 5.932-3.3 8.254.028 1.345 1.997 2.69 4.134 3.767 6.315a9.7 9.7 0 0 0 3.242 3.936c1.387.991 3.016 1.685 4.743 1.94 4.177.439 5.621 2.138 5.89 6.23v.141zm-23.858 4.827 7.49 6.499 3.964-8.65-7.532-5.509-3.78 7.646h-.142zM225.988 181.106c1.303.156 2.464.468 3.767.623 3.469.51 6.909.722 10.251 1.53 3.341.807 4.856 4.346 3.327 7.631-.482.906-.963 1.798-1.572 2.718a28.2 28.2 0 0 0-4.389 10.124c-.609 2.478-.765 5.054-.651 7.603.255 2.534.085 5.111.056 7.674a4.43 4.43 0 0 1-.948 3.228c-.765.934-1.685 1.6-2.804 1.841-1.246.41-2.392.24-3.582-.213s-1.996-1.5-2.534-2.591c-1.232-2.293-2.039-4.63-3.115-6.937-.92-2.039-2.11-4.05-3.313-6.075-.68-1.076-1.614-1.826-2.662-2.435-1.189-.453-2.336-.623-3.61-.495-1.275.127-2.535.255-3.724-.199-.864-.056-1.6-.41-2.365-.906-.623-.509-1.26-1.161-1.614-1.826-.368-.821-.594-1.642-.538-2.506-.085-.85.269-1.586.765-2.351.594-1.203 1.345-2.123 2.251-3.072 5.437-5.38 7.207-11.822 6.315-19.284a13.7 13.7 0 0 1 .368-4.87 3.7 3.7 0 0 1 1.345-2.124c.651-.496 1.472-.864 2.336-.807 1.855.099 3.908.608 4.559 2.817.609 1.784.949 3.752 1.274 5.565.312 1.67.34 3.384.538 5.352l.284-.029zm-5.04 14.881 6.839 4.29 3.001-8.41-7.037-.566-2.661 4.672h-.142z"/><path fill="#102185" d="M156.738 78.513c.312 1.67.34 3.384-.07 4.984s-1.091 3.242-2.11 4.488c-3.143 4.163-7.702 5.465-12.573 5.111-3.157-.255-6.117-1.373-8.439-3.27-4.021-3.158-8.155-6.145-12.19-9.444-4.021-3.157-7.462-6.216-12.063-8.17-3.129-1.387-6.4-2.775-9.628-3.723-1.317-.298-2.662-1.02-3.625-2.053a9.1 9.1 0 0 1-2.067-3.64c-2.506-7.857 1.402-14.37 9.642-15.913 5.593-.992 11.341-.425 16.636 1.316 9.402 2.889 18.251 7.405 26.123 13.451 2.492 2.166 4.885 4.63 6.853 7.278 2.251 2.619 3.455 6.06 3.511 9.457v.142zm-53.477-19.51 3.865 1.6c1.629.693 3.399 1.217 5.041 2.052 7.759 3.625 14.272 8.948 20.799 14.414 2.322 1.897 4.913 3.624 7.518 5.366.921.623 2.096 1.076 3.243 1.09 2.407-.1 3.879-1.104 3.199-3.596-.155-1.544-.722-2.917-1.43-4.262-1.826-2.662-4.063-4.998-6.541-7.023-6.598-4.743-13.805-8.424-21.564-10.633-3.072-.835-6.244-1.217-9.528-1.317-.878-.198-1.841.043-2.662.411s-1.444 1.147-1.798 1.883h-.142zM174.451 106.038c.453 4.502.142 8.523-1.897 12.289-1.331 2.265-3.455 3.908-5.947 4.587-2.492.68-5.083.369-7.348-.962a59 59 0 0 1-6.513-5.324 7.8 7.8 0 0 1-1.515-2.265c-1.501-3.554-2.166-7.32-1.699-11.214.623-5.182 3.837-8.495 8.467-10.534 3.964-1.685 7.66-.198 10.888 2.18 3.978 2.733 5.394 6.995 5.55 11.257zm-10.548 6.753c.566-1.486.835-3.072.793-4.771-.156-1.544-.326-3.243-1.189-4.715-.199-.552-1.53-.991-2.223-.92-.425.042-.822.368-1.091.538-.254.311-.509.623-.75 1.076-.835 3.072.637 6.343 4.432 8.665v.141z"/></svg>