<svg width="285" height="228" viewBox="0 0 285 228" fill="none" xmlns="http://www.w3.org/2000/svg">
<path d="M176.077 72.8813C175.015 85.0152 171.915 96.1156 163.858 105.347C163.037 106.55 162.485 108.065 162.485 109.637C161.664 119.081 161.112 128.567 160.418 138.025C159.752 145.642 158.351 147.086 150.663 147.115C144.546 147.143 138.302 147.03 132.186 147.058C126.508 146.987 124.54 145.104 124.469 139.413C124.427 130.167 124.242 120.921 124.469 111.704C124.766 108.32 123.492 104.936 121.312 102.331C108.271 85.6948 107.309 61.0306 119.457 42.3271C127.018 30.6179 135.669 19.5884 144.05 8.23323C147.449 3.56089 151.824 3.80158 155.108 8.48807C166.449 24.9687 175.03 42.3554 176.077 62.7721C176.205 66.1984 176.035 69.7382 176.176 73.0088L176.049 72.853L176.077 72.8813ZM149.02 18.3424C148.086 19.2485 147.137 20.3104 146.203 21.3582C139.718 30.4622 132.823 39.3679 127.159 48.9674C119.301 62.4889 118.48 76.6333 125.616 90.9052C128.518 96.696 132.186 100.292 139.067 99.6127C141.049 99.641 142.904 99.6694 144.843 100.123C155.576 100.915 157.374 99.7968 161.65 89.9424C162.542 87.8894 163.306 85.6806 163.929 83.4577C167.03 70.8 166.478 57.5334 162.315 45.088C159.313 35.5876 154.839 26.6677 148.864 18.4699L149.02 18.3424ZM149.997 136.963L152.107 112.851C152.163 112.143 151.286 110.784 150.733 110.741C145.523 110.147 140.157 109.821 134.508 109.326C134.536 118.713 134.508 127.095 134.649 135.349C134.748 135.788 135.003 136.227 135.399 136.553C135.796 136.878 136.065 137.034 136.617 137.232C141.02 137.331 145.438 137.147 149.969 137.26L149.997 136.977V136.963Z" fill="#102185"/>
<path d="M100.612 67.9688C99.5356 80.2443 96.4349 91.3447 88.5202 100.59C87.699 101.794 87.1468 103.309 87.0193 104.725C86.1981 114.168 85.646 123.655 84.9522 133.112C84.2726 140.871 82.7151 142.443 74.9137 142.33C68.8113 142.216 62.539 142.386 56.4366 142.273C50.9148 142.075 48.9467 140.192 48.8476 134.783C48.8193 125.396 48.6494 116.009 48.8901 106.65C49.1733 103.408 47.899 100.165 45.7044 97.5603C32.7775 81.2213 31.5599 56.2455 43.2266 38.2217C50.9572 26.2435 59.7639 14.9449 68.16 3.44816C71.5581 -1.22417 76.0889 -1.11097 79.2321 3.56137C90.4316 20.042 99.1533 37.4288 100.343 57.8596C100.456 61.4276 100.428 64.9672 100.456 67.9547H100.598L100.612 67.9688ZM73.6677 13.7414C72.7474 14.5201 71.813 15.4263 70.8785 16.3466C64.3797 25.578 57.2154 34.4838 51.6652 44.2249C43.1133 59.1056 42.7594 74.4252 51.9625 89.4474C53.9447 92.7464 56.6207 94.6861 60.7409 94.7569C64.592 94.6719 68.4007 94.9976 72.3368 95.4932C78.4958 96.5975 81.8798 93.6242 84.5982 88.612C89.6953 79.1116 90.8705 68.974 90.375 58.4117C89.5537 41.8462 82.8567 27.4753 73.8376 13.614L73.6819 13.7414H73.6677ZM58.8861 104.541C58.9003 110.799 58.8578 116.193 58.971 121.46C58.9569 124.872 57.8384 129.601 59.6507 131.47C61.4771 133.339 66.1353 132.037 69.5192 132.334C70.3688 132.405 71.4873 132.645 72.2235 132.291C73.2571 131.81 74.7721 130.805 74.8571 129.828C75.4942 122.635 76.103 115.584 76.5986 108.377C76.6411 107.811 76.2588 107.358 75.8765 106.891C75.4942 106.424 75.0978 106.112 74.5456 105.928C69.6325 105.22 64.5496 104.909 58.9003 104.413V104.555L58.8861 104.541Z" fill="#102185"/>
<path d="M249.646 79.8903C248.528 92.5905 245.441 103.535 237.399 112.639C236.578 113.843 236.195 115.089 236.209 116.519C235.388 125.962 234.694 135.434 234.015 144.892C233.463 152.807 231.919 154.237 224.104 154.251C217.987 154.28 211.743 154.166 205.627 154.195C200.232 154.152 198.137 152.113 198.024 146.846C197.882 137.034 197.882 127.364 197.882 117.552C198.123 114.876 197.075 112.228 195.39 110.232C181.614 93.8223 180.637 67.7281 193.394 48.6564C200.77 37.4995 208.94 26.9938 216.855 16.1766C221.187 10.4424 225.279 10.8105 229.314 16.7005C240.245 33.0112 248.683 50.3696 249.632 70.3615C249.745 73.9295 249.575 77.4692 249.646 79.8903ZM222.73 25.3655C221.64 26.4133 220.692 27.6026 219.743 28.6504C213.91 36.8057 208.076 44.9752 202.384 53.1447C195.886 62.3761 193.111 73.08 194.994 83.9113C197.443 98.0557 200.176 107.528 217.548 107.202C229.512 106.976 231.226 106.834 235.771 95.5779C236.493 93.794 237.215 92.01 237.682 90.0561C243.176 66.2272 235.771 45.4 222.617 25.2098L222.745 25.3655H222.73ZM223.707 144.128C224.429 135.803 225.123 127.902 225.817 120.016C225.859 119.591 225.477 118.996 225.222 118.685C224.967 118.373 224.429 118.048 224.019 117.864C218.95 117.283 213.867 116.972 208.218 116.476C208.26 125.722 208.232 134.104 208.501 142.514C208.6 142.953 208.855 143.392 209.251 143.717C209.506 144.029 209.917 144.199 210.469 144.397C214.872 144.496 219.276 144.453 223.976 144.298L223.707 144.128Z" fill="#102185"/>
<path d="M132.313 200.932C132.072 206.878 131.845 212.683 131.619 218.63C131.336 223.444 129.141 225.808 124.455 225.822C110.806 225.907 97.0152 225.978 83.2246 225.908C77.4054 225.823 75.5789 223.954 75.5082 218.262C75.409 206.454 75.1683 194.645 75.3382 182.851C75.4657 179.736 76.4285 176.834 78.085 174.285C83.975 165.422 90.2756 156.87 96.5762 148.191C100.13 143.25 104.293 142.896 108.285 147.511C115.535 155.681 122.926 163.723 129.708 172.275C131.718 175.291 132.822 178.943 132.78 182.639C132.808 188.755 131.845 194.929 131.322 200.988L132.171 201.059L132.327 200.932H132.313ZM122.855 183.913C110.593 184.409 98.8983 184.805 87.189 185.485C86.4811 185.428 85.3484 187.028 85.4334 187.75C85.3909 196.273 85.5183 204.67 85.7732 213.08C85.7024 213.929 87.0333 214.892 87.6704 215.798C88.4492 215.02 89.5111 214.255 89.8792 213.292C90.8986 209.823 91.3375 206.312 92.4986 202.857C94.41 197.194 98.2045 194.546 102.877 194.674C105.581 194.631 108.059 195.551 110.197 197.166C112.335 198.78 113.836 201.031 114.6 203.664C115.591 206.878 115.875 210.177 116.738 213.377C116.965 213.972 117.361 214.425 117.899 214.765C118.437 215.09 118.975 215.43 119.527 215.614C119.952 215.657 121.481 214.368 121.552 213.66C122.118 203.905 122.402 194.263 122.883 183.927L122.855 183.913ZM115.62 174.03L103.231 156.46L90.1057 174.922L115.62 174.03ZM106.983 215.911L104.236 205.151L102.381 205.278C101.532 208.478 100.668 211.806 99.7903 215.43L107.124 216.067L106.997 215.911H106.983Z" fill="#102185"/>
<path d="M207.538 211.792C207.439 214.482 207.495 217.186 207.255 219.862C206.858 224.379 204.834 226.474 200.416 226.517C186.342 226.559 172.127 226.602 158.068 226.503C153.381 226.517 151.427 224.365 151.286 219.508C151.073 207.261 150.861 195.17 151.073 182.965C151.342 179.864 152.447 176.976 154.231 174.427C160.092 165.847 166.237 157.423 172.382 149.013C176.261 143.661 180.254 143.448 184.643 148.517C191.624 156.375 198.462 164.361 205.442 172.233C206.603 173.62 207.609 175.121 208.161 176.877C208.713 178.632 208.996 180.36 208.826 182.2C208.387 192.111 208.09 201.895 207.651 211.806H207.51L207.538 211.792ZM198.561 184.565C186.3 185.06 174.605 185.457 163.051 185.995C162.598 186.236 162.159 186.49 161.834 186.887C161.508 187.283 161.324 187.836 161.14 188.246C161.097 196.77 161.225 205.166 161.466 213.718C161.381 214.709 162.584 215.516 163.207 216.563C164 215.643 165.345 214.907 165.572 213.93C166.577 210.603 167.03 207.091 168.148 203.92C170.202 198.27 174.152 195.354 178.838 195.481C181.528 195.58 184.148 196.515 186.272 198.27C188.395 200.026 189.882 202.419 190.505 205.038C191.369 208.097 191.652 211.396 192.53 214.454C192.77 214.907 193.167 215.36 193.563 215.686C193.96 216.011 194.512 216.195 195.064 216.379C195.645 216.294 196.084 216.04 196.551 215.657C197.018 215.275 197.188 214.864 197.386 214.312C197.938 204.698 198.363 195.071 198.703 184.721L198.575 184.565H198.561ZM178.923 157.125L165.642 175.716L191.312 174.696L178.923 157.125ZM182.251 216.535C181.33 212.472 181.953 208.55 177.989 205.081C176.913 209.243 176.049 212.585 175.157 216.351L182.251 216.549V216.535Z" fill="#102185"/>
<path d="M284.561 202.192L282.975 220.244C282.536 225.327 280.497 227.423 275.386 227.394C261.61 227.324 247.961 227.395 234.17 227.338C229.2 227.338 227.091 225.441 227.105 220.329C226.893 208.082 226.68 195.991 226.893 183.786C227.162 180.685 228.266 177.797 230.05 175.248C235.926 166.527 242.226 157.975 248.357 149.565C251.911 144.623 256.201 144.425 260.194 149.041C267.174 157.04 274.126 165.182 281.262 173.054C282.564 174.441 283.414 176.084 284.108 177.854C284.66 179.609 284.929 181.478 284.773 183.319C284.518 189.548 284.235 195.92 283.98 202.15L284.83 202.221L284.547 202.192H284.561ZM274.31 186.235C273.786 185.768 273.659 185.613 273.659 185.613C262.119 185.882 250.58 186.15 239.168 186.717C238.46 186.66 237.016 188.515 237.073 189.52C236.931 197.605 237.087 205.576 237.228 213.689C237.271 214.836 238.446 216.068 239.182 217.271C240.131 216.223 241.08 215.02 241.632 213.646C242.58 210.886 242.849 207.926 243.812 205.024C245.908 198.95 249.886 195.75 254.828 196.033C260.633 196.26 264.88 199.757 266.622 205.873C267.599 209.371 268.264 213.123 268.958 216.591C271.464 217.243 273.418 217.554 273.588 214.015C273.843 204.656 274.225 195.311 274.607 186.108L274.31 186.221V186.235ZM254.771 157.805C250.226 164.233 246.191 169.698 241.504 176.254L267.585 175.418L254.771 157.805ZM250.807 217.568C253.837 216.988 256.102 217.186 257.461 216.167C258.82 215.147 256.47 207.983 253.78 206.326C252.902 209.809 252.053 212.995 250.807 217.583V217.568Z" fill="#102185"/>
<path d="M57.1304 199.19C56.8897 205.137 56.7906 211.239 56.3942 217.313C56.111 222.127 53.9306 224.35 49.1025 224.35C35.1703 224.407 21.0966 224.449 7.17867 224.237C2.63374 224.265 0.538253 222.226 0.368349 217.667C0.170128 205.278 -0.155523 192.748 0.0851745 180.402C0.354189 177.301 1.60015 174.427 3.38415 172.02C9.10425 163.567 15.2208 155.284 21.2241 146.86C25.1035 141.508 29.0963 141.296 33.4855 146.365C40.6073 154.378 47.5733 162.378 54.5536 170.378C55.7146 171.765 56.7057 173.408 57.2579 175.163C57.81 176.919 57.9375 178.774 57.7817 180.614C57.5269 186.703 57.272 192.932 57.0172 199.02L57.1446 199.176L57.1304 199.19ZM47.7999 182.455C35.5385 182.95 23.8576 183.205 12.2899 183.885C11.582 183.828 10.2936 185.556 10.3502 186.561C10.3219 194.943 10.4493 203.197 10.5767 211.593C10.4918 212.584 11.6811 213.533 12.3183 214.439C13.1111 213.519 14.4562 212.783 14.8243 211.82C15.8296 208.492 16.2827 204.981 17.4012 201.81C19.3126 196.146 23.4045 193.244 28.091 193.371C30.7812 193.47 33.2589 194.391 35.3969 196.005C37.5348 197.619 39.0215 200.012 39.6586 202.489C40.5223 205.548 40.8055 208.847 41.6833 211.905C42.0231 212.924 43.3824 213.618 44.1611 214.397C44.954 213.476 46.4406 212.754 46.5256 211.763C47.2194 202.164 47.4884 192.663 47.9556 182.469H47.814L47.7999 182.455ZM28.1901 154.86L15.065 173.323L41.2869 172.487L28.1901 154.86ZM29.3087 203.707L27.199 203.523C26.3353 206.864 25.4717 210.333 24.4098 214.227L31.6732 214.014C30.7387 210.092 30.0166 206.907 29.3228 203.58V203.721L29.3087 203.707Z" fill="#102185"/>
<path d="M148.326 91.0621C147.052 90.9488 145.99 90.1417 145.225 89.0798C144.461 88.0179 144.135 86.8569 144.248 85.5826C144.362 84.3083 145.027 83.2323 145.962 82.3262C146.882 81.5474 148.199 81.0944 149.473 81.2077C150.181 81.2643 150.733 81.4625 151.413 81.8023C151.951 82.128 152.475 82.6094 152.871 83.0624C153.253 83.5297 153.621 84.2659 153.706 84.8464C153.933 85.5827 153.876 86.1348 153.82 86.8428C153.777 87.4091 153.565 88.1029 153.239 88.6409C152.913 89.179 152.432 89.7028 151.979 90.0992C151.512 90.4815 150.931 90.7222 150.337 90.9488C149.756 91.0337 149.048 91.1186 148.482 91.0762H148.34L148.326 91.0621Z" fill="#102185"/>
<path d="M141.219 68.4075C141.176 68.9739 141.105 69.6817 140.78 70.2198C140.454 70.7578 140.114 71.2959 139.661 71.6782C139.194 72.0604 138.599 72.4427 138.019 72.5276C137.424 72.7542 136.73 72.6976 136.164 72.6551C135.173 72.5701 134.352 72.2162 133.559 71.579C132.766 70.9419 132.256 70.1914 132.058 69.3136C131.86 68.4358 131.789 67.4447 132.03 66.4677C132.242 65.6324 132.879 64.8395 133.502 64.1882C134.267 63.5511 135.159 63.1971 136.008 63.1263C137.013 63.0697 137.849 63.282 138.797 63.6502C139.619 64.0041 140.256 64.7687 140.765 65.5333C141.261 66.4253 141.459 67.3031 141.374 68.2942L141.219 68.4216V68.4075Z" fill="#102185"/>
<path d="M147.18 50.7376C146.613 50.6952 146.047 50.6386 145.523 50.1713C144.985 49.8457 144.589 49.52 144.192 49.0669C143.81 48.5997 143.555 48.1608 143.328 47.5661C143.102 46.9715 143.144 46.4193 143.201 45.8529C143.258 45.145 143.314 44.5787 143.64 44.0407C143.966 43.5026 144.305 42.9646 144.758 42.5823C145.226 42.2 145.82 41.8177 146.401 41.7328C146.995 41.5063 147.689 41.5629 148.256 41.6053C148.822 41.6478 149.53 41.7186 150.068 42.0442C150.62 42.2283 151.144 42.7098 151.526 43.1628C151.909 43.6301 152.291 44.2247 152.376 44.8052C152.602 45.3998 152.701 45.9662 152.503 46.66C152.447 47.3679 152.39 47.9342 151.909 48.5997C151.583 49.1377 151.101 49.6616 150.648 50.0581C150.181 50.4403 149.445 50.8084 148.864 50.8934C148.27 51.1199 147.576 51.0633 146.868 51.0067L147.18 50.7518V50.7376Z" fill="#102185"/>
<path d="M79.4023 81.3201C79.3456 82.0281 79.289 82.5944 78.8076 83.2598C78.4819 83.7979 78.0005 84.3217 77.5333 84.8598C77.0661 85.2421 76.4714 85.6243 75.7352 85.8367C74.9989 86.0491 74.4326 86.1482 73.7246 86.0916C73.0167 86.0349 72.4503 85.9783 71.9123 85.6526C71.3743 85.327 70.8363 84.9871 70.454 84.5341C70.0717 84.0668 69.6894 83.4722 69.6045 82.8917C69.3779 82.2971 69.4346 81.6033 69.477 81.0369C69.5337 80.329 69.5903 79.7627 69.9301 79.083C70.2558 78.545 70.5956 78.007 71.2044 77.4831C71.6716 77.1008 72.2663 76.7186 73.0025 76.5062C73.5972 76.2796 74.3051 76.1947 75.0131 76.2513C76.2873 76.3646 77.505 77.0442 78.2554 78.1061C79.0058 79.168 79.4872 80.3431 79.5155 81.6316L79.4023 81.3342V81.3201Z" fill="#102185"/>
<path d="M61.2363 61.5405C58.5744 61.0308 56.7197 59.5866 56.9745 56.6133C57.017 56.047 57.0878 55.339 57.2719 54.7868C57.4559 54.2346 57.9373 53.7108 58.3904 53.3285C58.8576 52.9462 59.4523 52.564 60.0328 52.479C60.6275 52.2525 61.1796 52.2949 61.8876 52.3516C62.4539 52.394 63.1618 52.4649 63.714 52.6489C64.2662 52.833 64.7901 53.3143 65.1724 53.7674C65.5547 54.2346 65.937 54.8293 66.0219 55.4098C66.2485 56.0044 66.206 56.5566 66.1493 57.2645C65.8945 60.2237 64.068 61.4839 61.2221 61.6679V61.5263L61.2363 61.5405Z" fill="#102185"/>
<path d="M224.387 58.4965C224.33 59.2044 224.274 59.7707 223.806 60.2946C223.339 60.8185 223.141 61.3707 222.546 61.753C222.079 62.1353 221.484 62.5175 220.904 62.6025C220.309 62.829 219.615 62.7724 219.049 62.7299C218.483 62.6875 217.775 62.6167 217.237 62.291C216.699 61.9654 216.161 61.6255 215.778 61.1724C215.396 60.7052 215.014 60.1106 214.929 59.5301C214.702 58.9354 214.745 58.3832 214.801 57.6753C214.844 57.109 214.915 56.401 215.24 55.863C215.566 55.3249 215.906 54.787 216.359 54.4047C216.826 54.0224 217.421 53.6401 218.016 53.4136C218.61 53.187 219.177 53.0879 219.884 53.1445C220.451 53.187 221.159 53.2578 221.697 53.5834C222.235 53.9091 222.773 54.2489 223.155 54.7019C223.537 55.1692 223.92 55.7639 224.146 56.3586C224.373 56.9532 224.472 57.5196 224.415 58.2275L224.387 58.5106V58.4965Z" fill="#102185"/>
<path d="M230.432 83.4719C229.909 86.2612 228.337 87.9744 225.505 87.8753L223.665 87.7195C223.112 87.5354 222.574 87.1956 222.192 86.7425C221.81 86.2753 221.413 85.8222 221.187 85.2276C220.96 84.6329 220.861 84.0666 220.918 83.5003C220.975 82.7923 221.031 82.2259 221.357 81.6879C221.541 81.1357 222.022 80.6119 222.489 80.0881C222.957 79.7058 223.551 79.3235 224.146 79.097C224.741 78.8704 225.449 78.7855 226.015 78.8279C228.974 79.0828 230.093 81.0366 230.418 83.7551L230.447 83.4719H230.432Z" fill="#102185"/>
<path d="M211.233 73.9722C211.12 75.2465 210.455 76.3225 209.393 77.087C208.472 77.8657 207.17 78.1773 206.037 78.0781C205.329 78.0215 204.763 77.9649 204.225 77.6392C203.687 77.3136 203.149 76.9737 202.766 76.3791C202.384 75.9119 202.143 75.3314 201.931 74.5952C201.719 73.8589 201.761 73.3068 201.804 72.7404C201.846 72.1741 202.059 71.4802 202.37 71.0838C202.696 70.5458 203.021 70.1493 203.616 69.7671C204.083 69.3848 204.664 69.1441 205.244 69.0591C205.825 68.9742 206.533 68.8892 207.085 69.0733C209.902 69.314 211.29 71.2962 211.177 74.2695L211.205 73.9863L211.233 73.9722Z" fill="#102185"/>
</svg>
