<svg xmlns="http://www.w3.org/2000/svg" width="285" height="228" fill="none" viewBox="0 0 285 228"><path fill="#102185" d="M176.077 72.881c-1.062 12.134-4.162 23.235-12.219 32.466-.821 1.203-1.373 2.718-1.373 4.29-.821 9.444-1.373 18.93-2.067 28.388-.666 7.617-2.067 9.061-9.755 9.09-6.117.028-12.361-.085-18.477-.057-5.678-.071-7.646-1.954-7.717-7.645-.042-9.246-.227-18.492 0-27.709.297-3.384-.977-6.768-3.157-9.373-13.041-16.636-14.003-41.3-1.855-60.004 7.561-11.71 16.212-22.739 24.593-34.094 3.399-4.672 7.774-4.431 11.058.255 11.341 16.48 19.922 33.867 20.969 54.284.128 3.426-.042 6.966.099 10.237l-.127-.156zM149.02 18.342c-.934.907-1.883 1.968-2.817 3.016-6.485 9.104-13.38 18.01-19.044 27.61-7.858 13.52-8.679 27.665-1.543 41.937 2.902 5.791 6.57 9.387 13.451 8.708 1.982.028 3.837.056 5.776.51 10.733.792 12.531-.326 16.807-10.18a51 51 0 0 0 2.279-6.485c3.101-12.658 2.549-25.925-1.614-38.37a92.1 92.1 0 0 0-13.451-26.618zm.977 118.621 2.11-24.112c.056-.708-.821-2.067-1.374-2.11-5.21-.594-10.576-.92-16.225-1.415.028 9.387 0 17.769.141 26.023.099.439.354.878.75 1.204.397.325.666.481 1.218.679 4.403.099 8.821-.085 13.352.028l.028-.283zM100.612 67.969c-1.076 12.275-4.177 23.376-12.092 32.621-.821 1.204-1.373 2.719-1.5 4.135-.822 9.443-1.374 18.93-2.068 28.387-.68 7.759-2.237 9.331-10.038 9.218-6.103-.114-12.375.056-18.477-.057-5.522-.198-7.49-2.081-7.59-7.49-.028-9.387-.198-18.774.043-28.133.283-3.242-.991-6.485-3.186-9.09-12.926-16.339-14.144-41.314-2.477-59.338 7.73-11.978 16.537-23.277 24.933-34.774 3.398-4.672 7.929-4.559 11.072.113 11.2 16.481 19.921 33.868 21.111 54.299.113 3.568.085 7.107.113 10.095h.142zM73.668 13.74c-.92.78-1.855 1.685-2.79 2.606-6.498 9.231-13.663 18.137-19.213 27.878-8.552 14.88-8.906 30.2.297 45.222 1.983 3.3 4.659 5.24 8.779 5.31 3.851-.085 7.66.24 11.596.736 6.159 1.105 9.543-1.869 12.261-6.881 5.097-9.5 6.273-19.638 5.777-30.2-.821-16.566-7.518-30.937-16.537-44.798l-.156.127zm-14.782 90.8c.014 6.258-.028 11.652.085 16.919-.014 3.412-1.133 8.141.68 10.01 1.826 1.869 6.484.567 9.868.864.85.071 1.968.311 2.704-.043 1.034-.481 2.55-1.486 2.634-2.463.637-7.193 1.246-14.244 1.742-21.451.042-.566-.34-1.019-.723-1.486s-.778-.779-1.33-.963c-4.914-.708-9.996-1.019-15.646-1.515v.142zM249.646 79.89c-1.118 12.7-4.205 23.645-12.247 32.749-.821 1.204-1.204 2.45-1.19 3.88-.821 9.443-1.515 18.915-2.194 28.373-.552 7.915-2.096 9.345-9.911 9.359-6.117.029-12.361-.085-18.477-.056-5.395-.043-7.49-2.082-7.603-7.349-.142-9.812-.142-19.482-.142-29.294.241-2.676-.807-5.324-2.492-7.32-13.776-16.41-14.753-42.504-1.996-61.576 7.376-11.157 15.546-21.662 23.461-32.48 4.332-5.734 8.424-5.365 12.459.525 10.931 16.31 19.369 33.669 20.318 53.66.113 3.569-.057 7.108.014 9.53M222.73 25.366c-1.09 1.047-2.038 2.237-2.987 3.284-5.833 8.156-11.667 16.325-17.359 24.495-6.498 9.231-9.273 19.935-7.39 30.766 2.449 14.145 5.182 23.617 22.554 23.291 11.964-.226 13.678-.368 18.223-11.624.722-1.784 1.444-3.568 1.911-5.522 5.494-23.829-1.911-44.656-15.065-64.846l.128.155zm.977 118.762a18816 18816 0 0 1 2.11-24.112c.042-.425-.34-1.02-.595-1.331-.255-.312-.793-.637-1.203-.821-5.069-.581-10.152-.892-15.801-1.388.042 9.246.014 17.628.283 26.038.099.439.354.878.75 1.203.255.312.666.482 1.218.68 4.403.099 8.807.056 13.507-.099zM132.313 200.932a6958 6958 0 0 0-.694 17.698c-.283 4.814-2.478 7.178-7.164 7.192-13.649.085-27.44.156-41.23.086-5.82-.085-7.646-1.954-7.717-7.646-.099-11.808-.34-23.617-.17-35.411.128-3.115 1.09-6.017 2.747-8.566 5.89-8.863 12.19-17.415 18.491-26.094 3.554-4.941 7.717-5.295 11.709-.68 7.25 8.17 14.641 16.212 21.423 24.764a18.43 18.43 0 0 1 3.072 10.364c.028 6.116-.935 12.29-1.458 18.349l.849.071.156-.127zm-9.458-17.019c-12.262.496-23.957.892-35.666 1.572-.708-.057-1.84 1.543-1.756 2.265-.042 8.523.085 16.92.34 25.33-.07.849 1.26 1.812 1.897 2.718.78-.778 1.841-1.543 2.21-2.506 1.019-3.469 1.458-6.98 2.619-10.435 1.911-5.663 5.706-8.311 10.378-8.183 2.704-.043 5.182.877 7.32 2.492s3.639 3.865 4.403 6.498c.991 3.214 1.275 6.513 2.138 9.713.227.595.623 1.048 1.161 1.388.538.325 1.076.665 1.628.849.425.043 1.954-1.246 2.025-1.954.566-9.755.85-19.397 1.331-29.733zm-7.235-9.883-12.389-17.57-13.125 18.462zm-8.637 41.881-2.747-10.76-1.855.127c-.849 3.2-1.713 6.528-2.59 10.152l7.333.637-.127-.156zM207.538 211.792c-.099 2.69-.043 5.394-.283 8.07-.397 4.517-2.421 6.612-6.839 6.655-14.074.042-28.289.085-42.348-.014-4.687.014-6.641-2.138-6.782-6.995-.213-12.247-.425-24.338-.213-36.543.269-3.101 1.374-5.989 3.158-8.538 5.861-8.58 12.006-17.004 18.151-25.414 3.879-5.352 7.872-5.565 12.261-.496 6.981 7.858 13.819 15.844 20.799 23.716 1.161 1.387 2.167 2.888 2.719 4.644.552 1.755.835 3.483.665 5.323-.439 9.911-.736 19.695-1.175 29.606h-.141zm-8.977-27.227c-12.261.495-23.956.892-35.51 1.43-.453.241-.892.495-1.217.892-.326.396-.51.949-.694 1.359-.043 8.524.085 16.92.326 25.472-.085.991 1.118 1.798 1.741 2.845.793-.92 2.138-1.656 2.365-2.633 1.005-3.327 1.458-6.839 2.576-10.01 2.054-5.65 6.004-8.566 10.69-8.439 2.69.099 5.31 1.034 7.434 2.789a12.6 12.6 0 0 1 4.233 6.768c.864 3.059 1.147 6.358 2.025 9.416.24.453.637.906 1.033 1.232.397.325.949.509 1.501.693.581-.085 1.02-.339 1.487-.722s.637-.793.835-1.345a1196 1196 0 0 0 1.317-29.591l-.128-.156zm-19.638-27.44-13.281 18.591 25.67-1.02zm3.328 59.41c-.921-4.063-.298-7.985-4.262-11.454-1.076 4.162-1.94 7.504-2.832 11.27l7.094.198zM284.561 202.192l-1.586 18.052c-.439 5.083-2.478 7.179-7.589 7.15-13.776-.07-27.425.001-41.216-.056-4.97 0-7.079-1.897-7.065-7.009-.212-12.247-.425-24.338-.212-36.543.269-3.101 1.373-5.989 3.157-8.538 5.876-8.721 12.176-17.273 18.307-25.683 3.554-4.942 7.844-5.14 11.837-.524 6.98 7.999 13.932 16.141 21.068 24.013 1.302 1.387 2.152 3.03 2.846 4.8.552 1.755.821 3.624.665 5.465-.255 6.229-.538 12.601-.793 18.831l.85.071-.283-.029zm-10.251-15.957c-.524-.467-.651-.622-.651-.622-11.54.269-23.079.537-34.491 1.104-.708-.057-2.152 1.798-2.095 2.803-.142 8.085.014 16.056.155 24.169.043 1.147 1.218 2.379 1.954 3.582.949-1.048 1.898-2.251 2.45-3.625.948-2.76 1.217-5.72 2.18-8.622 2.096-6.074 6.074-9.274 11.016-8.991 5.805.227 10.052 3.724 11.794 9.84.977 3.498 1.642 7.25 2.336 10.718 2.506.652 4.46.963 4.63-2.576.255-9.359.637-18.704 1.019-27.907l-.297.113zm-19.539-28.43c-4.545 6.428-8.58 11.893-13.267 18.449l26.081-.836zm-3.964 59.763c3.03-.58 5.295-.382 6.654-1.401s-.991-8.184-3.681-9.841c-.878 3.483-1.727 6.669-2.973 11.257zM57.13 199.19c-.24 5.947-.34 12.049-.736 18.123-.283 4.814-2.463 7.037-7.291 7.037-13.933.057-28.006.099-41.924-.113-4.545.028-6.64-2.011-6.81-6.57-.199-12.389-.525-24.919-.284-37.265.27-3.101 1.515-5.975 3.3-8.382 5.72-8.453 11.836-16.736 17.84-25.16 3.878-5.352 7.871-5.564 12.26-.495 7.122 8.013 14.088 16.013 21.069 24.013 1.16 1.387 2.152 3.03 2.704 4.785s.68 3.611.524 5.451c-.255 6.089-.51 12.318-.765 18.406l.128.156zm-9.33-16.735c-12.261.495-23.942.75-35.51 1.43-.708-.057-1.996 1.671-1.94 2.676-.028 8.382.1 16.636.227 25.032-.085.991 1.104 1.94 1.741 2.846.793-.92 2.138-1.656 2.506-2.619 1.006-3.328 1.459-6.839 2.577-10.01 1.912-5.664 6.003-8.566 10.69-8.439 2.69.099 5.168 1.02 7.306 2.634s3.625 4.007 4.262 6.484c.863 3.059 1.147 6.358 2.024 9.416.34 1.019 1.7 1.713 2.478 2.492.793-.921 2.28-1.643 2.365-2.634.693-9.599.962-19.1 1.43-29.294h-.142zM28.19 154.86l-13.125 18.463 26.222-.836zm1.119 48.847-2.11-.184c-.864 3.341-1.727 6.81-2.79 10.704l7.264-.213a366 366 0 0 1-2.35-10.434v.141z"/><path fill="#102185" d="M148.326 91.062c-1.274-.113-2.336-.92-3.101-1.982-.764-1.062-1.09-2.223-.977-3.497s.779-2.35 1.714-3.257c.92-.779 2.237-1.232 3.511-1.118.708.056 1.26.255 1.94.594.538.326 1.062.807 1.458 1.26.382.468.75 1.204.835 1.784.227.737.17 1.289.114 1.997a4.3 4.3 0 0 1-.581 1.798c-.326.538-.807 1.062-1.26 1.458-.467.382-1.048.623-1.642.85-.581.085-1.289.17-1.855.127h-.142zM141.219 68.408c-.043.566-.114 1.274-.439 1.812-.326.538-.666 1.076-1.119 1.458-.467.382-1.062.765-1.642.85-.595.226-1.289.17-1.855.127-.991-.085-1.812-.439-2.605-1.076s-1.303-1.388-1.501-2.265-.269-1.87-.028-2.846c.212-.836.849-1.629 1.472-2.28.765-.637 1.657-.99 2.506-1.062 1.005-.056 1.841.156 2.789.524.822.354 1.459 1.119 1.968 1.883.496.892.694 1.77.609 2.761l-.155.128zM147.18 50.738c-.567-.043-1.133-.1-1.657-.567a5.3 5.3 0 0 1-1.331-1.104 5.1 5.1 0 0 1-.864-1.5c-.226-.596-.184-1.148-.127-1.714.057-.708.113-1.274.439-1.812s.665-1.076 1.118-1.459c.468-.382 1.062-.764 1.643-.85.594-.226 1.288-.17 1.855-.127.566.043 1.274.114 1.812.44.552.183 1.076.665 1.458 1.118.383.467.765 1.062.85 1.642.226.595.325 1.161.127 1.855-.056.708-.113 1.274-.594 1.94-.326.538-.808 1.062-1.261 1.458-.467.382-1.203.75-1.784.835-.594.227-1.288.17-1.996.114l.312-.255zM79.402 81.32c-.056.708-.113 1.274-.594 1.94-.326.538-.808 1.062-1.275 1.6-.467.382-1.062.764-1.798.977s-1.302.311-2.01.255c-.708-.057-1.275-.114-1.813-.44-.538-.325-1.076-.665-1.458-1.118-.382-.467-.765-1.062-.85-1.642-.226-.595-.17-1.289-.127-1.855.057-.708.113-1.274.453-1.954.326-.538.666-1.076 1.274-1.6.468-.382 1.062-.764 1.799-.977.594-.226 1.302-.311 2.01-.255a4.5 4.5 0 0 1 3.242 1.855c.75 1.062 1.232 2.237 1.26 3.526l-.113-.298zM61.236 61.54c-2.662-.51-4.516-1.953-4.261-4.927.042-.566.113-1.274.297-1.826s.665-1.076 1.118-1.459c.468-.382 1.062-.764 1.643-.849.594-.227 1.147-.184 1.855-.127.566.042 1.274.113 1.826.297s1.076.665 1.458 1.118c.383.468.765 1.062.85 1.643.227.594.184 1.147.127 1.855-.255 2.959-2.081 4.219-4.927 4.403v-.142zM224.387 58.497c-.057.707-.113 1.274-.581 1.798-.467.523-.665 1.076-1.26 1.458-.467.382-1.062.764-1.642.85-.595.226-1.289.17-1.855.127-.566-.042-1.274-.113-1.812-.439s-1.076-.665-1.459-1.119c-.382-.467-.764-1.061-.849-1.642-.227-.595-.184-1.147-.128-1.855.043-.566.114-1.274.439-1.812.326-.538.666-1.076 1.119-1.458.467-.383 1.062-.765 1.657-.991a4.06 4.06 0 0 1 1.868-.27c.567.043 1.275.114 1.813.44.538.325 1.076.665 1.458 1.118.382.467.765 1.062.991 1.657a4.05 4.05 0 0 1 .269 1.868l-.028.284zM230.432 83.472c-.523 2.79-2.095 4.502-4.927 4.403l-1.84-.156a3.33 3.33 0 0 1-1.473-.976c-.382-.468-.779-.92-1.005-1.515-.227-.595-.326-1.161-.269-1.728.057-.708.113-1.274.439-1.812.184-.552.665-1.076 1.132-1.6.468-.382 1.062-.764 1.657-.991a4.6 4.6 0 0 1 1.869-.27c2.959.256 4.078 2.21 4.403 4.928l.029-.283zM211.233 73.972c-.113 1.275-.778 2.35-1.84 3.115-.921.779-2.223 1.09-3.356.991-.708-.056-1.274-.113-1.812-.439-.538-.325-1.076-.665-1.459-1.26-.382-.467-.623-1.048-.835-1.784s-.17-1.288-.127-1.855c.042-.566.255-1.26.566-1.656.326-.538.651-.935 1.246-1.317a3.37 3.37 0 0 1 1.628-.708c.581-.085 1.289-.17 1.841.014 2.817.241 4.205 2.223 4.092 5.197l.028-.284z"/></svg>