<svg xmlns="http://www.w3.org/2000/svg" width="238" height="226" fill="none" viewBox="0 0 238 226"><path fill="#102185" d="M153.507 12.652c-1.699-.708-3.115-1.274-4.389-1.84-3.115-1.416-4.248-3.823-3.54-6.513s3.54-4.248 6.796-3.257c6.938 2.265 13.876 4.814 20.672 7.504.566.142 1.274.567 1.699.991s.849.991 1.133 1.558c.283.566.425 1.274.566 1.84 0 .708 0 1.275-.283 1.983-.85 2.548-3.115 3.823-6.23 3.256-2.124-.566-4.389-1.133-6.371-1.84-4.814 10.902-9.203 21.945-14.017 33.272 13.167 5.522 24.352 14.867 31.998 26.901l17.557-7.928c-.283-1.133-.708-2.266-.991-3.54-.708-3.115.425-5.805 2.973-6.655.566-.283 1.274-.283 1.982-.283s1.275.142 1.983.425c.566.283 1.132.708 1.699 1.133.424.566.849 1.133.991 1.699 2.548 5.805 4.814 11.61 6.938 17.556.283.708.424 1.416.566 2.124 0 .708 0 1.416-.425 2.124a5.1 5.1 0 0 1-1.133 1.699c-.566.566-1.132.85-1.84 1.133-2.549.99-5.098-.142-6.655-3.115-.85-1.416-1.416-2.974-2.265-4.672l-16.566 7.645c5.664 14.017 6.23 29.592 1.841 44.175l37.803 12.035c.708-1.982 1.274-3.54 1.841-4.956 1.274-3.115 3.965-4.672 6.655-3.822s4.247 3.964 3.114 7.362c-1.982 6.371-4.247 12.601-6.371 18.972-.283.85-.708 1.699-1.133 2.407-.708.85-1.557 1.558-2.548 1.841s-2.124.283-3.257 0c-.991-.283-1.84-.85-2.407-1.841a4.27 4.27 0 0 1-.708-2.973c.283-2.407.708-4.672 1.275-7.079-12.318-4.248-25.061-8.07-38.229-12.318-4.672 9.061-11.185 17.132-19.256 23.362s-17.415 10.618-27.467 12.884c2.407 11.61 4.955 23.078 7.362 34.971 2.124-.283 4.106-.707 6.089-.849a17.3 17.3 0 0 1 3.822 0c.991.142 1.841.566 2.549 1.416s1.132 1.699 1.132 2.549c.142.991 0 1.982-.283 2.831-.424.85-1.132 1.558-1.982 2.124-1.274.708-2.548 1.274-3.964 1.557-7.221 1.558-14.584 3.115-21.946 4.531-1.133.283-2.265.283-3.398.142-1.133 0-2.124-.708-2.832-1.416-.849-.85-1.274-1.841-1.416-2.974-.141-1.132 0-2.265.708-3.114q.85-1.487 2.548-2.124c1.699-.566 3.399-.991 5.239-1.416 1.133-.283 2.266-.425 3.54-.849-2.548-12.035-5.097-23.787-7.646-35.68-18.406.566-34.83-4.248-49.272-16.141l-28.034 28.883c1.84 1.7 3.823 3.257 5.38 5.098 1.133 1.132 1.983 2.548 2.549 4.106.283.991.283 1.982 0 2.831-.283.85-.991 1.699-1.84 2.124-1.7 1.274-3.116.708-4.532-.424-3.398-2.549-6.937-4.814-10.194-7.505-3.54-2.831-6.655-5.946-10.053-9.061a6.7 6.7 0 0 1-1.415-1.416c-1.983-2.407-2.124-5.38-.284-7.363a4.52 4.52 0 0 1 3.399-1.557c1.274 0 2.548.283 3.68 1.133 1.841 1.274 3.54 2.973 5.664 4.814l28.034-29.308a67.54 67.54 0 0 1-15.574-44.883l-42.76-7.929c-.424.991-.849 1.841-1.132 2.832s-.425 1.982-.708 2.973c-.283 1.132-1.133 2.265-2.265 2.831-1.133.708-2.266.85-3.54.567s-2.407-.991-3.115-1.982-1.132-2.407-.99-3.681C1.3 97.179 2.575 89.817 4.132 82.596c.142-.708.425-1.275.85-1.84a5.05 5.05 0 0 1 1.557-1.417c.567-.283 1.274-.566 1.84-.708h1.983c1.274.425 2.265 1.275 2.973 2.266a5.7 5.7 0 0 1 .85 3.68c-.142 1.7-.567 3.54-.85 5.664l42.618 7.646C59.635 81.463 69.12 66.88 82.855 57.11a4941 4941 0 0 0-16.282-41.06c-1.7.708-3.115 1.416-4.53 1.982-3.257 1.133-6.09 0-7.222-2.548s0-5.522 3.115-6.938C63.883 5.715 69.97 3.166 75.918.617c.708-.283 1.415-.424 2.265-.566 1.132-.141 2.265 0 3.115.566a5 5 0 0 1 2.123 2.408c.425.99.567 2.123.284 3.256s-.991 1.982-1.84 2.69c-1.7 1.133-3.54 2.265-5.381 3.115L92.058 51.73c15.15-7.362 30.866-8.778 47.432-5.805a5857 5857 0 0 0 14.017-33.697zM96.306 62.207a307 307 0 0 1 3.115 8.07c1.416 3.54 2.973 7.08 3.964 10.761.425 1.275.284 2.549-.283 3.823-.566 1.133-1.557 1.982-2.831 2.407-1.133.425-2.407.283-3.54 0a4.97 4.97 0 0 1-2.69-2.407c-.567-1.133-1.133-2.265-1.558-3.54-1.84-4.389-3.54-8.778-5.38-13.167-9.77 6.23-20.53 23.786-19.822 32.14.566.142 1.132.425 1.699.566 4.247.708 8.353 1.416 12.46 2.266 3.398.849 5.238 3.256 4.672 6.088s-3.257 4.672-6.796 4.248c-1.983-.284-4.106-.709-6.089-.992-2.548-.425-4.955-.849-7.362-1.132-2.549 8.212 5.522 30.582 12.601 34.83 1.274-1.275 2.549-2.832 3.823-4.106 2.549-2.69 5.097-5.381 7.787-7.929s5.664-2.832 7.929-.566 1.982 5.238-.566 7.928c-2.407 2.69-5.38 5.522-8.07 8.354-1.275 1.416-2.55 2.69-3.824 4.106 8.07 9.061 31.291 15.999 39.22 12.601-.566-2.548-1.133-5.238-1.699-7.787-.708-3.398-1.558-6.796-1.982-10.194 0-1.275.141-2.407.991-3.54.708-.991 1.84-1.699 2.973-1.982s2.407 0 3.54.566 1.84 1.558 2.265 2.69c.283.708.566 1.416.708 2.124.566 2.832 1.133 5.522 1.699 8.354s1.416 5.805 2.124 9.203c16.99-4.389 29.733-13.593 38.512-29.025-1.7-.567-2.974-1.133-4.248-1.558-6.655-2.123-13.309-4.106-19.822-6.371-1.841-.566-3.54-1.274-5.239-2.265-.849-.567-1.557-1.416-1.841-2.407a5.8 5.8 0 0 1 0-3.115q.426-1.487 1.699-2.549c.85-.566 1.841-.991 2.974-.991 1.557 0 3.115.283 4.531.849 6.654 2.124 13.167 4.248 19.822 6.372 1.982.708 4.106 1.133 6.513 1.841 3.398-12.46 3.256-24.212-1.699-36.105-.992.425-1.558.567-2.124.85l-34.264 15.857c-4.956 2.266-9.769 4.531-14.725 6.655-1.133.425-2.549.566-3.681 0-1.275-.425-2.266-1.275-2.832-2.549-.566-1.133-.708-2.548-.283-3.681.425-1.274 1.132-2.265 2.265-2.973a43 43 0 0 1 5.097-2.549 5742 5742 0 0 1 42.759-19.68c.85-.425 1.699-.85 2.549-1.416-3.965-8.354-17.982-19.539-25.911-20.955-.283.566-.707 1.274-.991 1.982l-7.221 17.415c-.566 1.416-1.274 2.832-1.982 4.106-.566 1.133-1.557 1.84-2.831 2.266-1.133.424-2.407.283-3.54 0a5.56 5.56 0 0 1-2.549-2.549c-.566-1.133-.566-2.407-.283-3.54.425-1.415.85-2.69 1.416-3.964 2.265-5.522 4.531-10.902 6.796-16.424.283-.99.566-1.84.85-2.832-13.734-3.398-31.008.425-38.795 5.806z"/><path fill="#102185" d="M128.163 120.966c2.973 0 5.238 2.407 5.238 5.805 0 .708 0 1.416-.283 2.124s-.566 1.274-.991 1.84q-.637.85-1.699 1.274c-.708.284-1.274.567-1.982.567-2.974 0-5.239-2.407-5.239-5.805 0-.708 0-1.416.283-1.982.142-.708.566-1.275.991-1.841q.638-.85 1.699-1.274c.567-.284 1.275-.425 1.983-.567zM156.621 76.507c0 .708 0 1.274-.283 1.982-.283.567-.566 1.275-.991 1.7-.425.566-.991.849-1.557 1.132-.567.283-1.275.425-1.983.425-1.416 0-2.69-.566-3.681-1.557s-1.557-2.266-1.699-3.682c0-.708 0-1.416.283-2.123.284-.708.566-1.275 1.133-1.841.425-.567 1.133-.991 1.699-1.133.708-.283 1.416-.425 2.124-.283.708 0 1.416.142 1.982.425a5.1 5.1 0 0 1 1.699 1.133c.425.566.85 1.132 1.133 1.699.283.707.424 1.415.283 1.982zM149.259 150.132c-.708 0-1.416.001-2.124-.283-.708-.283-1.274-.566-1.84-1.132-.566-.425-.991-1.133-1.274-1.699a5.7 5.7 0 0 1-.425-2.124q0-1.062.425-2.124t1.274-1.699c.566-.425 1.132-.849 1.84-1.133.708-.283 1.416-.283 2.124-.283s1.275 0 1.983.283c.708.284 1.274.567 1.699.991a5.1 5.1 0 0 1 1.132 1.699c.283.567.425 1.275.283 1.983 0 .708 0 1.416-.283 2.124s-.566 1.274-1.132 1.699c-.425.566-1.133.99-1.699 1.274-.567.283-1.275.424-1.983.424M118.11 69.145c0 .708 0 1.416-.283 2.124s-.566 1.274-.991 1.84q-.637.85-1.699 1.275c-.566.283-1.274.425-1.982.425s-1.416 0-1.982-.425c-.567-.283-1.275-.708-1.699-1.133-.425-.566-.85-1.133-1.133-1.699-.283-.708-.283-1.274-.283-1.982 0-1.416.425-2.69 1.416-3.681s2.265-1.558 3.539-1.558c.708 0 1.416 0 1.982.284.567.283 1.275.566 1.699 1.132.425.425.85 1.133 1.133 1.7.283.566.283 1.273.283 1.981zM114.995 148.433c0 .708 0 1.274-.425 1.841-.283.566-.566 1.132-1.132 1.557-.425.425-.991.849-1.558.991-.566.283-1.274.284-1.84.284-1.416 0-2.69-.567-3.54-1.558-.991-.991-1.416-2.266-1.416-3.681 0-1.275.567-2.549 1.558-3.398s2.124-1.416 3.398-1.416c1.416 0 2.69.708 3.539 1.699.992.991 1.416 2.265 1.416 3.681M173.613 109.639c0 1.274-.566 2.549-1.416 3.398-.849.991-2.124 1.416-3.398 1.416-.708 0-1.274 0-1.982-.425-.567-.283-1.133-.708-1.699-1.132-.425-.567-.85-1.133-.992-1.699-.141-.567-.283-1.275-.283-1.982 0-1.275.708-2.549 1.699-3.399.991-.849 2.266-1.416 3.54-1.416s2.549.708 3.398 1.558c.85.991 1.416 2.265 1.274 3.54zM100.129 110.488c-1.275 0-2.549-.424-3.54-1.274-.991-.849-1.557-2.124-1.699-3.398 0-.708 0-1.274.283-1.982.283-.567.566-1.133.991-1.699.425-.425.992-.85 1.7-1.133.566-.283 1.274-.425 1.982-.425 1.274 0 2.548.567 3.397 1.416.85.85 1.417 2.124 1.558 3.398 0 1.274-.425 2.549-1.416 3.398-.849.85-2.123 1.416-3.398 1.558zM81.723 85.286c.99 0 1.84.283 2.69.708.85.566 1.416 1.274 1.84 2.124s.567 1.84.425 2.831a4.4 4.4 0 0 1-1.274 2.549c-.708.708-1.557 1.133-2.407 1.416-.991.283-1.982.141-2.832-.142s-1.699-.99-2.265-1.699c-.567-.85-.85-1.699-.85-2.69 0-.566 0-1.274.284-1.84.283-.567.566-1.133.99-1.558s.992-.85 1.558-1.133a4.4 4.4 0 0 1 1.84-.424z"/></svg>