<svg xmlns="http://www.w3.org/2000/svg" width="300" height="300" fill="none" viewBox="0 0 300 300"><path fill="#3558a2" d="M227.986 169.962a61 61 0 0 1-25.63 5.79c.35 1.08.59 2 1 2.83 3.56 8.53 7.06 17.09 10.78 25.56a10.8 10.8 0 0 1-.09 9.15c-2 4.74-4.71 8.74-9.36 11.26a13.4 13.4 0 0 1-6.17 1.85q-25.74.54-51.47 1.13l-75.23 1.71c-2.09.05-4.17.21-6.26.29-3.16.11-6.35.5-9.41-.75a3 3 0 0 0-1.07-.17 17.45 17.45 0 0 1-9.45-2.83c-3.6-2.28-7.44-4.13-10.63-7-1.65-1.5-2.4-3.22-1.78-5.34 1.19-4.08 2.4-8.17 3.79-12.19a2997 2997 0 0 1 11.7-33.32c.63-1.76.3-3.37.27-5.07-.08-5.35 0-10.71-.17-16.07q-.66-29-1.38-58c-.09-3.54-.17-7.08-.17-10.63 0-4.27 2.25-5.69 5.49-4.28a35 35 0 0 1 5.52-1.08c19.06-.46 38.13-.83 57.2-1.24l46.57-1 25.6-.54c.91 0 1.83-.05 2.73 0a3.67 3.67 0 0 1 3.65 3.07c.195.792.296 1.605.3 2.42.18 6.26.36 12.52.49 18.79.24 12.34.42 24.69.7 37q.33 14.56.87 29.12a12.6 12.6 0 0 0 .92 3.89c.83 2.17 1.85 4.26 2.63 6.05 2.1-.49 3.78-1.05 5.51-1.27 7.07-.9 13.93-2.5 20.3-5.82.8-.41 1.59-.85 2.36-1.26.24-3.47.4-6.82.72-10.15a27 27 0 0 1 3.64-11.87c3.55-5.72 8.72-8.63 15.47-8.35s10.89 5.58 9.66 12.3a19.16 19.16 0 0 1-5.31 9.64 59.7 59.7 0 0 1-13.81 10.55c-2.09 1.21-3 2.51-2.76 4.93.33 3.77.34 7.57.48 11.13.55.29.72.45.85.43a19.1 19.1 0 0 1 12.26 2.64 11.4 11.4 0 0 1 2.64 1.85 55.4 55.4 0 0 1 9.93 13.56 42.1 42.1 0 0 1 4 12.64c1.59 9.88-6.49 17.46-15.46 17.75a17.64 17.64 0 0 1-13.83-5.82 43.4 43.4 0 0 1-9.52-14.8c-2.83-7.66-2.69-15.27 1.83-22.44a3 3 0 0 0 .62-1.7c-.44-4.66-.98-9.33-1.52-14.34m-173.31-89.85q.66 40.65 1.89 81.32l132.23-2.94c-.57-27.3-1.14-54.2-1.7-81.3zm-12.7 129.39c3.25-.14 6-.3 8.66-.37l62.6-1.68q20.28-.54 40.56-1.07 25.17-.609 50.36-1.2c.67 0 1.33-.13 2.24-.22-5.56-13.2-11-26.12-16.55-39.25l-133.88 3c-4.62 13.45-9.22 26.85-14 40.79zm3 7.14c.15.31.19.51.31.6q.64.5 1.34.91a30.3 30.3 0 0 0 14.54 3.92c13.53-.1 27-.41 40.57-.71 19.87-.45 39.74-1 59.61-1.43 11.25-.27 22.51-.45 33.76-.7 1.272.019 2.54-.136 3.77-.46 3.24-1 6-2.73 7.3-6.36zm192.48-3.93c1.49 1.85 2.9 3.73 4.44 5.49 2.7 3.07 6.17 4 10.09 3.27a7.837 7.837 0 0 0 6.69-8.51 28.16 28.16 0 0 0-4.25-12.35c-1.8.41-3.45.81-5.11 1.17-1 .21-1.39.78-1.63 1.82-.61 2.56-2.12 3.46-4.58 3-.42-.08-.84-.23-1.47-.41zm-1.64-55.55c4.33-1.9 11-7.38 13.07-10.79a12.4 12.4 0 0 0 1.35-2.94c.9-3-.12-4.39-3.17-4.41-4.3 0-7.19 2.2-8.94 6s-2.12 7.76-2.31 12.14m-1.43 33.74c-2.11 4.66-2.5 9-.85 13.6l4.8-5.2zm7.58-2.62a14.5 14.5 0 0 0 3.13 7.11l4.56-1.45c-1.62-3.28-4.98-4-7.69-5.7z"/><path fill="#fff" d="m54.678 80.112 132.41-2.87c.56 27.1 1.13 54 1.7 81.3l-132.23 2.94q-1.23-40.77-1.88-81.37m68.56 70.39v-.09q23.55-.48 47.1-1c3.08-.07 6.17-.21 9.25-.38 2.62-.15 3.94-1.44 4.23-4.06q.075-.95 0-1.9c-.28-8.25-.61-16.5-.85-24.76-.27-9.34-.45-18.69-.71-28a35 35 0 0 0-.38-4.06 3.645 3.645 0 0 0-3.33-3.1 13.3 13.3 0 0 0-2.45-.08l-103.21.19c-2 0-4-.06-6 .08-3.64.27-5.8 2.3-6.3 5.84a25 25 0 0 0-.28 4.06c.1 3.63.31 7.25.46 10.88.58 14.05 1.21 28.1 1.72 42.15.14 4 2 5.66 5.74 5.48 6.07-.29 12.16-.39 18.24-.52 12.26-.26 24.51-.48 36.76-.73zM41.967 209.503c4.78-13.94 9.38-27.34 14-40.8l133.88-3c5.53 13.13 11 26 16.55 39.25-.91.09-1.57.2-2.24.22l-50.36 1.2q-20.28.51-40.56 1.07l-62.6 1.68c-2.72.12-5.42.24-8.67.38m58.89-5.07v-.06l25.3-.9c6.26-.22 12.52-.41 18.78-.66 1.344-.08 2.68-.254 4-.52 3.56-.66 4.75-2.3 3.86-5.72-1.77-6.83-3.68-13.63-5.59-20.43a6 6 0 0 0-1.817-2.999 6 6 0 0 0-3.183-1.471 17.6 17.6 0 0 0-3.24-.24q-35.14.19-70.27.45a22.2 22.2 0 0 0-4.3.52 5.79 5.79 0 0 0-4.48 4c-2.68 7.89-5.37 15.77-7.93 23.69-1 3.05.71 5.38 3.91 5.78.72.08 1.446.1 2.17.06zm73.51-5.79v-.08c4-.14 8-.22 12-.44 3.51-.21 5.15-2.43 4.11-5.74-1.59-5.09-3.4-10.12-5.12-15.18a4.8 4.8 0 0 0-4.64-3.55c-6.62-.25-13.24-.48-19.86-.55-1.15 0-2.82.47-3.37 1.31-1.31 2-2.56 4.23-2 6.83 1 4.42 2 8.84 3.09 13.24.77 3.13 2.22 4.16 5.44 4.16z"/><path fill="#979fbb" d="m44.977 216.642 161.2-4.23c-1.34 3.63-4.061 5.34-7.301 6.36a14 14 0 0 1-3.769.46c-11.25.25-22.51.43-33.76.7-19.87.46-39.74 1-59.61 1.43-13.52.3-27 .61-40.57.71-5.1-.061-10.101-1.41-14.54-3.92a12 12 0 0 1-1.34-.91c-.12-.09-.16-.29-.31-.6M237.457 212.712l4.22-6.47c.63.18 1 .33 1.47.41 2.46.44 4-.46 4.58-3 .24-1 .61-1.61 1.63-1.82 1.66-.36 3.31-.76 5.11-1.17a28.16 28.16 0 0 1 4.25 12.35 7.84 7.84 0 0 1-6.69 8.51c-3.92.7-7.39-.2-10.09-3.27-1.58-1.81-2.99-3.69-4.48-5.54M234.387 190.902l4 8.4-4.8 5.2c-1.7-4.61-1.31-8.94.8-13.6M241.967 188.242c2.71 1.66 6.07 2.38 7.69 5.66l-4.56 1.45a14.5 14.5 0 0 1-3.13-7.11"/><path fill="#3558a2" d="M123.228 150.502c-12.25.25-24.5.47-36.75.73-6.08.13-12.17.23-18.24.52-3.69.18-5.6-1.49-5.74-5.48-.51-14-1.14-28.1-1.72-42.15-.15-3.63-.36-7.25-.46-10.88a25 25 0 0 1 .28-4.06c.5-3.54 2.66-5.57 6.3-5.84 2-.14 4-.08 6-.08l103.21-.19a13.3 13.3 0 0 1 2.45.08 3.64 3.64 0 0 1 3.33 3.1q.31 2.019.38 4.06c.26 9.34.44 18.69.71 28 .24 8.26.57 16.51.85 24.76q.076.95 0 1.9c-.29 2.62-1.61 3.91-4.23 4.06-3.08.17-6.17.31-9.25.38q-23.55.51-47.1 1zm-6.55-59.65h-49.24c.4 8.26.78 16.26 1.18 24.45l8-.36c2-5.31 4.25-8.5 9.72-11.8-.81-2.91-.45-5.53 2.48-7.21 2.29-1.32 4.74-1.62 7-.09 3 2.11 2.46 5.09 1.21 8.07a19.54 19.54 0 0 1 8.46 8.39c.219.426.525.8.9 1.098.374.299.807.514 1.27.632 2.94.08 5.89-.17 9.08-.3zm26.87 38c-.23-3.78.64-5.8 3-7.17a5.59 5.59 0 0 1 6.17.22c3 1.92 2.77 4.78 1.83 7.8a18.67 18.67 0 0 1 9.68 12.32h6.14c1.98 0 3.92-.09 6.11-.14l-.74-22.42-51.82 1.48v22h9.76c2.69-5.19 4.59-10.7 9.83-14.11zm31.36-38.29c-4.55-.55-48.83-.06-50.63.5-.49 5.2-.34 20.51.23 22.49 1.61 0 3.24-.09 4.86 0a3.18 3.18 0 0 0 3.52-2.24 16.3 16.3 0 0 1 7.79-8.07q.651-.381 1.25-.84c-1.72-4.19-1.38-6.59 1.18-8.79a7 7 0 0 1 8.79-.62c3.42 2.14 4.44 5.19 3.45 9.4 1.76 2.73 3.34 5.12 4.86 7.56.86 1.37 2 2.51 3.62 2.49 3.79 0 7.57-.26 11.7-.43-.24-7.29-.45-14.33-.66-21.47zm-106 32c.3 7.29.59 14.39.88 21.58h7.24c1.69-5.65 3.89-10.77 9.31-13.55.81-4.87 2.7-7.23 5.83-7a7.5 7.5 0 0 1 3.41 1.4c2 1.34 1.21 3.59 1.42 5.53 4.83 1.85 7.61 5.47 9.3 10.12.5 1.37 1.42 2.75 3 2.83 2.31.13 4.65-.11 7.09-.2v-22.13zm30.15 21.07a6.897 6.897 0 0 0-7-6.54c-3.63-.2-5.9 2-7.1 7.06zm57.15-1.22c-.75-3.21-4.2-6.58-7-7a3.25 3.25 0 0 0-1.883.067 3.25 3.25 0 0 0-1.527 1.103c-1.29 1.83-2.43 3.75-3.79 5.87zm-58.24-28c-2-2.76-4.07-4.39-6.89-4.4-3 0-4.83 1.94-6.22 4.88zm55.2-1.57c-.89-3-2.7-4-5.07-4a9.18 9.18 0 0 0-7.52 4zM100.857 204.434l-42.73 1.47q-1.088.06-2.17-.06c-3.2-.4-4.9-2.73-3.91-5.78 2.56-7.92 5.25-15.8 7.93-23.691a5.79 5.79 0 0 1 4.48-4 22.4 22.4 0 0 1 4.3-.52 27414 27414 0 0 1 70.27-.45c1.085-.02 2.17.06 3.24.24a6 6 0 0 1 5 4.47c1.91 6.8 3.82 13.601 5.59 20.431.89 3.42-.3 5.06-3.86 5.72-1.32.265-2.656.439-4 .52-6.26.25-12.52.44-18.78.66l-25.3.9zm10.74-13.93c-7.87.07-15.56.47-23.32.45v6.61l23.32-.92zm31.86-.45-24.1.47v5.89l25.55-1zm-62.59 1.11h-18.19c-.83 2.47-1.62 4.81-2.49 7.41l20.24-.76zm7.92-8h22.25v-2.16c0-.62-.2-1.19-.33-2l-21.91.449zm51.68-4.051h-22.24c.18 1.37.33 2.51.49 3.65h22.71zm-75.26 4.601h16v-4.101h-14.6c-.48 1.39-.93 2.63-1.4 4.12zM174.366 198.642h-10.35c-3.22 0-4.67-1-5.44-4.16-1.09-4.4-2.1-8.82-3.09-13.24-.59-2.6.66-4.84 2-6.83.55-.84 2.22-1.33 3.37-1.31 6.62.07 13.24.3 19.86.55a4.8 4.8 0 0 1 4.64 3.55c1.72 5.06 3.53 10.09 5.12 15.18 1 3.31-.6 5.53-4.11 5.74-4 .22-8 .3-12 .44zm-11.42-18.16c.93 3.91 1.72 7.22 2.47 10.39h16.72l-3.33-9.85z"/><path fill="#fff" d="M116.677 90.854v22.88c-3.19.13-6.14.38-9.08.3a3.4 3.4 0 0 1-1.271-.632 3.4 3.4 0 0 1-.899-1.098 19.53 19.53 0 0 0-8.46-8.39c1.25-3 1.82-6-1.21-8.07-2.21-1.53-4.66-1.23-7 .09-2.93 1.68-3.29 4.3-2.48 7.21-5.47 3.3-7.71 6.49-9.72 11.8l-8 .36c-.4-8.19-.78-16.19-1.18-24.45zM143.507 128.833c-5.24 3.38-7.14 8.92-9.81 14.08h-9.81v-22l51.79-1.47.74 22.42c-2.19.05-4.15.11-6.11.14s-4 0-6.14 0a18.66 18.66 0 0 0-9.68-12.32c.94-3 1.17-5.88-1.83-7.8a5.59 5.59 0 0 0-6.17-.22c-2.34 1.37-3.21 3.39-2.98 7.17"/><path fill="#eaecf1" d="M174.866 90.543c.21 7.14.42 14.18.63 21.49-4.13.17-7.91.41-11.7.43-1.64 0-2.76-1.12-3.62-2.49-1.52-2.44-3.1-4.83-4.86-7.56 1-4.21 0-7.26-3.45-9.4a7 7 0 0 0-8.79.62c-2.56 2.2-2.9 4.6-1.18 8.79q-.599.458-1.25.84a16.28 16.28 0 0 0-7.799 8.05 3.185 3.185 0 0 1-3.521 2.24c-1.62-.11-3.249 0-4.859 0-.57-2-.72-17.29-.23-22.49 1.8-.58 46.079-1.07 50.629-.52"/><path fill="#979fbb" d="m68.877 122.503 47.48-1.36v22.1c-2.44.09-4.78.33-7.09.2-1.58-.08-2.5-1.46-3-2.83-1.69-4.65-4.47-8.27-9.3-10.12-.21-1.94.53-4.19-1.42-5.53a7.5 7.5 0 0 0-3.41-1.4c-3.13-.26-5 2.1-5.83 7-5.42 2.78-7.62 7.9-9.31 13.55h-7.24c-.29-7.22-.58-14.32-.88-21.61"/><path fill="#fff" d="m99.027 143.572-14.06.52c1.2-5.07 3.47-7.26 7.1-7.06a6.903 6.903 0 0 1 6.96 6.54M156.178 142.353h-14.25c1.36-2.12 2.5-3.999 3.79-5.869a3.24 3.24 0 0 1 3.41-1.17c2.85.46 6.3 3.829 7.05 7.039M97.938 114.312l-13.11.48c1.39-2.94 3.24-4.89 6.22-4.88 2.82.01 4.94 1.64 6.89 4.4M153.137 112.743h-12.59a9.18 9.18 0 0 1 7.52-4c2.37-.03 4.18.97 5.07 4"/><path fill="#eaecf1" d="M111.597 190.502v6.14l-23.32.92v-6.61c7.76.02 15.45-.38 23.32-.45M143.457 190.053l1.45 5.32-25.55 1v-5.89zM80.867 191.162l-.41 6.65-20.24.76c.87-2.6 1.66-4.94 2.49-7.41zM88.787 183.183v-3.7l21.91-.45c.13.8.28 1.39.33 2s0 1.25 0 2.16zM140.468 179.133l1 3.65h-22.791c-.16-1.14-.309-2.28-.489-3.65zM65.207 183.733c.49-1.47.92-2.73 1.37-4.1h14.6v4.1z"/><path fill="#979fbb" d="m162.947 180.482 15.86.54 3.33 9.85h-16.72c-.74-3.17-1.54-6.48-2.47-10.39"/></svg>