<svg xmlns="http://www.w3.org/2000/svg" width="300" height="300" fill="none" viewBox="0 0 300 300"><path fill="#3558a2" d="M79.117 154.164c-4.35-3.1-8.6-6-12.74-9.1a48.9 48.9 0 0 1-15.16-18.59 22 22 0 0 1-2-12.71c.72-5.17 5.09-8.329 10.29-7.829 4.24.41 7.24 2.589 9.71 5.829 3.218 4.4 5.847 9.2 7.82 14.28 2.77 6.71 5.46 13.45 8.19 20.17.31.75.67 1.48 1.1 2.44 7.27-.89 14.51-1.64 21.92-2.81-.9-2-1.64-3.78-2.43-5.51-6.12-13.36-12.38-26.66-18.32-40.1a31.35 31.35 0 0 1-2.79-15.92 13 13 0 0 1 3.39-7.57 19.74 19.74 0 0 1 7.5-5.24c6.34-2.44 12.64-5 18.92-7.62a4.9 4.9 0 0 0 2-2.06 25.749 25.749 0 0 1 16.15-12 27.2 27.2 0 0 1 33.26 20.76 25.9 25.9 0 0 1-2.71 17.94l6.11 11.81c11.72-7.73 23.49-8.11 34.57.29 10.55 8 13.65 19 9.93 32.12 2.06-.21 4-.38 5.9-.62 3.51-.44 7-1 10.52-1.35s5 .35 6.32 3.74c5 13.22 10.16 26.42 12.45 40.48 1.38 8.46 2 17 .23 25.45a61.4 61.4 0 0 1-5.25 15.39 34.9 34.9 0 0 1-13.12 13.88 132.3 132.3 0 0 1-29.32 13.53 145 145 0 0 1-22.52 5.13c-3.13.49-6.27 1-9.37 1.69a81.7 81.7 0 0 1-14.88 1.43c-6.71.2-13.44.33-20.14.08a61.87 61.87 0 0 1-34.71-12 46.1 46.1 0 0 1-14.21-17.26 67.1 67.1 0 0 1-6.71-22c-.37-3-.61-6.14-.76-9.22-.27-6-.66-12-.59-18 .05-6.36.21-12.8 1.45-18.93m151.18-16.7c-5.76.73-11.53 1.29-17.24 2.23-5.54.93-11 2.11-16.67 2.5-4.61.32-9.21.88-13.81 1.39q-10.27 1.14-20.54 2.351c-4.85.57-9.71 1.199-14.56 1.799-5.22.66-10.43 1.33-15.65 2-5 .63-10.07 1.22-15.11 1.85l-20 2.52-10.92 1.37a16.3 16.3 0 0 0-.61 2.69c-.38 6.06-1 12.13-1 18.19 0 5.89.71 11.77.89 17.67a60.65 60.65 0 0 0 7.76 27.76 37.7 37.7 0 0 0 5.53 7.72c5.4 5.69 12.1 9.49 19.41 12.23a54.6 54.6 0 0 0 18.13 3.25c10.87.22 21.79.39 32.57-1.52 7.49-1.33 15-2.75 22.42-4.35 12.9-2.77 24.74-8.2 36-14.86a28.07 28.07 0 0 0 11.27-11.63 52.8 52.8 0 0 0 4.54-13.62c1.48-7.69.92-15.36-.33-23-2.11-13-6.87-25.15-11.38-37.4a7.5 7.5 0 0 0-.73-1.14zm-90.13-42.64a19.12 19.12 0 0 0 19.69-18.68 20.44 20.44 0 0 0-12.704-18.997 20.5 20.5 0 0 0-7.886-1.523 19 19 0 0 0-19.56 18.92c-.16 12.62 10.88 20.64 20.46 20.28m25.12 44c-.75-1.18-1.24-1.93-1.71-2.7a28.1 28.1 0 0 1-4.18-13.92 25.8 25.8 0 0 1 4-14.75 3.377 3.377 0 0 0 .12-3.94c-1.33-2.37-2.45-4.86-3.68-7.27a21 21 0 0 0-1.18-1.84c-8 6.88-17 8.73-27.5 5.67 6.35 13.86 12.45 27.16 18.63 40.66zm-33.25 3.93a59 59 0 0 0 10.09-1.16c-.55-1.33-.92-2.33-1.37-3.3l-16.09-35.07c-1.24-2.71-2.58-5.4-3.62-8.19a12 12 0 0 0-1.92-3.51 26.75 26.75 0 0 1-6.11-17.61c0-.67-.1-1.34-.16-2.24-3.73 1.56-7.26 2.85-10.67 4.45 8.71 22.91 18.96 44.72 29.85 66.65zm53.44-18.23c3.94.08 5.93.37 5.45 5.61a9.4 9.4 0 0 0 3.245-1.978 9.4 9.4 0 0 0 2.195-3.101c.86-2.09 2.56-2.931 4.28-2.441s2.72 2.26 2.32 4.6a10.63 10.63 0 0 1-3.83 6.1l-2.29 2c2.27-.46 4-1.12 5.78-1.11 3 0 4.16-1.62 4.86-4.07.07-.26.2-.51.27-.77 2.15-8.22.44-15.53-5.58-21.55s-13.43-8.13-21.73-5.71a19.835 19.835 0 0 0-14.25 21.201c.47 5.12 2.69 9.319 5.86 13.209a2.9 2.9 0 0 0 2.78 1.18 33 33 0 0 0 4-.19c1.76-.38 3.75.13 5.53-1.17l-2.9-1.7c-.9.36-1.64.71-2.42 1a3.62 3.62 0 0 1-4.51-1.449c-.9-1.5-.51-3.121 1.08-4.571.39-.36.73-.77 1.32-1.39-3.6.33-5.19-.39-5.75-2.35s.31-3.21 3.86-5.21c.17-.8.43-1.68.53-2.57a9.43 9.43 0 0 1 2.33-5.12c2.85-3.48 6.71-4.83 11-5a5.45 5.45 0 0 1 4 1.41 3 3 0 0 1 1 3.18 3.04 3.04 0 0 1-.841 1.539c-.424.42-.963.705-1.549.821-.7.14-1.45 0-2.16.17-1.73.28-3.64.1-5.15 1.92.6-.09.94-.11 1.26-.19s.87-.26 1.31-.35c2.18-.45 3.86.34 4.47 2.06a3.687 3.687 0 0 1-2.13 4.48c-.98.49-2.09.88-3.64 1.53zm-61 19.411c-1.68-3.55-3.07-6.601-4.57-9.611a646 646 0 0 1-23.34-52.66c-.25-.63-.61-1.21-1-1.9a6.86 6.86 0 0 0-3.92 6.55 37.1 37.1 0 0 0 3.36 14.46c6.19 13.81 12.53 27.55 18.82 41.32.41.9.85 1.78 1.39 2.9zm-48 .359.49-.38c-.52-1.32-1-2.64-1.56-3.94-2.38-5.68-4.64-11.42-7.24-17a56.4 56.4 0 0 0-4.87-7.83 5.4 5.4 0 0 0-4-2.54c-2.55-.25-3.57.55-3.69 3.1-.157 2.82.41 5.633 1.65 8.17a43.6 43.6 0 0 0 13 15.86c2.12 1.58 4.23 3.06 6.31 4.58z"/><path fill="#979fbb" d="M230.267 137.465q.397.51.7 1.08c4.51 12.25 9.27 24.42 11.38 37.4 1.25 7.65 1.81 15.32.33 23a52.9 52.9 0 0 1-4.54 13.62 28.08 28.08 0 0 1-11.14 11.66c-11.31 6.66-23.15 12.09-36 14.86-7.44 1.6-14.93 3-22.42 4.35-10.78 1.91-21.7 1.74-32.57 1.52a54.6 54.6 0 0 1-18.13-3.25c-7.31-2.74-14-6.54-19.41-12.23a37.7 37.7 0 0 1-5.53-7.72 60.65 60.65 0 0 1-7.76-27.76c-.18-5.9-.89-11.78-.89-17.67 0-6.06.58-12.13 1-18.19.127-.912.331-1.812.61-2.69l10.92-1.37 20-2.52c5-.63 10.08-1.22 15.11-1.85 5.22-.65 10.43-1.32 15.65-2 4.85-.6 9.71-1.23 14.56-1.8a3051 3051 0 0 1 20.54-2.35c4.6-.51 9.2-1.07 13.81-1.39 5.63-.39 11.13-1.57 16.67-2.5 5.61-.91 11.38-1.47 17.11-2.2m-109.37 45.81c3.38 3.82 7.09 8 10.83 12.23 1.26 1.42 2.6 2.77 3.87 4.19a10.06 10.06 0 0 1 2.48 5.92 27.6 27.6 0 0 1-1.26 12.34 47 47 0 0 1-2.51 5.4c-1.38 2.68-.7 5.22 1.85 6.44a8.7 8.7 0 0 0 2.07.63c5.68 1.13 11.35 2.26 17 3.34a17.926 17.926 0 0 0 14.44-3.09c.59-.42 1.14-.9 1.74-1.3 2.55-1.69 5.11-2.77 8.4-1.91 2.463.626 5.026.755 7.54.38 6.73-1 11.36-5.31 15-10.78a4.13 4.13 0 0 0-.51-5.27c-.82-1-1.8-1.78-2.69-2.7-2.27-2.34-4.65-4.62-6.06-7.62a18.2 18.2 0 0 1-.5-14.79c1.72-4.48 3.66-8.88 5.5-13.31a29 29 0 0 0 1.32-3.28c.8-2.89-.47-5-3.41-5.69a25 25 0 0 0-3.77-.43c-2.8-.23-5.61-.29-8.39-.66a24.6 24.6 0 0 1-11.14-4c-3-2.14-5.92-4.49-8.73-6.91-3.18-2.73-6.9-1.7-7.94 2.33a40 40 0 0 1-1.2 4.17c-1.9 5-4.35 9.61-9.6 11.93-.92.4-1.8.9-2.74 1.2-5.17 1.67-10.32 3.38-15.54 4.89-2.97.83-5.68 1.77-6.02 6.35z"/><path fill="#eaecf1" d="M140.167 94.825c-9.58.36-20.62-7.66-20.5-20.32a19 19 0 0 1 5.818-13.574 19.01 19.01 0 0 1 13.782-5.306 20.45 20.45 0 0 1 20.63 20.56 19.12 19.12 0 0 1-19.73 18.64m-3.43-20.23c-1.28 2.46-2.55 4.65-3.6 6.94a3.51 3.51 0 0 0 1.28 4.74 3.56 3.56 0 0 0 4.89-1.53q3.78-6.42 7.31-13a7.7 7.7 0 0 0 .78-3.38 3.46 3.46 0 0 0-3.57-3.63 7.5 7.5 0 0 0-2.66.33q-3.35 1.14-6.59 2.52a6.6 6.6 0 0 0-2.19 1.54 3.28 3.28 0 0 0-.631 3.41 3.26 3.26 0 0 0 2.791 2.06c.62.03 1.25.03 2.19.03z"/><path fill="#fff" d="m165.268 138.844-15.54 1.91c-6.18-13.5-12.28-26.8-18.63-40.66 10.46 3.06 19.45 1.21 27.5-5.67a22 22 0 0 1 1.18 1.84c1.23 2.41 2.35 4.9 3.68 7.27a3.38 3.38 0 0 1-.12 3.94 25.77 25.77 0 0 0-4 14.75 28.1 28.1 0 0 0 4.18 13.92c.53.77 1.02 1.48 1.75 2.7"/><path fill="#eaecf1" d="M132.037 142.773c-10.89-21.93-21.139-43.74-29.849-66.63 3.41-1.6 6.939-2.89 10.669-4.45.06.9.17 1.57.16 2.24a26.75 26.75 0 0 0 6.11 17.61 12 12 0 0 1 1.92 3.51c1 2.79 2.38 5.48 3.62 8.19l16.09 35.07c.45 1 .82 2 1.37 3.3a59 59 0 0 1-10.09 1.16M185.478 124.545c1.55-.65 2.66-1 3.7-1.56a3.695 3.695 0 0 0 2.13-4.48c-.61-1.72-2.29-2.511-4.47-2.061-.44.09-.87.251-1.31.351s-.66.1-1.26.19c1.51-1.82 3.42-1.641 5.15-1.921.71-.12 1.46.001 2.16-.169a3.05 3.05 0 0 0 2.39-2.36 3 3 0 0 0-1-3.18 5.42 5.42 0 0 0-4-1.411c-4.32.19-8.18 1.54-11 5a9.42 9.42 0 0 0-2.33 5.12c-.1.89-.36 1.771-.53 2.571-3.55 2-4.43 3.21-3.86 5.21s2.15 2.68 5.75 2.35c-.59.62-.93 1-1.32 1.39-1.59 1.45-2 3.07-1.08 4.57a3.625 3.625 0 0 0 4.51 1.45c.78-.24 1.52-.59 2.42-1l2.9 1.7c-1.78 1.3-3.77.79-5.53 1.17a33 33 0 0 1-4 .19 2.91 2.91 0 0 1-2.78-1.18c-3.17-3.89-5.39-8.09-5.86-13.21a19.83 19.83 0 0 1 14.25-21.201c8.3-2.42 15.67-.339 21.73 5.711s7.73 13.33 5.58 21.55c-.07.26-.2.51-.27.77-.7 2.45-1.9 4.11-4.86 4.07-1.75 0-3.51.65-5.78 1.11l2.29-2a10.63 10.63 0 0 0 3.83-6.1c.4-2.34-.48-4.08-2.32-4.6s-3.42.35-4.28 2.44a9.39 9.39 0 0 1-5.44 5.08c.42-5.19-1.57-5.48-5.51-5.56"/><path fill="#fff" d="m124.518 143.955-9.22 1.06c-.54-1.12-1-2-1.39-2.9-6.29-13.77-12.63-27.51-18.82-41.32a37.1 37.1 0 0 1-3.36-14.46 6.86 6.86 0 0 1 3.92-6.55c.35.69.71 1.27 1 1.9a658 658 0 0 0 23.34 52.66c1.46 3.01 2.85 6.06 4.53 9.61M76.566 144.314c-2.08-1.52-4.19-3-6.24-4.56a43.64 43.64 0 0 1-13-15.86 16.5 16.5 0 0 1-1.65-8.17c.12-2.55 1.14-3.35 3.69-3.1a5.37 5.37 0 0 1 4 2.54 56.3 56.3 0 0 1 4.87 7.83c2.6 5.58 4.86 11.32 7.24 17 .55 1.3 1 2.62 1.56 3.94z"/><path fill="#3558a2" d="M136.737 74.624h-2.19a3.27 3.27 0 0 1-2.791-2.06 3.27 3.27 0 0 1 .631-3.41 6.6 6.6 0 0 1 2.19-1.54q3.24-1.38 6.59-2.52a7.5 7.5 0 0 1 2.66-.33 3.46 3.46 0 0 1 3.348 2.228c.17.447.246.924.222 1.402a7.7 7.7 0 0 1-.78 3.38 366 366 0 0 1-7.31 13 3.558 3.558 0 0 1-4.89 1.53 3.51 3.51 0 0 1-1.28-4.74c1.05-2.32 2.32-4.51 3.6-6.94"/><path fill="#fff" d="M141.667 224.154a42.6 42.6 0 0 0 3.25-12.62c.55-6.9-.82-13.12-6-18.17-2.72-2.66-5.21-5.56-7.78-8.37-.48-.52-.88-1.11-1.53-1.95 2.23-.64 4.2-1.26 6.19-1.78a55.8 55.8 0 0 0 14.61-5.77 20.7 20.7 0 0 0 8.57-9.56c.92-2.07 1.87-4.12 2.8-6.18 19.21 12 15.38 9.08 30.11 11.09-.39.94-.79 1.83-1.14 2.74-1.81 4.83-4.079 9.55-5.299 14.52a23 23 0 0 0 4.769 20.93c1.67 2 3.44 3.94 5.16 5.9-3.07 5.23-8.07 7.58-14.37 6-5.32-1.32-9.73.28-13.7 3.35a14.9 14.9 0 0 1-10.359 3.26 31 31 0 0 1-4.491-.93c-3-.61-6-1.19-9-1.81a16 16 0 0 1-1.79-.65"/><path fill="#979fbb" d="M143.576 180.115a47.5 47.5 0 0 1 9.18 8 30.3 30.3 0 0 1 5.63 11.09c1.27 4.07 2.77 8.37 6.1 11.24s7.54 3.4 11.76 2.51 8.37-3.13 12.84-2.89c3.22.18 3.21-4.82 0-5-4-.21-7.79 1.26-11.58 2.39-3.21 1-6.84 1.74-9.62-.67-3-2.62-4-6.78-5.16-10.43a33.25 33.25 0 0 0-6.18-11.47 52 52 0 0 0-10.44-9.12 2.505 2.505 0 0 0-3.425.895 2.505 2.505 0 0 0 .895 3.425z"/><path fill="#979fbb" d="M174.138 169.354a67.6 67.6 0 0 1-14.13 29.07 2.55 2.55 0 0 0 0 3.529 2.5 2.5 0 0 0 3.53 0 72.6 72.6 0 0 0 15.42-31.269c.68-3.14-4.14-4.48-4.82-1.33M161.857 207.625c-1.85 3.46-5.06 5.84-7.58 8.81-3 3.49-5.08 7.79-4.08 12.45a2.497 2.497 0 0 0 3.075 1.745 2.5 2.5 0 0 0 1.745-3.075 6.88 6.88 0 0 1 .71-4.4 18.2 18.2 0 0 1 3.15-4.37c2.59-2.75 5.49-5.26 7.3-8.63a2.572 2.572 0 0 0-.9-3.42 2.517 2.517 0 0 0-3.42.89M152.798 185.923a19.85 19.85 0 0 1-16.54 6.77 2.52 2.52 0 0 0-2.5 2.5 2.55 2.55 0 0 0 2.5 2.5 24.72 24.72 0 0 0 20.08-8.24 2.55 2.55 0 0 0 0-3.53 2.53 2.53 0 0 0-3.54 0"/><path fill="#3558a2" d="M120.928 183.275c.29-4.58 3-5.52 6.08-6.4 5.22-1.51 10.37-3.22 15.54-4.89.94-.3 1.82-.8 2.74-1.2 5.25-2.32 7.7-6.92 9.6-11.93a40 40 0 0 0 1.2-4.17c1-4 4.76-5.06 7.94-2.33 2.81 2.42 5.71 4.77 8.73 6.91a24.6 24.6 0 0 0 11.14 4c2.78.37 5.59.43 8.39.66 1.265.048 2.526.191 3.77.43 2.94.68 4.21 2.8 3.41 5.69a29 29 0 0 1-1.32 3.28c-1.84 4.43-3.78 8.83-5.5 13.31a18.2 18.2 0 0 0 .5 14.79c1.41 3 3.79 5.28 6.06 7.62.89.92 1.87 1.74 2.69 2.7a4.13 4.13 0 0 1 .51 5.27c-3.63 5.47-8.26 9.75-15 10.78a19.1 19.1 0 0 1-7.54-.38c-3.29-.86-5.85.22-8.4 1.91-.6.4-1.15.88-1.74 1.3a17.94 17.94 0 0 1-14.44 3.09c-5.69-1.08-11.36-2.21-17-3.34a8.7 8.7 0 0 1-2.07-.63c-2.55-1.22-3.23-3.76-1.85-6.44a47 47 0 0 0 2.51-5.4 27.6 27.6 0 0 0 1.26-12.34 10.06 10.06 0 0 0-2.48-5.92c-1.27-1.42-2.61-2.77-3.87-4.19-3.77-4.15-7.52-8.36-10.86-12.18m20.74 40.88a15 15 0 0 0 1.74.66c3 .62 6 1.2 9 1.81 1.471.421 2.972.732 4.49.93 3.74.256 7.44-.908 10.36-3.26 4-3.07 8.38-4.67 13.7-3.35 6.3 1.57 11.3-.78 14.37-6-1.72-2-3.49-3.89-5.16-5.9a23 23 0 0 1-4.77-20.93c1.22-5 3.49-9.69 5.3-14.52.35-.91.75-1.8 1.14-2.74-14.73-2-10.9.93-30.11-11.09-.93 2.06-1.88 4.11-2.8 6.18a20.7 20.7 0 0 1-8.57 9.56 55.8 55.8 0 0 1-14.61 5.77c-2 .52-4 1.14-6.19 1.78.65.84 1.05 1.43 1.53 1.95 2.57 2.81 5.06 5.71 7.78 8.37 5.18 5 6.55 11.27 6 18.17a42.7 42.7 0 0 1-3.2 12.61"/></svg>