<svg xmlns="http://www.w3.org/2000/svg" width="249" height="245" fill="none" viewBox="0 0 249 245"><path fill="#102185" d="M92.05 33.16c2.52-.836 4.389.24 6.258 1.316 5.182 3.186 10.024 6.768 14.357 11.001 6.796 6.386 13.238 13.281 19.057 20.545.991 1.26 1.997 2.378 3.129 3.653 2.464-2.705 4.63-5.296 7.066-7.703 2.761-2.803 5.663-5.592 8.679-8.084 9.217-7.872 19.043-14.824 29.351-21.14 7.065-4.148 14.597-7.517 22.342-10.292.892-.326 1.926-.623 2.931-.652.708.085 1.543.184 2.237.41.665.37 1.317.879 1.812 1.502s.836 1.387.892 2.11c.057.721.099 1.585-.269 2.25-.467 1.516-1.062 2.875-1.925 4.191-3.144 4.758-6.117 9.388-9.388 13.99-7.221 10.25-15.999 19.184-25.768 26.844-7.066 5.423-14.74 9.925-22.98 13.21-.736.198-1.501.68-1.869 1.345s-.75 1.472-.694 2.195c2.181.835 4.489 1.826 6.952 2.69 9.218 2.817 18.039 6.583 26.633 10.902 1.869 1.076 3.412.127 5.337-.496.666-1.911 1.331-3.978 2.153-6.017 5.989-14.258 14.668-27.043 25.556-38.144 5.692-5.875 11.78-11.411 18.987-15.546 1.373-.693 2.747-1.529 4.106-2.067 2.124-1.033 4.474-1.6 6.527.213a7 7 0 0 1 2.194 3.114c.425 1.19.397 2.62.1 3.866-.553 2.209-1.105 4.432-1.94 6.612-4.474 13.437-12.686 24.862-21.28 35.807a171.4 171.4 0 0 1-20.29 20.516l-.085.708c.014 4.559 2.506 7.574 6.018 10.42 6.668 5.083 11.85 11.695 16.891 18.435s10.095 13.337 14.045 20.799c3.724 7.008 7.278 14.144 8.736 22.158.283 1.175.298 2.322.156 3.441-.113.977-.524 1.939-1.161 2.562-.666.779-1.558 1.091-2.563 1.119-3.37.736-6.994.014-9.911-1.77-11.1-7.32-20.87-16.197-29.167-26.618-.382-.326-.764-.807-1.387-1.458.538 9.755-.425 18.915.17 28.26.325 6.74.085 13.564.127 20.261.043 6.711.396 13.309.467 19.879.085 2.86.043 5.564-.155 8.396-.411 3.37-1.94 5.465-5.126 5.805a91 91 0 0 1-15.348.722c-4.545-.113-7.107-3.71-7.122-8.41.057-1.699-.283-3.597-.495-5.338a73 73 0 0 1-.099-2.719c.07-6.555.127-12.955.212-19.51-.028-6.853.099-13.819-.071-20.686-.028-6.853-.226-13.578-.41-20.303 0-4.701 0-9.416-.142-14.272-.028-6.853-.042-13.833-.212-20.7.07-.566-.255-1.458-.057-1.855 1.118-2.152-.312-3.313-1.43-4.729-8.58.255-16.382-2.534-24.31-5.352-1.02 1.303-.638 2.917-.808 4.319-.354 2.945-.127 5.833-.481 8.778-.155 1.26-.028 2.563.708 3.653 1.175 2.138 2.336 4.276 3.214 6.513 1.671 3.908 1.161 5.706-2.534 7.971-.312.241-.496.51-.807.765-.085 4.261-.184 8.679-.312 13.224-.014 3.71-.042 7.405-.056 11.114l-.029 16.821c-.056 2.846.043 5.564 0 8.41.043 4.432-.085 8.977-.184 13.38a25.6 25.6 0 0 1-.552 4.644c-.524 3.214-2.124 4.587-5.31 5.069-5.366.778-10.463-.694-15.206-2.832-1.359-.595-2.379-1.572-3.086-2.789-.708-1.232-1.105-2.705-1.077-4.12-.198-4.305-.099-8.708-.141-12.998.056-6.414-.029-12.842.028-19.242.099-5.55.184-10.958.269-16.509 0-5.989.014-11.978.042-18.108.085-1.841.171-3.823.284-5.961-9.897-5.465-18.959-11.978-27.157-19.666-.226.679-.453 1.373-.523 1.939.042 7.986.056 16.127.099 24.112.142 7.15.283 14.301.269 21.422l-.085 14.966c-.057 5.267.17 10.435.113 15.702-.056 5.267-.127 10.534-.028 15.688-.071 2.987.156 5.861.07 8.849-.084 4.261-.155 8.396-.382 12.643-.17 1.402-.764 2.761-1.883 3.766-1.118 1.006-2.45 1.417-3.88 1.388-4.403-.099-8.636-.467-13.04-.708-.849-.099-1.826-.226-2.633-.609-1.246-.297-2.45-1.005-3.171-2.095-.723-1.09-1.148-2.28-1.148-3.554.071-2.987-.155-5.862-.212-8.863.029-8.552.057-17.104.1-25.656.099-5.55.198-11.1.268-16.509.085-7.829-.113-15.701-.042-23.39.056-5.267.127-10.533.184-15.8v-17.685c.057-2.845.099-5.55.085-8.976-4.021 2.647-7.575 4.941-11.001 7.235-6.358 4.233-12.927 7.858-19.865 11.015-8.155 3.724-16.75 5.253-25.57 6.329-2.903.368-5.904.425-8.75.368-4.432.043-7.01-4.545-4.914-9.005.553-1.076 1.232-1.996 2.04-2.746 4.162-4.913 8.82-9.345 13.988-13.154 12.913-10.137 27.284-18.109 42.618-23.531 2.378-.85 4.87-1.416 7.362-1.968 3.073-.623 4.304-2.62 3.37-5.437a118.9 118.9 0 0 1-4.474-30.342c-.142-4.73-.283-9.444-.297-14.159 0-1.147 0-2.28.268-3.383.75-6.188 1.19-12.262 2.21-18.42.99-5.877 2.392-11.554 3.78-17.232.07-.566.58-1.218.778-1.756.255-.962.935-1.883 1.728-2.506C75.045.326 75.937 0 77.07 0c.977.113 1.968.24 2.76.765.794.523 1.417 1.316 1.884 2.08 1.147 2.28 2.308 4.56 3.157 6.939 2.436 6.994 5.154 14.03 6.258 21.436.213.594.425 1.19.78 1.798l.126.156zM194.628 234.31c-.056-3.144 0-5.989-.071-8.85-.07-6.569-.127-13.139-.212-19.567-.17-9.288-.311-18.717-.481-28.005-.071-3.002.127-5.834.198-8.821-.099-5.14-.184-10.294-.298-15.291-.07-3.002.326-6.23-.467-9.189-.892-3.243-2.662-6.315-4.148-9.345-2.138 1.175-2.053 2.888-2.11 4.446l-.807 12.601c-.113.977-.241 1.968-.085 3.129.114 8.566.354 17.16.326 25.712.014 6.994 0 14.116.028 21.111.099 7.433.071 14.838.312 22.285.17 3.299-.793 6.612.481 10.18l7.023-.297.297-.114zm-107.591-.68c-.029-2.138.056-3.993-.029-5.706l.085-14.965c-.042-5.565-.099-10.988-.17-16.424.029-4.984-.085-9.997-.056-14.98-.071-5.281-.17-10.435-.114-15.702l.085-14.966c.029-4.984-.198-10.152-.155-15.277-.057-5.423.155-10.817.226-16.084-.099-1.586-.184-3.157-.439-4.616l-4.771.567c-.1 19.807-.326 39.46-.397 58.998-.07 19.525-.141 39.064-.113 59.028l5.96.283-.127-.156zm-1.204-147.59c2.393-11.553-2.945-56.11-7.362-63.203-4.021 18.052-2.917 53.845 1.798 63.246zm40.012 24.198c1.26-2.124-.084-2.86-1.274-3.582-4.106-2.634-7.702-5.919-10.803-9.713-1.628-1.912-2.917-4.205-3.922-6.456-.354-.61-.552-1.345-.467-2.053s.17-1.402.538-2.082.849-1.175 1.472-1.529c.609-.354 1.232-.708 1.94-.764 1.317-.27 2.591-.255 3.738-.27 1.119.142 2.265.128 4.106.213-8.991-4.644-17.146-10.336-24.594-17.217-.07.567-.269 1.105-.184 1.543.524 7.476.75 15.065-1.005 22.555-.099.85-.056 1.7.44 2.336.48.765 1.132 1.275 1.811 1.501.411.198.949.397 1.36.595 9.712 3.454 18.816 8.396 26.887 14.781v.142zM16.06 133.827c1.558.043 2.407.142 2.988.071 7.518-.807 14.795-3.214 21.493-6.825 9.613-5.267 19.213-10.378 27.142-18.122q1.783-1.784.283-4.673c-19.256 5.961-37.01 16.084-52.047 29.535h.141zm129.523-56.011c22.385-9.43 39.348-27.213 46.215-39.22-11.129 3.653-39.872 25.585-48.084 36.997l1.728 2.209h.141zm89.582 99.351c-3.27-13.083-27.269-44.784-36.288-49.286-2.124 1.033-1.147 2.435-.453 3.794 6.527 14.47 15.829 27.284 27.496 38.101 2.803 2.761 5.918 5.281 9.26 7.249v.142zM133.86 146.711l-.453 65.399 5.479-.481c.114-21.097.213-42.037.468-63.119zM96.92 105.34c-.311.241-.495.51-.665.779s-.227.679-.27 1.104c-.042.425.057.722.298 1.034.24.311.495.623.764.807 1.785 1.784 3.71 3.582 5.494 5.366 9.203 8.807 19.426 16.31 31.234 21.294.807.383 1.77.637 2.62.737-10.251-14.357-22.909-25.288-39.446-31.277v.142zm100.81-3.412c16.254-13.012 33.91-38.851 34.618-45.888-15.49 11.398-31.107 33.329-34.618 45.888m-71.034-6.98-.113.977c14.385 9.571 29.492 17.953 47.049 20.204.311-.241.495-.51.665-.779q1.558-3.525-1.968-4.941c-9.67-3.738-19.34-7.603-29.067-10.916-5.352-1.784-11.044-3.045-16.566-4.56zm-32.48-51.255-.623.496c.085.439.156 1.02.255 1.458.085 2.86.325 5.607 3.582 6.995.425.056.623.792 1.005 1.118 6.556 8.354 15.235 14.385 24.112 20.02.935.538 1.883.935 2.832 1.346l.368-.666c-9.486-11.27-18.958-22.526-31.531-30.752zm99.068 74.956c.141-1.118-.269-2.464-1.019-3.398-.737-.949-1.798-1.642-2.903-1.911-2.393-.284-5.536 2.18-5.876 4.998s1.6 5.606 3.88 5.748c2.548.17 5.762-2.874 6.088-5.536l-.156.127zM87.519 101.645c.085-.708.17-1.402-.184-2.025-.212-.595-.425-1.19-.92-1.827s-1.02-.977-1.558-1.33c-.524-.354-1.232-.44-1.94-.524-1.118-.142-2.322.297-3.242.892-.935.594-1.628 1.656-1.897 2.76-.156 1.261.396 2.62 1.274 3.583.878.962 1.94 1.656 3.2 1.812 1.118.142 2.294-.156 3.228-.75.934-.595 1.628-1.657 1.897-2.761l.128.155zm50.221-14.357c-.369-4.035-1.091-5.126-3.2-5.38-1.827-.227-2.62.396-3.738 3.822l7.079 1.572h-.141zm-1.077 26.689c-1.061 5.295-.75 6.187 2.677 8.594 0-2.421-.001-4.701-.142-7.15z"/></svg>