<svg xmlns="http://www.w3.org/2000/svg" width="103" height="98" fill="none" viewBox="0 0 103 98"><path fill="#000" d="M28.253 46.563c-2.346-1.637-4.876-2.977-6.853-4.858-9.074-8.747-7.687-24.477 2.661-31.658 8.896-6.168 21.375-2.435 25.906 7.955 3.573 8.264 2.418 16.022-3.352 23.018l-.81.965q.495.169 1.013.232c16.587.065 29.567 7.377 39.891 19.916a67 67 0 0 1 4.638 6.633c1.513 2.381.793 4.132-1.893 4.906Q47.556 85.729 5.652 97.768c-3.275.94-5.806-1.054-5.645-4.448C.71 78.244 5.872 65.092 16.881 54.5a44.5 44.5 0 0 1 10.985-7.68q.206-.11.387-.257m8.336 4.531c-.97 2.12-1.787 4.043-2.721 5.954-1.108 2.275-2.066 2.846-4.514 2.447a60 60 0 0 1-7.74-1.673 2.61 2.61 0 0 0-3.066.804C10.605 66.783 6.223 76.619 4.622 87.801c-.274 1.935-.37 3.9-.596 6.102 1.786-.488 3.245-.875 4.686-1.274 10.61-2.935 10.574-2.977 17.552-11.556A98.2 98.2 0 0 0 40.822 56.31c.226-.548.202-1.584-.149-1.923a49 49 0 0 0-4.06-3.293zM19.423 26.88c.15 1.227.215 2.477.465 3.68a20.6 20.6 0 0 0 1.012 3.239c2.977 7.609 11.586 11.116 18.493 7.55 10.026-5.18 11.354-20.351 2.334-27.228a3.2 3.2 0 0 0-2.322-.375c-2 .405-3.924 1.274-5.954 1.5-4.376.5-7.925 2.382-11.206 5.275a7.74 7.74 0 0 0-2.798 6.36zM49.79 80.775 87.102 70.01c-3.757-7.413-16.391-18.582-22.03-19.458-3.739 10.527-9.175 20.28-15.283 30.223M61.41 48.742a38.5 38.5 0 0 0-11.366-2.256 1.61 1.61 0 0 0-1.132.845 49 49 0 0 0-1.786 4.34C42.9 63.337 37.31 74.244 29.36 83.86c-.88 1.06-1.72 2.15-2.851 3.572 1-.256 1.565-.387 2.12-.547 3.119-.888 6.191-2.007 9.359-2.626 4.203-.828 6.96-3.447 8.984-6.841 4.508-7.562 9.098-15.094 12.242-23.376.643-1.708 1.393-3.375 2.197-5.299m-37.23 4.96.13.56c1.715.351 3.418.726 5.139 1.018a1.1 1.1 0 0 0 .887-.494c.792-1.668 1.506-3.37 2.245-5.061l-.435-.44zm20.511-7.282-5.543.816-.101.453 3.947 3.12zM91.235 6.85c.12 1.941.197 3.882.363 5.811.387 4.454 2.329 6.55 6.788 7.342.69.13 1.387.22 2.078.345 1.191.226 2.048.845 2.102 2.108.053 1.262-.739 1.947-1.941 2.22-1.364.304-2.74.596-4.085.97-3.37.942-5.108 3.174-5.24 6.687a1622 1622 0 0 0-.327 9.872c-.06 2.012-.643 2.977-1.911 3.09s-2.423-1.078-2.644-2.977c-.262-2.197-.315-4.424-.66-6.603a56.5 56.5 0 0 0-1.554-7.252c-.864-2.917-2.882-4.602-6.067-4.644a5.6 5.6 0 0 1-1.418-.292c-1.333-.375-2.274-1.078-1.953-2.655.245-1.239 1.727-2.227 3.079-2.108 4.168.381 7.74-2.012 8.591-6.085.483-2.352.47-4.805.596-7.222.077-1.233-.161-2.519.095-3.71.149-.69.935-1.667 1.53-1.738.697-.09 1.68.506 2.203 1.095.429.489.44 1.412.483 2.15.07 1.19 0 2.381 0 3.572zm-6.472 14.665 3.483 5.221 3.668-3.792-3.638-4.168z"/><path fill="#fff" d="M19.448 26.88a7.74 7.74 0 0 1 2.846-6.36c3.28-2.881 6.829-4.763 11.205-5.275 2.007-.226 3.93-1.095 5.954-1.5a3.2 3.2 0 0 1 2.322.375c9.02 6.877 7.693 22.03-2.334 27.228-6.907 3.572-15.516.06-18.493-7.55a20.6 20.6 0 0 1-1.012-3.24c-.274-1.202-.34-2.452-.488-3.679m13.694 6.674c1.673-.596 3.334-1.054 4.87-1.786a1.959 1.959 0 0 0-1.59-3.573c-1.976.703-3.87 1.191-5.954.226a1.786 1.786 0 0 0-2.381 1.114 1.79 1.79 0 0 0 .881 2.489c1.298.63 2.727 1.012 4.18 1.53zm-6.145-9.896c.113 1.233.72 1.995 1.947 1.989a1.9 1.9 0 0 0 2.048-2.024 1.865 1.865 0 0 0-2-2.043c-1.292.084-1.876.887-1.989 2.078zm12.254-.845a2.03 2.03 0 0 0-2.007-2.161 1.894 1.894 0 0 0-1.977 1.952 1.96 1.96 0 0 0 2 2.043 1.875 1.875 0 0 0 1.99-1.834zM49.79 80.775c6.108-9.961 11.544-19.696 15.289-30.223 5.632.876 18.267 12.045 22.03 19.458z"/><path fill="#598df5" d="M61.41 48.742c-.803 1.924-1.554 3.573-2.203 5.294-3.144 8.282-7.74 15.813-12.241 23.375-2.025 3.394-4.763 6.013-8.985 6.841-3.167.595-6.24 1.739-9.36 2.626-.553.16-1.119.291-2.119.547 1.131-1.417 1.97-2.506 2.852-3.572 7.949-9.616 13.54-20.523 17.767-32.187a53 53 0 0 1 1.786-4.34 1.61 1.61 0 0 1 1.131-.846c3.883.175 7.718.938 11.372 2.262"/><path fill="#fff" d="m84.744 21.515 3.513-2.733 3.638 4.168-3.668 3.792z"/><path fill="#000" d="M34.671 33.042a4.84 4.84 0 0 1-3.03 0 23 23 0 0 1-2.656-.995 1.79 1.79 0 0 1-.881-2.488 1.786 1.786 0 0 1 2.381-1.114c2.078.959 3.972.476 5.955-.226a1.96 1.96 0 0 1 1.59 3.572 31 31 0 0 1-3.359 1.25M27.002 23.658c.113-1.19.697-1.994 1.995-2.078a1.863 1.863 0 0 1 2 2.042 1.9 1.9 0 0 1-2.048 2.025c-1.227.006-1.834-.756-1.947-1.989M39.257 22.813a1.88 1.88 0 0 1-1.97 1.786 1.96 1.96 0 0 1-2.02-1.995 1.894 1.894 0 0 1 1.966-1.923 2.03 2.03 0 0 1 2.024 2.132"/></svg>