<svg xmlns="http://www.w3.org/2000/svg" width="385" height="231" fill="none" viewBox="0 0 385 231"><path fill="#102185" d="m82.318 156.405 13.832-2.45.114-2.973c-1.119-7.83.595-15.843 4.531-22.64 2.449-4.87 6.144-8.976 10.378-12.218 4.375-3.243 9.415-5.31 14.697-6.386 3.723-.991 7.688-.991 11.482-.269l3.115.113c-.764-2.435-1.387-4.587-2.152-6.739-2.039-6.173-4.205-12.347-6.102-18.647-.114-.85-.652-1.586-1.204-2.025-.538-.58-1.387-.906-2.081-1.076-5.89-1.784-11.455-4.403-16.722-7.575-3.185-1.826-5.79-4.332-7.504-7.504-.807-1.16-1.175-2.59-1.26-4.021.057-1.416.255-2.817.864-4.078 1.982-3.893 5.083-6.895 8.835-8.877.58-.396 1.161-.666 1.727-.779s1.275-.099 1.982.071c.708.029 1.261.326 1.813.779.552.297.963.892 1.373 1.33 1.487 2.04 1.119 4.15-1.09 6.471-1.473 1.501-2.945 2.86-4.715 4.644 1.232 1.175 2.464 2.365 3.851 3.257 3.738 2.407 7.915 4.261 12.106 5.691 3.511.977 6.867 2.096 10.223 3.356 1.67.623 3.511.835 5.224.481 1.713-.353 3.441-1.146 4.772-2.364 2.35-2.039 4.828-3.922 7.164-5.96 1.175-1.091 2.761-1.884 4.46-1.955.849.029 1.699.071 2.534.524.694.453 1.374 1.048 1.77 1.77s.651 1.586.623 2.435c-.028.85-.212 1.7-.665 2.52-1.19 1.657-2.676 3.158-4.135 4.517-1.175 1.09-2.633 2.025-3.936 3.115-3.37 3.13-7.844 5.083-12.403 5.62-.708.114-1.43.227-2.138.482.623 2.152 1.26 4.163 1.897 6.16.638 2.01 1.402 4.02 2.167 6.314 3.554-.297 6.966-.453 10.378-.878 3.71-.566 7.391-.708 11.072-.722 5.38.198 10.775-.014 16.155-.099 2.407-.057 4.842-.524 7.688-.85.836-3.51 1.827-7.164 2.662-10.52-2.648-1.231-5.154-2.321-7.377-3.68-.835-.312-1.529-.907-1.925-1.629-.538-.722-.793-1.586-.906-2.45.028-.849.07-1.698.382-2.534.311-.835.906-1.529 1.642-2.067 1.459-1.218 3.2-2.152 4.928-2.79 6.031-2.18 12.318-3.638 18.717-4.105 2.563-.184 4.984-.807 7.646.283 4.616 1.728 7.178 5.083 6.711 10.024-.085 2.407-.609 4.8-1.26 7.179-1.133 3.922-3.625 5.819-7.419 5.253-2.265-.227-4.517-.595-6.909-.963l-3.526-.552c-2.095 3.044-2.095 6.583-2.917 9.812s-2.095 6.583-2.095 10.406c12.205-8.183 24.749-10.123 37.832-3.964 13.097 6.017 19.185 17.302 20.643 31.234l7.943-.269c1.303-4.347.043-8.637.057-12.885.155-4.247-.085-8.934-.198-13.464-.114-4.545-.1-8.651-.071-13.04-1.388-.624-2.365-1.077-3.483-1.402-10.478-3.795-15.716-11.497-17.302-22.045-.439-3.554.552-7.207 2.647-10.237 1.501-2.35 1.289-4.063.1-6.23-1.855-3.468-2.846-7.192-2.974-11.157-.141-3.837.722-7.759 2.266-11.397 1.543-3.483 3.936-6.655 7.008-9.232 2.931-2.577 6.541-4.29 10.265-5.28 1.713-.355 3.441-1.006 4.899-2.082s2.775-2.308 3.681-3.823c7.773-10.902 21.946-14.47 34.746-8.467 3.752 1.84 6.768 4.786 8.891 8.41.935 1.6 2.45 2.648 4.135 3.27 8.396 2.861 12.544 9.402 14.215 17.685 1.798 8.566-.212 16.849-3.625 24.664-1.076 2.223-1.458 4.9-.991 7.335 1.43 6.994-.779 13.153-5.791 18.349-4.431 4.786-10.081 7.985-16.509 9.302 1.997 14.527 4.149 29.054 6.145 43.736.694.312 1.388.623 2.096.793 4.092.581 8.183.878 12.275 1.458 6.91.963 13.678 1.926 20.573 2.903 4.092.58 8.183 1.019 12.275 1.458 1.275.043 2.535.524 3.639 1.275 1.105.75 1.77 1.769 2.294 3.058 4.715 10.236 9.288 20.615 13.847 30.979.779 1.727 1.288 3.596 1.784 5.451 1.232 5.012-1.487 9.444-6.598 9.529-4.12.127-8.41 1.245-12.587-.468-.425-.014-.708-.17-1.133-.184-7.787-.297-15.688-1.161-23.475-1.302-10.194-.099-20.544.07-30.752.113-4.828.099-9.784.056-14.612.297-6.386.326-12.785.793-19.185 1.402-6.966.736-14.088 1.458-20.927 2.478-7.405.991-14.682 2.421-21.96 3.709-10.42 2.011-20.841 4.036-31.262 6.188-14.144 3.015-28.289 6.3-42.419 9.174-13.989 2.875-27.978 5.466-41.952 7.915-6.981 1.147-13.947 1.741-20.927 2.619-6.683.737-13.521 1.473-20.204 2.209-5.267.51-10.506.736-15.773 1.105-4.97.382-9.954.906-14.923 1.274-2.846.17-5.692.495-8.382.679-4.97.241-9.94.482-15.037.425-2.69-.099-5.337-1.048-7.405-2.69-2.053-1.784-3.525-4.106-3.992-6.81-3.328-13.309-7.221-26.491-10.69-39.786-.524-1.288-.609-2.718-.41-4.12.183-1.133.792-2.237 1.67-3.058.878-.822 1.897-1.346 3.03-1.445 6.711-1.444 13.564-2.888 20.29-4.332 4.714-.963 9.429-1.911 14.427-3.002l.156-4.247c-.878-10.52-1.756-21.182-2.634-31.843-.255-.864-.354-1.713-.325-2.704.736-4.361-1.615-6.159-5.225-8.127-3.327-1.827-6.357-4.347-8.934-7.136-2.874-2.804-4.73-6.273-5.564-10.124-.836-3.85-.553-7.815.722-11.596.17-.707.481-1.401.65-2.237-4.742-5.564-8.041-12.346-9.471-19.482-1.331-6.145-1.53-12.105 1.812-17.925 2.294-4.445 6.102-7.702 10.704-9.514 1.005-.24 1.869-.779 2.464-1.614.736-.68 1.189-1.657 1.373-2.634 2.634-9.67 8.948-15.815 18.562-18.86 12.615-3.78 24.225 3.753 28.742 11.993 3.058 5.352 4.672 11.511 4.432 17.6l-.114 3.114c-.523 2.676.538 4.418 2.308 6.457 9.926 11 12.998 23.588 7.93 37.704-2.252 7.136-5.905 13.663-10.79 19.426-.58.538-.892 1.246-1.062 1.939a6.1 6.1 0 0 0-.085 2.266c2.096 12.261 4.177 24.522 6.273 36.642.113.85.368 1.572.764 2.436h.142zm281.658 3.808c-1.048-2.166-1.841-3.752-2.492-5.479a3.87 3.87 0 0 0-1.204-1.742c-.538-.439-1.246-.75-1.954-.778-5.21-.765-10.265-1.94-15.489-2.705-7.051-.977-13.961-1.656-21.012-2.492-3.525-.41-7.051-.976-10.718-1.26-8.467-.75-16.806-1.628-25.287-2.081-4.814-.184-9.77-.085-14.598.014-3.398 0-6.668.17-9.939.482-.566-.029-1.288.24-1.855.495-1.855 4.035-3.27 7.957-5.394 11.412-7.83 12.46-19.256 18.548-33.967 17.854-3.398-.127-6.485-.949-9.529 1.062a4.4 4.4 0 0 1-1.854.354c-8.411 1.246-16.807 2.336-25.075 3.596-2.563.467-5.126.651-7.674.708-1.133-.042-2.252-.368-3.087-.963-.821-.736-1.345-1.755-1.586-2.888-.24-1.133-.056-2.124.411-3.242.467-.977 1.345-1.799 2.35-2.181 1.444-.651 2.874-1.019 4.446-1.246 3.426-.58 6.839-.878 10.251-1.316s7.122-1.006 11.539-1.544c-4.672-3.865-8.311-8.821-10.789-14.427-4.516-.595-15.489 1.118-19.086 2.817-.028.85-.212 1.699-.523 2.676-.17.85-.482 1.685-.808 2.52-5.21 14.116-14.894 23.107-30.143 25.358-2.846.453-5.834.496-8.566 1.799-1.147.382-2.436.623-3.71.566-.991-.043-2.124-.085-3.115.028-8.268 1.388-16.395 2.789-24.523 4.177-2.137.34-4.275.835-6.413 1.175-1.43.227-2.69-.099-3.795-.991a4.95 4.95 0 0 1-2.138-3.341c-.099-1.133.085-2.407.835-3.512.61-1.104 1.629-1.784 2.775-2.166.425-.127 1.006-.382 1.43-.368 3.569-.722 6.995-1.289 10.563-2.011l10.265-1.741c-5.38-4.021-9.854-9.302-13.026-15.221-14.852 2.988-29.407 5.975-43.977 8.835-14.555 2.846-29.379 5.267-43.962 8.694 3.341 13.026 6.682 25.613 10.18 38.072 6.215.666 12.19-.113 18.01-.453 5.394-.226 10.66-1.019 16.055-1.373 5.112-.368 10.237-.751 15.348-1.119 6.966-.594 14.074-1.317 21.04-2.039 7.263-.863 14.513-1.444 21.776-2.576 19.398-3.243 38.809-7.037 58.093-11.271 16.424-3.638 32.721-7.405 49.414-10.18 8.41-1.387 16.849-3.469 25.259-4.856 12.403-2.082 24.919-3.455 37.421-4.262 9.373-.637 18.746-1.274 28.091-1.062 1.416.057 2.832.113 4.248.014 9.217-.085 18.434-.297 27.779-.085 6.796.255 13.578.793 20.346 1.331.849.029 1.685.34 2.662.666.977.325 2.109.368 3.242.269s2.138-.482 3.016-1.02l-4.304-9.939c-7.207-.411-14.131-.963-20.913-1.359-3.539-.128-6.937-.255-10.463-.538-4.092-.298-6.287-2.365-6.173-5.48.113-3.114 2.605-5.139 6.569-4.998 5.239.199 10.464.68 15.83.878l10.038.383-.141.141zm-60.061-79.344c6.329 1.09 10.958-1.43 14.937-5.537 3.101-3.284 4.517-7.05 2.563-11.525-.666-1.302-.878-2.86-.694-4.276.057-1.415.666-2.803 1.572-4.049 3.469-5.678 4.998-12.134 4.672-18.675-.354-5.678-2.152-10.704-8.155-12.771-3.781-1.133-6.811-3.512-8.807-6.995-1.458-2.746-3.922-4.828-7.009-5.79-6.867-2.096-16.41-.765-21.294 8.551-2.294 4.588-5.366 7.023-10.747 7.108-8.509.1-17.132 10.973-12.275 21.351a12.8 12.8 0 0 0 1.586 3.172c2.945 4.502 3.214 8.764-.623 12.87-.737.68-1.331 1.657-1.657 2.634s-.496 1.968-.255 3.1c1.331 9.968 9.925 14.824 17.344 13.55 1.147-.24 2.28-.34 3.413-.439 4.842-.524 9.67-1.048 14.512-1.444a175 175 0 0 1 11.087-.864h-.142zM66.375 49.125c.07-1.84.127-3.54.198-5.38-.382-4.97-1.897-9.713-5.734-13.111-9.458-8.439-21.578-2.648-24.282 5.182-.652 2.095-1.289 4.205-1.798 6.315-.68 3.086-2.053 5.45-5.48 6.173-.863.255-1.713.354-2.577.75-5.168 1.643-8 5.366-8.056 10.888 0 7.504 2.704 14.838 7.886 20.275 1.232 1.175 2.167 2.775 2.52 4.489a10.36 10.36 0 0 1-.198 5.097c-.495 1.826-.99 3.794-1.628 5.465-.311.694-.34 1.543-.226 2.265-.029.708.368 1.572.764 2.152 2.379 4.63 6.202 8.311 10.79 10.605.976.467 1.953.637 2.944.68 4.262-.269 8.382-.538 12.644-.935 3.554-.297 7.107-.722 10.661-.878.567.029 1.289-.24 1.713-.495a2.66 2.66 0 0 0 1.317-1.232c2.974-3.851 5.678-7.858 7.83-12.318 3.186-5.55 4.134-12.035 3.087-18.165a25 25 0 0 0-3.059-8.906c-1.6-2.747-3.78-5.097-6.258-7.037-1.104-.75-1.911-1.911-2.577-3.072a9.3 9.3 0 0 1-.694-3.993c-.085-1.558.128-3.257.185-4.956v.142zm94.07 97.892c.014-.424.184-.991.057-1.557-1.119-4.29-2.096-8.438-3.356-12.601-.524-1.289-1.331-2.464-2.421-3.356-2.336-2.067-4.941-4.148-7.575-5.946-3.596-2.407-7.787-3.979-12.176-4.149-6.074-.368-11.95 1.246-16.892 4.743-4.941 3.356-8.679 8.311-10.449 14.06-1.741 4.757-1.784 9.854-.552 14.711l53.208-5.791.142-.142zm37.067-6.102c17.642-1.883 34.689-3.228 52.133-3.568-.057-9.783-3.299-17.698-10.874-23.503-4.262-3.285-9.586-5.041-14.98-4.956-5.536.213-10.987 2.138-15.376 5.65-4.375 3.384-7.674 8.07-9.43 13.535-.34 1.402-.949 2.662-1.274 3.922-.822 2.945-.935 6.06-.199 9.062zm81.129-47.389c-.75 4.928.029 36.983.779 39.559 4.503.737 23.617 1.317 26.18.708-.68-4.7-1.204-9.259-1.884-13.96s-1.33-9.684-2.152-14.385c-.807-4.842-.778-9.387-2.308-13.833zm-213.512 26.25-18.605 1.289c.496 5.692 1.006 10.944 1.515 16.353.567 7.674 1.119 15.348 1.685 23.022.255.863.496 1.713.892 2.591l21.267-4.304-6.612-38.795-.142-.141zm125.205-13.705c-1.133-.043-1.841.071-2.563.184-3.143.594-6.258.609-9.359.354-2.973-.113-5.805-.213-8.792.241-4.545.254-9.232.509-13.777.75-1.415.085-2.987.311-4.559.538.765 2.294 1.402 4.304 2.181 6.032.524 1.005 1.345 1.897 2.166 2.633 1.642 1.473 3.441 2.534 4.941 4.148.538.581 1.105.893 1.657 1.19.694.311 1.26.326 1.968.354 4.389.028 8.637.326 13.026.354 2.832.113 5.819-.354 8.665-.524 1.487-5.607 2.945-10.661 4.29-16.127l.142-.141zm-31.574 51.948c-16.197 1.09-31.574 3.058-47.502 4.87 6.598 9.175 15.079 13.324 25.754 12.163 10.11-1.176 17.401-6.995 21.748-16.892zm87.359-9.472c-.708-.17-1.402-.34-2.251-.369l-41.754 2.676c-.283 0-.581.397-.864.538 2.988 7.193 11.993 12.503 20.346 12.814 12.318.184 22.13-8.382 24.537-15.659zm-75.182-5.381 15.815-2.52c-.029-2.832-.085-5.111-.142-7.518l-17.698-.241 2.166 10.279z"/><path fill="#102185" d="M33.527 202.887c-1.133-.043-2.251-.51-3.37-.977-.835-.453-1.515-1.189-2.053-2.067-.396-.864-.637-1.869-.453-2.846.043-.991.637-1.954 1.373-2.775.737-.821 1.614-1.359 2.606-1.458 3.567-.722 6.994-1.289 10.548-1.869 4.417-.68 8.835-1.232 13.238-1.77a8.6 8.6 0 0 1 2.69.099 4.97 4.97 0 0 1 3.073 1.246c.82.736 1.345 1.897 1.585 3.03.241 1.132-.085 2.407-.835 3.511s-1.77 1.77-2.917 2.011c-2.28.481-4.573.963-6.838 1.161-5.126.793-10.11 1.458-15.108 2.265-1.132.099-2.279.198-3.837.425h.284zM273.048 166.996l-3.539-.128c-1.133-.042-2.251-.51-3.2-1.402-.821-.877-1.345-1.897-1.444-3.029-.099-1.133.085-2.407.835-3.37.609-.963 1.614-1.643 2.775-2.025 1.43-.51 3.002-.736 4.559-.821 5.664-.071 11.341-.283 16.863-.213 1.416.057 2.818.397 4.078.864.835.453 1.515 1.048 1.911 1.77s.652 1.586.751 2.577c-.029.849-.213 1.699-.666 2.52-.453.836-1.189 1.374-1.911 1.77-1.288.524-2.733.892-4.007.977-5.663.071-11.341.141-16.863.212l-.156.283z"/></svg>