<svg xmlns="http://www.w3.org/2000/svg" width="296" height="342" fill="none" viewBox="0 0 296 342"><path fill="#102185" d="M37.827 81.992c2.916-3.44 5.55-6.712 8.367-9.713 11.228-12.29 25.458-19.2 41.004-24.254a184 184 0 0 1 34.519-7.49 27 27 0 0 0 3.086-.467c.383-3.171.878-6.499 1.246-9.812s1.657-5.876 4.942-7.207c3.284-1.33 5.026-.962 7.405 1.36.962 1.033 1.783 2.095 2.619 3.285 22.512 29.803 45.152 59.593 67.678 89.538 3.979 5.282 4.63 11.469 4.729 17.869.255 11.935.666 23.843.921 35.779.198 11.369.523 22.582.736 33.952.226 7.518.467 15.178.679 22.71.227 11.653.623 23.433.85 35.071.212 7.377.439 14.909.637 22.286.269 10.647.68 21.28.949 31.927.184 1.685-.213 3.441-1.19 4.97s-2.293 2.52-4.077 3.129c-12.856 5.055-25.684 10.251-38.526 15.447-2.464.977-5.281 1.274-7.915.552-11.737-3.313-23.588-6.343-35.326-9.656-40.79-11.497-81.567-22.866-122.217-34.377-1.175-.297-2.492-.736-3.681-1.175-3.851-1.444-5.395-3.851-5.253-7.986 1.699-29.789 3.384-59.721 5.083-89.524 1.571-26.93 3.002-53.846 4.587-80.634.722-12.035 1.586-24.083 2.025-36.09.156-5.281 4.573-7.886 9.373-5.692 5.253 2.577 11.129 4.234 17.033 6.315l-.297-.113zm122.203 54.454c-6.909-3.398-134.847-47.432-137.834-47.39-3.767 65.598-7.519 131.209-11.27 196.947l151.851 42.646c-.949-64.394-1.855-128.221-2.761-192.189zm13.876 192.316c10.916-4.432 20.883-8.467 30.865-12.361 1.77-.75 2.053-2.067 2.025-3.766-.226-7.518-.467-15.178-.68-22.71-.212-7.532-.453-15.051-.637-22.286-.212-11.511-.594-23.149-.807-34.66l-.892-32.791c-.24-11.794-.651-23.702-.892-35.496-.141-8.099-.283-16.197-.566-24.282-.071-1.982-.255-3.823-.326-5.805-.212-1.968-.099-3.695-.184-5.819l-30.823 7.376c.934 64.252 1.812 127.938 2.803 192.614h.142zM79.043 62.41l.113 1.133 99.535 58.263c-.864-1.473-1.869-2.931-3.271-4.064-20.7-19.454-41.527-38.752-61.972-58.39-4.276-4.106-8-5.706-13.62-3.554-6.712 2.563-13.763 4.446-20.8 6.612zM66.95 69.25c-6.654 4.403-12.474 9.996-17.203 16.48 7.802 3.738 106.318 37.478 109.008 37.337-30.498-17.854-60.854-35.722-91.805-53.817m54.978-17.33c1.119 1.16 1.77 1.954 2.407 2.59 17.543 16.51 34.929 32.905 52.458 49.287l14.541 13.705c1.104 1.02 2.223 2.181 3.794.878-.042-.424-.368-.821-.538-1.076-16.537-21.747-32.933-43.65-49.329-65.412-.354-.68-.976-1.176-1.727-1.53-.75-.354-1.472-.41-2.166-.34-3.809.397-7.646.383-11.61.652-2.535.269-5.041.821-7.986 1.274h.142zM295.09 57.596c-.071 1.133-.425 2.294-.935 3.313a6.64 6.64 0 0 1-2.251 2.549c-3.639 3.2-7.108 6.668-10.435 10.279a75.56 75.56 0 0 0-15.688 28.897c-1.175 4.05-2.35 8.085-3.511 12.276-.354 1.161-.722 2.166-1.218 3.2-.495 1.033-1.316 1.784-2.265 2.407-.963.481-2.081.693-3.228.623-.991.056-2.011-.439-2.903-1.105s-1.373-1.472-1.713-2.449c-.538-1.813-.934-3.766-1.189-5.607-1.94-10.803-3.172-21.79-7.349-32.183-2.69-6.923-7.801-11.581-14.102-15.022-.736-.382-1.741-.609-2.477-1.133-.737-.382-1.459-.764-1.926-1.444-.609-.665-.934-1.359-1.133-2.194-.198-.836-.099-1.7-.141-2.407.226-.864.467-1.586 1.005-2.195 1.048-1.486 2.52-2.846 4.007-4.078 12.219-8.976 18.718-21.138 20.785-36.019.382-3.143 1.175-6.315 1.84-9.472.326-1.727 1.076-3.186 2.436-4.262s3.03-1.6 4.587-1.557c1.557-.1 3.143.382 4.333 1.302a7.05 7.05 0 0 1 2.506 3.823c1.401 4.319 2.223 8.665 3.766 12.828 1.869 5.14 4.035 10.25 6.315 15.22 3.468 8.014 9.359 14.046 16.608 18.846 1.034.65 2.067 1.43 2.704 2.392.765.949 1.274 2.195 1.331 3.328l.269-.156zm-14.598.326c-11.553-8.085-16.863-20.672-22.172-33.4-2.903 12.799-10.025 24.154-20.006 32.564 5.38 4.503 10.463 8.722 13.096 14.81s4.305 12.36 6.527 18.604c3.2-5.578 6.103-11.581 9.756-16.905s8.297-10.435 12.799-15.815z"/><path fill="#102185" d="M131.812 175.31c.382 3.667-1.19 6.244-4.007 6.542-1.827.198-3.568-.057-5.182-.595-25.09-8.453-50.334-16.905-75.438-25.5a19 19 0 0 1-3.879-1.727c-1.062-.595-1.727-1.529-2.124-2.619-.396-1.091-.382-2.237-.07-3.413a4.94 4.94 0 0 1 2.109-2.93c1.062-.68 2.322-.963 3.469-.793 1.444.127 2.76.566 4.092.991 24.933 8.339 49.753 16.82 74.686 25.16 1.317.283 2.492.736 3.568 1.472 1.105 1.019 2.068 2.053 2.903 3.256zM125.723 201.292c.425 4.077-2.138 6.768-5.692 6.725-1.444-.127-2.746-.425-4.091-.991-23.716-7.462-47.432-15.079-71.162-22.682-1.175-.298-2.506-.878-3.568-1.473-1.062-.594-2.01-1.5-2.407-2.591-.538-1.076-.538-2.364-.368-3.525a4.95 4.95 0 0 1 2.11-2.931c1.062-.68 2.308-1.09 3.455-.934 1.302.141 2.59.297 3.78.736 23.871 7.589 47.729 15.178 71.6 22.781 1.317.283 2.648.864 3.88 1.727.948.892 1.911 1.94 2.605 3.144h-.142zM88.287 280.977c1.6.254 2.463.453 3.2.665l25.853 7.518c1.176.298 2.492.736 3.54 1.19s1.982 1.217 2.52 2.293.666 2.209.496 3.37-.75 2.35-1.657 3.172c-.906.821-2.138 1.359-3.27 1.345-1.133.113-2.28-.043-3.455-.354a1555 1555 0 0 1-24.041-6.57c-2.464-.453-4.588-1.656-6.074-3.624-1.19-1.869-1.841-3.937-.61-5.777 1.006-1.246 2.181-2.223 3.526-3.073v-.141z"/></svg>