<svg
            width="81"
            height="81"
            viewBox="0 0 81 81"
            fill="none"
            xmlns="http://www.w3.org/2000/svg"
          >
            <path
              d="M56.8336 49.3008C57.1697 49.7052 57.5912 50.0241 58.0725 50.2576C58.5538 50.4911 59.0635 50.6136 59.5761 50.6507C60.7722 50.6962 61.9398 50.6848 63.1359 50.6164C65.2461 50.5025 67.3535 50.363 69.4923 50.2519C71.4886 50.138 73.4821 50.0811 75.4472 49.9956C75.8459 50.0013 76.2189 49.8931 76.5891 49.8704C77.1871 49.8219 77.583 50.0839 77.6884 50.6278C77.7937 51.1433 77.5033 51.6218 76.9309 51.7841C76.7315 51.8382 76.5321 51.8638 76.3299 51.8894C73.6501 52.0233 70.9731 52.1258 68.2648 52.2882C66.0692 52.3992 63.8735 52.5957 61.6807 52.6783C60.7409 52.721 59.8296 52.6526 58.8926 52.5245C57.4146 52.3337 56.059 51.5449 55.1648 50.363C54.8572 49.9586 54.5724 49.8988 54.1139 50.064C51.3686 50.8785 48.5948 51.6673 45.8495 52.4818C45.1916 52.7011 44.4797 52.7467 43.7962 52.6527C41.6632 52.3366 39.533 52.1087 37.4285 51.8211L21.5916 49.802C18.5786 49.4176 15.5371 49.0331 12.5212 48.6486C10.1319 48.3581 7.74542 48.0392 5.38456 47.7202C5.0713 47.6576 4.78931 47.5978 4.47605 47.5066C3.65302 47.2674 3.485 47.0937 3.41096 46.2109C3.33691 45.328 3.2942 44.4139 3.27712 43.5026C3.15181 40.3102 3.02651 37.0921 2.92969 33.8997C2.93538 33.501 2.96957 33.0738 3.08918 32.678C3.21164 32.0828 3.55904 31.7724 4.18841 31.5246C4.96018 31.2512 5.76047 31.0348 6.58919 30.9323C10.7015 30.2488 14.8109 29.5966 18.9203 28.9701C21.4036 28.5771 23.8869 28.2154 26.3418 27.8224C26.6835 27.7712 26.9996 27.5747 27.3442 27.4949C27.6888 27.3867 28.0305 27.3326 28.4008 27.3383C30.7616 27.5149 33.151 27.7484 35.5118 27.9506L43.2494 28.6312L54.0029 29.6109L63.5887 30.4595C64.2437 30.525 64.9244 30.5933 65.6079 30.6588C66.092 30.693 66.4593 30.8696 66.5932 31.3851C66.7299 31.8436 66.5818 32.1255 66.0635 32.5156C65.9496 32.5697 65.8613 32.6837 65.8043 32.7976C65.4512 33.6747 64.9813 34.5234 64.9671 35.5201C64.9529 36.5168 64.8247 37.5677 64.839 38.6214C64.9016 40.1593 65.2518 41.6458 65.9154 43.0526C65.9695 43.2519 66.0806 43.4257 66.2201 43.5709C66.3597 43.7162 66.5306 43.833 66.7555 43.8928C67.1229 44.0124 67.4618 44.2174 67.7437 44.4481C68.393 44.9408 68.3503 45.8235 67.5785 46.1254C66.6046 46.5099 65.5765 46.8089 64.5456 47.1079C62.2018 47.7857 59.8837 48.4663 57.5399 49.1156C57.369 49.1697 57.1953 49.2524 56.882 49.3634L56.8251 49.3065L56.8336 49.3008ZM4.65265 33.5807L4.63839 34.606C4.78933 38.0832 4.90897 41.5888 5.03143 45.0632C5.05137 45.6612 5.07985 45.7182 5.67505 45.7837L11.6725 46.5526L21.7368 47.8626L30.8926 49.0189L42.2071 50.4598L42.8906 50.4684L42.8963 50.0127C42.6913 46.4216 42.4862 42.8305 42.2499 39.265C42.1815 38.1544 42.4065 38.2142 41.0424 38.0519C37.9439 37.6674 34.8426 37.3085 31.7157 36.9241C26.6266 36.2833 21.566 35.6682 16.4769 35.0274L5.70063 33.6776C5.35889 33.6434 5.01715 33.612 4.5615 33.575H4.64694L4.65265 33.5807ZM10.8239 32.1568V32.2992C11.1058 32.359 11.4191 32.4217 11.7039 32.453C16.1665 32.9998 20.6319 33.5466 25.0945 34.0962C30.1836 34.737 35.3011 35.3806 40.3902 36.0213C41.4411 36.1495 42.5232 36.1381 43.5143 36.608C43.6852 36.6393 43.856 36.6137 44.0269 36.588C44.8841 36.3716 45.7413 36.158 46.57 35.9416C50.8873 34.7768 55.2047 33.6434 59.522 32.4786C59.7498 32.4245 59.9805 32.3135 60.2084 32.2594C59.7556 32.0828 59.2999 31.9888 58.8157 31.9831C56.9105 31.8151 55.0053 31.6442 53.0972 31.4762C47.8914 31.0035 42.6855 30.5307 37.5082 30.058C35.1473 29.8529 32.758 29.6194 30.3971 29.4172C29.856 29.3517 29.3149 29.346 28.7738 29.3944C26.2336 29.7561 23.7218 30.1776 21.1815 30.5678L13.3614 31.7667C12.5042 31.8977 11.6498 32.0543 10.7926 32.1853L10.821 32.1568H10.8239ZM63.5261 33.4184C63.2982 33.4441 63.1274 33.4697 62.9822 33.5238C58.1494 34.8224 53.2909 36.121 48.4582 37.3911C47.6579 37.6076 47.0826 37.9123 46.9573 38.7667L46.9516 39.0799C47.6323 39.3447 48.3101 39.6124 49.0192 39.8488C50.7763 40.4725 52.3255 41.6059 53.4162 43.1295C54.225 44.3085 54.9483 45.6014 55.5265 46.92C55.609 47.0908 55.7201 47.2646 55.8312 47.5237L64.8959 44.8895C62.8682 41.2158 62.723 37.3969 63.5204 33.4213L63.5261 33.4184ZM45.9321 40.8569C45.8438 40.9993 45.784 41.1674 45.7271 41.3098C45.3397 42.5571 45.1774 43.8927 45.3027 45.2056C45.4223 46.7178 45.8011 48.1474 46.7238 49.3833C47.0314 49.7877 47.3418 49.9615 47.9142 49.7992C49.7169 49.2267 51.5167 48.7398 53.3194 48.2243C53.4618 48.1702 53.6355 48.0876 53.7779 48.0022C53.2909 46.1739 52.2885 44.5335 50.9101 43.2918C49.5318 42.0189 47.806 41.1673 45.9606 40.8569H45.9321Z"
              fill="#3558A2"
            />
            <path
              d="M9.7639 36.5851C13.4319 37.035 17.1 37.4878 20.768 37.9378C24.0658 38.3251 27.3351 38.7152 30.6044 39.131C32.8228 39.3902 35.01 39.6778 37.2285 39.9655C37.3993 39.9655 37.5417 39.9712 37.6841 40.0281C37.9404 40.0879 38.137 40.2331 38.2765 40.4353C38.4161 40.6375 38.4701 40.8938 38.4359 41.1501C38.4359 41.2641 38.3762 41.3779 38.3164 41.489C38.2565 41.6001 38.1711 41.6856 38.0857 41.7425C38.0002 41.8279 37.8835 41.8536 37.7696 41.8792C37.6557 41.9048 37.5418 41.9048 37.4279 41.8735C36.545 41.8051 35.6935 41.677 34.8106 41.5802C30.0063 40.9992 25.1992 40.4183 20.4233 39.8373C16.7268 39.3874 13.0304 38.9345 9.33387 38.4561C9.07756 38.4533 8.82123 38.3621 8.59625 38.2738C8.39691 38.1855 8.25737 38.0403 8.17478 37.841C8.09219 37.6416 8.06656 37.4394 8.09788 37.2429C8.09788 37.0436 8.21754 36.8755 8.36278 36.7332C8.50802 36.6221 8.70735 36.5395 8.90669 36.5424L9.76105 36.5538V36.5822L9.7639 36.5851Z"
              fill="#3558A2"
            />
            <path
              d="M9.80465 41.7427C13.4442 42.1927 17.0837 42.6426 20.7232 43.0926C23.9641 43.4799 27.2334 43.8671 30.5056 44.2573C32.5817 44.5136 34.6862 44.7443 36.7338 45.0006C36.9616 45.0035 37.1895 45.0633 37.4145 45.1516C37.6138 45.2398 37.7818 45.3851 37.8929 45.5844C38.0039 45.7838 38.0581 46.0144 37.9983 46.2138C37.9983 46.3277 37.9669 46.4416 37.9071 46.5271C37.8473 46.6125 37.7904 46.6951 37.7049 46.7805C37.6195 46.8659 37.5027 46.8916 37.4173 46.92C37.3034 46.9457 37.1894 46.9457 37.0755 46.9429C36.3351 46.903 35.5975 46.809 34.8286 46.7122C29.9958 46.1312 25.1886 45.5502 20.3558 44.9693C16.7163 44.5193 13.0768 44.0694 9.43726 43.6479C8.95313 43.5852 8.58574 43.4087 8.42056 42.9502C8.36646 42.7793 8.34081 42.6084 8.40061 42.4091C8.43194 42.2382 8.5487 42.0702 8.6911 41.9563C9.01005 41.6487 9.40595 41.7114 9.80465 41.7456V41.7427Z"
              fill="#3558A2"
            />
          </svg>