<svg xmlns="http://www.w3.org/2000/svg" width="351" height="256" fill="none" viewBox="0 0 351 256"><path fill="#102185" d="M116.068 72.124c.425-1.09.68-1.912.935-2.733 1.529-6.074 3.058-12.162 4.87-18.208 2.195-7.844 7.462-12.998 14.881-16.14 6.046-2.478 12.347-3.625 18.888-3.47 10.576 0 21.11.255 31.63.666 3.129.127 6.386.283 9.614.722 7.858 1.048 12.474 6.102 16.042 12.431 3.922 6.952 5.309 14.711 6.994 22.37.354 1.615.566 3.215.906 4.985 1.119.155 1.968.269 2.959.254 16.566.085 33.118.156 49.669.369 2.662.354 5.338.722 7.787 1.614 3.469.75 4.715 3.2 4.687 6.626.113 5.593.099 11.015.198 16.594-.042 30.129.043 60.429 0 90.572v54.426c.043 5.012-1.94 7.022-6.966 7.206-19.482.383-39.078.609-58.56 1.006-21.479.41-42.944.665-64.422 1.076l-58.277 1.048c-12.729.155-25.486.438-38.215.594-1.727.057-3.242.708-4.955.765-1.883.17-4.078.594-5.692-.198-3.894-1.813-7.745-4.036-11.256-6.655-3.242-2.435-4.304-6.286-4.616-10.336-.623-9.231-1.246-18.448-1.444-27.623-.198-13.451-.227-27.029 0-40.423.297-14.965.609-30.059 1.33-45.109.525-11.355 1.77-22.767 2.734-34.207l.297-2.252c1.954-12.445 5.423-12.7 14.116-14.682 6.782-1.515 13.55-.892 20.417-.977 14.3-.085 28.558.113 42.83.17.835.113 1.586-.07 2.747-.198l-.099-.297zm84.655 73.922a79 79 0 0 1-.949 3.879c-1.996 8.453-6.853 12.799-15.433 13.932a57 57 0 0 1-6.909.354c-5.14.028-10.308.184-15.433.071-5.847-.071-11.851-.014-17.642-.51-6.938-.495-11.709-4.29-14.116-10.888-.835-2.251-1.515-4.63-2.449-7.334l-71.785-.481c.708 33.088 1.19 65.724 1.912 98.685l217.703-4.233c.057-31.277.156-61.831.198-93.107l-74.927-.482-.156.128zm-144.97-10.874c19.27 1.161 216.089 1.416 219.954.354 0-17.146.17-34.264.156-51.268-.538-.213-1.09-.425-1.642-.51-71.926-.51-143.867-1.005-215.651-1.487-.566-.07-1.288-.028-1.869.043-.425-.057-.736.184-1.175.269 0 0-.283-.043-.312.24-.184.255-.354.524-.538.78l1.09 51.565zm154.4-62.581c-1.629-8.07-3.059-15.546-6.697-22.47-.213-.594-.708-1.09-1.077-1.571-2.322-4.021-5.96-5.65-10.661-5.72-11.539-.255-23.05-.666-34.59-.92-5.55-.17-11.1.792-16.211 2.675-2.251.835-4.262 1.997-5.933 3.78-1.671 1.77-2.931 3.752-3.525 6.103-1.515 4.941-2.761 9.91-4.135 14.866-.127.977-.269 1.968-.254 2.96l2.251.297c3.992.099 3.964.24 5.054-3.61a39.8 39.8 0 0 1 6.825-13.65c1.26-1.967 2.917-3.61 4.927-4.77 1.897-1.318 4.134-2.026 6.471-2.422 10.817-1.84 21.804-1.784 32.565.085 8.509 1.572 14.144 6.329 16.452 14.782.991 3.27 2.138 6.427 3.271 9.726l2.803.383c.835.113 1.727-.057 2.605-.227l-.099-.297zm-65.909-.694c4.007.963 46.582.963 49.555.071l-2.789-7.943c-.538-1.36-1.359-2.605-2.52-3.625-1.147-1.005-2.492-1.614-3.894-1.812-9.812-2.464-19.595-1.911-29.337-.651-2.038.297-3.752 1.36-5.097 2.888-2.718 3.214-4.785 6.924-5.748 10.945l-.156.127zm-96.69 169.167c-.82-41.825-1.557-83.21-2.265-124.723l-.708-.099-.495 3.653c-.397 7.235-.78 14.328-1.034 21.577-.439 11.795-.878 23.603-.892 35.454-.113 14.696.028 29.577.198 44.316.029 5.139.623 10.222 1.232 15.305.17 1.883.594 4.078 4.106 4.545h-.142zm91.352-95.316c1.713 6.372 2.747 7.221 8.241 7.816l2.661.354c6.428 0 12.871-.128 19.299-.128 4.729-.085 9.557.142 14.172-.24 4.489-.397 5.551-1.968 6.131-7.32-16.806-.397-33.528-.354-50.645-.51h.141zM52.709 32.197c-.68.764-1.728 2.194-2.889 3.469-3.2 3.568-6.626 6.824-9.557 10.576-3.993 5.324-7.093 11.34-8.934 17.656l-.1.708c-1.146 3.27-3.1 5.012-5.663 4.955-2.562-.057-4.587-2.039-5.394-5.578-.708-3.243-1.416-6.47-2.265-9.727-1.728-7.377-7.009-11.653-13.267-15.065-.396-.198-.963-.27-1.345-.609-3.979-2.251-4.403-6.584-1.005-9.557 2.067-1.586 4.134-3.157 6.314-4.446 6.4-3.992 10.96-10.392 12.8-17.712a11.46 11.46 0 0 1 3.115-5.154c.51-.651 1.133-.99 1.897-1.317.765-.325 1.472-.368 2.336-.396.835.113 1.544.212 2.195.722.665.368 1.302.892 1.642 1.643 1.459 1.91 2.591 4.063 3.582 6.343 2.818 6.668 7.49 12.29 13.522 16.381 2.747 1.94 3.893 3.95 3.327 7.164l-.283-.042zm-13.522-1.388L28.058 17.882c-2.747 6.627-8.013 10.775-13.167 15.093 2.435 2.04 4.7 4.347 6.824 6.627 1.827 2.392 3.61 5.054 5.126 7.546 4.02-5.465 8.014-10.775 12.19-16.367h.142zM307.705 151.539l-2.11-.283c-.835-.113-1.642-.509-2.293-1.019s-1.246-1.317-1.444-2.053c-.326-.765-.34-1.756-.227-2.605.113-.85.51-1.643 1.161-2.28.85-1.033 1.812-1.756 2.903-2.463 6.725-4.39 10.279-10.619 11.596-18.307a56 56 0 0 1 1.345-6.825c.17-1.26.877-2.308 1.982-3.016s2.294-1.118 3.412-.977c1.119.142 2.351.595 3.101 1.416.892.836 1.317 1.897 1.288 3.172.836 10.831 8.609 16.721 15.759 23.107 1.147 1.005 2.619 1.784 3.78 2.647 3.866 3.087 3.724 7.363-.368 10.237-1.118.849-2.35 1.543-3.582 2.237-4.941 2.761-8.708 7.405-10.308 12.898-1.019 3.299-1.883 6.598-2.76 9.911a30.3 30.3 0 0 1-1.544 5.083c-.41.949-1.09 1.714-2.024 2.294-.921.453-1.954.736-2.945.609-.992-.128-1.969-.269-2.733-.935-.765-.665-1.373-1.472-1.685-2.364-.411-1.204-.665-2.52-.793-3.681-.722-5.239-1.317-10.464-2.039-15.702-.311-1.897-.637-3.795-1.246-5.593-1.231-3.596-3.638-5.918-7.943-5.777l-.311.241zm16.991-17.018-6.089 9.189c3.979 3.384 6.655 7.886 7.986 12.927l9.628-9.996-11.511-12.12z"/></svg>