<svg xmlns="http://www.w3.org/2000/svg" width="363" height="317" fill="none" viewBox="0 0 363 317"><path fill="#102185" d="m333.483 143.817 11.681.17c3.568.014 7.15-.113 10.817.198 4.673.298 6.669 2.535 6.528 7.235-.425 10.364-1.02 20.842-1.317 31.22-.482 10.789-.821 21.578-1.175 32.381-.34 10.803-.935 21.28-1.402 31.927-.524 11.058-.878 22.003-1.26 33.089-.34 7.377-.567 14.909-.921 22.286-.155 2.407-.169 4.828-.184 7.249 0 4.559-1.67 6.499-6.23 6.499-6.428.056-12.813-.17-19.227-.255l-41.287-.708c-10.958-.227-21.775-.425-32.734-.637l-40.452-.609-32.026-.552c-13.663-.269-27.185-.524-40.862-.651l-105.34-1.813c-8.836-.099-17.657-.34-26.619-.453-1.557-.057-3.13-.099-4.672-.297-1.827-.227-3.582-1.02-4.843-2.308-1.246-1.444-2.024-3.243-1.94-5.097-.056-4.149.029-8.269.1-12.261.184-14.102.51-28.19.693-42.292.227-10.959.567-21.762.638-32.735.212-13.238.297-26.505.495-39.602.198-10.817.552-21.62.595-32.309.198-10.818.283-21.791.51-32.749.085-4.12.17-8.255.396-12.36.325-3.81 1.232-5.268 4.998-5.806 4.927-.665 9.968-1.048 14.966-.99 8.721-.2 17.415-.114 26.136-.185.85.1 1.742-.212 3.045-.34-.623-4.219-1.232-8.424-1.728-12.488-.269-1.316-.368-2.76-.481-4.19-.127-1.303.326-2.677 1.175-3.71.85-1.034 2.209-1.727 3.512-1.84a4.6 4.6 0 0 1 1.967.24c.708.085 1.232.439 1.742.934.524.354 1.02.977 1.232 1.586.354.609.566 1.218.623 1.926.566 3.497.835 7.093 1.373 10.732.283 2.322.864 4.53 1.388 7.164l14.697-.028.68-12.332c.339-8.524.665-16.891 1.019-25.415.41-11.37.948-22.569 1.359-33.924.255-4.39.24-8.82.623-13.054.311-4.814 1.94-6.47 6.668-6.584 6.442-.198 12.842.029 19.242.113 9.118.128 18.208.411 27.326.538 8.538.199 16.934.397 25.472.595l33.442.736 52.671.991c.708.085 1.557.057 2.279 0 7.363.482 9.543 2.464 9.911 9.798.411 7.037.241 14.159.368 21.167.128 4.73.113 9.43.227 14.3a36 36 0 0 0 2.138 1.119c17.641 6.187 29.507 18.647 37.747 34.943a89.8 89.8 0 0 1 8.948 35.921c.368 6.187-.255 12.374-.439 18.491-.071 1.699.014 3.285-.085 5.267l14.116.042.298-2.392c-.609-7.774-1.345-15.575-1.954-23.362-.128-1.303-.114-2.577.184-3.823.269-.963.948-1.883 1.741-2.492s1.827-.92 2.846-1.076c1.161-.141 2.393.297 3.299.977s1.629 1.77 1.77 2.931c.595 3.214.906 6.527 1.204 9.854.467 5.48.778 10.945 1.246 16.424.155 1.02.339 1.897.495 2.917l.595-.212zM122.689 301.671c1.784-67.126 3.639-133.798 5.409-200.783l-114.232.793c-1.09 66.206-2.28 131.972-3.356 198.051L122.83 301.7h-.142zm50.66 1.02c.552-9.062 1.048-17.557 1.529-26.066.821-13.451 1.487-26.93 2.166-40.395.552-9.061 1.133-18.264 1.544-27.34.693-13.606 1.529-27.199 2.222-40.819.482-9.642.836-19.298 1.6-28.912 1.062-11.992.425-24.055 3.186-35.991 3.129-13.734 8.552-26.335 18.01-36.997 10.293-11.709 23.008-18.689 38.696-19.737 2.166-.155 4.304-.184 6.866-.141l-.439-33.16-156.425-3.03c-1.245 27.242-2.406 53.775-3.454 80.605.566.071 1.104.283 1.67.354 12.573-.156 25.146-.297 37.705-.311 1.728-.071 3.228.396 4.885.892 4.502 1.699 5.763 5.281 5.465 9.953-.41 6.796-.552 13.635-.693 20.459-.326 9.515-.496 18.916-.68 28.445-.269 9.104-.552 18.194-.821 27.298-.34 11.935-.539 23.9-.893 35.849-.339 11.936-.651 23.603-1.118 35.383-.283 12.658-.736 25.443-1.02 38.115-.169 4.828-.198 9.67-.283 14.951l40.14.708.156-.127zm32.183.566c.085-2.987.24-5.394.396-7.801.594-11.625 1.019-23.135 1.586-34.618.226-5.253 2.308-7.136 7.461-7.207 11.172-.325 22.314-.509 33.599-.538 8.424-.099 9.911 1.798 9.699 10.336-.269 10.237-.269 20.516-.397 30.767-.099 3.129.071 6.286.043 9.996l35.297.679c.581-24.183 1.388-47.912 1.812-71.968l-107.393-.354c-1.359 23.518-2.534 46.766-3.894 70.425l21.918.439zm-17.175-81.171 107.096.467c.368-15.645.821-30.71 1.175-46.228l-105.737-1.005c-.792 15.589-1.699 30.894-2.506 46.624v.142zm109.956-101.758-104.038-4.361c-.92 16.58-1.769 32.593-2.647 48.89l105.453.977c.482-15.348.751-30.158 1.232-45.506m7.306 115.761a38 38 0 0 0 5.678.283c7.136.028 14.399.071 21.535.113 4.403.114 6.711 2.266 6.725 6.683.015 4.432.057 8.708-.198 13.097s-2.237 6.569-6.697 6.867c-4.177.339-8.481.509-12.658.849l-15.249.963c-.396 13.507-.736 26.59-.991 40.111l7.15-.113.51-4.078c.878-7.022 1.741-14.045 2.478-21.096.453-3.653 2.35-6.272 5.961-6.683 4.332-.453 8.637-.637 13.012-.241 4.36.538 6.583 3.243 6.612 7.674.042 5.423-.199 10.818-.284 16.085-.07 2.846-.113 5.55-.24 8.82l6.838.142c1.997-50.546 4.106-100.795 6.23-151.171l-44.189-.354c-.241 8.82-.481 17.627-.75 26.731 1.543.198 2.675.326 3.964.212 6.853 0 13.578-.169 20.431-.169 5.706 0 7.617 1.798 8.07 7.419.453 4.332.637 8.636.935 13.096.325 5.466-1.827 7.759-7.419 8.071-3.88.226-7.731.184-11.596.269l-15.348.665c-.085 8.694-.411 17.075-.467 25.627v.142zm-8.594-126.054c-.425-2.336-.638-4.078-1.147-5.706-1.303-4.446-2.761-8.764-4.503-13.111-4.658-10.704-11.383-19.822-21.11-26.448-13.153-8.906-27.312-10.959-42.009-4.078-18.803 8.934-27.822 25.217-32.579 45.18l101.348 4.177zm-58.617 153.649c-.68 13.465-1.317 26.66-2.11 39.97l10.973.085c.128-13.678.326-26.789.439-40.324l-9.146.142zm-10.435.141-10.152.17c-.651 13.324-1.246 26.095-1.897 39.432l9.84.085c.779-13.167 1.388-26.08 2.195-39.531v-.141zm78.58-64.011 23.193-.679a246 246 0 0 1-.468-7.759l-22.427.212c-.071 2.846-.241 5.395-.326 8.382v-.141zm-1.529 54.752 23.999-1.444-.226-6.16-23.376-.198c-.071 2.846-.227 5.253-.255 7.816h-.142zm19.129 28.628-2.719 21.918 6.966.156c.241-7.674.567-14.909.793-22.442l-4.899.397h-.141z"/><path fill="#102185" d="m105.443 217.64-.254 2.11c-.142 1.118-.864 2.322-1.671 3.072-.949.736-2.138 1.161-3.285 1.161-1.26-.156-2.365-.439-3.27-1.26-.907-.821-1.473-1.897-1.615-3.058a28 28 0 0 1-.226-5.027c.155-9.259.439-18.491.594-27.751.085-4.12 2.266-6.711 5.409-6.753 3.129.099 5.097 2.633 5.04 6.47-.085 9.84-.325 19.794-.537 29.606l-.156 1.26v.142zM42.834 277.192l-.24 1.968c-.284 1.104-.977 2.166-1.912 2.761a4.38 4.38 0 0 1-3.242.877c-1.119-.141-2.237-.424-3.13-1.246-.891-.821-1.33-1.883-1.458-3.171-.226-3.88-.184-7.731-.127-11.568.156-6.966.425-13.79.722-20.742l.283-2.251c.156-1.26.723-2.336 1.544-3.228.962-.878 2.024-1.317 3.313-1.445 1.26.156 2.633.609 3.525 1.445a6.06 6.06 0 0 1 1.572 3.483c.07 1.727.127 3.582.042 5.422-.255 8.963-.538 18.053-.722 27.595l-.156.128zM45.779 216.791c-.199 1.543-.17 2.548-.454 3.653-.155 1.26-.722 2.336-1.684 3.214-.963.877-2.152 1.302-3.427 1.146-1.274-.155-2.492-.594-3.384-1.415a4.5 4.5 0 0 1-1.444-3.314c-.184-2.024-.198-4.162-.1-6.144.326-8.382.496-16.637.822-25.005.128-.976.241-1.967.524-3.072s1.119-2.138 2.053-2.747a4.4 4.4 0 0 1 3.242-.878c1.119.142 2.209.567 2.974 1.374.75.807 1.33 1.883 1.359 2.874.311 3.172.34 6.456.099 9.571-.17 7.108-.609 14.046-.864 20.729l.284.028zM94.159 247.629l.58-4.63c.156-1.26.737-2.478 1.7-3.356.962-.878 2.18-1.444 3.454-1.43 2.563.028 4.46 1.982 4.956 4.899.155 1.019.184 2.025.042 3.143-.694 9.047-1.246 18.109-2.11 27.27-.141 1.118-.283 2.251-.693 3.341-.142 1.119-.977 2.166-1.912 2.761a4.39 4.39 0 0 1-3.242.878c-1.119-.142-2.067-.538-2.832-1.345s-1.359-1.742-1.515-2.761a8.3 8.3 0 0 1-.085-2.719c.637-8.622 1.161-17.401 1.813-26.023h-.142zM73.374 274.856c-.085.708-.312 1.387-.821 2.038-.369.666-1.005 1.161-1.614 1.515s-1.374.68-2.096.737-1.444.113-2.11-.255c-2.477-.736-3.908-3.059-3.766-6.457.1-3.129.184-6.116.44-9.217.254-6.669.65-13.323 1.061-19.992.17-1.402.496-2.789 1.204-3.992.382-.808 1.033-1.445 1.953-1.898.78-.481 1.77-.495 2.62-.382s1.826.227 2.463.878c.793.524 1.26 1.302 1.586 2.194.439 1.048.58 2.209.58 3.356-.523 9.925-1.061 19.992-1.628 31.475h.142zM67.754 190.271c.07-1.699.127-3.271.466-4.941.156-1.261.737-2.478 1.7-3.356s2.152-1.303 3.582-1.26c2.563.028 4.46 1.982 4.941 5.04.057.722.085 1.586 0 2.28-.439 9.217-.864 18.434-1.302 27.666l-.241 1.968c-.156 1.26-.878 2.463-1.84 3.341-.964.878-2.294 1.289-3.583 1.26-1.26-.155-2.35-.58-3.228-1.543s-1.317-2.025-1.303-3.299c-.198-4.163.184-8.396.283-12.658.015-2.421.312-4.814.34-7.376s.283-4.531.297-6.952l-.127-.156zM78.415 159.632l-.241 1.968a4.95 4.95 0 0 1-1.515 2.945c-.807.751-2.025 1.317-3.158 1.317-1.302.127-2.534-.312-3.44-1.005-1.034-.836-1.614-1.912-1.756-3.073-.368-2.761-.439-5.621-.368-8.467-.043-6.569.057-13.125.142-19.524.014-1.289.028-2.563.325-3.809.156-1.26.722-2.336 1.544-3.228.963-.878 2.024-1.317 3.298-1.303 1.289.014 2.394.298 3.413 1.275a4.9 4.9 0 0 1 1.6 3.199c.297 2.181.325 4.319.34 6.457.028 7.844-.1 15.687-.057 23.39l-.127-.156zM39.21 131.797l.198-1.543c.156-1.26.722-2.337 1.543-3.229.963-.877 2.025-1.316 3.314-1.444 1.288.014 2.506.453 3.525 1.444.892.822 1.444 2.181 1.572 3.483.226 3.88.184 7.731.127 11.568 0 5.848-.155 11.539-.141 17.245-.057.425.056.722 0 1.147-.156 3.554-2.308 5.989-5.183 6.06s-5.125-2.35-5.252-5.933c-.057-4.148.028-8.268.099-12.261.099-5.408.085-10.973.198-16.523zM106.69 159.434l-.454 3.653c-.141 1.118-.821 2.039-1.769 2.775-.949.736-1.982 1.033-3.129 1.033-1.119-.141-2.251-.283-3.143-1.104-.92-.68-1.515-1.614-1.799-2.789a23.5 23.5 0 0 1-.283-4.602c.312-8.24.467-16.353.906-24.565.156-1.26.312-2.534 1.034-3.724.382-.807 1.033-1.444 1.812-1.911s1.657-.651 2.634-.524c.849.099 1.826.227 2.619.751.793.523 1.402 1.316 1.741 2.067.411 1.331.666 2.647.637 4.077-.169 8.255-.467 16.354-.792 24.721v.142zM146.943 37.6c1.826-2.054 3.299-3.583 4.616-4.985 1.161-1.288 2.18-2.577 3.313-3.724 1.968-2.038 4.261-3.327 7.263-2.236 2.605.892 3.71 3.454 3.696 7.022.042 1.996.212 4.021.254 6.017 2.252.284 4.474-.438 6.216-1.797 4.035-2.634 7.929-5.296 11.837-7.944s6.584-2.463 8.552.071 1.146 5.706-2.606 8.382-7.815 5.451-11.836 7.943a32 32 0 0 1-5.48 2.747c-7.037 2.69-11.681.977-16.551-5.763-1.119 1.006-2.251 2.01-3.511 2.988-1.742 1.359-3.724 2.393-5.664 3.143-5.182 1.5-8.254-.17-11.355-6.258-1.246.85-2.351 1.699-3.597 2.548-2.831 2.082-6.13 3.37-9.684 3.356-2.138.014-4.219-.524-6.046-1.897-1.699-1.204-3.044-3.087-3.497-5.14-1.94-6.23-.764-12.219 1.94-17.882.226-.68.58-1.218 1.076-1.727a4.5 4.5 0 0 1 1.699-1.076c.595-.213 1.331-.411 2.039-.312.708.1 1.402.17 1.954.382 2.704 1.19 3.653 3.88 2.534 7.165-1.118 3.284-2.619 6.102-1.26 10.123 1.515-.666 2.902-1.5 4.304-2.464 3.016-2.477 5.777-5.125 8.651-7.631.963-.878 1.926-1.756 3.002-2.336.778-.482 1.529-.807 2.392-.85.864-.042 1.685.213 2.535.312.807.382 1.458.892 1.94 1.67.495.638.807 1.53.991 2.407.24 2.605.212 5.168.184 7.73h.141zM118.823 61.782l-8.013-.991c-1.26-.156-2.478-.736-3.356-1.699s-1.444-2.18-1.43-3.455c-.014-3.285 2.52-5.394 6.315-4.927 4.913.609 9.982 1.246 14.952 1.43 7.659.382 15.333.623 23.007.864 6.669.255 13.352.524 19.879.764a6.7 6.7 0 0 1 3.129 1.246c.892.822 1.473 1.898 1.628 2.917.142 1.161-.014 2.421-.693 3.342-.708 1.047-1.643 1.798-2.691 2.095a20.6 20.6 0 0 1-7.235.807 1663 1663 0 0 1-37.605-1.67c-2.69-.185-5.338-.666-8.014-.992l.099.297zM277.386 204.898c-.397 3.228-2.237 5.422-4.828 5.536l-1.968-.241c-.567-.071-1.218-.581-1.742-.935s-.878-.962-1.232-1.585-.425-1.19-.481-1.912c-.383-3.752-.623-7.645-.425-11.468.156-1.26.58-2.351 1.543-3.228s2.025-1.317 3.299-1.303c1.289.014 2.393.297 3.413 1.274 1.019.977 1.472 1.897 1.614 3.058.552 3.639.509 7.335.821 10.662v.142zM245.473 204.501c-.453 1.373-.708 2.194-1.09 3.001-.269.963-.949 1.884-1.855 2.337s-1.826.92-2.803.793c-1.147 0-2.252-.284-3.002-1.091-.92-.679-1.359-1.741-1.501-2.902-.382-3.752-.623-7.646-.424-11.469.155-1.26.594-2.492 1.401-3.256a4.9 4.9 0 0 1 3.299-1.303c1.147 0 2.393.298 3.299.977.906.68 1.501 1.756 1.77 2.931.58 3.356.722 6.796.92 9.812v.141zM208.618 191.079c1.26.156 2.336.722 3.228 1.543a4.9 4.9 0 0 1 1.303 3.299c.184 3.157.198 6.442.099 9.571-.028 1.416-.326 2.676-1.317 3.696-.991 1.019-2.194 1.585-3.638 1.684l-1.969-.24c-.708-.085-1.217-.581-1.727-1.076a6.7 6.7 0 0 1-1.232-1.586c-.212-.595-.41-1.331-.481-1.911-.269-3.597-.114-7.15.184-10.676.085-.708.156-1.26.524-1.925.354-.524.708-1.048 1.189-1.558a5.1 5.1 0 0 1 1.826-.92c.595-.213 1.317-.269 1.997-.043v.142zM211.874 138.55c.283-1.104.864-2.322 1.274-3.412.383-.807 1.189-1.557 1.968-2.039.906-.453 1.784-.637 2.776-.51.849.1 1.798.51 2.421 1.161.637.652 1.104 1.416 1.444 2.181.297 1.033.453 2.053.481 3.058.042 3.143.057 6.428-.057 9.699-.028 3.709-1.897 6.045-5.04 6.074-2.718.085-5.012-2.195-5.309-5.508s-.001-6.853-.114-10.576zM251.958 147.81l-.198 1.543c-.156 1.26-.736 2.478-1.685 3.214-.963.878-2.152 1.303-3.441 1.288-1.26-.155-2.492-.594-3.384-1.415-.877-.963-1.444-2.181-1.444-3.313a126 126 0 0 1-.425-10.322c.029-1.416.326-2.676 1.317-3.696.991-1.019 2.195-1.585 3.639-1.684 2.718-.085 4.913 1.755 5.224 5.068.312 3.314.354 6.315.51 9.628h-.142l.029-.297zM280.558 148.362c-.538 4.361-2.506 6.4-5.225 6.484-2.718.085-4.743-2.01-5.054-5.196-.34-3.044-.368-6.187-.283-9.16a8.24 8.24 0 0 1 1.302-3.554c.383-.807 1.175-1.43 1.926-1.756.892-.311 1.77-.495 2.605-.241.977.128 2.067.538 2.846 1.204s1.218 1.727 1.373 2.733c.425 3.483.397 7.178.51 9.627zM268.65 90.383l2.251.283c3.073.523 4.828 2.45 4.644 5.14-.085.707-.17 1.401-.524 1.925-.226.68-.722 1.19-1.189 1.557a4.5 4.5 0 0 1-1.699 1.076c-.595.213-1.317.269-2.039.312-4.559 0-9.26-.156-13.819-.142-4.29.043-8.707.057-13.125-.056-1.26-.156-2.534-.312-3.738-.892-.934-.538-1.543-1.331-2.01-2.251-.454-.907-.453-2.053-.199-3.016.142-1.119.836-2.18 1.784-2.917s2.124-1.02 3.271-1.02c5.451-.184 10.732-.24 16.155-.268 3.285-.014 6.414.084 10.095.254h.142zM259.646 88.132c-5.055-.623-8.538-3.625-9.557-8.042-.425-1.19-.241-2.606.17-3.681.438-1.232 1.401-2.11 2.491-2.832.595-.213 1.19-.425 1.77-.496l1.827.227c.566.07 1.217.58 1.6.906.523.354.877.963 1.09 1.557.226.454.453.907.708 1.232.382.34.779.666 1.189.722l1.402.17c.425.057.878-.17 1.331-.41.453-.227 1.033-.298 1.472-.383 1.161-.141 2.266.142 3.342.694 1.076.566 1.812 1.515 2.251 2.563.439 1.047.425 2.336 0 3.426s-1.105 1.996-2.181 2.577c-2.803 1.94-5.975 2.11-9.203 1.713l.284.028z"/></svg>