<svg xmlns="http://www.w3.org/2000/svg" width="200" height="140" fill="none" viewBox="0 0 200 140"><path fill="#102185" d="M195.756 12.523c1.218.382 2.209.977 2.917 2.081.736.963 1.118 2.124 1.146 3.469.128 1.968.085 4.035.043 6.088-.85 26.703-1.671 53.279-2.648 79.954-.297 9.104-.595 18.194-.977 27.114-.071.722-.184 1.571-.269 2.293-.41 3.724-2.124 5.423-6.017 5.55-4.786.156-9.671.128-14.513-.042-21.549-.297-43.099-.581-64.733-1.062L9.187 136.496c-1.16-.071-2.378-.001-3.355-.156-.765.056-1.43-.142-2.252-.397-.82-.255-1.274-.693-1.854-1.175-.581-.481-.963-1.189-1.204-1.855-.24-.665-.439-1.472-.368-2.18-.184-2.28-.184-4.658-.1-6.853.242-28.09.44-56.04.68-84.116.114-7.08.27-14.286.255-21.408-.014-2.818.51-5.48-.085-8.325-.538-2.096.255-4.658 1.062-6.782C2.802.545 5.251-.178 7.856.035c3.767.283 7.674.595 11.44.878l173.019 11.284c1.119.198 2.252.397 3.413.468l.042-.142zM10.617 126.13c.991.156 1.572.184 2.025.184l94.169 1.275 76.556 1.161c.892-.014 1.826-.17 2.903-.284 1.146-35.807 2.435-71.118 3.468-106.529L10.618 10.243c.027 1.345 0 2.379.028 3.27.17 1.388.325 2.776.353 4.107-.226 34.76-.368 69.688-.594 104.448.028 1.345.099 2.548.226 4.063z"/><path fill="#102185" d="M68.357 60.705 32.21 109.99c11.567.467 22.852.396 34.221.509-.127-1.515-.326-2.775-.27-3.936-.112-3.44 1.346-5.805 3.852-6.215 2.988-.553 5.494 1.401 6.202 4.884.212 1.699.396 3.526.297 5.281 10.846.397 21.776.51 32.607.454-.085-1.657-.24-3.045-.269-4.39a5.13 5.13 0 0 1 1.048-3.383c.736-.963 1.841-1.657 2.959-1.898 1.246-.212 2.605.213 3.597.822 1.09.778 1.784 1.882 2.166 3.043.439 1.912.708 3.922.934 6.075l36.742.552c.198-1.119.269-2.294.552-3.242.283-.949.722-1.855 1.558-2.634.793-.651 1.812-1.076 2.846-1.048 1.033.029 2.024.184 2.845.878.864.567 1.501 1.359 1.926 2.379a20.84 20.84 0 0 1 .665 10.279c-.439 2.379-2.123 3.497-4.714 3.723-1.657.085-3.314.156-5.055.071l-124.044-1.911c-1.473 0-3.002.113-4.658.184-3.752.17-5.437-1.09-5.89-4.927-.51-4.602-.51-9.345-.085-14.102.948-12.162 1.486-24.438 2.024-36.728.397-8.467.397-17.075.694-25.726 0-1.472.113-2.775.397-4.176.467-3.413 2.265-4.928 5.663-4.913 1.926 0 3.894-.128 5.777 0 1.16.07 2.294.268 3.37.594.948.297 1.812.85 2.322 1.6.637.793.934 1.77.948 2.662.156.934-.184 2.024-.708 2.746-.566.864-1.359 1.501-2.194 1.841-1.643.524-3.483.708-5.564 1.246l-.284 15.773c1.572.184 3.002.34 4.262.58 1.119.198 2.166.666 3.072 1.544.78.835 1.161 1.996 1.232 3.2.071 1.203-.439 2.378-1.316 3.299-.878.92-1.94 1.472-3.186 1.684-1.246.213-2.591.241-4.106.354l-.892 21.068.68.213c2.831-3.427 5.762-6.67 8.466-10.124 6.315-8.424 12.347-16.934 18.52-25.386 1.218-1.996 3.016-3.511 5.281-4.148 4.05-1.12 5.947-.538 8.127 2.959 2.874 4.601 5.621 9.146 8.495 13.748L93.955 82.72l3.498-3.653a231 231 0 0 1 6.258-6.81c3.2-3.157 6.244-3.398 9.797-.524 2.011 1.657 3.71 3.809 5.636 5.748.679.652 1.331 1.445 2.336 2.507l26.477-30.498c-.808-.255-1.572-.184-2.422-.312a26.7 26.7 0 0 1-4.559.368c-1.161-.07-2.166-.665-2.987-1.373a6.5 6.5 0 0 1-1.586-3.016 4.7 4.7 0 0 1 1.005-3.242c.609-1.005 1.572-1.742 2.69-1.982.808-.198 1.431-.297 2.223-.496 5.14-.778 10.407-1.529 15.49-2.166 1.203-.07 2.237-.042 3.398.014 1.034.029 1.982.312 2.704.836s1.331 1.444 1.657 2.293c.623 1.827.934 3.696.793 5.579-.453 5.79-1.317 11.454-2.039 17.146-.156.991-.312 1.982-.779 3.016a5.1 5.1 0 0 1-2.223 2.874c-.962.736-2.223.948-3.384.878-1.076-.34-2.123-.807-2.86-1.77s-1.161-1.996-1.104-3.157c0-1.926.283-3.767.311-6.273-1.231 1.104-2.109 2.01-2.987 2.931-7.306 8.269-14.782 16.622-22.116 25.018-.694.821-1.571 1.742-2.279 2.563-3.498 4.106-7.405 3.341-10.563.142-1.699-1.714-3.341-3.554-5.04-5.267-.637-.793-1.473-1.487-2.379-2.365-1.756 1.826-3.327 3.568-5.04 5.253-1.317 1.373-2.634 2.746-3.851 4.29-1.969 2.053-4.588 3.327-7.448 3.469-2.591.24-4.191-1.303-5.451-3.47-2.549-4.204-5.239-8.437-7.886-12.812l-9.657-15.73c-.453-.44-.877-1.006-1.515-1.799l.213-.226z"/></svg>