<svg xmlns="http://www.w3.org/2000/svg" width="117" height="268" fill="none" viewBox="0 0 117 268"><path fill="#102185" d="m12.954 157.686-6.315-.807c-5.196-.665-7.532-3.54-6.329-8.523 1.742-6.91 4.05-13.749 6.358-20.601.424-1.09.976-2.011 1.925-2.747.807-.75 1.87-1.189 2.903-1.487 2.35-.552 3.1-1.883 3.653-3.95 1.175-4.701 2.492-9.387 3.808-14.074.58-2.35 1.6-4.643 2.322-6.98 1.275-4.403 4.474-5.989 8.765-6.017 4.29-.014 8.169-.24 12.29-.128 13.648.468 27.141.92 40.79 1.388.977.127 2.11.27 3.101.255 4.262.113 6.98 2.322 8.651 5.96 3.865 8.779 7.759 17.416 9.543 26.775.849.113 1.515.481 2.195.707 1.684.213 3.143 1.119 4.417 2.28s2.081 2.69 2.449 4.304c1.261 5.735 2.507 11.596 3.328 17.415.58 4.361-1.43 6.669-5.933 7.235-1.6.227-3.313.284-5.04.354l-1.515 11.795c-1.487 14.937-2.988 29.874-4.333 44.84-1.401 14.243-2.817 28.614-4.219 42.858l-.439 3.369c-.156 1.261-.722 2.337-1.557 3.229a4.51 4.51 0 0 1-3.328 1.43c-2.18.297-4.36.58-6.484.453-16.354-.524-32.664-1.345-48.848-1.996l-4.219-.539c-1.402-.184-2.62-.764-3.625-1.755-1.019-.991-1.571-2.195-1.826-3.526-.368-1.614-.566-3.355-.793-4.955-1.642-11.639-3.426-23.277-4.786-35.014-2.194-19.553-4.12-39.078-6.173-58.603-.141-1.161-.269-2.322-.425-3.341l-.34.382zm10.577-.071c.155 2.167.226 3.738.467 5.196 2.506 18.307 3.398 36.841 6.64 54.95 1.997 11.1 2.973 22.371 4.375 33.683.41 3.483.552 3.498 3.95 3.653 11.214.439 22.286 1.005 33.5 1.444l11.921.538.524-4.077c.836-8.736 1.515-17.359 2.492-26.095.538-4.219 1.657-8.495 2.209-12.7s1.09-10.704 1.642-16.07c.199-1.543.27-3.242.283-4.389a540 540 0 0 1-7.008-3.186c-.566-.07-1.26-.155-1.855.043-1.812.764-3.71 1.09-5.663.694-1.968-.255-3.724-1.048-5.126-2.365-.283-.043-.594.213-.892.312-7.589 4.587-16.084-.354-16.013-10.903.142-1.118.283-2.251 1.133-3.284.693-.906 1.755-1.487 2.945-1.77s2.42.028 3.497.595a5.64 5.64 0 0 1 2.208 2.845c.44 1.062.595 2.068.92 2.832 2.592-1.232 4.786-2.818 7.278-3.341 3.087-.751 4.56 2.293 6.33 4.092 4.148-1.94 8.509-1.091 13.096 2.534 1.175-7.985 1.869-15.603 2.634-23.786l-71.63-1.345.157-.128zm-12.05-10.689c31.872.807 62.907 1.514 94.425 1.713a463 463 0 0 0-1.629-8.481c.057-.425-.17-.878-.41-1.189-.241-.312-.496-.638-.737-.949-.24-.312-.651-.51-1.076-.566l-1.26-.156c-7.815-.284-15.63-.581-23.418-1.006-18.152-.906-36.317-1.812-54.624-2.59-2.407-.17-4.842-.057-7.264-.071a354 354 0 0 1-4.134 13.309h.142zm71.799-43.311c-1.685 8.636-5.706 14.399-13.805 14.073-8.24-.34-10.066-7.15-11.454-14.173a200 200 0 0 0-26.222-.368c-.722.057-1.883 1.331-2.138 2.152-1.529 5.225-2.902 10.336-4.29 15.575-.113.849-.212 1.685-.042 2.563 7.801.424 15.305.821 22.823 1.217s15.193.665 22.725.92c7.674.269 14.838 1.19 22.456.751-1.445-7.603-4.644-13.876-7.377-20.36-.326-.751-1.416-1.175-2.69-2.35zM91.053 27.54c2.35 1.727 4.347 3.979 5.579 6.57 1.373 2.605 2.024 5.394 2.067 8.396.113 6.867-.75 13.606-4.375 19.567-1.713 3.341-4.474 5.989-7.986 7.688a7.4 7.4 0 0 0-2.378 1.84c-.666.78-1.076 1.714-1.345 2.677-.68 1.91-1.614 3.653-2.945 5.182-1.346 1.543-2.903 2.62-4.744 3.525-2.166 1.289-4.785 1.67-7.305 1.345s-4.814-1.472-6.712-3.285c-1.656-1.5-3.143-3.256-4.176-5.252-1.034-1.997-1.6-4.206-1.728-6.5-.17-2.024-1.076-3.85-2.463-5.309-6.443-6.541-7.391-14.654-5.72-23.29.523-4.078 2.576-7.802 5.649-10.69.963-.878.92-2.733 1.118-4.276.977-4.304 1.161-8.991 2.818-13.054s4.545-7.547 8.396-9.77C68.513.667 72.93-.338 77.433.101c6.923.609 13.578 7.603 14.03 15.22a89.4 89.4 0 0 1-.721 12.332l.297-.099zM56.945 44.134c-.651 5.055-.368 9.515 3.384 12.573 1.416 1.175 2.662 2.62 3.469 4.162.778 1.671 1.274 3.44 1.317 5.31.17 2.025.778 3.95 1.84 5.663 1.43 2.18 3.44 2.152 5.012-.07.878-1.317 1.657-2.931 2.025-4.588.184-1.402.934-2.874 1.925-3.893.992-1.02 2.38-1.84 3.852-2.223 1.628-.51 3.171-1.303 4.474-2.563 1.16-1.274 2.081-2.874 2.435-4.545.906-3.738 1.53-7.504 1.6-11.355.184-1.402-.34-2.902-1.034-4.134-.693-1.232-1.713-2.223-3.058-2.818-5.55-3.426-6.159-5.366-4.106-11.383a28 28 0 0 0 1.289-6.683c.269-5.395-4.05-8.51-9.274-6.754-1.36.538-2.605 1.373-3.738 2.379-.991 1.02-1.87 2.336-2.478 3.681a20.8 20.8 0 0 0-1.826 10.902c.41 3.483-.142 6.697-3.3 9.005-1.245.835-2.25 1.996-2.973 3.186-.736 1.33-1.062 2.718-1.104 4.134l.283.028z"/><path fill="#102185" d="M64.293 208.105c-1.118-.141-2.209-.566-3.299-.991-.948-.41-1.713-1.076-2.307-2.01-.454-.921-.75-1.954-.623-2.931s.552-2.067 1.217-2.846c.666-.779 1.586-1.218 2.747-1.359 3.922-.496 7.943-.694 11.808-.765 1.119.142 2.223.425 3.002 1.105.906.693 1.345 1.741 1.642 2.775.283 1.175.128 2.308-.439 3.369-.566 1.077-1.515 1.798-2.576 2.237a140 140 0 0 1-11.243 1.983l.057-.425v-.142z"/></svg>