<svg xmlns="http://www.w3.org/2000/svg" width="90" height="79" fill="none" viewBox="0 0 90 79"><path fill="#324980" d="M22.214 23.435c.165-1.287.318-2.5.48-3.708.08-.621.15-1.245.27-1.857.186-.933.6-1.311 1.584-1.302q.978.032 1.94.213 6.64 1.107 13.267 2.232c.372.06.75.102 1.2.165l.786-2.292c.198-.567.38-1.137.6-1.692.354-.9.846-1.161 1.8-.972 1.254.249 2.502.513 3.819.786.123-.324.252-.618.348-.918q1.185-3.684 2.358-7.374.06-.196.147-.381c.3-.6.825-.867 1.395-.672a1.113 1.113 0 0 1 .65 1.41c-.194.678-.437 1.344-.653 2.016-.678 2.1-1.353 4.179-2.058 6.363l2.175.486c.69.153 1.386.3 2.073.45 1.077.252 1.329.573 1.34 1.698v3.57l3.9.666c3.217.54 6.436 1.07 9.649 1.629 1.077.186 1.29.702.963 1.755q-.248 1.027-.342 2.082l-.426 2.904 2.244.453c1.065.216 2.136.405 3.195.648.9.21 1.2.6 1.104 1.5a192 192 0 0 1-.735 5.25c-.462 3.093-.945 6.18-1.413 9.27-.168 1.113-.555 1.5-1.665 1.449-1.5-.051-3-.153-4.5-.231l-.801-.054c-.135.9-.282 1.737-.396 2.589-.171 1.293-.3 2.589-.48 3.882-.093.735-.717 1.116-1.5.972-1.146-.207-2.295-.393-3.501-.6-.474 2.235-.927 4.38-1.404 6.62l2.289.406c.08.015.165 0 .246.02 1.31.175 1.722.727 1.5 2.07-.13.778-.3 1.549-.45 2.323-.3 1.542-.624 3.087-.948 4.629-.255 1.2-.76 1.578-1.953 1.389-2.766-.438-5.53-.9-8.292-1.35l-10.545-1.725c-3.516-.57-7.035-1.128-10.548-1.701q-5.802-.945-11.592-1.905c-.564-.093-1.131-.174-1.686-.3-1.15-.273-1.623-1.035-1.398-2.17.408-2.051.792-4.106 1.233-6.152a3.3 3.3 0 0 1 .6-1.2 1.54 1.54 0 0 1 1.74-.57c1.134.276 2.283.498 3.552.77.3-2.162.6-4.271.882-6.428-.85-.165-1.65-.3-2.433-.486a12.6 12.6 0 0 1-1.764-.6c-.693-.3-.945-.84-.846-1.587.165-1.24.3-2.484.447-3.726.027-.243.06-.483.096-.76l-3.702-1.712c-.42-.195-.843-.381-1.257-.6-.88-.444-1.077-.78-.972-1.752q.351-3.207.738-6.408c.3-2.514.62-5.025.92-7.54.16-1.328.532-1.673 1.885-1.727 1.58-.066 3.156-.138 4.845-.213m45.75 2.466-42.975-7.182c-1.2 9.717-2.4 19.365-3.6 29.157l42.6 6.207c1.329-9.444 2.643-18.75 3.975-28.191zM19.616 58.196c-.405 2.079-.792 4.059-1.2 6.087l41.808 6.783c.414-2.055.807-4.017 1.218-6.051-.357-.075-.666-.16-.981-.204-3.6-.507-7.218-.996-10.824-1.515-5.1-.741-10.233-1.464-15.336-2.265-3.387-.534-6.756-1.17-10.125-1.8-1.476-.282-2.955-.67-4.56-1.035m39.3-2.655-32.55-4.75c-.3 2.266-.561 4.432-.831 6.574 2.244.813 30.3 4.635 31.989 4.728.456-2.148.912-4.296 1.389-6.552zm12.9-8.46 1.998-13.332-4.638-.9c-.666 4.73-1.311 9.315-1.971 13.98zM20 41.12c.9-5.886 1.929-14.826 1.749-15.48l-4.134.195-1.611 13.4zm33.54-22.701-9.327-1.956c-.372 1.068-.705 2.028-1.08 3.096l10.407 1.74z"/><path fill="#cbcfdd" d="M67.964 25.891c-1.332 9.432-2.647 18.738-3.978 28.182l-42.6-6.207c1.2-9.792 2.4-19.44 3.6-29.157zm-32.544 16.5c0-1.002.035-1.923 0-2.844a1.06 1.06 0 0 0-1.09-1.089 1.02 1.02 0 0 0-1.023 1.137c.018 1.248.1 2.499.174 3.747a1.1 1.1 0 0 0 .9 1.035q.436.11.88.174l10.613 1.74c1.392.228 2.787.462 4.182.681.835.129 1.33-.072 1.617-.762.396-.951.744-1.926 1.056-2.907a1.065 1.065 0 0 0-.6-1.35 1.09 1.09 0 0 0-1.352.6 6 6 0 0 0-.273.681c-.192.498-.381.996-.58 1.5zm7.898-2.745v.03h1.39c1.104-.015 1.5-.369 1.662-1.476q.14-.97.276-1.941c.255-1.83.536-3.66.746-5.499.111-.945-.234-1.365-1.158-1.563a77 77 0 0 0-3.203-.618c-1.072-.183-1.572.24-1.707 1.326-.204 1.62-.414 3.237-.6 4.86-.13 1.053-.273 2.1-.354 3.162-.096 1.272.3 1.692 1.569 1.719.453-.006.914-.015 1.38-.015zM35.54 27.238a1.09 1.09 0 0 0-1.053 1.023 1.06 1.06 0 0 0 1.018 1.047 1.12 1.12 0 0 0 1.053-1.032 1.026 1.026 0 0 0-1.018-1.053zm19.347 4.5a1.022 1.022 0 1 0-.998.99 1.035 1.035 0 0 0 .999-.993zM19.616 58.195c1.605.366 3.078.753 4.572 1.032 3.369.633 6.738 1.27 10.125 1.8 5.1.801 10.22 1.524 15.336 2.265 3.6.52 7.215 1.008 10.824 1.515.3.045.624.13.98.204l-1.217 6.051-41.808-6.77c.396-2.038.783-4.018 1.188-6.097"/><path fill="#979fbb" d="M58.913 55.542c-.477 2.256-.933 4.404-1.39 6.558-1.673-.093-29.744-3.915-31.988-4.728l.83-6.573zM71.8 47.08l-4.61-.243c.66-4.665 1.304-9.249 1.97-13.98l4.638.9zM20 41.12l-3.996-1.883 1.61-13.401 4.135-.195c.18.654-.85 9.594-1.75 15.48"/><path fill="#fff" d="M53.54 18.419v2.88l-10.407-1.74c.375-1.068.708-2.028 1.08-3.096z"/><path fill="#324980" d="m35.42 42.392 14.474 2.361c.199-.516.388-1.014.58-1.5q.115-.349.273-.681a1.09 1.09 0 0 1 1.352-.6 1.065 1.065 0 0 1 .6 1.35c-.3.981-.66 1.956-1.055 2.907-.3.69-.783.9-1.617.762-1.395-.219-2.79-.453-4.183-.681L35.23 44.57a9 9 0 0 1-.878-.174 1.1 1.1 0 0 1-.9-1.035c-.075-1.248-.157-2.499-.174-3.747a1.02 1.02 0 0 1 1.023-1.137 1.06 1.06 0 0 1 1.088 1.089c.066.888.03 1.809.03 2.826M43.319 39.633h-1.392c-1.257-.027-1.665-.447-1.57-1.72.082-1.055.226-2.1.355-3.161.198-1.623.408-3.24.6-4.86.135-1.086.654-1.5 1.707-1.326s2.142.39 3.204.618c.924.198 1.269.618 1.158 1.563-.21 1.839-.492 3.669-.747 5.499q-.136.97-.276 1.94c-.162 1.108-.558 1.462-1.662 1.477h-1.39zm.057-8.766-.78 6.6h1.662c.3-2.1.678-4.176.867-6.3zM35.54 27.225a1.027 1.027 0 0 1 1.017 1.038 1.12 1.12 0 0 1-1.053 1.032 1.06 1.06 0 0 1-1.017-1.047 1.09 1.09 0 0 1 1.053-1.023M54.886 31.736a1.035 1.035 0 0 1-.999.99 1.08 1.08 0 0 1-1.047-1.04 1.024 1.024 0 0 1 2.046.05"/><path fill="#fff" d="m43.375 30.865 1.75.3c-.19 2.1-.57 4.176-.868 6.3h-1.662c.261-2.205.504-4.344.78-6.6"/></svg>