<svg xmlns="http://www.w3.org/2000/svg" width="315" height="243" fill="none" viewBox="0 0 315 243"><path fill="#102185" d="M28.754 38.713c.27-3.978.326-7.745.552-11.582.255-4.743 1.742-6.3 6.683-6.57 4.446-.155 8.934-.438 13.82-.58.112-4.346.48-8.58.367-12.714C50.091 2.24 51.72.287 56.958.428c14.371.383 28.813.935 43.142 1.444l90.573 3.13c5.366.184 7.008 1.868 7.093 7.334.255 13.096.68 26.094.935 39.19.07.624.127 1.26.269 2.52 1.288-1.033 2.35-1.84 3.27-2.703 18.803-15.957 37.606-31.9 56.267-47.913 5.961-5.026 10.605-4.503 15.489 1.402 12.97 15.871 25.797 31.7 38.625 47.516 2.138 2.76 2.251 4.913-.085 7.518-.793.906-1.671 1.642-2.548 2.379-30.215 25.896-60.444 51.792-90.8 77.631-3.426 3.101-7.15 5.791-11.001 8.439-1.784 1.147-4.304 1.416-6.98 2.081-.411 6.343-.779 13.012-1.275 19.624-.368 6.669-.863 12.828-1.132 19.227 0 1.657-.425 3.172-1.105 4.573-.679 1.416-1.614 2.719-2.916 3.753-1.473 1.118-3.384 1.755-5.168 1.698-4.305.199-8.425-.113-12.63-.183-.892-.029-1.84.07-2.916.113-.567 4.771-1.275 9.5-1.94 14.088-.85 6.328-2.478 7.843-8.977 7.829-4.078 0-8.183-.34-12.261-.34-.765.015-1.388.085-2.067.284-.255 4.743-.468 9.344-.807 13.903 0 1.657-.34 3.342-.892 4.814-1.36 2.818-4.191 3.115-6.924 3.158-9.132-.241-18.208-.609-27.34-.836l-102.353-3.143c-1.204 0-2.365-.127-3.398-.212-3.922-.411-4.87-1.515-6.089-5.14-.863-3.341-1.231-6.81-.892-10.152 1.912-57.328 3.809-114.642 5.72-171.97.029-2.11.241-4.29.581-6.428.651-4.587 2.463-6.187 7.164-6.244 4.262-.07 8.425.114 12.672.043.623-.071 1.388-.085 2.52-.27l-.056.128zm135.258 45.364c7.716-6.484 15.348-13.167 23.008-19.524.651-.51 1.076-1.26 1.373-2.053s.467-1.643.312-2.45c-.312-13.72-.638-27.44-.949-41.159 0-1.203-.142-2.463-.269-3.724L60.413 10.651c-1.897 58.531-3.823 116.298-5.805 174.66l134.139 3.837c.779-13.012 1.543-25.57 2.35-38.27l-15.319 1.387c-8.453.779-16.906 1.543-25.344 2.322-5.749.425-9.288-3.469-8.071-8.75 1.246-6.187 2.761-12.261 4.276-18.35a4597 4597 0 0 0 4.347-18.93c-8.58-5.776-10.888-12.53-7.179-20.062 3.469-6.867 9.699-8.17 20.403-4.474l-.184.085zM15.799 49.134c-.184 6.584-.283 12.898-.495 19.156-1.629 50.929-3.215 101.716-4.984 152.602-.1 2.69 0 5.281.07 7.886l127.457 3.908c.297-4.432.467-8.141.608-12.162-1.784-.057-3.213-.298-4.559-.34-19.949-.793-40.012-1.331-60.046-2.322-15.108-.807-30.243.042-45.251-2.69-3.965-.722-6.004-2.549-6.174-6.542a72 72 0 0 1 .142-7.659 62964 62964 0 0 1 5.677-147.193c.1-1.473.057-3.002.071-4.658l-12.36-.085-.184.085zm23.362-18.477c-.326 7.745-.496 15.079-.793 22.37-1.954 49.754-3.71 99.422-5.664 149.161-.099 3.894 0 4.078 3.568 4.205 40.99 1.544 81.965 3.101 122.813 4.588 1.033.085 2.024-.156 3.1-.199l1.36-11.737c-1.742-.198-2.903-.326-4.248-.368-18.534-.566-37.11-1.005-55.771-1.628-18.123-.425-36.133-.793-54.128-1.161a5.08 5.08 0 0 1-3.314-1.232 5.04 5.04 0 0 1-1.685-3.2c-.212-1.444-.17-2.789-.07-4.262.453-15.39 1.047-30.738 1.5-46.143a73459 73459 0 0 1 3.625-106.854c.043-1.346-.042-2.733-.127-4.12l-9.954.367-.226.213zm239.04-4.304-96.038 82.785 9.897 11.553c31.97-27.354 63.898-54.581 95.925-82.063l-9.784-12.261zm15.915 19.694c-31.9 27.539-63.558 54.865-95.26 82.318l7.83 8.977a95873 95873 0 0 0 95.33-81.681l-7.9-9.6zm-118.721 55.275 96.364-82.813c-2.053-2.577-4.035-4.984-6.088-7.56-32.579 27.736-64.677 55.048-96.888 82.615l6.627 7.758zm-11.893 1.912-.864.283c-1.43 6.272-2.86 12.53-4.247 18.661-.113.708.212 1.444.595 2.039 4.29 5.522 8.438 11.001 12.771 16.41.297.41.651.693 1.132 1.019l1.331.496c6.825-.468 13.748-1.218 21.252-1.883l-32.097-37.068z"/><path fill="#102185" d="M101.969 101.266c-.637 1.727-1.6 3.483-2.86 4.828s-2.775 2.591-4.602 3.426a14.2 14.2 0 0 1-5.465 1.289c-1.84.07-3.851-.227-5.564-.864-3.795-1.572-6.783-4.502-8.27-8.226-1.613-3.78-1.74-7.9-.353-11.61 2.775-7.434 10.86-11.667 17.74-8.637 8.34 3.568 12.574 10.435 9.331 19.949l.057-.127zm-14.966-1.204c1.062.397 2.138.34 3.186-.028s1.84-1.274 2.18-2.209c.835-2.251-.552-5.805-2.548-6.541-1.062-.396-2.195-.212-3.229.156-1.033.368-1.84 1.274-2.18 2.208-.439 1.19-.354 2.591.142 3.682.453 1.231 1.316 2.152 2.463 2.732zM109.983 90.35c1.331-3.583 4.163-6.301 7.632-7.887s7.404-1.614 11.029-.41c3.582 1.33 6.541 3.95 8.113 7.419 1.586 3.454 1.94 7.376.722 11.001-1.331 3.582-4.262 6.569-7.731 8.141-3.511 1.713-7.504 1.883-11.213.495-1.855-.693-3.483-1.6-4.913-3.044s-2.535-2.916-3.427-4.601a13.3 13.3 0 0 1-1.231-5.593c-.015-1.968.226-3.85 1.047-5.65l-.042.128zm17.599 6.272c.198-.524.397-1.062.283-1.558-.07-.623-.184-1.133-.481-1.543-.255-.552-.552-.963-1.034-1.289-.481-.325-.962-.665-1.359-.807-1.062-.396-2.322-.255-3.37.1-1.09.495-1.883 1.415-2.279 2.477-.198.524-.397 1.062-.283 1.558.113.495.184 1.132.481 1.543.255.552.552.963 1.034 1.288.481.326.835.61 1.359.807.524.199 1.062.397 1.685.326.623-.07 1.132-.184 1.67-.439a5.6 5.6 0 0 0 1.43-.977c.326-.481.666-.963.864-1.487M156.791 45.113c9.458 3.837 12.02 12.346 9.316 20.403a17 17 0 0 1-2.676 4.743c-1.26 1.345-2.732 2.463-4.375 3.2-1.642.75-3.497 1.26-5.338 1.33-1.84.072-3.709-.17-5.437-.82-7.291-2.72-11.213-12.05-8.424-19.922 2.407-7.263 10.208-11.157 16.891-8.806zm-.51 16.736c.991-2.648-.142-6.103-2.265-6.895-2.124-.793-3.597.325-4.432 2.576-.439 1.19-.496 2.535-.17 3.71.453 1.232 1.26 2.28 2.407 2.86 1.996.736 3.625 0 4.474-2.265zM85.601 134.595l-8.099 3.469c-1.09.496-2.053 1.048-3.228 1.359-1.047.369-2.251.368-3.44-.07-1.062-.397-1.926-1.317-2.478-2.28-.255-.552-.496-1.09-.567-1.727-.07-.623 0-1.204.057-1.784.198-.524.44-1.19.779-1.671.34-.481.92-.864 1.345-1.161 5.89-3.242 12.049-6.386 18.194-9.076 3.78-1.614 7.178 1.02 7.433 5.197.156 3.228-.056 6.626-.085 9.939-.099 3.894-.269 7.603-.368 11.497a14.9 14.9 0 0 1-.396 3.483c-.27 1.118-.836 2.251-1.855 2.93-.878.737-2.053 1.048-3.214.921-1.161-.128-2.223-.524-3.087-1.459a4.06 4.06 0 0 1-1.416-3.1c-.113-1.713-.099-3.37-.085-5.027.043-3.766.27-7.603.368-11.496l.128.042zM86.677 57.615c-2.973 1.911-5.366 3.44-7.745 4.97-1.005.68-2.152 1.316-3.384 1.755a4.93 4.93 0 0 1-3.313-.028c-1.062-.397-1.84-1.147-2.52-2.152-.552-.963-.736-2.082-.651-3.115.127-1.161.793-2.124 1.543-2.903.51-.566 1.16-1.076 1.756-1.458 4.955-3.143 9.812-6.456 14.894-9.557 5.31-3.3 9.982-.807 9.94 5.366-.043 6.173-.425 12.077-.68 18.024-.085 1.033-.424 1.954-.82 3.016-.34.934-.964 1.755-1.743 2.223-.82.594-1.826.835-2.803.623-1.076.056-2.01-.298-2.832-.907-.835-.608-1.373-1.571-1.614-2.562-.283-2.067-.34-4.361-.311-6.457.028-2.11.198-4.162.156-6.895zM121.054 132.726c-3.044 1.274-5.408 2.364-7.815 3.129-3.441 1.133-6.145.269-7.264-2.407-1.161-2.549.057-5.423 3.2-6.966 4.375-1.997 8.92-4.078 13.465-5.706 4.587-1.77 8.184.34 8.283 5.352 0 7.263-.609 14.583-1.048 21.832-.014.453-.085 1.034-.283 1.558-.396 1.062-.92 2.067-1.94 2.747-1.005.679-2.053 1.047-3.214.92-1.161-.128-2.166-.666-3.086-1.458-.737-.878-1.232-1.969-1.232-3.186 0-3.625.354-7.419.665-11.086.099-1.473.142-2.818.312-4.871l-.043.128zM119.044 54.74c-2.464 1.345-4.432 2.577-6.57 3.44-1.401.539-3.185 1.233-4.375.78-1.586-.595-2.888-1.983-3.681-3.498-.411-.906-.467-1.982-.113-2.916.354-.935.962-1.756 1.869-2.18 5.026-2.96 10.01-5.778 15.164-8.241 2.959-1.459 5.904.382 6.951 3.653.652 1.911.935 3.978 1.034 6.13 0 4.843-.297 9.713-.481 14.64-.099.27.014.765-.128 1.162-.127 1.16-.835 2.25-1.642 3.171a4.94 4.94 0 0 1-3.356 1.317 5.08 5.08 0 0 1-3.313-1.232c-.906-.793-1.359-2.025-1.501-3.285-.269-2.52-.042-5.153 0-7.702l.043-4.97z"/></svg>