<svg xmlns="http://www.w3.org/2000/svg" width="90" height="91" fill="none" viewBox="0 0 90 91"><path fill="#3558a2" d="M78.803 60.77c.244 1.512.517 2.928.688 4.376a19.8 19.8 0 0 1-1.461 9.945 17.92 17.92 0 0 1-6.614 8.222 15.4 15.4 0 0 1-10.818 2.621 15.7 15.7 0 0 1-7.639-3.214c-.228-.175-.468-.334-.765-.545-.212.255-.407.458-.566.685a17.84 17.84 0 0 1-7.355 6.055 18.3 18.3 0 0 1-9.498 1.47c-4.982-.564-9.251-2.573-12.992-5.767-5.177-4.416-8.274-9.98-9.572-16.536-.517-2.602-.566-4.575-.289-8.044l-1.164-.517c-4.07-1.826-7.244-4.582-9.202-8.548-2.01-4.078-2.108-8.239-.085-12.332 1.575-3.182 4.171-5.382 7.46-6.802.94-.398 1.95-.656 2.93-.974l.891-.29c-.122-1.11-.252-2.141-.35-3.183a13.54 13.54 0 0 1 2.723-9.579c2.06-2.784 4.884-4.535 8.234-5.569a22.8 22.8 0 0 1 6.987-.963c1.996.002 3.983.234 5.922.692.143.036.29.04.521.072.232-.342.48-.692.716-1.05a23.94 23.94 0 0 1 9.508-8.537A18.47 18.47 0 0 1 57.33.613a15.86 15.86 0 0 1 8.246 3.409c3.532 2.812 5.571 6.492 6.491 10.792.556 2.481.67 5.038.338 7.558-.07.489-.07.99-.102 1.491 1.221.355 2.401.649 3.55 1.03a22.14 22.14 0 0 1 9.132 5.542 17.17 17.17 0 0 1 4.835 9.547 17.54 17.54 0 0 1-1.656 10.315 25.1 25.1 0 0 1-8.295 9.694l-.891.644c-.057.024-.106.08-.175.135M30.09 13.986a16.9 16.9 0 0 0-4.737.474c-2.552.62-4.884 1.67-6.777 3.492-3.024 2.92-3.907 6.536-3.35 10.542q.297 1.54.782 3.035c.204.768.061 1.106-.647 1.332a6.6 6.6 0 0 1-1.078.215c-3.598.525-6.72 1.937-9.027 4.774a10.4 10.4 0 0 0-2.232 4.363 10.3 10.3 0 0 0 .022 4.877 13.44 13.44 0 0 0 3.56 6.365 17.65 17.65 0 0 0 6.838 4.288c1.127.398 1.319.7 1.254 1.854-.057.97-.191 1.941-.212 2.912-.11 3.731.642 7.44 2.202 10.847 2.755 5.967 6.992 10.59 13.28 13.163 3.158 1.293 6.459 1.774 9.853 1.05 4.81-1.022 8.331-3.707 10.607-7.955.659-1.226 1.628-1.357 2.665-.398q.947.913 1.994 1.714a12.3 12.3 0 0 0 4.833 2.225c1.76.384 3.584.382 5.342-.005 2.963-.609 5.348-2.176 7.326-4.376a16.73 16.73 0 0 0 4.168-9.384 17.3 17.3 0 0 0-.717-7.916 2 2 0 0 1-.102-1.169c.084-.391.284-.75.575-1.03q.411-.447.911-.796a26.8 26.8 0 0 0 4.807-4.149c2.54-2.82 4.318-5.995 4.884-9.782.728-5.044-.896-9.28-4.55-12.773-2.495-2.339-5.572-4-8.926-4.817-.928-.238-1.868-.398-2.804-.624-1.221-.279-1.595-.875-1.404-2.113.203-1.352.378-2.712.476-4.073a16 16 0 0 0-.407-4.618c-.79-3.58-2.393-6.743-5.29-9.181a13.14 13.14 0 0 0-5.155-2.772 13.34 13.34 0 0 0-5.875-.28c-4.697.725-8.413 3.183-11.457 6.664a22.6 22.6 0 0 0-2.812 4.013c-.154.353-.432.64-.784.807a1.66 1.66 0 0 1-1.133.108c-.216-.04-.407-.107-.643-.155a22.7 22.7 0 0 0-6.26-.748"/><path fill="#fff" d="M30.09 13.986c2.099-.04 4.193.212 6.219.747.216.048.407.116.643.156.379.098.781.06 1.133-.108s.63-.455.784-.807a22.6 22.6 0 0 1 2.812-4.014c3.045-3.496 6.76-5.939 11.457-6.663a13.35 13.35 0 0 1 5.876.279 13.14 13.14 0 0 1 5.154 2.772c2.877 2.439 4.476 5.597 5.29 9.181a16 16 0 0 1 .407 4.619 53 53 0 0 1-.476 4.073c-.191 1.237.167 1.834 1.404 2.112.936.21 1.877.398 2.805.625a19.94 19.94 0 0 1 8.925 4.817c3.663 3.492 5.29 7.729 4.55 12.773-.55 3.787-2.328 6.961-4.884 9.782a26.8 26.8 0 0 1-4.806 4.148q-.5.35-.912.796c-.29.28-.49.64-.575 1.03-.084.392-.048.798.103 1.17a17.3 17.3 0 0 1 .716 7.916 16.73 16.73 0 0 1-4.167 9.384c-1.97 2.215-4.355 3.783-7.326 4.375a12.5 12.5 0 0 1-5.342.005 12.3 12.3 0 0 1-4.833-2.224 23 23 0 0 1-1.994-1.715c-1.058-.963-2.007-.831-2.666.398-2.275 4.256-5.796 6.941-10.606 7.956-3.395.724-6.695.242-9.854-1.05-6.288-2.574-10.524-7.16-13.28-13.163a24.3 24.3 0 0 1-2.201-10.848c0-.97.154-1.941.211-2.912.065-1.153-.126-1.44-1.254-1.853a17.65 17.65 0 0 1-6.837-4.289 13.44 13.44 0 0 1-3.561-6.364 10.3 10.3 0 0 1-.022-4.878 10.4 10.4 0 0 1 2.232-4.363c2.308-2.824 5.43-4.236 9.027-4.773a6.6 6.6 0 0 0 1.078-.215c.709-.227.851-.565.648-1.333a25 25 0 0 1-.782-3.035c-.557-4.006.326-7.622 3.35-10.541 1.888-1.822 4.224-2.872 6.776-3.493 1.56-.385 3.17-.544 4.778-.473m32.095 48.132c.517 0 1.034.024 1.547 0q.605-.063 1.197-.203c7.146-1.46 11.97-8.174 10.988-14.583a10.9 10.9 0 0 0-1.468-4.218 11.2 11.2 0 0 0-3.05-3.312 12.5 12.5 0 0 0-5.136-2.294 12.7 12.7 0 0 0-5.644.17c-6.471 1.544-11.176 7.232-10.68 13.807a10.82 10.82 0 0 0 3.663 7.523 12.2 12.2 0 0 0 8.584 3.11m-34.427 12.96q.091.042.163.111c.155.203.293.398.444.621a11.95 11.95 0 0 0 3.898 3.56 12.25 12.25 0 0 0 5.088 1.568c4.522.445 8.392-1.035 11.318-4.484a11.1 11.1 0 0 0 2.47-4.68c.43-1.728.434-3.533.009-5.264a10.9 10.9 0 0 0-3.565-5.967 12.55 12.55 0 0 0-7.912-3.182 12.4 12.4 0 0 0-4.477.54 1.36 1.36 0 0 1-1.429-.246q-.209-.182-.407-.35a3.162 3.162 0 0 0-3.33-.279c-.532.297-.956.75-1.21 1.296a2.8 2.8 0 0 0-.205 1.744c.069.397.179.763.277 1.157a2 2 0 0 1-.167.275 19.9 19.9 0 0 0-4.518 8.93 10.6 10.6 0 0 0-.167 2.892c.027.513.259.996.647 1.343.387.347.9.53 1.425.51.533.013 1.082-.063 1.648-.095m20.643-32.066c.077-5.54-1.99-9.726-5.544-12.331-2.91-2.148-6.214-3.071-9.8-2.466-5.73.966-9.87 5.298-10.582 11.046-.618 5.171 1.168 9.571 5.462 12.753 4.115 3.055 8.693 3.58 13.333 1.313 4.766-2.343 6.931-6.396 7.13-10.315m6.626-33.947a12.4 12.4 0 0 0-6.392.998 12.1 12.1 0 0 0-4.96 4.066 11.37 11.37 0 0 0-2.087 5.967c-.24 4.32 2.035 9.463 7.554 11.456 1.93.673 4.003.85 6.023.514a12.1 12.1 0 0 0 5.511-2.432 11.7 11.7 0 0 0 3.589-4.756c.76-1.86 1.017-3.879.75-5.864a11.05 11.05 0 0 0-1.595-4.608 11.3 11.3 0 0 0-3.44-3.515c.484-1.99.073-3.107-1.299-3.628-1.31-.497-2.767.199-3.654 1.802M13.249 48.653c1.498-.084 2.751-.115 3.997-.243a5.9 5.9 0 0 0 1.79-.48c.305-.142.542-.392.664-.699a1.26 1.26 0 0 0-.008-.953 1.36 1.36 0 0 0-.645-.642 1.4 1.4 0 0 0-.914-.102 22.4 22.4 0 0 1-4.721.398q-.552 0-1.087.131a1.23 1.23 0 0 0-.736.442c-.182.23-.272.517-.253.807.008.273.107.535.283.747s.418.36.69.423q.464.119.94.171m3.585 6.71q.397-.095.758-.282a99 99 0 0 0 3.137-2.025 4 4 0 0 0 .814-.74 1.32 1.32 0 0 0 .041-1.59 1.3 1.3 0 0 0-.735-.447 1.33 1.33 0 0 0-.86.1 3 3 0 0 0-.477.271c-1.066.708-2.14 1.408-3.194 2.136-.308.192-.57.447-.766.748-.5.823.11 1.798 1.282 1.83m55.262-19.22c.036.612.207 1.026.68 1.28a1.17 1.17 0 0 0 1.436-.17 10 10 0 0 0 2.243-3.183c.087-.26.083-.541-.011-.8a1.24 1.24 0 0 0-.51-.624 1.36 1.36 0 0 0-1.461.032 2.2 2.2 0 0 0-.55.529c-.529.74-1.05 1.484-1.542 2.247a3.2 3.2 0 0 0-.285.689m7.57 1.253a11.6 11.6 0 0 0-3.435 1.77 1.087 1.087 0 0 0-.155 1.48c.128.242.342.43.601.532.26.1.548.106.811.017a13 13 0 0 0 1.628-.677 14 14 0 0 0 1.657-.851 1.2 1.2 0 0 0 .525-.608c.098-.256.104-.537.016-.796-.22-.609-.66-.891-1.664-.867zm-18.954 35.8a1.36 1.36 0 0 0-.953.35c-.258.235-.412.56-.426.904.027.36.192.697.462.944s.625.385.995.388c.329-.009.643-.135.884-.355.24-.22.39-.518.422-.838a1.33 1.33 0 0 0-.386-.991 1.4 1.4 0 0 0-.998-.417zM25.52 23.534a1.26 1.26 0 0 0-.366-.923 1.32 1.32 0 0 0-.929-.394 1.27 1.27 0 0 0-.954.302 1.22 1.22 0 0 0-.417.891 1.26 1.26 0 0 0 .346.985 1.32 1.32 0 0 0 .977.416c.346-.012.675-.149.924-.385.248-.236.398-.554.419-.892m32.86 44.874a1.32 1.32 0 0 0-.946.343 1.27 1.27 0 0 0-.41.902c-.01.342.116.674.353.925.236.252.565.402.914.42a1.4 1.4 0 0 0 .994-.37 1.34 1.34 0 0 0 .422-.955 1.22 1.22 0 0 0-.384-.912 1.28 1.28 0 0 0-.943-.353M27.103 25.92c0 .33.131.645.366.881s.555.372.891.38c.372-.03.718-.195.97-.462.253-.267.393-.618.394-.982a1.27 1.27 0 0 0-.422-.856 1.33 1.33 0 0 0-.909-.337c-.355.024-.687.18-.927.436s-.37.593-.363.94m38.916 47.337a1.22 1.22 0 0 0-.342-.883 1.28 1.28 0 0 0-1.784-.053 1.22 1.22 0 0 0-.316 1.336 1.23 1.23 0 0 0 .662.687 1.29 1.29 0 0 0 1.383-.226 1.23 1.23 0 0 0 .397-.86M27.062 17.24a1.22 1.22 0 0 0-.904.323 1.17 1.17 0 0 0-.366.87c.023.304.154.59.372.809.217.218.507.354.817.384a1.28 1.28 0 0 0 .878-.369c.232-.23.362-.54.363-.864a1.05 1.05 0 0 0-.307-.84 1.1 1.1 0 0 0-.853-.321z"/><path fill="#3558a2" d="M62.185 62.12a12.2 12.2 0 0 1-8.587-3.123 10.82 10.82 0 0 1-3.663-7.523c-.497-6.575 4.208-12.263 10.68-13.807a12.7 12.7 0 0 1 5.644-.17 12.5 12.5 0 0 1 5.136 2.294 11.2 11.2 0 0 1 3.05 3.312 10.9 10.9 0 0 1 1.468 4.218c1.001 6.409-3.822 13.128-10.989 14.584a9 9 0 0 1-1.196.202c-.509.036-1.026.012-1.543.012m-.097-2.566c3.923-.092 6.988-1.755 9.328-4.81.537-.708.541-1.265.057-2.036a15.52 15.52 0 0 1-2.283-10.343 1.02 1.02 0 0 0-.068-.727 1.06 1.06 0 0 0-.539-.506 9.8 9.8 0 0 0-3.793-1.106c-3.785-.259-6.98.97-9.483 3.763-2.397 2.665-3.337 5.764-2.36 9.237a9.03 9.03 0 0 0 3.427 4.792 9.4 9.4 0 0 0 5.714 1.736M27.758 75.079c-.566.032-1.115.107-1.665.095a2.03 2.03 0 0 1-1.425-.51 1.94 1.94 0 0 1-.646-1.343c-.078-.967-.021-1.94.167-2.892a19.9 19.9 0 0 1 4.517-8.93q.095-.132.167-.275c-.098-.398-.207-.772-.277-1.158a2.8 2.8 0 0 1 .205-1.744 2.87 2.87 0 0 1 1.212-1.295 3.16 3.16 0 0 1 3.329.279c.146.111.285.23.407.35a1.359 1.359 0 0 0 1.428.247 12.4 12.4 0 0 1 4.477-.542c2.94.11 5.745 1.238 7.912 3.183a10.9 10.9 0 0 1 3.565 5.966 10.96 10.96 0 0 1-.01 5.266 11.1 11.1 0 0 1-2.468 4.68c-2.926 3.448-6.797 4.928-11.319 4.482a12.26 12.26 0 0 1-5.088-1.567 11.95 11.95 0 0 1-3.898-3.56c-.15-.207-.289-.418-.444-.62a.6.6 0 0 0-.146-.112m11.355-15.116c-3.154-.104-6.41 1.643-8.16 3.886a8.9 8.9 0 0 0-1.647 3.363 8.8 8.8 0 0 0-.104 3.727 8.85 8.85 0 0 0 1.457 3.445 9.1 9.1 0 0 0 2.764 2.569 10.3 10.3 0 0 0 6.31 1.415 10.24 10.24 0 0 0 5.9-2.609c2.686-2.458 3.732-5.474 2.796-9.018a9.24 9.24 0 0 0-3.467-4.953 9.6 9.6 0 0 0-5.85-1.83zM48.4 43.013c-.199 3.918-2.364 7.956-7.11 10.303-4.64 2.283-9.218 1.742-13.333-1.313-4.293-3.182-6.08-7.558-5.461-12.753.692-5.748 4.83-10.08 10.581-11.047 3.586-.604 6.89.319 9.8 2.467 3.533 2.617 5.6 6.802 5.524 12.343m-12.445 8.986c3.113-.147 5.848-1.404 7.77-4.137a10.28 10.28 0 0 0 1.847-7.287 10.86 10.86 0 0 0-1.71-4.98 11.2 11.2 0 0 0-3.874-3.64 1.81 1.81 0 0 0-1.966-.064 12.7 12.7 0 0 1-2.743 1.122c-1.388.338-2.824.497-4.245.704-.757.147-1.527.22-2.3.218a1.7 1.7 0 0 0-.94.184c-.29.149-.528.377-.687.656a10.84 10.84 0 0 0-2 6.312c.01 2.254.728 4.451 2.057 6.294 2.047 2.916 4.892 4.507 8.79 4.618M55.026 9.066c.888-1.591 2.345-2.299 3.663-1.806 1.372.521 1.783 1.631 1.298 3.628a11.3 11.3 0 0 1 3.44 3.515 11.05 11.05 0 0 1 1.595 4.608c.268 1.985.01 4.004-.75 5.864a11.7 11.7 0 0 1-3.588 4.756 12.1 12.1 0 0 1-5.511 2.432c-2.02.336-4.094.159-6.024-.514-5.539-1.989-7.794-7.136-7.553-11.456.115-2.14.838-4.206 2.088-5.967a12.1 12.1 0 0 1 4.958-4.066c2-.892 4.209-1.237 6.392-.998zm6.394 7.371a3.8 3.8 0 0 1-1.808-.043 3.74 3.74 0 0 1-1.574-.872 13.6 13.6 0 0 1-1.677-1.857 1.16 1.16 0 0 0-.551-.42 1.2 1.2 0 0 0-.698-.034c-.831.156-1.674.25-2.52.279-.813 0-1.668 0-2.356-.47s-1.22-.25-1.799.151a9.26 9.26 0 0 0-3.608 4.604 9.04 9.04 0 0 0-.087 5.799 8.6 8.6 0 0 0 2.929 4.187 8.93 8.93 0 0 0 4.832 1.85c3.773.22 6.67-1.36 8.575-4.518 1.66-2.769 1.758-5.66.342-8.656M13.249 48.654q-.477-.06-.94-.183a1.27 1.27 0 0 1-.69-.424 1.22 1.22 0 0 1-.283-.746c-.02-.29.07-.577.253-.807.182-.23.444-.387.736-.442q.535-.132 1.087-.131a22.4 22.4 0 0 0 4.72-.398c.308-.07.631-.034.915.102.284.135.512.362.645.642.127.305.13.646.008.953s-.36.556-.664.698a5.9 5.9 0 0 1-1.79.481c-1.246.14-2.5.171-3.997.255M16.835 55.364c-1.172-.032-1.783-1.007-1.299-1.85.196-.3.458-.556.766-.748 1.054-.728 2.128-1.428 3.194-2.136q.226-.158.477-.27c.266-.129.57-.164.86-.101s.549.22.735.447a1.316 1.316 0 0 1-.04 1.59 4 4 0 0 1-.815.74q-1.55 1.04-3.138 2.026-.351.194-.74.302M72.096 36.144a3.2 3.2 0 0 1 .285-.696 57 57 0 0 1 1.542-2.247c.15-.206.337-.386.55-.53a1.36 1.36 0 0 1 1.46-.031c.237.147.416.367.51.625s.099.539.012.799a10 10 0 0 1-2.243 3.182 1.173 1.173 0 0 1-1.437.171c-.451-.247-.643-.644-.68-1.273M79.649 37.396c.989-.024 1.428.258 1.628.867.088.26.082.54-.017.796a1.2 1.2 0 0 1-.524.608q-.8.48-1.657.852-.79.394-1.628.676c-.263.09-.551.084-.81-.017-.26-.1-.474-.29-.602-.532a1.09 1.09 0 0 1 .155-1.48 11.6 11.6 0 0 1 3.455-1.77M60.712 73.182a1.42 1.42 0 0 1 .984.405 1.35 1.35 0 0 1 .4.968 1.3 1.3 0 0 1-.423.838c-.24.22-.555.346-.884.355a1.5 1.5 0 0 1-.994-.389 1.43 1.43 0 0 1-.463-.944c.02-.34.176-.66.434-.89.257-.23.597-.354.946-.343M25.52 23.534a1.35 1.35 0 0 1-.413.905c-.249.24-.581.38-.93.391a1.35 1.35 0 0 1-.977-.415 1.29 1.29 0 0 1-.347-.985 1.2 1.2 0 0 1 .418-.892 1.25 1.25 0 0 1 .954-.301c.347.005.678.144.92.387.243.243.378.57.374.91M58.38 68.408a1.3 1.3 0 0 1 .943.352 1.25 1.25 0 0 1 .384.912 1.3 1.3 0 0 1-.422.955 1.37 1.37 0 0 1-.994.37 1.35 1.35 0 0 1-.914-.42 1.3 1.3 0 0 1-.352-.924 1.24 1.24 0 0 1 .409-.903 1.3 1.3 0 0 1 .946-.343M27.103 25.92c-.004-.346.127-.68.367-.934.24-.253.57-.408.923-.431.336-.006.662.115.91.337.247.222.398.529.42.856 0 .364-.14.715-.393.982a1.5 1.5 0 0 1-.97.462 1.3 1.3 0 0 1-.895-.384 1.25 1.25 0 0 1-.362-.889M66.02 73.248a1.2 1.2 0 0 1-.398.861 1.27 1.27 0 0 1-.903.334 1.29 1.29 0 0 1-.88-.388 1.23 1.23 0 0 1-.343-.883c.01-.327.153-.636.397-.86a1.28 1.28 0 0 1 1.784.053c.23.238.352.556.342.883M27.063 17.233a1.12 1.12 0 0 1 .846.315 1.07 1.07 0 0 1 .313.83 1.22 1.22 0 0 1-.363.864 1.28 1.28 0 0 1-.878.37c-.31-.03-.6-.167-.817-.385a1.28 1.28 0 0 1-.371-.809 1.14 1.14 0 0 1 .368-.865 1.2 1.2 0 0 1 .901-.32"/><path fill="#fff" d="M62.088 59.554a9.4 9.4 0 0 1-5.718-1.744 9.03 9.03 0 0 1-3.423-4.804c-.977-3.473-.037-6.572 2.36-9.237 2.503-2.784 5.698-4.021 9.483-3.763a9.8 9.8 0 0 1 3.794 1.106c.236.1.427.28.539.506.111.226.135.485.067.727a15.52 15.52 0 0 0 2.283 10.343c.484.771.48 1.328-.057 2.036-2.348 3.075-5.405 4.722-9.328 4.83m-7.554-8.163c.094.565.139 1.142.29 1.694.144.57.423 1.097.815 1.541a3.8 3.8 0 0 0 1.44 1.015 3.9 3.9 0 0 0 3.442-.264 8.3 8.3 0 0 0 2.849-2.952 1.53 1.53 0 0 0 .226-1.2 1.5 1.5 0 0 0-.262-.567 1.6 1.6 0 0 0-.469-.42c-.325-.235-.7-.398-1.05-.601-1.054-.605-2.1-1.222-2.76-2.276-.174-.278-.312-.573-.504-.84a1.2 1.2 0 0 0-.347-.385 1.27 1.27 0 0 0-1.003-.218 1.3 1.3 0 0 0-.481.206 2.9 2.9 0 0 0-.973 1.007 10.9 10.9 0 0 0-1.213 4.26m9.402-3.72a1.38 1.38 0 0 0 1.015-.34 1.295 1.295 0 0 0 .441-.957 1.4 1.4 0 0 0-.437-.902 1.47 1.47 0 0 0-.938-.398 1.53 1.53 0 0 0-.938.402 1.47 1.47 0 0 0-.462.895c0 .343.139.672.386.915.246.244.582.382.933.386m-2.292-3.874a1.14 1.14 0 0 0-.323-.776 1.2 1.2 0 0 0-.776-.358c-.712 0-1.387.565-1.408 1.126.007.308.133.603.353.824.22.222.517.354.832.37.334.006.658-.113.904-.334.247-.22.396-.526.418-.852M39.113 59.959a9.6 9.6 0 0 1 5.841 1.836 9.24 9.24 0 0 1 3.46 4.954c.935 3.544-.11 6.56-2.797 9.018a10.24 10.24 0 0 1-5.899 2.609 10.3 10.3 0 0 1-6.31-1.416 9.1 9.1 0 0 1-2.765-2.568 8.85 8.85 0 0 1-1.457-3.446 8.8 8.8 0 0 1 .105-3.726 8.9 8.9 0 0 1 1.646-3.363c1.766-2.256 5.022-4.014 8.176-3.898m4.624 5.938a9 9 0 0 0-.118-1.11c-.18-.863-.676-1.237-1.45-1.157-.772.08-1.102.521-1.147 1.345v1.078a4.54 4.54 0 0 1-.651 2.386 1.25 1.25 0 0 1-.588.614c-.263.131-.565.169-.853.106a4.65 4.65 0 0 1-2.23-.847 5.7 5.7 0 0 0-1.034-.613 1.2 1.2 0 0 0-.707-.062c-.237.052-.45.175-.612.353a1.077 1.077 0 0 0-.244 1.38c.249.395.562.747.928 1.042 1.05.86 2.308 1.17 3.663 1.369.707.141 1.44.07 2.105-.202a3.57 3.57 0 0 0 1.623-1.326 6.83 6.83 0 0 0 1.315-4.356m-10.26-.751a1.25 1.25 0 0 0 .382.917 1.3 1.3 0 0 0 .94.371 1.46 1.46 0 0 0 .975-.433c.255-.262.4-.609.4-.97a1.25 1.25 0 0 0-.406-.852 1.3 1.3 0 0 0-.895-.342 1.3 1.3 0 0 0-1.01.337 1.212 1.212 0 0 0-.387.971m4.997-1.01a1.25 1.25 0 0 0 .89-.351 1.2 1.2 0 0 0 .356-.871 1.4 1.4 0 0 0-.4-.912 1.45 1.45 0 0 0-.915-.428c-.35.014-.683.16-.926.407-.243.248-.38.578-.38.921a1.24 1.24 0 0 0 .418.904 1.3 1.3 0 0 0 .957.33M35.955 52c-3.899-.111-6.744-1.699-8.803-4.618a10.84 10.84 0 0 1-2.057-6.295 10.84 10.84 0 0 1 2-6.311c.159-.28.397-.507.686-.656s.617-.213.942-.184c.772.002 1.542-.07 2.3-.218 1.42-.207 2.848-.366 4.244-.705a12.7 12.7 0 0 0 2.743-1.121 1.81 1.81 0 0 1 1.966.063c1.573.891 2.901 2.14 3.874 3.641.972 1.501 1.559 3.21 1.71 4.98a10.28 10.28 0 0 1-1.848 7.287C41.8 50.596 39.07 51.853 35.955 52m5.222-9.666a9 9 0 0 0-.346-1.448 1.25 1.25 0 0 0-.554-.623 1.29 1.29 0 0 0-1.57.256 1.22 1.22 0 0 0-.318.764c-.033.247.024.51-.029.752a18 18 0 0 1-.606 2.502c-.264.716-.814.848-1.53.53a2.97 2.97 0 0 1-1.571-1.592c-.22-.529-.367-1.09-.558-1.63a1.34 1.34 0 0 0-.548-.79 1.4 1.4 0 0 0-.945-.233 1.4 1.4 0 0 0-.866.446c-.224.245-.35.562-.355.89-.006.215.026.429.093.633.472 1.758 1.319 3.246 2.906 4.312 2.218 1.48 4.884.796 5.987-1.591.429-1.012.702-2.08.81-3.17zm-9.434-4.17a1.3 1.3 0 0 0 .402.974 1.36 1.36 0 0 0 1.002.38c.87-.025 1.44-.426 1.506-1.246a1.33 1.33 0 0 0-.4-1.026 1.4 1.4 0 0 0-1.045-.402 1.5 1.5 0 0 0-.995.383c-.27.244-.439.579-.47.938m6.174.796a1.33 1.33 0 0 0 .947-.355 1.27 1.27 0 0 0 .396-.913 1.44 1.44 0 0 0-.43-.848 1.5 1.5 0 0 0-.872-.41 1.3 1.3 0 0 0-.96.328 1.25 1.25 0 0 0-.029 1.832 1.3 1.3 0 0 0 .948.366M61.42 16.438c1.417 2.995 1.319 5.887-.342 8.644-1.904 3.158-4.802 4.737-8.575 4.518a8.93 8.93 0 0 1-4.83-1.846 8.6 8.6 0 0 1-2.931-4.18 9.03 9.03 0 0 1 .087-5.799 9.26 9.26 0 0 1 3.608-4.603c.595-.398 1.103-.609 1.8-.151.695.457 1.55.481 2.356.47.845-.03 1.688-.123 2.519-.28a1.2 1.2 0 0 1 .698.035c.223.081.416.228.551.42.5.667 1.061 1.289 1.677 1.857.443.412.984.712 1.574.872s1.211.174 1.808.043m-9.422 10.788q.145.009.29 0c.142-.028.284-.064.406-.1 1.816-.445 2.666-1.83 3.354-3.337.103-.238.124-.501.061-.751a1.2 1.2 0 0 0-.411-.637 1.386 1.386 0 0 0-1.685-.142c-.17.11-.311.256-.415.428-.33.473-.598.998-.969 1.44a.96.96 0 0 1-.324.296.98.98 0 0 1-1.218-.213 2.6 2.6 0 0 1-.594-.771c-.236-.482-.407-.999-.61-1.5a1.4 1.4 0 0 0-.572-.704 1.44 1.44 0 0 0-.894-.21 1.37 1.37 0 0 0-.843.475 1.3 1.3 0 0 0-.3.904c-.006.215.02.43.077.637a7.15 7.15 0 0 0 1.465 2.765c.85.93 2.006 1.272 3.182 1.42m2.715-9.706c-.34.023-.656.174-.885.42a1.28 1.28 0 0 0-.347.899c.007.332.144.65.383.886s.562.374.902.384c.331-.006.649-.131.892-.351s.395-.52.427-.842a1.38 1.38 0 0 0-.392-.98 1.45 1.45 0 0 0-.98-.436zm-3.691.672a1.26 1.26 0 0 0-.205-.723 1.3 1.3 0 0 0-.585-.485 1.33 1.33 0 0 0-1.44.27 1.25 1.25 0 0 0-.276 1.408c.103.234.276.433.497.57.22.138.477.208.739.201a1.34 1.34 0 0 0 .889-.386c.236-.234.372-.547.38-.875z"/><path fill="#3558a2" d="M54.534 51.39a10.9 10.9 0 0 1 1.25-4.248 2.9 2.9 0 0 1 .972-1.007 1.27 1.27 0 0 1 1.007-.201c.173.037.336.11.478.213q.215.158.346.386c.192.267.33.561.505.84.66 1.054 1.706 1.67 2.76 2.275.35.203.724.366 1.05.6.184.108.343.252.469.422a1.54 1.54 0 0 1 .274 1.19c-.039.206-.12.402-.239.576a8.3 8.3 0 0 1-2.849 2.952 3.902 3.902 0 0 1-3.443.265 3.8 3.8 0 0 1-1.439-1.015 3.7 3.7 0 0 1-.816-1.541c-.187-.565-.232-1.142-.325-1.707m3.138-1.348a3.6 3.6 0 0 0-.167 2.386c.175.776.928 1.039 1.652.653a2.6 2.6 0 0 0 1.164-1.194zM63.935 47.672a1.35 1.35 0 0 1-.933-.386 1.29 1.29 0 0 1-.385-.915c.042-.342.206-.658.461-.895a1.53 1.53 0 0 1 .939-.402c.351.017.685.159.938.398s.408.56.437.903a1.3 1.3 0 0 1-.44.956 1.36 1.36 0 0 1-1.017.34M61.644 43.798c-.02.327-.169.634-.415.857a1.32 1.32 0 0 1-.907.336 1.26 1.26 0 0 1-.833-.37 1.2 1.2 0 0 1-.352-.823c.02-.561.696-1.106 1.408-1.126.294.02.57.146.773.354.204.209.32.484.326.772M43.737 65.899a6.83 6.83 0 0 1-1.311 4.335 3.57 3.57 0 0 1-1.623 1.327 3.66 3.66 0 0 1-2.105.2c-1.343-.198-2.6-.508-3.663-1.367a4.2 4.2 0 0 1-.928-1.043 1.076 1.076 0 0 1 .244-1.38 1.18 1.18 0 0 1 1.319-.29q.55.252 1.034.612c.653.47 1.423.763 2.23.847.288.063.59.025.853-.106.263-.132.47-.348.588-.614.434-.723.66-1.548.65-2.386 0-.358-.036-.72 0-1.078.046-.824.436-1.27 1.149-1.345.712-.075 1.27.295 1.449 1.158q.093.56.114 1.13M33.476 65.147a1.21 1.21 0 0 1 .383-.986 1.292 1.292 0 0 1 1.021-.34c.333-.001.653.121.896.343.242.223.388.527.407.852-.002.361-.145.709-.401.97a1.46 1.46 0 0 1-.975.434 1.33 1.33 0 0 1-.94-.363 1.27 1.27 0 0 1-.39-.91M38.474 64.136a1.32 1.32 0 0 1-.957-.329 1.26 1.26 0 0 1-.418-.904c0-.343.137-.673.38-.92.243-.248.575-.394.926-.409.348.03.674.182.916.429.241.246.383.57.399.912a1.17 1.17 0 0 1-.356.87 1.23 1.23 0 0 1-.89.35M41.177 42.341a10.9 10.9 0 0 1-.814 3.158c-1.091 2.387-3.77 3.08-5.987 1.591-1.587-1.066-2.442-2.553-2.906-4.312a1.9 1.9 0 0 1-.094-.632c.005-.329.132-.645.356-.89a1.4 1.4 0 0 1 .865-.447c.334-.038.67.046.946.234s.47.47.548.789c.191.54.338 1.102.557 1.63.292.71.856 1.282 1.571 1.592.709.318 1.266.187 1.53-.53q.395-1.229.607-2.501c.053-.243 0-.505.029-.752.013-.283.125-.553.317-.765s.453-.353.739-.4c.286-.046.58.005.832.144.252.14.447.36.554.623q.236.72.35 1.468M31.743 38.164c.031-.36.199-.694.47-.939.271-.244.626-.38.995-.382a1.42 1.42 0 0 1 1.046.401 1.35 1.35 0 0 1 .399 1.027c-.066.82-.635 1.221-1.506 1.245a1.38 1.38 0 0 1-1.002-.379 1.32 1.32 0 0 1-.402-.973M37.917 38.959a1.32 1.32 0 0 1-.948-.366 1.26 1.26 0 0 1-.383-.923 1.23 1.23 0 0 1 .411-.91 1.28 1.28 0 0 1 .96-.327 1.5 1.5 0 0 1 .873.41c.236.227.387.525.43.847a1.24 1.24 0 0 1-.396.913 1.3 1.3 0 0 1-.947.356M51.999 27.226c-1.176-.128-2.332-.47-3.163-1.44a7.15 7.15 0 0 1-1.465-2.765 2.2 2.2 0 0 1-.077-.637 1.3 1.3 0 0 1 .301-.904c.211-.255.511-.424.843-.476.313-.029.628.045.893.211.266.166.467.414.572.704.207.501.374 1.018.61 1.5.148.29.35.552.595.771a.96.96 0 0 0 .792.336.98.98 0 0 0 .75-.419c.37-.442.639-.967.969-1.44.103-.172.245-.318.415-.428a1.38 1.38 0 0 1 1.166-.16c.194.062.371.164.519.302.204.163.348.387.411.637s.042.514-.061.75c-.688 1.508-1.539 2.893-3.354 3.338-.142.036-.285.072-.407.1q-.153.02-.31.02M54.713 17.498c.368.015.716.169.971.428.256.26.4.605.4.964a1.3 1.3 0 0 1-.426.842c-.243.22-.56.346-.892.352a1.34 1.34 0 0 1-.901-.385 1.28 1.28 0 0 1-.037-1.786c.23-.245.546-.395.885-.419zM51.022 18.17a1.26 1.26 0 0 1-.233.714c-.15.21-.36.371-.604.463s-.51.11-.765.053a1.3 1.3 0 0 1-.663-.377 1.25 1.25 0 0 1-.22-1.417c.112-.23.292-.422.518-.552.225-.129.485-.19.746-.172.331.027.64.175.866.413s.352.55.355.875"/><path fill="#979fbb" d="m57.672 50.043 2.65 1.854a2.6 2.6 0 0 1-1.164 1.193c-.725.398-1.478.123-1.653-.652a3.6 3.6 0 0 1 .167-2.395"/></svg>