<svg xmlns="http://www.w3.org/2000/svg" width="46" height="50" fill="none" viewBox="0 0 46 50"><path fill="#3558a2" d="M2.973 18.813c-.188-.59-.369-1.157-.546-1.727-.22-.716-.08-1.018.623-1.325.64-.276 1.286-.541 1.988-.833-.22-.65-.397-1.277-.634-1.884-.285-.738-.146-1.104.628-1.37 2.127-.72 4.256-1.426 6.385-2.138l13.4-4.475c.786-.263 1.117-.113 1.435.687q1.14 2.84 2.27 5.686c.038.092.089.179.175.357.133-.22.236-.397.336-.574l5.615-10.079C35.233.09 35.942-.108 36.983.5q4.126 2.412 8.247 4.835c.475.278.59.599.394 1.104q-.105.251-.243.484L36.35 23.23q-.517.95-1.155 1.824c-.204.274-.557.442-.895.68.29.953.585 1.942.884 2.932.298.99.567 1.92.883 2.871a1.77 1.77 0 0 1-.135 1.45c-.158.245-.39.434-.662.54-.608.255-1.244.442-1.867.663-.13.047-.256.102-.424.17.168.734.33 1.45.495 2.165.22.963.06 1.292-.884 1.646-.6.22-1.215.406-1.822.611a3 3 0 0 0-.298.155c.22.7.442 1.383.634 2.07.087.244.132.502.132.762-.037.497-.441.689-.846.83-1.343.462-2.69.91-4.037 1.368l-15.122 5.12q-.257.092-.517.163c-.6.161-.79.049-1.17-.428a4.5 4.5 0 0 1-.69-1.445Q4.593 34.661.315 21.936a10 10 0 0 1-.271-.971c-.155-.716.024-1.045.709-1.308.618-.236 1.241-.442 1.862-.678.1-.049.205-.1.358-.166m22.252-.76c.77-1.38 1.522-2.75 2.3-4.106a.76.76 0 0 0 0-.73q-1.198-2.983-2.386-5.965c-.071-.176-.164-.344-.25-.523L6.07 13.013c2.91 8.65 5.79 17.211 8.69 25.844L34.573 32.1l-1.752-5.724-2.169 1.037c-1.19.572-2.375 1.16-3.576 1.711-.824.38-1.546 0-1.661-.846-.146-.97-.256-1.946-.384-2.918-.13-1.009-.266-2.018-.396-3.008-1.568-.382-2.282-1.244-2.145-2.54.126-1.186.968-1.732 2.735-1.758M1.648 21.032c.335.976.662 1.9.972 2.825l7.605 22.58c.13.386.291.763.441 1.159l18.84-6.375c-.204-.663-.383-1.217-.568-1.811-.265.077-.477.132-.685.2-2.966.98-5.922 1.989-8.901 2.932-2.247.711-4.418 1.657-6.762 2.08-.625.113-1.007-.037-1.263-.611a12 12 0 0 1-.407-1.129L3.713 21.053c-.073-.22-.161-.442-.252-.687zm2.41-3.976c.382 1.146.746 2.224 1.104 3.313l7.307 22.109c.192.583.22.596.75.422q9.106-3.01 18.208-6.024c.148-.048.288-.123.442-.192l-.442-1.796c-.256.07-.442.115-.631.18q-4.118 1.399-8.235 2.813c-2.664.921-5.321 1.862-7.983 2.792a.773.773 0 0 1-.976-.369 3.5 3.5 0 0 1-.25-.61q-1.15-3.412-2.293-6.825a15346 15346 0 0 0-5.312-15.806c-.066-.199-.154-.389-.243-.605zM38.753 3.393l-9.516 17.35 2.081 1.139c3.188-5.755 6.35-11.462 9.54-17.23zm3.41 2.01-9.431 17.23 1.628.883c3.178-5.743 6.324-11.429 9.485-17.136zM27.82 19.958 37.393 2.6c-.441-.256-.852-.505-1.31-.78-3.242 5.825-6.445 11.584-9.66 17.365zm-1.637.916-.114.095c.132.99.26 1.988.406 2.967.03.112.102.208.201.267a207 207 0 0 0 2.761 1.703.58.58 0 0 0 .442.082c.976-.442 1.94-.924 3.013-1.44z"/><path fill="#fff" d="M25.226 18.053c-1.78.027-2.614.572-2.74 1.767-.137 1.297.577 2.158 2.145 2.54.13.99.265 2 .396 3.009.128.972.238 1.948.384 2.918.126.857.837 1.226 1.661.846 1.202-.552 2.386-1.14 3.576-1.712l2.17-1.036 1.75 5.723-19.808 6.748c-2.9-8.628-5.78-17.189-8.69-25.843l18.826-6.289c.087.179.18.347.25.524l2.386 5.963a.76.76 0 0 1 0 .732c-.78 1.36-1.531 2.73-2.306 4.11M17.08 23.96c-.048-1.564-1.031-2.333-2.456-2.39-1.16-.047-2.11 1.005-2.116 2.24a2.43 2.43 0 0 0 2.344 2.43 2.21 2.21 0 0 0 2.233-2.28zm.566-2.039a2.24 2.24 0 0 0 2.277 2.284 2.34 2.34 0 0 0 2.29-2.306 2.282 2.282 0 0 0-4.56.022zm4.376-9.158c-1.12.016-2.026 1.012-1.988 2.209.026 1.312 1.104 2.46 2.319 2.458a2.13 2.13 0 0 0 2.15-2.189c-.05-1.325-.876-2.45-2.477-2.478zM16.5 29.721c.2.576.39 1.135.584 1.694q.111.373.278.724a.766.766 0 0 0 1.332.085.74.74 0 0 0 .102-.52 2.4 2.4 0 0 0-.126-.521 89 89 0 0 0-.566-1.706c-.165-.49-.313-.99-.523-1.462-.268-.594-.926-.79-1.38-.358-.767.73-1.479 1.518-2.17 2.32a.71.71 0 0 0 .09 1.027.76.76 0 0 0 .992.028q.21-.168.391-.368zM12.465 18.4c.137.41.22.717.34 1.015q.162.481.404.926a.66.66 0 0 0 .844.27.676.676 0 0 0 .497-.677q.012-.241-.046-.475c-.285-.896-.557-1.798-.884-2.681-.327-.884-1.137-1.023-1.74-.248-.568.727-1.105 1.472-1.66 2.21a1.5 1.5 0 0 0-.18.308.762.762 0 0 0 1.162.926q.229-.195.404-.442c.278-.335.536-.696.863-1.133zm9.116 9.106c.088.3.148.506.22.711.169.555.31 1.12.515 1.662a.742.742 0 0 0 1.313.13.78.78 0 0 0 .128-.515.9.9 0 0 0-.038-.236c-.338-1.087-.638-2.187-1.034-3.252-.27-.729-.9-.846-1.49-.33a30 30 0 0 0-1.655 1.574c-.382.389-.402.868-.097 1.182.304.313.75.309 1.184-.051.3-.245.583-.528.958-.875zm-4.528-11.29.265.73c.137.375.245.766.417 1.124a.767.767 0 0 0 .957.415.8.8 0 0 0 .488-.925 1 1 0 0 0-.049-.175c-.243-.72-.47-1.444-.738-2.156a3.3 3.3 0 0 0-.477-.828c-.324-.422-.848-.515-1.21-.148-.63.64-1.208 1.325-1.767 2.032a.6.6 0 0 0 .024.83c.198.186.454.297.725.314.198 0 .428-.19.596-.346.259-.243.48-.537.769-.866"/><path fill="#979fbb" d="m1.648 21.031 1.816-.662c.09.247.179.466.252.687l7.207 21.827q.175.575.407 1.13c.256.574.638.724 1.263.611 2.337-.424 4.515-1.37 6.762-2.08 2.98-.944 5.935-1.953 8.901-2.932.208-.068.42-.123.685-.2l.568 1.81-18.84 6.375c-.152-.395-.313-.773-.441-1.16Q6.42 35.152 2.623 23.86c-.314-.928-.639-1.851-.975-2.828"/><path fill="#cbcfdd" d="m4.057 17.062 1.457-.607c.089.22.177.406.243.605q2.651 7.9 5.313 15.806l2.293 6.826q.095.316.25.61a.773.773 0 0 0 .975.368c2.662-.93 5.32-1.87 7.983-2.792q4.113-1.422 8.235-2.814c.185-.064.375-.108.631-.179l.442 1.796c-.159.069-.298.144-.442.192q-9.1 3.015-18.207 6.024c-.535.174-.559.161-.751-.422Q8.823 31.43 5.172 20.366c-.369-1.08-.733-2.158-1.115-3.304"/><path fill="#fff" d="m38.754 3.4 2.105 1.25c-3.19 5.76-6.353 11.468-9.54 17.23l-2.08-1.138z"/><path fill="#cbcfdd" d="m42.164 5.41 1.681.992-9.485 17.136-1.628-.883c3.146-5.759 6.273-11.473 9.432-17.245M27.82 19.964l-1.398-.773c3.216-5.78 6.419-11.54 9.661-17.364.458.274.884.524 1.31.78z"/><path fill="#fff" d="m26.183 20.88 6.709 3.674c-1.074.517-2.037.992-3.013 1.44a.58.58 0 0 1-.442-.081 149 149 0 0 1-2.761-1.703.44.44 0 0 1-.201-.268c-.146-.987-.274-1.988-.407-2.966z"/><path fill="#3558a2" d="M17.086 23.96a2.21 2.21 0 0 1-2.229 2.27 2.43 2.43 0 0 1-2.343-2.43c0-1.234.956-2.285 2.116-2.239 1.425.066 2.407.835 2.456 2.399m-2.242.632a.663.663 0 0 0 .663-.634c0-.38-.387-.826-.73-.824a.703.703 0 0 0-.662.651.82.82 0 0 0 .729.807M17.65 21.921a2.282 2.282 0 0 1 4.562-.022 2.34 2.34 0 0 1-2.288 2.306 2.236 2.236 0 0 1-2.273-2.284m2.932-.033a.625.625 0 0 0-.663-.627.694.694 0 0 0-.678.698.626.626 0 0 0 .663.618.663.663 0 0 0 .682-.689zM22.027 12.763c1.6.038 2.43 1.153 2.469 2.467a2.13 2.13 0 0 1-2.143 2.2c-1.208 0-2.292-1.146-2.319-2.458-.033-1.197.873-2.193 1.992-2.209m.848 2.46c.013-.44-.345-.883-.718-.883-.303 0-.506.248-.508.617a.817.817 0 0 0 .689.841c.325.016.526-.199.537-.576zM16.504 29.72l-.996.944q-.181.2-.391.369a.76.76 0 0 1-.992-.029.715.715 0 0 1-.09-1.027c.69-.802 1.402-1.59 2.168-2.32.455-.441 1.105-.236 1.38.358.21.473.359.972.524 1.463q.292.852.566 1.705.092.253.126.521a.74.74 0 0 1-.526.837.77.77 0 0 1-.908-.402 5 5 0 0 1-.278-.724c-.194-.559-.384-1.118-.583-1.694M12.468 18.4c-.326.442-.585.793-.854 1.138a2.4 2.4 0 0 1-.405.442.762.762 0 0 1-1.162-.926q.072-.165.182-.31c.55-.74 1.09-1.483 1.659-2.208.603-.775 1.404-.663 1.74.247s.594 1.785.884 2.682q.057.234.046.475a.676.676 0 0 1-.497.676.663.663 0 0 1-.844-.27 6 6 0 0 1-.404-.925c-.12-.303-.208-.61-.345-1.02M21.585 27.507c-.376.347-.663.63-.963.884-.442.36-.884.369-1.184.05-.3-.317-.285-.792.097-1.18a32 32 0 0 1 1.654-1.576c.572-.501 1.222-.397 1.491.332.396 1.064.696 2.164 1.034 3.25a.9.9 0 0 1 .038.237.775.775 0 0 1-.557.826.74.74 0 0 1-.884-.441c-.205-.542-.346-1.105-.514-1.662zM17.052 16.218c-.298.336-.519.623-.78.866-.167.157-.397.349-.596.347a1.17 1.17 0 0 1-.725-.314.6.6 0 0 1-.024-.83c.57-.696 1.149-1.392 1.767-2.033.363-.366.884-.274 1.21.148q.3.38.478.829c.267.711.495 1.435.738 2.156a1 1 0 0 1 .048.174.8.8 0 0 1-.488.926.766.766 0 0 1-.956-.416c-.173-.358-.281-.748-.418-1.124z"/><path fill="#fff" d="M14.843 24.592a.82.82 0 0 1-.736-.807.703.703 0 0 1 .663-.651c.343 0 .738.442.729.824a.663.663 0 0 1-.656.634M20.587 21.888a.66.66 0 0 1-.663.69.63.63 0 0 1-.662-.62.694.694 0 0 1 .924-.656.625.625 0 0 1 .401.586M22.875 15.222c0 .375-.22.59-.537.572a.817.817 0 0 1-.689-.842c0-.369.206-.614.508-.616.373.002.731.444.718.886"/></svg>