<svg xmlns="http://www.w3.org/2000/svg" width="371" height="348" fill="none" viewBox="0 0 371 348"><path fill="#102185" d="M173.997 293.54c-.142 1.43-.482 2.322-.524 3.327-.283 9.982-3.908 19.454-10.11 27.184-6.201 7.731-14.753 13.281-24.48 15.66-10.378 2.874-21.436 1.982-31.262-2.45-9.826-4.431-17.699-12.049-22.513-21.804-4.8-9.628-6.03-20.601-3.652-31.078s8.424-19.765 17.019-26.307c1.996-1.331 3.355-3.469 3.822-5.932 2.52-10.492 5.182-20.856 7.702-31.361 1.515-6.273 1.388-7.533 9.826-8.524 5.777-.58 11.766-.453 17.727-.623l2.11-.212c.212-2.152.41-4.446.467-6.74.156-8.41.312-16.962.467-25.372a34 34 0 0 0-.538-5.352c-.24-2.393-1.444-4.545-3.058-6.385-1.586-1.685-3.71-2.903-6.187-3.512-1.445-.283-2.931-.849-4.404-1.416-4.191-2.138-5.479-6.428-2.874-10.378a117 117 0 0 1 8.793-11.681c2.534-3.1 5.451-3.808 9.033-2.18 11.369 5.564 20.417 13.62 24.65 26.151 1.841 5.649 1.841 11.341 1.713 17.188-.014 8.396-.339 16.679-.368 24.934-.014 1.288-.17 2.576-.142 4.276l19.044-.185a3.1 3.1 0 0 0 .595-1.203c4.998-18.42 9.996-36.855 14.98-55.417 1.755-6.725 3.497-13.436 5.252-20.162.185-1.019.524-1.897.992-2.945.311-1.175 1.075-2.095 1.996-2.761.934-.665 2.166-1.076 3.327-.906l39.276.085c6.839.029 13.663.071 20.36.114l18.916-.029c.992-.099 1.968-.198 3.129-.028 6.584.34 8.963 2.803 10.039 9.387 1.685 11.214 3.639 22.257 5.451 33.457.793 5.182 1.6 10.364 2.534 15.546.793 5.182 1.6 10.364 2.407 15.702.453.241.907.481 1.346.722 17.287 4.97 30.441 15.617 41.088 29.79 4.233 5.408 7.801 11.171 10.548 17.443l.043.425c2.959 5.394 2.704 7.136-2.025 11.157-3.936 3.384-8.155 6.64-12.247 9.897.778 3.483 1.968 6.923 2.322 10.435 1.599 13.209-1.487 26.618-8.609 37.987s-17.811 19.836-30.455 24.225c-19.525 6.782-38.002 4.205-54.61-8.382-10.308-7.801-17.259-19.057-19.666-31.771-.637-3.498-1.119-7.009-1.813-11.058-22.172.212-44.614.594-67.338.991h-.142zm-60.231-43.397 2.393-.24a36.2 36.2 0 0 1 14.512-1.444c16.807 1.6 29.422 9.741 37.733 24.565.864 1.486 2.393 2.605 2.988 4.262.608 1.784.92 3.61 1.104 5.437 4.63.821 44.118.169 47.304-.708.368-2.025.453-4.036.977-5.933 3.709-14.173 9.769-27.722 18.109-39.786.623-.92 1.246-1.826 1.84-3.03l-4.898-.651c-5.763-.708-11.512-1.274-17.161-2.279a7.7 7.7 0 0 1-3.554-1.36c-1.062-.608-1.996-1.515-2.676-2.576-.679-1.062-1.203-2.153-1.331-3.427s-.254-2.534.057-3.709c.212-.737.425-1.459.637-2.195l9.175-32.211c2.535-8.934 5.21-17.726 7.603-26.646.283-1.444.991-2.945 2.152-4.05 1.034-1.104 2.365-1.939 3.908-2.237 1.105-.396 2.209-.651 3.328-.906 11.482-1.855 23.078-1.147 34.632-.878 4.148.156 5.903 2.124 6.442 6.188l.198 1.968c.878 13.139 1.911 26.42 2.789 39.559l.453 4.502c3.781-.665 7.391-1.444 11.058-1.812s7.363-.312 11.327-.552c-3.355-20.87-6.669-41.315-10.01-62.185l-77.83.043c-.538 1.755-.977 3.086-1.275 4.389-5.337 19.312-9.67 38.809-15.871 57.923-1.303 4.106-2.294 8.481-3.158 12.686-.396 1.741-1.231 3.398-2.364 4.785s-2.761 2.266-4.559 2.875a14.4 14.4 0 0 1-6.06.594c-5.819.156-11.511.142-17.33.298-4.262 0-8.538 0-12.673-.029-4.12.128-8.65.283-12.912.283-2.124 10.166-11.072 18.888-25.627 21.323-.411 1.6-.949 3.37-1.345 5.112.056.566-.029 1.146.028 1.699l-.113.297zm138.5 46.441c.226 2.251.467 4.644.962 6.881 2.563 9.996 8.397 18.661 16.552 24.82s18.279 9.288 28.501 8.976c18.166-.524 32.112-9.019 41.697-24.338 6.372-10.308 8.567-22.626 5.834-34.448-2.096-9.614-7.349-18.052-15.051-24.112-13.776-11.157-29.379-13.592-46.015-7.816-21.578 7.688-35.057 29.521-32.594 50.051h.142zm-121.51 34.391c16.41-.92 35.057-16.566 32.593-39.941-.481-4.786-1.925-9.345-4.191-13.522s-5.337-7.858-9.047-10.916c-3.724-3.044-7.929-5.338-12.601-6.57-4.545-1.401-9.43-1.77-14.216-1.288-4.785.481-9.344 1.925-13.521 4.191s-7.858 5.338-10.916 9.047c-3.044 3.724-5.183 8.056-6.57 12.601-1.402 4.545-1.77 9.43-1.288 14.215 2.42 21.536 21.945 34.675 39.899 32.183zm111.839-48.663c6.159-25.372 21.281-42.235 46.795-47.474 25.783-5.409 46.242 4.234 60.967 26.533l9.09-7.306c-.369-.821-.708-1.359-.892-1.755-.694-1.218-1.388-2.563-2.082-3.781-6.881-11.978-15.588-22.356-27.552-29.563-14.088-8.566-28.983-11.072-44.982-5.918-10.591 3.61-20.219 9.84-27.794 18.123-12.615 13.352-20.402 29.492-25.344 47.049-.297 1.317-.594 2.619-.991 4.361l12.799-.128v-.141zm-21.082-61.93c.878.198 1.317.297 1.883.382 7.349.977 14.697 1.813 22.045 2.79a5.8 5.8 0 0 0 3.101-.312c.963-.382 1.897-.906 2.662-1.826a71.5 71.5 0 0 1 18.562-13.649c.807-.51 1.741-1.034 2.548-1.529-.963-15.419-2.038-30.526-3.001-45.945-10.577-.51-20.728-.934-31.064.949l-16.764 58.999v.141zm-86.495-65.823c.453.241 1.062.609 1.501.849 9.019 3.37 13.408 10.336 13.889 19.539.482 9.203-.071 17.939-.028 26.902.042 3.27-.92 6.498.113 9.811l6.683-.099c.099-3.284.198-6.569.312-9.712.099-8.977.353-17.968.169-26.916.085-3.426-.665-6.768-2.123-9.897s-3.427-5.918-5.947-8.226c-3.143-2.959-6.286-6.06-10.591-7.773l-3.992 5.663v-.141zm-5.111 67.522-9.515.227c-.524 1.897-.807 3.355-1.232 4.814-.283 1.444-1.274 2.973-.807 4.771 2.648-.552 4.941-1.77 7.065-3.398 1.954-1.756 3.597-3.908 4.489-6.428zM16.368.003c6.683-.099 13.28 1.954 18.789 5.82 3.978 2.874 7.334 6.527 9.755 10.845 2.237 3.908 4.743 7.646 6.98 11.54a30.9 30.9 0 0 0 10.704 10.321c3.936 2.308 8.127 4.46 12.05 6.768 10.533 5.777 18.193 14.13 22.044 25.698 3.229 9.642 7.83 18.717 13.918 26.93 3.483 4.912 7.094 9.825 8.538 15.8 1.218 5.14 2.435 10.152 3.653 15.292.255 1.118.226 2.251.34 3.383.085.85-.397 1.742-.892 2.507-.496.764-1.303 1.26-2.266 1.5-3.341.765-6.612.793-9.43-1.769-2.52-2.45-5.026-4.772-7.404-7.236-6.485-6.612-14.13-11.964-22.64-15.956-5.536-2.719-10.59-6.343-14.867-10.761-4.106-4.148-7.419-8.792-9.94-14.102-2.491-5.012-5.266-10.01-8.155-14.838a34 34 0 0 0-11.808-11.497c-5.295-3.171-10.463-6.499-15.63-9.826a72 72 0 0 1-9.09-7.065A30.56 30.56 0 0 1 .75 24.455c-.793-3.624-1.02-7.433-.382-11.058.467-2.463 1.515-4.842 3.172-6.71 1.656-1.87 3.794-3.37 6.13-4.163C12.135 1.56 14.754.74 16.694.117l-.298-.114zm93.221 119.23.538-.34c-.071-.708-.156-1.543-.51-2.223-1.586-4.53-3.851-8.721-6.923-12.403-6.768-9.43-12.233-19.992-15.886-31.007a30.85 30.85 0 0 0-12.56-16.113c-4.403-2.831-9.09-5.507-13.592-7.9-7.645-3.936-13.932-9.854-18.35-17.104-2.052-3.497-4.247-6.98-6.314-10.619-1.713-2.959-3.95-5.436-6.697-7.305-2.747-1.87-5.876-3.257-9.203-3.78-6.371-1.077-10.534 2.76-10.053 9.103.213 3.54 1.133 7.15 2.86 10.251a24.1 24.1 0 0 0 7.065 8.113c1.685 1.26 3.243 2.52 4.914 3.639 5.026 3.341 10.052 6.683 15.333 9.712 6.782 3.88 12.616 9.558 16.552 16.283 2.718 4.432 5.154 8.877 7.32 13.507 4.375 9.67 12.261 17.415 21.946 21.861 7.915 3.766 15.235 8.736 21.535 14.796.637.651 1.26 1.161 1.883 1.798l.113-.297z"/><path fill="#102185" d="M299.145 274.283c11.554-1.147 20.856 6.612 21.068 17.26 0 4.403-1.543 8.835-4.332 12.233s-6.825 5.805-11.143 6.654c-6.428 1.204-12.247-.071-17.104-4.559-2.492-2.166-4.176-4.842-5.068-8.028-.878-3.044-.779-6.47.184-9.557.821-3.214 2.506-6.23 4.842-8.594 2.336-2.365 5.281-4.078 8.623-4.842.991-.1 1.939-.482 2.93-.581zm2.337 26.378c4.927-.496 8.92-4.729 8.608-9.246-.439-4.361-4.743-7.645-9.387-7.178s-8.807 4.431-8.354 9.075c.114 1.133.354 2.096.892 3.186.524.949 1.175 1.869 2.096 2.492.92.623 1.812 1.104 2.845 1.43s2.167.354 3.285.099v.142zM113.525 294.983c-.779-7.886 4.248-14.512 11.61-14.951 7.363-.439 14.074 4.148 14.612 12.488.354 3.525-.708 7.178-2.846 9.953-2.28 2.79-5.522 4.531-9.033 5.027-7.447.877-13.55-4.63-14.315-12.375v-.142zm13.168 2.11c.849-.085 1.642-.595 2.279-1.359.496-.765.835-1.643.751-2.492-.085-.85-.453-1.657-.935-2.181-.637-.651-1.373-1.005-2.237-1.061-.85.085-1.628.736-2.138 1.345-.496.764-.835 1.642-.75 2.492l.127 1.274c.043.425.354.679.68 1.076.311.255.623.51 1.076.75.453.241.736.213 1.175.312v-.142z"/></svg>