<svg xmlns="http://www.w3.org/2000/svg" width="288" height="170" fill="none" viewBox="0 0 288 170"><path fill="#102185" d="M148.353 26.182c2.237-2.52 4.078-4.53 5.989-6.428C169.563 3.571 187.941.498 208.683 6.063c23.461 6.272 37.747 33.952 32.225 59.565-2.534 11.822-8.226 22.059-15.178 31.644-14.866 20.757-34.646 36.657-53.293 53.59-6.867 6.23-15.008 11.186-22.697 16.396-5.21 3.511-10.463 2.789-15.701-.779-17.784-12.388-31.432-28.855-45.973-44.571-12.46-13.422-23.462-27.736-31.093-44.5-10.194-22.597-5.947-47.898 10.293-64.28 17.571-17.826 58.108-19.497 76.953 7.518 1.26 1.911 2.831 3.497 4.53 5.663l-.382-.127zm22.413 56.663c.637-.623 1.091-1.317 1.53-2.025 3.652-7.32 9.556-9.755 17.457-8.141 10.251 2.209 20.686 3.85 30.937 6.06 3.157.651 5.125.155 5.847-2.875 1.742-6.385 4.446-12.77 4.913-19.156.963-15.008-4.021-28.331-17.089-36.571-13.309-8.44-27.808-8.708-42.292-1.558-7.872 3.88-12.785 10.888-18.336 17.245-4.205 4.913-8.127 4.956-11.907-.439-2.011-2.803-4.021-5.593-6.032-8.396-12.063-16.778-32.253-19.935-49.314-14.201-15.929 5.48-26.789 24.424-24.806 43.17 1.557 15.334 9.528 27.977 18.08 40.182.694.764 1.572 1.274 2.591 1.401 8.736 1.7 9.36 1.388 13.338-6.57 1.529-2.972 2.817-6.13 4.162-9.16 2.945-6.499 5.65-12.884 8.779-19.326 1.416-2.903 3.327-5.748 7.249-5.465 3.865.141 5.55 3.256 7.051 6.3.312.637.694 1.402.878 2.096 2.166 7.928 4.347 15.857 6.329 23.715 1.062 3.738 1.798 7.476 2.662 11.157 3.256-6.187 5.508-12.502 8.014-18.633 3.086-7.518 6.031-14.98 9.741-22.172 2.945-5.876 9.146-5.465 12.289.255l1.19 2.407c2.308 6.91 4.545 13.705 6.853 20.615l-.128.056zm48.409 6.923c-.255-.51-.368-1.076-.496-1.642-10.944-1.713-21.946-3.54-32.961-5.055-.637 0-1.331.184-1.898.623-.637.312-1.076.694-1.401 1.317-2.421 3.412-4.22 7.447-6.896 10.661-1.84 2.01-4.19 3.328-6.923 3.894-2.973.368-4.545-2.492-5.48-5.026-.382-.765-.495-1.643-.806-2.605l-5.905-19.03c-4.035 8.142-7.178 16.481-10.576 24.636a285 285 0 0 1-7.632 16.863c-1.416 2.903-3.95 4.786-7.561 4.205s-4.983-3.072-5.663-6.045c-1.487-5.89-3.03-11.922-4.403-17.883-1.614-6.782-3.214-13.564-4.956-20.29-1.203 1.077-2.237 2.521-2.747 4.036-2.378 5.437-4.36 10.987-7.121 16.297-3.271 6.499-5.395 14.654-15.589 14.484 4.276 4.842 7.985 9.161 11.766 13.295 11.581 12.913 23.163 25.839 37.478 35.665 1.642 1.091 3.03 2.294 5.125.793 6.103-4.275 12.644-7.971 18.307-12.813a1262 1262 0 0 0 41.499-38.455c5.48-5.225 9.94-11.539 14.782-17.4l.071-.51zM251.81 117.873c-2.917 1.445-5.197 1.303-7.151-1.047-1.954-2.351-1.812-4.956.227-6.584 9.288-7.108 11.185-17.67 13.706-27.907a47 47 0 0 1 1.033-4.927c.963-2.534 2.874-4.418 5.593-3.384 1.77.708 4.219 3.129 4.021 4.644-1.473 14.3-4.772 27.765-15.787 38.101-.566.439-1.019.821-1.657 1.133zM272.665 125.575c-3.299 1.628-5.578 1.812-7.476-.425-.382-.439-.821-1.019-1.062-1.529-.24-.51-.311-1.274-.311-1.897 0-.637.198-1.203.396-1.77.199-.566.581-1.076 1.147-1.515 7.009-6.923 11.299-16.14 12.233-25.768 0-.637.198-1.204.581-1.713.325-.638.764-1.006 1.217-1.388.51-.255 1.076-.694 1.657-.807.51-.255 1.147-.24 1.841-.114.637 0 1.26 0 1.769.397.567.198 1.077.58 1.445 1.02.382.438.821 1.019 1.062 1.529.24.51.311 1.274.24 1.77a37.5 37.5 0 0 1-.807 7.659c-1.628 8.226-5.465 15.801-11.072 22.031-.948.949-1.911 1.883-2.931 2.704zM34.531 101.407c-1.883-3.171-4.276-6.102-5.65-9.528-2.066-4.829-3.553-9.77-4.672-14.91-.184-2.28.467-4.488 1.94-6.314a4.02 4.02 0 0 1 2.28-1.133c.82-.255 1.642-.184 2.534 0 .821.382 1.572.963 2.081 1.657.51.694.935 1.585 1.19 2.407.283 7.277 3.667 13.195 7.617 18.972 1.5 2.421 2.76 4.956 3.568 7.561 1.062 3.115.156 5.762-3.143 6.754-3.243 1.118-5.069-.666-6.372-3.328l-1.19-2.407.129-.056-.312.311zM3.07 99.085C1.826 95.275.89 91.467.098 87.602c-.552-3.993 1.303-6.64 4.276-7.009 3.795-.297 5.182 2.18 5.791 5.352 1.416 7.037 4.233 13.069 10.166 17.401.566.51 1.133 1.02 1.515 1.784.382.765.694 1.402.623 2.223s0 1.586-.326 2.209c-.255.764-.708 1.458-1.218 2.024a6.4 6.4 0 0 1-1.84 1.388c-.637.311-1.53.439-2.28.496s-1.515-.198-2.152-.524-1.33-.765-1.826-1.473c-3.526-3.95-6.669-8.396-9.869-12.332l.128-.056z"/></svg>