<svg width="297" height="287" viewBox="0 0 297 287" fill="none" xmlns="http://www.w3.org/2000/svg">
<path d="M168.809 92.1189C169.008 90.5756 169.163 89.3154 169.616 88.0836C170.239 85.4501 170.721 82.8025 171.315 80.3106C171.599 79.2062 172.292 78.3 173.241 77.5638C174.19 76.8275 175.365 76.5444 176.512 76.5586L178.48 76.8134C186.762 77.8753 195.059 78.923 203.328 80.1265C204.871 80.3247 206.386 80.8061 207.717 81.5424C208.765 82.2503 209.643 83.2131 210.209 84.4308C210.776 85.6484 210.889 86.9368 210.733 88.2111C210.223 93.2799 210.011 98.3911 209.643 103.488C209.218 111.29 208.935 119.105 208.439 127.459L219.724 137.455C220.106 137.795 220.488 138.12 220.885 138.46C224.665 141.221 225.77 144.93 225.458 149.603C224.991 153.256 225.373 157.008 225.331 160.717C225.274 163.422 225.217 166.126 225.147 168.83C224.991 172.243 224.849 175.641 224.679 179.194C224.594 183.187 224.679 187.038 224.594 191.031C224.524 193.877 224.439 196.723 224.382 199.427C224.198 203.108 224.014 206.804 223.83 210.485C223.787 214.194 223.716 218.031 223.801 221.897C223.731 224.743 223.66 227.447 223.589 230.293C223.405 233.974 223.221 237.669 223.037 241.351C222.853 245.032 222.91 249.039 222.867 252.748C222.768 255.736 222.839 258.596 222.598 261.569C222.414 265.25 222.23 268.946 222.046 272.627C221.989 275.331 222.074 278.05 221.749 280.584C221.182 285.073 219.242 286.828 214.669 286.814C209.544 286.729 204.432 286.503 199.42 286.587C193.856 286.587 188.292 286.587 182.571 286.587C179.428 286.616 176.186 286.347 173.043 286.375C167.62 286.403 162.056 286.403 156.619 286.418C154.056 286.375 151.493 286.333 148.931 286.29C143.239 286.134 137.703 285.865 132.138 285.865C126.871 285.766 121.42 285.922 116.139 285.964C113.138 286.007 110.023 285.752 106.879 285.78C103.311 285.752 99.7434 285.724 96.1613 285.837C93.7401 285.809 91.319 285.795 88.8979 285.766C83.3477 285.625 77.6701 285.341 72.1058 285.341C66.6972 285.228 61.3878 285.398 56.1066 285.441C53.105 285.483 50.2733 285.271 47.2858 285.172C43.5762 285.129 39.8523 285.228 36.1569 285.172C33.8916 285.03 31.4846 284.86 29.2617 284.435C28.5538 284.35 27.8884 283.982 27.3645 283.628C26.8406 283.274 26.3451 282.637 25.977 282.17C24.4054 279.975 23.5983 277.299 23.5134 274.581C23.3293 270.418 23.4426 266.157 23.4002 262.008C23.3011 257.138 23.216 252.281 23.1027 247.552C23.0744 243.262 23.0745 238.845 23.0462 234.555C23.0179 230.264 22.7488 225.663 22.7488 221.245C22.7063 217.097 22.6781 212.821 22.494 208.658C22.4232 203.646 22.3241 198.79 22.1117 193.764C22.0834 189.474 22.0833 185.056 22.055 180.766C22.0267 176.476 21.7577 171.874 21.7577 167.457C21.7577 163.039 21.7294 158.749 21.5595 154.445C21.5595 153.298 21.4179 152.137 21.4321 151.005C21.2056 149.405 21.4036 147.861 21.9983 146.516C22.4797 145.001 23.216 143.67 24.3629 142.538C27.6618 139.097 30.805 135.657 34.104 132.216C45.4451 120.535 56.7862 108.84 68.0989 97.3009C77.7834 87.404 87.468 77.5072 97.1525 67.6103C101.924 62.6548 106.837 57.7135 111.608 52.758C112.43 51.866 113.52 51.1439 114.851 50.889C116.026 50.6058 117.428 50.7899 118.518 51.2146C122.086 52.3756 125.399 54.372 128.174 57.1613C140.988 68.6439 154.099 80.0133 167.054 91.3826C167.422 91.864 167.818 92.0481 168.597 92.7277L168.809 92.1897V92.1189ZM134.121 274.68C133.965 271.381 133.781 268.351 133.88 265.378C133.88 259.672 134.206 253.853 134.361 248.175C134.432 245.329 134.517 242.483 134.574 239.779C134.63 235.928 134.687 232.233 134.602 228.367C134.659 224.516 134.574 220.792 134.63 216.955C134.744 212.694 134.885 208.276 135.296 203.915C135.706 200.687 136.867 199.413 140.081 198.818C142.418 198.408 144.853 198.28 147.302 198.167C155.33 197.912 163.358 197.643 171.245 197.36L195.328 196.581C198.486 196.411 201.275 198.054 202.238 200.602C202.62 202.075 202.861 203.533 202.804 205.105C202.861 207.965 202.663 210.655 202.733 213.515C202.861 218.102 202.988 222.69 203.116 227.263C203.186 232.275 202.988 237.23 202.917 242.228C202.917 244.508 202.917 246.788 202.903 249.081C202.974 254.093 203.073 258.95 203.144 263.962C203.201 267.969 203.271 271.976 203.314 276.11L211.738 276.039C211.922 272.358 212.092 268.804 212.262 265.265C212.319 261.413 212.234 257.69 212.432 253.867C212.474 250.157 212.8 246.49 212.984 242.809C213.055 239.963 213.14 237.117 213.197 234.413C213.253 230.562 213.168 226.838 213.225 223.001C213.282 219.164 213.593 215.624 213.636 211.915C213.706 209.069 213.791 206.223 213.848 203.519C213.876 199.951 213.763 196.369 213.933 192.829C214.018 188.836 214.372 184.886 214.457 180.908C214.641 178.359 214.683 175.796 214.584 173.219C214.641 169.368 214.556 165.645 214.612 161.808C214.612 158.523 214.74 155.252 214.896 151.712L212.092 151.359C206.811 151.401 201.374 151.415 196.093 151.458C190.812 151.5 185.715 151.132 180.434 151.174C173.029 151.089 165.723 151.302 158.304 151.203C151.876 151.245 145.603 151.16 139.204 151.047C132.804 150.934 126.22 150.962 119.679 150.835C112.132 150.721 104.6 150.481 97.1808 150.396C94.7597 150.367 92.3386 150.353 89.9174 150.325C84.6363 150.367 79.1993 150.382 73.9181 150.424C68.6369 150.467 63.2425 150.212 57.8339 150.084C51.5616 149.999 45.2894 149.914 39.1446 149.985C37.0066 149.985 34.8403 150.155 32.7023 150.169C33.4386 191.371 34.1891 232.572 34.9112 273.915C36.4544 274.114 37.7145 274.27 38.8755 274.142C42.1603 274.142 45.4592 273.986 48.7298 274.114C52.0146 274.114 55.1155 274.354 58.2446 274.468C60.8073 274.51 63.3699 274.553 65.9326 274.595C69.2174 274.595 72.5165 274.439 75.7871 274.567C78.7746 274.666 81.9035 274.779 85.0184 274.892C88.4448 274.892 91.8854 274.765 95.3118 274.779C98.455 274.751 101.697 275.02 104.826 275.133C107.389 275.176 109.952 275.218 112.515 275.261C115.799 275.261 119.098 275.105 122.369 275.232C125.64 275.36 129.038 275.515 132.322 275.501C133.045 275.445 133.639 275.246 134.262 274.892L134.135 274.737L134.121 274.68ZM41.6365 139.14C42.0329 139.338 42.3018 139.508 42.7266 139.564C47.7104 139.635 52.7227 139.564 57.7065 139.621C59.8445 139.621 62.0957 139.89 64.262 139.749C69.4016 139.692 74.4136 139.621 79.5532 139.564C84.976 139.536 90.2288 139.777 95.6374 139.904C98.2001 139.947 100.763 139.989 103.326 140.032C106.469 140.003 109.754 139.989 112.897 139.961C115.743 140.032 118.73 140.131 121.732 140.088C127.155 140.06 132.45 140.032 137.731 139.989C143.012 139.947 148.407 140.202 153.815 140.329C161.22 140.414 168.526 140.202 175.945 140.301C183.364 140.4 191.052 140.513 198.457 140.598C200.737 140.598 203.002 140.754 205.31 140.612C205.891 140.541 206.5 140.187 207.109 139.989C192.115 126.652 177.22 113.626 162.311 100.6C147.402 87.574 132.691 74.279 117.357 61.3239L41.6505 139.026V139.168L41.6365 139.14ZM143.904 275.204L192.072 275.784L192.624 271.424C192.525 266.553 192.426 261.838 192.327 256.968C192.228 252.097 192.454 247 192.497 242.144C192.483 235.574 192.171 228.976 192.157 222.406C192.058 217.536 192.256 212.708 192.157 207.851C191.591 207.781 191.053 207.568 190.614 207.653L145.617 209.055L145.32 211.448C145.32 217.154 145.433 222.874 145.278 228.565C145.207 234.696 144.867 240.784 144.655 246.901C144.584 249.747 144.513 252.451 144.442 255.297L144.131 268.96L144.032 275.374L143.904 275.218V275.204ZM178.027 100.43L198.443 118.298C198.5 115.594 198.33 113.569 198.443 111.587C198.741 105.909 199.151 100.402 199.59 94.7524C199.93 93.2233 199.718 91.4818 198.896 90.0942L189.906 88.9474C186.819 88.5509 183.605 87.9987 180.49 87.7438C179.499 92.1897 178.834 96.239 178.012 100.416L178.027 100.43Z" fill="#102185"/>
<path d="M186.606 16.3133C189.679 10.1401 194.875 5.24126 201.077 2.45201C203.837 0.951197 206.924 0.200759 210.096 0.0308555C213.267 -0.139048 216.325 0.399021 219.327 1.48923C226.803 4.43423 230.597 10.4941 231.758 18.1964C232.608 23.874 231.716 29.7498 229.323 35.0168C228.955 35.6823 228.728 36.3619 228.488 37.0557C228.573 37.4946 228.813 37.8061 229.068 38.1317C232.197 41.5298 233.91 46.0323 234.179 50.6338C234.689 56.6937 232.395 61.2528 228.318 65.3021C224.41 69.0825 219.27 71.2912 213.791 71.7301C209.289 72.2965 204.786 71.8717 200.51 70.6116C196.234 69.3515 192.227 67.2701 188.73 64.5375C187.173 63.334 185.728 62.3005 184.015 61.2244C182.968 60.5165 181.736 60.0776 180.49 59.7802C175.364 58.5626 170.706 55.9575 167.039 52.2196C163.953 49.5436 161.701 45.9756 160.498 41.9688C158.926 36.3478 159.408 30.4153 161.786 25.1483C163.004 22.3024 165.043 19.7113 167.705 17.9132C170.225 16.0867 173.354 15.0673 176.511 14.8974C179.994 14.4868 183.336 15.0532 186.62 16.1859V16.3274L186.606 16.3133ZM206.612 60.9696C209.826 61.5218 213.267 61.3943 216.382 60.5023C225.458 57.6565 225.543 49.1047 220.29 44.4465C219.525 43.7811 218.761 42.974 218.152 42.1811C216.538 40.2697 215.688 38.0184 217.132 35.6256C218.039 34.1673 218.803 32.5532 219.582 30.9391C221.875 26.3801 222.612 21.7644 220.375 16.908C219.157 14.1895 217.614 11.6976 214.272 10.9897C211.2 10.4517 208.156 10.7772 205.423 12.1506C203.016 13.1276 200.822 14.6992 199.009 16.6106C197.197 18.522 195.909 20.7874 195.144 23.3926C193.94 27.2296 192.114 29.2826 187.272 28.0932C185.615 27.5977 184.114 27.1163 182.642 26.3659C177.375 23.9873 172.561 25.9412 170.579 31.3922C169.658 34.1248 169.857 37.0132 170.82 39.5618C172.023 43.5687 175.421 46.0039 178.522 48.5383C179.046 48.8923 179.754 48.9773 180.306 49.0481C184.936 49.6427 189.381 51.7806 192.992 54.8105C196.999 58.0387 201.218 60.8563 206.329 61.0829L206.627 60.9838L206.612 60.9696Z" fill="#102185"/>
<path d="M277.209 102.796C280.536 105.783 283.693 109.04 287.035 111.9C288.861 113.273 290.843 114.519 292.854 115.496C294.737 116.445 296.436 117.662 296.719 119.843C297.002 121.018 296.861 122.15 296.295 123.212C295.87 124.303 295.049 125.195 293.973 125.775C292.288 126.695 290.716 127.786 289.031 128.72C284.897 130.901 281.244 133.86 278.355 137.498C275.467 141.137 273.23 145.272 271.927 149.816C269.889 155.692 268.26 161.766 267.34 167.925C267.255 168.633 266.859 169.44 266.505 169.964C265.103 173.065 262.809 174.339 260.317 173.745C258.944 173.291 257.755 172.555 256.919 171.309C256.056 170.205 255.673 168.718 255.857 167.317C255.971 164.187 256.098 160.931 256.367 157.674C256.933 148.755 256.778 139.891 255.787 130.915C255.433 127.021 254.059 124.274 249.868 123.595C249.33 123.382 248.637 123.156 248.113 122.802C247.008 122.519 246.102 121.825 245.508 120.905C244.913 119.984 244.474 118.922 244.46 117.917C244.446 116.912 244.743 115.666 245.423 114.901C246.116 113.995 246.895 113.372 247.957 112.947C249.925 112.055 252.02 111.319 253.861 110.271C260.714 106.859 266.307 101.153 269.761 94.1731C271.262 91.3697 272.097 88.184 272.352 85.0832C272.536 83.6815 272.706 82.2799 273.287 81.0622C273.867 79.8446 274.844 78.9809 276.175 78.5703C277.364 78.1456 278.794 78.188 280.026 78.6269C281.102 79.1933 281.994 80.0145 282.561 81.0905C283.127 82.1666 283.41 83.3418 283.254 84.6019C282.815 90.2512 281.131 95.6031 278.37 100.53C278.016 101.054 277.648 101.72 277.237 102.668V102.81L277.209 102.796ZM267.142 134.766C270.837 129.244 275.58 124.572 281.187 120.862L271.219 111.744L262.031 118.852C266.335 123.113 266.151 129.088 267.284 134.794H267.142V134.766Z" fill="#102185"/>
<path d="M32.8432 42.3935L47.5399 50.2657C47.9363 50.4639 48.4886 50.6763 48.8709 51.0019C49.6779 51.3842 50.315 52.0355 50.938 52.6868C51.4052 53.4655 51.8867 54.2301 52.0566 55.1079C52.2265 55.9858 52.1273 56.8353 51.8583 57.7981C51.745 58.6476 51.2211 59.4263 50.5557 60.205C48.7009 62.3996 46.747 64.2827 44.779 66.3215C40.3757 70.6116 37.544 76.1051 36.3263 82.2358C35.3211 86.8232 34.5706 91.5806 33.9759 96.2104C33.8344 97.329 33.6928 98.4616 33.9759 99.6368C34.0326 100.359 33.9192 101.194 33.6927 101.888C33.6077 102.596 33.0981 103.233 32.5884 103.884C32.0646 104.677 31.385 105.442 30.4788 105.895C29.5585 106.348 28.6805 106.518 27.7036 106.39C26.5851 106.249 25.6506 105.697 24.7445 105.017C23.9799 104.352 23.3994 103.276 23.102 102.242C22.8189 101.067 22.7056 99.7642 22.7197 98.49C23.1586 91.6938 21.7146 85.0817 19.8315 78.5688C18.1183 72.9336 14.1679 70.4275 8.75933 69.1674C7.07445 68.955 5.5596 68.4736 3.93136 67.8365C-0.811788 65.8118 -1.33577 61.0263 2.75608 57.9822C4.34185 56.7504 6.31001 55.8725 8.00905 54.7965C15.9096 49.9542 21.6013 43.3988 23.895 34.2665C24.7445 30.9534 25.1551 27.7252 25.8489 24.5254C26.033 23.1237 26.4859 21.7503 27.3355 20.7167C27.8593 19.9238 28.6523 19.3149 29.4169 18.9893C30.3089 18.6778 31.1867 18.5079 32.1778 18.6212C33.1689 18.7344 33.9617 19.1309 34.5988 19.7822C35.236 20.4335 35.8448 21.2264 36.0147 22.1042C36.312 23.1378 36.4537 24.2988 36.3122 25.4174C35.8449 30.2171 34.8113 34.9319 33.0839 39.5618C32.9565 40.5387 32.6875 41.5156 32.7016 42.5067L32.8574 42.3793L32.8432 42.3935ZM38.4641 57.6565C34.4431 55.5751 31.2716 52.4602 26.6559 52.8708C23.7392 55.6318 20.9641 58.2794 18.2032 60.9271C20.0297 62.3005 22.0118 63.5465 23.6542 65.1889C25.325 66.6897 26.7692 68.7285 28.5249 70.6682C30.9885 65.8401 34.4148 61.4227 38.4641 57.6565Z" fill="#102185"/>
<path d="M88.9116 160.153C99.5164 162.079 107.106 167.473 111.424 177.299C114.284 183.939 115.487 191.373 114.85 198.579C114.411 205.376 114.128 212.044 113.831 218.855C113.689 221.12 113.958 223.442 113.675 225.679C113.59 226.387 113.477 227.222 112.967 227.874C112.599 228.539 112.089 229.19 111.594 229.7C111.098 230.21 110.348 230.535 109.612 230.734C108.875 230.932 108.153 230.974 107.29 231.003C101.017 230.918 94.731 230.974 88.5295 230.323C83.1775 229.785 77.8113 230.38 72.5443 230.281C67.4331 230.054 62.3642 229.558 57.2671 229.19C55.7238 228.992 54.2372 228.369 53.2319 227.251C52.7222 226.755 52.2267 226.118 52.0427 225.382C51.8586 224.645 51.6603 223.909 51.7735 223.06C52.5664 215.74 52.8072 208.207 54.1664 200.958C55.4832 192.845 56.6866 184.577 60.2262 176.903C61.2881 174.184 62.8881 171.678 64.8845 169.498C69.8541 164.131 76.707 160.733 84.0837 159.955C85.6836 159.728 87.3684 159.955 88.9541 159.856L88.9116 160.139V160.153ZM91.701 171.933L91.0779 176.846C89.9028 188.258 88.756 199.528 87.5808 210.94L86.7597 217.396C86.788 218.26 86.9861 218.996 87.156 219.874C92.692 219.01 97.9307 221.531 103.141 219.916C102.971 219.039 102.929 218.175 103.042 217.34C103.354 210.388 103.651 203.577 104.118 196.64C104.5 190.268 103.042 183.798 99.8987 178.262C98.1431 175.189 95.0848 173.505 91.5735 171.919H91.7152L91.701 171.933ZM81.0537 171.423C74.923 173.632 71.0719 177.002 69.0472 182.736C67.3623 188.088 65.9606 193.482 64.9695 199.061C63.9501 204.781 63.4969 210.572 62.789 216.193C62.0811 221.814 62.5766 217.878 62.5766 219.024C64.9977 219.053 67.1215 219.18 69.2736 219.166C71.4257 219.152 73.5779 220.143 75.7442 218.855L76.2255 215.06C77.3016 204.356 78.3918 193.638 79.6095 182.948L81.0962 171.296V171.437L81.0537 171.423Z" fill="#102185"/>
<path d="M177.56 241.82L175.493 241.268C174.091 241.084 172.916 240.22 172.052 239.116C171.189 238.011 170.806 236.524 170.976 235.264C171.16 233.863 172.024 232.688 173.27 231.852C174.374 230.988 175.861 230.606 177.263 230.79C178.948 231.003 180.816 230.96 182.544 230.748C186.027 230.337 188.052 232.305 188.505 236.652C188.717 240.531 188.505 244.496 187.995 248.432C187.868 249.409 187.457 250.357 186.791 251.136C186.126 251.915 185.064 252.34 184.073 252.354C181.071 252.396 179.825 252.099 178.707 249.678C178.183 248.177 177.815 246.563 177.758 244.85C177.744 243.844 177.73 242.853 177.857 241.862L177.574 241.82H177.56Z" fill="#102185"/>
</svg>
