<svg xmlns="http://www.w3.org/2000/svg" width="297" height="287" fill="none" viewBox="0 0 297 287"><path fill="#102185" d="M168.809 92.119c.199-1.543.354-2.804.807-4.035.623-2.634 1.105-5.282 1.699-7.773.284-1.105.977-2.011 1.926-2.747s2.124-1.02 3.271-1.005l1.968.254c8.282 1.062 16.579 2.11 24.848 3.313a12.4 12.4 0 0 1 4.389 1.416c1.048.708 1.926 1.671 2.492 2.889s.68 2.506.524 3.78c-.51 5.069-.722 10.18-1.09 15.277-.425 7.802-.708 15.617-1.204 23.971l11.285 9.996c.382.34.764.665 1.161 1.005 3.78 2.761 4.885 6.47 4.573 11.143-.467 3.653-.085 7.405-.127 11.114-.057 2.705-.114 5.409-.184 8.113-.156 3.413-.298 6.811-.468 10.364-.085 3.993 0 7.844-.085 11.837-.07 2.846-.155 5.692-.212 8.396l-.552 11.058c-.043 3.709-.114 7.546-.029 11.412-.07 2.846-.141 5.55-.212 8.396l-.552 11.058c-.184 3.681-.127 7.688-.17 11.397-.099 2.988-.028 5.848-.269 8.821l-.552 11.058c-.057 2.704.028 5.423-.297 7.957-.567 4.489-2.507 6.244-7.08 6.23-5.125-.085-10.237-.311-15.249-.227h-16.849c-3.143.029-6.385-.24-9.528-.212-5.423.028-10.987.028-16.424.043l-7.688-.128c-5.692-.156-11.228-.425-16.793-.425-5.267-.099-10.718.057-15.999.099-3.001.043-6.116-.212-9.26-.184-3.568-.028-7.136-.056-10.718.057-2.42-.028-4.842-.042-7.263-.071-5.55-.141-11.228-.425-16.792-.425-5.409-.113-10.718.057-16 .1-3.001.042-5.833-.17-8.82-.269-3.71-.043-7.434.056-11.13 0-2.264-.142-4.671-.312-6.894-.737-.708-.085-1.374-.453-1.898-.807s-1.019-.991-1.387-1.458c-1.572-2.195-2.379-4.871-2.464-7.589-.184-4.163-.07-8.424-.113-12.573-.099-4.87-.184-9.727-.297-14.456-.029-4.29-.029-8.707-.057-12.997-.028-4.291-.297-8.892-.297-13.31-.043-4.148-.07-8.424-.255-12.587-.07-5.012-.17-9.868-.382-14.894-.029-4.29-.029-8.708-.057-12.998s-.297-8.892-.297-13.309c0-4.418-.029-8.708-.198-13.012 0-1.147-.142-2.308-.128-3.44-.226-1.6-.028-3.144.566-4.489.482-1.515 1.218-2.846 2.365-3.978 3.299-3.441 6.442-6.881 9.741-10.322 11.341-11.681 22.682-23.376 33.995-34.915l29.054-29.69c4.771-4.956 9.684-9.897 14.455-14.853.822-.892 1.912-1.614 3.243-1.869 1.175-.283 2.577-.1 3.667.326a24.1 24.1 0 0 1 9.656 5.946c12.814 11.483 25.925 22.852 38.88 34.222.368.481.764.665 1.543 1.345l.212-.538zM134.121 274.68c-.156-3.299-.34-6.329-.241-9.302 0-5.706.326-11.525.481-17.203.071-2.846.156-5.692.213-8.396.056-3.851.113-7.546.028-11.412.057-3.851-.028-7.575.028-11.412.114-4.261.255-8.679.666-13.04.41-3.228 1.571-4.502 4.785-5.097 2.337-.41 4.772-.538 7.221-.651a5844 5844 0 0 0 23.943-.807l24.083-.779c3.158-.17 5.947 1.473 6.91 4.021.382 1.473.623 2.931.566 4.503.057 2.86-.141 5.55-.071 8.41l.383 13.748c.07 5.012-.128 9.967-.199 14.965 0 2.28 0 4.56-.014 6.853.071 5.012.17 9.869.241 14.881.057 4.007.127 8.014.17 12.148l8.424-.071c.184-3.681.354-7.235.524-10.774.057-3.852-.028-7.575.17-11.398.042-3.71.368-7.377.552-11.058.071-2.846.156-5.692.213-8.396.056-3.851-.029-7.575.028-11.412s.368-7.377.411-11.086c.07-2.846.155-5.692.212-8.396.028-3.568-.085-7.15.085-10.69.085-3.993.439-7.943.524-11.921q.276-3.823.127-7.689c.057-3.851-.028-7.574.028-11.411 0-3.285.128-6.556.284-10.096l-2.804-.353c-5.281.042-10.718.056-15.999.099-5.281.042-10.378-.326-15.659-.284-7.405-.085-14.711.128-22.13.029-6.428.042-12.701-.043-19.1-.156s-12.984-.085-19.525-.212c-7.547-.114-15.079-.354-22.498-.439-2.421-.029-4.842-.043-7.264-.071-5.28.042-10.718.057-15.999.099s-10.676-.212-16.084-.34c-6.272-.085-12.545-.17-18.69-.099-2.137 0-4.304.17-6.442.184.737 41.202 1.487 82.403 2.21 123.746 1.542.199 2.803.355 3.964.227 3.284 0 6.583-.156 9.854-.028 3.285 0 6.386.24 9.515.354l7.688.127c3.284 0 6.583-.156 9.854-.028 2.988.099 6.116.212 9.231.325 3.427 0 6.867-.127 10.294-.113 3.143-.028 6.385.241 9.514.354l7.689.128c3.284 0 6.583-.156 9.854-.029 3.271.128 6.669.283 9.953.269.723-.056 1.317-.255 1.94-.609l-.127-.155zM41.636 139.14c.397.198.666.368 1.09.424 4.984.071 9.997 0 14.98.057 2.138 0 4.39.269 6.556.128 5.14-.057 10.152-.128 15.291-.185 5.423-.028 10.676.213 16.084.34l7.689.128c3.143-.029 6.428-.043 9.571-.071 2.846.071 5.833.17 8.835.127 5.423-.028 10.718-.056 15.999-.099 5.281-.042 10.676.213 16.084.34 7.405.085 14.711-.127 22.13-.028s15.107.212 22.512.297c2.28 0 4.545.156 6.853.014.581-.071 1.19-.425 1.799-.623-14.994-13.337-29.889-26.363-44.798-39.389s-29.62-26.321-44.954-39.276l-75.706 77.702v.142zm102.268 136.064 48.168.58.552-4.36c-.099-4.871-.198-9.586-.297-14.456-.099-4.871.127-9.968.17-14.824-.014-6.57-.326-13.168-.34-19.738-.099-4.87.099-9.698 0-14.555-.566-.07-1.104-.283-1.543-.198l-44.997 1.402-.297 2.393c0 5.706.113 11.426-.042 17.117-.071 6.131-.411 12.219-.623 18.336-.071 2.846-.142 5.55-.213 8.396l-.311 13.663-.099 6.414-.128-.156zm34.123-174.774 20.416 17.868c.057-2.704-.113-4.729 0-6.711.298-5.678.708-11.185 1.147-16.835.34-1.529.128-3.27-.694-4.658l-8.99-1.147c-3.087-.396-6.301-.948-9.416-1.203-.991 4.446-1.656 8.495-2.478 12.672zM186.606 16.313c3.073-6.173 8.269-11.072 14.471-13.861 2.76-1.5 5.847-2.251 9.019-2.421s6.229.368 9.231 1.458c7.476 2.945 11.27 9.005 12.431 16.707.85 5.678-.042 11.554-2.435 16.82-.368.666-.595 1.346-.835 2.04.085.439.325.75.58 1.076 3.129 3.398 4.842 7.9 5.111 12.502.51 6.06-1.784 10.619-5.861 14.668-3.908 3.78-9.048 5.99-14.527 6.428-4.502.566-9.005.142-13.281-1.118a35.5 35.5 0 0 1-11.78-6.074 57 57 0 0 0-4.715-3.314c-1.047-.707-2.279-1.146-3.525-1.444-5.126-1.217-9.784-3.822-13.451-7.56-3.086-2.676-5.338-6.244-6.541-10.251a24.67 24.67 0 0 1 1.288-16.82c1.218-2.847 3.257-5.438 5.919-7.236 2.52-1.826 5.649-2.846 8.806-3.016 3.483-.41 6.825.156 10.109 1.289v.141zm20.006 44.657c3.214.552 6.655.424 9.77-.468 9.076-2.846 9.161-11.397 3.908-16.056a16 16 0 0 1-2.138-2.265c-1.614-1.911-2.464-4.163-1.02-6.555.907-1.459 1.671-3.073 2.45-4.687 2.293-4.559 3.03-9.175.793-14.031-1.218-2.719-2.761-5.21-6.103-5.918-3.072-.538-6.116-.213-8.849 1.16-2.407.978-4.601 2.55-6.414 4.46-1.812 1.912-3.1 4.177-3.865 6.783-1.204 3.837-3.03 5.89-7.872 4.7-1.657-.495-3.158-.977-4.63-1.727-5.267-2.379-10.081-.425-12.063 5.026-.921 2.733-.722 5.621.241 8.17 1.203 4.007 4.601 6.442 7.702 8.976.524.354 1.232.44 1.784.51 4.63.595 9.075 2.733 12.686 5.762 4.007 3.229 8.226 6.046 13.337 6.273l.298-.1zM277.209 102.796c3.327 2.987 6.484 6.244 9.826 9.104 1.826 1.373 3.808 2.619 5.819 3.596 1.883.949 3.582 2.166 3.865 4.347a4.65 4.65 0 0 1-.424 3.369c-.425 1.091-1.246 1.983-2.322 2.563-1.685.92-3.257 2.011-4.942 2.945-4.134 2.181-7.787 5.14-10.676 8.778-2.888 3.639-5.125 7.774-6.428 12.318-2.038 5.876-3.667 11.95-4.587 18.109-.085.708-.481 1.515-.835 2.039-1.402 3.101-3.696 4.375-6.188 3.781-1.373-.454-2.562-1.19-3.398-2.436-.863-1.104-1.246-2.591-1.062-3.992.114-3.13.241-6.386.51-9.643.566-8.919.411-17.783-.58-26.759-.354-3.894-1.728-6.641-5.919-7.32-.538-.213-1.231-.439-1.755-.793a4.4 4.4 0 0 1-2.605-1.897c-.595-.921-1.034-1.983-1.048-2.988s.283-2.251.963-3.016c.693-.906 1.472-1.529 2.534-1.954 1.968-.892 4.063-1.628 5.904-2.676 6.853-3.412 12.446-9.118 15.9-16.098 1.501-2.803 2.336-5.989 2.591-9.09.184-1.401.354-2.803.935-4.02.58-1.218 1.557-2.082 2.888-2.493 1.189-.424 2.619-.382 3.851.057 1.076.566 1.968 1.388 2.535 2.464.566 1.076.849 2.25.693 3.51-.439 5.65-2.123 11.002-4.884 15.929-.354.524-.722 1.19-1.133 2.138v.142zm-10.067 31.97c3.695-5.522 8.438-10.194 14.045-13.904l-9.968-9.118-9.188 7.108c4.304 4.261 4.12 10.236 5.253 15.942h-.142zM32.843 42.394l14.697 7.872c.396.198.949.41 1.33.736.808.382 1.445 1.033 2.068 1.685.467.779.949 1.543 1.119 2.42.17.879.07 1.728-.199 2.691-.113.85-.637 1.628-1.302 2.407-1.855 2.195-3.809 4.078-5.777 6.117-4.403 4.29-7.235 9.783-8.453 15.914-1.005 4.587-1.755 9.345-2.35 13.974-.142 1.119-.283 2.252 0 3.427a6.1 6.1 0 0 1-.283 2.251c-.085.708-.595 1.345-1.105 1.996-.523.793-1.203 1.558-2.11 2.011-.92.453-1.798.623-2.774.495-1.119-.141-2.053-.693-2.96-1.373-.764-.665-1.345-1.741-1.642-2.775-.283-1.175-.396-2.478-.382-3.752.439-6.796-1.005-13.408-2.889-19.921-1.713-5.635-5.663-8.142-11.072-9.402-1.685-.212-3.2-.693-4.828-1.33-4.743-2.025-5.267-6.81-1.175-9.855 1.586-1.232 3.554-2.11 5.253-3.185 7.9-4.843 13.592-11.398 15.886-20.53.85-3.314 1.26-6.542 1.954-9.742.184-1.401.637-2.775 1.486-3.808a4.84 4.84 0 0 1 2.082-1.728c.892-.311 1.77-.481 2.76-.368.992.113 1.785.51 2.422 1.161s1.246 1.444 1.416 2.322c.297 1.034.439 2.195.297 3.313-.467 4.8-1.5 9.515-3.228 14.145-.128.977-.397 1.954-.382 2.945l.155-.128zm5.621 15.263c-4.02-2.082-7.192-5.197-11.808-4.786a1784 1784 0 0 0-8.453 8.056c1.827 1.374 3.809 2.62 5.451 4.262 1.671 1.5 3.115 3.54 4.87 5.48 2.464-4.829 5.89-9.246 9.94-13.012"/><path fill="#102185" d="M88.912 160.153c10.604 1.926 18.194 7.32 22.512 17.146 2.86 6.64 4.063 14.074 3.426 21.28-.439 6.797-.722 13.465-1.019 20.276-.142 2.265.127 4.587-.156 6.824-.085.708-.198 1.543-.708 2.195a9 9 0 0 1-1.373 1.826c-.496.51-1.246.835-1.982 1.034-.737.198-1.459.24-2.322.269-6.273-.085-12.559-.029-18.76-.68-5.353-.538-10.719.057-15.986-.042-5.11-.227-10.18-.723-15.277-1.091-1.543-.198-3.03-.821-4.035-1.939-.51-.496-1.005-1.133-1.19-1.869-.183-.737-.382-1.473-.269-2.322.793-7.32 1.034-14.853 2.393-22.102 1.317-8.113 2.52-16.381 6.06-24.055 1.062-2.719 2.662-5.225 4.659-7.405 4.97-5.367 11.822-8.765 19.199-9.543 1.6-.227 3.284 0 4.87-.099l-.042.283zm2.789 11.78-.623 4.913c-1.175 11.412-2.322 22.682-3.497 34.094l-.821 6.456c.028.864.226 1.6.396 2.478 5.536-.864 10.775 1.657 15.985.042-.17-.877-.212-1.741-.099-2.576.312-6.952.609-13.763 1.076-20.7.382-6.372-1.076-12.842-4.22-18.378-1.755-3.073-4.813-4.757-8.324-6.343h.141zm-10.647-.51c-6.131 2.209-9.982 5.579-12.007 11.313-1.685 5.352-3.086 10.746-4.078 16.325-1.019 5.72-1.472 11.511-2.18 17.132s-.212 1.685-.212 2.831c2.42.029 4.544.156 6.697.142 2.152-.014 4.304.977 6.47-.311l.481-3.795c1.077-10.704 2.167-21.422 3.385-32.112l1.486-11.652v.141zM177.56 241.82l-2.067-.552c-1.402-.184-2.577-1.048-3.441-2.152s-1.246-2.592-1.076-3.852c.184-1.401 1.048-2.576 2.294-3.412 1.104-.864 2.591-1.246 3.993-1.062 1.685.213 3.553.17 5.281-.042 3.483-.411 5.508 1.557 5.961 5.904.212 3.879 0 7.844-.51 11.78a5.2 5.2 0 0 1-1.204 2.704c-.665.779-1.727 1.204-2.718 1.218-3.002.042-4.248-.255-5.366-2.676-.524-1.501-.892-3.115-.949-4.828-.014-1.006-.028-1.997.099-2.988l-.283-.042z"/></svg>