<svg xmlns="http://www.w3.org/2000/svg" width="300" height="300" fill="none" viewBox="0 0 300 300"><path fill="#324980" d="M192.11 86.71c3.34-1.89 6.31-3.64 9.34-5.28 5.91-3.21 11.86-6.34 17.77-9.55 2.78-1.5 5.16-1 7.62.88a59 59 0 0 1 16.28 19.66 64.7 64.7 0 0 1 5.63 16.07 64 64 0 0 1 1.62 12.18c0 2.18.42 4.36.34 6.53a118 118 0 0 1-1.3 14.52 66 66 0 0 1-2.23 10 5.47 5.47 0 0 1-2.73 3.4c-3.1 1.67-6.15 3.46-9.24 5.17q-21.28 11.79-42.59 23.55c-10.88 6-21.8 11.95-32.69 18q-20.73 11.43-41.46 22.9c-2 1.08-3.87 2.3-6.33 2.21-1.11 0-2.24.63-3.37.91-4 1-7.85.32-11.68-.7a47.4 47.4 0 0 1-16.46-8.46 85.1 85.1 0 0 1-22.64-26.45 76.5 76.5 0 0 1-8.7-24.24 17.9 17.9 0 0 1 .58-8.72 90 90 0 0 1 3.61-9.09 5.9 5.9 0 0 1 2.33-2.2c4.23-2.58 8.51-5.09 12.78-7.6q12.16-7.14 24.34-14.27 12.49-7.33 25-14.7l42.13-24.78 18.48-10.81q.55-.315 1.13-.57c2.07-1 3.51-.55 4.82 1.23 2.46 3.35 4.98 6.69 7.62 10.21m29.73-8.93c-3 1.62-5.63 3-8.27 4.52-4.92 2.74-9.85 5.45-14.73 8.26-8.52 4.9-17 9.87-25.5 14.8l-27.67 16.06c-7.7 4.46-15.37 9-23.12 13.37-8 4.5-16 8.94-23.66 13.92-1.28.83-2.53 1.71-3.93 2.66 1.5.86 2.78 1.5 3.95 2.3a39 39 0 0 1 10.46 10.81 74 74 0 0 1 9.9 23.26c1 3.95 1.38 8.06 2 12.1.012.336-.022.672-.1 1-.09.83-.2 1.66-.26 2.49-.21 3-.38 6-.62 9-.06.89-.3 1.77-.51 3a29 29 0 0 0 4.15-1.45c5.32-2.87 10.57-5.86 15.87-8.77 7.73-4.25 15.47-8.46 23.2-12.71q22-12.06 44-24.14c9.88-5.41 19.77-10.77 29.66-16.17 1.53-.84 3-1.74 4.38-2.51.21-1.23.34-2.22.54-3.2a95.7 95.7 0 0 0 2.15-17.17 87 87 0 0 0-.35-10.57 69 69 0 0 0-4.19-18 50.4 50.4 0 0 0-13.34-19.67c-1.22-1.11-2.6-2.08-4-3.19zm-42.08 5.46c-1 .52-1.8.92-2.58 1.38Q162.09 93.5 147 102.39q-18 10.58-36.08 21.13a4933 4933 0 0 0-36 21.21c-4.56 2.69-9.13 5.35-13.66 8.07a6.05 6.05 0 0 0-2 1.81 19.88 19.88 0 0 0-2.41 15.69 73.4 73.4 0 0 0 8.23 20.43 77.5 77.5 0 0 0 19.1 21.94c5.33 4.17 11.12 7.51 18 8.44 2.989.526 6.068.029 8.74-1.41a33.7 33.7 0 0 0 3.21-14.19c-.56.31-.85.45-1.13.62-3.08 1.88-6.17 3.75-9.23 5.67a5.6 5.6 0 0 1-3.56 1 3 3 0 0 1-2.894-2.673 3 3 0 0 1 .184-1.407 4.5 4.5 0 0 1 2.25-2.58l7.29-4.49 6.84-4.24a35.1 35.1 0 0 0-3.8-14.49 2.3 2.3 0 0 0-.39.08l-9.9 6c-2.66 1.61-5.3 3.24-8 4.84-1.41.85-2.9 1.38-4.47.38a25 25 0 0 1-5.67-4.55 32.5 32.5 0 0 1-5.22-8 10.4 10.4 0 0 0-.89-1.35c-1.14.75-2.07 1.48-3.1 2a3.22 3.22 0 0 1-3.7-.59c-1.55-1.45-1.45-3.67.4-5.29 1.45-1.26 3-2.37 4.56-3.54 0-.18.05-.34.05-.51a6 6 0 0 0-.07-.75 17.3 17.3 0 0 1 2.47-12.76 35.7 35.7 0 0 1 10-10.14c1.24-.86 2.55-1.64 3.83-2.43 6.21-3.86 12.34-7.85 18.64-11.53 11.17-6.52 22.47-12.82 33.69-19.26q20.87-12 41.7-24.06c.55-.32 1.06-.71 1.76-1.18zm-90.03 103.8 18.06-11c-.8-1.65-1.46-3.19-2.28-4.65s-1.78-2.77-2.71-4.19c-1.36.57-2.56 1.15-3.82 1.58a8.2 8.2 0 0 1-2.68.49 2.913 2.913 0 0 1-2.78-2.72 3.7 3.7 0 0 1 2-3.76c.68-.4 1.41-.73 2.49-1.28a51 51 0 0 0-4.67-3.14 8.445 8.445 0 0 0-10 2.2 13.53 13.53 0 0 0-2.73 11.35 28.3 28.3 0 0 0 5.54 12.25 7.1 7.1 0 0 0 3.58 2.87"/><path fill="#fff" d="M221.85 77.78c1.41 1.11 2.79 2.08 4 3.19a50.4 50.4 0 0 1 13.31 19.629 69.2 69.2 0 0 1 4.19 18 87 87 0 0 1 .35 10.57 95.7 95.7 0 0 1-2.15 17.17c-.2 1-.33 2-.54 3.2-1.35.77-2.85 1.67-4.38 2.51-9.89 5.4-19.78 10.76-29.66 16.17a70681 70681 0 0 0-44 24.14c-7.73 4.25-15.47 8.46-23.2 12.71-5.3 2.91-10.55 5.9-15.87 8.77a29 29 0 0 1-4.15 1.45c.21-1.19.45-2.07.51-3 .24-3 .41-6 .62-9 .06-.83.17-1.66.26-2.49.078-.327.111-.663.1-1-.65-4-1-8.15-2-12.1a74 74 0 0 0-9.9-23.26 39 39 0 0 0-10.46-10.81c-1.17-.8-2.45-1.44-3.95-2.3 1.4-1 2.65-1.83 3.93-2.66 7.69-5 15.69-9.42 23.66-13.92 7.75-4.38 15.42-8.91 23.12-13.37l27.67-16.06c8.5-4.93 17-9.9 25.5-14.8 4.88-2.81 9.81-5.52 14.73-8.26 2.67-1.43 5.31-2.86 8.31-4.48m-85 109.829a19 19 0 0 0 2.35-.79c1.21-.58 2.35-1.29 3.53-1.93q12.62-6.86 25.23-13.71 20.79-11.34 41.56-22.71 10.17-5.56 20.33-11.14a10 10 0 0 0 1.84-1.3 3.1 3.1 0 0 0 .73-3.49 2.854 2.854 0 0 0-2.82-2.12 5.85 5.85 0 0 0-2.65.58c-7.47 4-14.91 8.08-22.35 12.15l-40.22 22c-9.36 5.11-18.74 10.18-28.08 15.32a7.9 7.9 0 0 0-2.29 1.9 2.997 2.997 0 0 0-.3 3.34 3.18 3.18 0 0 0 3.14 1.9m9.25 8.7c1-.42 2-.74 3-1.25a2945 2945 0 0 0 18.71-10.4q16.37-9.17 32.73-18.34 11.2-6.28 22.43-12.52c1.17-.65 2.37-1.27 3.51-2 2.05-1.26 2.8-3.42 1.84-5.11s-3-2-5.11-1c-.23.11-.45.23-.67.36l-17.59 9.82q-15.91 8.94-31.84 17.87c-9.08 5.08-18.19 10.12-27.26 15.23a9 9 0 0 0-2.5 2.07 2.72 2.72 0 0 0-.17 3.29 3.71 3.71 0 0 0 2.95 1.98zm75.35-71.43a3.53 3.53 0 0 0-1.32-2.716 3.516 3.516 0 0 0-2.94-.694 12.7 12.7 0 0 0-2.28 1q-10.33 5.51-20.65 11l-34.41 18.41q-1.12.578-2.15 1.3a3.63 3.63 0 0 0-1.32 4 3.07 3.07 0 0 0 3.45 1.94 10.2 10.2 0 0 0 3.27-1.16q14.34-7.61 28.64-15.29l26.66-14.18a13 13 0 0 0 1.87-1.26 3.18 3.18 0 0 0 1.21-2.35zm-80.31 27.7q1.314-.447 2.56-1.06c5.58-3.09 11.13-6.23 16.7-9.35q13-7.26 25.91-14.52a24 24 0 0 0 3-1.86 3.34 3.34 0 0 0-3.3-5.78q-1.036.43-2 1l-23.08 12.91q-9.87 5.55-19.74 11.13a20 20 0 0 0-2.85 2c-1.13 1-1 2.3-.68 3.53.19 1.08 1.75 1.95 3.51 2zm73.2-59.06a3.6 3.6 0 0 0-1.16.36c-3 1.91-6.13 3.76-9.06 5.85a3.12 3.12 0 0 0-.67 4.29 3.42 3.42 0 0 0 4.4 1.28q.701-.285 1.35-.68 3.54-2.16 7-4.33.428-.266.8-.61a3.14 3.14 0 0 0 1.23-3.55 4.07 4.07 0 0 0-3.86-2.61z"/><path fill="#fff" d="m179.758 83.238 6.06 7.06c-.7.47-1.21.86-1.76 1.18q-20.85 12-41.7 24.06c-11.22 6.44-22.52 12.74-33.69 19.26-6.3 3.68-12.43 7.67-18.64 11.53-1.28.79-2.59 1.57-3.83 2.43a35.75 35.75 0 0 0-10 10.14 17.3 17.3 0 0 0-2.47 12.76q.058.374.07.75c0 .17 0 .33-.05.51-1.53 1.17-3.11 2.28-4.56 3.54-1.85 1.62-2 3.84-.4 5.29a3.22 3.22 0 0 0 3.7.59c1-.54 2-1.27 3.1-2q.498.641.89 1.35a32.5 32.5 0 0 0 5.22 8 25 25 0 0 0 5.67 4.55c1.57 1 3.06.47 4.47-.38 2.67-1.6 5.31-3.23 8-4.84l9.9-6q.192-.056.39-.08a35.1 35.1 0 0 1 3.8 14.49l-6.84 4.24-7.29 4.49a4.5 4.5 0 0 0-2.25 2.58 3 3 0 0 0 2.71 4.08 5.6 5.6 0 0 0 3.56-1c3.06-1.92 6.15-3.79 9.23-5.67.28-.17.57-.31 1.13-.62a33.65 33.65 0 0 1-3.21 14.19 13.5 13.5 0 0 1-8.74 1.41c-6.89-.93-12.68-4.27-18-8.44a77.5 77.5 0 0 1-19.1-21.94 73.4 73.4 0 0 1-8.28-20.45 19.88 19.88 0 0 1 2.34-15.69 6.05 6.05 0 0 1 2-1.81c4.53-2.72 9.1-5.38 13.66-8.07q18-10.599 36-21.21 18-10.61 36.08-21.13a9473 9473 0 0 0 30.18-17.77c.85-.46 1.68-.86 2.65-1.38"/><path fill="#cbcfdd" d="M89.73 187.04a7.1 7.1 0 0 1-3.59-2.84 28.3 28.3 0 0 1-5.54-12.25 13.53 13.53 0 0 1 2.73-11.35 8.445 8.445 0 0 1 10-2.2 51 51 0 0 1 4.67 3.14c-1.08.55-1.81.88-2.49 1.28a3.7 3.7 0 0 0-2 3.76 2.91 2.91 0 0 0 2.78 2.72 8.2 8.2 0 0 0 2.68-.49c1.26-.43 2.46-1 3.82-1.58.93 1.42 1.9 2.76 2.71 4.19s1.48 3 2.28 4.65z"/><path fill="#324980" d="M136.85 187.61a3.18 3.18 0 0 1-3.14-1.87 3 3 0 0 1 .3-3.34 7.9 7.9 0 0 1 2.29-1.9c9.34-5.14 18.72-10.21 28.08-15.32l40.22-22c7.44-4.07 14.88-8.14 22.35-12.15a5.86 5.86 0 0 1 2.65-.58 2.86 2.86 0 0 1 1.778.571c.511.385.878.931 1.042 1.549a3.1 3.1 0 0 1-.73 3.49 10 10 0 0 1-1.84 1.3 3931 3931 0 0 1-20.33 11.14q-20.78 11.35-41.56 22.71-12.6 6.87-25.23 13.71c-1.18.64-2.32 1.35-3.53 1.93q-1.15.456-2.35.76M146.128 196.309a3.71 3.71 0 0 1-2.95-2 2.72 2.72 0 0 1 .17-3.29 9 9 0 0 1 2.5-1.98c9.07-5.11 18.18-10.15 27.26-15.23a12174 12174 0 0 0 31.84-17.87l17.59-9.82c.22-.13.44-.25.67-.36 2.13-1 4.19-.62 5.11 1s.21 3.85-1.84 5.11c-1.14.71-2.34 1.33-3.51 2q-11.22 6.26-22.43 12.52-16.37 9.15-32.73 18.34-9.35 5.22-18.71 10.4c-.95.44-1.98.76-2.97 1.18M221.479 124.879a3.2 3.2 0 0 1-.337 1.327 3.2 3.2 0 0 1-.863 1.063q-.88.711-1.87 1.26-13.32 7.11-26.66 14.18-14.31 7.65-28.64 15.29a10.1 10.1 0 0 1-3.27 1.16 3.066 3.066 0 0 1-3.45-1.94 3.633 3.633 0 0 1 1.32-4 19 19 0 0 1 2.15-1.3l34.43-18.33q10.33-5.5 20.65-11a12.7 12.7 0 0 1 2.28-1 3.53 3.53 0 0 1 2.895.655 3.52 3.52 0 0 1 1.365 2.635M141.17 152.579c-1.76 0-3.28-.92-3.51-1.95-.27-1.23-.45-2.57.68-3.53a20 20 0 0 1 2.85-2 3181 3181 0 0 1 19.74-11.13l23.08-12.93q.964-.57 2-1a3.339 3.339 0 0 1 4.659 3.773 3.34 3.34 0 0 1-1.359 2.007 24 24 0 0 1-3 1.86q-12.94 7.27-25.91 14.52c-5.57 3.12-11.12 6.26-16.7 9.35a21 21 0 0 1-2.53 1.03M214.37 93.518a4.07 4.07 0 0 1 3.94 2.61 3.145 3.145 0 0 1-1.23 3.55 5.2 5.2 0 0 1-.8.61l-7 4.33q-.648.394-1.35.68a3.42 3.42 0 0 1-4.4-1.28 3.12 3.12 0 0 1 .67-4.29c2.93-2.09 6-3.94 9.06-5.85.348-.18.723-.301 1.11-.36"/></svg>