<svg xmlns="http://www.w3.org/2000/svg" width="162" height="295" fill="none" viewBox="0 0 162 295"><path fill="#102185" d="M121.582 218.786c5.083 2.152 5.918 3.865 5.182 8.665s-1.487 10.18-1.94 15.277c-.453 3.681-1.175 6.782-5.295 8.169-.708.283-1.43 1.685-1.713 2.676-.581 2.407-1.161 4.8-1.459 7.207-.594 4.672-2.322 8.198-7.985 8.014l-.043 5.663c-.085 11.469-5.932 18.364-17.273 19.851-3.398.396-6.938.523-10.336.212-8.354-.481-14.116-5.338-16.34-13.422a44 44 0 0 1-1.23-5.961c0-.991-.27-1.982-.836-2.832-.567-.849-1.402-1.571-2.251-1.855-1.416-1.005-2.535-2.562-2.946-4.261-.835-2.407-1.387-4.97-1.925-7.377-.694-2.549-.949-5.239-3.78-6.683-.992-.849-1.685-1.996-1.813-3.27-1.373-5.395-2.62-10.775-3.85-16.028-.695-2.973.608-5.522 2.18-7.915.424-.849 1.854-1.118 3.27-1.812 0-1.274.014-2.407-.255-3.681-1.911-11.341-6.498-21.989-13.521-31.107-6.315-8.113-11.356-16.778-13.833-26.859-7.717-30.922-1.02-58.772 20.94-81.553 13.692-14.201 31.433-20.46 51.651-17.344 20.799 3.114 36.43 13.847 45.648 32.734 4.049 8.099 6.399 16.891 7.051 25.811.651 8.92-.552 17.982-3.441 26.59-3.61 11.299-9.628 21.451-14.796 32.041-3.015 5.791-5.606 11.851-7.914 17.925-2.308 6.924-1.374 14.003-.85 21.238l-.283-.142zm-19.114 1.146h2.407c5.522.057 6.385-1.076 5.989-6.598-.935-9.344.694-18.83 4.856-27.297 4.446-9.175 9.189-18.067 13.777-27.086 6.895-13.833 10.817-28.246 7.943-43.835-4.361-24.098-20.417-38.37-40.777-42.192-16.41-3.087-30.88 1.628-42.986 12.162-14.527 12.785-21.578 29.875-22.852 48.975-1.388 17.542 3.865 34.858 14.966 48.521 7.447 9.26 12.318 20.332 14.512 31.956.41 2.407.963 4.814 1.501 7.518l7.363-.509c-.255-3.682-.524-6.938-.638-10.053-.495-9.486-1.43-18.987-.368-28.459.014-2.124.737-4.247 1.883-6.215 1.147-1.827 2.719-3.526 4.56-4.644.849-.567 1.713-1.119 2.279-1.969a10.4 10.4 0 0 0 1.288-2.817c.878-4.106 1.473-8.34 2.068-12.446 0-.991 0-1.84-.411-2.831-7.504.651-11.327.354-14.994-1.657-6.202-3.157-8.297-9.401-4.998-15.603.722-1.415 1.713-2.817 2.86-3.808 1.147-1.119 2.563-1.827 4.12-2.379 1.558-.552 3.115-.694 4.814-.538 1.558 0 3.257.595 4.658 1.303 3.101 1.713 6.06 3.582 8.736 5.72.425-.567.864-1.133 1.147-1.685 1.147-2.818 2.308-5.649 3.313-8.609 1.006-2.973 3.427-4.502 6.258-3.922 2.69.723 3.95 2.719 3.78 5.834 0 .849-.297 1.699-.58 2.548a35.6 35.6 0 0 1-7.178 13.975c-.708.849-1.147 1.826-1.43 2.817a5.8 5.8 0 0 0-.014 3.115c.254 3.257.382 6.655-.071 9.911-.312 3.399-1.034 6.796-1.628 10.464 8.212.906 10.576 6.867 11.511 13.677.679 4.389.934 8.92 1.33 13.465.51 7.645.751 15.149 1.261 23.092l-.284.142zm13.663 9.713-60.189 2.846 2.62 11.2 56.082-2.733c.453-3.823 1.048-7.363 1.487-11.313m-24-9.783c-.509-8.496-.877-16.849-1.387-25.358-.254-3.54-.665-7.221-1.203-10.633-.128-1.133-.963-3.115-1.67-3.129-2.691-.298-5.381-.185-7.93.367-1.982.553-1.996 2.818-2.01 4.517-.043 6.372-.085 12.884.155 19.256.241 5.38.78 10.902 1.303 16.296l12.757-1.33zm5.041 49.725-24.508 1.387c.552 2.832.962 5.097 1.5 7.518.27 1.558.977 2.974 2.096 3.979 1.133 1.005 2.676 1.572 4.233 1.727 3.965.029 7.93.057 11.894-.481 1.132-.127 2.265-.694 3.129-1.529a6.1 6.1 0 0 0 1.713-2.959 14.15 14.15 0 0 0 .07-9.628h-.14zm-31.092-8.283 40.225-2.421 1.331-7.348-43.623 2.109 1.925 7.66zm2.237-120.617c1.133.863 2.251 1.288 3.667 1.586 1.274.155 2.69.014 3.823-.538-3.653-4.135-5.352-4.291-7.362-1.048h-.142zM63.786 36.451c-.014 3.115-1.161 5.083-3.299 5.635a5.8 5.8 0 0 1-3.115-.014c-.991-.283-1.826-1.147-2.534-1.996-.425-.567-.694-1.275-.977-2.124-3.2-9.09-6.386-18.166-9.444-27.255-.41-1.133-.694-2.266-.963-3.257-.269-1.133.014-2.265.453-3.398.566-.991 1.43-1.826 2.421-2.251 1.133-.41 2.266-.41 3.398.028 1.133.297 1.968 1.147 2.676 2.138.425.708.836 1.558 1.119 2.421 3.2 8.949 6.244 17.883 9.302 26.83.41 1.275.694 2.69.821 3.54l.142-.283zM110.424 7.879l-3.115 20.799c-.297 2.124-.453 4.39-1.033 6.371-.878 3.823-3.016 5.508-5.975 5.055-2.96-.453-4.503-3.143-4.064-6.824 1.048-7.788 2.223-15.42 3.412-23.192.298-1.84.454-3.823.892-5.664.878-3.256 3.002-4.8 5.692-4.346 2.549.438 3.951 2.435 4.064 5.691v1.983h.127v.141zM140.398 55.225c-3.539-.028-5.79-2.166-5.352-5.14.156-1.274.581-2.406 1.303-3.525 4.573-7.05 9.302-14.102 14.017-21.139.722-1.132 1.713-2.251 2.719-3.242.849-.708 1.855-1.26 2.987-1.402 1.133 0 2.266.156 3.115.722.991.708 1.685 1.714 1.968 2.705.269 1.132.269 2.265-.17 3.398-.283.566-.58 1.132-.863 1.699-4.871 7.334-9.728 14.512-14.442 21.705-1.43 1.968-2.86 3.95-5.126 4.078l-.141.141zM23.448 54.574c-.028 4.39-4.149 6.91-7.39 4.758-1.134-.864-2.11-1.855-2.804-3.13C9.19 49.236 5.282 42.13 1.502 35.022.808 33.888.383 32.741.114 31.466c-.283-.99.015-2.123.298-2.973.424-.991 1.147-1.685 2.138-2.251.85-.567 1.982-.694 2.973-.552s1.982.722 2.676 1.43c.708.566 1.119 1.43 1.685 2.138 4.19 7.532 8.538 15.206 12.729 22.88.424.708.693 1.557.976 2.407h-.141z"/></svg>