<svg xmlns="http://www.w3.org/2000/svg" width="379" height="293" fill="none" viewBox="0 0 379 293"><path fill="#102185" d="M32.723 89.34c-3.681 0-5.805-2.83-4.672-5.521.425-1.133 1.274-2.266 2.265-2.974 7.504-6.23 15.15-12.317 22.796-18.264.85-.708 1.699-1.133 2.69-1.558.85-.283 1.699-.424 2.407-.141.85.142 1.557.708 2.124 1.274.566.708.99 1.558.99 2.407 0 .85-.14 1.84-.707 2.549-.566.85-1.274 1.699-1.982 2.265C51.13 75.465 43.625 81.412 36.12 87.5c-1.132.708-2.123 1.416-3.398 1.84M239.156 188.31c0-.85.283-1.699.708-2.549.424-.849.991-1.415 1.84-1.982l14.725-12.884c1.982-1.699 3.823-3.398 5.805-4.956a7.7 7.7 0 0 1 3.398-1.699c.708-.141 1.558 0 2.266.142.707.141 1.274.849 1.699 1.557.424.567.708 1.416.708 2.124s-.284 1.558-.567 2.124c-.566.991-1.416 1.84-2.265 2.69a1133 1133 0 0 1-19.681 17.132c-1.132.991-2.548 1.841-3.964 2.265a4 4 0 0 1-1.841 0c-.566 0-1.132-.424-1.699-.849-.425-.425-.849-.85-1.132-1.416-.284-.566-.284-1.133-.284-1.841zM327.79 220.591c3.964 0 5.805 3.115 4.389 5.947-.85 1.415-1.841 2.831-3.115 3.822l-19.539 16.141c-.425.425-.991.708-1.558.991-.849.425-1.84.708-2.831.425-.991-.142-1.841-.708-2.407-1.416s-.991-1.699-.991-2.69.283-1.982.991-2.69c.566-.85 1.416-1.557 2.124-2.124a1144 1144 0 0 1 20.105-16.707c.991-.708 1.84-1.274 2.973-1.699zM159.584 168.205c-3.681 0-5.805-2.69-4.672-5.522.425-1.133 1.274-2.265 2.265-3.115a1067 1067 0 0 1 18.548-17.273c.991-.85 1.982-1.558 3.115-2.124a5.9 5.9 0 0 1 2.265-.425c.708 0 1.416.425 1.983.991q1.06.849 1.274 2.124c.141.849 0 1.699-.283 2.407-.567 1.132-1.275 2.265-2.124 3.115l-19.114 17.84a25 25 0 0 1-3.257 1.982M278.659 223.139c-3.54 0-5.522-2.548-4.531-5.38.566-1.416 1.416-2.69 2.549-3.681 6.654-5.664 13.309-11.186 20.105-16.849.708-.566 1.557-.991 2.407-1.274a4.35 4.35 0 0 1 2.69 0c.849.283 1.557.849 2.124 1.557.566.708.708 1.558.708 2.407 0 .85-.284 1.699-.85 2.265a14.8 14.8 0 0 1-2.973 2.974c-6.513 5.522-12.885 10.902-19.397 16.282-.85.566-1.7 1.133-2.691 1.558zM63.022 100.384c-3.964 0-5.947-3.114-4.39-5.946.709-1.133 1.558-2.124 2.55-2.832 6.37-5.38 12.884-10.619 19.397-15.857q1.274-1.063 2.973-1.7 1.275-.425 2.549 0c.85.284 1.557.708 1.982 1.416.566.708.85 1.558.85 2.407 0 .85-.284 1.7-.709 2.407-.566.85-1.274 1.7-1.982 2.266-6.513 5.38-13.026 10.902-19.68 16.14-.991.708-2.124 1.275-3.257 1.699zM179.407 175.425c.424-1.133 1.132-2.124 1.84-2.973 5.947-5.947 11.894-11.752 17.84-17.557.425-.283.85-.708 1.133-.991 2.265-1.416 4.389-1.416 5.947.283.708.85 1.132 1.841 1.132 2.973 0 1.133-.424 2.124-1.132 2.974-1.983 2.265-4.248 4.389-6.513 6.513-3.823 3.822-7.788 7.504-11.61 11.185-.85.849-1.983 1.699-3.115 2.124-2.832 1.132-5.664-.991-5.522-4.673zM142.027 95.712c3.965-.142 6.088 2.831 4.673 5.663-.567 1.133-1.416 2.124-2.407 2.974-5.664 4.955-11.327 10.052-16.991 15.008-.849.708-1.84 1.416-2.831 1.84-.708.425-1.558.567-2.407.284q-1.275-.213-2.124-1.275c-.567-.566-1.133-1.274-1.274-2.124-.142-.849-.001-1.699.424-2.406.567-1.133 1.416-2.124 2.266-2.974 5.805-5.097 11.61-10.052 17.415-15.15a38 38 0 0 1 3.115-1.982zM135.514 134.224c-3.681 0-5.805-2.691-4.672-5.381.566-1.274 1.416-2.407 2.548-3.256 5.522-4.956 11.186-9.77 16.849-14.583 2.974-2.549 5.664-2.549 7.363-.425 1.699 2.265 1.274 4.389-1.699 6.937-5.805 5.098-11.61 10.053-17.415 15.009-.991.707-1.983 1.274-3.115 1.699zM289.561 191.425c-.425.991-1.133 1.982-1.841 2.831a858 858 0 0 1-17.273 14.725c-.567.425-1.275.85-1.983.991-.708.284-1.557.284-2.265.142s-1.416-.566-1.982-1.133c-.567-.566-.991-1.416-1.133-2.265 0-.85 0-1.699.566-2.407.85-1.274 1.841-2.549 2.974-3.398 4.672-4.106 9.628-8.212 14.442-12.176.991-.85 1.982-1.558 3.256-1.983 2.832-.991 5.522.991 5.522 4.814zM202.485 184.628c-3.964 0-5.946-2.548-4.955-5.522a8 8 0 0 1 1.699-2.548c3.822-3.964 7.645-7.929 11.61-11.893.849-.85 1.982-1.699 3.115-2.124.708-.283 1.699-.425 2.407-.283.849.141 1.557.708 2.124 1.416.566.566.849 1.274.991 1.982 0 .708 0 1.557-.425 2.265-.567.991-1.133 1.982-1.982 2.832-3.682 3.964-7.504 7.787-11.327 11.468a17.8 17.8 0 0 1-3.398 2.266zM85.817 105.057c-3.964 0-5.805-2.974-4.53-5.805.566-.991 1.274-1.982 2.123-2.69 4.106-3.681 8.212-7.363 12.46-10.903 2.832-2.407 5.239-2.69 7.079-.708 1.841 1.983 1.416 4.673-1.416 7.363a237 237 0 0 1-12.742 11.044 16 16 0 0 1-2.974 1.699M304.853 178.54c0 3.257-4.673 7.08-7.788 6.514-.708 0-1.274-.284-1.84-.708a4.4 4.4 0 0 1-1.275-1.558 3.12 3.12 0 0 1-.283-1.982c0-.708.283-1.274.708-1.841 1.416-1.84 3.257-3.256 5.239-4.247.566-.284 1.274-.283 1.982-.283.566 0 1.274.283 1.699.708.566.424.991.849 1.133 1.557.283.566.424 1.274.283 1.84zM115.552 76.173c0 1.558-.85 2.974-1.983 3.965a5.67 5.67 0 0 1-4.106 1.699c-.566 0-1.132 0-1.699-.284-.566-.283-.991-.566-1.416-.99s-.707-.85-.849-1.416c-.142-.567-.283-1.133-.283-1.7.283-1.415.991-2.831 1.982-3.822 1.133-.991 2.407-1.7 3.964-1.7.567 0 1.133 0 1.699.284.567.283.991.566 1.416.991s.708.85.991 1.416.284 1.133.284 1.699zM225.139 161.691c-1.133 0-2.266-.283-2.974-.991-.849-.708-1.415-1.699-1.415-2.832 0-1.415.566-2.973 1.698-3.964.992-1.133 2.408-1.699 3.965-1.84 1.133 0 2.124.283 2.973.991.85.707 1.275 1.699 1.416 2.831 0 1.558-.566 2.974-1.699 3.965-.991 1.132-2.407 1.699-3.964 1.84M66.42 62.581c-.566 0-1.132 0-1.557-.142-.566-.141-.99-.424-1.416-.849-.424-.425-.708-.85-.99-1.274-.284-.567-.284-.991-.284-1.558 0-.708 0-1.274.283-1.982.283-.566.567-1.133 1.133-1.699.425-.425.991-.85 1.699-1.133.566-.283 1.274-.424 1.982-.424s1.133 0 1.7.283c.566.283.99.566 1.415.991s.708.85.991 1.416.283 1.133.283 1.699c0 1.274-.708 2.548-1.557 3.398-.991.85-2.124 1.416-3.54 1.416zM97.146 70.652c0 .566 0 1.274-.284 1.699-.283.566-.566 1.132-.99 1.557-.426.425-.992.708-1.558.991s-1.133.283-1.84.283c-1.133 0-2.125-.566-2.833-1.416s-1.132-1.84-1.132-2.973c0-.566 0-1.132.283-1.699.283-.566.566-1.132.991-1.557s.991-.708 1.557-.991c.567-.284 1.133-.284 1.7-.284 1.132 0 2.123.567 2.831 1.275.708.85 1.133 1.84 1.133 2.973zM192.857 136.772c0 .566 0 1.274-.424 1.699-.284.566-.567.991-.992 1.416-.424.425-.991.708-1.557.991s-1.133.283-1.699.283-1.133 0-1.557-.283c-.567-.142-.992-.566-1.416-.85-.425-.424-.708-.849-.85-1.415s-.283-.991-.283-1.558a4.95 4.95 0 0 1 1.133-3.115c.849-.849 1.84-1.416 3.115-1.416.566 0 1.132 0 1.699.142.566.142.991.425 1.415.85.425.424.708.849.992 1.415.283.567.283 1.133.283 1.699zM164.54 109.588c-.567 0-1.133 0-1.558-.142-.566-.141-.991-.424-1.416-.849s-.708-.85-.991-1.274c-.283-.567-.283-.991-.283-1.558 0-.566 0-1.133.142-1.841.141-.566.424-1.132.849-1.557s.85-.85 1.416-.991c.566-.283 1.133-.283 1.699-.283 1.133 0 2.124.425 2.832 1.274.849.708 1.274 1.841 1.274 2.973a4.95 4.95 0 0 1-1.133 3.115c-.849.85-1.84 1.274-2.973 1.416zM277.668 162.965c-.567 0-1.133 0-1.558-.283-.566-.142-.991-.567-1.274-.85-.425-.425-.708-.849-.85-1.416-.141-.566-.283-1.132-.283-1.557 0-1.133.567-2.265 1.275-3.115.849-.85 1.982-1.274 3.115-1.416.566 0 1.132 0 1.698.283.567.284.992.567 1.416.991.425.425.708.85.85 1.416.141.567.283 1.133.283 1.699 0 1.133-.566 2.266-1.416 2.974-.849.849-1.982 1.274-3.115 1.132zM311.224 197.371c-1.133 0-2.124-.566-2.832-1.274-.708-.85-1.132-1.841-1.132-2.973 0-.992.566-1.983 1.274-2.691s1.699-1.132 2.69-1.274c1.133 0 2.124.425 2.832 1.133s1.132 1.84 1.132 2.832-.424 2.123-1.132 2.831-1.841 1.133-2.832 1.133zM151.514 95.712c-.991 0-1.982-.566-2.69-1.274s-1.133-1.7-1.133-2.69c0-1.133.566-2.124 1.274-2.832s1.841-1.133 2.974-1.133.991 0 1.557.283c.567.284.85.425 1.275.85l.849 1.274c.142.425.283.991.283 1.558 0 .566 0 1.132-.283 1.557-.283.566-.566.991-.991 1.274-.425.425-.85.708-1.416.85-.566.141-.991.283-1.557.283zM336.708 222.289c-.425 0-.991 0-1.416-.283s-.849-.425-1.132-.849a3.1 3.1 0 0 1-.708-1.133c-.142-.425-.283-.991-.142-1.416 0-.425 0-.991.283-1.416.142-.424.425-.849.85-1.132a2.7 2.7 0 0 1 1.274-.708c.425-.142.991-.284 1.416-.142.991 0 1.841.425 2.549 1.133s1.132 1.557 1.132 2.548-.566 1.841-1.274 2.549c-.708.566-1.699.991-2.548.849z"/><path fill="#102185" d="M295.366 261.934c-2.266-.991-3.823-1.84-5.522-2.548-9.486-3.823-17.698-10.336-23.645-18.548-5.38-7.504-10.761-15.15-16.849-22.088-9.345-10.76-20.813-18.406-35.396-19.963-7.929-.85-15.858-1.133-23.787-1.983-6.654-.707-13.167-1.699-19.822-2.973-8.637-1.557-15.575-6.513-22.088-12.035-5.38-4.53-9.486-10.052-13.592-15.716-5.805-8.07-11.468-16.14-17.415-23.928-7.646-10.194-18.548-17.415-31.007-20.247-12.602-2.973-25.203-6.229-38.087-8.211-9.628-1.699-18.973-4.956-27.468-9.911-4.53-2.549-7.787-6.23-10.902-10.195C.583 82.12-1.824 69.378 1.29 55.077A92 92 0 0 1 6.388 40.21c.99-1.557 2.265-2.831 3.822-3.68 10.761-6.797 21.663-13.452 32.424-20.106 7.504-4.672 15.15-9.345 22.654-13.875 1.274-.85 2.69-1.558 4.106-2.124C69.96.142 70.668 0 71.376 0s1.416.142 1.982.566c.566.284 1.133.85 1.558 1.416.424.567.566 1.275.708 1.84a6.9 6.9 0 0 1 0 3.399c-.142 1.133-.708 2.265-1.275 3.115-6.937 9.628-5.239 17.415 1.416 25.627a56.05 56.05 0 0 0 22.654 16.14c9.203 3.682 18.831 4.956 28.317 6.938 7.504 1.416 14.725 3.398 21.946 5.947 8.354 3.115 15.008 8.778 21.238 15.15a101 101 0 0 1 15.008 20.388c3.965 6.796 7.929 13.592 12.46 19.964 6.371 9.203 15.716 13.734 26.618 15.149 11.044 1.416 22.088.85 33.131.142 12.46-.708 24.778 1.699 35.822 7.221a62.1 62.1 0 0 1 28.883 28.883c1.699 3.682 3.682 7.363 5.806 10.902 2.831 4.248 5.805 8.354 9.203 12.319 3.115 3.539 7.221 6.229 11.752 7.787 4.247 1.416 8.495 3.115 12.459 5.097a29.1 29.1 0 0 1 10.761 8.637c2.973 3.681 4.955 7.928 6.088 12.459.991 4.106.142 5.097-3.115 7.646-4.814 3.681-9.203 7.787-13.734 11.751-15.433 13.451-30.724 26.902-46.157 40.494-1.982 1.841-4.531 2.832-7.221 3.115-11.469.991-18.548-5.097-21.663-15.008-.566-1.558-.708-3.257-.283-4.956s1.274-3.115 2.69-4.247c2.124-1.982 4.248-3.682 6.796-5.947zM61.465 15.999c-1.133.567-2.124.991-2.973 1.558l-8.92 5.522L16.44 43.467c-.85.425-1.699 1.133-2.407 1.84-.566.85-1.132 1.7-1.415 2.69-.85 3.682-2.408 7.363-3.116 11.044-1.982 10.336-.424 19.964 6.372 28.318 2.832 3.68 5.805 7.22 10.053 9.344a81.7 81.7 0 0 0 23.503 8.354c13.026 1.982 25.91 5.238 38.795 8.353 14.017 3.257 26.618 11.327 35.255 22.796 6.229 7.929 12.035 15.999 17.698 24.353 5.239 7.504 11.044 14.158 18.548 19.255 3.823 2.69 8.07 4.531 12.601 5.664 7.079 1.557 14.159 2.69 21.38 2.973 7.362.425 14.866 1.133 22.229 1.982 16.424 1.982 29.308 10.619 39.927 22.795 5.805 6.655 10.902 14.017 15.999 21.238a47.68 47.68 0 0 0 22.371 17.415c1.416.567 2.832 1.275 4.248 1.841 4.814 1.841 8.92 5.38 11.468 9.911 1.841 3.257 3.115 6.796 4.531 10.194l1.133 2.69 53.378-46.723c-2.832-5.947-6.23-10.902-12.176-13.734-2.974-1.416-6.23-2.548-9.345-3.823-4.531-1.699-9.204-3.398-12.885-6.654-6.371-5.38-11.468-11.752-15.433-19.114-1.84-3.54-3.822-7.079-5.521-10.619-8.496-16.849-22.654-26.194-40.636-30.016-7.929-1.699-15.858-1.133-23.786-.567q-12.531.85-25.061-.425c-14.867-1.415-27.043-7.928-35.397-20.529-4.106-6.23-8.07-12.46-11.752-18.973-5.097-9.628-12.034-17.981-20.388-24.778a42.6 42.6 0 0 0-12.176-7.22c-6.513-2.124-13.31-3.965-20.106-5.38-6.513-1.558-13.167-2.55-19.539-4.107-11.751-2.831-22.512-8.495-31.29-16.707-4.39-3.964-7.93-8.778-10.336-14.3-1.982-4.247-2.69-8.92-1.982-13.45V16.14zm240.839 252.023c-2.407 1.982-4.673 3.682-6.655 5.522-.283.283-.425.566-.566.991 0 .283-.142.708 0 1.133.424 2.832 4.389 6.938 7.221 7.504.566.141 1.274.283 1.84 0q.85-.213 1.699-.85c.425-.424.85-.991.991-1.557s.283-1.274 0-1.841c-.424-3.964-1.982-7.645-4.389-10.902z"/></svg>