<svg xmlns="http://www.w3.org/2000/svg" width="84" height="105" fill="none" viewBox="0 0 84 105"><path fill="#3558a2" d="M23.9 68.174c-1.14-1.416-2.273-2.676-3.237-4.053a27.57 27.57 0 0 1-5.002-18.49c.717-8.959 4.724-16.216 11.843-21.671 6.235-4.77 13.346-6.743 21.16-5.801 7.524.887 13.626 4.414 18.399 10.322 4.261 5.273 6.124 11.326 6.085 18.023-.09 12.071-7.863 23.173-19.23 27.494a28.43 28.43 0 0 1-17.748.96c-.732-.191-1.078-.01-1.463.567-2.667 4.022-5.382 8.01-8.039 12.037-1.69 2.557-3.27 5.182-4.97 7.73a110 110 0 0 1-4.527 6.359 9.4 9.4 0 0 1-2.377 2.215 4.74 4.74 0 0 1-4.833.302 9.4 9.4 0 0 1-3.48-2.847c-1.284-1.715-1.534-3.567-.579-5.468 1.019-2.007 2.037-4.01 3.258-5.907a487 487 0 0 1 7.865-12.022c2.013-2.972 4.17-5.854 6.259-8.774.197-.31.4-.641.615-.976m46.494-19.371c.034-.52.06-.834.079-1.164.39-6.421-1.252-12.358-5.241-17.325-6.501-8.098-15.14-11.17-25.322-9.176C26.976 23.663 17.53 35.65 18.23 49.156c.761 14.893 13.618 25.758 28.398 23.932 8.152-.994 14.529-5.098 19.2-11.812a26.6 26.6 0 0 0 4.567-12.473M25.93 70.02c-1.459 1.959-2.963 3.873-4.348 5.864-3.964 5.699-7.936 11.392-11.435 17.396-.74 1.273-1.339 2.63-1.97 3.963a2.28 2.28 0 0 0 .37 2.48q.487.627 1.092 1.145c1.862 1.619 3.34 1.52 5.028-.303q.248-.27.458-.567c1.884-2.71 3.837-5.413 5.673-8.148 1.467-2.193 2.774-4.494 4.216-6.705 1.912-2.95 3.912-5.857 5.876-8.78.545-.812 1.112-1.61 1.669-2.412zM78.014 3.455c-.669 2.357-.001 4.222 1.689 5.806.905.846 1.754 1.7 3.005 2.067a1.254 1.254 0 0 1 .994 1.22c.021.647-.351 1.022-.907 1.289-2.102 1.015-3.764 2.578-5.292 4.294-.9.997-1.271 2.259-1.645 3.505-.295.978-.556 1.963-.828 2.944s-.884 1.46-1.617 1.342-1.112-.815-1.1-1.78c.018-2.07.028-4.145-.05-6.21-.082-2.18-1.498-3.305-3.385-3.977a6 6 0 0 1-1.267-.502 1.402 1.402 0 0 1 .182-2.535 5.6 5.6 0 0 1 1.413-.409c3.056-.554 4.836-2.385 5.576-5.34q.366-1.482.763-2.956.107-.408.3-.785a1.235 1.235 0 0 1 1.464-.746 1.254 1.254 0 0 1 .867 1.4c-.035.496-.116.983-.162 1.373m-2.03 5.574a7.1 7.1 0 0 1-4.267 3.43c1.853 1.161 2.87 2.622 3.093 4.541 1.572-1.496 3.08-2.91 4.543-4.312z"/><path fill="#eaecf1" d="M70.394 48.803a26.6 26.6 0 0 1-4.6 12.474c-4.67 6.721-11.05 10.817-19.198 11.81-14.78 1.827-27.637-9.038-28.398-23.93-.687-13.504 8.758-25.493 21.681-28.019 10.182-1.99 18.82 1.078 25.322 9.176 3.988 4.967 5.63 10.904 5.24 17.325.012.33-.013.644-.047 1.164M41.385 68.669c3.159.412 6.368.165 9.427-.726 12.86-3.71 19.709-17.362 15.51-29.536-2.955-8.56-11.27-14.674-20.342-14.763-7.998-.075-14.441 3.099-19.211 9.496-3.714 4.969-5.078 10.63-4.21 16.79.619 4.373 2.487 8.163 5.32 11.555a12.5 12.5 0 0 0 4.109 3.221c1.384.691 2.724 1.471 4.063 2.243.754.437 1.417 1.02 2.34 1.152 1.003.145 1.997.368 2.994.568"/><path fill="#8da3d0" d="m25.93 70.02 6.651 3.937c-.556.802-1.123 1.6-1.668 2.411-1.964 2.924-3.949 5.833-5.876 8.78-1.434 2.213-2.75 4.513-4.216 6.706-1.838 2.75-3.768 5.42-5.673 8.148a6 6 0 0 1-.458.567c-1.677 1.824-3.167 1.922-5.028.302a7.8 7.8 0 0 1-1.093-1.145 2.28 2.28 0 0 1-.368-2.48c.63-1.333 1.228-2.69 1.969-3.962 3.496-6.004 7.467-11.698 11.435-17.396 1.361-1.994 2.866-3.908 4.325-5.867"/><path fill="#fff" d="m75.985 9.03 3.368 3.658c-1.477 1.39-2.97 2.816-4.543 4.312-.224-1.919-1.24-3.38-3.093-4.54a7.1 7.1 0 0 0 4.267-3.43"/><path fill="#3558a2" d="M41.385 68.669c-.997-.2-1.99-.438-2.993-.58-.923-.132-1.585-.715-2.34-1.152-1.34-.772-2.678-1.551-4.063-2.242a12.5 12.5 0 0 1-4.108-3.222c-2.834-3.392-4.702-7.182-5.32-11.556-.869-6.159.515-11.817 4.21-16.789 4.754-6.399 11.212-9.57 19.21-9.495 9.073.088 17.388 6.199 20.343 14.762 4.198 12.174-2.655 25.825-15.511 29.536a23 23 0 0 1-9.428.738m.852-23.793-.273.226q.255.49.56.953c.334.481.754.934 1.111 1.414.49.66.55 1.237.215 1.757q-.563.833-1.795.473l-1.113-.315c.77 2.55 2.402 3.97 4.543 4.813a16 16 0 0 0 6.002 1.06 1.84 1.84 0 0 1 1.878 1.246c.095.226.18.459.259.69.629 1.862 1.257 3.727 1.945 5.755 4.295-2.899 7.168-6.708 8.596-11.584a19.46 19.46 0 0 0-.365-12.222c-.204.136-.281.162-.319.216-1.935 2.849-4.65 4.093-8.056 3.855-.531-.035-.74.21-.975.609-1.197 2.032-3.259 2.638-5.329 1.459a20 20 0 0 1-2.684-2.01c-.548-.455-.99-1.05-1.788-1.18-.025.212-.097.328-.048.409.26.578.541 1.143.806 1.714.375.802.26 1.508-.304 1.919-.565.41-1.231.292-1.888-.34-.327-.344-.66-.633-.986-.918zm1.9-10.153c-.32.459-.476.726-.681.975a7.72 7.72 0 0 1-6.594 3.363c-1.348-.01-1.345-.033-1.914 1.213-.074.16-.13.329-.21.484a2.15 2.15 0 0 0 .003 2.1c1.044 2.215 1.033 4.5.208 6.785-.148.428-.319.846-.506 1.34 2.536 1.472 3.748 3.89 4.896 6.364.968 2.069 1.959 4.14 2.904 6.207.36.825.625 1.661.978 2.61a19.7 19.7 0 0 0 9.019-1.509c.768-.32.872-.5.63-1.294-.49-1.622-1.04-3.216-1.543-4.827a.91.91 0 0 0-.906-.701c-1.323-.156-2.655-.333-3.961-.596a10.7 10.7 0 0 1-4.75-2.199c-1.715-1.403-2.97-3.087-3.314-5.345a2.79 2.79 0 0 1 .838-2.599 1.025 1.025 0 0 0 .291-1.111 8 8 0 0 1-.116-2.094c.095-1.103.692-1.693 1.792-1.939l.637-.124c.08-.253.15-.483.224-.713.6-1.763 1.838-2.32 3.565-1.612a8.8 8.8 0 0 1 2.827 1.987 9.2 9.2 0 0 0 2.008 1.511c.77.427 1.31.155 1.595-.633a1.2 1.2 0 0 0-.225-.21 9.65 9.65 0 0 1-4.585-5.319 1 1 0 0 0-.328-.531c-.902-.513-1.816-1.012-2.789-1.584zm10.996 5.828c3.289.431 5.937-1.305 6.741-4.111a1.79 1.79 0 0 0-.268-1.674 26 26 0 0 0-5.1-5.15c-1.548-1.237-2.859-.962-4.32-.075-2.25 1.37-3.23 3.776-2.464 6.27.855 2.827 2.912 4.281 5.404 4.74zM27.46 56.091c1.96 4.594 8.346 9.195 12.684 9.48a1 1 0 0 0-.039-.306c-1.425-3.03-2.802-6.078-4.305-9.075a6.4 6.4 0 0 0-2.145-2.571c-.547-.366-.947-.425-1.468.08a8.9 8.9 0 0 1-3.358 1.95c-.422.17-.864.301-1.377.44zm-2.056-5.181c.173.689.276 1.205.43 1.696.254.86.43.954 1.29.794a7.16 7.16 0 0 0 5.752-6.895c.02-3.49-2.58-6.08-5.986-5.97-.542.019-1.148.014-1.211.718-.084.944-.984 1.91-.096 2.835.888.926.856 1.763-.097 2.48-.815.611-.796 1.11.134 1.485.426.133.873.185 1.319.156.273 0 .544-.143.825-.165a1.22 1.22 0 0 1 1.35.781 1.165 1.165 0 0 1-.505 1.465 8.7 8.7 0 0 1-1.972.64c-.413.038-.829.03-1.24-.021zm16.89-19.615a5.05 5.05 0 0 0-1.303-3.672 1.4 1.4 0 0 0-1.672-.479 22.2 22.2 0 0 0-6.247 3.24 1.55 1.55 0 0 0-.65 1.342 4.84 4.84 0 0 0 3.256 4.482c2.988.986 6.2-1.259 6.608-4.914zm4.617 1.663a8.29 8.29 0 0 1 3.91-5.708c-1.725-.986-6.027-1.368-7.267-.674a8.6 8.6 0 0 1 1.346 3.94c.029.586-.155 1.315.145 1.718s1.035.513 1.582.741q.14.003.276-.018zm-13.76 5.11a21 21 0 0 1-1.919-2.064 22 22 0 0 1-1.341-2.445c-1.156 1.075-2.422 3.06-2.7 4.264a9.84 9.84 0 0 1 5.107 1.775z"/><path fill="#fff" d="M42.228 44.875c.326.292.66.574.976.877.657.633 1.291.755 1.888.34.596-.414.676-1.093.304-1.919-.265-.57-.546-1.136-.807-1.714-.033-.078.024-.196.049-.409.798.13 1.24.73 1.788 1.181A20 20 0 0 0 49.1 45.26c2.07 1.179 4.131.573 5.33-1.46.234-.398.443-.643.974-.608 3.405.238 6.12-1.006 8.056-3.855.037-.054.115-.08.318-.216a19.46 19.46 0 0 1 .365 12.222c-1.427 4.876-4.3 8.685-8.596 11.584-.686-2.036-1.315-3.893-1.944-5.754a10 10 0 0 0-.26-.691 1.84 1.84 0 0 0-1.878-1.246 16 16 0 0 1-6.001-1.06c-2.141-.843-3.772-2.263-4.543-4.813l1.112.315q1.237.357 1.796-.473c.333-.5.274-1.098-.215-1.757-.358-.48-.758-.93-1.112-1.414q-.305-.462-.56-.953z"/><path fill="#eaecf1" d="M44.13 34.722c.975.553 1.889 1.056 2.779 1.599a1 1 0 0 1 .328.53 9.65 9.65 0 0 0 4.585 5.32q.126.09.225.21c-.284.784-.826 1.075-1.595.633a9.2 9.2 0 0 1-2.008-1.512 8.8 8.8 0 0 0-2.827-1.987c-1.738-.71-2.977-.152-3.564 1.613-.074.23-.145.46-.225.712l-.637.125c-1.086.262-1.682.837-1.792 1.939-.052.7-.013 1.404.117 2.093a1.03 1.03 0 0 1-.292 1.112 2.79 2.79 0 0 0-.838 2.599c.343 2.257 1.6 3.942 3.314 5.345a10.7 10.7 0 0 0 4.75 2.198c1.306.264 2.637.444 3.96.596a.91.91 0 0 1 .907.701c.5 1.624 1.053 3.21 1.542 4.827.24.81.14.975-.63 1.295a19.66 19.66 0 0 1-9.018 1.509c-.353-.95-.616-1.801-.978-2.61-.93-2.065-1.936-4.139-2.904-6.208-1.147-2.48-2.36-4.896-4.896-6.364.188-.494.358-.912.506-1.34.806-2.286.836-4.57-.208-6.785a2.15 2.15 0 0 1-.003-2.1c.081-.154.136-.324.21-.483.569-1.247.566-1.224 1.914-1.213a7.72 7.72 0 0 0 6.594-3.363c.188-.267.364-.532.684-.991"/><path fill="#fff" d="M55.125 40.55c-2.49-.47-4.548-1.912-5.419-4.74-.765-2.495.214-4.901 2.464-6.27 1.461-.888 2.772-1.163 4.32.075a26 26 0 0 1 5.1 5.149 1.79 1.79 0 0 1 .268 1.674c-.796 2.807-3.444 4.543-6.733 4.112m.29-1.694a3.96 3.96 0 0 0 3.752-1.582 1.42 1.42 0 0 0-.092-2.001c-.537-.455-1.26-.391-1.866.276a1.73 1.73 0 0 1-1.792.57 2.7 2.7 0 0 0-.632-.042 1.165 1.165 0 0 0-1.14.788 1.126 1.126 0 0 0 .44 1.4q.638.358 1.33.591m1.874-6.871a1.23 1.23 0 0 0-1.414 1.084 1.34 1.34 0 0 0 1.123 1.513 1.305 1.305 0 0 0 1.425-1.103 1.284 1.284 0 0 0-1.134-1.494m-3.531 1.331a1.25 1.25 0 0 0-1.43 1.079 1.26 1.26 0 1 0 2.495.36 1.26 1.26 0 0 0-1.065-1.439M27.452 56.09c.514-.155.955-.279 1.378-.42a8.9 8.9 0 0 0 3.358-1.95c.521-.506.921-.447 1.468-.081.93.652 1.67 1.54 2.145 2.571 1.492 2.995 2.88 6.044 4.305 9.075q.044.15.039.305c-4.345-.32-10.733-4.906-12.693-9.5M25.396 50.909c.41.046.825.048 1.235.005a8.7 8.7 0 0 0 1.972-.64 1.165 1.165 0 0 0 .505-1.465 1.224 1.224 0 0 0-1.35-.781c-.28.022-.552.166-.825.165a3.6 3.6 0 0 1-1.32-.156c-.929-.375-.948-.874-.133-1.486.953-.716.943-1.593.097-2.479s.012-1.891.096-2.835c.083-.702.67-.703 1.21-.718 3.407-.11 6.01 2.48 5.986 5.97a7.16 7.16 0 0 1-5.751 6.894c-.86.161-1.036.066-1.29-.793-.155-.484-.259-.992-.432-1.681m4.71-4.919a1.22 1.22 0 0 0-.983-1.383 1.29 1.29 0 0 0-1.475 1 1.243 1.243 0 1 0 2.459.372zM42.286 31.294c-.407 3.655-3.62 5.9-6.609 4.918a4.84 4.84 0 0 1-3.256-4.482 1.55 1.55 0 0 1 .65-1.343 22.2 22.2 0 0 1 6.248-3.24 1.4 1.4 0 0 1 1.671.48 5.05 5.05 0 0 1 1.296 3.667m-5.51 4.39a3.9 3.9 0 0 0 2.591-.695c.681-.498.896-1.224.544-1.824-.351-.6-.965-.732-1.765-.447q-.686.252-1.401.406c-.833.163-1.272.577-1.269 1.277s.53 1.177 1.3 1.283m-1.661-2.862a1.215 1.215 0 0 0 1.368-1.125 1.304 1.304 0 0 0-1.085-1.438 1.28 1.28 0 0 0-1.385 1.13 1.336 1.336 0 0 0 1.106 1.433zm4.98-2.439a1.083 1.083 0 0 0-.992-1.235 1.146 1.146 0 1 0-.203 2.279 1.095 1.095 0 0 0 1.185-1.026z"/><path fill="#3558a2" d="M55.415 38.856a8 8 0 0 1-1.332-.575 1.126 1.126 0 0 1-.44-1.4 1.165 1.165 0 0 1 1.14-.79q.319-.015.633.044a1.73 1.73 0 0 0 1.791-.57c.607-.668 1.329-.723 1.867-.277a1.42 1.42 0 0 1 .092 2.001 3.97 3.97 0 0 1-3.75 1.567M57.289 31.985a1.285 1.285 0 0 1 1.133 1.494 1.305 1.305 0 0 1-1.424 1.103 1.34 1.34 0 0 1-1.123-1.513 1.23 1.23 0 0 1 1.414-1.084M53.758 33.316a1.26 1.26 0 0 1 1.066 1.44 1.263 1.263 0 1 1-2.495-.361 1.25 1.25 0 0 1 1.429-1.079M30.107 45.975a1.243 1.243 0 1 1-2.459-.372 1.29 1.29 0 0 1 1.475-1 1.22 1.22 0 0 1 .984 1.372M36.775 35.684c-.771-.09-1.3-.618-1.3-1.283.001-.665.438-1.121 1.27-1.277q.715-.154 1.4-.406c.817-.295 1.425-.14 1.766.447s.137 1.326-.544 1.824a3.9 3.9 0 0 1-2.592.695M35.118 32.822a1.335 1.335 0 0 1-1.102-1.432 1.28 1.28 0 0 1 1.385-1.13 1.305 1.305 0 0 1 1.086 1.437 1.217 1.217 0 0 1-1.369 1.125M40.084 30.401a1.096 1.096 0 0 1-1.193 1.033 1.145 1.145 0 1 1 .203-2.28 1.08 1.08 0 0 1 .99 1.247"/></svg>