<svg xmlns="http://www.w3.org/2000/svg" width="300" height="300" fill="none" viewBox="0 0 300 300"><path fill="#3558a2" d="M211.87 88.893c4.68 2.08 9.23 4.09 13.77 6.12 1.07.48 2.15 1 3.18 1.54a3.16 3.16 0 0 1 1.78 3.39 21.4 21.4 0 0 1-1.43 5.46 9134 9134 0 0 1-23.55 49.611q-20.67 43.449-41.32 86.919a13.6 13.6 0 0 0-1 3.59c-.36 2.16-1.52 3.29-3.67 3.12a7.9 7.9 0 0 1-2.59-.73q-34.71-15.92-69.41-31.86c-4-1.81-7.94-3.57-11.85-5.46a37 37 0 0 1-4.88-2.89c-1.91-1.31-2.29-2.39-1.54-4.68 1.65-5.08 3.39-10.13 5.14-15.18q21.74-62.909 43.48-125.81c.83-2.39 1.71-4.77 2.52-7.17.72-2.14 2-3.42 4.4-3.15h.27c3.71-1.6 7.34-.08 10.95.42 7.71 1.06 15.38 2.39 23.06 3.64 8.4 1.36 16.79 2.78 25.19 4.14 7.32 1.18 14.66 2.31 22 3.46 1.08.17 2.15.34 3.22.55a4.06 4.06 0 0 1 3.7 4c.085.905.085 1.816 0 2.72-.45 6.06-.93 11.97-1.42 18.25m-85.37-30.19q-25.1 72.59-49.94 144.5c.56.33.85.54 1.17.69l78.6 36q.258.087.53.111a.6.6 0 0 0 .26 0q.248-.08.48-.201l65.69-138.15zm79.9 11.77-54.84-8.83-.11.47 53.59 23.74c.46-5.15.91-10.15 1.36-15.35z"/><path fill="#fff" d="m126.499 58.703 96.79 42.89-65.69 138.15q-.232.12-.48.2a.6.6 0 0 1-.26 0 2.2 2.2 0 0 1-.53-.11l-78.6-36c-.32-.15-.61-.36-1.17-.69q24.92-71.98 49.94-144.44m11.57 16.91a4.43 4.43 0 0 0-4.38 2.78c-.36.83-.71 1.67-1 2.51q-6.74 17.77-13.46 35.56c-2 5.25-4 10.49-6 15.75-1.31 3.54-.57 5.34 2.85 7 1 .49 2 .93 3 1.33q8.85 3.51 17.7 7 6.83 2.7 13.67 5.36c3.27 1.27 5.82.33 7.54-2.75.26-.47.47-1 .69-1.48l15.31-34.82c2.19-5 4.42-9.93 6.54-14.93 1.21-2.87.56-4.5-2.18-5.73a11204 11204 0 0 0-37.45-16.76 23 23 0 0 0-2.83-.79zm23.39 114.14a3.32 3.32 0 0 0-1.68-2.73 25 25 0 0 0-2.69-1.28 78163 78163 0 0 1-45.91-19.14c-1.75-.73-3.5-1.49-5.31-2.09a3.37 3.37 0 0 0-4.44 1.74 3.367 3.367 0 0 0 1.74 4.44c.791.438 1.614.819 2.46 1.14a51655 51655 0 0 0 49.16 20.52c.911.404 1.868.696 2.85.87a3.393 3.393 0 0 0 3.82-3.44zm1.63-8.32a3.86 3.86 0 0 0 3.59-2.23 3 3 0 0 0 .109-1.877 3 3 0 0 0-1.029-1.573 11.7 11.7 0 0 0-2.79-1.62q-25.26-10.74-50.55-21.4a8.5 8.5 0 0 0-2.62-.65 3 3 0 0 0-3.24 1.94 3.245 3.245 0 0 0 1.15 3.88 14 14 0 0 0 2.65 1.36q9.24 4 18.51 7.87l31.28 13.25c1.07.48 2.2.82 2.94 1.08zm-67.76 12.75c-2-.06-3.3.76-3.83 2.18a3.1 3.1 0 0 0 1 3.66c.72.543 1.502 1 2.33 1.36q8.2 3.9 16.43 7.76 4.55 2.13 9.11 4.22a8.2 8.2 0 0 0 2 .69 3.629 3.629 0 0 0 4-2.19 3.42 3.42 0 0 0-1.62-4.18 12 12 0 0 0-1.22-.59c-4.15-2-8.3-4-12.47-6-4.51-2.11-9-4.16-13.57-6.21a17 17 0 0 0-2.16-.67zm35.1 5.34a3.39 3.39 0 0 0-1.61-2.91 14 14 0 0 0-2.62-1.42 8649 8649 0 0 0-24.59-10.12 10.8 10.8 0 0 0-2.34-.67 3.34 3.34 0 0 0-3.73 2.07 3.23 3.23 0 0 0 1.08 3.88 9.7 9.7 0 0 0 2.16 1.09q12.999 5.43 26.07 10.81a6.8 6.8 0 0 0 2.61.56 3.08 3.08 0 0 0 2.802-2.05c.136-.388.193-.8.168-1.21zm28.11 19.07c2.07 0 3.3-.83 3.79-2.27a3.19 3.19 0 0 0-1.11-3.65 9.1 9.1 0 0 0-2.1-1.21 1902 1902 0 0 0-16.28-6.9 8.2 8.2 0 0 0-2.62-.64 3.072 3.072 0 0 0-3.34 2.21 3.25 3.25 0 0 0 1.1 3.65 9.4 9.4 0 0 0 2.11 1.22q8.13 3.48 16.28 6.89 1.065.424 2.17.73zm48.86-102.4a3.25 3.25 0 0 0-.428-1.841 3.25 3.25 0 0 0-1.382-1.289c-5.21-2.5-10.46-4.93-15.7-7.39a2 2 0 0 0-.26-.09 3.53 3.53 0 0 0-4 1.64 3.62 3.62 0 0 0-.29 2.248 3.62 3.62 0 0 0 1.1 1.982c.635.507 1.33.933 2.07 1.27 4.25 2 8.49 4 12.77 6a7.7 7.7 0 0 0 2.85.73 3.006 3.006 0 0 0 2.388-.852 3.01 3.01 0 0 0 .882-2.378zm-7.19 14.56a3.48 3.48 0 0 0-2.2-3.27c-4.65-2.4-9.34-4.73-14-7.08a4 4 0 0 0-1-.35 3.34 3.34 0 0 0-2.87 6c.652.484 1.352.899 2.09 1.24q5.79 2.94 11.61 5.84c.707.396 1.459.708 2.24.93a3.34 3.34 0 0 0 1.508.022 3.34 3.34 0 0 0 2.622-3.302zm-11.65 18a3.76 3.76 0 0 0 3.38-1.91 2.9 2.9 0 0 0-.37-3.53 9 9 0 0 0-2.35-1.79c-3.88-2.13-7.8-4.2-11.72-6.28a10.8 10.8 0 0 0-2.23-1 3.35 3.35 0 0 0-3.18 5.68c.459.437.977.807 1.54 1.1q6.45 3.48 12.91 6.91.978.516 2.02.89z"/><path fill="#979fbb" d="M206.399 70.504c-.46 5.22-.9 10.15-1.36 15.38l-53.59-23.74.11-.47z"/><path fill="#3558a2" d="M138.07 75.644q1.443.344 2.83.87 18.73 8.36 37.45 16.76c2.74 1.23 3.39 2.86 2.18 5.73-2.12 5-4.35 10-6.54 14.93q-7.65 17.41-15.31 34.82c-.22.5-.43 1-.69 1.48-1.72 3.08-4.27 4-7.54 2.75a1849 1849 0 0 1-13.67-5.36q-8.85-3.48-17.7-7c-1-.4-2-.84-3-1.33-3.42-1.71-4.16-3.51-2.85-7 2-5.26 4-10.5 6-15.75q6.74-17.77 13.46-35.56c.32-.84.67-1.68 1-2.51a4.43 4.43 0 0 1 4.38-2.83m2.12 32.45v-2.25a11.7 11.7 0 0 1 3.93-8.66 10.238 10.238 0 0 1 16.88 4c1.68 4.57.7 8.72-2.26 12.47-.47.61-1 1.18-1.36 1.59l5.18 7.36 10.56-24-33.92-15.2c-3.5 9.22-6.93 18.29-10.36 27.35zm-19.94 25.34q1.632.597 3.19 1.37a3.24 3.24 0 0 0 3.75-.38c2.94-2 6-3.73 9-5.58l15-9.17a10.7 10.7 0 0 0-1.55-1.35 18.56 18.56 0 0 0-8.44-2.66 20.77 20.77 0 0 0-14.08 4.76c-1 .78-2.27 1.48-2.74 2.53-1.55 3.35-2.74 6.84-4.13 10.48m13.27 5.31 18.34 7.23c.31-.23.41-.27.44-.35 1.25-2.71 2.5-5.42 3.72-8.13 1.78-4 1.83-4 1.07-8.07a37 37 0 0 0-1.37-4.3zm13.68-33.12c0 2.82.87 4.23 2.71 4.81 1.38.43 3.23-.56 4.14-2.3a7.4 7.4 0 0 0 .71-2 4.36 4.36 0 0 0-2.17-4.56 3.8 3.8 0 0 0-2.66.098 3.82 3.82 0 0 0-1.95 1.812c-.338.682-.6 1.4-.78 2.14M161.46 189.784a3.385 3.385 0 0 1-3.82 3.47 12.4 12.4 0 0 1-2.85-.87 85416 85416 0 0 1-49.159-20.52 19 19 0 0 1-2.461-1.14 3.4 3.4 0 0 1-1.789-1.86 3.371 3.371 0 0 1 4.489-4.32c1.81.6 3.56 1.36 5.31 2.09a16722 16722 0 0 1 45.91 19.14 24 24 0 0 1 2.69 1.28 3.32 3.32 0 0 1 1.68 2.73M163.089 181.463c-.74-.26-1.87-.6-2.94-1l-31.28-13.25q-9.26-3.93-18.51-7.87a14 14 0 0 1-2.65-1.36 3.251 3.251 0 0 1-1.15-3.88 3 3 0 0 1 3.24-1.94 8.5 8.5 0 0 1 2.62.65 28676 28676 0 0 1 50.55 21.4c1 .409 1.939.954 2.79 1.62a3 3 0 0 1 .92 3.45 3.86 3.86 0 0 1-3.59 2.18M95.328 194.212q1.11.286 2.17.72c4.53 2 9.06 4.1 13.57 6.21 4.17 2 8.32 4 12.47 6q.627.262 1.22.59a3.42 3.42 0 0 1 1.62 4.18 3.63 3.63 0 0 1-4 2.19 8.3 8.3 0 0 1-2-.69 876 876 0 0 1-9.11-4.22q-8.22-3.87-16.43-7.76c-.827-.36-1.61-.816-2.33-1.36a3.1 3.1 0 0 1-1-3.66c.52-1.44 1.8-2.26 3.82-2.2M130.429 199.555a3.08 3.08 0 0 1-.794 2.289 3.06 3.06 0 0 1-2.206 1.001 6.8 6.8 0 0 1-2.61-.56q-13.05-5.37-26.07-10.81a9.8 9.8 0 0 1-2.16-1.09 3.234 3.234 0 0 1-1.08-3.88 3.34 3.34 0 0 1 3.73-2.07c.803.134 1.588.359 2.34.67q12.3 5 24.59 10.12c.922.377 1.8.853 2.62 1.42a3.39 3.39 0 0 1 1.64 2.91M158.539 218.622a21 21 0 0 1-2.17-.7q-8.16-3.42-16.28-6.89a9.4 9.4 0 0 1-2.11-1.22 3.25 3.25 0 0 1-1.1-3.65 3.07 3.07 0 0 1 3.34-2.21 8.2 8.2 0 0 1 2.62.64 1470 1470 0 0 1 16.28 6.9 9 9 0 0 1 2.1 1.21 3.19 3.19 0 0 1 1.11 3.65c-.49 1.44-1.72 2.27-3.79 2.27M207.399 116.223a3 3 0 0 1-.858 2.37 3 3 0 0 1-2.362.88 7.7 7.7 0 0 1-2.85-.73c-4.28-2-8.52-4-12.77-6a10 10 0 0 1-2.07-1.271 3.63 3.63 0 0 1-.81-4.23 3.534 3.534 0 0 1 4-1.64q.134.036.26.09c5.24 2.46 10.49 4.89 15.7 7.39a3.24 3.24 0 0 1 1.76 3.141M200.209 130.784a3.34 3.34 0 0 1-1.272 2.663 3.33 3.33 0 0 1-2.888.607 10.5 10.5 0 0 1-2.24-.93q-5.82-2.89-11.61-5.84a12 12 0 0 1-2.09-1.24 3.34 3.34 0 0 1 2.87-6q.524.108 1 .35c4.68 2.35 9.37 4.68 14 7.08a3.48 3.48 0 0 1 2.23 3.31M188.559 148.824a16 16 0 0 1-2-.79q-6.46-3.42-12.91-6.91a6.8 6.8 0 0 1-1.54-1.101 3.35 3.35 0 0 1 3.18-5.68 10.8 10.8 0 0 1 2.23 1c3.92 2.08 7.84 4.15 11.72 6.281a9 9 0 0 1 2.35 1.789 2.9 2.9 0 0 1 .37 3.531 3.77 3.77 0 0 1-3.4 1.88"/><path fill="#eaecf1" d="m140.19 108.093-11.35 2.64c3.43-9.06 6.86-18.13 10.36-27.35l33.92 15.2-10.56 24-5.18-7.36c.36-.41.89-1 1.36-1.59 3-3.75 3.94-7.9 2.26-12.47a10.24 10.24 0 0 0-7.334-6.668 10.24 10.24 0 0 0-9.546 2.668 11.7 11.7 0 0 0-3.93 8.66c-.01.82 0 1.62 0 2.27"/><path fill="#fff" d="M120.25 133.433c1.39-3.64 2.58-7.13 4.09-10.48.47-1 1.76-1.75 2.74-2.53a20.78 20.78 0 0 1 14.08-4.76 18.56 18.56 0 0 1 8.44 2.66 10.7 10.7 0 0 1 1.55 1.35l-15 9.17c-3 1.85-6.06 3.62-9 5.58a3.24 3.24 0 0 1-3.75.38 32 32 0 0 0-3.15-1.37M133.52 138.704l22.2-13.62c.543 1.404 1 2.84 1.37 4.3.76 4.11.71 4.12-1.07 8.07-1.22 2.71-2.47 5.42-3.72 8.13 0 .08-.13.12-.44.35zM147.199 105.624a10.4 10.4 0 0 1 .78-2.18 3.82 3.82 0 0 1 4.61-1.91 4.36 4.36 0 0 1 2.17 4.56 7.4 7.4 0 0 1-.71 2c-.91 1.74-2.76 2.73-4.14 2.3-1.84-.54-2.76-1.95-2.71-4.77"/></svg>