<svg xmlns="http://www.w3.org/2000/svg" width="71" height="55" fill="none" viewBox="0 0 71 55"><path fill="#161616" d="M50.062 5.652c1.159-.656 2.19-1.263 3.24-1.833 2.052-1.113 4.117-2.2 6.167-3.314.965-.52 1.791-.347 2.645.306a20.5 20.5 0 0 1 5.649 6.822 22.5 22.5 0 0 1 1.954 5.577c.322 1.387.51 2.803.562 4.226 0 .757.146 1.513.118 2.266a41 41 0 0 1-.451 5.039 23 23 0 0 1-.774 3.47 1.9 1.9 0 0 1-.947 1.18c-1.076.58-2.135 1.2-3.207 1.794q-7.385 4.092-14.78 8.172c-3.775 2.082-7.564 4.147-11.343 6.247Q31.7 49.57 24.507 53.55c-.694.375-1.342.798-2.196.767-.385 0-.777.219-1.17.316-1.388.347-2.724.111-4.053-.243a16.4 16.4 0 0 1-5.712-2.936 29.5 29.5 0 0 1-7.856-9.178 26.5 26.5 0 0 1-3.019-8.412 6.2 6.2 0 0 1 .201-3.026q.541-1.61 1.253-3.154c.194-.325.474-.589.809-.764 1.467-.895 2.953-1.766 4.434-2.637q4.22-2.478 8.447-4.952 4.334-2.544 8.675-5.101l14.62-8.6 6.413-3.75a4 4 0 0 1 .392-.198c.718-.347 1.218-.191 1.672.427.854 1.162 1.729 2.321 2.645 3.543m10.317-3.1c-1.041.563-1.954 1.042-2.87 1.57-1.708.95-3.418 1.89-5.112 2.866-2.956 1.7-5.9 3.425-8.849 5.135l-9.602 5.574c-2.672 1.547-5.333 3.123-8.023 4.64-2.776 1.56-5.552 3.102-8.21 4.83-.444.288-.878.593-1.364.923.52.298.965.52 1.37.798a13.5 13.5 0 0 1 3.63 3.751 25.7 25.7 0 0 1 3.436 8.072c.347 1.37.479 2.797.694 4.199q.006.175-.034.347c-.032.288-.07.576-.09.864-.074 1.04-.133 2.082-.216 3.123-.02.309-.104.614-.177 1.04q.74-.196 1.44-.502c1.846-.996 3.668-2.034 5.507-3.044 2.683-1.474 5.369-2.935 8.051-4.41q7.635-4.185 15.269-8.377c3.428-1.877 6.86-3.738 10.292-5.611.531-.292 1.041-.604 1.52-.871.073-.427.118-.77.188-1.11.428-1.96.677-3.955.746-5.96a30 30 0 0 0-.122-3.667 24 24 0 0 0-1.454-6.246A17.5 17.5 0 0 0 61.77 3.66c-.423-.385-.902-.722-1.388-1.107zM45.776 4.449c-.347.18-.625.319-.895.478q-5.236 3.082-10.473 6.167a4560 4560 0 0 1-12.52 7.332q-6.274 3.661-12.493 7.36c-1.582.934-3.168 1.857-4.74 2.801-.276.154-.513.37-.694.628a6.9 6.9 0 0 0-.837 5.445 25.5 25.5 0 0 0 2.856 7.09 26.9 26.9 0 0 0 6.628 7.613c1.85 1.447 3.86 2.606 6.247 2.929a4.68 4.68 0 0 0 3.032-.49 11.7 11.7 0 0 0 1.114-4.924c-.194.108-.295.156-.392.215-1.069.653-2.14 1.302-3.203 1.968a1.94 1.94 0 0 1-1.235.347 1.04 1.04 0 0 1-.94-1.416c.131-.39.412-.712.78-.895l2.53-1.558 2.374-1.472a12.2 12.2 0 0 0-1.319-5.028 1 1 0 0 0-.135.028l-3.436 2.082c-.923.559-1.839 1.124-2.776 1.68-.49.294-1.006.478-1.551.131a8.7 8.7 0 0 1-1.968-1.579 11.3 11.3 0 0 1-1.811-2.776 4 4 0 0 0-.309-.468c-.395.26-.718.513-1.076.694a1.12 1.12 0 0 1-1.284-.205c-.537-.503-.503-1.273.14-1.836.502-.437 1.04-.822 1.582-1.228 0-.062.017-.118.017-.177a2 2 0 0 0-.024-.26c-.3-1.532.007-3.12.857-4.428a12.4 12.4 0 0 1 3.47-3.519c.43-.298.885-.569 1.329-.843 2.155-1.34 4.282-2.724 6.468-4.001 3.877-2.263 7.798-4.449 11.691-6.684q7.243-4.164 14.47-8.349c.192-.111.369-.246.612-.41zm-31.242 36.02 6.267-3.817c-.277-.573-.506-1.107-.79-1.614s-.619-.961-.941-1.454c-.472.198-.889.4-1.326.548a2.8 2.8 0 0 1-.93.17 1.01 1.01 0 0 1-.964-.944 1.28 1.28 0 0 1 .694-1.304c.235-.14.489-.254.864-.444q-.78-.59-1.621-1.09a2.93 2.93 0 0 0-3.47.763 4.7 4.7 0 0 0-.947 3.939c.29 1.55.95 3.009 1.922 4.25.292.461.73.812 1.242.997"/><path fill="#fff" d="M14.535 40.468a2.46 2.46 0 0 1-1.246-.986 9.8 9.8 0 0 1-1.922-4.25 4.7 4.7 0 0 1 .947-3.94 2.93 2.93 0 0 1 3.47-.763q.84.5 1.62 1.09c-.374.19-.627.305-.863.444a1.28 1.28 0 0 0-.694 1.305 1.01 1.01 0 0 0 .964.944 2.8 2.8 0 0 0 .93-.17c.438-.15.854-.348 1.326-.549.323.493.66.958.94 1.454.282.496.514 1.041.792 1.614z"/><path fill="#161616" d="M30.885 40.665a1.1 1.1 0 0 1-1.09-.648 1.04 1.04 0 0 1 .104-1.16c.221-.268.49-.491.795-.659 3.241-1.784 6.496-3.543 9.744-5.316l13.957-7.634c2.582-1.413 5.164-2.825 7.756-4.217.286-.138.601-.207.92-.201a.99.99 0 0 1 .978.736 1.08 1.08 0 0 1-.253 1.21q-.294.263-.639.452-3.523 1.943-7.054 3.866-7.212 3.938-14.422 7.88-4.373 2.385-8.756 4.758c-.41.222-.805.468-1.225.67a7 7 0 0 1-.815.263M34.106 43.685a1.29 1.29 0 0 1-1.024-.694.944.944 0 0 1 .06-1.142c.245-.279.539-.511.867-.687 3.147-1.773 6.309-3.522 9.46-5.285q5.528-3.092 11.048-6.201l6.104-3.408q.114-.068.233-.125c.739-.347 1.454-.215 1.773.347.32.562.073 1.336-.638 1.773-.396.247-.812.462-1.218.694l-7.784 4.345a6175 6175 0 0 0-11.358 6.364q-3.245 1.811-6.492 3.61c-.33.152-.687.263-1.031.409M60.253 18.897a1.1 1.1 0 0 1-.416.83q-.306.246-.65.437a3560 3560 0 0 1-9.25 4.92q-4.966 2.655-9.94 5.306a3.5 3.5 0 0 1-1.134.403 1.065 1.065 0 0 1-1.197-.673 1.26 1.26 0 0 1 .458-1.388 6.4 6.4 0 0 1 .746-.451l11.948-6.361 7.166-3.817q.378-.213.79-.347a1.222 1.222 0 0 1 1.479 1.141M32.384 28.51c-.61 0-1.138-.32-1.218-.677-.094-.427-.156-.892.236-1.225q.465-.39.989-.694 3.418-1.944 6.85-3.863l8.01-4.486q.334-.198.693-.348a1.16 1.16 0 0 1 1.145 2.006q-.496.36-1.04.646a4738 4738 0 0 1-8.992 5.038c-1.933 1.083-3.859 2.173-5.795 3.245a7.5 7.5 0 0 1-.878.357M57.786 8.015a1.41 1.41 0 0 1 1.367.906 1.09 1.09 0 0 1-.427 1.232q-.128.119-.277.211l-2.43 1.503q-.224.136-.468.236a1.187 1.187 0 0 1-1.527-.444 1.083 1.083 0 0 1 .233-1.489c1.017-.725 2.082-1.367 3.144-2.03q.181-.094.385-.125"/></svg>