<svg xmlns="http://www.w3.org/2000/svg" width="300" height="300" fill="none" viewBox="0 0 300 300"><path fill="#3558a2" d="M36 226.003c.71-4.35 1.32-8.2 2-12q2.63-15.67 5.27-31.34l5.08-30.291q2.89-17 5.82-34c.28-1.6.58-3.21.94-4.8a3.52 3.52 0 0 1 3.36-3.06c1.873-.23 3.767-.23 5.64 0a9085 9085 0 0 1 56.83 11.26l55.41 11.13q16.38 3.3 32.75 6.61c.88.18 1.79.25 2.68.38a3.253 3.253 0 0 1 3.17 3.43c.048.906.001 1.815-.14 2.711a50416 50416 0 0 1-8.49 53.78q-4.15 26.2-8.34 52.42c-.58 3.66-2.82 5.48-6.43 4.88a13212 13212 0 0 1-45.33-7.52q-26.41-4.44-52.83-8.93c-16.89-2.87-33.77-5.81-50.66-8.67a10.9 10.9 0 0 1-5.75-3.4c-.7-.73-.78-2-.98-2.59m88.93-27.69c2.6 1.37 4.85 2.53 7.09 3.73a6.19 6.19 0 0 1 3.08 4.29 3.56 3.56 0 0 1-.586 2.845 3.56 3.56 0 0 1-2.514 1.455 3.835 3.835 0 0 1-3.65-1.4 11.6 11.6 0 0 0-4.7-3.16l-5.19 31.26 72.32 12.33c5.54-34.42 11-68.66 16.57-103l-71.23-14.431c-1 4-4.36 22.78-3.87 24.75a15.6 15.6 0 0 1 3.13 2.171 23.2 23.2 0 0 1 3.59 5 3.379 3.379 0 0 1-1.27 4.33 3.316 3.316 0 0 1-4-.19 14 14 0 0 1-1.54-1.87c-.43-.49-.88-1-1.6-1.75l-2.32 14c.64.36 1 .6 1.42.79 3.13 1.48 4.93 4.2 6.44 7.14a3.59 3.59 0 0 1-1 4.65 3.71 3.71 0 0 1-4.9-.71c-.67-.73-1.15-1.63-1.76-2.42-.36-.45-.79-.85-1.54-1.64zm-81.25 26.31 67.52 11.46c1.7-10.26 3.34-20.15 5-30-4.27-1.59-5.44-2.68-5-4.8.66-3.49 3.62-2.92 6.33-3.21.69-4.15 1.38-8.28 2.09-12.52h-2.21c-2.33-.17-3.81-1.44-4-3.36s1.06-3.39 3.42-3.89c1.23-.26 2.5-.31 4-.48.75-4.59 1.49-9.171 2.27-14.001-1.39.31-2.34.58-3.32.74a3.616 3.616 0 0 1-4.32-2.399c-.57-1.72.29-3.491 2.29-4.361a22.6 22.6 0 0 1 3.63-1.059c1-.23 1.93-.37 3-.57 1.43-8.48 2.85-16.86 4.31-25.501l-67.09-13.77c-5.97 35.961-11.92 71.721-17.92 107.721M134.699 56.861c4.2-1.19 8-2.32 11.87-3.35a16.5 16.5 0 0 1 9.93.3 11.69 11.69 0 0 1 7.9 8.31 8.8 8.8 0 0 1 0 4 3.12 3.12 0 0 1-3.4 2.54 3.29 3.29 0 0 1-3.24-2.78c-.25-1.91-.82-3.52-2.49-4.59a7.9 7.9 0 0 0-6-.86 34.5 34.5 0 0 0-9.61 2.9c1.59 1.66 3 3.15 4.44 4.66q4.39 4.64 8.78 9.29a10 10 0 0 0 4.29 3.18c7.3 2.27 12.09 7 13.1 14.76 1.07 8.12-2 14.67-8.78 19.22a18.52 18.52 0 0 1-25.52-4.13 17.9 17.9 0 0 1-3.3-9.38 5.66 5.66 0 0 0-2.254-4.29 5.68 5.68 0 0 0-4.746-.98c-.63.12-1.24.32-1.86.45a4.1 4.1 0 0 0-3.24 2.89 20 20 0 0 1-4.7 7.584 20 20 0 0 1-7.53 4.786 18.705 18.705 0 0 1-23.48-8.685 18.7 18.7 0 0 1-2.14-8.795 20.1 20.1 0 0 1 12.71-19c5.11-2 9.78-4.73 14.76-6.91s9.76-4.4 14.64-6.6l3-1.38c-.89-1.43-1.64-2.75-2.5-4s-1.69-2.14-2.51-3.22c-1.92-2.54-4.21-3.16-7.13-1.85-.74.33-1.42.82-2.17 1.12a3.53 3.53 0 0 1-4.19-1 3.72 3.72 0 0 1-.1-4.33 4.3 4.3 0 0 1 .71-.83c4.49-4 13.75-3.92 17.37.68 2.19 2.77 4.16 5.71 6.22 8.58.38.55.79 1.14 1.17 1.71m-44.62 36c0 7 4.06 11.78 10.11 12.41 8.32.87 15.63-7 14.11-15.21-.42-2.31-1.09-4.56-3-6.23-3.94-3.46-8.35-4.27-13.12-2.2a12.89 12.89 0 0 0-8.1 11.15zm31.6-4.13c2.3-.18 4.48-.68 6.58-.44s4.25 1.23 6.6 2c2.43-4.32 6.23-7.41 11.3-9.67-4.71-5.24-9.62-9.59-14.18-14.33-6.69 3-13.32 5.39-19.84 9a22.8 22.8 0 0 1 9.54 13.36zm41.46 9.58c0-7.91-6.69-13-14.25-10.69a12.48 12.48 0 0 0-8.2 7.43c-2.42 5.78.19 12.44 5.63 14.65 7.63 3.02 16.8-3.19 16.82-11.47zM253.39 173.462v2.68q0 16.59.11 33.2v2.18c-.15 3.27-1.55 4.8-4.82 5.07s-6.7.44-10 .63c-1.35.08-2.72.15-4.08.12a4.002 4.002 0 0 1-4.28-4c-.08-.72 0-1.45 0-2.17q-.3-21.78-.61-43.54a2.5 2.5 0 0 0 0-.82c-1.3-3.69.33-6.9 1.63-10.18 1.53-3.87 3-7.78 4.55-11.63a21.2 21.2 0 0 1 2.49-4.51c2.42-3.29 6.12-3.22 8.24.28 1.73 2.85 3 6 4.53 9q.554 1.238 1.27 2.39c5.55 8 8.13 17.35 11.45 26.35.216.691.297 1.418.24 2.14a3.28 3.28 0 0 1-2.4 3.26 3.5 3.5 0 0 1-4-1.52 15 15 0 0 1-1.19-2.73c-.79-2.09-1.53-4.2-2.3-6.3zm-15.9 36.39 8.34-.41v-41.12l-9-1.34c.21 14.41.43 28.51.65 42.88zm11.68-48.45-7-12.85-4.15 11.18z"/><path fill="#fff" d="m124.93 198.31 2-11.83c.75.79 1.18 1.19 1.54 1.64.61.79 1.09 1.69 1.76 2.42a3.71 3.71 0 0 0 4.9.71 3.585 3.585 0 0 0 1-4.65c-1.51-2.94-3.31-5.66-6.44-7.14-.41-.19-.78-.43-1.42-.79l2.32-14c.72.79 1.17 1.26 1.6 1.75.459.667.974 1.293 1.54 1.87a3.306 3.306 0 0 0 4 .19 3.38 3.38 0 0 0 1.27-4.33 23.2 23.2 0 0 0-3.59-5 15.7 15.7 0 0 0-3.13-2.17c-.49-2 2.87-20.76 3.87-24.75l71.23 14.431c-5.53 34.389-11 68.629-16.57 102.999l-72.32-12.33 5.19-31.26a11.6 11.6 0 0 1 4.7 3.16 3.83 3.83 0 0 0 3.65 1.4 3.54 3.54 0 0 0 2.514-1.455 3.54 3.54 0 0 0 .586-2.845 6.19 6.19 0 0 0-3.08-4.29c-2.27-1.18-4.52-2.36-7.12-3.73m24.42-13.94v.22q-.814-.06-1.63 0a3.4 3.4 0 0 0-3 2.74 3.283 3.283 0 0 0 1.78 3.63c.632.32 1.305.549 2 .68 7.69 1.62 15.37 3.27 23.08 4.8 3.63.71 7.3 1.28 11 1.69a3.261 3.261 0 0 0 3.75-2.79 3.74 3.74 0 0 0-2.45-4.08 13.5 13.5 0 0 0-2.36-.61c-6.29-1.22-12.59-2.42-18.88-3.65zm9.83-12.89c-3-.1-4.51.87-4.86 2.83s.77 3.66 3.2 4.26c1.67.41 3.37.67 5.06 1 6 1.25 12.14 1.92 17.88 4.3a3.41 3.41 0 0 0 4.28-1.43 3.52 3.52 0 0 0-.61-4.48 11.2 11.2 0 0 0-4-2.07c-4-1-8.09-1.9-12.16-2.76-3.12-.63-6.24-1.17-8.79-1.65m10.3 48.62a21.4 21.4 0 0 0 3.48-.6 3.34 3.34 0 0 0 2.31-3.59 3.368 3.368 0 0 0-2.52-3.18 9.6 9.6 0 0 0-2.14-.26c-2.52-.26-5-.43-7.55-.81-3.31-.5-6.58-1.24-9.89-1.74a28.5 28.5 0 0 0-5.13-.3 3 3 0 0 0-2.87 2.48 3.004 3.004 0 0 0 1.24 3.59 7.8 7.8 0 0 0 2.72 1.05c4 .75 8 1.42 12 2.09 2.8.46 5.57.85 8.35 1.27m-2.41-56c2.06-.16 3.12-.54 3.93-1.64 1.64-2.2.29-4.94-2.68-5.69-5.07-1.29-10.11-2.68-15.17-4a12 12 0 0 0-2.11-.43 3.28 3.28 0 0 0-3.33 1.9 3.2 3.2 0 0 0 .69 4 7.9 7.9 0 0 0 2.73 1.65c2.65.89 5.34 1.68 8 2.4s5.26 1.2 7.94 1.82z"/><path fill="#eaecf1" d="M43.68 224.622c6-36 12-71.72 18-107.71l67.09 13.77c-1.46 8.64-2.88 17-4.31 25.5-1.08.2-2.06.34-3 .57a22.6 22.6 0 0 0-3.63 1.06c-2 .87-2.86 2.64-2.29 4.36a3.623 3.623 0 0 0 4.32 2.4c1-.16 1.93-.43 3.32-.74-.78 4.81-1.52 9.39-2.27 14-1.53.17-2.8.22-4 .48-2.36.5-3.56 1.94-3.42 3.89s1.62 3.19 4 3.36h2.21c-.71 4.24-1.4 8.37-2.09 12.52-2.71.29-5.67-.28-6.33 3.21-.4 2.12.77 3.21 5 4.8-1.64 9.85-3.28 19.74-5 30zm19.58-39.41c-2.49-.14-4.24 1.07-4.56 3.07-.28 1.82 1 3.56 3.12 4.18q1.578.426 3.2.64c9 1.48 18 2.9 27.06 4.44 2.13.36 4.2 1.06 6.28 1.63s3.9 0 4.71-1.62.25-3.66-1.66-4.9a10.5 10.5 0 0 0-2.44-1.15 22.5 22.5 0 0 0-3.42-.87c-6.79-1.11-13.59-2.15-20.37-3.27-4.02-.66-8.02-1.44-11.92-2.15m10.91-37v.46a42 42 0 0 0-5.15 0 3.57 3.57 0 0 0-3.22 3.74 3.61 3.61 0 0 0 3.49 3.2c.63.07 1.27 0 1.9.07 5.4.48 10.81.9 16.21 1.47 3.77.39 7.52 1.08 11.29 1.49 1.992.226 4 .269 6 .13a3.287 3.287 0 0 0 3.09-3.24 3.416 3.416 0 0 0-2.58-3.67 25 25 0 0 0-3.76-.5c-1.79-.17-3.61-.22-5.4-.44-7.35-.84-14.65-1.78-21.87-2.7zm3.82 17.08v.3a23 23 0 0 0-3.53 0 3.5 3.5 0 0 0-2.963 3.504 3.5 3.5 0 0 0 3.053 3.426c.45.08.91.08 1.36.12 5 .49 10.1.94 15.15 1.47 3.24.33 6.46.86 9.71 1.13 2.46.19 4.07-1.14 4.27-3.19s-1-3.46-3.29-3.94c-1.68-.36-3.4-.53-5.11-.73-6.25-.68-12.44-1.37-18.65-2.08z"/><path fill="#fff" d="M90.08 92.783a12.89 12.89 0 0 1 8.09-11.23c4.77-2.07 9.18-1.26 13.12 2.2 1.92 1.67 2.59 3.92 3 6.23 1.52 8.25-5.79 16.08-14.11 15.21-6.04-.63-10.13-5.33-10.1-12.41M163.14 98.231c0 8.28-9.19 14.49-16.82 11.39-5.44-2.21-8-8.87-5.63-14.65a12.49 12.49 0 0 1 8.2-7.43c7.56-2.29 14.27 2.78 14.25 10.69M237.48 209.862c-.22-14.36-.44-28.46-.66-42.87l9 1.34v41.12z"/><path fill="#979fbb" d="m249.16 161.401-11.15-1.67 4.15-11.18z"/><path fill="#3558a2" d="m149.39 184.371 13.29 2.64c6.29 1.23 12.59 2.43 18.88 3.65.804.131 1.594.336 2.36.61a3.74 3.74 0 0 1 2.45 4.08 3.271 3.271 0 0 1-3.75 2.79c-3.68-.41-7.35-1-11-1.69-7.71-1.53-15.39-3.18-23.08-4.8a7.5 7.5 0 0 1-2-.68 3.28 3.28 0 0 1-1.78-3.63 3.4 3.4 0 0 1 3-2.74q.816-.06 1.63 0zM159.179 171.482c2.55.48 5.67 1 8.76 1.67 4.07.86 8.14 1.71 12.16 2.76a11.2 11.2 0 0 1 4 2.07 3.5 3.5 0 0 1 1.119 2.129 3.5 3.5 0 0 1-.509 2.351 3.407 3.407 0 0 1-4.28 1.43c-5.74-2.38-11.88-3-17.88-4.3-1.69-.35-3.39-.61-5.06-1-2.43-.6-3.57-2.18-3.2-4.26s1.84-2.95 4.89-2.85M169.48 220.102c-2.78-.42-5.55-.81-8.32-1.27-4-.67-8-1.34-12-2.09a7.8 7.8 0 0 1-2.72-1.05 3.004 3.004 0 0 1-1.24-3.59 3 3 0 0 1 2.87-2.48 28.5 28.5 0 0 1 5.13.3c3.31.5 6.58 1.24 9.89 1.74 2.5.38 5 .55 7.55.81a9.5 9.5 0 0 1 2.14.26 3.37 3.37 0 0 1 2.52 3.18 3.336 3.336 0 0 1-2.31 3.59 21.5 21.5 0 0 1-3.51.6M167.071 164.112c-2.64-.62-5.28-1.17-7.9-1.86s-5.39-1.51-8-2.4a7.9 7.9 0 0 1-2.73-1.65 3.2 3.2 0 0 1-.69-4 3.279 3.279 0 0 1 3.33-1.9q1.075.118 2.11.43c5.06 1.34 10.1 2.73 15.17 4 3 .75 4.32 3.49 2.68 5.69-.85 1.15-1.91 1.53-3.97 1.69M63.261 185.212c3.9.71 7.9 1.49 11.92 2.15 6.78 1.12 13.58 2.16 20.37 3.27 1.161.2 2.304.491 3.42.87.86.277 1.68.663 2.44 1.15 1.91 1.24 2.52 3.17 1.66 4.9s-2.6 2.21-4.71 1.62-4.15-1.27-6.28-1.63c-9-1.54-18-3-27.06-4.44a24.5 24.5 0 0 1-3.2-.64c-2.15-.62-3.4-2.36-3.12-4.18.32-2 2.07-3.21 4.56-3.07M74.17 148.223c7.26.92 14.52 1.86 21.78 2.75 1.79.22 3.61.27 5.4.44a25 25 0 0 1 3.76.5 3.41 3.41 0 0 1 2.58 3.67 3.29 3.29 0 0 1-3.09 3.24c-2 .139-4.008.095-6-.13-3.77-.41-7.52-1.1-11.29-1.49-5.4-.57-10.81-1-16.21-1.47-.63 0-1.27 0-1.9-.07a3.61 3.61 0 0 1-3.49-3.2 3.57 3.57 0 0 1 3.22-3.74 42 42 0 0 1 5.15 0zM77.99 165.301c6.21.71 12.42 1.4 18.62 2.12 1.71.2 3.43.37 5.11.73 2.3.48 3.49 2 3.29 3.94s-1.81 3.38-4.27 3.19c-3.25-.27-6.47-.8-9.71-1.13-5.05-.53-10.1-1-15.15-1.47-.45 0-.91 0-1.36-.12a3.5 3.5 0 0 1-.09-6.93c1.175-.09 2.355-.09 3.53 0z"/></svg>