<svg xmlns="http://www.w3.org/2000/svg" width="92" height="82" fill="none" viewBox="0 0 92 82"><path fill="#3558a2" d="M80.926 31.99c.958-.103 1.882-.206 2.805-.309.856-.102 1.711-.24 2.6-.273 1.164-.069 1.677.41 1.78 1.54.205 2.497.376 5.029.581 7.526.206 2.6.445 5.201.685 7.801l.616 7.699c.205 2.668.444 5.303.684 7.972.137 1.779.308 3.592.445 5.371.034.582.102 1.163.17 1.745.138 1.095-.205 1.608-1.3 1.745-1.54.205-3.079.342-4.618.513-3.285.342-6.604.719-9.922 1.06-2.635.275-5.235.548-7.87.822-3.25.342-6.466.719-9.717 1.06l-7.698.822c-3.285.342-6.535.684-9.82 1.06l-7.698.822c-3.318.342-6.603.718-9.922 1.06l-7.698.821c-2.121.24-4.243.445-6.398.685-.377.034-.753.068-1.13.068-.957 0-1.71-.616-1.881-1.574-.137-.992-.24-1.984-.376-2.942-.377-3.387-.719-6.775-1.095-10.162-.274-2.634-.513-5.235-.821-7.87-.342-3.181-.719-6.363-1.061-9.51-.274-2.601-.547-5.201-.821-7.767-.274-2.635-.582-5.235-.856-7.87a87 87 0 0 1-.273-2.976c-.034-.924.137-1.3.992-1.54 1.163-.308 2.36-.513 3.558-.684 2.087-.308 4.174-.548 6.262-.821.205-.035.41-.103.718-.172-.274-.992-.513-1.984-.787-2.942-.103-.342-.205-.65-.24-.992-.102-.719.309-1.334.959-1.471.65-.171 1.3.205 1.505.923.24.822.41 1.677.65 2.532.137.548.342 1.06.548 1.677a166 166 0 0 0 3.524-.445c-.069-.992-.137-1.984-.206-2.942-.17-2.053-.342-4.072-.513-6.125-.24-2.737-.445-5.44-.684-8.177-.103-1.06-.206-2.087-.24-3.148-.068-1.163.274-1.608 1.403-1.779 1.54-.205 3.08-.376 4.619-.547 2.395-.342 4.585-.582 6.775-.787l6.124-.616c2.669-.274 5.372-.548 8.04-.855 2.053-.206 4.14-.411 6.193-.65 2.155-.24 4.311-.445 6.466-.685.172-.034.377-.034.548-.068 1.78-.103 2.36.308 2.669 2.053.308 1.676.479 3.387.718 5.063.171 1.13.308 2.258.48 3.422.204.068.375.17.547.205 4.413.958 7.63 3.593 10.093 7.253 1.676 2.532 2.703 5.372 3.216 8.349.274 1.471.308 2.976.445 4.448.034.41.102.787.137 1.266 1.163-.137 2.258-.274 3.387-.411 0-.24.034-.41 0-.582-.376-1.847-.787-3.695-1.163-5.542a2.8 2.8 0 0 1-.069-.924c.069-.48.513-.89.992-.958.582-.103 1.13.17 1.335.787.24.753.41 1.54.581 2.326.274 1.3.514 2.6.787 3.9.069.24.171.446.24.72M35.113 76.125c-1.574-16.15-3.114-32.196-4.688-48.31-9.169 1.197-18.236 2.394-27.371 3.592C4.764 47.318 6.44 63.124 8.152 79c8.998-.992 17.894-1.916 26.96-2.874m12.18-1.3c-.137-2.19-.274-4.243-.41-6.296-.24-3.25-.445-6.5-.685-9.75-.137-2.19-.273-4.415-.445-6.604-.24-3.285-.444-6.57-.684-9.854-.17-2.327-.376-4.653-.479-6.98-.103-2.908-.616-5.782-.308-8.724.342-3.388 1.266-6.57 3.216-9.41 2.122-3.113 4.961-5.166 8.69-5.918a20 20 0 0 1 1.609-.24c-.377-2.669-.719-5.235-1.095-7.938-12.557 1.3-25.08 2.6-37.636 3.9.582 6.604 1.095 13.002 1.608 19.469.171.034.308.068.41.034 3.012-.41 6.023-.821 9.034-1.198.376-.034.82-.034 1.197.069 1.129.274 1.54 1.095 1.608 2.224.103 1.642.274 3.284.445 4.927.205 2.292.445 4.584.684 6.843l.616 6.569c.274 2.874.582 5.748.855 8.622.274 2.84.548 5.68.787 8.52.308 3.044.582 6.124.89 9.169.102 1.163.24 2.326.376 3.592 3.285-.342 6.467-.684 9.717-1.026m7.733-.822c-.069-.718-.103-1.3-.137-1.881-.206-2.772-.445-5.577-.65-8.349-.103-1.266.342-1.779 1.608-1.95 2.668-.376 5.337-.787 8.006-1.129 2.018-.274 2.429.137 2.634 2.19.24 2.463.548 4.927.822 7.39.068.753.205 1.506.307 2.395 2.84-.308 5.612-.582 8.486-.89-.582-5.816-1.095-11.53-1.677-17.312a5337 5337 0 0 0-25.763 3.114c.376 5.68.787 11.29 1.163 17.004 1.745-.24 3.421-.41 5.2-.582m-6.57-18.954a5307 5307 0 0 0 25.695-3.114c-.376-3.763-.718-7.39-1.094-11.12-8.52.993-16.937 1.95-25.388 2.909.274 3.832.514 7.527.787 11.325M71.79 27.405c-8.416.684-16.696 1.368-25.079 2.052.274 4.004.548 7.87.822 11.804 8.519-.992 16.902-1.95 25.318-2.908-.376-3.73-.718-7.288-1.06-10.948m5.201 27.542c.513-.034.924-.034 1.369-.103 1.71-.205 3.455-.41 5.166-.615 1.06-.103 1.677.342 1.813 1.402.137 1.061.274 2.087.343 3.148.102 1.095-.343 1.642-1.403 1.848-.992.205-2.019.376-3.011.547-1.163.205-2.36.445-3.627.684.308 3.25.616 6.399.958 9.649.65-.103 1.163-.171 1.71-.24v-.992c0-1.71-.033-3.421-.033-5.132 0-.89.376-1.574 1.231-1.78 1.027-.239 2.087-.41 3.114-.444 1.06-.034 1.676.582 1.813 1.642.171 1.3.274 2.6.41 3.9.07.685.138 1.335.206 2.122.582-.068 1.095-.103 1.642-.171-.992-12.18-2.018-24.292-3.01-36.438-3.559.41-7.014.82-10.607 1.232.205 2.12.41 4.242.616 6.432.376-.035.65-.035.958-.069 1.642-.205 3.25-.445 4.893-.65 1.368-.17 1.881.206 2.155 1.54.24 1.026.41 2.053.616 3.113.24 1.3-.205 1.916-1.54 2.156-.923.171-1.847.274-2.771.41-1.197.206-2.43.411-3.661.582.24 2.156.445 4.14.65 6.227m-5.816-30.006c-.171-.547-.274-.958-.445-1.334-.48-1.027-.89-2.053-1.471-3.011-1.437-2.43-3.32-4.414-5.851-5.714-3.421-1.745-6.877-1.813-10.196.274-4.242 2.703-5.919 6.877-6.466 11.804 8.211-.684 16.286-1.335 24.429-2.019M61.732 63.57c.239 3.25.479 6.432.684 9.683.958-.103 1.779-.206 2.634-.308-.376-3.285-.718-6.432-1.094-9.683-.822.069-1.506.171-2.225.308m-2.532.342c-.89.137-1.643.24-2.43.342.24 3.217.48 6.296.719 9.512.821-.103 1.54-.205 2.36-.308-.205-3.182-.41-6.295-.65-9.546m16.936-17.689c1.916-.308 3.695-.581 5.543-.855a56 56 0 0 1-.343-1.847c-1.813.239-3.558.478-5.371.718.068.65.102 1.266.17 1.984m1.266 13.139c1.95-.377 3.797-.684 5.713-1.06a22 22 0 0 0-.239-1.472c-1.916.24-3.73.445-5.611.65.034.684.103 1.232.137 1.882m5.474 6.33v5.337c.616-.069 1.095-.103 1.676-.171-.17-1.848-.307-3.593-.479-5.406-.513.103-.89.171-1.197.24"/><path fill="#fff" d="M35.111 76.127C26.045 77.085 17.15 78.043 8.116 79 6.406 63.125 4.73 47.318 3.018 31.408c9.136-1.197 18.202-2.395 27.372-3.592 1.574 16.115 3.148 32.161 4.721 48.31m-6.671-19.64v-.307c-.24-2.361-.48-4.756-.753-7.117-.103-.958-.684-1.505-1.403-1.403-.753.069-1.197.787-1.095 1.78.24 2.223.445 4.447.684 6.671.035.41.103.821.206 1.198.17.581.718.958 1.232.924.581-.035 1.06-.514 1.129-1.164.034-.24 0-.376 0-.582M15.199 72.604c-.206-2.259-.445-4.448-.65-6.638-.035-.445-.069-.856-.171-1.3-.172-.685-.753-1.095-1.37-1.027-.58.069-.991.582-1.025 1.232 0 .171 0 .376.034.547.136 1.677.273 3.32.444 4.996.103.924.172 1.847.377 2.771.103.616.65.958 1.232.924.581-.034 1.026-.445 1.129-1.06.034-.138 0-.343 0-.445m-1.095-14.576c-.137-1.574-.274-3.284-.41-4.96-.07-.754-.138-1.54-.309-2.293-.137-.582-.616-.89-1.163-.89s-1.027.41-1.163 1.027c-.069.24-.069.479-.034.752.17 2.019.342 4.003.547 6.022.034.479.103.992.205 1.471.137.684.719 1.095 1.369.992.581-.068 1.026-.547 1.06-1.231a17 17 0 0 1-.102-.89m12.522 5.988c.137 2.087.24 4.208.377 6.295 0 .205.034.445.102.65.171.548.684.89 1.198.89.581-.034.992-.377 1.129-1.027.068-.273.102-.547.068-.82-.102-2.19-.205-4.38-.342-6.604 0-.24-.034-.513-.103-.719-.205-.718-.718-1.129-1.334-1.06s-1.06.547-1.129 1.3c0 .342.034.718.034 1.095m-4.174 7.116c-.205-2.771-.376-5.166-.547-7.595a2.1 2.1 0 0 0-.24-.787c-.24-.41-.581-.616-1.06-.616-.48.034-.856.24-1.027.684-.137.308-.171.65-.171.992.103 1.609.24 3.217.342 4.825.069.752.103 1.47.171 2.224.069.82.48 1.334 1.095 1.437.821.17 1.437-.514 1.437-1.164m-3.866-20.083c.034.547.103 1.094.137 1.676s.068 1.163.137 1.745c.102 1.026.17 2.053.308 3.045.102.65.684 1.06 1.265 1.026.616-.034 1.095-.547 1.164-1.231v-.48l-.514-6.671c0-.171-.034-.377-.068-.547-.205-.72-.718-1.13-1.334-1.061s-1.061.547-1.095 1.266c-.069.41-.034.82 0 1.231m1.642-7.699c-.24-1.847-.445-3.73-.684-5.61-.069-.514-.103-1.062-.24-1.54-.205-.65-.752-.993-1.334-.89a1.224 1.224 0 0 0-1.026 1.232c0 .308 0 .615.034.923.17 1.574.376 3.148.547 4.688.103.684.171 1.368.342 2.018s.753.958 1.369.856c.547-.103.924-.548.992-1.164.034-.17 0-.342 0-.513m-10.23-5.474c.137 1.334.308 2.634.445 3.969.103.992.205 1.984.342 2.942.137.856.753 1.369 1.437 1.266s1.129-.787 1.06-1.608c0-.103-.034-.171-.034-.274-.17-1.368-.307-2.771-.479-4.14-.102-.923-.205-1.847-.376-2.77-.137-.685-.719-1.096-1.369-.993-.581.068-.992.581-1.026 1.232zm17.005 4.585c-.206-1.985-.377-3.97-.582-5.954a2.8 2.8 0 0 0-.274-.958c-.205-.41-.616-.616-1.095-.547-.444.034-.855.274-.992.718a2.1 2.1 0 0 0-.102.924c.17 1.985.342 3.935.513 5.92.034.376.068.752.205 1.094.205.582.753.856 1.334.787.548-.068.924-.479.993-1.06.034-.309 0-.616 0-.924"/><path fill="#eaecf1" d="M47.292 74.827c-3.25.342-6.398.684-9.648 1.026-.137-1.266-.274-2.43-.377-3.593a828 828 0 0 1-.89-9.169c-.273-2.84-.512-5.68-.786-8.52-.274-2.873-.582-5.747-.855-8.621l-.616-6.57a420 420 0 0 0-.685-6.842c-.17-1.643-.342-3.285-.444-4.927-.069-1.095-.48-1.916-1.608-2.224-.377-.103-.787-.103-1.198-.069-3.01.377-6.022.787-9.033 1.198-.102 0-.24-.034-.41-.034a5498 5498 0 0 0-1.574-19.434c12.557-1.3 25.08-2.6 37.636-3.9.376 2.702.718 5.268 1.095 7.937-.616.103-1.13.137-1.608.24-3.73.752-6.57 2.805-8.69 5.919-1.917 2.84-2.875 5.987-3.217 9.409-.308 2.942.205 5.816.308 8.724.102 2.327.308 4.654.479 6.98.24 3.285.479 6.57.684 9.854.137 2.19.274 4.413.445 6.603.24 3.25.445 6.5.684 9.751.034 2.019.137 4.072.308 6.261M32.991 12.042c-.103-.752-.103-1.334-.274-1.847-.274-.924-1.232-1.198-2.019-.65-.24.17-.445.444-.65.65-.616.684-1.197 1.402-1.847 2.087-.274.273-.616.444-.958.718-.445-.924-.171-1.676 0-2.463.17-.821-.171-1.437-.822-1.643-.615-.17-1.3.137-1.54.856-.512 1.437-.58 2.908.07 4.345.478 1.027 1.368 1.505 2.497 1.403.89-.103 1.574-.548 2.224-1.095.273-.24.513-.479.787-.719.958 1.335 1.71 1.677 2.908 1.164.479-.206.89-.582 1.266-.89.274-.24.513-.547.753-.821 1.368 1.471 2.566 1.71 4.14.89q.666-.36 1.231-.822a53 53 0 0 0 2.6-2.258c.822-.752.959-1.505.377-2.087-.548-.547-1.232-.479-2.053.24-.855.752-1.71 1.505-2.6 2.258-.377.308-.753.616-1.437.616-.103-.48-.206-.958-.24-1.437-.102-.856-.445-1.403-1.095-1.574-.752-.171-1.266.205-1.676.753-.24.307-.445.65-.684.992-.274.376-.548.787-.958 1.334m-5.988 6.638v-.034c.65 0 1.3.034 1.95 0a389 389 0 0 0 9.067-.719c.582-.034 1.163-.205 1.71-.41.548-.24.788-.856.65-1.403-.136-.548-.683-.924-1.265-.89l-4.824.41c-1.848.172-3.695.343-5.543.48-1.198.068-2.43.068-3.627.102-.923.035-1.471.582-1.368 1.369.102.616.547 1.06 1.3 1.095.65.034 1.3 0 1.95 0"/><path fill="#fff" d="M55.028 74.005c-1.78.171-3.456.342-5.235.548-.377-5.714-.787-11.325-1.164-17.005a8753 8753 0 0 0 25.764-3.113c.616 5.782 1.129 11.496 1.676 17.312-2.874.308-5.645.582-8.485.89-.103-.856-.205-1.609-.308-2.395l-.82-7.39c-.206-2.054-.617-2.464-2.635-2.19-2.67.342-5.338.752-8.007 1.129-1.231.17-1.676.684-1.608 1.95.206 2.771.445 5.577.65 8.348.069.616.103 1.198.172 1.916M48.457 55.05c-.273-3.797-.513-7.492-.787-11.29 8.486-.958 16.868-1.95 25.388-2.908.376 3.695.718 7.321 1.094 11.12-8.553 1.026-17.073 2.052-25.695 3.078m20.837-6.74c-.137-.787-.274-1.676-.513-2.532a1.22 1.22 0 0 0-1.335-.923c-.581.102-1.095.616-1.026 1.266.102.923.24 1.847.445 2.737.17.718.787 1.06 1.402.924.65-.137 1.027-.685 1.027-1.472m-7.664.821c-.171-.718-.274-1.54-.548-2.326-.205-.616-.752-.89-1.3-.787-.616.103-1.06.547-.992 1.266.069.924.24 1.847.445 2.737.137.582.65.855 1.197.787.548-.069.924-.342 1.061-.89.034-.24.068-.444.137-.787m-9.238-2.12c-.65 0-1.163.478-1.163 1.197.034.855.102 1.745.273 2.566.137.752.787 1.163 1.403 1.026.65-.137 1.06-.718.992-1.471a26 26 0 0 0-.307-2.292c-.103-.65-.582-1.027-1.198-1.027M71.79 27.404c.343 3.661.719 7.254 1.061 10.949-8.416.958-16.8 1.916-25.318 2.908-.274-3.9-.548-7.8-.822-11.804 8.349-.684 16.663-1.368 25.08-2.053m-20.186 6.912c.137.89.24 1.71.376 2.531.172.822.787 1.266 1.437 1.164.753-.103 1.13-.719 1.027-1.608-.103-.753-.171-1.54-.274-2.293a2.8 2.8 0 0 0-.205-.718c-.205-.41-.548-.684-1.027-.65-.513 0-.89.24-1.094.718-.137.274-.172.616-.24.856m9.888 1.06h.034c-.137-.752-.24-1.54-.41-2.292-.206-.787-.753-1.163-1.403-1.06-.616.102-1.095.718-1.027 1.47.069.822.24 1.643.411 2.464.137.65.718 1.026 1.3.992.582-.068 1.027-.547 1.095-1.197.034-.137 0-.274 0-.377m6.877-.718c-.103-.582-.205-1.437-.41-2.293-.137-.513-.548-.82-1.095-.82-.48 0-.856.17-1.061.615-.103.274-.205.616-.171.89.068.752.171 1.47.308 2.19.171.786.753 1.197 1.368 1.094.65-.068 1.061-.65 1.061-1.676"/><path fill="#979fbb" d="M76.99 54.948c-.206-2.088-.411-4.072-.617-6.193 1.232-.206 2.464-.41 3.661-.582l2.772-.41c1.3-.24 1.779-.89 1.54-2.156-.206-1.026-.377-2.087-.617-3.114-.308-1.368-.787-1.71-2.155-1.54-1.642.206-3.25.446-4.893.65-.308.035-.616.035-.958.07-.205-2.19-.41-4.312-.616-6.433 3.559-.41 7.049-.821 10.607-1.232.992 12.146 2.019 24.258 3.01 36.439-.547.068-1.06.102-1.642.17a229 229 0 0 0-.205-2.12c-.137-1.3-.24-2.6-.41-3.901-.137-1.06-.753-1.677-1.814-1.642-1.06.034-2.087.205-3.113.444-.856.206-1.232.89-1.232 1.78.034 1.71.034 3.421.034 5.132v.992c-.547.068-1.06.171-1.71.24a921 921 0 0 0-.959-9.649c1.266-.24 2.43-.445 3.627-.684.992-.171 2.019-.342 3.011-.548 1.06-.205 1.471-.787 1.403-1.847a98 98 0 0 0-.342-3.148c-.137-1.06-.753-1.54-1.814-1.403-1.71.206-3.455.41-5.166.616-.479.034-.89.034-1.403.069"/><path fill="#fff" d="M71.173 24.94c-8.178.685-16.252 1.335-24.43 2.02.548-4.927 2.225-9.102 6.467-11.804 3.285-2.088 6.74-1.985 10.196-.274 2.532 1.266 4.414 3.284 5.85 5.714.582.958.993 1.984 1.472 3.01.171.377.274.787.445 1.335m-7.39-3.865c-.89.102-1.643.136-2.43.24-1.3.17-2.566.341-3.866.546-.65.103-1.026.548-1.095 1.095-.068.514.205 1.027.684 1.198.274.102.616.137.924.102 1.06-.102 2.087-.273 3.148-.376 1.095-.137 2.224-.24 3.319-.376.752-.103 1.197-.65 1.129-1.335-.069-.65-.514-1.06-1.266-1.094zm-2.224-.274c.786-.034 1.54-.137 2.155-.684.479-.411.582-.993.308-1.506s-.821-.753-1.403-.616c-.102.034-.24.069-.342.137-.479.24-.821.205-1.163-.274-.445-.615-1.095-.684-1.608-.376-.514.342-.685.992-.445 1.642.342 1.061 1.3 1.677 2.498 1.677"/><path fill="#979fbb" d="M61.731 63.57a59 59 0 0 0 2.224-.343c.376 3.25.718 6.399 1.095 9.683-.856.103-1.677.206-2.635.308-.24-3.25-.444-6.398-.684-9.648M59.2 63.912c.239 3.25.444 6.364.683 9.546-.82.103-1.54.205-2.36.308-.24-3.182-.48-6.296-.719-9.512.753-.102 1.506-.24 2.395-.342"/><path fill="#fff" d="M76.137 46.222c-.068-.719-.103-1.335-.17-2.02 1.812-.239 3.557-.478 5.37-.718.103.616.24 1.164.343 1.848-1.848.308-3.627.582-5.543.89M77.401 59.36a32 32 0 0 1-.137-1.881c1.882-.206 3.73-.445 5.611-.65.069.513.137.958.24 1.47-1.916.377-3.764.72-5.714 1.062M82.874 65.69c.308-.068.684-.137 1.163-.24.171 1.814.308 3.559.48 5.407-.582.068-1.061.102-1.677.17.034-1.778.034-3.523.034-5.337"/><path fill="#3558a2" d="M28.44 56.486V57c-.07.65-.548 1.129-1.13 1.163a1.21 1.21 0 0 1-1.232-.924 6.7 6.7 0 0 1-.205-1.197c-.24-2.224-.445-4.448-.684-6.672-.103-.992.308-1.677 1.095-1.78.718-.068 1.3.48 1.402 1.403.274 2.361.514 4.756.753 7.117zM15.202 72.6c0 .104 0 .309-.034.48-.103.616-.547 1.026-1.129 1.06s-1.095-.307-1.232-.923c-.17-.924-.274-1.848-.376-2.772a246 246 0 0 1-.445-4.995c0-.17-.034-.376-.034-.547.034-.685.445-1.164 1.026-1.232.616-.068 1.198.342 1.369 1.026.103.411.103.856.171 1.3.274 2.156.479 4.346.684 6.604M14.107 58.027c.034.376.034.616.034.89-.034.684-.48 1.163-1.061 1.231-.65.069-1.197-.308-1.369-.992-.102-.48-.136-.992-.205-1.471-.17-2.019-.376-4.003-.547-6.022-.034-.24 0-.513.034-.753.137-.616.616-.992 1.163-1.026.513 0 1.027.308 1.163.89.172.752.24 1.539.308 2.292.206 1.71.343 3.387.48 4.96M26.629 64.014c0-.376-.035-.752 0-1.129.034-.718.479-1.231 1.129-1.3.615-.068 1.129.342 1.334 1.06.068.24.068.48.103.72.102 2.189.24 4.379.342 6.602 0 .274-.034.548-.069.822-.137.65-.547.992-1.129 1.026-.513 0-.992-.342-1.197-.89a2 2 0 0 1-.103-.65c-.171-2.052-.274-4.174-.41-6.26M22.454 71.13c0 .65-.616 1.334-1.437 1.163-.616-.102-1.026-.616-1.095-1.437-.068-.752-.137-1.47-.17-2.224-.103-1.608-.24-3.216-.343-4.824a1.97 1.97 0 0 1 .171-.992c.171-.445.548-.65 1.027-.684s.855.205 1.06.616c.137.239.205.513.24.786.17 2.43.342 4.825.547 7.596M18.587 51.047c-.035-.41-.069-.821-.035-1.197.035-.719.48-1.232 1.095-1.266.616-.069 1.13.342 1.335 1.06.034.171.068.377.068.548l.513 6.671c0 .172.035.308 0 .48-.068.718-.547 1.197-1.163 1.231-.582.034-1.129-.376-1.266-1.026-.17-.992-.24-2.019-.308-3.045-.068-.582-.068-1.164-.137-1.745a245 245 0 0 0-.102-1.711M20.23 43.348v.48c-.07.65-.446 1.094-.993 1.162-.616.103-1.197-.205-1.369-.855-.17-.65-.24-1.334-.342-2.019-.205-1.574-.376-3.147-.547-4.687-.034-.308-.069-.616-.034-.924.034-.684.444-1.163 1.026-1.232s1.163.24 1.334.89a8 8 0 0 1 .24 1.54c.24 1.916.479 3.797.684 5.645M10.002 37.874v-.376c.034-.684.479-1.163 1.026-1.232.616-.102 1.232.308 1.369.992.171.924.274 1.848.376 2.772.171 1.368.308 2.771.48 4.14 0 .102.034.17.034.273.068.822-.377 1.506-1.061 1.608s-1.3-.41-1.437-1.266c-.137-.992-.24-1.95-.342-2.942a156 156 0 0 0-.445-3.969M27.004 42.46c0 .273.034.581 0 .89-.069.58-.48.991-.993 1.06a1.17 1.17 0 0 1-1.334-.787c-.137-.342-.171-.719-.205-1.095-.171-1.984-.377-3.935-.513-5.92-.035-.307.034-.615.102-.923.137-.445.548-.684.992-.718.48-.035.89.136 1.095.547.171.274.24.65.274.958.205 2.019.376 4.003.582 5.988M32.99 12.043c.376-.547.684-.958.958-1.334.24-.342.445-.685.684-.993.41-.547.924-.923 1.677-.752.616.137.992.718 1.095 1.573.068.48.17.958.24 1.438.684 0 1.06-.308 1.436-.616.89-.753 1.745-1.506 2.6-2.258.822-.719 1.506-.787 2.053-.24.548.582.445 1.334-.376 2.087a53 53 0 0 1-2.6 2.258c-.377.308-.787.616-1.232.821-1.608.856-2.771.582-4.14-.89-.24.274-.479.582-.753.822-.41.342-.82.684-1.266.89-1.197.513-1.984.205-2.908-1.164-.274.24-.513.48-.787.719-.65.547-1.334 1.026-2.224 1.095-1.129.102-2.018-.343-2.497-1.403-.65-1.437-.548-2.908-.069-4.345.24-.753.924-1.061 1.54-.856.684.206.992.821.821 1.643-.171.787-.445 1.54 0 2.463.342-.24.684-.445.958-.718.65-.685 1.232-1.403 1.848-2.088.205-.24.41-.479.65-.65.787-.547 1.745-.273 2.018.65.206.548.206 1.095.274 1.848M27.002 18.68c-.65 0-1.3.035-1.95 0-.753-.034-1.197-.479-1.3-1.094-.103-.787.445-1.369 1.369-1.369 1.197-.034 2.429-.034 3.626-.103 1.848-.137 3.696-.308 5.543-.479l4.824-.41c.582-.034 1.13.342 1.266.89.137.547-.068 1.163-.65 1.402-.547.206-1.129.377-1.71.41-3.011.274-6.057.48-9.067.72-.65.034-1.3 0-1.95 0zM69.294 48.31c0 .787-.376 1.335-.992 1.471s-1.232-.205-1.403-.923c-.205-.89-.376-1.814-.445-2.737-.068-.65.445-1.164 1.027-1.267.581-.068 1.163.24 1.334.924.205.822.342 1.745.479 2.532M61.63 49.13c-.068.308-.102.547-.17.752-.138.548-.48.856-1.062.89-.547.069-1.06-.24-1.197-.787-.205-.89-.376-1.813-.445-2.737-.034-.684.41-1.163.992-1.266.548-.103 1.095.171 1.3.787.308.821.445 1.642.582 2.36M52.392 47.01c.616 0 1.095.377 1.232 1.06.137.754.24 1.54.308 2.293s-.377 1.335-.992 1.471c-.616.137-1.266-.273-1.403-1.026-.171-.855-.24-1.71-.274-2.566-.068-.753.48-1.232 1.13-1.232M51.606 34.315c.068-.274.103-.582.205-.855.206-.48.582-.719 1.095-.719.48 0 .821.24 1.026.65.103.206.172.48.206.719.102.752.205 1.54.273 2.292.103.89-.273 1.506-1.026 1.608-.65.103-1.266-.376-1.437-1.163a88 88 0 0 0-.342-2.532M61.49 35.376v.377c-.07.65-.514 1.129-1.096 1.197-.581.069-1.163-.342-1.3-.992a31 31 0 0 1-.41-2.463c-.069-.753.376-1.335 1.026-1.472.65-.102 1.198.274 1.403 1.061.171.753.274 1.505.41 2.292zM68.369 34.659c0 1.06-.411 1.608-1.061 1.71-.616.103-1.198-.342-1.369-1.094a12 12 0 0 1-.307-2.19c-.035-.308.068-.616.17-.89.172-.445.582-.65 1.061-.616.548 0 .992.308 1.095.822.205.786.308 1.676.41 2.258M63.782 21.075h.547c.753.034 1.232.445 1.266 1.095.069.684-.41 1.231-1.129 1.334-1.094.137-2.224.24-3.318.376-1.061.137-2.088.274-3.148.377q-.462.051-.924-.103c-.479-.171-.753-.684-.684-1.198.068-.581.444-.992 1.095-1.094 1.3-.206 2.566-.377 3.866-.548.787-.068 1.54-.137 2.43-.24M61.56 20.801c-1.231 0-2.155-.616-2.531-1.642-.24-.65-.069-1.3.444-1.643.514-.342 1.198-.24 1.608.377.343.479.719.513 1.164.273.102-.068.24-.102.342-.136.582-.137 1.163.102 1.403.615.273.514.137 1.095-.308 1.506-.582.513-1.335.65-2.122.65"/></svg>