<svg xmlns="http://www.w3.org/2000/svg" width="277" height="306" fill="none" viewBox="0 0 277 306"><path fill="#102185" d="M65.65 213.949c-3.54.424-7.08 1.557-10.478.991-5.38-.991-8.637.849-12.601 4.53-7.08 6.796-16.99 6.796-25.203 1.416a11.5 11.5 0 0 0-4.106-1.699c-2.549 0-5.097-.991-7.08-2.548-2.123-1.558-3.539-3.823-4.388-6.23-3.823-10.619-1.416-19.964 6.088-28.034 3.54-3.681 8.212-4.531 13.167-4.389 1.558 0 2.974.424 4.814.708 3.823-4.39 8.496-7.929 14.584-8.92s11.61 1.416 16.14 5.38c4.107-1.133 7.93-2.549 11.894-3.398 3.115-.708 6.371-.566 9.345.425a16.9 16.9 0 0 1 7.645 5.238c.567.85 1.416 1.416 2.266 1.841s1.84.708 2.831.708c6.938 0 11.894 5.239 12.318 12.176v6.23c8.496.708 16.566 3.115 24.07 7.079 16.99 8.637 25.203 23.079 27.751 41.202 1.699 12.743-1.416 25.768-8.637 36.387-7.362 10.619-18.406 18.123-31.007 21.097-25.061 5.946-51.68-8.779-60.6-33.981-6.937-19.822-3.822-38.228 9.77-54.51.283-.425.708-.85.991-1.133 0-.283.283-.425.283-.708zm36.104 1.84c-2.549 2.549-4.673 5.239-7.221 7.504-7.504 6.655-15.292 13.026-25.486 15.433-1.416.283-2.832.566-4.106.991-.991.142-1.982.708-2.548 1.558-.708.849-.992 1.84-.992 2.831 0 4.531-.566 9.203 0 13.734 2.832 21.663 22.654 40.211 47.007 37.662 25.486-2.69 43.326-28.742 35.255-55.926 0-.708-.566-1.275-.991-1.841-.566-.425-1.274-.708-1.982-.708-2.124 0-4.389-.283-6.513-.849-12.743-3.399-24.07-9.345-32.565-20.672zm-8.637-17.415c0-1.841.283-3.398.283-5.097 0-2.832-1.133-4.106-3.823-3.54-4.814.991-7.787-1.132-10.336-4.814a8.25 8.25 0 0 0-3.68-3.256c-1.558-.708-3.257-.85-4.956-.425-2.832.566-5.664 1.416-8.354 2.832-4.672 2.548-8.354 2.124-12.176-1.558-4.814-4.53-9.912-4.247-14.725.284-.992.991-1.841 2.123-2.69 3.256-3.257 4.106-5.098 4.672-9.912 2.265-1.132-.707-2.548-.991-3.823-.849-1.415 0-2.69.708-3.68 1.557-4.815 3.682-6.938 12.46-4.39 17.982.566 1.132 2.124 2.69 2.973 2.548 3.965-.708 6.513 1.416 9.345 3.54 1.7 1.416 3.823 2.265 6.088 2.265s4.39-.708 6.089-2.123a20.3 20.3 0 0 0 4.53-4.673c3.54-4.814 4.814-5.38 10.62-3.681 2.69.85 5.38 1.133 8.211.566 2.69-.566 5.24-1.699 7.363-3.539 1.416-1.133 2.832-2.266 4.106-3.54s2.832-2.265 4.672-2.407c1.84-.283 3.682.142 5.097 1.133a17 17 0 0 0 6.372 2.124c2.265.283 4.53 0 6.654-.85zm16.849 10.761c1.84 7.22 18.972 17.273 26.901 17.131-5.097-8.07-17.415-17.273-26.901-17.131m-43.184 19.822c8.637-1.841 23.786-13.026 27.468-19.964-11.894 2.832-20.814 9.345-27.468 19.964M54.322 52.399c1.699-1.133 3.115-2.266 4.53-3.257 4.956-3.54 10.478-5.946 16.425-7.079C85.47 40.081 91.7 45.886 90.71 56.221c0 .284 0 .709.283.992l4.248.85c15.999 3.68 27.326 13.167 34.263 27.892.425 1.132.992 1.982 1.841 2.831.85.85 1.699 1.416 2.832 1.84 1.699.709 3.115 1.842 4.389 3.116 2.549 2.265 4.814 4.672 7.221 6.938.425.424.849.849 1.274 1.415.708.85.991 1.983.991 3.115s-.424 2.124-1.132 2.974c-.708.849-1.841 1.274-2.832 1.415-1.133 0-2.266-.141-3.115-.849-.991-.566-1.841-1.274-2.69-2.124l-2.974-2.548v1.982c.85 3.539 1.275 6.796-.849 10.336-1.274 2.123-1.133 4.955-1.841 7.362-6.371 20.247-19.397 33.556-40.493 37.945-19.823 4.106-40.211-5.805-50.547-23.928-5.946-10.477-8.212-22.654-6.371-34.547.141-1.133 0-2.265-.708-3.115-5.097-5.946-5.097-12.6-3.257-19.539 1.982-6.937 5.947-13.167 11.61-17.84 1.983-1.699 3.115-3.256 1.983-6.23a12.75 12.75 0 0 1 0-5.663c0-1.274.708-2.407 1.557-3.256.85-.85 1.982-1.416 3.257-1.416 2.265 0 3.822 1.416 4.53 4.39 0 .566.142.99.284 1.84zm-5.805 78.297c2.407 5.663 6.371 10.619 11.185 14.3 13.026 9.911 27.326 11.185 41.627 3.681 15.149-7.929 22.654-21.096 23.361-38.086 0-1.275-.283-2.691-.707-3.823-.567-1.275-1.275-2.266-2.266-3.257-.283 1.841-.708 3.115-.849 4.531-.284 2.69-.425 5.38-.85 8.07-.425 3.257-2.548 5.381-5.097 5.381s-4.531-1.699-5.38-4.673c-.425-1.416-.708-2.973-1.416-5.38-.85 2.407-1.274 4.106-1.841 5.664-.991 2.973-3.256 4.389-5.805 3.822-.566-.141-1.274-.424-1.699-.849-.566-.425-.991-.85-1.274-1.416s-.567-1.133-.567-1.841 0-1.274.284-1.982a102.5 102.5 0 0 1 5.522-15.15c1.132-2.123 2.973-3.822 5.238-4.672 1.699-.566 3.965.566 5.805.85l6.938-6.089c-2.973-7.079-8.07-13.026-14.583-17.132-6.513-4.105-14.017-6.088-21.663-5.804a4.95 4.95 0 0 0-3.115 1.132C74.427 74.345 67.49 81 60.835 87.23c.566 7.645-.283 15.433-2.407 22.795a55.9 55.9 0 0 1-9.911 20.672m-8.354-39.361c.991-.566 2.124-1.274 3.115-2.124 12.035-10.902 24.07-21.946 36.105-32.99a9 9 0 0 0 1.416-1.84c.99-1.557.566-2.832-1.275-2.973a8.9 8.9 0 0 0-3.823.424c-3.822 1.7-8.07 2.974-11.326 5.38-6.23 4.673-12.177 9.912-17.699 15.292-2.265 2.548-4.247 5.522-5.522 8.637a13.4 13.4 0 0 0-.85 9.91zm10.76 4.955c-4.53 2.266-5.946 3.54-6.229 5.381-.566 5.38-1.416 10.902.283 16.99 3.398-7.363 5.947-14.3 5.947-22.37M232.013 138.766c2.832-3.398 4.956-6.229 7.363-8.92 1.84-2.123 3.823-4.106 5.946-6.088.85-.849 1.983-1.557 3.115-1.699 1.275-.283 2.407 0 3.54.283 1.274.425 2.265 1.275 2.973 2.407s.991 2.407.991 3.682c-.141 4.53-.707 9.203-1.132 13.733 0 .991-.283 1.983-.425 3.398 2.69-1.132 4.814-2.265 7.079-3.114a67 67 0 0 1 8.071-2.549c5.38-.991 8.778 3.115 6.654 8.354-1.132 2.69-2.548 5.38-4.247 7.787-2.69 4.247-5.522 8.353-8.354 12.459a51.2 51.2 0 0 1 5.805 18.831c3.257 26.76-14.583 52.246-41.343 56.493-21.521 3.398-47.856-10.052-54.653-38.228-3.681-15.15-.849-29.308 7.788-42.193.566-.708.849-1.699 1.132-2.548a8.6 8.6 0 0 0 0-2.69c-.849-7.221-1.415-14.584-1.982-21.805-.141-1.274 0-2.548.567-3.822.566-1.133 1.557-2.124 2.69-2.832 2.69-1.416 5.238-.567 7.504 1.133 4.389 3.256 8.637 6.512 12.884 9.769.567.425.991.708 1.982 1.416l5.947-15.575c.566-1.557 1.133-3.115 1.841-4.672.424-.85.991-1.699 1.84-2.265s1.699-.991 2.69-.991c.992 0 1.983 0 2.832.424.85.425 1.699.991 2.266 1.841.991 1.274 1.84 2.69 2.407 4.247 1.982 4.39 3.964 8.637 6.088 13.593zm28.459 54.936c-.425-3.398-.708-6.938-1.416-10.195-1.982-9.486-7.362-17.981-15.149-23.928-4.248-3.256-9.345-5.521-14.584-6.796-3.681-.708-7.362-.849-11.185-.566-1.982 0-3.965.425-5.805.991-.708.142-1.558.425-2.974.991-3.964 1.416-6.937 2.832-7.22 2.974-5.664 2.831-29.734 41.343-10.478 63.713 9.628 11.185 21.946 15.999 36.529 13.168 19.115-3.682 31.857-20.106 32.282-40.211zm-62.581-45.591-7.929-5.663 1.133 10.194zm47.715-9.911-.425-.283-6.513 8.07 5.38 2.549c.567-3.681.991-7.08 1.558-10.336m-26.194-3.681-3.115 7.929h6.655zm38.228 25.344c1.558-2.266 2.832-4.248 4.248-6.23l-.566-.567-7.08 3.115 3.398 3.54zM214.457 22.524c-4.956-2.265-6.938-6.23-7.504-11.185-.284-1.7 0-3.54.707-5.097.708-1.558 1.841-2.974 3.257-3.965 3.115-2.265 6.513-3.115 10.053-1.274 1.84.85 3.539 2.124 4.955 3.681a13.44 13.44 0 0 1 2.973 5.38c.142.708.567 1.416.992 2.549 1.557-.991 2.831-1.699 3.964-2.548.708-.425 1.274-1.275 1.982-1.7.85-.707 1.982-.99 3.115-.99s2.124.424 2.973 1.132a4.38 4.38 0 0 1 1.558 2.832c.141 1.133-.283 2.265-.991 3.115-1.558 1.84-3.257 3.54-5.239 5.097a7.05 7.05 0 0 1-2.69 1.416c-6.655 1.557-11.469 5.946-15.716 10.902 4.814 3.115 8.778 7.22 11.893 12.035 3.115 4.813 5.239 10.194 6.088 15.857 3.823 20.955-11.468 41.768-32.423 45.025-21.804 3.398-46.157-12.318-47.007-39.503-.566-20.105 13.168-35.396 31.149-39.078a35.1 35.1 0 0 1 14.867-.141c4.106.708 7.362-1.416 10.902-3.54zm-17.274 12.601c-3.823 0-7.646.567-11.185 1.84-3.54 1.417-6.796 3.399-9.628 6.089s-4.956 5.805-6.513 9.345a29.9 29.9 0 0 0-2.549 11.043c0 4.106.567 8.212 1.982 12.035s3.682 7.363 6.513 10.336a31.6 31.6 0 0 0 10.053 7.08c3.823 1.698 7.787 2.548 11.893 2.69 7.788.141 15.15-2.69 20.814-7.93 5.663-5.238 8.92-12.6 9.203-20.246.708-16-12.177-32.423-30.583-32.282"/><path fill="#102185" d="M102.603 273.839a16.75 16.75 0 0 1-7.646-2.832c-2.265-1.557-4.106-3.681-5.38-6.088-.566-.991-.708-2.124-.425-3.115.284-1.132.85-1.982 1.7-2.69.849-.566 1.981-.991 3.114-.849 1.133 0 2.124.566 2.974 1.274.99.849 1.699 1.841 2.69 2.69 2.69 2.407 5.238 2.124 7.645-.566.425-.425.708-.991 1.275-1.558.708-.708 1.557-1.274 2.548-1.557.991-.142 1.982 0 2.832.283.849.425 1.699 1.133 2.124 1.982.425.85.566 1.841.425 2.832-.708 4.531-3.965 7.079-7.929 8.637-1.841.566-3.823.991-5.805 1.132zM99.205 247.929c0 1.274-.566 2.549-1.416 3.398-.85.991-2.124 1.416-3.398 1.558a4.52 4.52 0 0 1-3.398-1.558c-.85-.991-1.416-2.265-1.416-3.539s.567-2.549 1.558-3.399c.85-.849 2.123-1.415 3.398-1.557 1.274 0 2.548.566 3.398 1.557.85.992 1.416 2.266 1.274 3.54M116.337 248.496c0 1.132-.566 2.265-1.416 3.114-.849.85-1.982 1.275-3.256 1.275a4.4 4.4 0 0 1-3.115-1.275c-.849-.849-1.416-1.982-1.416-3.114 0-.567 0-1.275.283-1.841.284-.566.567-1.133.991-1.557.425-.425.992-.85 1.558-.992a4.4 4.4 0 0 1 1.841-.424c.566 0 1.274 0 1.84.424.566.284 1.133.567 1.558 1.133.424.425.708.991.991 1.558.141.566.283 1.274.283 1.84zM88.445 86.946c.566 0 1.132 0 1.699.283.566.284.99.567 1.415.992.425.424.708.849.85 1.415.141.567.283 1.133.283 1.7 0 1.274-.425 2.406-1.274 3.256-.85.85-1.982 1.416-3.257 1.416-.566 0-1.274 0-1.84-.425-.567-.283-1.133-.566-1.416-.991-.425-.425-.708-.991-.991-1.558-.142-.566-.283-1.132-.283-1.84 0-.567 0-1.274.283-1.84s.566-1.133.99-1.417c.426-.424.992-.708 1.558-.99.567-.142 1.133-.284 1.84-.284zM108.55 86.804c0 .85-.283 1.7-.708 2.549-.425.708-1.133 1.274-1.982 1.699-.85.283-1.699.425-2.549.283s-1.699-.566-2.265-1.133c-.566-.566-1.133-1.416-1.274-2.265s0-1.7.283-2.549c.283-.85.849-1.557 1.699-1.982.708-.425 1.557-.708 2.407-.708.566 0 1.133 0 1.699.283.566.284.991.567 1.416.992.424.424.708.849.991 1.415s.283 1.133.283 1.7zM222.244 205.878c-7.646 0-12.318-3.257-15.716-8.495-.708-1.133-1.133-2.266-1.275-3.54-.141-.991 0-2.124.425-2.973.425-.85 1.274-1.558 2.266-1.983.991-.424 1.982-.424 2.973-.283q1.487.425 2.548 1.699c3.866 4.63 8.595 5.805 14.159 3.54.991-.566 2.265-.708 3.398-.425s2.124.991 2.832 1.982.849 2.266.708 3.54c-.283 1.274-.991 2.265-1.982 2.973a16.6 16.6 0 0 1-10.195 3.965zM230.88 179.684c.567 0 1.275 0 1.841.284.566.283 1.133.566 1.557.991.425.425.85.991 1.133 1.557.283.567.425 1.274.425 1.841 0 1.274-.425 2.548-1.274 3.539a4.52 4.52 0 0 1-3.398 1.558c-1.275 0-2.549-.425-3.54-1.274a4.53 4.53 0 0 1-1.558-3.398c0-1.275.567-2.549 1.416-3.398.85-.85 2.124-1.416 3.398-1.558zM218.138 180.818c0 .849-.283 1.699-.85 2.407-.566.708-1.132 1.274-1.982 1.557-.849.283-1.699.425-2.548.142-.85-.142-1.558-.567-2.266-1.274-.566-.567-.991-1.416-1.132-2.266-.142-.849 0-1.699.283-2.548.283-.85.991-1.416 1.699-1.983.708-.566 1.557-.707 2.407-.707.566 0 1.133 0 1.699.283s.991.566 1.416.991.708.849.849 1.416c.142.566.283 1.132.283 1.699zM199.023 79.442c-6.937-.283-12.176-2.407-15.716-7.787-.566-.85-.991-1.699-1.274-2.69s-.283-2.124 0-2.973c.425-.992 1.133-1.7 1.982-2.266 1.982-.99 4.106-.99 5.239.708 3.256 4.672 7.646 5.664 13.026 5.097 1.133 0 2.124.425 2.973 1.133.85.708 1.274 1.84 1.416 2.832.142 1.132 0 2.265-.566 3.115-.567.99-1.558 1.557-2.549 1.982-1.557.424-2.973.708-4.531.85M191.661 60.045q-1.911 0-3.398-1.274a5.44 5.44 0 0 1-1.557-3.257c0-1.274.283-2.407 1.133-3.398a4.92 4.92 0 0 1 3.114-1.699c1.275 0 2.549.425 3.54 1.274q1.487 1.275 1.699 3.398c0 .708 0 1.275-.283 1.84-.283.567-.566 1.134-.991 1.7-.425.425-.991.85-1.558 1.133a4.36 4.36 0 0 1-1.84.424zM210.492 63.623c0 .708 0 1.274-.425 1.84-.283.567-.566 1.133-1.132 1.558-.425.424-.991.85-1.558.99-.566.284-1.274.284-1.84.284s-1.275 0-1.841-.283-1.133-.567-1.557-.991c-.425-.425-.708-.991-.991-1.558-.284-.566-.284-1.132-.284-1.84s0-1.275.425-1.84c.283-.567.566-1.134 1.133-1.558.425-.425.991-.85 1.557-.992.567-.283 1.275-.283 1.841-.283 1.274 0 2.407.425 3.256 1.416.85.85 1.416 1.982 1.416 3.257"/></svg>