<svg width="277" height="306" viewBox="0 0 277 306" fill="none" xmlns="http://www.w3.org/2000/svg">
<path d="M65.6491 213.949C62.1094 214.373 58.5698 215.506 55.1717 214.94C49.7914 213.949 46.5349 215.789 42.5705 219.47C35.4912 226.266 25.5801 226.266 17.3681 220.886C16.0938 220.037 14.6779 219.47 13.2621 219.187C10.7135 219.187 8.16493 218.196 6.18272 216.639C4.05892 215.081 2.64306 212.816 1.79354 210.409C-2.0293 199.79 0.377677 190.445 7.88177 182.375C11.4214 178.694 16.0938 177.844 21.0493 177.986C22.6068 177.986 24.0226 178.41 25.8633 178.694C29.6861 174.304 34.3585 170.765 40.4467 169.774C46.5349 168.783 52.0568 171.19 56.5875 175.154C60.6936 174.021 64.5164 172.605 68.4808 171.756C71.5957 171.048 74.8522 171.19 77.8255 172.181C80.7989 173.172 83.489 175.012 85.4712 177.419C86.0376 178.269 86.8871 178.835 87.7366 179.26C88.5861 179.685 89.5772 179.968 90.5683 179.968C97.5061 179.968 102.462 185.207 102.886 192.144V198.374C111.382 199.082 119.452 201.489 126.956 205.453C143.946 214.09 152.159 228.532 154.707 246.655C156.406 259.398 153.291 272.423 146.07 283.042C138.708 293.661 127.664 301.165 115.063 304.139C90.002 310.085 63.3837 295.36 54.4637 270.158C47.526 250.336 50.6409 231.93 64.2332 215.648C64.5164 215.223 64.9412 214.798 65.2243 214.515C65.2243 214.232 65.5075 214.09 65.5075 213.807L65.6491 213.949ZM101.754 215.789C99.2051 218.338 97.0813 221.028 94.5328 223.293C87.0287 229.948 79.2414 236.319 69.0472 238.726C67.6313 239.009 66.2154 239.292 64.9412 239.717C63.95 239.859 62.9589 240.425 62.3926 241.275C61.6847 242.124 61.4015 243.115 61.4015 244.106C61.4015 248.637 60.8351 253.309 61.4015 257.84C64.2332 279.503 84.0553 298.051 108.408 295.502C133.894 292.812 151.734 266.76 143.663 239.576C143.663 238.868 143.097 238.301 142.672 237.735C142.106 237.31 141.398 237.027 140.69 237.027C138.566 237.027 136.301 236.744 134.177 236.178C121.434 232.779 110.107 226.833 101.612 215.506L101.754 215.789ZM93.1169 198.374C93.1169 196.533 93.4001 194.976 93.4001 193.277C93.4001 190.445 92.2674 189.171 89.5772 189.737C84.7633 190.728 81.79 188.605 79.2414 184.923C78.3919 183.508 77.1176 182.375 75.5602 181.667C74.0027 180.959 72.3037 180.817 70.6046 181.242C67.7729 181.808 64.9412 182.658 62.251 184.074C57.5787 186.622 53.8974 186.198 50.0746 182.516C45.2606 177.986 40.1635 178.269 35.3496 182.8C34.3585 183.791 33.5089 184.923 32.6594 186.056C29.4029 190.162 27.5623 190.728 22.7484 188.321C21.6157 187.614 20.1998 187.33 18.9255 187.472C17.5096 187.472 16.2354 188.18 15.2443 189.029C10.4303 192.711 8.30653 201.489 10.8551 207.011C11.4214 208.143 12.9789 209.701 13.8284 209.559C17.7928 208.851 20.3414 210.975 23.1731 213.099C24.8722 214.515 26.996 215.364 29.2613 215.364C31.5267 215.364 33.6505 214.656 35.3496 213.241C37.0486 211.966 38.6061 210.409 39.8803 208.568C43.42 203.754 44.6943 203.188 50.4993 204.887C53.1895 205.737 55.8796 206.02 58.7113 205.453C61.4015 204.887 63.9501 203.754 66.0739 201.914C67.4897 200.781 68.9056 199.648 70.1799 198.374C71.4541 197.1 73.0116 196.109 74.8522 195.967C76.6928 195.684 78.5335 196.109 79.9493 197.1C81.9315 198.232 84.0553 198.94 86.3207 199.224C88.5861 199.507 90.8515 199.224 92.9753 198.374H93.1169ZM109.966 209.135C111.806 216.355 128.938 226.408 136.867 226.266C131.77 218.196 119.452 208.993 109.966 209.135ZM66.7818 228.957C75.4186 227.116 90.5683 215.931 94.2496 208.993C82.3563 211.825 73.4364 218.338 66.7818 228.957Z" fill="#102185"/>
<path d="M54.3219 52.3987C56.021 51.266 57.4369 50.1334 58.8527 49.1423C63.8083 45.6026 69.3301 43.1956 75.2768 42.063C85.471 40.0807 91.7008 45.8858 90.7097 56.2215C90.7097 56.5047 90.7097 56.9295 90.9929 57.2127C92.4087 57.4958 93.8246 57.779 95.2405 58.0622C111.24 61.7434 122.567 71.2297 129.504 85.9546C129.929 87.0873 130.496 87.9368 131.345 88.7863C132.195 89.6358 133.044 90.2022 134.177 90.6269C135.876 91.3349 137.292 92.4676 138.566 93.7418C141.115 96.0072 143.38 98.4142 145.787 100.68C146.212 101.104 146.636 101.529 147.061 102.095C147.769 102.945 148.052 104.078 148.052 105.21C148.052 106.343 147.628 107.334 146.92 108.184C146.212 109.033 145.079 109.458 144.088 109.599C142.955 109.599 141.822 109.458 140.973 108.75C139.982 108.184 139.132 107.476 138.283 106.626L135.309 104.078V106.06C136.159 109.599 136.584 112.856 134.46 116.396C133.186 118.519 133.327 121.351 132.619 123.758C126.248 144.005 113.222 157.314 92.1255 161.703C72.3034 165.809 51.915 155.898 41.5792 137.775C35.6325 127.298 33.3671 115.121 35.2078 103.228C35.3493 102.095 35.2078 100.963 34.4998 100.113C29.4027 94.1666 29.4027 87.5121 31.2433 80.5743C33.2255 73.6366 37.19 67.4068 42.8534 62.7345C44.8356 61.0355 45.9683 59.478 44.8356 56.5047C44.4109 54.6641 44.4109 52.6819 44.8356 50.8413C44.8356 49.567 45.5436 48.4343 46.3931 47.5848C47.2426 46.7353 48.3753 46.1689 49.6496 46.1689C51.915 46.1689 53.4724 47.5848 54.1804 50.5581C54.1804 51.1245 54.3219 51.5492 54.4635 52.3987H54.3219ZM48.5169 130.696C50.9239 136.359 54.8883 141.315 59.7022 144.996C72.7282 154.907 87.0284 156.181 101.329 148.677C116.478 140.748 123.983 127.581 124.69 110.591C124.69 109.316 124.407 107.9 123.983 106.768C123.416 105.493 122.708 104.502 121.717 103.511C121.434 105.352 121.009 106.626 120.868 108.042C120.584 110.732 120.443 113.422 120.018 116.112C119.593 119.369 117.47 121.493 114.921 121.493C112.372 121.493 110.39 119.794 109.541 116.82C109.116 115.404 108.833 113.847 108.125 111.44C107.275 113.847 106.851 115.546 106.284 117.104C105.293 120.077 103.028 121.493 100.479 120.926C99.9128 120.785 99.2049 120.502 98.7801 120.077C98.2138 119.652 97.789 119.227 97.5058 118.661C97.2227 118.095 96.9395 117.528 96.9395 116.82C96.9395 116.112 96.9395 115.546 97.2227 114.838C98.6385 109.741 100.479 104.644 102.745 99.6884C103.877 97.5647 105.718 95.8656 107.983 95.0161C109.682 94.4498 111.948 95.5824 113.788 95.8656L120.726 89.7774C117.753 82.6981 112.656 76.7515 106.143 72.6455C99.6297 68.5395 92.1256 66.5573 84.4799 66.8405C83.3472 66.8405 82.2145 67.2653 81.365 67.9732C74.4272 74.3446 67.4895 80.9991 60.8349 87.2289C61.4013 94.8745 60.5518 102.662 58.428 110.024C56.5873 117.528 53.1893 124.608 48.5169 130.696ZM40.1633 91.3349C41.1544 90.7685 42.2871 90.0606 43.2782 89.2111C55.3131 78.309 67.3479 67.2653 79.3828 56.2215C79.9491 55.6552 80.3739 55.0889 80.7986 54.3809C81.7897 52.8235 81.365 51.5492 79.5244 51.4076C78.2501 51.266 76.9758 51.4076 75.7015 51.8324C71.8787 53.5314 67.6311 54.8057 64.3746 57.2127C58.1448 61.885 52.1981 67.1237 46.6763 72.5039C44.4109 75.0525 42.4287 78.0258 41.1544 81.1407C39.5969 84.2556 39.3138 87.7952 40.3049 91.0517L40.1633 91.3349ZM50.9239 96.2904C46.3931 98.5557 44.9772 99.83 44.6941 101.671C44.1277 107.051 43.2782 112.573 44.9772 118.661C48.3753 111.298 50.9239 104.361 50.9239 96.2904Z" fill="#102185"/>
<path d="M232.013 138.766C234.845 135.368 236.969 132.537 239.376 129.846C241.216 127.723 243.199 125.74 245.322 123.758C246.172 122.909 247.305 122.201 248.437 122.059C249.712 121.776 250.844 122.059 251.977 122.342C253.251 122.767 254.242 123.617 254.95 124.749C255.658 125.882 255.941 127.156 255.941 128.431C255.8 132.961 255.234 137.634 254.809 142.164C254.809 143.155 254.526 144.147 254.384 145.562C257.074 144.43 259.198 143.297 261.463 142.448C264.012 141.456 266.702 140.607 269.534 139.899C274.914 138.908 278.312 143.014 276.188 148.253C275.056 150.943 273.64 153.633 271.941 156.04C269.251 160.287 266.419 164.393 263.587 168.499C266.702 174.304 268.684 180.676 269.392 187.33C272.649 214.09 254.809 239.576 228.049 243.823C206.528 247.221 180.193 233.771 173.396 205.595C169.715 190.445 172.547 176.287 181.184 163.402C181.75 162.694 182.033 161.703 182.316 160.854C182.458 160.004 182.458 159.013 182.316 158.164C181.467 150.943 180.901 143.58 180.334 136.359C180.193 135.085 180.334 133.811 180.901 132.537C181.467 131.404 182.458 130.413 183.591 129.705C186.281 128.289 188.829 129.138 191.095 130.838C195.484 134.094 199.732 137.35 203.979 140.607C204.546 141.032 204.97 141.315 205.961 142.023L211.908 126.448C212.474 124.891 213.041 123.333 213.749 121.776C214.173 120.926 214.74 120.077 215.589 119.511C216.439 118.944 217.288 118.52 218.279 118.52C219.271 118.52 220.262 118.52 221.111 118.944C221.961 119.369 222.81 119.935 223.377 120.785C224.368 122.059 225.217 123.475 225.784 125.032C227.766 129.422 229.748 133.669 231.872 138.625L232.013 138.766ZM260.472 193.702C260.047 190.304 259.764 186.764 259.056 183.507C257.074 174.021 251.694 165.526 243.907 159.579C239.659 156.323 234.562 154.058 229.323 152.783C225.642 152.075 221.961 151.934 218.138 152.217C216.156 152.217 214.173 152.642 212.333 153.208C211.625 153.35 210.775 153.633 209.359 154.199C205.395 155.615 202.422 157.031 202.139 157.173C196.475 160.004 172.405 198.516 191.661 220.886C201.289 232.071 213.607 236.885 228.19 234.054C247.305 230.372 260.047 213.948 260.472 193.843V193.702ZM197.891 148.111L189.962 142.448L191.095 152.642L197.891 148.111ZM245.606 138.2L245.181 137.917L238.668 145.987L244.048 148.536C244.615 144.855 245.039 141.456 245.606 138.2ZM219.412 134.519L216.297 142.448H222.952L219.412 134.519ZM257.64 159.863C259.198 157.597 260.472 155.615 261.888 153.633L261.322 153.066L254.242 156.181L257.64 159.721V159.863Z" fill="#102185"/>
<path d="M214.457 22.5241C209.501 20.2587 207.519 16.2943 206.953 11.3388C206.669 9.63974 206.953 7.79912 207.66 6.24168C208.368 4.68423 209.501 3.26837 210.917 2.27727C214.032 0.011894 217.43 -0.837624 220.97 1.00299C222.81 1.85251 224.509 3.12679 225.925 4.68423C227.341 6.24168 228.332 8.08229 228.898 10.0645C229.04 10.7724 229.465 11.4804 229.89 12.613C231.447 11.6219 232.721 10.914 233.854 10.0645C234.562 9.63974 235.128 8.79022 235.836 8.36547C236.686 7.65754 237.818 7.37436 238.951 7.37436C240.084 7.37436 241.075 7.79912 241.924 8.50705C242.774 9.21498 243.34 10.2061 243.482 11.3388C243.623 12.4715 243.199 13.6041 242.491 14.4537C240.933 16.2943 239.234 17.9933 237.252 19.5508C236.403 20.2587 235.553 20.6834 234.562 20.9666C227.907 22.5241 223.093 26.9132 218.846 31.8687C223.66 34.9836 227.624 39.0896 230.739 43.9035C233.854 48.7175 235.978 54.0977 236.827 59.7612C240.65 80.7159 225.359 101.529 204.404 104.786C182.6 108.184 158.247 92.4675 157.397 65.283C156.831 45.1778 170.565 29.8865 188.546 26.2053C193.502 25.0726 198.599 25.0726 203.413 26.0637C207.519 26.7716 210.775 24.6479 214.315 22.5241H214.457ZM197.183 35.1252C193.36 35.1252 189.537 35.6916 185.998 36.9658C182.458 38.3817 179.202 40.3639 176.37 43.054C173.538 45.7442 171.414 48.8591 169.857 52.3987C168.299 55.9384 167.45 59.6196 167.308 63.4424C167.308 67.5484 167.875 71.6544 169.29 75.4772C170.706 79.3 172.972 82.8397 175.803 85.813C178.635 88.7863 182.033 91.1933 185.856 92.8923C189.679 94.5913 193.643 95.4408 197.749 95.5824C205.537 95.724 212.899 92.8923 218.563 87.6536C224.226 82.4149 227.483 75.0525 227.766 67.4068C228.474 51.4076 215.589 34.9836 197.183 35.1252Z" fill="#102185"/>
<path d="M102.603 273.839C99.9129 273.556 97.2227 272.565 94.9573 271.007C92.6919 269.45 90.8513 267.326 89.5771 264.919C89.0107 263.928 88.8691 262.795 89.1523 261.804C89.4355 260.672 90.0018 259.822 90.8513 259.114C91.7008 258.548 92.8335 258.123 93.9662 258.265C95.0989 258.265 96.09 258.831 96.9396 259.539C97.9307 260.388 98.6386 261.38 99.6297 262.229C102.32 264.636 104.868 264.353 107.275 261.663C107.7 261.238 107.983 260.672 108.55 260.105C109.258 259.397 110.107 258.831 111.098 258.548C112.089 258.406 113.08 258.548 113.93 258.831C114.779 259.256 115.629 259.964 116.054 260.813C116.479 261.663 116.62 262.654 116.479 263.645C115.771 268.176 112.514 270.724 108.55 272.282C106.709 272.848 104.727 273.273 102.745 273.414L102.603 273.839Z" fill="#102185"/>
<path d="M99.2051 247.929C99.2051 249.203 98.6387 250.478 97.7892 251.327C96.9397 252.318 95.6654 252.743 94.3912 252.885C93.1169 252.885 91.8426 252.318 90.9931 251.327C90.1436 250.336 89.5772 249.062 89.5772 247.788C89.5772 246.513 90.1436 245.239 91.1347 244.389C91.9842 243.54 93.2585 242.974 94.5328 242.832C95.807 242.832 97.0813 243.398 97.9308 244.389C98.7803 245.381 99.3467 246.655 99.2051 247.929Z" fill="#102185"/>
<path d="M116.337 248.496C116.337 249.628 115.771 250.761 114.921 251.61C114.072 252.46 112.939 252.885 111.665 252.885C110.532 252.885 109.4 252.46 108.55 251.61C107.701 250.761 107.134 249.628 107.134 248.496C107.134 247.929 107.134 247.221 107.417 246.655C107.701 246.089 107.984 245.522 108.408 245.098C108.833 244.673 109.4 244.248 109.966 244.106C110.532 243.823 111.24 243.682 111.807 243.682C112.373 243.682 113.081 243.682 113.647 244.106C114.213 244.39 114.78 244.673 115.205 245.239C115.629 245.664 115.913 246.23 116.196 246.797C116.337 247.363 116.479 248.071 116.479 248.637L116.337 248.496Z" fill="#102185"/>
<path d="M88.4445 86.9463C89.0109 86.9463 89.5772 86.9463 90.1436 87.2294C90.7099 87.5126 91.1347 87.7958 91.5594 88.2205C91.9842 88.6453 92.2674 89.07 92.409 89.6364C92.5505 90.2027 92.6921 90.7691 92.6921 91.3354C92.6921 92.6097 92.2674 93.7424 91.4178 94.5919C90.5683 95.4414 89.4356 96.0078 88.1614 96.0078C87.595 96.0078 86.8871 96.0078 86.3207 95.583C85.7544 95.2998 85.188 95.0167 84.9049 94.5919C84.4801 94.1671 84.1969 93.6008 83.9138 93.0345C83.7722 92.4681 83.6306 91.9018 83.6306 91.1938C83.6306 90.6275 83.6306 89.9196 83.9138 89.3532C84.1969 88.7869 84.4801 88.2205 84.9049 87.9374C85.3296 87.5126 85.896 87.2294 86.4623 86.9463C87.0287 86.8047 87.595 86.6631 88.3029 86.6631L88.4445 86.9463Z" fill="#102185"/>
<path d="M108.55 86.8042C108.55 87.6537 108.267 88.5033 107.842 89.3528C107.417 90.0607 106.709 90.627 105.86 91.0518C105.01 91.335 104.161 91.4766 103.311 91.335C102.462 91.1934 101.612 90.7686 101.046 90.2023C100.48 89.6359 99.9132 88.7864 99.7716 87.9369C99.6301 87.0874 99.7716 86.2379 100.055 85.3884C100.338 84.5388 100.904 83.8309 101.754 83.4062C102.462 82.9814 103.311 82.6982 104.161 82.6982C104.727 82.6982 105.294 82.6982 105.86 82.9814C106.426 83.2646 106.851 83.5477 107.276 83.9725C107.7 84.3973 107.984 84.822 108.267 85.3884C108.55 85.9547 108.55 86.5211 108.55 87.0874V86.8042Z" fill="#102185"/>
<path d="M222.244 205.878C214.598 205.878 209.926 202.621 206.528 197.383C205.82 196.25 205.395 195.117 205.253 193.843C205.112 192.852 205.253 191.719 205.678 190.87C206.103 190.02 206.952 189.312 207.944 188.887C208.935 188.463 209.926 188.463 210.917 188.604C211.908 188.887 212.758 189.454 213.465 190.303C217.331 194.933 222.06 196.108 227.624 193.843C228.615 193.277 229.889 193.135 231.022 193.418C232.155 193.701 233.146 194.409 233.854 195.4C234.562 196.391 234.703 197.666 234.562 198.94C234.279 200.214 233.571 201.205 232.58 201.913C229.748 204.32 226.208 205.736 222.385 205.878H222.244Z" fill="#102185"/>
<path d="M230.88 179.684C231.447 179.684 232.155 179.684 232.721 179.968C233.287 180.251 233.854 180.534 234.278 180.959C234.703 181.384 235.128 181.95 235.411 182.516C235.694 183.083 235.836 183.79 235.836 184.357C235.836 185.631 235.411 186.905 234.562 187.896C233.712 188.888 232.438 189.454 231.164 189.454C229.889 189.454 228.615 189.029 227.624 188.18C226.633 187.33 226.066 186.056 226.066 184.782C226.066 183.507 226.633 182.233 227.482 181.384C228.332 180.534 229.606 179.968 230.88 179.826V179.684Z" fill="#102185"/>
<path d="M218.138 180.818C218.138 181.667 217.855 182.517 217.288 183.225C216.722 183.933 216.156 184.499 215.306 184.782C214.457 185.065 213.607 185.207 212.758 184.924C211.908 184.782 211.2 184.357 210.492 183.65C209.926 183.083 209.501 182.234 209.36 181.384C209.218 180.535 209.36 179.685 209.643 178.836C209.926 177.986 210.634 177.42 211.342 176.853C212.05 176.287 212.899 176.146 213.749 176.146C214.315 176.146 214.882 176.146 215.448 176.429C216.014 176.712 216.439 176.995 216.864 177.42C217.288 177.845 217.572 178.269 217.713 178.836C217.855 179.402 217.996 179.968 217.996 180.535L218.138 180.818Z" fill="#102185"/>
<path d="M199.023 79.4423C192.086 79.1591 186.847 77.0353 183.307 71.655C182.741 70.8055 182.316 69.956 182.033 68.9649C181.75 67.9738 181.75 66.8411 182.033 65.9916C182.458 65.0005 183.166 64.2926 184.015 63.7262C185.997 62.7351 188.121 62.7351 189.254 64.4342C192.51 69.1065 196.9 70.0976 202.28 69.5312C203.413 69.5312 204.404 69.956 205.253 70.6639C206.103 71.3719 206.527 72.5045 206.669 73.4957C206.811 74.6283 206.669 75.761 206.103 76.6105C205.536 77.6016 204.545 78.168 203.554 78.5927C201.997 79.0175 200.581 79.3007 199.023 79.4423Z" fill="#102185"/>
<path d="M191.661 60.0448C190.387 60.0448 189.254 59.6201 188.263 58.7706C187.414 57.9211 186.847 56.7884 186.706 55.5141C186.706 54.2398 186.989 53.1071 187.839 52.116C188.688 51.1249 189.821 50.5586 190.953 50.417C192.228 50.417 193.502 50.8418 194.493 51.6913C195.484 52.5408 196.051 53.6735 196.192 55.0893C196.192 55.7973 196.192 56.3636 195.909 56.9299C195.626 57.4963 195.343 58.0626 194.918 58.629C194.493 59.0537 193.927 59.4785 193.36 59.7617C192.794 60.0448 192.086 60.1864 191.52 60.1864L191.661 60.0448Z" fill="#102185"/>
<path d="M210.492 63.6227C210.492 64.3306 210.492 64.897 210.067 65.4633C209.784 66.0297 209.501 66.596 208.935 67.0208C208.51 67.4455 207.944 67.8703 207.377 68.0119C206.811 68.295 206.103 68.295 205.537 68.295C204.97 68.295 204.262 68.295 203.696 68.0119C203.13 67.7287 202.563 67.4455 202.139 67.0208C201.714 66.596 201.431 66.0297 201.148 65.4633C200.864 64.897 200.864 64.3306 200.864 63.6227C200.864 62.9148 200.864 62.3484 201.289 61.7821C201.572 61.2157 201.855 60.6494 202.422 60.2246C202.847 59.7999 203.413 59.3751 203.979 59.2335C204.546 58.9504 205.254 58.9504 205.82 58.9504C207.094 58.9504 208.227 59.3751 209.076 60.3662C209.926 61.2157 210.492 62.3484 210.492 63.6227Z" fill="#102185"/>
</svg>
