<svg xmlns="http://www.w3.org/2000/svg" width="357" height="292" fill="none" viewBox="0 0 357 292"><path fill="#102185" d="M223.644 104.61c9.486.141 18.973.849 28.176.425 17.981-.85 32.281 6.229 43.608 19.68 2.691 3.54 4.39 7.787 4.956 12.318.708 4.672 2.407 9.062 4.814 13.026 2.548 3.964 5.805 7.363 9.769 9.911 9.487 6.513 19.256 12.743 28.884 19.256 3.115 2.265 6.23 4.672 9.061 7.221 4.956 4.53 4.531 9.061-1.132 12.459-2.407 1.416-4.956 2.69-7.646 3.54-9.628 3.115-18.831 6.938-27.043 12.884-14.017 10.194-30.016 15.575-46.44 19.964-15.858 4.247-31.149 9.344-45.45 17.84-9.911 5.805-18.547 13.309-27.043 21.096-9.203 8.495-19.68 15.008-32.281 16.99-9.203 1.274-18.548.283-27.327-3.115-13.167-4.814-26.193-9.769-39.078-15.291-11.185-4.672-22.653-8.07-34.547-10.477-6.088-1.416-12.176-3.257-17.981-5.522q-3.398-1.062-5.947-3.398c-7.928-7.363-15.716-14.867-23.22-22.512-4.39-4.39-8.212-9.203-12.46-13.593-7.362-7.645-7.079-15.008.85-21.945 4.956-4.39 10.76-7.505 17.557-6.797 20.53 1.841 39.36-4.53 58.192-11.185 7.08-2.548 13.875-5.38 20.813-8.212 3.256-1.274 4.531-3.398 3.256-6.938-2.548-7.22.992-11.893 6.372-16.14 6.938-5.381 6.796-5.522 2.549-13.026-5.664-10.053-1.133-21.805 10.194-24.636 6.796-1.699 13.875-2.832 20.955-3.115 21.521-.708 43.183-.991 64.705-1.416 1.84 0 2.69-.283 2.973-2.407 1.133-12.743 2.265-25.627 3.54-38.37.283-2.407-1.133-2.69-2.691-3.256-12.884-4.814-20.247-16.141-19.539-30.016.567-13.451 9.628-25.344 22.371-28.742 11.752-2.974 22.088 0 29.875 9.203 8.354 9.91 9.345 21.238 4.248 32.848-1.841 4.389-4.673 8.212-8.213 11.327a31.9 31.9 0 0 1-12.601 6.23c-2.69.707-3.256 1.698-3.539 4.389-.991 12.176-2.266 24.21-3.54 36.387v3.398zm119.641 87.075c-1.558-1.274-2.407-2.123-3.399-2.831l-29.733-19.964c-10.76-7.221-17.698-16.849-19.68-30.016-.283-2.832-1.275-5.522-2.974-7.787-5.38-6.372-11.468-12.46-19.822-13.734-9.911-1.558-19.822-1.699-29.874-2.266-4.956-.283-9.912 0-15.15 0-.283 1.699-.567 3.115-.708 4.673l-1.699 19.114c-.425 4.247-2.69 6.513-5.947 6.088-3.256-.425-4.672-3.257-4.247-7.363.424-3.539.708-7.079 1.132-10.76.284-4.106.567-8.354.991-12.318l-1.274-.425c-23.503-1.274-47.007-.566-70.51 1.841-4.248.425-8.354 1.133-12.46 2.265-5.097 1.416-6.513 5.522-3.964 10.053 1.133 2.124 2.407 4.247 3.398 6.513 2.832 6.229 1.699 11.043-3.539 15.291-1.841 1.416-3.682 2.832-5.523 4.106-1.132.708-1.982 1.699-2.406 2.832s-.425 2.548 0 3.681c1.982 8.212 0 12.601-7.646 16.849-1.274.708-2.549 1.416-3.823 1.84-6.513 2.549-12.884 5.239-19.397 7.504-19.256 6.797-38.653 13.593-59.608 11.61-2.265-.141-4.531 0-6.655.85a16.1 16.1 0 0 0-5.805 3.398c-3.256 2.832-3.398 4.106-.425 7.221 10.62 11.044 21.239 21.946 32 32.706 2.548 2.407 5.38 4.248 8.636 5.38 6.23 2.124 12.6 3.399 18.83 5.239 9.487 2.832 18.973 5.522 28.176 8.92 14.442 5.239 28.601 11.327 43.184 16.424 12.318 4.389 24.636 3.823 35.822-3.681a186 186 0 0 0 12.459-9.062c5.097-4.247 9.911-9.061 15.15-13.026 17.274-13.167 36.813-21.379 57.626-26.759 17.556-4.531 34.264-10.761 49.414-20.955 7.504-4.956 16.282-7.929 24.494-11.893 1.274-.708 2.69-.991 4.672-1.841zM223.785 51.09c5.381 0 10.619-2.265 14.442-6.23 3.823-3.822 5.947-9.06 5.947-14.583 0-11.043-8.495-20.246-18.831-20.246-10.902 0-20.389 9.627-20.389 20.954s8.212 20.105 18.831 20.105"/><path fill="#102185" d="M199.858 199.33c9.911-6.371 14.442-5.805 21.804 2.407 2.265-1.557 4.814-2.831 7.362-3.964 9.345-2.973 17.84 3.256 18.832 13.592.141 1.982 0 4.106-.142 6.088-.425 2.691-2.124 4.531-5.097 4.39-1.274 0-2.407-.567-3.257-1.416-.849-.85-1.416-2.124-1.416-3.257-.141-1.84-.141-3.823-.566-5.663-.708-4.106-4.53-5.522-7.362-2.549-1.982 2.266-3.681 4.814-4.956 7.646-1.416 2.69-2.973 5.097-6.371 4.531-3.398-.425-4.531-3.257-4.673-6.513 0-2.124-.566-4.389-1.132-6.372-1.133-3.256-3.823-3.539-5.805-.849-1.275 2.265-2.407 4.531-3.257 6.938-1.274 2.831-2.831 5.38-6.371 4.955-3.681-.566-4.39-3.54-4.531-6.655 0-.849 0-1.84-.283-2.69-.85-1.84-1.982-3.681-2.973-5.38-1.699 1.133-3.965 2.124-4.956 3.681-1.557 2.69-2.69 5.522-3.54 8.495-.849 2.691-2.548 4.248-5.38 3.965-3.115-.283-4.247-2.549-4.531-5.38-.566-7.788 8.071-19.115 15.716-20.814 5.381-1.274 9.203 1.133 12.743 4.956zM268.527 190.411c-.283 6.088-.567 11.61-.85 17.132-.142 3.398-1.557 5.805-5.239 5.946-2.973 0-4.814-2.548-4.955-6.513v-16.282h-5.522c-5.38 0-8.92-4.248-7.079-9.345 4.106-11.468 8.495-22.795 13.167-34.122.425-.849 1.133-1.699 1.982-2.124.85-.566 1.841-.849 2.832-.708.991 0 1.982.284 2.832.991.849.567 1.416 1.416 1.841 2.266 4.53 11.752 8.92 23.645 13.026 35.68 1.274 3.964-.85 6.796-5.098 7.22-2.265 0-4.672.142-6.937 0zm-5.522-26.194h-.85c-1.982 5.098-3.964 10.195-5.946 15.575h12.459c-1.982-5.663-3.823-10.619-5.663-15.575M111.225 244.496c-3.399-1.132-6.797-2.265-9.912-3.539-2.69-1.133-5.238-2.832-7.928-3.965-4.248-1.84-8.07-1.557-11.752 1.841-2.832 2.69-5.805 2.69-7.787.566s-1.7-5.097.85-7.787c5.238-5.522 11.61-7.504 18.972-5.097 3.823 1.274 7.645 2.973 11.185 5.097 5.239 3.115 10.053 2.69 14.725-.708 2.266-1.557 4.106-3.398 6.23-5.097 2.549-1.982 5.239-2.548 7.504 0 2.266 2.549 1.557 5.097-.566 7.221-5.947 5.947-12.46 11.044-21.663 11.61zM107.402 223.117c-3.965-1.841-8.354-3.115-11.894-5.522-6.23-4.106-9.769-4.389-15.574 0-3.257 2.407-6.23 2.407-8.212 0-1.84-2.407-1.133-5.239 1.557-7.787 7.363-6.938 18.548-7.929 26.335-1.557 6.372 5.238 12.743 4.813 19.115-1.416 1.557-1.558 3.115-3.54 5.097-3.965.991-.141 2.124 0 3.115.142.991.283 1.982.708 2.831 1.416.425.849.708 1.699.85 2.69 0 .991-.283 1.84-.708 2.69-5.947 6.513-12.318 12.46-22.088 12.318l-.566.991zM176.779 141.564c2.69 0 5.38.142 8.07.567.566 0 1.132.283 1.699.566.566.283.991.708 1.416 1.133s.708.991.849 1.557c.142.567.284 1.275.142 1.841a4.4 4.4 0 0 1-.425 1.84c-.283.567-.566 1.133-1.133 1.558-.424.425-.991.708-1.557.991s-1.133.283-1.84.283a1087 1087 0 0 1-30.3 1.699c-.708 0-1.274 0-1.982-.141-.567-.142-1.274-.425-1.699-.85-.567-.425-.85-.991-1.275-1.557a4.4 4.4 0 0 1-.425-1.841c-.424-3.115 1.133-5.239 4.107-5.522 6.513-.708 13.026-.991 19.539-1.416 1.557 0 3.114 0 4.672-.141v-.283zM153.984 157.279c3.964.283 7.929.567 11.893 1.133 3.115.425 5.805 1.699 5.663 5.522 0 2.832-2.406 4.247-6.654 4.247-5.947 0-11.752-.283-17.698-.424-2.974 0-5.381-1.133-5.806-4.531-.424-2.832 1.7-5.239 5.098-5.522h7.362v-.425zM227.183 19.517c-.708 1.416-1.699 2.548-2.973 3.54-1.416.85-2.691 2.123-3.682 3.54-.991 1.415-1.699 2.973-1.982 4.671-.708 3.823-3.115 5.522-6.088 4.815-2.973-.709-4.531-3.682-3.823-7.363 1.274-6.371 4.531-11.468 10.619-14.3 3.965-1.982 7.929 0 7.929 4.955z"/></svg>