<svg
            width="81"
            height="81"
            viewBox="0 0 81 81"
            fill="none"
            xmlns="http://www.w3.org/2000/svg"
          >
            <path
              d="M40.8945 43.8412L39.495 45.628C41.5649 46.5682 41.9923 47.2813 41.9068 49.5809L42.1685 49.6343C44.2892 49.5222 45.2454 50.8603 45.3255 52.8661C45.3442 53.443 45.2213 54.044 44.9329 54.5301C44.5963 55.115 44.2839 55.7052 43.8939 56.2821C42.6252 58.0956 41.3619 59.8825 40.0719 61.6639C39.7674 62.0913 39.316 62.1634 38.854 62.1527C37.3048 62.1367 35.7531 62.1206 34.1986 62.1313L15.0858 62.0272C12.5244 62.0245 9.93635 62.0138 7.38032 61.9844C6.86751 61.9604 6.37073 61.8616 5.88196 61.7067C5.64692 61.6586 5.45729 61.5117 5.33443 61.322C5.2089 61.1324 5.14748 60.9027 5.14214 60.657C5.13412 56.9472 5.20623 53.256 6.03153 49.6076C6.92627 45.7562 8.62496 42.3669 11.6137 39.7334C12.439 39.0283 13.3738 38.4568 14.3353 37.7516C13.1601 35.2223 12.8877 32.5515 13.9347 29.8192C15.0084 27.0949 16.8887 25.2146 19.5916 23.994C19.3939 23.7616 19.2631 23.5987 19.1108 23.4064C17.6045 21.438 18.5099 18.5962 20.8335 18.0326C21.4105 17.8777 22.0381 17.8697 22.6257 18.07C23.2106 18.2704 23.7128 18.6176 24.1054 19.1063C25.0081 20.1613 25.1924 21.3979 24.6796 22.712C24.6476 22.8696 24.538 23.0111 24.4739 23.1874C25.171 23.3824 25.8495 23.5213 26.5092 23.767C29.7409 24.8888 31.9123 27.0762 32.7964 30.364C33.4427 32.5408 33.2611 34.9018 32.321 36.9717C32.305 37.0492 32.2676 37.0973 32.2249 37.1694C32.2249 37.1694 32.2142 37.2228 32.2516 37.3109C32.5293 37.5593 32.8311 37.8104 33.1597 38.0695C35.0239 39.6213 36.2472 41.6431 37.2194 43.8305C37.401 44.1404 37.588 44.4235 37.8284 44.7173C38.5014 43.8198 39.1291 43.0186 39.7327 42.188C39.8288 41.9903 39.8449 41.774 39.8288 41.5817C39.7327 37.773 39.6419 33.9376 39.5457 30.129C39.4923 27.7199 39.4309 25.3348 39.3988 22.9577C39.3775 21.8627 39.7594 21.4514 40.8384 21.3712C43.7871 21.2083 46.7331 21.0721 49.6764 20.9359C56.9946 20.602 64.3074 20.2922 71.647 19.9877C72.3067 19.9583 72.8997 19.9984 73.4525 20.4925C73.6609 20.6715 73.8131 20.8664 73.9279 21.1068C74.0428 21.3472 74.0989 21.6062 74.1042 21.852C74.2404 24.7953 74.3767 27.7412 74.4862 30.6792C74.6304 33.9804 74.7452 37.3003 74.8895 40.6015C74.9322 41.7286 74.3339 42.3963 73.1747 42.4604C71.4413 42.5432 69.7053 42.626 67.9452 42.7034C59.3583 43.1067 50.7447 43.5047 42.1578 43.9107C41.8266 43.924 41.4287 43.8706 40.9693 43.8599L40.8918 43.8439L40.8945 43.8412ZM72.1411 21.8573L41.2898 23.1767C41.4314 28.6307 41.5649 33.9991 41.7278 39.485C41.9762 39.2073 42.1178 39.047 42.2647 38.8574C44.8127 35.5882 47.3313 32.3111 49.8847 29.0153C50.0369 28.8016 50.2159 28.5933 50.4162 28.4143C50.5845 28.2567 50.7955 28.1633 51.0145 28.1552C51.2335 28.1446 51.4712 28.1926 51.6314 28.3368C51.8237 28.457 51.9493 28.6467 51.9867 28.8737C52.0214 29.098 52.0054 29.3144 51.8852 29.5067C51.7436 29.8058 51.5486 30.0916 51.3323 30.348C48.5599 33.927 45.7849 37.5033 43.0072 41.1089C42.8282 41.3173 42.6707 41.5576 42.4062 41.9128C52.6998 41.4214 62.7957 40.9701 72.929 40.4733C72.6539 34.2021 72.4082 28.0457 72.1465 21.8333L72.1411 21.86V21.8573ZM31.1218 38.9589C29.1213 41.4134 26.5759 42.8022 23.4136 42.9491C20.1979 43.0854 17.5991 41.7927 15.4384 39.4156C14.4635 39.9257 13.542 40.5561 12.7328 41.3172C10.1313 43.6489 8.70241 46.6563 7.88779 49.9789C7.3456 52.2384 7.20672 54.5274 7.11858 56.827C7.07851 57.8286 7.06516 58.8328 7.04913 59.8397C7.77027 60.04 24.7891 60.1282 25.3179 59.9359L24.7464 51.3704C24.1695 51.5253 23.6567 51.6402 23.1412 51.7523C22.5162 51.8699 22.0007 51.6028 21.8645 51.0553C21.7256 50.5371 22.0301 50.1071 22.5963 49.8694C22.6551 49.8533 22.7432 49.8186 22.802 49.8026C24.5728 49.3993 26.1806 48.6087 27.7645 47.7888C29.0812 47.0756 30.3365 46.269 31.5705 45.4304C32.516 44.8054 33.4294 44.2018 34.5084 43.8492C34.6553 43.7985 34.8022 43.7451 34.9545 43.6676C33.9769 41.7793 32.8418 40.1287 31.063 38.9509L31.1164 38.9616L31.1218 38.9589ZM36.2632 45.8417C36.0442 45.7162 35.8145 45.6414 35.5661 45.6467C35.3204 45.6521 35.088 45.7135 34.8743 45.8337C34.0811 46.245 33.3092 46.6884 32.5534 47.1878C30.8787 48.3176 29.2094 49.4233 27.3318 50.2113C26.6747 50.4863 26.6694 50.5131 26.7095 51.2556C26.8537 53.7662 27.022 56.2795 27.1956 58.7687C27.2196 59.1827 27.3024 59.5807 27.3478 60.0267C27.5561 60.0694 27.7671 60.1122 27.9354 60.0908C31.3408 60.1041 34.7194 60.1095 38.1168 60.1495C38.3011 60.1869 38.472 60.1415 38.6243 60.0614C38.7765 59.984 38.9127 59.8477 39.0249 59.7062C39.9784 58.3734 40.9266 57.0674 41.8721 55.7613C42.2567 55.2138 42.6199 54.6315 42.9564 54.0466C43.1567 53.7341 43.3036 53.4083 43.3517 53.037C43.4505 51.8859 42.9377 51.317 41.8266 51.6909C41.3539 51.8672 40.8972 52.1022 40.4618 52.3666C40.2775 52.4654 40.1413 52.6017 39.9624 52.6738C39.7781 52.7726 39.5804 52.8127 39.3694 52.7699C39.1585 52.7272 38.9608 52.631 38.8299 52.4681C38.667 52.3266 38.6002 52.1209 38.5602 51.9233C38.5201 51.7256 38.5602 51.5146 38.683 51.3223C38.8139 51.0766 39.0516 50.8522 39.1558 50.6012C39.4522 50.0884 39.698 49.5409 39.901 48.9533C40.1493 47.9944 39.5751 47.4709 38.5976 47.5965C38.3786 47.6071 38.1675 47.7006 37.9832 47.7994C37.5105 48.1119 37.0645 48.4298 36.6398 48.7797C36.3513 48.9933 36.1243 49.3005 35.8359 49.5142C35.6622 49.6958 35.4005 49.7785 35.1601 49.7572C34.9144 49.7625 34.6901 49.6611 34.5058 49.4875C34.3241 49.3138 34.236 49.0788 34.2307 48.8304C34.2253 48.5847 34.3001 48.355 34.4524 48.1387C34.5993 47.9517 34.7729 47.7674 34.9465 47.5858C35.267 47.2145 35.6088 46.8753 35.9026 46.4987C36.0602 46.2584 36.167 46.0073 36.2712 45.7562L36.2552 45.8337L36.2632 45.8417ZM23.1438 25.9411C22.4307 26.3684 21.8511 26.7957 21.1914 27.0976C19.7759 27.7626 18.3122 28.3902 16.8539 28.9939C16.5601 29.098 16.3037 29.2904 16.1595 29.5895C15.628 30.5991 15.3182 31.7075 15.2461 32.8639C15.1739 33.8842 15.3235 34.8965 15.6707 35.866C16.018 36.8356 16.5227 37.7036 17.2118 38.4701C17.9009 39.2367 18.7316 39.8429 19.6503 40.2756C20.5718 40.7083 21.5814 40.97 22.5803 41.0101C26.6854 41.1917 30.422 38.2458 31.0336 34.1727C31.1565 33.4355 31.2847 32.669 31.1618 31.9372C30.9829 30.8101 30.5769 29.7204 29.9519 28.7749C29.8478 28.6173 29.7169 28.4544 29.5513 28.3395C29.383 28.2247 29.2068 28.1606 28.9958 28.1178C27.7698 27.8401 26.5626 27.4848 25.3633 27.0789C24.5835 26.7557 23.841 26.3871 23.1038 25.9918L23.1412 25.9438L23.1438 25.9411Z"
              fill="#3558A2"
            />
            <path
              d="M60.6699 29.0607C60.8195 28.3288 61.124 28.035 61.8691 27.9977C62.9161 27.9389 63.9551 27.9309 64.9967 27.8988C66.0384 27.8668 67.0773 27.8588 68.119 27.8267C69.3502 27.8053 69.7482 28.1312 69.8524 29.3518C70.0367 31.6514 70.1969 33.9457 70.3625 36.2159C70.4426 37.2949 70.0474 37.7597 68.9737 37.8131C66.9625 37.9199 64.9513 38.0294 62.9428 38.1122C61.7596 38.171 61.3991 37.7971 61.2869 36.6032C61.1266 34.7175 60.9717 32.8052 60.7901 30.8876C60.7661 30.4736 60.7153 30.0542 60.6833 29.6669C60.6779 29.4212 60.6752 29.1755 60.6752 29.0393L60.6699 29.066V29.0607ZM67.8759 29.8219L62.6731 29.934L63.2073 36.1491L68.306 35.8794L67.8759 29.8219Z"
              fill="#3558A2"
            />
            <path
              d="M47.465 27.2445C46.8373 27.1163 46.5382 26.8385 46.4981 26.3658C46.4875 26.1468 46.5569 25.9411 46.6798 25.7488C46.8213 25.5859 47.011 25.463 47.2353 25.4256C47.4917 25.3695 47.7481 25.3135 48.0205 25.3135C54.2143 24.8861 60.4108 24.4321 66.6312 24.0074C66.8823 23.978 67.1227 23.9994 67.3657 24.0208C67.574 24.0635 67.7797 24.1329 67.9346 24.3012C68.0922 24.4695 68.1857 24.6805 68.1937 24.8995C68.2044 25.1185 68.1029 25.3455 67.988 25.5111C67.8732 25.6794 67.6835 25.8022 67.4512 25.8663C67.2455 25.9331 67.0265 25.9438 66.8075 25.9518L48.2075 27.2044C47.9297 27.2285 47.6306 27.2232 47.4677 27.2178L47.4623 27.2445H47.465Z"
              fill="#3558A2"
            />
            <path
              d="M56.1425 36.5632C54.6976 35.2331 54.2515 33.5344 54.0378 31.7743C53.9364 30.9356 53.8669 30.0756 53.7895 29.2423C53.7841 29.1328 53.7841 28.9966 53.7815 28.8871C53.7761 28.6414 53.8776 28.417 54.0512 28.2327C54.2248 28.0511 54.4412 27.9309 54.6869 27.9256C54.9326 27.9202 55.1569 28.0217 55.3466 28.1686C55.5282 28.3422 55.6484 28.5586 55.6804 28.8096C55.7766 29.4026 55.7926 30.0035 55.8567 30.6178C55.9742 31.5152 56.0971 32.3832 56.2974 33.27C56.447 34.0098 56.885 34.6695 57.502 35.1236C57.4779 34.8458 57.4726 34.6001 57.4619 34.3784C57.4512 34.1594 57.5474 33.9591 57.6622 33.7935C57.8038 33.6306 57.9934 33.5077 58.1991 33.4382C58.3994 33.3982 58.6131 33.4142 58.8107 33.5077C59.0083 33.6038 59.1392 33.7668 59.238 33.9484C59.668 35.1796 59.6734 36.491 59.2621 37.7143C59.0831 38.195 58.5997 38.4247 58.0976 38.4862C57.3177 38.5716 56.5725 38.6117 55.7819 38.6144C55.1276 38.617 54.7189 38.2084 54.6896 37.6822L54.7697 37.2896C54.7964 37.1588 54.8952 37.0706 55.002 36.9558C55.1009 36.8676 55.2291 36.7848 55.3439 36.7528C55.4641 36.6967 55.6056 36.67 55.7365 36.6967C55.8781 36.67 56.0196 36.646 56.1665 36.5925L56.1452 36.5605L56.1425 36.5632Z"
              fill="#3558A2"
            />
            <path
              d="M23.8919 35.6604C23.3311 35.4654 22.8263 35.1423 22.3909 34.7283C21.9582 34.3116 21.6244 33.8095 21.4107 33.2486C21.3172 33.0376 21.3065 32.8186 21.376 32.6156C21.4454 32.4126 21.5923 32.223 21.7766 32.1242C21.9662 31.9987 22.2226 31.9426 22.431 31.9853C22.666 32.0334 22.861 32.1536 23.0159 32.3218C23.1922 32.5221 23.307 32.7625 23.4806 32.9895C23.6062 33.1792 23.7611 33.3475 23.9507 33.4943C24.143 33.6145 24.3433 33.7107 24.5784 33.7588C24.8668 33.8175 25.166 33.8229 25.4384 33.6893C25.7108 33.5531 25.9165 33.3501 26.026 33.0723C26.1061 32.9521 26.1382 32.7946 26.2156 32.6744C26.3064 32.5008 26.4426 32.3672 26.6269 32.2684C26.8059 32.1963 27.0035 32.1536 27.1878 32.191C27.3961 32.2337 27.5965 32.3298 27.7327 32.466C27.8635 32.629 27.9624 32.8132 27.9704 33.0323C27.9891 33.3367 27.9517 33.6546 27.7888 33.9217C26.8753 35.5883 25.6814 35.9729 23.8652 35.6577L23.8919 35.6631V35.6604Z"
              fill="#3558A2"
            />
            <path
              d="M22.2894 30.5377C22.1585 30.511 22.0276 30.4843 21.9342 30.4095C21.8407 30.3347 21.7472 30.2626 21.6617 30.1371C21.6003 30.0436 21.5416 29.9208 21.5175 29.7792C21.4855 29.6644 21.4881 29.5281 21.5148 29.3973C21.5683 29.1355 21.6938 28.9165 21.9155 28.7696C22.1372 28.6227 22.3936 28.5666 22.6339 28.588C22.7648 28.6147 22.8957 28.6414 22.9892 28.7162C23.0826 28.791 23.2028 28.8684 23.2669 28.9646C23.3551 29.0634 23.3871 29.1809 23.4112 29.3225C23.4432 29.4373 23.4405 29.5735 23.4138 29.7044C23.3871 29.8353 23.3604 29.9662 23.2803 30.0864C23.2002 30.2065 23.1281 30.3 23.0025 30.3828C22.9037 30.471 22.7808 30.5297 22.6393 30.5538C22.4977 30.5805 22.3882 30.5831 22.2573 30.5564L22.2894 30.535V30.5377Z"
              fill="#3558A2"
            />
            <path
              d="M26.9021 30.1129C26.8486 30.3747 26.6964 30.5883 26.4801 30.7085C26.2584 30.8554 26.0073 30.8848 25.7456 30.8314C25.6147 30.8047 25.5105 30.7833 25.3957 30.6792C25.3022 30.6044 25.2141 30.5056 25.1233 30.4067C25.0618 30.3132 25.0084 30.1664 24.979 30.0488C24.947 29.934 24.9497 29.7978 25.0004 29.6722C25.0271 29.5414 25.0752 29.4426 25.1526 29.3224C25.2274 29.2289 25.3262 29.1407 25.4251 29.0499C25.5185 28.9885 25.6654 28.9351 25.783 28.9057C25.8978 28.8737 26.0287 28.9003 26.1596 28.9271C26.2904 28.9538 26.416 29.0072 26.5095 29.0793C26.6029 29.1541 26.6911 29.2529 26.7819 29.3517C26.8433 29.4452 26.8967 29.5921 26.9261 29.7096C26.9528 29.8512 26.9555 29.9607 26.9047 30.0862L26.8994 30.1129H26.9021Z"
              fill="#3558A2"
            />
          </svg>