<svg xmlns="http://www.w3.org/2000/svg" width="51" height="39" fill="none" viewBox="0 0 51 39"><path fill="#eaecf1" d="M10.55 36.482c-.116-.317-.224-.566-.315-.832L3.47 13.326c-.092-.298-.24-.576-.354-.867-.076-.199-.136-.404-.234-.698l38.995-9.32c2.115 7.637 4.18 15.264 6.305 22.967-.203.082-.396.177-.598.237l-16.402 4.797-20.18 5.938c-.107.045-.221.07-.452.102m7.998-17.787c.186.14.316.215.405.316l3.089 2.726c.838.74 1.679 1.473 2.53 2.213.407.358.866.633 1.403.386a2.42 2.42 0 0 0 1.373-1.23c.167-.395.35-.781.534-1.17.231-.48.468-.948.715-1.46.272.142.474.243.673.353.475.266.949.554 1.42.797.892.452 1.784.37 2.261-.737.101-.237.212-.467.316-.701q1.534-3.397 3.064-6.793c.114-.253.263-.493.44-.822.13.538.199.949.335 1.366a1.13 1.13 0 0 0 1.182.803 1.17 1.17 0 0 0 .95-1.148q.016-.344-.039-.686c-.221-1.264-.423-2.53-.692-3.794a3.3 3.3 0 0 0-.547-1.142 1.015 1.015 0 0 0-1.136-.414q-.375.081-.733.225c-1.063.49-2.119.996-3.162 1.495q-.237.103-.456.24a1.16 1.16 0 0 0-.423 1.367 1.135 1.135 0 0 0 1.265.632q.485-.162.948-.38.263-.07.531-.11l-3.63 8.244c-.275-.155-.47-.266-.67-.374-.525-.287-1.034-.632-1.581-.85-.949-.402-1.581-.155-2.062.743-.316.61-.597 1.236-.895 1.853l-.496 1.027-3.409-3.004c-.9-.793-1.799-1.58-2.71-2.377-.702-.604-1.144-.589-1.925-.086-.42.301-.72.742-.845 1.243-.755 2.213-1.492 4.427-2.273 6.64-.316.924-.75 1.812-1.129 2.717h-.149l-1.223-4.582c.316-.133.604-.215.853-.348a1.14 1.14 0 0 0 .61-1.366 1.08 1.08 0 0 0-1.217-.724c-.316.022-.597.098-.948.161l-.971-3.374c.42-.24.784-.408 1.1-.632a1.015 1.015 0 0 0 .316-1.167.995.995 0 0 0-.98-.69 2.9 2.9 0 0 0-.762.099c-.41.11-.812.256-1.22.389-.728.24-.993.667-.87 1.432q.068.468.193.923c.515 1.84 1.072 3.671 1.559 5.521.696 2.647 1.388 5.297 1.992 7.965a14.5 14.5 0 0 0 .949 3.004c.366.775.806.95 1.58.655.317-.114.633-.247.968-.345l26.603-7.778c.357-.105.714-.203 1.06-.342.556-.221.828-.578.767-1.104a4.6 4.6 0 0 0-.822-2.137 1.12 1.12 0 0 0-1.245-.345 1.06 1.06 0 0 0-.7 1.072c0 .24.067.48.105.734l-7.886 2.311a12 12 0 0 0-.585-1.22 1.17 1.17 0 0 0-1.493-.465 1.12 1.12 0 0 0-.506 1.394c.089.3.212.589.336.93a245 245 0 0 1-7.004 2.05 8 8 0 0 0-.415-1.117c-.382-.702-1.059-.949-1.647-.633-.51.26-.674.87-.42 1.581.091.263.205.516.316.826-2.457.724-4.832 1.457-7.343 2.134z"/><path fill="#fff" d="M11.388 21.227q7.95 2.59 15.662 5.831c.398.168.863-.183.97-.55a49.2 49.2 0 0 0 1.993-12.016l-1.19.683 10.562 5.62c.898.477 1.698-.886.797-1.367l-10.57-5.622a.8.8 0 0 0-1.19.683 47.3 47.3 0 0 1-1.935 11.598l.974-.553a200 200 0 0 0-15.662-5.83c-.97-.317-1.385 1.21-.42 1.523z"/><path fill="#3558a2" d="M42.549 0a1.265 1.265 0 0 1 1.245.892q.236.642.399 1.306a18946 18946 0 0 1 6.312 23.077c.044.164.069.335.097.503.152.816-.104 1.312-.907 1.58a60 60 0 0 1-3.105.95q-6.934 2.036-13.872 4.056l-21.746 6.378c-.246.073-.493.152-.743.203a1.265 1.265 0 0 1-1.58-.845c-.19-.474-.336-.97-.485-1.46q-2.712-8.997-5.42-18.002c-.458-1.528-.898-3.061-1.369-4.585-.18-.592-.24-1.202-.575-1.771-.24-.408-.24-.996-.228-1.502.02-.632.478-.949 1.053-1.081.832-.196 1.667-.383 2.498-.582L19.424 5.46 36.468 1.39 41.79.124c.253-.038.509-.08.759-.123M10.552 36.482c.23-.044.344-.056.452-.088l20.18-5.951 16.411-4.81c.203-.06.396-.155.598-.237-2.125-7.703-4.19-15.33-6.305-22.966L2.893 11.748c.098.294.158.5.234.699.114.29.263.569.354.866q3.387 11.159 6.764 22.324c.082.278.19.535.307.844"/><path fill="#3558a2" d="m18.552 18.695-4.459 12.914c2.511-.677 4.886-1.41 7.343-2.135-.124-.316-.238-.563-.317-.825-.253-.715-.088-1.325.421-1.581.588-.316 1.265-.054 1.647.632q.247.543.415 1.117c2.34-.633 4.673-1.335 7.004-2.05-.124-.341-.247-.632-.336-.93a1.12 1.12 0 0 1 .506-1.394 1.17 1.17 0 0 1 1.493.465q.325.594.585 1.22l7.886-2.31c-.038-.254-.092-.494-.104-.734a1.056 1.056 0 0 1 .698-1.072 1.12 1.12 0 0 1 1.246.345c.45.631.733 1.367.823 2.137.06.525-.212.882-.769 1.104-.345.139-.702.237-1.06.341l-26.602 7.779c-.316.098-.632.23-.967.344-.79.285-1.23.12-1.581-.654a14.5 14.5 0 0 1-.949-3.004c-.604-2.669-1.296-5.319-1.992-7.965-.487-1.85-1.044-3.681-1.559-5.521a8 8 0 0 1-.193-.924c-.123-.765.142-1.192.87-1.432.408-.133.81-.278 1.22-.389q.375-.1.762-.098a.996.996 0 0 1 .98.69 1.015 1.015 0 0 1-.316 1.166c-.316.228-.68.395-1.1.633l.97 3.374c.358-.064.655-.14.95-.162a1.08 1.08 0 0 1 1.217.724 1.14 1.14 0 0 1-.61 1.366c-.25.133-.525.215-.854.348l1.208 4.57h.148c.38-.905.803-1.793 1.13-2.717.78-2.213 1.517-4.427 2.273-6.64.125-.502.424-.942.844-1.243.781-.503 1.224-.519 1.926.085.91.785 1.808 1.582 2.71 2.378l3.408 3.004.497-1.027c.297-.633.578-1.243.895-1.853.464-.898 1.116-1.145 2.061-.743.55.234 1.06.562 1.581.85.2.108.395.218.67.373l3.65-8.253q-.27.039-.532.111-.463.216-.948.38a1.134 1.134 0 0 1-1.265-.633A1.16 1.16 0 0 1 32.5 9.49q.218-.138.455-.24c1.06-.5 2.116-1.006 3.162-1.496q.357-.144.734-.224a1.015 1.015 0 0 1 1.135.414c.253.342.44.73.547 1.141.269 1.265.471 2.53.692 3.795q.056.34.038.686a1.17 1.17 0 0 1-.948 1.148 1.13 1.13 0 0 1-1.183-.803c-.136-.405-.205-.829-.335-1.366-.177.316-.316.569-.44.822a2448 2448 0 0 0-3.064 6.792c-.107.234-.218.465-.316.702-.477 1.107-1.369 1.189-2.26.737-.484-.244-.95-.532-1.42-.797-.2-.111-.402-.212-.674-.354-.247.5-.484.98-.715 1.46-.183.39-.366.775-.534 1.17a2.42 2.42 0 0 1-1.372 1.23c-.538.234-.996-.028-1.404-.385-.838-.737-1.68-1.47-2.53-2.214l-3.09-2.725a4 4 0 0 1-.426-.288"/></svg>