<svg xmlns="http://www.w3.org/2000/svg" width="342" height="329" fill="none" viewBox="0 0 342 329"><path fill="#102185" d="M172.949 84.92c6.584.963 7.306 2.054 6.881 10.407 6.286.17 12.516.198 18.661.425 13.324.34 26.703.821 40.111.977 8.566.198 17.033.127 25.557.198l48.819.368 16.721.1c.892-.043 1.841.056 2.733 0 4.417.424 6.145 2.194 6.371 7.107.156 5.55-.085 11.256-.099 16.721-.099 10.803-.198 21.606-.424 32.466-.34 15.305-.694 30.597-.907 45.845-.396 21.083-.623 42.25-1.019 63.332-.34 16.509-.68 33.018-.963 49.654.028 1.657-.311 3.157-.963 4.616s-1.671 2.761-2.789 3.794c-1.246 1.091-2.789 1.827-4.446 1.855-10.293.467-20.544.609-30.88.935-10.973.269-21.903.212-32.749.439-22.257.509-44.401 1.274-66.602 1.911-18.435.552-36.798.934-55.29 1.359-18.802.397-37.562.92-56.464 1.048-17.91.354-35.878-.637-53.633-2.619-4.913-.538-9.571-1.629-14.173-3.356-4.106-1.614-7.759-4.007-10.817-7.221-1.19-1.515-2.11-3.129-2.96-4.927l-1.613-3.016c-.199-.524-.666-.963-.694-1.402-.212-3.709-1.53-7.15-1.289-10.873.963-15.688 1.784-31.319 2.606-46.95.467-9.43 1.075-18.916 1.6-28.218.58-11.908 1.231-23.674 1.812-35.581l1.571-27.907c.666-12.091 1.331-24.168 1.827-36.345.425-7.589.793-15.319 1.217-22.908.1-.949.1-1.714 0-2.733-.198-1.289-.07-2.549.185-3.865.311-1.175.92-2.322 1.727-3.398a54.6 54.6 0 0 1 17.472-16.113c6.258-3.469 13.252-5.394 20.402-5.706 3.002-.085 5.862-.127 8.779-.028.892-.043 1.713.099 2.364.609.779.453 1.303 1.02 1.742 1.755.254.666.82 1.36 1.415 1.728.75.778 1.416 1.727 1.784 2.647.411 1.062.496 2.082.326 3.214-.354 6.202-.566 12.347-.864 18.69.015.453.085 1.033.241 1.43 6.386.424 12.771.099 19.2.212 6.427.113 12.77.1 19.014.142l19.454.113c3.497-5.89 6.867-11.737 10.237-17.585 5.394-9.656 11.016-19.1 17.118-28.105.75-1.203 1.189-2.435 1.26-3.823.056-2.605.524-5.352 1.402-7.815 1.911-5.281 4.148-10.534 6.428-15.66 1.062-2.378 2.435-4.729 3.624-7.15.496-1.104 1.43-2.208 2.62-2.676 1.189-.467 2.477-.651 3.794-.396 2.124.396 4.22 1.104 6.4 1.642 1.784-2.053 2.435-4.729 3.313-7.178a27.4 27.4 0 0 1 2.591-5.097c.722-.878 1.543-1.501 2.648-1.784 1.062-.41 2.18-.227 3.157.311s1.855 1.26 2.336 2.138c.538 1.005.765 1.982.722 3.058-.099.95-.24 1.756-.693 2.535-1.289 3.37-2.563 6.754-3.937 10.307 1.388.836 2.762 1.671 4.064 2.69a6.17 6.17 0 0 1 2.563 3.115 6.22 6.22 0 0 1 .184 4.021c-.821 2.591-1.699 5.055-2.889 7.476-.736 1.643-1.642 3.214-2.251 4.8-1.656 3.979-3.185 7.9-4.771 11.68-1.062 2.38-2.166 4.63-4.531 5.99-.481.34-.849.934-1.048 1.614-1.954 8.34-3.908 16.665-5.876 25.004l.581-.07zm151.894 227.416c1.161-68.089 2.506-136.092 3.681-204.181-1.444-.198-2.704-.326-4.049-.269-7.575.028-15.235.241-22.909 0-25.259-.623-50.589.156-75.919-1.034-12.672-.594-25.131-.665-37.775-.821-3.044-.042-6.215-.793-8.962 1.161-.269.099-.581.071-1.034.085-.481 2.308-.963 4.616-1.487 6.796-.821 3.795-1.585 7.731-2.534 11.582-.227.991-.637 1.911-1.402 2.662-.778.75-1.642 1.246-2.619 1.458-.92.354-2.053.184-2.973-.227-.921-.41-1.742-.991-2.365-1.826-.283-.34-.623-.821-.949-1.303l-2.548 2.039c-.156 1.572-.623 3.115-1.09 4.658-.708 1.331-1.827 2.365-3.228 3.059-1.19.453-2.634.255-3.724-.241-1.232-.439-2.209-1.43-2.804-2.563-.538-1.005-.806-2.109-.552-3.426.17-1.133.666-2.223 1.572-3.03 2.237-2.067 2.435-4.729 3.129-7.263.694-2.535 1.09-4.659 1.515-7.108.453-1.996.821-3.794 1.26-5.791l-26.576-.113c-.863 1.699-1.472 3.299-2.293 4.672-1.459 2.535-3.016 4.8-3.498 7.872-.523 3.384-4.488 4.913-7.447 3.922-3.271-1.019-4.8-6.952-1.912-9.727.694-.566 1.147-1.345 1.473-2.081.467-1.543.807-3.044 1.43-4.956-17.401-.297-34.703-.325-52.316-.396-.198 2.648-.227 4.941-.524 7.334-1.118 16.056-2.11 32.055-3.228 48.097-.92 12.629-1.557 25.174-2.79 37.775-1.783 18.279-3.058 36.671-4.219 55.006-.396 7.278-.778 14.555-1.217 21.706-.326 4.672-.467 9.429-.935 14.158-.68 5.72-4.615 8.141-10.052 6.584-.312-.028-.496-.113-.737-.326-2.223-.665-4.375-1.501-6.683-1.982-4.983-1.119-9.542.028-14.2 2.11-2.677 1.33-5.324 3.1-7.377 5.267-.425.467-.85.934-1.048 1.614-.057.637-.128 1.26.127 1.925.85 3.016 3.115 4.574 5.593 5.89 5.012 2.775 10.605 3.512 16.268 4.064 20.955 2.421 41.924 2.563 62.921 1.94 15.178-.369 30.187-.369 45.365-.737 16.126-.269 32.324-.736 48.394-1.132 16.834-.397 33.754-.977 50.716-1.416 18.038-.411 36.133-.68 54.185-1.076 9.288.07 18.718-.213 28.119-.637l.227.212zM56.324 75.845a51.8 51.8 0 0 0-16.31 2.166c-6.047 2.025-10.889 6.003-15.221 10.548-2.407 2.436-4.064 5.197-3.412 8.892.07.58 0 1.203-.185 1.897-.65 11.327-1.26 22.781-1.925 34.108-.765 15.008-1.53 30.002-2.421 45.067-.467 9.43-1.076 18.916-1.6 28.218-.708 14.371-1.402 28.742-2.237 43.17-.58 11.907-1.388 24.041-1.982 35.948 0 1.204.014 2.422.042 4.078 10.024-6.272 20.261-8.084 31.347-4.446.368-3.78.58-7.192.779-10.619.779-13.79 1.416-27.538 2.365-41.244 1.062-14.215 2.265-28.473 3.468-42.73.624-7.065 1.204-14.258 1.643-21.408l2.718-41.527c.368-5.749 1.062-11.483 1.289-17.175.694-11.638 1.118-23.177 1.571-35.028l.057.127zM159.64 96.092c3.072-13.31 5.918-26.08 8.877-38.894l-3.426-1.416-3.611-1.5c-9.316 13.28-16.792 27.368-25.117 41.64l23.079.085.184.085zm12.403-72.393c-4.375 8.353-7.844 17.117-7.915 20.473l10.619 3.965 7.872-19.398-10.704-4.984z"/><path fill="#102185" d="M336.114 75.378c-1.473.113-2.719.439-4.106.368-8.283.142-16.495.113-24.821.128-10.435.07-20.798-.057-31.191.141-14.385.057-28.714.255-43.099.311-8.92.086-17.755 0-26.717-.056-.453.014-1.034.085-1.529-.028-1.53-.029-2.931-.538-4.05-1.473-1.118-.934-1.812-2.336-1.925-3.809-.383-2.576-.369-5.323-.043-8.013.722-4.828 1.189-9.557 1.727-14.47.482-4.276 1.091-8.609 1.572-12.885.099-.948.241-1.755.51-2.62.255-1.316 1.09-2.69 2.18-3.411 1.175-.907 2.549-1.274 3.936-1.204 6.188-.099 12.361-.198 18.718-.212 12.417-.057 24.962-.17 37.365-.24l48.38-.369 21.28-.283c.638.056 1.204 0 1.898.184 1.571.156 3.044.807 3.936 1.968 1.033 1.118 1.458 2.62 1.571 4.092-.028 3.497-.311 7.093-.467 10.647-.326 7.858-.779 15.773-1.232 23.673a18.6 18.6 0 0 1-1.005 4.489 5.4 5.4 0 0 1-1.076 1.925 5.75 5.75 0 0 1-1.968 1.204l.127-.057zm-20.148-37.464c-.226.991-.496 1.855-.453 2.761-.34 3.469-.538 6.881-1.062 10.265-.156 1.572-.68 2.988-1.189 4.404-.411.92-1.176 1.67-2.053 2.152-.921.354-1.855.708-3.03.41-1.133-.17-2.223-.665-3.03-1.571-.807-.907-1.204-1.968-1.218-3.172-.085-1.784-.028-3.624.071-5.338.255-3.285.651-6.612 1.034-9.953l-5.947.311c-.156 1.572-.283 2.832-.453 3.965a40.4 40.4 0 0 1-1.048 6.767c-.311 1.176-1.062 2.38-2.152 3.101s-2.379.92-3.582.92c-1.175-.31-2.322-.92-3.129-1.826a5.08 5.08 0 0 1-1.275-3.299c0-.764.015-1.529.17-2.336l.652-7.377-6.499.071c-.241 4.488-.595 8.722-.807 12.899-.071 1.387-.326 2.704-.708 4.063-.566 2.492-2.69 2.86-4.786 3.356-1.685.34-3.639-1.175-4.474-2.988-.665-1.713-1.005-3.412-.821-5.295.311-3.908.58-7.957.849-12.007l-5.422.114c-.142.807-.199 1.444-.269 2.067-.241 2.52-.17 5.069-.553 7.645 0 .765-.339 1.501-.665 2.223-.382.595-.892 1.246-1.628 1.685-.609.383-1.459.553-2.11.807-.708.128-1.529-.028-2.251-.354-1.175-.311-2.195-.977-2.917-2.067-.665-.963-.864-2.251-.736-3.511.056-2.605.396-5.31.538-8.085-2.039-.58-3.724-1.005-5.55.156l-.425 4.418c-.382 3.327-.51 6.57-1.033 9.953-.468 3.511-2.493 5.352-5.508 4.998-.638-.057-1.317-.255-2.039-.58-.595-.383-1.204-.75-1.586-1.36-.524-.566-.779-1.217-1.019-1.883-.241-.665-.241-1.43-.184-2.053.099-3.681.524-7.334.764-11.058 0-.764-.028-1.656 0-2.732l-26.165.184a1857 1857 0 0 0-3.214 27.17l120.83-.878c.042-8.962 1.118-18.024 1.062-27.255l-14.881-.057-.085.184zM250.284 218.422c-5.834-.184-11.483-.297-17.005-.453-1.033.085-1.968 0-2.973-.227-.92-.41-1.798-1.132-2.464-2.081-.623-.821-.892-1.925-1.161-3.044.17-1.133.524-2.18 1.388-3.115.722-.878 1.855-1.472 2.888-1.557a51 51 0 0 1 6.839-.354c4.701 0 9.415.028 14.116.042a6.8 6.8 0 0 1 1.572.156c4.021-.184 7.546 2.265 7.404 8.226-.084 15.192-.169 30.399-.297 45.463-.056 9.727-.297 19.369-.354 29.096-.028 4.262-2.407 7.15-5.734 9.175-.793.312-1.642.481-2.577.382-4.969.085-9.939.17-14.909.269-8.778.029-17.514.199-26.292.241-13.749.128-27.553.113-41.315.241l-36.289.283c-14.074.099-28.317.099-42.434.057-4.842.042-8.028-3.144-8.112-8.113-.227-4.927-.142-10.251-.241-15.235-.1-6.187-.057-12.417-.085-18.774-.085-1.784.156-3.554.396-5.31.17-1.132.581-2.039 1.487-2.846s1.784-1.288 2.803-1.387c2.69-.113 4.418.425 5.338 3.256 1.02 2.648.637 5.211.623 7.943.1 9.359.128 18.902.1 28.318.155.396.226.977.368 1.373.99.226 2.123.396 3.2.439 14.201-.142 28.529-.34 42.787-.354 13.309-.099 26.477-.156 39.658-.213 9.996-.042 20.12-.141 30.243-.24l35.85-.255c1.345-.057 2.69-.113 4.474-.198.014-23.659.269-47.12.439-71.147l.269-.099zM293.877 148.294c-.042 42.944-.17 85.292-.269 128.108l1.459-.553a5.08 5.08 0 0 1 3.298-1.274c1.204-.014 2.394.297 3.399.963s1.741 1.756 2.067 3.001c.453 1.19.34 2.45-.283 3.597-2.124 5.522-5.352 10.548-9.571 14.597-1.119 1.034-2.521 1.728-4.135 1.883-1.6.156-3.157-.311-4.403-1.189-.836-.595-1.671-1.175-2.506-1.77-2.605-2.039-5.197-4.063-7.802-6.102-2.237-1.869-2.888-3.596-2.152-6.003a2.75 2.75 0 0 1 .736-1.643c.425-.467.85-.934 1.331-1.274l1.713-.665c.524-.199 1.204 0 1.841.056 1.175.312 2.364.609 3.455 1.105l.524-.199s.085-.184.156-.368c.056-.637.127-1.26.184-1.897.056-43.708.113-87.401.042-131.052 0 0-.057-.128-.411-.297l-1.812 1.599a5.7 5.7 0 0 1-1.968 1.204c-.665.255-1.557.297-2.18.227-.807-.142-1.501-.34-2.096-.708-.594-.369-1.118-.935-1.557-1.685-.453-1.19-.864-2.252-.609-3.554.127-1.26.609-2.365 1.288-3.37 1.345-2.039 2.733-3.936 4.446-5.805 2.053-2.152 4.248-4.361 6.669-6.343 1.246-1.09 2.973-1.741 4.63-1.77 1.656-.028 3.44.652 4.658 1.855 2.803 2.563 5.182 5.593 6.81 9.061 1.175 2.28 2.096 4.659 2.874 7.094 1.02 2.648.227 4.927-1.614 6.074-2.704 1.642-4.601 1.458-6.853-.864-.523-.566-1.09-1.246-1.528-1.996l.127-.057zM95.43 148.493c-.793 4.248-1.374 8.269-2.096 12.332-.311 1.94-.863 3.667-2.93 4.616-3.866 1.784-7.462-.467-7.434-4.729-.028-1.657.255-3.285.538-4.913.637-3.88 1.076-7.844 1.855-11.78.764-3.936 1.926-6.046 6.952-6.003 8.155-.099 16.353-.057 24.381-.099 10.761-.029 21.691.014 32.452-.015 4.842-.042 9.727.057 14.484.199 1.203 0 2.336.17 3.469.34 3.568.608 5.409 2.619 5.564 6.201.043 2.86-.099 5.649-.113 8.382-.326 11.808-.779 23.659-1.104 35.453-.199 4.63-.439 9.118-.637 13.748-.057.637.056 1.345.127 1.926 2.69 1.09 5.352.523 8.014.722 6.47.255 12.955.184 19.553.382 1.203 0 2.393.297 3.455 1.104 1.061.807 1.599 1.813 1.925 3.044.255.666.241 1.43.099 2.237-.198.68-.382 1.36-.892 2.011a5 5 0 0 1-1.543 1.501l-1.982.764c-3.257.184-6.626.114-9.996.043-11.752-.184-23.376-.439-35.128-.623-1.203 0-2.251-.354-3.228-.892-.963-.538-1.897-1.388-2.435-2.407-1.445-2.18.41-6.825 4.077-7.178 2.181-.227 4.474-.199 7.15-.326.977-9.316.737-18.633 1.303-27.808.581-9.174.566-18.264.835-27.467-2.718-.779-51.226-1.119-66.446-.425l-.283-.34z"/><path fill="#102185" d="M244.167 179.968a5.1 5.1 0 0 1-.34-1.685c-.226-.977-.184-2.053.354-3.016.411-.92 1.175-1.671 2.053-2.152 2.549-1.274 4.701-1.189 6.358.75 2.407 2.719 4.728 5.621 6.838 8.75 1.784 2.648 1.402 5.225-.821 7.745-2.265 2.393-4.531 4.772-6.995 7.08-1.033.849-2.223 1.316-3.468 1.628-.666.255-1.43.24-2.237.099-.807-.142-1.36-.382-2.011-.892-.595-.382-.991-.991-1.288-1.784-.255-.665-.51-1.317-.369-2.138.128-1.26.298-2.393.553-3.695-13.564-.553-26.973-.723-40.636-.779l.708 1.855c1.444 4.148-1.189 7.589-5.592 7.15-1.572-.156-3.299-.708-4.687-1.544-2.718-1.543-5.394-3.383-8.085-5.238-.962-.538-1.769-1.444-2.307-2.45-.666-.962-.949-2.067-1.218-3.171-.142-1.161-.099-2.237.255-3.285s.849-2.138 1.571-3.03c2.676-3.299 5.692-6.131 9.161-8.523.779-.751 1.826-1.161 3.044-1.161 1.161-.142 2.209.212 3.172.75 2.038 1.345 2.662 3.37 2.039 6.499.099.269-.057.637.084 1.033 7.292.836 14.669.283 22.031.496 7.306.071 14.541.34 22.074.623l-.269.099zM92.117 203.456l9.572.425 12.53.651a5.45 5.45 0 0 1 2.619.51c.779.453 1.572.92 1.997 1.657.623.821.977 1.755 1.019 2.647.043.892-.184 1.898-.779 2.719-1.175 1.67-2.378 2.888-4.53 2.803-5.89-.326-11.724-.51-17.557-.694a46 46 0 0 0-5.026-.042c-.17 2.336-.114 4.446-.51 6.569-.17 1.133-.58 2.039-1.36 2.79-.778.75-1.783 1.288-2.803 1.387-1.16.142-2.152-.085-3.115-.623-.962-.538-1.713-1.316-2.123-2.364-.453-1.19-.92-2.379-.836-3.766.028-3.498.184-7.051.283-10.719.128-2.024-.042-4.077.212-6.144 0-.765.284-1.629.61-2.365.453-.779 1.019-1.302 1.755-1.741.793-.312 1.586-.609 2.35-.595.765.014 1.714.099 2.436.425a5.4 5.4 0 0 1 1.954 1.529 4.63 4.63 0 0 1 1.133 2.152c.17.849.212 1.742.254 2.634l-.085.184zM139.492 231.675c.269 1.869-.184 3.865-1.288 5.352-3.54 4.998-7.079 9.996-10.576 15.135-3.738 5.678-7.476 11.355-11.073 16.991-1.288 2.166-3.072 3.454-5.691 2.945-.68-.199-1.359-.383-1.968-.765s-1.119-.934-1.459-1.416a5.6 5.6 0 0 1-.764-1.982c-.255-.665-.057-1.345-.043-2.11.312-1.175.878-2.463 1.544-3.469a3930 3930 0 0 0 20.756-30.865c.92-1.572 2.294-2.705 4.021-3.356.666-.255 1.289-.198 2.053-.184a4.3 4.3 0 0 1 1.912.637c.594.382 1.061.807 1.529 1.232.382.609.722 1.09.976 1.756l.057.127zM227.758 234.04c.92-.354 2.039-.623 3.03-.411s1.826.821 2.506 1.77c.566.694.92 1.614 1.019 2.647.099 1.034-.184 1.898-.778 2.719-.779 1.515-1.614 2.902-2.634 4.191-6.116 8.566-12.36 17.174-18.604 25.797-.51.651-1.147 1.345-1.784 2.053-.991.991-2.124 1.571-3.597 1.685-1.345.056-2.704-.326-3.766-1.133-.878-.722-1.557-1.685-1.741-2.973-.269-1.105.028-2.294.524-3.384.41-.921.991-1.742 1.585-2.577 6.202-8.75 12.573-17.415 18.817-26.038 1.388-1.897 2.662-3.752 5.083-4.531l.368.17zM158.309 274.349c-1.062.41-1.982.764-3.157.453-.991-.227-2.096-.708-2.719-1.543-.75-.779-1.288-1.784-1.557-2.889-.142-1.161.028-2.293.439-3.2a14.9 14.9 0 0 1 2.265-3.596c5.338-7.815 10.506-15.702 15.844-23.517.963-1.43 1.982-2.733 3.001-4.036.637-.707 1.459-1.316 2.252-1.628.92-.354 1.954-.439 2.902-.354.637.057 1.175.312 1.784.68a4.6 4.6 0 0 1 1.402 1.288c.34.482.594 1.133.665 1.714.255.665.198 1.288.127 1.925-.169 1.133-.523 2.181-1.203 3.186-4.573 7.065-9.316 14.045-14.017 21.153a145 145 0 0 1-5.479 7.858c-.85.934-1.756 1.741-2.804 2.591l.269-.099zM228.041 51.039c.962 2.506-1.275 6.555-3.837 7.39a5.88 5.88 0 0 1-4.276-.48c-1.331-.709-2.365-1.827-2.789-3.328-.553-1.458-.269-3.087.424-4.417.708-1.331 1.827-2.365 3.327-2.79 1.459-.552 3.03-.41 4.361.298a6.26 6.26 0 0 1 2.931 3.27l-.127.057z"/></svg>