<svg xmlns="http://www.w3.org/2000/svg" width="300" height="300" fill="none" viewBox="0 0 300 300"><path fill="#ececf1" d="M220.178 127.902h-1.12c-.24-.83-.404-1.681-.49-2.54 0-3.94-.06-7.88 0-11.82a29 29 0 0 1 .49-3.61h1.12zM216.328 79.422a17.6 17.6 0 0 1-1.16-2.95c-.92-4.47-1.73-9-2.58-13.45.33.26.89.47 1 .79.92 5.19 1.82 10.4 2.74 15.61M217.978 143.153a13.3 13.3 0 0 1-.49-2.83q.15-4.87.56-9.74c0-.56.66-1.08 1-1.61zM213.078 170.951a848 848 0 0 1 1.61-6.57q-.81 3.29-1.61 6.57M218.569 105.553v-6c-.03 2.01-.01 4 0 6M209.867 180.793l2.16-6.57zM211.477 57.101c-.37-1.64-.75-3.27-1.12-4.91.37 1.59.75 3.22 1.12 4.91M207.139 188.963l2.11-4.41a816 816 0 0 0-2.11 4.41M204.957 194.952l2.1-3.87zM217.487 91.93l-.54-3.3c1.81.83 1.1 2.08.54 3.3M218.018 96.292c-.18-1.1-.35-2.2-.53-3.3 1.81.84 1.11 2.11.53 3.3M216.947 148.101c.33-1.1.67-2.21 1-3.31-.33 1.08-.71 2.19-1 3.31M216.889 151.332v-2.18c.03.72.02 1.45 0 2.18M215.787 157.872l.54-2.2zM212.508 59.801l-1-1.69zM216.338 154.601c.18-.56.35-1.11.53-1.66-.18.55-.35 1.1-.53 1.66M215.238 160.592c.18-.55.36-1.1.53-1.66-.16.56-.34 1.11-.53 1.66M212.569 61.951v-1.09c-.03.37-.01.73 0 1.09M214.697 163.321c.18-.38.35-.75.53-1.12-.18.37-.35.74-.53 1.12M212.049 173.162l1-1.15z"/><path fill="#3558a2" d="m150.717 160.252-3.8 7.55c8.31 1.89 10.41 4.16 11.77 12.67.331.056.669.056 1 0 7.65-2 12.16 2.25 14 9.46a11.5 11.5 0 0 1-.22 6.45c-.77 2.42-1.53 4.85-2.53 7.17-3.27 7.57-6.65 15.09-10 22.63-.8 1.81-2.42 2.37-4.15 2.72-5.69 1.14-11.39 2.24-17.08 3.36l-70.21 13.88c-9.43 1.87-18.85 3.8-28.3 5.58a20.7 20.7 0 0 1-5.67.13 3.77 3.77 0 0 1-3.5-3.3c-2.76-13.61-5.32-27.23-5-41.22.38-14.8 4.08-28.51 13.13-40.43 2.46-3.23 5.48-6 8.45-9.26-6.23-8.39-9.22-18-7.36-28.81s7.37-19.15 16.39-25.57c-.85-.69-1.54-1.22-2.2-1.79-7-6.08-5.79-17.21 2.26-21a11.55 11.55 0 0 1 12.8 1.48c4.15 3.23 5.66 7.62 4.83 12.81-.09.61-.26 1.22-.41 1.9 2.71.19 5.32.23 7.9.57 12.7 1.66 22.26 8.07 28 19.52a35.25 35.25 0 0 1 3.16 24.57c-.06.26-.13.52-.18.79 0 .08.05.17.16.48 1.19.65 2.52 1.39 3.87 2.11 8 4.31 14 10.77 19.23 18.13a24 24 0 0 0 2.86 2.78c1.84-3.85 3.53-7.24 5.07-10.7a4.13 4.13 0 0 0-.14-2.34q-4.77-20.92-9.6-41.84c-2-8.75-4-17.48-5.94-26.24-.88-4 .19-5.84 4.14-6.88 10.69-2.79 21.4-5.48 32.12-8.16q39.92-10 79.85-19.95c2.44-.61 4.62-.9 7 .54a6.82 6.82 0 0 1 3.49 4.52c2.65 10.72 5.38 21.43 8 32.15q4.48 18.06 8.91 36.14c1 4.11-.74 7-4.94 8.14-6.31 1.64-12.63 3.24-19 4.84q-46.86 11.86-93.74 23.71c-1.24.35-2.69.45-4.42.71m98.13-104-112.17 27.93c4.6 19.93 9.13 39.49 13.76 59.55.67-1.2 1.12-1.95 1.51-2.74q10.29-20.89 20.57-41.75c.397-.915.886-1.786 1.46-2.6a3.51 3.51 0 0 1 4.37-1.2 3.29 3.29 0 0 1 1.87 4.08 16.5 16.5 0 0 1-1.37 3.52 76946 76946 0 0 1-22.46 45.68c-.45.93-.87 1.88-1.58 3.42 37.37-9.46 74.07-18.74 110.86-28.13-5.65-22.8-11.21-45.18-16.82-67.76m-137.7 93.43c-5.5 10.47-13.81 17.48-25.3 20.36-11.66 2.92-22.23.13-31.88-7a45.7 45.7 0 0 0-8.48 9c-7.79 10.53-10.81 22.57-11.27 35.44-.31 8.66.92 17.18 2.29 25.69.6 3.73 1.32 7.45 2 11.09 2.83.2 65.26-12.24 67.07-13.29l-8.51-31.05c-2 1-3.75 1.85-5.56 2.61-2.22.92-4.27.26-5.15-1.55s-.13-3.6 1.82-4.86q.345-.215.72-.37c6.19-2.78 11.53-6.91 16.72-11.13a168 168 0 0 0 12.24-11.52c3-3 5.93-5.88 9.6-8a17 17 0 0 0 1.48-1c-4.96-6.21-10.38-11.45-17.79-14.42m24 21.39a5.13 5.13 0 0 0-5.14 1.08 99 99 0 0 0-7.48 6.7c-5.29 5.37-10.6 10.69-16.87 15-2.19 1.48-2.18 1.56-1.46 4.27q3.66 13.62 7.38 27.24c.4 1.47 1 2.89 1.46 4.46.84-.07 1.56-.06 2.25-.19 12.45-2.46 24.89-5 37.35-7.38a3.65 3.65 0 0 0 3-2.33c2.46-5.55 5-11.05 7.48-16.6 1-2.32 1.91-4.7 2.71-7.1a9.4 9.4 0 0 0 .7-4c-.54-4.31-2.78-6-6.64-3.79a32.3 32.3 0 0 0-4.47 3.5c-.56.46-1 1.09-1.55 1.52a3.55 3.55 0 0 1-4.31.16 3.625 3.625 0 0 1-1.4-4.09c.32-1 1-2 1.24-3a30.5 30.5 0 0 0 1.5-6.56c.17-3.66-2.34-5.24-5.81-4a5.9 5.9 0 0 0-2.1 1.21c-1.47 1.46-2.87 3-4.2 4.58-.87 1-1.48 2.3-2.36 3.33a3.58 3.58 0 0 1-4.87.89 3.79 3.79 0 0 1-1.25-4.82q.612-1.219 1.36-2.36c.92-1.56 1.93-3.07 2.72-4.69.362-.97.62-1.976.77-3zm-63-63.21c-2.27 2.08-4.14 4.1-6.31 5.71-4.73 3.5-9.58 6.85-14.46 10.15a4.48 4.48 0 0 0-2.08 2.66 30.3 30.3 0 0 0-.87 12.66 28.773 28.773 0 0 0 33 24.36c15.22-2.38 26.71-16 25.92-31.39-.14-2.79-.22-5.74-1.16-8.3a30.1 30.1 0 0 0-6.82-10.73 5.39 5.39 0 0 0-4-1.71 141 141 0 0 1-14.07-1.1 80 80 0 0 1-9.06-2.31z"/><path fill="#fff" d="M248.848 56.252c5.61 22.58 11.17 45 16.82 67.76-36.79 9.39-73.49 18.67-110.86 28.13.71-1.54 1.13-2.49 1.58-3.42q11.24-22.83 22.46-45.68a16.5 16.5 0 0 0 1.37-3.52 3.294 3.294 0 0 0-1.87-4.08 3.51 3.51 0 0 0-4.37 1.2 14.6 14.6 0 0 0-1.46 2.6 211572 211572 0 0 0-20.57 41.75c-.39.79-.84 1.54-1.51 2.74-4.63-20.06-9.16-39.62-13.76-59.55zm-36.64 35c.11.53.27 1.43.51 2.3.4 1.48.85 3 1.29 4.43 2 6.86 4 13.73 6.07 20.58 1.29 4.37 2.86 5.35 7.17 4.28q11-2.7 21.85-5.61c3.93-1 5-3 3.89-6.9q-3.45-12.42-7-24.84c-1.27-4.42-2.92-5.32-7.45-4.3-3.8.86-7.61 1.7-11.41 2.57s-7.6 1.72-11.37 2.7c-2.63.64-3.6 2-3.52 4.75zm-49.83 3.26c.65-.15 1.72-.34 2.77-.63l67.32-18.53a11.4 11.4 0 0 0 2.29-.84 3.652 3.652 0 0 0 1.94-4.11 3.45 3.45 0 0 0-3.71-2.55c-.903.056-1.795.217-2.66.48a63171 63171 0 0 0-67.28 18.68c-.969.236-1.911.57-2.81 1a3.35 3.35 0 0 0-2 4c.45 1.63 1.76 2.5 4.14 2.46zm38.77 27.59a7 7 0 0 1-1.36.67 3.77 3.77 0 0 0-3.063 2.93c-.105.49-.111.997-.017 1.49.5 1.94 2.28 3.1 4.73 2.63a74 74 0 0 0 8.39-2.21c1.77-.58 3.42-1.8 3.69-3.7a21.7 21.7 0 0 0-2.87-13.81 3.23 3.23 0 0 0-4.13-1.12 3.62 3.62 0 0 0-2 4c.16.84.41 1.67.67 2.7a11.42 11.42 0 0 1-5.76-5.93c-1.39-3-2.48-6.21-3.6-9.36-.76-2.13-1.26-4.35-2-6.47a3.57 3.57 0 0 0-4.29-2.47 3.75 3.75 0 0 0-2.64 4.23q.061.68.27 1.33c.91 3 1.76 6.09 2.78 9.09 2.03 6.33 4.86 12.17 11.2 16M111.147 149.682c7.41 3 12.83 8.21 17.79 14.36q-.713.539-1.48 1c-3.67 2.09-6.64 5-9.6 8a167 167 0 0 1-12.27 11.57c-5.19 4.22-10.53 8.35-16.72 11.13q-.375.155-.72.37c-2 1.26-2.65 3.14-1.82 4.86s2.93 2.47 5.15 1.55c1.81-.76 3.56-1.66 5.56-2.61l8.51 31.05c-1.81 1-64.24 13.49-67.07 13.29-.65-3.64-1.37-7.36-2-11.09-1.37-8.51-2.6-17-2.29-25.69.46-12.87 3.48-24.91 11.27-35.44a45.7 45.7 0 0 1 8.48-9c9.65 7.09 20.22 9.88 31.88 7 11.52-2.87 19.83-9.88 25.33-20.35"/><path fill="#eaecf1" d="M135.157 171.102a14.7 14.7 0 0 1-.76 3c-.79 1.62-1.8 3.13-2.72 4.69q-.748 1.141-1.36 2.36a3.79 3.79 0 0 0 1.25 4.82 3.58 3.58 0 0 0 4.87-.89c.88-1 1.49-2.29 2.36-3.33 1.33-1.58 2.73-3.12 4.2-4.58a5.9 5.9 0 0 1 2.1-1.21c3.47-1.28 6 .3 5.81 4a30.6 30.6 0 0 1-1.5 6.56c-.28 1-.92 2-1.24 3a3.62 3.62 0 0 0 1.4 4.09 3.55 3.55 0 0 0 4.31-.16c.57-.43 1-1.06 1.55-1.52a32 32 0 0 1 4.47-3.5c3.86-2.2 6.1-.52 6.64 3.79a9.4 9.4 0 0 1-.7 4c-.8 2.4-1.69 4.78-2.71 7.1-2.45 5.55-5 11-7.48 16.6a3.64 3.64 0 0 1-3 2.33c-12.46 2.41-24.9 4.92-37.35 7.38-.69.13-1.41.12-2.25.19-.51-1.57-1.06-3-1.46-4.46a5592 5592 0 0 1-7.35-27.26c-.72-2.71-.73-2.79 1.46-4.27 6.27-4.27 11.58-9.59 16.87-15a99 99 0 0 1 7.48-6.7 5.13 5.13 0 0 1 5.11-1.03M72.237 107.861c2.988.95 6.03 1.721 9.11 2.31 4.669.602 9.365.969 14.07 1.1a5.4 5.4 0 0 1 4 1.71 30.1 30.1 0 0 1 6.82 10.73c.94 2.56 1 5.51 1.16 8.3.79 15.43-10.7 29-25.92 31.39a28.76 28.76 0 0 1-29.22-13.667 28.8 28.8 0 0 1-3.78-10.693 30.3 30.3 0 0 1 .87-12.66 4.48 4.48 0 0 1 2.08-2.66c4.88-3.3 9.73-6.65 14.46-10.15 2.18-1.61 4.05-3.63 6.35-5.71m10 35.1c6.9-.21 11-2.48 13.13-9.26a6.56 6.56 0 0 0-.08-3.43 3.33 3.33 0 0 0-3.46-2.5 3.42 3.42 0 0 0-3.18 2.53c-.18.51-.26 1.05-.42 1.57a4.44 4.44 0 0 1-4.75 3.61 6.4 6.4 0 0 1-4.58-2c-.74-.67-1.39-1.45-2.18-2.05a3.49 3.49 0 0 0-4.72.13 3.383 3.383 0 0 0-.58 4.47 15.81 15.81 0 0 0 10.82 6.93m-9.71-17.67a3.74 3.74 0 0 0 3.406-2.475c.168-.469.241-.967.214-1.465A3.49 3.49 0 0 0 75 118.824a3.5 3.5 0 0 0-2.632-.883 3.643 3.643 0 0 0-3.48 3.77 3.53 3.53 0 0 0 3.63 3.58zm16.61-4.92a3.54 3.54 0 0 0-1-2.591 3.54 3.54 0 0 0-2.56-1.079 3.63 3.63 0 0 0-2.593.993 3.62 3.62 0 0 0-.885 3.933 3.58 3.58 0 0 0 1.93 1.997 3.677 3.677 0 0 0 5.097-3.253z"/><path fill="#3558a2" d="M212.238 91.212c0-2.75.92-4.1 3.55-4.79 3.77-1 7.58-1.82 11.37-2.7s7.61-1.71 11.41-2.57c4.53-1 6.18-.12 7.45 4.3q3.57 12.41 7 24.839c1.1 3.94 0 5.86-3.89 6.9q-10.89 2.91-21.89 5.61c-4.31 1.07-5.88.09-7.17-4.28-2-6.85-4-13.72-6.07-20.58-.44-1.47-.89-3-1.29-4.43-.23-.87-.39-1.77-.47-2.3m27-2.6-19 4.34 6.61 22.349 18.51-4.8zM162.377 94.471c-2.38 0-3.69-.83-4.17-2.5a3.35 3.35 0 0 1 2-4c.899-.429 1.841-.764 2.81-1q33.63-9.36 67.28-18.68a11.6 11.6 0 0 1 2.66-.48 3.45 3.45 0 0 1 3.71 2.55 3.649 3.649 0 0 1-1.94 4.11c-.731.361-1.499.643-2.29.84l-67.32 18.53c-1.02.26-2.09.48-2.74.63M201.148 122.101c-6.34-3.85-9.17-9.69-11.3-16-1-3-1.87-6.06-2.78-9.09a6.2 6.2 0 0 1-.27-1.33 3.75 3.75 0 0 1 2.64-4.23 3.57 3.57 0 0 1 4.29 2.47c.79 2.12 1.29 4.34 2 6.47 1.12 3.15 2.21 6.33 3.6 9.36a11.42 11.42 0 0 0 5.76 5.93c-.26-1-.51-1.86-.67-2.7a3.62 3.62 0 0 1 2-4 3.233 3.233 0 0 1 4.13 1.12 21.7 21.7 0 0 1 2.87 13.81c-.27 1.9-1.92 3.12-3.69 3.7a73 73 0 0 1-8.39 2.21c-2.45.47-4.23-.69-4.73-2.63a3.76 3.76 0 0 1 .611-2.857 3.76 3.76 0 0 1 2.469-1.563c.51-.167 1-.392 1.46-.67M82.238 142.962a15.82 15.82 0 0 1-10.82-7 3.38 3.38 0 0 1 .58-4.47 3.49 3.49 0 0 1 4.72-.13c.79.6 1.44 1.38 2.18 2.05a6.42 6.42 0 0 0 4.58 2 4.44 4.44 0 0 0 4.75-3.61c.16-.52.24-1.06.42-1.57a3.42 3.42 0 0 1 3.18-2.53 3.33 3.33 0 0 1 3.46 2.5 6.56 6.56 0 0 1 .08 3.43c-2.13 6.85-6.24 9.12-13.13 9.33M72.518 125.291a3.53 3.53 0 0 1-3.377-2.188 3.5 3.5 0 0 1-.264-1.392 3.64 3.64 0 0 1 3.48-3.77c.476-.042.955.016 1.408.168a3.479 3.479 0 0 1 2.373 3.242 3.743 3.743 0 0 1-3.62 3.94M89.127 120.373a3.682 3.682 0 0 1-5.107 3.252 3.57 3.57 0 0 1-1.931-1.996 3.616 3.616 0 0 1 .886-3.934 3.612 3.612 0 0 1 2.593-.992 3.55 3.55 0 0 1 3.56 3.67"/><path fill="#979fbb" d="m239.178 88.611 6.18 21.89-18.51 4.8-6.61-22.35z"/></svg>