<svg xmlns="http://www.w3.org/2000/svg" width="28" height="28" viewBox="0 0 28 28" fill="none">
<path d="M19.8333 1.40933L21.3733 4.2945L24.2573 5.83333L21.3733 7.37217L19.8333 10.2573L18.2957 7.37217L15.4105 5.83217L18.2957 4.2945L19.8333 1.40933ZM12.4448 10.8885L18.2782 14L12.4448 17.1115L9.3345 22.9448L6.223 17.1115L0.389664 14L6.223 10.8885L9.3345 5.05517L12.4448 10.8885ZM13.3198 14L10.7217 12.614L9.3345 10.0135L7.94733 12.614L5.348 14L7.94733 15.386L9.3345 17.9865L10.7205 15.386L13.3198 14ZM22.9448 19.0552L21.0012 15.4093L19.0563 19.0552L15.4105 21L19.0563 22.9448L21.0012 26.5907L22.9448 22.9448L26.5907 21L22.9448 19.0552Z" fill="#ffffff"/>
</svg>