<svg xmlns="http://www.w3.org/2000/svg" width="42" height="54" fill="none" viewBox="0 0 42 54"><path fill="#3558a2" d="M37.168 33.389 23.076 21.642a1 1 0 0 0-.207.097q-1.389 1.224-2.773 2.454a4 4 0 0 1-.382.328.74.74 0 0 1-.973-.017 25 25 0 0 1-1.599-1.727c-.305-.367-.255-.698.073-1.063.224-.25.476-.476.719-.709.618-.596 1.253-1.179 1.854-1.789a5.4 5.4 0 0 1 1.394-1.018 30 30 0 0 1 4.121-1.78 17.4 17.4 0 0 1 6.405-.932c1.388.048 2.755.359 4.027.915.134.06.274.105.437.17.412-.37.802-.737 1.208-1.095.581-.511.872-.511 1.442.014.571.526 1.19 1.082 1.779 1.632.657.619.666.89.064 1.542l-.497.536c-.373.412-.379.412-.088.853a11.3 11.3 0 0 1 1.61 4.101 17.1 17.1 0 0 1-.044 6.14 21.3 21.3 0 0 1-1.06 3.89.9.9 0 0 0 0 .643c.081.227.1.472.058.71-.158.727-.358 1.442-.552 2.167a1.01 1.01 0 0 1-.536.688.72.72 0 0 0-.396.565c-.5 2.028-1.03 4.05-1.504 6.084-.583 2.49-1.121 4.987-1.684 7.48-.12.53-.179.59-.725.549a18 18 0 0 1-1.83-.237c-2.17-.396-4.328-.812-6.506-1.218l-9.31-1.762-3.251-.6c-.206-.037-.394-.097-.653-.16 0-.483-.023-.945 0-1.404q.118-2.071.274-4.142c.086-1.138.206-2.267.3-3.41.095-1.14.19-2.266.26-3.412.07-1.175.103-2.353.171-3.53a.58.58 0 0 0-.179-.499 1.03 1.03 0 0 1-.299-.871c.058-.654.118-1.305.206-1.954.111-.909.619-1.286 1.513-1.097 1.855.4 3.726.812 5.589 1.223q2.93.642 5.861 1.29l5.53 1.236q1.971.434 3.946.866.15.01.299 0m3.155-3.133q.069-.153.117-.315c.357-2.125.394-4.243-.15-6.345-.99-3.815-3.815-6.331-7.854-6.82-2.213-.27-4.36.06-6.47.728q-.1.055-.189.13c4.845 4.201 9.657 8.387 14.546 12.622m-6.515 12.192-14.86-3.266c0 1.61-.188 3.122-.155 4.688l14.061 2.54c.313-1.338.629-2.62.954-3.962M19.034 37.76l15.112 3.318.825-3.36c-.559-.25-15.28-3.526-15.762-3.503-.055 1.169-.117 2.34-.175 3.545m13.484 10.032c-1.574-.289-3.091-.57-4.61-.847a632 632 0 0 0-4.63-.824c-1.513-.266-3.022-.58-4.576-.802-.078 1.2-.193 2.325-.125 3.489l4.385.812c1.443.27 2.9.563 4.355.81s2.87.618 4.363.773c.28-1.144.546-2.232.838-3.411M15.97 30.05a5.4 5.4 0 0 0-.206 1.608c0 .249.152.364.385.395.185.025.375.027.556.066q3.034.674 6.063 1.356l14.727 3.304c.398.088.798.165 1.25.257l.483-1.869zm24.07 1.832L24.228 18.16c-1.03.355-1.816.754-2.105 1.094l17.33 14.426c.208-.639.392-1.201.587-1.805zM16.2 33.457c-.028.453-.057.86-.078 1.265-.05 1.006-.093 2.011-.148 3.015-.013.223-.083.441-.101.662-.083 1.003-.153 2.009-.233 3.013-.134 1.714-.28 3.429-.412 5.152-.037.517 0 1.03 0 1.617l1.896.338c.235-4.946.466-9.801.696-14.693zm20.147 4.52c-1.1 4.519-2.188 8.984-3.283 13.473.51.18 1.046.282 1.587.3.074-.286.142-.535.206-.784.637-2.51 1.018-5.076 1.682-7.58.15-.573.225-1.167.363-1.746.08-.34.237-.661.33-1 .175-.646.33-1.3.488-1.95.029-.122.035-.248.056-.413zM18.36 22.327l.911.954c.92-.865 1.876-1.574 2.77-2.473l-1.125-.931zm18.972-5.125 1.697 1.413.6-.708-1.54-1.4zM28.82 5.476c.238.122.412.207.568.291a2.6 2.6 0 0 1 1.237 1.4c.65 1.726-.889 3.204-2.238 3.023-.998-.134-1.92-1.12-1.995-2.203-.023-.334 0-.668 0-1.043q-.165.038-.32.109c-1.498.894-2.436 2.182-2.72 3.916-.056.348-.054.707-.078 1.059-.025.398-.207.618-.555.66a.64.64 0 0 1-.68-.539 2.3 2.3 0 0 1-.037-.502c0-1.781.721-3.263 1.91-4.534a5.12 5.12 0 0 1 2.98-1.665 1 1 0 0 0 .619-.427 6.48 6.48 0 0 1 3.928-2.314q.616-.081 1.236-.035c.168.016.33.068.476.152a.57.57 0 0 1 .318.604.534.534 0 0 1-.454.505 2.7 2.7 0 0 1-.618 0c-1.422-.06-2.527.593-3.578 1.543m-.864 1.237c-.197.29-.302.633-.301.983a1.16 1.16 0 0 0 .688 1.127c.132.066.281.09.427.068a.97.97 0 0 0 .688-1.08c-.111-.632-.73-1.096-1.502-1.096zM11.831 20.504v-2.242c0-.28-.043-.559-.062-.839-.06-.92-.474-1.552-1.41-1.787a.64.64 0 0 1-.535-.634c0-.297.206-.497.618-.635a9 9 0 0 0 1.294-.513c.86-.452 1.27-1.237 1.443-2.158.082-.412.084-.855.132-1.282q.021-.335.105-.66A.598.598 0 0 1 14.5 9.54a.62.62 0 0 1 .106.426c-.027.505-.078 1.005-.128 1.508q0 .284-.09.553c-.268.579-.03 1.078.216 1.578.242.472.656.834 1.156 1.01.295.118.596.206.895.324a.71.71 0 0 1 .515.608c.033.317-.173.519-.412.674-.51.313-1.045.587-1.528.937-.941.684-1.576 1.59-1.735 2.772-.12.888-.206 1.779-.32 2.68-.03.277-.075.555-.082.836a.68.68 0 0 1-.661.633c-.334-.025-.573-.285-.588-.701-.016-.468 0-.936 0-1.404v-1.459zm3.104-4.777-1.581-1.515-1.197.899q.344.545.618 1.127.198.587.32 1.195zM4.404 21.667a4.8 4.8 0 0 0 .587 2.916c.235.428.563.798.96 1.08q.236.153.446.338c.381.371.346.824-.09 1.144a4 4 0 0 1-.592.317 3.45 3.45 0 0 0-1.684 1.733c-.239.542-.194 1.136-.206 1.709s.03 1.084.047 1.626q.015.168 0 .336a.6.6 0 0 1-.573.583.62.62 0 0 1-.618-.538 4 4 0 0 1-.037-.67 17.6 17.6 0 0 0-.365-3.503 4 4 0 0 0-.39-.981 1.12 1.12 0 0 0-1.011-.602H.767c-.413-.041-.654-.222-.703-.525-.06-.355.152-.557.412-.72a3 3 0 0 1 .348-.179c1.43-.643 2.061-1.826 2.247-3.314.043-.352.064-.709.121-1.059.074-.451.3-.653.645-.618.347.035.507.25.555.665.01.093.008.215.012.262m-.748 3.207L2.37 26.316l1.004 1.42c.24-.226.478-.461.73-.678.25-.216.504-.412.73-.593zM10.152 9.384a.627.627 0 0 1 .045-1.253.62.62 0 0 1 .618.643.64.64 0 0 1-.663.61M15.372 4.343a.62.62 0 0 1-.649-.618.6.6 0 0 1 .565-.641.63.63 0 1 1 .084 1.257zM18.033 7.762a.63.63 0 0 1-.64.633.62.62 0 0 1-.634-.629.643.643 0 0 1 .64-.633.62.62 0 0 1 .633.629M17.777.617a.618.618 0 1 1-1.237.002.618.618 0 0 1 1.236-.002"/><path fill="#3558a2" fill-opacity=".12" d="M40.322 30.257c-4.88-4.236-9.7-8.421-14.545-12.623q.088-.075.19-.13c2.108-.668 4.255-.998 6.468-.728 4.04.489 6.865 3.005 7.854 6.82.544 2.102.507 4.22.15 6.345a3 3 0 0 1-.117.316M33.808 42.448c-.326 1.342-.635 2.624-.958 3.961l-14.061-2.533c-.033-1.566.152-3.078.154-4.688zM19.034 37.76l.169-3.545c.482-.023 15.203 3.252 15.761 3.503l-.824 3.36zM32.518 47.792l-.838 3.409c-1.492-.163-2.918-.524-4.363-.773-1.445-.25-2.902-.54-4.355-.81l-4.385-.812c-.068-1.164.047-2.29.125-3.49 1.554.223 3.063.537 4.576.803l4.63.824c1.52.27 3.036.552 4.61.849"/><path fill="#fff" d="m15.97 30.042 23.265 5.125-.485 1.87c-.451-.093-.85-.17-1.249-.258l-14.743-3.312q-3.03-.684-6.063-1.356c-.181-.04-.37-.041-.556-.066-.233-.03-.388-.146-.386-.396a5.4 5.4 0 0 1 .217-1.607M40.04 31.874c-.195.604-.379 1.167-.587 1.805l-17.33-14.426c.29-.34 1.064-.74 2.105-1.094zM16.2 33.448l1.624.36c-.23 4.893-.462 9.759-.697 14.695l-1.895-.338c0-.577-.031-1.1 0-1.618.121-1.715.267-3.43.412-5.152.08-1.004.15-2.01.233-3.013.018-.22.088-.44.1-.662.056-1.003.1-2.009.149-3.015.016-.397.045-.803.074-1.257M36.347 37.968l1.428.303c-.02.163-.027.288-.056.412-.158.651-.313 1.304-.488 1.952-.093.337-.25.659-.33.999-.138.58-.206 1.173-.363 1.746-.663 2.503-1.044 5.07-1.681 7.58-.064.249-.132.498-.206.785a5.3 5.3 0 0 1-1.587-.301z"/><path fill="#e6eefe" d="m18.36 22.32 2.556-2.457 1.123.932c-.894.904-1.855 1.613-2.77 2.473zM37.332 17.195l.756-.695 1.54 1.4-.6.708z"/><path fill="#fff" d="m14.935 15.727-1.855 1.706a10 10 0 0 0-.32-1.195q-.274-.582-.618-1.127l1.197-.899zM3.656 24.874l1.178 1.595c-.226.181-.486.379-.731.593s-.489.451-.73.678L2.37 26.32z"/></svg>