<svg xmlns="http://www.w3.org/2000/svg" width="329" height="190" fill="none" viewBox="0 0 329 190"><path fill="#102185" d="M212.721 158.262c-.836 3.2-1.345 6.004-2.265 8.623-4.616 13.125-13.933 21.025-27.553 22.611-12.474 1.402-23.263-3.879-29.932-16.211-1.954-3.851-3.185-7.929-3.412-12.205-.708-.057-1.543-.269-2.251-.326l-20.346.326c-3.271.014-6.697.17-9.954.184l-20.034.071c-2.266-.043-2.28.099-3.186 2.435-4.39 13.706-13.62 22.47-27.907 25.146-16.027 3.101-32.437-6.343-36.133-23.829-.099-.581-.184-1.289-.268-2.011-.85-.07-1.671-.424-2.662-.495l-12.276-1.006c-2.817-.226-5.607-.877-8.254-1.529-.85-.07-1.53-.41-2.054-1.019-.523-.467-1.033-1.218-1.274-1.812-.467-1.175-.792-2.478-.976-3.625-1.36-7.787-1.558-15.759-1.898-23.73-.283-6.98.142-13.903 1.133-20.785 1.586-12.516 7.136-22.993 17.67-30.242 4.375-3.058 8.877-6.103 13.507-8.85a108.4 108.4 0 0 0 24.565-20.87c2.974-3.454 6.627-6.413 10.535-8.947 5.819-3.498 12.402-3.965 18.93-3.993 16.041.17 32.097 1.77 48.04 3.2 7.051.58 14.088 1.43 21.125 2.293 4.361.496 8.509 1.968 12.304 4.135 3.256 1.826 6.031 4.474 7.744 7.872 1.6 2.973 3.356 5.819 4.829 8.778 4.233 9.005 11.751 16.155 20.954 20.035a122.7 122.7 0 0 0 32.579 9.896l9.557 1.346c1.416.113 2.79.65 3.851 1.585 1.062.935 1.813 2.138 2.124 3.582.623 2.889 1.091 5.777 1.289 8.623.439 6.853.863 13.847 1.161 20.686.311 6.697.325 13.379.354 20.062-.071 4.404-2.266 6.924-6.712 7.405-6.017.652-12.02 1.006-18.023 1.515-4.998.298-9.727.765-14.725 1.218l-.128-.156zm4.092-58.913-3.582-1.43c-5.098-1.983-10.35-3.682-15.419-5.947-11.822-4.8-21.465-13.819-26.916-25.344-1.09-2.365-2.478-4.46-3.709-6.697a15.5 15.5 0 0 0-4.673-5.352c-2.024-1.303-4.219-2.195-6.626-2.393-5.324-.864-10.676-1.444-16.028-2.01-6.357-.524-12.558-1.02-18.901-1.685a415 415 0 0 0-37.323-2.195c-2.959-.24-5.989.368-8.778 1.416s-5.338 2.69-7.348 4.8c-1.076 1.047-2.166 2.237-3.257 3.285-5.918 6.343-12.106 12.643-19.327 17.599-5.706 3.794-11.27 7.603-17.103 11.114A35.8 35.8 0 0 0 16.1 95.908c-2.945 4.729-4.645 9.996-5.112 15.631-.892 11.001-.948 22.087 0 33.103.27 2.01.524 4.021.935 5.904l16.934 1.373c.453-.382.608-.523.608-.523.029-.425.227-.978.411-1.53 2.251-8.481 7.688-15.857 15.036-20.657 8.694-5.536 18.067-7.334 27.922-4.403 4.445 1.217 8.665 3.553 11.963 6.654 3.441 3.115 5.947 7.164 7.575 11.554.92 2.633 1.7 5.252 2.62 8.028 18.505-.482 36.812-.27 54.893-.779 5.437-16.184 16.013-25.684 33.046-25.429 14.612.198 23.532 9.302 28.53 22.923 10.123-.453 20.133-1.345 30.172-2.379-.127-7.108-.142-13.932-.878-20.671-1.133-.085-1.982-.156-2.803-.51-2.662-.496-5.154-1.274-7.774-2.195-3.313-1.26-6.116-3.341-8.31-6.074s-3.639-5.975-4.064-9.43c-.382-2.307-.765-4.601-1.133-7.05l.156-.128zM84.429 156.748l.057-.708c1.472-14.513-11.993-23.702-22.937-21.904-10.945 1.812-17.826 7.787-21.224 18.152-1.331 4.148-1.274 8.707.1 12.799 3.256 10.633 14.271 14.937 22.172 13.875 10.477-1.274 21.096-11.355 21.69-22.101l.156-.128zm117.701-1.062c-.028-4.828-1.642-9.515-4.743-13.31-1.798-2.421-4.318-4.474-7.065-5.691a18.1 18.1 0 0 0-8.948-1.728c-5.706.241-11.03 2.79-14.924 7.023-7.121 7.235-8.566 19.751-3.539 27.694 3.907 6.145 9.429 9.713 16.551 9.586 11.794-.029 21.507-9.473 22.81-23.716l-.156.127zm37.662-41.952c.694-3.214.538-6.627-.198-9.812-3.087-.538-6.159-1.076-9.245-1.6l-1.841-.156c0 7.108 2.619 9.727 11.284 11.426zM305.573 117.104c-.311.396-.368.962-.538 1.373-.863 7.178-1.869 14.201-2.732 21.365-.977 8.58-2.096 17.019-3.087 25.599-.34 4.092-.665 8.184-1.005 12.275-.156 1.841-.595 3.781-1.02 5.593-.835 3.2-2.69 5.041-5.946 5.055a70.4 70.4 0 0 1-17.189-1.827 4.4 4.4 0 0 1-2.435-1.472c-.651-.765-1.147-1.657-1.204-2.662-.184-1.288-.354-2.591-.255-3.851.963-10.01 2.039-19.865 3.144-29.861l3.355-32.536.241-2.959c-1.6-1.26-3.313-1.119-5.012-1.26-5.933-.482-7.759-2.478-8.736-9.657l.255-3.1c1.26-15.518 2.393-31.064 3.497-46.455 1.104-13.55 1.784-27.127 2.747-40.691a35 35 0 0 1 1.472-7.547c.382-1.246 1.048-2.336 1.94-2.973.92-.779 2.237-1.232 3.37-1.289 2.435-.226 4.856-.311 7.249-.113 9.6.779 19.199 1.557 28.785 2.35 3.525.284 7.178.864 10.675 1.445 3.511.566 6.499 3.936 5.508 7.404a58 58 0 0 0-1.232 9.84c-1.373 16.793-2.732 33.585-4.389 50.363-1.048 12.842-2.506 25.514-3.837 38.327a17.5 17.5 0 0 1-.736 3.78c-.241 1.261-.907 2.337-1.94 2.974-1.062.764-2.223 1.104-3.483.849l-7.759-.637.255.312zm-31.871-15.108c6.187.793 11.78 1.954 17.571 2.28 5.791.467 11.454 2.35 17.741 2.01.354-2.676.991-5.182 1.203-7.716l5.777-65.583c.354-4.375.991-8.721 1.487-12.955l.495-6.074c-.41-.17-.679-.34-1.104-.368-9.855-1.09-19.709-2.18-29.436-3.115-2.393-.198-4.686-.099-6.966.142-2.619 30.469-4.531 60.853-6.456 91.379l-.284-.028zm13.72 12.913c-.864 7.178-1.713 14.06-2.563 20.955-.708 6.909-1.387 13.521-1.94 20.303s-2.109 13.606-2.265 20.842c2.421-.085 4.474.934 6.669.113.042-.567.085-1.133.269-1.543.963-10.152 1.925-20.162 3.03-30.3.92-7.745 2.251-15.447 3.313-23.305.17-2.124.92-4.332-.028-6.541l-6.768-.552z"/><path fill="#102185" d="m66.278 107.546-2.251-.184c-4.262-.056-6.343-2.364-5.862-6.583.41-3.37 1.133-6.867 1.827-10.223.764-4.205 1.529-8.254 2.293-12.46.496-2.52.836-5.04 1.473-7.546.269-1.543 1.218-2.747 2.28-3.653a6.17 6.17 0 0 1 4.219-1.218c4.12.057 8.226.1 12.346.156 5.82.043 11.511-.056 17.33 0 3.979.043 7.943.085 11.922.114 5.663.183 11.341.353 16.877.382 9.217.184 18.449.226 27.68.269 4.545.085 7.193 2.435 7.391 6.994.227 4.134.312 8.41.524 12.686.127 3.71.397 7.42.51 11.129.014 1.557.028 3.129-.099 4.686-.326 3.95-2.323 5.919-6.457 6.003-2.563.071-5.125.156-7.674.086-4.545-.085-8.934-.156-13.493-.1l-24.58.128c-3.695-.014-7.39-.029-11.213-.057l-26.109-.425c-2.987.043-5.975.085-8.806 0l-.128-.155zm38.045-31.135-31.206-.552c-1.317 7.42-2.591 14.414-3.908 21.847l7.25.028c6.824 0 13.634-.028 20.317-.042 2.265.042 3.016-.467 3.483-2.704.892-3.908 1.614-7.674 2.506-11.582.453-2.096.906-4.191 1.558-6.98zm49.838 21.253c-.269-7.122-.581-13.833-.878-20.672l-22.71-.283c-1.558 6.98-3.101 13.663-4.531 20.799zM119.94 76.539c-1.133-.085-1.841-.156-2.549-.07-.708.084-1.727.282-2.449.367-.977 3.328-1.827 6.81-2.408 10.322-.41 3.37-2.095 6.513-1.543 10.25l4.12.057a1110 1110 0 0 0 4.829-20.912zM304.879 88.914c-.623 7.617-7.079 13.634-14.541 12.884-7.32-.736-12.601-5.72-12.19-14.201.156-1.84.58-3.653 1.274-5.154.85-1.642 1.954-3.1 3.328-4.276 1.373-1.16 3.001-2.024 4.757-2.59 1.755-.567 3.469-.709 5.295-.567 1.699.141 3.37.552 4.856 1.387 1.501.694 2.832 1.799 4.007 3.172 1.176 1.232 1.912 2.718 2.478 4.46.581 1.614.722 3.327.581 5.026l.155-.127zm-10.604-.58c.141-1.7-.751-3.045-2.011-3.144-.849-.07-1.586.297-2.336.807a4.5 4.5 0 0 0-1.303 2.025c-.056.708.17 1.43.538 2.038.368.61 1.062.935 1.756 1.133.849.071 1.572-.156 2.336-.807.609-.524.963-1.345 1.034-2.194v.141zM282.141 55.952c.085-2.832 1.161-5.593 3.045-7.702s4.544-3.47 7.277-3.809c2.435-.226 4.814.113 7.164 1.005 2.195.892 4.205 2.478 5.763 4.305a13.1 13.1 0 0 1 2.803 9.174c-.269 3.243-1.94 6.372-4.389 8.453-5.791 4.786-12.516 3.667-17.415-.708-1.459-1.26-2.747-2.916-3.441-4.828a13.75 13.75 0 0 1-.793-5.89zm12.871-1.076-.85-.07c-.283-.029-.581.24-.736.367-.156.128-.453.383-.482.666s-.184.552-.07.85c-.057.707.028 1.415.41 1.882.383.595 1.062.935 1.756 1.133l.849.07a.76.76 0 0 0 .736-.367c.298-.113.454-.383.624-.666.028-.283.184-.552.354-.82l.084-1.134c.029-.283-.226-.722-.481-1.033-.255-.312-.524-.609-.793-.779a2.5 2.5 0 0 0-1.104-.368l-.312.255zM310.642 28.726c.042 6.4-6.429 12.686-14.046 12.063-3.384-.269-6.527-1.812-8.891-4.276-2.351-2.605-3.498-5.819-3.37-9.217.863-7.037 7.023-12.927 13.904-11.936 7.447 1.034 13.054 5.466 12.275 13.224l.128.156zm-10.591-.722.071-.85c.028-.283-.241-.58-.368-.736-.114-.297-.383-.453-.666-.481l-.849-.071c-1.699-.142-2.903.765-3.016 2.166-.043.567.184 1.147.58 1.614.383.453.793.78 1.36.822.708.056 1.429-.17 1.897-.553.594-.382.934-1.061.991-1.77z"/></svg>