<svg xmlns="http://www.w3.org/2000/svg" width="90" height="101" fill="none" viewBox="0 0 90 101"><g clip-path="url(#a)"><path fill="#3558a2" d="M21.338 70.311c-1.133.129-2.303.524-3.404.33-1.745-.307-2.832.276-4.08 1.456-2.303 2.2-5.527 2.214-8.189.46-.4-.285-.863-.471-1.35-.542a4.1 4.1 0 0 1-2.323-.845 4.1 4.1 0 0 1-1.411-2.025c-1.24-3.43-.46-6.475 2.003-9.097 1.147-1.212 2.662-1.488 4.26-1.405.493.027.986.142 1.57.23 1.244-1.442 2.764-2.595 4.758-2.875s3.772.46 5.241 1.768c1.322-.39 2.575-.84 3.864-1.107a5.54 5.54 0 0 1 5.527 1.864 2.05 2.05 0 0 0 1.672.818c2.27.037 3.887 1.699 4.016 3.972.041.657 0 1.322 0 2.02 2.74.221 5.405 1.003 7.829 2.296 5.526 2.82 8.216 7.476 9.013 13.358.566 4.15-.442 8.36-2.828 11.806a16.85 16.85 0 0 1-10.068 6.824c-8.142 1.919-16.8-2.842-19.688-11.02-2.266-6.43-1.248-12.399 3.173-17.661.11-.129.221-.253.323-.386a.7.7 0 0 0 .092-.239m11.744.588c-.806.836-1.53 1.708-2.368 2.443-2.459 2.153-4.983 4.215-8.29 4.996-.46.106-.92.184-1.335.326a1.41 1.41 0 0 0-1.151 1.437c0 1.488-.17 3.003 0 4.468.92 7.007 7.368 13.023 15.308 12.206 8.29-.859 14.102-9.34 11.486-18.134a.98.98 0 0 0-.971-.799c-.71-.02-1.417-.107-2.11-.262-4.145-1.111-7.82-3.044-10.57-6.681m-2.833-5.62c.033-.58.097-1.117.079-1.65-.033-.918-.392-1.33-1.235-1.156-1.566.316-2.533-.359-3.348-1.575a2.62 2.62 0 0 0-2.828-1.204 9.3 9.3 0 0 0-2.703.919c-1.501.845-2.694.68-3.947-.505-1.561-1.47-3.224-1.378-4.771.114q-.484.488-.894 1.038c-1.04 1.332-1.672 1.497-3.224.721a2.19 2.19 0 0 0-2.464.212C3.362 63.368 2.662 66.224 3.501 68c.17.363.695.868.967.818 1.294-.24 2.123.459 3.03 1.161a3.045 3.045 0 0 0 3.942.065 6.7 6.7 0 0 0 1.479-1.497c1.151-1.575 1.561-1.764 3.472-1.19a5.25 5.25 0 0 0 5.066-.95c.46-.363.921-.726 1.34-1.125a2.49 2.49 0 0 1 3.197-.404 4.99 4.99 0 0 0 4.255.4m5.472 3.466c.59 2.328 6.166 5.62 8.75 5.575-1.649-2.622-5.665-5.625-8.75-5.575m-14.052 6.457c2.787-.579 7.738-4.243 8.94-6.498-3.87.91-6.761 3.017-8.94 6.498M17.653 17.935c.557-.39 1.023-.725 1.492-1.051a13.8 13.8 0 0 1 5.361-2.296c3.298-.625 5.347 1.253 5.034 4.592q.014.166.074.321c.46.092.92.175 1.404.285 5.195 1.198 8.866 4.284 11.132 9.05a2.54 2.54 0 0 0 1.497 1.52c.53.241 1.01.581 1.413 1.002.806.725 1.571 1.497 2.35 2.254q.225.208.4.46a1.55 1.55 0 0 1-.065 1.96 1.53 1.53 0 0 1-1.952.202 7 7 0 0 1-.894-.68l-.976-.83q-.03.326 0 .652c.285 1.143.433 2.218-.267 3.352-.41.67-.355 1.611-.603 2.401-2.087 6.553-6.315 10.893-13.19 12.293-6.448 1.318-13.085-1.873-16.424-7.765a17.07 17.07 0 0 1-2.082-11.204c.06-.356-.019-.72-.22-1.02-1.677-1.91-1.672-4.078-1.05-6.35a11.55 11.55 0 0 1 3.767-5.782c.658-.57 1.013-1.074.649-2.011a4 4 0 0 1 0-1.837 1.665 1.665 0 0 1 1.566-1.529c.741 0 1.243.46 1.474 1.414.018.161.055.313.11.597m-1.888 25.357a11.5 11.5 0 0 0 3.657 4.624c4.25 3.215 8.875 3.623 13.54 1.185 4.905-2.572 7.369-6.847 7.585-12.366a3.1 3.1 0 0 0-.976-2.296c-.115.592-.226 1.033-.281 1.483-.11.868-.161 1.74-.29 2.604-.157 1.037-.834 1.722-1.667 1.758s-1.47-.532-1.769-1.497c-.147-.459-.244-.964-.46-1.726-.258.776-.434 1.313-.622 1.837-.341.978-1.046 1.441-1.875 1.244a1.52 1.52 0 0 1-1.17-1.33 1.5 1.5 0 0 1 .07-.621 34 34 0 0 1 1.796-4.89 3.32 3.32 0 0 1 1.722-1.516c.548-.202 1.308.16 1.907.266l2.266-1.993a12.25 12.25 0 0 0-4.725-5.544 12.3 12.3 0 0 0-7.047-1.89c-.367.006-.722.13-1.013.353-2.27 2.085-4.509 4.211-6.664 6.236.18 2.489-.08 4.99-.77 7.389a18 18 0 0 1-3.223 6.69zM13.048 30.55a9 9 0 0 0 .99-.67 4798 4798 0 0 0 11.74-10.686q.267-.259.46-.578c.322-.519.166-.918-.428-.969a2.7 2.7 0 0 0-1.23.129c-1.257.532-2.63.955-3.684 1.754a63 63 0 0 0-5.771 4.968 9.6 9.6 0 0 0-1.787 2.815 4.62 4.62 0 0 0-.29 3.237m3.472 1.59c-1.45.748-1.957 1.129-2.017 1.763-.166 1.754-.46 3.517.074 5.51 1.114-2.397 1.934-4.647 1.943-7.274M75.425 45.923c.92-1.093 1.62-2.006 2.39-2.879q.9-1.043 1.916-1.974a2 2 0 0 1 2.197-.46 1.94 1.94 0 0 1 1.28 1.97c-.065 1.488-.244 2.976-.382 4.464-.028.317-.07.638-.12 1.111.856-.377 1.561-.726 2.303-.992a16 16 0 0 1 2.62-.808c1.755-.312 2.837 1.024 2.174 2.686a15 15 0 0 1-1.382 2.521c-.87 1.378-1.81 2.691-2.726 4.05a18 18 0 0 1 1.911 6.094c1.06 8.665-4.753 16.935-13.457 18.317-7.023 1.112-15.576-3.283-17.773-12.398-1.193-4.927-.295-9.496 2.533-13.689a2.23 2.23 0 0 0 .341-1.717c-.29-2.351-.46-4.72-.626-7.086a2.06 2.06 0 0 1 1.04-2.121c.876-.46 1.718-.202 2.46.344 1.414 1.038 2.8 2.113 4.196 3.169.16.124.331.225.658.459l1.948-5.051q.246-.773.594-1.506a1.8 1.8 0 0 1 1.466-1.054 1.81 1.81 0 0 1 1.648.741c.322.425.59.887.796 1.378.65 1.41 1.276 2.81 1.995 4.431m9.247 17.845c-.156-1.112-.24-2.237-.46-3.325a13.07 13.07 0 0 0-4.946-7.756 12.1 12.1 0 0 0-4.744-2.185 14.3 14.3 0 0 0-3.615-.203c-.636.043-1.267.144-1.884.303-.216.06-.484.134-.963.304-1.285.459-2.256.918-2.335.95-1.842.919-9.671 13.418-3.43 20.664 3.131 3.641 7.142 5.189 11.868 4.289 6.222-1.212 10.367-6.52 10.51-13.041M64.358 48.954l-2.58-1.837.346 3.311zM79.86 45.74l-.157-.079-2.123 2.609 1.773.835c.18-1.198.34-2.282.507-3.365m-8.534-1.208-1.014 2.553h2.179zm12.462 8.238c.507-.73.921-1.378 1.382-2.002l-.18-.184-2.303 1.029zM69.723 8.237c-1.621-.753-2.257-2.03-2.45-3.618a2.91 2.91 0 0 1 1.29-2.92c1.013-.722 2.095-1.03 3.278-.4a4.92 4.92 0 0 1 2.584 2.916c.07.23.17.459.313.826.493-.308.921-.546 1.304-.817.24-.161.423-.404.668-.565a1.565 1.565 0 0 1 1.961.087 1.376 1.376 0 0 1 .185 1.929 11.4 11.4 0 0 1-1.695 1.64 2.15 2.15 0 0 1-.894.458c-2.183.5-3.712 1.934-5.107 3.55a13.4 13.4 0 0 1 3.889 3.896 13.35 13.35 0 0 1 1.987 5.127c1.226 6.782-3.725 13.546-10.565 14.593-7.106 1.084-15-4.004-15.285-12.811-.208-6.507 4.283-11.48 10.132-12.692a11.9 11.9 0 0 1 4.854-.06c1.336.252 2.381-.482 3.55-1.139m-5.637 4.087a9.47 9.47 0 0 0-6.788 2.57 9.42 9.42 0 0 0-2.953 6.614 10.1 10.1 0 0 0 2.78 7.268 10.17 10.17 0 0 0 7.127 3.165 9.56 9.56 0 0 0 6.773-2.578 9.5 9.5 0 0 0 3.004-6.579c.217-5.18-3.96-10.52-9.943-10.46"/><path fill="#979fbb" d="M33.082 70.899c2.763 3.637 6.447 5.57 10.592 6.681.693.155 1.4.243 2.11.262a.99.99 0 0 1 .971.799c2.616 8.794-3.187 17.275-11.486 18.134-7.935.817-14.401-5.199-15.309-12.206-.188-1.465 0-2.98 0-4.468a1.4 1.4 0 0 1 1.152-1.437c.433-.142.889-.22 1.335-.326 3.293-.78 5.817-2.842 8.29-4.996.816-.735 1.539-1.607 2.345-2.443m.28 18.827a9.7 9.7 0 0 0 1.884-.386c1.271-.523 2.303-1.336 2.565-2.81A1.465 1.465 0 0 0 37 84.931a1.48 1.48 0 0 0-1.758.373c-.147.147-.257.326-.391.487-.755.89-1.598.964-2.473.188-.309-.276-.557-.62-.87-.89a1.55 1.55 0 0 0-1.953-.152 1.49 1.49 0 0 0-.42 1.91 5.4 5.4 0 0 0 4.228 2.879m-1.119-8.39c.013-.42-.143-.829-.432-1.135a1.6 1.6 0 0 0-1.11-.5 1.67 1.67 0 0 0-1.122.485 1.66 1.66 0 0 0-.486 1.118c-.005.421.154.828.443 1.135.29.306.687.49 1.11.51a1.65 1.65 0 0 0 1.121-.488c.298-.3.468-.703.476-1.124m5.56.193a1.5 1.5 0 0 0-.894-1.47 1.51 1.51 0 0 0-2.018.84 1.5 1.5 0 0 0 .361 1.612 1.509 1.509 0 0 0 2.55-.982"/><path fill="#eaecf1" d="M30.25 65.279a5 5 0 0 1-4.252-.423 2.49 2.49 0 0 0-3.196.404c-.428.4-.884.763-1.34 1.125a5.25 5.25 0 0 1-5.066.951c-1.911-.574-2.303-.386-3.473 1.19a6.7 6.7 0 0 1-1.478 1.496 3.046 3.046 0 0 1-3.942-.064c-.922-.693-1.737-1.4-3.03-1.162-.273.05-.798-.459-.968-.817-.838-1.777-.138-4.633 1.414-5.809a2.19 2.19 0 0 1 2.464-.211c1.547.776 2.178.61 3.224-.721q.41-.551.893-1.038c1.566-1.488 3.224-1.584 4.772-.115 1.252 1.185 2.445 1.35 3.946.505a9.3 9.3 0 0 1 2.704-.918 2.63 2.63 0 0 1 2.828 1.203c.815 1.217 1.782 1.892 3.348 1.575.843-.174 1.202.253 1.234 1.157.014.547-.05 1.093-.083 1.672M35.72 68.745c3.086-.05 7.102 2.953 8.751 5.575-2.584.046-8.161-3.247-8.75-5.575M21.67 75.202c2.178-3.481 5.065-5.589 8.939-6.498-1.203 2.255-6.153 5.92-8.94 6.498M15.756 43.292a18 18 0 0 0 3.224-6.681c.693-2.395.96-4.893.787-7.38 2.155-2.025 4.394-4.132 6.664-6.235.291-.224.646-.348 1.013-.354a12.3 12.3 0 0 1 7.047 1.89 12.25 12.25 0 0 1 4.725 5.544L36.95 32.07c-.599-.105-1.382-.459-1.907-.266a3.32 3.32 0 0 0-1.722 1.515 34 34 0 0 0-1.796 4.89 1.51 1.51 0 0 0 .532 1.689c.169.126.363.216.569.263.829.198 1.533-.266 1.874-1.244.189-.537.364-1.074.622-1.837.193.763.29 1.254.46 1.727.3.964.986 1.534 1.769 1.497s1.51-.721 1.667-1.759c.129-.863.18-1.736.29-2.603.055-.46.166-.891.281-1.484a3.1 3.1 0 0 1 .977 2.296c-.222 5.51-2.68 9.795-7.586 12.366-4.665 2.439-9.29 2.016-13.54-1.184a11.5 11.5 0 0 1-3.684-4.643m12.95-14.157a1.445 1.445 0 0 0-1.42.875 1.4 1.4 0 0 0-.113.576 1.42 1.42 0 0 0 .86 1.423c.182.078.378.117.577.115a1.504 1.504 0 0 0 1.47-1.538 1.37 1.37 0 0 0-.824-1.334 1.4 1.4 0 0 0-.54-.117zm6.572-.041a1.415 1.415 0 0 0-.894-1.304 1.4 1.4 0 0 0-.547-.101 1.47 1.47 0 0 0-1.374.898 1.46 1.46 0 0 0 .328 1.606 1.466 1.466 0 0 0 2.487-1.1"/><path fill="#979fbb" d="M13.048 30.55a4.62 4.62 0 0 1 .29-3.215 9.6 9.6 0 0 1 1.787-2.815 63 63 0 0 1 5.77-4.968c1.069-.8 2.441-1.222 3.685-1.754a2.7 2.7 0 0 1 1.23-.129c.594.055.75.46.428.97a2.9 2.9 0 0 1-.46.578 9978 9978 0 0 1-11.74 10.685 9 9 0 0 1-.99.648"/><path fill="#fff" d="M16.52 32.138c0 2.631-.829 4.877-1.943 7.256-.534-1.975-.24-3.738-.074-5.51.06-.616.566-.997 2.017-1.746M70.893 50.3a11.86 11.86 0 0 1 8.359 2.388 13.07 13.07 0 0 1 4.946 7.755c.235 1.089.318 2.214.46 3.325-.142 6.52-4.287 11.829-10.523 13.018-4.725.919-8.75-.647-11.868-4.289-5.527-6.428-3.832-16.53 3.43-20.663zm1.372 17.353a5.4 5.4 0 0 0 3.325-1.254 1.556 1.556 0 0 0 .415-2.108A1.59 1.59 0 0 0 74 63.787c-2.726 1.066-2.726 1.066-4.605-1.166a1.497 1.497 0 0 0-2.671 1.148c.063.41.21.802.433 1.153 1.1 1.717 2.634 2.741 5.121 2.755zm2.763-8.486a1.674 1.674 0 0 0-1.57 1.607 1.592 1.592 0 0 0 3.178-.083 1.55 1.55 0 0 0-1.575-1.502zm-4.117.381a1.41 1.41 0 0 0-.897-1.297 1.42 1.42 0 0 0-1.544.336 1.412 1.412 0 0 0 1.06 2.394 1.39 1.39 0 0 0 1.318-.872c.069-.174.101-.36.095-.547zM64.358 48.954l-2.234 1.474-.346-3.31zM79.86 45.74c-.166 1.083-.327 2.167-.507 3.366l-1.773-.836 2.123-2.608zM71.326 44.532l1.165 2.553h-2.179zM83.788 52.77l-1.087-1.157 2.303-1.029.18.184c-.452.633-.89 1.272-1.396 2.002"/><path fill="#979fbb" d="M64.086 12.324c5.987-.073 10.173 5.28 9.943 10.438a9.5 9.5 0 0 1-3.004 6.578 9.56 9.56 0 0 1-6.773 2.578 10.2 10.2 0 0 1-7.127-3.165 10.14 10.14 0 0 1-2.78-7.268 9.4 9.4 0 0 1 2.961-6.599 9.45 9.45 0 0 1 6.78-2.562m.617 14.35a10 10 0 0 0 1.492-.29 1.436 1.436 0 0 0 1.023-1.643 1.376 1.376 0 0 0-1.424-1.29c-1.745.197-3.173-.12-4.25-1.654-.369-.528-1.096-.55-1.718-.22a1.41 1.41 0 0 0-.682 1.708c.09.316.233.614.424.882 1.179 1.722 2.892 2.41 5.135 2.507m-2.376-6.264a1.6 1.6 0 0 0 1.435-1.035c.073-.196.106-.404.098-.613a1.643 1.643 0 0 0-1.713-1.483 1.568 1.568 0 0 0-.908 2.706c.294.276.684.428 1.088.425m6.093.501a1.5 1.5 0 0 0-.448-1.06 1.51 1.51 0 0 0-1.067-.437 1.56 1.56 0 0 0-1.472.956c-.08.192-.12.398-.118.605a1.45 1.45 0 0 0 .922 1.39c.184.074.382.108.58.103a1.57 1.57 0 0 0 1.48-.952c.081-.191.123-.397.123-.605"/><path fill="#3558a2" d="M33.363 89.726a5.41 5.41 0 0 1-4.228-2.879 1.49 1.49 0 0 1 .419-1.91 1.55 1.55 0 0 1 1.953.151c.313.271.561.616.87.891.875.776 1.718.703 2.473-.188.134-.16.244-.34.392-.487a1.475 1.475 0 0 1 2.57 1.226c-.25 1.474-1.295 2.296-2.566 2.81-.613.19-1.244.32-1.884.386M32.243 81.337a1.64 1.64 0 0 1-.476 1.124c-.297.3-.699.475-1.122.488a1.63 1.63 0 0 1-1.552-1.644c.014-.42.188-.82.486-1.118.299-.298.7-.471 1.122-.485.421.013.82.193 1.11.5.29.306.445.714.432 1.135M37.802 81.53a1.5 1.5 0 0 1-1.519 1.403 1.51 1.51 0 0 1-1.488-1.436 1.5 1.5 0 0 1 .924-1.45 1.508 1.508 0 0 1 2.083 1.482M28.716 29.135a1.39 1.39 0 0 1 1.298.901c.065.176.093.363.083.55a1.505 1.505 0 0 1-1.469 1.539 1.43 1.43 0 0 1-1.363-.956 1.4 1.4 0 0 1-.074-.583 1.43 1.43 0 0 1 .446-1.055 1.44 1.44 0 0 1 1.078-.396M35.288 29.094a1.43 1.43 0 0 1-.867 1.35 1.445 1.445 0 0 1-1.986-1.026 1.43 1.43 0 0 1 .607-1.485c.238-.16.518-.244.804-.244a1.43 1.43 0 0 1 1.328.862c.073.172.112.356.114.543M72.28 67.676c-2.488 0-4.017-1.038-5.131-2.755a3 3 0 0 1-.433-1.153 1.49 1.49 0 0 1 .883-1.62 1.5 1.5 0 0 1 1.788.472c1.902 2.232 1.902 2.232 4.605 1.166a1.59 1.59 0 0 1 2.004.505 1.553 1.553 0 0 1-.415 2.108 5.4 5.4 0 0 1-3.302 1.277M75.06 59.19a1.55 1.55 0 0 1 1.48.925c.082.19.126.393.128.6a1.591 1.591 0 0 1-3.178.083 1.684 1.684 0 0 1 1.57-1.607M70.944 59.561a1.41 1.41 0 0 1-.91 1.284 1.42 1.42 0 0 1-1.537-.347 1.413 1.413 0 0 1 1.065-2.388 1.39 1.39 0 0 1 1.298.902c.065.175.094.362.084.55M64.703 26.674c-2.243-.097-3.956-.785-5.135-2.507a2.9 2.9 0 0 1-.424-.882 1.405 1.405 0 0 1 .682-1.708c.621-.33 1.35-.308 1.718.22 1.077 1.534 2.505 1.837 4.25 1.653.36-.011.709.117.974.358.266.24.427.575.45.933a1.43 1.43 0 0 1-1.023 1.643q-.735.201-1.492.29M62.327 20.41a1.58 1.58 0 0 1-1.583-1.48 1.57 1.57 0 0 1 1.403-1.651c.422-.018.834.125 1.153.401s.52.663.56 1.082a1.58 1.58 0 0 1-.928 1.505c-.19.087-.396.136-.605.144M68.42 20.911a1.55 1.55 0 0 1-.993 1.45 1.6 1.6 0 0 1-.61.107 1.46 1.46 0 0 1-1.398-.915 1.45 1.45 0 0 1-.104-.578 1.545 1.545 0 0 1 .98-1.453c.194-.076.401-.113.61-.108.4-.001.783.156 1.067.436s.445.662.448 1.061"/></g><defs><clipPath id="a"><path fill="#fff" d="M0 .958h90v99.083H0z"/></clipPath></defs></svg>