<svg xmlns="http://www.w3.org/2000/svg" width="175" height="145" fill="none" viewBox="0 0 175 145"><path fill="#3558a2" d="M165.044 51.825c.87 4.529 1.74 8.883 2.523 13.325.174 1.132.348 2.352.348 3.484.087.784 0 1.568-.522 2.177-.435.61-1.044 1.133-1.74 1.394-2.088.784-4.351 1.394-6.613 1.829-2.697.435-4.263-.697-4.873-3.397-.957-4.006-1.653-8.013-2.436-12.019-.174-1.045-.348-2.177-.609-3.222 0-.349-.522-.523-.87-.784l-.435.174c.174 1.22.435 2.439.609 3.57.348 3.05.783 6.098.957 9.146.174 2.526-.957 4.093-3.393 4.79a25.2 25.2 0 0 1-5.134.784c-2.436.174-3.828-.958-4.438-3.397-.87-3.484-1.566-6.967-2.349-10.364-.174-.61-.348-1.22-.522-1.916l-9.832 1.916c-5.569 1.045-11.138 2.177-16.706 3.31-.436 0-.87.174-1.219.348-.348.261-.609.523-.783.958-3.393 6.88-5.133 8.535-12.181 11.67a26.1 26.1 0 0 1-4.612 12.02c.522.61 1.044 1.132 1.566 1.742l34.718 35.709c.609.522 1.044 1.132 1.566 1.742 1.131 1.654 1.131 3.135 0 4.267-.609.61-1.392.871-2.262.871s-1.653-.348-2.262-.871a45 45 0 0 1-2.872-2.874c-.348-.435-.609-.871-.87-1.306-.957.696-1.653 1.132-2.349 1.654l-8.092 6.533c-2.872 2.264-4.438 2.177-6.961-.436-2.002-2.09-4.003-4.268-6.004-6.445-2.35-2.526-2.175-4.442.522-6.619l7.57-6.01c.696-.522 1.305-1.045 2.175-1.829a2439 2439 0 0 0-20.708-21.25c-2.002 1.218-3.742 2.438-5.57 3.396a16.73 16.73 0 0 1-9.396 2.003c-2.35-.174-4.612-1.045-6.44-2.526-1.827-1.48-3.306-3.397-4.002-5.661l-4.611-.522c-.697 1.045-1.306 2.09-2.002 2.96-1.479 2.004-3.306 3.572-5.481 4.79a16.6 16.6 0 0 1-6.961 2.091c-.61 0-1.131.174-1.654.523-.522.348-.87.784-1.218 1.219-2.262 3.919-4.611 7.752-6.786 11.671-5.395 9.58-10.79 19.074-16.184 28.654-.436.784-.87 1.481-1.393 2.177-.435.697-1.044 1.133-1.827 1.481-.783.261-1.566.348-2.35.087-.695-.174-1.391-.609-1.914-1.219a3.12 3.12 0 0 1-.783-2.09c-.348-2.7-.609-5.313-.87-8.013a93 93 0 0 0-1.218-8.187c-.174-1.045-.174-2.09.174-3.048s.957-1.829 1.74-2.439c1.131-1.045 2.437-2.003 3.655-3.048-.522-1.655-.957-3.223-1.392-4.791-.696-2.787 0-4.441 2.523-6.009 1.392-.871 2.871-1.655 4.35-2.439.784-.435 1.48-.871 2.263-1.306-.174-1.132-.261-2.178-.435-3.136-.174-1.132 0-2.351.435-3.31a5.8 5.8 0 0 1 2.35-2.438c1.043-.61 2.087-1.394 3.218-2.177-2.436-3.832-3.306-8.536-2.436-13.065.957-4.354 3.394-8.186 6.961-10.8-.957-3.309-2.175-6.532-2.784-9.754-2.959-16.461.783-30.919 13.312-42.502C45.403 9.235 53.582 6.1 62.022 6.36c8.702.174 16.271 3.484 22.623 9.494 6.004 5.748 10.094 13.064 11.921 21.164 0 .696.348 1.306.696 1.829s.87.958 1.48 1.306c2.349 1.306 4.35 3.222 5.829 5.487.261.523.783.958 1.305 1.22a2.23 2.23 0 0 0 1.827 0c7.222-1.481 14.531-3.049 21.753-4.442l37.154-7.49c2.959-.61 5.395.696 6.265 3.657a57 57 0 0 1 1.566 7.665c.348 2.09-.87 3.57-3.045 4.093-1.566.349-3.133.61-4.612.871-.522.087-.957.348-1.653.523zm-75.09-14.806C88.3 29.529 82.47 20.122 73.42 15.68a25.2 25.2 0 0 0-11.747-2.874c-4.09 0-8.092.958-11.746 2.787-4.699 2.265-8.701 5.836-11.66 10.19-6.09 8.884-8.092 18.726-6.352 29.351a27.2 27.2 0 0 0 3.046 9.407c5.917-1.22 11.224-.175 15.923 3.483s6.787 8.884 6.613 14.98h1.914c.087 0 .261-.174.435-.26 1.305-7.84 5.656-13.674 12.008-18.116-5.134-12.803 2.35-27 18.098-27.61m-77.18 94.933h.435c.261-.261.522-.697.783-1.045 4.96-8.71 9.833-17.419 14.792-26.216 1.74-3.048 3.48-6.183 5.134-9.232 1.218-2.264 2.871-3.135 5.22-2.874 2.002.262 4.09-.087 5.83-1.045 1.827-.958 3.307-2.352 4.264-4.093l-5.134-2.613c-3.045 1.654-4.698 1.742-6.526.261-1.74-1.48-2.088-3.397-1.044-6.445l-4.437-5.574c-1.567 1.045-2.785 2.613-3.48 4.442-1.48 4.006-1.045 7.751 1.74 11.06 2 2.352 1.914 4.356-.175 6.185a23.2 23.2 0 0 1-3.741 2.787c-1.305.783-2.088 1.654-1.653 3.222.087.348 0 .784 0 1.219.435 3.049-.957 4.965-3.568 6.271-1.305.697-2.61 1.394-3.915 2.178-.522.261-.957.696-1.48 1.045.522 1.306.87 2.526 1.393 3.658a4.64 4.64 0 0 1 .348 3.222c-.261 1.133-.87 2.091-1.74 2.7-1.045.958-2.263 1.742-3.22 2.787-.261.174-.435.436-.61.697a1.47 1.47 0 0 0-.26.871c.348 2.264.783 4.442 1.131 6.532zm78.658-87.704c-5.307-1.655-11.485 1.48-13.748 6.88a13.95 13.95 0 0 0-.26 9.58c1.044 3.136 3.219 5.749 6.09 7.404 2.61 1.48 5.743 1.916 8.701 1.306 2.959-.697 5.57-2.439 7.31-4.877 3.654-5.052 2.349-13.761-1.567-16.374-.26 3.048-.522 5.922-.696 8.796-.174 1.742-.87 3.31-2.088 4.53a7.64 7.64 0 0 1-4.438 2.35c-1.653.35-3.306.088-4.872-.696-1.48-.784-2.698-2.003-3.394-3.484-1.653-3.396-.174-8.187 3.046-9.406 1.914-.697 3.828-1.22 5.916-1.829v-4.355zm75.526-2.7-58.82 11.932v1.654c0 .349.174.697.349 1.045l58.993-11.67-.609-2.962zM66.721 82.655c5.569-1.219 10.615-4.093 14.444-8.187l-5.656-4.267c-4.437 2.438-8.266 7.664-8.788 12.454m20.796-5.225a38.75 38.75 0 0 1-20.274 11.758c.783 1.045 1.914 1.741 3.133 2.177 1.218.435 2.523.435 3.741.087 4.699-1.045 8.18-3.832 10.963-7.752 1.48-1.741 2.35-3.919 2.437-6.183zm23.406 41.37-4.09 3.222-4.437 3.484 3.741 3.919 8.788-7.054zM50.624 80.915c.348-6.01-6.352-11.497-12.182-10.017 3.046 4.442 7.31 7.926 12.182 10.103zM159.91 67.328c1.392-.871 1.479-.871 1.305-1.916-.261-1.568-.609-3.049-.87-4.617-.435-2.264-.957-4.616-1.392-6.88-.174-.784-.609-1.045-1.566-.523.783 4.616 1.653 9.145 2.523 14.023zM142.421 55.83c0 3.048 1.392 9.145 2.349 10.19 0-2.438-.87-8.71-1.392-9.667-.087-.175-.522-.262-.957-.436zM8.598 25.523a56 56 0 0 1 1.827-5.4c2.002-4.529 5.134-8.535 9.05-11.67a17.2 17.2 0 0 1 3.48-2.004c.696-.348 1.48-.348 2.176-.174.696.261 1.305.697 1.74 1.393.783 1.394.435 2.787-.957 4.007-.436.435-1.045.784-1.48 1.132-4.698 3.658-8.179 8.013-9.484 13.935 0 .261-.087.436-.174.697-.696 1.916-2.001 2.787-3.741 2.526-1.567-.262-2.524-1.655-2.524-4.442zM.506 16.465c0-.349.261-1.22.522-2.09C2.594 9.583 4.769 5.141 8.946 2.093 9.99 1.31 11.034.7 12.253.264c.609-.26 1.218-.348 1.827-.173q.913.26 1.566 1.045c.435.522.696 1.22.696 1.829 0 .61-.261 1.306-.696 1.829a4.8 4.8 0 0 1-1.566 1.393c-3.742 2.265-5.482 5.923-6.961 9.842-.261.697-.348 1.393-.61 2.003-.173.784-.695 1.394-1.391 1.83-.696.435-1.48.609-2.263.435C1.29 19.948.42 18.729.506 16.29z"/></svg>