<svg xmlns="http://www.w3.org/2000/svg" width="149" height="141" fill="none" viewBox="0 0 149 141"><path fill="#3558a2" d="M134.465 128.858c-12.321-3.088-24.352-5.863-36.267-9.277-4.044-1.16-7.023-.333-10.436 1.66-10.278 6.102-20.794 11.98-31.121 17.988-1.131.718-2.494 1.21-3.82 1.334-1.348.195-2.747.065-4.066-.334-14.292-4.073-28.65-7.936-42.963-11.936-4.617-1.261-4.595-1.334-4.646-6.125C.886 86.619.69 51.085.43 15.536c.029-1.58.195-3.124.456-4.711.21-1.681 1.457-2.283 2.892-2.522C13.206 6.716 22.613 5.2 31.955 3.664c2.878-.485 5.683-.985 8.618-1.152 3.247-.217 3.964.913 3.587 4.131-.413 3.588-.601 7.168-.739 10.842.05.32.196.595.34.863.167.203.472.45.725.601 2.08.638 4.226 1.066 6.364 1.493.594.03 1.167-.094 1.616-.34C65.38 13.818 78.267 7.607 91.153 1.172c2.08-1.11 4.458-1.443 6.806-.95 9.153 2.044 18.343 3.95 27.591 5.943 6.197 1.29 12.379 2.652 18.51 3.92 3.639.733 4.632 1.95 4.313 5.719-.979 13.343-2.022 26.664-3.015 40.079-1.761 23.337-3.45 46.695-5.233 70.098 0 .753-.123 1.398-.341 2.094q-.728 2.394-3.261 1.732a17 17 0 0 1-2.037-.775l-.029-.16zm-79.274 4.921c.435-.174.776-.297 1.203-.464 7.617-4.341 15.17-8.697 22.736-13.125.29-.21.514-.449.623-.797l.297-.972c-.123-5.037-.616-10.117-.442-15.14.181-2.826.942-5.551 2.094-8.073 1.675-3.733 5.27-5.82 8.727-7.712.521-.217 1.036-.666 1.348-1.18.311-.516.5-1.139.442-1.682.195-7.82.413-15.713.696-23.584.13-4.13.202-8.349.347-12.777-3.03.74-5.812 2.16-8.197 4.24-6.805 5.645-13.516 11.48-20.394 17.104-2.631 2.152-5.472 4.008-8.284 6.03-.384.26-1.037.666-1.051.964-.116 2.848-.087 5.732-.08 8.69.254-.073.573-.131.82-.204 5.667-2.435 10.566.885 10.19 7.06-.392 6.472-3.806 11.19-9.321 14.35-1.196.695-1.935 1.377-1.718 2.884.037.616.03 1.145 0 1.74l.015 22.742-.051-.087zm-5.226-26.004c-1.362-.261-2.391-.355-3.457-.602-5.399-1.427-10.335-3.616-13.552-8.465-2.073-3.138-2.465-7.044-.646-9.291 2.247-2.877 5.313-3 8.589-2.297 2.508.463 5.044 1.087 7.566.043 1.044-.442 1.58-.957 1.551-2.102-.087-2.45-.101-4.877.03-7.269.144-.486-.051-1.08-.312-1.457a2.2 2.2 0 0 0-1.24-.906c-3.536-1.311-6.95-2.805-10.509-4.051-10.523-3.754-21.09-1.906-31.81-.334-.144.486-.137.943-.122 1.4.05 9.486.195 18.93.174 28.402-.015 1.283.478 1.66 1.609 1.935 8.16 1.812 16.321 3.631 24.482 5.443 3.827.87 4.798 2.153 4.508 6.081s-.653 7.834-1.037 11.806c-.29 3.247 1.117 5.342 4.211 6.291l2.841.87c2.305.63 4.639 1.188 7.175 1.819l-.029-27.142-.029-.16zm88.421-28.881c.906-12.611 1.811-24.99 2.826-37.716-2.029.442-3.602.87-5.196 1.137-6.712 1.131-13.401 2.421-20.185 3.298-5.211.681-10.429.899-15.647 1.348-1.008.072-1.66.478-1.653 1.689-.29 12.342-.717 24.641-1.007 36.984-.007.529.312 1.457.725 1.587 2.225.906 4.529 1.536 6.762-.05a21.4 21.4 0 0 0 2.855-2.385c7.096-7.074 15.575-9.03 25.2-7.299 1.725.305 3.457.834 5.421 1.356l-.087.05zm-83.144-8.915c.435-.174.884-.413 1.312-.58.97-.688 1.935-1.377 2.833-2.087 6.871-5.856 13.67-11.734 20.518-17.517 3.276-2.783 6.842-5.262 11.103-6.306 2.03-.442 2.537-1.348 2.508-3.246-.044-4.56.21-9.11.319-13.923-2.348-.26-4.733-.384-7.074-.42a12.3 12.3 0 0 0-4.856 1.246c-1.478.61-2.703 1.145-3.855-.268-.92-1.188-.5-2.58 1.188-3.877 2.472-1.9 5.306-2.472 8.379-2.363 2.16.13 4.247.24 6.472.391l.442-15.328c-.21-.065-.457.014-.71.087-12.553 6.088-25.099 12.176-37.6 18.358-.182.094-.363.195-.494.377-.13.188-.268.377-.326.58-.072 3.696 0 7.428-.022 11.211 1.827-.275 3.378-.63 4.864-.782 5.03-.58 9.827-.174 13.908 3.348 1.688 1.428 2.138 2.928 1.043 4.262s-2.45 1.072-4.24-.008c-1.608-.95-3.355-2.167-5.073-2.232-3.145-.13-6.363.478-9.581.855-.268.145-.493.377-.718.616-.152.254-.239.537-.275.9-.058 8.848-.022 17.654-.044 26.895l-.029-.16zM18.308 47.99c.37.036.595.03.877.116 4.907.065 6.733 1.53 7.857 6.27.072.253.239.449.405.652.167.202.42.355.631.42 3.769 1.304 5.74 4.03 6.066 7.921-.058.435.116.87.326 1.16.283.312.674.507 1.044.55 2.03.544 4.022 1.233 6.03 1.849 2.732.986 5.457 1.971 8.443 3.116l.044-26.895c-7.545 1.63-14.539 1.688-20.344-4.102-5.523-5.48-7.11-12.183-6.385-19.764L5.683 15.18c.044 9.262.174 18.242.196 27.345 8.24-2.407 11.299-1.015 12.378 5.377zm80.318-6.349c3.957-.304 7.551-.645 11.096-.848 8.769-.42 17.575-1.217 26.04-3.855 1.413-.399 2.848-.645 4.29-.66 1.008-.072 1.53-.29 1.573-1.413.377-6.175.819-12.328 1.334-18.467.079-1.26-.406-1.638-1.421-1.797-2.58-.486-5.117-1.109-7.718-1.53a2.25 2.25 0 0 0-1.03.138c-.34.124-.63.334-.927.551-3.225 3.11-6.146 6.458-9.466 9.386-5.544 4.747-12.248 6.102-19.35 5.522-1.262-.08-2.508-.463-4.008-.768-.16 4.726-.254 9.248-.413 13.741m38.542 53.103c.196-3.124.5-5.834.522-8.632a3 3 0 0 0-.326-1.16 2 2 0 0 0-.87-.87c-9.415-3.413-18.083-2.58-25.417 4.806-2.08 2.094-4.443 3.87-7.371 4.261-2.058.283-4.29-.101-6.559-.116-.16 6.472-.384 13.147-.536 19.844.014.457.782 1.153 1.29 1.232 4.269 1.153 8.494 2.218 12.784 3.305.696.21 1.501.304 2.791.551-.653-1.334-1.044-2.29-1.544-3.124-.602-1.014-1.29-1.986-1.979-2.957-1.645-2.551-1.478-5.073.319-7.479 2.349-3.225 5.494-4.834 9.379-5.617a61 61 0 0 0 9.429-2.573c2.587-1.03 4.986-2.413 8.102-1.464zm-2.312 28.852.319-1.036c.471-6.755 1.022-13.481 1.493-20.235.196-2.363-1.095-3.363-3.196-2.189-4.276 2.326-8.973 3.319-13.72 4.218-1.602.268-3.08 1.406-4.435 2.356-1.356.949-1.232 2.051-.37 3.449 1.189 1.805 2.819 3.668 3.029 5.704.341 3.588 2.399 4.298 5.327 4.892 3.871.732 7.61 1.877 11.604 2.943l-.051-.087zm-8.233-112.039L99.778 5.918c-.123 5.117-.261 9.77-.493 14.48-.08 1.494.399 2.168 1.855 2.617 8.726 2.443 21.026-2.812 25.497-10.994 0 0 .044-.138-.014-.457zm-98.82 8.87c.514 3.27.79 6.082 1.572 8.741 2.044 6.69 7.617 10.292 14.568 9.61 1.558-.13 3.109-.492 4.66-.623 1.03-.137 1.406-.63 1.355-1.71-.101-3.138-.108-6.327.015-9.465 0-1.218-.5-1.595-1.558-1.841-2.283-.471-4.588-1.102-6.944-1.595l-13.813-3.167.137.044zM5.965 65.284l22.699-1.848c-.188-2.102-1.174-3.088-3.515-3.124-3.392-.05-4.124-.884-3.595-4.356.044-.137.087-.275.036-.37.399-1.543-.427-2.326-1.891-2.246-1.08.05-2.218.304-3.24.674-2.747 1.05-4.638-.435-4.21-3.334.072-.732.427-1.384.5-2.123.282-1.66-.566-2.37-2.182-2.03-3.348.797-4.798 2.551-4.762 5.892 0 1.972 0 3.943.08 5.936.101 2.385.072 4.718.058 6.994l.022-.073zm24.163 64.691c.442-5.399.783-9.994 1.29-14.611.167-1.544-.348-2.08-1.776-2.363-5.276-1.087-10.509-2.304-15.748-3.529a333 333 0 0 0-7.625-1.573c.058 5.023.08 9.647.174 14.299.073.254.217.522.457.747.232.225.492.377.768.464 3.464 1.058 6.994 1.913 10.458 2.971 3.878 1.189 7.762 2.377 12.06 3.689l-.05-.087zm61.756-37.34c-3.297 2.103-6.363 3.965-6.667 7.661-.428 4.871-.124 9.814-.116 14.742.08.478.16.957.384 1.478 3.826-1.761 5.82-4.66 5.993-8.697l.066-.21.384-14.886-.05-.087zM38.703 7.847 15.43 11.564l-.029.595 22.641 5.261zm11.292 94.631-.03-10.313c-3.587 1.326-6.82.493-10.016.043-1.08-.18-2.26.218-3.384.406.26 1.138.536 2.21.884 3.305a4 4 0 0 0 1.203 1.507c3.008 3.044 6.842 4.139 11.313 5.132l.022-.073zm5.247-1.044c3.595-2.84 5.812-5.877 5.733-10.067a2 2 0 0 0-.486-1.137c-.283-.32-.565-.63-.892-.805-1.087-.406-4.283 2.102-4.297 3.385-.073 2.71-.051 5.363-.08 8.69l.022-.073z"/><path fill="#3558a2" d="m14.286 116.863-1.32-.405c-1.434-.515-2.42-1.501-2-3.117s1.646-2.152 3.211-1.819c3.32.79 6.66 1.507 9.944 2.435 1.522.464 2.558 1.544 2.123 3.225-.529 1.732-1.783 2.109-3.283 1.798-2.928-.595-5.718-1.37-8.603-2.102l-.072-.022zM16.323 124.082l-4.508-1.377c-1.805-.551-2.733-1.972-2.218-3.407.58-1.645 1.92-2.065 3.515-1.58 3.073.863 6.095 1.638 9.139 2.573 2.008.616 2.82 1.928 2.334 3.515s-1.87 2.153-3.907 1.609l-4.363-1.333z"/></svg>