<svg xmlns="http://www.w3.org/2000/svg" width="181" height="188" fill="none" viewBox="0 0 181 188"><path fill="#3558a2" d="M72.394 149.816c-.226-2.88-.49-5.477-.66-8.065-.407-5.374-.246-10.775.387-16.121.453-3.843 1.19-7.659 1.822-11.389 1.634-8.934 1.946-18.028 1.02-27.075-.481-3.957-.878-7.81.057-11.691.529-2.88 1.898-5.572 4.042-7.603 1.388-1.265 3.107-2.106 5.033-2.351 1.36-.218 2.663.028 3.938.463 1.162.613 2.2 1.501 2.919 2.625 1.558 2.087 2.304 4.646 2.19 7.206-.245 3.683-.49 7.356-.83 11.03-.492 4.127-.331 8.424.32 12.494.737 3.419 1.18 6.894 1.72 10.379.453 2.625.51 5.288.103 7.904a177 177 0 0 1-1.737 9.878c-1.106 6.148-1.445 12.192.103 18.368.34 1.181.463 2.531.68 3.882.369.141.822.283 1.2.33 4.07.199 8.216.501 12.315.416 3.513.038 7.007.264 10.454.859 1.029.123 2.04.435 3.116-.585-1.256-3.853-3.919-7.026-7.508-8.877-.283-.038-.481.037-.774.094-4.335 2.049-8.339.529-12.192-1.445-.623-.359-1.039-.888-1.331-1.586-.218-.595-.218-1.36-.048-2.002a3.5 3.5 0 0 1 1.124-1.483c.519-.416 1.105-.538 1.776-.548.377.047.84.104 1.605.095-1.265-1.389-2.361-2.56-3.447-3.835a4.1 4.1 0 0 1-.954-1.539 3.8 3.8 0 0 1-.18-1.728c.057-.472.209-.926.539-1.36a2.05 2.05 0 0 1 1.058-.916 2.32 2.32 0 0 1 1.463-.302c.473.056.935.113 1.389.359.802.472 1.586 1.048 2.181 1.681 2.937 3.295 6.498 6.195 10.436 8.272 1.246.718 2.38 1.615 3.881 2.55-.217-2.21-.718-4.363-1.426-6.441-1.36-3.777-2.72-7.545-4.08-11.323-.132-.491-.462-.906-.802-1.237-.34-.33-.784-.566-1.341-.727-4.817-1.898-7.895-5.6-9.709-10.379-.358-.991-.623-1.973-.698-2.937-.095-.774.085-1.511.547-2.219.454-.614 1.086-1.105 1.776-1.313a3.14 3.14 0 0 1 2.247.265 2.83 2.83 0 0 1 1.417 1.69c.132.491.359.992.491 1.483.642 1.785 1.596 3.418 2.946 4.816l.189-1.596c-.538-4.249-.698-8.546-.387-12.787.189-2.351.189-4.826.378-7.186.085-.746.274-1.492.642-2.21.35-.53.775-.954 1.388-1.266.595-.217 1.181-.34 1.842-.255.567.066 1.19.425 1.615.86.425.434.736 1.038.85 1.624.188 1.643.094 3.249.16 5.062a26.5 26.5 0 0 0 3.4-5.402c.264-.633.614-1.162.973-1.785s.972-1.03 1.671-1.227c.699-.199 1.351-.123 1.974.236.548.16 1.067.604 1.388 1.114s.444 1.096.359 1.757c-.123 1.029-.245 2.058-.727 2.955-2.323 4.382-4.75 8.755-8.651 12.003-.311.246-.547.605-.698 1.058l-.142 1.218c.312 4.6 1.284 9.189 2.672 13.533.841 2.569 1.681 5.053 2.626 7.536.142.397.378.803.614 1.219 2.068-4.609 3.928-9.047 6.119-13.92-1.614-3.24-1.246-7.093-.5-10.993a30 30 0 0 1 1.804-5.59c.368-.718.925-1.408 1.567-2.003.435-.425 1.03-.642 1.596-.67s1.218.141 1.757.396 1.058.7 1.284 1.2c.321.51.34 1.18.255 1.841-.245 1.303-.699 2.673-1.218 3.853-.68 1.729-.689 3.438-1.058 5.676 2.824-2.134 5.138-4.816 6.734-7.857 1.341-2.503 2.682-5.006 4.108-7.404.463-.709 1.02-1.398 1.653-1.898.528-.416 1.123-.624 1.803-.737a3.17 3.17 0 0 1 1.842.5c.538.255.954.775 1.18 1.285.217.595.246 1.171.085 1.719-.085.746-.368 1.482-.68 2.483l4.354-3.003c.406-.236.84-.66 1.246-.897a3.4 3.4 0 0 1 1.946-.34c.661.076 1.275.434 1.794.878s.812 1.143.831 1.814c.114.68-.17 1.407-.519 1.936-.803 1.142-1.766 2.068-2.909 2.89-3.324 2.36-6.743 4.712-11.068 5.156-.198.075-.491.132-.699.292-.208.17-.33.34-.453.614a33.4 33.4 0 0 1-6.384 7.329c-3.834 3.447-6.734 7.857-8.537 12.683-.86 2.464-1.823 4.92-2.692 7.479a14.6 14.6 0 0 0-.623 2.871c3.522-2.436 6.658-4.826 10.029-6.799 3.372-1.974 6.998-3.636 10.643-5.582-.094-.774-.104-1.53-.104-2.295.255-4.533 2.163-8.584 4.609-12.39.463-.708 1.18-1.095 1.964-1.294.784-.188 1.615 0 2.323.463.614.453 1.106 1.086 1.304 1.87s.198 1.549-.17 2.267c-.406 1.001-.992 1.973-1.407 3.069-.633 1.35-1.19 2.804-1.559 4.287 1.2-.519 2.248-1.35 3.136-2.389 1.964-2.144 3.928-4.288 5.902-6.431.34-.435.661-.775 1.162-1.001.5-.227.991-.359 1.483-.491a4.6 4.6 0 0 1 1.596.188c.443.246.878.577 1.208 1.002.331.425.557.925.586 1.492.028.566-.123 1.029-.284 1.586-.255.539-.51 1.077-.935 1.502-2.2 2.493-4.315 5.099-6.686 7.479a32.7 32.7 0 0 1-10.917 7.074c-3.097 1.246-6.119 2.701-9.425 4.108 3.835 1.312 7.196 2.663 10.587 3.73 2.04.434 4.127.491 6.072.151.775-.094 1.549-.198 2.295-.104.661.076 1.407.17 1.917.699.519.444.916 1.058 1.03 1.738.122.585.132 1.256-.133 1.888-.264.633-.698 1.058-1.218 1.474-.415.33-.906.462-1.398.595-3.513.727-7.064 1.067-10.633-.123-3.013-1.02-5.95-1.946-8.972-2.965a17 17 0 0 0-6.847-.813c-.765 0-1.558.293-2.162.595a6.5 6.5 0 0 0-1.785 1.407 24 24 0 0 0 6.374.756c.671-.019 1.332-.028 2.097-.038.935.114 1.747.491 2.342 1.133a3.68 3.68 0 0 1 .944 2.494c-.104.84-.566 1.548-1.114 2.153-.633.5-1.426.784-2.182.784a46 46 0 0 1-5.128-.038l-7.13-.85c-.085.746-.179 1.501-.075 2.276s.208 1.454.321 2.134l12.05.189 13.108.132c1.71.01 3.419.029 5.128.038 2.739.132 5.487.274 8.235.312 3.032.075 6.176.066 9.208.141.944.019 1.889.133 2.814.331a2.54 2.54 0 0 1 1.53.755c.434.34.756.85.888 1.341.717 1.984.774 3.901-.746 5.525a45.2 45.2 0 0 1-10.946 8.877c-6.318 3.532-13.146 5.761-19.964 7.999-4.75 1.53-9.255 3.466-13.712 5.789a51.3 51.3 0 0 1-16.027 5.232c-1.926.245-3.938.293-5.836.255-.944-.019-1.879-.227-2.814-.331-7.451-.5-14.751-2.323-21.504-5.496a73.7 73.7 0 0 0-15.299-4.948c-2.615-.407-5.25-.624-7.932-.463-3.23 0-6.488.179-9.737.274-3.447.16-6.79.34-10.237.5-8.434.52-16.895-1.048-24.78-4.363-6.696-2.89-12.646-7.206-17.623-12.551-.944-.869-1.672-1.907-2.304-3.031-.406-.614-.605-1.313-.718-1.983-.019-.671.17-1.407.34-2.05s.718-1.246 1.247-1.662a4.3 4.3 0 0 1 1.907-.821c1.077-.255 2.22-.303 3.277-.369 6.479-.085 12.957-.179 19.436-.264 2.285-.019 4.57-.028 6.837.047-1.436-7.97-2.795-15.733-4.221-23.704-.68.114-1.162.151-1.653.284-3.126.68-6.27.774-9.416.028-2.323-.463-4.25-1.832-6.072-3.287-4.948-4.013-7.376-9.151-6.62-15.525.869-7.319 6.346-11.805 12.456-12.787 2.824-.52 5.676-.567 8.377-.057l1.218.142.812-6.847c.265-2.247 1.011-4.542 2.022-6.61.5-.992 1.086-1.965 1.841-2.73.642-.585 1.265-1.086 2.078-1.463.812-.378 1.671-.463 2.53-.463.841.104 1.691.198 2.513.49.812.379 1.52.85 2.106 1.484a11.8 11.8 0 0 1 2.795 4.514c.557 1.68.822 3.522.604 5.298-.273 3.107-.746 6.28-1.142 9.66l4.75 2.465c1.492-1.34 2.89-2.7 4.26-3.872a10.5 10.5 0 0 1 2.077-1.463c.51-.321 1.218-.614 1.785-.642.68-.114 1.331-.029 1.879.226s1.161.614 1.587 1.049.736 1.038.944 1.633c.642 1.785.992 3.636 1.161 5.459.539 5.099.888 10.19 1.238 15.27.028 1.332-.038 2.758-.293 4.052-.35 2.908-2.966 4.117-5.544 2.672a7 7 0 0 1-1.539-1.416c-.765-.756-1.52-1.606-2.38-2.371-1.105-1.086-2.323-2.077-3.608-3.277l-5.278 3.655c2.672 9.538 6.129 18.888 10.284 27.944 5.704.01 11.38.303 17.112.029l.585-.123zm98.707 8.093-9.651-.387c-1.511-.085-3.032-.075-4.637-.17-4.089 0-8.179-.019-12.268-.028-4.268-.123-8.528-.255-12.796-.378a555 555 0 0 0-5.317-.057c-4.089 0-8.178-.019-12.258-.122-2.474 0-4.92-.208-7.395-.208l-12.824-.095c-4.94-.018-9.888-.028-14.827-.047-5.799-.019-11.597-.047-17.395-.066-1.993-.047-3.891-.085-5.884-.123H43.77c-4.939-.019-9.878-.122-14.827-.047-5.515.01-10.936.038-16.375.151-.944-.019-1.917.151-3.258.189 3.362 3.73 7.48 6.686 11.984 8.839 7.81 3.872 16.46 5.563 25.102 4.883 3.456-.255 6.979-.312 10.52-.463 3.154-.104 6.309-.302 9.453-.302 2.862-.038 5.6.094 8.405.519a79.6 79.6 0 0 1 15.856 5.015c5.43 2.351 10.861 4.618 16.905 5.043l5.628.67c2.343.274 4.836.095 7.093-.491a60 60 0 0 0 12.928-4.74c4.448-2.229 8.963-4.165 13.703-5.695 6.526-2.078 13.042-4.155 18.983-7.734 1.747-1.124 3.749-1.936 5.241-4.137zm-84.55-8.027c0-.859-.085-1.719-.17-2.588-1.464-6.072-1.577-12.361-.454-18.594.661-4.014 1.436-8.103 2.012-12.126.18-1.502.264-3.013.066-4.562-.425-3.664-.944-7.243-1.662-10.85-.916-4.297-1.143-8.793-.718-13.212.265-2.248.548-4.6.718-6.856.227-1.88.255-3.778.293-5.676.075-.661-.047-1.237-.35-1.851-.311-.604-.717-1.133-1.246-1.483-2.097.793-2.777 2.522-3.183 4.382-.51 2.701-.642 5.44-.208 8.15a94 94 0 0 1-.141 25.281c-.463 3.088-1.03 6.252-1.577 9.321-1.332 8.018-1.823 16.139-1.36 24.28.132 2.106-.029 4.278.954 6.393h7.13l-.095-.018zM36.819 83.303c-.632 1.35-1.085 2.72-1.539 4.193-1.284 6.79-1.634 13.788-1.312 20.673.528 8.339 1.841 16.574 3.135 24.903.878 5.43 2.427 10.842 1.86 16.385 2.88.529 5.846.406 8.67-.113-.057-.293-.217-.595-.274-.888-2.909-5.959-4.996-12.381-7.102-18.718-3.418-9.632-4.59-19.85-3.39-29.974L38.17 88.79c.236-1.974-.208-3.825-1.35-5.487m-9.783 18.34a17.2 17.2 0 0 0-9.321.038c-1.18.34-2.2.878-3.155 1.719-.859.85-1.548 1.813-1.964 2.908-1.68 4.552-.057 8.462 3.4 11.437 1.039.888 2.191 1.586 3.466 2.03 2.937.916 6.016.614 8.745-.774-.33-2.795-.67-5.591-.812-8.367s-.18-5.723-.369-8.887v-.094zm28.312 1.832-2.37 2.38c-2.163 2.219-3.428 2.446-6.422 1.237-1.076-.51-2.266-.935-3.626-1.473.066 1.813.094 3.249.207 4.684.114 1.436.237 2.786.416 4.524 1.039-.737 1.747-1.124 2.39-1.71 3.673-2.889 5.94-2.814 9.16.52.34.33.699.557.944.869.52-1.936.123-8.264-.793-10.936l.104-.085zM150.731 54.595l5.506-3.91c2.182-1.549 4.269-3.107 6.45-4.656.529-.416 1.133-.718 1.832-1.02.501-.227 1.086-.35 1.653-.283.567.066 1.114.226 1.549.566s.765.756.992 1.256c.226.501.349 1.087.283 1.653-.057 2.087-.104 4.08-.35 6.139-.821 6.94-1.633 13.787-2.361 20.738l-.33 2.814c-.595 2.597-2.72 3.674-5.043 2.446-.897-.49-1.776-1.067-2.55-1.728-3.145-2.37-6.176-4.826-9.057-7.064-5.26.236-10.133.416-15.11.68-5.43.113-10.803-.33-16.083-1.53-6.969-1.397-13.986-3.182-20.446-6.421-3.664-1.955-7.11-4.175-9.557-7.603-2.03-2.9-2.908-5.959-1.36-9.387.756-1.53 1.87-2.918 3.22-3.9a23.4 23.4 0 0 1 11.371-4.448c4.732-.576 9.454-.302 14.005.614a91 91 0 0 1 11.928 3.692c7.914 3.032 15.46 6.78 22.741 11.163l.746.085v.094zm10.672.594c-.727.482-1.445.973-2.172 1.455-1.454 1.067-2.899 2.03-4.373 3.192-2.927 2.22-6.034 1.945-8.858.094a128.6 128.6 0 0 0-23.015-11.19c-6.091-2.343-12.371-3.939-18.982-3.485-3.456.255-6.752.812-9.585 3.05-2.2 1.738-2.456 3.04-.406 4.996 1.435 1.501 3.097 2.748 4.778 3.796 6.384 3.89 13.505 5.6 20.758 7.026 9.113 1.747 18.406 1.993 27.5.69a5.3 5.3 0 0 1 1.814-.066 13.1 13.1 0 0 1 6.402 2.946c1.379 1.209 2.966 2.257 4.439 3.475.765-2.474 2.03-13.93 1.719-16.054v.094zM106.893 26.47c1.974.237 2.852 1.578 2.616 3.636-.236 2.06-1.634 3.325-3.598 3.088-1.964-.236-2.748-1.662-2.692-3.74.057-.471.104-.84.34-1.293.236-.35.463-.708.888-1.039a3.4 3.4 0 0 1 1.218-.614c.397-.142.879-.18 1.351-.123l-.104.085zM24.817 72.283c-.378-.047-.84-.104-1.2-.33-.349-.237-.708-.464-.954-.775a4.2 4.2 0 0 1-.623-1.124 2.9 2.9 0 0 1-.132-1.256c.057-.472.104-.84.34-1.294.142-.368.472-.803.793-1.048.331-.34.728-.482 1.124-.624.397-.141.878-.179 1.35-.122.841.104 1.644.576 2.125 1.294.501.632.775 1.52.67 2.36-.103.841-.48 1.653-1.123 2.248a3.02 3.02 0 0 1-2.37.765zM105.948.019c.378.047.841.104 1.2.33.349.236.708.463.954.775.245.311.481.727.623 1.124.142.396.179.878.132 1.256-.057.472-.104.84-.331 1.199-.226.359-.462.708-.793 1.048a4.2 4.2 0 0 1-1.123.623c-.397.142-.879.18-1.257.133s-.84-.104-1.199-.33c-.349-.237-.708-.464-1.048-.794a4.2 4.2 0 0 1-.623-1.124 2.9 2.9 0 0 1-.133-1.256A3.33 3.33 0 0 1 103.559.86c.642-.585 1.52-.774 2.37-.765V0zM14.768 80.792c.057-.472.104-.84.33-1.2.142-.368.463-.708.794-1.048a4.2 4.2 0 0 1 1.124-.623c.396-.142.878-.18 1.256-.132a2.7 2.7 0 0 1 1.19.425c.359.226.699.557.944.868.246.312.482.728.538 1.105.142.397.085.87.047 1.237-.056.473-.103.841-.33 1.2s-.463.708-.774.954a4.2 4.2 0 0 1-1.124.623c-.397.142-.878.18-1.256.132s-.84-.104-1.2-.33c-.349-.237-.708-.463-.944-.87-.245-.31-.482-.726-.538-1.104-.142-.397-.085-.869-.047-1.237zM116.629 17.358c-.057.472-.104.84-.33 1.199s-.463.708-.775.954a4.2 4.2 0 0 1-1.123.623c-.397.142-.879.18-1.257.132-.84-.104-1.633-.67-2.115-1.388a3.62 3.62 0 0 1-.567-2.446c.047-.378.104-.84.331-1.2.142-.368.463-.708.774-.953.312-.246.709-.387 1.105-.538.397-.142.775-.095 1.237-.048.463.048.841.104 1.2.33.349.237.708.464.954.775.245.312.481.727.623 1.124.141.397.085.869.047 1.237l-.113.18zM27.442 57.371c-.057.472-.104.84-.33 1.2-.227.358-.463.708-.775.953a4.2 4.2 0 0 1-1.124.624c-.397.141-.878.179-1.256.132s-.84-.104-1.2-.33c-.349-.237-.708-.463-.953-.775-.246-.312-.482-.727-.538-1.105-.142-.397-.086-.869-.048-1.237.057-.472.104-.84.33-1.2.143-.368.464-.708.775-.953.312-.246.727-.482 1.105-.539.397-.141.869-.085 1.237-.047s.84.104 1.105.321.709.463.954.775c.246.311.5.632.548 1.02.047.387.094.774.056 1.152h.095z"/><path fill="#3558a2" d="M22.984 108.575c-.227 1.88-1.284 2.796-3.154 2.579-1.974-.237-2.88-1.389-2.654-3.268.227-1.879 1.379-2.786 3.334-2.455 1.879.226 2.7 1.275 2.465 3.239v-.095zM105.118 54.32c-.841-.103-1.559-.472-2.059-1.095s-.784-1.426-.68-2.267c.104-.84.642-1.444 1.275-1.945.632-.5 1.426-.784 2.181-.784.378.047.746.085 1.096.416.349.236.708.462.954.774.245.312.387.708.538 1.105s.094.774.057 1.152c-.038.378-.085.746-.322 1.105-.236.35-.462.708-.774.954-.312.245-.708.387-1.105.538-.396.142-.774.095-1.152.057zM117.413 54.065c-.085.747-.557 1.455-1.171 1.86-.632.501-1.397.596-2.153.51-.378-.046-.84-.103-1.199-.33-.35-.236-.709-.462-.954-.774-.246-.312-.387-.708-.444-1.096-.057-.387 0-.764.142-1.218.047-.378.085-.746.321-1.105.236-.35.453-.614.765-.86.311-.245.708-.386 1.095-.443.387-.047.765 0 1.124.132.378.047.746.085 1.105.321s.614.454.859.765c.246.312.387.709.454 1.001.047.387.094.775.056 1.152v.095z"/></svg>