<svg xmlns="http://www.w3.org/2000/svg" width="153" height="144" fill="none" viewBox="0 0 153 144"><path fill="#3558a2" d="m37.05 130.311 6.901-.256c1.739-.018 3.441.321 5.073.768.762.19 1.203 1.19 1.16 2.322l-.464 4.977-.119 1.304c-.172 1.84-1.214 2.757-3.072 2.822-2.155.042-4.304.018-6.412.119-2.28.089-4.501.179-6.722.274-1.322.059-2.691-.012-4.013.048-2.28.089-4.5.178-6.722.273-1.262.06-2.572 0-3.834.06-1.381.054-2.762.101-4.197.149-.84.042-1.739.018-2.578.059-1.441.048-2.876.09-4.364.012-1.43-.071-2.263-.75-2.543-2.209-.398-2.131-.678-4.31-.952-6.483-.215-1.572 2.018-3.698 3.983-3.638 2.209.024 4.37-.071 6.65-.161.262-.875.227-1.774-.053-2.637-.095-.25-.131-.488-.167-.792.006-1.375.024-2.81.03-4.186.041-2.387.018-4.721.06-7.049.011-1.435.035-2.929.047-4.358.083-2.203.173-4.412.196-6.621.054-1.851-.006-3.768-.077-5.626l.042-.476c.071-2.084.149-4.174.226-6.317.09-2.923.119-5.787.155-8.716.071-2.686.083-5.377.09-8.062-.013-1.792-.019-3.65-.09-5.448l.03-.297c.077-2.144.16-4.293.238-6.436.035-2.989.143-6.025.178-9.014.06-2.566.06-5.138.12-7.704.011-2.03.017-4.067-.024-6.163-1.662-.154-3.186-.476-4.758-.261-.178-.018-.297-.03-.482.017-2.56-.119-5.18-.244-7.74-.363l-.476-.041c-.536-.048-1.054-.22-1.44-.614-.388-.393-.638-.899-.644-1.435a5.9 5.9 0 0 1-.047-1.44c.553-5.93 1.1-11.854 1.595-17.79l.042-.477c.018-1.494 1.155-2.107 2.53-2.155l1.602.15c.84-.698 1.607-1.227 2.328-1.876.524-.489.928-.989 1.399-1.542A107 107 0 0 1 19.32 2.549c.661-.655 1.31-1.256 1.971-1.911.328-.328.768-.524 1.25-.602.483-.077.959-.03 1.364.125 1.84.769 3.858.96 5.727 1.43a234 234 0 0 0 6.258 1.535c1.756.405 3.572.81 5.328 1.215 2.168.5 4.388 1.066 6.55 1.566 1.994.423 3.989.851 5.983 1.274 1.995.423 3.977.964 5.912 1.387.935.209 1.87.47 2.805.679 2.345.518 4.68 1.095 7.025 1.608 1.935.416 3.876.78 5.805 1.256s3.918.964 5.906 1.446c1.989.483 3.87.84 5.805 1.257s3.918.964 5.906 1.447c.935.208 1.876.41 2.81.619 2.692.607 5.454 1.167 8.145 1.774 1.227.292 2.447.708 3.739.947.476.041.875.262 1.268.535.393.274.655.661.864 1.036 2.202.084 4.411.173 6.614.256 3.686.22 7.425.512 11.122.673a5.48 5.48 0 0 1 3.346 1.328c6.71 5.644 13.426 11.235 20.136 16.879.5.405.869.917 1.178 1.482.155.256.245.56.215.917-.03.298-.054.595-.203.881a2.24 2.24 0 0 1-.607.72c-.262.215-.506.31-.816.406a19 19 0 0 1-5.846.53c-2.626-.066-5.257-.072-7.883-.138l-.179-.017c-2.203-.084-4.411-.173-6.614-.256-3.096-.167-6.246-.34-9.342-.512-1.125-.108-2.215.035-3.352.047-.101 1.066-.071 2.024-.161 3.037-.148 2.917-.303 5.828-.452 8.746-.06 1.905-.167 3.75-.226 5.662a360 360 0 0 0-.179 8.353c-.036.357.113.726.322 1.048.905 1.22 1.804 2.44 2.709 3.661l6.424 8.728c.744 1.025 1.429 1.989 2.232 3.019.37.512.501 1.066.387 1.65-.357 5.107-.708 10.216-1.125 15.324-.071.768.155 1.572-.22 2.37-.524 1.149-1.256 1.917-2.453 1.923-1.256 0-2.453.012-3.709.012-1.441.047-2.876.089-4.317.137-.298-.03-.655-.06-.952-.03l-5.27.107c-.297-.03-.654-.059-.952-.03-1.852.006-3.775.066-5.626.078-1.257 0-2.459.071-3.71.012-.655-.06-1.292-.239-1.726-.697-.495-.464-.804-1.03-.858-1.697-.107-.786-.089-1.625-.077-2.399.113-2.501.232-5.06.286-7.567.03-2.269.06-4.478.03-6.752-.024-1.679.666-3.286 1.798-4.555 3.965-4.715 7.811-9.436 11.776-14.092.459-.435.697-1.072.756-1.72.155-2.978.316-5.949.465-8.866.101-1.727.143-3.453.184-5.186.119-2.56.244-5.18.363-7.74.006-.714-.047-1.44-.154-2.167-.358-.035-.643-.178-.995-.214-2.25-.208-4.501-.476-6.757-.625-2.858-.149-5.722-.173-8.526-.256l-.179-.018c-3.036-.16-6.007-.322-9.05-.423-2.5-.113-5.072-.113-7.579-.166l-.297-.03c-2.977-.155-5.948-.316-8.871-.405-2.56-.12-5.132-.12-7.758-.185l-.947-.089a529 529 0 0 0-9.228-.44c-1.846-.114-3.632-.161-5.484-.209l-10.02-.274c-.012.12-.208.28-.155.405.018 1.739.042 3.412.06 5.15-.024.238.012.542.047.78-.041 3.048-.095 6.15-.136 9.193-.024 2.209.006 4.423.047 6.579l.107 8.502c.03 1.619-.06 3.22-.089 4.834.012 1.792.078 3.655.09 5.448 0 1.315-.012 2.69-.012 4.007-.042 1.732-.084 3.459-.06 5.138.03 2.875.071 5.686.107 8.502.03 1.619-.06 3.221-.09 4.834.013 1.792.078 3.656.09 5.448 0 1.315-.012 2.691-.012 4.007-.041 1.732-.083 3.459-.065 5.197.03 2.876.071 5.686.107 8.502.047.78-.131 1.423-.209 2.251l-.13.107zm.233-112.509c.244-.035.488-.077.78-.047 2.441.107 4.822.208 7.264.315l6.965.346 6.43.297 7.086.358c2.202.083 4.411.172 6.608.315 3.448.203 6.9.405 10.354.542 2.197.143 4.412.173 6.615.256.06 0 .19-.101.25-.095a47 47 0 0 0-2.805-.738c-1.935-.417-3.87-.84-5.805-1.257-1.929-.476-3.852-1.018-5.787-1.435-2.048-.488-4.108-.857-6.096-1.286-3.043-.702-6.031-1.399-9.074-2.101-.994-.215-1.994-.423-2.989-.637-1.81-.465-3.62-.935-5.43-1.4-2.75-.613-5.572-1.172-8.317-1.851-2.75-.613-5.376-1.34-8.127-2.013-2.28-.571-4.56-1.083-6.906-1.601l-1.185-.113 10.11 12.181.065-.053zm80.656 85.586c1.613.03 3.102.047 4.662.012.536.047.696-.411.738-.887.018-.834-.077-1.739 0-2.572.256-2.727.512-5.514.709-8.246.101-1.066-.066-1.203-1.144-1.245-.827-.077-1.738.018-2.572 0-2.917-.149-5.834-.244-8.692-.387l-.179-.018c-2.745-.077-5.495-.089-8.234-.166-.238-.024-.482.018-.78.047l-.155 1.661c-.041 1.072-.018 2.15-.059 3.221-.06 1.906-.119 3.876-.119 5.787-.03.953.125 1.864.149 2.882l5.322.018c-.309-1.167.197-2.131.53-3.12a4.65 4.65 0 0 1 1.262-1.977c.59-.541 1.28-.898 2.019-1.125 3.143-1.024 5.84.84 6.233 3.692.119.666.173 1.393.322 2.304zM45.428 134.74c-.179-.018-.411-.095-.59-.113l-7.364.095c-.9.036-1.793.012-2.757.042-2.34.083-4.686.22-7.08.238-2.333.024-4.727.042-7.06.06-1.078.018-2.156.041-3.233.059-1.441.048-2.882.149-4.323.197-1.44.047-2.875.03-4.364.012.304 1.226.125 2.524.75 3.536l35.729-.982.286-3.084v-.06zM26.208 24.364c-.326 1.583-.642 10.764-.422 12.276l16.093.542c-1.375-1.923-12.05-10.628-15.67-12.819m87.664 50.124c-.607.72-1.071 1.215-1.482 1.775-2.292 2.774-4.638 5.489-6.924 8.263-.149.286-.233.578-.328.93l.947.088c2.268.03 4.483 0 6.746.09 2.744.077 5.477.268 8.222.345.417.036.839-.042 1.327-.113-2.869-3.852-5.578-7.514-8.448-11.372h-.06zM31.407 88.111l-2.43-.227c-1.38.054-2.768.161-4.143.215-1.203.065-2.46.071-3.674.256-1.215.184-1.47.398-1.53 1.649-.077 1.488-.036 2.989-.125 4.53l-.179 5.782c-.041 1.071.042 2.095.107 3.358 4.013-5.246 7.895-10.33 11.914-15.576h.06zm30.858-50.286c-4.495-4.364-8.949-8.603-13.718-12.574-.023.238-.095.41-.119.649-.19 3.328-.44 6.656-.571 9.99.077.488.149.97.34 1.465l14.128.476h-.06zM19.779 78.061c3.995-5.014 7.758-10.104 11.598-15.427-3.828 0-7.419.03-11.009.054-.119-.012-.256.155-.38.262-.048 5.019-.162 10.091-.21 15.11M6.002 23.685c-.56 2.816-1.161 11.193-1.03 12.342l13.955.399L5.996 23.744v-.06zm85.419.881c4.572 4.191 9.252 7.912 13.908 11.818.53-3.12 1.095-9.883.911-11.098-4.805-.387-9.699-.541-14.82-.72m32.424 15.271c-2.125-2.232-4.346-4.048-6.448-5.918-2.096-1.87-4.322-3.691-6.591-5.638l-1.012 10.907c.179.018.226.143.345.15 3.156.172 6.305.345 9.526.464 1.304.119 2.692.012 4.246-.024l-.066.053zm-91.23 28.834-11.098 15.17 11.098-.404c.018-4.722-.012-9.508 0-14.772zm98.196-39.425c-.244 3.923-.869 7.394-.607 11.008 1.661.155 3.381.256 5.066.173 2.394-.018 4.829.149 7.27.256.298.03.595.053.839-.042.31-.09.554-.19.751-.351l-13.319-11.104zm-98.107 87.329c-1.024.745-9.293 11.217-10.978 13.926 3.328.191 6.597-.226 9.818-.101.416.036.845-.101 1.214-.185-.024-2.333-.173-4.56-.09-6.763.084-2.203-.059-4.489.102-6.865h-.06zm35.812-89.354c.048.78.12 1.268.131 1.804-.119 2.56-.238 5.12-.363 7.74-.035.417-.077.828-.065 1.37 1.197-.006 2.215-.036 3.286.006 2.983.095 5.895.25 8.871.404l.477.042c.19-.101.375-.143.565-.304-1.065-1.417-9.591-8.722-12.967-11.014l.066-.054zM19.04 125.887l.286.149 10.741-13.89-10.794.309c-.072 4.597-.179 9.014-.238 13.492v-.06zm13.605-18.284c-.113-4.555.113-8.96-.107-13.64l-10.42 13.682c1.162.405 2.192.202 3.275.125 2.346-.143 4.733-.101 7.252-.161zm-1.602-66.462-10.728-.34-.155 1.662c-.048.536.065 1.203.077 1.739-.065 1.964-.13 3.995-.196 5.96 0 1.255.065 2.518.053 3.953L31.05 41.082v.06zm53.412-6.579.16-1.72c.108-2.441.209-4.823.316-7.264.036-.417.018-.833 0-1.316l-1.542-.143-10.824-.648a5.4 5.4 0 0 0-1.256 0l13.08 11.08h.06zM9.104 20.506l12.008 11.699.12-1.304c.148-2.918.303-5.829.446-8.687.036-.357.006-.714-.012-1.137L9.044 20.5h.06zM43.6 32.139l.101-1.066c.149-2.857.292-5.715.435-8.507.012-.12-.09-.31-.19-.495-.96.03-1.924.12-2.876.03-3.156-.172-6.306-.345-9.52-.524-.417-.036-.828-.077-1.25-.053l13.246 10.621h.06zm58.067 7.014-12.532-10.55c.333 3.5-.626 6.757-.048 10.163l12.58.393zm-69.326 7.37-9.687 11.598c.239.024.47.102.709.066 2.768-.22 5.573-.137 8.36.119.297.03.595.053 1.011.036.006-3.948-.053-7.776-.053-11.664 0 0-.167-.137-.28-.202l-.066.053zm31.877-23.231-1.602-.149-8.686-.447c-.417-.035-.834-.017-1.435-.011l11.425 10.27c.125-3.275.226-6.317.351-9.592l-.053-.065zm50.595 2.435 10.955 9.508.75-8.061c.018-.179.036-.417 0-.596-2.232-.446-10.306-1.077-11.699-.845zm-83.722-8.264-7.383-8.698c-.398 1.696-.91 7.21-.72 8.424 2.596-.238 5.162.423 8.109.274zm-12.783-.768.727-7.823c-2.382 2.47-4.59 5.013-6.645 7.811 2.03.012 3.894.542 5.912.072v-.06z"/><path fill="#3558a2" d="M75.352 98.416c.535.048 1.042.393 1.417.852s.571.952.571 1.548c-.22 2.369.4 4.703 1.65 6.727.464.763 1.119 1.477 1.649 2.186.375.452.63.952.934 1.524.405.815.036 1.56-.56 2.161-.267.333-.708.53-1.13.613-.423.083-.834-.018-1.233-.232-1.084-.578-2.012-1.5-2.632-2.578-1.91-2.632-2.994-5.722-3.292-8.978-.107-1.447.679-3.465 1.959-3.704.238.024.428-.077.607-.125h.06zM86.187 99.542c-.113 2.5.667 5.025 2.275 7.025.327.328.523.768.666 1.197s.155.911.114 1.328c-.036.357-.126.708-.334.988s-.47.554-.786.703c-.315.148-.678.238-1.036.202-.357-.036-.708-.125-.988-.333-.34-.209-.62-.417-.828-.733-2.084-2.643-3.34-5.87-3.685-9.252-.197-1.095-.042-2.155.47-3.126.572-1.024 1.775-1.69 2.584-1.434.524.166.965.565 1.274 1.077s.381 1.054.328 1.644l-.078.827.012-.119z"/></svg>