<svg width="153" height="144" viewBox="0 0 153 144" fill="none" xmlns="http://www.w3.org/2000/svg">
<path d="M37.0507 130.311L43.9512 130.055C45.6897 130.037 47.3925 130.376 49.0238 130.823C49.7859 131.013 50.2265 132.013 50.1848 133.145C50.03 134.806 49.8752 136.467 49.7204 138.122L49.6014 139.426C49.4287 141.266 48.3868 142.183 46.5292 142.248C44.3739 142.29 42.2246 142.266 40.117 142.367C37.8367 142.456 35.6159 142.546 33.3951 142.641C32.0734 142.7 30.704 142.629 29.3823 142.689C27.102 142.778 24.8813 142.867 22.6605 142.962C21.3983 143.022 20.0884 142.962 18.8262 143.022C17.4449 143.076 16.0637 143.123 14.6288 143.171C13.7894 143.213 12.8903 143.189 12.0508 143.23C10.61 143.278 9.17515 143.32 7.6867 143.242C6.25779 143.171 5.42425 142.492 5.14442 141.033C4.74552 138.902 4.4657 136.723 4.19183 134.55C3.97749 132.978 6.21013 130.852 8.17488 130.912C10.3837 130.936 12.545 130.841 14.8253 130.751C15.0872 129.876 15.0515 128.977 14.7717 128.114C14.6765 127.864 14.6407 127.626 14.605 127.322C14.6109 125.947 14.6288 124.512 14.6347 123.136C14.6764 120.749 14.6526 118.415 14.6943 116.087C14.7062 114.652 14.73 113.158 14.7419 111.729C14.8253 109.526 14.9146 107.317 14.9384 105.108C14.992 103.257 14.9324 101.34 14.861 99.4821L14.9027 99.0058C14.9741 96.922 15.0515 94.8323 15.1289 92.6889C15.2182 89.7656 15.248 86.9018 15.2837 83.9726C15.3552 81.2874 15.3671 78.5964 15.3731 75.9112C15.3611 74.1191 15.3552 72.2616 15.2837 70.4635L15.3135 70.1658C15.3909 68.0225 15.4742 65.8732 15.5516 63.7298C15.5873 60.741 15.6945 57.7046 15.7303 54.7158C15.7898 52.1497 15.7898 49.5777 15.8493 47.0116C15.8612 44.9814 15.8672 42.9452 15.8255 40.8495C14.1644 40.6947 12.6402 40.3732 11.0684 40.5875C10.8898 40.5697 10.7708 40.5578 10.5862 40.6054C8.02606 40.4863 5.40639 40.3613 2.84627 40.2422L2.36993 40.2005C1.83409 40.1529 1.31616 39.9803 0.929164 39.5873C0.542168 39.1944 0.292063 38.6883 0.286109 38.1524C0.20871 37.6642 0.196828 37.1879 0.238505 36.7116C0.792207 30.7817 1.33991 24.8577 1.83408 18.9218L1.8758 18.4455C1.89366 16.9511 3.03083 16.3379 4.40616 16.2902L6.00769 16.4391C6.84717 15.7425 7.61523 15.2126 8.33564 14.5636C8.85957 14.0754 9.26442 13.5753 9.73477 13.0216C12.7117 9.29459 15.9029 5.82353 19.3203 2.54896C19.9812 1.89404 20.6302 1.2927 21.2911 0.637788C21.6185 0.310331 22.0591 0.113888 22.5414 0.0364888C23.0236 -0.0409101 23.5 0.0066967 23.9048 0.161494C25.7445 0.92953 27.7629 1.12006 29.6323 1.59041C31.734 2.14411 33.7821 2.63233 35.8898 3.12649C37.6462 3.53135 39.462 3.93619 41.2184 4.34105C43.3856 4.84116 45.6063 5.40677 47.7676 5.90689C49.7621 6.32961 51.7566 6.75828 53.7511 7.181C55.7457 7.60372 57.7282 8.14548 59.6632 8.5682C60.598 8.77658 61.5328 9.03856 62.4675 9.24694C64.8133 9.76492 67.1471 10.3424 69.4929 10.8545C71.4279 11.2712 73.3688 11.6344 75.2979 12.1107C77.2269 12.587 79.2155 13.0752 81.204 13.5575C83.1926 14.0397 85.074 14.3969 87.009 14.8137C88.944 15.2305 90.9266 15.7782 92.9152 16.2605C93.8499 16.4689 94.7906 16.6713 95.7253 16.8797C98.4165 17.4869 101.179 18.0466 103.87 18.6539C105.097 18.9456 106.317 19.3624 107.609 19.6005C108.085 19.6422 108.484 19.8625 108.877 20.1364C109.27 20.4102 109.532 20.7973 109.741 21.1723C111.943 21.2557 114.152 21.345 116.355 21.4283C120.041 21.6486 123.78 21.9404 127.477 22.1011C128.727 22.1547 129.882 22.625 130.823 23.4288C137.533 29.073 144.249 34.6635 150.959 40.3077C151.459 40.7126 151.828 41.2246 152.137 41.7902C152.292 42.0462 152.382 42.3499 152.352 42.7071C152.322 43.0048 152.298 43.3024 152.149 43.5882C152.001 43.874 151.804 44.0943 151.542 44.3086C151.28 44.523 151.036 44.6182 150.726 44.7135C148.827 45.1958 146.839 45.3684 144.88 45.2434C142.254 45.1779 139.623 45.1719 136.997 45.1064L136.818 45.0886C134.615 45.0052 132.407 44.9159 130.204 44.8326C127.108 44.6659 123.958 44.4932 120.862 44.3205C119.737 44.2134 118.647 44.3563 117.51 44.3682C117.409 45.4339 117.439 46.3925 117.349 47.4046C117.201 50.3219 117.046 53.2333 116.897 56.1507C116.837 58.0559 116.73 59.9015 116.671 61.8127C116.587 64.6169 116.51 67.4211 116.492 70.1658C116.456 70.523 116.605 70.8922 116.814 71.2137C117.719 72.4342 118.618 73.6547 119.523 74.8752C121.648 77.7628 123.821 80.7159 125.947 83.6035C126.691 84.6275 127.376 85.592 128.179 86.622C128.549 87.134 128.68 87.6877 128.566 88.2712C128.209 93.3795 127.858 98.4879 127.441 103.596C127.37 104.364 127.596 105.168 127.221 105.966C126.697 107.115 125.965 107.883 124.768 107.889C123.512 107.889 122.315 107.901 121.059 107.901C119.618 107.948 118.183 107.99 116.742 108.038C116.444 108.008 116.087 107.978 115.79 108.008L110.52 108.115C110.223 108.085 109.866 108.056 109.568 108.085C107.716 108.091 105.793 108.151 103.942 108.163C102.685 108.163 101.483 108.234 100.232 108.175C99.5774 108.115 98.9403 107.936 98.5057 107.478C98.0115 107.014 97.702 106.448 97.6484 105.781C97.5412 104.995 97.5591 104.156 97.571 103.382C97.6841 100.881 97.8032 98.3212 97.8568 95.8146C97.8865 93.5462 97.9163 91.3374 97.8866 89.063C97.8628 87.3841 98.5534 85.7766 99.6846 84.5084C103.65 79.793 107.496 75.0717 111.461 70.4159C111.92 69.9812 112.158 69.3442 112.217 68.6952C112.372 65.7183 112.533 62.7474 112.682 59.8301C112.783 58.1035 112.825 56.3769 112.866 54.6444C112.985 52.0842 113.11 49.4646 113.229 46.9045C113.235 46.19 113.182 45.4637 113.075 44.7373C112.717 44.7016 112.432 44.5587 112.08 44.523C109.83 44.3146 107.579 44.0467 105.323 43.8978C102.465 43.749 99.6012 43.7252 96.797 43.6418L96.6184 43.6239C93.582 43.4632 90.611 43.3025 87.5686 43.2013C85.068 43.0881 82.496 43.0881 79.9894 43.0345L79.6918 43.0048C76.7149 42.85 73.7439 42.6892 70.8206 42.5999C68.2605 42.4808 65.6885 42.4808 63.0629 42.4154L62.1162 42.326C59.0202 42.1593 55.9897 41.9986 52.8878 41.8855C51.0421 41.7723 49.256 41.7247 47.4044 41.6771L37.3842 41.4032C37.3723 41.5223 37.1758 41.683 37.2294 41.8081C37.2472 43.5466 37.271 45.2196 37.2889 46.9581C37.2651 47.1962 37.3008 47.4999 37.3365 47.738C37.2948 50.7863 37.2413 53.8883 37.1996 56.9306C37.1758 59.1395 37.2056 61.3543 37.2473 63.5095C37.283 66.3257 37.3187 69.1953 37.3544 72.0115C37.3842 73.6309 37.2948 75.2325 37.2651 76.8459C37.277 78.638 37.3425 80.5015 37.3544 82.2936C37.3544 83.6094 37.3425 84.9847 37.3425 86.3005C37.3008 88.033 37.2591 89.7596 37.283 91.4386C37.3127 94.3143 37.3544 97.1245 37.3902 99.9406C37.4199 101.56 37.3306 103.162 37.3008 104.775C37.3127 106.567 37.3782 108.431 37.3902 110.223C37.3902 111.538 37.3782 112.914 37.3782 114.23C37.3366 115.962 37.2949 117.689 37.3127 119.427C37.3425 122.303 37.3842 125.113 37.4199 127.929C37.4675 128.709 37.2889 129.352 37.2115 130.18L37.0805 130.287L37.0507 130.311ZM37.283 17.8025C37.5271 17.7668 37.7712 17.7251 38.0629 17.7549C40.504 17.862 42.8855 17.9632 45.3265 18.0704L52.2924 18.4157L58.7225 18.7134L65.8076 19.0706C68.0105 19.154 70.2193 19.2433 72.4163 19.3862C75.8635 19.5886 79.3167 19.7911 82.7699 19.928C84.9668 20.0709 87.1816 20.1006 89.3845 20.184C89.4441 20.184 89.5751 20.0828 89.6346 20.0888C88.6999 19.8208 87.771 19.5589 86.8303 19.3505C84.8954 18.9337 82.9604 18.511 81.0254 18.0942C79.0964 17.6179 77.1733 17.0761 75.2383 16.6594C73.1902 16.1712 71.1302 15.802 69.1417 15.3733C66.0993 14.6708 63.1105 13.9742 60.0681 13.2717C59.0738 13.0574 58.0736 12.849 57.0793 12.6346C55.2693 12.1702 53.4594 11.6999 51.6494 11.2355C48.8988 10.6223 46.0767 10.0626 43.332 9.38386C40.5814 8.77063 37.9557 8.04426 35.2051 7.37149C32.9248 6.79993 30.6445 6.2879 28.2987 5.76993L27.1139 5.65684L37.2234 17.8382L37.2889 17.7846L37.283 17.8025ZM117.939 103.388C119.552 103.418 121.041 103.435 122.601 103.4C123.137 103.447 123.297 102.989 123.339 102.513C123.357 101.679 123.262 100.774 123.339 99.9406C123.595 97.2138 123.851 94.4274 124.048 91.6946C124.149 90.6289 123.982 90.492 122.904 90.4503C122.077 90.3729 121.166 90.4681 120.332 90.4503C117.415 90.3014 114.498 90.2062 111.64 90.0633L111.461 90.0454C108.716 89.968 105.966 89.9561 103.227 89.8787C102.989 89.8549 102.745 89.8966 102.447 89.9264L102.292 91.5874C102.251 92.6591 102.274 93.7368 102.233 94.8084C102.173 96.7136 102.114 98.6843 102.114 100.595C102.084 101.548 102.239 102.459 102.263 103.477L107.585 103.495C107.276 102.328 107.782 101.364 108.115 100.375C108.365 99.6191 108.788 98.9403 109.377 98.3985C109.967 97.8568 110.657 97.4995 111.396 97.2733C114.539 96.2492 117.236 98.1128 117.629 100.965C117.748 101.631 117.802 102.358 117.951 103.269L117.939 103.388ZM45.4278 134.74C45.2491 134.722 45.017 134.645 44.8383 134.627L37.4735 134.722C36.5745 134.758 35.6814 134.734 34.7169 134.764C32.3771 134.847 30.0313 134.984 27.6378 135.002C25.304 135.026 22.9105 135.044 20.5767 135.062C19.499 135.08 18.4214 135.103 17.3437 135.121C15.9029 135.169 14.4621 135.27 13.0213 135.318C11.5805 135.365 10.1456 135.348 8.65717 135.33C8.96081 136.556 8.7822 137.854 9.40735 138.866L45.136 137.884L45.4218 134.8V134.74H45.4278ZM26.2089 24.3635C25.8815 25.9472 25.5659 35.1279 25.7862 36.6402L41.8793 37.182C40.5039 35.2589 29.8288 26.5545 26.2089 24.3635ZM113.872 74.4883C113.265 75.2087 112.801 75.7028 112.39 76.2625C110.098 79.0369 107.752 81.7518 105.466 84.5263C105.317 84.8121 105.233 85.1038 105.138 85.4551L106.085 85.5444C108.353 85.5742 110.568 85.5444 112.831 85.6337C115.575 85.7111 118.308 85.9016 121.053 85.979C121.47 86.0147 121.892 85.9373 122.38 85.8659C119.511 82.0138 116.802 78.3523 113.932 74.4942H113.872V74.4883ZM31.4066 88.1105L28.9774 87.8842C27.5962 87.9378 26.2089 88.045 24.8336 88.0985C23.6309 88.164 22.3747 88.17 21.1601 88.3546C19.9455 88.5391 19.6895 88.7535 19.63 90.0038C19.5526 91.4922 19.5943 92.9925 19.505 94.5346C19.4454 96.4398 19.3858 98.4105 19.3263 100.316C19.2846 101.387 19.368 102.411 19.4335 103.674C23.4464 98.4283 27.3282 93.3438 31.347 88.0985H31.4066V88.1105ZM62.265 37.825C57.7699 33.4609 53.3165 29.2218 48.5475 25.2507C48.5237 25.4888 48.4522 25.6615 48.4284 25.8996C48.2379 29.2278 47.9879 32.5559 47.8569 35.89C47.9343 36.3782 48.0057 36.8605 48.1962 37.3547L62.3246 37.831H62.265V37.825ZM19.7788 78.0605C23.7738 73.0474 27.5366 67.957 31.3768 62.6343C27.5485 62.6343 23.9584 62.6641 20.3682 62.6879C20.2491 62.676 20.1123 62.8427 19.9872 62.9499C19.9396 67.9689 19.8264 73.0415 19.7788 78.0605ZM6.00173 23.6848C5.44207 26.5009 4.84075 34.8779 4.97174 36.0269L18.9275 36.4259L5.99584 23.7443V23.6848H6.00173ZM91.4208 24.566C95.9933 28.7574 100.673 32.4785 105.329 36.3842C105.859 33.2644 106.424 26.5009 106.24 25.2864C101.435 24.8994 96.541 24.7446 91.4208 24.566ZM123.845 39.8374C121.72 37.6047 119.499 35.7888 117.397 33.9193C115.301 32.0498 113.075 30.228 110.806 28.2811L109.794 39.1884C109.973 39.2062 110.02 39.3313 110.139 39.3372C113.295 39.5099 116.444 39.6826 119.665 39.8016C120.969 39.9207 122.357 39.8136 123.911 39.7778L123.845 39.8314V39.8374ZM32.6152 68.6714L21.5173 83.8416L32.6152 83.4367C32.6331 78.7154 32.6033 73.9286 32.6152 68.6655V68.6714ZM130.811 29.2456C130.567 33.1692 129.942 36.6402 130.204 40.2541C131.865 40.4089 133.585 40.5101 135.27 40.4268C137.664 40.4089 140.099 40.5756 142.54 40.6828C142.838 40.7126 143.135 40.7364 143.379 40.6411C143.689 40.5518 143.933 40.4506 144.13 40.2899L130.811 29.1861V29.2456ZM32.7045 116.575C31.6805 117.32 23.4106 127.792 21.7257 130.501C25.0539 130.692 28.3225 130.275 31.5435 130.4C31.9603 130.436 32.389 130.299 32.7581 130.215C32.7343 127.882 32.5854 125.655 32.6688 123.452C32.7521 121.249 32.6093 118.963 32.77 116.587H32.7105L32.7045 116.575ZM68.5165 27.2213C68.5641 28.0013 68.6356 28.4895 68.6475 29.0254C68.5285 31.5855 68.4094 34.1456 68.2844 36.7652C68.2486 37.182 68.2069 37.5928 68.2188 38.1346C69.4155 38.1286 70.4336 38.0989 71.5053 38.1406C74.4882 38.2358 77.3996 38.3906 80.3765 38.5454L80.8528 38.5871C81.0433 38.4859 81.2279 38.4442 81.4184 38.2834C80.3526 36.8664 71.8268 29.5612 68.451 27.269L68.5165 27.2154V27.2213ZM19.0405 125.887L19.3263 126.036L30.067 112.146L19.2727 112.455C19.2013 117.052 19.0941 121.469 19.0346 125.947V125.887H19.0405ZM32.6449 107.603C32.5318 103.048 32.7581 98.6426 32.5378 93.963L22.1187 107.645C23.2797 108.05 24.3097 107.847 25.3933 107.77C27.739 107.627 30.1265 107.669 32.6449 107.609V107.603ZM31.0434 41.1412L20.3147 40.8019L20.1599 42.463C20.1122 42.9988 20.2253 43.6656 20.2373 44.2015C20.1718 46.1662 20.1063 48.1965 20.0408 50.1612C20.0408 51.4174 20.1063 52.6796 20.0944 54.1145L31.0494 41.0817V41.1412H31.0434ZM84.4548 34.5623L84.6156 32.8417C84.7227 30.4007 84.824 28.0191 84.9311 25.5781C84.9668 25.1613 84.949 24.7446 84.9311 24.2623L83.3891 24.1194L72.5651 23.4705C72.2079 23.4348 71.9102 23.4109 71.3089 23.4705L84.3893 34.5504H84.4488L84.4548 34.5623ZM9.1037 20.5055L21.1124 32.2046L21.2316 30.9008C21.3804 27.9834 21.5352 25.0721 21.6781 22.2142C21.7138 21.857 21.684 21.4998 21.6662 21.0771L9.04418 20.4996H9.1037V20.5055ZM43.5999 32.1392L43.7011 31.0734C43.85 28.2156 43.9929 25.3578 44.1358 22.5655C44.1477 22.4464 44.0465 22.2559 43.9453 22.0713C42.9867 22.1011 42.0222 22.1904 41.0695 22.1011C37.914 21.9285 34.7645 21.7558 31.5494 21.5772C31.1327 21.5415 30.7219 21.4998 30.2992 21.5236L43.5463 32.1451H43.6059L43.5999 32.1392ZM101.667 39.1527L89.1345 28.6026C89.4679 32.1034 88.5093 35.3601 89.0869 38.7657L101.667 39.1586V39.1527ZM32.3414 46.5234L22.6545 58.1214C22.8927 58.1452 23.1248 58.2226 23.363 58.1869C26.1315 57.9666 28.9358 58.0499 31.7221 58.3059C32.0198 58.3357 32.3175 58.3595 32.7342 58.3417C32.7402 54.3943 32.6807 50.566 32.6807 46.6782C32.6807 46.6782 32.514 46.5413 32.4009 46.4758L32.3354 46.5294L32.3414 46.5234ZM64.2179 23.2919L62.6163 23.143L53.9297 22.6965C53.513 22.6608 53.0962 22.6786 52.4949 22.6846L63.9202 32.9548C64.0452 29.6803 64.1464 26.6379 64.2714 23.3633L64.2179 23.2978V23.2919ZM114.813 25.7269L125.768 35.2351L126.518 27.1737C126.536 26.9951 126.554 26.7569 126.518 26.5783C124.286 26.1318 116.212 25.5007 114.819 25.7329L114.813 25.7269ZM31.091 17.4631L23.7084 8.76469C23.3095 10.4615 22.7974 15.9747 22.9879 17.1893C25.5838 16.9511 28.1498 17.612 31.097 17.4631H31.091ZM18.3082 16.6951L19.0346 8.87185C16.6531 11.3427 14.4443 13.8849 12.3902 16.6832C14.4204 16.6951 16.2839 17.225 18.3023 16.7546V16.6951H18.3082Z" fill="#000091"/>
<path d="M75.3517 98.4164C75.8875 98.464 76.3936 98.8093 76.7687 99.2678C77.1438 99.7262 77.3402 100.22 77.3402 100.816C77.1199 103.185 77.7391 105.519 78.9894 107.543C79.4538 108.306 80.1088 109.02 80.6386 109.729C81.0137 110.181 81.2697 110.681 81.5734 111.253C81.9782 112.068 81.6091 112.813 81.0137 113.414C80.7458 113.747 80.3052 113.944 79.8825 114.027C79.4598 114.11 79.0489 114.009 78.65 113.795C77.5664 113.217 76.6377 112.295 76.0185 111.217C74.1073 108.585 73.0237 105.495 72.726 102.239C72.6189 100.792 73.4048 98.7736 74.6849 98.5355C74.923 98.5593 75.1135 98.4581 75.2921 98.4104H75.3517V98.4164Z" fill="#000091"/>
<path d="M86.1872 99.5419C86.0741 102.042 86.854 104.567 88.4616 106.567C88.789 106.895 88.9855 107.335 89.1284 107.764C89.2713 108.193 89.2832 108.675 89.2415 109.092C89.2058 109.449 89.1165 109.8 88.9081 110.08C88.6997 110.36 88.4378 110.634 88.1222 110.783C87.8067 110.931 87.4435 111.021 87.0863 110.985C86.729 110.949 86.3777 110.86 86.0979 110.652C85.7585 110.443 85.4787 110.235 85.2703 109.919C83.1865 107.276 81.9303 104.049 81.585 100.667C81.3885 99.5717 81.5433 98.5119 82.0553 97.5415C82.6269 96.5174 83.8296 95.8506 84.6393 96.1066C85.1632 96.2733 85.6038 96.6722 85.9134 97.1842C86.223 97.6963 86.2944 98.2381 86.2408 98.8275L86.1634 99.655L86.1753 99.536L86.1872 99.5419Z" fill="#000091"/>
</svg>
