<svg width="181" height="188" viewBox="0 0 181 188" fill="none" xmlns="http://www.w3.org/2000/svg">
<path d="M72.3943 149.816C72.1677 146.936 71.9033 144.339 71.7333 141.751C71.3272 136.377 71.4879 130.976 72.1207 125.63C72.574 121.787 73.3105 117.971 73.9433 114.241C75.577 105.307 75.8888 96.2131 74.9633 87.1659C74.4816 83.209 74.0848 79.3559 75.0198 75.4745C75.5486 72.5942 76.918 69.9027 79.0617 67.8722C80.45 66.6068 82.1688 65.7663 84.0954 65.5207C85.4553 65.3035 86.7585 65.5491 88.0334 65.9835C89.195 66.5973 90.2339 67.4851 90.9516 68.6089C92.5098 70.696 93.256 73.2552 93.1426 75.8145C92.8971 79.4976 92.6514 83.1711 92.3114 86.8448C91.8204 90.9717 91.981 95.2686 92.6326 99.3389C93.3692 102.758 93.8129 106.233 94.3512 109.718C94.8045 112.343 94.8613 115.006 94.4552 117.622C93.9736 120.89 93.388 124.252 92.7175 127.5C91.6125 133.648 91.2727 139.692 92.8215 145.868C93.1614 147.049 93.2842 148.399 93.5014 149.75C93.8697 149.891 94.323 150.033 94.7008 150.08C98.7711 150.279 102.917 150.581 107.016 150.496C110.529 150.534 114.023 150.76 117.47 151.355C118.499 151.478 119.51 151.79 120.586 150.77C119.33 146.917 116.667 143.744 113.078 141.893C112.795 141.855 112.597 141.93 112.304 141.987C107.969 144.036 103.965 142.516 100.112 140.542C99.4888 140.183 99.0733 139.654 98.7806 138.956C98.5634 138.361 98.5633 137.596 98.7333 136.954C98.9977 136.321 99.3376 135.886 99.8571 135.471C100.376 135.055 100.962 134.933 101.633 134.923C102.01 134.97 102.473 135.027 103.238 135.018C101.973 133.629 100.877 132.458 99.7909 131.183C99.3659 130.749 99.0448 130.239 98.8371 129.644C98.6293 129.049 98.5916 128.473 98.6577 127.916C98.7143 127.444 98.8655 126.99 99.196 126.556C99.4416 126.112 99.857 125.782 100.254 125.64C100.66 125.404 101.151 125.272 101.717 125.338C102.19 125.394 102.652 125.451 103.106 125.697C103.908 126.169 104.692 126.745 105.287 127.378C108.224 130.673 111.785 133.573 115.723 135.65C116.969 136.368 118.103 137.265 119.604 138.2C119.387 135.99 118.886 133.837 118.178 131.759C116.818 127.982 115.458 124.214 114.098 120.436C113.966 119.945 113.636 119.53 113.296 119.199C112.956 118.869 112.512 118.633 111.955 118.472C107.138 116.574 104.06 112.872 102.246 108.093C101.888 107.102 101.623 106.12 101.548 105.156C101.453 104.382 101.633 103.645 102.095 102.937C102.549 102.323 103.181 101.832 103.871 101.624C104.655 101.435 105.401 101.52 106.118 101.889C106.836 102.257 107.327 102.89 107.535 103.579C107.667 104.07 107.894 104.571 108.026 105.062C108.668 106.847 109.622 108.48 110.972 109.878L111.161 108.282C110.623 104.033 110.463 99.7356 110.774 95.4953C110.963 93.1438 110.963 90.6695 111.152 88.3086C111.237 87.5625 111.426 86.8165 111.794 86.0988C112.144 85.5699 112.569 85.1449 113.182 84.8332C113.777 84.616 114.363 84.4934 115.024 84.5784C115.591 84.6445 116.214 85.0032 116.639 85.4377C117.064 85.8721 117.375 86.4764 117.489 87.062C117.677 88.7052 117.583 90.3107 117.649 92.1239C118.99 90.4713 120.161 88.6202 121.049 86.722C121.313 86.0893 121.663 85.5604 122.022 84.9371C122.381 84.3138 122.994 83.9078 123.693 83.7095C124.392 83.5112 125.044 83.5867 125.667 83.9456C126.215 84.1061 126.734 84.5499 127.055 85.0599C127.376 85.5698 127.499 86.1555 127.414 86.8165C127.291 87.8459 127.169 88.8753 126.687 89.7724C124.364 94.1543 121.937 98.5268 118.036 101.775C117.725 102.021 117.489 102.38 117.338 102.833L117.196 104.051C117.508 108.651 118.48 113.24 119.868 117.584C120.709 120.153 121.549 122.637 122.494 125.12C122.636 125.517 122.872 125.923 123.108 126.339C125.176 121.73 127.036 117.292 129.227 112.419C127.613 109.179 127.981 105.326 128.727 101.426C129.152 99.4806 129.747 97.6485 130.531 95.8353C130.899 95.1175 131.456 94.4281 132.098 93.8332C132.533 93.4082 133.128 93.191 133.694 93.1627C134.261 93.1344 134.912 93.3043 135.451 93.5593C135.989 93.8143 136.509 94.2581 136.735 94.7587C137.056 95.2686 137.075 95.9392 136.99 96.6003C136.745 97.9035 136.291 99.2728 135.772 100.453C135.092 102.182 135.083 103.891 134.714 106.129C137.538 103.995 139.852 101.313 141.448 98.2718C142.789 95.7692 144.13 93.2665 145.556 90.8678C146.019 90.1595 146.576 89.4701 147.209 88.9696C147.737 88.5541 148.332 88.3464 149.012 88.2331C149.683 88.2142 150.325 88.3841 150.854 88.7335C151.392 88.9885 151.808 89.5079 152.034 90.0179C152.251 90.6128 152.28 91.189 152.119 91.7367C152.034 92.4828 151.751 93.2194 151.439 94.2204L155.793 91.2172C156.199 90.9811 156.633 90.5562 157.039 90.3201C157.644 90.0085 158.324 89.9046 158.985 89.9802C159.646 90.0557 160.26 90.4145 160.779 90.8584C161.299 91.3022 161.591 92.0011 161.61 92.6716C161.724 93.3516 161.44 94.0788 161.091 94.6076C160.288 95.7503 159.325 96.6758 158.182 97.4974C154.858 99.8583 151.439 102.21 147.114 102.654C146.916 102.729 146.623 102.786 146.415 102.946C146.207 103.116 146.085 103.286 145.962 103.56C144.215 106.299 142.014 108.802 139.578 110.889C135.744 114.336 132.844 118.746 131.041 123.572C130.181 126.036 129.218 128.492 128.349 131.051C128.047 131.967 127.83 132.987 127.726 133.922C131.248 131.486 134.384 129.096 137.755 127.123C141.127 125.149 144.753 123.487 148.398 121.541C148.304 120.767 148.294 120.011 148.294 119.246C148.549 114.713 150.457 110.662 152.903 106.856C153.366 106.148 154.083 105.761 154.867 105.562C155.651 105.374 156.482 105.562 157.19 106.025C157.804 106.478 158.296 107.111 158.494 107.895C158.692 108.679 158.692 109.444 158.324 110.162C157.918 111.163 157.332 112.135 156.917 113.231C156.284 114.581 155.727 116.035 155.358 117.518C156.558 116.999 157.606 116.168 158.494 115.129C160.458 112.985 162.422 110.841 164.396 108.698C164.736 108.263 165.057 107.923 165.558 107.697C166.058 107.47 166.549 107.338 167.041 107.206C167.617 107.177 168.079 107.234 168.637 107.394C169.08 107.64 169.515 107.971 169.845 108.396C170.176 108.821 170.402 109.321 170.431 109.888C170.459 110.454 170.308 110.917 170.147 111.474C169.892 112.013 169.637 112.551 169.212 112.976C167.012 115.469 164.897 118.075 162.526 120.455C159.41 123.506 155.698 125.923 151.609 127.529C148.512 128.775 145.49 130.23 142.184 131.637C146.019 132.949 149.38 134.3 152.771 135.367C154.811 135.801 156.898 135.858 158.843 135.518C159.618 135.424 160.392 135.32 161.138 135.414C161.799 135.49 162.545 135.584 163.055 136.113C163.574 136.557 163.971 137.171 164.085 137.851C164.207 138.436 164.217 139.107 163.952 139.739C163.688 140.372 163.254 140.797 162.734 141.213C162.319 141.543 161.828 141.675 161.336 141.808C157.823 142.535 154.272 142.875 150.703 141.685C147.69 140.665 144.753 139.739 141.731 138.72C139.54 137.983 137.189 137.709 134.884 137.907C134.119 137.907 133.326 138.2 132.722 138.502C132.013 138.89 131.485 139.305 130.937 139.909C132.967 140.438 135.12 140.693 137.311 140.665C137.982 140.646 138.643 140.637 139.408 140.627C140.343 140.741 141.155 141.118 141.75 141.76C142.335 142.403 142.704 143.3 142.694 144.254C142.59 145.094 142.128 145.802 141.58 146.407C140.947 146.907 140.154 147.191 139.398 147.191C137.68 147.276 135.97 147.257 134.27 147.153L127.14 146.303C127.055 147.049 126.961 147.804 127.065 148.579C127.169 149.353 127.273 150.033 127.386 150.713L139.436 150.902L152.544 151.034C154.254 151.044 155.963 151.063 157.672 151.072C160.411 151.204 163.159 151.346 165.907 151.384C168.939 151.459 172.083 151.45 175.115 151.525C176.059 151.544 177.004 151.658 177.929 151.856C178.496 151.922 179.034 152.177 179.459 152.611C179.893 152.951 180.215 153.461 180.347 153.952C181.064 155.936 181.121 157.853 179.601 159.477C176.428 162.999 172.745 165.984 168.655 168.354C162.337 171.886 155.509 174.115 148.691 176.353C143.941 177.883 139.436 179.819 134.979 182.142C129.907 184.777 124.572 186.515 118.952 187.374C117.026 187.619 115.014 187.667 113.116 187.629C112.172 187.61 111.237 187.402 110.302 187.298C102.851 186.798 95.5507 184.975 88.7984 181.802C83.9254 179.611 78.7974 177.949 73.4994 176.854C70.8835 176.447 68.2485 176.23 65.5665 176.391C62.3367 176.391 59.0787 176.57 55.8301 176.665C52.3831 176.825 49.0399 177.005 45.5929 177.165C37.1595 177.685 28.6979 176.117 20.8123 172.802C14.1166 169.912 8.1671 165.596 3.1902 160.251C2.24582 159.382 1.51847 158.344 0.885736 157.22C0.479652 156.606 0.281322 155.907 0.167996 155.237C0.149109 154.566 0.338087 153.83 0.508075 153.187C0.678064 152.545 1.22587 151.941 1.75472 151.525C2.28358 151.11 2.98244 150.817 3.6624 150.704C4.73899 150.449 5.88167 150.401 6.93937 150.335C13.4178 150.25 19.8961 150.156 26.3746 150.071C28.66 150.052 30.9454 150.043 33.2119 150.118C31.7765 142.148 30.4166 134.385 28.9906 126.414C28.3106 126.528 27.829 126.565 27.3379 126.698C24.212 127.378 21.0672 127.472 17.9224 126.726C15.5993 126.263 13.6728 124.894 11.8501 123.439C6.90155 119.426 4.47448 114.288 5.22999 107.914C6.09882 100.595 11.5762 96.1091 17.6863 95.127C20.51 94.6076 23.3622 94.5604 26.0631 95.0704L27.2814 95.2119L28.0934 88.3652C28.3579 86.1176 29.1041 83.8227 30.1146 81.7546C30.6151 80.763 31.2005 79.7903 31.9561 79.0254C32.5982 78.4399 33.2215 77.9393 34.0336 77.5616C34.8458 77.1838 35.7051 77.0988 36.5645 77.0988C37.405 77.2027 38.2551 77.2972 39.0767 77.5899C39.8889 77.9677 40.5972 78.4398 41.1827 79.0726C42.4576 80.3664 43.4114 81.9057 43.978 83.5867C44.5352 85.2677 44.7995 87.1092 44.5823 88.8847C44.3085 91.9917 43.8363 95.1648 43.4397 98.5456L48.1899 101.01C49.6821 99.6694 51.0798 98.3095 52.4491 97.1385C53.0913 96.553 53.809 96.062 54.5267 95.6748C55.0367 95.3537 55.7451 95.0609 56.3117 95.0326C56.9917 94.9192 57.6433 95.0042 58.191 95.2592C58.7388 95.5142 59.3525 95.873 59.7775 96.3075C60.2025 96.7419 60.5141 97.3463 60.7219 97.9412C61.3641 99.7261 61.7135 101.577 61.8835 103.4C62.4218 108.499 62.7713 113.59 63.1207 118.67C63.149 120.002 63.0828 121.428 62.8279 122.722C62.4784 125.63 59.8624 126.839 57.2842 125.394C56.7554 125.045 56.1511 124.497 55.745 123.978C54.98 123.222 54.2245 122.372 53.3651 121.607C52.2602 120.521 51.0419 119.53 49.7575 118.33L44.4786 121.985C47.1512 131.523 50.6075 140.873 54.7628 149.929C60.4669 149.939 66.1427 150.232 71.8751 149.958L72.4605 149.835L72.3943 149.816ZM171.101 157.909L161.45 157.522C159.939 157.437 158.418 157.447 156.813 157.352C152.724 157.352 148.634 157.333 144.545 157.324C140.277 157.201 136.017 157.069 131.749 156.946C129.945 156.918 128.141 156.899 126.432 156.889C122.343 156.889 118.254 156.87 114.174 156.767C111.7 156.767 109.254 156.559 106.779 156.559L93.9547 156.464C89.0155 156.446 84.067 156.436 79.1279 156.417C73.3294 156.398 67.531 156.37 61.7325 156.351C59.7398 156.304 57.8416 156.266 55.849 156.228C51.8542 156.228 47.8595 156.228 43.7703 156.228C38.8312 156.209 33.8921 156.106 28.9435 156.181C23.4283 156.191 18.0075 156.219 12.5679 156.332C11.6235 156.313 10.6508 156.483 9.30978 156.521C12.6718 160.251 16.7892 163.207 21.2939 165.36C29.104 169.232 37.7546 170.923 46.3957 170.243C49.8521 169.988 53.3746 169.931 56.916 169.78C60.0703 169.676 63.2245 169.478 66.3693 169.478C69.2308 169.44 71.9694 169.572 74.7742 169.997C80.2516 171.121 85.5685 172.802 90.6304 175.012C96.0606 177.363 101.491 179.63 107.535 180.055L113.163 180.725C115.506 180.999 117.999 180.82 120.256 180.234C124.761 179.148 129.039 177.571 133.184 175.494C137.632 173.265 142.147 171.329 146.887 169.799C153.413 167.721 159.929 165.644 165.87 162.065C167.617 160.941 169.619 160.129 171.111 157.928L171.101 157.909ZM86.5509 149.882C86.5509 149.023 86.4657 148.163 86.3807 147.294C84.9169 141.222 84.8036 134.933 85.9274 128.7C86.5885 124.686 87.363 120.597 87.9391 116.574C88.1185 115.072 88.2033 113.561 88.005 112.012C87.58 108.348 87.0606 104.769 86.3429 101.162C85.4268 96.8647 85.2002 92.3694 85.6252 87.9497C85.8896 85.7021 86.1729 83.3506 86.3429 81.0935C86.5695 79.2142 86.5979 77.316 86.6357 75.4178C86.7113 74.7567 86.5886 74.1807 86.2864 73.5669C85.9748 72.9625 85.5686 72.4335 85.0397 72.0841C82.9432 72.8774 82.2632 74.6056 81.8571 76.4661C81.3471 79.167 81.2149 81.9057 81.6493 84.616C82.7448 93.021 82.6882 101.473 81.5078 109.897C81.045 112.985 80.4785 116.149 79.9307 119.218C78.5992 127.236 78.1079 135.357 78.5706 143.498C78.7029 145.604 78.5423 147.776 79.5245 149.891H86.6546L86.5601 149.873L86.5509 149.882ZM36.8195 83.3033C36.1868 84.6538 35.7336 86.0232 35.2803 87.4964C33.9959 94.2865 33.6464 101.284 33.9675 108.169C34.4963 116.508 35.8091 124.743 37.1029 133.072C37.9812 138.502 39.5299 143.914 38.9633 149.457C41.8437 149.986 44.809 149.863 47.6327 149.344C47.576 149.051 47.4156 148.749 47.359 148.456C44.4503 142.497 42.3632 136.075 40.2572 129.738C36.8385 120.106 35.6674 109.888 36.8668 99.7639C37.3012 96.1092 37.7355 92.445 38.1699 88.7902C38.406 86.8165 37.9622 84.9655 36.8195 83.3033ZM27.0359 101.643C23.9949 100.803 20.765 100.803 17.7147 101.681C16.5342 102.021 15.5142 102.559 14.5604 103.4C13.701 104.25 13.0117 105.213 12.5962 106.308C10.9152 110.86 12.5394 114.77 15.9959 117.745C17.0347 118.633 18.187 119.331 19.4619 119.775C22.3989 120.691 25.4776 120.389 28.2069 119.001C27.8764 116.206 27.5363 113.41 27.3946 110.634C27.253 107.857 27.2153 104.911 27.0264 101.747V101.653L27.0359 101.643ZM55.3484 103.475L52.978 105.855C50.8154 108.074 49.5499 108.301 46.5562 107.092C45.4796 106.582 44.2896 106.157 42.9297 105.619C42.9958 107.432 43.0241 108.868 43.1374 110.303C43.2507 111.739 43.3737 113.089 43.5531 114.827C44.5919 114.09 45.3002 113.703 45.9424 113.117C49.6161 110.228 51.8825 110.303 55.1029 113.637C55.4429 113.967 55.8017 114.194 56.0473 114.506C56.5667 112.57 56.1699 106.242 55.2539 103.57L55.3579 103.485L55.3484 103.475Z" fill="#3558A2"/>
<path d="M150.731 54.5946L156.237 50.6848C158.419 49.1361 160.506 47.5778 162.687 46.029C163.216 45.6135 163.82 45.3113 164.519 45.0091C165.02 44.7825 165.605 44.6597 166.172 44.7258C166.739 44.7919 167.286 44.9524 167.721 45.2924C168.155 45.6323 168.486 46.0479 168.713 46.5485C168.939 47.049 169.062 47.6345 168.996 48.2011C168.939 50.2882 168.892 52.2808 168.646 54.3396C167.825 61.2808 167.013 68.1275 166.285 75.0781L165.955 77.8923C165.36 80.4894 163.235 81.5659 160.912 80.3382C160.015 79.8471 159.136 79.2711 158.362 78.6101C155.217 76.2397 152.186 73.7843 149.305 71.5461C144.045 71.7822 139.172 71.9616 134.195 72.2261C128.765 72.3394 123.392 71.8955 118.112 70.6962C111.143 69.2985 104.126 67.5137 97.6664 64.2745C94.0022 62.3196 90.5553 60.1003 88.1094 56.6722C86.079 53.7729 85.2008 50.7131 86.7495 47.285C87.505 45.7551 88.6193 44.3669 89.9698 43.3847C93.3035 40.9293 97.1944 39.39 101.34 38.9367C106.072 38.3606 110.794 38.6345 115.345 39.5506C119.416 40.5044 123.363 41.7416 127.273 43.2431C135.187 46.2746 142.733 50.0237 150.014 54.4056L150.76 54.4906V54.5851L150.731 54.5946ZM161.403 55.1894C160.676 55.6711 159.958 56.1622 159.231 56.6438C157.777 57.711 156.332 58.6742 154.858 59.8358C151.931 62.0551 148.824 61.7812 146 59.9302C138.728 55.4539 131.003 51.6858 122.985 48.7394C116.894 46.3973 110.614 44.8014 104.003 45.2547C100.547 45.5097 97.251 46.0668 94.4178 48.305C92.2174 50.0426 91.9625 51.3458 94.0118 53.3007C95.4473 54.8022 97.1094 56.0488 98.7904 57.0971C105.174 60.9879 112.295 62.6973 119.548 64.1233C128.661 65.8704 137.954 66.1159 147.048 64.8127C147.634 64.6899 148.21 64.6617 148.862 64.7466C151.194 65.115 153.451 66.1443 155.264 67.6931C156.643 68.9019 158.23 69.9501 159.703 71.1684C160.468 68.6941 161.733 57.2388 161.422 55.1139V55.2083L161.403 55.1894Z" fill="#3558A2"/>
<path d="M106.893 26.4705C108.867 26.7066 109.745 28.0476 109.509 30.1063C109.273 32.1651 107.875 33.4306 105.911 33.1945C103.947 32.9584 103.163 31.5323 103.219 29.4546C103.276 28.9825 103.323 28.6142 103.559 28.1609C103.795 27.8114 104.022 27.4526 104.447 27.1221C104.759 26.8765 105.174 26.6404 105.665 26.5082C106.062 26.3665 106.544 26.3288 107.016 26.3854L106.912 26.4705H106.893Z" fill="#3558A2"/>
<path d="M24.8168 72.2827C24.439 72.2355 23.9763 72.1787 23.6174 71.9521C23.268 71.716 22.9091 71.4894 22.6635 71.1777C22.418 70.8661 22.182 70.4506 22.0403 70.054C21.8987 69.6574 21.8608 69.1756 21.908 68.7979C21.9647 68.3257 22.012 67.9574 22.2481 67.5041C22.3897 67.1358 22.7204 66.7014 23.0414 66.4559C23.372 66.1159 23.7686 65.9742 24.1652 65.8325C24.5618 65.6909 25.0434 65.6531 25.5156 65.7098C26.3561 65.8136 27.1588 66.2858 27.6405 67.0036C28.141 67.6363 28.4148 68.524 28.3109 69.3645C28.2071 70.205 27.8294 71.0172 27.1872 71.6121C26.545 72.1976 25.6573 72.481 24.8168 72.3771V72.2827Z" fill="#3558A2"/>
<path d="M105.948 0.018845C106.326 0.0660639 106.789 0.122704 107.148 0.349354C107.497 0.585449 107.856 0.812049 108.102 1.12369C108.347 1.43534 108.583 1.85092 108.725 2.24756C108.867 2.6442 108.904 3.12579 108.857 3.50355C108.8 3.97573 108.753 4.34406 108.526 4.70292C108.3 5.06179 108.064 5.41119 107.733 5.75117C107.422 5.99671 107.006 6.23284 106.61 6.37449C106.213 6.51615 105.731 6.55394 105.353 6.50672C104.976 6.4595 104.513 6.40286 104.154 6.17621C103.805 5.94011 103.446 5.71338 103.106 5.38285C102.86 5.0712 102.624 4.65573 102.483 4.25909C102.341 3.86246 102.303 3.38086 102.35 3.00311C102.454 2.16262 102.926 1.35988 103.559 0.859355C104.201 0.273841 105.079 0.08491 105.929 0.0943537V-6.10352e-05L105.948 0.018845Z" fill="#3558A2"/>
<path d="M14.7682 80.7918C14.8249 80.3196 14.8719 79.9513 15.0986 79.5924C15.2402 79.2241 15.5614 78.8842 15.892 78.5442C16.2036 78.2986 16.6191 78.0625 17.0157 77.9209C17.4124 77.7792 17.8941 77.7414 18.2718 77.7886C18.744 77.8453 19.1029 77.9869 19.4617 78.2136C19.8206 78.4402 20.1606 78.7708 20.4061 79.0824C20.6517 79.3941 20.8876 79.8096 20.9443 80.1874C21.0859 80.584 21.0293 81.0562 20.9915 81.4245C20.9349 81.8967 20.8878 82.265 20.6611 82.6238C20.4345 82.9827 20.1983 83.3321 19.8867 83.5777C19.575 83.8232 19.1596 84.0593 18.7629 84.201C18.3663 84.3427 17.8846 84.3804 17.5068 84.3332C17.1291 84.286 16.6663 84.2293 16.3074 84.0026C15.958 83.7665 15.5991 83.5399 15.363 83.1338C15.1175 82.8222 14.8813 82.4066 14.8247 82.0289C14.683 81.6322 14.7399 81.1601 14.7776 80.7918H14.7682Z" fill="#3558A2"/>
<path d="M116.629 17.3575C116.572 17.8297 116.525 18.198 116.299 18.5569C116.072 18.9157 115.836 19.2652 115.524 19.5107C115.213 19.7563 114.797 19.9923 114.401 20.1339C114.004 20.2756 113.522 20.3134 113.144 20.2661C112.304 20.1623 111.511 19.5957 111.029 18.8779C110.547 18.1508 110.358 17.282 110.462 16.432C110.509 16.0543 110.566 15.5915 110.793 15.2327C110.935 14.8643 111.256 14.5244 111.567 14.2788C111.879 14.0333 112.276 13.8917 112.672 13.7406C113.069 13.5989 113.447 13.6461 113.909 13.6933C114.372 13.7405 114.75 13.7972 115.109 14.0238C115.458 14.2599 115.817 14.4866 116.063 14.7983C116.308 15.1099 116.544 15.5254 116.686 15.922C116.827 16.3187 116.771 16.7909 116.733 17.1592L116.62 17.3386L116.629 17.3575Z" fill="#3558A2"/>
<path d="M27.4418 57.3711C27.3851 57.8433 27.3378 58.2117 27.1111 58.5705C26.8845 58.9294 26.6486 59.2788 26.3369 59.5243C26.0253 59.7699 25.6096 60.0059 25.2129 60.1476C24.8163 60.2892 24.3348 60.327 23.957 60.2798C23.5793 60.2326 23.1165 60.1759 22.7577 59.9493C22.4082 59.7132 22.0494 59.4866 21.8038 59.1749C21.5583 58.8633 21.3221 58.4477 21.2655 58.07C21.1238 57.6733 21.1804 57.2012 21.2182 56.8329C21.2749 56.3607 21.3222 55.9924 21.5488 55.6335C21.6905 55.2652 22.0116 54.9252 22.3233 54.6797C22.6349 54.4341 23.0504 54.198 23.4281 54.1413C23.8248 53.9997 24.297 54.0564 24.6653 54.0942C25.0336 54.1319 25.5058 54.198 25.7702 54.4152C26.0346 54.6324 26.4785 54.8779 26.724 55.1896C26.9696 55.5012 27.2246 55.8224 27.2718 56.2096C27.3191 56.5968 27.3661 56.9839 27.3283 57.3617H27.4229L27.4418 57.3711Z" fill="#3558A2"/>
<path d="M22.9841 108.575C22.7574 110.455 21.6996 111.371 19.8297 111.154C17.856 110.917 16.9493 109.765 17.176 107.886C17.4026 106.007 18.5548 105.1 20.5097 105.431C22.389 105.657 23.2107 106.706 22.9746 108.67V108.575H22.9841Z" fill="#3558A2"/>
<path d="M105.118 54.3204C104.277 54.2166 103.559 53.8482 103.059 53.2249C102.558 52.6016 102.275 51.7989 102.379 50.9584C102.483 50.1179 103.021 49.5136 103.654 49.013C104.286 48.5125 105.08 48.2291 105.835 48.2291C106.213 48.2763 106.581 48.3142 106.931 48.6447C107.28 48.8808 107.639 49.1074 107.885 49.4191C108.13 49.7307 108.272 50.1274 108.423 50.524C108.574 50.9207 108.517 51.2984 108.48 51.6761C108.442 52.0539 108.395 52.4222 108.158 52.7811C107.922 53.1305 107.696 53.4894 107.384 53.7349C107.072 53.9805 106.676 54.1221 106.279 54.2732C105.883 54.4148 105.505 54.3677 105.127 54.3299L105.118 54.3204Z" fill="#3558A2"/>
<path d="M117.413 54.0654C117.328 54.8115 116.856 55.5198 116.242 55.9258C115.61 56.4264 114.845 56.5208 114.089 56.4358C113.711 56.3886 113.249 56.332 112.89 56.1053C112.54 55.8692 112.181 55.6425 111.936 55.3309C111.69 55.0192 111.549 54.6227 111.492 54.2355C111.435 53.8483 111.492 53.4705 111.634 53.0172C111.681 52.6394 111.719 52.2711 111.955 51.9122C112.191 51.5628 112.408 51.2985 112.72 51.0529C113.031 50.8074 113.428 50.6656 113.815 50.609C114.202 50.5618 114.58 50.609 114.939 50.7412C115.317 50.7884 115.685 50.8262 116.044 51.0623C116.403 51.2984 116.658 51.5156 116.903 51.8273C117.149 52.1389 117.29 52.5355 117.357 52.8282C117.404 53.2154 117.451 53.6027 117.413 53.9805V54.0749V54.0654Z" fill="#3558A2"/>
</svg>
