<svg width="279" height="356" viewBox="0 0 279 356" fill="none" xmlns="http://www.w3.org/2000/svg">
<path d="M43.791 201.243C44.2157 194.73 44.6403 188.925 45.0651 182.695C40.8175 185.952 36.9947 188.925 33.0302 191.615C30.4817 193.314 27.7916 194.872 24.9599 195.863C20.8539 197.42 17.8805 195.863 16.4647 191.615C13.633 183.262 11.9337 174.483 11.6505 165.705C11.6505 159.617 12.7832 153.67 14.4823 147.865C15.7565 143.759 17.8806 140.078 20.7123 136.963C23.2608 133.99 26.5173 131.583 30.1985 130.167C33.8798 128.751 37.8443 128.185 41.6672 128.609C42.7999 128.751 43.7909 128.609 44.782 128.326C45.7731 128.043 46.7642 127.477 47.6137 126.769C49.4544 125.353 51.4365 124.22 53.5603 123.229C55.8257 122.38 58.0911 121.672 60.3565 121.247C60.3565 120.256 60.3564 119.265 60.2148 118.698C49.0295 114.876 38.6936 109.212 29.3489 101.85C22.4111 96.611 16.1815 90.3812 10.8012 83.4435C5.7041 76.5058 2.02265 68.5769 0.323607 60.0818C-0.809086 55.1263 1.03175 52.153 5.84569 50.7371C10.8012 49.0381 16.0398 48.047 21.2785 47.7638C27.7915 47.4806 34.1629 48.4717 40.1096 51.0203C47.7552 54.2767 55.2593 58.2412 61.3476 64.0462C68.0021 70.4175 72.6746 77.78 73.5241 87.4079C73.9489 93.0713 73.6656 98.7347 72.6745 104.257C72.1081 107.371 70.8337 110.203 68.9931 112.752C69.5594 118.274 70.1261 123.654 70.6924 129.317C72.9578 127.194 74.94 125.353 77.0638 123.371C80.7451 120.397 84.7092 117.707 88.8152 115.583C91.3638 114.168 93.3461 111.761 94.1956 109.071C100.709 92.3634 104.956 74.9483 110.478 57.958C111.611 53.852 113.31 50.0292 115.717 46.4895C116.849 44.9321 118.265 43.5162 119.681 42.2419C120.955 41.1093 122.655 40.5429 124.354 40.6845C129.026 40.6845 133.557 41.2508 137.946 42.6667C142.194 43.7994 146.441 44.6489 150.689 45.2152C162.441 47.339 174.05 49.6044 185.802 51.7282C197.554 53.852 209.447 56.1174 221.34 58.3827C227.145 59.5154 232.809 60.9313 238.614 62.064C242.437 62.7719 246.26 63.0551 250.083 63.763C257.728 65.0373 265.232 66.4531 272.736 67.869C273.161 67.869 273.727 68.1522 274.152 68.2938C277.55 69.4265 278.966 71.8334 277.975 75.3731C272.595 93.4961 267.356 111.761 261.976 129.884C255.18 152.962 248.666 176.182 241.729 199.119C240.454 203.367 240.03 207.898 240.455 212.287C240.738 215.968 240.879 219.791 240.738 223.472C240.738 244.568 240.879 265.665 241.163 286.761C241.304 306.583 241.587 326.405 241.729 346.085V350.333C241.729 351.89 240.879 353.306 239.747 354.439C238.614 355.43 237.057 355.996 235.499 355.996H233.234C181.554 355.996 129.875 355.855 78.1962 355.713C62.3385 355.713 46.6224 355.43 30.7647 355.289C26.3755 355.289 23.5439 352.598 23.4023 348.209C23.1191 338.581 22.8359 328.954 22.6944 319.326C22.4112 303.61 22.1281 288.035 21.7033 272.319C21.5617 262.691 21.2786 253.063 20.9954 243.436L20.2875 211.862V209.172C20.2875 205.632 21.8449 203.933 25.243 203.508C28.6411 203.084 32.3223 202.942 35.862 202.376C38.6937 202.092 41.3839 201.526 44.0741 201.101L43.791 201.243ZM32.7471 345.094C38.1274 346.085 227.145 346.652 231.535 345.661V341.555C231.251 319.184 230.968 296.814 230.827 274.443C230.685 254.904 230.685 235.365 230.544 215.826C230.827 214.41 230.543 212.853 229.694 211.579C228.278 216.959 227.004 221.631 225.588 226.445C222.19 238.48 218.792 250.657 215.535 262.691C214.119 268.072 212.703 273.31 211.288 278.691C210.863 280.531 209.872 282.372 208.456 283.646C207.04 284.92 205.2 285.77 203.359 286.053C201.094 286.478 198.828 286.619 196.421 286.619C181.838 286.619 167.113 286.761 152.529 285.911C143.609 285.345 134.548 285.487 125.628 285.203C115.292 284.92 104.814 284.637 94.4787 284.354C84.8508 284.071 75.223 283.929 65.5952 283.504C61.4891 283.221 57.383 282.797 53.4186 281.947C48.3215 280.956 45.6313 277.275 44.2154 272.602C41.2421 262.974 38.552 253.488 35.7203 243.86C34.0212 238.055 32.4639 232.109 30.9064 226.162C30.4817 227.578 30.1987 228.994 30.3402 230.41C30.4818 236.639 30.7649 243.011 30.9064 249.241C31.1896 259.86 31.4728 270.479 31.6144 281.239C31.8976 297.805 32.3222 314.37 32.6054 330.936V342.121C32.4638 343.112 32.6054 344.103 32.6054 344.953L32.7471 345.094ZM37.1361 212.145C39.6847 221.207 41.9502 229.985 44.3572 238.48C47.1889 248.391 50.3037 258.302 53.1355 268.355C53.985 271.47 55.8258 272.602 58.9407 272.885C64.1794 273.169 69.4179 273.877 74.6566 274.16C85.134 274.585 95.753 274.726 106.23 275.151C114.018 275.434 121.947 275.576 129.734 275.859C142.052 276.142 154.37 276.567 166.688 276.708H198.687C201.518 276.708 201.66 276.708 202.368 273.877C203.217 270.62 204.067 267.364 204.916 264.249C209.447 247.683 213.978 231.118 218.509 214.552C218.792 213.561 218.933 212.57 219.217 211.154H55.8258C49.7376 211.154 43.5077 211.862 36.9947 212.145H37.1361ZM208.598 200.96L238.473 97.6021C221.482 94.3456 204.492 91.3723 187.784 88.2574C171.077 85.1425 153.945 82.0276 136.672 78.9127C133.557 89.6733 130.442 99.8674 127.327 110.345L144.034 115.3C144.317 114.734 144.742 114.026 145.167 113.46C147.007 110.628 148.706 107.513 150.83 104.823C153.662 101.142 157.485 98.31 161.874 96.611C164.564 95.4783 167.537 95.3367 170.369 96.3278C173.201 97.3189 175.466 99.3011 176.882 101.85C178.015 103.973 179.006 106.239 179.855 108.504C180.705 110.486 181.272 112.61 181.838 114.734C183.112 119.548 186.227 122.38 190.899 123.795C193.731 124.645 196.421 125.636 199.253 126.769C207.04 130.167 211.854 135.972 212.987 144.467C213.553 148.573 213.836 152.679 213.978 156.785C213.978 163.156 212.421 169.386 209.022 174.766C206.615 179.156 203.217 182.978 199.111 186.093C195.005 189.067 190.474 191.332 185.519 192.465C185.094 195.013 184.67 197.845 184.245 200.96H208.598ZM130.442 51.445C133.132 57.1085 135.681 62.3472 138.229 67.5858C138.512 68.2938 139.079 68.8601 139.645 69.2849C140.211 69.7096 141.061 69.9928 141.769 69.9928C159.042 73.1077 176.174 76.2226 193.448 79.3375C209.022 82.1692 224.597 85.0009 240.171 87.9742C240.879 88.1158 241.729 88.1158 242.437 87.9742C243.145 87.8326 243.853 87.5495 244.419 86.9831C249.091 83.5851 253.905 80.3286 258.578 77.0721C259.144 76.6473 259.569 76.081 259.994 75.5146L130.442 51.3034V51.445ZM153.096 120.681C154.795 121.955 156.494 123.088 158.051 124.362C159.75 125.636 161.449 127.052 163.007 128.609C177.449 142.485 184.811 159.617 185.944 179.439C185.944 180.288 186.227 180.996 186.369 182.129C190.333 180.571 193.873 178.165 196.704 175.05C199.536 171.935 201.66 168.112 202.934 164.147C204.775 158.484 204.067 152.821 203.359 147.016C202.509 140.644 198.545 137.105 192.881 134.981C191.041 134.273 189.2 133.848 187.36 133.282C180.139 131.016 175.042 126.627 172.776 119.265C172.21 117.707 171.785 116.15 171.219 114.592C170.511 112.469 169.803 110.203 168.812 108.079C167.821 105.956 166.688 105.672 164.706 106.522C163.715 106.947 162.865 107.513 162.157 108.079C157.91 111.194 154.653 115.725 152.954 120.681H153.096ZM218.934 200.818C224.172 201.668 228.703 201.526 231.11 200.535C242.153 162.307 253.339 124.079 264.666 85.0009C259.427 88.6821 254.896 91.6554 250.366 94.9119C249.375 95.7614 248.808 96.8941 248.525 98.0268C239.463 129.034 230.543 159.9 221.624 190.907C220.632 194.022 219.783 197.279 218.792 200.677L218.934 200.818ZM63.6131 93.9208C64.321 91.0891 64.4624 88.2574 63.7545 85.4257C62.7634 81.0365 60.6397 76.9305 57.5248 73.674C51.295 66.8779 43.5075 62.4887 35.0123 59.2323C28.4993 56.6837 21.7032 56.8253 14.9071 58.0996C13.3496 58.3827 11.7923 58.8075 10.0933 59.2323C10.0933 59.9402 10.0931 60.6481 10.2347 61.3561C12.3585 68.7185 16.1814 75.6562 21.2785 81.4613C30.4816 91.6554 41.6671 100.009 53.9851 105.956C55.1178 106.522 56.3922 106.947 57.9496 107.513C57.9496 106.664 57.9495 105.956 57.8079 105.106C56.1089 99.0179 53.2771 93.4961 48.1799 89.2485C46.9057 88.2574 45.9147 87.2663 44.782 86.1336C44.2157 85.2841 43.791 84.293 43.791 83.3019C43.791 82.3108 44.0741 81.3197 44.782 80.4702C45.4899 79.7622 46.4809 79.1959 47.472 79.0543C48.4631 78.9127 49.4544 79.0543 50.4455 79.479C51.1534 79.9038 51.7196 80.3286 52.4275 80.7533C56.1088 83.4435 59.2239 86.6999 61.4893 90.6643C62.1972 91.6554 62.7634 92.6466 63.4714 93.7792L63.6131 93.9208ZM123.363 201.101C125.628 195.013 127.893 189.208 130.159 183.262C130.442 182.695 130.442 182.129 130.3 181.563C130.3 180.996 129.876 180.43 129.451 180.005C127.893 178.164 126.336 176.324 124.778 174.483C122.513 171.793 120.248 169.245 117.982 166.554C117.416 165.847 116.708 165.422 116 165.139C115.151 164.855 114.301 164.855 113.593 165.139C110.903 165.705 108.071 165.988 105.239 166.413C102.408 166.838 99.4342 167.262 96.6025 167.97C95.3282 168.253 94.0541 169.103 93.2045 170.236C89.5233 175.899 86.1252 181.846 82.5855 187.651L89.6649 200.96H123.363V201.101ZM162.582 170.66C163.856 165.422 164.423 160.183 166.263 155.511C168.104 150.838 166.546 147.157 163.573 143.759C160.6 140.361 157.909 136.397 153.945 133.99L133.132 141.211C132.566 141.352 131.999 141.635 131.433 142.06C131.008 142.485 130.583 143.051 130.3 143.618C128.601 147.723 126.76 151.829 124.92 155.935C124.495 156.643 124.354 157.351 124.354 158.059C124.354 158.767 124.778 159.475 125.345 160.041C129.026 164.147 132.566 168.395 136.105 172.643C136.53 173.209 137.238 173.775 137.946 173.917C138.654 174.2 139.503 174.2 140.211 173.917C141.769 173.634 143.184 173.351 144.742 173.209L162.582 170.66ZM77.2052 136.113C82.8686 143.051 88.5323 149.989 94.0542 156.785C94.3374 157.21 94.9037 157.635 95.4701 157.776C96.0364 157.918 96.6027 158.059 97.169 157.776L112.319 155.369C113.027 155.369 113.734 155.086 114.301 154.661C114.867 154.236 115.292 153.67 115.575 152.962C117.416 148.573 119.398 144.325 121.38 139.936L107.08 120.964C94.0541 123.512 84.2845 128.468 77.2052 135.972V136.113ZM24.3933 185.81C25.2428 185.385 25.526 185.385 25.8092 185.244C33.4549 180.147 40.5343 174.058 46.7641 167.121C47.8968 165.846 51.295 155.935 51.1534 154.236V153.529C50.3039 149.989 48.7464 146.591 46.481 143.618C45.6315 145.033 44.7821 146.449 43.791 147.723C42.9414 149.139 41.8085 150.272 40.3927 151.263C39.6847 151.688 38.977 151.829 38.1275 151.829C37.278 151.829 36.5699 151.546 35.862 151.263C35.154 150.838 34.7291 150.272 34.3044 149.564C34.0212 148.856 33.8799 148.148 33.8799 147.299C34.0215 145.883 34.5878 144.609 35.2958 143.334C36.1453 141.635 37.2779 139.936 38.4106 138.096C36.1452 138.096 34.0214 138.662 32.0392 139.653C30.057 140.644 28.358 142.202 27.0837 143.901C25.1015 146.732 23.5439 149.847 22.4113 153.104C19.5795 160.749 20.7121 168.537 21.9864 176.324C22.4112 179.297 23.4024 182.412 24.2519 185.81H24.3933ZM69.9845 143.193C61.0645 154.378 55.8258 168.112 55.1179 182.412H72.2497C72.9576 182.412 73.6657 182.129 74.2321 181.846C74.7984 181.421 75.223 180.855 75.5062 180.288C78.0548 176.041 80.6034 171.935 83.0104 167.687C84.0015 166.13 84.8508 164.431 85.9835 162.732C80.8864 155.794 75.5064 149.423 69.9845 143.193ZM163.715 180.571L142.76 183.403C142.052 183.403 141.344 183.686 140.778 184.111C140.211 184.536 139.787 185.102 139.645 185.81C138.371 189.491 136.813 193.173 135.539 196.995C135.114 198.128 134.689 199.261 134.123 200.818H174.051C174.475 198.836 174.9 196.854 175.183 195.013C175.466 194.022 175.466 192.889 175.183 191.757C174.9 190.766 174.192 189.775 173.343 189.067C170.086 186.235 166.971 183.262 163.715 180.288V180.571ZM117.133 109.92C118.124 106.805 118.973 103.832 119.964 101C122.796 91.5139 125.628 82.1692 128.459 72.6829C128.743 71.975 128.743 71.2671 128.459 70.5591C126.336 65.8868 124.071 61.2145 121.664 56.259C121.522 56.6837 121.239 56.9669 121.097 57.3916C115.717 74.8067 110.337 92.0802 104.956 109.495V111.194L117.133 109.92ZM55.8258 192.606C55.1179 195.58 56.2505 198.27 56.8169 200.818C63.3298 201.385 75.3645 201.243 78.1962 200.393L73.9486 192.606H55.8258ZM118.548 120.114C121.805 124.503 124.778 128.326 127.752 132.291C132.99 130.592 138.087 128.893 143.468 126.627C135.822 122.663 127.185 120.397 118.548 120.114ZM52.7106 134.981L57.5248 143.618C59.3654 141.918 61.2061 140.361 61.4893 138.379C61.7725 136.397 60.9228 133.706 60.6396 131.3C57.6663 131.441 54.6929 132.857 52.7106 135.122V134.981ZM175.891 177.881C176.174 173.492 174.9 169.811 174.051 165.139C173.201 168.112 172.635 170.236 172.068 172.501C171.927 173.209 171.927 173.917 172.068 174.483C172.351 175.191 172.776 175.616 173.484 176.041C174.192 176.465 174.9 177.173 175.75 177.881H175.891Z" fill="#102185"/>
<path d="M80.3198 14.2079C79.0456 19.4466 83.718 21.5704 87.1161 24.4021C88.2488 24.9685 89.5232 25.2516 90.7975 25.2516H95.753C96.6025 25.2516 97.3102 25.5348 98.0182 25.818C98.7261 26.1012 99.2926 26.8091 99.5758 27.517C100.001 28.2249 100.142 28.9329 100.142 29.7824C100.142 30.4903 100.001 31.3398 99.5758 32.0478C98.8678 33.6052 97.8767 34.8795 96.744 36.0122C93.7707 38.8439 91.5052 42.3835 89.9478 46.2064C88.3904 50.0292 87.8239 54.1352 88.1071 58.2412C88.1071 62.4888 88.5319 66.7363 88.815 70.9839V74.0988C88.815 75.2315 88.2488 76.2226 87.5409 77.0721C86.833 77.9216 85.7001 78.3464 84.5674 78.488C83.5763 78.488 82.5852 78.2048 81.7357 77.6385C80.8862 77.0721 80.1785 76.2226 79.8954 75.2315C79.4706 73.674 79.0458 71.975 78.7626 70.4176C77.4883 64.1878 76.214 57.958 74.7981 51.7282C74.6565 50.7371 74.0902 49.746 73.8071 48.7549C73.2407 46.3479 71.8248 44.0826 69.8426 42.5251C67.8604 40.9677 65.4535 40.1182 62.905 40.1182C61.7723 40.1182 60.6395 39.6934 59.6484 39.1271C59.0821 38.8439 58.5156 38.4191 58.0908 37.9944C57.6661 37.428 57.3831 36.8617 57.2415 36.2953C57.0999 35.729 57.0999 35.0211 57.2415 34.3131C57.2415 33.7468 57.6661 33.0389 58.0908 32.6141C58.6572 31.623 59.5068 30.7735 60.3563 30.0656C61.6306 28.9329 63.0464 27.9418 64.4622 27.0923C69.1346 24.5437 70.5504 20.4377 70.8336 15.6238C70.8336 13.9248 70.8337 12.3673 70.5505 10.6683C70.5505 8.68608 70.1257 6.84546 70.1257 4.86326C70.1257 3.73057 70.4088 2.73947 71.1167 1.74837C71.8246 0.898853 72.816 0.33251 73.8071 0.0493384C74.9398 -0.0922476 76.0724 0.0493383 76.9219 0.757268C77.7714 1.32361 78.4794 2.31471 78.7626 3.4474C79.3289 5.99595 79.8953 8.68608 80.1785 11.3762V14.3495L80.3198 14.2079ZM85.2754 34.4547L76.6388 28.6497L72.816 32.8973C76.922 34.7379 79.3289 38.136 81.5943 41.8172C83.0102 38.9855 84.2844 36.5785 85.4171 34.4547H85.2754Z" fill="#102185"/>
<path d="M186.085 108.787C186.085 100.575 191.607 95.3367 198.687 95.4783C202.226 95.4783 205.766 96.7526 208.598 99.018C211.429 101.283 213.412 104.398 214.261 107.938C214.827 109.92 214.827 112.044 214.119 114.026C213.553 116.008 212.279 117.707 210.721 118.982C205.766 123.229 200.244 122.946 194.581 120.397C189.2 117.849 186.368 113.601 186.227 108.787H186.085ZM202.226 112.61C202.793 112.327 204.067 112.044 204.492 111.194C204.775 110.203 204.775 108.929 204.208 107.938C203.5 106.239 199.678 104.681 197.837 104.965C197.412 104.965 196.846 105.248 196.563 105.389C196.138 105.673 195.855 105.956 195.713 106.38C195.43 106.805 195.43 107.23 195.43 107.796C195.43 108.221 195.43 108.787 195.855 109.071C197.129 111.478 199.253 112.327 202.226 112.469V112.61Z" fill="#102185"/>
</svg>
