<svg width="231" height="317" viewBox="0 0 231 317" fill="none" xmlns="http://www.w3.org/2000/svg">
<path d="M106.524 67.2544L86.8718 67.8067C85.7108 67.7784 84.5073 67.9058 83.3746 67.7359C80.4863 67.5377 78.3482 66.2351 78.3057 63.1485C78.1783 62.5255 78.3341 61.9874 78.5181 61.2936C78.6597 60.7415 79.1269 60.1326 79.5092 59.8069C79.9339 59.3397 80.4578 59.0285 80.9676 58.7312C81.4773 58.4339 82.1145 58.3064 82.8224 58.3489C90.1424 57.8392 97.4342 57.4566 104.783 57.3859C108.011 57.3859 109.087 56.6355 109.426 53.2091C110.927 37.3374 112.57 21.4938 114.198 5.66446C114.538 2.23808 116.916 -0.0556087 119.833 0.00102565C122.75 0.05766 124.59 2.46481 124.902 6.21684C126.049 22.0745 127.323 37.9605 128.342 53.7757C128.441 56.1543 129.532 56.4373 131.585 56.409C137.8 56.1825 144.158 55.9985 150.515 55.8003C151.676 55.8286 152.851 55.8428 154.012 55.8711C156.858 56.1968 158.925 57.7825 159.01 60.7416C159.053 63.8282 156.858 65.4421 154.04 65.5554C147.924 65.9518 141.737 66.051 135.521 66.2775L130.027 66.5464C134.445 83.8765 138.423 100.64 143.322 117.22C152.738 149.686 168.256 179.688 182.967 209.902C196.46 237.596 210.094 265.333 223.758 292.928C225.584 296.496 227.75 299.866 229.577 303.448C232.253 308.715 229.166 314.194 223.262 314.35C209.613 314.917 196.106 315.525 182.457 316.092C176.553 316.262 175.887 314.902 175.094 309.126C172.772 292.22 165.934 277.326 153.276 265.546C147.343 259.84 139.995 256.088 132.094 254.403C115.982 251.076 102.149 256.144 89.76 266.14C77.3854 276.136 69.2726 289.346 63.5242 304.085C60.7066 311.249 60.4658 311.618 52.6644 311.717C38.9871 311.844 25.0833 311.745 11.3777 312C7.69646 312.028 4.256 310.669 1.73576 308.078C-0.671215 306.11 -0.274863 303.576 1.11269 301.169C3.60461 296.85 6.35137 292.617 8.70171 288.256C24.6585 257.957 40.7854 227.558 56.4732 197.174C65.3507 180.07 74.2139 162.953 82.0436 145.41C92.7051 121.156 100.832 95.9258 106.368 70.0014C106.552 69.3218 106.694 68.7694 106.934 67.3677L106.524 67.2544ZM209.557 288.525C209.627 288.256 209.471 287.775 209.401 287.463C199.999 268.505 190.782 249.433 181.239 230.432C180.701 229.696 180.092 229.243 179.314 228.889C178.535 228.535 177.714 228.309 176.992 228.266C136.512 227.162 96.1456 226.227 55.5952 225.406C54.8448 225.491 54.0377 225.718 53.4855 226.157C52.7918 226.553 52.2396 226.992 51.914 227.643C42.1586 245.837 32.5025 264.201 22.7613 282.394L22.0251 285.127C34.0033 285.283 45.5426 285.467 57.0819 285.651C58.1721 285.948 59.2766 285.651 60.3243 285.056C61.3296 284.589 62.1365 283.782 62.5613 282.734C67.5735 273.97 74.1007 266.055 81.9304 259.358C109.228 235.926 144.115 238.163 166.104 265.376C171.371 271.931 174.896 280.072 179.045 287.491C180.036 289.233 180.63 290.847 183.179 290.663C191.915 289.799 200.452 289.162 209.457 288.369L209.557 288.539V288.525ZM175.477 218.157C174.995 216.698 174.769 215.906 174.401 215.084C167.859 201.294 161.148 187.603 154.777 173.713C154.352 172.566 153.672 171.802 152.695 171.094C151.676 170.527 150.586 170.23 149.51 170.386C127.705 170.216 105.83 169.735 84.0684 169.437C83.4454 169.565 82.7941 169.819 82.1287 170.088C81.6048 170.386 81.01 170.966 80.7268 171.476C73.5342 185.082 66.4833 198.717 59.3898 212.493L58.6535 215.226C70.8724 215.594 82.6807 215.849 94.3899 215.934C95.2536 216.019 96.273 214.391 96.8393 213.371C98.9348 209.393 100.294 204.919 103.112 201.577C113.448 188.82 131.514 190.335 138.169 204.295C140.052 208.175 140.491 212.55 141.708 217.279L175.562 217.916L175.491 218.185L175.477 218.157ZM139.018 136.448C138.367 134.508 138.013 133.092 137.631 131.818C134.105 119.868 130.424 108.017 127.21 96.0105C124.859 87.3172 123.175 78.3547 121.051 69.4207C120.867 68.4862 119.606 67.7077 118.969 66.8015C118.162 67.6086 117.355 68.4156 116.548 69.2226L116.067 71.0066C110.97 91.4799 106.128 112.166 97.8872 131.804L97.0376 134.947L139.046 136.32L139.004 136.462L139.018 136.448ZM148.179 160.631C146.536 156.369 145.163 152.772 143.832 149.049C143.605 148.256 143.11 147.392 142.359 146.896C141.609 146.401 140.788 146.174 139.896 146.231C125.072 145.75 110.418 145.155 95.5794 144.674C94.5458 144.688 92.8609 144.971 92.5352 145.608C90.4539 150.04 88.6275 154.67 86.532 159.682L148.207 160.503L148.164 160.645L148.179 160.631ZM12.3689 301.848C13.6715 301.905 14.974 301.961 16.1492 301.99L49.1956 301.82C53.8963 301.778 54.7457 300.829 55.1563 295.505C54.3351 295.279 53.4857 295.194 52.5795 295.25C42.0313 295.194 31.5255 294.995 20.9915 294.925C15.1157 294.953 14.7334 295.293 12.3831 301.834L12.3689 301.848ZM130.523 217.307C131.118 209.11 127.068 203.475 120.994 203.149C114.198 202.781 107.133 209.378 107.076 216.698L130.523 217.307ZM218.08 304.751C217.103 300.234 214.965 298.337 210.463 298.733C201.628 299.427 192.58 299.767 183.236 300.177C184.382 302.981 183.052 306.294 187.073 306.053C197.281 305.728 207.56 305.133 218.08 304.751Z" fill="#102185"/>
<path d="M60.0404 122.601C60.2528 125.588 60.4086 128.279 60.4369 130.926C60.4369 132.54 60.9184 134.579 60.1396 135.825C59.2477 137.496 57.223 139.577 55.7363 139.62C54.7735 139.365 53.8248 139.096 53.0178 138.303C52.1683 137.637 51.6302 136.901 51.1771 135.896C50.2002 132.993 50.4693 129.836 50.2428 126.848C50.1578 125.503 50.1295 124.031 50.087 122.558C48.926 122.53 48.1614 122.629 47.411 122.714C44.4235 122.927 42.3847 121.794 41.7476 118.693C41.6201 118.07 41.5351 117.32 41.6767 116.768C41.8608 116.088 42.0024 115.536 42.4697 114.927C42.8944 114.46 43.3049 113.978 43.9704 113.723C44.4943 113.426 45.1455 113.157 45.8676 113.214C50.2002 112.917 50.1437 110.41 50.1012 107.324C50.0304 105.398 49.7614 103.133 50.6251 101.604C51.1631 100.726 51.7861 100.018 52.5506 99.3384C53.3152 98.6588 54.3203 98.2058 55.2548 98.0217C57.8742 97.5545 59.5165 99.6074 59.8422 102.198C60.1254 105.497 60.0972 108.867 60.168 112.407C63.9483 112.548 68.6914 111.784 68.564 117.164C68.479 121.836 64.274 122.162 60.0123 122.771L60.0546 122.629L60.0404 122.601Z" fill="#102185"/>
<path d="M182.782 64.5221C182.825 67.6087 183.363 70.5396 182.711 73.4563C182.357 75.8491 181.041 77.9869 179.257 79.7143C176.227 81.6823 172.574 78.9358 172.616 74.9855C172.645 73.2299 172.857 71.3892 172.885 69.6336C172.899 66.8585 173.126 64.423 169.615 62.7381C166.712 61.5205 166.91 57.0181 169.855 55.3191C172.8 53.62 172.645 51.5246 172.446 48.976C172.347 47.192 171.724 45.1107 172.276 43.6524C173.069 41.8118 174.825 39.6457 176.552 39.2351C179.243 38.4988 181.196 40.495 181.635 43.2417C182.074 45.9885 182.088 48.6364 182.556 51.2557C182.74 52.1902 183.816 53.6485 184.538 53.691C188.276 53.9741 190.3 55.6871 190.159 59.4674C190.017 63.2478 187.157 64.0831 183.929 64.0831C183.66 64.0124 183.448 64.239 182.782 64.508V64.5221Z" fill="#102185"/>
<path d="M202.406 221.031C201.854 220.889 201.146 220.833 200.551 220.818C199.348 220.932 198.116 220.606 197.139 219.898C196.162 219.19 195.596 218.015 195.313 216.911C195.058 215.665 195.398 214.433 196.106 213.456C196.814 212.479 197.89 211.743 198.994 211.445C201.953 210.78 202.364 209.279 201.996 206.829C201.868 206.206 201.882 205.626 201.925 204.904C202.194 201.747 203.482 199.17 206.98 199.227C210.618 199.326 211.808 202.001 211.708 205.045C211.694 207.821 211.794 209.619 215.177 210.681C218.83 211.813 218.561 217.165 214.894 218.822C212.232 220.011 212.063 221.724 212.19 223.962C212.317 226.199 212.417 228.563 212.374 230.899C212.218 233.646 210.802 235.614 207.957 235.869C204.969 236.081 203.143 234.127 202.76 231.239C202.336 227.897 202.335 224.669 202.166 220.96L202.435 221.031H202.406Z" fill="#102185"/>
<path d="M193.275 173.981C192.595 173.797 192.085 173.514 191.477 173.061C191.009 172.637 190.57 172.084 190.273 171.56C189.976 171.036 189.749 170.243 189.763 169.663C189.636 169.04 189.82 168.361 190.004 167.681C190.188 167.001 190.33 166.449 190.797 165.84C191.222 165.373 191.675 164.764 192.34 164.495C192.864 164.198 193.515 163.929 194.28 163.844C194.903 163.717 195.625 163.759 196.305 163.957C199.278 164.906 200.085 167.327 199.49 170.102C199.306 170.782 199.165 171.334 198.697 171.943C198.414 172.452 197.82 173.019 197.296 173.33C196.744 173.769 196.121 173.897 195.498 174.024C194.875 174.151 194.152 174.109 193.473 173.911L193.303 174.01L193.275 173.981Z" fill="#102185"/>
<path d="M170.506 149.643C170.832 148.412 171.752 147.194 172.928 146.627C174.145 145.934 175.49 145.849 176.849 146.217C177.402 146.358 178.039 146.684 178.52 147.109C178.987 147.534 179.469 147.944 179.724 148.61C180.021 149.134 180.29 149.785 180.276 150.365C180.403 150.988 180.219 151.668 180.063 152.22C179.738 153.452 178.718 154.5 177.501 155.193C176.326 155.76 174.938 155.972 173.579 155.604C172.347 155.278 171.441 154.287 170.974 153.282C170.379 152.234 170.266 151.031 170.45 149.771L170.492 149.629L170.506 149.643Z" fill="#102185"/>
<path d="M30.0535 179.915C30.6057 180.056 31.1154 180.354 31.5826 180.765C32.0498 181.189 32.3897 181.572 32.687 182.095C32.9844 182.619 33.1542 183.101 33.14 183.681C33.1259 184.262 33.1117 184.842 32.9701 185.394C32.7861 186.074 32.6021 186.768 32.0499 187.193C31.6252 187.66 31.0729 188.099 30.549 188.396C30.0252 188.693 29.2323 188.92 28.6518 188.906C28.0713 188.906 27.3492 188.849 26.6979 188.523C26.1457 188.382 25.466 188.198 24.9988 187.773C24.5316 187.348 24.0502 186.938 23.7528 186.414C23.4555 185.89 23.3282 185.267 23.2008 184.658C23.0734 184.035 23.229 183.497 23.413 182.803C24.121 180.212 26.8254 178.881 29.9262 179.872L30.0677 179.915H30.0535Z" fill="#102185"/>
<path d="M42.088 169.522C43.4047 166.804 45.5286 165.459 48.332 166.521C48.8842 166.662 49.5637 166.846 50.0026 167.412C50.4698 167.837 50.9512 168.248 51.0787 168.871C51.2061 169.494 51.5035 170.018 51.4893 170.598C51.4893 171.179 51.461 171.759 51.1495 172.41C50.9655 173.09 50.6398 173.741 50.2292 174.209C49.8044 174.676 49.2522 175.115 48.5867 175.384C47.9213 175.653 47.3125 175.766 46.6895 175.894C45.9674 175.851 45.3869 175.837 44.7356 175.511C43.5038 175.186 42.7393 174.237 42.1305 173.189C41.5641 172.014 41.5924 170.839 41.9181 169.607L42.088 169.508V169.522Z" fill="#102185"/>
<path d="M37.2165 192.997C37.3581 192.445 37.5422 191.765 38.1085 191.326C38.5333 190.859 38.944 190.377 39.4679 190.08C39.9917 189.783 40.6147 189.655 41.2235 189.528C41.8323 189.401 42.3844 189.556 43.0782 189.74C43.6304 189.882 44.31 190.066 44.8197 190.363C45.3294 190.661 45.7683 191.199 46.0657 191.723C46.363 192.246 46.632 192.898 46.6179 193.478C46.7453 194.101 46.5895 194.639 46.4055 195.333C46.2214 196.027 46.0799 196.565 45.6552 197.032C45.2304 197.499 44.8198 197.981 44.2535 198.42C43.7296 198.717 43.0783 198.986 42.4553 199.113C41.8323 199.241 41.1101 199.198 40.5721 199.042C39.8925 198.858 39.3404 198.717 38.9015 198.151C38.4342 197.726 37.9529 197.315 37.698 196.65C37.4007 196.126 37.1317 195.475 37.1458 194.894C37.0184 194.271 37.2023 193.591 37.3864 192.912L37.2165 193.011V192.997Z" fill="#102185"/>
<path d="M167.35 136.915C167.024 138.146 166.033 139.052 164.9 139.477C163.725 140.043 162.55 140.015 161.318 139.69C160.766 139.548 160.086 139.364 159.619 138.939C159.152 138.514 158.713 137.962 158.416 137.438C158.118 136.914 157.991 136.292 157.906 135.541C157.778 134.918 157.963 134.239 158.118 133.686C158.444 132.455 159.294 131.506 160.469 130.954C161.516 130.359 162.847 130.274 164.079 130.614C164.759 130.798 165.311 130.94 165.877 131.534C166.344 131.959 166.784 132.511 167.222 133.077C167.52 133.601 167.746 134.394 167.732 134.975C167.86 135.598 167.675 136.278 167.491 136.957L167.35 136.915Z" fill="#102185"/>
<path d="M160.015 102.665C159.69 103.897 158.84 104.845 157.835 105.298C156.787 105.893 155.584 106.006 154.352 105.681C153.8 105.539 153.12 105.355 152.653 104.93C152.143 104.647 151.704 104.095 151.265 103.529C150.968 103.005 150.699 102.353 150.572 101.73C150.444 101.108 150.487 100.385 150.642 99.8473C150.798 99.3092 150.968 98.6155 151.393 98.1483C151.818 97.6811 152.228 97.1999 152.752 96.9025C153.276 96.6052 153.927 96.336 154.508 96.3501C155.131 96.2227 155.669 96.3787 156.362 96.5627C157.056 96.7468 157.594 96.8881 158.203 97.3554C158.67 97.7801 159.152 98.1907 159.591 98.757C159.888 99.2809 160.157 99.9324 160.242 100.697C160.369 101.32 160.327 102.042 160.129 102.722L159.987 102.679L160.015 102.665Z" fill="#102185"/>
<path d="M30.5774 230.645C27.505 229.526 26.1315 227.544 26.7687 224.628C26.9102 224.075 27.0943 223.396 27.5191 222.929C27.9439 222.461 28.3544 221.98 28.8783 221.682C29.4022 221.385 30.0536 221.116 30.6341 221.13C31.2146 221.13 31.9366 221.187 32.4888 221.343C33.041 221.498 33.7205 221.668 34.1878 222.093C34.655 222.518 35.1365 222.929 35.3914 223.594C35.6887 224.118 35.9578 224.769 35.9436 225.35C36.071 225.973 35.8869 226.652 35.7312 227.205C34.9525 230.079 32.8852 230.687 30.3083 230.432L30.5491 230.645H30.5774Z" fill="#102185"/>
<path d="M83.9411 95.4723C83.3889 95.3307 82.8793 95.0332 82.412 94.6226C81.9448 94.1978 81.6049 93.8156 81.3076 93.2918C81.0103 92.7679 80.883 92.145 80.8971 91.5645C80.8971 90.984 80.9254 90.4035 81.067 89.8513C81.2086 89.2992 81.3925 88.6193 81.8173 88.152C82.2421 87.6848 82.6528 87.2036 83.1766 86.9062C83.7005 86.6089 84.2243 86.3116 84.8331 86.1841C85.4419 86.0567 86.0366 86.0709 86.5888 86.2125C87.1409 86.3541 87.8207 86.5382 88.2879 86.9629C88.7976 87.2461 89.2365 87.7982 89.5339 88.3221C89.8312 88.846 90.1285 89.3697 90.256 89.9785C90.3834 90.6015 90.3692 91.182 90.2276 91.7342C90.0436 92.4138 89.8594 93.1077 89.4347 93.5749C89.0099 94.0421 88.5993 94.5234 87.8914 94.9199C87.3675 95.2172 86.5747 95.4437 85.9517 95.5711C85.3287 95.6985 84.6491 95.5146 83.9694 95.3305L83.9269 95.4723H83.9411Z" fill="#102185"/>
<path d="M181.155 107.493C179.668 111.344 177.828 112.759 175.095 112.009C174.543 111.867 173.863 111.684 173.353 111.386C172.886 110.961 172.405 110.551 172.107 110.027C171.81 109.503 171.541 108.852 171.555 108.271C171.555 107.691 171.612 106.969 171.895 106.459C172.631 103.726 174.925 102.296 177.544 103.443C179.243 104.193 180.376 106.558 181.282 107.535L181.141 107.493H181.155Z" fill="#102185"/>
<path d="M75.4458 79.6852C74.4405 82.347 72.5858 83.7489 69.7116 82.9843C69.1594 82.8427 68.4797 82.6586 68.0125 82.2338C67.5028 81.9507 67.0639 81.3985 66.7665 80.8747C66.4692 80.3508 66.3417 79.7278 66.2143 79.119C66.0869 78.496 66.2427 77.9579 66.4267 77.2642C66.5683 76.712 66.7524 76.0324 67.1772 75.5652C67.6019 75.098 68.0125 74.6164 68.5364 74.3191C69.0602 74.0217 69.7115 73.7529 70.292 73.767C70.8725 73.767 71.4531 73.7952 72.1469 73.9793C74.8795 74.7155 75.8989 76.896 75.3042 79.6711L75.4458 79.7136V79.6852Z" fill="#102185"/>
<path d="M184.185 131.053C185.332 128.434 187.286 127.202 189.976 128.066C191.066 128.363 191.972 129.34 192.439 130.345C192.907 131.35 193.02 132.554 192.68 133.785C192.383 134.876 191.548 135.824 190.5 136.419C189.452 137.014 188.249 137.127 187.158 136.844C184.468 135.966 183.576 133.828 184.171 131.053H184.185Z" fill="#102185"/>
<path d="M112.882 267.981C111.126 268.533 109.172 269.765 107.459 269.595L105.817 269.156C105.307 268.873 104.967 268.491 104.67 267.967C104.372 267.443 104.203 266.962 104.217 266.381L104.656 264.739C105.151 263.988 105.916 263.323 106.751 262.955C107.586 262.587 108.549 262.261 109.413 262.346C110.914 262.756 111.933 264.937 113.151 266.438L112.669 268.222L112.882 267.981Z" fill="#102185"/>
<path d="M95.4099 245.808C93.4418 246.601 91.587 248.003 89.7039 247.932C86.8155 247.734 85.5554 245.341 86.3058 242.609C87.0562 239.876 89.2367 238.262 91.856 239.423C93.5551 240.173 94.5462 242.495 95.8912 244.039L95.4522 245.681L95.4099 245.823V245.808Z" fill="#102185"/>
<path d="M84.9886 195.333C81.9869 194.526 80.3446 191.878 81.3215 189.358C81.5056 188.679 81.6472 188.126 82.2135 187.688C82.6383 187.22 83.1906 186.782 83.7144 186.484C84.2383 186.187 84.8896 185.918 85.6117 185.974C86.1922 185.974 86.9143 186.031 87.5939 186.215C88.2735 186.399 88.8256 186.541 89.4344 187.008C89.9441 187.291 90.383 187.843 90.8219 188.41C91.1193 188.934 91.3884 189.585 91.3318 190.307C91.3318 190.888 91.2751 191.609 91.091 192.289C90.284 195.291 87.7637 195.942 85.2293 195.546L84.9886 195.333Z" fill="#102185"/>
<path d="M102.631 181.033C103.07 179.971 104.047 179.065 105.081 178.47C106.227 178.046 107.431 177.932 108.62 178.399C109.852 178.725 110.801 179.575 111.225 180.722C111.82 181.769 111.905 183.1 111.608 184.205C111.466 184.757 111.282 185.436 110.716 185.875C110.291 186.342 109.88 186.824 109.356 187.121C108.833 187.419 108.21 187.546 107.601 187.673C106.978 187.801 106.44 187.645 105.746 187.461C105.052 187.277 104.557 186.994 103.948 186.541C103.481 186.116 103.042 185.564 102.744 185.04C102.475 184.389 102.22 183.723 102.235 183.143C102.107 182.52 102.291 181.84 102.475 181.161L102.645 181.061L102.631 181.033Z" fill="#102185"/>
<path d="M116.548 117.036C117.638 117.333 118.587 118.168 119.083 119.046C119.677 120.094 119.791 121.297 119.507 122.388C119.323 123.067 119.182 123.619 118.715 124.228C118.247 124.837 117.837 125.304 117.171 125.573C116.647 125.871 115.996 126.14 115.232 126.225C114.609 126.352 113.929 126.168 113.249 125.984C112.697 125.842 112.017 125.658 111.55 125.234C111.04 124.95 110.602 124.398 110.304 123.874C110.007 123.35 109.738 122.699 109.582 122.218C109.455 121.595 109.469 121.014 109.653 120.334C110.12 117.531 113.164 116.002 116.307 116.851L116.548 117.064V117.036Z" fill="#102185"/>
</svg>
