<svg width="271" height="282" viewBox="0 0 271 282" fill="none" xmlns="http://www.w3.org/2000/svg">
<path d="M108.287 224.612C107.948 220.293 107.551 216.4 107.296 212.52C106.687 204.464 106.928 196.365 107.877 188.352C108.557 182.589 109.661 176.869 110.61 171.276C113.059 157.882 113.526 144.248 112.139 130.684C111.417 124.751 110.822 118.975 112.223 113.155C113.016 108.837 115.069 104.802 118.283 101.758C120.365 99.8604 122.942 98.6003 125.83 98.2322C127.869 97.9065 129.823 98.2746 131.734 98.9259C133.476 99.8462 135.033 101.177 136.109 102.862C138.445 105.991 139.564 109.828 139.394 113.665C139.026 119.187 138.658 124.695 138.148 130.202C137.412 136.39 137.653 142.832 138.63 148.934C139.734 154.059 140.399 159.27 141.206 164.494C141.886 168.431 141.971 172.423 141.362 176.345C140.64 181.244 139.762 186.285 138.757 191.155C137.1 200.372 136.591 209.434 138.913 218.693C139.422 220.463 139.606 222.488 139.932 224.513C140.484 224.725 141.164 224.938 141.73 225.008C147.833 225.306 154.048 225.759 160.193 225.631C165.46 225.688 170.699 226.028 175.867 226.92C177.41 227.104 178.925 227.571 180.539 226.042C178.656 220.265 174.663 215.508 169.283 212.733C168.858 212.676 168.561 212.789 168.122 212.874C161.623 215.947 155.62 213.667 149.843 210.708C148.909 210.17 148.286 209.377 147.847 208.329C147.521 207.437 147.521 206.291 147.776 205.328C148.172 204.379 148.682 203.728 149.461 203.105C150.24 202.482 151.118 202.298 152.123 202.284C152.689 202.354 153.383 202.439 154.53 202.425C152.632 200.344 150.99 198.588 149.362 196.677C148.724 196.026 148.243 195.261 147.932 194.369C147.62 193.477 147.564 192.613 147.663 191.778C147.748 191.07 147.974 190.39 148.47 189.739C148.838 189.074 149.461 188.578 150.055 188.366C150.664 188.012 151.401 187.814 152.25 187.913C152.958 187.998 153.652 188.083 154.331 188.451C155.535 189.159 156.71 190.022 157.602 190.971C162.005 195.912 167.343 200.259 173.247 203.374C175.116 204.45 176.816 205.795 179.067 207.197C178.741 203.884 177.991 200.655 176.929 197.541C174.89 191.877 172.851 186.228 170.812 180.564C170.614 179.828 170.118 179.205 169.609 178.71C169.099 178.214 168.434 177.86 167.598 177.619C160.377 174.773 155.761 169.223 153.043 162.059C152.505 160.572 152.109 159.1 151.995 157.656C151.854 156.495 152.123 155.39 152.817 154.329C153.496 153.408 154.445 152.672 155.478 152.36C156.653 152.077 157.772 152.205 158.848 152.757C159.924 153.309 160.661 154.258 160.972 155.291C161.17 156.028 161.51 156.778 161.708 157.514C162.671 160.19 164.101 162.64 166.126 164.735L166.409 162.342C165.602 155.971 165.361 149.529 165.828 143.172C166.111 139.646 166.111 135.937 166.395 132.397C166.522 131.278 166.805 130.16 167.358 129.084C167.881 128.291 168.519 127.654 169.439 127.186C170.331 126.861 171.209 126.677 172.2 126.804C173.049 126.903 173.984 127.441 174.621 128.093C175.258 128.744 175.725 129.65 175.895 130.528C176.178 132.991 176.037 135.399 176.136 138.117C178.146 135.639 179.902 132.864 181.233 130.018C181.629 129.07 182.153 128.277 182.691 127.342C183.229 126.408 184.15 125.799 185.197 125.502C186.245 125.204 187.222 125.318 188.157 125.856C188.978 126.096 189.756 126.762 190.238 127.526C190.719 128.291 190.903 129.169 190.776 130.16C190.592 131.703 190.408 133.246 189.686 134.592C186.203 141.161 182.564 147.716 176.716 152.587C176.249 152.955 175.895 153.493 175.669 154.173L175.456 155.999C175.924 162.895 177.382 169.776 179.463 176.289C180.723 180.14 181.983 183.863 183.399 187.587C183.611 188.182 183.966 188.791 184.32 189.414C187.42 182.504 190.21 175.85 193.494 168.544C191.073 163.687 191.625 157.911 192.744 152.063C193.381 149.147 194.273 146.4 195.448 143.681C196 142.605 196.836 141.572 197.799 140.68C198.45 140.042 199.342 139.717 200.191 139.674C201.041 139.632 202.018 139.887 202.825 140.269C203.632 140.651 204.411 141.317 204.75 142.067C205.232 142.832 205.26 143.837 205.133 144.828C204.765 146.782 204.085 148.835 203.306 150.605C202.287 153.196 202.273 155.759 201.721 159.114C205.954 155.914 209.423 151.893 211.816 147.334C213.826 143.582 215.837 139.83 217.975 136.234C218.669 135.172 219.504 134.138 220.453 133.388C221.245 132.765 222.137 132.454 223.157 132.284C224.162 132.255 225.125 132.51 225.918 133.034C226.725 133.416 227.348 134.195 227.687 134.959C228.013 135.851 228.056 136.715 227.815 137.536C227.688 138.655 227.263 139.759 226.796 141.26L233.323 136.758C233.931 136.404 234.583 135.767 235.192 135.413C236.098 134.945 237.117 134.79 238.108 134.903C239.099 135.016 240.02 135.554 240.798 136.22C241.577 136.885 242.016 137.933 242.044 138.938C242.214 139.958 241.79 141.048 241.266 141.841C240.062 143.554 238.618 144.941 236.905 146.173C231.921 149.713 226.795 153.238 220.311 153.904C220.013 154.017 219.575 154.102 219.263 154.343C218.952 154.598 218.768 154.852 218.583 155.263C215.964 159.369 212.665 163.121 209.012 166.25C203.264 171.418 198.917 178.03 196.213 185.265C194.924 188.96 193.48 192.642 192.177 196.479C191.724 197.852 191.399 199.381 191.243 200.783C196.524 197.13 201.225 193.548 206.28 190.589C211.334 187.63 216.771 185.138 222.237 182.221C222.095 181.06 222.081 179.927 222.081 178.78C222.463 171.984 225.323 165.91 228.99 160.204C229.684 159.142 230.76 158.562 231.935 158.265C233.11 157.981 234.356 158.265 235.418 158.958C236.338 159.638 237.075 160.587 237.372 161.762C237.669 162.937 237.669 164.084 237.117 165.16C236.508 166.661 235.63 168.119 235.007 169.761C234.059 171.786 233.223 173.966 232.671 176.189C234.469 175.411 236.041 174.165 237.372 172.607C240.317 169.393 243.262 166.179 246.221 162.965C246.731 162.314 247.212 161.804 247.963 161.465C248.713 161.125 249.449 160.926 250.186 160.728C251.049 160.686 251.743 160.771 252.578 161.011C253.244 161.379 253.895 161.875 254.391 162.512C254.886 163.149 255.226 163.9 255.268 164.749C255.311 165.599 255.084 166.293 254.844 167.128C254.461 167.935 254.079 168.742 253.442 169.379C250.143 173.117 246.972 177.025 243.418 180.593C238.745 185.166 233.181 188.791 227.05 191.198C222.406 193.067 217.876 195.247 212.92 197.357C218.668 199.325 223.709 201.349 228.792 202.949C231.85 203.6 234.979 203.685 237.896 203.176C239.057 203.034 240.218 202.878 241.337 203.02C242.328 203.133 243.446 203.275 244.21 204.068C244.989 204.733 245.584 205.653 245.754 206.673C245.938 207.551 245.952 208.556 245.556 209.505C245.159 210.453 244.508 211.09 243.729 211.713C243.106 212.209 242.37 212.407 241.634 212.605C236.367 213.696 231.043 214.205 225.691 212.421C221.175 210.892 216.771 209.505 212.24 207.975C208.956 206.871 205.43 206.461 201.975 206.758C200.829 206.758 199.639 207.197 198.733 207.65C197.671 208.23 196.878 208.853 196.057 209.759C199.101 210.552 202.329 210.935 205.614 210.892C206.62 210.864 207.611 210.85 208.757 210.836C210.159 211.005 211.377 211.572 212.269 212.535C213.147 213.497 213.699 214.842 213.685 216.272C213.529 217.533 212.835 218.594 212.014 219.501C211.065 220.251 209.876 220.676 208.743 220.676C206.166 220.803 203.603 220.775 201.055 220.619L190.365 219.345C190.238 220.463 190.096 221.596 190.252 222.757C190.408 223.918 190.564 224.937 190.734 225.957L208.8 226.24L228.452 226.438C231.015 226.452 233.577 226.481 236.14 226.495C240.246 226.693 244.366 226.906 248.486 226.962C253.031 227.075 257.746 227.061 262.291 227.174C263.707 227.203 265.123 227.373 266.51 227.67C267.36 227.769 268.167 228.151 268.804 228.803C269.456 229.312 269.937 230.077 270.135 230.813C271.211 233.787 271.296 236.661 269.016 239.096C264.259 244.377 258.737 248.851 252.607 252.405C243.135 257.7 232.898 261.042 222.675 264.397C215.553 266.691 208.8 269.594 202.117 273.077C194.514 277.027 186.514 279.632 178.09 280.921C175.201 281.289 172.186 281.36 169.34 281.303C167.924 281.275 166.522 280.963 165.12 280.807C153.949 280.057 143.005 277.324 132.881 272.567C125.575 269.282 117.887 266.79 109.944 265.148C106.022 264.539 102.072 264.213 98.0507 264.454C93.2084 264.454 88.3239 264.723 83.4533 264.865C78.2854 265.105 73.2731 265.374 68.1052 265.615C55.4616 266.394 42.7754 264.043 30.9529 259.074C20.9145 254.741 11.9946 248.271 4.53301 240.257C3.11714 238.954 2.02666 237.397 1.07803 235.712C0.469212 234.792 0.171867 233.744 0.00196293 232.739C-0.0263544 231.734 0.256971 230.629 0.511827 229.666C0.766683 228.704 1.58798 227.797 2.38087 227.174C3.17375 226.551 4.22152 226.113 5.24094 225.943C6.85503 225.56 8.56818 225.49 10.154 225.39C19.8668 225.263 29.5794 225.122 39.2922 224.994C42.7186 224.966 46.145 224.952 49.5431 225.065C47.391 213.115 45.3522 201.477 43.2142 189.527C42.1948 189.697 41.4727 189.753 40.7364 189.952C36.0499 190.971 31.3351 191.112 26.6203 189.994C23.1373 189.3 20.249 187.247 17.5164 185.067C10.0973 179.049 6.45846 171.347 7.59115 161.79C8.89375 150.817 17.1057 144.092 26.2663 142.619C30.4998 141.841 34.7759 141.77 38.8252 142.534L40.6518 142.747L41.8692 132.482C42.2657 129.112 43.3844 125.671 44.8994 122.571C45.6498 121.084 46.5275 119.626 47.6602 118.479C48.623 117.601 49.5574 116.851 50.7751 116.284C51.9927 115.718 53.281 115.591 54.5695 115.591C55.8296 115.746 57.1041 115.888 58.3359 116.327C59.5535 116.893 60.6154 117.601 61.4933 118.55C63.4047 120.489 64.8346 122.797 65.6842 125.318C66.5195 127.838 66.9158 130.599 66.5902 133.261C66.1796 137.919 65.4717 142.676 64.877 147.745L71.9989 151.44C74.2359 149.43 76.3314 147.391 78.3844 145.635C79.3472 144.757 80.4232 144.021 81.4993 143.441C82.2638 142.959 83.3259 142.52 84.1755 142.478C85.1949 142.308 86.1718 142.435 86.993 142.818C87.8142 143.2 88.7344 143.738 89.3716 144.389C90.0087 145.04 90.4759 145.947 90.7874 146.839C91.7502 149.515 92.2741 152.29 92.5289 155.022C93.336 162.668 93.8599 170.299 94.3838 177.917C94.4263 179.913 94.3271 182.051 93.9448 183.991C93.4209 188.352 89.4988 190.164 85.6335 187.998C84.8406 187.474 83.9346 186.653 83.3258 185.874C82.1789 184.741 81.0462 183.467 79.7578 182.32C78.1012 180.692 76.2747 179.205 74.3491 177.407L66.4346 182.886C70.4415 197.187 75.6234 211.204 81.8532 224.782C90.4051 224.796 98.9146 225.235 107.509 224.824L108.387 224.64L108.287 224.612ZM256.274 236.746L241.804 236.165C239.538 236.038 237.259 236.052 234.852 235.91C228.721 235.91 222.59 235.882 216.46 235.868C210.06 235.684 203.674 235.486 197.275 235.301C194.57 235.259 191.866 235.231 189.303 235.217C183.173 235.217 177.042 235.188 170.926 235.033C167.216 235.033 163.549 234.721 159.839 234.721L140.612 234.58C133.207 234.551 125.788 234.537 118.383 234.509C109.689 234.48 100.996 234.438 92.3025 234.41C89.315 234.339 86.4692 234.282 83.4817 234.226C77.4926 234.226 71.5034 234.226 65.3727 234.226C57.9677 234.197 50.5628 234.041 43.1437 234.155C34.875 234.169 26.7478 234.211 18.5925 234.381C17.1766 234.353 15.7183 234.608 13.7078 234.664C18.7483 240.257 24.9214 244.689 31.675 247.917C43.3843 253.722 56.3537 256.256 69.3089 255.237C74.4909 254.855 79.772 254.77 85.0815 254.543C89.8104 254.387 94.5395 254.09 99.2543 254.09C103.544 254.033 107.65 254.232 111.855 254.869C120.067 256.554 128.039 259.074 135.628 262.387C143.769 265.912 151.91 269.311 160.972 269.948L169.411 270.953C172.922 271.363 176.66 271.094 180.044 270.217C186.797 268.588 193.211 266.224 199.427 263.109C206.096 259.768 212.863 256.865 219.971 254.571C229.755 251.457 239.524 248.342 248.43 242.975C251.049 241.291 254.051 240.073 256.288 236.774L256.274 236.746ZM129.512 224.711C129.512 223.422 129.384 222.134 129.256 220.831C127.062 211.727 126.892 202.298 128.577 192.953C129.568 186.936 130.729 180.805 131.593 174.773C131.862 172.522 131.989 170.257 131.692 167.935C131.055 162.441 130.276 157.075 129.2 151.667C127.826 145.225 127.487 138.485 128.124 131.859C128.52 128.489 128.945 124.964 129.2 121.58C129.54 118.762 129.582 115.916 129.639 113.07C129.752 112.079 129.568 111.216 129.115 110.295C128.648 109.389 128.039 108.596 127.246 108.072C124.103 109.262 123.083 111.853 122.474 114.642C121.71 118.691 121.512 122.797 122.163 126.861C123.805 139.462 123.72 152.134 121.951 164.763C121.257 169.393 120.407 174.136 119.586 178.738C117.59 190.759 116.853 202.935 117.547 215.14C117.745 218.297 117.505 221.554 118.977 224.725H129.667L129.525 224.697L129.512 224.711ZM54.9518 124.893C54.0032 126.917 53.3237 128.971 52.6441 131.179C50.7185 141.359 50.1945 151.851 50.6758 162.172C51.4687 174.674 53.4369 187.021 55.3766 199.509C56.6934 207.65 59.0154 215.763 58.1658 224.074C62.4842 224.867 66.9299 224.683 71.1634 223.904C71.0784 223.465 70.838 223.012 70.7531 222.573C66.3922 213.639 63.2631 204.011 60.1057 194.511C54.9803 180.069 53.2245 164.749 55.0227 149.571C55.674 144.092 56.3251 138.598 56.9764 133.119C57.3303 130.16 56.665 127.385 54.9518 124.893ZM40.2836 152.389C35.7245 151.129 30.8821 151.129 26.3089 152.445C24.539 152.955 23.0098 153.762 21.5797 155.022C20.2913 156.297 19.258 157.741 18.635 159.383C16.1147 166.208 18.5498 172.069 23.7319 176.529C25.2893 177.86 27.0169 178.908 28.9283 179.573C33.3317 180.947 37.9474 180.494 42.0393 178.412C41.5437 174.221 41.0339 170.03 40.8215 165.868C40.6091 161.705 40.5526 157.288 40.2694 152.545V152.403L40.2836 152.389ZM82.7312 155.135L79.1774 158.703C75.9351 162.031 74.0377 162.371 69.5494 160.558C67.9354 159.794 66.1512 159.157 64.1124 158.35C64.2115 161.068 64.2539 163.22 64.4239 165.372C64.5938 167.524 64.7781 169.549 65.0471 172.154C66.6045 171.05 67.6665 170.469 68.6293 169.592C74.137 165.259 77.535 165.372 82.3631 170.37C82.8728 170.866 83.4108 171.206 83.779 171.673C84.5577 168.77 83.9629 159.284 82.5895 155.277L82.7454 155.15L82.7312 155.135Z" fill="#102185"/>
<path d="M225.734 81.8511L233.989 75.9894C237.259 73.6674 240.388 71.3312 243.659 69.0092C244.452 68.3862 245.358 67.9332 246.406 67.4801C247.156 67.1403 248.034 66.9562 248.883 67.0553C249.733 67.1544 250.554 67.3951 251.206 67.9048C251.857 68.4145 252.353 69.0376 252.692 69.788C253.032 70.5384 253.216 71.4162 253.117 72.2657C253.032 75.3948 252.961 78.3822 252.593 81.4688C251.361 91.8754 250.144 102.14 249.054 112.561L248.558 116.78C247.666 120.674 244.48 122.288 240.997 120.447C239.652 119.711 238.335 118.847 237.174 117.856C232.459 114.303 227.915 110.621 223.596 107.266C215.71 107.62 208.404 107.889 200.942 108.285C192.801 108.455 184.745 107.79 176.83 105.991C166.381 103.896 155.861 101.22 146.177 96.3637C140.683 93.4329 135.515 90.1055 131.848 84.966C128.804 80.6193 127.487 76.0318 129.809 70.8922C130.942 68.5985 132.613 66.5172 134.637 65.0447C139.635 61.3635 145.469 59.0557 151.684 58.3761C158.778 57.5124 165.857 57.923 172.682 59.2964C178.784 60.7264 184.702 62.5812 190.564 64.8325C202.429 69.3774 213.742 74.9983 224.658 81.5679L225.777 81.6952V81.837L225.734 81.8511ZM241.733 82.743C240.643 83.465 239.567 84.2013 238.477 84.9234C236.297 86.5234 234.13 87.9675 231.921 89.709C227.532 93.0363 222.874 92.6257 218.641 89.8506C207.739 83.1394 196.157 77.4902 184.136 73.0727C175.004 69.5614 165.588 67.1686 155.677 67.8483C150.495 68.2305 145.554 69.0659 141.306 72.4215C138.007 75.0266 137.625 76.9804 140.697 79.9112C142.849 82.1624 145.341 84.0314 147.862 85.603C157.433 91.4364 168.109 93.9992 178.982 96.1371C192.645 98.7564 206.577 99.1245 220.212 97.1707C221.09 96.9866 221.954 96.9442 222.931 97.0716C226.428 97.6238 229.812 99.1671 232.53 101.489C234.597 103.301 236.976 104.873 239.185 106.699C240.332 102.99 242.229 85.8154 241.762 82.6297V82.7713L241.733 82.743Z" fill="#102185"/>
<path d="M160.009 39.686C162.968 40.04 164.285 42.0505 163.931 45.137C163.577 48.2236 161.482 50.1209 158.537 49.7669C155.592 49.413 154.417 47.2749 154.502 44.16C154.587 43.4521 154.657 42.8999 155.011 42.2203C155.365 41.6964 155.705 41.1584 156.342 40.6629C156.81 40.2947 157.433 39.9407 158.169 39.7425C158.764 39.5301 159.486 39.4735 160.194 39.5585L160.038 39.686H160.009Z" fill="#102185"/>
<path d="M36.9566 108.37C36.3903 108.299 35.6965 108.214 35.1585 107.874C34.6346 107.52 34.0965 107.181 33.7284 106.713C33.3603 106.246 33.0065 105.623 32.7941 105.029C32.5817 104.434 32.5249 103.712 32.5957 103.145C32.6806 102.437 32.7516 101.885 33.1055 101.206C33.3179 100.653 33.8136 100.002 34.295 99.6341C34.7905 99.1244 35.3851 98.9119 35.9798 98.6996C36.5744 98.4872 37.2964 98.4305 38.0044 98.5155C39.2645 98.6712 40.468 99.3792 41.1901 100.455C41.9405 101.404 42.351 102.735 42.1953 103.995C42.0395 105.255 41.4733 106.473 40.5105 107.365C39.5477 108.242 38.2168 108.667 36.9566 108.512V108.37Z" fill="#102185"/>
<path d="M158.593 0.0283448C159.159 0.0991378 159.853 0.184055 160.391 0.523861C160.915 0.877826 161.453 1.21756 161.821 1.68479C162.189 2.15202 162.544 2.77509 162.756 3.36975C162.968 3.96441 163.025 4.68644 162.954 5.25278C162.869 5.96071 162.798 6.51293 162.458 7.05095C162.119 7.58898 161.765 8.11283 161.269 8.62254C160.802 8.99066 160.179 9.34467 159.585 9.55705C158.99 9.76943 158.268 9.82609 157.701 9.75529C157.135 9.6845 156.441 9.59958 155.903 9.25978C155.379 8.90581 154.841 8.56588 154.331 8.07033C153.963 7.6031 153.609 6.9802 153.397 6.38554C153.185 5.79088 153.128 5.06885 153.199 4.50251C153.355 3.24239 154.062 2.03889 155.011 1.28848C155.974 0.410648 157.291 0.127393 158.565 0.141551V0L158.593 0.0283448Z" fill="#102185"/>
<path d="M21.8912 121.127C21.9762 120.419 22.0468 119.867 22.3866 119.329C22.599 118.777 23.0805 118.267 23.576 117.757C24.0433 117.389 24.6662 117.035 25.2608 116.823C25.8555 116.611 26.5777 116.554 27.1441 116.625C27.852 116.71 28.39 116.922 28.9281 117.262C29.4661 117.602 29.9758 118.097 30.3439 118.564C30.7121 119.032 31.0658 119.655 31.1507 120.221C31.3631 120.816 31.2782 121.524 31.2216 122.076C31.1366 122.784 31.066 123.336 30.7262 123.874C30.3864 124.412 30.0324 124.936 29.5651 125.304C29.0979 125.672 28.475 126.026 27.8803 126.238C27.2857 126.451 26.5635 126.507 25.9971 126.437C25.4308 126.366 24.737 126.281 24.1989 125.941C23.6751 125.587 23.137 125.247 22.7831 124.639C22.415 124.171 22.0609 123.548 21.9759 122.982C21.7636 122.387 21.8488 121.679 21.9054 121.127H21.8912Z" fill="#102185"/>
<path d="M174.606 26.0234C174.521 26.7313 174.451 27.2835 174.111 27.8215C173.771 28.3596 173.417 28.8835 172.95 29.2516C172.483 29.6197 171.86 29.9735 171.265 30.1859C170.67 30.3983 169.948 30.455 169.382 30.3842C168.122 30.2284 166.932 29.3789 166.21 28.3029C165.488 27.2127 165.205 25.9101 165.361 24.6359C165.431 24.0695 165.517 23.3757 165.856 22.8377C166.069 22.2855 166.55 21.7758 167.017 21.4077C167.485 21.0395 168.079 20.8272 168.674 20.6007C169.269 20.3883 169.835 20.459 170.529 20.5298C171.223 20.6006 171.789 20.6855 172.327 21.0254C172.851 21.3793 173.389 21.7192 173.757 22.1865C174.125 22.6537 174.479 23.2766 174.691 23.8712C174.904 24.4659 174.819 25.1739 174.762 25.7261L174.592 25.995L174.606 26.0234Z" fill="#102185"/>
<path d="M40.8922 86.0138C40.8072 86.7218 40.7363 87.274 40.3965 87.812C40.0567 88.35 39.703 88.8739 39.2357 89.2421C38.7685 89.6102 38.1452 89.964 37.5506 90.1764C36.9559 90.3888 36.2341 90.4454 35.6677 90.3746C35.1014 90.3038 34.4076 90.2189 33.8695 89.8791C33.3457 89.5251 32.8076 89.1854 32.4395 88.7182C32.0714 88.251 31.7173 87.6279 31.6324 87.0616C31.42 86.4669 31.5049 85.7591 31.5615 85.2069C31.6464 84.4989 31.7174 83.9467 32.0572 83.4087C32.2696 82.8565 32.7511 82.3468 33.2183 81.9787C33.6855 81.6106 34.3084 81.2565 34.8747 81.1715C35.4694 80.9592 36.1774 81.0442 36.7296 81.1009C37.2818 81.1575 37.9896 81.2566 38.3861 81.5822C38.7825 81.9078 39.448 82.2759 39.8161 82.7431C40.1842 83.2104 40.5666 83.6919 40.6374 84.2724C40.7082 84.8529 40.7787 85.4333 40.7221 85.9997H40.8638L40.8922 86.0138Z" fill="#102185"/>
<path d="M34.2089 162.782C33.8691 165.599 32.2832 166.973 29.4798 166.647C26.5207 166.293 25.1613 164.566 25.5011 161.748C25.841 158.931 27.5684 157.572 30.4992 158.067C33.3168 158.407 34.5487 159.978 34.1948 162.923V162.782H34.2089Z" fill="#102185"/>
<path d="M157.348 81.44C156.088 81.2842 155.012 80.732 154.261 79.7975C153.511 78.8631 153.086 77.6596 153.241 76.3995C153.397 75.1393 154.204 74.2333 155.153 73.4829C156.102 72.7325 157.291 72.3076 158.424 72.3076C158.99 72.3784 159.542 72.4351 160.066 72.9307C160.59 73.2846 161.128 73.6244 161.496 74.0916C161.864 74.5588 162.077 75.1535 162.303 75.7482C162.53 76.3429 162.445 76.9092 162.388 77.4755C162.332 78.0419 162.261 78.5941 161.907 79.1321C161.553 79.656 161.213 80.194 160.746 80.5622C160.278 80.9303 159.684 81.1426 159.089 81.3691C158.494 81.5815 157.928 81.5108 157.362 81.4542L157.348 81.44Z" fill="#102185"/>
<path d="M175.782 81.0577C175.655 82.1763 174.947 83.2381 174.026 83.8469C173.078 84.5973 171.931 84.739 170.798 84.6115C170.232 84.5408 169.538 84.4558 169 84.116C168.476 83.7621 167.938 83.4222 167.57 82.9549C167.202 82.4877 166.989 81.8932 166.905 81.3127C166.82 80.7321 166.904 80.1658 167.117 79.4861C167.188 78.9198 167.244 78.3675 167.598 77.8295C167.952 77.3057 168.278 76.9093 168.745 76.5412C169.212 76.1731 169.807 75.9606 170.388 75.8756C170.968 75.8048 171.534 75.8757 172.072 76.0739C172.639 76.1447 173.191 76.2012 173.729 76.5552C174.267 76.9092 174.649 77.2349 175.017 77.7021C175.386 78.1694 175.598 78.7639 175.697 79.2029C175.768 79.7834 175.839 80.364 175.782 80.9303V81.0719V81.0577Z" fill="#102185"/>
</svg>
