<svg width="265" height="273" viewBox="0 0 265 273" fill="none" xmlns="http://www.w3.org/2000/svg">
<path d="M122.219 209.094C121.96 210.773 121.841 212.474 121.7 214.314C121.419 217.996 121.137 221.677 120.694 225.477C120.154 228.975 118.313 230.696 115.493 230.405C112.694 229.973 111.134 228.013 111.232 224.59C111.331 221.167 111.731 217.647 111.969 214.245C112.088 212.545 112.046 210.962 112.187 209.121C105.406 206.643 106.582 199.948 104.518 194.758C103.678 196.491 102.999 198.105 102.083 199.396C101.491 200.451 100.5 201.301 99.2941 201.688C98.0883 202.075 96.8073 202.021 95.7526 201.428C95.2145 201.202 94.698 200.836 94.3213 200.491C93.9663 200.006 93.6113 199.522 93.3962 199.059C93.2028 198.456 93.1492 197.875 93.2355 197.315C93.3219 196.755 93.4083 196.195 93.7745 195.679C96.6732 188.963 99.9701 182.452 103.267 175.941C104.538 173.272 106.326 170.969 108.201 168.107C106.479 166.265 105.264 163.929 104.512 161.377C103.899 158.847 103.728 156.242 104.257 153.745C104.915 150.408 106.789 147.546 109.417 145.372C112.044 143.199 115.382 141.995 118.826 141.953C122.271 141.912 125.522 143.13 128.179 145.402C134.55 150.54 135.408 157.979 130.796 167.439C132.851 169.905 135.024 172.532 137.176 175.3C140.748 180.005 144.158 184.829 147.73 189.535C147.945 189.998 148.3 190.483 148.375 190.924C149.665 193.702 149.298 196.081 147.36 197.501C145.562 198.942 143.043 198.554 140.547 196.163C140.288 195.98 140.052 195.657 139.535 195.291C139.265 197.971 139.554 200.737 138.649 202.89C137.744 205.042 135.482 206.699 133.415 208.959C133.758 210.445 134.436 212.555 134.951 214.783C135.392 216.57 135.854 218.217 135.993 220.101C136.24 221.286 136.046 222.545 135.432 223.74C134.818 224.934 133.73 225.483 132.524 225.87C131.34 226.117 130.081 225.922 129.026 225.33C127.993 224.597 127.283 223.628 126.896 222.422C126.068 219.429 125.381 216.458 124.693 213.487C124.328 212.141 123.941 210.935 123.436 209.568L122.273 209.675L122.219 209.094ZM129.566 198.623C129.18 193.693 128.988 189.365 128.797 185.038C128.702 181.012 127.003 177.168 124.27 174.454C121.3 171.417 118.275 171.524 115.335 174.795C114.484 175.666 113.891 176.721 113.579 177.819C113.266 178.917 113.212 180.197 113.319 181.36C113.887 186.032 114.456 190.704 115.024 195.376C115.249 196.701 115.615 198.046 115.959 199.532L129.727 198.505L129.566 198.623ZM119.597 151.814C118.897 151.706 118.198 151.598 117.455 151.77C116.712 151.942 116.088 152.275 115.603 152.63C114.957 153.104 114.591 153.62 114.224 154.137C113.837 154.793 113.589 155.471 113.621 156.193C113.383 157.732 113.727 159.218 114.695 160.37C115.664 161.522 116.955 162.438 118.354 162.654C119.054 162.762 119.635 162.708 120.378 162.536C120.981 162.343 121.605 162.009 122.23 161.676C122.715 161.321 123.221 160.826 123.609 160.169C123.975 159.653 124.223 158.975 124.331 158.275C124.439 157.575 124.547 156.876 124.375 156.133C124.203 155.39 124.009 154.787 123.536 154.141C123.063 153.495 122.568 152.989 121.911 152.601C121.255 152.213 120.577 151.965 119.877 151.857L119.597 151.814Z" fill="#102185"/>
<path d="M166.206 143.095C159.799 140.203 162.581 134.206 161.604 129.106C160.59 130.154 159.886 131.137 159.082 131.948C156.744 134.106 153.789 134.192 151.831 132.201C149.873 130.21 150.05 127.911 151.915 125.333C155.681 120.04 159.347 114.574 163.113 109.281C164.31 107.55 165.681 105.719 167.116 104.198C168.203 102.877 168.907 101.894 167.906 100.159C164.605 94.4354 165.899 89.0656 169.218 83.7993C170.699 81.558 172.927 79.8104 175.382 78.8567C177.974 77.9396 180.656 77.7797 183.391 78.5136C194.02 81.5128 197.715 92.3263 191.344 101.318C190.887 101.928 190.43 102.539 189.763 103.386L195.993 114.586C197.254 113.166 198.578 112.055 199.528 110.698C200.479 109.34 201.12 108.046 202.034 106.825C202.601 105.805 203.678 105.068 204.819 104.641C205.923 104.351 207.227 104.408 208.384 105.011C209.405 105.578 210.179 106.519 210.432 107.76C210.722 108.864 210.665 110.168 210.098 111.189C207.773 116.575 204.527 121.568 198.487 123.319C197.246 123.572 196.206 124.172 195.502 125.156C194.798 126.14 194.331 127.334 194.584 128.575C194.481 130.599 194.204 132.724 193.963 134.712C193.583 138.861 192.555 142.69 187.856 144.361C188.069 147.936 188.319 151.375 188.432 154.777C188.539 156.565 188.509 158.316 188.305 160.167C188.112 161.434 187.544 162.455 186.467 163.192C185.526 163.966 184.249 164.356 182.982 164.162C180.72 163.849 179.136 162.104 179.013 159.286C178.736 155.4 178.496 151.378 178.256 147.355C178.24 146.325 178.643 144.82 176.892 144.79C175.141 144.76 175.458 146.311 175.338 147.305C174.227 151.991 173.289 156.577 172.042 161.227C171.638 162.731 170.551 164.051 169.126 164.989C168.469 165.252 167.712 165.342 166.992 165.295L164.804 164.708C163.92 164.178 163.383 163.447 163.056 162.48C162.729 161.513 162.676 160.619 162.933 159.662C163.87 155.076 164.908 150.663 165.846 146.077L166.469 143.752L166.206 143.095ZM183.931 134.951C184.431 129.808 184.648 125.175 185.412 120.689C186.397 115.383 183.228 111.894 180.717 108.141C180.517 107.795 180.18 107.411 179.807 107.164C179.433 106.917 179.023 106.807 178.576 106.834C178.166 106.724 177.682 106.887 177.335 107.087C176.988 107.287 176.605 107.624 176.358 107.998C174.283 110.813 171.898 113.691 172.175 117.577C172.108 119.464 172.004 121.489 171.801 123.34C171.604 126.806 171.543 130.308 171.51 134.257L184.031 135.125L183.931 134.951ZM175.992 91.3343C175.258 94.0692 176.075 96.4874 178.263 97.0746C179.494 97.4049 180.871 97.1882 181.949 96.4511C183.026 95.7141 183.867 94.7669 184.334 93.5728C184.517 92.8891 184.664 92.3421 184.537 91.7217C184.41 91.1014 184.284 90.481 183.984 89.9606C183.683 89.4403 183.246 88.8833 182.736 88.5997C182.263 88.1794 181.579 87.9959 181.032 87.8492C178.844 87.262 177.036 88.536 176.092 91.5077L175.992 91.3343Z" fill="#102185"/>
<path d="M104.952 86.1962C106.69 82.9977 106.346 80.9998 105.219 78.6449C103.455 75.3862 103.178 71.5005 104.269 67.9817C105.36 64.463 107.782 61.448 111.041 59.6838C114.126 58.0196 117.601 57.633 120.883 58.5137C124.165 59.3945 127.117 61.5059 128.818 64.4545C130.192 66.4358 130.872 68.8173 130.969 71.1887C131.065 73.5602 130.578 75.9216 129.544 78.1362C129.114 79.1935 128.683 80.2508 128.216 81.4448C132.636 84.0967 136.351 87.7325 139.026 91.9686C139.899 93.0826 140.463 94.2601 140.953 95.711C141.417 96.715 141.433 97.7456 141.177 98.7028C140.92 99.66 140.389 100.544 139.485 101.181C138.718 101.855 137.751 102.181 136.894 102.098C135.863 102.115 134.943 101.721 134.195 101.227L132.091 99.7829C132.357 104.252 131.403 107.808 127.251 109.625C128.021 112.764 128.728 115.592 129.435 118.421C129.688 119.661 129.942 120.902 129.885 122.206C130.001 123.41 129.671 124.641 128.967 125.625C128.264 126.609 127.186 127.346 125.982 127.463C123.537 127.833 121.469 126.252 120.762 123.423C120.246 121.525 119.939 119.391 119.459 117.356C119.269 116.425 118.768 115.558 118.058 114.928C117.891 116.642 117.824 118.53 117.621 120.381C117.627 121.995 117.397 123.4 117.267 124.977C116.973 126.071 116.543 127.128 115.602 127.902C114.662 128.676 113.521 129.103 112.354 129.083C111.807 128.936 111.086 128.889 110.576 128.606C110.029 128.459 109.555 128.039 109.118 127.482C108.645 127.061 108.345 126.541 108.218 125.921C108.091 125.3 107.965 124.68 107.975 124.096C108.035 120.594 108.232 117.129 108.702 113.736C108.923 112.916 108.833 112.159 108.606 111.365C108.379 110.571 107.942 110.014 107.232 109.384C105.984 108.023 105.221 106.499 104.977 104.674C104.524 103.086 104.554 101.335 104.684 99.7577C104.941 98.8005 104.788 97.7332 104.287 96.8659C103.787 95.9987 103.113 95.2315 102.193 94.8379C95.7959 91.362 93.3615 85.1381 92.278 78.2505C92.1246 77.1832 92.3181 75.9158 92.9853 75.0686C93.5523 74.048 94.593 73.4477 95.5603 73.1209C96.6643 72.8308 97.8317 72.8509 98.8523 73.418C99.9095 73.8483 100.683 74.7889 101.147 75.7929C101.81 77.1438 101.954 78.7948 102.444 80.2457C102.998 82.0068 103.861 83.7046 105.125 86.0961L104.952 86.1962ZM115.185 86.3036L113.856 101.633L122.558 100.89L119.791 86.0737L115.221 86.1668L115.185 86.3036ZM121.179 73.2527C121.326 72.7057 121.473 72.1587 121.346 71.5383C121.356 70.9546 121.056 70.4343 120.893 69.9507C120.593 69.4303 120.256 69.0467 119.782 68.6265C119.308 68.2062 118.761 68.0594 118.214 67.9126C117.257 67.6557 116.153 67.9458 115.249 68.5828C114.345 69.2198 113.815 70.1036 113.558 71.0609C113.411 71.6078 113.264 72.1548 113.254 72.7385C113.244 73.3222 113.408 73.8058 113.708 74.3262C114.008 74.8465 114.308 75.3669 114.819 75.6504C115.292 76.0707 115.802 76.3542 116.349 76.501C117.443 76.7946 118.547 76.5045 119.451 75.8675C120.355 75.2305 121.059 74.2466 121.216 73.116L121.179 73.2527Z" fill="#102185"/>
<path d="M199.803 183.052C199.585 183.725 199.367 184.399 198.88 184.985C198.393 185.572 197.949 186.024 197.236 186.388C196.658 186.797 195.854 186.983 195.228 187.078C194.467 187.13 193.75 187.047 193.033 186.964C190.473 186.136 189.375 183.549 190.289 180.72C191.335 177.487 193.826 175.763 196.521 176.634C197.194 176.852 197.733 177.026 198.276 177.648C198.728 178.091 199.18 178.535 199.545 179.248C199.818 179.783 200.048 180.452 200.1 181.213C200.195 181.839 200.112 182.556 199.759 183.186L199.803 183.052Z" fill="#102185"/>
<path d="M175.728 194.465C176.402 194.683 176.897 194.992 177.483 195.479C177.935 195.922 178.343 196.501 178.617 197.036C178.847 197.705 178.942 198.331 179.037 198.957C178.954 199.674 178.915 200.257 178.697 200.93C178.523 201.469 178.305 202.143 177.996 202.638C177.687 203.133 177.109 203.542 176.709 203.859C176.174 204.132 175.639 204.406 175.013 204.501C174.387 204.596 173.805 204.557 173.266 204.383C172.592 204.165 172.053 203.991 171.51 203.369C171.059 202.925 170.65 202.347 170.242 201.768C169.969 201.233 169.739 200.564 169.687 199.803C169.592 199.177 169.809 198.504 170.027 197.83C170.201 197.291 170.419 196.618 170.863 196.166C171.172 195.67 171.75 195.262 172.329 194.854C172.863 194.58 173.533 194.35 174.159 194.255C174.785 194.16 175.502 194.243 176.041 194.417L175.728 194.465Z" fill="#102185"/>
<path d="M154.336 62.7056C153.797 62.5313 153.124 62.3136 152.807 61.9135C152.355 61.4698 151.903 61.0262 151.63 60.4914C151.356 59.9566 151.261 59.3306 151.166 58.7046C151.07 58.0786 151.245 57.5397 151.462 56.8661C151.637 56.3272 151.989 55.6972 152.433 55.2454C152.876 54.7936 153.32 54.3418 153.99 54.1118C154.524 53.8383 155.15 53.7431 155.776 53.6479C156.402 53.5526 157.076 53.7704 157.615 53.9446C158.154 54.1188 158.649 54.4277 159.101 54.8714C159.553 55.315 159.87 55.7151 160.1 56.3846C160.373 56.9195 160.468 57.5455 160.429 58.1279C160.389 58.7103 160.35 59.2928 160.176 59.8316C160.002 60.3705 159.827 60.9094 159.249 61.3177C158.805 61.7694 158.405 62.0865 157.87 62.36C157.336 62.6335 156.71 62.7288 156.084 62.824C155.501 62.7845 154.919 62.745 154.38 62.5708L154.336 62.7056Z" fill="#102185"/>
<path d="M57.051 63.993C60.3104 58.053 62.4009 51.5864 63.2353 44.8625C63.4408 42.8457 64.0941 40.8249 64.8385 38.9824C66.8582 34.5761 70.5665 33.6916 74.5768 36.476C78.2265 38.9951 81.8327 41.6488 85.6606 44.0767C87.5073 45.2688 89.6192 46.1004 91.9055 46.393C94.1917 46.6857 96.4738 46.5306 98.6171 45.8843C104.96 44.2147 110.609 40.0889 114.051 34.5054C117.758 28.5614 121.509 22.4827 125.442 16.7605C127.874 13.3802 130.397 10.1783 133.146 7.19812C136.204 3.72263 140.391 1.35627 144.903 0.285438C146.199 -0.0397609 147.407 -0.0955184 148.663 0.16172C149.92 0.418959 151.089 0.945644 151.949 1.96766C154.477 4.273 157.14 6.62189 159.668 8.92723C167.079 16.3821 175.334 23.0682 184.207 28.7636C190.781 32.8232 197.921 35.1314 205.196 37.4832C212.784 39.7873 219.362 44.2946 224.344 50.5179C225.929 52.5184 227.515 54.5188 229.278 56.4282C233.804 61.7601 239.926 65.376 246.746 66.8364C250.918 67.7388 254.999 68.4629 259.215 69.2305C260.649 69.3966 261.909 70.1015 262.861 71.3018C263.721 72.3238 264.272 73.8412 264.106 75.2755C264.114 76.171 263.853 76.9793 263.548 77.9223C259.228 90.3643 254.73 102.898 250.41 115.34C248.886 120.055 245.428 123.847 241.015 125.992C232.949 130.229 229.96 141.316 234.954 148.882C239.584 155.736 242.03 163.818 242.195 172.055C242.287 177.293 242.514 182.574 242.741 187.856C243.171 195.732 245.3 203.414 249.213 210.184C249.803 211.119 250.35 212.189 250.897 213.259C253.315 218.207 253.166 221.432 248.765 224.92C236.805 234.297 224.025 242.069 208.042 242.259C201.774 242.316 195.419 242.643 189.238 242.43C174.281 242.208 163.054 248.399 155.018 260.83C153.208 263.668 151.307 266.327 149.271 268.942C146.173 273 142.865 273.568 139.029 270.244C134.38 266.212 128.94 263.709 123.543 261.072C121.474 260.105 119.184 259.365 116.941 258.938C110.261 257.969 103.925 255.474 98.4723 251.628C96.3997 250.214 94.1925 248.757 92.12 247.343C86.4413 243.275 79.5269 241.188 72.5893 241.475C67.712 241.833 62.8661 240.713 58.5469 238.424C54.9924 236.531 51.5727 234.681 48.2836 232.428C44.4992 229.865 44.023 226.735 46.3161 222.864C52.7559 212.149 58.2962 200.994 62.8023 189.356C67.4867 177.627 68.0859 164.727 64.3507 152.806C59.6835 136.863 50.6941 123.244 39.835 110.805C32.4159 102.455 24.1531 94.8734 15.3596 88.0131C10.7587 84.2938 6.33602 80.4833 1.77867 76.6293C1.28334 76.3204 0.966259 75.9203 0.558023 75.3419C0.28451 74.8071 0.0110208 74.2723 0.0505025 73.6898C-0.044738 73.0638 -0.00527562 72.4814 0.168928 71.9425C0.343132 71.4036 0.517351 70.8647 0.960999 70.4129C1.75712 69.3311 2.82269 68.3364 4.0706 67.6982C17.4411 60.8604 31.2483 57.735 46.0596 61.6302C49.6059 62.6278 53.2829 63.2212 57.051 63.993ZM12.8165 74.2454C14.2154 75.4417 15.2537 76.3725 16.3356 77.1686C22.6525 82.4843 29.0564 87.5305 35.195 92.9373C49.2318 105.212 60.6978 120.377 68.8202 137.138C77.4501 155.552 79.2336 174.431 71.4368 193.487C68.5461 200.587 65.1166 207.514 61.8218 214.484C60.0199 218.217 58.0833 221.906 56.2379 225.773C61.8295 230.111 67.8049 232.34 74.786 231.918C77.7418 231.981 80.6104 232.313 83.4831 233.093C91.1541 234.68 97.3282 239.057 103.546 243.298C107.061 245.774 110.802 248.471 115.239 249.013C125.01 250.088 133.244 254.536 141.396 259.701C142.026 260.053 142.656 260.405 143.421 260.801C145.809 257.556 148.154 254.445 150.455 251.469C159.038 240.108 170.174 233.738 184.497 233.16C190.987 232.877 197.655 232.503 204.106 232.803C218.932 233.429 230.872 226.873 242.122 218.308L242.34 217.635L243.053 217.27C242.284 216.426 241.559 215.448 240.969 214.513C236.236 206.138 233.734 196.848 233.379 187.359C233.251 183.151 232.988 178.9 232.86 174.692C232.835 166.946 231.157 159.708 226.532 153.302C223.492 148.897 222.413 143.489 223.394 138.152C224.743 128.916 228.616 121.537 237.264 117.34C238.334 116.792 239.313 116.067 240.065 115.12C240.818 114.173 241.479 113.048 241.693 111.926C242.651 108.962 243.7 106.177 244.793 103.256C247.454 95.4861 250.114 87.7159 252.775 79.9456C252.862 79.6761 252.723 79.1848 252.719 78.7371C243.166 76.9881 234.14 74.0702 226.872 67.5543C222.988 63.918 219.461 60.0994 216.199 55.9202C212.759 51.8321 208.345 48.917 203.225 47.2621L194.064 44.3006C187.193 42.0795 180.849 38.6894 174.857 34.6693C167.106 29.1876 159.842 23.1194 153.152 16.1953C150.759 13.9335 148.365 11.6717 145.52 8.96623C142.062 12.7588 138.508 15.9253 135.811 19.6662C130.991 26.292 126.666 33.2267 122.206 40.1178C118.456 46.1965 112.945 50.8137 106.345 53.7393C97.2927 57.8065 88.4731 57.9314 79.8265 52.4579C77.6192 51.0003 75.3684 49.6775 72.8482 48.2676L72.3256 49.8843C70.9999 56.747 68.7312 63.3047 65.6541 69.6012C63.2344 74.3246 60.9169 75.5099 55.6668 74.2591C50.4167 73.0083 45.1666 71.7575 39.8294 70.7762C30.6369 69.2926 21.2471 70.7212 12.9118 74.8715L12.8165 74.2454Z" fill="#102185"/>
</svg>
