<svg width="394" height="218" viewBox="0 0 394 218" fill="none" xmlns="http://www.w3.org/2000/svg">
<path d="M39.2621 96.8048C39.3046 91.9909 39.3329 87.8849 39.3612 83.7789C39.3612 82.9294 39.8002 82.0799 40.3665 81.2445C45.8317 70.5265 51.4244 59.9499 56.8896 49.2319C57.0312 48.8071 57.3144 48.3824 57.6117 48.0992C60.047 45.14 61.4629 44.5879 64.5636 46.1736C67.5228 47.4762 70.1987 49.6142 72.1668 52.1769C76.7825 58.8597 81.6956 65.4152 86.4529 72.1122C87.0193 72.8201 87.5715 73.5422 88.1378 74.2502C102.495 65.8683 116.172 56.4811 131.364 49.7982C130.812 48.2408 130.387 47.094 130.118 45.8197C128.731 41.8411 128.334 37.452 129.226 33.346C130.104 29.0984 132.115 25.3039 134.975 22.2032C137.113 19.5272 139.959 17.5732 143.229 16.3131C143.796 16.1715 144.362 15.7609 144.801 15.3362C145.226 14.9114 145.523 14.3451 145.664 13.7788C148.128 5.86412 154.103 1.94217 161.763 0.313934C165.727 -0.365679 169.692 0.0874099 173.5 1.39C174.633 1.68733 175.624 2.11205 176.743 2.40938C177.451 2.55096 178.3 2.56514 179.008 2.42355C182.973 1.88552 186.937 2.76342 190.321 5.05712C193.705 7.35081 196.083 10.6214 197.046 14.6C198.278 19.5697 197.966 24.6668 196.225 29.4665C197.924 29.4665 199.623 29.3532 201.18 29.0842C204.862 28.4046 208.543 28.4329 212.224 29.1692C214.773 29.6081 217.321 29.778 220.012 30.0753C222.419 30.3727 224.684 30.8116 226.935 31.1231C228.351 31.4204 229.625 31.4203 231.041 31.4345C237.554 30.9106 243.94 29.693 250.325 27.8949C259.259 25.2755 268.208 22.7978 277.283 20.3059C282.819 18.6493 288.341 17.5591 294.16 16.8937C295.576 16.8937 296.851 16.4831 298.125 16.3556C303.647 15.9734 308.588 17.8565 313.388 20.0086C317.48 21.7359 321.288 23.888 324.956 26.4649C325.522 26.8897 326.088 27.1869 326.782 27.4701C333.635 20.1643 340.346 12.9858 347.057 5.68001C347.765 4.83049 348.629 3.99522 349.62 3.28729C350.611 2.45193 351.899 2.02713 353.032 2.18288C354.306 2.18288 355.439 2.76337 356.274 3.76863C358.936 6.89768 361.612 9.89928 364.274 13.0283C367.361 16.7379 370.306 20.4333 373.392 24.1429C377.173 28.8435 381.109 33.4026 384.903 38.1032C386.163 39.6748 386.857 41.6571 386.843 43.7808C386.772 52.276 386.716 60.9127 386.503 69.4079C386.461 74.7881 385.852 80.0269 385.526 85.4072C385.526 86.1151 385.795 86.9646 386.22 87.5309C388.174 91.0848 389.703 94.9217 390.807 98.8861C392.053 103.573 392.86 108.386 393.243 113.2C393.512 115.041 393.639 117.023 393.767 118.864C393.441 125.377 391.544 131.592 388.103 137.086C382.949 144.972 376.521 152.009 369.116 157.758C359.149 166.04 347.355 170.472 335.291 174.635C330.18 176.291 325.069 178.103 320.099 180.326C312.567 183.809 305.601 188.142 299.045 193.338C292.206 198.945 285.085 204.283 277.694 209.04C270.869 213.231 263.62 216.445 255.55 217.082C250.736 217.464 245.78 217.294 240.966 216.686C229.37 214.902 218.213 211.277 206.901 208.36C194.894 205.302 182.873 201.947 170.725 199.03C164.368 197.572 157.997 196.382 151.498 195.49C146.825 194.896 142.153 195.278 137.764 196.382C126.989 198.987 116.2 201.465 105.567 203.929C101.164 204.891 96.7746 205.982 92.3712 206.803C85.9857 208.176 79.3311 207.837 72.9738 205.812C69.4483 204.651 66.4892 202.513 64.238 199.511C60.0329 193.961 56.1109 187.986 52.7553 181.87C48.4228 173.629 41.6832 166.777 33.4995 162.189C29.6908 160.179 26.0238 157.885 22.2151 155.874C21.5072 155.45 20.6577 155.577 19.9497 155.294C13.1677 152.547 7.26358 148.116 2.77528 142.282C0.948815 140.003 -0.0140047 137.313 0.000153937 134.339C0.0284713 130.375 0.906322 126.41 3.90796 123.465C8.04229 119.388 12.3182 115.452 16.7357 111.671C20.1621 108.726 23.4327 105.498 27.4113 103.403C30.5404 101.732 33.6694 100.189 36.7985 98.6596C37.9312 98.1074 38.9365 97.541 39.6444 97.1304L39.2197 96.8472L39.2621 96.8048ZM151.965 133.631C152.659 135.897 153.211 137.61 152.347 139.436C152.206 140.144 152.05 140.994 152.192 141.843C152.135 148.498 151.526 155.152 150.62 161.793C150.167 165.616 148.029 167.867 143.923 168.249C141.799 168.518 139.675 168.787 137.552 168.773C129.764 168.999 121.977 169.226 114.048 169.155C110.508 169.127 106.827 168.674 104.307 165.686C94.9198 170.854 83.5928 189.459 82.9699 197.812C85.3768 197.826 87.6422 197.416 89.9076 197.161C98.417 195.391 106.926 193.607 115.294 191.696C124.37 189.643 133.176 186.457 142.663 185.82C144.928 185.551 147.194 185.423 149.459 185.593C155.264 186.344 161.055 187.236 166.718 188.411C175.907 190.464 185.096 192.659 194.271 195.136C206.561 198.35 218.723 201.692 231.013 204.906C237.936 206.803 245.016 207.695 252.095 207.468C257.334 207.228 262.445 205.854 266.99 203.617C273.814 199.993 280.214 195.788 286.203 190.875C292.051 185.961 298.167 181.473 304.567 177.565C311.816 173.091 319.49 169.608 327.589 166.833C333.833 164.893 339.935 162.543 346.052 160.179C352.579 157.531 358.696 153.906 363.977 149.277C369.385 144.788 374.1 139.72 378.249 134.24C381.831 129.03 384.28 123.239 383.757 116.868C383.502 113.186 382.68 109.491 382.142 105.81C381.052 99.5657 378.688 93.6049 375.474 88.1964C367.12 87.8566 358.766 87.5026 350.568 87.1628C345.613 87.1203 340.516 87.092 335.56 86.908C329.897 86.8655 324.233 86.5398 318.57 86.2141C315.597 86.1858 314.337 84.9116 313.784 81.9241C313.515 80.2251 313.246 78.526 313.26 76.9686C313.317 69.0398 313.374 61.2525 313.303 53.3237V50.6336C313.204 48.085 312.935 45.6781 312.949 43.1295C312.963 40.581 313.983 37.7634 317.239 36.928C317.805 36.7865 318.372 36.3759 318.811 35.9511C319.235 35.5263 319.674 34.96 319.816 34.4079C315.738 31.5478 311.363 29.0984 306.705 27.2294C303.321 25.6437 299.498 25.1906 295.817 25.7286C290.862 26.3941 285.892 27.4984 281.064 28.8718C270.983 31.7743 260.916 34.5211 250.977 37.282C243.034 39.6323 234.807 40.5527 226.595 40.2129H224.613C223.608 41.4588 222.758 42.7331 221.895 43.8516C217.746 48.7788 214.589 54.5556 212.564 60.6296C208.515 72.0698 204.182 83.5099 198.009 94.0722C194.285 100.274 191.114 106.758 185.974 112.11C182.831 115.763 179.121 119.133 175.143 121.936C170.584 124.881 165.472 126.963 160.644 129.186C157.798 130.431 155.094 131.975 152.262 133.518L151.979 133.66L151.965 133.631ZM73.4836 195.901C75.6782 187.278 79.5577 179.236 84.9946 172.199C87.8547 168.405 90.5731 164.455 94.5658 161.651C97.1285 159.825 99.8329 158.154 102.396 156.469C102.155 150.381 101.773 144.293 101.546 138.205C101.574 135.231 102.438 132.258 104.151 129.865C105.581 127.614 107.153 125.646 108.455 123.239C112.476 115.905 118.182 109.859 124.03 103.955C127.032 100.868 130.416 101.166 133.233 104.875C133.799 105.583 134.21 106.447 134.776 107.155C138.415 112.705 142.054 118.397 145.693 123.947C146.118 124.655 146.67 125.235 146.953 125.518C151.639 123.14 156.199 120.634 160.743 118.821C169.267 115.636 175.681 109.873 181.104 102.978C182.392 101.435 183.397 99.8772 184.388 98.3339C186.824 94.242 189.117 90.0229 191.425 85.931C195.446 78.7384 198.193 70.9795 201.223 63.2064C202.667 59.2561 203.97 55.2918 205.556 51.4831C207.708 46.8249 210.44 42.4641 214.008 38.6554C208.359 37.6219 202.54 37.721 196.876 39.0944C196.579 40.935 196.565 42.634 196.126 44.333C194.951 49.8407 191.666 53.9325 187.815 57.727C187.107 58.2934 186.526 59.1288 186.101 59.9783C185.677 60.8278 185.521 61.8189 185.507 62.81C185.45 70.8804 185.379 78.9508 185.323 87.1628C185.323 88.7203 184.87 90.2777 184.728 91.8351C184.572 94.2421 182.859 95.3606 180.877 96.0544C179.744 96.465 178.47 96.7482 177.196 96.734C170.824 97.5411 164.439 98.4755 158.067 99.2826C156.51 99.41 154.953 99.1126 153.692 98.2631C152.418 97.3994 151.583 95.9836 151.172 94.5677C150.903 93.0103 150.634 91.4529 150.493 89.8954C149.827 83.524 149.176 76.9969 148.51 70.6256C148.241 68.6434 147.972 66.5195 147.845 64.5373C147.845 63.5462 147.576 62.6967 146.443 62.541C143.328 62.0879 140.369 60.6579 138.118 58.3784C137.693 57.9536 137.268 57.6704 136.702 57.6562C136.136 57.6421 135.569 57.6562 135.145 58.0668C134.437 58.4916 133.729 58.7606 133.007 59.1854C124.625 63.6595 116.229 68.261 108.257 73.3015C102.707 76.9402 96.8737 80.2959 91.4792 83.5099C91.1677 87.6159 90.7146 91.5803 90.4032 95.3889C90.0775 100.628 89.7519 105.866 89.4404 111.105C89.2705 113.937 88.9732 116.768 88.6617 119.6C88.3502 123.565 86.4954 125.249 82.5309 125.221H81.823C70.6377 125.136 59.4524 125.051 48.4086 124.825C46.9927 124.825 45.4353 124.513 44.161 124.088C43.3115 123.805 42.4619 123.225 41.9097 122.517C41.3576 121.809 41.0744 120.959 41.0744 119.968C40.8196 116.853 40.6921 113.738 40.4373 110.482C40.4373 109.349 40.4514 108.217 40.324 107.084C36.0622 108.613 32.0837 110.85 28.6573 113.653C23.6734 118 18.5338 122.361 13.55 126.849C12.2616 127.968 11.1289 129.242 10.2652 130.644C9.54309 131.635 9.11832 132.895 9.10416 134.169C9.09 135.444 9.65632 136.576 10.4917 137.582C10.9164 138.148 11.4687 138.587 11.8935 139.012C15.8296 142.863 20.332 145.878 25.415 147.889C29.5068 149.758 33.5986 151.768 37.4073 154.062C46.568 159.23 54.2986 166.932 59.6081 176.036C62.6805 181.162 65.4698 186.556 69.1227 191.257C70.5244 192.97 71.9261 194.542 73.611 196.099L73.4695 195.957L73.4836 195.901ZM179.758 52.7007C180.608 51.8512 181.896 50.3079 183.185 48.9062C185.04 47.0798 186.328 44.6869 186.923 42.1384C187.517 39.5899 187.248 36.8998 186.413 34.4928C185.861 33.2185 185.719 31.9443 185.734 30.5284C185.748 29.1126 186.172 27.8382 186.753 26.5781C188.197 23.7606 188.07 20.7873 187.815 17.9556C187.815 16.5397 187.135 15.1238 186.286 14.1186C185.309 12.9717 184.034 12.2638 182.76 11.9664C181.769 11.6691 180.778 11.6692 179.645 11.9382C176.955 12.3488 174.265 11.8957 171.731 10.8905C169.182 10.0268 166.506 9.57366 163.816 9.70109C161.834 9.68693 159.851 10.3807 158.138 11.6408C156.425 12.7593 155.137 14.4442 154.415 16.4264C154.131 16.9928 153.976 17.7007 153.834 18.4087C153.537 19.9661 152.956 21.3819 151.823 22.5004C150.677 23.619 149.402 24.3269 147.845 24.7375C144.588 25.4171 142.578 27.8099 140.582 30.0612C138.444 32.5956 137.99 35.9936 137.962 38.9669C137.934 42.9313 139.463 46.6267 142.125 49.4726C143.385 50.9026 144.942 52.0494 146.627 52.7573C149.87 53.7768 153.268 53.9467 156.68 53.2529C157.954 53.1255 159.228 52.984 160.503 53.2813C162.91 53.2955 165.317 53.7485 167.582 53.6211C171.263 53.3662 175.086 53.1114 179.631 52.7149H179.773L179.758 52.7007ZM375.814 78.3986C376.111 76.2748 376.408 74.4342 376.564 72.5936C376.62 64.8063 376.819 57.0191 377.017 49.3735C377.017 48.524 376.889 47.816 376.748 46.9665L349.705 46.7683C345.316 46.74 340.643 46.2728 336.113 46.1029C331.582 46.0746 327.051 45.7489 322.379 46.0038L322.35 48.977C322.464 52.6583 322.718 56.1979 322.832 59.8792C322.789 64.8347 322.761 69.6486 322.719 74.6041C322.719 75.4537 322.718 76.3032 322.832 77.4359C340.53 77.1385 358.073 78.6959 375.785 78.5402V78.3986H375.814ZM81.7948 88.7768C77.5472 88.4653 73.8659 88.0123 70.1846 87.8424C64.0964 87.5167 58.0082 87.1911 51.7784 86.8513C51.212 86.8513 50.6457 86.6956 50.0793 86.554H48.3803C48.8758 96.1677 49.513 105.527 50.0085 114.871L79.4585 115.664C79.7559 114.531 79.8974 113.257 80.0532 112.124C80.3788 106.886 80.7045 101.647 81.016 96.55V95.1341C81.3274 93.0103 81.4832 91.0281 81.7806 88.7627L81.7948 88.7768ZM142.861 140.357L115.676 140.158C114.119 140.286 112.562 140.555 111.004 140.98C111.259 143.953 111.528 146.785 111.783 149.616C112.038 152.448 112.307 155.28 112.42 158.112V158.819C112.42 159.103 112.547 159.244 112.83 159.386C112.972 159.527 113.255 159.669 113.397 159.811H114.105L115.804 159.825C123.025 159.598 130.246 159.513 137.467 159.287C138.882 159.159 140.298 158.89 141.573 158.465C141.898 152.377 142.366 146.572 142.705 140.357H142.861ZM352.367 13.7929C346.661 18.9892 333.238 33.8982 331.95 36.291C345.103 37.5228 358.285 37.1971 372.005 37.5794L352.367 13.9203V13.7788V13.7929ZM176.007 62.3003C172.608 62.5552 169.635 62.9657 166.662 62.9374C163.688 62.9091 160.715 62.6118 157.317 62.4419C157.954 71.645 159.158 80.2958 160.375 89.2299L175.822 87.0779L176.007 62.3003ZM79.7417 78.9933L63.7707 56.6369L52.996 77.365C62.0575 77.719 70.6802 78.9083 79.8833 78.9791H79.7417V78.9933ZM138.401 130.545C134.621 124.711 131.265 119.303 127.626 114.177C122.076 118.666 118.494 124.301 115.181 130.361L138.543 130.531H138.401V130.545Z" fill="#102185"/>
<path d="M207.665 164.483L202.143 164.44C201.152 164.44 200.02 164.143 199.17 163.563C198.321 162.996 197.768 161.991 197.485 161C197.075 159.726 196.933 158.31 196.947 156.894C196.975 152.93 197.004 148.965 196.891 145.142C196.919 140.47 196.678 135.939 196.423 131.267C196.296 129.568 196.452 127.869 197.174 126.17C197.754 124.612 198.901 123.211 200.175 121.951C203.46 118.864 206.589 115.622 209.732 112.393C215.014 107.056 220.153 101.718 225.434 96.2243C225.859 95.7995 226.284 95.3748 226.723 94.9642C229.583 91.8777 232.556 91.4671 236.068 94.3271C237.611 95.6155 239.168 96.7623 240.712 97.895L261.964 114.899C265.348 117.618 268.717 120.336 272.101 123.041C274.494 125.037 274.905 127.175 273.744 130.134C273.446 131.125 273.163 132.116 273.149 133.107V134.806C272.795 142.027 272.597 149.107 272.271 156.328C272.271 157.602 271.974 158.876 271.11 159.853C270.247 160.844 269.114 161.538 267.84 161.665C267.415 161.665 266.99 161.807 266.424 161.793C261.043 162.033 255.663 162.274 250.283 162.373C243.911 162.614 237.399 162.841 231.027 163.081C226.496 163.195 222.107 163.435 217.576 163.69C214.32 163.803 210.922 164.2 207.665 164.469V164.483ZM263.266 132.909C260.01 133.164 257.178 133.433 254.346 133.405C241.745 133.306 229.002 133.207 216.401 133.405C213.003 133.376 209.605 133.773 206.065 134.028L206.037 137.567C206.136 142.523 206.391 147.478 206.49 152.434C206.49 153.142 206.618 153.991 206.759 154.982C211.29 154.728 215.679 154.345 219.927 154.232C224.882 153.991 229.696 153.736 234.652 153.637C242.297 153.411 249.801 153.184 257.306 152.958C259.146 152.958 261.128 152.561 262.969 152.292L263.111 133.037L263.252 132.895L263.266 132.909ZM231.905 103.502L212.352 123.324V123.607C212.352 123.749 212.493 123.89 212.635 124.032H215.184C220.847 123.947 226.369 123.706 232.032 123.607C239.112 123.664 245.908 123.706 252.987 123.763L256.244 123.791V123.225C248.371 116.655 240.202 110.213 231.905 103.502Z" fill="#102185"/>
<path d="M252.321 81.0038C252.35 77.1809 252.378 73.3582 252.123 69.5353C252.123 68.5442 252.137 67.5531 252.435 66.7036C252.732 65.8541 253.298 65.0046 254.006 64.3108C258.565 59.6668 263.28 55.1785 267.981 50.6761C270.685 48.1417 273.545 45.6214 276.533 43.3844C277.821 42.4074 279.095 41.6995 280.653 41.1474C281.502 40.7226 282.493 40.5952 283.484 40.8925C284.476 41.1898 285.184 41.7561 285.736 42.6057C286.854 44.0357 287.831 45.5931 288.822 47.0231C291.895 51.7238 294.84 56.6934 298.195 61.2525C301.834 66.0947 301.933 71.6166 301.466 77.28C301.155 81.386 300.56 85.6337 300.093 89.7255C300.078 91.9909 299.64 94.2562 299.328 96.5216C298.733 99.3533 297.587 102.029 293.339 101.718C287.817 101.251 282.295 100.783 276.787 100.316H275.796C270.983 99.9905 266.31 99.8064 261.496 99.3533C259.797 99.3533 258.098 99.0418 256.399 98.6029C255.408 98.3055 254.558 97.7392 253.865 97.0313C253.157 96.1818 252.888 95.3181 252.76 94.1854C252.505 89.9378 252.265 85.5487 252.151 81.3011H252.435L252.293 81.0179L252.321 81.0038ZM261.751 89.4281C266.848 89.8954 271.365 90.6316 276.179 90.8157C280.851 90.844 285.651 91.8776 290.196 91.7643C290.805 86.5257 291.399 81.7259 291.866 76.6288C286.769 75.7368 281.828 75.5669 277.014 75.0996C272.2 74.6324 266.975 73.613 261.878 73.8537L261.765 89.5697V89.4281H261.751ZM281.007 52.0494C277.595 54.4281 268.604 62.7109 267.457 64.6931C271.28 65.0046 274.961 65.5992 278.628 65.7691C282.309 65.939 286.118 67.2417 290.238 66.2789L281.007 52.0494Z" fill="#102185"/>
<path d="M306.28 117.094C313.005 107.806 324.205 105.484 334.626 114.05C337.047 112.224 339.893 110.978 342.866 110.426C348.119 109.194 352.777 110.072 356.572 114.064C359.106 116.627 360.777 119.898 361.598 123.452C362.702 128.138 362.377 132.938 360.791 137.327C360.352 138.743 359.644 139.861 358.497 140.853C357.35 141.829 356.076 142.396 354.66 142.523C350.696 143.203 346.576 143.458 342.611 143.854C330.562 144.902 318.542 144.236 306.648 144.435C304.666 144.42 302.825 144.689 300.985 145.1C298.295 145.935 296.171 144.491 294.061 143.486C292.362 142.764 291.81 140.782 291.824 139.224C291.569 135.26 291.314 131.295 292.475 127.473C294.061 122.814 296.921 119.147 301.891 117.632C303.448 117.363 305.006 117.094 306.563 117.094H306.28ZM301.041 135.741C303.59 135.472 305.714 135.062 307.838 135.09C319.589 135.175 331.341 135.274 343.093 134.509C345.641 134.382 348.048 134.127 350.455 133.858C350.88 133.858 351.163 133.717 351.588 133.448C351.871 133.164 352.154 132.881 352.168 132.456C352.749 130.616 352.905 128.775 352.636 126.935C352.367 125.094 351.814 123.395 350.838 121.682C350.413 120.974 349.861 120.393 349.153 119.969C348.445 119.544 347.737 119.388 346.887 119.388C344.48 119.374 342.215 120.068 340.219 121.455C338.647 122.432 337.089 123.409 335.673 124.259C335.107 124.542 334.541 124.669 333.975 124.811C333.408 124.811 332.7 124.811 332.134 124.514C330.435 123.933 329.033 122.786 328.056 121.229C327.362 120.238 326.371 119.515 325.38 118.949C324.248 118.369 323.115 118.085 321.982 118.071C320.849 118.057 319.575 118.199 318.584 118.751C317.451 119.162 316.446 119.869 315.738 120.846C314.874 121.838 314.025 122.956 313.303 124.089C311.009 127.331 310.018 127.742 305.926 126.864C303.944 126.425 303.378 126.85 302.231 128.535C300.942 130.644 300.928 132.91 301.183 135.741H301.041Z" fill="#102185"/>
</svg>
