<svg width="385" height="231" viewBox="0 0 385 231" fill="none" xmlns="http://www.w3.org/2000/svg">
<path d="M82.3175 156.405L96.1505 153.955L96.2638 150.982C95.1453 143.152 96.8585 135.139 100.795 128.342C103.244 123.472 106.939 119.366 111.173 116.124C115.548 112.881 120.588 110.814 125.87 109.738C129.593 108.747 133.558 108.747 137.352 109.469L140.467 109.582C139.703 107.147 139.08 104.995 138.315 102.843C136.276 96.6696 134.11 90.4964 132.213 84.1958C132.099 83.3463 131.561 82.61 131.009 82.171C130.471 81.5905 129.622 81.2651 128.928 81.0951C123.038 79.3112 117.473 76.6917 112.206 73.5202C109.021 71.6937 106.416 69.1877 104.702 66.0162C103.895 64.8552 103.527 63.4251 103.442 61.995C103.499 60.5792 103.697 59.1775 104.306 57.9174C106.288 54.0237 109.389 51.0223 113.141 49.0401C113.721 48.6436 114.302 48.3745 114.868 48.2613C115.435 48.148 116.143 48.1622 116.85 48.3321C117.558 48.3605 118.111 48.6577 118.663 49.1108C119.215 49.4081 119.626 50.0028 120.036 50.4418C121.523 52.4806 121.155 54.5901 118.946 56.9122C117.473 58.413 116.001 59.7722 114.231 61.5562C115.463 62.7314 116.695 63.9208 118.082 64.8128C121.82 67.2197 125.997 69.0744 130.188 70.5044C133.699 71.4813 137.055 72.5998 140.411 73.86C142.081 74.4829 143.922 74.6954 145.635 74.3415C147.348 73.9875 149.076 73.1946 150.407 71.9769C152.757 69.9381 155.235 68.055 157.571 66.0162C158.746 64.926 160.332 64.1331 162.031 64.0623C162.88 64.0906 163.73 64.1331 164.565 64.5862C165.259 65.0392 165.939 65.6339 166.335 66.356C166.731 67.0781 166.986 67.9417 166.958 68.7912C166.93 69.6408 166.746 70.4903 166.293 71.3115C165.103 72.9681 163.617 74.4688 162.158 75.828C160.983 76.9182 159.525 77.8528 158.222 78.943C154.852 82.0721 150.378 84.0259 145.819 84.5639C145.111 84.6772 144.389 84.7904 143.681 85.0453C144.304 87.1974 144.941 89.2079 145.578 91.2042C146.216 93.2148 146.98 95.2254 147.745 97.5191C151.299 97.2218 154.711 97.066 158.123 96.6413C161.833 96.0749 165.514 95.9333 169.195 95.9192C174.575 96.1174 179.97 95.9049 185.35 95.82C187.757 95.7633 190.192 95.2961 193.038 94.9705C193.874 91.4591 194.865 87.8063 195.7 84.4507C193.052 83.2189 190.546 82.1286 188.323 80.7694C187.488 80.4579 186.794 79.8633 186.398 79.1413C185.86 78.4192 185.605 77.5554 185.492 76.6917C185.52 75.8422 185.562 74.9928 185.874 74.1574C186.185 73.322 186.78 72.6282 187.516 72.0901C188.975 70.8725 190.716 69.9381 192.444 69.3009C198.475 67.1205 204.762 65.6621 211.161 65.1949C213.724 65.0108 216.145 64.388 218.807 65.4782C223.423 67.2055 225.985 70.561 225.518 75.5024C225.433 77.9094 224.909 80.3023 224.258 82.6809C223.125 86.6028 220.633 88.5 216.839 87.9337C214.574 87.7071 212.322 87.339 209.93 86.9708L206.404 86.4186C204.309 89.4627 204.309 93.0024 203.487 96.2306C202.666 99.4588 201.392 102.814 201.392 106.637C213.597 98.4535 226.141 96.5138 239.224 102.673C252.321 108.69 258.409 119.975 259.867 133.907L267.81 133.638C269.113 129.291 267.853 125.001 267.867 120.753C268.022 116.506 267.782 111.819 267.669 107.289C267.555 102.744 267.569 98.6375 267.598 94.2484C266.21 93.6254 265.233 93.1723 264.115 92.8467C253.637 89.0522 248.399 81.35 246.813 70.8018C246.374 67.248 247.365 63.5951 249.46 60.5652C250.961 58.2149 250.749 56.5016 249.56 54.3354C247.705 50.8665 246.714 47.1428 246.586 43.1784C246.445 39.3414 247.308 35.4194 248.852 31.7806C250.395 28.2976 252.788 25.1261 255.86 22.5492C258.791 19.9723 262.401 18.2592 266.125 17.2681C267.838 16.9141 269.566 16.2629 271.024 15.1868C272.482 14.1108 273.799 12.879 274.705 11.3641C282.478 0.461939 296.651 -3.10617 309.451 2.89707C313.203 4.73769 316.219 7.68277 318.342 11.3074C319.277 12.9073 320.792 13.9549 322.477 14.5779C330.873 17.438 335.021 23.9792 336.692 32.262C338.49 40.8279 336.48 49.1108 333.067 56.9263C331.991 59.1492 331.609 61.8253 332.076 64.2606C333.506 71.2549 331.297 77.4138 326.285 82.61C321.854 87.3957 316.204 90.5954 309.776 91.9122C311.773 106.439 313.925 120.966 315.921 135.648C316.615 135.96 317.309 136.271 318.017 136.441C322.109 137.022 326.2 137.319 330.292 137.899C337.202 138.862 343.97 139.825 350.865 140.802C354.957 141.382 359.048 141.821 363.14 142.26C364.415 142.303 365.675 142.784 366.779 143.535C367.884 144.285 368.549 145.304 369.073 146.593C373.788 156.829 378.361 167.208 382.92 177.572C383.699 179.299 384.208 181.168 384.704 183.023C385.936 188.035 383.217 192.467 378.106 192.552C373.986 192.679 369.696 193.797 365.519 192.084C365.094 192.07 364.811 191.914 364.386 191.9C356.599 191.603 348.698 190.739 340.911 190.598C330.717 190.499 320.367 190.668 310.159 190.711C305.331 190.81 300.375 190.767 295.547 191.008C289.161 191.334 282.762 191.801 276.362 192.41C269.396 193.146 262.274 193.868 255.435 194.888C248.03 195.879 240.753 197.309 233.475 198.597C223.055 200.608 212.634 202.633 202.213 204.785C188.069 207.8 173.924 211.085 159.794 213.959C145.805 216.834 131.816 219.425 117.842 221.874C110.861 223.021 103.895 223.615 96.9151 224.493C90.2322 225.23 83.3936 225.966 76.7107 226.702C71.4437 227.212 66.205 227.438 60.938 227.807C55.9683 228.189 50.9844 228.713 46.0147 229.081C43.1688 229.251 40.323 229.576 37.6328 229.76C32.6631 230.001 27.6934 230.242 22.5963 230.185C19.9062 230.086 17.2585 229.137 15.1913 227.495C13.1383 225.711 11.6658 223.389 11.1986 220.685C7.8713 207.376 3.97768 194.194 0.508811 180.899C-0.0150596 179.611 -0.100024 178.181 0.0981976 176.779C0.28226 175.646 0.891072 174.542 1.76891 173.721C2.64675 172.899 3.66619 172.375 4.79888 172.276C11.5101 170.832 18.3629 169.388 25.0882 167.944C29.8031 166.981 34.5179 166.033 39.5159 164.942L39.6717 160.695C38.7938 150.175 37.916 139.513 37.0381 128.852C36.7833 127.988 36.6842 127.139 36.7125 126.148C37.4488 121.787 35.0984 119.989 31.488 118.021C28.1607 116.194 25.1307 113.674 22.5539 110.885C19.6796 108.081 17.8248 104.612 16.9895 100.761C16.1541 96.9102 16.4373 92.9458 17.7116 89.1655C17.8815 88.4576 18.193 87.7638 18.3629 86.9285C13.6197 81.3642 10.3207 74.5822 8.89071 67.4462C7.5598 61.3014 7.36158 55.3406 10.703 49.5214C12.9967 45.0756 16.8054 41.8192 21.407 40.0069C22.4122 39.7662 23.2759 39.2281 23.8706 38.3928C24.6068 37.7132 25.0599 36.7362 25.244 35.7593C27.8775 26.089 34.1922 19.944 43.806 16.8999C56.4213 13.1196 68.0315 20.6519 72.5481 28.8922C75.6063 34.2442 77.2204 40.4033 76.9797 46.4914L76.8664 49.6063C76.3426 52.2822 77.4045 54.0238 79.1743 56.0627C89.0995 67.0639 92.172 79.6509 87.1032 93.767C84.8519 100.903 81.199 107.43 76.3142 113.193C75.7337 113.731 75.4222 114.439 75.2523 115.132C75.0824 115.826 75.0541 116.69 75.1674 117.398C77.2629 129.659 79.3442 141.92 81.4397 154.04C81.553 154.89 81.8078 155.612 82.2042 156.476H82.3458L82.3175 156.405ZM363.976 160.213C362.928 158.047 362.135 156.461 361.484 154.734C361.229 154.012 360.818 153.431 360.28 152.992C359.742 152.553 359.034 152.242 358.326 152.214C353.116 151.449 348.061 150.274 342.837 149.509C335.786 148.532 328.876 147.853 321.825 147.017C318.3 146.607 314.774 146.041 311.107 145.757C302.64 145.007 294.301 144.129 285.82 143.676C281.006 143.492 276.05 143.591 271.222 143.69C267.824 143.69 264.554 143.86 261.283 144.172C260.717 144.143 259.995 144.412 259.428 144.667C257.573 148.702 256.158 152.624 254.034 156.079C246.204 168.539 234.778 174.627 220.067 173.933C216.669 173.806 213.582 172.984 210.538 174.995C209.958 175.25 209.25 175.377 208.684 175.349C200.273 176.595 191.877 177.685 183.609 178.945C181.046 179.412 178.483 179.596 175.935 179.653C174.802 179.611 173.683 179.285 172.848 178.69C172.027 177.954 171.503 176.935 171.262 175.802C171.022 174.669 171.206 173.678 171.673 172.56C172.14 171.583 173.018 170.761 174.023 170.379C175.467 169.728 176.897 169.36 178.469 169.133C181.895 168.553 185.308 168.255 188.72 167.817C192.132 167.378 195.842 166.811 200.259 166.273C195.587 162.408 191.948 157.452 189.47 151.846C184.954 151.251 173.981 152.964 170.384 154.663C170.356 155.513 170.172 156.362 169.861 157.339C169.691 158.189 169.379 159.024 169.053 159.859C163.843 173.975 154.159 182.966 138.91 185.217C136.064 185.67 133.076 185.713 130.344 187.016C129.197 187.398 127.908 187.639 126.634 187.582C125.643 187.539 124.51 187.497 123.519 187.61C115.251 188.998 107.124 190.399 98.9964 191.787C96.8585 192.127 94.7205 192.622 92.5826 192.962C91.1525 193.189 89.8924 192.863 88.788 191.971C87.6837 191.221 86.8766 190.06 86.6501 188.63C86.551 187.497 86.735 186.223 87.4854 185.118C88.0943 184.014 89.1137 183.334 90.2605 182.952C90.6853 182.825 91.2658 182.57 91.6906 182.584C95.2585 181.862 98.6849 181.295 102.253 180.573L112.518 178.832C107.138 174.811 102.664 169.53 99.492 163.611C84.6396 166.599 70.0845 169.586 55.5152 172.446C40.9601 175.292 26.136 177.713 11.5525 181.14C14.894 194.166 18.2354 206.753 21.7326 219.212C27.9483 219.878 33.9232 219.099 39.7424 218.759C45.1369 218.533 50.4039 217.74 55.7984 217.386C60.9096 217.018 66.0351 216.635 71.1463 216.267C78.1124 215.673 85.2201 214.95 92.1861 214.228C99.4495 213.365 106.699 212.784 113.962 211.652C133.36 208.409 152.771 204.615 172.055 200.381C188.479 196.743 204.776 192.976 221.469 190.201C229.879 188.814 238.318 186.732 246.728 185.345C259.131 183.263 271.647 181.89 284.149 181.083C293.522 180.446 302.895 179.809 312.24 180.021C313.656 180.078 315.072 180.134 316.488 180.035C325.705 179.95 334.922 179.738 344.267 179.95C351.063 180.205 357.845 180.743 364.613 181.281C365.462 181.31 366.298 181.621 367.275 181.947C368.252 182.272 369.384 182.315 370.517 182.216C371.65 182.117 372.655 181.734 373.533 181.196L369.229 171.257C362.022 170.846 355.098 170.294 348.316 169.898C344.777 169.77 341.379 169.643 337.853 169.36C333.761 169.062 331.566 166.995 331.68 163.88C331.793 160.766 334.285 158.741 338.249 158.882C343.488 159.081 348.713 159.562 354.079 159.76L364.117 160.143L363.976 160.284V160.213ZM303.915 80.8686C310.244 81.9588 314.873 79.4385 318.852 75.3325C321.953 72.0477 323.369 68.2815 321.415 63.8074C320.749 62.5048 320.537 60.9473 320.721 59.5315C320.778 58.1156 321.387 56.7281 322.293 55.4821C325.762 49.8045 327.291 43.3483 326.965 36.807C326.611 31.1294 324.813 26.1031 318.81 24.0359C315.029 22.9032 311.999 20.5245 310.003 17.0415C308.545 14.2947 306.081 12.2135 302.994 11.2507C296.127 9.15521 286.584 10.4862 281.7 19.8025C279.406 24.3899 276.334 26.8252 270.953 26.9102C262.444 27.0093 253.821 37.883 258.678 48.2613C259.06 49.4081 259.584 50.4275 260.264 51.4328C263.209 55.9352 263.478 60.1969 259.641 64.3029C258.904 64.9825 258.31 65.9596 257.984 66.9366C257.658 67.9135 257.488 68.9045 257.729 70.0372C259.06 80.0049 267.654 84.8612 275.073 83.5869C276.22 83.3462 277.353 83.2472 278.486 83.1481C283.328 82.6242 288.156 82.1003 292.998 81.7039C296.835 81.2791 300.672 80.996 304.085 80.8402H303.943L303.915 80.8686ZM66.3749 49.1249C66.4457 47.2843 66.5023 45.5854 66.5731 43.7448C66.1908 38.7751 64.6758 34.032 60.8388 30.6339C51.3808 22.1954 39.261 27.9861 36.5567 35.8158C35.9054 37.9113 35.2683 40.021 34.7586 42.1307C34.079 45.2172 32.7056 47.5817 29.2792 48.3038C28.4155 48.5586 27.566 48.6578 26.7023 49.0542C21.5344 50.6966 18.7027 54.4203 18.646 59.9421C18.646 67.4462 21.3504 74.7802 26.5324 80.2171C27.7642 81.3923 28.6987 82.9923 29.0527 84.7055C29.4066 86.4187 29.35 88.1177 28.8544 89.8026C28.3589 91.629 27.8633 93.597 27.2262 95.2677C26.9147 95.9615 26.8864 96.8112 26.9996 97.5333C26.9713 98.2412 27.3678 99.1047 27.7642 99.6852C30.1429 104.315 33.9657 107.996 38.5531 110.29C39.5301 110.757 40.507 110.927 41.4981 110.97C45.7599 110.701 49.8801 110.432 54.1418 110.035C57.6956 109.738 61.2495 109.313 64.8033 109.157C65.3696 109.186 66.0917 108.917 66.5165 108.662C67.097 108.407 67.5359 107.996 67.8332 107.43C70.8065 103.579 73.5108 99.572 75.6629 95.112C78.8486 89.5619 79.7973 83.0773 78.7495 76.9466C78.2964 73.8176 77.2771 70.8017 75.6913 68.0408C74.0914 65.294 71.9109 62.9437 69.4331 61.004C68.3288 60.2536 67.5217 59.0925 66.8563 57.9315C66.3324 56.6431 66.1059 55.3547 66.1625 53.9389C66.0775 52.3814 66.2899 50.6824 66.3466 48.9834V49.1249H66.3749ZM160.445 147.017C160.459 146.593 160.629 146.026 160.502 145.46C159.383 141.17 158.406 137.022 157.146 132.859C156.622 131.57 155.815 130.395 154.725 129.503C152.389 127.436 149.784 125.355 147.15 123.557C143.554 121.15 139.363 119.578 134.974 119.408C128.9 119.04 123.024 120.654 118.082 124.151C113.141 127.507 109.403 132.462 107.633 138.211C105.892 142.968 105.849 148.065 107.081 152.922L160.289 147.131L160.431 146.989L160.445 147.017ZM197.512 140.915C215.154 139.032 232.201 137.687 249.645 137.347C249.588 127.564 246.346 119.649 238.771 113.844C234.509 110.559 229.185 108.803 223.791 108.888C218.255 109.101 212.804 111.026 208.415 114.538C204.04 117.922 200.741 122.608 198.985 128.073C198.645 129.475 198.036 130.735 197.711 131.995C196.889 134.94 196.776 138.055 197.512 141.057V140.915ZM278.641 93.5263C277.891 98.4535 278.67 130.509 279.42 133.085C283.923 133.822 303.037 134.402 305.6 133.793C304.92 129.093 304.396 124.534 303.716 119.833C303.037 115.132 302.386 110.149 301.564 105.448C300.757 100.606 300.786 96.0607 299.256 91.6149L278.641 93.5263ZM65.1289 119.776L46.5244 121.065C47.02 126.757 47.5297 132.009 48.0394 137.418C48.6058 145.092 49.1579 152.766 49.7243 160.44C49.9791 161.303 50.2198 162.153 50.6163 163.031L71.8826 158.727L65.2705 119.932L65.1289 119.791V119.776ZM190.334 106.071C189.201 106.028 188.493 106.142 187.771 106.255C184.628 106.849 181.513 106.864 178.412 106.609C175.439 106.496 172.607 106.396 169.62 106.85C165.075 107.104 160.388 107.359 155.843 107.6C154.428 107.685 152.856 107.911 151.284 108.138C152.049 110.432 152.686 112.442 153.465 114.17C153.989 115.175 154.81 116.067 155.631 116.803C157.273 118.276 159.072 119.337 160.572 120.951C161.11 121.532 161.677 121.844 162.229 122.141C162.923 122.452 163.489 122.467 164.197 122.495C168.586 122.523 172.834 122.821 177.223 122.849C180.055 122.962 183.042 122.495 185.888 122.325C187.375 116.718 188.833 111.664 190.178 106.198L190.32 106.057L190.334 106.071ZM158.76 158.019C142.563 159.109 127.186 161.077 111.258 162.889C117.856 172.064 126.337 176.213 137.012 175.052C147.122 173.876 154.413 168.057 158.76 158.16V158.019ZM246.119 148.547C245.411 148.377 244.717 148.207 243.868 148.178C229.95 149.07 216.032 149.962 202.114 150.854C201.831 150.854 201.533 151.251 201.25 151.392C204.238 158.585 213.243 163.895 221.596 164.206C233.914 164.39 243.726 155.824 246.133 148.547H246.119ZM170.937 143.166L186.752 140.646C186.723 137.814 186.667 135.535 186.61 133.128L168.912 132.887L171.078 143.166H170.937Z" fill="#102185"/>
<path d="M33.5269 202.887C32.3942 202.844 31.2756 202.377 30.1571 201.91C29.3217 201.457 28.6421 200.721 28.1041 199.843C27.7076 198.979 27.4669 197.974 27.651 196.997C27.6935 196.006 28.2881 195.043 29.0244 194.222C29.7606 193.401 30.6385 192.863 31.6296 192.764C35.1975 192.042 38.624 191.475 42.1778 190.895C46.5953 190.215 51.0128 189.663 55.4161 189.125C56.2657 189.012 57.2568 189.054 58.1063 189.224C59.239 189.267 60.3575 189.734 61.1787 190.47C61.9999 191.206 62.5238 192.367 62.7645 193.5C63.0052 194.632 62.6795 195.907 61.9291 197.011C61.1787 198.116 60.1593 198.781 59.0124 199.022C56.7329 199.503 54.4392 199.985 52.1738 200.183C47.0484 200.976 42.0645 201.641 37.0665 202.448C35.9338 202.547 34.787 202.646 33.2295 202.873H33.5127L33.5269 202.887Z" fill="#102185"/>
<path d="M273.048 166.996L269.509 166.868C268.376 166.826 267.258 166.358 266.309 165.466C265.488 164.589 264.964 163.569 264.865 162.437C264.766 161.304 264.95 160.03 265.7 159.067C266.309 158.104 267.314 157.424 268.475 157.042C269.905 156.532 271.477 156.306 273.034 156.221C278.698 156.15 284.375 155.938 289.897 156.008C291.313 156.065 292.715 156.405 293.975 156.872C294.81 157.325 295.49 157.92 295.886 158.642C296.283 159.364 296.538 160.228 296.637 161.219C296.608 162.068 296.424 162.918 295.971 163.739C295.518 164.575 294.782 165.113 294.06 165.509C292.772 166.033 291.327 166.401 290.053 166.486C284.39 166.557 278.712 166.627 273.19 166.698L273.034 166.981L273.048 166.996Z" fill="#102185"/>
</svg>
