<svg width="363" height="317" viewBox="0 0 363 317" fill="none" xmlns="http://www.w3.org/2000/svg">
<path d="M333.483 143.817L345.164 143.987C348.732 144.001 352.314 143.874 355.981 144.185C360.654 144.483 362.65 146.72 362.509 151.42C362.084 161.784 361.489 172.262 361.192 182.64C360.71 193.429 360.371 204.218 360.017 215.021C359.677 225.824 359.082 236.301 358.615 246.948C358.091 258.006 357.737 268.951 357.355 280.037C357.015 287.414 356.788 294.946 356.434 302.323C356.279 304.73 356.265 307.151 356.25 309.572C356.25 314.131 354.58 316.071 350.02 316.071C343.592 316.127 337.207 315.901 330.793 315.816L289.506 315.108C278.548 314.881 267.731 314.683 256.772 314.471L216.32 313.862C205.645 313.678 194.969 313.494 184.294 313.31C170.631 313.041 157.109 312.786 143.432 312.659L38.0913 310.846C29.2563 310.747 20.4354 310.506 11.473 310.393C9.91552 310.336 8.34384 310.294 6.80054 310.096C4.97408 309.869 3.21851 309.076 1.95839 307.788C0.712431 306.344 -0.0664613 304.545 0.0184907 302.691C-0.038144 298.542 0.0469048 294.422 0.117698 290.43C0.301761 276.328 0.627396 262.24 0.811459 248.138C1.038 237.179 1.37774 226.376 1.44853 215.403C1.66091 202.165 1.746 188.898 1.94422 175.801C2.14244 164.984 2.4963 154.181 2.53877 143.492C2.73699 132.674 2.8221 121.701 3.04864 110.743C3.13359 106.623 3.21824 102.488 3.44478 98.3823C3.77042 94.5736 4.67662 93.1153 8.44282 92.5773C13.37 91.9118 18.4106 91.5294 23.4086 91.5861C32.1304 91.3879 40.8237 91.4728 49.5454 91.402C50.395 91.5011 51.2872 91.1897 52.5898 91.0622C51.9668 86.843 51.3577 82.6379 50.8621 78.5744C50.5931 77.2577 50.4942 75.8134 50.3809 74.3834C50.2535 73.0808 50.7067 71.7074 51.5562 70.6738C52.4057 69.6402 53.7649 68.9466 55.0675 68.8333C55.7896 68.7767 56.3558 68.8473 57.0354 69.0739C57.7434 69.1588 58.2672 69.5128 58.7769 70.0084C59.3008 70.3624 59.7965 70.9853 60.0089 71.5942C60.3629 72.203 60.5752 72.8118 60.6318 73.5197C61.1981 77.0169 61.4671 80.6133 62.0051 84.252C62.2883 86.574 62.8688 88.7827 63.3927 91.4162L78.0895 91.3878C78.3161 87.2818 78.5426 83.1618 78.7691 79.0558C79.1089 70.5323 79.4345 62.1646 79.7885 53.6412C80.1991 42.2718 80.7371 31.0722 81.1477 19.717C81.4025 15.3279 81.3883 10.8963 81.7706 6.66286C82.0821 1.84894 83.7103 0.192345 88.4392 0.0790762C94.8814 -0.119144 101.281 0.107504 107.681 0.192456C116.799 0.319883 125.889 0.603062 135.007 0.730489C143.545 0.92871 151.941 1.12682 160.479 1.32504L193.921 2.06131L246.592 3.05235C247.3 3.1373 248.149 3.10898 248.871 3.05235C256.234 3.53374 258.414 5.516 258.782 12.8502C259.193 19.887 259.023 27.0089 259.15 34.0174C259.278 38.7463 259.263 43.447 259.377 48.3175C260.042 48.6856 260.708 49.0536 261.515 49.4359C279.156 55.6232 291.022 68.0829 299.262 84.3794C304.713 95.6213 307.757 107.84 308.21 120.3C308.578 126.487 307.955 132.674 307.771 138.791C307.7 140.49 307.785 142.076 307.686 144.058L321.802 144.1L322.1 141.708C321.491 133.934 320.755 126.133 320.146 118.346C320.018 117.043 320.032 115.769 320.33 114.523C320.599 113.56 321.278 112.64 322.071 112.031C322.864 111.422 323.898 111.111 324.917 110.955C326.078 110.814 327.31 111.252 328.216 111.932C329.122 112.612 329.845 113.702 329.986 114.863C330.581 118.077 330.892 121.39 331.19 124.717C331.657 130.197 331.968 135.662 332.436 141.141C332.591 142.161 332.775 143.038 332.931 144.058L333.526 143.846L333.483 143.817ZM122.689 301.671C124.473 234.545 126.328 167.873 128.098 100.888L13.8657 101.681C12.7755 167.887 11.586 233.653 10.5099 299.732L122.831 301.7H122.689V301.671ZM173.349 302.691C173.901 293.629 174.397 285.134 174.878 276.625C175.699 263.174 176.365 249.695 177.044 236.23C177.596 227.169 178.177 217.966 178.588 208.89C179.281 195.284 180.117 181.691 180.81 168.071C181.292 158.429 181.646 148.773 182.41 139.159C183.472 127.167 182.835 115.104 185.596 103.168C188.725 89.4341 194.148 76.8329 203.606 66.1715C213.899 54.4623 226.614 47.482 242.302 46.4343C244.468 46.2786 246.606 46.2503 249.168 46.2928L248.729 13.1334L92.3045 10.1035C91.0586 37.3446 89.8976 63.8777 88.8499 90.7083C89.4162 90.7791 89.9542 90.9914 90.5205 91.0622C103.093 90.9065 115.666 90.7649 128.225 90.7508C129.953 90.68 131.453 91.1472 133.11 91.6428C137.612 93.3418 138.873 96.924 138.575 101.596C138.165 108.392 138.023 115.231 137.882 122.055C137.556 131.57 137.386 140.971 137.202 150.5C136.933 159.604 136.65 168.694 136.381 177.798C136.041 189.733 135.842 201.698 135.488 213.647C135.149 225.583 134.837 237.25 134.37 249.03C134.087 261.688 133.634 274.473 133.35 287.145C133.181 291.973 133.152 296.815 133.067 302.096L173.207 302.804L173.363 302.677L173.349 302.691ZM205.532 303.257C205.617 300.27 205.772 297.863 205.928 295.456C206.522 283.831 206.947 272.321 207.514 260.838C207.74 255.585 209.822 253.702 214.975 253.631C226.147 253.306 237.289 253.122 248.574 253.093C256.998 252.994 258.485 254.891 258.273 263.429C258.004 273.666 258.004 283.945 257.876 294.196C257.777 297.325 257.947 300.482 257.919 304.192L293.216 304.871C293.797 280.688 294.604 256.959 295.028 232.903L187.635 232.549C186.276 256.067 185.101 279.315 183.741 302.974L205.659 303.413L205.532 303.257ZM188.357 222.086L295.453 222.553C295.821 206.908 296.274 191.843 296.628 176.325L190.891 175.32C190.099 190.909 189.192 206.214 188.385 221.944V222.086H188.357ZM298.313 120.328L194.275 115.967C193.355 132.547 192.506 148.56 191.628 164.857L297.081 165.834C297.563 150.486 297.832 135.676 298.313 120.328ZM305.619 236.089C307.729 236.344 309.428 236.414 311.297 236.372C318.433 236.4 325.696 236.443 332.832 236.485C337.235 236.599 339.543 238.751 339.557 243.168C339.572 247.6 339.614 251.876 339.359 256.265C339.104 260.654 337.122 262.834 332.662 263.132C328.485 263.471 324.181 263.641 320.004 263.981L304.755 264.944C304.359 278.451 304.019 291.534 303.764 305.055L310.914 304.942L311.424 300.864C312.302 293.842 313.165 286.819 313.902 279.768C314.355 276.115 316.252 273.496 319.863 273.085C324.195 272.632 328.5 272.448 332.875 272.844C337.235 273.382 339.458 276.087 339.487 280.518C339.529 285.941 339.288 291.336 339.203 296.603C339.133 299.449 339.09 302.153 338.963 305.423L345.801 305.565C347.798 255.019 349.907 204.77 352.031 154.394L307.842 154.04C307.601 162.86 307.361 171.667 307.092 180.771C308.635 180.969 309.767 181.097 311.056 180.983C317.909 180.983 324.634 180.814 331.487 180.814C337.193 180.814 339.104 182.612 339.557 188.233C340.01 192.565 340.194 196.869 340.492 201.329C340.817 206.795 338.665 209.088 333.073 209.4C329.193 209.626 325.342 209.584 321.477 209.669L306.129 210.334C306.044 219.028 305.718 227.409 305.662 235.961V236.103L305.619 236.089ZM297.025 110.035C296.6 107.699 296.387 105.957 295.878 104.329C294.575 99.883 293.117 95.5646 291.375 91.2179C286.717 80.5141 279.992 71.396 270.265 64.7698C257.112 55.864 242.953 53.811 228.256 60.6921C209.453 69.6262 200.434 85.9086 195.677 105.872L297.025 110.049V110.035ZM238.408 263.684C237.728 277.149 237.091 290.344 236.298 303.654L247.271 303.739C247.399 290.061 247.597 276.95 247.71 263.415L238.564 263.557L238.408 263.684ZM227.973 263.825L217.821 263.995C217.17 277.319 216.575 290.09 215.924 303.427L225.764 303.512C226.543 290.345 227.152 277.432 227.959 263.981V263.84L227.973 263.825ZM306.553 199.814L329.746 199.135C329.533 196.261 329.391 193.953 329.278 191.376L306.851 191.588C306.78 194.434 306.61 196.983 306.525 199.97V199.829L306.553 199.814ZM305.024 254.566L329.023 253.122L328.797 246.962L305.421 246.764C305.35 249.61 305.194 252.017 305.166 254.58H305.024V254.566ZM324.153 283.194L321.434 305.112L328.4 305.268C328.641 297.594 328.967 290.359 329.193 282.826L324.294 283.223H324.153V283.194Z" fill="#102185"/>
<path d="M105.443 217.64L105.189 219.75C105.047 220.868 104.325 222.072 103.518 222.822C102.569 223.558 101.38 223.983 100.233 223.983C98.9729 223.827 97.8684 223.544 96.9623 222.723C96.0561 221.902 95.4899 220.826 95.3483 219.665C95.1218 218.065 95.0508 216.352 95.1216 214.638C95.2773 205.379 95.5607 196.147 95.7165 186.887C95.8014 182.767 97.9816 180.176 101.125 180.134C104.254 180.233 106.222 182.767 106.165 186.604C106.08 196.444 105.84 206.398 105.628 216.21L105.472 217.47V217.612L105.443 217.64Z" fill="#102185"/>
<path d="M42.8342 277.192L42.5936 279.16C42.3104 280.264 41.6165 281.326 40.682 281.921C39.7334 282.657 38.5582 282.94 37.4396 282.798C36.3211 282.657 35.2026 282.374 34.3106 281.552C33.4186 280.731 32.9797 279.669 32.8522 278.381C32.6257 274.501 32.6684 270.65 32.725 266.813C32.8808 259.847 33.1498 253.023 33.4471 246.071L33.7302 243.82C33.886 242.56 34.4525 241.484 35.2737 240.592C36.2364 239.714 37.2981 239.275 38.5866 239.147C39.8467 239.303 41.2201 239.756 42.1121 240.592C42.9899 241.554 43.5564 242.772 43.6838 244.075C43.7546 245.802 43.8113 247.657 43.7263 249.497C43.4715 258.46 43.1883 267.55 43.0042 277.092L42.8483 277.22L42.8342 277.192Z" fill="#102185"/>
<path d="M45.7786 216.791C45.5804 218.334 45.6086 219.339 45.3254 220.444C45.1697 221.704 44.6034 222.78 43.6406 223.658C42.6778 224.535 41.4886 224.96 40.2143 224.804C38.94 224.649 37.7222 224.21 36.8302 223.389C35.9382 222.567 35.3718 221.35 35.386 220.075C35.2019 218.051 35.1877 215.913 35.2868 213.931C35.6124 205.549 35.7825 197.294 36.1081 188.926C36.2355 187.95 36.349 186.959 36.6321 185.854C36.9153 184.75 37.7506 183.716 38.6851 183.107C39.6337 182.371 40.8089 182.088 41.9275 182.229C43.046 182.371 44.136 182.796 44.9006 183.603C45.651 184.41 46.2314 185.486 46.2598 186.477C46.5712 189.649 46.5997 192.933 46.359 196.048C46.1891 203.156 45.7503 210.094 45.4955 216.777L45.7786 216.805V216.791Z" fill="#102185"/>
<path d="M94.1587 247.629L94.7395 242.999C94.8952 241.739 95.4756 240.521 96.4384 239.643C97.4012 238.765 98.6188 238.199 99.8931 238.213C102.456 238.241 104.353 240.195 104.849 243.112C105.004 244.131 105.033 245.137 104.891 246.255C104.197 255.302 103.645 264.364 102.781 273.525C102.64 274.643 102.498 275.776 102.088 276.866C101.946 277.985 101.111 279.032 100.176 279.627C99.2275 280.363 98.0523 280.646 96.9338 280.505C95.8152 280.363 94.8666 279.967 94.1021 279.16C93.3375 278.353 92.7431 277.418 92.5873 276.399C92.4174 275.521 92.3749 274.657 92.5023 273.68C93.1394 265.058 93.6633 256.279 94.3146 247.657H94.1729L94.1587 247.629Z" fill="#102185"/>
<path d="M73.3739 274.856C73.2889 275.564 73.0623 276.243 72.5526 276.894C72.1844 277.56 71.5475 278.055 70.9386 278.409C70.3298 278.763 69.5653 279.089 68.8432 279.146C68.1211 279.202 67.399 279.259 66.7336 278.891C64.2558 278.155 62.8255 275.832 62.9671 272.434C63.0662 269.305 63.1513 266.318 63.4061 263.217C63.661 256.548 64.0574 249.894 64.468 243.225C64.6379 241.823 64.9637 240.436 65.6717 239.233C66.0539 238.425 66.7051 237.788 67.6254 237.335C68.4041 236.854 69.3954 236.84 70.2449 236.953C71.0944 237.066 72.0713 237.18 72.7085 237.831C73.5014 238.355 73.9684 239.133 74.2941 240.025C74.733 241.073 74.8748 242.234 74.8748 243.381C74.3509 253.306 73.8127 263.373 73.2463 274.856H73.3881H73.3739Z" fill="#102185"/>
<path d="M67.7535 190.271C67.8243 188.572 67.8807 187 68.2205 185.33C68.3762 184.069 68.957 182.852 69.9198 181.974C70.8826 181.096 72.0719 180.671 73.502 180.714C76.0647 180.742 77.9619 182.696 78.4433 185.754C78.5 186.476 78.5283 187.34 78.4433 188.034C78.0044 197.251 77.5794 206.468 77.1405 215.7L76.8999 217.668C76.7442 218.928 76.022 220.131 75.0592 221.009C74.0964 221.887 72.7655 222.298 71.477 222.269C70.2169 222.114 69.1266 221.689 68.2488 220.726C67.371 219.763 66.9322 218.701 66.9463 217.427C66.7481 213.264 67.1303 209.031 67.2294 204.769C67.2436 202.348 67.5409 199.955 67.5692 197.393C67.5975 194.83 67.8523 192.862 67.8665 190.441L67.7393 190.285L67.7535 190.271Z" fill="#102185"/>
<path d="M78.4145 159.632L78.1736 161.6C78.032 162.719 77.4659 163.795 76.6589 164.545C75.8518 165.296 74.6342 165.862 73.5015 165.862C72.1989 165.989 70.9669 165.55 70.0607 164.857C69.0271 164.021 68.4466 162.945 68.3051 161.784C67.9369 159.023 67.8661 156.163 67.9369 153.317C67.8944 146.748 67.9937 140.192 68.0787 133.793C68.0928 132.504 68.1069 131.23 68.4043 129.984C68.56 128.724 69.1265 127.648 69.9477 126.756C70.9105 125.878 71.9721 125.439 73.2464 125.453C74.5349 125.467 75.6395 125.751 76.6589 126.728C77.5509 127.549 78.1312 128.625 78.2586 129.927C78.556 132.108 78.5843 134.246 78.5984 136.384C78.6268 144.228 78.4993 152.071 78.5417 159.774L78.4145 159.618V159.632Z" fill="#102185"/>
<path d="M39.2099 131.797L39.4083 130.254C39.5641 128.994 40.1302 127.917 40.9514 127.025C41.9142 126.148 42.9762 125.709 44.2646 125.581C45.5531 125.595 46.7707 126.034 47.7901 127.025C48.6821 127.847 49.2345 129.206 49.3619 130.508C49.5884 134.388 49.5457 138.239 49.4891 142.076C49.4891 147.924 49.3335 153.615 49.3477 159.321C49.2911 159.746 49.4043 160.043 49.3477 160.468C49.192 164.022 47.0396 166.457 44.1654 166.528C41.2912 166.599 39.04 164.178 38.9126 160.595C38.856 156.447 38.941 152.327 39.0118 148.334C39.1109 142.926 39.0966 137.361 39.2099 131.811V131.797Z" fill="#102185"/>
<path d="M106.69 159.434L106.236 163.087C106.095 164.205 105.415 165.126 104.467 165.862C103.518 166.598 102.485 166.895 101.338 166.895C100.219 166.754 99.0865 166.612 98.1945 165.791C97.2742 165.111 96.6795 164.177 96.3963 163.002C96.1556 161.544 96.0566 159.958 96.1132 158.4C96.4247 150.16 96.5803 142.047 97.0192 133.835C97.1749 132.575 97.3307 131.301 98.0527 130.111C98.435 129.304 99.0864 128.667 99.8651 128.2C100.644 127.733 101.522 127.549 102.499 127.676C103.348 127.775 104.325 127.903 105.118 128.427C105.911 128.95 106.52 129.743 106.859 130.494C107.27 131.825 107.525 133.141 107.496 134.571C107.327 142.826 107.029 150.925 106.704 159.292V159.434H106.69Z" fill="#102185"/>
<path d="M146.943 37.5991C148.769 35.5461 150.242 34.0169 151.559 32.6152C152.72 31.3268 153.739 30.0383 154.872 28.8915C156.84 26.8526 159.133 25.5643 162.135 26.6545C164.74 27.5465 165.845 30.1091 165.831 33.6771C165.873 35.6735 166.043 37.6981 166.085 39.6945C168.337 39.9777 170.559 39.2557 172.301 37.8965C176.336 35.263 180.23 32.601 184.138 29.9534C188.046 27.3057 190.722 27.4899 192.69 30.0242C194.658 32.5586 193.836 35.7302 190.084 38.4062C186.332 41.0822 182.269 43.8572 178.248 46.3491C176.549 47.4252 174.722 48.3313 172.768 49.0958C165.731 51.786 161.087 50.0728 156.217 43.3334C155.098 44.3386 153.966 45.3439 152.706 46.3208C150.964 47.68 148.982 48.7136 147.042 49.464C141.86 50.9648 138.788 49.2942 135.687 43.206C134.441 44.0555 133.336 44.9049 132.09 45.7544C129.259 47.8357 125.96 49.1242 122.406 49.11C120.268 49.1242 118.187 48.5862 116.36 47.2128C114.661 46.0093 113.316 44.1262 112.863 42.0732C110.923 35.8434 112.099 29.8543 114.803 24.1909C115.029 23.5113 115.383 22.9733 115.879 22.4636C116.374 21.9539 116.983 21.5999 117.578 21.3875C118.173 21.1752 118.909 20.977 119.617 21.0761C120.325 21.1752 121.019 21.2458 121.571 21.4582C124.275 22.6475 125.224 25.3378 124.105 28.6226C122.987 31.9073 121.486 34.7249 122.845 38.746C124.36 38.0805 125.747 37.2452 127.149 36.2824C130.165 33.8046 132.926 31.157 135.8 28.6509C136.763 27.7731 137.726 26.8952 138.802 26.3147C139.58 25.8333 140.331 25.5077 141.194 25.4652C142.058 25.4227 142.879 25.6776 143.729 25.7767C144.536 26.1589 145.187 26.6687 145.669 27.4475C146.164 28.0846 146.476 28.9765 146.66 29.8543C146.9 32.4595 146.872 35.0222 146.844 37.5849H146.985L146.943 37.5991Z" fill="#102185"/>
<path d="M118.823 61.7823L110.81 60.791C109.55 60.6353 108.332 60.0549 107.454 59.0921C106.576 58.1293 106.01 56.9116 106.024 55.6373C106.01 52.3525 108.544 50.2429 112.339 50.7101C117.252 51.319 122.321 51.9561 127.291 52.1402C134.95 52.5224 142.624 52.7631 150.298 53.0038C156.967 53.2587 163.65 53.5277 170.177 53.7684C171.295 53.91 172.386 54.3348 173.306 55.0144C174.198 55.8356 174.779 56.9116 174.934 57.931C175.076 59.092 174.92 60.3523 174.241 61.2726C173.533 62.3203 172.598 63.0707 171.55 63.368C169.186 64.0759 166.722 64.3307 164.315 64.175C151.813 63.7644 139.184 63.1981 126.71 62.5044C124.02 62.3203 121.372 61.8388 118.696 61.5131L118.795 61.8104L118.823 61.7823Z" fill="#102185"/>
<path d="M277.386 204.898C276.989 208.126 275.149 210.32 272.558 210.434L270.59 210.193C270.023 210.122 269.372 209.612 268.848 209.258C268.324 208.904 267.97 208.296 267.616 207.673C267.262 207.05 267.191 206.483 267.135 205.761C266.752 202.009 266.512 198.116 266.71 194.293C266.866 193.033 267.29 191.942 268.253 191.065C269.216 190.187 270.278 189.748 271.552 189.762C272.841 189.776 273.945 190.059 274.965 191.036C275.984 192.013 276.437 192.933 276.579 194.094C277.131 197.733 277.088 201.429 277.4 204.756V204.898H277.386Z" fill="#102185"/>
<path d="M245.473 204.501C245.02 205.874 244.765 206.695 244.383 207.502C244.114 208.465 243.434 209.386 242.528 209.839C241.622 210.292 240.702 210.759 239.725 210.632C238.578 210.632 237.473 210.348 236.723 209.541C235.803 208.862 235.364 207.8 235.222 206.639C234.84 202.887 234.599 198.993 234.798 195.17C234.953 193.91 235.392 192.678 236.199 191.914C237.162 191.036 238.352 190.611 239.498 190.611C240.645 190.611 241.891 190.909 242.797 191.588C243.703 192.268 244.298 193.344 244.567 194.519C245.147 197.875 245.289 201.315 245.487 204.331V204.472L245.473 204.501Z" fill="#102185"/>
<path d="M208.618 191.079C209.878 191.235 210.954 191.801 211.846 192.622C212.724 193.585 213.149 194.774 213.149 195.921C213.333 199.078 213.347 202.363 213.248 205.492C213.22 206.908 212.922 208.168 211.931 209.188C210.94 210.207 209.737 210.773 208.293 210.872L206.324 210.632C205.616 210.547 205.107 210.051 204.597 209.556C204.087 209.06 203.719 208.593 203.365 207.97C203.153 207.375 202.955 206.639 202.884 206.059C202.615 202.462 202.77 198.909 203.068 195.383C203.153 194.675 203.224 194.123 203.592 193.458C203.946 192.934 204.3 192.41 204.781 191.9C205.248 191.532 205.871 191.178 206.607 190.98C207.202 190.767 207.924 190.711 208.604 190.937V191.079H208.618Z" fill="#102185"/>
<path d="M211.874 138.55C212.157 137.446 212.738 136.228 213.148 135.138C213.531 134.331 214.337 133.581 215.116 133.099C216.022 132.646 216.9 132.462 217.892 132.589C218.741 132.689 219.69 133.099 220.313 133.75C220.95 134.402 221.417 135.166 221.757 135.931C222.054 136.964 222.21 137.984 222.238 138.989C222.28 142.132 222.295 145.417 222.181 148.688C222.153 152.397 220.284 154.733 217.141 154.762C214.423 154.847 212.129 152.567 211.832 149.254C211.534 145.941 211.831 142.401 211.718 138.678L211.874 138.55Z" fill="#102185"/>
<path d="M251.958 147.81L251.76 149.353C251.604 150.613 251.024 151.831 250.075 152.567C249.112 153.445 247.923 153.87 246.634 153.855C245.374 153.7 244.142 153.261 243.25 152.44C242.373 151.477 241.806 150.259 241.806 149.127C241.523 145.672 241.381 142.231 241.381 138.805C241.41 137.389 241.707 136.129 242.698 135.109C243.689 134.09 244.893 133.524 246.337 133.425C249.055 133.34 251.25 135.18 251.561 138.493C251.873 141.807 251.915 144.808 252.071 148.121H251.929L251.958 147.824V147.81Z" fill="#102185"/>
<path d="M280.558 148.362C280.02 152.723 278.052 154.762 275.333 154.846C272.615 154.931 270.59 152.836 270.279 149.65C269.939 146.606 269.911 143.463 269.996 140.49C270.151 139.23 270.59 137.998 271.298 136.936C271.681 136.129 272.473 135.506 273.224 135.18C274.116 134.869 274.994 134.685 275.829 134.939C276.806 135.067 277.896 135.477 278.675 136.143C279.454 136.808 279.893 137.87 280.048 138.876C280.473 142.359 280.445 146.054 280.558 148.503V148.362Z" fill="#102185"/>
<path d="M268.65 90.3826L270.901 90.6657C273.974 91.1895 275.729 93.1151 275.545 95.8053C275.46 96.5132 275.375 97.2071 275.021 97.731C274.795 98.4106 274.299 98.9203 273.832 99.2884C273.337 99.7981 272.727 100.152 272.133 100.364C271.538 100.577 270.816 100.633 270.094 100.676C265.535 100.676 260.834 100.52 256.275 100.534C251.985 100.577 247.568 100.591 243.15 100.478C241.89 100.322 240.616 100.166 239.412 99.5857C238.478 99.0476 237.869 98.2548 237.402 97.3345C236.948 96.4283 236.949 95.2815 237.203 94.3187C237.345 93.2002 238.039 92.1382 238.987 91.402C239.936 90.6657 241.111 90.3826 242.258 90.3826C247.709 90.1985 252.99 90.142 258.413 90.1136C261.698 90.0995 264.827 90.1985 268.508 90.3684H268.65V90.3826Z" fill="#102185"/>
<path d="M259.646 88.1318C254.591 87.5089 251.108 84.5072 250.089 80.0897C249.664 78.9004 249.848 77.4845 250.259 76.4085C250.697 75.1767 251.66 74.2988 252.75 73.5768C253.345 73.3644 253.94 73.152 254.52 73.0812L256.347 73.3078C256.913 73.3786 257.564 73.8882 257.947 74.2138C258.47 74.5678 258.824 75.1768 259.037 75.7714C259.263 76.2245 259.49 76.6776 259.745 77.0032C260.127 77.343 260.524 77.6687 260.934 77.7253L262.336 77.8952C262.761 77.9518 263.214 77.7252 263.667 77.4845C264.12 77.258 264.7 77.1872 265.139 77.1022C266.3 76.9606 267.405 77.2438 268.481 77.796C269.557 78.3623 270.293 79.311 270.732 80.3588C271.171 81.4065 271.157 82.6948 270.732 83.785C270.307 84.8753 269.627 85.7815 268.551 86.362C265.748 88.3017 262.576 88.4716 259.348 88.0751L259.632 88.1035L259.646 88.1318Z" fill="#102185"/>
</svg>
