<svg width="379" height="293" viewBox="0 0 379 293" fill="none" xmlns="http://www.w3.org/2000/svg">
<path d="M32.7232 89.3407C29.042 89.3407 26.9183 86.5091 28.051 83.8189C28.4757 82.6862 29.3252 81.5534 30.3163 80.8455C37.8204 74.6157 45.466 68.5276 53.1117 62.581C53.9612 61.8731 54.8108 61.4482 55.8019 61.0235C56.6514 60.7403 57.5009 60.5987 58.2088 60.8819C59.0583 61.0235 59.7662 61.5899 60.3326 62.1562C60.8989 62.8641 61.3238 63.7136 61.3238 64.5631C61.3238 65.4126 61.1822 66.4038 60.6159 67.1117C60.0495 67.9612 59.3415 68.8107 58.6336 69.3771C51.1295 75.4653 43.6254 81.4119 36.1213 87.5001C34.9886 88.2081 33.9975 88.9159 32.7232 89.3407Z" fill="#102185"/>
<path d="M239.156 188.31C239.156 187.46 239.439 186.611 239.864 185.761C240.288 184.912 240.855 184.346 241.704 183.779L256.429 170.895C258.411 169.196 260.252 167.497 262.234 165.939C263.225 165.09 264.358 164.523 265.632 164.24C266.34 164.099 267.19 164.24 267.898 164.382C268.605 164.523 269.172 165.231 269.597 165.939C270.021 166.506 270.305 167.355 270.305 168.063C270.305 168.771 270.021 169.621 269.738 170.187C269.172 171.178 268.322 172.027 267.473 172.877C260.96 178.682 254.447 184.346 247.792 190.009C246.66 191 245.244 191.85 243.828 192.274C243.262 192.416 242.554 192.416 241.987 192.274C241.421 192.274 240.855 191.85 240.288 191.425C239.863 191 239.439 190.575 239.156 190.009C238.872 189.443 238.872 188.876 238.872 188.168L239.156 188.31Z" fill="#102185"/>
<path d="M327.79 220.591C331.754 220.591 333.595 223.706 332.179 226.538C331.329 227.953 330.338 229.369 329.064 230.36C322.551 235.741 316.038 241.121 309.525 246.501C309.1 246.926 308.534 247.209 307.967 247.492C307.118 247.917 306.127 248.2 305.136 247.917C304.145 247.775 303.295 247.209 302.729 246.501C302.162 245.793 301.738 244.802 301.738 243.811C301.738 242.82 302.021 241.829 302.729 241.121C303.295 240.271 304.145 239.564 304.853 238.997C311.507 233.334 318.162 227.812 324.958 222.29C325.949 221.582 326.798 221.016 327.931 220.591H327.79Z" fill="#102185"/>
<path d="M159.584 168.205C155.903 168.205 153.779 165.515 154.912 162.683C155.337 161.55 156.186 160.418 157.177 159.568C163.265 153.763 169.495 147.958 175.725 142.295C176.716 141.445 177.707 140.737 178.84 140.171C179.548 139.888 180.256 139.746 181.105 139.746C181.813 139.746 182.521 140.171 183.088 140.737C183.795 141.303 184.22 142.011 184.362 142.861C184.503 143.71 184.362 144.56 184.079 145.268C183.512 146.4 182.804 147.533 181.955 148.383C175.583 154.329 169.212 160.276 162.841 166.223C161.85 166.931 160.717 167.638 159.584 168.205Z" fill="#102185"/>
<path d="M278.659 223.139C275.119 223.139 273.137 220.591 274.128 217.759C274.694 216.343 275.544 215.069 276.677 214.078C283.331 208.414 289.986 202.892 296.782 197.229C297.49 196.663 298.339 196.238 299.189 195.955C300.038 195.671 301.029 195.671 301.879 195.955C302.728 196.238 303.436 196.804 304.003 197.512C304.569 198.22 304.711 199.07 304.711 199.919C304.711 200.769 304.427 201.618 303.861 202.184C303.012 203.317 302.021 204.308 300.888 205.158C294.375 210.68 288.003 216.06 281.491 221.44C280.641 222.006 279.791 222.573 278.8 222.998L278.659 223.139Z" fill="#102185"/>
<path d="M63.022 100.384C59.0576 100.384 57.0754 97.2696 58.6329 94.4379C59.3408 93.3052 60.1902 92.3141 61.1813 91.6062C67.5527 86.2259 74.0658 80.9871 80.5788 75.7485C81.4283 75.0405 82.4194 74.4743 83.5521 74.0495C84.4016 73.7663 85.2512 73.7663 86.1007 74.0495C86.9502 74.3327 87.658 74.7574 88.0828 75.4654C88.6491 76.1733 88.9325 77.0227 88.9325 77.8723C88.9325 78.7218 88.6493 79.5714 88.2245 80.2793C87.6582 81.1288 86.9502 81.9783 86.2423 82.5447C79.7293 87.9249 73.2163 93.4468 66.5617 98.6855C65.5706 99.3934 64.4378 99.9597 63.3051 100.384H63.022Z" fill="#102185"/>
<path d="M179.407 175.425C179.831 174.292 180.539 173.301 181.247 172.452C187.194 166.505 193.141 160.7 199.087 154.895C199.512 154.612 199.937 154.187 200.22 153.904C202.485 152.488 204.609 152.488 206.167 154.187C206.875 155.037 207.299 156.028 207.299 157.16C207.299 158.293 206.875 159.284 206.167 160.134C204.184 162.399 201.919 164.523 199.654 166.647C195.831 170.469 191.866 174.151 188.044 177.832C187.194 178.681 186.061 179.531 184.929 179.956C182.097 181.088 179.265 178.965 179.407 175.283V175.425Z" fill="#102185"/>
<path d="M142.027 95.7118C145.992 95.5702 148.115 98.5435 146.7 101.375C146.133 102.508 145.284 103.499 144.293 104.349C138.629 109.304 132.966 114.401 127.302 119.357C126.453 120.065 125.462 120.773 124.471 121.197C123.763 121.622 122.913 121.764 122.064 121.481C121.214 121.339 120.506 120.914 119.94 120.206C119.373 119.64 118.807 118.932 118.666 118.082C118.524 117.233 118.665 116.383 119.09 115.676C119.657 114.543 120.506 113.552 121.356 112.702C127.161 107.605 132.966 102.65 138.771 97.5525C139.762 96.8446 140.895 96.1366 141.886 95.5703L142.027 95.7118Z" fill="#102185"/>
<path d="M135.514 134.224C131.833 134.224 129.709 131.533 130.842 128.843C131.408 127.569 132.258 126.436 133.39 125.587C138.912 120.631 144.576 115.817 150.239 111.004C153.213 108.455 155.903 108.455 157.602 110.579C159.301 112.844 158.876 114.968 155.903 117.516C150.098 122.614 144.293 127.569 138.488 132.525C137.497 133.232 136.505 133.799 135.373 134.224H135.514Z" fill="#102185"/>
<path d="M289.561 191.425C289.136 192.416 288.428 193.407 287.72 194.256C282.057 199.212 276.252 204.167 270.447 208.981C269.88 209.406 269.172 209.831 268.464 209.972C267.756 210.256 266.907 210.256 266.199 210.114C265.491 209.972 264.783 209.548 264.217 208.981C263.65 208.415 263.226 207.565 263.084 206.716C263.084 205.866 263.084 205.017 263.65 204.309C264.5 203.035 265.491 201.76 266.624 200.911C271.296 196.805 276.252 192.699 281.066 188.735C282.057 187.885 283.048 187.177 284.322 186.752C287.154 185.761 289.844 187.743 289.844 191.566L289.561 191.425Z" fill="#102185"/>
<path d="M202.485 184.628C198.521 184.628 196.539 182.08 197.53 179.106C197.954 178.115 198.521 177.266 199.229 176.558C203.051 172.594 206.874 168.629 210.839 164.665C211.688 163.815 212.821 162.966 213.954 162.541C214.662 162.258 215.653 162.116 216.361 162.258C217.21 162.399 217.918 162.966 218.485 163.674C219.051 164.24 219.334 164.948 219.476 165.656C219.476 166.364 219.476 167.213 219.051 167.921C218.484 168.912 217.918 169.903 217.069 170.753C213.387 174.717 209.565 178.54 205.742 182.221C204.751 183.071 203.476 183.92 202.344 184.487L202.485 184.628Z" fill="#102185"/>
<path d="M85.8173 105.057C81.8529 105.057 80.0123 102.083 81.2866 99.2517C81.853 98.2606 82.5609 97.2696 83.4104 96.5617C87.5164 92.8805 91.6223 89.1991 95.8699 85.6595C98.7017 83.2525 101.109 82.9693 102.949 84.9515C104.79 86.9337 104.365 89.624 101.533 92.3141C97.4274 96.1369 93.1798 99.8181 88.7906 103.358C87.7995 104.066 86.8084 104.632 85.8173 105.057Z" fill="#102185"/>
<path d="M304.853 178.54C304.853 181.797 300.18 185.62 297.065 185.054C296.357 185.054 295.791 184.77 295.225 184.346C294.658 183.921 294.233 183.354 293.95 182.788C293.667 182.222 293.526 181.514 293.667 180.806C293.667 180.098 293.95 179.532 294.375 178.965C295.791 177.125 297.632 175.709 299.614 174.718C300.18 174.434 300.888 174.435 301.596 174.435C302.162 174.435 302.87 174.718 303.295 175.143C303.861 175.567 304.286 175.992 304.428 176.7C304.711 177.266 304.852 177.974 304.711 178.54H304.853Z" fill="#102185"/>
<path d="M115.552 76.1734C115.552 77.7308 114.702 79.1466 113.569 80.1377C112.437 81.2704 111.021 81.8368 109.463 81.8368C108.897 81.8368 108.331 81.8367 107.764 81.5535C107.198 81.2703 106.773 80.9873 106.348 80.5625C105.924 80.1377 105.641 79.713 105.499 79.1466C105.357 78.5803 105.216 78.014 105.216 77.4477C105.499 76.0318 106.207 74.6158 107.198 73.6247C108.331 72.6336 109.605 71.9258 111.162 71.9258C111.729 71.9258 112.295 71.9257 112.861 72.2089C113.428 72.4921 113.852 72.7753 114.277 73.2001C114.702 73.6248 114.985 74.0496 115.268 74.616C115.552 75.1823 115.552 75.7486 115.552 76.3149V76.1734Z" fill="#102185"/>
<path d="M225.139 161.691C224.006 161.691 222.873 161.408 222.165 160.7C221.316 159.992 220.75 159.001 220.75 157.868C220.75 156.453 221.316 154.895 222.448 153.904C223.44 152.771 224.856 152.205 226.413 152.064C227.546 152.064 228.537 152.347 229.386 153.055C230.236 153.762 230.661 154.754 230.802 155.886C230.802 157.444 230.236 158.86 229.103 159.851C228.112 160.983 226.696 161.55 225.139 161.691Z" fill="#102185"/>
<path d="M66.4208 62.5813C65.8544 62.5813 65.2881 62.5811 64.8633 62.4395C64.297 62.2979 63.8722 62.0148 63.4475 61.59C63.0227 61.1653 62.7394 60.7405 62.4563 60.3157C62.1731 59.7494 62.1732 59.3247 62.1732 58.7583C62.1732 58.0504 62.1731 57.484 62.4563 56.7761C62.7394 56.2097 63.0227 55.6435 63.589 55.0771C64.0138 54.6524 64.5801 54.2275 65.288 53.9444C65.8544 53.6612 66.5623 53.5197 67.2703 53.5197C67.9782 53.5197 68.4029 53.5196 68.9692 53.8028C69.5356 54.086 69.9603 54.3693 70.3851 54.794C70.8098 55.2188 71.0931 55.6435 71.3763 56.2099C71.6595 56.7762 71.6594 57.3425 71.6594 57.9088C71.6594 59.1831 70.9515 60.4574 70.102 61.3069C69.1109 62.1565 67.9782 62.7228 66.5623 62.7228L66.4208 62.5813Z" fill="#102185"/>
<path d="M97.1455 70.6516C97.1455 71.218 97.1455 71.9258 96.8624 72.3506C96.5792 72.9169 96.2959 73.4834 95.8711 73.9082C95.4464 74.3329 94.8801 74.616 94.3137 74.8992C93.7474 75.1824 93.1811 75.1823 92.4732 75.1823C91.3405 75.1823 90.3494 74.616 89.6415 73.7665C88.9335 72.9169 88.5087 71.9259 88.5087 70.7932C88.5087 70.2268 88.5086 69.6606 88.7918 69.0942C89.075 68.5279 89.3583 67.9616 89.783 67.5368C90.2078 67.1121 90.7741 66.8288 91.3404 66.5456C91.9068 66.2624 92.4731 66.2625 93.0394 66.2625C94.1721 66.2625 95.1632 66.8289 95.8711 67.5368C96.5791 68.3863 97.0039 69.3774 97.0039 70.5101L97.1455 70.6516Z" fill="#102185"/>
<path d="M192.857 136.772C192.857 137.338 192.857 138.046 192.433 138.471C192.149 139.037 191.866 139.462 191.441 139.887C191.017 140.312 190.45 140.595 189.884 140.878C189.318 141.161 188.751 141.161 188.185 141.161C187.619 141.161 187.052 141.161 186.628 140.878C186.061 140.736 185.636 140.312 185.212 140.028C184.787 139.604 184.504 139.179 184.362 138.613C184.22 138.046 184.079 137.622 184.079 137.055C184.079 135.923 184.504 134.79 185.212 133.94C186.061 133.091 187.052 132.524 188.327 132.524C188.893 132.524 189.459 132.524 190.026 132.666C190.592 132.808 191.017 133.091 191.441 133.516C191.866 133.94 192.149 134.365 192.433 134.931C192.716 135.498 192.716 136.064 192.716 136.63L192.857 136.772Z" fill="#102185"/>
<path d="M164.54 109.588C163.973 109.588 163.407 109.588 162.982 109.446C162.416 109.305 161.991 109.022 161.566 108.597C161.142 108.172 160.858 107.747 160.575 107.323C160.292 106.756 160.292 106.332 160.292 105.765C160.292 105.199 160.292 104.632 160.434 103.924C160.575 103.358 160.858 102.792 161.283 102.367C161.708 101.942 162.133 101.517 162.699 101.376C163.265 101.093 163.832 101.093 164.398 101.093C165.531 101.093 166.522 101.518 167.23 102.367C168.079 103.075 168.504 104.208 168.504 105.34C168.504 106.473 168.079 107.606 167.371 108.455C166.522 109.305 165.531 109.729 164.398 109.871L164.54 109.588Z" fill="#102185"/>
<path d="M277.668 162.965C277.101 162.965 276.535 162.965 276.11 162.682C275.544 162.54 275.119 162.115 274.836 161.832C274.411 161.407 274.128 160.983 273.986 160.416C273.845 159.85 273.703 159.284 273.703 158.859C273.703 157.726 274.27 156.594 274.978 155.744C275.827 154.894 276.96 154.47 278.093 154.328C278.659 154.328 279.225 154.328 279.791 154.611C280.358 154.895 280.783 155.178 281.207 155.602C281.632 156.027 281.915 156.452 282.057 157.018C282.198 157.585 282.34 158.151 282.34 158.717C282.34 159.85 281.774 160.983 280.924 161.691C280.075 162.54 278.942 162.965 277.809 162.823L277.668 162.965Z" fill="#102185"/>
<path d="M311.224 197.371C310.091 197.371 309.1 196.805 308.392 196.097C307.684 195.247 307.26 194.256 307.26 193.124C307.26 192.132 307.826 191.141 308.534 190.433C309.242 189.725 310.233 189.301 311.224 189.159C312.357 189.159 313.348 189.584 314.056 190.292C314.764 191 315.188 192.132 315.188 193.124C315.188 194.115 314.764 195.247 314.056 195.955C313.348 196.663 312.215 197.088 311.224 197.088V197.371Z" fill="#102185"/>
<path d="M151.514 95.7119C150.523 95.7119 149.532 95.1457 148.824 94.4378C148.116 93.7299 147.691 92.7387 147.691 91.7476C147.691 90.6149 148.257 89.6238 148.965 88.9159C149.673 88.208 150.806 87.7831 151.939 87.7831C153.072 87.7831 152.93 87.7833 153.496 88.0664C154.063 88.3496 154.346 88.4911 154.771 88.9159C155.054 89.3407 155.337 89.7655 155.62 90.1902C155.762 90.615 155.903 91.1813 155.903 91.7476C155.903 92.314 155.903 92.8803 155.62 93.305C155.337 93.8714 155.054 94.2962 154.629 94.5793C154.204 95.0041 153.779 95.2872 153.213 95.4288C152.647 95.5704 152.222 95.7119 151.656 95.7119H151.514Z" fill="#102185"/>
<path d="M336.708 222.289C336.283 222.289 335.717 222.289 335.292 222.006C334.868 221.723 334.443 221.581 334.16 221.157C333.877 220.874 333.594 220.449 333.452 220.024C333.31 219.599 333.169 219.033 333.31 218.608C333.31 218.183 333.31 217.617 333.593 217.192C333.735 216.768 334.018 216.343 334.443 216.06C334.726 215.776 335.151 215.493 335.717 215.352C336.142 215.21 336.708 215.068 337.133 215.21C338.124 215.21 338.974 215.635 339.682 216.343C340.39 217.051 340.814 217.9 340.814 218.891C340.814 219.882 340.248 220.732 339.54 221.44C338.832 222.006 337.841 222.431 336.992 222.289H336.708Z" fill="#102185"/>
<path d="M295.366 261.934C293.1 260.943 291.543 260.094 289.844 259.386C280.358 255.563 272.146 249.05 266.199 240.838C260.819 233.334 255.438 225.688 249.35 218.75C240.005 207.99 228.537 200.344 213.954 198.787C206.025 197.937 198.096 197.654 190.167 196.804C183.513 196.097 177 195.105 170.345 193.831C161.708 192.274 154.77 187.318 148.257 181.796C142.877 177.266 138.771 171.744 134.665 166.08C128.86 158.01 123.197 149.94 117.25 142.152C109.604 131.958 98.7021 124.737 86.2425 121.905C73.6413 118.932 61.0401 115.676 48.1557 113.694C38.5278 111.995 29.183 108.738 20.6879 103.783C16.1571 101.234 12.9007 97.5527 9.78576 93.5883C0.58263 82.1198 -1.82434 69.3772 1.29056 55.077C2.56484 49.9799 4.26385 45.0244 6.38765 40.2104C7.37875 38.653 8.65296 37.3788 10.2104 36.5292C20.971 29.7331 31.8732 23.0785 42.6338 16.4239C50.1379 11.7516 57.7835 7.07937 65.2876 2.54862C66.5619 1.6991 67.9778 0.991171 69.3937 0.424827C69.96 0.141655 70.668 0 71.3759 0C72.0839 0 72.7918 0.141621 73.3582 0.566378C73.9245 0.84955 74.4908 1.41589 74.9156 1.98224C75.3403 2.54858 75.4819 3.25658 75.6235 3.82292C75.9067 4.95561 75.9067 6.08816 75.6235 7.22085C75.4819 8.35354 74.9156 9.48633 74.3492 10.3358C67.4115 19.9637 69.1105 27.7509 75.7651 35.9629C81.8533 43.1838 89.6405 48.7056 98.4189 52.1037C107.622 55.7849 117.25 57.0592 126.736 59.0414C134.24 60.4573 141.461 62.4394 148.682 64.988C157.036 68.1029 163.69 73.7663 169.92 80.1376C175.725 86.2258 180.822 93.1636 184.928 100.526C188.893 107.322 192.857 114.118 197.388 120.49C203.759 129.693 213.104 134.224 224.006 135.639C235.05 137.055 246.094 136.489 257.137 135.781C269.597 135.073 281.915 137.48 292.959 143.002C305.56 149.09 315.754 159.284 321.842 171.885C323.541 175.567 325.524 179.248 327.648 182.787C330.479 187.035 333.453 191.141 336.851 195.106C339.966 198.645 344.072 201.335 348.603 202.893C352.85 204.309 357.098 206.008 361.062 207.99C365.31 209.972 368.991 212.945 371.823 216.627C374.796 220.308 376.778 224.555 377.911 229.086C378.902 233.192 378.053 234.183 374.796 236.732C369.982 240.413 365.593 244.519 361.062 248.483C345.629 261.934 330.338 275.385 314.905 288.977C312.923 290.818 310.374 291.809 307.684 292.092C296.215 293.083 289.136 286.995 286.021 277.084C285.455 275.526 285.313 273.827 285.738 272.128C286.163 270.429 287.012 269.013 288.428 267.881C290.552 265.899 292.676 264.199 295.224 261.934H295.366ZM61.4649 15.9993C60.3322 16.5656 59.3411 16.9904 58.4916 17.5567C55.5183 19.3973 52.5449 21.238 49.5716 23.0786C38.5278 29.8747 27.484 36.6709 16.4403 43.467C15.5907 43.8918 14.7413 44.5996 14.0334 45.3075C13.467 46.157 12.9007 47.0066 12.6175 47.9977C11.768 51.6789 10.2104 55.3602 9.50248 59.0414C7.52027 69.3772 9.07772 79.0051 15.8739 87.3586C18.7056 91.0399 21.6791 94.5795 25.9267 96.7033C33.2892 100.668 41.218 103.499 49.43 105.057C62.456 107.039 75.3404 110.295 88.2248 113.41C102.242 116.667 114.843 124.737 123.48 136.206C129.709 144.135 135.515 152.205 141.178 160.559C146.417 168.063 152.222 174.717 159.726 179.814C163.549 182.504 167.796 184.345 172.327 185.478C179.406 187.035 186.486 188.168 193.707 188.451C201.069 188.876 208.573 189.584 215.936 190.433C232.36 192.415 245.244 201.052 255.863 213.228C261.668 219.883 266.765 227.245 271.862 234.466C277.384 242.395 285.172 248.483 294.233 251.881C295.649 252.448 297.065 253.156 298.481 253.722C303.295 255.563 307.401 259.102 309.949 263.633C311.79 266.89 313.064 270.429 314.48 273.827L315.613 276.517L368.991 229.794C366.159 223.847 362.761 218.892 356.815 216.06C353.841 214.644 350.585 213.512 347.47 212.237C342.939 210.538 338.266 208.839 334.585 205.583C328.214 200.203 323.117 193.831 319.152 186.469C317.312 182.929 315.33 179.39 313.631 175.85C305.135 159.001 290.977 149.656 272.995 145.834C265.066 144.135 257.137 144.701 249.209 145.267C240.855 145.833 232.501 145.692 224.148 144.842C209.281 143.427 197.105 136.914 188.751 124.313C184.645 118.083 180.681 111.853 176.999 105.34C171.902 95.7121 164.965 87.3586 156.611 80.5624C152.93 77.4476 148.824 75.0406 144.435 73.3416C137.922 71.2178 131.125 69.3771 124.329 67.9613C117.816 66.4038 111.162 65.4127 104.79 63.8552C93.0386 61.0235 82.2781 55.3602 73.4997 47.1482C69.1105 43.1838 65.5708 38.3699 63.1638 32.848C61.1816 28.6005 60.4737 23.9281 61.1816 19.3974V16.1408L61.4649 15.9993ZM302.304 268.022C299.897 270.004 297.631 271.704 295.649 273.544C295.366 273.827 295.224 274.11 295.083 274.535C295.083 274.818 294.941 275.243 295.083 275.668C295.507 278.5 299.472 282.606 302.304 283.172C302.87 283.313 303.578 283.455 304.144 283.172C304.711 283.03 305.277 282.747 305.843 282.322C306.268 281.898 306.693 281.331 306.834 280.765C306.976 280.199 307.117 279.491 306.834 278.924C306.41 274.96 304.852 271.279 302.445 268.022H302.304Z" fill="#102185"/>
</svg>
