<svg width="342" height="329" viewBox="0 0 342 329" fill="none" xmlns="http://www.w3.org/2000/svg">
<path d="M172.949 84.9205C179.533 85.8833 180.255 86.9736 179.83 95.3271C186.116 95.4971 192.346 95.5254 198.491 95.7519C211.815 96.0917 225.194 96.5731 238.602 96.7288C247.168 96.9271 255.635 96.8563 264.159 96.9271L312.978 97.2952L329.699 97.3942C330.591 97.3518 331.54 97.4509 332.432 97.3942C336.849 97.819 338.577 99.5889 338.803 104.502C338.959 110.052 338.718 115.758 338.704 121.223C338.605 132.026 338.506 142.829 338.28 153.689C337.94 168.994 337.586 184.286 337.373 199.534C336.977 220.617 336.75 241.784 336.354 262.866C336.014 279.375 335.674 295.884 335.391 312.52C335.419 314.177 335.08 315.677 334.428 317.136C333.777 318.594 332.757 319.897 331.639 320.93C330.393 322.021 328.85 322.757 327.193 322.785C316.9 323.252 306.649 323.394 296.313 323.72C285.34 323.989 274.41 323.932 263.564 324.159C241.307 324.668 219.163 325.433 196.962 326.07C178.527 326.622 160.164 327.004 141.672 327.429C122.87 327.826 104.11 328.349 85.2079 328.477C67.2972 328.831 49.3297 327.84 31.5748 325.858C26.6617 325.32 22.0035 324.229 17.402 322.502C13.2959 320.888 9.64317 318.495 6.5849 315.281C5.39557 313.766 4.47513 312.152 3.62562 310.354C3.08759 309.349 2.54971 308.343 2.01168 307.338C1.81346 306.814 1.34624 306.375 1.31792 305.936C1.10554 302.227 -0.211434 298.786 0.0292635 295.063C0.992052 279.375 1.81338 263.744 2.63458 248.113C3.10181 238.683 3.71047 229.197 4.23434 219.895C4.81485 207.987 5.46619 196.221 6.04669 184.314C6.57056 175.012 7.09458 165.71 7.61845 156.407C8.28391 144.316 8.94942 132.239 9.44497 120.062C9.86973 112.473 10.2377 104.743 10.6624 97.1536C10.7615 96.205 10.7615 95.4404 10.6624 94.421C10.4642 93.1325 10.5918 91.8725 10.8467 90.5557C11.1582 89.3805 11.7669 88.2337 12.574 87.1576C17.1614 80.5455 23.1078 75.0803 30.0455 71.0451C36.3036 67.5762 43.2982 65.6507 50.4484 65.3392C53.45 65.2543 56.31 65.2118 59.2267 65.3109C60.1186 65.2684 60.9397 65.41 61.591 65.9197C62.3698 66.3728 62.8936 66.9391 63.3325 67.6754C63.5874 68.3408 64.1537 69.0346 64.7484 69.4027C65.4988 70.1815 66.1643 71.1301 66.5324 72.0504C66.943 73.1123 67.0279 74.1317 66.858 75.2643C66.5041 81.4658 66.2919 87.6107 65.9945 93.9537C66.0087 94.4068 66.0794 94.9873 66.2351 95.3838C72.6207 95.8085 79.0063 95.4829 85.4343 95.5962C91.8624 95.7094 98.2053 95.6952 104.449 95.7377L123.903 95.851C127.4 89.961 130.77 84.1135 134.14 78.266C139.534 68.6099 145.156 59.166 151.258 50.1612C152.008 48.9577 152.447 47.7259 152.518 46.3383C152.574 43.7331 153.042 40.9864 153.92 38.5228C155.831 33.2417 158.068 27.9888 160.348 22.8634C161.41 20.4848 162.783 18.1344 163.972 15.7133C164.468 14.6089 165.402 13.5046 166.592 13.0373C167.781 12.5701 169.069 12.386 170.386 12.6409C172.51 13.0373 174.606 13.7453 176.786 14.2833C178.57 12.2303 179.221 9.55432 180.099 7.10488C180.779 5.3209 181.642 3.63597 182.69 2.00773C183.412 1.1299 184.233 0.506906 185.338 0.223734C186.4 -0.186865 187.518 -0.00275862 188.495 0.535268C189.472 1.0733 190.35 1.7954 190.831 2.67323C191.369 3.67849 191.596 4.6554 191.553 5.73145C191.454 6.68008 191.313 7.48717 190.86 8.2659C189.571 11.6356 188.297 15.0195 186.923 18.5733C188.311 19.4087 189.685 20.2441 190.987 21.2635C192.191 22.0139 193.04 23.0475 193.55 24.3784C194.06 25.7093 194.116 27.0402 193.734 28.3994C192.913 30.9904 192.035 33.4541 190.845 35.8752C190.109 37.5176 189.203 39.0891 188.594 40.6749C186.938 44.6535 185.409 48.5754 183.823 52.3557C182.761 54.7344 181.657 56.9857 179.292 58.3449C178.811 58.6847 178.443 59.2793 178.244 59.9589C176.29 68.2983 174.336 76.6236 172.368 84.963L172.949 84.8923V84.9205ZM324.843 312.336C326.004 244.247 327.349 176.244 328.524 108.155C327.08 107.957 325.82 107.829 324.475 107.886C316.9 107.914 309.24 108.127 301.566 107.886C276.307 107.263 250.977 108.042 225.647 106.852C212.975 106.258 200.516 106.187 187.872 106.031C184.828 105.989 181.657 105.238 178.91 107.192C178.641 107.291 178.329 107.263 177.876 107.277C177.395 109.585 176.913 111.893 176.389 114.073C175.568 117.868 174.804 121.804 173.855 125.655C173.628 126.646 173.218 127.566 172.453 128.317C171.675 129.067 170.811 129.563 169.834 129.775C168.914 130.129 167.781 129.959 166.861 129.548C165.94 129.138 165.119 128.557 164.496 127.722C164.213 127.382 163.873 126.901 163.547 126.419L160.999 128.458C160.843 130.03 160.376 131.573 159.909 133.116C159.201 134.447 158.082 135.481 156.681 136.175C155.491 136.628 154.047 136.43 152.957 135.934C151.725 135.495 150.748 134.504 150.153 133.371C149.615 132.366 149.347 131.262 149.601 129.945C149.771 128.812 150.267 127.722 151.173 126.915C153.41 124.848 153.608 122.186 154.302 119.652C154.996 117.117 155.392 114.993 155.817 112.544C156.27 110.548 156.638 108.75 157.077 106.753L130.501 106.64C129.638 108.339 129.029 109.939 128.208 111.312C126.749 113.847 125.192 116.112 124.71 119.184C124.187 122.568 120.222 124.097 117.263 123.106C113.992 122.087 112.463 116.154 115.351 113.379C116.045 112.813 116.498 112.034 116.824 111.298C117.291 109.755 117.631 108.254 118.254 106.342C100.853 106.045 83.5512 106.017 65.9378 105.946C65.7396 108.594 65.7115 110.887 65.4141 113.28C64.2956 129.336 63.3045 145.335 62.1859 161.377C61.2656 174.006 60.6285 186.551 59.3967 199.152C57.6127 217.431 56.3381 235.823 55.1771 254.158C54.7807 261.436 54.3986 268.713 53.9597 275.864C53.634 280.536 53.4926 285.293 53.0253 290.022C52.3457 295.742 48.4095 298.163 42.9726 296.606C42.6611 296.578 42.477 296.493 42.2363 296.28C40.0134 295.615 37.8613 294.779 35.5534 294.298C30.5696 293.179 26.0105 294.326 21.3523 296.408C18.6763 297.738 16.0287 299.508 13.9757 301.675C13.5509 302.142 13.1262 302.609 12.9279 303.289C12.8713 303.926 12.8003 304.549 13.0552 305.214C13.9047 308.23 16.1703 309.788 18.6481 311.104C23.6603 313.879 29.2529 314.616 34.9164 315.168C55.8712 317.589 76.84 317.731 97.8373 317.108C113.015 316.739 128.024 316.739 143.202 316.371C159.328 316.102 175.526 315.635 191.596 315.239C208.43 314.842 225.35 314.262 242.312 313.823C260.35 313.412 278.445 313.143 296.497 312.747C305.785 312.817 315.215 312.534 324.616 312.11L324.843 312.322V312.336ZM56.3241 75.8449C50.8022 75.6891 45.3228 76.4254 40.0133 78.0111C33.9675 80.0358 29.1253 84.0144 24.7927 88.5593C22.3858 90.9946 20.7293 93.7555 21.3806 97.4509C21.4514 98.0314 21.3804 98.6544 21.1964 99.3481C20.5451 110.675 19.9364 122.129 19.271 133.456C18.5064 148.464 17.7419 163.458 16.8499 178.523C16.3827 187.953 15.7737 197.439 15.2498 206.741C14.5419 221.112 13.8483 235.483 13.013 249.911C12.4325 261.818 11.6252 273.952 11.0306 285.859C11.0306 287.063 11.0448 288.281 11.0731 289.937C21.0974 283.665 31.334 281.853 42.4202 285.491C42.7883 281.711 43.0007 278.299 43.199 274.872C43.9777 261.082 44.6151 247.334 45.5637 233.628C46.6256 219.413 47.829 205.155 49.0325 190.898C49.6555 183.833 50.2359 176.64 50.6748 169.49C51.5809 155.643 52.487 141.796 53.3931 127.963C53.7612 122.214 54.4552 116.48 54.6818 110.788C55.3756 99.1499 55.8001 87.6107 56.2532 75.7599L56.3099 75.8873L56.3241 75.8449ZM159.64 96.0917C162.712 82.7826 165.558 70.0116 168.517 57.198L165.091 55.7822L161.48 54.2814C152.164 67.5621 144.688 81.6499 136.363 95.9218L159.442 96.0067L159.626 96.0917H159.64ZM172.043 23.6987C167.668 32.0523 164.199 40.8165 164.128 44.1721L174.747 48.1365L182.619 28.7392L171.915 23.7554L172.043 23.6987Z" fill="#102185"/>
<path d="M336.114 75.3779C334.641 75.4912 333.395 75.8169 332.008 75.7461C323.725 75.8876 315.513 75.8594 307.187 75.8735C296.752 75.9443 286.389 75.8169 275.996 76.0151C261.611 76.0717 247.282 76.2699 232.897 76.3265C223.977 76.4115 215.142 76.3266 206.18 76.2699C205.727 76.2841 205.146 76.3548 204.651 76.2416C203.121 76.2133 201.72 75.7036 200.601 74.7691C199.483 73.8346 198.789 72.4329 198.676 70.9604C198.293 68.3836 198.307 65.6368 198.633 62.9467C199.355 58.1186 199.822 53.3896 200.36 48.4766C200.842 44.2007 201.451 39.8682 201.932 35.5923C202.031 34.6436 202.173 33.8366 202.442 32.9729C202.697 31.6561 203.532 30.2828 204.622 29.5607C205.797 28.6545 207.171 28.2865 208.558 28.3572C214.746 28.2581 220.919 28.159 227.276 28.1448C239.693 28.0882 252.238 27.975 264.641 27.9042L313.021 27.536L334.301 27.2528C334.939 27.3095 335.505 27.2528 336.199 27.4369C337.77 27.5926 339.243 28.244 340.135 29.405C341.168 30.5235 341.593 32.0242 341.706 33.4967C341.678 36.9939 341.395 40.5902 341.239 44.144C340.913 52.0021 340.46 59.9168 340.007 67.8173C339.852 69.3889 339.512 70.8897 339.002 72.3055C338.804 72.9851 338.351 73.7638 337.926 74.2311C337.36 74.7549 336.751 75.1373 335.958 75.4346L336.085 75.3779H336.114ZM315.966 37.9143C315.74 38.9054 315.47 39.769 315.513 40.6752C315.173 44.144 314.975 47.5562 314.451 50.9402C314.295 52.5118 313.771 53.9277 313.262 55.3435C312.851 56.2639 312.086 57.0142 311.209 57.4956C310.288 57.8496 309.354 58.2036 308.179 57.9063C307.046 57.7364 305.956 57.2407 305.149 56.3346C304.342 55.4284 303.945 54.3665 303.931 53.1631C303.846 51.3791 303.903 49.5385 304.002 47.8253C304.257 44.5405 304.653 41.2132 305.036 37.8718L299.089 38.1833C298.933 39.7549 298.806 41.015 298.636 42.1477C298.466 44.4839 298.126 46.7351 297.588 48.9155C297.277 50.0906 296.526 51.2941 295.436 52.0162C294.346 52.7383 293.057 52.9366 291.854 52.9366C290.679 52.6251 289.532 52.0162 288.725 51.1101C287.918 50.2039 287.464 49.0146 287.45 47.8112C287.45 47.0466 287.465 46.282 287.62 45.475L288.272 38.0983L281.773 38.1692C281.532 42.6574 281.178 46.8908 280.966 51.0676C280.895 52.4552 280.64 53.7719 280.258 55.1311C279.692 57.623 277.568 57.9912 275.472 58.4867C273.787 58.8265 271.833 57.3116 270.998 55.4993C270.333 53.7861 269.993 52.0871 270.177 50.204C270.488 46.2962 270.757 42.2468 271.026 38.1974L265.604 38.3107C265.462 39.1177 265.405 39.7549 265.335 40.3779C265.094 42.8981 265.165 45.4466 264.782 48.0235C264.782 48.7881 264.443 49.5243 264.117 50.2464C263.735 50.8411 263.225 51.4924 262.489 51.9313C261.88 52.3136 261.03 52.4835 260.379 52.7383C259.671 52.8658 258.85 52.71 258.128 52.3844C256.953 52.0729 255.933 51.4074 255.211 50.3172C254.546 49.3544 254.347 48.066 254.475 46.8059C254.531 44.2007 254.871 41.4964 255.013 38.7213C252.974 38.1408 251.289 37.7161 249.463 38.8771L249.038 43.2946C248.656 46.6218 248.528 49.8641 248.005 53.248C247.537 56.7593 245.512 58.6 242.497 58.246C241.859 58.1894 241.18 57.9911 240.458 57.6655C239.863 57.2832 239.254 56.9151 238.872 56.3063C238.348 55.74 238.093 55.0887 237.853 54.4232C237.612 53.7577 237.612 52.9932 237.669 52.3702C237.768 48.689 238.193 45.036 238.433 41.3123C238.433 40.5478 238.405 39.6558 238.433 38.5797L212.268 38.7638C211.107 48.0094 210.073 56.7452 209.054 65.9342L329.884 65.0563C329.926 56.0939 331.002 47.0324 330.946 37.801L316.065 37.7443L315.98 37.9284L315.966 37.9143Z" fill="#102185"/>
<path d="M250.284 218.422C244.45 218.238 238.801 218.125 233.279 217.969C232.246 218.054 231.311 217.969 230.306 217.742C229.386 217.332 228.508 216.61 227.842 215.661C227.219 214.84 226.95 213.736 226.681 212.617C226.851 211.484 227.205 210.437 228.069 209.502C228.791 208.624 229.924 208.03 230.957 207.945C233.279 207.662 235.516 207.562 237.796 207.591C242.497 207.591 247.211 207.619 251.912 207.633C252.365 207.619 252.988 207.676 253.484 207.789C257.505 207.605 261.03 210.054 260.888 216.015C260.804 231.207 260.719 246.414 260.591 261.478C260.535 271.205 260.294 280.847 260.237 290.574C260.209 294.836 257.83 297.724 254.503 299.749C253.71 300.061 252.861 300.23 251.926 300.131C246.957 300.216 241.987 300.301 237.017 300.4C228.239 300.429 219.503 300.599 210.725 300.641C196.976 300.769 183.172 300.754 169.41 300.882L133.121 301.165C119.047 301.264 104.804 301.264 90.6874 301.222C85.8452 301.264 82.6595 298.078 82.5746 293.109C82.348 288.182 82.4331 282.858 82.334 277.874C82.2348 271.687 82.2773 265.457 82.2489 259.1C82.164 257.316 82.4047 255.546 82.6454 253.79C82.8153 252.658 83.226 251.751 84.1321 250.944C85.0383 250.137 85.9161 249.656 86.9355 249.557C89.6257 249.444 91.3531 249.982 92.2734 252.813C93.2928 255.461 92.9104 258.024 92.8963 260.756C92.9954 270.115 93.0238 279.658 92.9955 289.074C93.1512 289.47 93.222 290.051 93.3636 290.447C94.3547 290.673 95.4874 290.843 96.5635 290.886C110.765 290.744 125.093 290.546 139.351 290.532C152.66 290.433 165.828 290.376 179.009 290.319C189.005 290.277 199.129 290.178 209.252 290.079L245.102 289.824C246.447 289.767 247.792 289.711 249.576 289.626C249.59 265.967 249.845 242.506 250.015 218.479L250.284 218.38V218.422Z" fill="#102185"/>
<path d="M293.877 148.294C293.835 191.238 293.707 233.586 293.608 276.402L295.067 275.849C295.973 275.042 297.162 274.589 298.365 274.575C299.569 274.561 300.759 274.872 301.764 275.538C302.769 276.203 303.505 277.294 303.831 278.539C304.284 279.729 304.171 280.989 303.548 282.136C301.424 287.658 298.196 292.684 293.977 296.733C292.858 297.767 291.456 298.461 289.842 298.616C288.242 298.772 286.685 298.305 285.439 297.427C284.603 296.832 283.768 296.252 282.933 295.657C280.328 293.618 277.736 291.594 275.131 289.555C272.894 287.686 272.243 285.959 272.979 283.552C273.036 282.915 273.291 282.376 273.715 281.909C274.14 281.442 274.565 280.975 275.046 280.635L276.759 279.97C277.283 279.771 277.963 279.97 278.6 280.026C279.775 280.338 280.964 280.635 282.055 281.131L282.579 280.932C282.579 280.932 282.664 280.748 282.735 280.564C282.791 279.927 282.862 279.304 282.919 278.667C282.975 234.959 283.032 191.266 282.961 147.615C282.961 147.615 282.904 147.487 282.55 147.318L280.738 148.917C280.172 149.441 279.563 149.824 278.77 150.121C278.105 150.376 277.213 150.418 276.59 150.348C275.783 150.206 275.089 150.008 274.494 149.64C273.9 149.271 273.376 148.705 272.937 147.955C272.484 146.765 272.073 145.703 272.328 144.401C272.455 143.141 272.937 142.036 273.616 141.031C274.961 138.992 276.349 137.095 278.062 135.226C280.115 133.074 282.31 130.865 284.731 128.883C285.977 127.793 287.704 127.142 289.361 127.113C291.017 127.085 292.801 127.765 294.019 128.968C296.822 131.531 299.201 134.561 300.829 138.029C302.004 140.309 302.925 142.688 303.703 145.123C304.723 147.771 303.93 150.05 302.089 151.197C299.385 152.839 297.488 152.655 295.236 150.333C294.713 149.767 294.146 149.087 293.708 148.337L293.835 148.28L293.877 148.294Z" fill="#102185"/>
<path d="M95.4299 148.493C94.637 152.741 94.0565 156.762 93.3344 160.825C93.023 162.765 92.4707 164.492 90.4035 165.441C86.5382 167.225 82.9419 164.974 82.9702 160.712C82.9419 159.055 83.2249 157.427 83.5081 155.799C84.1452 151.919 84.5842 147.955 85.363 144.019C86.1275 140.083 87.2887 137.973 92.3151 138.016C100.47 137.917 108.668 137.959 116.696 137.917C127.457 137.888 138.387 137.931 149.148 137.902C153.99 137.86 158.875 137.959 163.632 138.101C164.835 138.101 165.968 138.271 167.101 138.441C170.669 139.049 172.51 141.06 172.665 144.642C172.708 147.502 172.566 150.291 172.552 153.024C172.226 164.832 171.773 176.683 171.448 188.477C171.249 193.107 171.009 197.595 170.811 202.225C170.754 202.862 170.867 203.57 170.938 204.151C173.628 205.241 176.29 204.674 178.952 204.873C185.422 205.128 191.907 205.057 198.505 205.255C199.708 205.255 200.898 205.552 201.96 206.359C203.021 207.166 203.559 208.172 203.885 209.403C204.14 210.069 204.126 210.833 203.984 211.64C203.786 212.32 203.602 213 203.092 213.651C202.71 214.246 202.158 214.77 201.549 215.152L199.567 215.916C196.31 216.1 192.941 216.03 189.571 215.959C177.819 215.775 166.195 215.52 154.443 215.336C153.24 215.336 152.192 214.982 151.215 214.444C150.252 213.906 149.318 213.056 148.78 212.037C147.335 209.857 149.19 205.212 152.857 204.859C155.038 204.632 157.331 204.66 160.007 204.533C160.984 195.217 160.744 185.9 161.31 176.725C161.891 167.551 161.876 158.461 162.145 149.258C159.427 148.479 110.919 148.139 95.6988 148.833L95.4157 148.493H95.4299Z" fill="#102185"/>
<path d="M244.167 179.968C243.912 179.302 243.841 178.722 243.827 178.283C243.601 177.306 243.643 176.23 244.181 175.267C244.592 174.347 245.356 173.596 246.234 173.115C248.783 171.841 250.935 171.926 252.592 173.865C254.999 176.584 257.32 179.486 259.43 182.615C261.214 185.263 260.832 187.84 258.609 190.36C256.344 192.753 254.078 195.132 251.614 197.44C250.581 198.289 249.391 198.756 248.146 199.068C247.48 199.323 246.716 199.308 245.909 199.167C245.102 199.025 244.549 198.785 243.898 198.275C243.303 197.893 242.907 197.284 242.61 196.491C242.355 195.826 242.1 195.174 242.241 194.353C242.369 193.093 242.539 191.96 242.794 190.658C229.23 190.105 215.821 189.935 202.158 189.879L202.866 191.734C204.31 195.882 201.677 199.323 197.274 198.884C195.702 198.728 193.975 198.176 192.587 197.34C189.869 195.797 187.193 193.957 184.502 192.102C183.54 191.564 182.733 190.658 182.195 189.652C181.529 188.69 181.246 187.585 180.977 186.481C180.835 185.32 180.878 184.244 181.232 183.196C181.586 182.148 182.081 181.058 182.803 180.166C185.479 176.867 188.495 174.035 191.964 171.643C192.743 170.892 193.79 170.482 195.008 170.482C196.169 170.34 197.217 170.694 198.18 171.232C200.218 172.577 200.842 174.602 200.219 177.731C200.318 178 200.162 178.368 200.303 178.764C207.595 179.6 214.972 179.047 222.334 179.26C229.64 179.331 236.875 179.6 244.408 179.883L244.139 179.982L244.167 179.968Z" fill="#102185"/>
<path d="M92.1172 203.456L101.689 203.881L114.219 204.532C115.111 204.49 115.932 204.631 116.838 205.042C117.617 205.495 118.41 205.962 118.835 206.699C119.458 207.52 119.812 208.454 119.854 209.346C119.897 210.238 119.67 211.244 119.075 212.065C117.9 213.735 116.697 214.953 114.545 214.868C108.655 214.542 102.821 214.358 96.9877 214.174C95.2745 214.075 93.7598 214.047 91.9617 214.132C91.7918 216.468 91.8483 218.578 91.4518 220.701C91.2819 221.834 90.8714 222.74 90.0927 223.491C89.3139 224.241 88.3087 224.779 87.2893 224.878C86.1283 225.02 85.1372 224.793 84.1744 224.255C83.2116 223.717 82.4612 222.939 82.0506 221.891C81.5976 220.701 81.1302 219.512 81.2151 218.125C81.2435 214.627 81.3991 211.074 81.4983 207.406C81.6257 205.382 81.4556 203.329 81.7105 201.262C81.7105 200.497 81.9939 199.633 82.3196 198.897C82.7726 198.118 83.339 197.595 84.0752 197.156C84.8681 196.844 85.6609 196.547 86.4254 196.561C87.19 196.575 88.1386 196.66 88.8607 196.986C89.5828 197.311 90.2484 197.821 90.8148 198.515C91.3386 199.081 91.7635 199.817 91.9475 200.667C92.1174 201.516 92.1598 202.409 92.2023 203.301L92.1172 203.485V203.456Z" fill="#102185"/>
<path d="M139.492 231.675C139.761 233.544 139.308 235.54 138.204 237.027C134.664 242.025 131.125 247.023 127.628 252.162C123.89 257.84 120.152 263.517 116.555 269.153C115.267 271.319 113.483 272.607 110.864 272.098C110.184 271.899 109.505 271.715 108.896 271.333C108.287 270.951 107.777 270.399 107.437 269.917C107.055 269.308 106.8 268.643 106.673 267.935C106.418 267.27 106.616 266.59 106.63 265.825C106.942 264.65 107.508 263.362 108.174 262.356C115.154 252.091 122.006 241.883 128.93 231.491C129.85 229.919 131.224 228.786 132.951 228.135C133.617 227.88 134.24 227.937 135.004 227.951C135.641 228.008 136.321 228.206 136.916 228.588C137.51 228.97 137.977 229.395 138.445 229.82C138.827 230.429 139.167 230.91 139.421 231.576L139.478 231.703L139.492 231.675Z" fill="#102185"/>
<path d="M227.758 234.04C228.678 233.686 229.797 233.417 230.788 233.629C231.779 233.841 232.614 234.45 233.294 235.399C233.86 236.093 234.214 237.013 234.313 238.046C234.412 239.08 234.129 239.944 233.535 240.765C232.756 242.28 231.921 243.667 230.901 244.956C224.785 253.522 218.541 262.13 212.297 270.753C211.787 271.404 211.15 272.098 210.513 272.806C209.522 273.797 208.389 274.377 206.916 274.491C205.571 274.547 204.212 274.165 203.15 273.358C202.272 272.636 201.593 271.673 201.409 270.385C201.14 269.28 201.437 268.091 201.933 267.001C202.343 266.08 202.924 265.259 203.518 264.424C209.72 255.674 216.091 247.009 222.335 238.386C223.723 236.489 224.997 234.634 227.418 233.855L227.786 234.025L227.758 234.04Z" fill="#102185"/>
<path d="M158.309 274.349C157.247 274.759 156.327 275.113 155.152 274.802C154.161 274.575 153.056 274.094 152.433 273.259C151.683 272.48 151.145 271.475 150.876 270.37C150.734 269.209 150.904 268.077 151.315 267.17C151.881 265.896 152.631 264.693 153.58 263.574C158.918 255.759 164.086 247.872 169.424 240.057C170.387 238.627 171.406 237.324 172.425 236.021C173.062 235.314 173.884 234.705 174.677 234.393C175.597 234.039 176.631 233.954 177.579 234.039C178.216 234.096 178.754 234.351 179.363 234.719C179.972 235.087 180.425 235.526 180.765 236.007C181.105 236.489 181.359 237.14 181.43 237.721C181.685 238.386 181.628 239.009 181.557 239.646C181.388 240.779 181.034 241.827 180.354 242.832C175.781 249.897 171.038 256.877 166.337 263.985C164.624 266.618 162.769 269.294 160.858 271.843C160.008 272.777 159.102 273.584 158.054 274.434L158.323 274.335L158.309 274.349Z" fill="#102185"/>
<path d="M228.041 51.0389C229.003 53.545 226.766 57.5944 224.204 58.4298C222.83 58.812 221.259 58.6563 219.928 57.9483C218.597 57.2404 217.563 56.1219 217.139 54.6211C216.586 53.1628 216.87 51.5345 217.563 50.2036C218.271 48.8727 219.39 47.8391 220.89 47.4143C222.349 46.8621 223.92 47.0038 225.251 47.7117C226.582 48.4196 227.616 49.5381 228.182 50.9823L228.055 51.0389H228.041Z" fill="#102185"/>
</svg>
