<svg width="12" height="12" viewBox="0 0 12 12" fill="none" xmlns="http://www.w3.org/2000/svg">
<path d="M6 1.46784L1.39758 6L6 10.5322L10.6024 6L6 1.46784Z" fill="#3D939E"/>
<path d="M4.7116 6.27683C4.7116 6.27683 4.84973 6.52388 4.84973 6.82367C4.84973 6.88196 4.83845 6.92638 4.83845 6.92638C4.6665 6.88752 4.5622 6.82922 4.5622 6.82922L4.59321 6.27405H4.7116V6.27683ZM4.95121 6.94858C4.95967 6.90417 4.96812 6.85976 4.96812 6.82645C4.96812 6.81257 4.96812 6.79869 4.96812 6.77926C5.01604 6.79314 5.07242 6.80146 5.14289 6.80146C5.40787 6.80146 5.58546 6.62659 5.58546 6.40729C5.58546 5.94095 4.57912 6.01312 4.57912 5.3719C4.57912 5.09432 4.8159 4.86115 5.19927 4.86115C5.24437 4.86115 5.31766 4.8667 5.37404 4.86947C5.36558 4.91389 5.35995 4.95275 5.35995 4.98606V5.03325C5.31485 5.02492 5.2641 5.02214 5.23028 5.02214C4.99349 5.02214 4.84691 5.16649 4.84691 5.32749C4.84691 5.74942 5.86735 5.73554 5.86735 6.36288C5.86735 6.69876 5.60237 6.95969 5.17108 6.95969C5.09215 6.95969 5.01604 6.95414 4.95121 6.94581H4.95403L4.95121 6.94858ZM5.47552 4.98883C5.47552 4.93054 5.4868 4.88613 5.4868 4.88613C5.65875 4.91666 5.77432 4.96385 5.77432 4.96385L5.72922 5.50237H5.61083C5.61083 5.50237 5.47552 5.2692 5.47552 4.98606V4.98883Z" fill="white"/>
<path d="M6.70738 6.93475H6.21971L6.20562 6.83204C6.20562 6.83204 6.29301 6.77375 6.42831 6.74322V5.08326C6.29582 5.05272 6.20562 4.99443 6.20562 4.99443L6.21971 4.89172H6.91598L6.93007 4.99443C6.93007 4.99443 6.84269 5.05272 6.70738 5.08326V6.93475ZM6.82577 6.93475V6.75987H7.37264C7.41774 6.57111 7.53613 6.42399 7.53613 6.42399L7.65453 6.43787L7.62634 6.93475H6.82577Z" fill="white"/>
</svg>
