<svg width="12" height="12" viewBox="0 0 12 12" fill="none" xmlns="http://www.w3.org/2000/svg">
<path d="M6 1.46784L1.39758 6L6 10.5322L10.6024 6L6 1.46784Z" fill="#3D939E"/>
<path d="M4.54524 6.34073C4.54524 6.34073 4.68336 6.58778 4.68336 6.88757C4.68336 6.94587 4.67209 6.99028 4.67209 6.99028C4.50013 6.95142 4.39584 6.89313 4.39584 6.89313L4.42684 6.33796H4.54524V6.34073ZM4.78484 7.01249C4.7933 6.96807 4.80176 6.92366 4.80176 6.89035C4.80176 6.87647 4.80176 6.86259 4.80176 6.84316C4.84968 6.85704 4.90605 6.86537 4.97653 6.86537C5.2415 6.86537 5.41909 6.69049 5.41909 6.4712C5.41909 6.00485 4.41275 6.07703 4.41275 5.43581C4.41275 5.15822 4.64954 4.92505 5.0329 4.92505C5.07801 4.92505 5.1513 4.9306 5.20767 4.93338C5.19922 4.97779 5.19358 5.01665 5.19358 5.04996V5.09715C5.14848 5.08882 5.09774 5.08605 5.06391 5.08605C4.82713 5.08605 4.68054 5.23039 4.68054 5.39139C4.68054 5.81332 5.70098 5.79944 5.70098 6.42678C5.70098 6.76266 5.436 7.02359 5.00472 7.02359C4.92579 7.02359 4.84968 7.01804 4.78484 7.00971H4.78766L4.78484 7.01249ZM5.31197 5.05274C5.31197 4.99445 5.32325 4.95003 5.32325 4.95003C5.4952 4.97779 5.61078 5.02776 5.61078 5.02776L5.56567 5.56627H5.44728C5.44728 5.56627 5.31197 5.3331 5.31197 5.04996V5.05274Z" fill="white"/>
<path d="M6.54384 6.80706C6.67633 6.83759 6.76653 6.89589 6.76653 6.89589L6.75244 6.99859H6.05617L6.04208 6.89589C6.04208 6.89589 6.12946 6.83759 6.26477 6.80706V5.1471C6.13228 5.11657 6.04208 5.05827 6.04208 5.05827L6.05617 4.95557H6.54384V6.80706ZM6.66223 5.99096H6.80599C7.11889 5.99096 7.28239 5.82996 7.28239 5.55515C7.28239 5.28034 7.11889 5.11657 6.80881 5.11657H6.66223V4.95557H6.80881C7.31057 4.95557 7.57837 5.21927 7.57837 5.55237C7.57837 5.88548 7.31339 6.14918 6.80881 6.14918H6.66223V5.98818V5.99096ZM6.84828 6.26854C6.95539 6.26577 7.04842 6.25189 7.1358 6.22968L7.50508 6.80706C7.63757 6.83759 7.72777 6.89589 7.72777 6.89589L7.71368 6.99859H7.2852L6.8511 6.27132L6.84828 6.26854Z" fill="white"/>
</svg>
