<svg xmlns="http://www.w3.org/2000/svg" width="466" height="322" fill="none" viewBox="0 0 466 322"><g filter="url(#a)"><g clip-path="url(#b)"><rect width="464" height="320" x="1" y="1" fill="#fff" rx="10"/><path fill="#fff" d="M13 13h440v33H13z"/><path fill="#000" d="M13 19h37v21H13z"/><path fill="#fff" d="M25.25 32.37c.66 0 1.23-.23 1.63-.61v-1.22H25.1v-1.21h3.2v2.94c-.65.87-1.74 1.43-3.05 1.43-2.27 0-3.82-1.7-3.82-3.7s1.51-3.7 3.72-3.7c1.27 0 2.31.57 2.95 1.42l-1.12.87c-.4-.57-1.03-.96-1.83-.96-1.32 0-2.26 1.03-2.26 2.37s.99 2.37 2.36 2.37m4.73 1.13v-7h4.08v1.18H31.4v1.66h2.26v1.18H31.4v1.8h2.66v1.18zm5.256-5.71V26.5h5.74v1.29h-2.16v5.71h-1.42v-5.71z"/><path fill="#3a3a3a" d="M63.055 32.73h-.894l4.82-8.033h.864zm9.292-1.456q-.415.684-1.001 1.03-.582.347-1.07.347-.683 0-1.23-.59-.542-.591-.542-1.792 0-.948.361-1.69.361-.747.967-1.177.605-.434 1.5-.434.258 0 .78.053.078.01.235.025h.913v3.852q0 .987.205 1.602h-.947a8.5 8.5 0 0 1-.171-1.226m0-1.079v-2.339a3.6 3.6 0 0 0-.899-.127q-.84 0-1.401.65-.557.65-.557 1.767 0 .811.303 1.226.308.41.698.41.425 0 .938-.43.511-.43.918-1.157m3.261-1.924q.42-.683 1.001-1.03.582-.346 1.07-.346.683 0 1.23.59.547.591.547 1.792 0 .948-.366 1.695-.361.742-.967 1.176-.605.43-1.499.43-.255 0-.781-.054l-.235-.024v2.12H74.7v-7.574h.908zm0 1.08v2.339q.494.126.909.126.825 0 1.386-.644.567-.65.567-1.773 0-.815-.308-1.225t-.698-.41q-.425 0-.938.43-.507.43-.918 1.157m6.695 3.149v-4.697h-1.514v-.757h2.422v4.697h1.519v.757zm-.152-7.422q0-.307.21-.459.21-.15.396-.151.19 0 .4.151t.21.46q0 .3-.21.453a.7.7 0 0 1-.4.152.7.7 0 0 1-.396-.152q-.21-.15-.21-.454m4.927 7.652h-.893l4.819-8.033h.864zm6.172-.23v-5.454h.908v1.191q.424-.673.972-1.006a2.3 2.3 0 0 1 1.226-.337q.492 0 .986.152v1.968h-.874v-1.245a2.3 2.3 0 0 0-.362-.04q-.507 0-.996.4-.488.402-.952 1.202V32.5zm10.078-.361q-1.09.517-2.06.517-.738 0-1.319-.366a2.63 2.63 0 0 1-.932-1.045 3.266 3.266 0 0 1-.015-2.896 2.55 2.55 0 0 1 .928-1.069q.596-.386 1.328-.386.972 0 1.557.694.591.693.591 2.139v.195h-3.76q0 .566.235 1.035.239.47.625.703.386.234.879.235.879 0 1.943-.586zM99.7 29.243h2.72v-.132q0-.669-.327-1.064-.328-.396-.874-.396-.552 0-.957.406-.4.4-.562 1.186m5.161 2.969v-.962q.547.357 1.158.503.61.141 1.035.142.688 0 .991-.22.303-.224.303-.557a.54.54 0 0 0-.142-.376q-.141-.156-.703-.386l-.313-.127-.629-.248q-1.017-.396-1.28-.733a1.25 1.25 0 0 1-.268-.81q0-.675.517-1.109.523-.434 1.69-.434.873 0 1.655.253v.826q-.899-.323-1.689-.323-.577 0-.904.205-.322.201-.322.503 0 .294.283.47.279.174.908.404l.616.225q.844.308 1.186.669.342.36.342.903 0 .708-.547 1.167-.542.454-1.738.454-1.045 0-2.149-.44m8.189.44q-1.172 0-1.875-.816-.703-.82-.703-2.065t.703-2.061 1.875-.816q1.167 0 1.87.816t.703 2.06q0 1.246-.703 2.066-.703.815-1.87.815m0-.758q.728 0 1.157-.566t.43-1.558q0-.986-.43-1.552t-1.157-.567q-.733 0-1.162.567-.43.566-.43 1.552 0 .991.43 1.558t1.162.567m8.247-4.848V32.5h-.908v-1.196q-.44.674-.977 1.01-.537.337-1.074.337a1.6 1.6 0 0 1-.879-.254 1.37 1.37 0 0 1-.552-.673q-.156-.42-.156-1.631v-3.047h.908v3.16q0 .785.073 1.04a.84.84 0 0 0 .279.41.7.7 0 0 0 .439.16q.479 0 1.026-.449.551-.454.913-1.142v-3.18zm1.982 5.454v-5.454h.909v1.191q.425-.673.971-1.006a2.3 2.3 0 0 1 1.226-.337q.493 0 .986.152v1.968h-.874v-1.245a2.3 2.3 0 0 0-.361-.04q-.508 0-.996.4-.489.402-.952 1.202V32.5zm10.132-.156a5.5 5.5 0 0 1-1.738.307 2.8 2.8 0 0 1-1.46-.376 2.7 2.7 0 0 1-.991-1.025 3 3 0 0 1-.357-1.475q0-1.24.806-2.06a2.65 2.65 0 0 1 1.953-.82q.845 0 1.787.317v.874q-.952-.435-1.704-.435-.499 0-.937.25-.44.244-.679.766t-.239 1.074q0 .737.459 1.407.463.668 1.45.668.298 0 .586-.039.288-.044 1.064-.307zm5.952-.205q-1.089.517-2.06.517-.738 0-1.319-.366a2.63 2.63 0 0 1-.932-1.045 3.2 3.2 0 0 1-.347-1.46q0-.747.332-1.435.332-.69.928-1.07.596-.386 1.328-.386.972 0 1.558.694.59.693.59 2.139v.195h-3.759q0 .566.234 1.035.24.47.625.703.386.234.879.235.88 0 1.943-.586zm-3.628-2.896h2.72v-.132q0-.669-.327-1.064-.327-.396-.874-.396-.552 0-.957.406-.4.4-.562 1.186m5.161 2.969v-.962q.548.357 1.158.503.61.141 1.035.142.688 0 .991-.22.303-.224.303-.557a.54.54 0 0 0-.142-.376q-.142-.156-.703-.386l-.312-.127-.63-.248q-1.016-.396-1.28-.733a1.25 1.25 0 0 1-.268-.81q0-.675.517-1.109.523-.434 1.69-.434.874 0 1.655.253v.826q-.898-.323-1.689-.323-.576 0-.904.205-.322.201-.322.503 0 .294.283.47.279.174.909.404l.615.225q.844.308 1.186.669.342.36.342.903 0 .708-.547 1.167-.542.454-1.738.454-1.045 0-2.149-.44m6.241.517h-.894l4.819-8.032h.865zm5.659-.366v-.957q1.118.567 1.938.567.752 0 1.241-.454.493-.46.493-1.177 0-.723-.542-1.177-.538-.454-1.831-.454h-.503v-.757h.698q.952 0 1.377-.425.425-.43.425-.952 0-.473-.347-.796-.347-.327-1.064-.327-.806 0-1.734.454v-.864q.928-.347 1.699-.347 1.382 0 1.905.547.527.542.527 1.24 0 .518-.278.972-.279.455-1.026.81.66.195.997.48.336.282.507.668.177.386.176.864 0 1.065-.791 1.758-.786.694-2.036.694-.362 0-.791-.054-.425-.054-1.04-.313m6.894-4.091q.42-.684 1.001-1.03.582-.348 1.07-.348.683 0 1.23.591t.547 1.792q0 .948-.366 1.695a3.07 3.07 0 0 1-.967 1.176q-.606.43-1.499.43-.254 0-.781-.054l-.235-.024h-.908v-7.88h.908zm0 1.079v2.339q.494.126.909.126.825 0 1.386-.644.567-.65.567-1.773 0-.815-.308-1.225t-.698-.41q-.425 0-.938.43-.507.43-.918 1.157m5.835-.406a2.9 2.9 0 0 1 .87-.85q.522-.33 1.147-.331.591 0 1.118.288.532.288.811.805.278.513.278 1.197 0 1.08-.693 1.88-.689.795-1.817.796-1.328 0-1.987-1.109-.654-1.113-.654-2.827 0-1.894.835-2.993.834-1.104 2.26-1.104.767 0 1.49.225v.918q-.811-.386-1.529-.386-1.015 0-1.572.933t-.557 2.363zm1.783 3.028a1.46 1.46 0 0 0 1.318-.884 2.3 2.3 0 0 0 .215-.986q0-.694-.362-1.138-.355-.445-1.02-.445-.689 0-1.133.518-.44.513-.439 1.25 0 .742.429 1.216.435.468.992.469m4.394-3.701q.42-.684 1.001-1.03.581-.348 1.069-.348.684 0 1.231.591t.547 1.792q0 .948-.366 1.695a3.1 3.1 0 0 1-.967 1.176q-.606.43-1.499.43-.254 0-.781-.054l-.235-.024h-.908v-7.88h.908zm0 1.079v2.339q.494.126.908.126.825 0 1.387-.644.567-.65.566-1.773 0-.815-.307-1.225-.308-.41-.698-.41-.425 0-.938.43-.507.43-.918 1.157m9.722 3.149h-4.585v-.835q0-.322.132-.688.132-.372.503-.83.37-.46.786-.884l.517-.528a35 35 0 0 0 .684-.747q.527-.585.693-.898.171-.313.171-.615a.85.85 0 0 0-.39-.752 1.5 1.5 0 0 0-.879-.269 4.384 4.384 0 0 0-1.226.215q-.258.082-.84.347v-.806q.615-.293 1.231-.4a6 6 0 0 1 1.02-.113q.59 0 1.084.196.498.19.737.595.245.406.245.864 0 .513-.313 1.05-.308.537-1.167 1.382l-.556.552-.469.459q-.444.45-.718.87a2 2 0 0 0-.303 1h3.643zm6.006 0h-4.585v-.835q0-.322.132-.688.131-.372.502-.83.372-.46.787-.884l.517-.528q.156-.16.684-.747.527-.585.693-.898.171-.313.171-.615a.85.85 0 0 0-.391-.752 1.5 1.5 0 0 0-.878-.269 4.347 4.347 0 0 0-1.226.215q-.26.082-.84.347v-.806q.615-.293 1.231-.4a6 6 0 0 1 1.02-.113q.59 0 1.084.196.498.19.737.595.244.406.244.864 0 .513-.312 1.05-.307.537-1.167 1.382l-.557.552-.468.459q-.445.45-.718.87a2 2 0 0 0-.303 1h3.643zm2.934-4.087-.166-.122q-.346-.244-.678-.718a1.8 1.8 0 0 1-.332-1.05q0-.756.595-1.289.596-.537 1.514-.537.561 0 1.011.205.449.2.693.596t.244.864q0 .323-.112.625a2.4 2.4 0 0 1-.337.596q-.22.293-.879.83l.41.327q.718.586.967 1.011t.249.952q0 .82-.596 1.426-.596.6-1.787.6-1.196 0-1.792-.561a1.86 1.86 0 0 1-.596-1.401q0-1.245 1.592-2.354m.933-.464q.688-.523.859-.874.176-.351.176-.654 0-.367-.322-.664-.323-.303-.83-.303-.547 0-.835.327-.283.327-.283.679 0 .342.239.645.239.302.766.678zm-.249.947q-1.29.992-1.289 1.856 0 .513.425.864.424.352 1.005.352.533 0 .953-.337.42-.338.42-.84 0-.493-.513-1.001a10 10 0 0 0-.708-.664zm5.854 2.847v-5.85a7 7 0 0 1-.796.557 6 6 0 0 1-1.059.469v-.82a6.4 6.4 0 0 0 1.855-1.177h.909v6.821h1.821v.757h-4.585v-.757zm4.341-1.933v-.757h3.789v.757zm6.494-1.538q.42-.684 1.001-1.03.582-.348 1.07-.348.683 0 1.23.591t.547 1.792q0 .948-.366 1.695a3.07 3.07 0 0 1-.967 1.176q-.606.43-1.499.43-.254 0-.781-.054l-.235-.024h-.908v-7.88h.908zm0 1.079v2.339q.494.126.909.126.825 0 1.386-.644.567-.65.567-1.773 0-.815-.308-1.225t-.698-.41q-.425 0-.938.43-.507.43-.918 1.157m8.98-.874a3 3 0 0 1-.874.854 2.1 2.1 0 0 1-1.143.327q-.59 0-1.123-.283a1.97 1.97 0 0 1-.806-.806 2.5 2.5 0 0 1-.278-1.2q0-1.075.689-1.871.693-.8 1.821-.8 1.328 0 1.982 1.113.66 1.108.66 2.822 0 1.894-.835 2.998-.836 1.099-2.261 1.099a4.9 4.9 0 0 1-1.489-.23v-.913q.81.38 1.528.38 1.016 0 1.572-.932.557-.933.557-2.363zm-1.782-3.023q-.367 0-.738.22a1.5 1.5 0 0 0-.586.664 2.3 2.3 0 0 0-.21.986q0 .69.357 1.133.361.444 1.025.444.689 0 1.128-.512.444-.518.444-1.25 0-.743-.434-1.211-.43-.474-.986-.474m7.617 5.82q-.416.684-1.001 1.03-.582.347-1.07.347-.683 0-1.23-.59-.542-.591-.542-1.792 0-.948.361-1.69.361-.747.967-1.177.605-.434 1.499-.434.26 0 .781.053.078.01.235.025v-2.427h.913V32.5h-.913zm0-1.079v-2.339a3.6 3.6 0 0 0-.899-.127q-.84 0-1.401.65-.557.65-.557 1.767 0 .811.303 1.226.308.41.698.41.425 0 .938-.43t.918-1.157m6.177-1.718a3 3 0 0 1-.875.854 2.1 2.1 0 0 1-1.142.327q-.59 0-1.123-.283a1.96 1.96 0 0 1-.806-.806 2.5 2.5 0 0 1-.278-1.2q0-1.075.688-1.871.694-.8 1.822-.8 1.328 0 1.982 1.113.66 1.108.659 2.822 0 1.894-.835 2.998-.835 1.099-2.26 1.099a4.9 4.9 0 0 1-1.49-.23v-.913q.811.38 1.529.38 1.015 0 1.572-.932.557-.933.557-2.363zm-1.783-3.023q-.366 0-.737.22a1.47 1.47 0 0 0-.586.664 2.3 2.3 0 0 0-.21.986q0 .69.357 1.133.36.444 1.025.444.689 0 1.128-.512.444-.518.444-1.25 0-.743-.434-1.211-.43-.474-.987-.474m4.326 4.356v-.757h3.79v.757zm8.35 2.69v-2.12h-3.218v-.76l3.218-4.698h.913v4.697h1.402v.762h-1.402V32.5zm0-2.88v-3.321l-2.251 3.32zm7.124-1.143a2.95 2.95 0 0 1-.874.854 2.1 2.1 0 0 1-1.143.327 2.36 2.36 0 0 1-1.123-.283 1.96 1.96 0 0 1-.805-.806q-.279-.517-.279-1.2 0-1.075.689-1.871.693-.8 1.821-.8 1.328 0 1.983 1.113.659 1.108.659 2.822 0 1.894-.835 2.998-.835 1.099-2.261 1.099a4.9 4.9 0 0 1-1.489-.23v-.913q.81.38 1.528.38 1.016 0 1.572-.932.558-.933.557-2.363zm-1.782-3.023q-.366 0-.737.22a1.47 1.47 0 0 0-.586.664 2.3 2.3 0 0 0-.21.986q0 .69.356 1.133.362.444 1.025.444.689 0 1.128-.512.445-.518.445-1.25 0-.743-.435-1.211-.43-.474-.986-.474m4.136 3.106v-3.638h4.243v.874h-3.335v1.855h.156q1.636 0 2.52.684.883.684.883 1.84 0 .734-.356 1.314a2.47 2.47 0 0 1-1.006.913 3 3 0 0 1-1.382.328q-.732 0-1.875-.357v-.991q.415.225.928.37.513.143.947.143.435 0 .85-.21t.644-.61q.23-.406.23-.826 0-.707-.63-1.196-.625-.493-2.227-.493zm9.658-.083a3 3 0 0 1-.874.854 2.1 2.1 0 0 1-1.143.327q-.59 0-1.123-.283a1.97 1.97 0 0 1-.806-.806 2.5 2.5 0 0 1-.278-1.2q0-1.075.689-1.871.693-.8 1.821-.8 1.328 0 1.982 1.113.66 1.108.66 2.822 0 1.894-.835 2.998-.836 1.099-2.261 1.099a4.9 4.9 0 0 1-1.489-.23v-.913q.81.38 1.528.38 1.016 0 1.572-.932.557-.933.557-2.363zm-1.782-3.023q-.367 0-.738.22a1.5 1.5 0 0 0-.586.664 2.3 2.3 0 0 0-.21.986q0 .69.357 1.133.362.444 1.025.444.689 0 1.128-.512.444-.518.444-1.25 0-.743-.434-1.211-.43-.474-.986-.474m4.326 4.356v-.757h3.789v.757zm9.238 1.464q-.415.684-1.001 1.03-.581.347-1.069.347-.684 0-1.231-.59-.542-.591-.542-1.792 0-.948.362-1.69.36-.747.966-1.177.606-.434 1.499-.434.259 0 .782.053l.234.025h.913v3.852q0 .987.205 1.602h-.947a8.4 8.4 0 0 1-.171-1.226m0-1.079v-2.339a3.6 3.6 0 0 0-.898-.127q-.84 0-1.402.65-.556.65-.556 1.767 0 .811.302 1.226.308.41.699.41.424 0 .937-.43t.918-1.157m6.958 1.944q-1.09.517-2.06.517-.737 0-1.319-.366a2.63 2.63 0 0 1-.932-1.045 3.2 3.2 0 0 1-.347-1.46q0-.747.332-1.435.331-.69.928-1.07a2.4 2.4 0 0 1 1.328-.386q.972 0 1.557.694.591.693.591 2.139v.195h-3.76q0 .566.235 1.035.239.47.625.703.386.234.879.235.878 0 1.943-.586zm-3.628-2.896h2.72v-.132q0-.669-.327-1.064-.327-.396-.874-.396-.552 0-.957.406-.4.4-.562 1.186m8.911-.766a2.9 2.9 0 0 1-.874.854 2.1 2.1 0 0 1-1.142.327q-.591 0-1.123-.283a1.96 1.96 0 0 1-.806-.806q-.279-.517-.278-1.2 0-1.075.688-1.871.693-.8 1.821-.8 1.329 0 1.983 1.113.659 1.108.659 2.822 0 1.894-.835 2.998-.835 1.099-2.261 1.099a4.9 4.9 0 0 1-1.489-.23v-.913q.81.38 1.528.38 1.016 0 1.573-.932.556-.933.556-2.363zm-1.782-3.023q-.366 0-.737.22a1.47 1.47 0 0 0-.586.664 2.3 2.3 0 0 0-.21.986q0 .69.356 1.133.362.444 1.026.444.689 0 1.128-.512.444-.518.444-1.25 0-.743-.435-1.211-.43-.474-.986-.474m7.617 5.82q-.414.684-1.001 1.03-.581.347-1.069.347-.684 0-1.231-.59-.542-.591-.542-1.792 0-.948.362-1.69.361-.747.967-1.177.605-.434 1.499-.434.259 0 .781.053l.234.025v-2.427h.913V32.5h-.913zm0-1.079v-2.339a3.6 3.6 0 0 0-.898-.127q-.84 0-1.402.65-.556.65-.556 1.767 0 .811.302 1.226.308.41.699.41.424 0 .937-.43t.918-1.157m2.715-.385v-.757h3.789v.757zm10.244 2.534a5.5 5.5 0 0 1-1.738.307 2.8 2.8 0 0 1-1.46-.376 2.7 2.7 0 0 1-.991-1.025 3 3 0 0 1-.357-1.475q0-1.24.806-2.06a2.65 2.65 0 0 1 1.953-.82q.845 0 1.787.317v.874q-.953-.435-1.704-.435a1.87 1.87 0 0 0-.937.25q-.44.244-.679.766t-.239 1.074q0 .737.459 1.407.463.668 1.45.668.298 0 .586-.039.288-.044 1.064-.307zm5.972.156h-4.585v-.835q0-.322.132-.688.132-.372.503-.83.37-.46.786-.884l.517-.528a35 35 0 0 0 .684-.747q.528-.585.693-.898.171-.313.171-.615a.85.85 0 0 0-.39-.752 1.5 1.5 0 0 0-.879-.269 4.384 4.384 0 0 0-1.226.215q-.258.082-.84.347v-.806q.616-.293 1.231-.4a6 6 0 0 1 1.02-.113q.59 0 1.084.196.498.19.738.595.243.406.244.864 0 .513-.313 1.05-.307.537-1.167 1.382l-.556.552-.469.459q-.445.45-.718.87a2 2 0 0 0-.303 1h3.643zm6.04-.156a5.5 5.5 0 0 1-1.738.307 2.8 2.8 0 0 1-1.46-.376 2.7 2.7 0 0 1-.992-1.025 3 3 0 0 1-.356-1.475q0-1.24.806-2.06a2.65 2.65 0 0 1 1.953-.82q.845 0 1.787.317v.874q-.952-.435-1.704-.435-.498 0-.938.25-.44.244-.678.766-.24.522-.24 1.074 0 .737.459 1.407.464.668 1.451.668.297 0 .585-.039.289-.044 1.065-.307zm3.433-.6v-5.85a7 7 0 0 1-.796.556q-.387.23-1.06.469v-.82a6.4 6.4 0 0 0 1.856-1.177h.908v6.821h1.821v.757h-4.585v-.757zm4.658-2.799q.351-.522.869-.85a2.1 2.1 0 0 1 1.147-.331q.591 0 1.118.288.533.288.811.805.278.513.278 1.197 0 1.08-.693 1.88-.688.795-1.816.796-1.329 0-1.988-1.109-.654-1.113-.654-2.827 0-1.894.835-2.993.835-1.104 2.261-1.104.766 0 1.489.225v.918q-.81-.386-1.528-.386-1.016 0-1.573.933t-.556 2.363zm1.782 3.028a1.46 1.46 0 0 0 1.318-.884q.216-.455.215-.986 0-.694-.361-1.138-.357-.445-1.021-.445-.688 0-1.132.518-.44.513-.44 1.25 0 .742.43 1.216.434.468.991.469m4.224-3.028q.351-.522.869-.85a2.1 2.1 0 0 1 1.147-.331q.591 0 1.118.288.532.288.811.805.278.513.278 1.197 0 1.08-.693 1.88-.689.795-1.817.796-1.327 0-1.987-1.109-.654-1.113-.654-2.827 0-1.894.835-2.993.834-1.104 2.261-1.104.766 0 1.489.225v.918q-.811-.386-1.529-.386-1.016 0-1.572.933t-.556 2.363zm1.782 3.028a1.46 1.46 0 0 0 1.318-.884 2.3 2.3 0 0 0 .215-.986q0-.694-.361-1.138-.357-.445-1.021-.445-.688 0-1.133.518-.44.513-.439 1.25 0 .742.43 1.216.434.468.991.469m7.197-.699q-.415.684-1.001 1.03-.581.347-1.069.347-.684 0-1.231-.59-.542-.591-.542-1.792 0-.948.362-1.69.361-.747.966-1.177.606-.434 1.499-.434.259 0 .782.053l.234.025v-2.427h.913V32.5h-.913zm0-1.079v-2.339a3.6 3.6 0 0 0-.898-.127q-.84 0-1.402.65-.556.65-.556 1.767 0 .811.302 1.226.307.41.699.41.424 0 .937-.43t.918-1.157m3.633 2.305v-4.243h-1.211V27.5h1.211v-.254q0-1.079.244-1.597.244-.517.752-.85.513-.33 1.353-.331.634 0 1.289.132v.864q-.709-.234-1.255-.234-.435 0-.767.16a1.16 1.16 0 0 0-.522.528q-.186.36-.186 1.23v.352h2.163v.757h-2.163V32.5zm6.006 0v-4.243h-1.211V27.5h1.211v-.254q0-1.079.244-1.597.244-.517.752-.85.513-.33 1.352-.331.635 0 1.289.132v.864q-.708-.234-1.254-.234-.435 0-.767.16a1.15 1.15 0 0 0-.522.528q-.186.36-.186 1.23v.352h2.163v.757h-2.163V32.5zm6.753-.757v-5.85a7 7 0 0 1-.796.557q-.386.23-1.06.469v-.82a6.4 6.4 0 0 0 1.856-1.177h.908v6.821h1.821v.757h-4.585v-.757zm6.006 0v-5.85a7 7 0 0 1-.796.557q-.387.23-1.06.469v-.82a6.4 6.4 0 0 0 1.856-1.177h.908v6.821h1.821v.757h-4.585v-.757zm5.473-3.33-.166-.122q-.346-.244-.679-.718a1.8 1.8 0 0 1-.332-1.05q0-.756.596-1.289.596-.537 1.514-.537.561 0 1.011.205.448.2.693.596t.244.864q0 .323-.112.625a2.4 2.4 0 0 1-.337.596q-.22.293-.879.83l.41.327q.718.586.967 1.011t.249.952q0 .82-.596 1.426-.596.6-1.787.6-1.196 0-1.792-.561a1.86 1.86 0 0 1-.596-1.401q0-1.245 1.592-2.354m.933-.464q.688-.523.859-.874.176-.351.176-.654 0-.367-.322-.664-.323-.303-.83-.303-.547 0-.835.327-.284.327-.284.679 0 .342.24.645.239.302.766.678zm-.249.947q-1.29.992-1.289 1.856 0 .513.425.864.425.352 1.005.352.533 0 .953-.337.419-.338.419-.84 0-.493-.512-1.001a10 10 0 0 0-.708-.664zm4.136 3.834h-.894l4.819-8.033h.865zm9.35-1.456q-.415.684-1.001 1.03-.581.347-1.069.347-.684 0-1.231-.59-.542-.591-.542-1.792 0-.948.362-1.69.361-.747.966-1.177.606-.434 1.499-.434.259 0 .782.053l.234.025v-2.427h.913V32.5h-.913zm0-1.079v-2.339a3.6 3.6 0 0 0-.898-.127q-.84 0-1.402.65-.556.65-.556 1.767 0 .811.302 1.226.308.41.699.41.424 0 .937-.43t.918-1.157m5.947 1.08q-.414.683-1.001 1.03-.58.345-1.069.346-.684 0-1.23-.59-.543-.591-.542-1.792 0-.948.361-1.69.361-.747.967-1.177.605-.434 1.499-.434.259 0 .781.053l.234.025h.913v3.852q0 .987.206 1.602h-.948a9 9 0 0 1-.171-1.226m0-1.08v-2.339a3.6 3.6 0 0 0-.898-.127q-.84 0-1.401.65-.558.65-.557 1.767 0 .811.303 1.226.307.41.698.41.425 0 .937-.43.513-.43.918-1.157m6.983 2.085q-.64.27-.928.318a3 3 0 0 1-.557.053q-.57 0-1.045-.22a1.55 1.55 0 0 1-.717-.649q-.24-.43-.24-1.328v-2.197h-1.362V27.5h1.362v-2.197h.909V27.5h2.426v.757h-2.426v2.182q0 .66.156.933.156.268.415.396.264.127.62.127.66 0 1.387-.415zm5.029-1.006q-.415.684-1.001 1.03-.581.347-1.069.347-.684 0-1.231-.59-.542-.591-.542-1.792 0-.948.362-1.69.361-.747.966-1.177.606-.434 1.499-.434.259 0 .782.053l.234.025h.913v3.852q0 .987.205 1.602h-.947a8.4 8.4 0 0 1-.171-1.226m0-1.079v-2.339a3.6 3.6 0 0 0-.898-.127q-.84 0-1.402.65-.556.65-.556 1.767 0 .811.302 1.226.308.41.699.41.424 0 .937-.43t.918-1.157m2.72 2.535h-.894l4.82-8.033h.864zm10.298-.386a5.5 5.5 0 0 1-1.739.307 2.83 2.83 0 0 1-1.46-.376 2.7 2.7 0 0 1-.991-1.025 3 3 0 0 1-.356-1.475q0-1.24.805-2.06a2.65 2.65 0 0 1 1.954-.82q.844 0 1.787.317v.874q-.953-.435-1.704-.435-.498 0-.938.25-.44.244-.679.766a2.6 2.6 0 0 0-.239 1.074q0 .737.459 1.407.464.668 1.45.668.298 0 .586-.039.288-.044 1.065-.307zm1.479-.132v-.962q.547.357 1.157.503.61.141 1.036.142.688 0 .991-.22.303-.224.302-.557a.54.54 0 0 0-.141-.376q-.142-.156-.703-.386l-.313-.127-.63-.248q-1.015-.396-1.279-.733a1.25 1.25 0 0 1-.268-.81q0-.675.517-1.109.522-.434 1.69-.434.873 0 1.655.253v.826q-.898-.323-1.69-.323-.576 0-.903.205-.322.201-.322.503 0 .294.283.47.278.174.908.404l.615.225q.846.308 1.187.669.342.36.342.903 0 .708-.547 1.167-.542.454-1.738.454-1.045 0-2.149-.44m7.715.288-2.368-5.454h.996l1.87 4.316 1.909-4.316h.908l-2.387 5.454zm4.531.23h-.893l4.819-8.033h.864z"/><mask id="c" fill="#fff"><path d="M13 58h440v248H13z"/></mask><path fill="#3a3a3a" d="M13 58v2h440v-4H13z" mask="url(#c)"/><path fill="#3a3a3a" d="M13.72 85.004v-7.488h.876v1.08q.132-.42.372-.684a1.5 1.5 0 0 1 .576-.384q.336-.132.72-.132.456 0 .864.18.42.168.732.516.324.348.504.876.192.528.192 1.248t-.204 1.272a2.7 2.7 0 0 1-.528.924q-.324.36-.744.552a2.1 2.1 0 0 1-.84.18q-.324 0-.636-.108a1.8 1.8 0 0 1-.552-.288 2.5 2.5 0 0 1-.444-.468v2.724zm2.376-2.628q.288 0 .564-.096.276-.108.504-.348t.36-.648q.132-.42.132-1.032 0-.66-.168-1.116-.168-.468-.492-.72a1.3 1.3 0 0 0-.768-.276 1.4 1.4 0 0 0-.636.096q-.288.12-.516.396a2 2 0 0 0-.36.732q-.12.444-.12 1.08.012.384.084.696t.204.552q.132.228.312.384.18.144.408.228.228.072.492.072m5.436.756q-.936 0-1.44-.42a1.38 1.38 0 0 1-.504-1.092q0-.444.216-.792.216-.36.588-.6.384-.252.888-.384a4.2 4.2 0 0 1 1.068-.132q.204 0 .408.012.216 0 .444.024.24.012.492.048l.024.66a4 4 0 0 0-.444-.048 8 8 0 0 0-.852-.048q-.432 0-.792.072a2.2 2.2 0 0 0-.624.216q-.264.144-.408.372a1 1 0 0 0-.144.552q0 .252.084.432a.8.8 0 0 0 .252.276q.156.096.36.144.216.048.468.048.468 0 .828-.144.372-.156.624-.444.264-.288.396-.708t.132-.96q0-.816-.192-1.272t-.576-.648q-.372-.192-.96-.192-.396 0-.78.156a1.95 1.95 0 0 0-.696.456l-.42-.552q.384-.384.888-.576a3 3 0 0 1 1.068-.192q.54 0 .984.132t.756.444q.324.3.492.816.18.516.18 1.296V83h-.936v-.84q-.156.3-.384.492-.216.192-.468.3-.252.096-.516.132a3 3 0 0 1-.504.048m6.432 1.932q-.576 0-1.044-.096a2.7 2.7 0 0 1-.792-.264 1.34 1.34 0 0 1-.504-.432 1.14 1.14 0 0 1-.168-.624q0-.336.144-.6t.372-.432q.24-.18.516-.264l.36.216q-.216.132-.348.264a.8.8 0 0 0-.192.3q-.06.18-.06.42 0 .204.12.36.12.168.336.276.228.108.54.168.324.06.732.06.552 0 .888-.12.348-.108.516-.312a.65.65 0 0 0 .168-.444.86.86 0 0 0-.096-.432q-.096-.168-.396-.252t-.912-.084q-.42 0-.768-.036a3.3 3.3 0 0 1-.624-.12 2 2 0 0 1-.468-.204.9.9 0 0 1-.276-.312.9.9 0 0 1-.096-.42q0-.312.168-.6.18-.288.48-.552l.408.324a2 2 0 0 0-.192.24.8.8 0 0 0-.108.192.7.7 0 0 0-.024.192q0 .192.144.312.156.12.528.18.372.048 1.008.048t1.032.108q.396.096.6.288.216.192.3.444t.084.552q0 .324-.132.612-.12.3-.396.528a1.9 1.9 0 0 1-.732.372q-.456.144-1.116.144m-.252-3.924q-.588 0-1.02-.252a1.87 1.87 0 0 1-.672-.696 2.1 2.1 0 0 1-.228-.972q0-.528.228-.96a1.8 1.8 0 0 1 .672-.684 1.9 1.9 0 0 1 1.02-.264q.6 0 1.02.264.432.252.66.684.24.432.24.96t-.24.972q-.228.432-.66.696-.42.252-1.02.252m0-.72q.348 0 .612-.156a1.21 1.21 0 0 0 .588-1.044q0-.336-.156-.6a1.1 1.1 0 0 0-.432-.432 1.1 1.1 0 0 0-.612-.168 1.18 1.18 0 0 0-1.044.6 1.16 1.16 0 0 0-.156.6q0 .324.156.6t.42.444q.276.156.624.156m1.596-2.016-.336-.396q.348-.348.72-.504.384-.168.9-.132l.108.708a2.9 2.9 0 0 0-.744.024q-.348.06-.648.3m4.956 4.716q-.6 0-1.092-.18a2.45 2.45 0 0 1-.852-.552 2.5 2.5 0 0 1-.54-.888 3.6 3.6 0 0 1-.192-1.224q0-.696.192-1.236.204-.54.54-.9.348-.372.804-.564.468-.192.984-.192.468 0 .876.156t.708.48q.3.312.468.804.18.492.18 1.164 0 .096-.012.204 0 .096-.012.192h-3.9q.024.528.18.924.156.384.408.636.252.24.576.36.336.12.708.12.288 0 .54-.06.252-.072.468-.204.228-.144.408-.348l.48.468q-.228.276-.528.468a2 2 0 0 1-.636.276 2.8 2.8 0 0 1-.756.096m-1.812-3.408h3.012q0-.384-.108-.684a1.4 1.4 0 0 0-.288-.528 1.1 1.1 0 0 0-.444-.336q-.252-.12-.576-.12-.288 0-.552.096a1.3 1.3 0 0 0-.468.312 1.8 1.8 0 0 0-.372.516 2.6 2.6 0 0 0-.204.744M45.752 84.284A5.9 5.9 0 0 1 43.88 83a5.6 5.6 0 0 1-1.176-1.776 5.5 5.5 0 0 1-.396-2.064q0-1.068.396-2.028a5.3 5.3 0 0 1 1.152-1.74 6 6 0 0 1 1.824-1.248l.3.996a5.3 5.3 0 0 0-1.056.732q-.456.42-.792.936a4.5 4.5 0 0 0-.504 1.116q-.168.6-.168 1.272t.18 1.284q.18.6.516 1.14.336.528.816.96t1.092.732zM48.08 83v-.948h1.38v-3.66h-1.32v-.948h2.52v4.608h1.26V83zm1.908-6.552a.77.77 0 0 1-.552-.216.75.75 0 0 1-.216-.528q0-.324.216-.54a.75.75 0 0 1 .552-.216q.312 0 .54.228.24.228.24.528t-.24.528a.76.76 0 0 1-.54.216M53.72 83v-5.556h1.2v.852q.204-.3.456-.516t.564-.336q.312-.132.672-.132.468 0 .864.24t.636.756q.24.504.24 1.344V83h-1.188v-3.336q0-.492-.108-.804t-.312-.456a.76.76 0 0 0-.468-.144q-.24 0-.48.108a1.6 1.6 0 0 0-.444.3q-.192.18-.312.456-.12.264-.12.6V83zm8.868.108q-.492 0-.852-.156a1.32 1.32 0 0 1-.564-.528q-.204-.36-.288-.936a8.3 8.3 0 0 1-.06-1.404l.156-3.984 1.224-.156.12-.012.012.108q-.06.084-.108.168a1.2 1.2 0 0 0-.06.288l-.12 1.548.048.132-.084 1.908q-.036.816.048 1.272.084.444.288.624.204.168.492.168.384 0 .684-.156.312-.156.612-.384l.264.888a3.3 3.3 0 0 1-.852.456 2.9 2.9 0 0 1-.96.156m-2.844-5.664h4.188l-.012.96h-4.176zm8.508 5.688q-.6 0-1.104-.192a2.55 2.55 0 0 1-.876-.552 2.6 2.6 0 0 1-.564-.912 3.5 3.5 0 0 1-.204-1.224q0-.696.204-1.236.204-.552.552-.924.36-.372.828-.576a2.6 2.6 0 0 1 1.02-.204q.468 0 .888.168.432.168.744.504.324.324.504.828.192.504.192 1.176v.276q0 .144-.012.252h-3.768q.024.432.168.756.144.312.36.516.228.204.516.3t.6.096q.276 0 .504-.048.24-.06.456-.18a1.5 1.5 0 0 0 .396-.324l.624.612q-.252.3-.564.504a2.5 2.5 0 0 1-.684.288q-.36.096-.78.096m-1.572-3.516h2.592q0-.336-.084-.588a1.2 1.2 0 0 0-.252-.432.9.9 0 0 0-.384-.264 1.3 1.3 0 0 0-.504-.096q-.264 0-.492.084-.216.084-.396.252t-.312.432q-.12.252-.168.612m7.212 5.496q-.576 0-1.044-.096a2.7 2.7 0 0 1-.804-.288 1.3 1.3 0 0 1-.492-.456 1.1 1.1 0 0 1-.168-.6q0-.312.144-.564t.384-.432a1.7 1.7 0 0 1 .528-.288l.528.24q-.192.12-.336.24t-.228.264a.85.85 0 0 0-.072.36q0 .18.12.312t.336.216.516.132.672.048q.492 0 .816-.096.324-.084.48-.252a.53.53 0 0 0 .168-.384.58.58 0 0 0-.096-.348q-.096-.12-.36-.18-.264-.072-.768-.072-.408 0-.78-.024a4 4 0 0 1-.672-.12 2.3 2.3 0 0 1-.528-.216 1.1 1.1 0 0 1-.36-.324.93.93 0 0 1-.12-.48q0-.36.216-.648.216-.3.54-.54l.54.336q-.108.12-.192.204a.8.8 0 0 0-.132.168.3.3 0 0 0-.048.18q0 .156.18.264t.576.156q.408.048 1.08.048.564 0 .936.12.384.108.6.312t.3.468q.096.252.096.564 0 .336-.144.648a1.55 1.55 0 0 1-.456.576q-.3.252-.792.396-.48.156-1.164.156m-.156-3.984q-.588 0-1.044-.252a2 2 0 0 1-.72-.696 1.9 1.9 0 0 1-.252-.972q0-.54.252-.972a1.9 1.9 0 0 1 .72-.696 2.05 2.05 0 0 1 1.044-.264q.6 0 1.056.264.456.252.708.696.264.432.264.972t-.264.972q-.252.432-.708.696a2.15 2.15 0 0 1-1.056.252m0-.9q.3 0 .528-.132a1 1 0 0 0 .36-.36q.132-.24.132-.528a.97.97 0 0 0-.504-.876 1 1 0 0 0-.516-.132 1 1 0 0 0-.504.132 1.1 1.1 0 0 0-.372.36 1 1 0 0 0-.132.516q0 .276.132.516.132.228.36.372.228.132.516.132m1.692-1.8-.456-.564q.348-.288.756-.432a2.2 2.2 0 0 1 .924-.12l.12.852a2.4 2.4 0 0 0-.72.012 1.34 1.34 0 0 0-.624.252m4.824 4.704q-.6 0-1.104-.192a2.55 2.55 0 0 1-.876-.552 2.6 2.6 0 0 1-.564-.912 3.5 3.5 0 0 1-.204-1.224q0-.696.204-1.236.204-.552.552-.924.36-.372.828-.576a2.6 2.6 0 0 1 1.02-.204q.468 0 .888.168.432.168.744.504.324.324.504.828.192.504.192 1.176v.276q0 .144-.012.252h-3.768q.024.432.168.756.144.312.36.516.228.204.516.3t.6.096q.276 0 .504-.048.24-.06.456-.18a1.5 1.5 0 0 0 .396-.324l.624.612q-.252.3-.564.504a2.5 2.5 0 0 1-.684.288q-.36.096-.78.096m-1.572-3.516h2.592q0-.336-.084-.588a1.2 1.2 0 0 0-.252-.432.9.9 0 0 0-.384-.264 1.3 1.3 0 0 0-.504-.096q-.264 0-.492.084-.216.084-.396.252t-.312.432q-.12.252-.168.612m5.508-2.172h1.236l-.024 1.584-.144-.132q.06-.36.228-.648.168-.3.408-.504.252-.204.552-.312.3-.12.624-.12.456 0 .828.156t.672.468l-.504.984-.048.108-.096-.048-.072-.192a.7.7 0 0 0-.18-.228q-.18-.12-.36-.18a1.2 1.2 0 0 0-.396-.06q-.288 0-.564.108a1.3 1.3 0 0 0-.48.312 1.6 1.6 0 0 0-.348.552q-.12.324-.12.792v2.928h-1.212zm6.396 6.84-.312-.972a4.7 4.7 0 0 0 1.092-.732q.48-.432.816-.96.336-.54.516-1.14.18-.612.18-1.284t-.18-1.272q-.168-.6-.504-1.116a4.4 4.4 0 0 0-.792-.936 5 5 0 0 0-1.044-.732l.3-.996q1.08.48 1.824 1.248a5.33 5.33 0 0 1 1.548 3.768q0 1.068-.408 2.064A5.5 5.5 0 0 1 92.456 83a5.9 5.9 0 0 1-1.872 1.284M150.11 83v-7h2.05c1.4 0 2.27.77 2.27 1.97s-.87 1.96-2.27 1.96h-1.11V83zm2.07-6.2h-1.13v2.33h1.13c.8 0 1.28-.43 1.28-1.18 0-.71-.48-1.15-1.28-1.15m4.637 6.34c-.99 0-1.66-.55-1.66-1.41 0-.76.58-1.3 1.65-1.48l1.7-.28v-.35c0-.7-.5-1.1-1.22-1.1-.58 0-1.05.27-1.36.7l-.64-.49c.44-.6 1.15-.97 2.03-.97 1.28 0 2.04.75 2.04 1.86V83h-.85v-.64c-.38.49-1.04.78-1.69.78m-.8-1.44c0 .43.35.74.94.74.67 0 1.22-.32 1.55-.86v-.99l-1.49.25c-.69.12-1 .43-1 .86m4.465 2.21c0-.51.25-.92.75-1.27a.91.91 0 0 1-.35-.72c0-.4.21-.73.6-.98-.44-.33-.7-.84-.7-1.4 0-.97.76-1.79 1.96-1.79.37 0 .7.08.97.21h1.87v.74h-1.09c.14.25.21.54.21.84 0 .96-.75 1.78-1.96 1.78-.25 0-.49-.04-.7-.1-.21.15-.33.33-.33.52 0 .21.11.36.42.36h1.44c1.33 0 1.95.65 1.95 1.55 0 1.06-1.06 1.85-2.57 1.85-1.49 0-2.47-.58-2.47-1.59m2.27-3.26c.73 0 1.15-.5 1.15-1.11 0-.62-.42-1.12-1.15-1.12-.75 0-1.16.5-1.16 1.12s.41 1.11 1.16 1.11m-1.44 3.16c0 .61.63.98 1.63.98 1.06 0 1.73-.42 1.73-1.08 0-.48-.27-.86-1.17-.86h-1.63c-.35.26-.56.56-.56.96m9.562-1.64c-.47.63-1.22 1.03-2.16 1.03-1.7 0-2.75-1.25-2.75-2.72 0-1.53.98-2.72 2.54-2.72 1.37 0 2.26.96 2.26 2.2 0 .2-.03.39-.06.53h-3.87c.03 1.21.8 1.94 1.88 1.94.65 0 1.2-.3 1.53-.75zm-2.39-3.69c-.83 0-1.41.49-1.59 1.36h3.02c-.03-.74-.54-1.36-1.43-1.36m6.706 2.83v-2.58h-.95v-.77h.95V76.7h.86v1.26h1.75v.77h-1.75v2.58c0 .79.4 1.01 1.01 1.01.33 0 .56-.04.75-.12v.76c-.24.1-.51.14-.87.14-1.12 0-1.75-.56-1.75-1.79m6.112-3.55c1.62 0 2.73 1.25 2.73 2.72s-1.11 2.72-2.73 2.72c-1.63 0-2.73-1.25-2.73-2.72s1.1-2.72 2.73-2.72m.01 4.64c1.05 0 1.82-.88 1.82-1.92 0-1.05-.77-1.92-1.82-1.92-1.08 0-1.85.87-1.85 1.92s.77 1.92 1.85 1.92m6.351-1.92c0-1.47 1.01-2.72 2.59-2.72.75 0 1.34.29 1.79.81v-.61h.85v7.5h-.85v-3.07c-.45.52-1.04.81-1.79.81-1.58 0-2.59-1.25-2.59-2.72m.89 0c0 1.07.73 1.92 1.79 1.92.71 0 1.32-.34 1.7-.94V79.5c-.39-.61-1-.94-1.7-.94-1.06 0-1.79.85-1.79 1.92m9.652.36v-2.88h.85v2.85c0 1.51-.87 2.39-2.24 2.39-1.36 0-2.23-.88-2.23-2.39v-2.85h.85v2.88c0 .99.53 1.56 1.39 1.56.84 0 1.38-.57 1.38-1.56m7.005 1.33c-.47.63-1.22 1.03-2.16 1.03-1.7 0-2.75-1.25-2.75-2.72 0-1.53.98-2.72 2.54-2.72 1.37 0 2.26.96 2.26 2.2 0 .2-.03.39-.06.53h-3.87c.03 1.21.8 1.94 1.88 1.94.65 0 1.2-.3 1.53-.75zm-2.39-3.69c-.83 0-1.41.49-1.59 1.36h3.02c-.03-.74-.54-1.36-1.43-1.36m3.721 4.52v-5.04h.85v.63c.37-.44.83-.73 1.47-.73.16 0 .31.02.43.06v.83c-.15-.04-.3-.06-.5-.06-.66 0-1.09.34-1.4.85V83zm5.94 1.22c-.35.84-.93 1.28-1.78 1.28-.34 0-.59-.05-.81-.16v-.76c.19.09.42.14.66.14.51 0 .91-.19 1.17-.81l.39-.92-2.18-5.03h.94l1.69 3.95 1.67-3.95h.9z"/><path fill="#fff" d="M149.5 94.5h303v25h-303z"/><path stroke="#e5e5e5" d="M149.5 94.5h303v25h-303z"/><path fill="#666" d="M158.18 110v-1.53h-2.7v-.51l2.85-4.2h.59v4.13h.8v.59h-.8V110zm-1.89-2.12h1.89v-2.86zm4.44 1.56q.54-.55.99-1t.8-.83q.36-.39.61-.73a3.2 3.2 0 0 0 .38-.68q.13-.34.13-.71 0-.32-.08-.54a.8.8 0 0 0-.23-.35.8.8 0 0 0-.34-.2 1.5 1.5 0 0 0-1.29.22 1.5 1.5 0 0 0-.37.35.8.8 0 0 0-.11.22.4.4 0 0 0-.01.15l-.04.05-.08-.05-.51-.4q.2-.39.5-.66t.68-.41a2.3 2.3 0 0 1 .81-.14q.53 0 .93.22.4.21.63.61t.23.95q0 .41-.15.8-.15.38-.41.75a7 7 0 0 1-.61.74q-.35.37-.75.77-.39.39-.81.82h2.32q.17 0 .24-.02a.3.3 0 0 0 .13-.08h.07v.71h-3.66z"/><path fill="#3a3a3a" d="M15.532 145.132q-.936 0-1.44-.42a1.38 1.38 0 0 1-.504-1.092q0-.444.216-.792.216-.36.588-.6.384-.252.888-.384a4.2 4.2 0 0 1 1.068-.132q.204 0 .408.012.216 0 .444.024.24.012.492.048l.024.66a4 4 0 0 0-.444-.048 8 8 0 0 0-.852-.048q-.432 0-.792.072a2.2 2.2 0 0 0-.624.216q-.264.144-.408.372a1 1 0 0 0-.144.552q0 .252.084.432a.8.8 0 0 0 .252.276q.156.096.36.144.216.048.468.048.468 0 .828-.144.372-.156.624-.444.264-.288.396-.708t.132-.96q0-.816-.192-1.272t-.576-.648q-.372-.192-.96-.192-.396 0-.78.156a1.95 1.95 0 0 0-.696.456l-.42-.552q.384-.384.888-.576a3 3 0 0 1 1.068-.192q.54 0 .984.132t.756.444q.324.3.492.816.18.516.18 1.296V145h-.936v-.84q-.156.3-.384.492-.216.192-.468.3-.252.096-.516.132a3 3 0 0 1-.504.048m4.332-.132v-5.484h.84v.972q.216-.336.504-.576a2.1 2.1 0 0 1 .636-.384q.348-.144.72-.144.456 0 .816.228t.576.732.216 1.332V145h-.84v-3.3q0-.576-.132-.912-.132-.348-.36-.492a.9.9 0 0 0-.516-.156q-.276 0-.564.12-.276.12-.516.348a1.8 1.8 0 0 0-.396.528 1.7 1.7 0 0 0-.144.708V145zm6 0v-5.484h.84v.972q.216-.336.504-.576a2.1 2.1 0 0 1 .636-.384q.348-.144.72-.144.456 0 .816.228t.576.732.216 1.332V145h-.84v-3.3q0-.576-.132-.912-.132-.348-.36-.492a.9.9 0 0 0-.516-.156q-.276 0-.564.12-.276.12-.516.348a1.8 1.8 0 0 0-.396.528 1.7 1.7 0 0 0-.144.708V145zm8.4.12q-.6 0-1.092-.18a2.45 2.45 0 0 1-.852-.552 2.5 2.5 0 0 1-.54-.888 3.6 3.6 0 0 1-.192-1.224q0-.696.192-1.236.204-.54.54-.9.348-.372.804-.564.468-.192.984-.192.468 0 .876.156t.708.48q.3.312.468.804.18.492.18 1.164 0 .096-.012.204 0 .096-.012.192h-3.9q.024.528.18.924.156.384.408.636.252.24.576.36.336.12.708.12.288 0 .54-.06.252-.072.468-.204.228-.144.408-.348l.48.468q-.228.276-.528.468a2 2 0 0 1-.636.276 2.8 2.8 0 0 1-.756.096m-1.812-3.408h3.012q0-.384-.108-.684a1.4 1.4 0 0 0-.288-.528 1.1 1.1 0 0 0-.444-.336q-.252-.12-.576-.12-.288 0-.552.096a1.3 1.3 0 0 0-.468.312 1.8 1.8 0 0 0-.372.516 2.6 2.6 0 0 0-.204.744m7.812 3.408q-.6 0-1.092-.18a2.45 2.45 0 0 1-.852-.552 2.5 2.5 0 0 1-.54-.888 3.6 3.6 0 0 1-.192-1.224q0-.696.192-1.236.204-.54.54-.9.348-.372.804-.564.468-.192.984-.192.468 0 .876.156t.708.48q.3.312.468.804.18.492.18 1.164 0 .096-.012.204 0 .096-.012.192h-3.9q.024.528.18.924.156.384.408.636.252.24.576.36.336.12.708.12.288 0 .54-.06.252-.072.468-.204.228-.144.408-.348l.48.468q-.228.276-.528.468a2 2 0 0 1-.636.276 2.8 2.8 0 0 1-.756.096m-1.812-3.408h3.012q0-.384-.108-.684a1.4 1.4 0 0 0-.288-.528 1.1 1.1 0 0 0-.444-.336q-.252-.12-.576-.12-.288 0-.552.096a1.3 1.3 0 0 0-.468.312 1.8 1.8 0 0 0-.372.516 2.6 2.6 0 0 0-.204.744M51.752 146.284A5.9 5.9 0 0 1 49.88 145a5.6 5.6 0 0 1-1.176-1.776 5.5 5.5 0 0 1-.396-2.064q0-1.068.396-2.028a5.3 5.3 0 0 1 1.152-1.74 6 6 0 0 1 1.824-1.248l.3.996a5.3 5.3 0 0 0-1.056.732q-.456.42-.792.936a4.5 4.5 0 0 0-.504 1.116q-.168.6-.168 1.272t.18 1.284q.18.6.516 1.14.336.528.816.96t1.092.732zM54.08 145v-.948h1.38v-3.66h-1.32v-.948h2.52v4.608h1.26V145zm1.908-6.552a.77.77 0 0 1-.552-.216.75.75 0 0 1-.216-.528q0-.324.216-.54a.75.75 0 0 1 .552-.216q.312 0 .54.228.24.228.24.528t-.24.528a.76.76 0 0 1-.54.216m5.748 6.684q-.444 0-.864-.18a2.3 2.3 0 0 1-.732-.552 2.6 2.6 0 0 1-.516-.912 4.3 4.3 0 0 1-.18-1.296q0-.744.18-1.284.192-.54.516-.888.324-.36.744-.528.42-.18.876-.18.324 0 .588.084.276.084.492.252t.348.42v-3.096h1.272v.108a.4.4 0 0 0-.084.156 1 1 0 0 0-.012.288v6.696q0 .192.012.396.024.192.108.384h-1.176a1.2 1.2 0 0 1-.084-.24 1 1 0 0 1-.024-.216v-.228a2.3 2.3 0 0 1-.384.444q-.216.18-.492.276t-.588.096m.204-.984q.324 0 .552-.132t.372-.384.216-.612.072-.816q0-.612-.132-1.044-.132-.444-.42-.672-.276-.24-.708-.24-.312 0-.552.132t-.408.384q-.156.24-.24.588a3.3 3.3 0 0 0-.084.78q0 .612.168 1.068.18.456.48.708.3.24.684.24m4.644 2.136-.312-.972a4.7 4.7 0 0 0 1.092-.732q.48-.432.816-.96.336-.54.516-1.14.18-.612.18-1.284t-.18-1.272q-.168-.6-.504-1.116a4.4 4.4 0 0 0-.792-.936 5 5 0 0 0-1.044-.732l.3-.996q1.08.48 1.824 1.248a5.33 5.33 0 0 1 1.548 3.768q0 1.068-.408 2.064A5.5 5.5 0 0 1 68.456 145a5.9 5.9 0 0 1-1.872 1.284M150.11 145v-7h3.76v.8h-2.82v2.24h2.42v.79h-2.42V145zm5.454-6.35c-.33 0-.6-.27-.6-.6a.6.6 0 0 1 .6-.59c.33 0 .59.27.59.59 0 .33-.26.6-.59.6m-.43 6.35v-5.04h.85V145zm2.647 0v-7.5h.85v7.5zm2.936-1.69v-2.58h-.95v-.77h.95v-1.26h.86v1.26h1.75v.77h-1.75v2.58c0 .79.4 1.01 1.01 1.01.33 0 .56-.04.75-.12v.76c-.24.1-.51.14-.87.14-1.12 0-1.75-.56-1.75-1.79m8.292.86c-.47.63-1.22 1.03-2.16 1.03-1.7 0-2.75-1.25-2.75-2.72 0-1.53.98-2.72 2.54-2.72 1.37 0 2.26.96 2.26 2.2 0 .2-.03.39-.06.53h-3.87c.03 1.21.8 1.94 1.88 1.94.65 0 1.2-.3 1.53-.75zm-2.39-3.69c-.83 0-1.41.49-1.59 1.36h3.02c-.03-.74-.54-1.36-1.43-1.36m3.72 4.52v-5.04h.85v.63c.37-.44.83-.73 1.47-.73.16 0 .31.02.43.06v.83c-.15-.04-.3-.06-.5-.06-.66 0-1.09.34-1.4.85V145zm8.97-5.24c1.62 0 2.73 1.25 2.73 2.72s-1.11 2.72-2.73 2.72c-1.63 0-2.73-1.25-2.73-2.72s1.1-2.72 2.73-2.72m.01 4.64c1.05 0 1.82-.88 1.82-1.92 0-1.05-.77-1.92-1.82-1.92-1.08 0-1.85.87-1.85 1.92s.77 1.92 1.85 1.92m4.087.6v-5.04h.85v.57c.41-.45.93-.77 1.68-.77 1.13 0 1.97.76 1.97 2.19V145h-.85v-3.02c0-.9-.51-1.42-1.29-1.42-.73 0-1.19.42-1.51.95V145zm10.996-5.84-1.2-1.66h1.38l1.03 1.66zm5.186 5.99c-1.01 0-1.7-.58-1.7-1.51 0-.76.59-1.33 1.67-1.51l1.54-.26v-.13c0-.53-.4-.87-.98-.87-.49 0-.87.23-1.14.6l-.93-.71c.45-.62 1.19-1 2.11-1 1.46 0 2.21.87 2.21 1.98V145h-1.27v-.49c-.32.39-.92.64-1.51.64m-.44-1.57c0 .34.27.56.7.56.58 0 1-.27 1.25-.67v-.71l-1.2.2c-.53.09-.75.31-.75.62m4.675 1.42v-5.04h1.27v.4c.35-.34.82-.6 1.49-.6 1.09 0 1.96.75 1.96 2.24v3h-1.28v-2.95c0-.67-.38-1.09-1-1.09-.64 0-.98.43-1.17.75V145zm6.162 0v-5.04h1.27v.4c.35-.34.82-.6 1.49-.6 1.09 0 1.96.75 1.96 2.24v3h-1.28v-2.95c0-.67-.38-1.09-1-1.09-.64 0-.98.43-1.17.75V145zm10.802-.82c-.47.63-1.25 1.02-2.2 1.02-1.79 0-2.8-1.25-2.8-2.72 0-1.49.94-2.72 2.59-2.72 1.4 0 2.32.95 2.32 2.27 0 .28-.04.54-.08.71h-3.53c.12.94.7 1.32 1.49 1.32.55 0 1.03-.24 1.3-.6zm-2.44-3.38c-.65 0-1.08.36-1.22 1.02h2.32c-.02-.51-.39-1.02-1.1-1.02m8.192 3.38c-.47.63-1.25 1.02-2.2 1.02-1.79 0-2.8-1.25-2.8-2.72 0-1.49.94-2.72 2.59-2.72 1.4 0 2.32.95 2.32 2.27 0 .28-.04.54-.08.71h-3.53c.12.94.7 1.32 1.49 1.32.55 0 1.03-.24 1.3-.6zm-2.44-3.38c-.65 0-1.08.36-1.22 1.02h2.32c-.02-.51-.39-1.02-1.1-1.02m5.821-1.64-1.2-1.66h1.38l1.03 1.66z"/><path fill="#fff" d="M149.5 156.5h303v25h-303z"/><path stroke="#e5e5e5" d="M149.5 156.5h303v25h-303z"/><path fill="#666" d="M155.72 172v-4.57h.7v.81q.18-.28.42-.48.24-.21.53-.32.29-.12.6-.12.38 0 .68.19t.48.61.18 1.11V172h-.7v-2.75q0-.48-.11-.76-.11-.29-.3-.41a.74.74 0 0 0-.43-.13q-.23 0-.47.1a1.5 1.5 0 0 0-.43.29q-.2.18-.33.44-.12.26-.12.59V172zm6.49.11q-.27 0-.51-.08a1.4 1.4 0 0 1-.44-.24 1.6 1.6 0 0 1-.33-.42 2.3 2.3 0 0 1-.22-.6 4 4 0 0 1-.07-.79l.01-2.55h.7v2.55q0 .43.08.73t.22.48q.15.18.34.26t.4.08q.24 0 .46-.09.22-.1.39-.29.18-.19.28-.49t.1-.71v-2.52h.7v3.86q0 .18.01.36a1.4 1.4 0 0 0 .09.35h-.69a1 1 0 0 1-.07-.23 3 3 0 0 1-.03-.24v-.23a1.6 1.6 0 0 1-.6.6q-.18.1-.39.15a1.5 1.5 0 0 1-.43.06m3.58-.11v-.58h1.35v-5.49h-1.29v-.58h2.02v6.07h1.34v.58zm5 0v-.58h1.35v-5.49h-1.29v-.58h2.02v6.07h1.34v.58z"/><path fill="#3a3a3a" d="M15.808 207.12q-.42 0-.828-.18-.396-.18-.732-.54a2.6 2.6 0 0 1-.516-.912 3.9 3.9 0 0 1-.192-1.284q0-.756.204-1.284.204-.54.54-.876.336-.348.744-.504.408-.168.828-.168.384 0 .684.12.312.12.54.336.24.204.372.492v-3.3h.912v.084a.36.36 0 0 0-.096.156 2 2 0 0 0-.012.288l.012 6.6q0 .216.012.432.024.204.108.42h-.852a1.3 1.3 0 0 1-.084-.288 4 4 0 0 1-.036-.276v-.288a2.3 2.3 0 0 1-.408.516 1.762 1.762 0 0 1-1.2.456m.132-.756q.396 0 .672-.156.276-.168.444-.456.168-.3.24-.684.084-.396.084-.84 0-.612-.156-1.092-.156-.492-.492-.768-.336-.288-.864-.288-.36 0-.648.144-.276.132-.468.396-.18.264-.276.636-.096.36-.096.816 0 .684.18 1.2t.528.804.852.288m6.324.756q-.6 0-1.092-.18a2.45 2.45 0 0 1-.852-.552 2.5 2.5 0 0 1-.54-.888 3.6 3.6 0 0 1-.192-1.224q0-.696.192-1.236.204-.54.54-.9.348-.372.804-.564.468-.192.984-.192.468 0 .876.156t.708.48q.3.312.468.804.18.492.18 1.164 0 .096-.012.204 0 .096-.012.192h-3.9q.024.528.18.924.156.384.408.636.252.24.576.36.336.12.708.12.288 0 .54-.06.252-.072.468-.204.228-.144.408-.348l.48.468q-.228.276-.528.468a2 2 0 0 1-.636.276 2.8 2.8 0 0 1-.756.096m-1.812-3.408h3.012q0-.384-.108-.684a1.4 1.4 0 0 0-.288-.528 1.1 1.1 0 0 0-.444-.336q-.252-.12-.576-.12-.288 0-.552.096a1.3 1.3 0 0 0-.468.312 1.8 1.8 0 0 0-.372.516 2.6 2.6 0 0 0-.204.744m5.268 5.292v-7.488h.876v1.08q.132-.42.372-.684a1.5 1.5 0 0 1 .576-.384q.336-.132.72-.132.456 0 .864.18.42.168.732.516.324.348.504.876.192.528.192 1.248t-.204 1.272a2.7 2.7 0 0 1-.528.924q-.324.36-.744.552a2.1 2.1 0 0 1-.84.18q-.324 0-.636-.108a1.8 1.8 0 0 1-.552-.288 2.5 2.5 0 0 1-.444-.468v2.724zm2.376-2.628q.288 0 .564-.096.276-.108.504-.348t.36-.648q.132-.42.132-1.032 0-.66-.168-1.116-.168-.468-.492-.72a1.3 1.3 0 0 0-.768-.276 1.4 1.4 0 0 0-.636.096q-.288.12-.516.396a2 2 0 0 0-.36.732q-.12.444-.12 1.08.012.384.084.696t.204.552q.132.228.312.384.18.144.408.228.228.072.492.072m5.436.756q-.936 0-1.44-.42a1.38 1.38 0 0 1-.504-1.092q0-.444.216-.792.216-.36.588-.6.384-.252.888-.384a4.2 4.2 0 0 1 1.068-.132q.204 0 .408.012.216 0 .444.024.24.012.492.048l.024.66a4 4 0 0 0-.444-.048 8 8 0 0 0-.852-.048q-.432 0-.792.072a2.2 2.2 0 0 0-.624.216q-.264.144-.408.372a1 1 0 0 0-.144.552q0 .252.084.432a.8.8 0 0 0 .252.276q.156.096.36.144.216.048.468.048.468 0 .828-.144.372-.156.624-.444.264-.288.396-.708t.132-.96q0-.816-.192-1.272t-.576-.648q-.372-.192-.96-.192-.396 0-.78.156a1.95 1.95 0 0 0-.696.456l-.42-.552q.384-.384.888-.576a3 3 0 0 1 1.068-.192q.54 0 .984.132t.756.444q.324.3.492.816.18.516.18 1.296V207h-.936v-.84q-.156.3-.384.492-.216.192-.468.3-.252.096-.516.132a3 3 0 0 1-.504.048m4.896-5.616h.9l-.036 1.596-.108-.18q.072-.372.252-.66t.432-.48a1.7 1.7 0 0 1 .552-.3q.3-.108.624-.108.432 0 .792.156.372.144.66.444l-.384.672-.048.108-.084-.048a.7.7 0 0 0-.072-.18.8.8 0 0 0-.204-.204 1.1 1.1 0 0 0-.36-.156 1.2 1.2 0 0 0-.36-.048q-.3 0-.6.12-.3.108-.552.348-.24.24-.384.612a2.5 2.5 0 0 0-.144.888v2.916h-.876zm8.16 5.568q-.528 0-.864-.18a1.2 1.2 0 0 1-.516-.552q-.18-.384-.24-.96-.048-.576-.024-1.368l.144-3.912.9-.108.12-.012.012.084q-.06.084-.108.168a1.2 1.2 0 0 0-.06.288l-.108 1.356.036.216-.084 1.98q-.036.912.048 1.416.084.492.3.684.216.18.576.18.396 0 .696-.156.312-.156.648-.396l.264.684q-.408.3-.84.444a2.8 2.8 0 0 1-.9.144m-2.748-5.568h3.948v.708H43.84zM49.456 207v-5.484h.792v.54q.132-.204.3-.348.18-.156.384-.24.216-.084.432-.084.24 0 .444.108a.87.87 0 0 1 .336.276q.144.18.192.42.108-.24.288-.42.192-.18.432-.276.252-.108.516-.108.276 0 .48.108a.9.9 0 0 1 .336.3q.132.18.192.444.06.252.048.552V207h-.792v-3.888q0-.504-.072-.732-.06-.228-.18-.288a.5.5 0 0 0-.264-.072q-.228 0-.432.216a1.7 1.7 0 0 0-.324.516q-.12.312-.12.624V207h-.804v-3.816q0-.684-.132-.912-.12-.228-.468-.228a.5.5 0 0 0-.276.096.9.9 0 0 0-.252.252q-.12.156-.192.396t-.072.552V207zm8.808.12q-.6 0-1.092-.18a2.45 2.45 0 0 1-.852-.552 2.5 2.5 0 0 1-.54-.888 3.6 3.6 0 0 1-.192-1.224q0-.696.192-1.236.204-.54.54-.9.348-.372.804-.564.468-.192.984-.192.468 0 .876.156t.708.48q.3.312.468.804.18.492.18 1.164 0 .096-.012.204 0 .096-.012.192h-3.9q.024.528.18.924.156.384.408.636.252.24.576.36.336.12.708.12.288 0 .54-.06.252-.072.468-.204.228-.144.408-.348l.48.468q-.228.276-.528.468a2 2 0 0 1-.636.276 2.8 2.8 0 0 1-.756.096m-1.812-3.408h3.012q0-.384-.108-.684a1.4 1.4 0 0 0-.288-.528 1.1 1.1 0 0 0-.444-.336q-.252-.12-.576-.12-.288 0-.552.096a1.3 1.3 0 0 0-.468.312 1.8 1.8 0 0 0-.372.516 2.6 2.6 0 0 0-.204.744M61.864 207v-5.484h.84v.972q.216-.336.504-.576a2.1 2.1 0 0 1 .636-.384q.348-.144.72-.144.456 0 .816.228t.576.732.216 1.332V207h-.84v-3.3q0-.576-.132-.912-.132-.348-.36-.492a.9.9 0 0 0-.516-.156q-.276 0-.564.12-.276.12-.516.348a1.8 1.8 0 0 0-.396.528 1.7 1.7 0 0 0-.144.708V207zm8.724.084q-.528 0-.864-.18a1.2 1.2 0 0 1-.516-.552q-.18-.384-.24-.96-.048-.576-.024-1.368l.144-3.912.9-.108.12-.012.012.084q-.06.084-.108.168a1.2 1.2 0 0 0-.06.288l-.108 1.356.036.216-.084 1.98q-.036.912.048 1.416.084.492.3.684.216.18.576.18.396 0 .696-.156.312-.156.648-.396l.264.684q-.408.3-.84.444a2.8 2.8 0 0 1-.9.144m-2.748-5.568h3.948v.708H67.84zM81.752 208.284A5.9 5.9 0 0 1 79.88 207a5.6 5.6 0 0 1-1.176-1.776 5.5 5.5 0 0 1-.396-2.064q0-1.068.396-2.028a5.3 5.3 0 0 1 1.152-1.74 6 6 0 0 1 1.824-1.248l.3.996a5.3 5.3 0 0 0-1.056.732q-.456.42-.792.936a4.5 4.5 0 0 0-.504 1.116q-.168.6-.168 1.272t.18 1.284q.18.6.516 1.14.336.528.816.96t1.092.732zm4.332-1.152a4.5 4.5 0 0 1-.948-.096 3.7 3.7 0 0 1-.84-.288 3 3 0 0 1-.708-.492l.552-1.008.072-.108.084.048q.024.096.06.204.036.096.168.24.288.252.66.408.372.144.912.144.372 0 .624-.084.264-.096.408-.252a.56.56 0 0 0 .144-.372.42.42 0 0 0-.084-.264.66.66 0 0 0-.228-.216 2 2 0 0 0-.408-.204 4.6 4.6 0 0 0-.612-.204 6.5 6.5 0 0 1-1.068-.408 2.1 2.1 0 0 1-.708-.564 1.2 1.2 0 0 1-.252-.768q0-.444.252-.78.264-.348.744-.552t1.14-.204q.36 0 .672.06.324.048.588.156.276.108.516.276.24.156.456.372l-.612.816-.072.096-.084-.072a.5.5 0 0 0-.06-.18.8.8 0 0 0-.168-.216 2 2 0 0 0-.576-.288 2.2 2.2 0 0 0-.636-.096q-.42 0-.744.144-.312.144-.312.432 0 .168.132.312.144.144.456.288.312.132.852.276.684.18 1.104.42.42.228.612.54.204.312.204.732 0 .468-.264.876-.252.396-.768.636t-1.26.24m6.504-.024q-.492 0-.852-.156a1.32 1.32 0 0 1-.564-.528q-.204-.36-.288-.936a8.3 8.3 0 0 1-.06-1.404l.156-3.984 1.224-.156.12-.012.012.108q-.06.084-.108.168a1.2 1.2 0 0 0-.06.288l-.12 1.548.048.132-.084 1.908q-.036.816.048 1.272.084.444.288.624.204.168.492.168.384 0 .684-.156.312-.156.612-.384l.264.888a3.3 3.3 0 0 1-.852.456 2.9 2.9 0 0 1-.96.156m-2.844-5.664h4.188l-.012.96h-4.176zm6.444 0h1.236l-.024 1.584-.144-.132q.06-.36.228-.648.168-.3.408-.504.252-.204.552-.312.3-.12.624-.12.456 0 .828.156t.672.468l-.504.984-.048.108-.096-.048-.072-.192a.7.7 0 0 0-.18-.228q-.18-.12-.36-.18a1.2 1.2 0 0 0-.396-.06q-.288 0-.564.108a1.3 1.3 0 0 0-.48.312 1.6 1.6 0 0 0-.348.552q-.12.324-.12.792v2.928h-1.212zM102.08 207v-.948h1.38v-3.66h-1.32v-.948h2.52v4.608h1.26V207zm1.908-6.552a.77.77 0 0 1-.552-.216.75.75 0 0 1-.216-.528q0-.324.216-.54a.75.75 0 0 1 .552-.216q.312 0 .54.228.24.228.24.528t-.24.528a.76.76 0 0 1-.54.216M107.72 207v-5.556h1.2v.852q.204-.3.456-.516t.564-.336q.312-.132.672-.132.468 0 .864.24t.636.756q.24.504.24 1.344V207h-1.188v-3.336q0-.492-.108-.804t-.312-.456a.76.76 0 0 0-.468-.144q-.24 0-.48.108a1.6 1.6 0 0 0-.444.3q-.192.18-.312.456-.12.264-.12.6V207zm8.172 2.112q-.576 0-1.044-.096a2.7 2.7 0 0 1-.804-.288 1.3 1.3 0 0 1-.492-.456 1.1 1.1 0 0 1-.168-.6q0-.312.144-.564t.384-.432a1.7 1.7 0 0 1 .528-.288l.528.24q-.192.12-.336.24t-.228.264a.85.85 0 0 0-.072.36q0 .18.12.312t.336.216.516.132.672.048q.492 0 .816-.096.324-.084.48-.252a.53.53 0 0 0 .168-.384.58.58 0 0 0-.096-.348q-.096-.12-.36-.18-.264-.072-.768-.072-.408 0-.78-.024a4 4 0 0 1-.672-.12 2.3 2.3 0 0 1-.528-.216 1.1 1.1 0 0 1-.36-.324.93.93 0 0 1-.12-.48q0-.36.216-.648.216-.3.54-.54l.54.336q-.108.12-.192.204a.8.8 0 0 0-.132.168.3.3 0 0 0-.048.18q0 .156.18.264t.576.156q.408.048 1.08.048.564 0 .936.12.384.108.6.312t.3.468q.096.252.096.564 0 .336-.144.648a1.55 1.55 0 0 1-.456.576q-.3.252-.792.396-.48.156-1.164.156m-.156-3.984q-.588 0-1.044-.252a2 2 0 0 1-.72-.696 1.9 1.9 0 0 1-.252-.972q0-.54.252-.972a1.9 1.9 0 0 1 .72-.696 2.05 2.05 0 0 1 1.044-.264q.6 0 1.056.264.456.252.708.696.264.432.264.972t-.264.972q-.252.432-.708.696a2.15 2.15 0 0 1-1.056.252m0-.9q.3 0 .528-.132a1 1 0 0 0 .36-.36q.132-.24.132-.528a.97.97 0 0 0-.504-.876 1 1 0 0 0-.516-.132 1 1 0 0 0-.504.132 1.1 1.1 0 0 0-.372.36 1 1 0 0 0-.132.516q0 .276.132.516.132.228.36.372.228.132.516.132m1.692-1.8-.456-.564q.348-.288.756-.432a2.2 2.2 0 0 1 .924-.12l.12.852a2.4 2.4 0 0 0-.72.012 1.34 1.34 0 0 0-.624.252m3.156 5.856-.312-.972a4.7 4.7 0 0 0 1.092-.732q.48-.432.816-.96.336-.54.516-1.14.18-.612.18-1.284t-.18-1.272q-.168-.6-.504-1.116a4.4 4.4 0 0 0-.792-.936 5 5 0 0 0-1.044-.732l.3-.996q1.08.48 1.824 1.248a5.33 5.33 0 0 1 1.548 3.768q0 1.068-.408 2.064a5.5 5.5 0 0 1-1.164 1.776 5.9 5.9 0 0 1-1.872 1.284M150.11 207v-7h3.76v.8h-2.82v2.24h2.42v.79h-2.42V207zm5.454-6.35c-.33 0-.6-.27-.6-.6a.6.6 0 0 1 .6-.59c.33 0 .59.27.59.59 0 .33-.26.6-.59.6m-.43 6.35v-5.04h.85V207zm2.647 0v-7.5h.85v7.5zm2.936-1.69v-2.58h-.95v-.77h.95v-1.26h.86v1.26h1.75v.77h-1.75v2.58c0 .79.4 1.01 1.01 1.01.33 0 .56-.04.75-.12v.76c-.24.1-.51.14-.87.14-1.12 0-1.75-.56-1.75-1.79m8.292.86c-.47.63-1.22 1.03-2.16 1.03-1.7 0-2.75-1.25-2.75-2.72 0-1.53.98-2.72 2.54-2.72 1.37 0 2.26.96 2.26 2.2 0 .2-.03.39-.06.53h-3.87c.03 1.21.8 1.94 1.88 1.94.65 0 1.2-.3 1.53-.75zm-2.39-3.69c-.83 0-1.41.49-1.59 1.36h3.02c-.03-.74-.54-1.36-1.43-1.36m3.72 4.52v-5.04h.85v.63c.37-.44.83-.73 1.47-.73.16 0 .31.02.43.06v.83c-.15-.04-.3-.06-.5-.06-.66 0-1.09.34-1.4.85V207zm8.97-5.24c1.62 0 2.73 1.25 2.73 2.72s-1.11 2.72-2.73 2.72c-1.63 0-2.73-1.25-2.73-2.72s1.1-2.72 2.73-2.72m.01 4.64c1.05 0 1.82-.88 1.82-1.92 0-1.05-.77-1.92-1.82-1.92-1.08 0-1.85.87-1.85 1.92s.77 1.92 1.85 1.92m4.087.6v-5.04h.85v.57c.41-.45.93-.77 1.68-.77 1.13 0 1.97.76 1.97 2.19V207h-.85v-3.02c0-.9-.51-1.42-1.29-1.42-.73 0-1.19.42-1.51.95V207zm10.996-5.84-1.2-1.66h1.38l1.03 1.66zm3.406 3.32c0-1.47.97-2.72 2.56-2.72.68 0 1.17.21 1.56.6v-2.86h1.28v7.5h-1.28v-.4c-.39.39-.88.6-1.56.6-1.59 0-2.56-1.25-2.56-2.72m1.33 0c0 .88.55 1.52 1.41 1.52.57 0 1.04-.24 1.38-.7v-1.64c-.34-.46-.81-.7-1.38-.7-.86 0-1.41.64-1.41 1.52m10.233 1.7c-.47.63-1.25 1.02-2.2 1.02-1.79 0-2.8-1.25-2.8-2.72 0-1.49.94-2.72 2.59-2.72 1.4 0 2.32.95 2.32 2.27 0 .28-.04.54-.08.71h-3.53c.12.94.7 1.32 1.49 1.32.55 0 1.03-.24 1.3-.6zm-2.44-3.38c-.65 0-1.08.36-1.22 1.02h2.32c-.02-.51-.39-1.02-1.1-1.02m3.591 6.66v-7.5h1.27v.41c.39-.39.88-.61 1.57-.61 1.6 0 2.56 1.25 2.56 2.72s-.96 2.72-2.56 2.72c-.69 0-1.18-.22-1.57-.61v2.87zm2.66-6.5c-.59 0-1.07.26-1.39.73v1.58c.34.48.81.73 1.39.73.86 0 1.42-.64 1.42-1.52s-.56-1.52-1.42-1.52m5.205 4.19c-1.01 0-1.7-.58-1.7-1.51 0-.76.59-1.33 1.67-1.51l1.54-.26v-.13c0-.53-.4-.87-.98-.87-.49 0-.87.23-1.14.6l-.93-.71c.45-.62 1.19-1 2.11-1 1.46 0 2.21.87 2.21 1.98V207h-1.27v-.49c-.32.39-.92.64-1.51.64m-.44-1.57c0 .34.27.56.7.56.58 0 1-.27 1.25-.67v-.71l-1.2.2c-.53.09-.75.31-.75.62m4.674 1.42v-5.04h1.27v.5c.33-.34.76-.6 1.33-.6.17 0 .32.03.44.07v1.25c-.16-.04-.33-.07-.56-.07-.62 0-1.02.34-1.21.66V207zm4.715-1.84v-2.06h-.94v-1.14h.94v-1.26h1.28v1.26h1.54v1.14h-1.54v2.06c0 .56.3.78.8.78.35 0 .58-.04.75-.11v1.11c-.25.11-.55.16-.97.16-1.26 0-1.86-.71-1.86-1.94m8.5 1.02c-.47.63-1.25 1.02-2.2 1.02-1.79 0-2.8-1.25-2.8-2.72 0-1.49.94-2.72 2.59-2.72 1.4 0 2.32.95 2.32 2.27 0 .28-.04.54-.08.71h-3.53c.12.94.7 1.32 1.49 1.32.55 0 1.03-.24 1.3-.6zm-2.44-3.38c-.65 0-1.08.36-1.22 1.02h2.32c-.02-.51-.39-1.02-1.1-1.02m3.591 4.2v-5.04h1.27v.38c.34-.33.77-.58 1.39-.58.64 0 1.2.28 1.53.82.36-.44.84-.82 1.69-.82 1.04 0 1.86.72 1.86 2.14v3.1h-1.28v-3.05c0-.61-.33-.99-.9-.99-.55 0-.85.38-1.05.72.01.07.01.14.01.22v3.1h-1.28v-3.05c0-.61-.33-.99-.9-.99-.58 0-.88.43-1.07.75V207zm13.829-.82c-.47.63-1.25 1.02-2.2 1.02-1.79 0-2.8-1.25-2.8-2.72 0-1.49.94-2.72 2.59-2.72 1.4 0 2.32.95 2.32 2.27 0 .28-.04.54-.08.71h-3.53c.12.94.7 1.32 1.49 1.32.55 0 1.03-.24 1.3-.6zm-2.44-3.38c-.65 0-1.08.36-1.22 1.02h2.32c-.02-.51-.39-1.02-1.1-1.02m3.591 4.2v-5.04h1.27v.4c.35-.34.82-.6 1.49-.6 1.09 0 1.96.75 1.96 2.24v3h-1.28v-2.95c0-.67-.38-1.09-1-1.09-.64 0-.98.43-1.17.75V207zm6.482-1.84v-2.06h-.94v-1.14h.94v-1.26h1.28v1.26h1.54v1.14h-1.54v2.06c0 .56.3.78.8.78.35 0 .58-.04.75-.11v1.11c-.25.11-.55.16-.97.16-1.26 0-1.86-.71-1.86-1.94m6.187-4-1.2-1.66h1.38l1.03 1.66z"/><path fill="#fff" d="M149.5 218.5h303v25h-303z"/><path stroke="#e5e5e5" d="M149.5 218.5h303v25h-303z"/><path fill="#161616" d="M156.55 234q.29-.96.59-1.88.31-.93.63-1.85.33-.92.68-1.84h-2.66v-.66h3.53v.39q-.28.72-.55 1.44a54 54 0 0 0-1 2.92q-.22.73-.43 1.48zm5.94.11q-.57 0-1.06-.25a2.1 2.1 0 0 1-.79-.71l.56-.42.08-.06.04.05a.3.3 0 0 0 .02.15q.04.07.14.2.2.22.44.33.25.1.61.1.24 0 .46-.1.22-.11.38-.3.17-.19.27-.47t.1-.62q0-.35-.1-.62a1.3 1.3 0 0 0-.28-.47 1.14 1.14 0 0 0-.4-.29q-.23-.1-.5-.1-.21 0-.43.07a1.6 1.6 0 0 0-.4.2q-.18.13-.34.32l-.44-.18.21-3.17h3.16v.63h-2.57l-.1 1.79q.17-.08.33-.13.17-.06.34-.08.18-.03.35-.03.41 0 .75.15.34.14.59.42.26.27.4.66.14.38.14.86 0 .64-.26 1.11a1.84 1.84 0 0 1-.7.71q-.44.25-1 .25"/><path fill="#3a3a3a" d="M15.532 269.132q-.936 0-1.44-.42a1.38 1.38 0 0 1-.504-1.092q0-.444.216-.792.216-.36.588-.6.384-.252.888-.384a4.2 4.2 0 0 1 1.068-.132q.204 0 .408.012.216 0 .444.024.24.012.492.048l.024.66a4 4 0 0 0-.444-.048 8 8 0 0 0-.852-.048q-.432 0-.792.072a2.2 2.2 0 0 0-.624.216q-.264.144-.408.372a1 1 0 0 0-.144.552q0 .252.084.432a.8.8 0 0 0 .252.276q.156.096.36.144.216.048.468.048.468 0 .828-.144.372-.156.624-.444.264-.288.396-.708t.132-.96q0-.816-.192-1.272t-.576-.648q-.372-.192-.96-.192-.396 0-.78.156a1.95 1.95 0 0 0-.696.456l-.42-.552q.384-.384.888-.576a3 3 0 0 1 1.068-.192q.54 0 .984.132t.756.444q.324.3.492.816.18.516.18 1.296V269h-.936v-.84q-.156.3-.384.492-.216.192-.468.3-.252.096-.516.132a3 3 0 0 1-.504.048m6.888 0q-.6 0-1.104-.216a2.7 2.7 0 0 1-.876-.6 2.8 2.8 0 0 1-.564-.9 3.2 3.2 0 0 1-.204-1.152q0-.612.204-1.128.204-.528.564-.912a2.7 2.7 0 0 1 .876-.6q.504-.216 1.092-.216.672 0 1.2.276.54.264.876.744l-.54.528-.084.084-.06-.06a.36.36 0 0 0-.048-.18.9.9 0 0 0-.18-.228 1.5 1.5 0 0 0-.564-.336 2.3 2.3 0 0 0-.696-.096q-.348 0-.66.144a1.8 1.8 0 0 0-.564.42q-.24.264-.384.648a2.4 2.4 0 0 0-.144.852q0 .468.144.864.144.384.396.672t.6.456q.36.156.768.156.276 0 .528-.072.252-.084.48-.228.228-.156.42-.372l.504.588a2.7 2.7 0 0 1-.912.648 2.6 2.6 0 0 1-1.068.216m5.112 0q-.936 0-1.44-.42a1.38 1.38 0 0 1-.504-1.092q0-.444.216-.792.216-.36.588-.6.384-.252.888-.384a4.2 4.2 0 0 1 1.068-.132q.204 0 .408.012.216 0 .444.024.24.012.492.048l.024.66a4 4 0 0 0-.444-.048 8 8 0 0 0-.852-.048q-.432 0-.792.072a2.2 2.2 0 0 0-.624.216q-.264.144-.408.372a1 1 0 0 0-.144.552q0 .252.084.432a.8.8 0 0 0 .252.276q.156.096.36.144.216.048.468.048.468 0 .828-.144.372-.156.624-.444.264-.288.396-.708t.132-.96q0-.816-.192-1.272t-.576-.648q-.372-.192-.96-.192-.396 0-.78.156a1.95 1.95 0 0 0-.696.456l-.42-.552q.384-.384.888-.576a3 3 0 0 1 1.068-.192q.54 0 .984.132t.756.444q.324.3.492.816.18.516.18 1.296V269h-.936v-.84q-.156.3-.384.492-.216.192-.468.3-.252.096-.516.132a3 3 0 0 1-.504.048m6.276-.012q-.42 0-.828-.18-.396-.18-.732-.54a2.6 2.6 0 0 1-.516-.912 3.9 3.9 0 0 1-.192-1.284q0-.756.204-1.284.204-.54.54-.876.336-.348.744-.504.408-.168.828-.168.384 0 .684.12.312.12.54.336.24.204.372.492v-3.3h.912v.084a.36.36 0 0 0-.096.156 2 2 0 0 0-.012.288l.012 6.6q0 .216.012.432.024.204.108.42h-.852a1.3 1.3 0 0 1-.084-.288 4 4 0 0 1-.036-.276v-.288a2.3 2.3 0 0 1-.408.516 1.762 1.762 0 0 1-1.2.456m.132-.756q.396 0 .672-.156.276-.168.444-.456.168-.3.24-.684.084-.396.084-.84 0-.612-.156-1.092-.156-.492-.492-.768-.336-.288-.864-.288-.36 0-.648.144-.276.132-.468.396-.18.264-.276.636-.096.36-.096.816 0 .684.18 1.2t.528.804.852.288m6.324.756q-.6 0-1.092-.18a2.45 2.45 0 0 1-.852-.552 2.5 2.5 0 0 1-.54-.888 3.6 3.6 0 0 1-.192-1.224q0-.696.192-1.236.204-.54.54-.9.348-.372.804-.564.468-.192.984-.192.468 0 .876.156t.708.48q.3.312.468.804.18.492.18 1.164 0 .096-.012.204 0 .096-.012.192h-3.9q.024.528.18.924.156.384.408.636.252.24.576.36.336.12.708.12.288 0 .54-.06.252-.072.468-.204.228-.144.408-.348l.48.468q-.228.276-.528.468a2 2 0 0 1-.636.276 2.8 2.8 0 0 1-.756.096m-1.812-3.408h3.012q0-.384-.108-.684a1.4 1.4 0 0 0-.288-.528 1.1 1.1 0 0 0-.444-.336q-.252-.12-.576-.12-.288 0-.552.096a1.3 1.3 0 0 0-.468.312 1.8 1.8 0 0 0-.372.516 2.6 2.6 0 0 0-.204.744m1.584-2.796-.456-.312 1.008-1.788.66.48zm3.42 6.084v-5.484h.792v.54q.132-.204.3-.348.18-.156.384-.24.216-.084.432-.084.24 0 .444.108a.87.87 0 0 1 .336.276q.144.18.192.42.108-.24.288-.42.192-.18.432-.276.252-.108.516-.108.276 0 .48.108a.9.9 0 0 1 .336.3q.132.18.192.444.06.252.048.552V269h-.792v-3.888q0-.504-.072-.732-.06-.228-.18-.288a.5.5 0 0 0-.264-.072q-.228 0-.432.216a1.7 1.7 0 0 0-.324.516q-.12.312-.12.624V269h-.804v-3.816q0-.684-.132-.912-.12-.228-.468-.228a.5.5 0 0 0-.276.096.9.9 0 0 0-.252.252q-.12.156-.192.396t-.072.552V269zm6.744 0v-.696h1.404v-4.092h-1.332v-.696h2.196v4.788h1.284V269zm1.788-6.636a.6.6 0 0 1-.432-.18.6.6 0 0 1-.18-.432q0-.264.168-.444.18-.18.444-.18.252 0 .432.192.192.18.192.432a.57.57 0 0 1-.192.432.6.6 0 0 1-.432.18m6.276 6.756q-.6 0-1.092-.18a2.45 2.45 0 0 1-.852-.552 2.5 2.5 0 0 1-.54-.888 3.6 3.6 0 0 1-.192-1.224q0-.696.192-1.236.204-.54.54-.9.348-.372.804-.564.468-.192.984-.192.468 0 .876.156t.708.48q.3.312.468.804.18.492.18 1.164 0 .096-.012.204 0 .096-.012.192h-3.9q.024.528.18.924.156.384.408.636.252.24.576.36.336.12.708.12.288 0 .54-.06.252-.072.468-.204.228-.144.408-.348l.48.468q-.228.276-.528.468a2 2 0 0 1-.636.276 2.8 2.8 0 0 1-.756.096m-1.812-3.408h3.012q0-.384-.108-.684a1.4 1.4 0 0 0-.288-.528 1.1 1.1 0 0 0-.444-.336q-.252-.12-.576-.12-.288 0-.552.096a1.3 1.3 0 0 0-.468.312 1.8 1.8 0 0 0-.372.516 2.6 2.6 0 0 0-.204.744M69.752 270.284A5.9 5.9 0 0 1 67.88 269a5.6 5.6 0 0 1-1.176-1.776 5.5 5.5 0 0 1-.396-2.064q0-1.068.396-2.028a5.3 5.3 0 0 1 1.152-1.74 6 6 0 0 1 1.824-1.248l.3.996a5.3 5.3 0 0 0-1.056.732q-.456.42-.792.936a4.5 4.5 0 0 0-.504 1.116q-.168.6-.168 1.272t.18 1.284q.18.6.516 1.14.336.528.816.96t1.092.732zm4.332-1.152a4.5 4.5 0 0 1-.948-.096 3.7 3.7 0 0 1-.84-.288 3 3 0 0 1-.708-.492l.552-1.008.072-.108.084.048q.024.096.06.204.036.096.168.24.288.252.66.408.372.144.912.144.372 0 .624-.084.264-.096.408-.252a.56.56 0 0 0 .144-.372.42.42 0 0 0-.084-.264.66.66 0 0 0-.228-.216 2 2 0 0 0-.408-.204 4.6 4.6 0 0 0-.612-.204 6.5 6.5 0 0 1-1.068-.408 2.1 2.1 0 0 1-.708-.564 1.2 1.2 0 0 1-.252-.768q0-.444.252-.78.264-.348.744-.552t1.14-.204q.36 0 .672.06.324.048.588.156.276.108.516.276.24.156.456.372l-.612.816-.072.096-.084-.072a.5.5 0 0 0-.06-.18.8.8 0 0 0-.168-.216 2 2 0 0 0-.576-.288 2.2 2.2 0 0 0-.636-.096q-.42 0-.744.144-.312.144-.312.432 0 .168.132.312.144.144.456.288.312.132.852.276.684.18 1.104.42.42.228.612.54.204.312.204.732 0 .468-.264.876-.252.396-.768.636t-1.26.24m6.504-.024q-.492 0-.852-.156a1.32 1.32 0 0 1-.564-.528q-.204-.36-.288-.936a8.3 8.3 0 0 1-.06-1.404l.156-3.984 1.224-.156.12-.012.012.108q-.06.084-.108.168a1.2 1.2 0 0 0-.06.288l-.12 1.548.048.132-.084 1.908q-.036.816.048 1.272.084.444.288.624.204.168.492.168.384 0 .684-.156.312-.156.612-.384l.264.888a3.3 3.3 0 0 1-.852.456 2.9 2.9 0 0 1-.96.156m-2.844-5.664h4.188l-.012.96h-4.176zm6.444 0h1.236l-.024 1.584-.144-.132q.06-.36.228-.648.168-.3.408-.504.252-.204.552-.312.3-.12.624-.12.456 0 .828.156t.672.468l-.504.984-.048.108-.096-.048-.072-.192a.7.7 0 0 0-.18-.228q-.18-.12-.36-.18a1.2 1.2 0 0 0-.396-.06q-.288 0-.564.108a1.3 1.3 0 0 0-.48.312 1.6 1.6 0 0 0-.348.552q-.12.324-.12.792v2.928h-1.212zM90.08 269v-.948h1.38v-3.66h-1.32v-.948h2.52v4.608h1.26V269zm1.908-6.552a.77.77 0 0 1-.552-.216.75.75 0 0 1-.216-.528q0-.324.216-.54a.75.75 0 0 1 .552-.216q.312 0 .54.228.24.228.24.528t-.24.528a.76.76 0 0 1-.54.216M95.72 269v-5.556h1.2v.852q.204-.3.456-.516t.564-.336q.312-.132.672-.132.468 0 .864.24t.636.756q.24.504.24 1.344V269h-1.188v-3.336q0-.492-.108-.804t-.312-.456a.76.76 0 0 0-.468-.144q-.24 0-.48.108a1.6 1.6 0 0 0-.444.3q-.192.18-.312.456-.12.264-.12.6V269zm8.172 2.112q-.576 0-1.044-.096a2.7 2.7 0 0 1-.804-.288 1.3 1.3 0 0 1-.492-.456 1.1 1.1 0 0 1-.168-.6q0-.312.144-.564t.384-.432a1.7 1.7 0 0 1 .528-.288l.528.24q-.192.12-.336.24t-.228.264a.85.85 0 0 0-.072.36q0 .18.12.312t.336.216.516.132.672.048q.492 0 .816-.096.324-.084.48-.252a.53.53 0 0 0 .168-.384.58.58 0 0 0-.096-.348q-.096-.12-.36-.18-.264-.072-.768-.072-.408 0-.78-.024a4 4 0 0 1-.672-.12 2.3 2.3 0 0 1-.528-.216 1.1 1.1 0 0 1-.36-.324.93.93 0 0 1-.12-.48q0-.36.216-.648.216-.3.54-.54l.54.336q-.108.12-.192.204a.8.8 0 0 0-.132.168.3.3 0 0 0-.048.18q0 .156.18.264t.576.156q.408.048 1.08.048.564 0 .936.12.384.108.6.312t.3.468q.096.252.096.564 0 .336-.144.648a1.55 1.55 0 0 1-.456.576q-.3.252-.792.396-.48.156-1.164.156m-.156-3.984q-.588 0-1.044-.252a2 2 0 0 1-.72-.696 1.9 1.9 0 0 1-.252-.972q0-.54.252-.972a1.9 1.9 0 0 1 .72-.696 2.05 2.05 0 0 1 1.044-.264q.6 0 1.056.264.456.252.708.696.264.432.264.972t-.264.972q-.252.432-.708.696a2.15 2.15 0 0 1-1.056.252m0-.9q.3 0 .528-.132a1 1 0 0 0 .36-.36q.132-.24.132-.528a.97.97 0 0 0-.504-.876 1 1 0 0 0-.516-.132 1 1 0 0 0-.504.132 1.1 1.1 0 0 0-.372.36 1 1 0 0 0-.132.516q0 .276.132.516.132.228.36.372.228.132.516.132m1.692-1.8-.456-.564q.348-.288.756-.432a2.2 2.2 0 0 1 .924-.12l.12.852a2.4 2.4 0 0 0-.72.012 1.34 1.34 0 0 0-.624.252m3.156 5.856-.312-.972a4.7 4.7 0 0 0 1.092-.732q.48-.432.816-.96.336-.54.516-1.14.18-.612.18-1.284t-.18-1.272q-.168-.6-.504-1.116a4.4 4.4 0 0 0-.792-.936 5 5 0 0 0-1.044-.732l.3-.996q1.08.48 1.824 1.248a5.33 5.33 0 0 1 1.548 3.768q0 1.068-.408 2.064a5.5 5.5 0 0 1-1.164 1.776 5.9 5.9 0 0 1-1.872 1.284M150.11 269v-7h3.76v.8h-2.82v2.24h2.42v.79h-2.42V269zm5.454-6.35c-.33 0-.6-.27-.6-.6a.6.6 0 0 1 .6-.59c.33 0 .59.27.59.59 0 .33-.26.6-.59.6m-.43 6.35v-5.04h.85V269zm2.647 0v-7.5h.85v7.5zm2.936-1.69v-2.58h-.95v-.77h.95v-1.26h.86v1.26h1.75v.77h-1.75v2.58c0 .79.4 1.01 1.01 1.01.33 0 .56-.04.75-.12v.76c-.24.1-.51.14-.87.14-1.12 0-1.75-.56-1.75-1.79m8.292.86c-.47.63-1.22 1.03-2.16 1.03-1.7 0-2.75-1.25-2.75-2.72 0-1.53.98-2.72 2.54-2.72 1.37 0 2.26.96 2.26 2.2 0 .2-.03.39-.06.53h-3.87c.03 1.21.8 1.94 1.88 1.94.65 0 1.2-.3 1.53-.75zm-2.39-3.69c-.83 0-1.41.49-1.59 1.36h3.02c-.03-.74-.54-1.36-1.43-1.36m3.72 4.52v-5.04h.85v.63c.37-.44.83-.73 1.47-.73.16 0 .31.02.43.06v.83c-.15-.04-.3-.06-.5-.06-.66 0-1.09.34-1.4.85V269zm8.97-5.24c1.62 0 2.73 1.25 2.73 2.72s-1.11 2.72-2.73 2.72c-1.63 0-2.73-1.25-2.73-2.72s1.1-2.72 2.73-2.72m.01 4.64c1.05 0 1.82-.88 1.82-1.92 0-1.05-.77-1.92-1.82-1.92-1.08 0-1.85.87-1.85 1.92s.77 1.92 1.85 1.92m4.087.6v-5.04h.85v.57c.41-.45.93-.77 1.68-.77 1.13 0 1.97.76 1.97 2.19V269h-.85v-3.02c0-.9-.51-1.42-1.29-1.42-.73 0-1.19.42-1.51.95V269zm10.996-5.84-1.2-1.66h1.38l1.03 1.66zm5.186 5.99c-1.01 0-1.7-.58-1.7-1.51 0-.76.59-1.33 1.67-1.51l1.54-.26v-.13c0-.53-.4-.87-.98-.87-.49 0-.87.23-1.14.6l-.93-.71c.45-.62 1.19-1 2.11-1 1.46 0 2.21.87 2.21 1.98V269h-1.27v-.49c-.32.39-.92.64-1.51.64m-.44-1.57c0 .34.27.56.7.56.58 0 1-.27 1.25-.67v-.71l-1.2.2c-.53.09-.75.31-.75.62m7.095.42c.5 0 .9-.23 1.14-.58l.99.76c-.47.62-1.21 1.02-2.13 1.02-1.74 0-2.78-1.25-2.78-2.72s1.04-2.72 2.78-2.72c.92 0 1.66.4 2.13 1.02l-.99.76c-.24-.35-.64-.58-1.16-.58-.83 0-1.44.64-1.44 1.52 0 .89.61 1.52 1.46 1.52m4.41 1.15c-1.01 0-1.7-.58-1.7-1.51 0-.76.59-1.33 1.67-1.51l1.54-.26v-.13c0-.53-.4-.87-.98-.87-.49 0-.87.23-1.14.6l-.93-.71c.45-.62 1.19-1 2.11-1 1.46 0 2.21.87 2.21 1.98V269h-1.27v-.49c-.32.39-.92.64-1.51.64m-.44-1.57c0 .34.27.56.7.56.58 0 1-.27 1.25-.67v-.71l-1.2.2c-.53.09-.75.31-.75.62m4.314-1.1c0-1.47.97-2.72 2.56-2.72.68 0 1.17.21 1.56.6v-2.86h1.28v7.5h-1.28v-.4c-.39.39-.88.6-1.56.6-1.59 0-2.56-1.25-2.56-2.72m1.33 0c0 .88.55 1.52 1.41 1.52.57 0 1.04-.24 1.38-.7v-1.64c-.34-.46-.81-.7-1.38-.7-.86 0-1.41.64-1.41 1.52m10.232 1.7c-.47.63-1.25 1.02-2.2 1.02-1.79 0-2.8-1.25-2.8-2.72 0-1.49.94-2.72 2.59-2.72 1.4 0 2.32.95 2.32 2.27 0 .28-.04.54-.08.71h-3.53c.12.94.7 1.32 1.49 1.32.55 0 1.03-.24 1.3-.6zm-2.44-3.38c-.65 0-1.08.36-1.22 1.02h2.32c-.02-.51-.39-1.02-1.1-1.02m3.591 4.2v-5.04h1.27v.38c.34-.33.77-.58 1.39-.58.64 0 1.2.28 1.53.82.36-.44.84-.82 1.69-.82 1.04 0 1.86.72 1.86 2.14v3.1h-1.28v-3.05c0-.61-.33-.99-.9-.99-.55 0-.85.38-1.05.72.01.07.01.14.01.22v3.1h-1.28v-3.05c0-.61-.33-.99-.9-.99-.58 0-.88.43-1.07.75V269zm9.83-5.92c-.45 0-.83-.38-.83-.83s.38-.83.83-.83.82.38.82.83-.37.83-.82.83m-.64 5.92v-5.04h1.27V269zm7.433-.82c-.47.63-1.25 1.02-2.2 1.02-1.79 0-2.8-1.25-2.8-2.72 0-1.49.94-2.72 2.59-2.72 1.4 0 2.32.95 2.32 2.27 0 .28-.04.54-.08.71h-3.53c.12.94.7 1.32 1.49 1.32.55 0 1.03-.24 1.3-.6zm-2.44-3.38c-.65 0-1.08.36-1.22 1.02h2.32c-.02-.51-.39-1.02-1.1-1.02m5.821-1.64-1.2-1.66h1.38l1.03 1.66z"/><path fill="#fff" d="M149.5 280.5h303v25h-303z"/><path stroke="#e5e5e5" d="M149.5 280.5h303v25h-303z"/><path fill="#666" d="M155.72 296v-4.57h.7v.81q.18-.28.42-.48.24-.21.53-.32.29-.12.6-.12.38 0 .68.19t.48.61.18 1.11V296h-.7v-2.75q0-.48-.11-.76-.11-.29-.3-.41a.74.74 0 0 0-.43-.13q-.23 0-.47.1a1.5 1.5 0 0 0-.43.29q-.2.18-.33.44-.12.26-.12.59V296zm6.49.11q-.27 0-.51-.08a1.4 1.4 0 0 1-.44-.24 1.6 1.6 0 0 1-.33-.42 2.3 2.3 0 0 1-.22-.6 4 4 0 0 1-.07-.79l.01-2.55h.7v2.55q0 .43.08.73t.22.48q.15.18.34.26t.4.08q.24 0 .46-.09.22-.1.39-.29.18-.19.28-.49t.1-.71v-2.52h.7v3.86q0 .18.01.36a1.4 1.4 0 0 0 .09.35h-.69a1 1 0 0 1-.07-.23 3 3 0 0 1-.03-.24v-.23a1.6 1.6 0 0 1-.6.6q-.18.1-.39.15a1.5 1.5 0 0 1-.43.06m3.58-.11v-.58h1.35v-5.49h-1.29v-.58h2.02v6.07h1.34v.58zm5 0v-.58h1.35v-5.49h-1.29v-.58h2.02v6.07h1.34v.58z"/></g></g><defs><clipPath id="b"><rect width="464" height="320" x="1" y="1" fill="#fff" rx="10"/></clipPath><filter id="a" width="466" height="322" x="0" y="0" color-interpolation-filters="sRGB" filterUnits="userSpaceOnUse"><feFlood flood-opacity="0" result="BackgroundImageFix"/><feColorMatrix in="SourceAlpha" result="hardAlpha" values="0 0 0 0 0 0 0 0 0 0 0 0 0 0 0 0 0 0 127 0"/><feMorphology in="SourceAlpha" operator="dilate" radius="1" result="effect1_dropShadow_2656_8921"/><feOffset/><feComposite in2="hardAlpha" operator="out"/><feColorMatrix values="0 0 0 0 0.149038 0 0 0 0 0.145083 0 0 0 0 0.11763 0 0 0 0.1 0"/><feBlend in2="BackgroundImageFix" result="effect1_dropShadow_2656_8921"/><feBlend in="SourceGraphic" in2="effect1_dropShadow_2656_8921" result="shape"/></filter></defs></svg>