<svg xmlns="http://www.w3.org/2000/svg" width="350" height="212" fill="none" viewBox="0 0 350 212"><g filter="url(#a)"><g clip-path="url(#b)"><path fill="#fff" d="M1 11C1 5.477 5.477 1 11 1h338v210H1z"/><g clip-path="url(#c)"><path fill="#161616" d="M17.98 25.644c.96 0 1.716-.468 2.196-1.152l1.344 1.032c-.768 1.044-2.016 1.716-3.54 1.716-2.652 0-4.464-2.04-4.464-4.44s1.812-4.44 4.464-4.44c1.524 0 2.772.684 3.54 1.704l-1.344 1.044c-.48-.684-1.236-1.152-2.196-1.152-1.584 0-2.712 1.236-2.712 2.844s1.128 2.844 2.712 2.844m7.578-4.932c1.968 0 3.312 1.452 3.312 3.264s-1.344 3.264-3.312 3.264-3.312-1.452-3.312-3.264 1.344-3.264 3.312-3.264m.024 5.088c.972 0 1.704-.78 1.704-1.824 0-1.056-.732-1.824-1.704-1.824-1.008 0-1.752.768-1.752 1.824s.744 1.824 1.752 1.824M30.26 27v-9h1.524v9zm6.231-6.288c1.968 0 3.312 1.452 3.312 3.264s-1.344 3.264-3.312 3.264-3.312-1.452-3.312-3.264 1.344-3.264 3.312-3.264m.024 5.088c.972 0 1.704-.78 1.704-1.824 0-1.056-.732-1.824-1.704-1.824-1.008 0-1.752.768-1.752 1.824s.744 1.824 1.752 1.824m4.678 1.2v-6.048h1.524v.48c.42-.408.984-.72 1.788-.72 1.308 0 2.352.9 2.352 2.688V27h-1.536v-3.54c0-.804-.456-1.308-1.2-1.308-.768 0-1.176.516-1.404.9V27zm7.395 0v-6.048h1.524v.48c.42-.408.984-.72 1.788-.72 1.308 0 2.352.9 2.352 2.688V27h-1.536v-3.54c0-.804-.456-1.308-1.2-1.308-.768 0-1.176.516-1.404.9V27zm12.962-.984c-.564.756-1.5 1.224-2.64 1.224-2.148 0-3.36-1.5-3.36-3.264 0-1.788 1.128-3.264 3.108-3.264 1.68 0 2.784 1.14 2.784 2.724 0 .336-.048.648-.096.852H57.11c.144 1.128.84 1.584 1.788 1.584.66 0 1.236-.288 1.56-.72zm-2.928-4.056c-.78 0-1.296.432-1.464 1.224h2.784c-.024-.612-.468-1.224-1.32-1.224M69.07 25.8c.6 0 1.08-.276 1.368-.696l1.188.912c-.564.744-1.452 1.224-2.556 1.224-2.088 0-3.336-1.5-3.336-3.264s1.248-3.264 3.336-3.264c1.104 0 1.992.48 2.556 1.224l-1.188.912c-.288-.42-.768-.696-1.392-.696-.996 0-1.728.768-1.728 1.824 0 1.068.732 1.824 1.752 1.824m6.34-5.088c1.967 0 3.311 1.452 3.311 3.264s-1.344 3.264-3.312 3.264-3.312-1.452-3.312-3.264 1.344-3.264 3.312-3.264m.023 5.088c.972 0 1.704-.78 1.704-1.824 0-1.056-.732-1.824-1.704-1.824-1.008 0-1.752.768-1.752 1.824s.744 1.824 1.752 1.824m4.305-1.824c0-1.764 1.164-3.264 3.072-3.264.816 0 1.404.252 1.872.72V18h1.536v9h-1.536v-.48c-.468.468-1.056.72-1.872.72-1.908 0-3.072-1.5-3.072-3.264m1.596 0c0 1.056.66 1.824 1.692 1.824.684 0 1.248-.288 1.656-.84v-1.968c-.408-.552-.972-.84-1.656-.84-1.032 0-1.692.768-1.692 1.824m12.279 2.04c-.564.756-1.5 1.224-2.64 1.224-2.148 0-3.36-1.5-3.36-3.264 0-1.788 1.128-3.264 3.108-3.264 1.68 0 2.784 1.14 2.784 2.724 0 .336-.048.648-.096.852h-4.236c.144 1.128.84 1.584 1.788 1.584.66 0 1.236-.288 1.56-.72zm-2.928-4.056c-.78 0-1.296.432-1.464 1.224h2.784c-.024-.612-.468-1.224-1.32-1.224m3.457 5.988h6.36v1.296h-6.36zm10.237-2.148c.6 0 1.08-.276 1.368-.696l1.188.912c-.564.744-1.452 1.224-2.556 1.224-2.088 0-3.336-1.5-3.336-3.264s1.248-3.264 3.336-3.264c1.104 0 1.992.48 2.556 1.224l-1.188.912c-.288-.42-.768-.696-1.392-.696-.996 0-1.728.768-1.728 1.824 0 1.068.732 1.824 1.752 1.824m6.339-5.088c1.968 0 3.312 1.452 3.312 3.264s-1.344 3.264-3.312 3.264-3.312-1.452-3.312-3.264 1.344-3.264 3.312-3.264m.024 5.088c.972 0 1.704-.78 1.704-1.824 0-1.056-.732-1.824-1.704-1.824-1.008 0-1.752.768-1.752 1.824s.744 1.824 1.752 1.824m4.678 1.2v-6.048h1.524v.456c.408-.396.924-.696 1.668-.696.768 0 1.44.336 1.836.984.432-.528 1.008-.984 2.028-.984 1.248 0 2.232.864 2.232 2.568V27h-1.536v-3.66c0-.732-.396-1.188-1.08-1.188-.66 0-1.02.456-1.26.864.012.084.012.168.012.264V27h-1.536v-3.66c0-.732-.396-1.188-1.08-1.188-.696 0-1.056.516-1.284.9V27zm11.027 0v-6.048h1.524v.456c.408-.396.924-.696 1.668-.696.768 0 1.44.336 1.836.984.432-.528 1.008-.984 2.028-.984 1.248 0 2.232.864 2.232 2.568V27h-1.536v-3.66c0-.732-.396-1.188-1.08-1.188-.66 0-1.02.456-1.26.864.012.084.012.168.012.264V27h-1.536v-3.66c0-.732-.396-1.188-1.08-1.188-.696 0-1.056.516-1.284.9V27zm15.012-2.616v-3.432h1.536v3.36c0 1.812-1.056 2.928-2.832 2.928s-2.82-1.116-2.82-2.928v-3.36h1.536v3.432c0 .876.456 1.416 1.296 1.416.828 0 1.284-.54 1.284-1.416M144.682 27v-6.048h1.524v.48c.42-.408.984-.72 1.788-.72 1.308 0 2.352.9 2.352 2.688V27h-1.536v-3.54c0-.804-.456-1.308-1.2-1.308-.768 0-1.176.516-1.404.9V27zm12.962-.984c-.564.756-1.5 1.224-2.64 1.224-2.148 0-3.36-1.5-3.36-3.264 0-1.788 1.128-3.264 3.108-3.264 1.68 0 2.784 1.14 2.784 2.724 0 .336-.048.648-.096.852h-4.236c.144 1.128.84 1.584 1.788 1.584.66 0 1.236-.288 1.56-.72zm-2.928-4.056c-.78 0-1.296.432-1.464 1.224h2.784c-.024-.612-.468-1.224-1.32-1.224M162.26 27v-6.048h1.524v.456c.408-.396.924-.696 1.668-.696.768 0 1.44.336 1.836.984.432-.528 1.008-.984 2.028-.984 1.248 0 2.232.864 2.232 2.568V27h-1.536v-3.66c0-.732-.396-1.188-1.08-1.188-.66 0-1.02.456-1.26.864.012.084.012.168.012.264V27h-1.536v-3.66c0-.732-.396-1.188-1.08-1.188-.696 0-1.056.516-1.284.9V27zm12.731.18c-1.212 0-2.04-.696-2.04-1.812 0-.912.708-1.596 2.004-1.812l1.848-.312v-.156c0-.636-.48-1.044-1.176-1.044-.588 0-1.044.276-1.368.72l-1.116-.852c.54-.744 1.428-1.2 2.532-1.2 1.752 0 2.652 1.044 2.652 2.376V27h-1.524v-.588c-.384.468-1.104.768-1.812.768m-.528-1.884c0 .408.324.672.84.672.696 0 1.2-.324 1.5-.804v-.852l-1.44.24c-.636.108-.9.372-.9.744M180.072 27v-6.048h1.524v.48c.42-.408.984-.72 1.788-.72 1.308 0 2.352.9 2.352 2.688V27H184.2v-3.54c0-.804-.456-1.308-1.2-1.308-.768 0-1.176.516-1.404.9V27zm6.963-3.024c0-1.764 1.152-3.264 3.072-3.264.816 0 1.404.264 1.872.732v-.492h1.536v9h-1.536v-3.444c-.468.468-1.056.732-1.872.732-1.92 0-3.072-1.5-3.072-3.264m1.584 0c0 1.056.66 1.824 1.692 1.824.708 0 1.296-.312 1.668-.864v-1.92c-.408-.564-.984-.864-1.668-.864-1.032 0-1.692.768-1.692 1.824m10.707.408v-3.432h1.536v3.36c0 1.812-1.056 2.928-2.832 2.928s-2.82-1.116-2.82-2.928v-3.36h1.536v3.432c0 .876.456 1.416 1.296 1.416.828 0 1.284-.54 1.284-1.416m4.81 2.796c-1.212 0-2.04-.696-2.04-1.812 0-.912.708-1.596 2.004-1.812l1.848-.312v-.156c0-.636-.48-1.044-1.176-1.044-.588 0-1.044.276-1.368.72l-1.116-.852c.54-.744 1.428-1.2 2.532-1.2 1.752 0 2.652 1.044 2.652 2.376V27h-1.524v-.588c-.384.468-1.104.768-1.812.768m-.528-1.884c0 .408.324.672.84.672.696 0 1.2-.324 1.5-.804v-.852l-1.44.24c-.636.108-.9.372-.9.744M209.217 27v-6.048h1.524v.48c.42-.408.984-.72 1.788-.72 1.308 0 2.352.9 2.352 2.688V27h-1.536v-3.54c0-.804-.456-1.308-1.2-1.308-.768 0-1.176.516-1.404.9V27zm7.778-2.208V22.32h-1.128v-1.368h1.128V19.44h1.536v1.512h1.848v1.368h-1.848v2.472c0 .672.36.936.96.936.42 0 .696-.048.9-.132v1.332c-.3.132-.66.192-1.164.192-1.512 0-2.232-.852-2.232-2.328m10.2 1.224c-.564.756-1.5 1.224-2.64 1.224-2.148 0-3.36-1.5-3.36-3.264 0-1.788 1.128-3.264 3.108-3.264 1.68 0 2.784 1.14 2.784 2.724 0 .336-.048.648-.096.852h-4.236c.144 1.128.84 1.584 1.788 1.584.66 0 1.236-.288 1.56-.72zm-2.928-4.056c-.78 0-1.296.432-1.464 1.224h2.784c-.024-.612-.468-1.224-1.32-1.224"/><path fill="#000091" d="M15.18 43.5c0 1.51-.75 2.13-1.98 2.13-.19 0-.36-.01-.49-.04v-.84c.12.03.24.05.38.05.67 0 1.15-.28 1.15-1.26V37h.94zm6.442-.33c-.47.63-1.22 1.03-2.16 1.03-1.7 0-2.75-1.25-2.75-2.72 0-1.53.98-2.72 2.54-2.72 1.37 0 2.26.96 2.26 2.2 0 .2-.03.39-.06.53h-3.87c.03 1.21.8 1.94 1.88 1.94.65 0 1.2-.3 1.53-.75zm-2.39-3.69c-.83 0-1.41.49-1.59 1.36h3.02c-.03-.74-.54-1.36-1.43-1.36m3.72 4.52v-5.04h.85v.57c.41-.45.93-.77 1.68-.77 1.13 0 1.97.76 1.97 2.19V44h-.85v-3.02c0-.9-.51-1.42-1.29-1.42-.73 0-1.19.42-1.51.95V44zm7.582.14c-.99 0-1.66-.55-1.66-1.41 0-.76.58-1.3 1.65-1.48l1.7-.28v-.35c0-.7-.5-1.1-1.22-1.1-.58 0-1.05.27-1.36.7l-.64-.49c.44-.6 1.15-.97 2.03-.97 1.28 0 2.04.75 2.04 1.86V44h-.85v-.64c-.38.49-1.04.78-1.69.78m-.8-1.44c0 .43.35.74.94.74.67 0 1.22-.32 1.55-.86v-.99l-1.49.25c-.69.12-1 .43-1 .86m7.95 1.3v-7h2.69c2.19 0 3.68 1.61 3.68 3.5s-1.49 3.5-3.68 3.5zm2.71-6.14h-1.77v5.28h1.77c1.56 0 2.69-1.18 2.69-2.64 0-1.47-1.13-2.64-2.69-2.64m6.331 6.28c-.99 0-1.66-.55-1.66-1.41 0-.76.58-1.3 1.65-1.48l1.7-.28v-.35c0-.7-.5-1.1-1.22-1.1-.58 0-1.05.27-1.36.7l-.64-.49c.44-.6 1.15-.97 2.03-.97 1.28 0 2.04.75 2.04 1.86V44h-.85v-.64c-.38.49-1.04.78-1.69.78m-.8-1.44c0 .43.35.74.94.74.67 0 1.22-.32 1.55-.86v-.99l-1.49.25c-.69.12-1 .43-1 .86M50.97 44v-7.5h.85V44zm7.127-.83c-.47.63-1.22 1.03-2.16 1.03-1.7 0-2.75-1.25-2.75-2.72 0-1.53.98-2.72 2.54-2.72 1.37 0 2.26.96 2.26 2.2 0 .2-.03.39-.06.53h-3.87c.03 1.21.8 1.94 1.88 1.94.65 0 1.2-.3 1.53-.75zm-2.39-3.69c-.83 0-1.41.49-1.59 1.36h3.02c-.03-.74-.54-1.36-1.43-1.36m3.72 4.52v-5.04h.85v.63c.37-.44.83-.73 1.47-.73.16 0 .31.02.43.06v.83c-.15-.04-.3-.06-.5-.06-.66 0-1.09.34-1.4.85V44zm4.5-1.69v-2.58h-.95v-.77h.95V37.7h.86v1.26h1.75v.77h-1.75v2.58c0 .79.4 1.01 1.01 1.01.33 0 .56-.04.75-.12v.76c-.24.1-.51.14-.87.14-1.12 0-1.75-.56-1.75-1.79m4.339-4.66c-.33 0-.6-.27-.6-.6a.6.6 0 0 1 .6-.59c.33 0 .59.27.59.59 0 .33-.26.6-.59.6m-.43 6.35v-5.04h.85V44z"/><path fill="#666" d="M74.21 41.07h4.98v.74h-4.98zM85.33 37.65c-.33 0-.6-.27-.6-.6a.6.6 0 0 1 .6-.59c.33 0 .59.27.59.59 0 .33-.26.6-.59.6M84.9 44v-5.04h.85V44zm2.646 0v-7.5h.85V44zm7.132 1.22c-.35.84-.93 1.28-1.78 1.28-.34 0-.59-.05-.81-.16v-.76c.19.09.42.14.66.14.51 0 .91-.19 1.17-.81l.39-.92-2.18-5.03h.94l1.69 3.95 1.67-3.95h.9zm7.764-1.08c-.99 0-1.66-.55-1.66-1.41 0-.76.58-1.3 1.65-1.48l1.7-.28v-.35c0-.7-.5-1.1-1.22-1.1-.58 0-1.05.27-1.36.7l-.64-.49c.44-.6 1.15-.97 2.03-.97 1.28 0 2.04.75 2.04 1.86V44h-.85v-.64c-.38.49-1.04.78-1.69.78m-.8-1.44c0 .43.35.74.94.74.67 0 1.22-.32 1.55-.86v-.99l-1.49.25c-.69.12-1 .43-1 .86m7.52 1.3v-.81l2.37-2.44c.82-.86 1.19-1.25 1.19-1.99 0-.73-.53-1.15-1.24-1.15-.74 0-1.22.37-1.63 1.05l-.74-.45c.57-.89 1.35-1.41 2.44-1.41 1.17 0 2.1.76 2.1 1.9 0 .95-.62 1.66-1.46 2.54l-1.92 1.95h3.57V44zm8.912 0v-7.5h.85v3.03c.41-.45.93-.77 1.68-.77 1.13 0 1.97.76 1.97 2.19V44h-.85v-3.02c0-.9-.5-1.42-1.29-1.42-.74 0-1.19.43-1.51.95V44zm10.691-.83c-.47.63-1.22 1.03-2.16 1.03-1.7 0-2.75-1.25-2.75-2.72 0-1.53.98-2.72 2.54-2.72 1.37 0 2.26.96 2.26 2.2 0 .2-.03.39-.06.53h-3.87c.03 1.21.8 1.94 1.88 1.94.65 0 1.2-.3 1.53-.75zm-2.39-3.69c-.83 0-1.41.49-1.59 1.36h3.02c-.03-.74-.54-1.36-1.43-1.36m7.152 2.36v-2.88h.85v2.85c0 1.51-.87 2.39-2.24 2.39-1.36 0-2.23-.88-2.23-2.39v-2.85h.85v2.88c0 .99.53 1.56 1.39 1.56.84 0 1.38-.57 1.38-1.56m2.525 2.16v-5.04h.85v.63c.37-.44.83-.73 1.47-.73.16 0 .31.02.43.06v.83c-.15-.04-.3-.06-.5-.06-.66 0-1.09.34-1.4.85V44zm8.152-.83c-.47.63-1.22 1.03-2.16 1.03-1.7 0-2.75-1.25-2.75-2.72 0-1.53.98-2.72 2.54-2.72 1.37 0 2.26.96 2.26 2.2 0 .2-.03.39-.06.53h-3.87c.03 1.21.8 1.94 1.88 1.94.65 0 1.2-.3 1.53-.75zm-2.39-3.69c-.83 0-1.41.49-1.59 1.36h3.02c-.03-.74-.54-1.36-1.43-1.36m3.142 3.83.6-.51c.35.44.77.69 1.28.69.56 0 .88-.34.88-.78 0-1.13-2.52-.73-2.52-2.51 0-.79.67-1.44 1.64-1.44.72 0 1.34.34 1.69.83l-.59.5c-.27-.38-.65-.62-1.09-.62-.54 0-.83.32-.83.71 0 1.13 2.53.77 2.53 2.49-.01.94-.76 1.53-1.7 1.53-.8 0-1.43-.32-1.89-.89"/><path fill="#3a3a3a" d="M14.11 69v-7h1.73c1.34 0 2.15.71 2.15 1.82 0 .63-.29 1.14-.84 1.44.82.29 1.26.93 1.26 1.73 0 1.23-.91 2.01-2.4 2.01zm1.74-6.2h-.8v2.11h.8c.74 0 1.17-.38 1.17-1.07 0-.66-.43-1.04-1.17-1.04m.2 2.91h-1v2.49h1c.87 0 1.39-.46 1.39-1.25s-.52-1.24-1.39-1.24m6.166-1.95c1.62 0 2.73 1.25 2.73 2.72s-1.11 2.72-2.73 2.72c-1.63 0-2.73-1.25-2.73-2.72s1.1-2.72 2.73-2.72m.01 4.64c1.05 0 1.82-.88 1.82-1.92 0-1.05-.77-1.92-1.82-1.92-1.08 0-1.85.87-1.85 1.92s.77 1.92 1.85 1.92m4.086.6v-5.04h.85v.57c.41-.45.93-.77 1.68-.77 1.13 0 1.97.76 1.97 2.19V69h-.85v-3.02c0-.9-.51-1.42-1.29-1.42-.73 0-1.19.42-1.51.95V69zm6.631-6.35c-.33 0-.6-.27-.6-.6a.6.6 0 0 1 .6-.59c.32 0 .59.27.59.59a.6.6 0 0 1-.59.6m.43 7.01c0 1.28-.62 1.84-1.75 1.84-.36 0-.63-.04-.86-.14v-.76c.18.08.42.12.75.12.6 0 1.01-.23 1.01-1.06v-5.7h.85zm4.096-5.9c1.62 0 2.73 1.25 2.73 2.72s-1.11 2.72-2.73 2.72c-1.63 0-2.73-1.25-2.73-2.72s1.1-2.72 2.73-2.72m.01 4.64c1.05 0 1.82-.88 1.82-1.92 0-1.05-.77-1.92-1.82-1.92-1.08 0-1.85.87-1.85 1.92s.77 1.92 1.85 1.92m7.597-1.56v-2.88h.85v2.85c0 1.51-.87 2.39-2.24 2.39-1.36 0-2.23-.88-2.23-2.39v-2.85h.85v2.88c0 .99.53 1.56 1.39 1.56.84 0 1.38-.57 1.38-1.56M47.601 69v-5.04h.85v.63c.37-.44.83-.73 1.47-.73.16 0 .31.02.43.06v.83c-.15-.04-.3-.06-.5-.06-.66 0-1.09.34-1.4.85V69zm3.319 1.6h-.79l.85-2.65h.97zM14.11 88v-7h1.2l2.14 3.53L19.59 81h1.2v7h-.94v-5.74l-2.04 3.34h-.72l-2.04-3.34V88zm13.118-.83c-.47.63-1.22 1.03-2.16 1.03-1.7 0-2.75-1.25-2.75-2.72 0-1.53.98-2.72 2.54-2.72 1.37 0 2.26.96 2.26 2.2 0 .2-.03.39-.06.53h-3.87c.03 1.21.8 1.94 1.88 1.94.65 0 1.2-.3 1.53-.75zm-2.39-3.69c-.83 0-1.41.49-1.59 1.36h3.02c-.03-.74-.54-1.36-1.43-1.36m3.72 4.52v-5.04h.85v.63c.37-.44.83-.73 1.47-.73.16 0 .31.02.43.06v.83c-.15-.04-.3-.06-.5-.06-.66 0-1.09.34-1.4.85V88zm5.992-.6c.62 0 1.13-.3 1.44-.74l.67.51c-.47.63-1.2 1.03-2.12 1.03-1.67 0-2.74-1.25-2.74-2.72s1.07-2.72 2.74-2.72c.91 0 1.65.41 2.12 1.03l-.67.51c-.31-.44-.82-.74-1.45-.74-1.08 0-1.85.85-1.85 1.92 0 1.08.77 1.92 1.86 1.92m3.706-5.75c-.33 0-.6-.27-.6-.6a.6.6 0 0 1 .6-.59c.33 0 .59.27.59.59 0 .33-.26.6-.59.6m-.43 6.35v-5.04h.85V88zm5.342 2.46v-7.5h.85v.6c.45-.51 1.04-.8 1.79-.8 1.58 0 2.59 1.25 2.59 2.72s-1.01 2.72-2.59 2.72c-.75 0-1.34-.29-1.79-.8v3.06zm2.54-6.9c-.7 0-1.31.34-1.69.94v1.96c.39.61 1 .94 1.69.94 1.07 0 1.8-.85 1.8-1.92s-.73-1.92-1.8-1.92m6.41-.8c1.62 0 2.73 1.25 2.73 2.72s-1.11 2.72-2.73 2.72c-1.63 0-2.73-1.25-2.73-2.72s1.1-2.72 2.73-2.72m.01 4.64c1.05 0 1.82-.88 1.82-1.92 0-1.05-.77-1.92-1.82-1.92-1.08 0-1.85.87-1.85 1.92s.77 1.92 1.85 1.92m7.596-1.56v-2.88h.85v2.85c0 1.51-.87 2.39-2.24 2.39-1.36 0-2.23-.88-2.23-2.39v-2.85h.85v2.88c0 .99.53 1.56 1.39 1.56.84 0 1.38-.57 1.38-1.56M62.25 88v-5.04h.85v.63c.37-.44.83-.73 1.47-.73.16 0 .31.02.43.06v.83c-.15-.04-.3-.06-.5-.06-.66 0-1.09.34-1.4.85V88zm6.67 0v-7.5h.85V88zm4.016.14c-.99 0-1.66-.55-1.66-1.41 0-.76.58-1.3 1.65-1.48l1.7-.28v-.35c0-.7-.5-1.1-1.22-1.1-.58 0-1.05.27-1.36.7l-.64-.49c.44-.6 1.15-.97 2.03-.97 1.28 0 2.04.75 2.04 1.86V88h-.85v-.64c-.38.49-1.04.78-1.69.78m-.8-1.44c0 .43.35.74.94.74.67 0 1.22-.32 1.55-.86v-.99l-1.49.25c-.69.12-1 .43-1 .86m7.74 1.3v-5.04h.85v.55c.38-.44.88-.75 1.58-.75.73 0 1.33.33 1.64.97.4-.55.93-.97 1.8-.97 1.08 0 1.87.72 1.87 2.09V88h-.85v-3.12c0-.84-.47-1.32-1.19-1.32-.64 0-1.09.36-1.42.95.01.11.02.22.02.34V88h-.85v-3.12c0-.84-.46-1.32-1.19-1.32-.69 0-1.12.43-1.41.95V88zm9.884-6.35c-.33 0-.6-.27-.6-.6a.6.6 0 0 1 .6-.59c.33 0 .59.27.59.59 0 .33-.26.6-.59.6M89.33 88v-5.04h.85V88zm2.067-.69.6-.51c.35.44.77.69 1.28.69.56 0 .88-.34.88-.78 0-1.13-2.52-.73-2.52-2.51 0-.79.67-1.44 1.64-1.44.72 0 1.34.34 1.69.83l-.59.5c-.27-.38-.65-.62-1.09-.62-.54 0-.83.32-.83.71 0 1.13 2.53.77 2.53 2.49-.01.94-.76 1.53-1.7 1.53-.8 0-1.43-.32-1.89-.89m9.395-.14c-.47.63-1.22 1.03-2.16 1.03-1.7 0-2.75-1.25-2.75-2.72 0-1.53.98-2.72 2.54-2.72 1.37 0 2.26.96 2.26 2.2 0 .2-.03.39-.06.53h-3.87c.03 1.21.8 1.94 1.88 1.94.65 0 1.2-.3 1.53-.75zm-2.39-3.69c-.83 0-1.41.49-1.59 1.36h3.02c-.03-.74-.54-1.36-1.43-1.36m7.886-1.32-1.17-1.66h.95l1.04 1.66zm-.1 5.98c-.99 0-1.66-.55-1.66-1.41 0-.76.58-1.3 1.65-1.48l1.7-.28v-.35c0-.7-.5-1.1-1.22-1.1-.58 0-1.05.27-1.36.7l-.64-.49c.44-.6 1.15-.97 2.03-.97 1.28 0 2.04.75 2.04 1.86V88h-.85v-.64c-.38.49-1.04.78-1.69.78m-.8-1.44c0 .43.35.74.94.74.67 0 1.22-.32 1.55-.86v-.99l-1.49.25c-.69.12-1 .43-1 .86m8.161-5.05c-.33 0-.6-.27-.6-.6a.6.6 0 0 1 .6-.59c.32 0 .59.27.59.59a.6.6 0 0 1-.59.6m.43 7.01c0 1.28-.62 1.84-1.75 1.84-.36 0-.63-.04-.86-.14v-.76c.18.08.42.12.75.12.6 0 1.01-.23 1.01-1.06v-5.7h.85zm4.096-5.9c1.62 0 2.73 1.25 2.73 2.72s-1.11 2.72-2.73 2.72c-1.63 0-2.73-1.25-2.73-2.72s1.1-2.72 2.73-2.72m.01 4.64c1.05 0 1.82-.88 1.82-1.92 0-1.05-.77-1.92-1.82-1.92-1.08 0-1.85.87-1.85 1.92s.77 1.92 1.85 1.92m7.596-1.56v-2.88h.85v2.85c0 1.51-.87 2.39-2.24 2.39-1.36 0-2.23-.88-2.23-2.39v-2.85h.85v2.88c0 .99.53 1.56 1.39 1.56.84 0 1.38-.57 1.38-1.56m2.526 2.16v-5.04h.85v.63c.37-.44.83-.73 1.47-.73.16 0 .31.02.43.06v.83c-.15-.04-.3-.06-.5-.06-.66 0-1.09.34-1.4.85V88zm6.24-2.52c0-1.47 1.01-2.72 2.59-2.72.75 0 1.34.29 1.79.8V80.5h.85V88h-.85v-.6c-.45.51-1.04.8-1.79.8-1.58 0-2.59-1.25-2.59-2.72m.9 0c0 1.07.72 1.92 1.79 1.92.7 0 1.32-.34 1.69-.93v-1.98c-.39-.6-1-.93-1.69-.93-1.07 0-1.79.85-1.79 1.92m9.631.36v-2.88h.85v2.85c0 1.51-.87 2.39-2.24 2.39-1.36 0-2.23-.88-2.23-2.39v-2.85h.85v2.88c0 .99.53 1.56 1.39 1.56.84 0 1.38-.57 1.38-1.56m5.641-4.19c-.33 0-.6-.27-.6-.6a.6.6 0 0 1 .6-.59c.32 0 .59.27.59.59a.6.6 0 0 1-.59.6m.43 7.01c0 1.28-.62 1.84-1.75 1.84-.36 0-.63-.04-.86-.14v-.76c.18.08.42.12.75.12.6 0 1.01-.23 1.01-1.06v-5.7h.85zm6.276-1.49c-.47.63-1.22 1.03-2.16 1.03-1.7 0-2.75-1.25-2.75-2.72 0-1.53.98-2.72 2.54-2.72 1.37 0 2.26.96 2.26 2.2 0 .2-.03.39-.06.53h-3.87c.03 1.21.8 1.94 1.88 1.94.65 0 1.2-.3 1.53-.75zm-2.39-3.69c-.83 0-1.41.49-1.59 1.36h3.02c-.03-.74-.54-1.36-1.43-1.36m7.153 2.36v-2.88h.85v2.85c0 1.51-.87 2.39-2.24 2.39-1.36 0-2.23-.88-2.23-2.39v-2.85h.85v2.88c0 .99.53 1.56 1.39 1.56.84 0 1.38-.57 1.38-1.56m4.79-.36c0-1.47 1.01-2.72 2.59-2.72.75 0 1.34.29 1.79.8V80.5h.85V88h-.85v-.6c-.45.51-1.04.8-1.79.8-1.58 0-2.59-1.25-2.59-2.72m.9 0c0 1.07.72 1.92 1.79 1.92.7 0 1.32-.34 1.69-.93v-1.98c-.39-.6-1-.93-1.69-.93-1.07 0-1.79.85-1.79 1.92m10.602 1.69c-.47.63-1.22 1.03-2.16 1.03-1.7 0-2.75-1.25-2.75-2.72 0-1.53.98-2.72 2.54-2.72 1.37 0 2.26.96 2.26 2.2 0 .2-.03.39-.06.53h-3.87c.03 1.21.8 1.94 1.88 1.94.65 0 1.2-.3 1.53-.75zm-2.39-3.69c-.83 0-1.41.49-1.59 1.36h3.02c-.03-.74-.54-1.36-1.43-1.36m5.986 2c0-1.47 1.01-2.72 2.59-2.72.75 0 1.34.29 1.79.8V80.5h.85V88h-.85v-.6c-.45.51-1.04.8-1.79.8-1.58 0-2.59-1.25-2.59-2.72m.9 0c0 1.07.72 1.92 1.79 1.92.7 0 1.32-.34 1.69-.93v-1.98c-.39-.6-1-.93-1.69-.93-1.07 0-1.79.85-1.79 1.92m8.422-2.72c1.62 0 2.73 1.25 2.73 2.72s-1.11 2.72-2.73 2.72c-1.63 0-2.73-1.25-2.73-2.72s1.1-2.72 2.73-2.72m.01 4.64c1.05 0 1.82-.88 1.82-1.92 0-1.05-.77-1.92-1.82-1.92-1.08 0-1.85.87-1.85 1.92s.77 1.92 1.85 1.92m4.086.6v-5.04h.85v.57c.41-.45.93-.77 1.68-.77 1.13 0 1.97.76 1.97 2.19V88h-.85v-3.02c0-.9-.51-1.42-1.29-1.42-.73 0-1.19.42-1.51.95V88zm6.211 0v-5.04h.85v.57c.41-.45.93-.77 1.68-.77 1.13 0 1.97.76 1.97 2.19V88h-.85v-3.02c0-.9-.51-1.42-1.29-1.42-.73 0-1.19.42-1.51.95V88zm8.771-5.84h-.83l1.04-1.66h.96zm1.92 5.01c-.47.63-1.22 1.03-2.16 1.03-1.7 0-2.75-1.25-2.75-2.72 0-1.53.98-2.72 2.54-2.72 1.37 0 2.26.96 2.26 2.2 0 .2-.03.39-.06.53h-3.87c.03 1.21.8 1.94 1.88 1.94.65 0 1.2-.3 1.53-.75zm-2.39-3.69c-.83 0-1.41.49-1.59 1.36h3.02c-.03-.74-.54-1.36-1.43-1.36m8.181 3.69c-.47.63-1.22 1.03-2.16 1.03-1.7 0-2.75-1.25-2.75-2.72 0-1.53.98-2.72 2.54-2.72 1.37 0 2.26.96 2.26 2.2 0 .2-.03.39-.06.53h-3.87c.03 1.21.8 1.94 1.88 1.94.65 0 1.2-.3 1.53-.75zm-2.39-3.69c-.83 0-1.41.49-1.59 1.36h3.02c-.03-.74-.54-1.36-1.43-1.36m3.142 3.83.6-.51c.35.44.77.69 1.28.69.56 0 .88-.34.88-.78 0-1.13-2.52-.73-2.52-2.51 0-.79.67-1.44 1.64-1.44.72 0 1.34.34 1.69.83l-.59.5c-.27-.38-.65-.62-1.09-.62-.54 0-.83.32-.83.71 0 1.13 2.53.77 2.53 2.49-.01.94-.76 1.53-1.7 1.53-.8 0-1.43-.32-1.89-.89m7.958-1.35-.16-4.96h.97l-.16 4.96zm.34 2.15c-.36 0-.65-.29-.65-.64 0-.34.29-.63.65-.63a.636.636 0 0 1 0 1.27m6.383-.61c0 1.51-.75 2.13-1.98 2.13-.19 0-.36-.01-.49-.04v-.84c.12.03.24.05.38.05.67 0 1.15-.28 1.15-1.26V81h.94zm2.331-3.82h-.79l.85-2.68h.97zm3.335 4.46c-.99 0-1.66-.55-1.66-1.41 0-.76.58-1.3 1.65-1.48l1.7-.28v-.35c0-.7-.5-1.1-1.22-1.1-.58 0-1.05.27-1.36.7l-.64-.49c.44-.6 1.15-.97 2.03-.97 1.28 0 2.04.75 2.04 1.86V88h-.85v-.64c-.38.49-1.04.78-1.69.78m-.8-1.44c0 .43.35.74.94.74.67 0 1.22-.32 1.55-.86v-.99l-1.49.25c-.69.12-1 .43-1 .86m5.475-5.05c-.33 0-.6-.27-.6-.6a.6.6 0 0 1 .6-.59c.33 0 .59.27.59.59 0 .33-.26.6-.59.6m-.43 6.35v-5.04h.85V88zm5.342 0v-5.04h.85v.63c.37-.44.83-.73 1.47-.73.16 0 .31.02.43.06v.83c-.15-.04-.3-.06-.5-.06-.66 0-1.09.34-1.4.85V88zm8.152-.83c-.47.63-1.22 1.03-2.16 1.03-1.7 0-2.75-1.25-2.75-2.72 0-1.53.98-2.72 2.54-2.72 1.37 0 2.26.96 2.26 2.2 0 .2-.03.39-.06.53h-3.87c.03 1.21.8 1.94 1.88 1.94.65 0 1.2-.3 1.53-.75zm-2.39-3.69c-.83 0-1.41.49-1.59 1.36h3.02c-.03-.74-.54-1.36-1.43-1.36m3.72 4.52v-5.04h.85v.55c.38-.44.88-.75 1.58-.75.73 0 1.33.33 1.64.97.4-.55.93-.97 1.8-.97 1.08 0 1.87.72 1.87 2.09V88h-.85v-3.12c0-.84-.47-1.32-1.19-1.32-.64 0-1.09.36-1.42.95.01.11.02.22.02.34V88h-.85v-3.12c0-.84-.46-1.32-1.19-1.32-.69 0-1.12.43-1.41.95V88zm10.824.14c-.99 0-1.66-.55-1.66-1.41 0-.76.58-1.3 1.65-1.48l1.7-.28v-.35c0-.7-.5-1.1-1.22-1.1-.58 0-1.05.27-1.36.7l-.64-.49c.44-.6 1.15-.97 2.03-.97 1.28 0 2.04.75 2.04 1.86V88h-.85v-.64c-.38.49-1.04.78-1.69.78m-.8-1.44c0 .43.35.74.94.74.67 0 1.22-.32 1.55-.86v-.99l-1.49.25c-.69.12-1 .43-1 .86m5.045 1.3v-5.04h.85v.63c.37-.44.83-.73 1.47-.73.16 0 .31.02.43.06v.83c-.15-.04-.3-.06-.5-.06-.66 0-1.09.34-1.4.85V88zm3.242-2.52c0-1.47 1.01-2.72 2.59-2.72.75 0 1.34.29 1.79.81v-.61h.85v7.5h-.85v-3.07c-.45.52-1.04.81-1.79.81-1.58 0-2.59-1.25-2.59-2.72m.89 0c0 1.07.73 1.92 1.79 1.92.71 0 1.32-.34 1.7-.94V84.5c-.39-.61-1-.94-1.7-.94-1.06 0-1.79.85-1.79 1.92m9.651.36v-2.88h.85v2.85c0 1.51-.87 2.39-2.24 2.39-1.36 0-2.23-.88-2.23-2.39v-2.85h.85v2.88c0 .99.53 1.56 1.39 1.56.84 0 1.38-.57 1.38-1.56m5.085-3.68h-.83l1.04-1.66h.96zm1.92 5.01c-.47.63-1.22 1.03-2.16 1.03-1.7 0-2.75-1.25-2.75-2.72 0-1.53.98-2.72 2.54-2.72 1.37 0 2.26.96 2.26 2.2 0 .2-.03.39-.06.53h-3.87c.03 1.21.8 1.94 1.88 1.94.65 0 1.2-.3 1.53-.75zm-2.39-3.69c-.83 0-1.41.49-1.59 1.36h3.02c-.03-.74-.54-1.36-1.43-1.36m5.986 2c0-1.47 1.01-2.72 2.59-2.72.75 0 1.34.29 1.79.81v-.61h.85v7.5h-.85v-3.07c-.45.52-1.04.81-1.79.81-1.58 0-2.59-1.25-2.59-2.72m.89 0c0 1.07.73 1.92 1.79 1.92.71 0 1.32-.34 1.7-.94V84.5c-.39-.61-1-.94-1.7-.94-1.06 0-1.79.85-1.79 1.92m9.652.36v-2.88h.85v2.85c0 1.51-.87 2.39-2.24 2.39-1.36 0-2.23-.88-2.23-2.39v-2.85h.85v2.88c0 .99.53 1.56 1.39 1.56.84 0 1.38-.57 1.38-1.56m7.005 1.33c-.47.63-1.22 1.03-2.16 1.03-1.7 0-2.75-1.25-2.75-2.72 0-1.53.98-2.72 2.54-2.72 1.37 0 2.26.96 2.26 2.2 0 .2-.03.39-.06.53h-3.87c.03 1.21.8 1.94 1.88 1.94.65 0 1.2-.3 1.53-.75zm-2.39-3.69c-.83 0-1.41.49-1.59 1.36h3.02c-.03-.74-.54-1.36-1.43-1.36m6.416 4.52v-7.5h.85V88zm4.016.14c-.99 0-1.66-.55-1.66-1.41 0-.76.58-1.3 1.65-1.48l1.7-.28v-.35c0-.7-.5-1.1-1.22-1.1-.58 0-1.05.27-1.36.7l-.64-.49c.44-.6 1.15-.97 2.03-.97 1.28 0 2.04.75 2.04 1.86V88h-.85v-.64c-.38.49-1.04.78-1.69.78m-.8-1.44c0 .43.35.74.94.74.67 0 1.22-.32 1.55-.86v-.99l-1.49.25c-.69.12-1 .43-1 .86M16.22 102.4c.62 0 1.13-.3 1.44-.74l.67.51c-.47.63-1.2 1.03-2.12 1.03-1.67 0-2.74-1.25-2.74-2.72s1.07-2.72 2.74-2.72c.91 0 1.65.41 2.12 1.03l-.67.51c-.31-.44-.82-.74-1.45-.74-1.08 0-1.85.85-1.85 1.92 0 1.08.77 1.92 1.86 1.92m5.38-4.64c1.62 0 2.73 1.25 2.73 2.72s-1.11 2.72-2.73 2.72c-1.63 0-2.73-1.25-2.73-2.72s1.1-2.72 2.73-2.72m.01 4.64c1.05 0 1.82-.88 1.82-1.92 0-1.05-.77-1.92-1.82-1.92-1.08 0-1.85.87-1.85 1.92s.77 1.92 1.85 1.92m4.087.6v-7.5h.85v7.5zm4.946-5.24c1.62 0 2.73 1.25 2.73 2.72s-1.11 2.72-2.73 2.72c-1.63 0-2.73-1.25-2.73-2.72s1.1-2.72 2.73-2.72m.01 4.64c1.05 0 1.82-.88 1.82-1.92 0-1.05-.77-1.92-1.82-1.92-1.08 0-1.85.87-1.85 1.92s.77 1.92 1.85 1.92m4.087.6v-5.04h.85v.57c.41-.45.93-.77 1.68-.77 1.13 0 1.97.76 1.97 2.19V103h-.85v-3.02c0-.9-.51-1.42-1.29-1.42-.73 0-1.19.42-1.51.95V103zm6.21 0v-5.04h.85v.57c.41-.45.93-.77 1.68-.77 1.13 0 1.97.76 1.97 2.19V103h-.85v-3.02c0-.9-.51-1.42-1.29-1.42-.73 0-1.19.42-1.51.95V103zm10.692-.83c-.47.63-1.22 1.03-2.16 1.03-1.7 0-2.75-1.25-2.75-2.72 0-1.53.98-2.72 2.54-2.72 1.37 0 2.26.96 2.26 2.2 0 .2-.03.39-.06.53h-3.87c.03 1.21.8 1.94 1.88 1.94.65 0 1.2-.3 1.53-.75zm-2.39-3.69c-.83 0-1.41.49-1.59 1.36h3.02c-.03-.74-.54-1.36-1.43-1.36m8.736 3.92c.62 0 1.13-.3 1.44-.74l.67.51c-.47.63-1.2 1.03-2.12 1.03-1.67 0-2.74-1.25-2.74-2.72s1.07-2.72 2.74-2.72c.91 0 1.65.41 2.12 1.03l-.67.51c-.31-.44-.82-.74-1.45-.74-1.08 0-1.85.85-1.85 1.92 0 1.08.77 1.92 1.86 1.92m5.38-4.64c1.62 0 2.73 1.25 2.73 2.72s-1.11 2.72-2.73 2.72c-1.63 0-2.73-1.25-2.73-2.72s1.1-2.72 2.73-2.72m.01 4.64c1.05 0 1.82-.88 1.82-1.92 0-1.05-.77-1.92-1.82-1.92-1.08 0-1.85.87-1.85 1.92s.77 1.92 1.85 1.92m3.705-1.92c0-1.47 1.01-2.72 2.59-2.72.75 0 1.34.29 1.79.8V95.5h.85v7.5h-.85v-.6c-.45.51-1.04.8-1.79.8-1.58 0-2.59-1.25-2.59-2.72m.9 0c0 1.07.72 1.92 1.79 1.92.7 0 1.32-.34 1.69-.93v-1.98c-.39-.6-1-.93-1.69-.93-1.07 0-1.79.85-1.79 1.92m10.602 1.69c-.47.63-1.22 1.03-2.16 1.03-1.7 0-2.75-1.25-2.75-2.72 0-1.53.98-2.72 2.54-2.72 1.37 0 2.26.96 2.26 2.2 0 .2-.03.39-.06.53h-3.87c.03 1.21.8 1.94 1.88 1.94.65 0 1.2-.3 1.53-.75zm-2.39-3.69c-.83 0-1.41.49-1.59 1.36h3.02c-.03-.74-.54-1.36-1.43-1.36m2.94 5.45h5.16v.74h-5.16zm8.501-1.53c.62 0 1.13-.3 1.44-.74l.67.51c-.47.63-1.2 1.03-2.12 1.03-1.67 0-2.74-1.25-2.74-2.72s1.07-2.72 2.74-2.72c.91 0 1.65.41 2.12 1.03l-.67.51c-.31-.44-.82-.74-1.45-.74-1.08 0-1.85.85-1.85 1.92 0 1.08.77 1.92 1.86 1.92m5.38-4.64c1.62 0 2.73 1.25 2.73 2.72s-1.11 2.72-2.73 2.72c-1.63 0-2.73-1.25-2.73-2.72s1.1-2.72 2.73-2.72m.01 4.64c1.05 0 1.82-.88 1.82-1.92 0-1.05-.77-1.92-1.82-1.92-1.08 0-1.85.87-1.85 1.92s.77 1.92 1.85 1.92m4.087.6v-5.04h.85v.55c.38-.44.88-.75 1.58-.75.73 0 1.33.33 1.64.97.4-.55.93-.97 1.8-.97 1.08 0 1.87.72 1.87 2.09V103h-.85v-3.12c0-.84-.47-1.32-1.19-1.32-.64 0-1.09.36-1.42.95.01.11.02.22.02.34V103h-.85v-3.12c0-.84-.46-1.32-1.19-1.32-.69 0-1.12.43-1.41.95V103zm9.453 0v-5.04h.85v.55c.38-.44.88-.75 1.58-.75.73 0 1.33.33 1.64.97.4-.55.93-.97 1.8-.97 1.08 0 1.87.72 1.87 2.09V103h-.85v-3.12c0-.84-.47-1.32-1.19-1.32-.64 0-1.09.36-1.42.95.01.11.02.22.02.34V103h-.85v-3.12c0-.84-.46-1.32-1.19-1.32-.69 0-1.12.43-1.41.95V103zm12.963-2.16v-2.88h.85v2.85c0 1.51-.87 2.39-2.24 2.39-1.36 0-2.23-.88-2.23-2.39v-2.85h.85v2.88c0 .99.53 1.56 1.39 1.56.84 0 1.38-.57 1.38-1.56m2.525 2.16v-5.04h.85v.57c.41-.45.93-.77 1.68-.77 1.13 0 1.97.76 1.97 2.19V103h-.85v-3.02c0-.9-.51-1.42-1.29-1.42-.73 0-1.19.42-1.51.95V103zm10.691-.83c-.47.63-1.22 1.03-2.16 1.03-1.7 0-2.75-1.25-2.75-2.72 0-1.53.98-2.72 2.54-2.72 1.37 0 2.26.96 2.26 2.2 0 .2-.03.39-.06.53h-3.87c.03 1.21.8 1.94 1.88 1.94.65 0 1.2-.3 1.53-.75zm-2.39-3.69c-.83 0-1.41.49-1.59 1.36h3.02c-.03-.74-.54-1.36-1.43-1.36m10.896 3.69c-.47.63-1.22 1.03-2.16 1.03-1.7 0-2.75-1.25-2.75-2.72 0-1.53.98-2.72 2.54-2.72 1.37 0 2.26.96 2.26 2.2 0 .2-.03.39-.06.53h-3.87c.03 1.21.8 1.94 1.88 1.94.65 0 1.2-.3 1.53-.75zm-2.39-3.69c-.83 0-1.41.49-1.59 1.36h3.02c-.03-.74-.54-1.36-1.43-1.36m3.142 3.83.6-.51c.35.44.77.69 1.28.69.56 0 .88-.34.88-.78 0-1.13-2.52-.73-2.52-2.51 0-.79.67-1.44 1.64-1.44.72 0 1.34.34 1.69.83l-.59.5c-.27-.38-.65-.62-1.09-.62-.54 0-.83.32-.83.71 0 1.13 2.53.77 2.53 2.49-.01.94-.76 1.53-1.7 1.53-.8 0-1.43-.32-1.89-.89m5.302-1v-2.58h-.95v-.77h.95V96.7h.86v1.26h1.75v.77h-1.75v2.58c0 .79.4 1.01 1.01 1.01.33 0 .56-.04.75-.12v.76c-.24.1-.51.14-.87.14-1.12 0-1.75-.56-1.75-1.79m6.175-.83c0-1.47 1.01-2.72 2.59-2.72.75 0 1.34.29 1.79.8V95.5h.85v7.5h-.85v-.6c-.45.51-1.04.8-1.79.8-1.58 0-2.59-1.25-2.59-2.72m.9 0c0 1.07.72 1.92 1.79 1.92.7 0 1.32-.34 1.69-.93v-1.98c-.39-.6-1-.93-1.69-.93-1.07 0-1.79.85-1.79 1.92m8.682-3.32h-.83l1.04-1.66h.96zm1.92 5.01c-.47.63-1.22 1.03-2.16 1.03-1.7 0-2.75-1.25-2.75-2.72 0-1.53.98-2.72 2.54-2.72 1.37 0 2.26.96 2.26 2.2 0 .2-.03.39-.06.53h-3.87c.03 1.21.8 1.94 1.88 1.94.65 0 1.2-.3 1.53-.75zm-2.39-3.69c-.83 0-1.41.49-1.59 1.36h3.02c-.03-.74-.54-1.36-1.43-1.36m3.141 3.83.6-.51c.35.44.77.69 1.28.69.56 0 .88-.34.88-.78 0-1.13-2.52-.73-2.52-2.51 0-.79.67-1.44 1.64-1.44.72 0 1.34.34 1.69.83l-.59.5c-.27-.38-.65-.62-1.09-.62-.54 0-.83.32-.83.71 0 1.13 2.53.77 2.53 2.49-.01.94-.76 1.53-1.7 1.53-.8 0-1.43-.32-1.89-.89m7.215-4.55c1.62 0 2.73 1.25 2.73 2.72s-1.11 2.72-2.73 2.72c-1.63 0-2.73-1.25-2.73-2.72s1.1-2.72 2.73-2.72m.01 4.64c1.05 0 1.82-.88 1.82-1.92 0-1.05-.77-1.92-1.82-1.92-1.08 0-1.85.87-1.85 1.92s.77 1.92 1.85 1.92m4.087.6v-5.04h.85v.63c.37-.44.83-.73 1.47-.73.16 0 .31.02.43.06v.83c-.15-.04-.3-.06-.5-.06-.66 0-1.09.34-1.4.85V103zm3.974 0v-5.04h.85v.55c.38-.44.88-.75 1.58-.75.73 0 1.33.33 1.64.97.4-.55.93-.97 1.8-.97 1.08 0 1.87.72 1.87 2.09V103h-.85v-3.12c0-.84-.47-1.32-1.19-1.32-.64 0-1.09.36-1.42.95.01.11.02.22.02.34V103h-.85v-3.12c0-.84-.46-1.32-1.19-1.32-.69 0-1.12.43-1.41.95V103zm10.823.14c-.99 0-1.66-.55-1.66-1.41 0-.76.58-1.3 1.65-1.48l1.7-.28v-.35c0-.7-.5-1.1-1.22-1.1-.58 0-1.05.27-1.36.7l-.64-.49c.44-.6 1.15-.97 2.03-.97 1.28 0 2.04.75 2.04 1.86V103h-.85v-.64c-.38.49-1.04.78-1.69.78m-.8-1.44c0 .43.35.74.94.74.67 0 1.22-.32 1.55-.86v-.99l-1.49.25c-.69.12-1 .43-1 .86m5.476-5.05c-.33 0-.6-.27-.6-.6a.6.6 0 0 1 .6-.59c.33 0 .59.27.59.59 0 .33-.26.6-.59.6m-.43 6.35v-5.04h.85V103zm2.067-.69.6-.51c.35.44.77.69 1.28.69.56 0 .88-.34.88-.78 0-1.13-2.52-.73-2.52-2.51 0-.79.67-1.44 1.64-1.44.72 0 1.34.34 1.69.83l-.59.5c-.27-.38-.65-.62-1.09-.62-.54 0-.83.32-.83.71 0 1.13 2.53.77 2.53 2.49-.01.94-.76 1.53-1.7 1.53-.8 0-1.43-.32-1.89-.89m6.909-4.35h.92l1.61 4.15 1.61-4.15h.92l-1.97 5.04h-1.12zm6.532-1.31c-.33 0-.6-.27-.6-.6a.6.6 0 0 1 .6-.59c.33 0 .59.27.59.59 0 .33-.26.6-.59.6m-.43 6.35v-5.04h.85V103zm2.216-2.52c0-1.47 1.01-2.72 2.59-2.72.75 0 1.34.29 1.79.8V95.5h.85v7.5h-.85v-.6c-.45.51-1.04.8-1.79.8-1.58 0-2.59-1.25-2.59-2.72m.9 0c0 1.07.72 1.92 1.79 1.92.7 0 1.32-.34 1.69-.93v-1.98c-.39-.6-1-.93-1.69-.93-1.07 0-1.79.85-1.79 1.92m10.602 1.69c-.47.63-1.22 1.03-2.16 1.03-1.7 0-2.75-1.25-2.75-2.72 0-1.53.98-2.72 2.54-2.72 1.37 0 2.26.96 2.26 2.2 0 .2-.03.39-.06.53h-3.87c.03 1.21.8 1.94 1.88 1.94.65 0 1.2-.3 1.53-.75zm-2.39-3.69c-.83 0-1.41.49-1.59 1.36h3.02c-.03-.74-.54-1.36-1.43-1.36m6.416 6.98v-7.5h.85v.6c.45-.51 1.04-.8 1.79-.8 1.58 0 2.59 1.25 2.59 2.72s-1.01 2.72-2.59 2.72c-.75 0-1.34-.29-1.79-.8v3.06zm2.54-6.9c-.7 0-1.31.34-1.69.94v1.96c.39.61 1 .94 1.69.94 1.07 0 1.8-.85 1.8-1.92s-.73-1.92-1.8-1.92m6.41-.8c1.62 0 2.73 1.25 2.73 2.72s-1.11 2.72-2.73 2.72c-1.63 0-2.73-1.25-2.73-2.72s1.1-2.72 2.73-2.72m.01 4.64c1.05 0 1.82-.88 1.82-1.92 0-1.05-.77-1.92-1.82-1.92-1.08 0-1.85.87-1.85 1.92s.77 1.92 1.85 1.92m7.597-1.56v-2.88h.85v2.85c0 1.51-.87 2.39-2.24 2.39-1.36 0-2.23-.88-2.23-2.39v-2.85h.85v2.88c0 .99.53 1.56 1.39 1.56.84 0 1.38-.57 1.38-1.56m2.525 2.16v-5.04h.85v.63c.37-.44.83-.73 1.47-.73.16 0 .31.02.43.06v.83c-.15-.04-.3-.06-.5-.06-.66 0-1.09.34-1.4.85V103zm6.67 2.46v-7.5h.85v.6c.45-.51 1.04-.8 1.79-.8 1.58 0 2.59 1.25 2.59 2.72s-1.01 2.72-2.59 2.72c-.75 0-1.34-.29-1.79-.8v3.06zm2.54-6.9c-.7 0-1.31.34-1.69.94v1.96c.39.61 1 .94 1.69.94 1.07 0 1.8-.85 1.8-1.92s-.73-1.92-1.8-1.92m4.061 4.44v-7.5h.85v7.5zm6.157-2.16v-2.88h.85v2.85c0 1.51-.87 2.39-2.24 2.39-1.36 0-2.23-.88-2.23-2.39v-2.85h.85v2.88c0 .99.53 1.56 1.39 1.56.84 0 1.38-.57 1.38-1.56m1.965 1.47.6-.51c.35.44.77.69 1.28.69.56 0 .88-.34.88-.78 0-1.13-2.52-.73-2.52-2.51 0-.79.67-1.44 1.64-1.44.72 0 1.34.34 1.69.83l-.59.5c-.27-.38-.65-.62-1.09-.62-.54 0-.83.32-.83.71 0 1.13 2.53.77 2.53 2.49-.01.94-.76 1.53-1.7 1.53-.8 0-1.43-.32-1.89-.89m5.404-5.66c-.33 0-.6-.27-.6-.6a.6.6 0 0 1 .6-.59c.33 0 .59.27.59.59 0 .33-.26.6-.59.6m-.43 6.35v-5.04h.85V103zm7.126-.83c-.47.63-1.22 1.03-2.16 1.03-1.7 0-2.75-1.25-2.75-2.72 0-1.53.98-2.72 2.54-2.72 1.37 0 2.26.96 2.26 2.2 0 .2-.03.39-.06.53h-3.87c.03 1.21.8 1.94 1.88 1.94.65 0 1.2-.3 1.53-.75zm-2.39-3.69c-.83 0-1.41.49-1.59 1.36h3.02c-.03-.74-.54-1.36-1.43-1.36m7.153 2.36v-2.88h.85v2.85c0 1.51-.87 2.39-2.24 2.39-1.36 0-2.23-.88-2.23-2.39v-2.85h.85v2.88c0 .99.53 1.56 1.39 1.56.84 0 1.38-.57 1.38-1.56m2.525 2.16v-5.04h.85v.63c.37-.44.83-.73 1.47-.73.16 0 .31.02.43.06v.83c-.15-.04-.3-.06-.5-.06-.66 0-1.09.34-1.4.85V103zm3.435-.69.6-.51c.35.44.77.69 1.28.69.56 0 .88-.34.88-.78 0-1.13-2.52-.73-2.52-2.51 0-.79.67-1.44 1.64-1.44.72 0 1.34.34 1.69.83l-.59.5c-.27-.38-.65-.62-1.09-.62-.54 0-.83.32-.83.71 0 1.13 2.53.77 2.53 2.49-.01.94-.76 1.53-1.7 1.53-.8 0-1.43-.32-1.89-.89m7.669.69v-7.5h.85v7.5zm3.076-6.35c-.33 0-.6-.27-.6-.6a.6.6 0 0 1 .6-.59c.33 0 .59.27.59.59 0 .33-.26.6-.59.6m-.43 6.35v-5.04h.85V103zm2.067.91c0-.51.25-.92.75-1.27a.91.91 0 0 1-.35-.72c0-.4.21-.73.6-.98-.44-.33-.7-.84-.7-1.4 0-.97.76-1.79 1.96-1.79.37 0 .7.08.97.21h1.87v.74h-1.09c.14.25.21.54.21.84 0 .96-.75 1.78-1.96 1.78-.25 0-.49-.04-.7-.1-.21.15-.33.33-.33.52 0 .21.11.36.42.36h1.44c1.33 0 1.95.65 1.95 1.55 0 1.06-1.06 1.85-2.57 1.85-1.49 0-2.47-.58-2.47-1.59m2.27-3.26c.73 0 1.15-.5 1.15-1.11 0-.62-.42-1.12-1.15-1.12-.75 0-1.16.5-1.16 1.12s.41 1.11 1.16 1.11m-1.44 3.16c0 .61.63.98 1.63.98 1.06 0 1.73-.42 1.73-1.08 0-.48-.27-.86-1.17-.86h-1.63c-.35.26-.56.56-.56.96m5.306-.81v-5.04h.85v.57c.41-.45.93-.77 1.68-.77 1.13 0 1.97.76 1.97 2.19V103h-.85v-3.02c0-.9-.51-1.42-1.29-1.42-.73 0-1.19.42-1.51.95V103zm10.691-.83c-.47.63-1.22 1.03-2.16 1.03-1.7 0-2.75-1.25-2.75-2.72 0-1.53.98-2.72 2.54-2.72 1.37 0 2.26.96 2.26 2.2 0 .2-.03.39-.06.53h-3.87c.03 1.21.8 1.94 1.88 1.94.65 0 1.2-.3 1.53-.75zm-2.39-3.69c-.83 0-1.41.49-1.59 1.36h3.02c-.03-.74-.54-1.36-1.43-1.36m3.142 3.83.6-.51c.35.44.77.69 1.28.69.56 0 .88-.34.88-.78 0-1.13-2.52-.73-2.52-2.51 0-.79.67-1.44 1.64-1.44.72 0 1.34.34 1.69.83l-.59.5c-.27-.38-.65-.62-1.09-.62-.54 0-.83.32-.83.71 0 1.13 2.53.77 2.53 2.49-.01.94-.76 1.53-1.7 1.53-.8 0-1.43-.32-1.89-.89m9.139-5.15-1.17-1.66h.95l1.04 1.66zm-.1 5.98c-.99 0-1.66-.55-1.66-1.41 0-.76.58-1.3 1.65-1.48l1.7-.28v-.35c0-.7-.5-1.1-1.22-1.1-.58 0-1.05.27-1.36.7l-.64-.49c.44-.6 1.15-.97 2.03-.97 1.28 0 2.04.75 2.04 1.86V103h-.85v-.64c-.38.49-1.04.78-1.69.78m-.801-1.44c0 .43.351.74.941.74.67 0 1.22-.32 1.55-.86v-.99l-1.49.25c-.69.12-1.001.43-1.001.86M13.9 120.46v-7.5h.85v.6c.45-.51 1.04-.8 1.79-.8 1.58 0 2.59 1.25 2.59 2.72s-1.01 2.72-2.59 2.72c-.75 0-1.34-.29-1.79-.8v3.06zm2.54-6.9c-.7 0-1.31.34-1.69.94v1.96c.39.61 1 .94 1.69.94 1.07 0 1.8-.85 1.8-1.92s-.73-1.92-1.8-1.92m5.344 4.58c-.99 0-1.66-.55-1.66-1.41 0-.76.58-1.3 1.65-1.48l1.7-.28v-.35c0-.7-.5-1.1-1.22-1.1-.58 0-1.05.27-1.36.7l-.64-.49c.44-.6 1.15-.97 2.03-.97 1.28 0 2.04.75 2.04 1.86V118h-.85v-.64c-.38.49-1.04.78-1.69.78m-.8-1.44c0 .43.35.74.94.74.67 0 1.22-.32 1.55-.86v-.99l-1.49.25c-.69.12-1 .43-1 .86m5.045 1.3v-5.04h.85v.63c.37-.44.83-.73 1.47-.73.16 0 .31.02.43.06v.83c-.15-.04-.3-.06-.5-.06-.66 0-1.09.34-1.4.85V118zm4.499-1.69v-2.58h-.95v-.77h.95v-1.26h.86v1.26h1.75v.77h-1.75v2.58c0 .79.4 1.01 1.01 1.01.33 0 .56-.04.75-.12v.76c-.24.1-.51.14-.87.14-1.12 0-1.75-.56-1.75-1.79m4.34-4.66c-.33 0-.6-.27-.6-.6a.6.6 0 0 1 .6-.59c.33 0 .59.27.59.59 0 .33-.26.6-.59.6m-.43 6.35v-5.04h.85V118zm2.646 0v-5.04h.85v.63c.37-.44.83-.73 1.47-.73.16 0 .31.02.43.06v.83c-.15-.04-.3-.06-.5-.06-.66 0-1.09.34-1.4.85V118zm6.24-2.52c0-1.47 1.01-2.72 2.59-2.72.75 0 1.34.29 1.79.8v-3.06h.85v7.5h-.85v-.6c-.45.51-1.04.8-1.79.8-1.58 0-2.59-1.25-2.59-2.72m.9 0c0 1.07.72 1.92 1.79 1.92.7 0 1.32-.34 1.69-.93v-1.98c-.39-.6-1-.93-1.69-.93-1.07 0-1.79.85-1.79 1.92m10.601 1.69c-.47.63-1.22 1.03-2.16 1.03-1.7 0-2.75-1.25-2.75-2.72 0-1.53.98-2.72 2.54-2.72 1.37 0 2.26.96 2.26 2.2 0 .2-.03.39-.06.53h-3.87c.03 1.21.8 1.94 1.88 1.94.65 0 1.2-.3 1.53-.75zm-2.39-3.69c-.83 0-1.41.49-1.59 1.36h3.02c-.03-.74-.54-1.36-1.43-1.36m6.196 4.52v-.81l2.37-2.44c.82-.86 1.19-1.25 1.19-1.99 0-.73-.53-1.15-1.24-1.15-.74 0-1.22.37-1.63 1.05l-.74-.45c.57-.89 1.35-1.41 2.44-1.41 1.17 0 2.1.76 2.1 1.9 0 .95-.62 1.66-1.46 2.54l-1.92 1.95h3.57v.81zm8.306-7.2c1.76 0 2.62 1.62 2.62 3.7s-.86 3.7-2.62 3.7c-1.74 0-2.61-1.62-2.61-3.7s.87-3.7 2.61-3.7m.01.84c-1.12 0-1.7 1.22-1.7 2.86s.58 2.86 1.7 2.86c1.11 0 1.68-1.22 1.68-2.86s-.57-2.86-1.68-2.86m3.618 6.36v-.81l2.37-2.44c.82-.86 1.19-1.25 1.19-1.99 0-.73-.53-1.15-1.24-1.15-.74 0-1.22.37-1.63 1.05l-.74-.45c.57-.89 1.35-1.41 2.44-1.41 1.17 0 2.1.76 2.1 1.9 0 .95-.62 1.66-1.46 2.54l-1.92 1.95h3.57v.81zm10.511-1.93c0 1.27-1.03 2.13-2.44 2.13-1.21 0-2.01-.49-2.57-1.42l.79-.49c.43.77.99 1.1 1.77 1.1.87 0 1.52-.51 1.52-1.36 0-.79-.56-1.34-1.48-1.34h-1.19v-.81h1.05c.8 0 1.31-.48 1.31-1.16 0-.71-.53-1.11-1.25-1.11-.63 0-1.12.32-1.45.93l-.75-.46c.5-.82 1.24-1.28 2.26-1.28 1.21 0 2.11.73 2.11 1.84 0 .68-.32 1.26-.92 1.59.81.33 1.24 1.03 1.24 1.84m1.448 2.04c-.36 0-.65-.28-.65-.63s.29-.64.65-.64.64.29.64.64-.28.63-.64.63M14.11 137v-7h2.05c1.4 0 2.27.77 2.27 1.97s-.87 1.96-2.27 1.96h-1.11V137zm2.07-6.2h-1.13v2.33h1.13c.8 0 1.28-.43 1.28-1.18 0-.71-.48-1.15-1.28-1.15m5.46.96c1.62 0 2.73 1.25 2.73 2.72s-1.11 2.72-2.73 2.72c-1.63 0-2.73-1.25-2.73-2.72s1.1-2.72 2.73-2.72m.01 4.64c1.05 0 1.82-.88 1.82-1.92 0-1.05-.77-1.92-1.82-1.92-1.08 0-1.85.87-1.85 1.92s.77 1.92 1.85 1.92m7.596-1.56v-2.88h.85v2.85c0 1.51-.87 2.39-2.24 2.39-1.36 0-2.23-.88-2.23-2.39v-2.85h.85v2.88c0 .99.53 1.56 1.39 1.56.84 0 1.38-.57 1.38-1.56m1.804-2.88h.92l1.61 4.15 1.61-4.15h.92L34.14 137h-1.12zm10.504 4.21c-.47.63-1.22 1.03-2.16 1.03-1.7 0-2.75-1.25-2.75-2.72 0-1.53.98-2.72 2.54-2.72 1.37 0 2.26.96 2.26 2.2 0 .2-.03.39-.06.53h-3.87c.03 1.21.8 1.94 1.88 1.94.65 0 1.2-.3 1.53-.75zm-2.39-3.69c-.83 0-1.41.49-1.59 1.36h3.02c-.03-.74-.54-1.36-1.43-1.36m3.271 4.52v-.77l2.97-3.5h-2.9v-.77h3.94v.77l-2.98 3.5h3.05v.77zm4.76-2.97h2.7v.82h-2.7zm2.937-2.07h.92l1.61 4.15 1.61-4.15h.92l-1.97 5.04h-1.12zm8.324-.2c1.62 0 2.73 1.25 2.73 2.72s-1.11 2.72-2.73 2.72c-1.63 0-2.73-1.25-2.73-2.72s1.1-2.72 2.73-2.72m.01 4.64c1.05 0 1.82-.88 1.82-1.92 0-1.05-.77-1.92-1.82-1.92-1.08 0-1.85.87-1.85 1.92s.77 1.92 1.85 1.92m7.596-1.56v-2.88h.85v2.85c0 1.51-.87 2.39-2.24 2.39-1.36 0-2.23-.88-2.23-2.39v-2.85h.85v2.88c0 .99.53 1.56 1.39 1.56.84 0 1.38-.57 1.38-1.56m1.966 1.47.6-.51c.35.44.77.69 1.28.69.56 0 .88-.34.88-.78 0-1.13-2.52-.73-2.52-2.51 0-.79.67-1.44 1.64-1.44.72 0 1.34.34 1.69.83l-.59.5c-.27-.38-.65-.62-1.09-.62-.54 0-.83.32-.83.71 0 1.13 2.53.77 2.53 2.49-.01.94-.76 1.53-1.7 1.53-.8 0-1.43-.32-1.89-.89m9.989.09c.62 0 1.13-.3 1.44-.74l.67.51c-.47.63-1.2 1.03-2.12 1.03-1.67 0-2.74-1.25-2.74-2.72s1.07-2.72 2.74-2.72c.91 0 1.65.41 2.12 1.03l-.67.51c-.31-.44-.82-.74-1.45-.74-1.08 0-1.85.85-1.85 1.92 0 1.08.77 1.92 1.86 1.92m5.38-4.64c1.62 0 2.73 1.25 2.73 2.72s-1.11 2.72-2.73 2.72c-1.63 0-2.73-1.25-2.73-2.72s1.1-2.72 2.73-2.72m.01 4.64c1.05 0 1.82-.88 1.82-1.92 0-1.05-.77-1.92-1.82-1.92-1.08 0-1.85.87-1.85 1.92s.77 1.92 1.85 1.92m4.087.6v-5.04h.85v.57c.41-.45.93-.77 1.68-.77 1.13 0 1.97.76 1.97 2.19V137h-.85v-3.02c0-.9-.51-1.42-1.29-1.42-.73 0-1.19.42-1.51.95V137zm5.55-5.04h.95v-.62c0-1.07.69-1.84 1.79-1.84.46 0 .83.13 1.11.29l-.38.71a1.16 1.16 0 0 0-.71-.23c-.57 0-.95.39-.95 1.05v.64h1.75v.77h-1.75V137h-.86v-4.27h-.95zm5.026-1.31c-.33 0-.6-.27-.6-.6a.6.6 0 0 1 .6-.59c.33 0 .59.27.59.59 0 .33-.26.6-.59.6m-.43 6.35v-5.04h.85V137zm2.647 0v-5.04h.85v.63c.37-.44.83-.73 1.47-.73.16 0 .31.02.43.06v.83c-.15-.04-.3-.06-.5-.06-.66 0-1.09.34-1.4.85V137zm3.974 0v-5.04h.85v.55c.38-.44.88-.75 1.58-.75.73 0 1.33.33 1.64.97.4-.55.93-.97 1.8-.97 1.08 0 1.87.72 1.87 2.09V137h-.85v-3.12c0-.84-.47-1.32-1.19-1.32-.64 0-1.09.36-1.42.95.01.11.02.22.02.34V137h-.85v-3.12c0-.84-.46-1.32-1.19-1.32-.69 0-1.12.43-1.41.95V137zm13.933-.83c-.47.63-1.22 1.03-2.16 1.03-1.7 0-2.75-1.25-2.75-2.72 0-1.53.98-2.72 2.54-2.72 1.37 0 2.26.96 2.26 2.2 0 .2-.03.39-.06.53h-3.87c.03 1.21.8 1.94 1.88 1.94.65 0 1.2-.3 1.53-.75zm-2.39-3.69c-.83 0-1.41.49-1.59 1.36h3.02c-.03-.74-.54-1.36-1.43-1.36m3.721 4.52v-5.04h.85v.63c.37-.44.83-.73 1.47-.73.16 0 .31.02.43.06v.83c-.15-.04-.3-.06-.5-.06-.66 0-1.09.34-1.4.85V137zm6.13-.69.6-.51c.35.44.77.69 1.28.69.56 0 .88-.34.88-.78 0-1.13-2.52-.73-2.52-2.51 0-.79.67-1.44 1.64-1.44.72 0 1.34.34 1.69.83l-.59.5c-.27-.38-.65-.62-1.09-.62-.54 0-.83.32-.83.71 0 1.13 2.53.77 2.53 2.49-.01.94-.76 1.53-1.7 1.53-.8 0-1.43-.32-1.89-.89m5.404-5.66c-.33 0-.6-.27-.6-.6a.6.6 0 0 1 .6-.59c.33 0 .59.27.59.59 0 .33-.26.6-.59.6m-.43 6.35v-5.04h.85V137zm7.661-.6c.62 0 1.13-.3 1.44-.74l.67.51c-.47.63-1.2 1.03-2.12 1.03-1.67 0-2.74-1.25-2.74-2.72s1.07-2.72 2.74-2.72c.91 0 1.65.41 2.12 1.03l-.67.51c-.31-.44-.82-.74-1.45-.74-1.08 0-1.85.85-1.85 1.92 0 1.08.77 1.92 1.86 1.92m3.938-3.72h-.79l.85-2.68h.97zm6.211 3.49c-.47.63-1.22 1.03-2.16 1.03-1.7 0-2.75-1.25-2.75-2.72 0-1.53.98-2.72 2.54-2.72 1.37 0 2.26.96 2.26 2.2 0 .2-.03.39-.06.53h-3.87c.03 1.21.8 1.94 1.88 1.94.65 0 1.2-.3 1.53-.75zm-2.39-3.69c-.83 0-1.41.49-1.59 1.36h3.02c-.03-.74-.54-1.36-1.43-1.36m3.141 3.83.6-.51c.35.44.77.69 1.28.69.56 0 .88-.34.88-.78 0-1.13-2.52-.73-2.52-2.51 0-.79.67-1.44 1.64-1.44.72 0 1.34.34 1.69.83l-.59.5c-.27-.38-.65-.62-1.09-.62-.54 0-.83.32-.83.71 0 1.13 2.53.77 2.53 2.49-.01.94-.76 1.53-1.7 1.53-.8 0-1.43-.32-1.89-.89m5.303-1v-2.58h-.95v-.77h.95v-1.26h.86v1.26h1.75v.77h-1.75v2.58c0 .79.4 1.01 1.01 1.01.33 0 .56-.04.75-.12v.76c-.24.1-.51.14-.87.14-1.12 0-1.75-.56-1.75-1.79m10.114-.47v-2.88h.85v2.85c0 1.51-.87 2.39-2.24 2.39-1.36 0-2.23-.88-2.23-2.39v-2.85h.85v2.88c0 .99.53 1.56 1.39 1.56.84 0 1.38-.57 1.38-1.56m2.525 2.16v-5.04h.85v.57c.41-.45.93-.77 1.68-.77 1.13 0 1.97.76 1.97 2.19V137h-.85v-3.02c0-.9-.51-1.42-1.29-1.42-.73 0-1.19.42-1.51.95V137zm10.691-.83c-.47.63-1.22 1.03-2.16 1.03-1.7 0-2.75-1.25-2.75-2.72 0-1.53.98-2.72 2.54-2.72 1.37 0 2.26.96 2.26 2.2 0 .2-.03.39-.06.53h-3.87c.03 1.21.8 1.94 1.88 1.94.65 0 1.2-.3 1.53-.75zm-2.39-3.69c-.83 0-1.41.49-1.59 1.36h3.02c-.03-.74-.54-1.36-1.43-1.36m8.976-1.32h-.83l1.04-1.66h.96zm1.92 5.01c-.47.63-1.22 1.03-2.16 1.03-1.7 0-2.75-1.25-2.75-2.72 0-1.53.98-2.72 2.54-2.72 1.37 0 2.26.96 2.26 2.2 0 .2-.03.39-.06.53h-3.87c.03 1.21.8 1.94 1.88 1.94.65 0 1.2-.3 1.53-.75zm-2.39-3.69c-.83 0-1.41.49-1.59 1.36h3.02c-.03-.74-.54-1.36-1.43-1.36m2.941-.52h.92l1.61 4.15 1.61-4.15h.92l-1.97 5.04h-1.12zm8.324-.2c1.62 0 2.73 1.25 2.73 2.72s-1.11 2.72-2.73 2.72c-1.63 0-2.73-1.25-2.73-2.72s1.1-2.72 2.73-2.72m.01 4.64c1.05 0 1.82-.88 1.82-1.92 0-1.05-.77-1.92-1.82-1.92-1.08 0-1.85.87-1.85 1.92s.77 1.92 1.85 1.92m4.086.6v-7.5h.85v7.5zm6.157-2.16v-2.88h.85v2.85c0 1.51-.87 2.39-2.24 2.39-1.36 0-2.23-.88-2.23-2.39v-2.85h.85v2.88c0 .99.53 1.56 1.39 1.56.84 0 1.38-.57 1.38-1.56m2.854.47v-2.58h-.95v-.77h.95v-1.26h.86v1.26h1.75v.77h-1.75v2.58c0 .79.4 1.01 1.01 1.01.33 0 .56-.04.75-.12v.76c-.24.1-.51.14-.87.14-1.12 0-1.75-.56-1.75-1.79m4.339-4.66c-.33 0-.6-.27-.6-.6a.6.6 0 0 1 .6-.59c.33 0 .59.27.59.59 0 .33-.26.6-.59.6m-.43 6.35v-5.04h.85V137zm4.947-5.24c1.62 0 2.73 1.25 2.73 2.72s-1.11 2.72-2.73 2.72c-1.63 0-2.73-1.25-2.73-2.72s1.1-2.72 2.73-2.72m.01 4.64c1.05 0 1.82-.88 1.82-1.92 0-1.05-.77-1.92-1.82-1.92-1.08 0-1.85.87-1.85 1.92s.77 1.92 1.85 1.92m4.086.6v-5.04h.85v.57c.41-.45.93-.77 1.68-.77 1.13 0 1.97.76 1.97 2.19V137h-.85v-3.02c0-.9-.51-1.42-1.29-1.42-.73 0-1.19.42-1.51.95V137zm8.477-2.52c0-1.47 1.01-2.72 2.59-2.72.75 0 1.34.29 1.79.8v-3.06h.85v7.5h-.85v-.6c-.45.51-1.04.8-1.79.8-1.58 0-2.59-1.25-2.59-2.72m.9 0c0 1.07.72 1.92 1.79 1.92.7 0 1.32-.34 1.69-.93v-1.98c-.39-.6-1-.93-1.69-.93-1.07 0-1.79.85-1.79 1.92m9.631.36v-2.88h.85v2.85c0 1.51-.87 2.39-2.24 2.39-1.36 0-2.23-.88-2.23-2.39v-2.85h.85v2.88c0 .99.53 1.56 1.39 1.56.84 0 1.38-.57 1.38-1.56m5.221 2.16v-5.04h.85v.55c.38-.44.88-.75 1.58-.75.73 0 1.33.33 1.64.97.4-.55.93-.97 1.8-.97 1.08 0 1.87.72 1.87 2.09V137h-.85v-3.12c0-.84-.47-1.32-1.19-1.32-.64 0-1.09.36-1.42.95.01.11.02.22.02.34V137h-.85v-3.12c0-.84-.46-1.32-1.19-1.32-.69 0-1.12.43-1.41.95V137zm11.753-5.24c1.62 0 2.73 1.25 2.73 2.72s-1.11 2.72-2.73 2.72c-1.63 0-2.73-1.25-2.73-2.72s1.1-2.72 2.73-2.72m.01 4.64c1.05 0 1.82-.88 1.82-1.92 0-1.05-.77-1.92-1.82-1.92-1.08 0-1.85.87-1.85 1.92s.77 1.92 1.85 1.92m3.705-1.92c0-1.47 1.01-2.72 2.59-2.72.75 0 1.34.29 1.79.8v-3.06h.85v7.5h-.85v-.6c-.45.51-1.04.8-1.79.8-1.58 0-2.59-1.25-2.59-2.72m.9 0c0 1.07.72 1.92 1.79 1.92.7 0 1.32-.34 1.69-.93v-1.98c-.39-.6-1-.93-1.69-.93-1.07 0-1.79.85-1.79 1.92m7.812-3.32-1.17-1.66h.95l1.04 1.66zm2.79 5.01c-.47.63-1.22 1.03-2.16 1.03-1.7 0-2.75-1.25-2.75-2.72 0-1.53.98-2.72 2.54-2.72 1.37 0 2.26.96 2.26 2.2 0 .2-.03.39-.06.53h-3.87c.03 1.21.8 1.94 1.88 1.94.65 0 1.2-.3 1.53-.75zm-2.39-3.69c-.83 0-1.41.49-1.59 1.36h3.02c-.03-.74-.54-1.36-1.43-1.36m3.721 4.52v-7.5h.85v7.5zm7.126-.83c-.47.63-1.22 1.03-2.16 1.03-1.7 0-2.75-1.25-2.75-2.72 0-1.53.98-2.72 2.54-2.72 1.37 0 2.26.96 2.26 2.2 0 .2-.03.39-.06.53h-3.87c.03 1.21.8 1.94 1.88 1.94.65 0 1.2-.3 1.53-.75zm-2.39-3.69c-.83 0-1.41.49-1.59 1.36h3.02c-.03-.74-.54-1.36-1.43-1.36m3.992 6.12h-.79l.85-2.65h.97zm7.361-6.84c1.62 0 2.73 1.25 2.73 2.72s-1.11 2.72-2.73 2.72c-1.63 0-2.73-1.25-2.73-2.72s1.1-2.72 2.73-2.72m.01 4.64c1.05 0 1.82-.88 1.82-1.92 0-1.05-.77-1.92-1.82-1.92-1.08 0-1.85.87-1.85 1.92s.77 1.92 1.85 1.92m7.596-1.56v-2.88h.85v2.85c0 1.51-.87 2.39-2.24 2.39-1.36 0-2.23-.88-2.23-2.39v-2.85h.85v2.88c0 .99.53 1.56 1.39 1.56.84 0 1.38-.57 1.38-1.56m4.681 1.47.6-.51c.35.44.77.69 1.28.69.56 0 .88-.34.88-.78 0-1.13-2.52-.73-2.52-2.51 0-.79.67-1.44 1.64-1.44.72 0 1.34.34 1.69.83l-.59.5c-.27-.38-.65-.62-1.09-.62-.54 0-.83.32-.83.71 0 1.13 2.53.77 2.53 2.49-.01.94-.76 1.53-1.7 1.53-.8 0-1.43-.32-1.89-.89m5.411-3.63h-.79l.85-2.68h.97zm2.834-2.03c-.33 0-.6-.27-.6-.6a.6.6 0 0 1 .6-.59c.33 0 .59.27.59.59 0 .33-.26.6-.59.6m-.43 6.35v-5.04h.85V137zm2.646 0v-7.5h.85v7.5zm4.802-.69.6-.51c.35.44.77.69 1.28.69.56 0 .88-.34.88-.78 0-1.13-2.52-.73-2.52-2.51 0-.79.67-1.44 1.64-1.44.72 0 1.34.34 1.69.83l-.59.5c-.27-.38-.65-.62-1.09-.62-.54 0-.83.32-.83.71 0 1.13 2.53.77 2.53 2.49-.01.94-.76 1.53-1.7 1.53-.8 0-1.43-.32-1.89-.89m5.411-3.63h-.79l.85-2.68h.97zm3.335 4.46c-.99 0-1.66-.55-1.66-1.41 0-.76.58-1.3 1.65-1.48l1.7-.28v-.35c0-.7-.5-1.1-1.22-1.1-.58 0-1.05.27-1.36.7l-.64-.49c.44-.6 1.15-.97 2.03-.97 1.28 0 2.04.75 2.04 1.86V137h-.85v-.64c-.38.49-1.04.78-1.69.78m-.8-1.44c0 .43.35.74.94.74.67 0 1.22-.32 1.55-.86v-.99l-1.49.25c-.69.12-1 .43-1 .86m5.505 1.41c-.36 0-.65-.28-.65-.63s.29-.64.65-.64.64.29.64.64-.28.63-.64.63m2.16 0a.63.63 0 0 1-.64-.63c0-.35.28-.64.64-.64s.65.29.65.64-.29.63-.65.63m2.18 0c-.36 0-.65-.28-.65-.63s.29-.64.65-.64.64.29.64.64-.28.63-.64.63"/><mask id="d" fill="#fff"><path d="M13 148h336v105H13z"/></mask><path fill="#000091" d="M13 253h2V148h-4v105z" mask="url(#d)"/><path fill="#000091" d="M27 157a4 4 0 1 1 8 0 4 4 0 0 1-8 0m4-5a5 5 0 1 0 0 10 5 5 0 0 0 0-10m2.728 3.729-.706-.708-2.522 2.522-1.396-1.397-.708.708 2.104 2.103zM42.11 161v-7h1.2l2.14 3.53 2.14-3.53h1.2v7h-.94v-5.74l-2.04 3.34h-.72l-2.04-3.34V161zm9.107-6.35c-.33 0-.6-.27-.6-.6a.6.6 0 0 1 .6-.59c.33 0 .59.27.59.59 0 .33-.26.6-.59.6m-.43 6.35v-5.04h.85V161zm2.646 0v-5.04h.85v.57c.41-.45.93-.77 1.68-.77 1.13 0 1.97.76 1.97 2.19V161h-.85v-3.02c0-.9-.51-1.42-1.29-1.42-.73 0-1.19.42-1.51.95V161zm6.641-6.35c-.33 0-.6-.27-.6-.6a.6.6 0 0 1 .6-.59c.33 0 .59.27.59.59 0 .33-.26.6-.59.6m-.43 6.35v-5.04h.85V161zm2.068-.69.6-.51c.35.44.77.69 1.28.69.56 0 .88-.34.88-.78 0-1.13-2.52-.73-2.52-2.51 0-.79.67-1.44 1.64-1.44.72 0 1.34.34 1.69.83l-.59.5c-.27-.38-.65-.62-1.09-.62-.54 0-.83.32-.83.71 0 1.13 2.53.77 2.53 2.49-.01.94-.76 1.53-1.7 1.53-.8 0-1.43-.32-1.89-.89m5.302-1v-2.58h-.95v-.77h.95v-1.26h.86v1.26h1.75v.77h-1.75v2.58c0 .79.4 1.01 1.01 1.01.33 0 .56-.04.75-.12v.76c-.24.1-.51.14-.87.14-1.12 0-1.75-.56-1.75-1.79m5.502-4.15-1.17-1.66h.95l1.04 1.66zm2.79 5.01c-.47.63-1.22 1.03-2.16 1.03-1.7 0-2.75-1.25-2.75-2.72 0-1.53.98-2.72 2.54-2.72 1.37 0 2.26.96 2.26 2.2 0 .2-.03.39-.06.53h-3.87c.03 1.21.8 1.94 1.88 1.94.65 0 1.2-.3 1.53-.75zm-2.39-3.69c-.83 0-1.41.49-1.59 1.36h3.02c-.03-.74-.54-1.36-1.43-1.36m3.72 4.52v-5.04h.85v.63c.37-.44.83-.73 1.47-.73.16 0 .31.02.43.06v.83c-.15-.04-.3-.06-.5-.06-.66 0-1.09.34-1.4.85V161zm8.152-.83c-.47.63-1.22 1.03-2.16 1.03-1.7 0-2.75-1.25-2.75-2.72 0-1.53.98-2.72 2.54-2.72 1.37 0 2.26.96 2.26 2.2 0 .2-.03.39-.06.53h-3.87c.03 1.21.8 1.94 1.88 1.94.65 0 1.2-.3 1.53-.75zm-2.39-3.69c-.83 0-1.41.49-1.59 1.36h3.02c-.03-.74-.54-1.36-1.43-1.36m5.986 2c0-1.47 1.01-2.72 2.59-2.72.75 0 1.34.29 1.79.8v-3.06h.85v7.5h-.85v-.6c-.45.51-1.04.8-1.79.8-1.58 0-2.59-1.25-2.59-2.72m.9 0c0 1.07.72 1.92 1.79 1.92.7 0 1.32-.34 1.69-.93v-1.98c-.39-.6-1-.93-1.69-.93-1.07 0-1.79.85-1.79 1.92m10.602 1.69c-.47.63-1.22 1.03-2.16 1.03-1.7 0-2.75-1.25-2.75-2.72 0-1.53.98-2.72 2.54-2.72 1.37 0 2.26.96 2.26 2.2 0 .2-.03.39-.06.53h-3.87c.03 1.21.8 1.94 1.88 1.94.65 0 1.2-.3 1.53-.75zm-2.39-3.69c-.83 0-1.41.49-1.59 1.36h3.02c-.03-.74-.54-1.36-1.43-1.36m6.416 4.52v-7.5h.85v7.5zm4.016.14c-.99 0-1.66-.55-1.66-1.41 0-.76.58-1.3 1.65-1.48l1.7-.28v-.35c0-.7-.5-1.1-1.22-1.1-.58 0-1.05.27-1.36.7l-.64-.49c.44-.6 1.15-.97 2.03-.97 1.28 0 2.04.75 2.04 1.86V161h-.85v-.64c-.38.49-1.04.78-1.69.78m-.8-1.44c0 .43.35.74.94.74.67 0 1.22-.32 1.55-.86v-.99l-1.49.25c-.69.12-1 .43-1 .86m11.031.62c.94 0 1.71-.46 2.18-1.14l.75.58c-.64.87-1.67 1.44-2.93 1.44-2.19 0-3.68-1.7-3.68-3.7s1.49-3.7 3.68-3.7c1.26 0 2.29.58 2.93 1.44l-.75.58a2.61 2.61 0 0 0-2.18-1.14c-1.58 0-2.71 1.26-2.71 2.82s1.13 2.82 2.71 2.82m7.69-1.48v-2.88h.85v2.85c0 1.51-.87 2.39-2.24 2.39-1.36 0-2.23-.88-2.23-2.39v-2.85h.85v2.88c0 .99.53 1.56 1.39 1.56.84 0 1.38-.57 1.38-1.56m2.526 2.16v-7.5h.85v7.5zm2.936-1.69v-2.58h-.95v-.77h.95v-1.26h.86v1.26h1.75v.77h-1.75v2.58c0 .79.4 1.01 1.01 1.01.33 0 .56-.04.75-.12v.76c-.24.1-.51.14-.87.14-1.12 0-1.75-.56-1.75-1.79m7.39-.47v-2.88h.85v2.85c0 1.51-.87 2.39-2.24 2.39-1.36 0-2.23-.88-2.23-2.39v-2.85h.85v2.88c0 .99.53 1.56 1.39 1.56.84 0 1.38-.57 1.38-1.56m2.525 2.16v-5.04h.85v.63c.37-.44.83-.73 1.47-.73.16 0 .31.02.43.06v.83c-.15-.04-.3-.06-.5-.06-.66 0-1.09.34-1.4.85V161zm8.152-.83c-.47.63-1.22 1.03-2.16 1.03-1.7 0-2.75-1.25-2.75-2.72 0-1.53.98-2.72 2.54-2.72 1.37 0 2.26.96 2.26 2.2 0 .2-.03.39-.06.53h-3.87c.03 1.21.8 1.94 1.88 1.94.65 0 1.2-.3 1.53-.75zm-2.39-3.69c-.83 0-1.41.49-1.59 1.36h3.02c-.03-.74-.54-1.36-1.43-1.36"/><path fill="#666" d="M154.21 158.07h4.98v.74h-4.98zM165.33 154.65c-.33 0-.6-.27-.6-.6a.6.6 0 0 1 .6-.59c.33 0 .59.27.59.59 0 .33-.26.6-.59.6m-.43 6.35v-5.04h.85V161zm2.646 0v-7.5h.85v7.5zm7.132 1.22c-.35.84-.93 1.28-1.78 1.28-.34 0-.59-.05-.81-.16v-.76c.19.09.42.14.66.14.51 0 .91-.19 1.17-.81l.39-.92-2.18-5.03h.94l1.69 3.95 1.67-3.95h.9zm7.764-1.08c-.99 0-1.66-.55-1.66-1.41 0-.76.58-1.3 1.65-1.48l1.7-.28v-.35c0-.7-.5-1.1-1.22-1.1-.58 0-1.05.27-1.36.7l-.64-.49c.44-.6 1.15-.97 2.03-.97 1.28 0 2.04.75 2.04 1.86V161h-.85v-.64c-.38.49-1.04.78-1.69.78m-.8-1.44c0 .43.35.74.94.74.67 0 1.22-.32 1.55-.86v-.99l-1.49.25c-.69.12-1 .43-1 .86m7.52 1.3v-.81l2.37-2.44c.82-.86 1.19-1.25 1.19-1.99 0-.73-.53-1.15-1.24-1.15-.74 0-1.22.37-1.63 1.05l-.74-.45c.57-.89 1.35-1.41 2.44-1.41 1.17 0 2.1.76 2.1 1.9 0 .95-.62 1.66-1.46 2.54l-1.92 1.95h3.57v.81zm8.912 0v-7.5h.85v3.03c.41-.45.93-.77 1.68-.77 1.13 0 1.97.76 1.97 2.19V161h-.85v-3.02c0-.9-.5-1.42-1.29-1.42-.74 0-1.19.43-1.51.95V161zm10.691-.83c-.47.63-1.22 1.03-2.16 1.03-1.7 0-2.75-1.25-2.75-2.72 0-1.53.98-2.72 2.54-2.72 1.37 0 2.26.96 2.26 2.2 0 .2-.03.39-.06.53h-3.87c.03 1.21.8 1.94 1.88 1.94.65 0 1.2-.3 1.53-.75zm-2.39-3.69c-.83 0-1.41.49-1.59 1.36h3.02c-.03-.74-.54-1.36-1.43-1.36m7.152 2.36v-2.88h.85v2.85c0 1.51-.87 2.39-2.24 2.39-1.36 0-2.23-.88-2.23-2.39v-2.85h.85v2.88c0 .99.53 1.56 1.39 1.56.84 0 1.38-.57 1.38-1.56m2.525 2.16v-5.04h.85v.63c.37-.44.83-.73 1.47-.73.16 0 .31.02.43.06v.83c-.15-.04-.3-.06-.5-.06-.66 0-1.09.34-1.4.85V161zm8.152-.83c-.47.63-1.22 1.03-2.16 1.03-1.7 0-2.75-1.25-2.75-2.72 0-1.53.98-2.72 2.54-2.72 1.37 0 2.26.96 2.26 2.2 0 .2-.03.39-.06.53h-3.87c.03 1.21.8 1.94 1.88 1.94.65 0 1.2-.3 1.53-.75zm-2.39-3.69c-.83 0-1.41.49-1.59 1.36h3.02c-.03-.74-.54-1.36-1.43-1.36m3.142 3.83.6-.51c.35.44.77.69 1.28.69.56 0 .88-.34.88-.78 0-1.13-2.52-.73-2.52-2.51 0-.79.67-1.44 1.64-1.44.72 0 1.34.34 1.69.83l-.59.5c-.27-.38-.65-.62-1.09-.62-.54 0-.83.32-.83.71 0 1.13 2.53.77 2.53 2.49-.01.94-.76 1.53-1.7 1.53-.8 0-1.43-.32-1.89-.89M234.21 158.07h4.98v.74h-4.98z"/><rect width="66" height="17" x="244" y="148.5" fill="#e8edff" rx="2"/><path fill="#0063cb" d="M248.824 160.5v-5.6h1.848c1.232 0 1.984.632 1.984 1.672 0 1.032-.752 1.664-1.984 1.664h-.712v2.264zm1.896-4.656h-.76v1.448h.76c.48 0 .768-.28.768-.736 0-.424-.288-.712-.768-.712m3.116 4.656v-5.6h1.712c1.232 0 1.992.632 1.992 1.672 0 .68-.328 1.184-.904 1.448l1.752 2.48h-1.336l-1.496-2.264h-.584v2.264zm1.776-4.656h-.64v1.448h.64c.48 0 .76-.28.76-.736 0-.424-.28-.712-.76-.712m6.145-1.104c1.76 0 2.968 1.36 2.968 2.96s-1.208 2.96-2.968 2.96c-1.768 0-2.976-1.36-2.976-2.96s1.208-2.96 2.976-2.96m0 4.856c1.048 0 1.8-.824 1.8-1.896s-.752-1.896-1.8-1.896c-1.056 0-1.808.824-1.808 1.896s.752 1.896 1.808 1.896m4.297.904v-5.6h2.2c1.776 0 2.976 1.288 2.976 2.8s-1.2 2.8-2.976 2.8zm2.216-4.568h-1.08v3.536h1.08c1.04 0 1.792-.776 1.792-1.768 0-1-.752-1.768-1.792-1.768m7.598 2.472V154.9h1.136v3.408c0 1.472-.864 2.352-2.272 2.352-1.4 0-2.264-.88-2.264-2.352V154.9h1.136v3.504c0 .752.424 1.192 1.136 1.192.696 0 1.128-.44 1.128-1.192m5.346 1.192c.64 0 1.144-.312 1.464-.768l.896.688c-.512.696-1.344 1.144-2.36 1.144-1.768 0-2.976-1.36-2.976-2.96s1.208-2.96 2.976-2.96c1.016 0 1.848.456 2.36 1.136l-.896.696a1.75 1.75 0 0 0-1.464-.768c-1.056 0-1.808.824-1.808 1.896s.752 1.896 1.808 1.896m3.01-3.664V154.9h4.592v1.032h-1.728v4.568h-1.136v-4.568zm5.829 4.568v-5.6h3.264v.944h-2.128v1.328h1.808v.944h-1.808v1.44h2.128v.944zm8.096-2.096V154.9h1.136v3.408c0 1.472-.864 2.352-2.272 2.352-1.4 0-2.264-.88-2.264-2.352V154.9h1.136v3.504c0 .752.424 1.192 1.136 1.192.696 0 1.128-.44 1.128-1.192m2.787 2.096v-5.6h1.712c1.232 0 1.992.632 1.992 1.672 0 .68-.328 1.184-.904 1.448l1.752 2.48h-1.336l-1.496-2.264h-.584v2.264zm1.776-4.656h-.64v1.448h.64c.48 0 .76-.28.76-.736 0-.424-.28-.712-.76-.712"/><path fill="#3a3a3a" d="M26.11 186v-7h1.73c1.34 0 2.15.71 2.15 1.82 0 .63-.29 1.14-.84 1.44.82.29 1.26.93 1.26 1.73 0 1.23-.91 2.01-2.4 2.01zm1.74-6.2h-.8v2.11h.8c.74 0 1.17-.38 1.17-1.07 0-.66-.43-1.04-1.17-1.04m.2 2.91h-1v2.49h1c.87 0 1.39-.46 1.39-1.25s-.52-1.24-1.39-1.24m6.166-1.95c1.62 0 2.73 1.25 2.73 2.72s-1.11 2.72-2.73 2.72c-1.63 0-2.73-1.25-2.73-2.72s1.1-2.72 2.73-2.72m.01 4.64c1.05 0 1.82-.88 1.82-1.92 0-1.05-.77-1.92-1.82-1.92-1.08 0-1.85.87-1.85 1.92s.77 1.92 1.85 1.92m4.086.6v-5.04h.85v.57c.41-.45.93-.77 1.68-.77 1.13 0 1.97.76 1.97 2.19V186h-.85v-3.02c0-.9-.51-1.42-1.29-1.42-.73 0-1.19.42-1.51.95V186zm6.631-6.35c-.33 0-.6-.27-.6-.6a.6.6 0 0 1 .6-.59c.32 0 .59.27.59.59a.6.6 0 0 1-.59.6m.43 7.01c0 1.28-.62 1.84-1.75 1.84-.36 0-.63-.04-.86-.14v-.76c.18.08.42.12.75.12.6 0 1.01-.23 1.01-1.06v-5.7h.85zm4.096-5.9c1.62 0 2.73 1.25 2.73 2.72s-1.11 2.72-2.73 2.72c-1.63 0-2.73-1.25-2.73-2.72s1.1-2.72 2.73-2.72m.01 4.64c1.05 0 1.82-.88 1.82-1.92 0-1.05-.77-1.92-1.82-1.92-1.08 0-1.85.87-1.85 1.92s.77 1.92 1.85 1.92m7.597-1.56v-2.88h.85v2.85c0 1.51-.87 2.39-2.24 2.39-1.36 0-2.23-.88-2.23-2.39v-2.85h.85v2.88c0 .99.53 1.56 1.39 1.56.84 0 1.38-.57 1.38-1.56m2.525 2.16v-5.04h.85v.63c.37-.44.83-.73 1.47-.73.16 0 .31.02.43.06v.83c-.15-.04-.3-.06-.5-.06-.66 0-1.09.34-1.4.85V186zm3.319 1.6h-.79l.85-2.65h.97zM26.11 205v-7h.94v7zm2.954 0v-7.5h.85v7.5zm4.802-.69.6-.51c.35.44.77.69 1.28.69.56 0 .88-.34.88-.78 0-1.13-2.52-.73-2.52-2.51 0-.79.67-1.44 1.64-1.44.72 0 1.34.34 1.69.83l-.59.5c-.27-.38-.65-.62-1.09-.62-.54 0-.83.32-.83.71 0 1.13 2.53.77 2.53 2.49-.01.94-.76 1.53-1.7 1.53-.8 0-1.43-.32-1.89-.89m5.41-3.63h-.79l.85-2.68h.97zm3.336 4.46c-.99 0-1.66-.55-1.66-1.41 0-.76.58-1.3 1.65-1.48l1.7-.28v-.35c0-.7-.5-1.1-1.22-1.1-.58 0-1.05.27-1.36.7l-.64-.49c.44-.6 1.15-.97 2.03-.97 1.28 0 2.04.75 2.04 1.86V205h-.85v-.64c-.38.49-1.04.78-1.69.78m-.8-1.44c0 .43.35.74.94.74.67 0 1.22-.32 1.55-.86v-.99l-1.49.25c-.69.12-1 .43-1 .86m4.465 2.21c0-.51.25-.92.75-1.27a.91.91 0 0 1-.35-.72c0-.4.21-.73.6-.98-.44-.33-.7-.84-.7-1.4 0-.97.76-1.79 1.96-1.79.37 0 .7.08.97.21h1.87v.74h-1.09c.14.25.21.54.21.84 0 .96-.75 1.78-1.96 1.78-.25 0-.49-.04-.7-.1-.21.15-.33.33-.33.52 0 .21.11.36.42.36h1.44c1.33 0 1.95.65 1.95 1.55 0 1.06-1.06 1.85-2.57 1.85-1.49 0-2.47-.58-2.47-1.59m2.27-3.26c.73 0 1.15-.5 1.15-1.11 0-.62-.42-1.12-1.15-1.12-.75 0-1.16.5-1.16 1.12s.41 1.11 1.16 1.11m-1.44 3.16c0 .61.63.98 1.63.98 1.06 0 1.73-.42 1.73-1.08 0-.48-.27-.86-1.17-.86h-1.63c-.35.26-.56.56-.56.96m5.678-7.16c-.33 0-.6-.27-.6-.6a.6.6 0 0 1 .6-.59c.33 0 .59.27.59.59 0 .33-.26.6-.59.6m-.43 6.35v-5.04h.85V205zm2.937-1.69v-2.58h-.95v-.77h.95v-1.26h.86v1.26h1.75v.77h-1.75v2.58c0 .79.4 1.01 1.01 1.01.33 0 .56-.04.75-.12v.76c-.24.1-.51.14-.87.14-1.12 0-1.75-.56-1.75-1.79m11.084.86c-.47.63-1.22 1.03-2.16 1.03-1.7 0-2.75-1.25-2.75-2.72 0-1.53.98-2.72 2.54-2.72 1.37 0 2.26.96 2.26 2.2 0 .2-.03.39-.06.53h-3.87c.03 1.21.8 1.94 1.88 1.94.65 0 1.2-.3 1.53-.75zm-2.39-3.69c-.83 0-1.41.49-1.59 1.36h3.02c-.03-.74-.54-1.36-1.43-1.36m3.06-.52h.95v-.62c0-1.07.69-1.84 1.79-1.84.46 0 .83.13 1.11.29l-.38.71a1.16 1.16 0 0 0-.71-.23c-.57 0-.95.39-.95 1.05v.64h1.75v.77h-1.75V205h-.86v-4.27h-.95zm4.073 0h.95v-.62c0-1.07.69-1.84 1.79-1.84.46 0 .83.13 1.11.29l-.38.71a1.16 1.16 0 0 0-.71-.23c-.57 0-.95.39-.95 1.05v.64h1.75v.77h-1.75V205h-.86v-4.27h-.95zm8.792 4.21c-.47.63-1.22 1.03-2.16 1.03-1.7 0-2.75-1.25-2.75-2.72 0-1.53.98-2.72 2.54-2.72 1.37 0 2.26.96 2.26 2.2 0 .2-.03.39-.06.53h-3.87c.03 1.21.8 1.94 1.88 1.94.65 0 1.2-.3 1.53-.75zm-2.39-3.69c-.83 0-1.41.49-1.59 1.36h3.02c-.03-.74-.54-1.36-1.43-1.36m6.021 3.92c.62 0 1.13-.3 1.44-.74l.67.51c-.47.63-1.2 1.03-2.12 1.03-1.67 0-2.74-1.25-2.74-2.72s1.07-2.72 2.74-2.72c.91 0 1.65.41 2.12 1.03l-.67.51c-.31-.44-.82-.74-1.45-.74-1.08 0-1.85.85-1.85 1.92 0 1.08.77 1.92 1.86 1.92m3.546-1.09v-2.58h-.95v-.77h.95v-1.26h.86v1.26h1.75v.77h-1.75v2.58c0 .79.4 1.01 1.01 1.01.33 0 .56-.04.75-.12v.76c-.24.1-.51.14-.87.14-1.12 0-1.75-.56-1.75-1.79m4.34-4.66c-.33 0-.6-.27-.6-.6a.6.6 0 0 1 .6-.59c.33 0 .59.27.59.59 0 .33-.26.6-.59.6m-.43 6.35v-5.04h.85V205zm1.886-5.04h.92l1.61 4.15 1.61-4.15h.92l-1.97 5.04h-1.12zm10.504 4.21c-.47.63-1.22 1.03-2.16 1.03-1.7 0-2.75-1.25-2.75-2.72 0-1.53.98-2.72 2.54-2.72 1.37 0 2.26.96 2.26 2.2 0 .2-.03.39-.06.53h-3.87c.03 1.21.8 1.94 1.88 1.94.65 0 1.2-.3 1.53-.75zm-2.39-3.69c-.83 0-1.41.49-1.59 1.36h3.02c-.03-.74-.54-1.36-1.43-1.36m3.72 4.52v-5.04h.85v.55c.38-.44.88-.75 1.58-.75.73 0 1.33.33 1.64.97.4-.55.93-.97 1.8-.97 1.08 0 1.87.72 1.87 2.09V205h-.85v-3.12c0-.84-.47-1.32-1.19-1.32-.64 0-1.09.36-1.42.95.01.11.02.22.02.34V205h-.85v-3.12c0-.84-.46-1.32-1.19-1.32-.69 0-1.12.43-1.41.95V205zm13.933-.83c-.47.63-1.22 1.03-2.16 1.03-1.7 0-2.75-1.25-2.75-2.72 0-1.53.98-2.72 2.54-2.72 1.37 0 2.26.96 2.26 2.2 0 .2-.03.39-.06.53h-3.87c.03 1.21.8 1.94 1.88 1.94.65 0 1.2-.3 1.53-.75zm-2.39-3.69c-.83 0-1.41.49-1.59 1.36h3.02c-.03-.74-.54-1.36-1.43-1.36m3.721 4.52v-5.04h.85v.57c.41-.45.93-.77 1.68-.77 1.13 0 1.97.76 1.97 2.19V205h-.85v-3.02c0-.9-.51-1.42-1.29-1.42-.73 0-1.19.42-1.51.95V205zm6.501-1.69v-2.58h-.95v-.77h.95v-1.26h.86v1.26h1.75v.77h-1.75v2.58c0 .79.4 1.01 1.01 1.01.33 0 .56-.04.75-.12v.76c-.24.1-.51.14-.87.14-1.12 0-1.75-.56-1.75-1.79m6.175-.83c0-1.47 1.01-2.72 2.59-2.72.75 0 1.34.29 1.79.8v-3.06h.85v7.5h-.85v-.6c-.45.51-1.04.8-1.79.8-1.58 0-2.59-1.25-2.59-2.72m.9 0c0 1.07.72 1.92 1.79 1.92.7 0 1.32-.34 1.69-.93v-1.98c-.39-.6-1-.93-1.69-.93-1.07 0-1.79.85-1.79 1.92m6.49-1.8h-.79l.85-2.68h.97zm5.68 2.16v-2.88h.85v2.85c0 1.51-.87 2.39-2.24 2.39-1.36 0-2.23-.88-2.23-2.39v-2.85h.85v2.88c0 .99.53 1.56 1.39 1.56.84 0 1.38-.57 1.38-1.56m2.526 2.16v-5.04h.85v.57c.41-.45.93-.77 1.68-.77 1.13 0 1.97.76 1.97 2.19V205h-.85v-3.02c0-.9-.51-1.42-1.29-1.42-.73 0-1.19.42-1.51.95V205zm8.906 2.46v-7.5h.85v.6c.45-.51 1.04-.8 1.79-.8 1.58 0 2.59 1.25 2.59 2.72s-1.01 2.72-2.59 2.72c-.75 0-1.34-.29-1.79-.8v3.06zm2.54-6.9c-.7 0-1.31.34-1.69.94v1.96c.39.61 1 .94 1.69.94 1.07 0 1.8-.85 1.8-1.92s-.73-1.92-1.8-1.92m4.061 4.44v-5.04h.85v.63c.37-.44.83-.73 1.47-.73.16 0 .31.02.43.06v.83c-.15-.04-.3-.06-.5-.06-.66 0-1.09.34-1.4.85V205zm5.972-5.24c1.62 0 2.73 1.25 2.73 2.72s-1.11 2.72-2.73 2.72c-1.63 0-2.73-1.25-2.73-2.72s1.1-2.72 2.73-2.72m.01 4.64c1.05 0 1.82-.88 1.82-1.92 0-1.05-.77-1.92-1.82-1.92-1.08 0-1.85.87-1.85 1.92s.77 1.92 1.85 1.92m9.317-1.92c0 1.47-1.01 2.72-2.59 2.72-.75 0-1.34-.29-1.79-.8v.6h-.85v-7.5h.85v3.06c.45-.51 1.04-.8 1.79-.8 1.58 0 2.59 1.25 2.59 2.72m-2.69-1.92c-.7 0-1.32.34-1.69.93v1.98c.39.6 1 .93 1.69.93 1.07 0 1.8-.85 1.8-1.92s-.73-1.92-1.8-1.92m4.071 4.44v-7.5h.85v7.5zm4.337-5.84-1.17-1.66h.95l1.04 1.66zm2.79 5.01c-.47.63-1.22 1.03-2.16 1.03-1.7 0-2.75-1.25-2.75-2.72 0-1.53.98-2.72 2.54-2.72 1.37 0 2.26.96 2.26 2.2 0 .2-.03.39-.06.53h-3.87c.03 1.21.8 1.94 1.88 1.94.65 0 1.2-.3 1.53-.75zm-2.39-3.69c-.83 0-1.41.49-1.59 1.36h3.02c-.03-.74-.54-1.36-1.43-1.36m3.72 4.52v-5.04h.85v.55c.38-.44.88-.75 1.58-.75.73 0 1.33.33 1.64.97.4-.55.93-.97 1.8-.97 1.08 0 1.87.72 1.87 2.09V205h-.85v-3.12c0-.84-.47-1.32-1.19-1.32-.64 0-1.09.36-1.42.95.01.11.02.22.02.34V205h-.85v-3.12c0-.84-.46-1.32-1.19-1.32-.69 0-1.12.43-1.41.95V205zm13.933-.83c-.47.63-1.22 1.03-2.16 1.03-1.7 0-2.75-1.25-2.75-2.72 0-1.53.98-2.72 2.54-2.72 1.37 0 2.26.96 2.26 2.2 0 .2-.03.39-.06.53h-3.87c.03 1.21.8 1.94 1.88 1.94.65 0 1.2-.3 1.53-.75zm-2.39-3.69c-.83 0-1.41.49-1.59 1.36h3.02c-.03-.74-.54-1.36-1.43-1.36m6.416 4.52v-7.5h.85v7.5zm4.947-5.24c1.62 0 2.73 1.25 2.73 2.72s-1.11 2.72-2.73 2.72c-1.63 0-2.73-1.25-2.73-2.72s1.1-2.72 2.73-2.72m.01 4.64c1.05 0 1.82-.88 1.82-1.92 0-1.05-.77-1.92-1.82-1.92-1.08 0-1.85.87-1.85 1.92s.77 1.92 1.85 1.92m4.086.6v-5.04h.85v.63c.37-.44.83-.73 1.47-.73.16 0 .31.02.43.06v.83c-.15-.04-.3-.06-.5-.06-.66 0-1.09.34-1.4.85V205zm3.435-.69.6-.51c.35.44.77.69 1.28.69.56 0 .88-.34.88-.78 0-1.13-2.52-.73-2.52-2.51 0-.79.67-1.44 1.64-1.44.72 0 1.34.34 1.69.83l-.59.5c-.27-.38-.65-.62-1.09-.62-.54 0-.83.32-.83.71 0 1.13 2.53.77 2.53 2.49-.01.94-.76 1.53-1.7 1.53-.8 0-1.43-.32-1.89-.89m7.239-1.83c0-1.47 1.01-2.72 2.59-2.72.75 0 1.34.29 1.79.8v-3.06h.85v7.5h-.85v-.6c-.45.51-1.04.8-1.79.8-1.58 0-2.59-1.25-2.59-2.72m.9 0c0 1.07.72 1.92 1.79 1.92.7 0 1.32-.34 1.69-.93v-1.98c-.39-.6-1-.93-1.69-.93-1.07 0-1.79.85-1.79 1.92m10.601 1.69c-.47.63-1.22 1.03-2.16 1.03-1.7 0-2.75-1.25-2.75-2.72 0-1.53.98-2.72 2.54-2.72 1.37 0 2.26.96 2.26 2.2 0 .2-.03.39-.06.53h-3.87c.03 1.21.8 1.94 1.88 1.94.65 0 1.2-.3 1.53-.75zm-2.39-3.69c-.83 0-1.41.49-1.59 1.36h3.02c-.03-.74-.54-1.36-1.43-1.36m6.416 4.52v-7.5h.85v7.5zm3.016-4.32h-.79l.85-2.68h.97zm6.21 3.49c-.47.63-1.22 1.03-2.16 1.03-1.7 0-2.75-1.25-2.75-2.72 0-1.53.98-2.72 2.54-2.72 1.37 0 2.26.96 2.26 2.2 0 .2-.03.39-.06.53h-3.87c.03 1.21.8 1.94 1.88 1.94.65 0 1.2-.3 1.53-.75zm-2.39-3.69c-.83 0-1.41.49-1.59 1.36h3.02c-.03-.74-.54-1.36-1.43-1.36m3.943 4.52h-.99l1.86-2.61-1.72-2.43h.97l1.31 1.86 1.31-1.86h.98l-1.73 2.43 1.86 2.61h-.97l-1.44-2.04zm4.983 2.46v-7.5h.85v.6c.45-.51 1.04-.8 1.79-.8 1.58 0 2.59 1.25 2.59 2.72s-1.01 2.72-2.59 2.72c-.75 0-1.34-.29-1.79-.8v3.06zm2.54-6.9c-.7 0-1.31.34-1.69.94v1.96c.39.61 1 .94 1.69.94 1.07 0 1.8-.85 1.8-1.92s-.73-1.92-1.8-1.92m6.41-.8c1.62 0 2.73 1.25 2.73 2.72s-1.11 2.72-2.73 2.72c-1.63 0-2.73-1.25-2.73-2.72s1.1-2.72 2.73-2.72m.01 4.64c1.05 0 1.82-.88 1.82-1.92 0-1.05-.77-1.92-1.82-1.92-1.08 0-1.85.87-1.85 1.92s.77 1.92 1.85 1.92m4.087.6v-5.04h.85v.63c.37-.44.83-.73 1.47-.73.16 0 .31.02.43.06v.83c-.15-.04-.3-.06-.5-.06-.66 0-1.09.34-1.4.85V205zm4.499-1.69v-2.58h-.95v-.77h.95v-1.26h.86v1.26h1.75v.77h-1.75v2.58c0 .79.4 1.01 1.01 1.01.33 0 .56-.04.75-.12v.76c-.24.1-.51.14-.87.14-1.12 0-1.75-.56-1.75-1.79m4.415 3.29h-.79l.85-2.65h.97zm5.06-1.6v-7.5h.85v7.5zm7.127-.83c-.47.63-1.22 1.03-2.16 1.03-1.7 0-2.75-1.25-2.75-2.72 0-1.53.98-2.72 2.54-2.72 1.37 0 2.26.96 2.26 2.2 0 .2-.03.39-.06.53h-3.87c.03 1.21.8 1.94 1.88 1.94.65 0 1.2-.3 1.53-.75zm-2.39-3.69c-.83 0-1.41.49-1.59 1.36h3.02c-.03-.74-.54-1.36-1.43-1.36m8.736 3.92c.62 0 1.13-.3 1.44-.74l.67.51c-.47.63-1.2 1.03-2.12 1.03-1.67 0-2.74-1.25-2.74-2.72s1.07-2.72 2.74-2.72c.91 0 1.65.41 2.12 1.03l-.67.51c-.31-.44-.82-.74-1.45-.74-1.08 0-1.85.85-1.85 1.92 0 1.08.77 1.92 1.86 1.92m3.275.6v-7.5h.85v3.03c.41-.45.93-.77 1.68-.77 1.13 0 1.97.76 1.97 2.19V205h-.85v-3.02c0-.9-.5-1.42-1.29-1.42-.74 0-1.19.43-1.51.95V205zm7.581.14c-.99 0-1.66-.55-1.66-1.41 0-.76.58-1.3 1.65-1.48l1.7-.28v-.35c0-.7-.5-1.1-1.22-1.1-.58 0-1.05.27-1.36.7l-.64-.49c.44-.6 1.15-.97 2.03-.97 1.28 0 2.04.75 2.04 1.86V205h-.85v-.64c-.38.49-1.04.78-1.69.78m-.8-1.44c0 .43.35.74.94.74.67 0 1.22-.32 1.55-.86v-.99l-1.49.25c-.69.12-1 .43-1 .86m5.046 1.3v-5.04h.85v.55c.38-.44.88-.75 1.58-.75.73 0 1.33.33 1.64.97.4-.55.93-.97 1.8-.97 1.08 0 1.87.72 1.87 2.09V205h-.85v-3.12c0-.84-.47-1.32-1.19-1.32-.64 0-1.09.36-1.42.95.01.11.02.22.02.34V205h-.85v-3.12c0-.84-.46-1.32-1.19-1.32-.69 0-1.12.43-1.41.95V205zm9.453 2.46v-7.5h.85v.6c.45-.51 1.04-.8 1.79-.8 1.58 0 2.59 1.25 2.59 2.72s-1.01 2.72-2.59 2.72c-.75 0-1.34-.29-1.79-.8v3.06zm2.54-6.9c-.7 0-1.31.34-1.69.94v1.96c.39.61 1 .94 1.69.94 1.07 0 1.8-.85 1.8-1.92s-.73-1.92-1.8-1.92M28.22 219.4c.62 0 1.13-.3 1.44-.74l.67.51c-.47.63-1.2 1.03-2.12 1.03-1.67 0-2.74-1.25-2.74-2.72s1.07-2.72 2.74-2.72c.91 0 1.65.41 2.12 1.03l-.67.51c-.31-.44-.82-.74-1.45-.74-1.08 0-1.85.85-1.85 1.92 0 1.08.77 1.92 1.86 1.92m5.38-4.64c1.62 0 2.73 1.25 2.73 2.72s-1.11 2.72-2.73 2.72c-1.63 0-2.73-1.25-2.73-2.72s1.1-2.72 2.73-2.72m.01 4.64c1.05 0 1.82-.88 1.82-1.92 0-1.05-.77-1.92-1.82-1.92-1.08 0-1.85.87-1.85 1.92s.77 1.92 1.85 1.92m3.706-1.92c0-1.47 1.01-2.72 2.59-2.72.75 0 1.34.29 1.79.8v-3.06h.85v7.5h-.85v-.6c-.45.51-1.04.8-1.79.8-1.58 0-2.59-1.25-2.59-2.72m.9 0c0 1.07.72 1.92 1.79 1.92.7 0 1.32-.34 1.69-.93v-1.98c-.39-.6-1-.93-1.69-.93-1.07 0-1.79.85-1.79 1.92m10.602 1.69c-.47.63-1.22 1.03-2.16 1.03-1.7 0-2.75-1.25-2.75-2.72 0-1.53.98-2.72 2.54-2.72 1.37 0 2.26.96 2.26 2.2 0 .2-.03.39-.06.53h-3.87c.03 1.21.8 1.94 1.88 1.94.65 0 1.2-.3 1.53-.75zm-2.39-3.69c-.83 0-1.41.49-1.59 1.36h3.02c-.03-.74-.54-1.36-1.43-1.36m2.94 5.45h5.16v.74h-5.16zm8.5-1.53c.62 0 1.13-.3 1.44-.74l.67.51c-.47.63-1.2 1.03-2.12 1.03-1.67 0-2.74-1.25-2.74-2.72s1.07-2.72 2.74-2.72c.91 0 1.65.41 2.12 1.03l-.67.51c-.31-.44-.82-.74-1.45-.74-1.08 0-1.85.85-1.85 1.92 0 1.08.77 1.92 1.86 1.92m5.38-4.64c1.62 0 2.73 1.25 2.73 2.72s-1.11 2.72-2.73 2.72c-1.63 0-2.73-1.25-2.73-2.72s1.1-2.72 2.73-2.72m.01 4.64c1.05 0 1.82-.88 1.82-1.92 0-1.05-.77-1.92-1.82-1.92-1.08 0-1.85.87-1.85 1.92s.77 1.92 1.85 1.92m4.087.6v-5.04h.85v.55c.38-.44.88-.75 1.58-.75.73 0 1.33.33 1.64.97.4-.55.93-.97 1.8-.97 1.08 0 1.87.72 1.87 2.09V220h-.85v-3.12c0-.84-.47-1.32-1.19-1.32-.64 0-1.09.36-1.42.95.01.11.02.22.02.34V220h-.85v-3.12c0-.84-.46-1.32-1.19-1.32-.69 0-1.12.43-1.41.95V220zm9.453 0v-5.04h.85v.55c.38-.44.88-.75 1.58-.75.73 0 1.33.33 1.64.97.4-.55.93-.97 1.8-.97 1.08 0 1.87.72 1.87 2.09V220h-.85v-3.12c0-.84-.47-1.32-1.19-1.32-.64 0-1.09.36-1.42.95.01.11.02.22.02.34V220h-.85v-3.12c0-.84-.46-1.32-1.19-1.32-.69 0-1.12.43-1.41.95V220zm12.964-2.16v-2.88h.85v2.85c0 1.51-.87 2.39-2.24 2.39-1.36 0-2.23-.88-2.23-2.39v-2.85h.85v2.88c0 .99.53 1.56 1.39 1.56.84 0 1.38-.57 1.38-1.56m2.525 2.16v-5.04h.85v.57c.41-.45.93-.77 1.68-.77 1.13 0 1.97.76 1.97 2.19V220h-.85v-3.02c0-.9-.51-1.42-1.29-1.42-.73 0-1.19.42-1.51.95V220zm10.691-.83c-.47.63-1.22 1.03-2.16 1.03-1.7 0-2.75-1.25-2.75-2.72 0-1.53.98-2.72 2.54-2.72 1.37 0 2.26.96 2.26 2.2 0 .2-.03.39-.06.53h-3.87c.03 1.21.8 1.94 1.88 1.94.65 0 1.2-.3 1.53-.75zm-2.39-3.69c-.83 0-1.41.49-1.59 1.36h3.02c-.03-.74-.54-1.36-1.43-1.36m7.786 4.66c-.99 0-1.66-.55-1.66-1.41 0-.76.58-1.3 1.65-1.48l1.7-.28v-.35c0-.7-.5-1.1-1.22-1.1-.58 0-1.05.27-1.36.7l-.64-.49c.44-.6 1.15-.97 2.03-.97 1.28 0 2.04.75 2.04 1.86V220h-.85v-.64c-.38.49-1.04.78-1.69.78m-.8-1.44c0 .43.35.74.94.74.67 0 1.22-.32 1.55-.86v-.99l-1.49.25c-.69.12-1 .43-1 .86m8.555-.86v-2.88h.85v2.85c0 1.51-.87 2.39-2.24 2.39-1.36 0-2.23-.88-2.23-2.39v-2.85h.85v2.88c0 .99.53 1.56 1.39 1.56.84 0 1.38-.57 1.38-1.56m2.525 2.16v-5.04h.85v.63c.37-.44.83-.73 1.47-.73.16 0 .31.02.43.06v.83c-.15-.04-.3-.06-.5-.06-.66 0-1.09.34-1.4.85V220zm5.12.14c-.99 0-1.66-.55-1.66-1.41 0-.76.58-1.3 1.65-1.48l1.7-.28v-.35c0-.7-.5-1.1-1.22-1.1-.58 0-1.05.27-1.36.7l-.64-.49c.44-.6 1.15-.97 2.03-.97 1.28 0 2.04.75 2.04 1.86V220h-.85v-.64c-.38.49-1.04.78-1.69.78m-.8-1.44c0 .43.35.74.94.74.67 0 1.22-.32 1.55-.86v-.99l-1.49.25c-.69.12-1 .43-1 .86m5.475-5.05c-.33 0-.6-.27-.6-.6a.6.6 0 0 1 .6-.59c.33 0 .59.27.59.59 0 .33-.26.6-.59.6m-.43 6.35v-5.04h.85V220zm2.937-1.69v-2.58h-.95v-.77h.95v-1.26h.86v1.26h1.75v.77h-1.75v2.58c0 .79.4 1.01 1.01 1.01.33 0 .56-.04.75-.12v.76c-.24.1-.51.14-.87.14-1.12 0-1.75-.56-1.75-1.79m6.174-.83c0-1.47 1.01-2.72 2.59-2.72.75 0 1.34.29 1.79.8v-3.06h.85v7.5h-.85v-.6c-.45.51-1.04.8-1.79.8-1.58 0-2.59-1.25-2.59-2.72m.9 0c0 1.07.72 1.92 1.79 1.92.7 0 1.32-.34 1.69-.93v-1.98c-.39-.6-1-.93-1.69-.93-1.07 0-1.79.85-1.79 1.92m7.392-3.32h-.77l1.05-1.66h1.15l1.04 1.66h-.76l-.85-1.26zm2.24 3.68v-2.88h.85v2.85c0 1.51-.87 2.39-2.24 2.39-1.36 0-2.23-.88-2.23-2.39v-2.85h.85v2.88c0 .99.53 1.56 1.39 1.56.84 0 1.38-.57 1.38-1.56m6.5-3.68h-.77l1.05-1.66h1.15l1.04 1.66h-.76l-.85-1.26zm3.2 5.01c-.47.63-1.22 1.03-2.16 1.03-1.7 0-2.75-1.25-2.75-2.72 0-1.53.98-2.72 2.54-2.72 1.37 0 2.26.96 2.26 2.2 0 .2-.03.39-.06.53h-3.87c.03 1.21.8 1.94 1.88 1.94.65 0 1.2-.3 1.53-.75zm-2.39-3.69c-.83 0-1.41.49-1.59 1.36h3.02c-.03-.74-.54-1.36-1.43-1.36m3.982 2.83v-2.58h-.95v-.77h.95v-1.26h.86v1.26h1.75v.77h-1.75v2.58c0 .79.4 1.01 1.01 1.01.33 0 .56-.04.75-.12v.76c-.24.1-.51.14-.87.14-1.12 0-1.75-.56-1.75-1.79m3.909 1.69v-5.04h.85v.63c.37-.44.83-.73 1.47-.73.16 0 .31.02.43.06v.83c-.15-.04-.3-.06-.5-.06-.66 0-1.09.34-1.4.85V220zm8.152-.83c-.47.63-1.22 1.03-2.16 1.03-1.7 0-2.75-1.25-2.75-2.72 0-1.53.98-2.72 2.54-2.72 1.37 0 2.26.96 2.26 2.2 0 .2-.03.39-.06.53h-3.87c.03 1.21.8 1.94 1.88 1.94.65 0 1.2-.3 1.53-.75zm-2.39-3.69c-.83 0-1.41.49-1.59 1.36h3.02c-.03-.74-.54-1.36-1.43-1.36m8.736 3.92c.62 0 1.13-.3 1.44-.74l.67.51c-.47.63-1.2 1.03-2.12 1.03-1.67 0-2.74-1.25-2.74-2.72s1.07-2.72 2.74-2.72c.91 0 1.65.41 2.12 1.03l-.67.51c-.31-.44-.82-.74-1.45-.74-1.08 0-1.85.85-1.85 1.92 0 1.08.77 1.92 1.86 1.92m5.38-4.64c1.62 0 2.73 1.25 2.73 2.72s-1.11 2.72-2.73 2.72c-1.63 0-2.73-1.25-2.73-2.72s1.1-2.72 2.73-2.72m.01 4.64c1.05 0 1.82-.88 1.82-1.92 0-1.05-.77-1.92-1.82-1.92-1.08 0-1.85.87-1.85 1.92s.77 1.92 1.85 1.92m4.087.6v-5.04h.85v.57c.41-.45.93-.77 1.68-.77 1.13 0 1.97.76 1.97 2.19V220h-.85v-3.02c0-.9-.51-1.42-1.29-1.42-.73 0-1.19.42-1.51.95V220zm5.67-.69.6-.51c.35.44.77.69 1.28.69.56 0 .88-.34.88-.78 0-1.13-2.52-.73-2.52-2.51 0-.79.67-1.44 1.64-1.44.72 0 1.34.34 1.69.83l-.59.5c-.27-.38-.65-.62-1.09-.62-.54 0-.83.32-.83.71 0 1.13 2.53.77 2.53 2.49-.01.94-.76 1.53-1.7 1.53-.8 0-1.43-.32-1.89-.89m9.395-.14c-.47.63-1.22 1.03-2.16 1.03-1.7 0-2.75-1.25-2.75-2.72 0-1.53.98-2.72 2.54-2.72 1.37 0 2.26.96 2.26 2.2 0 .2-.03.39-.06.53h-3.87c.03 1.21.8 1.94 1.88 1.94.65 0 1.2-.3 1.53-.75zm-2.39-3.69c-.83 0-1.41.49-1.59 1.36h3.02c-.03-.74-.54-1.36-1.43-1.36m3.721 4.52v-5.04h.85v.63c.37-.44.83-.73 1.47-.73.16 0 .31.02.43.06v.83c-.15-.04-.3-.06-.5-.06-.66 0-1.09.34-1.4.85V220zm3.39-5.04h.92l1.61 4.15 1.61-4.15h.92l-1.97 5.04h-1.12zm8.584-.8h-.83l1.04-1.66h.96zm1.92 5.01c-.47.63-1.22 1.03-2.16 1.03-1.7 0-2.75-1.25-2.75-2.72 0-1.53.98-2.72 2.54-2.72 1.37 0 2.26.96 2.26 2.2 0 .2-.03.39-.06.53h-3.87c.03 1.21.8 1.94 1.88 1.94.65 0 1.2-.3 1.53-.75zm-2.39-3.69c-.83 0-1.41.49-1.59 1.36h3.02c-.03-.74-.54-1.36-1.43-1.36m4.122 4.63c-.36 0-.65-.28-.65-.63s.29-.64.65-.64.64.29.64.64-.28.63-.64.63m5.141-.11v-7h1.23l3.96 5.85V213h.94v7h-1.23l-3.96-5.85V220zm10.4-5.24c1.62 0 2.73 1.25 2.73 2.72s-1.11 2.72-2.73 2.72c-1.63 0-2.73-1.25-2.73-2.72s1.1-2.72 2.73-2.72m.01 4.64c1.05 0 1.82-.88 1.82-1.92 0-1.05-.77-1.92-1.82-1.92-1.08 0-1.85.87-1.85 1.92s.77 1.92 1.85 1.92m7.597-1.56v-2.88h.85v2.85c0 1.51-.87 2.39-2.24 2.39-1.36 0-2.23-.88-2.23-2.39v-2.85h.85v2.88c0 .99.53 1.56 1.39 1.56.84 0 1.38-.57 1.38-1.56m1.965 1.47.6-.51c.35.44.77.69 1.28.69.56 0 .88-.34.88-.78 0-1.13-2.52-.73-2.52-2.51 0-.79.67-1.44 1.64-1.44.72 0 1.34.34 1.69.83l-.59.5c-.27-.38-.65-.62-1.09-.62-.54 0-.83.32-.83.71 0 1.13 2.53.77 2.53 2.49-.01.94-.76 1.53-1.7 1.53-.8 0-1.43-.32-1.89-.89m6.909-4.35h.92l1.61 4.15 1.61-4.15h.92l-1.97 5.04h-1.12zm10.504 4.21c-.47.63-1.22 1.03-2.16 1.03-1.7 0-2.75-1.25-2.75-2.72 0-1.53.98-2.72 2.54-2.72 1.37 0 2.26.96 2.26 2.2 0 .2-.03.39-.06.53h-3.87c.03 1.21.8 1.94 1.88 1.94.65 0 1.2-.3 1.53-.75zm-2.39-3.69c-.83 0-1.41.49-1.59 1.36h3.02c-.03-.74-.54-1.36-1.43-1.36m3.72 4.52v-5.04h.85v.57c.41-.45.93-.77 1.68-.77 1.13 0 1.97.76 1.97 2.19V220h-.85v-3.02c0-.9-.51-1.42-1.29-1.42-.73 0-1.19.42-1.51.95V220zm8.511-5.24c1.62 0 2.73 1.25 2.73 2.72s-1.11 2.72-2.73 2.72c-1.63 0-2.73-1.25-2.73-2.72s1.1-2.72 2.73-2.72m.01 4.64c1.05 0 1.82-.88 1.82-1.92 0-1.05-.77-1.92-1.82-1.92-1.08 0-1.85.87-1.85 1.92s.77 1.92 1.85 1.92m4.087.6v-5.04h.85v.57c.41-.45.93-.77 1.68-.77 1.13 0 1.97.76 1.97 2.19V220h-.85v-3.02c0-.9-.51-1.42-1.29-1.42-.73 0-1.19.42-1.51.95V220zm5.671-.69.6-.51c.35.44.77.69 1.28.69.56 0 .88-.34.88-.78 0-1.13-2.52-.73-2.52-2.51 0-.79.67-1.44 1.64-1.44.72 0 1.34.34 1.69.83l-.59.5c-.27-.38-.65-.62-1.09-.62-.54 0-.83.32-.83.71 0 1.13 2.53.77 2.53 2.49-.01.94-.76 1.53-1.7 1.53-.8 0-1.43-.32-1.89-.89m7.239-1.83c0-1.47 1.01-2.72 2.59-2.72.75 0 1.34.29 1.79.8v-3.06h.85v7.5h-.85v-.6c-.45.51-1.04.8-1.79.8-1.58 0-2.59-1.25-2.59-2.72m.9 0c0 1.07.72 1.92 1.79 1.92.7 0 1.32-.34 1.69-.93v-1.98c-.39-.6-1-.93-1.69-.93-1.07 0-1.79.85-1.79 1.92m10.601 1.69c-.47.63-1.22 1.03-2.16 1.03-1.7 0-2.75-1.25-2.75-2.72 0-1.53.98-2.72 2.54-2.72 1.37 0 2.26.96 2.26 2.2 0 .2-.03.39-.06.53h-3.87c.03 1.21.8 1.94 1.88 1.94.65 0 1.2-.3 1.53-.75zm-2.39-3.69c-.83 0-1.41.49-1.59 1.36h3.02c-.03-.74-.54-1.36-1.43-1.36m8.736 3.92c.62 0 1.13-.3 1.44-.74l.67.51c-.47.63-1.2 1.03-2.12 1.03-1.67 0-2.74-1.25-2.74-2.72s1.07-2.72 2.74-2.72c.91 0 1.65.41 2.12 1.03l-.67.51c-.31-.44-.82-.74-1.45-.74-1.08 0-1.85.85-1.85 1.92 0 1.08.77 1.92 1.86 1.92m5.381-4.64c1.62 0 2.73 1.25 2.73 2.72s-1.11 2.72-2.73 2.72c-1.63 0-2.73-1.25-2.73-2.72s1.1-2.72 2.73-2.72m.01 4.64c1.05 0 1.82-.88 1.82-1.92 0-1.05-.77-1.92-1.82-1.92-1.08 0-1.85.87-1.85 1.92s.77 1.92 1.85 1.92m4.086.6v-5.04h.85v.63c.37-.44.83-.73 1.47-.73.16 0 .31.02.43.06v.83c-.15-.04-.3-.06-.5-.06-.66 0-1.09.34-1.4.85V220zm3.975 0v-5.04h.85v.63c.37-.44.83-.73 1.47-.73.16 0 .31.02.43.06v.83c-.15-.04-.3-.06-.5-.06-.66 0-1.09.34-1.4.85V220zm4.404-6.35c-.33 0-.6-.27-.6-.6a.6.6 0 0 1 .6-.59c.33 0 .59.27.59.59 0 .33-.26.6-.59.6m-.43 6.35v-5.04h.85V220zm2.067.91c0-.51.25-.92.75-1.27a.91.91 0 0 1-.35-.72c0-.4.21-.73.6-.98-.44-.33-.7-.84-.7-1.4 0-.97.76-1.79 1.96-1.79.37 0 .7.08.97.21h1.87v.74h-1.09c.14.25.21.54.21.84 0 .96-.75 1.78-1.96 1.78-.25 0-.49-.04-.7-.1-.21.15-.33.33-.33.52 0 .21.11.36.42.36h1.44c1.33 0 1.95.65 1.95 1.55 0 1.06-1.06 1.85-2.57 1.85-1.49 0-2.47-.58-2.47-1.59m2.27-3.26c.73 0 1.15-.5 1.15-1.11 0-.62-.42-1.12-1.15-1.12-.75 0-1.16.5-1.16 1.12s.41 1.11 1.16 1.11m-1.44 3.16c0 .61.63.98 1.63.98 1.06 0 1.73-.42 1.73-1.08 0-.48-.27-.86-1.17-.86h-1.63c-.35.26-.56.56-.56.96m9.562-1.64c-.47.63-1.22 1.03-2.16 1.03-1.7 0-2.75-1.25-2.75-2.72 0-1.53.98-2.72 2.54-2.72 1.37 0 2.26.96 2.26 2.2 0 .2-.03.39-.06.53h-3.87c.03 1.21.8 1.94 1.88 1.94.65 0 1.2-.3 1.53-.75zm-2.39-3.69c-.83 0-1.41.49-1.59 1.36h3.02c-.03-.74-.54-1.36-1.43-1.36m3.72 4.52v-5.04h.85v.63c.37-.44.83-.73 1.47-.73.16 0 .31.02.43.06v.83c-.15-.04-.3-.06-.5-.06-.66 0-1.09.34-1.4.85V220zM25.9 235v-7.5h.85v7.5zm7.127-.83c-.47.63-1.22 1.03-2.16 1.03-1.7 0-2.75-1.25-2.75-2.72 0-1.53.98-2.72 2.54-2.72 1.37 0 2.26.96 2.26 2.2 0 .2-.03.39-.06.53h-3.87c.03 1.21.8 1.94 1.88 1.94.65 0 1.2-.3 1.53-.75zm-2.39-3.69c-.83 0-1.41.49-1.59 1.36h3.02c-.03-.74-.54-1.36-1.43-1.36m5.755-.52h.95v-.62c0-1.07.69-1.84 1.79-1.84.46 0 .83.13 1.11.29l-.38.71a1.16 1.16 0 0 0-.71-.23c-.57 0-.95.39-.95 1.05v.64h1.75v.77h-1.75V235h-.86v-4.27h-.95zm5.026-1.31c-.33 0-.6-.27-.6-.6a.6.6 0 0 1 .6-.59c.33 0 .59.27.59.59 0 .33-.26.6-.59.6m-.43 6.35v-5.04h.85V235zm4.966-.6c.62 0 1.13-.3 1.44-.74l.67.51c-.47.63-1.2 1.03-2.12 1.03-1.67 0-2.74-1.25-2.74-2.72s1.07-2.72 2.74-2.72c.91 0 1.65.41 2.12 1.03l-.67.51c-.31-.44-.82-.74-1.45-.74-1.08 0-1.85.85-1.85 1.92 0 1.08.77 1.92 1.86 1.92m3.276.6v-7.5h.85v3.03c.41-.45.93-.77 1.68-.77 1.13 0 1.97.76 1.97 2.19V235h-.85v-3.02c0-.9-.5-1.42-1.29-1.42-.74 0-1.19.43-1.51.95V235zm6.641-6.35c-.33 0-.6-.27-.6-.6a.6.6 0 0 1 .6-.59c.33 0 .59.27.59.59 0 .33-.26.6-.59.6m-.43 6.35v-5.04h.85V235zm7.127-.83c-.47.63-1.22 1.03-2.16 1.03-1.7 0-2.75-1.25-2.75-2.72 0-1.53.98-2.72 2.54-2.72 1.37 0 2.26.96 2.26 2.2 0 .2-.03.39-.06.53h-3.87c.03 1.21.8 1.94 1.88 1.94.65 0 1.2-.3 1.53-.75zm-2.39-3.69c-.83 0-1.41.49-1.59 1.36h3.02c-.03-.74-.54-1.36-1.43-1.36m3.72 4.52v-5.04h.85v.63c.37-.44.83-.73 1.47-.73.16 0 .31.02.43.06v.83c-.15-.04-.3-.06-.5-.06-.66 0-1.09.34-1.4.85V235zm6.13-.69.6-.51c.35.44.77.69 1.28.69.56 0 .88-.34.88-.78 0-1.13-2.52-.73-2.52-2.51 0-.79.67-1.44 1.64-1.44.72 0 1.34.34 1.69.83l-.59.5c-.27-.38-.65-.62-1.09-.62-.54 0-.83.32-.83.71 0 1.13 2.53.77 2.53 2.49-.01.94-.76 1.53-1.7 1.53-.8 0-1.43-.32-1.89-.89m7.215-4.55c1.62 0 2.73 1.25 2.73 2.72s-1.11 2.72-2.73 2.72c-1.63 0-2.73-1.25-2.73-2.72s1.1-2.72 2.73-2.72m.01 4.64c1.05 0 1.82-.88 1.82-1.92 0-1.05-.77-1.92-1.82-1.92-1.08 0-1.85.87-1.85 1.92s.77 1.92 1.85 1.92m7.597-1.56v-2.88h.85v2.85c0 1.51-.87 2.39-2.24 2.39-1.36 0-2.23-.88-2.23-2.39v-2.85h.85v2.88c0 .99.53 1.56 1.39 1.56.84 0 1.38-.57 1.38-1.56m2.525 2.16v-5.04h.85v.63c.37-.44.83-.73 1.47-.73.16 0 .31.02.43.06v.83c-.15-.04-.3-.06-.5-.06-.66 0-1.09.34-1.4.85V235zm5.992-.6c.62 0 1.13-.3 1.44-.74l.67.51c-.47.63-1.2 1.03-2.12 1.03-1.67 0-2.74-1.25-2.74-2.72s1.07-2.72 2.74-2.72c.91 0 1.65.41 2.12 1.03l-.67.51c-.31-.44-.82-.74-1.45-.74-1.08 0-1.85.85-1.85 1.92 0 1.08.77 1.92 1.86 1.92m7.56-.23c-.47.63-1.22 1.03-2.16 1.03-1.7 0-2.75-1.25-2.75-2.72 0-1.53.98-2.72 2.54-2.72 1.37 0 2.26.96 2.26 2.2 0 .2-.03.39-.06.53h-3.87c.03 1.21.8 1.94 1.88 1.94.65 0 1.2-.3 1.53-.75zm-2.39-3.69c-.83 0-1.41.49-1.59 1.36h3.02c-.03-.74-.54-1.36-1.43-1.36m10.896 3.69c-.47.63-1.22 1.03-2.16 1.03-1.7 0-2.75-1.25-2.75-2.72 0-1.53.98-2.72 2.54-2.72 1.37 0 2.26.96 2.26 2.2 0 .2-.03.39-.06.53h-3.87c.03 1.21.8 1.94 1.88 1.94.65 0 1.2-.3 1.53-.75zm-2.39-3.69c-.83 0-1.41.49-1.59 1.36h3.02c-.03-.74-.54-1.36-1.43-1.36m3.981 2.83v-2.58h-.95v-.77h.95v-1.26h.86v1.26h1.75v.77h-1.75v2.58c0 .79.4 1.01 1.01 1.01.33 0 .56-.04.75-.12v.76c-.24.1-.51.14-.87.14-1.12 0-1.75-.56-1.75-1.79m10.115-.47v-2.88h.85v2.85c0 1.51-.87 2.39-2.24 2.39-1.36 0-2.23-.88-2.23-2.39v-2.85h.85v2.88c0 .99.53 1.56 1.39 1.56.84 0 1.38-.57 1.38-1.56m2.525 2.16v-5.04h.85v.57c.41-.45.93-.77 1.68-.77 1.13 0 1.97.76 1.97 2.19V235h-.85v-3.02c0-.9-.51-1.42-1.29-1.42-.73 0-1.19.42-1.51.95V235zm10.691-.83c-.47.63-1.22 1.03-2.16 1.03-1.7 0-2.75-1.25-2.75-2.72 0-1.53.98-2.72 2.54-2.72 1.37 0 2.26.96 2.26 2.2 0 .2-.03.39-.06.53h-3.87c.03 1.21.8 1.94 1.88 1.94.65 0 1.2-.3 1.53-.75zm-2.39-3.69c-.83 0-1.41.49-1.59 1.36h3.02c-.03-.74-.54-1.36-1.43-1.36m6.415 4.52v-5.04h.85v.57c.41-.45.93-.77 1.68-.77 1.13 0 1.97.76 1.97 2.19V235h-.85v-3.02c0-.9-.51-1.42-1.29-1.42-.73 0-1.19.42-1.51.95V235zm8.511-5.24c1.62 0 2.73 1.25 2.73 2.72s-1.11 2.72-2.73 2.72c-1.63 0-2.73-1.25-2.73-2.72s1.1-2.72 2.73-2.72m.01 4.64c1.05 0 1.82-.88 1.82-1.92 0-1.05-.77-1.92-1.82-1.92-1.08 0-1.85.87-1.85 1.92s.77 1.92 1.85 1.92m7.597-1.56v-2.88h.85v2.85c0 1.51-.87 2.39-2.24 2.39-1.36 0-2.23-.88-2.23-2.39v-2.85h.85v2.88c0 .99.53 1.56 1.39 1.56.84 0 1.38-.57 1.38-1.56m1.804-2.88h.92l1.61 4.15 1.61-4.15h.92l-1.97 5.04h-1.12zm10.504 4.21c-.47.63-1.22 1.03-2.16 1.03-1.7 0-2.75-1.25-2.75-2.72 0-1.53.98-2.72 2.54-2.72 1.37 0 2.26.96 2.26 2.2 0 .2-.03.39-.06.53h-3.87c.03 1.21.8 1.94 1.88 1.94.65 0 1.2-.3 1.53-.75zm-2.39-3.69c-.83 0-1.41.49-1.59 1.36h3.02c-.03-.74-.54-1.36-1.43-1.36m3.72 4.52v-7.5h.85v7.5zm2.647 0v-7.5h.85v7.5zm7.126-.83c-.47.63-1.22 1.03-2.16 1.03-1.7 0-2.75-1.25-2.75-2.72 0-1.53.98-2.72 2.54-2.72 1.37 0 2.26.96 2.26 2.2 0 .2-.03.39-.06.53h-3.87c.03 1.21.8 1.94 1.88 1.94.65 0 1.2-.3 1.53-.75zm-2.39-3.69c-.83 0-1.41.49-1.59 1.36h3.02c-.03-.74-.54-1.36-1.43-1.36m5.656-.52h.92l1.61 4.15 1.61-4.15h.92l-1.97 5.04h-1.12zm10.504 4.21c-.47.63-1.22 1.03-2.16 1.03-1.7 0-2.75-1.25-2.75-2.72 0-1.53.98-2.72 2.54-2.72 1.37 0 2.26.96 2.26 2.2 0 .2-.03.39-.06.53h-3.87c.03 1.21.8 1.94 1.88 1.94.65 0 1.2-.3 1.53-.75zm-2.39-3.69c-.83 0-1.41.49-1.59 1.36h3.02c-.03-.74-.54-1.36-1.43-1.36m3.72 4.52v-5.04h.85v.63c.37-.44.83-.73 1.47-.73.16 0 .31.02.43.06v.83c-.15-.04-.3-.06-.5-.06-.66 0-1.09.34-1.4.85V235zm3.435-.69.6-.51c.35.44.77.69 1.28.69.56 0 .88-.34.88-.78 0-1.13-2.52-.73-2.52-2.51 0-.79.67-1.44 1.64-1.44.72 0 1.34.34 1.69.83l-.59.5c-.27-.38-.65-.62-1.09-.62-.54 0-.83.32-.83.71 0 1.13 2.53.77 2.53 2.49-.01.94-.76 1.53-1.7 1.53-.8 0-1.43-.32-1.89-.89m5.404-5.66c-.33 0-.6-.27-.6-.6a.6.6 0 0 1 .6-.59c.33 0 .59.27.59.59 0 .33-.26.6-.59.6m-.43 6.35v-5.04h.85V235zm4.946-5.24c1.62 0 2.73 1.25 2.73 2.72s-1.11 2.72-2.73 2.72c-1.63 0-2.73-1.25-2.73-2.72s1.1-2.72 2.73-2.72m.01 4.64c1.05 0 1.82-.88 1.82-1.92 0-1.05-.77-1.92-1.82-1.92-1.08 0-1.85.87-1.85 1.92s.77 1.92 1.85 1.92m4.087.6v-5.04h.85v.57c.41-.45.93-.77 1.68-.77 1.13 0 1.97.76 1.97 2.19V235h-.85v-3.02c0-.9-.51-1.42-1.29-1.42-.73 0-1.19.42-1.51.95V235zm8.476-2.52c0-1.47 1.01-2.72 2.59-2.72.75 0 1.34.29 1.79.8v-3.06h.85v7.5h-.85v-.6c-.45.51-1.04.8-1.79.8-1.58 0-2.59-1.25-2.59-2.72m.9 0c0 1.07.72 1.92 1.79 1.92.7 0 1.32-.34 1.69-.93v-1.98c-.39-.6-1-.93-1.69-.93-1.07 0-1.79.85-1.79 1.92m9.632.36v-2.88h.85v2.85c0 1.51-.87 2.39-2.24 2.39-1.36 0-2.23-.88-2.23-2.39v-2.85h.85v2.88c0 .99.53 1.56 1.39 1.56.84 0 1.38-.57 1.38-1.56m5.64-4.19c-.33 0-.6-.27-.6-.6a.6.6 0 0 1 .6-.59c.32 0 .59.27.59.59a.6.6 0 0 1-.59.6m.43 7.01c0 1.28-.62 1.84-1.75 1.84-.36 0-.63-.04-.86-.14v-.76c.18.08.42.12.75.12.6 0 1.01-.23 1.01-1.06v-5.7h.85zm6.277-1.49c-.47.63-1.22 1.03-2.16 1.03-1.7 0-2.75-1.25-2.75-2.72 0-1.53.98-2.72 2.54-2.72 1.37 0 2.26.96 2.26 2.2 0 .2-.03.39-.06.53h-3.87c.03 1.21.8 1.94 1.88 1.94.65 0 1.2-.3 1.53-.75zm-2.39-3.69c-.83 0-1.41.49-1.59 1.36h3.02c-.03-.74-.54-1.36-1.43-1.36m7.152 2.36v-2.88h.85v2.85c0 1.51-.87 2.39-2.24 2.39-1.36 0-2.23-.88-2.23-2.39v-2.85h.85v2.88c0 .99.53 1.56 1.39 1.56.84 0 1.38-.57 1.38-1.56m4.79-.36c0-1.47 1.01-2.72 2.59-2.72.75 0 1.34.29 1.79.8v-3.06h.85v7.5h-.85v-.6c-.45.51-1.04.8-1.79.8-1.58 0-2.59-1.25-2.59-2.72m.9 0c0 1.07.72 1.92 1.79 1.92.7 0 1.32-.34 1.69-.93v-1.98c-.39-.6-1-.93-1.69-.93-1.07 0-1.79.85-1.79 1.92m10.602 1.69c-.47.63-1.22 1.03-2.16 1.03-1.7 0-2.75-1.25-2.75-2.72 0-1.53.98-2.72 2.54-2.72 1.37 0 2.26.96 2.26 2.2 0 .2-.03.39-.06.53h-3.87c.03 1.21.8 1.94 1.88 1.94.65 0 1.2-.3 1.53-.75zm-2.39-3.69c-.83 0-1.41.49-1.59 1.36h3.02c-.03-.74-.54-1.36-1.43-1.36m5.986 2c0-1.47 1.01-2.72 2.59-2.72.75 0 1.34.29 1.79.8v-3.06h.85v7.5h-.85v-.6c-.45.51-1.04.8-1.79.8-1.58 0-2.59-1.25-2.59-2.72m.9 0c0 1.07.72 1.92 1.79 1.92.7 0 1.32-.34 1.69-.93v-1.98c-.39-.6-1-.93-1.69-.93-1.07 0-1.79.85-1.79 1.92m8.422-2.72c1.62 0 2.73 1.25 2.73 2.72s-1.11 2.72-2.73 2.72c-1.63 0-2.73-1.25-2.73-2.72s1.1-2.72 2.73-2.72m.01 4.64c1.05 0 1.82-.88 1.82-1.92 0-1.05-.77-1.92-1.82-1.92-1.08 0-1.85.87-1.85 1.92s.77 1.92 1.85 1.92m4.086.6v-5.04h.85v.57c.41-.45.93-.77 1.68-.77 1.13 0 1.97.76 1.97 2.19V235h-.85v-3.02c0-.9-.51-1.42-1.29-1.42-.73 0-1.19.42-1.51.95V235zm6.211 0v-5.04h.85v.57c.41-.45.93-.77 1.68-.77 1.13 0 1.97.76 1.97 2.19V235h-.85v-3.02c0-.9-.51-1.42-1.29-1.42-.73 0-1.19.42-1.51.95V235zm8.771-5.84h-.83l1.04-1.66h.96zm1.92 5.01c-.47.63-1.22 1.03-2.16 1.03-1.7 0-2.75-1.25-2.75-2.72 0-1.53.98-2.72 2.54-2.72 1.37 0 2.26.96 2.26 2.2 0 .2-.03.39-.06.53h-3.87c.03 1.21.8 1.94 1.88 1.94.65 0 1.2-.3 1.53-.75zm-2.39-3.69c-.83 0-1.41.49-1.59 1.36h3.02c-.03-.74-.54-1.36-1.43-1.36m8.181 3.69c-.47.63-1.22 1.03-2.16 1.03-1.7 0-2.75-1.25-2.75-2.72 0-1.53.98-2.72 2.54-2.72 1.37 0 2.26.96 2.26 2.2 0 .2-.03.39-.06.53h-3.87c.03 1.21.8 1.94 1.88 1.94.65 0 1.2-.3 1.53-.75zm-2.39-3.69c-.83 0-1.41.49-1.59 1.36h3.02c-.03-.74-.54-1.36-1.43-1.36m3.142 3.83.6-.51c.35.44.77.69 1.28.69.56 0 .88-.34.88-.78 0-1.13-2.52-.73-2.52-2.51 0-.79.67-1.44 1.64-1.44.72 0 1.34.34 1.69.83l-.59.5c-.27-.38-.65-.62-1.09-.62-.54 0-.83.32-.83.71 0 1.13 2.53.77 2.53 2.49-.01.94-.76 1.53-1.7 1.53-.8 0-1.43-.32-1.89-.89m6.909-4.35h.92l1.61 4.15 1.61-4.15h.92l-1.97 5.04h-1.12zm6.531-1.31c-.33 0-.6-.27-.6-.6a.6.6 0 0 1 .6-.59c.33 0 .59.27.59.59 0 .33-.26.6-.59.6m-.43 6.35v-5.04h.85V235zm7.127-.83c-.47.63-1.22 1.03-2.16 1.03-1.7 0-2.75-1.25-2.75-2.72 0-1.53.98-2.72 2.54-2.72 1.37 0 2.26.96 2.26 2.2 0 .2-.03.39-.06.53h-3.87c.03 1.21.8 1.94 1.88 1.94.65 0 1.2-.3 1.53-.75zm-2.39-3.69c-.83 0-1.41.49-1.59 1.36h3.02c-.03-.74-.54-1.36-1.43-1.36m3.72 4.52v-5.04h.85v.57c.41-.45.93-.77 1.68-.77 1.13 0 1.97.76 1.97 2.19V235h-.85v-3.02c0-.9-.51-1.42-1.29-1.42-.73 0-1.19.42-1.51.95V235zm6.501-1.69v-2.58h-.95v-.77h.95v-1.26h.86v1.26h1.75v.77h-1.75v2.58c0 .79.4 1.01 1.01 1.01.33 0 .56-.04.75-.12v.76c-.24.1-.51.14-.87.14-1.12 0-1.75-.56-1.75-1.79M25.47 247.48c0-1.47 1.01-2.72 2.59-2.72.75 0 1.34.29 1.79.8v-3.06h.85v7.5h-.85v-.6c-.45.51-1.04.8-1.79.8-1.58 0-2.59-1.25-2.59-2.72m.9 0c0 1.07.72 1.92 1.79 1.92.7 0 1.32-.34 1.69-.93v-1.98c-.39-.6-1-.93-1.69-.93-1.07 0-1.79.85-1.79 1.92m6.49-1.8h-.79l.85-2.68h.97zm3.011-1.52h-.77l1.05-1.66h1.15l1.04 1.66h-.76l-.85-1.26zm3.2 5.01c-.47.63-1.22 1.03-2.16 1.03-1.7 0-2.75-1.25-2.75-2.72 0-1.53.98-2.72 2.54-2.72 1.37 0 2.26.96 2.26 2.2 0 .2-.03.39-.06.53h-3.87c.03 1.21.8 1.94 1.88 1.94.65 0 1.2-.3 1.53-.75zm-2.39-3.69c-.83 0-1.41.49-1.59 1.36h3.02c-.03-.74-.54-1.36-1.43-1.36m3.982 2.83v-2.58h-.95v-.77h.95v-1.26h.86v1.26h1.75v.77h-1.75v2.58c0 .79.4 1.01 1.01 1.01.33 0 .56-.04.75-.12v.76c-.24.1-.51.14-.87.14-1.12 0-1.75-.56-1.75-1.79m3.909 1.69v-5.04h.85v.63c.37-.44.83-.73 1.47-.73.16 0 .31.02.43.06v.83c-.15-.04-.3-.06-.5-.06-.66 0-1.09.34-1.4.85V250zm8.152-.83c-.47.63-1.22 1.03-2.16 1.03-1.7 0-2.75-1.25-2.75-2.72 0-1.53.98-2.72 2.54-2.72 1.37 0 2.26.96 2.26 2.2 0 .2-.03.39-.06.53h-3.87c.03 1.21.8 1.94 1.88 1.94.65 0 1.2-.3 1.53-.75zm-2.39-3.69c-.83 0-1.41.49-1.59 1.36h3.02c-.03-.74-.54-1.36-1.43-1.36m6.416 6.98v-7.5h.85v.6c.45-.51 1.04-.8 1.79-.8 1.58 0 2.59 1.25 2.59 2.72s-1.01 2.72-2.59 2.72c-.75 0-1.34-.29-1.79-.8v3.06zm2.54-6.9c-.7 0-1.31.34-1.69.94v1.96c.39.61 1 .94 1.69.94 1.07 0 1.8-.85 1.8-1.92s-.73-1.92-1.8-1.92m7.571 2.28v-2.88h.85v2.85c0 1.51-.87 2.39-2.24 2.39-1.36 0-2.23-.88-2.23-2.39v-2.85h.85v2.88c0 .99.53 1.56 1.39 1.56.84 0 1.38-.57 1.38-1.56m7.755-.36c0 1.47-1.01 2.72-2.59 2.72-.75 0-1.34-.29-1.79-.8v.6h-.85v-7.5h.85v3.06c.45-.51 1.04-.8 1.79-.8 1.58 0 2.59 1.25 2.59 2.72m-2.69-1.92c-.7 0-1.32.34-1.69.93v1.98c.39.6 1 .93 1.69.93 1.07 0 1.8-.85 1.8-1.92s-.73-1.92-1.8-1.92m4.072 4.44v-7.5h.85v7.5zm3.076-6.35c-.33 0-.6-.27-.6-.6a.6.6 0 0 1 .6-.59c.33 0 .59.27.59.59 0 .33-.26.6-.59.6m-.43 6.35v-5.04h.85V250zm5.207-5.84h-.83l1.04-1.66h.96zm1.92 5.01c-.47.63-1.22 1.03-2.16 1.03-1.7 0-2.75-1.25-2.75-2.72 0-1.53.98-2.72 2.54-2.72 1.37 0 2.26.96 2.26 2.2 0 .2-.03.39-.06.53h-3.87c.03 1.21.8 1.94 1.88 1.94.65 0 1.2-.3 1.53-.75zm-2.39-3.69c-.83 0-1.41.49-1.59 1.36h3.02c-.03-.74-.54-1.36-1.43-1.36m8.18 3.69c-.47.63-1.22 1.03-2.16 1.03-1.7 0-2.75-1.25-2.75-2.72 0-1.53.98-2.72 2.54-2.72 1.37 0 2.26.96 2.26 2.2 0 .2-.03.39-.06.53h-3.87c.03 1.21.8 1.94 1.88 1.94.65 0 1.2-.3 1.53-.75zm-2.39-3.69c-.83 0-1.41.49-1.59 1.36h3.02c-.03-.74-.54-1.36-1.43-1.36m4.123 4.63c-.36 0-.65-.28-.65-.63s.29-.64.65-.64.64.29.64.64-.28.63-.64.63"/></g></g></g><defs><clipPath id="b"><path fill="#fff" d="M1 11C1 5.477 5.477 1 11 1h338v210H1z"/></clipPath><clipPath id="c"><path fill="#fff" d="M1 1h348v210H1z"/></clipPath><filter id="a" width="350" height="212" x="0" y="0" color-interpolation-filters="sRGB" filterUnits="userSpaceOnUse"><feFlood flood-opacity="0" result="BackgroundImageFix"/><feColorMatrix in="SourceAlpha" result="hardAlpha" values="0 0 0 0 0 0 0 0 0 0 0 0 0 0 0 0 0 0 127 0"/><feMorphology in="SourceAlpha" operator="dilate" radius="1" result="effect1_dropShadow_2656_8960"/><feOffset/><feComposite in2="hardAlpha" operator="out"/><feColorMatrix values="0 0 0 0 0.149038 0 0 0 0 0.145083 0 0 0 0 0.11763 0 0 0 0.1 0"/><feBlend in2="BackgroundImageFix" result="effect1_dropShadow_2656_8960"/><feBlend in="SourceGraphic" in2="effect1_dropShadow_2656_8960" result="shape"/></filter></defs></svg>