<svg xmlns="http://www.w3.org/2000/svg" width="526" height="322" fill="none" viewBox="0 0 526 322"><g filter="url(#a)"><g clip-path="url(#b)"><path fill="#f6f6f6" d="M1 11C1 5.477 5.477 1 11 1h504c5.523 0 10 4.477 10 10v300c0 5.523-4.477 10-10 10H11c-5.523 0-10-4.477-10-10z"/><g clip-path="url(#c)"><path fill="#fff" d="M1 1h110v42H1z"/><path fill="#3a3a3a" d="m13.152 26 2.685-7.093h1.885L20.408 26h-1.53l-.68-1.844h-2.837L14.682 26zm2.655-3.07h1.946l-.973-2.666zm5.83 3.07v-5.107h1.287v.405c.355-.344.831-.608 1.51-.608 1.105 0 1.986.76 1.986 2.27V26h-1.297v-2.99c0-.678-.385-1.104-1.013-1.104-.648 0-.993.436-1.186.76V26zm6.245 0v-5.107h1.287v.405a2.08 2.08 0 0 1 1.51-.608c1.104 0 1.986.76 1.986 2.27V26h-1.297v-2.99c0-.678-.385-1.104-1.013-1.104-.65 0-.994.436-1.186.76V26zm9.213-5.918H35.86l1.054-1.682h1.398zm1.733 5.087c-.476.639-1.266 1.034-2.23 1.034-1.813 0-2.837-1.267-2.837-2.757 0-1.51.953-2.756 2.625-2.756 1.419 0 2.351.963 2.351 2.3 0 .284-.04.548-.081.72h-3.577c.121.952.71 1.337 1.51 1.337.557 0 1.044-.243 1.317-.608zm-2.472-3.425c-.659 0-1.095.365-1.237 1.034h2.351c-.02-.517-.395-1.034-1.114-1.034m8.301 3.425c-.476.639-1.267 1.034-2.23 1.034-1.813 0-2.837-1.267-2.837-2.757 0-1.51.953-2.756 2.625-2.756 1.418 0 2.35.963 2.35 2.3 0 .284-.04.548-.08.72h-3.577c.121.952.709 1.337 1.51 1.337.557 0 1.043-.243 1.317-.608zm-2.473-3.425c-.658 0-1.094.365-1.236 1.034H43.3c-.02-.517-.395-1.034-1.115-1.034"/><path fill="#000091" d="m93.5 24.086 2.682-2.682.707.707L92.999 26l-3.888-3.89.707-.706 2.682 2.682V18h1z"/><path stroke="#3a3a3a" stroke-width="1.448" d="M1 42.276h110"/><path fill="#fff" d="M1 43h110v42H1z"/><rect width="65" height="18" x="13" y="55" fill="#e8edff" rx="4"/><path fill="#0063cb" d="M17.58 68v-1.22l2.4-2.36c.54-.55.88-.93.88-1.5 0-.58-.4-.92-.95-.92-.67 0-1.08.41-1.45 1.03l-1.1-.67c.59-.96 1.46-1.56 2.68-1.56s2.2.78 2.2 1.98c0 .96-.63 1.7-1.32 2.37l-1.69 1.63h3.19V68zm8.416-7.2c1.84 0 2.7 1.6 2.7 3.7s-.86 3.7-2.7 3.7-2.7-1.6-2.7-3.7.86-3.7 2.7-3.7m0 1.25c-.89 0-1.32.98-1.32 2.45 0 1.48.43 2.45 1.32 2.45.88 0 1.31-.98 1.31-2.45 0-1.48-.43-2.45-1.31-2.45M29.553 68v-1.22l2.4-2.36c.54-.55.88-.93.88-1.5 0-.58-.4-.92-.95-.92-.67 0-1.08.41-1.45 1.03l-1.1-.67c.59-.96 1.46-1.56 2.68-1.56s2.2.78 2.2 1.98c0 .96-.63 1.7-1.32 2.37l-1.69 1.63h3.19V68zm8.416-7.2c1.84 0 2.7 1.6 2.7 3.7s-.86 3.7-2.7 3.7-2.7-1.6-2.7-3.7.86-3.7 2.7-3.7m0 1.25c-.89 0-1.32.98-1.32 2.45 0 1.48.43 2.45 1.32 2.45.88 0 1.31-.98 1.31-2.45 0-1.48-.43-2.45-1.31-2.45m5.54 2.85h4.96v1.09h-4.96zm8.085 3.1v-1.22l2.4-2.36c.54-.55.88-.93.88-1.5 0-.58-.4-.92-.95-.92-.67 0-1.08.41-1.45 1.03l-1.1-.67c.59-.96 1.46-1.56 2.68-1.56s2.2.78 2.2 1.98c0 .96-.63 1.7-1.32 2.37l-1.69 1.63h3.19V68zm8.416-7.2c1.84 0 2.7 1.6 2.7 3.7s-.86 3.7-2.7 3.7-2.7-1.6-2.7-3.7.86-3.7 2.7-3.7m0 1.25c-.89 0-1.32.98-1.32 2.45 0 1.48.43 2.45 1.32 2.45.88 0 1.31-.98 1.31-2.45 0-1.48-.43-2.45-1.31-2.45M63.566 68v-1.22l2.4-2.36c.54-.55.88-.93.88-1.5 0-.58-.4-.92-.95-.92-.67 0-1.08.41-1.45 1.03l-1.1-.67c.59-.96 1.46-1.56 2.68-1.56s2.2.78 2.2 1.98c0 .96-.63 1.7-1.32 2.37l-1.69 1.63h3.19V68zm7.41-.01v-5.61l-1.45.82-.67-.96 2.16-1.25h1.31v7z"/><path stroke="#e5e5e5" stroke-width=".724" d="M1 84.638h110"/><path fill="#f6f6f6" d="M1 85h110v42H1z"/><rect width="65" height="18" x="13" y="97" fill="#e8edff" rx="4"/><path fill="#0063cb" d="M17.58 110v-1.22l2.4-2.36c.54-.55.88-.93.88-1.5 0-.58-.4-.92-.95-.92-.67 0-1.08.41-1.45 1.03l-1.1-.67c.59-.96 1.46-1.56 2.68-1.56s2.2.78 2.2 1.98c0 .96-.63 1.7-1.32 2.37l-1.69 1.63h3.19V110zm8.416-7.2c1.84 0 2.7 1.6 2.7 3.7s-.86 3.7-2.7 3.7-2.7-1.6-2.7-3.7.86-3.7 2.7-3.7m0 1.25c-.89 0-1.32.98-1.32 2.45 0 1.48.43 2.45 1.32 2.45.88 0 1.31-.98 1.31-2.45 0-1.48-.43-2.45-1.31-2.45m3.557 5.95v-1.22l2.4-2.36c.54-.55.88-.93.88-1.5 0-.58-.4-.92-.95-.92-.67 0-1.08.41-1.45 1.03l-1.1-.67c.59-.96 1.46-1.56 2.68-1.56s2.2.78 2.2 1.98c0 .96-.63 1.7-1.32 2.37l-1.69 1.63h3.19V110zm8.416-7.2c1.84 0 2.7 1.6 2.7 3.7s-.86 3.7-2.7 3.7-2.7-1.6-2.7-3.7.86-3.7 2.7-3.7m0 1.25c-.89 0-1.32.98-1.32 2.45 0 1.48.43 2.45 1.32 2.45.88 0 1.31-.98 1.31-2.45 0-1.48-.43-2.45-1.31-2.45m5.54 2.85h4.96v1.09h-4.96zm8.085 3.1v-1.22l2.4-2.36c.54-.55.88-.93.88-1.5 0-.58-.4-.92-.95-.92-.67 0-1.08.41-1.45 1.03l-1.1-.67c.59-.96 1.46-1.56 2.68-1.56s2.2.78 2.2 1.98c0 .96-.63 1.7-1.32 2.37l-1.69 1.63h3.19V110zm8.416-7.2c1.84 0 2.7 1.6 2.7 3.7s-.86 3.7-2.7 3.7-2.7-1.6-2.7-3.7.86-3.7 2.7-3.7m0 1.25c-.89 0-1.32.98-1.32 2.45 0 1.48.43 2.45 1.32 2.45.88 0 1.31-.98 1.31-2.45 0-1.48-.43-2.45-1.31-2.45m3.556 5.95v-1.22l2.4-2.36c.54-.55.88-.93.88-1.5 0-.58-.4-.92-.95-.92-.67 0-1.08.41-1.45 1.03l-1.1-.67c.59-.96 1.46-1.56 2.68-1.56s2.2.78 2.2 1.98c0 .96-.63 1.7-1.32 2.37l-1.69 1.63h3.19V110zm7.41-.01v-5.61l-1.45.82-.67-.96 2.16-1.25h1.31v7z"/><path stroke="#e5e5e5" stroke-width=".724" d="M1 126.638h110"/><path fill="#fff" d="M1 127h110v42H1z"/><rect width="65" height="18" x="13" y="139" fill="#e8edff" rx="4"/><path fill="#0063cb" d="M17.58 152v-1.22l2.4-2.36c.54-.55.88-.93.88-1.5 0-.58-.4-.92-.95-.92-.67 0-1.08.41-1.45 1.03l-1.1-.67c.59-.96 1.46-1.56 2.68-1.56s2.2.78 2.2 1.98c0 .96-.63 1.7-1.32 2.37l-1.69 1.63h3.19V152zm8.416-7.2c1.84 0 2.7 1.6 2.7 3.7s-.86 3.7-2.7 3.7-2.7-1.6-2.7-3.7.86-3.7 2.7-3.7m0 1.25c-.89 0-1.32.98-1.32 2.45 0 1.48.43 2.45 1.32 2.45.88 0 1.31-.98 1.31-2.45 0-1.48-.43-2.45-1.31-2.45m3.557 5.95v-1.22l2.4-2.36c.54-.55.88-.93.88-1.5 0-.58-.4-.92-.95-.92-.67 0-1.08.41-1.45 1.03l-1.1-.67c.59-.96 1.46-1.56 2.68-1.56s2.2.78 2.2 1.98c0 .96-.63 1.7-1.32 2.37l-1.69 1.63h3.19V152zm8.416-7.2c1.84 0 2.7 1.6 2.7 3.7s-.86 3.7-2.7 3.7-2.7-1.6-2.7-3.7.86-3.7 2.7-3.7m0 1.25c-.89 0-1.32.98-1.32 2.45 0 1.48.43 2.45 1.32 2.45.88 0 1.31-.98 1.31-2.45 0-1.48-.43-2.45-1.31-2.45m5.54 2.85h4.96v1.09h-4.96zm8.085 3.1v-1.22l2.4-2.36c.54-.55.88-.93.88-1.5 0-.58-.4-.92-.95-.92-.67 0-1.08.41-1.45 1.03l-1.1-.67c.59-.96 1.46-1.56 2.68-1.56s2.2.78 2.2 1.98c0 .96-.63 1.7-1.32 2.37l-1.69 1.63h3.19V152zm8.416-7.2c1.84 0 2.7 1.6 2.7 3.7s-.86 3.7-2.7 3.7-2.7-1.6-2.7-3.7.86-3.7 2.7-3.7m0 1.25c-.89 0-1.32.98-1.32 2.45 0 1.48.43 2.45 1.32 2.45.88 0 1.31-.98 1.31-2.45 0-1.48-.43-2.45-1.31-2.45m3.556 5.95v-1.22l2.4-2.36c.54-.55.88-.93.88-1.5 0-.58-.4-.92-.95-.92-.67 0-1.08.41-1.45 1.03l-1.1-.67c.59-.96 1.46-1.56 2.68-1.56s2.2.78 2.2 1.98c0 .96-.63 1.7-1.32 2.37l-1.69 1.63h3.19V152zm7.41-.01v-5.61l-1.45.82-.67-.96 2.16-1.25h1.31v7z"/><path stroke="#e5e5e5" stroke-width=".724" d="M1 168.638h110"/><path fill="#f6f6f6" d="M1 169h110v42H1z"/><rect width="65" height="18" x="13" y="181" fill="#e8edff" rx="4"/><path fill="#0063cb" d="M17.58 194v-1.22l2.4-2.36c.54-.55.88-.93.88-1.5 0-.58-.4-.92-.95-.92-.67 0-1.08.41-1.45 1.03l-1.1-.67c.59-.96 1.46-1.56 2.68-1.56s2.2.78 2.2 1.98c0 .96-.63 1.7-1.32 2.37l-1.69 1.63h3.19V194zm8.416-7.2c1.84 0 2.7 1.6 2.7 3.7s-.86 3.7-2.7 3.7-2.7-1.6-2.7-3.7.86-3.7 2.7-3.7m0 1.25c-.89 0-1.32.98-1.32 2.45 0 1.48.43 2.45 1.32 2.45.88 0 1.31-.98 1.31-2.45 0-1.48-.43-2.45-1.31-2.45m3.557 5.95v-1.22l2.4-2.36c.54-.55.88-.93.88-1.5 0-.58-.4-.92-.95-.92-.67 0-1.08.41-1.45 1.03l-1.1-.67c.59-.96 1.46-1.56 2.68-1.56s2.2.78 2.2 1.98c0 .96-.63 1.7-1.32 2.37l-1.69 1.63h3.19V194zm8.416-7.2c1.84 0 2.7 1.6 2.7 3.7s-.86 3.7-2.7 3.7-2.7-1.6-2.7-3.7.86-3.7 2.7-3.7m0 1.25c-.89 0-1.32.98-1.32 2.45 0 1.48.43 2.45 1.32 2.45.88 0 1.31-.98 1.31-2.45 0-1.48-.43-2.45-1.31-2.45m5.54 2.85h4.96v1.09h-4.96zm8.085 3.1v-1.22l2.4-2.36c.54-.55.88-.93.88-1.5 0-.58-.4-.92-.95-.92-.67 0-1.08.41-1.45 1.03l-1.1-.67c.59-.96 1.46-1.56 2.68-1.56s2.2.78 2.2 1.98c0 .96-.63 1.7-1.32 2.37l-1.69 1.63h3.19V194zm8.416-7.2c1.84 0 2.7 1.6 2.7 3.7s-.86 3.7-2.7 3.7-2.7-1.6-2.7-3.7.86-3.7 2.7-3.7m0 1.25c-.89 0-1.32.98-1.32 2.45 0 1.48.43 2.45 1.32 2.45.88 0 1.31-.98 1.31-2.45 0-1.48-.43-2.45-1.31-2.45m3.556 5.95v-1.22l2.4-2.36c.54-.55.88-.93.88-1.5 0-.58-.4-.92-.95-.92-.67 0-1.08.41-1.45 1.03l-1.1-.67c.59-.96 1.46-1.56 2.68-1.56s2.2.78 2.2 1.98c0 .96-.63 1.7-1.32 2.37l-1.69 1.63h3.19V194zm7.41-.01v-5.61l-1.45.82-.67-.96 2.16-1.25h1.31v7z"/><path stroke="#e5e5e5" stroke-width=".724" d="M1 210.638h110"/><path fill="#fff" d="M1 211h110v42H1z"/><rect width="65" height="18" x="13" y="223" fill="#e8edff" rx="4"/><path fill="#0063cb" d="M17.58 236v-1.22l2.4-2.36c.54-.55.88-.93.88-1.5 0-.58-.4-.92-.95-.92-.67 0-1.08.41-1.45 1.03l-1.1-.67c.59-.96 1.46-1.56 2.68-1.56s2.2.78 2.2 1.98c0 .96-.63 1.7-1.32 2.37l-1.69 1.63h3.19V236zm8.416-7.2c1.84 0 2.7 1.6 2.7 3.7s-.86 3.7-2.7 3.7-2.7-1.6-2.7-3.7.86-3.7 2.7-3.7m0 1.25c-.89 0-1.32.98-1.32 2.45 0 1.48.43 2.45 1.32 2.45.88 0 1.31-.98 1.31-2.45 0-1.48-.43-2.45-1.31-2.45m3.557 5.95v-1.22l2.4-2.36c.54-.55.88-.93.88-1.5 0-.58-.4-.92-.95-.92-.67 0-1.08.41-1.45 1.03l-1.1-.67c.59-.96 1.46-1.56 2.68-1.56s2.2.78 2.2 1.98c0 .96-.63 1.7-1.32 2.37l-1.69 1.63h3.19V236zm8.416-7.2c1.84 0 2.7 1.6 2.7 3.7s-.86 3.7-2.7 3.7-2.7-1.6-2.7-3.7.86-3.7 2.7-3.7m0 1.25c-.89 0-1.32.98-1.32 2.45 0 1.48.43 2.45 1.32 2.45.88 0 1.31-.98 1.31-2.45 0-1.48-.43-2.45-1.31-2.45m5.54 2.85h4.96v1.09h-4.96zm8.085 3.1v-1.22l2.4-2.36c.54-.55.88-.93.88-1.5 0-.58-.4-.92-.95-.92-.67 0-1.08.41-1.45 1.03l-1.1-.67c.59-.96 1.46-1.56 2.68-1.56s2.2.78 2.2 1.98c0 .96-.63 1.7-1.32 2.37l-1.69 1.63h3.19V236zm8.416-7.2c1.84 0 2.7 1.6 2.7 3.7s-.86 3.7-2.7 3.7-2.7-1.6-2.7-3.7.86-3.7 2.7-3.7m0 1.25c-.89 0-1.32.98-1.32 2.45 0 1.48.43 2.45 1.32 2.45.88 0 1.31-.98 1.31-2.45 0-1.48-.43-2.45-1.31-2.45m3.556 5.95v-1.22l2.4-2.36c.54-.55.88-.93.88-1.5 0-.58-.4-.92-.95-.92-.67 0-1.08.41-1.45 1.03l-1.1-.67c.59-.96 1.46-1.56 2.68-1.56s2.2.78 2.2 1.98c0 .96-.63 1.7-1.32 2.37l-1.69 1.63h3.19V236zm7.41-.01v-5.61l-1.45.82-.67-.96 2.16-1.25h1.31v7z"/><path stroke="#e5e5e5" stroke-width=".724" d="M1 252.638h110"/><path fill="#f6f6f6" d="M1 253h110v42H1z"/><rect width="65" height="18" x="13" y="265" fill="#e8edff" rx="4"/><path fill="#0063cb" d="M17.58 278v-1.22l2.4-2.36c.54-.55.88-.93.88-1.5 0-.58-.4-.92-.95-.92-.67 0-1.08.41-1.45 1.03l-1.1-.67c.59-.96 1.46-1.56 2.68-1.56s2.2.78 2.2 1.98c0 .96-.63 1.7-1.32 2.37l-1.69 1.63h3.19V278zm8.416-7.2c1.84 0 2.7 1.6 2.7 3.7s-.86 3.7-2.7 3.7-2.7-1.6-2.7-3.7.86-3.7 2.7-3.7m0 1.25c-.89 0-1.32.98-1.32 2.45 0 1.48.43 2.45 1.32 2.45.88 0 1.31-.98 1.31-2.45 0-1.48-.43-2.45-1.31-2.45m3.557 5.95v-1.22l2.4-2.36c.54-.55.88-.93.88-1.5 0-.58-.4-.92-.95-.92-.67 0-1.08.41-1.45 1.03l-1.1-.67c.59-.96 1.46-1.56 2.68-1.56s2.2.78 2.2 1.98c0 .96-.63 1.7-1.32 2.37l-1.69 1.63h3.19V278zm8.416-7.2c1.84 0 2.7 1.6 2.7 3.7s-.86 3.7-2.7 3.7-2.7-1.6-2.7-3.7.86-3.7 2.7-3.7m0 1.25c-.89 0-1.32.98-1.32 2.45 0 1.48.43 2.45 1.32 2.45.88 0 1.31-.98 1.31-2.45 0-1.48-.43-2.45-1.31-2.45m5.54 2.85h4.96v1.09h-4.96zm8.085 3.1v-1.22l2.4-2.36c.54-.55.88-.93.88-1.5 0-.58-.4-.92-.95-.92-.67 0-1.08.41-1.45 1.03l-1.1-.67c.59-.96 1.46-1.56 2.68-1.56s2.2.78 2.2 1.98c0 .96-.63 1.7-1.32 2.37l-1.69 1.63h3.19V278zm8.416-7.2c1.84 0 2.7 1.6 2.7 3.7s-.86 3.7-2.7 3.7-2.7-1.6-2.7-3.7.86-3.7 2.7-3.7m0 1.25c-.89 0-1.32.98-1.32 2.45 0 1.48.43 2.45 1.32 2.45.88 0 1.31-.98 1.31-2.45 0-1.48-.43-2.45-1.31-2.45m3.556 5.95v-1.22l2.4-2.36c.54-.55.88-.93.88-1.5 0-.58-.4-.92-.95-.92-.67 0-1.08.41-1.45 1.03l-1.1-.67c.59-.96 1.46-1.56 2.68-1.56s2.2.78 2.2 1.98c0 .96-.63 1.7-1.32 2.37l-1.69 1.63h3.19V278zm7.41-.01v-5.61l-1.45.82-.67-.96 2.16-1.25h1.31v7z"/><path stroke="#e5e5e5" stroke-width=".724" d="M1 294.638h110"/><path fill="#fff" d="M1 295h110v42H1z"/><rect width="65" height="18" x="13" y="307" fill="#e8edff" rx="4"/><path fill="#0063cb" d="M17.58 320v-1.22l2.4-2.36c.54-.55.88-.93.88-1.5 0-.58-.4-.92-.95-.92-.67 0-1.08.41-1.45 1.03l-1.1-.67c.59-.96 1.46-1.56 2.68-1.56s2.2.78 2.2 1.98c0 .96-.63 1.7-1.32 2.37l-1.69 1.63h3.19V320zm8.416-7.2c1.84 0 2.7 1.6 2.7 3.7s-.86 3.7-2.7 3.7-2.7-1.6-2.7-3.7.86-3.7 2.7-3.7m0 1.25c-.89 0-1.32.98-1.32 2.45 0 1.48.43 2.45 1.32 2.45.88 0 1.31-.98 1.31-2.45 0-1.48-.43-2.45-1.31-2.45m3.557 5.95v-1.22l2.4-2.36c.54-.55.88-.93.88-1.5 0-.58-.4-.92-.95-.92-.67 0-1.08.41-1.45 1.03l-1.1-.67c.59-.96 1.46-1.56 2.68-1.56s2.2.78 2.2 1.98c0 .96-.63 1.7-1.32 2.37l-1.69 1.63h3.19V320zm8.416-7.2c1.84 0 2.7 1.6 2.7 3.7s-.86 3.7-2.7 3.7-2.7-1.6-2.7-3.7.86-3.7 2.7-3.7m0 1.25c-.89 0-1.32.98-1.32 2.45 0 1.48.43 2.45 1.32 2.45.88 0 1.31-.98 1.31-2.45 0-1.48-.43-2.45-1.31-2.45m5.54 2.85h4.96v1.09h-4.96zm8.085 3.1v-1.22l2.4-2.36c.54-.55.88-.93.88-1.5 0-.58-.4-.92-.95-.92-.67 0-1.08.41-1.45 1.03l-1.1-.67c.59-.96 1.46-1.56 2.68-1.56s2.2.78 2.2 1.98c0 .96-.63 1.7-1.32 2.37l-1.69 1.63h3.19V320zm8.416-7.2c1.84 0 2.7 1.6 2.7 3.7s-.86 3.7-2.7 3.7-2.7-1.6-2.7-3.7.86-3.7 2.7-3.7m0 1.25c-.89 0-1.32.98-1.32 2.45 0 1.48.43 2.45 1.32 2.45.88 0 1.31-.98 1.31-2.45 0-1.48-.43-2.45-1.31-2.45m3.556 5.95v-1.22l2.4-2.36c.54-.55.88-.93.88-1.5 0-.58-.4-.92-.95-.92-.67 0-1.08.41-1.45 1.03l-1.1-.67c.59-.96 1.46-1.56 2.68-1.56s2.2.78 2.2 1.98c0 .96-.63 1.7-1.32 2.37l-1.69 1.63h3.19V320zm7.41-.01v-5.61l-1.45.82-.67-.96 2.16-1.25h1.31v7z"/><path fill="#fff" d="M111 1h117v42H111z"/><path fill="#3a3a3a" d="M124.044 26v-7.093h2.786c2.25 0 3.77 1.631 3.77 3.546 0 1.916-1.52 3.547-3.77 3.547zm2.807-5.786h-1.368v4.479h1.368c1.317 0 2.27-.983 2.27-2.24 0-1.266-.953-2.24-2.27-2.24m9.696 4.955c-.476.639-1.266 1.034-2.229 1.034-1.814 0-2.837-1.267-2.837-2.757 0-1.51.952-2.756 2.624-2.756 1.419 0 2.351.963 2.351 2.3 0 .284-.04.548-.081.72h-3.577c.121.952.709 1.337 1.51 1.337.557 0 1.044-.243 1.317-.608zm-2.472-3.425c-.659 0-1.095.365-1.237 1.034h2.351c-.02-.517-.395-1.034-1.114-1.034m3.639 6.749v-7.6h1.287v.415c.395-.395.891-.618 1.591-.618 1.621 0 2.594 1.267 2.594 2.756 0 1.49-.973 2.757-2.594 2.757-.7 0-1.196-.223-1.591-.619v2.909zm2.695-6.587c-.598 0-1.084.264-1.408.74v1.6c.344.487.82.74 1.408.74.872 0 1.439-.648 1.439-1.54 0-.891-.567-1.54-1.439-1.54m4.22 2.23v-2.088h-.953v-1.155h.953v-1.277h1.297v1.277h1.56v1.155h-1.56v2.087c0 .568.304.79.81.79.355 0 .588-.04.76-.11v1.124c-.253.112-.557.162-.982.162-1.277 0-1.885-.72-1.885-1.966m4.875 1.986a.885.885 0 0 1-.892-.882c0-.476.396-.882.892-.882.476 0 .892.406.892.882a.9.9 0 0 1-.892.882"/><path fill="#cecece" d="M213.5 21.5h-7v1h7z"/><path stroke="#3a3a3a" stroke-width="1.448" d="M111 42.276h117"/><path fill="#fff" d="M111 43h117v42H111z"/><path fill="#3a3a3a" d="M124.92 68h-1.04l3.7-6.19h-3.9V61h4.86v.81zm4.911-3.32.21-3.68h3.85v.81h-2.99l-.12 2.05h1.01c1.65 0 2.43.9 2.43 2.14 0 1.34-1.04 2.2-2.44 2.2-1.2 0-2.01-.49-2.57-1.42l.79-.49c.43.78 1.01 1.1 1.77 1.1.88 0 1.53-.51 1.53-1.36 0-.81-.57-1.35-1.55-1.35z"/><path stroke="#e5e5e5" stroke-width=".724" d="M111 84.638h117"/><path fill="#f6f6f6" d="M111 85h117v42H111z"/><path fill="#3a3a3a" d="M125.37 110v-6.09l-1.85 1-.46-.64 2.3-1.27h.9v7zm7.474-1.93c0 1.27-1.03 2.13-2.44 2.13-1.21 0-2.01-.49-2.57-1.42l.79-.49c.43.77.99 1.1 1.77 1.1.87 0 1.52-.51 1.52-1.36 0-.79-.56-1.34-1.48-1.34h-1.19v-.81h1.05c.8 0 1.31-.48 1.31-1.16 0-.71-.53-1.11-1.25-1.11-.63 0-1.12.32-1.45.93l-.75-.46c.5-.82 1.24-1.28 2.26-1.28 1.21 0 2.11.73 2.11 1.84 0 .68-.32 1.26-.92 1.59.81.33 1.24 1.03 1.24 1.84"/><path stroke="#e5e5e5" stroke-width=".724" d="M111 126.638h117"/><path fill="#fff" d="M111 127h117v42H111z"/><path fill="#3a3a3a" d="M128.42 150.07c0 1.27-1.03 2.13-2.44 2.13-1.21 0-2.01-.49-2.57-1.42l.79-.49c.43.77.99 1.1 1.77 1.1.87 0 1.52-.51 1.52-1.36 0-.79-.56-1.34-1.48-1.34h-1.19v-.81h1.05c.8 0 1.31-.48 1.31-1.16 0-.71-.53-1.11-1.25-1.11-.63 0-1.12.32-1.45.93l-.75-.46c.5-.82 1.24-1.28 2.26-1.28 1.21 0 2.11.73 2.11 1.84 0 .68-.32 1.26-.92 1.59.81.33 1.24 1.03 1.24 1.84m5.938 0c0 1.27-1.03 2.13-2.44 2.13-1.21 0-2.01-.49-2.57-1.42l.79-.49c.43.77.99 1.1 1.77 1.1.87 0 1.52-.51 1.52-1.36 0-.79-.56-1.34-1.48-1.34h-1.19v-.81h1.05c.8 0 1.31-.48 1.31-1.16 0-.71-.53-1.11-1.25-1.11-.63 0-1.12.32-1.45.93l-.75-.46c.5-.82 1.24-1.28 2.26-1.28 1.21 0 2.11.73 2.11 1.84 0 .68-.32 1.26-.92 1.59.81.33 1.24 1.03 1.24 1.84"/><path stroke="#e5e5e5" stroke-width=".724" d="M111 168.638h117"/><path fill="#f6f6f6" d="M111 169h117v42H111z"/><path fill="#3a3a3a" d="m124.03 190.68.21-3.68h3.85v.81h-2.99l-.12 2.05h1.01c1.65 0 2.43.9 2.43 2.14 0 1.34-1.04 2.2-2.44 2.2-1.2 0-2.01-.49-2.57-1.42l.79-.49c.43.78 1.01 1.1 1.77 1.1.88 0 1.53-.51 1.53-1.36 0-.81-.57-1.35-1.55-1.35zm7.616 3.52c-1.08 0-1.77-.48-2.25-1.19l.72-.55c.4.61.88.92 1.53.92 1.28 0 1.92-1.06 1.96-2.8-.5.51-1.16.79-1.94.79-1.31 0-2.21-.99-2.21-2.22 0-1.27.89-2.35 2.41-2.35 1.64 0 2.67 1.16 2.67 3.59 0 2.27-.9 3.81-2.89 3.81m-1.26-5.08c0 .81.6 1.44 1.42 1.44.71 0 1.35-.3 1.76-.91-.15-1.47-.81-2.03-1.69-2.03-.93 0-1.49.66-1.49 1.5"/><path stroke="#e5e5e5" stroke-width=".724" d="M111 210.638h117"/><path fill="#fff" d="M111 211h117v42H111z"/><path fill="#3a3a3a" d="M126.33 228.8c1.08 0 1.76.48 2.25 1.19l-.71.55c-.41-.61-.89-.92-1.53-.92-1.28 0-1.91 1.06-1.96 2.79.5-.5 1.16-.78 1.93-.78 1.32 0 2.22.99 2.22 2.22 0 1.27-.9 2.35-2.41 2.35-1.64 0-2.67-1.16-2.67-3.59 0-2.27.89-3.81 2.88-3.81m-.16 3.64c-.7 0-1.33.3-1.75.9.15 1.48.79 2.04 1.68 2.04.94 0 1.49-.66 1.49-1.5 0-.81-.6-1.44-1.42-1.44m5.457 3.76c-1.08 0-1.77-.48-2.25-1.19l.72-.55c.4.61.88.92 1.53.92 1.28 0 1.92-1.06 1.96-2.8-.5.51-1.16.79-1.94.79-1.31 0-2.21-.99-2.21-2.22 0-1.27.89-2.35 2.41-2.35 1.64 0 2.67 1.16 2.67 3.59 0 2.27-.9 3.81-2.89 3.81m-1.26-5.08c0 .81.6 1.44 1.42 1.44.71 0 1.35-.3 1.76-.91-.15-1.47-.81-2.03-1.69-2.03-.93 0-1.49.66-1.49 1.5"/><path stroke="#e5e5e5" stroke-width=".724" d="M111 252.638h117"/><path fill="#f6f6f6" d="M111 253h117v42H111z"/><path fill="#3a3a3a" d="M125.99 270.8c1.76 0 2.62 1.62 2.62 3.7s-.86 3.7-2.62 3.7c-1.74 0-2.61-1.62-2.61-3.7s.87-3.7 2.61-3.7m.01.84c-1.12 0-1.7 1.22-1.7 2.86s.58 2.86 1.7 2.86c1.11 0 1.68-1.22 1.68-2.86s-.57-2.86-1.68-2.86m6.394-.84c1.08 0 1.76.48 2.25 1.19l-.71.55c-.41-.61-.89-.92-1.53-.92-1.28 0-1.91 1.06-1.96 2.79.5-.5 1.16-.78 1.93-.78 1.32 0 2.22.99 2.22 2.22 0 1.27-.9 2.35-2.41 2.35-1.64 0-2.67-1.16-2.67-3.59 0-2.27.89-3.81 2.88-3.81m-.16 3.64c-.7 0-1.33.3-1.75.9.15 1.48.79 2.04 1.68 2.04.94 0 1.49-.66 1.49-1.5 0-.81-.6-1.44-1.42-1.44"/><path stroke="#e5e5e5" stroke-width=".724" d="M111 294.638h117"/><path fill="#fff" d="M111 295h117v42H111z"/><path fill="#3a3a3a" d="M128.42 318.07c0 1.27-1.03 2.13-2.44 2.13-1.21 0-2.01-.49-2.57-1.42l.79-.49c.43.77.99 1.1 1.77 1.1.87 0 1.52-.51 1.52-1.36 0-.79-.56-1.34-1.48-1.34h-1.19v-.81h1.05c.8 0 1.31-.48 1.31-1.16 0-.71-.53-1.11-1.25-1.11-.63 0-1.12.32-1.45.93l-.75-.46c.5-.82 1.24-1.28 2.26-1.28 1.21 0 2.11.73 2.11 1.84 0 .68-.32 1.26-.92 1.59.81.33 1.24 1.03 1.24 1.84m.81-.09v-.81l3.29-4.17h1.09v4.17h.81v.81h-.81V320h-.9v-2.02zm.96-.81h2.52v-3.19z"/><path fill="#fff" d="M228 1h160v42H228z"/><path fill="#3a3a3a" d="m240.152 26 2.685-7.093h1.885L247.408 26h-1.531l-.678-1.844h-2.838L241.682 26zm2.655-3.07h1.946l-.973-2.666zm8.075 2.057c.507 0 .912-.233 1.155-.588l1.003.77c-.476.628-1.226 1.034-2.158 1.034-1.763 0-2.817-1.267-2.817-2.757s1.054-2.756 2.817-2.756c.932 0 1.682.405 2.158 1.034l-1.003.77c-.243-.355-.648-.588-1.175-.588-.841 0-1.46.649-1.46 1.54 0 .902.619 1.54 1.48 1.54m4.469 1.165c-1.023 0-1.723-.588-1.723-1.53 0-.77.598-1.348 1.693-1.53l1.56-.264v-.131c0-.538-.405-.882-.993-.882-.496 0-.882.233-1.155.608l-.943-.72c.456-.628 1.206-1.013 2.139-1.013 1.479 0 2.239.882 2.239 2.006V26h-1.287v-.497c-.324.396-.932.649-1.53.649m-.446-1.591c0 .345.274.567.71.567.587 0 1.013-.273 1.266-.678v-.72l-1.216.203c-.537.091-.76.314-.76.628m4.372-1.115c0-1.49.983-2.756 2.594-2.756.689 0 1.186.213 1.581.608V18.4h1.297V26h-1.297v-.405c-.395.395-.892.608-1.581.608-1.611 0-2.594-1.267-2.594-2.757m1.348 0c0 .892.557 1.54 1.429 1.54a1.67 1.67 0 0 0 1.398-.709v-1.662a1.67 1.67 0 0 0-1.398-.709c-.872 0-1.429.649-1.429 1.54m8.636-3.364h-1.236l1.054-1.682h1.398zm1.733 5.087c-.476.639-1.267 1.034-2.229 1.034-1.814 0-2.838-1.267-2.838-2.757 0-1.51.953-2.756 2.625-2.756 1.418 0 2.351.963 2.351 2.3 0 .284-.041.548-.081.72h-3.577c.121.952.709 1.337 1.509 1.337.558 0 1.044-.243 1.318-.608zm-2.473-3.425c-.658 0-1.094.365-1.236 1.034h2.351c-.02-.517-.395-1.034-1.115-1.034M272.16 26v-5.107h1.287v.385c.345-.335.781-.588 1.409-.588.648 0 1.216.284 1.55.831.365-.446.852-.831 1.713-.831 1.054 0 1.885.73 1.885 2.169V26h-1.297v-3.09c0-.619-.335-1.004-.912-1.004-.558 0-.862.385-1.064.73.01.07.01.142.01.223V26h-1.297v-3.09c0-.619-.335-1.004-.912-1.004-.588 0-.892.436-1.085.76V26zm9.961-6a.85.85 0 0 1-.841-.84c0-.456.385-.841.841-.841s.831.385.831.84a.843.843 0 0 1-.831.842m-.648 6v-5.107h1.286V26zm7.532-.83c-.477.637-1.267 1.033-2.23 1.033-1.814 0-2.837-1.267-2.837-2.757 0-1.51.953-2.756 2.625-2.756 1.418 0 2.351.963 2.351 2.3 0 .284-.041.548-.082.72h-3.577c.122.952.71 1.337 1.51 1.337.558 0 1.044-.243 1.318-.608zm-2.473-3.426c-.659 0-1.094.365-1.236 1.034h2.351c-.02-.517-.395-1.034-1.115-1.034"/><path fill="#cecece" d="M373.5 21.5h-7v1h7z"/><path stroke="#3a3a3a" stroke-width="1.448" d="M228 42.276h160"/><path fill="#fff" d="M228 43h160v42H228z"/><path fill="#3a3a3a" d="M241.11 68v-7h2.05c1.4 0 2.27.77 2.27 1.97s-.87 1.96-2.27 1.96h-1.11V68zm2.07-6.2h-1.13v2.33h1.13c.8 0 1.28-.43 1.28-1.18 0-.71-.48-1.15-1.28-1.15m2.1 6.2 2.79-7h1.26l2.79 7h-1l-.81-2.06h-3.22l-.81 2.06zm2.12-2.87h2.6l-1.3-3.31zm6.103 2.87v-7h1.86c1.41 0 2.28.77 2.28 1.97 0 .84-.43 1.47-1.18 1.77l2.26 3.26h-1.11l-2.03-3.08c-.07.01-.15.01-.22.01h-.92V68zm1.9-6.2h-.96v2.33h.96c.8 0 1.27-.43 1.27-1.18 0-.71-.47-1.15-1.27-1.15m4.506 6.2v-7h.94v7zm2.634-.96.7-.64c.48.62 1.04.95 1.69.95.78 0 1.23-.47 1.23-1.11 0-1.58-3.32-1.24-3.32-3.55 0-1.04.86-1.89 2.08-1.89.98 0 1.7.45 2.22 1.14l-.71.62c-.41-.59-.9-.92-1.5-.92-.69 0-1.13.43-1.13 1.03 0 1.57 3.31 1.21 3.31 3.54 0 1.21-.93 1.98-2.17 1.98-1.03 0-1.79-.39-2.4-1.15"/><path stroke="#e5e5e5" stroke-width=".724" d="M228 84.638h160"/><path fill="#f6f6f6" d="M228 85h160v42H228z"/><path fill="#3a3a3a" d="m240.27 110 2.79-7h1.26l2.79 7h-1l-.81-2.06h-3.22l-.81 2.06zm2.12-2.87h2.6l-1.3-3.31zm6.103 2.87v-7h.94v7zm3.484 0h-1.13l2.63-3.64-2.42-3.36h1.12l1.95 2.7 1.95-2.7h1.13l-2.43 3.36 2.63 3.64h-1.12l-2.16-2.98zm5.43-2.97h2.7v.82h-2.7zm4.006 2.97v-7h1.2l2.14 3.53 2.14-3.53h1.2v7h-.94v-5.74l-2.04 3.34h-.72l-2.04-3.34V110zm8.046 0 2.79-7h1.26l2.79 7h-1l-.81-2.06h-3.22l-.81 2.06zm2.12-2.87h2.6l-1.3-3.31zm6.103 2.87v-7h1.86c1.41 0 2.28.77 2.28 1.97 0 .84-.43 1.47-1.18 1.77l2.26 3.26h-1.11l-2.03-3.08c-.07.01-.15.01-.22.01h-.92V110zm1.9-6.2h-.96v2.33h.96c.8 0 1.27-.43 1.27-1.18 0-.71-.47-1.15-1.27-1.15m3.918 5.24.7-.64c.48.62 1.04.95 1.69.95.78 0 1.23-.47 1.23-1.11 0-1.58-3.32-1.24-3.32-3.55 0-1.04.86-1.89 2.08-1.89.98 0 1.7.45 2.22 1.14l-.71.62c-.41-.59-.9-.92-1.5-.92-.69 0-1.13.43-1.13 1.03 0 1.57 3.31 1.21 3.31 3.54 0 1.21-.93 1.98-2.17 1.98-1.03 0-1.79-.39-2.4-1.15m6.409.96v-7h3.76v.8h-2.82v2.24h2.42v.79h-2.42v2.37h2.82v.8zm5.635 0v-7h.94v7zm3.164 0v-7h.94v6.14h2.82v.86zm5.234 0v-7h.94v6.14h2.82v.86zm5.234 0v-7h3.76v.8h-2.82v2.24h2.42v.79h-2.42v2.37h2.82v.8z"/><path stroke="#e5e5e5" stroke-width=".724" d="M228 126.638h160"/><path fill="#fff" d="M228 127h160v42H228z"/><path fill="#3a3a3a" d="M241.11 152v-7h1.73c1.34 0 2.15.71 2.15 1.82 0 .63-.29 1.14-.84 1.44.82.29 1.26.93 1.26 1.73 0 1.23-.91 2.01-2.4 2.01zm1.74-6.2h-.8v2.11h.8c.74 0 1.17-.38 1.17-1.07 0-.66-.43-1.04-1.17-1.04m.2 2.91h-1v2.49h1c.87 0 1.39-.46 1.39-1.25s-.52-1.24-1.39-1.24m7.117-3.91c2.18 0 3.67 1.7 3.67 3.7s-1.49 3.7-3.67 3.7c-2.19 0-3.68-1.7-3.68-3.7s1.49-3.7 3.68-3.7m0 6.52c1.57 0 2.7-1.26 2.7-2.82s-1.13-2.82-2.7-2.82c-1.58 0-2.71 1.26-2.71 2.82s1.13 2.82 2.71 2.82m5.289.68v-7h1.86c1.41 0 2.28.77 2.28 1.97 0 .84-.43 1.47-1.18 1.77l2.26 3.26h-1.11l-2.03-3.08c-.07.01-.15.01-.22.01h-.92V152zm1.9-6.2h-.96v2.33h.96c.8 0 1.27-.43 1.27-1.18 0-.71-.47-1.15-1.27-1.15m4.506 6.2v-7h2.69c2.19 0 3.68 1.61 3.68 3.5s-1.49 3.5-3.68 3.5zm2.71-6.14h-1.77v5.28h1.77c1.56 0 2.69-1.18 2.69-2.64 0-1.47-1.13-2.64-2.69-2.64m5.288 6.14v-7h3.76v.8h-2.82v2.24h2.42v.79h-2.42v2.37h2.82v.8zm4.873 0 2.79-7h1.26l2.79 7h-1l-.81-2.06h-3.22l-.81 2.06zm2.12-2.87h2.6l-1.3-3.31zm10.197.29V145h.94v4.36c0 1.8-1.07 2.84-2.71 2.84s-2.72-1.04-2.72-2.84V145h.94v4.42c0 1.21.7 1.9 1.78 1.9 1.07 0 1.77-.69 1.77-1.9m3.179 2.58h-1.13l2.63-3.64-2.42-3.36h1.12l1.95 2.7 1.95-2.7h1.13l-2.43 3.36 2.63 3.64h-1.12l-2.16-2.98z"/><path stroke="#e5e5e5" stroke-width=".724" d="M228 168.638h160"/><path fill="#f6f6f6" d="M228 169h160v42H228z"/><path fill="#3a3a3a" d="M241.11 194v-7h.94v6.14h2.82v.86zm5.234 0v-7h.94v7zm3.164 0v-7h.94v6.14h2.82v.86zm5.235 0v-7h.94v6.14h2.82v.86zm5.234 0v-7h3.76v.8h-2.82v2.24h2.42v.79h-2.42v2.37h2.82v.8z"/><path stroke="#e5e5e5" stroke-width=".724" d="M228 210.638h160"/><path fill="#fff" d="M228 211h160v42H228z"/><path fill="#3a3a3a" d="M241.11 236v-7h.94v6.14h2.82v.86zm9.769-7-2.83 3.86V236h-.94v-3.14l-2.84-3.86h1.14l2.17 2.94 2.17-2.94zm3.848-.2c2.18 0 3.67 1.7 3.67 3.7s-1.49 3.7-3.67 3.7c-2.19 0-3.68-1.7-3.68-3.7s1.49-3.7 3.68-3.7m0 6.52c1.57 0 2.7-1.26 2.7-2.82s-1.13-2.82-2.7-2.82c-1.58 0-2.71 1.26-2.71 2.82s1.13 2.82 2.71 2.82m5.289.68v-7h1.23l3.96 5.85V229h.94v7h-1.23l-3.96-5.85V236z"/><path stroke="#e5e5e5" stroke-width=".724" d="M228 252.638h160"/><path fill="#f6f6f6" d="M228 253h160v42H228z"/><path fill="#3a3a3a" d="M241.11 278v-7h1.23l3.96 5.85V271h.94v7h-1.23l-3.96-5.85V278zm8.35 0v-7h.94v7zm6.244-.68c.94 0 1.71-.46 2.18-1.14l.75.58c-.64.87-1.67 1.44-2.93 1.44-2.19 0-3.68-1.7-3.68-3.7s1.49-3.7 3.68-3.7c1.26 0 2.29.58 2.93 1.44l-.75.58a2.61 2.61 0 0 0-2.18-1.14c-1.58 0-2.71 1.26-2.71 2.82s1.13 2.82 2.71 2.82m4.488.68v-7h3.76v.8h-2.82v2.24h2.42v.79h-2.42v2.37h2.82v.8z"/><path stroke="#e5e5e5" stroke-width=".724" d="M228 294.638h160"/><path fill="#fff" d="M228 295h160v42H228z"/><path fill="#3a3a3a" d="M241.11 320v-7h1.2l2.14 3.53 2.14-3.53h1.2v7h-.94v-5.74l-2.04 3.34h-.72l-2.04-3.34V320zm11.967-7.2c2.18 0 3.67 1.7 3.67 3.7s-1.49 3.7-3.67 3.7c-2.19 0-3.68-1.7-3.68-3.7s1.49-3.7 3.68-3.7m0 6.52c1.57 0 2.7-1.26 2.7-2.82s-1.13-2.82-2.7-2.82c-1.58 0-2.71 1.26-2.71 2.82s1.13 2.82 2.71 2.82m5.289.68v-7h1.23l3.96 5.85V313h.94v7h-1.23l-3.96-5.85V320zm7.589-6.14V313h5.58v.86h-2.32V320h-.94v-6.14zm7.05 6.14v-7h2.05c1.4 0 2.27.77 2.27 1.97s-.87 1.96-2.27 1.96h-1.11V320zm2.07-6.2h-1.13v2.33h1.13c.8 0 1.28-.43 1.28-1.18 0-.71-.48-1.15-1.28-1.15m3.672 6.2v-7h3.76v.8h-2.82v2.24h2.42v.79h-2.42v2.37h2.82v.8zm5.634 0v-7h.94v6.14h2.82v.86zm5.235 0v-7h.94v6.14h2.82v.86zm5.234 0v-7h.94v7zm3.164 0v-7h3.76v.8h-2.82v2.24h2.42v.79h-2.42v2.37h2.82v.8zm5.635 0v-7h1.86c1.41 0 2.28.77 2.28 1.97 0 .84-.43 1.47-1.18 1.77l2.26 3.26h-1.11l-2.03-3.08c-.07.01-.15.01-.22.01h-.92V320zm1.9-6.2h-.96v2.33h.96c.8 0 1.27-.43 1.27-1.18 0-.71-.47-1.15-1.27-1.15"/><path fill="#fff" d="M388 1h160v42H388z"/><path fill="#3a3a3a" d="M400.152 18.907h1.53l2.098 5.543 2.097-5.543h1.531L404.722 26h-1.885zM408.979 20a.85.85 0 0 1-.841-.841c0-.456.385-.841.841-.841s.831.385.831.84a.843.843 0 0 1-.831.842M408.331 26v-5.107h1.287V26zm2.83 0v-7.6h1.287V26zm2.83 0v-7.6h1.287V26zm7.532-.83c-.476.637-1.266 1.033-2.229 1.033-1.814 0-2.837-1.267-2.837-2.757 0-1.51.952-2.756 2.624-2.756 1.419 0 2.351.963 2.351 2.3 0 .284-.04.548-.081.72h-3.577c.122.952.709 1.337 1.51 1.337.557 0 1.044-.243 1.317-.608zm-2.472-3.426c-.659 0-1.095.365-1.236 1.034h2.351c-.021-.517-.396-1.034-1.115-1.034"/><path stroke="#3a3a3a" stroke-width="1.448" d="M388 42.276h160"/><path fill="#fff" d="M388 43h160v42H388z"/><path fill="#3a3a3a" d="M401.11 68v-7h2.05c1.4 0 2.27.77 2.27 1.97s-.87 1.96-2.27 1.96h-1.11V68zm2.07-6.2h-1.13v2.33h1.13c.8 0 1.28-.43 1.28-1.18 0-.71-.48-1.15-1.28-1.15m2.1 6.2 2.79-7h1.26l2.79 7h-1l-.81-2.06h-3.22l-.81 2.06zm2.12-2.87h2.6l-1.3-3.31zm6.103 2.87v-7h1.86c1.41 0 2.28.77 2.28 1.97 0 .84-.43 1.47-1.18 1.77l2.26 3.26h-1.11l-2.03-3.08c-.07.01-.15.01-.22.01h-.92V68zm1.9-6.2h-.96v2.33h.96c.8 0 1.27-.43 1.27-1.18 0-.71-.47-1.15-1.27-1.15m4.506 6.2v-7h.94v7zm2.634-.96.7-.64c.48.62 1.04.95 1.69.95.78 0 1.23-.47 1.23-1.11 0-1.58-3.32-1.24-3.32-3.55 0-1.04.86-1.89 2.08-1.89.98 0 1.7.45 2.22 1.14l-.71.62c-.41-.59-.9-.92-1.5-.92-.69 0-1.13.43-1.13 1.03 0 1.57 3.31 1.21 3.31 3.54 0 1.21-.93 1.98-2.17 1.98-1.03 0-1.79-.39-2.4-1.15"/><path stroke="#e5e5e5" stroke-width=".724" d="M388 84.638h160"/><path fill="#f6f6f6" d="M388 85h160v42H388z"/><path fill="#3a3a3a" d="M401.11 110v-7h1.2l2.14 3.53 2.14-3.53h1.2v7h-.94v-5.74l-2.04 3.34h-.72l-2.04-3.34V110zm8.047 0 2.79-7h1.26l2.79 7h-1l-.81-2.06h-3.22l-.81 2.06zm2.12-2.87h2.6l-1.3-3.31zm6.103 2.87v-7h1.86c1.41 0 2.28.77 2.28 1.97 0 .84-.43 1.47-1.18 1.77l2.26 3.26h-1.11l-2.03-3.08c-.07.01-.15.01-.22.01h-.92V110zm1.9-6.2h-.96v2.33h.96c.8 0 1.27-.43 1.27-1.18 0-.71-.47-1.15-1.27-1.15m3.917 5.24.7-.64c.48.62 1.04.95 1.69.95.78 0 1.23-.47 1.23-1.11 0-1.58-3.32-1.24-3.32-3.55 0-1.04.86-1.89 2.08-1.89.98 0 1.7.45 2.22 1.14l-.71.62c-.41-.59-.9-.92-1.5-.92-.69 0-1.13.43-1.13 1.03 0 1.57 3.31 1.21 3.31 3.54 0 1.21-.93 1.98-2.17 1.98-1.03 0-1.79-.39-2.4-1.15m6.409.96v-7h3.76v.8h-2.82v2.24h2.42v.79h-2.42v2.37h2.82v.8zm5.635 0v-7h.94v7zm3.164 0v-7h.94v6.14h2.82v.86zm5.234 0v-7h.94v6.14h2.82v.86zm5.235 0v-7h3.76v.8h-2.82v2.24h2.42v.79h-2.42v2.37h2.82v.8z"/><path stroke="#e5e5e5" stroke-width=".724" d="M388 126.638h137"/><path fill="#fff" d="M388 127h160v42H388z"/><path fill="#3a3a3a" d="M401.11 152v-7h1.73c1.34 0 2.15.71 2.15 1.82 0 .63-.29 1.14-.84 1.44.82.29 1.26.93 1.26 1.73 0 1.23-.91 2.01-2.4 2.01zm1.74-6.2h-.8v2.11h.8c.74 0 1.17-.38 1.17-1.07 0-.66-.43-1.04-1.17-1.04m.2 2.91h-1v2.49h1c.87 0 1.39-.46 1.39-1.25s-.52-1.24-1.39-1.24m7.117-3.91c2.18 0 3.67 1.7 3.67 3.7s-1.49 3.7-3.67 3.7c-2.19 0-3.68-1.7-3.68-3.7s1.49-3.7 3.68-3.7m0 6.52c1.57 0 2.7-1.26 2.7-2.82s-1.13-2.82-2.7-2.82c-1.58 0-2.71 1.26-2.71 2.82s1.13 2.82 2.71 2.82m5.289.68v-7h1.86c1.41 0 2.28.77 2.28 1.97 0 .84-.43 1.47-1.18 1.77l2.26 3.26h-1.11l-2.03-3.08c-.07.01-.15.01-.22.01h-.92V152zm1.9-6.2h-.96v2.33h.96c.8 0 1.27-.43 1.27-1.18 0-.71-.47-1.15-1.27-1.15m4.506 6.2v-7h2.69c2.19 0 3.68 1.61 3.68 3.5s-1.49 3.5-3.68 3.5zm2.71-6.14h-1.77v5.28h1.77c1.56 0 2.69-1.18 2.69-2.64 0-1.47-1.13-2.64-2.69-2.64m5.288 6.14v-7h3.76v.8h-2.82v2.24h2.42v.79h-2.42v2.37h2.82v.8zm4.873 0 2.79-7h1.26l2.79 7h-1l-.81-2.06h-3.22l-.81 2.06zm2.12-2.87h2.6l-1.3-3.31zm10.197.29V145h.94v4.36c0 1.8-1.07 2.84-2.71 2.84s-2.72-1.04-2.72-2.84V145h.94v4.42c0 1.21.7 1.9 1.78 1.9 1.07 0 1.77-.69 1.77-1.9m3.179 2.58h-1.13l2.63-3.64-2.42-3.36h1.12l1.95 2.7 1.95-2.7h1.13l-2.43 3.36 2.63 3.64h-1.12l-2.16-2.98z"/><path stroke="#e5e5e5" stroke-width=".724" d="M388 168.638h160"/><path fill="#f6f6f6" d="M388 169h160v42H388z"/><path fill="#3a3a3a" d="M401.11 194v-7h.94v6.14h2.82v.86zm5.234 0v-7h.94v7zm3.164 0v-7h.94v6.14h2.82v.86zm5.235 0v-7h.94v6.14h2.82v.86zm5.234 0v-7h3.76v.8h-2.82v2.24h2.42v.79h-2.42v2.37h2.82v.8z"/><path stroke="#e5e5e5" stroke-width=".724" d="M388 210.638h160"/><path fill="#fff" d="M388 211h160v42H388z"/><path fill="#3a3a3a" d="M401.11 236v-7h.94v6.14h2.82v.86zm9.769-7-2.83 3.86V236h-.94v-3.14l-2.84-3.86h1.14l2.17 2.94 2.17-2.94zm3.848-.2c2.18 0 3.67 1.7 3.67 3.7s-1.49 3.7-3.67 3.7c-2.19 0-3.68-1.7-3.68-3.7s1.49-3.7 3.68-3.7m0 6.52c1.57 0 2.7-1.26 2.7-2.82s-1.13-2.82-2.7-2.82c-1.58 0-2.71 1.26-2.71 2.82s1.13 2.82 2.71 2.82m5.289.68v-7h1.23l3.96 5.85V229h.94v7h-1.23l-3.96-5.85V236z"/><path stroke="#e5e5e5" stroke-width=".724" d="M388 252.638h160"/><path fill="#f6f6f6" d="M388 253h160v42H388z"/><path fill="#3a3a3a" d="M401.11 278v-7h1.23l3.96 5.85V271h.94v7h-1.23l-3.96-5.85V278zm8.35 0v-7h.94v7zm6.244-.68c.94 0 1.71-.46 2.18-1.14l.75.58c-.64.87-1.67 1.44-2.93 1.44-2.19 0-3.68-1.7-3.68-3.7s1.49-3.7 3.68-3.7c1.26 0 2.29.58 2.93 1.44l-.75.58a2.61 2.61 0 0 0-2.18-1.14c-1.58 0-2.71 1.26-2.71 2.82s1.13 2.82 2.71 2.82m4.488.68v-7h3.76v.8h-2.82v2.24h2.42v.79h-2.42v2.37h2.82v.8z"/><path stroke="#e5e5e5" stroke-width=".724" d="M388 294.638h160"/><path fill="#fff" d="M388 295h160v42H388z"/><path fill="#3a3a3a" d="M401.11 320v-7h1.2l2.14 3.53 2.14-3.53h1.2v7h-.94v-5.74l-2.04 3.34h-.72l-2.04-3.34V320zm11.967-7.2c2.18 0 3.67 1.7 3.67 3.7s-1.49 3.7-3.67 3.7c-2.19 0-3.68-1.7-3.68-3.7s1.49-3.7 3.68-3.7m0 6.52c1.57 0 2.7-1.26 2.7-2.82s-1.13-2.82-2.7-2.82c-1.58 0-2.71 1.26-2.71 2.82s1.13 2.82 2.71 2.82m5.289.68v-7h1.23l3.96 5.85V313h.94v7h-1.23l-3.96-5.85V320zm7.589-6.14V313h5.58v.86h-2.32V320h-.94v-6.14zm7.05 6.14v-7h2.05c1.4 0 2.27.77 2.27 1.97s-.87 1.96-2.27 1.96h-1.11V320zm2.07-6.2h-1.13v2.33h1.13c.8 0 1.28-.43 1.28-1.18 0-.71-.48-1.15-1.28-1.15m3.672 6.2v-7h3.76v.8h-2.82v2.24h2.42v.79h-2.42v2.37h2.82v.8zm5.634 0v-7h.94v6.14h2.82v.86zm5.235 0v-7h.94v6.14h2.82v.86zm5.234 0v-7h.94v7zm3.164 0v-7h3.76v.8h-2.82v2.24h2.42v.79h-2.42v2.37h2.82v.8zm5.635 0v-7h1.86c1.41 0 2.28.77 2.28 1.97 0 .84-.43 1.47-1.18 1.77l2.26 3.26h-1.11l-2.03-3.08c-.07.01-.15.01-.22.01h-.92V320zm1.9-6.2h-.96v2.33h.96c.8 0 1.27-.43 1.27-1.18 0-.71-.47-1.15-1.27-1.15"/></g></g></g><defs><clipPath id="b"><path fill="#fff" d="M1 11C1 5.477 5.477 1 11 1h504c5.523 0 10 4.477 10 10v300c0 5.523-4.477 10-10 10H11c-5.523 0-10-4.477-10-10z"/></clipPath><clipPath id="c"><path fill="#fff" d="M1 1h524v336H1z"/></clipPath><filter id="a" width="526" height="322" x="0" y="0" color-interpolation-filters="sRGB" filterUnits="userSpaceOnUse"><feFlood flood-opacity="0" result="BackgroundImageFix"/><feColorMatrix in="SourceAlpha" result="hardAlpha" values="0 0 0 0 0 0 0 0 0 0 0 0 0 0 0 0 0 0 127 0"/><feMorphology in="SourceAlpha" operator="dilate" radius="1" result="effect1_dropShadow_2656_8779"/><feOffset/><feComposite in2="hardAlpha" operator="out"/><feColorMatrix values="0 0 0 0 0.149038 0 0 0 0 0.145083 0 0 0 0 0.11763 0 0 0 0.1 0"/><feBlend in2="BackgroundImageFix" result="effect1_dropShadow_2656_8779"/><feBlend in="SourceGraphic" in2="effect1_dropShadow_2656_8779" result="shape"/></filter></defs></svg>