<svg width="526" height="322" viewBox="0 0 526 322" fill="none" xmlns="http://www.w3.org/2000/svg">
<g filter="url(#filter0_d_2656_8779)">
<g clip-path="url(#clip0_2656_8779)">
<path d="M1 11C1 5.47715 5.47715 1 11 1H515C520.523 1 525 5.47715 525 11V311C525 316.523 520.523 321 515 321H11C5.47716 321 1 316.523 1 311V11Z" fill="#F6F6F6"/>
<g clip-path="url(#clip1_2656_8779)">
<rect width="110" height="42" transform="translate(1 1)" fill="white"/>
<path d="M13.152 26L15.8374 18.9065H17.7222L20.4076 26H18.8775L18.1985 24.1557H15.3611L14.6822 26H13.152ZM15.807 22.9295H17.7526L16.7798 20.2644L15.807 22.9295ZM21.6375 26V20.8927H22.9245V21.298C23.2791 20.9535 23.7554 20.69 24.4343 20.69C25.5389 20.69 26.4205 21.45 26.4205 22.9599V26H25.1234V23.0106C25.1234 22.3317 24.7384 21.9061 24.1101 21.9061C23.4615 21.9061 23.117 22.3418 22.9245 22.6661V26H21.6375ZM27.8819 26V20.8927H29.1688V21.298C29.5235 20.9535 29.9998 20.69 30.6787 20.69C31.7833 20.69 32.6649 21.45 32.6649 22.9599V26H31.3678V23.0106C31.3678 22.3317 30.9828 21.9061 30.3545 21.9061C29.7059 21.9061 29.3614 22.3418 29.1688 22.6661V26H27.8819ZM37.0954 20.082H35.8591L36.913 18.3998H38.3114L37.0954 20.082ZM38.8282 25.1691C38.352 25.8075 37.5616 26.2027 36.5989 26.2027C34.785 26.2027 33.7615 24.936 33.7615 23.4463C33.7615 21.9365 34.714 20.69 36.3861 20.69C37.8048 20.69 38.737 21.6527 38.737 22.9903C38.737 23.2741 38.6965 23.5376 38.656 23.7098H35.0788C35.2004 24.6624 35.7882 25.0474 36.5887 25.0474C37.1461 25.0474 37.6325 24.8042 37.9061 24.4394L38.8282 25.1691ZM36.3557 21.7439C35.697 21.7439 35.2612 22.1087 35.1194 22.7775H37.4703C37.4501 22.2607 37.0751 21.7439 36.3557 21.7439ZM44.657 25.1691C44.1807 25.8075 43.3903 26.2027 42.4276 26.2027C40.6137 26.2027 39.5902 24.936 39.5902 23.4463C39.5902 21.9365 40.5428 20.69 42.2148 20.69C43.6335 20.69 44.5658 21.6527 44.5658 22.9903C44.5658 23.2741 44.5253 23.5376 44.4847 23.7098H40.9076C41.0292 24.6624 41.6169 25.0474 42.4175 25.0474C42.9748 25.0474 43.4612 24.8042 43.7349 24.4394L44.657 25.1691ZM42.1844 21.7439C41.5257 21.7439 41.09 22.1087 40.9481 22.7775H43.2991C43.2788 22.2607 42.9039 21.7439 42.1844 21.7439Z" fill="#3A3A3A"/>
<path d="M93.4999 24.0858L96.1819 21.4038L96.889 22.1109L92.9999 26L89.1108 22.1109L89.8179 21.4038L92.4999 24.0858V18H93.4999V24.0858Z" fill="#000091"/>
<line x1="1" y1="42.2762" x2="111" y2="42.2762" stroke="#3A3A3A" stroke-width="1.44765"/>
<rect width="110" height="42" transform="translate(1 43)" fill="white"/>
<rect x="13" y="55" width="65" height="18" rx="4" fill="#E8EDFF"/>
<path d="M17.58 68V66.78L19.98 64.42C20.52 63.87 20.86 63.49 20.86 62.92C20.86 62.34 20.46 62 19.91 62C19.24 62 18.83 62.41 18.46 63.03L17.36 62.36C17.95 61.4 18.82 60.8 20.04 60.8C21.26 60.8 22.24 61.58 22.24 62.78C22.24 63.74 21.61 64.48 20.92 65.15L19.23 66.78H22.42V68H17.58ZM25.9961 60.8C27.8361 60.8 28.6961 62.4 28.6961 64.5C28.6961 66.6 27.8361 68.2 25.9961 68.2C24.1561 68.2 23.2961 66.6 23.2961 64.5C23.2961 62.4 24.1561 60.8 25.9961 60.8ZM25.9961 62.05C25.1061 62.05 24.6761 63.03 24.6761 64.5C24.6761 65.98 25.1061 66.95 25.9961 66.95C26.8761 66.95 27.3061 65.97 27.3061 64.5C27.3061 63.02 26.8761 62.05 25.9961 62.05ZM29.5527 68V66.78L31.9527 64.42C32.4927 63.87 32.8327 63.49 32.8327 62.92C32.8327 62.34 32.4327 62 31.8827 62C31.2127 62 30.8027 62.41 30.4327 63.03L29.3327 62.36C29.9227 61.4 30.7927 60.8 32.0127 60.8C33.2327 60.8 34.2127 61.58 34.2127 62.78C34.2127 63.74 33.5827 64.48 32.8927 65.15L31.2027 66.78H34.3927V68H29.5527ZM37.9688 60.8C39.8088 60.8 40.6688 62.4 40.6688 64.5C40.6688 66.6 39.8088 68.2 37.9688 68.2C36.1288 68.2 35.2688 66.6 35.2688 64.5C35.2688 62.4 36.1288 60.8 37.9688 60.8ZM37.9688 62.05C37.0788 62.05 36.6488 63.03 36.6488 64.5C36.6488 65.98 37.0788 66.95 37.9688 66.95C38.8488 66.95 39.2788 65.97 39.2788 64.5C39.2788 63.02 38.8488 62.05 37.9688 62.05ZM43.5091 64.9H48.4691V65.99H43.5091V64.9ZM51.5937 68V66.78L53.9937 64.42C54.5337 63.87 54.8737 63.49 54.8737 62.92C54.8737 62.34 54.4737 62 53.9237 62C53.2537 62 52.8437 62.41 52.4737 63.03L51.3737 62.36C51.9637 61.4 52.8337 60.8 54.0537 60.8C55.2737 60.8 56.2537 61.58 56.2537 62.78C56.2537 63.74 55.6237 64.48 54.9337 65.15L53.2437 66.78H56.4337V68H51.5937ZM60.0098 60.8C61.8498 60.8 62.7098 62.4 62.7098 64.5C62.7098 66.6 61.8498 68.2 60.0098 68.2C58.1698 68.2 57.3098 66.6 57.3098 64.5C57.3098 62.4 58.1698 60.8 60.0098 60.8ZM60.0098 62.05C59.1198 62.05 58.6898 63.03 58.6898 64.5C58.6898 65.98 59.1198 66.95 60.0098 66.95C60.8898 66.95 61.3198 65.97 61.3198 64.5C61.3198 63.02 60.8898 62.05 60.0098 62.05ZM63.5663 68V66.78L65.9663 64.42C66.5063 63.87 66.8463 63.49 66.8463 62.92C66.8463 62.34 66.4463 62 65.8963 62C65.2263 62 64.8163 62.41 64.4463 63.03L63.3463 62.36C63.9363 61.4 64.8063 60.8 66.0263 60.8C67.2463 60.8 68.2263 61.58 68.2263 62.78C68.2263 63.74 67.5963 64.48 66.9063 65.15L65.2163 66.78H68.4063V68H63.5663ZM70.9759 67.99V62.38L69.5259 63.2L68.8559 62.24L71.0159 60.99H72.3259V67.99H70.9759Z" fill="#0063CB"/>
<line x1="1" y1="84.6381" x2="111" y2="84.6381" stroke="#E5E5E5" stroke-width="0.723824"/>
<rect width="110" height="42" transform="translate(1 85)" fill="#F6F6F6"/>
<rect x="13" y="97" width="65" height="18" rx="4" fill="#E8EDFF"/>
<path d="M17.58 110V108.78L19.98 106.42C20.52 105.87 20.86 105.49 20.86 104.92C20.86 104.34 20.46 104 19.91 104C19.24 104 18.83 104.41 18.46 105.03L17.36 104.36C17.95 103.4 18.82 102.8 20.04 102.8C21.26 102.8 22.24 103.58 22.24 104.78C22.24 105.74 21.61 106.48 20.92 107.15L19.23 108.78H22.42V110H17.58ZM25.9961 102.8C27.8361 102.8 28.6961 104.4 28.6961 106.5C28.6961 108.6 27.8361 110.2 25.9961 110.2C24.1561 110.2 23.2961 108.6 23.2961 106.5C23.2961 104.4 24.1561 102.8 25.9961 102.8ZM25.9961 104.05C25.1061 104.05 24.6761 105.03 24.6761 106.5C24.6761 107.98 25.1061 108.95 25.9961 108.95C26.8761 108.95 27.3061 107.97 27.3061 106.5C27.3061 105.02 26.8761 104.05 25.9961 104.05ZM29.5527 110V108.78L31.9527 106.42C32.4927 105.87 32.8327 105.49 32.8327 104.92C32.8327 104.34 32.4327 104 31.8827 104C31.2127 104 30.8027 104.41 30.4327 105.03L29.3327 104.36C29.9227 103.4 30.7927 102.8 32.0127 102.8C33.2327 102.8 34.2127 103.58 34.2127 104.78C34.2127 105.74 33.5827 106.48 32.8927 107.15L31.2027 108.78H34.3927V110H29.5527ZM37.9688 102.8C39.8088 102.8 40.6688 104.4 40.6688 106.5C40.6688 108.6 39.8088 110.2 37.9688 110.2C36.1288 110.2 35.2688 108.6 35.2688 106.5C35.2688 104.4 36.1288 102.8 37.9688 102.8ZM37.9688 104.05C37.0788 104.05 36.6488 105.03 36.6488 106.5C36.6488 107.98 37.0788 108.95 37.9688 108.95C38.8488 108.95 39.2788 107.97 39.2788 106.5C39.2788 105.02 38.8488 104.05 37.9688 104.05ZM43.5091 106.9H48.4691V107.99H43.5091V106.9ZM51.5937 110V108.78L53.9937 106.42C54.5337 105.87 54.8737 105.49 54.8737 104.92C54.8737 104.34 54.4737 104 53.9237 104C53.2537 104 52.8437 104.41 52.4737 105.03L51.3737 104.36C51.9637 103.4 52.8337 102.8 54.0537 102.8C55.2737 102.8 56.2537 103.58 56.2537 104.78C56.2537 105.74 55.6237 106.48 54.9337 107.15L53.2437 108.78H56.4337V110H51.5937ZM60.0098 102.8C61.8498 102.8 62.7098 104.4 62.7098 106.5C62.7098 108.6 61.8498 110.2 60.0098 110.2C58.1698 110.2 57.3098 108.6 57.3098 106.5C57.3098 104.4 58.1698 102.8 60.0098 102.8ZM60.0098 104.05C59.1198 104.05 58.6898 105.03 58.6898 106.5C58.6898 107.98 59.1198 108.95 60.0098 108.95C60.8898 108.95 61.3198 107.97 61.3198 106.5C61.3198 105.02 60.8898 104.05 60.0098 104.05ZM63.5663 110V108.78L65.9663 106.42C66.5063 105.87 66.8463 105.49 66.8463 104.92C66.8463 104.34 66.4463 104 65.8963 104C65.2263 104 64.8163 104.41 64.4463 105.03L63.3463 104.36C63.9363 103.4 64.8063 102.8 66.0263 102.8C67.2463 102.8 68.2263 103.58 68.2263 104.78C68.2263 105.74 67.5963 106.48 66.9063 107.15L65.2163 108.78H68.4063V110H63.5663ZM70.9759 109.99V104.38L69.5259 105.2L68.8559 104.24L71.0159 102.99H72.3259V109.99H70.9759Z" fill="#0063CB"/>
<line x1="1" y1="126.638" x2="111" y2="126.638" stroke="#E5E5E5" stroke-width="0.723824"/>
<rect width="110" height="42" transform="translate(1 127)" fill="white"/>
<rect x="13" y="139" width="65" height="18" rx="4" fill="#E8EDFF"/>
<path d="M17.58 152V150.78L19.98 148.42C20.52 147.87 20.86 147.49 20.86 146.92C20.86 146.34 20.46 146 19.91 146C19.24 146 18.83 146.41 18.46 147.03L17.36 146.36C17.95 145.4 18.82 144.8 20.04 144.8C21.26 144.8 22.24 145.58 22.24 146.78C22.24 147.74 21.61 148.48 20.92 149.15L19.23 150.78H22.42V152H17.58ZM25.9961 144.8C27.8361 144.8 28.6961 146.4 28.6961 148.5C28.6961 150.6 27.8361 152.2 25.9961 152.2C24.1561 152.2 23.2961 150.6 23.2961 148.5C23.2961 146.4 24.1561 144.8 25.9961 144.8ZM25.9961 146.05C25.1061 146.05 24.6761 147.03 24.6761 148.5C24.6761 149.98 25.1061 150.95 25.9961 150.95C26.8761 150.95 27.3061 149.97 27.3061 148.5C27.3061 147.02 26.8761 146.05 25.9961 146.05ZM29.5527 152V150.78L31.9527 148.42C32.4927 147.87 32.8327 147.49 32.8327 146.92C32.8327 146.34 32.4327 146 31.8827 146C31.2127 146 30.8027 146.41 30.4327 147.03L29.3327 146.36C29.9227 145.4 30.7927 144.8 32.0127 144.8C33.2327 144.8 34.2127 145.58 34.2127 146.78C34.2127 147.74 33.5827 148.48 32.8927 149.15L31.2027 150.78H34.3927V152H29.5527ZM37.9688 144.8C39.8088 144.8 40.6688 146.4 40.6688 148.5C40.6688 150.6 39.8088 152.2 37.9688 152.2C36.1288 152.2 35.2688 150.6 35.2688 148.5C35.2688 146.4 36.1288 144.8 37.9688 144.8ZM37.9688 146.05C37.0788 146.05 36.6488 147.03 36.6488 148.5C36.6488 149.98 37.0788 150.95 37.9688 150.95C38.8488 150.95 39.2788 149.97 39.2788 148.5C39.2788 147.02 38.8488 146.05 37.9688 146.05ZM43.5091 148.9H48.4691V149.99H43.5091V148.9ZM51.5937 152V150.78L53.9937 148.42C54.5337 147.87 54.8737 147.49 54.8737 146.92C54.8737 146.34 54.4737 146 53.9237 146C53.2537 146 52.8437 146.41 52.4737 147.03L51.3737 146.36C51.9637 145.4 52.8337 144.8 54.0537 144.8C55.2737 144.8 56.2537 145.58 56.2537 146.78C56.2537 147.74 55.6237 148.48 54.9337 149.15L53.2437 150.78H56.4337V152H51.5937ZM60.0098 144.8C61.8498 144.8 62.7098 146.4 62.7098 148.5C62.7098 150.6 61.8498 152.2 60.0098 152.2C58.1698 152.2 57.3098 150.6 57.3098 148.5C57.3098 146.4 58.1698 144.8 60.0098 144.8ZM60.0098 146.05C59.1198 146.05 58.6898 147.03 58.6898 148.5C58.6898 149.98 59.1198 150.95 60.0098 150.95C60.8898 150.95 61.3198 149.97 61.3198 148.5C61.3198 147.02 60.8898 146.05 60.0098 146.05ZM63.5663 152V150.78L65.9663 148.42C66.5063 147.87 66.8463 147.49 66.8463 146.92C66.8463 146.34 66.4463 146 65.8963 146C65.2263 146 64.8163 146.41 64.4463 147.03L63.3463 146.36C63.9363 145.4 64.8063 144.8 66.0263 144.8C67.2463 144.8 68.2263 145.58 68.2263 146.78C68.2263 147.74 67.5963 148.48 66.9063 149.15L65.2163 150.78H68.4063V152H63.5663ZM70.9759 151.99V146.38L69.5259 147.2L68.8559 146.24L71.0159 144.99H72.3259V151.99H70.9759Z" fill="#0063CB"/>
<line x1="1" y1="168.638" x2="111" y2="168.638" stroke="#E5E5E5" stroke-width="0.723824"/>
<rect width="110" height="42" transform="translate(1 169)" fill="#F6F6F6"/>
<rect x="13" y="181" width="65" height="18" rx="4" fill="#E8EDFF"/>
<path d="M17.58 194V192.78L19.98 190.42C20.52 189.87 20.86 189.49 20.86 188.92C20.86 188.34 20.46 188 19.91 188C19.24 188 18.83 188.41 18.46 189.03L17.36 188.36C17.95 187.4 18.82 186.8 20.04 186.8C21.26 186.8 22.24 187.58 22.24 188.78C22.24 189.74 21.61 190.48 20.92 191.15L19.23 192.78H22.42V194H17.58ZM25.9961 186.8C27.8361 186.8 28.6961 188.4 28.6961 190.5C28.6961 192.6 27.8361 194.2 25.9961 194.2C24.1561 194.2 23.2961 192.6 23.2961 190.5C23.2961 188.4 24.1561 186.8 25.9961 186.8ZM25.9961 188.05C25.1061 188.05 24.6761 189.03 24.6761 190.5C24.6761 191.98 25.1061 192.95 25.9961 192.95C26.8761 192.95 27.3061 191.97 27.3061 190.5C27.3061 189.02 26.8761 188.05 25.9961 188.05ZM29.5527 194V192.78L31.9527 190.42C32.4927 189.87 32.8327 189.49 32.8327 188.92C32.8327 188.34 32.4327 188 31.8827 188C31.2127 188 30.8027 188.41 30.4327 189.03L29.3327 188.36C29.9227 187.4 30.7927 186.8 32.0127 186.8C33.2327 186.8 34.2127 187.58 34.2127 188.78C34.2127 189.74 33.5827 190.48 32.8927 191.15L31.2027 192.78H34.3927V194H29.5527ZM37.9688 186.8C39.8088 186.8 40.6688 188.4 40.6688 190.5C40.6688 192.6 39.8088 194.2 37.9688 194.2C36.1288 194.2 35.2688 192.6 35.2688 190.5C35.2688 188.4 36.1288 186.8 37.9688 186.8ZM37.9688 188.05C37.0788 188.05 36.6488 189.03 36.6488 190.5C36.6488 191.98 37.0788 192.95 37.9688 192.95C38.8488 192.95 39.2788 191.97 39.2788 190.5C39.2788 189.02 38.8488 188.05 37.9688 188.05ZM43.5091 190.9H48.4691V191.99H43.5091V190.9ZM51.5937 194V192.78L53.9937 190.42C54.5337 189.87 54.8737 189.49 54.8737 188.92C54.8737 188.34 54.4737 188 53.9237 188C53.2537 188 52.8437 188.41 52.4737 189.03L51.3737 188.36C51.9637 187.4 52.8337 186.8 54.0537 186.8C55.2737 186.8 56.2537 187.58 56.2537 188.78C56.2537 189.74 55.6237 190.48 54.9337 191.15L53.2437 192.78H56.4337V194H51.5937ZM60.0098 186.8C61.8498 186.8 62.7098 188.4 62.7098 190.5C62.7098 192.6 61.8498 194.2 60.0098 194.2C58.1698 194.2 57.3098 192.6 57.3098 190.5C57.3098 188.4 58.1698 186.8 60.0098 186.8ZM60.0098 188.05C59.1198 188.05 58.6898 189.03 58.6898 190.5C58.6898 191.98 59.1198 192.95 60.0098 192.95C60.8898 192.95 61.3198 191.97 61.3198 190.5C61.3198 189.02 60.8898 188.05 60.0098 188.05ZM63.5663 194V192.78L65.9663 190.42C66.5063 189.87 66.8463 189.49 66.8463 188.92C66.8463 188.34 66.4463 188 65.8963 188C65.2263 188 64.8163 188.41 64.4463 189.03L63.3463 188.36C63.9363 187.4 64.8063 186.8 66.0263 186.8C67.2463 186.8 68.2263 187.58 68.2263 188.78C68.2263 189.74 67.5963 190.48 66.9063 191.15L65.2163 192.78H68.4063V194H63.5663ZM70.9759 193.99V188.38L69.5259 189.2L68.8559 188.24L71.0159 186.99H72.3259V193.99H70.9759Z" fill="#0063CB"/>
<line x1="1" y1="210.638" x2="111" y2="210.638" stroke="#E5E5E5" stroke-width="0.723824"/>
<rect width="110" height="42" transform="translate(1 211)" fill="white"/>
<rect x="13" y="223" width="65" height="18" rx="4" fill="#E8EDFF"/>
<path d="M17.58 236V234.78L19.98 232.42C20.52 231.87 20.86 231.49 20.86 230.92C20.86 230.34 20.46 230 19.91 230C19.24 230 18.83 230.41 18.46 231.03L17.36 230.36C17.95 229.4 18.82 228.8 20.04 228.8C21.26 228.8 22.24 229.58 22.24 230.78C22.24 231.74 21.61 232.48 20.92 233.15L19.23 234.78H22.42V236H17.58ZM25.9961 228.8C27.8361 228.8 28.6961 230.4 28.6961 232.5C28.6961 234.6 27.8361 236.2 25.9961 236.2C24.1561 236.2 23.2961 234.6 23.2961 232.5C23.2961 230.4 24.1561 228.8 25.9961 228.8ZM25.9961 230.05C25.1061 230.05 24.6761 231.03 24.6761 232.5C24.6761 233.98 25.1061 234.95 25.9961 234.95C26.8761 234.95 27.3061 233.97 27.3061 232.5C27.3061 231.02 26.8761 230.05 25.9961 230.05ZM29.5527 236V234.78L31.9527 232.42C32.4927 231.87 32.8327 231.49 32.8327 230.92C32.8327 230.34 32.4327 230 31.8827 230C31.2127 230 30.8027 230.41 30.4327 231.03L29.3327 230.36C29.9227 229.4 30.7927 228.8 32.0127 228.8C33.2327 228.8 34.2127 229.58 34.2127 230.78C34.2127 231.74 33.5827 232.48 32.8927 233.15L31.2027 234.78H34.3927V236H29.5527ZM37.9688 228.8C39.8088 228.8 40.6688 230.4 40.6688 232.5C40.6688 234.6 39.8088 236.2 37.9688 236.2C36.1288 236.2 35.2688 234.6 35.2688 232.5C35.2688 230.4 36.1288 228.8 37.9688 228.8ZM37.9688 230.05C37.0788 230.05 36.6488 231.03 36.6488 232.5C36.6488 233.98 37.0788 234.95 37.9688 234.95C38.8488 234.95 39.2788 233.97 39.2788 232.5C39.2788 231.02 38.8488 230.05 37.9688 230.05ZM43.5091 232.9H48.4691V233.99H43.5091V232.9ZM51.5937 236V234.78L53.9937 232.42C54.5337 231.87 54.8737 231.49 54.8737 230.92C54.8737 230.34 54.4737 230 53.9237 230C53.2537 230 52.8437 230.41 52.4737 231.03L51.3737 230.36C51.9637 229.4 52.8337 228.8 54.0537 228.8C55.2737 228.8 56.2537 229.58 56.2537 230.78C56.2537 231.74 55.6237 232.48 54.9337 233.15L53.2437 234.78H56.4337V236H51.5937ZM60.0098 228.8C61.8498 228.8 62.7098 230.4 62.7098 232.5C62.7098 234.6 61.8498 236.2 60.0098 236.2C58.1698 236.2 57.3098 234.6 57.3098 232.5C57.3098 230.4 58.1698 228.8 60.0098 228.8ZM60.0098 230.05C59.1198 230.05 58.6898 231.03 58.6898 232.5C58.6898 233.98 59.1198 234.95 60.0098 234.95C60.8898 234.95 61.3198 233.97 61.3198 232.5C61.3198 231.02 60.8898 230.05 60.0098 230.05ZM63.5663 236V234.78L65.9663 232.42C66.5063 231.87 66.8463 231.49 66.8463 230.92C66.8463 230.34 66.4463 230 65.8963 230C65.2263 230 64.8163 230.41 64.4463 231.03L63.3463 230.36C63.9363 229.4 64.8063 228.8 66.0263 228.8C67.2463 228.8 68.2263 229.58 68.2263 230.78C68.2263 231.74 67.5963 232.48 66.9063 233.15L65.2163 234.78H68.4063V236H63.5663ZM70.9759 235.99V230.38L69.5259 231.2L68.8559 230.24L71.0159 228.99H72.3259V235.99H70.9759Z" fill="#0063CB"/>
<line x1="1" y1="252.638" x2="111" y2="252.638" stroke="#E5E5E5" stroke-width="0.723824"/>
<rect width="110" height="42" transform="translate(1 253)" fill="#F6F6F6"/>
<rect x="13" y="265" width="65" height="18" rx="4" fill="#E8EDFF"/>
<path d="M17.58 278V276.78L19.98 274.42C20.52 273.87 20.86 273.49 20.86 272.92C20.86 272.34 20.46 272 19.91 272C19.24 272 18.83 272.41 18.46 273.03L17.36 272.36C17.95 271.4 18.82 270.8 20.04 270.8C21.26 270.8 22.24 271.58 22.24 272.78C22.24 273.74 21.61 274.48 20.92 275.15L19.23 276.78H22.42V278H17.58ZM25.9961 270.8C27.8361 270.8 28.6961 272.4 28.6961 274.5C28.6961 276.6 27.8361 278.2 25.9961 278.2C24.1561 278.2 23.2961 276.6 23.2961 274.5C23.2961 272.4 24.1561 270.8 25.9961 270.8ZM25.9961 272.05C25.1061 272.05 24.6761 273.03 24.6761 274.5C24.6761 275.98 25.1061 276.95 25.9961 276.95C26.8761 276.95 27.3061 275.97 27.3061 274.5C27.3061 273.02 26.8761 272.05 25.9961 272.05ZM29.5527 278V276.78L31.9527 274.42C32.4927 273.87 32.8327 273.49 32.8327 272.92C32.8327 272.34 32.4327 272 31.8827 272C31.2127 272 30.8027 272.41 30.4327 273.03L29.3327 272.36C29.9227 271.4 30.7927 270.8 32.0127 270.8C33.2327 270.8 34.2127 271.58 34.2127 272.78C34.2127 273.74 33.5827 274.48 32.8927 275.15L31.2027 276.78H34.3927V278H29.5527ZM37.9688 270.8C39.8088 270.8 40.6688 272.4 40.6688 274.5C40.6688 276.6 39.8088 278.2 37.9688 278.2C36.1288 278.2 35.2688 276.6 35.2688 274.5C35.2688 272.4 36.1288 270.8 37.9688 270.8ZM37.9688 272.05C37.0788 272.05 36.6488 273.03 36.6488 274.5C36.6488 275.98 37.0788 276.95 37.9688 276.95C38.8488 276.95 39.2788 275.97 39.2788 274.5C39.2788 273.02 38.8488 272.05 37.9688 272.05ZM43.5091 274.9H48.4691V275.99H43.5091V274.9ZM51.5937 278V276.78L53.9937 274.42C54.5337 273.87 54.8737 273.49 54.8737 272.92C54.8737 272.34 54.4737 272 53.9237 272C53.2537 272 52.8437 272.41 52.4737 273.03L51.3737 272.36C51.9637 271.4 52.8337 270.8 54.0537 270.8C55.2737 270.8 56.2537 271.58 56.2537 272.78C56.2537 273.74 55.6237 274.48 54.9337 275.15L53.2437 276.78H56.4337V278H51.5937ZM60.0098 270.8C61.8498 270.8 62.7098 272.4 62.7098 274.5C62.7098 276.6 61.8498 278.2 60.0098 278.2C58.1698 278.2 57.3098 276.6 57.3098 274.5C57.3098 272.4 58.1698 270.8 60.0098 270.8ZM60.0098 272.05C59.1198 272.05 58.6898 273.03 58.6898 274.5C58.6898 275.98 59.1198 276.95 60.0098 276.95C60.8898 276.95 61.3198 275.97 61.3198 274.5C61.3198 273.02 60.8898 272.05 60.0098 272.05ZM63.5663 278V276.78L65.9663 274.42C66.5063 273.87 66.8463 273.49 66.8463 272.92C66.8463 272.34 66.4463 272 65.8963 272C65.2263 272 64.8163 272.41 64.4463 273.03L63.3463 272.36C63.9363 271.4 64.8063 270.8 66.0263 270.8C67.2463 270.8 68.2263 271.58 68.2263 272.78C68.2263 273.74 67.5963 274.48 66.9063 275.15L65.2163 276.78H68.4063V278H63.5663ZM70.9759 277.99V272.38L69.5259 273.2L68.8559 272.24L71.0159 270.99H72.3259V277.99H70.9759Z" fill="#0063CB"/>
<line x1="1" y1="294.638" x2="111" y2="294.638" stroke="#E5E5E5" stroke-width="0.723824"/>
<rect width="110" height="42" transform="translate(1 295)" fill="white"/>
<rect x="13" y="307" width="65" height="18" rx="4" fill="#E8EDFF"/>
<path d="M17.58 320V318.78L19.98 316.42C20.52 315.87 20.86 315.49 20.86 314.92C20.86 314.34 20.46 314 19.91 314C19.24 314 18.83 314.41 18.46 315.03L17.36 314.36C17.95 313.4 18.82 312.8 20.04 312.8C21.26 312.8 22.24 313.58 22.24 314.78C22.24 315.74 21.61 316.48 20.92 317.15L19.23 318.78H22.42V320H17.58ZM25.9961 312.8C27.8361 312.8 28.6961 314.4 28.6961 316.5C28.6961 318.6 27.8361 320.2 25.9961 320.2C24.1561 320.2 23.2961 318.6 23.2961 316.5C23.2961 314.4 24.1561 312.8 25.9961 312.8ZM25.9961 314.05C25.1061 314.05 24.6761 315.03 24.6761 316.5C24.6761 317.98 25.1061 318.95 25.9961 318.95C26.8761 318.95 27.3061 317.97 27.3061 316.5C27.3061 315.02 26.8761 314.05 25.9961 314.05ZM29.5527 320V318.78L31.9527 316.42C32.4927 315.87 32.8327 315.49 32.8327 314.92C32.8327 314.34 32.4327 314 31.8827 314C31.2127 314 30.8027 314.41 30.4327 315.03L29.3327 314.36C29.9227 313.4 30.7927 312.8 32.0127 312.8C33.2327 312.8 34.2127 313.58 34.2127 314.78C34.2127 315.74 33.5827 316.48 32.8927 317.15L31.2027 318.78H34.3927V320H29.5527ZM37.9688 312.8C39.8088 312.8 40.6688 314.4 40.6688 316.5C40.6688 318.6 39.8088 320.2 37.9688 320.2C36.1288 320.2 35.2688 318.6 35.2688 316.5C35.2688 314.4 36.1288 312.8 37.9688 312.8ZM37.9688 314.05C37.0788 314.05 36.6488 315.03 36.6488 316.5C36.6488 317.98 37.0788 318.95 37.9688 318.95C38.8488 318.95 39.2788 317.97 39.2788 316.5C39.2788 315.02 38.8488 314.05 37.9688 314.05ZM43.5091 316.9H48.4691V317.99H43.5091V316.9ZM51.5937 320V318.78L53.9937 316.42C54.5337 315.87 54.8737 315.49 54.8737 314.92C54.8737 314.34 54.4737 314 53.9237 314C53.2537 314 52.8437 314.41 52.4737 315.03L51.3737 314.36C51.9637 313.4 52.8337 312.8 54.0537 312.8C55.2737 312.8 56.2537 313.58 56.2537 314.78C56.2537 315.74 55.6237 316.48 54.9337 317.15L53.2437 318.78H56.4337V320H51.5937ZM60.0098 312.8C61.8498 312.8 62.7098 314.4 62.7098 316.5C62.7098 318.6 61.8498 320.2 60.0098 320.2C58.1698 320.2 57.3098 318.6 57.3098 316.5C57.3098 314.4 58.1698 312.8 60.0098 312.8ZM60.0098 314.05C59.1198 314.05 58.6898 315.03 58.6898 316.5C58.6898 317.98 59.1198 318.95 60.0098 318.95C60.8898 318.95 61.3198 317.97 61.3198 316.5C61.3198 315.02 60.8898 314.05 60.0098 314.05ZM63.5663 320V318.78L65.9663 316.42C66.5063 315.87 66.8463 315.49 66.8463 314.92C66.8463 314.34 66.4463 314 65.8963 314C65.2263 314 64.8163 314.41 64.4463 315.03L63.3463 314.36C63.9363 313.4 64.8063 312.8 66.0263 312.8C67.2463 312.8 68.2263 313.58 68.2263 314.78C68.2263 315.74 67.5963 316.48 66.9063 317.15L65.2163 318.78H68.4063V320H63.5663ZM70.9759 319.99V314.38L69.5259 315.2L68.8559 314.24L71.0159 312.99H72.3259V319.99H70.9759Z" fill="#0063CB"/>
<rect width="117" height="42" transform="translate(111 1)" fill="white"/>
<path d="M124.044 26V18.9065H126.83C129.08 18.9065 130.6 20.538 130.6 22.4533C130.6 24.3685 129.08 26 126.83 26H124.044ZM126.851 20.2138H125.483V24.6928H126.851C128.168 24.6928 129.121 23.7098 129.121 22.4533C129.121 21.1866 128.168 20.2138 126.851 20.2138ZM136.547 25.1691C136.071 25.8075 135.281 26.2027 134.318 26.2027C132.504 26.2027 131.481 24.936 131.481 23.4463C131.481 21.9365 132.433 20.69 134.105 20.69C135.524 20.69 136.456 21.6527 136.456 22.9903C136.456 23.2741 136.416 23.5376 136.375 23.7098H132.798C132.919 24.6624 133.507 25.0474 134.308 25.0474C134.865 25.0474 135.352 24.8042 135.625 24.4394L136.547 25.1691ZM134.075 21.7439C133.416 21.7439 132.98 22.1087 132.838 22.7775H135.189C135.169 22.2607 134.794 21.7439 134.075 21.7439ZM137.714 28.4928V20.8927H139.001V21.3082C139.396 20.913 139.892 20.69 140.592 20.69C142.213 20.69 143.186 21.9567 143.186 23.4463C143.186 24.936 142.213 26.2027 140.592 26.2027C139.892 26.2027 139.396 25.9797 139.001 25.5845V28.4928H137.714ZM140.409 21.9061C139.811 21.9061 139.325 22.1695 139.001 22.6458V24.2469C139.345 24.7333 139.821 24.9866 140.409 24.9866C141.281 24.9866 141.848 24.3381 141.848 23.4463C141.848 22.5546 141.281 21.9061 140.409 21.9061ZM144.629 24.1354V22.0479H143.676V20.8927H144.629V19.6159H145.926V20.8927H147.486V22.0479H145.926V24.1354C145.926 24.7029 146.23 24.9258 146.736 24.9258C147.091 24.9258 147.324 24.8853 147.496 24.8144V25.9392C147.243 26.0507 146.939 26.1013 146.514 26.1013C145.237 26.1013 144.629 25.3819 144.629 24.1354ZM149.504 26.1216C149.008 26.1216 148.612 25.7264 148.612 25.24C148.612 24.7637 149.008 24.3584 149.504 24.3584C149.98 24.3584 150.396 24.7637 150.396 25.24C150.396 25.7264 149.98 26.1216 149.504 26.1216Z" fill="#3A3A3A"/>
<path d="M213.5 21.5H206.5V22.5H213.5V21.5Z" fill="#CECECE"/>
<line x1="111" y1="42.2762" x2="228" y2="42.2762" stroke="#3A3A3A" stroke-width="1.44765"/>
<rect width="117" height="42" transform="translate(111 43)" fill="white"/>
<path d="M124.92 68H123.88L127.58 61.81H123.68V61H128.54V61.81L124.92 68ZM129.831 64.68L130.041 61H133.891V61.81H130.901L130.781 63.86H131.791C133.441 63.86 134.221 64.76 134.221 66C134.221 67.34 133.181 68.2 131.781 68.2C130.581 68.2 129.771 67.71 129.211 66.78L130.001 66.29C130.431 67.07 131.011 67.39 131.771 67.39C132.651 67.39 133.301 66.88 133.301 66.03C133.301 65.22 132.731 64.68 131.751 64.68H129.831Z" fill="#3A3A3A"/>
<line x1="111" y1="84.6381" x2="228" y2="84.6381" stroke="#E5E5E5" stroke-width="0.723824"/>
<rect width="117" height="42" transform="translate(111 85)" fill="#F6F6F6"/>
<path d="M125.37 110V103.91L123.52 104.91L123.06 104.27L125.36 103H126.26V110H125.37ZM132.844 108.07C132.844 109.34 131.814 110.2 130.404 110.2C129.194 110.2 128.394 109.71 127.834 108.78L128.624 108.29C129.054 109.06 129.614 109.39 130.394 109.39C131.264 109.39 131.914 108.88 131.914 108.03C131.914 107.24 131.354 106.69 130.434 106.69H129.244V105.88H130.294C131.094 105.88 131.604 105.4 131.604 104.72C131.604 104.01 131.074 103.61 130.354 103.61C129.724 103.61 129.234 103.93 128.904 104.54L128.154 104.08C128.654 103.26 129.394 102.8 130.414 102.8C131.624 102.8 132.524 103.53 132.524 104.64C132.524 105.32 132.204 105.9 131.604 106.23C132.414 106.56 132.844 107.26 132.844 108.07Z" fill="#3A3A3A"/>
<line x1="111" y1="126.638" x2="228" y2="126.638" stroke="#E5E5E5" stroke-width="0.723824"/>
<rect width="117" height="42" transform="translate(111 127)" fill="white"/>
<path d="M128.42 150.07C128.42 151.34 127.39 152.2 125.98 152.2C124.77 152.2 123.97 151.71 123.41 150.78L124.2 150.29C124.63 151.06 125.19 151.39 125.97 151.39C126.84 151.39 127.49 150.88 127.49 150.03C127.49 149.24 126.93 148.69 126.01 148.69H124.82V147.88H125.87C126.67 147.88 127.18 147.4 127.18 146.72C127.18 146.01 126.65 145.61 125.93 145.61C125.3 145.61 124.81 145.93 124.48 146.54L123.73 146.08C124.23 145.26 124.97 144.8 125.99 144.8C127.2 144.8 128.1 145.53 128.1 146.64C128.1 147.32 127.78 147.9 127.18 148.23C127.99 148.56 128.42 149.26 128.42 150.07ZM134.358 150.07C134.358 151.34 133.328 152.2 131.918 152.2C130.708 152.2 129.908 151.71 129.348 150.78L130.138 150.29C130.568 151.06 131.128 151.39 131.908 151.39C132.778 151.39 133.428 150.88 133.428 150.03C133.428 149.24 132.868 148.69 131.948 148.69H130.758V147.88H131.808C132.608 147.88 133.118 147.4 133.118 146.72C133.118 146.01 132.588 145.61 131.868 145.61C131.238 145.61 130.748 145.93 130.418 146.54L129.668 146.08C130.168 145.26 130.908 144.8 131.928 144.8C133.138 144.8 134.038 145.53 134.038 146.64C134.038 147.32 133.718 147.9 133.118 148.23C133.928 148.56 134.358 149.26 134.358 150.07Z" fill="#3A3A3A"/>
<line x1="111" y1="168.638" x2="228" y2="168.638" stroke="#E5E5E5" stroke-width="0.723824"/>
<rect width="117" height="42" transform="translate(111 169)" fill="#F6F6F6"/>
<path d="M124.03 190.68L124.24 187H128.09V187.81H125.1L124.98 189.86H125.99C127.64 189.86 128.42 190.76 128.42 192C128.42 193.34 127.38 194.2 125.98 194.2C124.78 194.2 123.97 193.71 123.41 192.78L124.2 192.29C124.63 193.07 125.21 193.39 125.97 193.39C126.85 193.39 127.5 192.88 127.5 192.03C127.5 191.22 126.93 190.68 125.95 190.68H124.03ZM131.646 194.2C130.566 194.2 129.876 193.72 129.396 193.01L130.116 192.46C130.516 193.07 130.996 193.38 131.646 193.38C132.926 193.38 133.566 192.32 133.606 190.58C133.106 191.09 132.446 191.37 131.666 191.37C130.356 191.37 129.456 190.38 129.456 189.15C129.456 187.88 130.346 186.8 131.866 186.8C133.506 186.8 134.536 187.96 134.536 190.39C134.536 192.66 133.636 194.2 131.646 194.2ZM130.386 189.12C130.386 189.93 130.986 190.56 131.806 190.56C132.516 190.56 133.156 190.26 133.566 189.65C133.416 188.18 132.756 187.62 131.876 187.62C130.946 187.62 130.386 188.28 130.386 189.12Z" fill="#3A3A3A"/>
<line x1="111" y1="210.638" x2="228" y2="210.638" stroke="#E5E5E5" stroke-width="0.723824"/>
<rect width="117" height="42" transform="translate(111 211)" fill="white"/>
<path d="M126.33 228.8C127.41 228.8 128.09 229.28 128.58 229.99L127.87 230.54C127.46 229.93 126.98 229.62 126.34 229.62C125.06 229.62 124.43 230.68 124.38 232.41C124.88 231.91 125.54 231.63 126.31 231.63C127.63 231.63 128.53 232.62 128.53 233.85C128.53 235.12 127.63 236.2 126.12 236.2C124.48 236.2 123.45 235.04 123.45 232.61C123.45 230.34 124.34 228.8 126.33 228.8ZM126.17 232.44C125.47 232.44 124.84 232.74 124.42 233.34C124.57 234.82 125.21 235.38 126.1 235.38C127.04 235.38 127.59 234.72 127.59 233.88C127.59 233.07 126.99 232.44 126.17 232.44ZM131.627 236.2C130.547 236.2 129.857 235.72 129.377 235.01L130.097 234.46C130.497 235.07 130.977 235.38 131.627 235.38C132.907 235.38 133.547 234.32 133.587 232.58C133.087 233.09 132.427 233.37 131.647 233.37C130.337 233.37 129.437 232.38 129.437 231.15C129.437 229.88 130.327 228.8 131.847 228.8C133.487 228.8 134.517 229.96 134.517 232.39C134.517 234.66 133.617 236.2 131.627 236.2ZM130.367 231.12C130.367 231.93 130.967 232.56 131.787 232.56C132.497 232.56 133.137 232.26 133.547 231.65C133.397 230.18 132.737 229.62 131.857 229.62C130.927 229.62 130.367 230.28 130.367 231.12Z" fill="#3A3A3A"/>
<line x1="111" y1="252.638" x2="228" y2="252.638" stroke="#E5E5E5" stroke-width="0.723824"/>
<rect width="117" height="42" transform="translate(111 253)" fill="#F6F6F6"/>
<path d="M125.99 270.8C127.75 270.8 128.61 272.42 128.61 274.5C128.61 276.58 127.75 278.2 125.99 278.2C124.25 278.2 123.38 276.58 123.38 274.5C123.38 272.42 124.25 270.8 125.99 270.8ZM126 271.64C124.88 271.64 124.3 272.86 124.3 274.5C124.3 276.14 124.88 277.36 126 277.36C127.11 277.36 127.68 276.14 127.68 274.5C127.68 272.86 127.11 271.64 126 271.64ZM132.394 270.8C133.474 270.8 134.154 271.28 134.644 271.99L133.934 272.54C133.524 271.93 133.044 271.62 132.404 271.62C131.124 271.62 130.494 272.68 130.444 274.41C130.944 273.91 131.604 273.63 132.374 273.63C133.694 273.63 134.594 274.62 134.594 275.85C134.594 277.12 133.694 278.2 132.184 278.2C130.544 278.2 129.514 277.04 129.514 274.61C129.514 272.34 130.404 270.8 132.394 270.8ZM132.234 274.44C131.534 274.44 130.904 274.74 130.484 275.34C130.634 276.82 131.274 277.38 132.164 277.38C133.104 277.38 133.654 276.72 133.654 275.88C133.654 275.07 133.054 274.44 132.234 274.44Z" fill="#3A3A3A"/>
<line x1="111" y1="294.638" x2="228" y2="294.638" stroke="#E5E5E5" stroke-width="0.723824"/>
<rect width="117" height="42" transform="translate(111 295)" fill="white"/>
<path d="M128.42 318.07C128.42 319.34 127.39 320.2 125.98 320.2C124.77 320.2 123.97 319.71 123.41 318.78L124.2 318.29C124.63 319.06 125.19 319.39 125.97 319.39C126.84 319.39 127.49 318.88 127.49 318.03C127.49 317.24 126.93 316.69 126.01 316.69H124.82V315.88H125.87C126.67 315.88 127.18 315.4 127.18 314.72C127.18 314.01 126.65 313.61 125.93 313.61C125.3 313.61 124.81 313.93 124.48 314.54L123.73 314.08C124.23 313.26 124.97 312.8 125.99 312.8C127.2 312.8 128.1 313.53 128.1 314.64C128.1 315.32 127.78 315.9 127.18 316.23C127.99 316.56 128.42 317.26 128.42 318.07ZM129.23 317.98V317.17L132.52 313H133.61V317.17H134.42V317.98H133.61V320H132.71V317.98H129.23ZM130.19 317.17H132.71V313.98L130.19 317.17Z" fill="#3A3A3A"/>
<rect width="160" height="42" transform="translate(228 1)" fill="white"/>
<path d="M240.152 26L242.837 18.9065H244.722L247.408 26H245.877L245.199 24.1557H242.361L241.682 26H240.152ZM242.807 22.9295H244.753L243.78 20.2644L242.807 22.9295ZM250.882 24.9866C251.389 24.9866 251.794 24.7536 252.037 24.3989L253.04 25.1691C252.564 25.7973 251.814 26.2027 250.882 26.2027C249.119 26.2027 248.065 24.936 248.065 23.4463C248.065 21.9567 249.119 20.69 250.882 20.69C251.814 20.69 252.564 21.0954 253.04 21.7236L252.037 22.4938C251.794 22.1391 251.389 21.9061 250.862 21.9061C250.021 21.9061 249.402 22.5546 249.402 23.4463C249.402 24.3482 250.021 24.9866 250.882 24.9866ZM255.351 26.152C254.328 26.152 253.628 25.5643 253.628 24.6218C253.628 23.8517 254.226 23.2741 255.321 23.0917L256.881 22.8282V22.6965C256.881 22.1594 256.476 21.8148 255.888 21.8148C255.392 21.8148 255.006 22.0479 254.733 22.4229L253.79 21.7034C254.246 21.0751 254.996 20.69 255.929 20.69C257.408 20.69 258.168 21.5716 258.168 22.6965V26H256.881V25.5035C256.557 25.8987 255.949 26.152 255.351 26.152ZM254.905 24.561C254.905 24.9056 255.179 25.1285 255.615 25.1285C256.202 25.1285 256.628 24.8549 256.881 24.4496V23.7301L255.665 23.9328C255.128 24.024 254.905 24.2469 254.905 24.561ZM259.277 23.4463C259.277 21.9567 260.26 20.69 261.871 20.69C262.56 20.69 263.057 20.9028 263.452 21.298V18.3998H264.749V26H263.452V25.5947C263.057 25.9899 262.56 26.2027 261.871 26.2027C260.26 26.2027 259.277 24.936 259.277 23.4463ZM260.625 23.4463C260.625 24.3381 261.182 24.9866 262.054 24.9866C262.631 24.9866 263.108 24.7434 263.452 24.2773V22.6154C263.108 22.1493 262.631 21.9061 262.054 21.9061C261.182 21.9061 260.625 22.5546 260.625 23.4463ZM269.261 20.082H268.025L269.079 18.3998H270.477L269.261 20.082ZM270.994 25.1691C270.518 25.8075 269.727 26.2027 268.765 26.2027C266.951 26.2027 265.927 24.936 265.927 23.4463C265.927 21.9365 266.88 20.69 268.552 20.69C269.97 20.69 270.903 21.6527 270.903 22.9903C270.903 23.2741 270.862 23.5376 270.822 23.7098H267.245C267.366 24.6624 267.954 25.0474 268.754 25.0474C269.312 25.0474 269.798 24.8042 270.072 24.4394L270.994 25.1691ZM268.521 21.7439C267.863 21.7439 267.427 22.1087 267.285 22.7775H269.636C269.616 22.2607 269.241 21.7439 268.521 21.7439ZM272.16 26V20.8927H273.447V21.2778C273.792 20.9434 274.228 20.69 274.856 20.69C275.504 20.69 276.072 20.9738 276.406 21.521C276.771 21.0751 277.258 20.69 278.119 20.69C279.173 20.69 280.004 21.4196 280.004 22.8586V26H278.707V22.9093C278.707 22.2911 278.372 21.9061 277.795 21.9061C277.237 21.9061 276.933 22.2911 276.731 22.6357C276.741 22.7066 276.741 22.7775 276.741 22.8586V26H275.444V22.9093C275.444 22.2911 275.109 21.9061 274.532 21.9061C273.944 21.9061 273.64 22.3418 273.447 22.6661V26H272.16ZM282.121 20.0009C281.665 20.0009 281.28 19.6159 281.28 19.1599C281.28 18.7039 281.665 18.3188 282.121 18.3188C282.577 18.3188 282.952 18.7039 282.952 19.1599C282.952 19.6159 282.577 20.0009 282.121 20.0009ZM281.473 26V20.8927H282.759V26H281.473ZM289.005 25.1691C288.528 25.8075 287.738 26.2027 286.775 26.2027C284.961 26.2027 283.938 24.936 283.938 23.4463C283.938 21.9365 284.891 20.69 286.563 20.69C287.981 20.69 288.914 21.6527 288.914 22.9903C288.914 23.2741 288.873 23.5376 288.832 23.7098H285.255C285.377 24.6624 285.965 25.0474 286.765 25.0474C287.323 25.0474 287.809 24.8042 288.083 24.4394L289.005 25.1691ZM286.532 21.7439C285.873 21.7439 285.438 22.1087 285.296 22.7775H287.647C287.627 22.2607 287.252 21.7439 286.532 21.7439Z" fill="#3A3A3A"/>
<path d="M373.5 21.5H366.5V22.5H373.5V21.5Z" fill="#CECECE"/>
<line x1="228" y1="42.2762" x2="388" y2="42.2762" stroke="#3A3A3A" stroke-width="1.44765"/>
<rect width="160" height="42" transform="translate(228 43)" fill="white"/>
<path d="M241.11 68V61H243.16C244.56 61 245.43 61.77 245.43 62.97C245.43 64.17 244.56 64.93 243.16 64.93H242.05V68H241.11ZM243.18 61.8H242.05V64.13H243.18C243.98 64.13 244.46 63.7 244.46 62.95C244.46 62.24 243.98 61.8 243.18 61.8ZM245.28 68L248.07 61H249.33L252.12 68H251.12L250.31 65.94H247.09L246.28 68H245.28ZM247.4 65.13H250L248.7 61.82L247.4 65.13ZM253.503 68V61H255.363C256.773 61 257.643 61.77 257.643 62.97C257.643 63.81 257.213 64.44 256.463 64.74L258.723 68H257.613L255.583 64.92C255.513 64.93 255.433 64.93 255.363 64.93H254.443V68H253.503ZM255.403 61.8H254.443V64.13H255.403C256.203 64.13 256.673 63.7 256.673 62.95C256.673 62.24 256.203 61.8 255.403 61.8ZM259.909 68V61H260.849V68H259.909ZM262.543 67.04L263.243 66.4C263.723 67.02 264.283 67.35 264.933 67.35C265.713 67.35 266.163 66.88 266.163 66.24C266.163 64.66 262.843 65 262.843 62.69C262.843 61.65 263.703 60.8 264.923 60.8C265.903 60.8 266.623 61.25 267.143 61.94L266.433 62.56C266.023 61.97 265.533 61.64 264.933 61.64C264.243 61.64 263.803 62.07 263.803 62.67C263.803 64.24 267.113 63.88 267.113 66.21C267.113 67.42 266.183 68.19 264.943 68.19C263.913 68.19 263.153 67.8 262.543 67.04Z" fill="#3A3A3A"/>
<line x1="228" y1="84.6381" x2="388" y2="84.6381" stroke="#E5E5E5" stroke-width="0.723824"/>
<rect width="160" height="42" transform="translate(228 85)" fill="#F6F6F6"/>
<path d="M240.27 110L243.06 103H244.32L247.11 110H246.11L245.3 107.94H242.08L241.27 110H240.27ZM242.39 107.13H244.99L243.69 103.82L242.39 107.13ZM248.493 110V103H249.433V110H248.493ZM251.977 110H250.847L253.477 106.36L251.057 103H252.177L254.127 105.7L256.077 103H257.207L254.777 106.36L257.407 110H256.287L254.127 107.02L251.977 110ZM257.407 107.03H260.107V107.85H257.407V107.03ZM261.413 110V103H262.613L264.753 106.53L266.893 103H268.093V110H267.153V104.26L265.113 107.6H264.393L262.353 104.26V110H261.413ZM269.459 110L272.249 103H273.509L276.299 110H275.299L274.489 107.94H271.269L270.459 110H269.459ZM271.579 107.13H274.179L272.879 103.82L271.579 107.13ZM277.682 110V103H279.542C280.952 103 281.822 103.77 281.822 104.97C281.822 105.81 281.392 106.44 280.642 106.74L282.902 110H281.792L279.762 106.92C279.692 106.93 279.612 106.93 279.542 106.93H278.622V110H277.682ZM279.582 103.8H278.622V106.13H279.582C280.382 106.13 280.852 105.7 280.852 104.95C280.852 104.24 280.382 103.8 279.582 103.8ZM283.5 109.04L284.2 108.4C284.68 109.02 285.24 109.35 285.89 109.35C286.67 109.35 287.12 108.88 287.12 108.24C287.12 106.66 283.8 107 283.8 104.69C283.8 103.65 284.66 102.8 285.88 102.8C286.86 102.8 287.58 103.25 288.1 103.94L287.39 104.56C286.98 103.97 286.49 103.64 285.89 103.64C285.2 103.64 284.76 104.07 284.76 104.67C284.76 106.24 288.07 105.88 288.07 108.21C288.07 109.42 287.14 110.19 285.9 110.19C284.87 110.19 284.11 109.8 283.5 109.04ZM289.909 110V103H293.669V103.8H290.849V106.04H293.269V106.83H290.849V109.2H293.669V110H289.909ZM295.544 110V103H296.484V110H295.544ZM298.708 110V103H299.648V109.14H302.468V110H298.708ZM303.942 110V103H304.882V109.14H307.702V110H303.942ZM309.176 110V103H312.936V103.8H310.116V106.04H312.536V106.83H310.116V109.2H312.936V110H309.176Z" fill="#3A3A3A"/>
<line x1="228" y1="126.638" x2="388" y2="126.638" stroke="#E5E5E5" stroke-width="0.723824"/>
<rect width="160" height="42" transform="translate(228 127)" fill="white"/>
<path d="M241.11 152V145H242.84C244.18 145 244.99 145.71 244.99 146.82C244.99 147.45 244.7 147.96 244.15 148.26C244.97 148.55 245.41 149.19 245.41 149.99C245.41 151.22 244.5 152 243.01 152H241.11ZM242.85 145.8H242.05V147.91H242.85C243.59 147.91 244.02 147.53 244.02 146.84C244.02 146.18 243.59 145.8 242.85 145.8ZM243.05 148.71H242.05V151.2H243.05C243.92 151.2 244.44 150.74 244.44 149.95C244.44 149.16 243.92 148.71 243.05 148.71ZM250.167 144.8C252.347 144.8 253.837 146.5 253.837 148.5C253.837 150.5 252.347 152.2 250.167 152.2C247.977 152.2 246.487 150.5 246.487 148.5C246.487 146.5 247.977 144.8 250.167 144.8ZM250.167 151.32C251.737 151.32 252.867 150.06 252.867 148.5C252.867 146.94 251.737 145.68 250.167 145.68C248.587 145.68 247.457 146.94 247.457 148.5C247.457 150.06 248.587 151.32 250.167 151.32ZM255.456 152V145H257.316C258.726 145 259.596 145.77 259.596 146.97C259.596 147.81 259.166 148.44 258.416 148.74L260.676 152H259.566L257.536 148.92C257.466 148.93 257.386 148.93 257.316 148.93H256.396V152H255.456ZM257.356 145.8H256.396V148.13H257.356C258.156 148.13 258.626 147.7 258.626 146.95C258.626 146.24 258.156 145.8 257.356 145.8ZM261.862 152V145H264.552C266.742 145 268.232 146.61 268.232 148.5C268.232 150.39 266.742 152 264.552 152H261.862ZM264.572 145.86H262.802V151.14H264.572C266.132 151.14 267.262 149.96 267.262 148.5C267.262 147.03 266.132 145.86 264.572 145.86ZM269.86 152V145H273.62V145.8H270.8V148.04H273.22V148.83H270.8V151.2H273.62V152H269.86ZM274.733 152L277.523 145H278.783L281.573 152H280.573L279.763 149.94H276.543L275.733 152H274.733ZM276.853 149.13H279.453L278.153 145.82L276.853 149.13ZM287.05 149.42V145H287.99V149.36C287.99 151.16 286.92 152.2 285.28 152.2C283.64 152.2 282.56 151.16 282.56 149.36V145H283.5V149.42C283.5 150.63 284.2 151.32 285.28 151.32C286.35 151.32 287.05 150.63 287.05 149.42ZM290.229 152H289.099L291.729 148.36L289.309 145H290.429L292.379 147.7L294.329 145H295.459L293.029 148.36L295.659 152H294.539L292.379 149.02L290.229 152Z" fill="#3A3A3A"/>
<line x1="228" y1="168.638" x2="388" y2="168.638" stroke="#E5E5E5" stroke-width="0.723824"/>
<rect width="160" height="42" transform="translate(228 169)" fill="#F6F6F6"/>
<path d="M241.11 194V187H242.05V193.14H244.87V194H241.11ZM246.344 194V187H247.284V194H246.344ZM249.508 194V187H250.448V193.14H253.268V194H249.508ZM254.743 194V187H255.683V193.14H258.503V194H254.743ZM259.977 194V187H263.737V187.8H260.917V190.04H263.337V190.83H260.917V193.2H263.737V194H259.977Z" fill="#3A3A3A"/>
<line x1="228" y1="210.638" x2="388" y2="210.638" stroke="#E5E5E5" stroke-width="0.723824"/>
<rect width="160" height="42" transform="translate(228 211)" fill="white"/>
<path d="M241.11 236V229H242.05V235.14H244.87V236H241.11ZM250.879 229L248.049 232.86V236H247.109V232.86L244.269 229H245.409L247.579 231.94L249.749 229H250.879ZM254.727 228.8C256.907 228.8 258.397 230.5 258.397 232.5C258.397 234.5 256.907 236.2 254.727 236.2C252.537 236.2 251.047 234.5 251.047 232.5C251.047 230.5 252.537 228.8 254.727 228.8ZM254.727 235.32C256.297 235.32 257.427 234.06 257.427 232.5C257.427 230.94 256.297 229.68 254.727 229.68C253.147 229.68 252.017 230.94 252.017 232.5C252.017 234.06 253.147 235.32 254.727 235.32ZM260.016 236V229H261.246L265.206 234.85V229H266.146V236H264.916L260.956 230.15V236H260.016Z" fill="#3A3A3A"/>
<line x1="228" y1="252.638" x2="388" y2="252.638" stroke="#E5E5E5" stroke-width="0.723824"/>
<rect width="160" height="42" transform="translate(228 253)" fill="#F6F6F6"/>
<path d="M241.11 278V271H242.34L246.3 276.85V271H247.24V278H246.01L242.05 272.15V278H241.11ZM249.46 278V271H250.4V278H249.46ZM255.704 277.32C256.644 277.32 257.414 276.86 257.884 276.18L258.634 276.76C257.994 277.63 256.964 278.2 255.704 278.2C253.514 278.2 252.024 276.5 252.024 274.5C252.024 272.5 253.514 270.8 255.704 270.8C256.964 270.8 257.994 271.38 258.634 272.24L257.884 272.82C257.414 272.14 256.644 271.68 255.704 271.68C254.124 271.68 252.994 272.94 252.994 274.5C252.994 276.06 254.124 277.32 255.704 277.32ZM260.192 278V271H263.952V271.8H261.132V274.04H263.552V274.83H261.132V277.2H263.952V278H260.192Z" fill="#3A3A3A"/>
<line x1="228" y1="294.638" x2="388" y2="294.638" stroke="#E5E5E5" stroke-width="0.723824"/>
<rect width="160" height="42" transform="translate(228 295)" fill="white"/>
<path d="M241.11 320V313H242.31L244.45 316.53L246.59 313H247.79V320H246.85V314.26L244.81 317.6H244.09L242.05 314.26V320H241.11ZM253.077 312.8C255.257 312.8 256.747 314.5 256.747 316.5C256.747 318.5 255.257 320.2 253.077 320.2C250.887 320.2 249.397 318.5 249.397 316.5C249.397 314.5 250.887 312.8 253.077 312.8ZM253.077 319.32C254.647 319.32 255.777 318.06 255.777 316.5C255.777 314.94 254.647 313.68 253.077 313.68C251.497 313.68 250.367 314.94 250.367 316.5C250.367 318.06 251.497 319.32 253.077 319.32ZM258.366 320V313H259.596L263.556 318.85V313H264.496V320H263.266L259.306 314.15V320H258.366ZM265.955 313.86V313H271.535V313.86H269.215V320H268.275V313.86H265.955ZM273.005 320V313H275.055C276.455 313 277.325 313.77 277.325 314.97C277.325 316.17 276.455 316.93 275.055 316.93H273.945V320H273.005ZM275.075 313.8H273.945V316.13H275.075C275.875 316.13 276.355 315.7 276.355 314.95C276.355 314.24 275.875 313.8 275.075 313.8ZM278.747 320V313H282.507V313.8H279.687V316.04H282.107V316.83H279.687V319.2H282.507V320H278.747ZM284.381 320V313H285.321V319.14H288.141V320H284.381ZM289.616 320V313H290.556V319.14H293.376V320H289.616ZM294.85 320V313H295.79V320H294.85ZM298.014 320V313H301.774V313.8H298.954V316.04H301.374V316.83H298.954V319.2H301.774V320H298.014ZM303.649 320V313H305.509C306.919 313 307.789 313.77 307.789 314.97C307.789 315.81 307.359 316.44 306.609 316.74L308.869 320H307.759L305.729 316.92C305.659 316.93 305.579 316.93 305.509 316.93H304.589V320H303.649ZM305.549 313.8H304.589V316.13H305.549C306.349 316.13 306.819 315.7 306.819 314.95C306.819 314.24 306.349 313.8 305.549 313.8Z" fill="#3A3A3A"/>
<rect width="160" height="42" transform="translate(388 1)" fill="white"/>
<path d="M400.152 18.9065H401.682L403.78 24.4496L405.877 18.9065H407.408L404.722 26H402.837L400.152 18.9065ZM408.979 20.0009C408.523 20.0009 408.138 19.6159 408.138 19.1599C408.138 18.7039 408.523 18.3188 408.979 18.3188C409.435 18.3188 409.81 18.7039 409.81 19.1599C409.81 19.6159 409.435 20.0009 408.979 20.0009ZM408.331 26V20.8927H409.618V26H408.331ZM411.161 26V18.3998H412.448V26H411.161ZM413.991 26V18.3998H415.278V26H413.991ZM421.523 25.1691C421.047 25.8075 420.257 26.2027 419.294 26.2027C417.48 26.2027 416.457 24.936 416.457 23.4463C416.457 21.9365 417.409 20.69 419.081 20.69C420.5 20.69 421.432 21.6527 421.432 22.9903C421.432 23.2741 421.392 23.5376 421.351 23.7098H417.774C417.896 24.6624 418.483 25.0474 419.284 25.0474C419.841 25.0474 420.328 24.8042 420.601 24.4394L421.523 25.1691ZM419.051 21.7439C418.392 21.7439 417.956 22.1087 417.815 22.7775H420.166C420.145 22.2607 419.77 21.7439 419.051 21.7439Z" fill="#3A3A3A"/>
<line x1="388" y1="42.2762" x2="548" y2="42.2762" stroke="#3A3A3A" stroke-width="1.44765"/>
<rect width="160" height="42" transform="translate(388 43)" fill="white"/>
<path d="M401.11 68V61H403.16C404.56 61 405.43 61.77 405.43 62.97C405.43 64.17 404.56 64.93 403.16 64.93H402.05V68H401.11ZM403.18 61.8H402.05V64.13H403.18C403.98 64.13 404.46 63.7 404.46 62.95C404.46 62.24 403.98 61.8 403.18 61.8ZM405.28 68L408.07 61H409.33L412.12 68H411.12L410.31 65.94H407.09L406.28 68H405.28ZM407.4 65.13H410L408.7 61.82L407.4 65.13ZM413.503 68V61H415.363C416.773 61 417.643 61.77 417.643 62.97C417.643 63.81 417.213 64.44 416.463 64.74L418.723 68H417.613L415.583 64.92C415.513 64.93 415.433 64.93 415.363 64.93H414.443V68H413.503ZM415.403 61.8H414.443V64.13H415.403C416.203 64.13 416.673 63.7 416.673 62.95C416.673 62.24 416.203 61.8 415.403 61.8ZM419.909 68V61H420.849V68H419.909ZM422.543 67.04L423.243 66.4C423.723 67.02 424.283 67.35 424.933 67.35C425.713 67.35 426.163 66.88 426.163 66.24C426.163 64.66 422.843 65 422.843 62.69C422.843 61.65 423.703 60.8 424.923 60.8C425.903 60.8 426.623 61.25 427.143 61.94L426.433 62.56C426.023 61.97 425.533 61.64 424.933 61.64C424.243 61.64 423.803 62.07 423.803 62.67C423.803 64.24 427.113 63.88 427.113 66.21C427.113 67.42 426.183 68.19 424.943 68.19C423.913 68.19 423.153 67.8 422.543 67.04Z" fill="#3A3A3A"/>
<line x1="388" y1="84.6381" x2="548" y2="84.6381" stroke="#E5E5E5" stroke-width="0.723824"/>
<rect width="160" height="42" transform="translate(388 85)" fill="#F6F6F6"/>
<path d="M401.11 110V103H402.31L404.45 106.53L406.59 103H407.79V110H406.85V104.26L404.81 107.6H404.09L402.05 104.26V110H401.11ZM409.157 110L411.947 103H413.207L415.997 110H414.997L414.187 107.94H410.967L410.157 110H409.157ZM411.277 107.13H413.877L412.577 103.82L411.277 107.13ZM417.38 110V103H419.24C420.65 103 421.52 103.77 421.52 104.97C421.52 105.81 421.09 106.44 420.34 106.74L422.6 110H421.49L419.46 106.92C419.39 106.93 419.31 106.93 419.24 106.93H418.32V110H417.38ZM419.28 103.8H418.32V106.13H419.28C420.08 106.13 420.55 105.7 420.55 104.95C420.55 104.24 420.08 103.8 419.28 103.8ZM423.197 109.04L423.897 108.4C424.377 109.02 424.937 109.35 425.587 109.35C426.367 109.35 426.817 108.88 426.817 108.24C426.817 106.66 423.497 107 423.497 104.69C423.497 103.65 424.357 102.8 425.577 102.8C426.557 102.8 427.277 103.25 427.797 103.94L427.087 104.56C426.677 103.97 426.187 103.64 425.587 103.64C424.897 103.64 424.457 104.07 424.457 104.67C424.457 106.24 427.767 105.88 427.767 108.21C427.767 109.42 426.837 110.19 425.597 110.19C424.567 110.19 423.807 109.8 423.197 109.04ZM429.606 110V103H433.366V103.8H430.546V106.04H432.966V106.83H430.546V109.2H433.366V110H429.606ZM435.241 110V103H436.181V110H435.241ZM438.405 110V103H439.345V109.14H442.165V110H438.405ZM443.639 110V103H444.579V109.14H447.399V110H443.639ZM448.874 110V103H452.634V103.8H449.814V106.04H452.234V106.83H449.814V109.2H452.634V110H448.874Z" fill="#3A3A3A"/>
<line x1="388" y1="126.638" x2="525" y2="126.638" stroke="#E5E5E5" stroke-width="0.723824"/>
<rect width="160" height="42" transform="translate(388 127)" fill="white"/>
<path d="M401.11 152V145H402.84C404.18 145 404.99 145.71 404.99 146.82C404.99 147.45 404.7 147.96 404.15 148.26C404.97 148.55 405.41 149.19 405.41 149.99C405.41 151.22 404.5 152 403.01 152H401.11ZM402.85 145.8H402.05V147.91H402.85C403.59 147.91 404.02 147.53 404.02 146.84C404.02 146.18 403.59 145.8 402.85 145.8ZM403.05 148.71H402.05V151.2H403.05C403.92 151.2 404.44 150.74 404.44 149.95C404.44 149.16 403.92 148.71 403.05 148.71ZM410.167 144.8C412.347 144.8 413.837 146.5 413.837 148.5C413.837 150.5 412.347 152.2 410.167 152.2C407.977 152.2 406.487 150.5 406.487 148.5C406.487 146.5 407.977 144.8 410.167 144.8ZM410.167 151.32C411.737 151.32 412.867 150.06 412.867 148.5C412.867 146.94 411.737 145.68 410.167 145.68C408.587 145.68 407.457 146.94 407.457 148.5C407.457 150.06 408.587 151.32 410.167 151.32ZM415.456 152V145H417.316C418.726 145 419.596 145.77 419.596 146.97C419.596 147.81 419.166 148.44 418.416 148.74L420.676 152H419.566L417.536 148.92C417.466 148.93 417.386 148.93 417.316 148.93H416.396V152H415.456ZM417.356 145.8H416.396V148.13H417.356C418.156 148.13 418.626 147.7 418.626 146.95C418.626 146.24 418.156 145.8 417.356 145.8ZM421.862 152V145H424.552C426.742 145 428.232 146.61 428.232 148.5C428.232 150.39 426.742 152 424.552 152H421.862ZM424.572 145.86H422.802V151.14H424.572C426.132 151.14 427.262 149.96 427.262 148.5C427.262 147.03 426.132 145.86 424.572 145.86ZM429.86 152V145H433.62V145.8H430.8V148.04H433.22V148.83H430.8V151.2H433.62V152H429.86ZM434.733 152L437.523 145H438.783L441.573 152H440.573L439.763 149.94H436.543L435.733 152H434.733ZM436.853 149.13H439.453L438.153 145.82L436.853 149.13ZM447.05 149.42V145H447.99V149.36C447.99 151.16 446.92 152.2 445.28 152.2C443.64 152.2 442.56 151.16 442.56 149.36V145H443.5V149.42C443.5 150.63 444.2 151.32 445.28 151.32C446.35 151.32 447.05 150.63 447.05 149.42ZM450.229 152H449.099L451.729 148.36L449.309 145H450.429L452.379 147.7L454.329 145H455.459L453.029 148.36L455.659 152H454.539L452.379 149.02L450.229 152Z" fill="#3A3A3A"/>
<line x1="388" y1="168.638" x2="548" y2="168.638" stroke="#E5E5E5" stroke-width="0.723824"/>
<rect width="160" height="42" transform="translate(388 169)" fill="#F6F6F6"/>
<path d="M401.11 194V187H402.05V193.14H404.87V194H401.11ZM406.344 194V187H407.284V194H406.344ZM409.508 194V187H410.448V193.14H413.268V194H409.508ZM414.743 194V187H415.683V193.14H418.503V194H414.743ZM419.977 194V187H423.737V187.8H420.917V190.04H423.337V190.83H420.917V193.2H423.737V194H419.977Z" fill="#3A3A3A"/>
<line x1="388" y1="210.638" x2="548" y2="210.638" stroke="#E5E5E5" stroke-width="0.723824"/>
<rect width="160" height="42" transform="translate(388 211)" fill="white"/>
<path d="M401.11 236V229H402.05V235.14H404.87V236H401.11ZM410.879 229L408.049 232.86V236H407.109V232.86L404.269 229H405.409L407.579 231.94L409.749 229H410.879ZM414.727 228.8C416.907 228.8 418.397 230.5 418.397 232.5C418.397 234.5 416.907 236.2 414.727 236.2C412.537 236.2 411.047 234.5 411.047 232.5C411.047 230.5 412.537 228.8 414.727 228.8ZM414.727 235.32C416.297 235.32 417.427 234.06 417.427 232.5C417.427 230.94 416.297 229.68 414.727 229.68C413.147 229.68 412.017 230.94 412.017 232.5C412.017 234.06 413.147 235.32 414.727 235.32ZM420.016 236V229H421.246L425.206 234.85V229H426.146V236H424.916L420.956 230.15V236H420.016Z" fill="#3A3A3A"/>
<line x1="388" y1="252.638" x2="548" y2="252.638" stroke="#E5E5E5" stroke-width="0.723824"/>
<rect width="160" height="42" transform="translate(388 253)" fill="#F6F6F6"/>
<path d="M401.11 278V271H402.34L406.3 276.85V271H407.24V278H406.01L402.05 272.15V278H401.11ZM409.46 278V271H410.4V278H409.46ZM415.704 277.32C416.644 277.32 417.414 276.86 417.884 276.18L418.634 276.76C417.994 277.63 416.964 278.2 415.704 278.2C413.514 278.2 412.024 276.5 412.024 274.5C412.024 272.5 413.514 270.8 415.704 270.8C416.964 270.8 417.994 271.38 418.634 272.24L417.884 272.82C417.414 272.14 416.644 271.68 415.704 271.68C414.124 271.68 412.994 272.94 412.994 274.5C412.994 276.06 414.124 277.32 415.704 277.32ZM420.192 278V271H423.952V271.8H421.132V274.04H423.552V274.83H421.132V277.2H423.952V278H420.192Z" fill="#3A3A3A"/>
<line x1="388" y1="294.638" x2="548" y2="294.638" stroke="#E5E5E5" stroke-width="0.723824"/>
<rect width="160" height="42" transform="translate(388 295)" fill="white"/>
<path d="M401.11 320V313H402.31L404.45 316.53L406.59 313H407.79V320H406.85V314.26L404.81 317.6H404.09L402.05 314.26V320H401.11ZM413.077 312.8C415.257 312.8 416.747 314.5 416.747 316.5C416.747 318.5 415.257 320.2 413.077 320.2C410.887 320.2 409.397 318.5 409.397 316.5C409.397 314.5 410.887 312.8 413.077 312.8ZM413.077 319.32C414.647 319.32 415.777 318.06 415.777 316.5C415.777 314.94 414.647 313.68 413.077 313.68C411.497 313.68 410.367 314.94 410.367 316.5C410.367 318.06 411.497 319.32 413.077 319.32ZM418.366 320V313H419.596L423.556 318.85V313H424.496V320H423.266L419.306 314.15V320H418.366ZM425.955 313.86V313H431.535V313.86H429.215V320H428.275V313.86H425.955ZM433.005 320V313H435.055C436.455 313 437.325 313.77 437.325 314.97C437.325 316.17 436.455 316.93 435.055 316.93H433.945V320H433.005ZM435.075 313.8H433.945V316.13H435.075C435.875 316.13 436.355 315.7 436.355 314.95C436.355 314.24 435.875 313.8 435.075 313.8ZM438.747 320V313H442.507V313.8H439.687V316.04H442.107V316.83H439.687V319.2H442.507V320H438.747ZM444.381 320V313H445.321V319.14H448.141V320H444.381ZM449.616 320V313H450.556V319.14H453.376V320H449.616ZM454.85 320V313H455.79V320H454.85ZM458.014 320V313H461.774V313.8H458.954V316.04H461.374V316.83H458.954V319.2H461.774V320H458.014ZM463.649 320V313H465.509C466.919 313 467.789 313.77 467.789 314.97C467.789 315.81 467.359 316.44 466.609 316.74L468.869 320H467.759L465.729 316.92C465.659 316.93 465.579 316.93 465.509 316.93H464.589V320H463.649ZM465.549 313.8H464.589V316.13H465.549C466.349 316.13 466.819 315.7 466.819 314.95C466.819 314.24 466.349 313.8 465.549 313.8Z" fill="#3A3A3A"/>
</g>
</g>
</g>
<defs>
<filter id="filter0_d_2656_8779" x="0" y="0" width="526" height="322" filterUnits="userSpaceOnUse" color-interpolation-filters="sRGB">
<feFlood flood-opacity="0" result="BackgroundImageFix"/>
<feColorMatrix in="SourceAlpha" type="matrix" values="0 0 0 0 0 0 0 0 0 0 0 0 0 0 0 0 0 0 127 0" result="hardAlpha"/>
<feMorphology radius="1" operator="dilate" in="SourceAlpha" result="effect1_dropShadow_2656_8779"/>
<feOffset/>
<feComposite in2="hardAlpha" operator="out"/>
<feColorMatrix type="matrix" values="0 0 0 0 0.149038 0 0 0 0 0.145083 0 0 0 0 0.11763 0 0 0 0.1 0"/>
<feBlend mode="normal" in2="BackgroundImageFix" result="effect1_dropShadow_2656_8779"/>
<feBlend mode="normal" in="SourceGraphic" in2="effect1_dropShadow_2656_8779" result="shape"/>
</filter>
<clipPath id="clip0_2656_8779">
<path d="M1 11C1 5.47715 5.47715 1 11 1H515C520.523 1 525 5.47715 525 11V311C525 316.523 520.523 321 515 321H11C5.47716 321 1 316.523 1 311V11Z" fill="white"/>
</clipPath>
<clipPath id="clip1_2656_8779">
<rect width="524" height="336" fill="white" transform="translate(1 1)"/>
</clipPath>
</defs>
</svg>
