<svg width="350" height="212" viewBox="0 0 350 212" fill="none" xmlns="http://www.w3.org/2000/svg">
<g filter="url(#filter0_d_2656_9303)">
<g clip-path="url(#clip0_2656_9303)">
<path d="M1 11C1 5.47715 5.47715 1 11 1H349V211H1V11Z" fill="white"/>
<g clip-path="url(#clip1_2656_9303)">
<g clip-path="url(#clip2_2656_9303)">
<path d="M15 21.6666L13 20.5L19 17L25 20.5V24.75H24V21.0834L23 21.6666V25.0056L22.8887 25.1432C21.9728 26.2749 20.5709 27 19 27C17.4291 27 16.0271 26.2749 15.1113 25.1432L15 25.0056V21.6666ZM16 22.25V24.6459C16.7336 25.477 17.8056 26 19 26C20.1945 26 21.2664 25.477 22 24.6459V22.25L19 24L16 22.25ZM14.9846 20.5L19 22.8423L23.0154 20.5L19 18.1577L14.9846 20.5Z" fill="black"/>
</g>
<path d="M30.236 27V18.6H31.94V27H30.236ZM34.0839 27V20.952H35.6079V21.432C36.0279 21.024 36.5919 20.712 37.3959 20.712C38.7039 20.712 39.7479 21.612 39.7479 23.4V27H38.2119V23.46C38.2119 22.656 37.7559 22.152 37.0119 22.152C36.2439 22.152 35.8359 22.668 35.6079 23.052V27H34.0839ZM41.8624 24.792V22.32H40.7344V20.952H41.8624V19.44H43.3984V20.952H45.2464V22.32H43.3984V24.792C43.3984 25.464 43.7584 25.728 44.3584 25.728C44.7784 25.728 45.0544 25.68 45.2584 25.596V26.928C44.9584 27.06 44.5984 27.12 44.0944 27.12C42.5824 27.12 41.8624 26.268 41.8624 24.792ZM46.6112 27V20.952H48.1352V21.552C48.5312 21.144 49.0472 20.832 49.7312 20.832C49.9352 20.832 50.1152 20.868 50.2592 20.916V22.416C50.0672 22.368 49.8632 22.332 49.5872 22.332C48.8432 22.332 48.3632 22.74 48.1352 23.124V27H46.6112ZM54.1084 20.712C56.0764 20.712 57.4204 22.164 57.4204 23.976C57.4204 25.788 56.0764 27.24 54.1084 27.24C52.1404 27.24 50.7964 25.788 50.7964 23.976C50.7964 22.164 52.1404 20.712 54.1084 20.712ZM54.1324 25.8C55.1044 25.8 55.8364 25.02 55.8364 23.976C55.8364 22.92 55.1044 22.152 54.1324 22.152C53.1244 22.152 52.3804 22.92 52.3804 23.976C52.3804 25.032 53.1244 25.8 54.1324 25.8ZM58.437 23.976C58.437 22.212 59.601 20.712 61.509 20.712C62.325 20.712 62.913 20.964 63.381 21.432V18H64.917V27H63.381V26.52C62.913 26.988 62.325 27.24 61.509 27.24C59.601 27.24 58.437 25.74 58.437 23.976ZM60.033 23.976C60.033 25.032 60.693 25.8 61.725 25.8C62.409 25.8 62.973 25.512 63.381 24.96V22.992C62.973 22.44 62.409 22.152 61.725 22.152C60.693 22.152 60.033 22.92 60.033 23.976ZM70.728 24.384V20.952H72.264V24.312C72.264 26.124 71.208 27.24 69.432 27.24C67.656 27.24 66.612 26.124 66.612 24.312V20.952H68.148V24.384C68.148 25.26 68.604 25.8 69.444 25.8C70.272 25.8 70.728 25.26 70.728 24.384ZM76.8551 25.8C77.4551 25.8 77.9351 25.524 78.2231 25.104L79.4111 26.016C78.8471 26.76 77.9591 27.24 76.8551 27.24C74.7671 27.24 73.5191 25.74 73.5191 23.976C73.5191 22.212 74.7671 20.712 76.8551 20.712C77.9591 20.712 78.8471 21.192 79.4111 21.936L78.2231 22.848C77.9351 22.428 77.4551 22.152 76.8311 22.152C75.8351 22.152 75.1031 22.92 75.1031 23.976C75.1031 25.044 75.8351 25.8 76.8551 25.8ZM80.9913 24.792V22.32H79.8633V20.952H80.9913V19.44H82.5273V20.952H84.3753V22.32H82.5273V24.792C82.5273 25.464 82.8873 25.728 83.4873 25.728C83.9073 25.728 84.1833 25.68 84.3873 25.596V26.928C84.0873 27.06 83.7273 27.12 83.2233 27.12C81.7113 27.12 80.9913 26.268 80.9913 24.792ZM86.5081 19.896C85.9681 19.896 85.5121 19.44 85.5121 18.9C85.5121 18.36 85.9681 17.904 86.5081 17.904C87.0481 17.904 87.4921 18.36 87.4921 18.9C87.4921 19.44 87.0481 19.896 86.5081 19.896ZM85.7401 27V20.952H87.2641V27H85.7401ZM91.9717 20.712C93.9397 20.712 95.2837 22.164 95.2837 23.976C95.2837 25.788 93.9397 27.24 91.9717 27.24C90.0037 27.24 88.6597 25.788 88.6597 23.976C88.6597 22.164 90.0037 20.712 91.9717 20.712ZM91.9957 25.8C92.9677 25.8 93.6997 25.02 93.6997 23.976C93.6997 22.92 92.9677 22.152 91.9957 22.152C90.9877 22.152 90.2437 22.92 90.2437 23.976C90.2437 25.032 90.9877 25.8 91.9957 25.8ZM96.6737 27V20.952H98.1977V21.432C98.6177 21.024 99.1817 20.712 99.9857 20.712C101.294 20.712 102.338 21.612 102.338 23.4V27H100.802V23.46C100.802 22.656 100.346 22.152 99.6017 22.152C98.8337 22.152 98.4257 22.668 98.1977 23.052V27H96.6737ZM108.971 19.992L107.531 18H109.187L110.423 19.992H108.971ZM109.007 27.18C107.795 27.18 106.967 26.484 106.967 25.368C106.967 24.456 107.675 23.772 108.971 23.556L110.819 23.244V23.088C110.819 22.452 110.339 22.044 109.643 22.044C109.055 22.044 108.599 22.32 108.275 22.764L107.159 21.912C107.699 21.168 108.587 20.712 109.691 20.712C111.443 20.712 112.343 21.756 112.343 23.088V27H110.819V26.412C110.435 26.88 109.715 27.18 109.007 27.18ZM108.479 25.296C108.479 25.704 108.803 25.968 109.319 25.968C110.015 25.968 110.519 25.644 110.819 25.164V24.312L109.379 24.552C108.743 24.66 108.479 24.924 108.479 25.296ZM117.322 27V18H118.846V27H117.322ZM121.487 22.056H120.071L121.151 18.6H122.879L121.487 22.056ZM127.683 18.36C130.323 18.36 132.135 20.4 132.135 22.8C132.135 25.2 130.323 27.24 127.683 27.24C125.031 27.24 123.219 25.2 123.219 22.8C123.219 20.4 125.031 18.36 127.683 18.36ZM127.683 25.644C129.255 25.644 130.383 24.408 130.383 22.8C130.383 21.192 129.255 19.956 127.683 19.956C126.099 19.956 124.971 21.192 124.971 22.8C124.971 24.408 126.099 25.644 127.683 25.644ZM133.564 29.952V20.952H135.088V21.444C135.556 20.976 136.144 20.712 136.972 20.712C138.892 20.712 140.044 22.212 140.044 23.976C140.044 25.74 138.892 27.24 136.972 27.24C136.144 27.24 135.556 26.976 135.088 26.508V29.952H133.564ZM136.756 22.152C136.048 22.152 135.472 22.464 135.088 23.028V24.924C135.496 25.5 136.06 25.8 136.756 25.8C137.788 25.8 138.46 25.032 138.46 23.976C138.46 22.92 137.788 22.152 136.756 22.152ZM147.066 26.016C146.502 26.772 145.566 27.24 144.426 27.24C142.278 27.24 141.066 25.74 141.066 23.976C141.066 22.188 142.194 20.712 144.174 20.712C145.854 20.712 146.958 21.852 146.958 23.436C146.958 23.772 146.91 24.084 146.862 24.288H142.626C142.77 25.416 143.466 25.872 144.414 25.872C145.074 25.872 145.65 25.584 145.974 25.152L147.066 26.016ZM144.138 21.96C143.358 21.96 142.842 22.392 142.674 23.184H145.458C145.434 22.572 144.99 21.96 144.138 21.96ZM148.447 27V20.952H149.971V21.432C150.391 21.024 150.955 20.712 151.759 20.712C153.067 20.712 154.111 21.612 154.111 23.4V27H152.575V23.46C152.575 22.656 152.119 22.152 151.375 22.152C150.607 22.152 150.199 22.668 149.971 23.052V27H148.447ZM156.166 27V18.6H159.466C162.13 18.6 163.93 20.532 163.93 22.8C163.93 25.068 162.13 27 159.466 27H156.166ZM159.49 20.148H157.87V25.452H159.49C161.05 25.452 162.178 24.288 162.178 22.8C162.178 21.3 161.05 20.148 159.49 20.148ZM166.909 27.18C165.697 27.18 164.869 26.484 164.869 25.368C164.869 24.456 165.577 23.772 166.873 23.556L168.721 23.244V23.088C168.721 22.452 168.241 22.044 167.545 22.044C166.957 22.044 166.501 22.32 166.177 22.764L165.061 21.912C165.601 21.168 166.489 20.712 167.593 20.712C169.345 20.712 170.245 21.756 170.245 23.088V27H168.721V26.412C168.337 26.88 167.617 27.18 166.909 27.18ZM166.381 25.296C166.381 25.704 166.705 25.968 167.221 25.968C167.917 25.968 168.421 25.644 168.721 25.164V24.312L167.281 24.552C166.645 24.66 166.381 24.924 166.381 25.296ZM172.374 24.792V22.32H171.246V20.952H172.374V19.44H173.91V20.952H175.758V22.32H173.91V24.792C173.91 25.464 174.27 25.728 174.87 25.728C175.29 25.728 175.566 25.68 175.77 25.596V26.928C175.47 27.06 175.11 27.12 174.606 27.12C173.094 27.12 172.374 26.268 172.374 24.792ZM178.827 27.18C177.615 27.18 176.787 26.484 176.787 25.368C176.787 24.456 177.495 23.772 178.791 23.556L180.639 23.244V23.088C180.639 22.452 180.159 22.044 179.463 22.044C178.875 22.044 178.419 22.32 178.095 22.764L176.979 21.912C177.519 21.168 178.407 20.712 179.511 20.712C181.263 20.712 182.163 21.756 182.163 23.088V27H180.639V26.412C180.255 26.88 179.535 27.18 178.827 27.18ZM178.299 25.296C178.299 25.704 178.623 25.968 179.139 25.968C179.835 25.968 180.339 25.644 180.639 25.164V24.312L179.199 24.552C178.563 24.66 178.299 24.924 178.299 25.296Z" fill="#161616"/>
<path d="M13.9 51.9L14.11 48H18.28V49.22H15.4L15.32 50.68H15.86C17.72 50.68 18.54 51.53 18.54 52.89C18.54 54.32 17.42 55.2 15.98 55.2C14.68 55.2 13.82 54.63 13.24 53.62L14.42 52.89C14.82 53.66 15.3 54 15.98 54C16.67 54 17.16 53.59 17.16 52.94C17.16 52.28 16.67 51.9 15.8 51.9H13.9ZM21.9514 55.88C21.9514 55.38 22.2014 54.98 22.6514 54.65C22.4514 54.45 22.3414 54.18 22.3414 53.92C22.3414 53.52 22.5114 53.2 22.8914 52.92C22.4514 52.59 22.2114 52.09 22.2114 51.53C22.2114 50.55 22.9714 49.76 24.2314 49.76C24.6214 49.76 24.9614 49.83 25.2514 49.96H27.0914V51.04H26.2014C26.2514 51.2 26.2714 51.36 26.2714 51.53C26.2714 52.52 25.5314 53.32 24.2314 53.32C24.0614 53.32 23.9014 53.31 23.7514 53.28C23.6414 53.38 23.5814 53.49 23.5814 53.6C23.5814 53.8 23.6914 53.9 23.9214 53.9H25.1914C26.4614 53.9 27.1514 54.58 27.1514 55.52C27.1514 56.64 26.0814 57.5 24.5114 57.5C22.9014 57.5 21.9514 56.94 21.9514 55.88ZM24.2514 52.36C24.7814 52.36 25.1214 52.03 25.1214 51.53C25.1214 51.03 24.7814 50.71 24.2514 50.71C23.7014 50.71 23.3714 51.04 23.3714 51.53C23.3714 52.03 23.7014 52.36 24.2514 52.36ZM23.1514 55.7C23.1514 56.18 23.6114 56.48 24.5014 56.48C25.4214 56.48 25.8914 56.14 25.8914 55.64C25.8914 55.26 25.6614 54.99 25.0514 54.99H23.4914C23.3014 55.17 23.1514 55.39 23.1514 55.7ZM31.3476 52.82V49.96H32.6276V52.76C32.6276 54.27 31.7476 55.2 30.2676 55.2C28.7876 55.2 27.9176 54.27 27.9176 52.76V49.96H29.1976V52.82C29.1976 53.55 29.5776 54 30.2776 54C30.9676 54 31.3476 53.55 31.3476 52.82ZM34.6734 49.08C34.2234 49.08 33.8434 48.7 33.8434 48.25C33.8434 47.8 34.2234 47.42 34.6734 47.42C35.1234 47.42 35.4934 47.8 35.4934 48.25C35.4934 48.7 35.1234 49.08 34.6734 49.08ZM34.0334 55V49.96H35.3034V55H34.0334ZM36.4664 52.48C36.4664 51.01 37.4364 49.76 39.0264 49.76C39.7064 49.76 40.1964 49.97 40.5864 50.36V47.5H41.8664V55H40.5864V54.6C40.1964 54.99 39.7064 55.2 39.0264 55.2C37.4364 55.2 36.4664 53.95 36.4664 52.48ZM37.7964 52.48C37.7964 53.36 38.3464 54 39.2064 54C39.7764 54 40.2464 53.76 40.5864 53.3V51.66C40.2464 51.2 39.7764 50.96 39.2064 50.96C38.3464 50.96 37.7964 51.6 37.7964 52.48ZM48.0289 54.18C47.5589 54.81 46.7789 55.2 45.8289 55.2C44.0389 55.2 43.0289 53.95 43.0289 52.48C43.0289 50.99 43.9689 49.76 45.6189 49.76C47.0189 49.76 47.9389 50.71 47.9389 52.03C47.9389 52.31 47.8989 52.57 47.8589 52.74H44.3289C44.4489 53.68 45.0289 54.06 45.8189 54.06C46.3689 54.06 46.8489 53.82 47.1189 53.46L48.0289 54.18ZM45.5889 50.8C44.9389 50.8 44.5089 51.16 44.3689 51.82H46.6889C46.6689 51.31 46.2989 50.8 45.5889 50.8ZM48.6716 54.27L49.5116 53.51C49.8216 53.9 50.1916 54.18 50.6716 54.18C51.0816 54.18 51.2916 53.94 51.2916 53.64C51.2916 52.76 48.8816 53.09 48.8816 51.32C48.8816 50.43 49.6316 49.76 50.6816 49.76C51.4516 49.76 52.1516 50.13 52.5116 50.62L51.6716 51.36C51.4116 51.04 51.0816 50.78 50.6916 50.78C50.2916 50.78 50.1016 51 50.1016 51.26C50.1016 52.12 52.5116 51.82 52.5116 53.56C52.4916 54.62 51.6416 55.2 50.6916 55.2C49.7916 55.2 49.1516 54.84 48.6716 54.27ZM56.0172 52.48C56.0172 51.01 56.9872 49.76 58.5772 49.76C59.2572 49.76 59.7472 49.97 60.1372 50.36V47.5H61.4172V55H60.1372V54.6C59.7472 54.99 59.2572 55.2 58.5772 55.2C56.9872 55.2 56.0172 53.95 56.0172 52.48ZM57.3472 52.48C57.3472 53.36 57.8972 54 58.7572 54C59.3272 54 59.7972 53.76 60.1372 53.3V51.66C59.7972 51.2 59.3272 50.96 58.7572 50.96C57.8972 50.96 57.3472 51.6 57.3472 52.48ZM63.5797 49.08C63.1297 49.08 62.7497 48.7 62.7497 48.25C62.7497 47.8 63.1297 47.42 63.5797 47.42C64.0297 47.42 64.3997 47.8 64.3997 48.25C64.3997 48.7 64.0297 49.08 63.5797 49.08ZM62.9397 55V49.96H64.2097V55H62.9397ZM65.2243 54.27L66.0643 53.51C66.3743 53.9 66.7443 54.18 67.2243 54.18C67.6343 54.18 67.8443 53.94 67.8443 53.64C67.8443 52.76 65.4343 53.09 65.4343 51.32C65.4343 50.43 66.1843 49.76 67.2343 49.76C68.0043 49.76 68.7043 50.13 69.0643 50.62L68.2243 51.36C67.9643 51.04 67.6343 50.78 67.2443 50.78C66.8443 50.78 66.6543 51 66.6543 51.26C66.6543 52.12 69.0643 51.82 69.0643 53.56C69.0443 54.62 68.1943 55.2 67.2443 55.2C66.3443 55.2 65.7043 54.84 65.2243 54.27ZM70.2346 57.46V49.96H71.5046V50.37C71.8946 49.98 72.3846 49.76 73.0746 49.76C74.6746 49.76 75.6346 51.01 75.6346 52.48C75.6346 53.95 74.6746 55.2 73.0746 55.2C72.3846 55.2 71.8946 54.98 71.5046 54.59V57.46H70.2346ZM72.8946 50.96C72.3046 50.96 71.8246 51.22 71.5046 51.69V53.27C71.8446 53.75 72.3146 54 72.8946 54C73.7546 54 74.3146 53.36 74.3146 52.48C74.3146 51.6 73.7546 50.96 72.8946 50.96ZM79.2459 49.76C80.8859 49.76 82.0059 50.97 82.0059 52.48C82.0059 53.99 80.8859 55.2 79.2459 55.2C77.6059 55.2 76.4859 53.99 76.4859 52.48C76.4859 50.97 77.6059 49.76 79.2459 49.76ZM79.2659 54C80.0759 54 80.6859 53.35 80.6859 52.48C80.6859 51.6 80.0759 50.96 79.2659 50.96C78.4259 50.96 77.8059 51.6 77.8059 52.48C77.8059 53.36 78.4259 54 79.2659 54ZM83.1643 55V49.96H84.4343V50.36C84.7843 50.02 85.2543 49.76 85.9243 49.76C87.0143 49.76 87.8843 50.51 87.8843 52V55H86.6043V52.05C86.6043 51.38 86.2243 50.96 85.6043 50.96C84.9643 50.96 84.6243 51.39 84.4343 51.71V55H83.1643ZM89.9664 49.08C89.5164 49.08 89.1364 48.7 89.1364 48.25C89.1364 47.8 89.5164 47.42 89.9664 47.42C90.4164 47.42 90.7864 47.8 90.7864 48.25C90.7864 48.7 90.4164 49.08 89.9664 49.08ZM89.3264 55V49.96H90.5964V55H89.3264ZM97.5194 52.48C97.5194 53.95 96.5594 55.2 94.9594 55.2C94.2694 55.2 93.7794 54.98 93.3894 54.59V55H92.1194V47.5H93.3894V50.37C93.7794 49.98 94.2694 49.76 94.9594 49.76C96.5594 49.76 97.5194 51.01 97.5194 52.48ZM94.7794 50.96C94.1894 50.96 93.6994 51.22 93.3894 51.68V53.28C93.7294 53.75 94.2094 54 94.7794 54C95.6394 54 96.1994 53.36 96.1994 52.48C96.1994 51.6 95.6394 50.96 94.7794 50.96ZM98.6819 55V47.5H99.9519V55H98.6819ZM106.115 54.18C105.645 54.81 104.865 55.2 103.915 55.2C102.125 55.2 101.115 53.95 101.115 52.48C101.115 50.99 102.055 49.76 103.705 49.76C105.105 49.76 106.025 50.71 106.025 52.03C106.025 52.31 105.985 52.57 105.945 52.74H102.415C102.535 53.68 103.115 54.06 103.905 54.06C104.455 54.06 104.935 53.82 105.205 53.46L106.115 54.18ZM103.675 50.8C103.025 50.8 102.595 51.16 102.455 51.82H104.775C104.755 51.31 104.385 50.8 103.675 50.8ZM106.758 54.27L107.598 53.51C107.907 53.9 108.278 54.18 108.758 54.18C109.168 54.18 109.377 53.94 109.377 53.64C109.377 52.76 106.968 53.09 106.968 51.32C106.968 50.43 107.718 49.76 108.768 49.76C109.538 49.76 110.238 50.13 110.598 50.62L109.758 51.36C109.498 51.04 109.168 50.78 108.778 50.78C108.378 50.78 108.188 51 108.188 51.26C108.188 52.12 110.598 51.82 110.598 53.56C110.578 54.62 109.728 55.2 108.778 55.2C107.878 55.2 107.238 54.84 106.758 54.27Z" fill="#161616"/>
<g clip-path="url(#clip3_2656_9303)">
<rect x="13" y="71" width="324" height="30" fill="white"/>
<rect x="13" y="71" width="324" height="30" stroke="#E5E5E5"/>
<path d="M31.5 89H24C23.7239 89 23.5 89.2239 23.5 89.5C23.5 89.7761 23.7239 90 24 90H31.5V91H24C23.1716 91 22.5 90.3285 22.5 89.5V82C22.5 81.4477 22.9477 81 23.5 81H31.5V89ZM23.5 88.025C23.5808 88.0086 23.6644 88 23.75 88H30.5V82H23.5V88.025ZM29 84.5H25V83.5H29V84.5Z" fill="#161616"/>
<path d="M38.11 90V83H39.05V89.14H41.87V90H38.11ZM47.546 89.17C47.076 89.8 46.326 90.2 45.386 90.2C43.686 90.2 42.636 88.95 42.636 87.48C42.636 85.95 43.616 84.76 45.176 84.76C46.546 84.76 47.436 85.72 47.436 86.96C47.436 87.16 47.406 87.35 47.376 87.49H43.506C43.536 88.7 44.306 89.43 45.386 89.43C46.036 89.43 46.586 89.13 46.916 88.68L47.546 89.17ZM45.156 85.48C44.326 85.48 43.746 85.97 43.566 86.84H46.586C46.556 86.1 46.046 85.48 45.156 85.48ZM48.2975 89.31L48.8975 88.8C49.2475 89.24 49.6675 89.49 50.1775 89.49C50.7375 89.49 51.0575 89.15 51.0575 88.71C51.0575 87.58 48.5375 87.98 48.5375 86.2C48.5375 85.41 49.2075 84.76 50.1775 84.76C50.8975 84.76 51.5175 85.1 51.8675 85.59L51.2775 86.09C51.0075 85.71 50.6275 85.47 50.1875 85.47C49.6475 85.47 49.3575 85.79 49.3575 86.18C49.3575 87.31 51.8875 86.95 51.8875 88.67C51.8775 89.61 51.1275 90.2 50.1875 90.2C49.3875 90.2 48.7575 89.88 48.2975 89.31ZM55.5364 87.48C55.5364 86.01 56.5464 84.76 58.1264 84.76C58.8764 84.76 59.4664 85.05 59.9164 85.56V82.5H60.7664V90H59.9164V89.4C59.4664 89.91 58.8764 90.2 58.1264 90.2C56.5464 90.2 55.5364 88.95 55.5364 87.48ZM56.4364 87.48C56.4364 88.55 57.1564 89.4 58.2264 89.4C58.9264 89.4 59.5464 89.06 59.9164 88.47V86.49C59.5264 85.89 58.9164 85.56 58.2264 85.56C57.1564 85.56 56.4364 86.41 56.4364 87.48ZM64.8582 84.76C66.4782 84.76 67.5882 86.01 67.5882 87.48C67.5882 88.95 66.4782 90.2 64.8582 90.2C63.2282 90.2 62.1282 88.95 62.1282 87.48C62.1282 86.01 63.2282 84.76 64.8582 84.76ZM64.8682 89.4C65.9182 89.4 66.6882 88.52 66.6882 87.48C66.6882 86.43 65.9182 85.56 64.8682 85.56C63.7882 85.56 63.0182 86.43 63.0182 87.48C63.0182 88.53 63.7882 89.4 64.8682 89.4ZM68.9547 90V84.96H69.8047V85.53C70.2147 85.08 70.7347 84.76 71.4847 84.76C72.6147 84.76 73.4547 85.52 73.4547 86.95V90H72.6047V86.98C72.6047 86.08 72.0947 85.56 71.3147 85.56C70.5847 85.56 70.1247 85.98 69.8047 86.51V90H68.9547ZM75.1656 90V84.96H76.0156V85.53C76.4256 85.08 76.9456 84.76 77.6956 84.76C78.8256 84.76 79.6656 85.52 79.6656 86.95V90H78.8156V86.98C78.8156 86.08 78.3056 85.56 77.5256 85.56C76.7956 85.56 76.3356 85.98 76.0156 86.51V90H75.1656ZM83.9366 84.16H83.1066L84.1466 82.5H85.1066L83.9366 84.16ZM85.8566 89.17C85.3866 89.8 84.6366 90.2 83.6966 90.2C81.9966 90.2 80.9466 88.95 80.9466 87.48C80.9466 85.95 81.9266 84.76 83.4866 84.76C84.8566 84.76 85.7466 85.72 85.7466 86.96C85.7466 87.16 85.7166 87.35 85.6866 87.49H81.8166C81.8466 88.7 82.6166 89.43 83.6966 89.43C84.3466 89.43 84.8966 89.13 85.2266 88.68L85.8566 89.17ZM83.4666 85.48C82.6366 85.48 82.0566 85.97 81.8766 86.84H84.8966C84.8666 86.1 84.3566 85.48 83.4666 85.48ZM91.6476 89.17C91.1776 89.8 90.4276 90.2 89.4876 90.2C87.7876 90.2 86.7376 88.95 86.7376 87.48C86.7376 85.95 87.7176 84.76 89.2776 84.76C90.6476 84.76 91.5376 85.72 91.5376 86.96C91.5376 87.16 91.5076 87.35 91.4776 87.49H87.6076C87.6376 88.7 88.4076 89.43 89.4876 89.43C90.1376 89.43 90.6876 89.13 91.0176 88.68L91.6476 89.17ZM89.2576 85.48C88.4276 85.48 87.8476 85.97 87.6676 86.84H90.6876C90.6576 86.1 90.1476 85.48 89.2576 85.48ZM92.3991 89.31L92.9991 88.8C93.3491 89.24 93.7691 89.49 94.2791 89.49C94.8391 89.49 95.1591 89.15 95.1591 88.71C95.1591 87.58 92.6391 87.98 92.6391 86.2C92.6391 85.41 93.3091 84.76 94.2791 84.76C94.9991 84.76 95.6191 85.1 95.9691 85.59L95.3791 86.09C95.1091 85.71 94.7291 85.47 94.2891 85.47C93.7491 85.47 93.4591 85.79 93.4591 86.18C93.4591 87.31 95.9891 86.95 95.9891 88.67C95.9791 89.61 95.2291 90.2 94.2891 90.2C93.4891 90.2 92.8591 89.88 92.3991 89.31ZM102.368 84.76C103.988 84.76 105.098 86.01 105.098 87.48C105.098 88.95 103.988 90.2 102.368 90.2C100.738 90.2 99.638 88.95 99.638 87.48C99.638 86.01 100.738 84.76 102.368 84.76ZM102.378 89.4C103.428 89.4 104.198 88.52 104.198 87.48C104.198 86.43 103.428 85.56 102.378 85.56C101.298 85.56 100.528 86.43 100.528 87.48C100.528 88.53 101.298 89.4 102.378 89.4ZM109.974 87.84V84.96H110.824V87.81C110.824 89.32 109.954 90.2 108.584 90.2C107.224 90.2 106.354 89.32 106.354 87.81V84.96H107.204V87.84C107.204 88.83 107.734 89.4 108.594 89.4C109.434 89.4 109.974 88.83 109.974 87.84ZM111.779 84.96H112.699L114.309 89.11L115.919 84.96H116.839L114.869 90H113.749L111.779 84.96ZM122.282 89.17C121.812 89.8 121.062 90.2 120.122 90.2C118.422 90.2 117.372 88.95 117.372 87.48C117.372 85.95 118.352 84.76 119.912 84.76C121.282 84.76 122.172 85.72 122.172 86.96C122.172 87.16 122.142 87.35 122.112 87.49H118.242C118.272 88.7 119.042 89.43 120.122 89.43C120.772 89.43 121.322 89.13 121.652 88.68L122.282 89.17ZM119.892 85.48C119.062 85.48 118.482 85.97 118.302 86.84H121.322C121.292 86.1 120.782 85.48 119.892 85.48ZM123.613 90V84.96H124.463V85.59C124.833 85.15 125.293 84.86 125.933 84.86C126.093 84.86 126.243 84.88 126.363 84.92V85.75C126.213 85.71 126.063 85.69 125.863 85.69C125.203 85.69 124.773 86.03 124.463 86.54V90H123.613ZM128.112 88.31V85.73H127.162V84.96H128.112V83.7H128.972V84.96H130.722V85.73H128.972V88.31C128.972 89.1 129.372 89.32 129.982 89.32C130.312 89.32 130.542 89.28 130.732 89.2V89.96C130.492 90.06 130.222 90.1 129.862 90.1C128.742 90.1 128.112 89.54 128.112 88.31ZM136.403 89.17C135.933 89.8 135.183 90.2 134.243 90.2C132.543 90.2 131.493 88.95 131.493 87.48C131.493 85.95 132.473 84.76 134.033 84.76C135.403 84.76 136.293 85.72 136.293 86.96C136.293 87.16 136.263 87.35 136.233 87.49H132.363C132.393 88.7 133.163 89.43 134.243 89.43C134.893 89.43 135.443 89.13 135.773 88.68L136.403 89.17ZM134.013 85.48C133.183 85.48 132.603 85.97 132.423 86.84H135.443C135.413 86.1 134.903 85.48 134.013 85.48ZM137.155 89.31L137.755 88.8C138.105 89.24 138.525 89.49 139.035 89.49C139.595 89.49 139.915 89.15 139.915 88.71C139.915 87.58 137.395 87.98 137.395 86.2C137.395 85.41 138.065 84.76 139.035 84.76C139.755 84.76 140.375 85.1 140.725 85.59L140.135 86.09C139.865 85.71 139.485 85.47 139.045 85.47C138.505 85.47 138.215 85.79 138.215 86.18C138.215 87.31 140.745 86.95 140.745 88.67C140.735 89.61 139.985 90.2 139.045 90.2C138.245 90.2 137.615 89.88 137.155 89.31ZM145.284 86.12C144.924 86.12 144.634 85.83 144.634 85.48C144.634 85.13 144.924 84.85 145.284 84.85C145.644 84.85 145.924 85.13 145.924 85.48C145.924 85.83 145.644 86.12 145.284 86.12ZM145.284 90.11C144.924 90.11 144.634 89.83 144.634 89.48C144.634 89.13 144.924 88.84 145.284 88.84C145.644 88.84 145.924 89.13 145.924 89.48C145.924 89.83 145.644 90.11 145.284 90.11ZM149.784 87.48C149.784 86.01 150.794 84.76 152.374 84.76C153.124 84.76 153.714 85.05 154.164 85.57V84.96H155.014V92.46H154.164V89.39C153.714 89.91 153.124 90.2 152.374 90.2C150.794 90.2 149.784 88.95 149.784 87.48ZM150.674 87.48C150.674 88.55 151.404 89.4 152.464 89.4C153.174 89.4 153.784 89.06 154.164 88.46V86.5C153.774 85.89 153.164 85.56 152.464 85.56C151.404 85.56 150.674 86.41 150.674 87.48ZM160.326 87.84V84.96H161.176V87.81C161.176 89.32 160.306 90.2 158.936 90.2C157.576 90.2 156.706 89.32 156.706 87.81V84.96H157.556V87.84C157.556 88.83 158.086 89.4 158.946 89.4C159.786 89.4 160.326 88.83 160.326 87.84ZM163.181 85.68H162.391L163.241 83H164.211L163.181 85.68ZM169.392 89.17C168.922 89.8 168.172 90.2 167.232 90.2C165.532 90.2 164.482 88.95 164.482 87.48C164.482 85.95 165.462 84.76 167.022 84.76C168.392 84.76 169.282 85.72 169.282 86.96C169.282 87.16 169.252 87.35 169.222 87.49H165.352C165.382 88.7 166.152 89.43 167.232 89.43C167.882 89.43 168.432 89.13 168.762 88.68L169.392 89.17ZM167.002 85.48C166.172 85.48 165.592 85.97 165.412 86.84H168.432C168.402 86.1 167.892 85.48 167.002 85.48ZM170.143 89.31L170.743 88.8C171.093 89.24 171.513 89.49 172.023 89.49C172.583 89.49 172.903 89.15 172.903 88.71C172.903 87.58 170.383 87.98 170.383 86.2C170.383 85.41 171.053 84.76 172.023 84.76C172.743 84.76 173.363 85.1 173.713 85.59L173.123 86.09C172.853 85.71 172.473 85.47 172.033 85.47C171.493 85.47 171.203 85.79 171.203 86.18C171.203 87.31 173.733 86.95 173.733 88.67C173.723 89.61 172.973 90.2 172.033 90.2C171.233 90.2 170.603 89.88 170.143 89.31ZM175.446 88.31V85.73H174.496V84.96H175.446V83.7H176.306V84.96H178.056V85.73H176.306V88.31C176.306 89.1 176.706 89.32 177.316 89.32C177.646 89.32 177.876 89.28 178.066 89.2V89.96C177.826 90.06 177.556 90.1 177.196 90.1C176.076 90.1 175.446 89.54 175.446 88.31ZM178.333 87.03H181.033V87.85H178.333V87.03ZM184.644 89.4C185.264 89.4 185.774 89.1 186.084 88.66L186.754 89.17C186.284 89.8 185.554 90.2 184.634 90.2C182.964 90.2 181.894 88.95 181.894 87.48C181.894 86.01 182.964 84.76 184.634 84.76C185.544 84.76 186.284 85.17 186.754 85.79L186.084 86.3C185.774 85.86 185.264 85.56 184.634 85.56C183.554 85.56 182.784 86.41 182.784 87.48C182.784 88.56 183.554 89.4 184.644 89.4ZM192.204 89.17C191.734 89.8 190.984 90.2 190.044 90.2C188.344 90.2 187.294 88.95 187.294 87.48C187.294 85.95 188.274 84.76 189.834 84.76C191.204 84.76 192.094 85.72 192.094 86.96C192.094 87.16 192.064 87.35 192.034 87.49H188.164C188.194 88.7 188.964 89.43 190.044 89.43C190.694 89.43 191.244 89.13 191.574 88.68L192.204 89.17ZM189.814 85.48C188.984 85.48 188.404 85.97 188.224 86.84H191.244C191.214 86.1 190.704 85.48 189.814 85.48ZM195.8 87.48C195.8 86.01 196.81 84.76 198.39 84.76C199.14 84.76 199.73 85.05 200.18 85.57V84.96H201.03V92.46H200.18V89.39C199.73 89.91 199.14 90.2 198.39 90.2C196.81 90.2 195.8 88.95 195.8 87.48ZM196.69 87.48C196.69 88.55 197.42 89.4 198.48 89.4C199.19 89.4 199.8 89.06 200.18 88.46V86.5C199.79 85.89 199.18 85.56 198.48 85.56C197.42 85.56 196.69 86.41 196.69 87.48ZM206.342 87.84V84.96H207.192V87.81C207.192 89.32 206.322 90.2 204.952 90.2C203.592 90.2 202.722 89.32 202.722 87.81V84.96H203.572V87.84C203.572 88.83 204.102 89.4 204.962 89.4C205.802 89.4 206.342 88.83 206.342 87.84ZM213.347 89.17C212.877 89.8 212.127 90.2 211.187 90.2C209.487 90.2 208.437 88.95 208.437 87.48C208.437 85.95 209.417 84.76 210.977 84.76C212.347 84.76 213.237 85.72 213.237 86.96C213.237 87.16 213.207 87.35 213.177 87.49H209.307C209.337 88.7 210.107 89.43 211.187 89.43C211.837 89.43 212.387 89.13 212.717 88.68L213.347 89.17ZM210.957 85.48C210.127 85.48 209.547 85.97 209.367 86.84H212.387C212.357 86.1 211.847 85.48 210.957 85.48ZM219.693 89.4C220.313 89.4 220.823 89.1 221.133 88.66L221.803 89.17C221.333 89.8 220.603 90.2 219.683 90.2C218.013 90.2 216.943 88.95 216.943 87.48C216.943 86.01 218.013 84.76 219.683 84.76C220.593 84.76 221.333 85.17 221.803 85.79L221.133 86.3C220.823 85.86 220.313 85.56 219.683 85.56C218.603 85.56 217.833 86.41 217.833 87.48C217.833 88.56 218.603 89.4 219.693 89.4ZM223.63 85.68H222.84L223.69 83H224.66L223.63 85.68ZM229.841 89.17C229.371 89.8 228.621 90.2 227.681 90.2C225.981 90.2 224.931 88.95 224.931 87.48C224.931 85.95 225.911 84.76 227.471 84.76C228.841 84.76 229.731 85.72 229.731 86.96C229.731 87.16 229.701 87.35 229.671 87.49H225.801C225.831 88.7 226.601 89.43 227.681 89.43C228.331 89.43 228.881 89.13 229.211 88.68L229.841 89.17ZM227.451 85.48C226.621 85.48 226.041 85.97 225.861 86.84H228.881C228.851 86.1 228.341 85.48 227.451 85.48ZM230.592 89.31L231.192 88.8C231.542 89.24 231.962 89.49 232.472 89.49C233.032 89.49 233.352 89.15 233.352 88.71C233.352 87.58 230.832 87.98 230.832 86.2C230.832 85.41 231.502 84.76 232.472 84.76C233.192 84.76 233.812 85.1 234.162 85.59L233.572 86.09C233.302 85.71 232.922 85.47 232.482 85.47C231.942 85.47 231.652 85.79 231.652 86.18C231.652 87.31 234.182 86.95 234.182 88.67C234.172 89.61 233.422 90.2 232.482 90.2C231.682 90.2 231.052 89.88 230.592 89.31ZM235.895 88.31V85.73H234.945V84.96H235.895V83.7H236.755V84.96H238.505V85.73H236.755V88.31C236.755 89.1 237.155 89.32 237.765 89.32C238.095 89.32 238.325 89.28 238.515 89.2V89.96C238.275 90.06 238.005 90.1 237.645 90.1C236.525 90.1 235.895 89.54 235.895 88.31ZM243.39 87.96L243.29 86.44C244.7 86.28 245.47 85.8 245.47 84.85C245.47 84.13 244.93 83.59 244.2 83.59C243.58 83.59 243.16 83.88 242.74 84.46L242 84C242.52 83.26 243.2 82.8 244.23 82.8C245.43 82.8 246.39 83.66 246.39 84.84C246.39 86.07 245.44 86.83 244.1 87.06L244.05 87.96H243.39ZM243.73 90.11C243.38 90.11 243.09 89.82 243.09 89.47C243.09 89.13 243.38 88.84 243.73 88.84C244.08 88.84 244.37 89.13 244.37 89.47C244.37 89.82 244.08 90.11 243.73 90.11Z" fill="#161616"/>
<rect x="13" y="101" width="324" height="30" fill="white"/>
<rect x="13" y="101" width="324" height="30" stroke="#E5E5E5"/>
<path d="M31.5 119H24C23.7239 119 23.5 119.224 23.5 119.5C23.5 119.776 23.7239 120 24 120H31.5V121H24C23.1716 121 22.5 120.328 22.5 119.5V112C22.5 111.448 22.9477 111 23.5 111H31.5V119ZM23.5 118.025C23.5808 118.009 23.6644 118 23.75 118H30.5V112H23.5V118.025ZM29 114.5H25V113.5H29V114.5Z" fill="#161616"/>
<path d="M40.28 112.4L39 111.05H40.02L41.15 112.4H40.28ZM37.27 120L40.06 113H41.32L44.11 120H43.11L42.3 117.94H39.08L38.27 120H37.27ZM39.39 117.13H41.99L40.69 113.82L39.39 117.13ZM47.5481 117.48C47.5481 116.01 48.5581 114.76 50.1381 114.76C50.8881 114.76 51.4781 115.05 51.9281 115.57V114.96H52.7781V122.46H51.9281V119.39C51.4781 119.91 50.8881 120.2 50.1381 120.2C48.5581 120.2 47.5481 118.95 47.5481 117.48ZM48.4381 117.48C48.4381 118.55 49.1681 119.4 50.2281 119.4C50.9381 119.4 51.5481 119.06 51.9281 118.46V116.5C51.5381 115.89 50.9281 115.56 50.2281 115.56C49.1681 115.56 48.4381 116.41 48.4381 117.48ZM58.0897 117.84V114.96H58.9397V117.81C58.9397 119.32 58.0697 120.2 56.6997 120.2C55.3397 120.2 54.4697 119.32 54.4697 117.81V114.96H55.3197V117.84C55.3197 118.83 55.8497 119.4 56.7097 119.4C57.5497 119.4 58.0897 118.83 58.0897 117.84ZM62.9148 114.76C64.5348 114.76 65.6448 116.01 65.6448 117.48C65.6448 118.95 64.5348 120.2 62.9148 120.2C61.2848 120.2 60.1848 118.95 60.1848 117.48C60.1848 116.01 61.2848 114.76 62.9148 114.76ZM62.9248 119.4C63.9748 119.4 64.7448 118.52 64.7448 117.48C64.7448 116.43 63.9748 115.56 62.9248 115.56C61.8448 115.56 61.0748 116.43 61.0748 117.48C61.0748 118.53 61.8448 119.4 62.9248 119.4ZM67.4413 113.65C67.1113 113.65 66.8413 113.38 66.8413 113.05C66.8413 112.73 67.1113 112.46 67.4413 112.46C67.7713 112.46 68.0313 112.73 68.0313 113.05C68.0313 113.38 67.7713 113.65 67.4413 113.65ZM67.0113 120V114.96H67.8613V120H67.0113ZM71.8131 119.31L72.4131 118.8C72.7631 119.24 73.1831 119.49 73.6931 119.49C74.2531 119.49 74.5731 119.15 74.5731 118.71C74.5731 117.58 72.0531 117.98 72.0531 116.2C72.0531 115.41 72.7231 114.76 73.6931 114.76C74.4131 114.76 75.0331 115.1 75.3831 115.59L74.7931 116.09C74.5231 115.71 74.1431 115.47 73.7031 115.47C73.1631 115.47 72.8731 115.79 72.8731 116.18C72.8731 117.31 75.4031 116.95 75.4031 118.67C75.3931 119.61 74.6431 120.2 73.7031 120.2C72.9031 120.2 72.2731 119.88 71.8131 119.31ZM81.2081 119.17C80.7381 119.8 79.9881 120.2 79.0481 120.2C77.3481 120.2 76.2981 118.95 76.2981 117.48C76.2981 115.95 77.2781 114.76 78.8381 114.76C80.2081 114.76 81.0981 115.72 81.0981 116.96C81.0981 117.16 81.0681 117.35 81.0381 117.49H77.1681C77.1981 118.7 77.9681 119.43 79.0481 119.43C79.6981 119.43 80.2481 119.13 80.5781 118.68L81.2081 119.17ZM78.8181 115.48C77.9881 115.48 77.4081 115.97 77.2281 116.84H80.2481C80.2181 116.1 79.7081 115.48 78.8181 115.48ZM82.5387 120V114.96H83.3887V115.59C83.7587 115.15 84.2187 114.86 84.8587 114.86C85.0187 114.86 85.1687 114.88 85.2887 114.92V115.75C85.1387 115.71 84.9887 115.69 84.7887 115.69C84.1287 115.69 83.6987 116.03 83.3887 116.54V120H82.5387ZM85.9291 114.96H86.8491L88.4591 119.11L90.0691 114.96H90.9891L89.0191 120H87.8991L85.9291 114.96ZM96.4327 119.17C95.9627 119.8 95.2127 120.2 94.2727 120.2C92.5727 120.2 91.5227 118.95 91.5227 117.48C91.5227 115.95 92.5027 114.76 94.0627 114.76C95.4327 114.76 96.3227 115.72 96.3227 116.96C96.3227 117.16 96.2927 117.35 96.2627 117.49H92.3927C92.4227 118.7 93.1927 119.43 94.2727 119.43C94.9227 119.43 95.4727 119.13 95.8027 118.68L96.4327 119.17ZM94.0427 115.48C93.2127 115.48 92.6327 115.97 92.4527 116.84H95.4727C95.4427 116.1 94.9327 115.48 94.0427 115.48ZM97.7633 120V114.96H98.6133V115.53C99.0233 115.08 99.5433 114.76 100.293 114.76C101.423 114.76 102.263 115.52 102.263 116.95V120H101.413V116.98C101.413 116.08 100.903 115.56 100.123 115.56C99.3933 115.56 98.9333 115.98 98.6133 116.51V120H97.7633ZM104.264 118.31V115.73H103.314V114.96H104.264V113.7H105.124V114.96H106.874V115.73H105.124V118.31C105.124 119.1 105.524 119.32 106.134 119.32C106.464 119.32 106.694 119.28 106.884 119.2V119.96C106.644 120.06 106.374 120.1 106.014 120.1C104.894 120.1 104.264 119.54 104.264 118.31ZM110.869 120V112.5H111.719V120H110.869ZM117.995 119.17C117.525 119.8 116.775 120.2 115.835 120.2C114.135 120.2 113.085 118.95 113.085 117.48C113.085 115.95 114.065 114.76 115.625 114.76C116.995 114.76 117.885 115.72 117.885 116.96C117.885 117.16 117.855 117.35 117.825 117.49H113.955C113.985 118.7 114.755 119.43 115.835 119.43C116.485 119.43 117.035 119.13 117.365 118.68L117.995 119.17ZM115.605 115.48C114.775 115.48 114.195 115.97 114.015 116.84H117.035C117.005 116.1 116.495 115.48 115.605 115.48ZM118.747 119.31L119.347 118.8C119.697 119.24 120.117 119.49 120.627 119.49C121.187 119.49 121.507 119.15 121.507 118.71C121.507 117.58 118.987 117.98 118.987 116.2C118.987 115.41 119.657 114.76 120.627 114.76C121.347 114.76 121.967 115.1 122.317 115.59L121.727 116.09C121.457 115.71 121.077 115.47 120.637 115.47C120.097 115.47 119.807 115.79 119.807 116.18C119.807 117.31 122.337 116.95 122.337 118.67C122.327 119.61 121.577 120.2 120.637 120.2C119.837 120.2 119.207 119.88 118.747 119.31ZM125.986 117.48C125.986 116.01 126.996 114.76 128.576 114.76C129.326 114.76 129.916 115.05 130.366 115.56V112.5H131.216V120H130.366V119.4C129.916 119.91 129.326 120.2 128.576 120.2C126.996 120.2 125.986 118.95 125.986 117.48ZM126.886 117.48C126.886 118.55 127.606 119.4 128.676 119.4C129.376 119.4 129.996 119.06 130.366 118.47V116.49C129.976 115.89 129.366 115.56 128.676 115.56C127.606 115.56 126.886 116.41 126.886 117.48ZM135.307 114.76C136.927 114.76 138.037 116.01 138.037 117.48C138.037 118.95 136.927 120.2 135.307 120.2C133.677 120.2 132.577 118.95 132.577 117.48C132.577 116.01 133.677 114.76 135.307 114.76ZM135.317 119.4C136.367 119.4 137.137 118.52 137.137 117.48C137.137 116.43 136.367 115.56 135.317 115.56C134.237 115.56 133.467 116.43 133.467 117.48C133.467 118.53 134.237 119.4 135.317 119.4ZM139.404 120V114.96H140.254V115.53C140.664 115.08 141.184 114.76 141.934 114.76C143.064 114.76 143.904 115.52 143.904 116.95V120H143.054V116.98C143.054 116.08 142.544 115.56 141.764 115.56C141.034 115.56 140.574 115.98 140.254 116.51V120H139.404ZM145.615 120V114.96H146.465V115.53C146.875 115.08 147.395 114.76 148.145 114.76C149.275 114.76 150.115 115.52 150.115 116.95V120H149.265V116.98C149.265 116.08 148.755 115.56 147.975 115.56C147.245 115.56 146.785 115.98 146.465 116.51V120H145.615ZM154.386 114.16H153.556L154.596 112.5H155.556L154.386 114.16ZM156.306 119.17C155.836 119.8 155.086 120.2 154.146 120.2C152.446 120.2 151.396 118.95 151.396 117.48C151.396 115.95 152.376 114.76 153.936 114.76C155.306 114.76 156.196 115.72 156.196 116.96C156.196 117.16 156.166 117.35 156.136 117.49H152.266C152.296 118.7 153.066 119.43 154.146 119.43C154.796 119.43 155.346 119.13 155.676 118.68L156.306 119.17ZM153.916 115.48C153.086 115.48 152.506 115.97 152.326 116.84H155.346C155.316 116.1 154.806 115.48 153.916 115.48ZM162.097 119.17C161.627 119.8 160.877 120.2 159.937 120.2C158.237 120.2 157.187 118.95 157.187 117.48C157.187 115.95 158.167 114.76 159.727 114.76C161.097 114.76 161.987 115.72 161.987 116.96C161.987 117.16 161.957 117.35 161.927 117.49H158.057C158.087 118.7 158.857 119.43 159.937 119.43C160.587 119.43 161.137 119.13 161.467 118.68L162.097 119.17ZM159.707 115.48C158.877 115.48 158.297 115.97 158.117 116.84H161.137C161.107 116.1 160.597 115.48 159.707 115.48ZM162.848 119.31L163.448 118.8C163.798 119.24 164.218 119.49 164.728 119.49C165.288 119.49 165.608 119.15 165.608 118.71C165.608 117.58 163.088 117.98 163.088 116.2C163.088 115.41 163.758 114.76 164.728 114.76C165.448 114.76 166.068 115.1 166.418 115.59L165.828 116.09C165.558 115.71 165.178 115.47 164.738 115.47C164.198 115.47 163.908 115.79 163.908 116.18C163.908 117.31 166.438 116.95 166.438 118.67C166.428 119.61 165.678 120.2 164.738 120.2C163.938 120.2 163.308 119.88 162.848 119.31ZM172.817 114.76C174.437 114.76 175.547 116.01 175.547 117.48C175.547 118.95 174.437 120.2 172.817 120.2C171.187 120.2 170.087 118.95 170.087 117.48C170.087 116.01 171.187 114.76 172.817 114.76ZM172.827 119.4C173.877 119.4 174.647 118.52 174.647 117.48C174.647 116.43 173.877 115.56 172.827 115.56C171.747 115.56 170.977 116.43 170.977 117.48C170.977 118.53 171.747 119.4 172.827 119.4ZM180.424 117.84V114.96H181.274V117.81C181.274 119.32 180.404 120.2 179.034 120.2C177.674 120.2 176.804 119.32 176.804 117.81V114.96H177.654V117.84C177.654 118.83 178.184 119.4 179.044 119.4C179.884 119.4 180.424 118.83 180.424 117.84ZM182.228 114.96H183.148L184.758 119.11L186.368 114.96H187.288L185.318 120H184.198L182.228 114.96ZM192.732 119.17C192.262 119.8 191.512 120.2 190.572 120.2C188.872 120.2 187.822 118.95 187.822 117.48C187.822 115.95 188.802 114.76 190.362 114.76C191.732 114.76 192.622 115.72 192.622 116.96C192.622 117.16 192.592 117.35 192.562 117.49H188.692C188.722 118.7 189.492 119.43 190.572 119.43C191.222 119.43 191.772 119.13 192.102 118.68L192.732 119.17ZM190.342 115.48C189.512 115.48 188.932 115.97 188.752 116.84H191.772C191.742 116.1 191.232 115.48 190.342 115.48ZM194.062 120V114.96H194.912V115.59C195.282 115.15 195.742 114.86 196.382 114.86C196.542 114.86 196.692 114.88 196.812 114.92V115.75C196.662 115.71 196.512 115.69 196.312 115.69C195.652 115.69 195.222 116.03 194.912 116.54V120H194.062ZM198.561 118.31V115.73H197.611V114.96H198.561V113.7H199.421V114.96H201.171V115.73H199.421V118.31C199.421 119.1 199.821 119.32 200.431 119.32C200.761 119.32 200.991 119.28 201.181 119.2V119.96C200.941 120.06 200.671 120.1 200.311 120.1C199.191 120.1 198.561 119.54 198.561 118.31ZM206.853 119.17C206.383 119.8 205.633 120.2 204.693 120.2C202.993 120.2 201.943 118.95 201.943 117.48C201.943 115.95 202.923 114.76 204.483 114.76C205.853 114.76 206.743 115.72 206.743 116.96C206.743 117.16 206.713 117.35 206.683 117.49H202.813C202.843 118.7 203.613 119.43 204.693 119.43C205.343 119.43 205.893 119.13 206.223 118.68L206.853 119.17ZM204.463 115.48C203.633 115.48 203.053 115.97 202.873 116.84H205.893C205.863 116.1 205.353 115.48 204.463 115.48ZM207.604 119.31L208.204 118.8C208.554 119.24 208.974 119.49 209.484 119.49C210.044 119.49 210.364 119.15 210.364 118.71C210.364 117.58 207.844 117.98 207.844 116.2C207.844 115.41 208.514 114.76 209.484 114.76C210.204 114.76 210.824 115.1 211.174 115.59L210.584 116.09C210.314 115.71 209.934 115.47 209.494 115.47C208.954 115.47 208.664 115.79 208.664 116.18C208.664 117.31 211.194 116.95 211.194 118.67C211.184 119.61 210.434 120.2 209.494 120.2C208.694 120.2 208.064 119.88 207.604 119.31ZM216.163 117.96L216.063 116.44C217.473 116.28 218.243 115.8 218.243 114.85C218.243 114.13 217.703 113.59 216.973 113.59C216.353 113.59 215.933 113.88 215.513 114.46L214.773 114C215.293 113.26 215.973 112.8 217.003 112.8C218.203 112.8 219.163 113.66 219.163 114.84C219.163 116.07 218.213 116.83 216.873 117.06L216.823 117.96H216.163ZM216.503 120.11C216.153 120.11 215.863 119.82 215.863 119.47C215.863 119.13 216.153 118.84 216.503 118.84C216.853 118.84 217.143 119.13 217.143 119.47C217.143 119.82 216.853 120.11 216.503 120.11Z" fill="#161616"/>
<rect x="13" y="131" width="324" height="30" fill="white"/>
<rect x="13" y="131" width="324" height="30" stroke="#E5E5E5"/>
<path d="M31.5 149H24C23.7239 149 23.5 149.224 23.5 149.5C23.5 149.776 23.7239 150 24 150H31.5V151H24C23.1716 151 22.5 150.328 22.5 149.5V142C22.5 141.448 22.9477 141 23.5 141H31.5V149ZM23.5 148.025C23.5808 148.009 23.6644 148 23.75 148H30.5V142H23.5V148.025ZM29 144.5H25V143.5H29V144.5Z" fill="#161616"/>
<path d="M41.19 149.32C42.13 149.32 42.9 148.86 43.37 148.18L44.12 148.76C43.48 149.63 42.45 150.2 41.19 150.2C39 150.2 37.51 148.5 37.51 146.5C37.51 144.5 39 142.8 41.19 142.8C42.45 142.8 43.48 143.38 44.12 144.24L43.37 144.82C42.9 144.14 42.13 143.68 41.19 143.68C39.61 143.68 38.48 144.94 38.48 146.5C38.48 148.06 39.61 149.32 41.19 149.32ZM47.6707 144.76C49.2907 144.76 50.4007 146.01 50.4007 147.48C50.4007 148.95 49.2907 150.2 47.6707 150.2C46.0407 150.2 44.9407 148.95 44.9407 147.48C44.9407 146.01 46.0407 144.76 47.6707 144.76ZM47.6807 149.4C48.7307 149.4 49.5007 148.52 49.5007 147.48C49.5007 146.43 48.7307 145.56 47.6807 145.56C46.6007 145.56 45.8307 146.43 45.8307 147.48C45.8307 148.53 46.6007 149.4 47.6807 149.4ZM51.7672 150V144.96H52.6172V145.51C52.9972 145.07 53.4972 144.76 54.1972 144.76C54.9272 144.76 55.5272 145.09 55.8372 145.73C56.2372 145.18 56.7672 144.76 57.6372 144.76C58.7172 144.76 59.5072 145.48 59.5072 146.85V150H58.6572V146.88C58.6572 146.04 58.1872 145.56 57.4672 145.56C56.8272 145.56 56.3772 145.92 56.0472 146.51C56.0572 146.62 56.0672 146.73 56.0672 146.85V150H55.2172V146.88C55.2172 146.04 54.7572 145.56 54.0272 145.56C53.3372 145.56 52.9072 145.99 52.6172 146.51V150H51.7672ZM61.2203 150V144.96H62.0703V145.51C62.4503 145.07 62.9503 144.76 63.6503 144.76C64.3803 144.76 64.9803 145.09 65.2903 145.73C65.6903 145.18 66.2203 144.76 67.0903 144.76C68.1703 144.76 68.9603 145.48 68.9603 146.85V150H68.1103V146.88C68.1103 146.04 67.6403 145.56 66.9203 145.56C66.2803 145.56 65.8303 145.92 65.5003 146.51C65.5103 146.62 65.5203 146.73 65.5203 146.85V150H64.6703V146.88C64.6703 146.04 64.2103 145.56 63.4803 145.56C62.7903 145.56 62.3603 145.99 62.0703 146.51V150H61.2203ZM75.1534 149.17C74.6834 149.8 73.9334 150.2 72.9934 150.2C71.2934 150.2 70.2434 148.95 70.2434 147.48C70.2434 145.95 71.2234 144.76 72.7834 144.76C74.1534 144.76 75.0434 145.72 75.0434 146.96C75.0434 147.16 75.0134 147.35 74.9834 147.49H71.1134C71.1434 148.7 71.9134 149.43 72.9934 149.43C73.6434 149.43 74.1934 149.13 74.5234 148.68L75.1534 149.17ZM72.7634 145.48C71.9334 145.48 71.3534 145.97 71.1734 146.84H74.1934C74.1634 146.1 73.6534 145.48 72.7634 145.48ZM76.484 150V144.96H77.334V145.53C77.744 145.08 78.264 144.76 79.014 144.76C80.144 144.76 80.984 145.52 80.984 146.95V150H80.134V146.98C80.134 146.08 79.624 145.56 78.844 145.56C78.114 145.56 77.654 145.98 77.334 146.51V150H76.484ZM82.9849 148.31V145.73H82.0349V144.96H82.9849V143.7H83.8449V144.96H85.5949V145.73H83.8449V148.31C83.8449 149.1 84.2449 149.32 84.8549 149.32C85.1849 149.32 85.4149 149.28 85.6049 149.2V149.96C85.3649 150.06 85.0949 150.1 84.7349 150.1C83.6149 150.1 82.9849 149.54 82.9849 148.31ZM94.0695 149.17C93.5995 149.8 92.8495 150.2 91.9095 150.2C90.2095 150.2 89.1595 148.95 89.1595 147.48C89.1595 145.95 90.1395 144.76 91.6995 144.76C93.0695 144.76 93.9595 145.72 93.9595 146.96C93.9595 147.16 93.9295 147.35 93.8995 147.49H90.0295C90.0595 148.7 90.8295 149.43 91.9095 149.43C92.5595 149.43 93.1095 149.13 93.4395 148.68L94.0695 149.17ZM91.6795 145.48C90.8495 145.48 90.2695 145.97 90.0895 146.84H93.1095C93.0795 146.1 92.5695 145.48 91.6795 145.48ZM95.6223 150H94.6323L96.4923 147.39L94.7723 144.96H95.7423L97.0523 146.82L98.3623 144.96H99.3423L97.6123 147.39L99.4723 150H98.5023L97.0623 147.96L95.6223 150ZM100.605 152.46V144.96H101.455V145.56C101.905 145.05 102.495 144.76 103.245 144.76C104.825 144.76 105.835 146.01 105.835 147.48C105.835 148.95 104.825 150.2 103.245 150.2C102.495 150.2 101.905 149.91 101.455 149.4V152.46H100.605ZM103.145 145.56C102.445 145.56 101.835 145.9 101.455 146.5V148.46C101.845 149.07 102.455 149.4 103.145 149.4C104.215 149.4 104.945 148.55 104.945 147.48C104.945 146.41 104.215 145.56 103.145 145.56ZM107.207 150V142.5H108.057V150H107.207ZM112.153 144.76C113.773 144.76 114.883 146.01 114.883 147.48C114.883 148.95 113.773 150.2 112.153 150.2C110.523 150.2 109.423 148.95 109.423 147.48C109.423 146.01 110.523 144.76 112.153 144.76ZM112.163 149.4C113.213 149.4 113.983 148.52 113.983 147.48C113.983 146.43 113.213 145.56 112.163 145.56C111.083 145.56 110.313 146.43 110.313 147.48C110.313 148.53 111.083 149.4 112.163 149.4ZM116.68 143.65C116.35 143.65 116.08 143.38 116.08 143.05C116.08 142.73 116.35 142.46 116.68 142.46C117.01 142.46 117.27 142.73 117.27 143.05C117.27 143.38 117.01 143.65 116.68 143.65ZM116.25 150V144.96H117.1V150H116.25ZM119.186 148.31V145.73H118.236V144.96H119.186V143.7H120.046V144.96H121.796V145.73H120.046V148.31C120.046 149.1 120.446 149.32 121.056 149.32C121.386 149.32 121.616 149.28 121.806 149.2V149.96C121.566 150.06 121.296 150.1 120.936 150.1C119.816 150.1 119.186 149.54 119.186 148.31ZM127.478 149.17C127.008 149.8 126.258 150.2 125.318 150.2C123.618 150.2 122.568 148.95 122.568 147.48C122.568 145.95 123.548 144.76 125.108 144.76C126.478 144.76 127.368 145.72 127.368 146.96C127.368 147.16 127.338 147.35 127.308 147.49H123.438C123.468 148.7 124.238 149.43 125.318 149.43C125.968 149.43 126.518 149.13 126.848 148.68L127.478 149.17ZM125.088 145.48C124.258 145.48 123.678 145.97 123.498 146.84H126.518C126.488 146.1 125.978 145.48 125.088 145.48ZM128.808 150V144.96H129.658V145.59C130.028 145.15 130.488 144.86 131.128 144.86C131.288 144.86 131.438 144.88 131.558 144.92V145.75C131.408 145.71 131.258 145.69 131.058 145.69C130.398 145.69 129.968 146.03 129.658 146.54V150H128.808ZM135.478 150V142.5H136.328V150H135.478ZM142.605 149.17C142.135 149.8 141.385 150.2 140.445 150.2C138.745 150.2 137.695 148.95 137.695 147.48C137.695 145.95 138.675 144.76 140.235 144.76C141.605 144.76 142.495 145.72 142.495 146.96C142.495 147.16 142.465 147.35 142.435 147.49H138.565C138.595 148.7 139.365 149.43 140.445 149.43C141.095 149.43 141.645 149.13 141.975 148.68L142.605 149.17ZM140.215 145.48C139.385 145.48 138.805 145.97 138.625 146.84H141.645C141.615 146.1 141.105 145.48 140.215 145.48ZM143.356 149.31L143.956 148.8C144.306 149.24 144.726 149.49 145.236 149.49C145.796 149.49 146.116 149.15 146.116 148.71C146.116 147.58 143.596 147.98 143.596 146.2C143.596 145.41 144.266 144.76 145.236 144.76C145.956 144.76 146.576 145.1 146.926 145.59L146.336 146.09C146.066 145.71 145.686 145.47 145.246 145.47C144.706 145.47 144.416 145.79 144.416 146.18C144.416 147.31 146.946 146.95 146.946 148.67C146.936 149.61 146.186 150.2 145.246 150.2C144.446 150.2 143.816 149.88 143.356 149.31ZM150.595 147.48C150.595 146.01 151.605 144.76 153.185 144.76C153.935 144.76 154.525 145.05 154.975 145.56V142.5H155.825V150H154.975V149.4C154.525 149.91 153.935 150.2 153.185 150.2C151.605 150.2 150.595 148.95 150.595 147.48ZM151.495 147.48C151.495 148.55 152.215 149.4 153.285 149.4C153.985 149.4 154.605 149.06 154.975 148.47V146.49C154.585 145.89 153.975 145.56 153.285 145.56C152.215 145.56 151.495 146.41 151.495 147.48ZM159.917 144.76C161.537 144.76 162.647 146.01 162.647 147.48C162.647 148.95 161.537 150.2 159.917 150.2C158.287 150.2 157.187 148.95 157.187 147.48C157.187 146.01 158.287 144.76 159.917 144.76ZM159.927 149.4C160.977 149.4 161.747 148.52 161.747 147.48C161.747 146.43 160.977 145.56 159.927 145.56C158.847 145.56 158.077 146.43 158.077 147.48C158.077 148.53 158.847 149.4 159.927 149.4ZM164.013 150V144.96H164.863V145.53C165.273 145.08 165.793 144.76 166.543 144.76C167.673 144.76 168.513 145.52 168.513 146.95V150H167.663V146.98C167.663 146.08 167.153 145.56 166.373 145.56C165.643 145.56 165.183 145.98 164.863 146.51V150H164.013ZM170.224 150V144.96H171.074V145.53C171.484 145.08 172.004 144.76 172.754 144.76C173.884 144.76 174.724 145.52 174.724 146.95V150H173.874V146.98C173.874 146.08 173.364 145.56 172.584 145.56C171.854 145.56 171.394 145.98 171.074 146.51V150H170.224ZM178.995 144.16H178.165L179.205 142.5H180.165L178.995 144.16ZM180.915 149.17C180.445 149.8 179.695 150.2 178.755 150.2C177.055 150.2 176.005 148.95 176.005 147.48C176.005 145.95 176.985 144.76 178.545 144.76C179.915 144.76 180.805 145.72 180.805 146.96C180.805 147.16 180.775 147.35 180.745 147.49H176.875C176.905 148.7 177.675 149.43 178.755 149.43C179.405 149.43 179.955 149.13 180.285 148.68L180.915 149.17ZM178.525 145.48C177.695 145.48 177.115 145.97 176.935 146.84H179.955C179.925 146.1 179.415 145.48 178.525 145.48ZM186.706 149.17C186.236 149.8 185.486 150.2 184.546 150.2C182.846 150.2 181.796 148.95 181.796 147.48C181.796 145.95 182.776 144.76 184.336 144.76C185.706 144.76 186.596 145.72 186.596 146.96C186.596 147.16 186.566 147.35 186.536 147.49H182.666C182.696 148.7 183.466 149.43 184.546 149.43C185.196 149.43 185.746 149.13 186.076 148.68L186.706 149.17ZM184.316 145.48C183.486 145.48 182.906 145.97 182.726 146.84H185.746C185.716 146.1 185.206 145.48 184.316 145.48ZM187.458 149.31L188.058 148.8C188.408 149.24 188.828 149.49 189.338 149.49C189.898 149.49 190.218 149.15 190.218 148.71C190.218 147.58 187.698 147.98 187.698 146.2C187.698 145.41 188.368 144.76 189.338 144.76C190.058 144.76 190.678 145.1 191.028 145.59L190.438 146.09C190.168 145.71 189.788 145.47 189.348 145.47C188.808 145.47 188.518 145.79 188.518 146.18C188.518 147.31 191.048 146.95 191.048 148.67C191.038 149.61 190.288 150.2 189.348 150.2C188.548 150.2 187.918 149.88 187.458 149.31ZM197.427 144.76C199.047 144.76 200.157 146.01 200.157 147.48C200.157 148.95 199.047 150.2 197.427 150.2C195.797 150.2 194.697 148.95 194.697 147.48C194.697 146.01 195.797 144.76 197.427 144.76ZM197.437 149.4C198.487 149.4 199.257 148.52 199.257 147.48C199.257 146.43 198.487 145.56 197.437 145.56C196.357 145.56 195.587 146.43 195.587 147.48C195.587 148.53 196.357 149.4 197.437 149.4ZM205.033 147.84V144.96H205.883V147.81C205.883 149.32 205.013 150.2 203.643 150.2C202.283 150.2 201.413 149.32 201.413 147.81V144.96H202.263V147.84C202.263 148.83 202.793 149.4 203.653 149.4C204.493 149.4 205.033 148.83 205.033 147.84ZM206.837 144.96H207.757L209.367 149.11L210.977 144.96H211.897L209.927 150H208.807L206.837 144.96ZM217.341 149.17C216.871 149.8 216.121 150.2 215.181 150.2C213.481 150.2 212.431 148.95 212.431 147.48C212.431 145.95 213.411 144.76 214.971 144.76C216.341 144.76 217.231 145.72 217.231 146.96C217.231 147.16 217.201 147.35 217.171 147.49H213.301C213.331 148.7 214.101 149.43 215.181 149.43C215.831 149.43 216.381 149.13 216.711 148.68L217.341 149.17ZM214.951 145.48C214.121 145.48 213.541 145.97 213.361 146.84H216.381C216.351 146.1 215.841 145.48 214.951 145.48ZM218.671 150V144.96H219.521V145.59C219.891 145.15 220.351 144.86 220.991 144.86C221.151 144.86 221.301 144.88 221.421 144.92V145.75C221.271 145.71 221.121 145.69 220.921 145.69C220.261 145.69 219.831 146.03 219.521 146.54V150H218.671ZM223.17 148.31V145.73H222.22V144.96H223.17V143.7H224.03V144.96H225.78V145.73H224.03V148.31C224.03 149.1 224.43 149.32 225.04 149.32C225.37 149.32 225.6 149.28 225.79 149.2V149.96C225.55 150.06 225.28 150.1 224.92 150.1C223.8 150.1 223.17 149.54 223.17 148.31ZM231.462 149.17C230.992 149.8 230.242 150.2 229.302 150.2C227.602 150.2 226.552 148.95 226.552 147.48C226.552 145.95 227.532 144.76 229.092 144.76C230.462 144.76 231.352 145.72 231.352 146.96C231.352 147.16 231.322 147.35 231.292 147.49H227.422C227.452 148.7 228.222 149.43 229.302 149.43C229.952 149.43 230.502 149.13 230.832 148.68L231.462 149.17ZM229.072 145.48C228.242 145.48 227.662 145.97 227.482 146.84H230.502C230.472 146.1 229.962 145.48 229.072 145.48ZM232.214 149.31L232.814 148.8C233.164 149.24 233.584 149.49 234.094 149.49C234.654 149.49 234.974 149.15 234.974 148.71C234.974 147.58 232.454 147.98 232.454 146.2C232.454 145.41 233.124 144.76 234.094 144.76C234.814 144.76 235.434 145.1 235.784 145.59L235.194 146.09C234.924 145.71 234.544 145.47 234.104 145.47C233.564 145.47 233.274 145.79 233.274 146.18C233.274 147.31 235.804 146.95 235.804 148.67C235.794 149.61 235.044 150.2 234.104 150.2C233.304 150.2 232.674 149.88 232.214 149.31ZM240.772 147.96L240.672 146.44C242.082 146.28 242.852 145.8 242.852 144.85C242.852 144.13 242.312 143.59 241.582 143.59C240.962 143.59 240.542 143.88 240.122 144.46L239.382 144C239.902 143.26 240.582 142.8 241.612 142.8C242.812 142.8 243.772 143.66 243.772 144.84C243.772 146.07 242.822 146.83 241.482 147.06L241.432 147.96H240.772ZM241.112 150.11C240.762 150.11 240.472 149.82 240.472 149.47C240.472 149.13 240.762 148.84 241.112 148.84C241.462 148.84 241.752 149.13 241.752 149.47C241.752 149.82 241.462 150.11 241.112 150.11Z" fill="#161616"/>
<rect x="13" y="161" width="324" height="30" fill="white"/>
<rect x="13" y="161" width="324" height="30" stroke="#E5E5E5"/>
<path d="M26.4999 176L22.9644 179.535L22.2573 178.828L25.0857 176L22.2573 173.171L22.9644 172.464L26.4999 176ZM26.4999 179.5H31.4999V180.5H26.4999V179.5Z" fill="#005D6A"/>
<path d="M41.19 179.32C42.13 179.32 42.9 178.86 43.37 178.18L44.12 178.76C43.48 179.63 42.45 180.2 41.19 180.2C39 180.2 37.51 178.5 37.51 176.5C37.51 174.5 39 172.8 41.19 172.8C42.45 172.8 43.48 173.38 44.12 174.24L43.37 174.82C42.9 174.14 42.13 173.68 41.19 173.68C39.61 173.68 38.48 174.94 38.48 176.5C38.48 178.06 39.61 179.32 41.19 179.32ZM47.6707 174.76C49.2907 174.76 50.4007 176.01 50.4007 177.48C50.4007 178.95 49.2907 180.2 47.6707 180.2C46.0407 180.2 44.9407 178.95 44.9407 177.48C44.9407 176.01 46.0407 174.76 47.6707 174.76ZM47.6807 179.4C48.7307 179.4 49.5007 178.52 49.5007 177.48C49.5007 176.43 48.7307 175.56 47.6807 175.56C46.6007 175.56 45.8307 176.43 45.8307 177.48C45.8307 178.53 46.6007 179.4 47.6807 179.4ZM51.7672 180V174.96H52.6172V175.51C52.9972 175.07 53.4972 174.76 54.1972 174.76C54.9272 174.76 55.5272 175.09 55.8372 175.73C56.2372 175.18 56.7672 174.76 57.6372 174.76C58.7172 174.76 59.5072 175.48 59.5072 176.85V180H58.6572V176.88C58.6572 176.04 58.1872 175.56 57.4672 175.56C56.8272 175.56 56.3772 175.92 56.0472 176.51C56.0572 176.62 56.0672 176.73 56.0672 176.85V180H55.2172V176.88C55.2172 176.04 54.7572 175.56 54.0272 175.56C53.3372 175.56 52.9072 175.99 52.6172 176.51V180H51.7672ZM61.2203 180V174.96H62.0703V175.51C62.4503 175.07 62.9503 174.76 63.6503 174.76C64.3803 174.76 64.9803 175.09 65.2903 175.73C65.6903 175.18 66.2203 174.76 67.0903 174.76C68.1703 174.76 68.9603 175.48 68.9603 176.85V180H68.1103V176.88C68.1103 176.04 67.6403 175.56 66.9203 175.56C66.2803 175.56 65.8303 175.92 65.5003 176.51C65.5103 176.62 65.5203 176.73 65.5203 176.85V180H64.6703V176.88C64.6703 176.04 64.2103 175.56 63.4803 175.56C62.7903 175.56 62.3603 175.99 62.0703 176.51V180H61.2203ZM75.1534 179.17C74.6834 179.8 73.9334 180.2 72.9934 180.2C71.2934 180.2 70.2434 178.95 70.2434 177.48C70.2434 175.95 71.2234 174.76 72.7834 174.76C74.1534 174.76 75.0434 175.72 75.0434 176.96C75.0434 177.16 75.0134 177.35 74.9834 177.49H71.1134C71.1434 178.7 71.9134 179.43 72.9934 179.43C73.6434 179.43 74.1934 179.13 74.5234 178.68L75.1534 179.17ZM72.7634 175.48C71.9334 175.48 71.3534 175.97 71.1734 176.84H74.1934C74.1634 176.1 73.6534 175.48 72.7634 175.48ZM76.484 180V174.96H77.334V175.53C77.744 175.08 78.264 174.76 79.014 174.76C80.144 174.76 80.984 175.52 80.984 176.95V180H80.134V176.98C80.134 176.08 79.624 175.56 78.844 175.56C78.114 175.56 77.654 175.98 77.334 176.51V180H76.484ZM82.9849 178.31V175.73H82.0349V174.96H82.9849V173.7H83.8449V174.96H85.5949V175.73H83.8449V178.31C83.8449 179.1 84.2449 179.32 84.8549 179.32C85.1849 179.32 85.4149 179.28 85.6049 179.2V179.96C85.3649 180.06 85.0949 180.1 84.7349 180.1C83.6149 180.1 82.9849 179.54 82.9849 178.31ZM93.0995 177.84V174.96H93.9495V177.81C93.9495 179.32 93.0795 180.2 91.7095 180.2C90.3495 180.2 89.4795 179.32 89.4795 177.81V174.96H90.3295V177.84C90.3295 178.83 90.8595 179.4 91.7195 179.4C92.5595 179.4 93.0995 178.83 93.0995 177.84ZM95.9537 178.31V175.73H95.0037V174.96H95.9537V173.7H96.8137V174.96H98.5637V175.73H96.8137V178.31C96.8137 179.1 97.2137 179.32 97.8237 179.32C98.1537 179.32 98.3837 179.28 98.5737 179.2V179.96C98.3337 180.06 98.0637 180.1 97.7037 180.1C96.5837 180.1 95.9537 179.54 95.9537 178.31ZM100.293 173.65C99.9629 173.65 99.6929 173.38 99.6929 173.05C99.6929 172.73 99.9629 172.46 100.293 172.46C100.623 172.46 100.883 172.73 100.883 173.05C100.883 173.38 100.623 173.65 100.293 173.65ZM99.8629 180V174.96H100.713V180H99.8629ZM102.509 180V172.5H103.359V180H102.509ZM105.586 173.65C105.256 173.65 104.986 173.38 104.986 173.05C104.986 172.73 105.256 172.46 105.586 172.46C105.916 172.46 106.176 172.73 106.176 173.05C106.176 173.38 105.916 173.65 105.586 173.65ZM105.156 180V174.96H106.006V180H105.156ZM107.223 179.31L107.823 178.8C108.173 179.24 108.593 179.49 109.103 179.49C109.663 179.49 109.983 179.15 109.983 178.71C109.983 177.58 107.463 177.98 107.463 176.2C107.463 175.41 108.133 174.76 109.103 174.76C109.823 174.76 110.443 175.1 110.793 175.59L110.203 176.09C109.933 175.71 109.553 175.47 109.113 175.47C108.573 175.47 108.283 175.79 108.283 176.18C108.283 177.31 110.813 176.95 110.813 178.67C110.803 179.61 110.053 180.2 109.113 180.2C108.313 180.2 107.683 179.88 107.223 179.31ZM116.618 179.17C116.148 179.8 115.398 180.2 114.458 180.2C112.758 180.2 111.708 178.95 111.708 177.48C111.708 175.95 112.688 174.76 114.248 174.76C115.618 174.76 116.508 175.72 116.508 176.96C116.508 177.16 116.478 177.35 116.448 177.49H112.578C112.608 178.7 113.378 179.43 114.458 179.43C115.108 179.43 115.658 179.13 115.988 178.68L116.618 179.17ZM114.228 175.48C113.398 175.48 112.818 175.97 112.638 176.84H115.658C115.628 176.1 115.118 175.48 114.228 175.48ZM117.949 180V174.96H118.799V175.59C119.169 175.15 119.629 174.86 120.269 174.86C120.429 174.86 120.579 174.88 120.699 174.92V175.75C120.549 175.71 120.399 175.69 120.199 175.69C119.539 175.69 119.109 176.03 118.799 176.54V180H117.949ZM124.619 180V172.5H125.469V180H124.619ZM127.634 175.68H126.844L127.694 173H128.664L127.634 175.68ZM128.569 180L131.359 173H132.619L135.409 180H134.409L133.599 177.94H130.379L129.569 180H128.569ZM130.689 177.13H133.289L131.989 173.82L130.689 177.13ZM136.792 180V173H138.842C140.242 173 141.112 173.77 141.112 174.97C141.112 176.17 140.242 176.93 138.842 176.93H137.732V180H136.792ZM138.862 173.8H137.732V176.13H138.862C139.662 176.13 140.142 175.7 140.142 174.95C140.142 174.24 139.662 173.8 138.862 173.8ZM142.534 180V173H143.474V180H142.534ZM147.683 177.48C147.683 176.01 148.653 174.76 150.243 174.76C150.923 174.76 151.413 174.97 151.803 175.36V172.5H153.083V180H151.803V179.6C151.413 179.99 150.923 180.2 150.243 180.2C148.653 180.2 147.683 178.95 147.683 177.48ZM149.013 177.48C149.013 178.36 149.563 179 150.423 179C150.993 179 151.463 178.76 151.803 178.3V176.66C151.463 176.2 150.993 175.96 150.423 175.96C149.563 175.96 149.013 176.6 149.013 177.48ZM156.026 180.15C155.016 180.15 154.326 179.57 154.326 178.64C154.326 177.88 154.916 177.31 155.996 177.13L157.536 176.87V176.74C157.536 176.21 157.136 175.87 156.556 175.87C156.066 175.87 155.686 176.1 155.416 176.47L154.486 175.76C154.936 175.14 155.676 174.76 156.596 174.76C158.056 174.76 158.806 175.63 158.806 176.74V180H157.536V179.51C157.216 179.9 156.616 180.15 156.026 180.15ZM155.586 178.58C155.586 178.92 155.856 179.14 156.286 179.14C156.866 179.14 157.286 178.87 157.536 178.47V177.76L156.336 177.96C155.806 178.05 155.586 178.27 155.586 178.58ZM160.58 178.16V176.1H159.64V174.96H160.58V173.7H161.86V174.96H163.4V176.1H161.86V178.16C161.86 178.72 162.16 178.94 162.66 178.94C163.01 178.94 163.24 178.9 163.41 178.83V179.94C163.16 180.05 162.86 180.1 162.44 180.1C161.18 180.1 160.58 179.39 160.58 178.16ZM165.957 180.15C164.947 180.15 164.257 179.57 164.257 178.64C164.257 177.88 164.847 177.31 165.927 177.13L167.467 176.87V176.74C167.467 176.21 167.067 175.87 166.487 175.87C165.997 175.87 165.617 176.1 165.347 176.47L164.417 175.76C164.867 175.14 165.607 174.76 166.527 174.76C167.987 174.76 168.737 175.63 168.737 176.74V180H167.467V179.51C167.147 179.9 166.547 180.15 165.957 180.15ZM165.517 178.58C165.517 178.92 165.787 179.14 166.217 179.14C166.797 179.14 167.217 178.87 167.467 178.47V177.76L166.267 177.96C165.737 178.05 165.517 178.27 165.517 178.58ZM169.792 180.93C169.792 180.41 170.052 180 170.572 179.62C170.322 179.45 170.202 179.18 170.202 178.91C170.202 178.52 170.442 178.18 170.832 177.95C170.382 177.62 170.122 177.1 170.122 176.54C170.122 175.59 170.872 174.75 172.032 174.75C172.382 174.75 172.702 174.83 172.972 174.96H174.862V175.48H173.602C173.822 175.78 173.952 176.15 173.952 176.54C173.952 177.49 173.202 178.33 172.032 178.33C171.732 178.33 171.462 178.27 171.222 178.18C170.922 178.35 170.762 178.6 170.762 178.82C170.762 179.05 170.872 179.23 171.242 179.23H172.782C174.152 179.23 174.722 179.86 174.722 180.73C174.722 181.75 173.682 182.5 172.202 182.5C170.782 182.5 169.792 181.9 169.792 180.93ZM172.042 177.83C172.892 177.83 173.362 177.22 173.362 176.54C173.362 175.84 172.892 175.25 172.042 175.25C171.172 175.25 170.702 175.84 170.702 176.54C170.702 177.23 171.172 177.83 172.042 177.83ZM170.382 180.88C170.382 181.56 171.122 181.99 172.192 181.99C173.352 181.99 174.132 181.52 174.132 180.76C174.132 180.21 173.832 179.77 172.762 179.77H171.092C170.632 180.08 170.382 180.43 170.382 180.88ZM177.984 174.76C179.604 174.76 180.694 176.04 180.694 177.48C180.694 178.92 179.604 180.2 177.984 180.2C176.374 180.2 175.284 178.92 175.284 177.48C175.284 176.04 176.374 174.76 177.984 174.76ZM177.994 179.64C179.184 179.64 180.064 178.62 180.064 177.48C180.064 176.32 179.184 175.32 177.994 175.32C176.764 175.32 175.894 176.33 175.894 177.48C175.894 178.63 176.764 179.64 177.994 179.64ZM185.809 177.86V174.96H186.389V177.85C186.389 179.35 185.529 180.2 184.239 180.2C182.939 180.2 182.069 179.35 182.069 177.85V174.96H182.659V177.86C182.659 179 183.289 179.64 184.239 179.64C185.169 179.64 185.809 179 185.809 177.86ZM187.493 174.96H188.123L189.933 179.43L191.733 174.96H192.373L190.323 180H189.543L187.493 174.96Z" fill="#005D6A"/>
<rect x="13" y="191" width="324" height="30" fill="white"/>
<rect x="13" y="191" width="324" height="30" stroke="#E5E5E5"/>
<path d="M23.5 201H30.5C30.7761 201 31 201.224 31 201.5V211.072C31 211.21 30.8881 211.322 30.75 211.322C30.703 211.322 30.657 211.308 30.6172 211.283L27 209.016L23.3828 211.283C23.2658 211.357 23.1115 211.321 23.0382 211.204C23.0132 211.165 23 211.119 23 211.072V201.5C23 201.224 23.2239 201 23.5 201ZM30 202H24V209.716L27 207.835L30 209.716V202Z" fill="#005D6A"/>
<path d="M38.11 210V203H39.05V209.14H41.87V210H38.11ZM43.6913 203.65C43.3613 203.65 43.0913 203.38 43.0913 203.05C43.0913 202.73 43.3613 202.46 43.6913 202.46C44.0213 202.46 44.2813 202.73 44.2813 203.05C44.2813 203.38 44.0213 203.65 43.6913 203.65ZM43.2613 210V204.96H44.1113V210H43.2613ZM45.3288 209.31L45.9288 208.8C46.2788 209.24 46.6988 209.49 47.2088 209.49C47.7688 209.49 48.0888 209.15 48.0888 208.71C48.0888 207.58 45.5688 207.98 45.5688 206.2C45.5688 205.41 46.2388 204.76 47.2088 204.76C47.9288 204.76 48.5488 205.1 48.8988 205.59L48.3088 206.09C48.0388 205.71 47.6588 205.47 47.2188 205.47C46.6788 205.47 46.3888 205.79 46.3888 206.18C46.3888 207.31 48.9188 206.95 48.9188 208.67C48.9088 209.61 48.1588 210.2 47.2188 210.2C46.4188 210.2 45.7888 209.88 45.3288 209.31ZM50.6314 208.31V205.73H49.6814V204.96H50.6314V203.7H51.4914V204.96H53.2414V205.73H51.4914V208.31C51.4914 209.1 51.8914 209.32 52.5014 209.32C52.8314 209.32 53.0614 209.28 53.2514 209.2V209.96C53.0114 210.06 52.7414 210.1 52.3814 210.1C51.2614 210.1 50.6314 209.54 50.6314 208.31ZM58.923 209.17C58.453 209.8 57.703 210.2 56.763 210.2C55.063 210.2 54.013 208.95 54.013 207.48C54.013 205.95 54.993 204.76 56.553 204.76C57.923 204.76 58.813 205.72 58.813 206.96C58.813 207.16 58.783 207.35 58.753 207.49H54.883C54.913 208.7 55.683 209.43 56.763 209.43C57.413 209.43 57.963 209.13 58.293 208.68L58.923 209.17ZM56.533 205.48C55.703 205.48 55.123 205.97 54.943 206.84H57.963C57.933 206.1 57.423 205.48 56.533 205.48ZM62.5188 207.48C62.5188 206.01 63.5288 204.76 65.1088 204.76C65.8588 204.76 66.4488 205.05 66.8988 205.56V202.5H67.7488V210H66.8988V209.4C66.4488 209.91 65.8588 210.2 65.1088 210.2C63.5288 210.2 62.5188 208.95 62.5188 207.48ZM63.4188 207.48C63.4188 208.55 64.1388 209.4 65.2088 209.4C65.9088 209.4 66.5288 209.06 66.8988 208.47V206.49C66.5088 205.89 65.8988 205.56 65.2088 205.56C64.1388 205.56 63.4188 206.41 63.4188 207.48ZM74.0206 209.17C73.5506 209.8 72.8006 210.2 71.8606 210.2C70.1606 210.2 69.1106 208.95 69.1106 207.48C69.1106 205.95 70.0906 204.76 71.6506 204.76C73.0206 204.76 73.9106 205.72 73.9106 206.96C73.9106 207.16 73.8806 207.35 73.8506 207.49H69.9806C70.0106 208.7 70.7806 209.43 71.8606 209.43C72.5106 209.43 73.0606 209.13 73.3906 208.68L74.0206 209.17ZM71.6306 205.48C70.8006 205.48 70.2206 205.97 70.0406 206.84H73.0606C73.0306 206.1 72.5206 205.48 71.6306 205.48ZM74.7721 209.31L75.3721 208.8C75.7221 209.24 76.1421 209.49 76.6521 209.49C77.2121 209.49 77.5321 209.15 77.5321 208.71C77.5321 207.58 75.0121 207.98 75.0121 206.2C75.0121 205.41 75.6821 204.76 76.6521 204.76C77.3721 204.76 77.9921 205.1 78.3421 205.59L77.7521 206.09C77.4821 205.71 77.1021 205.47 76.6621 205.47C76.1221 205.47 75.8321 205.79 75.8321 206.18C75.8321 207.31 78.3621 206.95 78.3621 208.67C78.3521 209.61 77.6021 210.2 76.6621 210.2C75.8621 210.2 75.2321 209.88 74.7721 209.31ZM81.781 204.96H82.731V204.34C82.731 203.27 83.421 202.5 84.521 202.5C84.981 202.5 85.351 202.63 85.631 202.79L85.251 203.5C85.061 203.36 84.831 203.27 84.541 203.27C83.971 203.27 83.591 203.66 83.591 204.32V204.96H85.341V205.73H83.591V210H82.731V205.73H81.781V204.96ZM88.3934 204.76C90.0134 204.76 91.1234 206.01 91.1234 207.48C91.1234 208.95 90.0134 210.2 88.3934 210.2C86.7634 210.2 85.6634 208.95 85.6634 207.48C85.6634 206.01 86.7634 204.76 88.3934 204.76ZM88.4034 209.4C89.4534 209.4 90.2234 208.52 90.2234 207.48C90.2234 206.43 89.4534 205.56 88.4034 205.56C87.3234 205.56 86.5534 206.43 86.5534 207.48C86.5534 208.53 87.3234 209.4 88.4034 209.4ZM92.4898 210V204.96H93.3398V205.59C93.7098 205.15 94.1698 204.86 94.8098 204.86C94.9698 204.86 95.1198 204.88 95.2398 204.92V205.75C95.0898 205.71 94.9398 205.69 94.7398 205.69C94.0798 205.69 93.6498 206.03 93.3398 206.54V210H92.4898ZM96.4645 210V204.96H97.3145V205.51C97.6945 205.07 98.1945 204.76 98.8945 204.76C99.6245 204.76 100.224 205.09 100.534 205.73C100.934 205.18 101.464 204.76 102.334 204.76C103.414 204.76 104.204 205.48 104.204 206.85V210H103.354V206.88C103.354 206.04 102.884 205.56 102.164 205.56C101.524 205.56 101.074 205.92 100.744 206.51C100.754 206.62 100.764 206.73 100.764 206.85V210H99.9145V206.88C99.9145 206.04 99.4545 205.56 98.7245 205.56C98.0345 205.56 97.6045 205.99 97.3145 206.51V210H96.4645ZM107.288 210.14C106.298 210.14 105.628 209.59 105.628 208.73C105.628 207.97 106.208 207.43 107.278 207.25L108.978 206.97V206.62C108.978 205.92 108.478 205.52 107.758 205.52C107.178 205.52 106.708 205.79 106.398 206.22L105.758 205.73C106.198 205.13 106.908 204.76 107.788 204.76C109.068 204.76 109.828 205.51 109.828 206.62V210H108.978V209.36C108.598 209.85 107.938 210.14 107.288 210.14ZM106.488 208.7C106.488 209.13 106.838 209.44 107.428 209.44C108.098 209.44 108.648 209.12 108.978 208.58V207.59L107.488 207.84C106.798 207.96 106.488 208.27 106.488 208.7ZM111.823 208.31V205.73H110.873V204.96H111.823V203.7H112.683V204.96H114.433V205.73H112.683V208.31C112.683 209.1 113.083 209.32 113.693 209.32C114.023 209.32 114.253 209.28 114.443 209.2V209.96C114.203 210.06 113.933 210.1 113.573 210.1C112.453 210.1 111.823 209.54 111.823 208.31ZM115.192 209.31L115.792 208.8C116.142 209.24 116.562 209.49 117.072 209.49C117.632 209.49 117.952 209.15 117.952 208.71C117.952 207.58 115.432 207.98 115.432 206.2C115.432 205.41 116.102 204.76 117.072 204.76C117.792 204.76 118.412 205.1 118.762 205.59L118.172 206.09C117.902 205.71 117.522 205.47 117.082 205.47C116.542 205.47 116.252 205.79 116.252 206.18C116.252 207.31 118.782 206.95 118.782 208.67C118.772 209.61 118.022 210.2 117.082 210.2C116.282 210.2 115.652 209.88 115.192 209.31ZM122.431 207.48C122.431 206.01 123.441 204.76 125.021 204.76C125.771 204.76 126.361 205.05 126.811 205.56V202.5H127.661V210H126.811V209.4C126.361 209.91 125.771 210.2 125.021 210.2C123.441 210.2 122.431 208.95 122.431 207.48ZM123.331 207.48C123.331 208.55 124.051 209.4 125.121 209.4C125.821 209.4 126.441 209.06 126.811 208.47V206.49C126.421 205.89 125.811 205.56 125.121 205.56C124.051 205.56 123.331 206.41 123.331 207.48ZM133.933 209.17C133.463 209.8 132.713 210.2 131.773 210.2C130.073 210.2 129.023 208.95 129.023 207.48C129.023 205.95 130.003 204.76 131.563 204.76C132.933 204.76 133.823 205.72 133.823 206.96C133.823 207.16 133.793 207.35 133.763 207.49H129.893C129.923 208.7 130.693 209.43 131.773 209.43C132.423 209.43 132.973 209.13 133.303 208.68L133.933 209.17ZM131.543 205.48C130.713 205.48 130.133 205.97 129.953 206.84H132.973C132.943 206.1 132.433 205.48 131.543 205.48ZM137.529 207.48C137.529 206.01 138.539 204.76 140.119 204.76C140.869 204.76 141.459 205.05 141.909 205.56V202.5H142.759V210H141.909V209.4C141.459 209.91 140.869 210.2 140.119 210.2C138.539 210.2 137.529 208.95 137.529 207.48ZM138.429 207.48C138.429 208.55 139.149 209.4 140.219 209.4C140.919 209.4 141.539 209.06 141.909 208.47V206.49C141.519 205.89 140.909 205.56 140.219 205.56C139.149 205.56 138.429 206.41 138.429 207.48ZM146.85 204.76C148.47 204.76 149.58 206.01 149.58 207.48C149.58 208.95 148.47 210.2 146.85 210.2C145.22 210.2 144.12 208.95 144.12 207.48C144.12 206.01 145.22 204.76 146.85 204.76ZM146.86 209.4C147.91 209.4 148.68 208.52 148.68 207.48C148.68 206.43 147.91 205.56 146.86 205.56C145.78 205.56 145.01 206.43 145.01 207.48C145.01 208.53 145.78 209.4 146.86 209.4ZM150.947 210V204.96H151.797V205.53C152.207 205.08 152.727 204.76 153.477 204.76C154.607 204.76 155.447 205.52 155.447 206.95V210H154.597V206.98C154.597 206.08 154.087 205.56 153.307 205.56C152.577 205.56 152.117 205.98 151.797 206.51V210H150.947ZM157.158 210V204.96H158.008V205.53C158.418 205.08 158.938 204.76 159.688 204.76C160.818 204.76 161.658 205.52 161.658 206.95V210H160.808V206.98C160.808 206.08 160.298 205.56 159.518 205.56C158.788 205.56 158.328 205.98 158.008 206.51V210H157.158ZM165.929 204.16H165.099L166.139 202.5H167.099L165.929 204.16ZM167.849 209.17C167.379 209.8 166.629 210.2 165.689 210.2C163.989 210.2 162.939 208.95 162.939 207.48C162.939 205.95 163.919 204.76 165.479 204.76C166.849 204.76 167.739 205.72 167.739 206.96C167.739 207.16 167.709 207.35 167.679 207.49H163.809C163.839 208.7 164.609 209.43 165.689 209.43C166.339 209.43 166.889 209.13 167.219 208.68L167.849 209.17ZM165.459 205.48C164.629 205.48 164.049 205.97 163.869 206.84H166.889C166.859 206.1 166.349 205.48 165.459 205.48ZM173.64 209.17C173.17 209.8 172.42 210.2 171.48 210.2C169.78 210.2 168.73 208.95 168.73 207.48C168.73 205.95 169.71 204.76 171.27 204.76C172.64 204.76 173.53 205.72 173.53 206.96C173.53 207.16 173.5 207.35 173.47 207.49H169.6C169.63 208.7 170.4 209.43 171.48 209.43C172.13 209.43 172.68 209.13 173.01 208.68L173.64 209.17ZM171.25 205.48C170.42 205.48 169.84 205.97 169.66 206.84H172.68C172.65 206.1 172.14 205.48 171.25 205.48ZM174.391 209.31L174.991 208.8C175.341 209.24 175.761 209.49 176.271 209.49C176.831 209.49 177.151 209.15 177.151 208.71C177.151 207.58 174.631 207.98 174.631 206.2C174.631 205.41 175.301 204.76 176.271 204.76C176.991 204.76 177.611 205.1 177.961 205.59L177.371 206.09C177.101 205.71 176.721 205.47 176.281 205.47C175.741 205.47 175.451 205.79 175.451 206.18C175.451 207.31 177.981 206.95 177.981 208.67C177.971 209.61 177.221 210.2 176.281 210.2C175.481 210.2 174.851 209.88 174.391 209.31ZM181.52 209.31L182.12 208.8C182.47 209.24 182.89 209.49 183.4 209.49C183.96 209.49 184.28 209.15 184.28 208.71C184.28 207.58 181.76 207.98 181.76 206.2C181.76 205.41 182.43 204.76 183.4 204.76C184.12 204.76 184.74 205.1 185.09 205.59L184.5 206.09C184.23 205.71 183.85 205.47 183.41 205.47C182.87 205.47 182.58 205.79 182.58 206.18C182.58 207.31 185.11 206.95 185.11 208.67C185.1 209.61 184.35 210.2 183.41 210.2C182.61 210.2 181.98 209.88 181.52 209.31ZM186.823 208.31V205.73H185.873V204.96H186.823V203.7H187.683V204.96H189.433V205.73H187.683V208.31C187.683 209.1 188.083 209.32 188.693 209.32C189.023 209.32 189.253 209.28 189.443 209.2V209.96C189.203 210.06 188.933 210.1 188.573 210.1C187.453 210.1 186.823 209.54 186.823 208.31ZM192.102 210.14C191.112 210.14 190.442 209.59 190.442 208.73C190.442 207.97 191.022 207.43 192.092 207.25L193.792 206.97V206.62C193.792 205.92 193.292 205.52 192.572 205.52C191.992 205.52 191.522 205.79 191.212 206.22L190.572 205.73C191.012 205.13 191.722 204.76 192.602 204.76C193.882 204.76 194.642 205.51 194.642 206.62V210H193.792V209.36C193.412 209.85 192.752 210.14 192.102 210.14ZM191.302 208.7C191.302 209.13 191.652 209.44 192.242 209.44C192.912 209.44 193.462 209.12 193.792 208.58V207.59L192.302 207.84C191.612 207.96 191.302 208.27 191.302 208.7ZM196.347 210V204.96H197.197V205.53C197.607 205.08 198.127 204.76 198.877 204.76C200.007 204.76 200.847 205.52 200.847 206.95V210H199.997V206.98C199.997 206.08 199.487 205.56 198.707 205.56C197.977 205.56 197.517 205.98 197.197 206.51V210H196.347ZM202.128 207.48C202.128 206.01 203.138 204.76 204.718 204.76C205.468 204.76 206.058 205.05 206.508 205.56V202.5H207.358V210H206.508V209.4C206.058 209.91 205.468 210.2 204.718 210.2C203.138 210.2 202.128 208.95 202.128 207.48ZM203.028 207.48C203.028 208.55 203.748 209.4 204.818 209.4C205.518 209.4 206.138 209.06 206.508 208.47V206.49C206.118 205.89 205.508 205.56 204.818 205.56C203.748 205.56 203.028 206.41 203.028 207.48ZM210.52 210.14C209.53 210.14 208.86 209.59 208.86 208.73C208.86 207.97 209.44 207.43 210.51 207.25L212.21 206.97V206.62C212.21 205.92 211.71 205.52 210.99 205.52C210.41 205.52 209.94 205.79 209.63 206.22L208.99 205.73C209.43 205.13 210.14 204.76 211.02 204.76C212.3 204.76 213.06 205.51 213.06 206.62V210H212.21V209.36C211.83 209.85 211.17 210.14 210.52 210.14ZM209.72 208.7C209.72 209.13 210.07 209.44 210.66 209.44C211.33 209.44 211.88 209.12 212.21 208.58V207.59L210.72 207.84C210.03 207.96 209.72 208.27 209.72 208.7ZM214.765 210V204.96H215.615V205.59C215.985 205.15 216.445 204.86 217.085 204.86C217.245 204.86 217.395 204.88 217.515 204.92V205.75C217.365 205.71 217.215 205.69 217.015 205.69C216.355 205.69 215.925 206.03 215.615 206.54V210H214.765ZM218.007 207.48C218.007 206.01 219.017 204.76 220.597 204.76C221.347 204.76 221.937 205.05 222.387 205.56V202.5H223.237V210H222.387V209.4C221.937 209.91 221.347 210.2 220.597 210.2C219.017 210.2 218.007 208.95 218.007 207.48ZM218.907 207.48C218.907 208.55 219.627 209.4 220.697 209.4C221.397 209.4 222.017 209.06 222.387 208.47V206.49C221.997 205.89 221.387 205.56 220.697 205.56C219.627 205.56 218.907 206.41 218.907 207.48Z" fill="#005D6A"/>
</g>
<rect x="13" y="71" width="324" height="150" rx="2" stroke="#E5E5E5"/>
</g>
</g>
</g>
<defs>
<filter id="filter0_d_2656_9303" x="0" y="0" width="350" height="212" filterUnits="userSpaceOnUse" color-interpolation-filters="sRGB">
<feFlood flood-opacity="0" result="BackgroundImageFix"/>
<feColorMatrix in="SourceAlpha" type="matrix" values="0 0 0 0 0 0 0 0 0 0 0 0 0 0 0 0 0 0 127 0" result="hardAlpha"/>
<feMorphology radius="1" operator="dilate" in="SourceAlpha" result="effect1_dropShadow_2656_9303"/>
<feOffset/>
<feComposite in2="hardAlpha" operator="out"/>
<feColorMatrix type="matrix" values="0 0 0 0 0.149038 0 0 0 0 0.145083 0 0 0 0 0.11763 0 0 0 0.1 0"/>
<feBlend mode="normal" in2="BackgroundImageFix" result="effect1_dropShadow_2656_9303"/>
<feBlend mode="normal" in="SourceGraphic" in2="effect1_dropShadow_2656_9303" result="shape"/>
</filter>
<clipPath id="clip0_2656_9303">
<path d="M1 11C1 5.47715 5.47715 1 11 1H349V211H1V11Z" fill="white"/>
</clipPath>
<clipPath id="clip1_2656_9303">
<rect width="348" height="210" fill="white" transform="translate(1 1)"/>
</clipPath>
<clipPath id="clip2_2656_9303">
<rect width="12" height="12" fill="white" transform="translate(13 16)"/>
</clipPath>
<clipPath id="clip3_2656_9303">
<rect x="13" y="71" width="324" height="150" rx="2" fill="white"/>
</clipPath>
</defs>
</svg>
