<svg xmlns="http://www.w3.org/2000/svg" width="350" height="212" fill="none" viewBox="0 0 350 212"><g filter="url(#a)"><g clip-path="url(#b)"><path fill="#fff" d="M1 11C1 5.477 5.477 1 11 1h338v210H1z"/><g clip-path="url(#c)"><g clip-path="url(#d)"><path fill="#000" d="M15 21.667 13 20.5l6-3.5 6 3.5v4.25h-1v-3.667l-1 .584v3.339l-.111.137A5 5 0 0 1 19 27a5 5 0 0 1-3.889-1.857L15 25.006zm1 .583v2.396A4 4 0 0 0 19 26a4 4 0 0 0 3-1.354V22.25L19 24zm-1.015-1.75L19 22.842l4.015-2.342L19 18.158z"/></g><path fill="#161616" d="M30.236 27v-8.4h1.704V27zm3.848 0v-6.048h1.524v.48c.42-.408.984-.72 1.788-.72 1.308 0 2.352.9 2.352 2.688V27h-1.536v-3.54c0-.804-.456-1.308-1.2-1.308-.768 0-1.176.516-1.404.9V27zm7.778-2.208V22.32h-1.128v-1.368h1.128V19.44h1.536v1.512h1.848v1.368h-1.848v2.472c0 .672.36.936.96.936.42 0 .696-.048.9-.132v1.332c-.3.132-.66.192-1.164.192-1.512 0-2.232-.852-2.232-2.328M46.612 27v-6.048h1.523v.6c.396-.408.912-.72 1.596-.72.204 0 .384.036.528.084v1.5a2.6 2.6 0 0 0-.672-.084c-.744 0-1.224.408-1.452.792V27zm7.496-6.288c1.968 0 3.312 1.452 3.312 3.264s-1.344 3.264-3.312 3.264-3.312-1.452-3.312-3.264 1.344-3.264 3.312-3.264m.024 5.088c.972 0 1.704-.78 1.704-1.824 0-1.056-.732-1.824-1.704-1.824-1.008 0-1.752.768-1.752 1.824s.744 1.824 1.752 1.824m4.305-1.824c0-1.764 1.164-3.264 3.072-3.264.816 0 1.404.252 1.872.72V18h1.536v9h-1.536v-.48c-.468.468-1.056.72-1.872.72-1.908 0-3.072-1.5-3.072-3.264m1.596 0c0 1.056.66 1.824 1.692 1.824.684 0 1.248-.288 1.656-.84v-1.968c-.408-.552-.972-.84-1.656-.84-1.032 0-1.692.768-1.692 1.824m10.695.408v-3.432h1.536v3.36c0 1.812-1.056 2.928-2.832 2.928s-2.82-1.116-2.82-2.928v-3.36h1.536v3.432c0 .876.456 1.416 1.296 1.416.828 0 1.284-.54 1.284-1.416m6.127 1.416c.6 0 1.08-.276 1.368-.696l1.188.912c-.564.744-1.452 1.224-2.556 1.224-2.088 0-3.336-1.5-3.336-3.264s1.248-3.264 3.336-3.264c1.104 0 1.992.48 2.556 1.224l-1.188.912c-.288-.42-.768-.696-1.392-.696-.996 0-1.728.768-1.728 1.824 0 1.068.732 1.824 1.752 1.824m4.136-1.008V22.32h-1.128v-1.368h1.128V19.44h1.536v1.512h1.848v1.368h-1.848v2.472c0 .672.36.936.96.936.42 0 .696-.048.9-.132v1.332c-.3.132-.66.192-1.164.192-1.512 0-2.232-.852-2.232-2.328m5.517-4.896a1.01 1.01 0 0 1-.996-.996c0-.54.456-.996.996-.996s.984.456.984.996-.444.996-.984.996M85.74 27v-6.048h1.524V27zm6.232-6.288c1.968 0 3.312 1.452 3.312 3.264s-1.344 3.264-3.312 3.264-3.312-1.452-3.312-3.264 1.344-3.264 3.312-3.264m.024 5.088c.972 0 1.704-.78 1.704-1.824 0-1.056-.732-1.824-1.704-1.824-1.008 0-1.752.768-1.752 1.824s.744 1.824 1.752 1.824m4.678 1.2v-6.048h1.524v.48c.42-.408.984-.72 1.788-.72 1.308 0 2.352.9 2.352 2.688V27h-1.536v-3.54c0-.804-.456-1.308-1.2-1.308-.768 0-1.176.516-1.404.9V27zm12.297-7.008L107.531 18h1.656l1.236 1.992zm.036 7.188c-1.212 0-2.04-.696-2.04-1.812 0-.912.708-1.596 2.004-1.812l1.848-.312v-.156c0-.636-.48-1.044-1.176-1.044-.588 0-1.044.276-1.368.72l-1.116-.852c.54-.744 1.428-1.2 2.532-1.2 1.752 0 2.652 1.044 2.652 2.376V27h-1.524v-.588c-.384.468-1.104.768-1.812.768m-.528-1.884c0 .408.324.672.84.672.696 0 1.2-.324 1.5-.804v-.852l-1.44.24c-.636.108-.9.372-.9.744M117.322 27v-9h1.524v9zm4.165-4.944h-1.416l1.08-3.456h1.728zm6.196-3.696c2.64 0 4.452 2.04 4.452 4.44s-1.812 4.44-4.452 4.44c-2.652 0-4.464-2.04-4.464-4.44s1.812-4.44 4.464-4.44m0 7.284c1.572 0 2.7-1.236 2.7-2.844s-1.128-2.844-2.7-2.844c-1.584 0-2.712 1.236-2.712 2.844s1.128 2.844 2.712 2.844m5.881 4.308v-9h1.524v.492c.468-.468 1.056-.732 1.884-.732 1.92 0 3.072 1.5 3.072 3.264s-1.152 3.264-3.072 3.264c-.828 0-1.416-.264-1.884-.732v3.444zm3.192-7.8c-.708 0-1.284.312-1.668.876v1.896c.408.576.972.876 1.668.876 1.032 0 1.704-.768 1.704-1.824s-.672-1.824-1.704-1.824m10.31 3.864c-.564.756-1.5 1.224-2.64 1.224-2.148 0-3.36-1.5-3.36-3.264 0-1.788 1.128-3.264 3.108-3.264 1.68 0 2.784 1.14 2.784 2.724 0 .336-.048.648-.096.852h-4.236c.144 1.128.84 1.584 1.788 1.584.66 0 1.236-.288 1.56-.72zm-2.928-4.056c-.78 0-1.296.432-1.464 1.224h2.784c-.024-.612-.468-1.224-1.32-1.224m4.309 5.04v-6.048h1.524v.48c.42-.408.984-.72 1.788-.72 1.308 0 2.352.9 2.352 2.688V27h-1.536v-3.54c0-.804-.456-1.308-1.2-1.308-.768 0-1.176.516-1.404.9V27zm7.719 0v-8.4h3.3c2.664 0 4.464 1.932 4.464 4.2s-1.8 4.2-4.464 4.2zm3.324-6.852h-1.62v5.304h1.62c1.56 0 2.688-1.164 2.688-2.652 0-1.5-1.128-2.652-2.688-2.652m7.419 7.032c-1.212 0-2.04-.696-2.04-1.812 0-.912.708-1.596 2.004-1.812l1.848-.312v-.156c0-.636-.48-1.044-1.176-1.044-.588 0-1.044.276-1.368.72l-1.116-.852c.54-.744 1.428-1.2 2.532-1.2 1.752 0 2.652 1.044 2.652 2.376V27h-1.524v-.588c-.384.468-1.104.768-1.812.768m-.528-1.884c0 .408.324.672.84.672.696 0 1.2-.324 1.5-.804v-.852l-1.44.24c-.636.108-.9.372-.9.744m5.993-.504V22.32h-1.128v-1.368h1.128V19.44h1.536v1.512h1.848v1.368h-1.848v2.472c0 .672.36.936.96.936.42 0 .696-.048.9-.132v1.332c-.3.132-.66.192-1.164.192-1.512 0-2.232-.852-2.232-2.328m6.453 2.388c-1.212 0-2.04-.696-2.04-1.812 0-.912.708-1.596 2.004-1.812l1.848-.312v-.156c0-.636-.48-1.044-1.176-1.044-.588 0-1.044.276-1.368.72l-1.116-.852c.54-.744 1.428-1.2 2.532-1.2 1.752 0 2.652 1.044 2.652 2.376V27h-1.524v-.588c-.384.468-1.104.768-1.812.768m-.528-1.884c0 .408.324.672.84.672.696 0 1.2-.324 1.5-.804v-.852l-1.44.24c-.636.108-.9.372-.9.744M13.9 51.9l.21-3.9h4.17v1.22H15.4l-.08 1.46h.54c1.86 0 2.68.85 2.68 2.21 0 1.43-1.12 2.31-2.56 2.31-1.3 0-2.16-.57-2.74-1.58l1.18-.73c.4.77.88 1.11 1.56 1.11.69 0 1.18-.41 1.18-1.06 0-.66-.49-1.04-1.36-1.04zm8.051 3.98c0-.5.25-.9.7-1.23-.2-.2-.31-.47-.31-.73 0-.4.17-.72.55-1-.44-.33-.68-.83-.68-1.39 0-.98.76-1.77 2.02-1.77.39 0 .73.07 1.02.2h1.84v1.08h-.89c.05.16.07.32.07.49 0 .99-.74 1.79-2.04 1.79-.17 0-.33-.01-.48-.04-.11.1-.17.21-.17.32 0 .2.11.3.34.3h1.27c1.27 0 1.96.68 1.96 1.62 0 1.12-1.07 1.98-2.64 1.98-1.61 0-2.56-.56-2.56-1.62m2.3-3.52c.53 0 .87-.33.87-.83s-.34-.82-.87-.82c-.55 0-.88.33-.88.82 0 .5.33.83.88.83m-1.1 3.34c0 .48.46.78 1.35.78.92 0 1.39-.34 1.39-.84 0-.38-.23-.65-.84-.65h-1.56c-.19.18-.34.4-.34.71m8.197-2.88v-2.86h1.28v2.8c0 1.51-.88 2.44-2.36 2.44s-2.35-.93-2.35-2.44v-2.8h1.28v2.86c0 .73.38 1.18 1.08 1.18.69 0 1.07-.45 1.07-1.18m3.325-3.74c-.45 0-.83-.38-.83-.83s.38-.83.83-.83.82.38.82.83-.37.83-.82.83m-.64 5.92v-5.04h1.27V55zm2.433-2.52c0-1.47.97-2.72 2.56-2.72.68 0 1.17.21 1.56.6V47.5h1.28V55h-1.28v-.4c-.39.39-.88.6-1.56.6-1.59 0-2.56-1.25-2.56-2.72m1.33 0c0 .88.55 1.52 1.41 1.52.57 0 1.04-.24 1.38-.7v-1.64c-.34-.46-.81-.7-1.38-.7-.86 0-1.41.64-1.41 1.52m10.233 1.7c-.47.63-1.25 1.02-2.2 1.02-1.79 0-2.8-1.25-2.8-2.72 0-1.49.94-2.72 2.59-2.72 1.4 0 2.32.95 2.32 2.27 0 .28-.04.54-.08.71h-3.53c.12.94.7 1.32 1.49 1.32.55 0 1.03-.24 1.3-.6zm-2.44-3.38c-.65 0-1.08.36-1.22 1.02h2.32c-.02-.51-.39-1.02-1.1-1.02m3.083 3.47.84-.76c.31.39.68.67 1.16.67.41 0 .62-.24.62-.54 0-.88-2.41-.55-2.41-2.32 0-.89.75-1.56 1.8-1.56.77 0 1.47.37 1.83.86l-.84.74c-.26-.32-.59-.58-.98-.58-.4 0-.59.22-.59.48 0 .86 2.41.56 2.41 2.3-.02 1.06-.87 1.64-1.82 1.64-.9 0-1.54-.36-2.02-.93m7.345-1.79c0-1.47.97-2.72 2.56-2.72.68 0 1.17.21 1.56.6V47.5h1.28V55h-1.28v-.4c-.39.39-.88.6-1.56.6-1.59 0-2.56-1.25-2.56-2.72m1.33 0c0 .88.55 1.52 1.41 1.52.57 0 1.04-.24 1.38-.7v-1.64c-.34-.46-.81-.7-1.38-.7-.86 0-1.41.64-1.41 1.52m6.233-3.4c-.45 0-.83-.38-.83-.83s.38-.83.83-.83.82.38.82.83-.37.83-.82.83M62.94 55v-5.04h1.27V55zm2.284-.73.84-.76c.31.39.68.67 1.16.67.41 0 .62-.24.62-.54 0-.88-2.41-.55-2.41-2.32 0-.89.75-1.56 1.8-1.56.77 0 1.47.37 1.83.86l-.84.74c-.26-.32-.59-.58-.98-.58-.4 0-.59.22-.59.48 0 .86 2.41.56 2.41 2.3-.02 1.06-.87 1.64-1.82 1.64-.9 0-1.54-.36-2.02-.93m5.01 3.19v-7.5h1.27v.41c.39-.39.88-.61 1.57-.61 1.6 0 2.56 1.25 2.56 2.72s-.96 2.72-2.56 2.72c-.69 0-1.18-.22-1.57-.61v2.87zm2.66-6.5c-.59 0-1.07.26-1.39.73v1.58c.34.48.81.73 1.39.73.86 0 1.42-.64 1.42-1.52s-.56-1.52-1.42-1.52m6.352-1.2c1.64 0 2.76 1.21 2.76 2.72s-1.12 2.72-2.76 2.72-2.76-1.21-2.76-2.72 1.12-2.72 2.76-2.72m.02 4.24c.81 0 1.42-.65 1.42-1.52 0-.88-.61-1.52-1.42-1.52-.84 0-1.46.64-1.46 1.52s.62 1.52 1.46 1.52m3.898 1v-5.04h1.27v.4c.35-.34.82-.6 1.49-.6 1.09 0 1.96.75 1.96 2.24v3h-1.28v-2.95c0-.67-.38-1.09-1-1.09-.64 0-.98.43-1.17.75V55zm6.802-5.92c-.45 0-.83-.38-.83-.83s.38-.83.83-.83.82.38.82.83-.37.83-.82.83m-.64 5.92v-5.04h1.27V55zm8.193-2.52c0 1.47-.96 2.72-2.56 2.72-.69 0-1.18-.22-1.57-.61V55h-1.27v-7.5h1.27v2.87c.39-.39.88-.61 1.57-.61 1.6 0 2.56 1.25 2.56 2.72m-2.74-1.52c-.59 0-1.08.26-1.39.72v1.6c.34.47.82.72 1.39.72.86 0 1.42-.64 1.42-1.52s-.56-1.52-1.42-1.52M98.682 55v-7.5h1.27V55zm7.433-.82c-.47.63-1.25 1.02-2.2 1.02-1.79 0-2.8-1.25-2.8-2.72 0-1.49.94-2.72 2.59-2.72 1.4 0 2.32.95 2.32 2.27 0 .28-.04.54-.08.71h-3.53c.12.94.7 1.32 1.49 1.32.55 0 1.03-.24 1.3-.6zm-2.44-3.38c-.65 0-1.08.36-1.22 1.02h2.32c-.02-.51-.39-1.02-1.1-1.02m3.083 3.47.84-.76c.309.39.68.67 1.16.67.41 0 .619-.24.619-.54 0-.88-2.409-.55-2.409-2.32 0-.89.75-1.56 1.8-1.56.77 0 1.47.37 1.83.86l-.84.74c-.26-.32-.59-.58-.98-.58-.4 0-.59.22-.59.48 0 .86 2.41.56 2.41 2.3-.02 1.06-.87 1.64-1.82 1.64-.9 0-1.54-.36-2.02-.93"/><g clip-path="url(#e)"><path fill="#fff" d="M13 71h324v30H13z"/><path stroke="#e5e5e5" d="M13 71h324v30H13z"/><path fill="#161616" d="M31.5 89H24a.5.5 0 0 0 0 1h7.5v1H24a1.5 1.5 0 0 1-1.5-1.5V82a1 1 0 0 1 1-1h8zm-8-.975q.12-.025.25-.025h6.75v-6h-7zM29 84.5h-4v-1h4zM38.11 90v-7h.94v6.14h2.82V90zm9.436-.83c-.47.63-1.22 1.03-2.16 1.03-1.7 0-2.75-1.25-2.75-2.72 0-1.53.98-2.72 2.54-2.72 1.37 0 2.26.96 2.26 2.2 0 .2-.03.39-.06.53h-3.87c.03 1.21.8 1.94 1.88 1.94.65 0 1.2-.3 1.53-.75zm-2.39-3.69c-.83 0-1.41.49-1.59 1.36h3.02c-.03-.74-.54-1.36-1.43-1.36m3.142 3.83.6-.51c.35.44.77.69 1.28.69.56 0 .88-.34.88-.78 0-1.13-2.52-.73-2.52-2.51 0-.79.67-1.44 1.64-1.44.72 0 1.34.34 1.69.83l-.59.5c-.27-.38-.65-.62-1.09-.62-.54 0-.83.32-.83.71 0 1.13 2.53.77 2.53 2.49-.01.94-.76 1.53-1.7 1.53-.8 0-1.43-.32-1.89-.89m7.238-1.83c0-1.47 1.01-2.72 2.59-2.72.75 0 1.34.29 1.79.8V82.5h.85V90h-.85v-.6c-.45.51-1.04.8-1.79.8-1.58 0-2.59-1.25-2.59-2.72m.9 0c0 1.07.72 1.92 1.79 1.92.7 0 1.32-.34 1.69-.93v-1.98c-.39-.6-1-.93-1.69-.93-1.07 0-1.79.85-1.79 1.92m8.422-2.72c1.62 0 2.73 1.25 2.73 2.72s-1.11 2.72-2.73 2.72c-1.63 0-2.73-1.25-2.73-2.72s1.1-2.72 2.73-2.72m.01 4.64c1.05 0 1.82-.88 1.82-1.92 0-1.05-.77-1.92-1.82-1.92-1.08 0-1.85.87-1.85 1.92s.77 1.92 1.85 1.92m4.087.6v-5.04h.85v.57c.41-.45.93-.77 1.68-.77 1.13 0 1.97.76 1.97 2.19V90h-.85v-3.02c0-.9-.51-1.42-1.29-1.42-.73 0-1.19.42-1.51.95V90zm6.21 0v-5.04h.85v.57c.41-.45.93-.77 1.68-.77 1.13 0 1.97.76 1.97 2.19V90h-.85v-3.02c0-.9-.51-1.42-1.29-1.42-.73 0-1.19.42-1.51.95V90zm8.772-5.84h-.83l1.04-1.66h.96zm1.92 5.01c-.47.63-1.22 1.03-2.16 1.03-1.7 0-2.75-1.25-2.75-2.72 0-1.53.98-2.72 2.54-2.72 1.37 0 2.26.96 2.26 2.2 0 .2-.03.39-.06.53h-3.87c.03 1.21.8 1.94 1.88 1.94.65 0 1.2-.3 1.53-.75zm-2.39-3.69c-.83 0-1.41.49-1.59 1.36h3.02c-.03-.74-.54-1.36-1.43-1.36m8.18 3.69c-.47.63-1.22 1.03-2.16 1.03-1.7 0-2.75-1.25-2.75-2.72 0-1.53.98-2.72 2.54-2.72 1.37 0 2.26.96 2.26 2.2 0 .2-.03.39-.06.53h-3.87c.03 1.21.8 1.94 1.88 1.94.65 0 1.2-.3 1.53-.75zm-2.39-3.69c-.83 0-1.41.49-1.59 1.36h3.02c-.03-.74-.54-1.36-1.43-1.36m3.142 3.83.6-.51c.35.44.77.69 1.28.69.56 0 .88-.34.88-.78 0-1.13-2.52-.73-2.52-2.51 0-.79.67-1.44 1.64-1.44.72 0 1.34.34 1.69.83l-.59.5c-.27-.38-.65-.62-1.09-.62-.54 0-.83.32-.83.71 0 1.13 2.53.77 2.53 2.49-.01.94-.76 1.53-1.7 1.53-.8 0-1.43-.32-1.89-.89m9.969-4.55c1.62 0 2.73 1.25 2.73 2.72s-1.11 2.72-2.73 2.72c-1.63 0-2.73-1.25-2.73-2.72s1.1-2.72 2.73-2.72m.01 4.64c1.05 0 1.82-.88 1.82-1.92 0-1.05-.77-1.92-1.82-1.92-1.08 0-1.85.87-1.85 1.92s.77 1.92 1.85 1.92m7.596-1.56v-2.88h.85v2.85c0 1.51-.87 2.39-2.24 2.39-1.36 0-2.23-.88-2.23-2.39v-2.85h.85v2.88c0 .99.53 1.56 1.39 1.56.84 0 1.38-.57 1.38-1.56m1.805-2.88h.92l1.61 4.15 1.61-4.15h.92l-1.97 5.04h-1.12zm10.503 4.21c-.47.63-1.22 1.03-2.16 1.03-1.7 0-2.75-1.25-2.75-2.72 0-1.53.98-2.72 2.54-2.72 1.37 0 2.26.96 2.26 2.2 0 .2-.03.39-.06.53h-3.87c.03 1.21.8 1.94 1.88 1.94.65 0 1.2-.3 1.53-.75zm-2.39-3.69c-.83 0-1.41.49-1.59 1.36h3.02c-.03-.74-.54-1.36-1.43-1.36m3.721 4.52v-5.04h.85v.63c.37-.44.83-.73 1.47-.73.16 0 .31.02.43.06v.83c-.15-.04-.3-.06-.5-.06-.66 0-1.09.34-1.4.85V90zm4.499-1.69v-2.58h-.95v-.77h.95V83.7h.86v1.26h1.75v.77h-1.75v2.58c0 .79.4 1.01 1.01 1.01.33 0 .56-.04.75-.12v.76c-.24.1-.51.14-.87.14-1.12 0-1.75-.56-1.75-1.79m8.291.86c-.47.63-1.22 1.03-2.16 1.03-1.7 0-2.75-1.25-2.75-2.72 0-1.53.98-2.72 2.54-2.72 1.37 0 2.26.96 2.26 2.2 0 .2-.03.39-.06.53h-3.87c.03 1.21.8 1.94 1.88 1.94.65 0 1.2-.3 1.53-.75zm-2.39-3.69c-.83 0-1.41.49-1.59 1.36h3.02c-.03-.74-.54-1.36-1.43-1.36m3.142 3.83.6-.51c.35.44.77.69 1.28.69.56 0 .88-.34.88-.78 0-1.13-2.52-.73-2.52-2.51 0-.79.67-1.44 1.64-1.44.72 0 1.34.34 1.69.83l-.59.5c-.27-.38-.65-.62-1.09-.62-.54 0-.83.32-.83.71 0 1.13 2.53.77 2.53 2.49-.01.94-.76 1.53-1.7 1.53-.8 0-1.43-.32-1.89-.89m8.129-3.19c-.36 0-.65-.29-.65-.64s.29-.63.65-.63.64.28.64.63-.28.64-.64.64m0 3.99c-.36 0-.65-.28-.65-.63s.29-.64.65-.64.64.29.64.64-.28.63-.64.63m4.5-2.63c0-1.47 1.01-2.72 2.59-2.72.75 0 1.34.29 1.79.81v-.61h.85v7.5h-.85v-3.07c-.45.52-1.04.81-1.79.81-1.58 0-2.59-1.25-2.59-2.72m.89 0c0 1.07.73 1.92 1.79 1.92.71 0 1.32-.34 1.7-.94V86.5c-.39-.61-1-.94-1.7-.94-1.06 0-1.79.85-1.79 1.92m9.652.36v-2.88h.85v2.85c0 1.51-.87 2.39-2.24 2.39-1.36 0-2.23-.88-2.23-2.39v-2.85h.85v2.88c0 .99.53 1.56 1.39 1.56.84 0 1.38-.57 1.38-1.56m2.855-2.16h-.79l.85-2.68h.97zm6.211 3.49c-.47.63-1.22 1.03-2.16 1.03-1.7 0-2.75-1.25-2.75-2.72 0-1.53.98-2.72 2.54-2.72 1.37 0 2.26.96 2.26 2.2 0 .2-.03.39-.06.53h-3.87c.03 1.21.8 1.94 1.88 1.94.65 0 1.2-.3 1.53-.75zm-2.39-3.69c-.83 0-1.41.49-1.59 1.36h3.02c-.03-.74-.54-1.36-1.43-1.36m3.141 3.83.6-.51c.35.44.77.69 1.28.69.56 0 .88-.34.88-.78 0-1.13-2.52-.73-2.52-2.51 0-.79.67-1.44 1.64-1.44.72 0 1.34.34 1.69.83l-.59.5c-.27-.38-.65-.62-1.09-.62-.54 0-.83.32-.83.71 0 1.13 2.53.77 2.53 2.49-.01.94-.76 1.53-1.7 1.53-.8 0-1.43-.32-1.89-.89m5.303-1v-2.58h-.95v-.77h.95V83.7h.86v1.26h1.75v.77h-1.75v2.58c0 .79.4 1.01 1.01 1.01.33 0 .56-.04.75-.12v.76c-.24.1-.51.14-.87.14-1.12 0-1.75-.56-1.75-1.79m2.887-1.28h2.7v.82h-2.7zm6.311 2.37c.62 0 1.13-.3 1.44-.74l.67.51c-.47.63-1.2 1.03-2.12 1.03-1.67 0-2.74-1.25-2.74-2.72s1.07-2.72 2.74-2.72c.91 0 1.65.41 2.12 1.03l-.67.51c-.31-.44-.82-.74-1.45-.74-1.08 0-1.85.85-1.85 1.92 0 1.08.77 1.92 1.86 1.92m7.56-.23c-.47.63-1.22 1.03-2.16 1.03-1.7 0-2.75-1.25-2.75-2.72 0-1.53.98-2.72 2.54-2.72 1.37 0 2.26.96 2.26 2.2 0 .2-.03.39-.06.53h-3.87c.03 1.21.8 1.94 1.88 1.94.65 0 1.2-.3 1.53-.75zm-2.39-3.69c-.83 0-1.41.49-1.59 1.36h3.02c-.03-.74-.54-1.36-1.43-1.36m5.986 2c0-1.47 1.01-2.72 2.59-2.72.75 0 1.34.29 1.79.81v-.61h.85v7.5h-.85v-3.07c-.45.52-1.04.81-1.79.81-1.58 0-2.59-1.25-2.59-2.72m.89 0c0 1.07.73 1.92 1.79 1.92.71 0 1.32-.34 1.7-.94V86.5c-.39-.61-1-.94-1.7-.94-1.06 0-1.79.85-1.79 1.92m9.652.36v-2.88h.85v2.85c0 1.51-.87 2.39-2.24 2.39-1.36 0-2.23-.88-2.23-2.39v-2.85h.85v2.88c0 .99.53 1.56 1.39 1.56.84 0 1.38-.57 1.38-1.56m7.005 1.33c-.47.63-1.22 1.03-2.16 1.03-1.7 0-2.75-1.25-2.75-2.72 0-1.53.98-2.72 2.54-2.72 1.37 0 2.26.96 2.26 2.2 0 .2-.03.39-.06.53h-3.87c.03 1.21.8 1.94 1.88 1.94.65 0 1.2-.3 1.53-.75zm-2.39-3.69c-.83 0-1.41.49-1.59 1.36h3.02c-.03-.74-.54-1.36-1.43-1.36m8.736 3.92c.62 0 1.13-.3 1.44-.74l.67.51c-.47.63-1.2 1.03-2.12 1.03-1.67 0-2.74-1.25-2.74-2.72s1.07-2.72 2.74-2.72c.91 0 1.65.41 2.12 1.03l-.67.51c-.31-.44-.82-.74-1.45-.74-1.08 0-1.85.85-1.85 1.92 0 1.08.77 1.92 1.86 1.92m3.937-3.72h-.79l.85-2.68h.97zm6.211 3.49c-.47.63-1.22 1.03-2.16 1.03-1.7 0-2.75-1.25-2.75-2.72 0-1.53.98-2.72 2.54-2.72 1.37 0 2.26.96 2.26 2.2 0 .2-.03.39-.06.53h-3.87c.03 1.21.8 1.94 1.88 1.94.65 0 1.2-.3 1.53-.75zm-2.39-3.69c-.83 0-1.41.49-1.59 1.36h3.02c-.03-.74-.54-1.36-1.43-1.36m3.141 3.83.6-.51c.35.44.77.69 1.28.69.56 0 .88-.34.88-.78 0-1.13-2.52-.73-2.52-2.51 0-.79.67-1.44 1.64-1.44.72 0 1.34.34 1.69.83l-.59.5c-.27-.38-.65-.62-1.09-.62-.54 0-.83.32-.83.71 0 1.13 2.53.77 2.53 2.49-.01.94-.76 1.53-1.7 1.53-.8 0-1.43-.32-1.89-.89m5.303-1v-2.58h-.95v-.77h.95V83.7h.86v1.26h1.75v.77h-1.75v2.58c0 .79.4 1.01 1.01 1.01.33 0 .56-.04.75-.12v.76c-.24.1-.51.14-.87.14-1.12 0-1.75-.56-1.75-1.79m7.495-.35-.1-1.52c1.41-.16 2.18-.64 2.18-1.59 0-.72-.54-1.26-1.27-1.26-.62 0-1.04.29-1.46.87L242 84c.52-.74 1.2-1.2 2.23-1.2 1.2 0 2.16.86 2.16 2.04 0 1.23-.95 1.99-2.29 2.22l-.05.9zm.34 2.15c-.35 0-.64-.29-.64-.64 0-.34.29-.63.64-.63s.64.29.64.63c0 .35-.29.64-.64.64"/><path fill="#fff" d="M13 101h324v30H13z"/><path stroke="#e5e5e5" d="M13 101h324v30H13z"/><path fill="#161616" d="M31.5 119H24a.5.5 0 0 0 0 1h7.5v1H24a1.5 1.5 0 0 1-1.5-1.5V112a1 1 0 0 1 1-1h8zm-8-.975q.12-.025.25-.025h6.75v-6h-7zM29 114.5h-4v-1h4zM40.28 112.4 39 111.05h1.02l1.13 1.35zm-3.01 7.6 2.79-7h1.26l2.79 7h-1l-.81-2.06h-3.22l-.81 2.06zm2.12-2.87h2.6l-1.3-3.31zm8.158.35c0-1.47 1.01-2.72 2.59-2.72.75 0 1.34.29 1.79.81v-.61h.85v7.5h-.85v-3.07c-.45.52-1.04.81-1.79.81-1.58 0-2.59-1.25-2.59-2.72m.89 0c0 1.07.73 1.92 1.79 1.92.71 0 1.32-.34 1.7-.94v-1.96c-.39-.61-1-.94-1.7-.94-1.06 0-1.79.85-1.79 1.92m9.652.36v-2.88h.85v2.85c0 1.51-.87 2.39-2.24 2.39-1.36 0-2.23-.88-2.23-2.39v-2.85h.85v2.88c0 .99.53 1.56 1.39 1.56.84 0 1.38-.57 1.38-1.56m4.825-3.08c1.62 0 2.73 1.25 2.73 2.72s-1.11 2.72-2.73 2.72c-1.63 0-2.73-1.25-2.73-2.72s1.1-2.72 2.73-2.72m.01 4.64c1.05 0 1.82-.88 1.82-1.92 0-1.05-.77-1.92-1.82-1.92-1.08 0-1.85.87-1.85 1.92s.77 1.92 1.85 1.92m4.516-5.75c-.33 0-.6-.27-.6-.6a.6.6 0 0 1 .6-.59c.33 0 .59.27.59.59 0 .33-.26.6-.59.6m-.43 6.35v-5.04h.85V120zm4.802-.69.6-.51c.35.44.77.69 1.28.69.56 0 .88-.34.88-.78 0-1.13-2.52-.73-2.52-2.51 0-.79.67-1.44 1.64-1.44.72 0 1.34.34 1.69.83l-.59.5c-.27-.38-.65-.62-1.09-.62-.54 0-.83.32-.83.71 0 1.13 2.53.77 2.53 2.49-.01.94-.76 1.53-1.7 1.53-.8 0-1.43-.32-1.89-.89m9.395-.14c-.47.63-1.22 1.03-2.16 1.03-1.7 0-2.75-1.25-2.75-2.72 0-1.53.98-2.72 2.54-2.72 1.37 0 2.26.96 2.26 2.2 0 .2-.03.39-.06.53h-3.87c.03 1.21.8 1.94 1.88 1.94.65 0 1.2-.3 1.53-.75zm-2.39-3.69c-.83 0-1.41.49-1.59 1.36h3.02c-.03-.74-.54-1.36-1.43-1.36m3.72 4.52v-5.04h.85v.63c.37-.44.83-.73 1.47-.73.16 0 .31.02.43.06v.83c-.15-.04-.3-.06-.5-.06-.66 0-1.09.34-1.4.85V120zm3.391-5.04h.92l1.61 4.15 1.61-4.15h.92L89.02 120H87.9zm10.504 4.21c-.47.63-1.22 1.03-2.16 1.03-1.7 0-2.75-1.25-2.75-2.72 0-1.53.98-2.72 2.54-2.72 1.37 0 2.26.96 2.26 2.2 0 .2-.03.39-.06.53h-3.87c.03 1.21.8 1.94 1.88 1.94.65 0 1.2-.3 1.53-.75zm-2.39-3.69c-.83 0-1.41.49-1.59 1.36h3.02c-.03-.74-.54-1.36-1.43-1.36m3.72 4.52v-5.04h.85v.57c.41-.45.93-.77 1.68-.77 1.13 0 1.97.76 1.97 2.19V120h-.85v-3.02c0-.9-.51-1.42-1.29-1.42-.73 0-1.19.42-1.51.95V120zm6.501-1.69v-2.58h-.95v-.77h.95v-1.26h.86v1.26h1.75v.77h-1.75v2.58c0 .79.4 1.01 1.01 1.01.33 0 .56-.04.75-.12v.76c-.24.1-.51.14-.87.14-1.12 0-1.75-.56-1.75-1.79m6.605 1.69v-7.5h.85v7.5zm7.126-.83c-.47.63-1.22 1.03-2.16 1.03-1.7 0-2.75-1.25-2.75-2.72 0-1.53.98-2.72 2.54-2.72 1.37 0 2.26.96 2.26 2.2 0 .2-.03.39-.06.53h-3.87c.03 1.21.8 1.94 1.88 1.94.65 0 1.2-.3 1.53-.75zm-2.39-3.69c-.83 0-1.41.49-1.59 1.36h3.02c-.03-.74-.54-1.36-1.43-1.36m3.142 3.83.6-.51c.35.44.77.69 1.28.69.56 0 .88-.34.88-.78 0-1.13-2.52-.73-2.52-2.51 0-.79.67-1.44 1.64-1.44.72 0 1.34.34 1.69.83l-.59.5c-.27-.38-.65-.62-1.09-.62-.54 0-.83.32-.83.71 0 1.13 2.53.77 2.53 2.49-.01.94-.76 1.53-1.7 1.53-.8 0-1.43-.32-1.89-.89m7.239-1.83c0-1.47 1.01-2.72 2.59-2.72.75 0 1.34.29 1.79.8v-3.06h.85v7.5h-.85v-.6c-.45.51-1.04.8-1.79.8-1.58 0-2.59-1.25-2.59-2.72m.9 0c0 1.07.72 1.92 1.79 1.92.7 0 1.32-.34 1.69-.93v-1.98c-.39-.6-1-.93-1.69-.93-1.07 0-1.79.85-1.79 1.92m8.421-2.72c1.62 0 2.73 1.25 2.73 2.72s-1.11 2.72-2.73 2.72c-1.63 0-2.73-1.25-2.73-2.72s1.1-2.72 2.73-2.72m.01 4.64c1.05 0 1.82-.88 1.82-1.92 0-1.05-.77-1.92-1.82-1.92-1.08 0-1.85.87-1.85 1.92s.77 1.92 1.85 1.92m4.087.6v-5.04h.85v.57c.41-.45.93-.77 1.68-.77 1.13 0 1.97.76 1.97 2.19V120h-.85v-3.02c0-.9-.51-1.42-1.29-1.42-.73 0-1.19.42-1.51.95V120zm6.211 0v-5.04h.85v.57c.41-.45.93-.77 1.68-.77 1.13 0 1.97.76 1.97 2.19V120h-.85v-3.02c0-.9-.51-1.42-1.29-1.42-.73 0-1.19.42-1.51.95V120zm8.771-5.84h-.83l1.04-1.66h.96zm1.92 5.01c-.47.63-1.22 1.03-2.16 1.03-1.7 0-2.75-1.25-2.75-2.72 0-1.53.98-2.72 2.54-2.72 1.37 0 2.26.96 2.26 2.2 0 .2-.03.39-.06.53h-3.87c.03 1.21.8 1.94 1.88 1.94.65 0 1.2-.3 1.53-.75zm-2.39-3.69c-.83 0-1.41.49-1.59 1.36h3.02c-.03-.74-.54-1.36-1.43-1.36m8.181 3.69c-.47.63-1.22 1.03-2.16 1.03-1.7 0-2.75-1.25-2.75-2.72 0-1.53.98-2.72 2.54-2.72 1.37 0 2.26.96 2.26 2.2 0 .2-.03.39-.06.53h-3.87c.03 1.21.8 1.94 1.88 1.94.65 0 1.2-.3 1.53-.75zm-2.39-3.69c-.83 0-1.41.49-1.59 1.36h3.02c-.03-.74-.54-1.36-1.43-1.36m3.141 3.83.6-.51c.35.44.77.69 1.28.69.56 0 .88-.34.88-.78 0-1.13-2.52-.73-2.52-2.51 0-.79.67-1.44 1.64-1.44.72 0 1.34.34 1.69.83l-.59.5c-.27-.38-.65-.62-1.09-.62-.54 0-.83.32-.83.71 0 1.13 2.53.77 2.53 2.49-.01.94-.76 1.53-1.7 1.53-.8 0-1.43-.32-1.89-.89m9.969-4.55c1.62 0 2.73 1.25 2.73 2.72s-1.11 2.72-2.73 2.72c-1.63 0-2.73-1.25-2.73-2.72s1.1-2.72 2.73-2.72m.01 4.64c1.05 0 1.82-.88 1.82-1.92 0-1.05-.77-1.92-1.82-1.92-1.08 0-1.85.87-1.85 1.92s.77 1.92 1.85 1.92m7.597-1.56v-2.88h.85v2.85c0 1.51-.87 2.39-2.24 2.39-1.36 0-2.23-.88-2.23-2.39v-2.85h.85v2.88c0 .99.53 1.56 1.39 1.56.84 0 1.38-.57 1.38-1.56m1.804-2.88h.92l1.61 4.15 1.61-4.15h.92l-1.97 5.04h-1.12zm10.504 4.21c-.47.63-1.22 1.03-2.16 1.03-1.7 0-2.75-1.25-2.75-2.72 0-1.53.98-2.72 2.54-2.72 1.37 0 2.26.96 2.26 2.2 0 .2-.03.39-.06.53h-3.87c.03 1.21.8 1.94 1.88 1.94.65 0 1.2-.3 1.53-.75zm-2.39-3.69c-.83 0-1.41.49-1.59 1.36h3.02c-.03-.74-.54-1.36-1.43-1.36m3.72 4.52v-5.04h.85v.63c.37-.44.83-.73 1.47-.73.16 0 .31.02.43.06v.83c-.15-.04-.3-.06-.5-.06-.66 0-1.09.34-1.4.85V120zm4.499-1.69v-2.58h-.95v-.77h.95v-1.26h.86v1.26h1.75v.77h-1.75v2.58c0 .79.4 1.01 1.01 1.01.33 0 .56-.04.75-.12v.76c-.24.1-.51.14-.87.14-1.12 0-1.75-.56-1.75-1.79m8.292.86c-.47.63-1.22 1.03-2.16 1.03-1.7 0-2.75-1.25-2.75-2.72 0-1.53.98-2.72 2.54-2.72 1.37 0 2.26.96 2.26 2.2 0 .2-.03.39-.06.53h-3.87c.03 1.21.8 1.94 1.88 1.94.65 0 1.2-.3 1.53-.75zm-2.39-3.69c-.83 0-1.41.49-1.59 1.36h3.02c-.03-.74-.54-1.36-1.43-1.36m3.141 3.83.6-.51c.35.44.77.69 1.28.69.56 0 .88-.34.88-.78 0-1.13-2.52-.73-2.52-2.51 0-.79.67-1.44 1.64-1.44.72 0 1.34.34 1.69.83l-.59.5c-.27-.38-.65-.62-1.09-.62-.54 0-.83.32-.83.71 0 1.13 2.53.77 2.53 2.49-.01.94-.76 1.53-1.7 1.53-.8 0-1.43-.32-1.89-.89m8.559-1.35-.1-1.52c1.41-.16 2.18-.64 2.18-1.59 0-.72-.54-1.26-1.27-1.26-.62 0-1.04.29-1.46.87l-.74-.46c.52-.74 1.2-1.2 2.23-1.2 1.2 0 2.16.86 2.16 2.04 0 1.23-.95 1.99-2.29 2.22l-.05.9zm.34 2.15c-.35 0-.64-.29-.64-.64 0-.34.29-.63.64-.63s.64.29.64.63c0 .35-.29.64-.64.64"/><path fill="#fff" d="M13 131h324v30H13z"/><path stroke="#e5e5e5" d="M13 131h324v30H13z"/><path fill="#161616" d="M31.5 149H24a.5.5 0 0 0 0 1h7.5v1H24a1.5 1.5 0 0 1-1.5-1.5V142a1 1 0 0 1 1-1h8zm-8-.975q.12-.024.25-.025h6.75v-6h-7zM29 144.5h-4v-1h4zM41.19 149.32c.94 0 1.71-.46 2.18-1.14l.75.58c-.64.87-1.67 1.44-2.93 1.44-2.19 0-3.68-1.7-3.68-3.7s1.49-3.7 3.68-3.7c1.26 0 2.29.58 2.93 1.44l-.75.58a2.61 2.61 0 0 0-2.18-1.14c-1.58 0-2.71 1.26-2.71 2.82s1.13 2.82 2.71 2.82m6.48-4.56c1.62 0 2.73 1.25 2.73 2.72s-1.11 2.72-2.73 2.72c-1.63 0-2.73-1.25-2.73-2.72s1.1-2.72 2.73-2.72m.01 4.64c1.05 0 1.82-.88 1.82-1.92 0-1.05-.77-1.92-1.82-1.92-1.08 0-1.85.87-1.85 1.92s.77 1.92 1.85 1.92m4.087.6v-5.04h.85v.55c.38-.44.88-.75 1.58-.75.73 0 1.33.33 1.64.97.4-.55.93-.97 1.8-.97 1.08 0 1.87.72 1.87 2.09V150h-.85v-3.12c0-.84-.47-1.32-1.19-1.32-.64 0-1.09.36-1.42.95.01.11.02.22.02.34V150h-.85v-3.12c0-.84-.46-1.32-1.19-1.32-.69 0-1.12.43-1.41.95V150zm9.453 0v-5.04h.85v.55c.38-.44.88-.75 1.58-.75.73 0 1.33.33 1.64.97.4-.55.93-.97 1.8-.97 1.08 0 1.87.72 1.87 2.09V150h-.85v-3.12c0-.84-.47-1.32-1.19-1.32-.64 0-1.09.36-1.42.95.01.11.02.22.02.34V150h-.85v-3.12c0-.84-.46-1.32-1.19-1.32-.69 0-1.12.43-1.41.95V150zm13.933-.83c-.47.63-1.22 1.03-2.16 1.03-1.7 0-2.75-1.25-2.75-2.72 0-1.53.98-2.72 2.54-2.72 1.37 0 2.26.96 2.26 2.2 0 .2-.03.39-.06.53h-3.87c.03 1.21.8 1.94 1.88 1.94.65 0 1.2-.3 1.53-.75zm-2.39-3.69c-.83 0-1.41.49-1.59 1.36h3.02c-.03-.74-.54-1.36-1.43-1.36m3.721 4.52v-5.04h.85v.57c.41-.45.93-.77 1.68-.77 1.13 0 1.97.76 1.97 2.19V150h-.85v-3.02c0-.9-.51-1.42-1.29-1.42-.73 0-1.19.42-1.51.95V150zm6.5-1.69v-2.58h-.95v-.77h.95v-1.26h.86v1.26h1.75v.77h-1.75v2.58c0 .79.4 1.01 1.01 1.01.33 0 .56-.04.75-.12v.76c-.24.1-.51.14-.87.14-1.12 0-1.75-.56-1.75-1.79m11.086.86c-.47.63-1.22 1.03-2.16 1.03-1.7 0-2.75-1.25-2.75-2.72 0-1.53.98-2.72 2.54-2.72 1.37 0 2.26.96 2.26 2.2 0 .2-.03.39-.06.53h-3.87c.03 1.21.8 1.94 1.88 1.94.65 0 1.2-.3 1.53-.75zm-2.39-3.69c-.83 0-1.41.49-1.59 1.36h3.02c-.03-.74-.54-1.36-1.43-1.36m3.942 4.52h-.99l1.86-2.61-1.72-2.43h.97l1.31 1.86 1.31-1.86h.98l-1.73 2.43 1.86 2.61h-.97l-1.44-2.04zm4.983 2.46v-7.5h.85v.6c.45-.51 1.04-.8 1.79-.8 1.58 0 2.59 1.25 2.59 2.72s-1.01 2.72-2.59 2.72c-.75 0-1.34-.29-1.79-.8v3.06zm2.54-6.9c-.7 0-1.31.34-1.69.94v1.96c.39.61 1 .94 1.69.94 1.07 0 1.8-.85 1.8-1.92s-.73-1.92-1.8-1.92m4.062 4.44v-7.5h.85v7.5zm4.946-5.24c1.62 0 2.73 1.25 2.73 2.72s-1.11 2.72-2.73 2.72c-1.63 0-2.73-1.25-2.73-2.72s1.1-2.72 2.73-2.72m.01 4.64c1.05 0 1.82-.88 1.82-1.92 0-1.05-.77-1.92-1.82-1.92-1.08 0-1.85.87-1.85 1.92s.77 1.92 1.85 1.92m4.517-5.75c-.33 0-.6-.27-.6-.6a.6.6 0 0 1 .6-.59c.33 0 .59.27.59.59 0 .33-.26.6-.59.6m-.43 6.35v-5.04h.85V150zm2.936-1.69v-2.58h-.95v-.77h.95v-1.26h.86v1.26h1.75v.77h-1.75v2.58c0 .79.4 1.01 1.01 1.01.33 0 .56-.04.75-.12v.76c-.24.1-.51.14-.87.14-1.12 0-1.75-.56-1.75-1.79m8.292.86c-.47.63-1.22 1.03-2.16 1.03-1.7 0-2.75-1.25-2.75-2.72 0-1.53.98-2.72 2.54-2.72 1.37 0 2.26.96 2.26 2.2 0 .2-.03.39-.06.53h-3.87c.03 1.21.8 1.94 1.88 1.94.65 0 1.2-.3 1.53-.75zm-2.39-3.69c-.83 0-1.41.49-1.59 1.36h3.02c-.03-.74-.54-1.36-1.43-1.36m3.72 4.52v-5.04h.85v.63c.37-.44.83-.73 1.47-.73.16 0 .31.02.43.06v.83c-.15-.04-.3-.06-.5-.06-.66 0-1.09.34-1.4.85V150zm6.67 0v-7.5h.85v7.5zm7.127-.83c-.47.63-1.22 1.03-2.16 1.03-1.7 0-2.75-1.25-2.75-2.72 0-1.53.98-2.72 2.54-2.72 1.37 0 2.26.96 2.26 2.2 0 .2-.03.39-.06.53h-3.87c.03 1.21.8 1.94 1.88 1.94.65 0 1.2-.3 1.53-.75zm-2.39-3.69c-.83 0-1.41.49-1.59 1.36h3.02c-.03-.74-.54-1.36-1.43-1.36m3.141 3.83.6-.51c.35.44.77.69 1.28.69.56 0 .88-.34.88-.78 0-1.13-2.52-.73-2.52-2.51 0-.79.67-1.44 1.64-1.44.72 0 1.34.34 1.69.83l-.59.5c-.27-.38-.65-.62-1.09-.62-.54 0-.83.32-.83.71 0 1.13 2.53.77 2.53 2.49-.01.94-.76 1.53-1.7 1.53-.8 0-1.43-.32-1.89-.89m7.239-1.83c0-1.47 1.01-2.72 2.59-2.72.75 0 1.34.29 1.79.8v-3.06h.85v7.5h-.85v-.6c-.45.51-1.04.8-1.79.8-1.58 0-2.59-1.25-2.59-2.72m.9 0c0 1.07.72 1.92 1.79 1.92.7 0 1.32-.34 1.69-.93v-1.98c-.39-.6-1-.93-1.69-.93-1.07 0-1.79.85-1.79 1.92m8.422-2.72c1.62 0 2.73 1.25 2.73 2.72s-1.11 2.72-2.73 2.72c-1.63 0-2.73-1.25-2.73-2.72s1.1-2.72 2.73-2.72m.01 4.64c1.05 0 1.82-.88 1.82-1.92 0-1.05-.77-1.92-1.82-1.92-1.08 0-1.85.87-1.85 1.92s.77 1.92 1.85 1.92m4.086.6v-5.04h.85v.57c.41-.45.93-.77 1.68-.77 1.13 0 1.97.76 1.97 2.19V150h-.85v-3.02c0-.9-.51-1.42-1.29-1.42-.73 0-1.19.42-1.51.95V150zm6.211 0v-5.04h.85v.57c.41-.45.93-.77 1.68-.77 1.13 0 1.97.76 1.97 2.19V150h-.85v-3.02c0-.9-.51-1.42-1.29-1.42-.73 0-1.19.42-1.51.95V150zm8.771-5.84h-.83l1.04-1.66h.96zm1.92 5.01c-.47.63-1.22 1.03-2.16 1.03-1.7 0-2.75-1.25-2.75-2.72 0-1.53.98-2.72 2.54-2.72 1.37 0 2.26.96 2.26 2.2 0 .2-.03.39-.06.53h-3.87c.03 1.21.8 1.94 1.88 1.94.65 0 1.2-.3 1.53-.75zm-2.39-3.69c-.83 0-1.41.49-1.59 1.36h3.02c-.03-.74-.54-1.36-1.43-1.36m8.181 3.69c-.47.63-1.22 1.03-2.16 1.03-1.7 0-2.75-1.25-2.75-2.72 0-1.53.98-2.72 2.54-2.72 1.37 0 2.26.96 2.26 2.2 0 .2-.03.39-.06.53h-3.87c.03 1.21.8 1.94 1.88 1.94.65 0 1.2-.3 1.53-.75zm-2.39-3.69c-.83 0-1.41.49-1.59 1.36h3.02c-.03-.74-.54-1.36-1.43-1.36m3.142 3.83.6-.51c.35.44.77.69 1.28.69.56 0 .88-.34.88-.78 0-1.13-2.52-.73-2.52-2.51 0-.79.67-1.44 1.64-1.44.72 0 1.34.34 1.69.83l-.59.5c-.27-.38-.65-.62-1.09-.62-.54 0-.83.32-.83.71 0 1.13 2.53.77 2.53 2.49-.01.94-.76 1.53-1.7 1.53-.8 0-1.43-.32-1.89-.89m9.969-4.55c1.62 0 2.73 1.25 2.73 2.72s-1.11 2.72-2.73 2.72c-1.63 0-2.73-1.25-2.73-2.72s1.1-2.72 2.73-2.72m.01 4.64c1.05 0 1.82-.88 1.82-1.92 0-1.05-.77-1.92-1.82-1.92-1.08 0-1.85.87-1.85 1.92s.77 1.92 1.85 1.92m7.596-1.56v-2.88h.85v2.85c0 1.51-.87 2.39-2.24 2.39-1.36 0-2.23-.88-2.23-2.39v-2.85h.85v2.88c0 .99.53 1.56 1.39 1.56.84 0 1.38-.57 1.38-1.56m1.804-2.88h.92l1.61 4.15 1.61-4.15h.92l-1.97 5.04h-1.12zm10.504 4.21c-.47.63-1.22 1.03-2.16 1.03-1.7 0-2.75-1.25-2.75-2.72 0-1.53.98-2.72 2.54-2.72 1.37 0 2.26.96 2.26 2.2 0 .2-.03.39-.06.53h-3.87c.03 1.21.8 1.94 1.88 1.94.65 0 1.2-.3 1.53-.75zm-2.39-3.69c-.83 0-1.41.49-1.59 1.36h3.02c-.03-.74-.54-1.36-1.43-1.36m3.72 4.52v-5.04h.85v.63c.37-.44.83-.73 1.47-.73.16 0 .31.02.43.06v.83c-.15-.04-.3-.06-.5-.06-.66 0-1.09.34-1.4.85V150zm4.499-1.69v-2.58h-.95v-.77h.95v-1.26h.86v1.26h1.75v.77h-1.75v2.58c0 .79.4 1.01 1.01 1.01.33 0 .56-.04.75-.12v.76c-.24.1-.51.14-.87.14-1.12 0-1.75-.56-1.75-1.79m8.292.86c-.47.63-1.22 1.03-2.16 1.03-1.7 0-2.75-1.25-2.75-2.72 0-1.53.98-2.72 2.54-2.72 1.37 0 2.26.96 2.26 2.2 0 .2-.03.39-.06.53h-3.87c.03 1.21.8 1.94 1.88 1.94.65 0 1.2-.3 1.53-.75zm-2.39-3.69c-.83 0-1.41.49-1.59 1.36h3.02c-.03-.74-.54-1.36-1.43-1.36m3.142 3.83.6-.51c.35.44.77.69 1.28.69.56 0 .88-.34.88-.78 0-1.13-2.52-.73-2.52-2.51 0-.79.67-1.44 1.64-1.44.72 0 1.34.34 1.69.83l-.59.5c-.27-.38-.65-.62-1.09-.62-.54 0-.83.32-.83.71 0 1.13 2.53.77 2.53 2.49-.01.94-.76 1.53-1.7 1.53-.8 0-1.43-.32-1.89-.89m8.558-1.35-.1-1.52c1.41-.16 2.18-.64 2.18-1.59 0-.72-.54-1.26-1.27-1.26-.62 0-1.04.29-1.46.87l-.74-.46c.52-.74 1.2-1.2 2.23-1.2 1.2 0 2.16.86 2.16 2.04 0 1.23-.95 1.99-2.29 2.22l-.05.9zm.34 2.15c-.35 0-.64-.29-.64-.64 0-.34.29-.63.64-.63s.64.29.64.63c0 .35-.29.64-.64.64"/><path fill="#fff" d="M13 161h324v30H13z"/><path stroke="#e5e5e5" d="M13 161h324v30H13z"/><path fill="#005d6a" d="m26.5 176-3.536 3.535-.707-.707L25.086 176l-2.829-2.829.707-.707zm0 3.5h5v1h-5zM41.19 179.32c.94 0 1.71-.46 2.18-1.14l.75.58c-.64.87-1.67 1.44-2.93 1.44-2.19 0-3.68-1.7-3.68-3.7s1.49-3.7 3.68-3.7c1.26 0 2.29.58 2.93 1.44l-.75.58a2.61 2.61 0 0 0-2.18-1.14c-1.58 0-2.71 1.26-2.71 2.82s1.13 2.82 2.71 2.82m6.48-4.56c1.62 0 2.73 1.25 2.73 2.72s-1.11 2.72-2.73 2.72c-1.63 0-2.73-1.25-2.73-2.72s1.1-2.72 2.73-2.72m.01 4.64c1.05 0 1.82-.88 1.82-1.92 0-1.05-.77-1.92-1.82-1.92-1.08 0-1.85.87-1.85 1.92s.77 1.92 1.85 1.92m4.087.6v-5.04h.85v.55c.38-.44.88-.75 1.58-.75.73 0 1.33.33 1.64.97.4-.55.93-.97 1.8-.97 1.08 0 1.87.72 1.87 2.09V180h-.85v-3.12c0-.84-.47-1.32-1.19-1.32-.64 0-1.09.36-1.42.95.01.11.02.22.02.34V180h-.85v-3.12c0-.84-.46-1.32-1.19-1.32-.69 0-1.12.43-1.41.95V180zm9.453 0v-5.04h.85v.55c.38-.44.88-.75 1.58-.75.73 0 1.33.33 1.64.97.4-.55.93-.97 1.8-.97 1.08 0 1.87.72 1.87 2.09V180h-.85v-3.12c0-.84-.47-1.32-1.19-1.32-.64 0-1.09.36-1.42.95.01.11.02.22.02.34V180h-.85v-3.12c0-.84-.46-1.32-1.19-1.32-.69 0-1.12.43-1.41.95V180zm13.933-.83c-.47.63-1.22 1.03-2.16 1.03-1.7 0-2.75-1.25-2.75-2.72 0-1.53.98-2.72 2.54-2.72 1.37 0 2.26.96 2.26 2.2 0 .2-.03.39-.06.53h-3.87c.03 1.21.8 1.94 1.88 1.94.65 0 1.2-.3 1.53-.75zm-2.39-3.69c-.83 0-1.41.49-1.59 1.36h3.02c-.03-.74-.54-1.36-1.43-1.36m3.721 4.52v-5.04h.85v.57c.41-.45.93-.77 1.68-.77 1.13 0 1.97.76 1.97 2.19V180h-.85v-3.02c0-.9-.51-1.42-1.29-1.42-.73 0-1.19.42-1.51.95V180zm6.5-1.69v-2.58h-.95v-.77h.95v-1.26h.86v1.26h1.75v.77h-1.75v2.58c0 .79.4 1.01 1.01 1.01.33 0 .56-.04.75-.12v.76c-.24.1-.51.14-.87.14-1.12 0-1.75-.56-1.75-1.79m10.116-.47v-2.88h.85v2.85c0 1.51-.87 2.39-2.24 2.39-1.36 0-2.23-.88-2.23-2.39v-2.85h.85v2.88c0 .99.53 1.56 1.39 1.56.84 0 1.38-.57 1.38-1.56m2.854.47v-2.58h-.95v-.77h.95v-1.26h.86v1.26h1.75v.77h-1.75v2.58c0 .79.4 1.01 1.01 1.01.33 0 .56-.04.75-.12v.76c-.24.1-.51.14-.87.14-1.12 0-1.75-.56-1.75-1.79m4.339-4.66c-.33 0-.6-.27-.6-.6a.6.6 0 0 1 .6-.59c.33 0 .59.27.59.59 0 .33-.26.6-.59.6m-.43 6.35v-5.04h.85V180zm2.646 0v-7.5h.85v7.5zm3.077-6.35c-.33 0-.6-.27-.6-.6a.6.6 0 0 1 .6-.59c.33 0 .59.27.59.59 0 .33-.26.6-.59.6m-.43 6.35v-5.04h.85V180zm2.067-.69.6-.51c.35.44.77.69 1.28.69.56 0 .88-.34.88-.78 0-1.13-2.52-.73-2.52-2.51 0-.79.67-1.44 1.64-1.44.72 0 1.34.34 1.69.83l-.59.5c-.27-.38-.65-.62-1.09-.62-.54 0-.83.32-.83.71 0 1.13 2.53.77 2.53 2.49-.01.94-.76 1.53-1.7 1.53-.8 0-1.43-.32-1.89-.89m9.395-.14c-.47.63-1.22 1.03-2.16 1.03-1.7 0-2.75-1.25-2.75-2.72 0-1.53.98-2.72 2.54-2.72 1.37 0 2.26.96 2.26 2.2 0 .2-.03.39-.06.53h-3.87c.03 1.21.8 1.94 1.88 1.94.65 0 1.2-.3 1.53-.75zm-2.39-3.69c-.83 0-1.41.49-1.59 1.36h3.02c-.03-.74-.54-1.36-1.43-1.36m3.721 4.52v-5.04h.85v.63c.37-.44.83-.73 1.47-.73.16 0 .31.02.43.06v.83c-.15-.04-.3-.06-.5-.06-.66 0-1.09.34-1.4.85V180zm6.67 0v-7.5h.85v7.5zm3.015-4.32h-.79l.85-2.68h.97zm.935 4.32 2.79-7h1.26l2.79 7h-1l-.81-2.06h-3.22l-.81 2.06zm2.12-2.87h2.6l-1.3-3.31zm6.103 2.87v-7h2.05c1.4 0 2.27.77 2.27 1.97s-.87 1.96-2.27 1.96h-1.11V180zm2.07-6.2h-1.13v2.33h1.13c.8 0 1.28-.43 1.28-1.18 0-.71-.48-1.15-1.28-1.15m3.672 6.2v-7h.94v7zm5.149-2.52c0-1.47.97-2.72 2.56-2.72.68 0 1.17.21 1.56.6v-2.86h1.28v7.5h-1.28v-.4c-.39.39-.88.6-1.56.6-1.59 0-2.56-1.25-2.56-2.72m1.33 0c0 .88.55 1.52 1.41 1.52.57 0 1.04-.24 1.38-.7v-1.64c-.34-.46-.81-.7-1.38-.7-.86 0-1.41.64-1.41 1.52m7.013 2.67c-1.01 0-1.7-.58-1.7-1.51 0-.76.59-1.33 1.67-1.51l1.54-.26v-.13c0-.53-.4-.87-.98-.87-.49 0-.87.23-1.14.6l-.93-.71c.45-.62 1.19-1 2.11-1 1.46 0 2.21.87 2.21 1.98V180h-1.27v-.49c-.32.39-.92.64-1.51.64m-.44-1.57c0 .34.27.56.7.56.58 0 1-.27 1.25-.67v-.71l-1.2.2c-.53.09-.75.31-.75.62m4.994-.42v-2.06h-.94v-1.14h.94v-1.26h1.28v1.26h1.54v1.14h-1.54v2.06c0 .56.3.78.8.78.35 0 .58-.04.75-.11v1.11c-.25.11-.55.16-.97.16-1.26 0-1.86-.71-1.86-1.94m5.377 1.99c-1.01 0-1.7-.58-1.7-1.51 0-.76.59-1.33 1.67-1.51l1.54-.26v-.13c0-.53-.4-.87-.98-.87-.49 0-.87.23-1.14.6l-.93-.71c.45-.62 1.19-1 2.11-1 1.46 0 2.21.87 2.21 1.98V180h-1.27v-.49c-.32.39-.92.64-1.51.64m-.44-1.57c0 .34.27.56.7.56.58 0 1-.27 1.25-.67v-.71l-1.2.2c-.53.09-.75.31-.75.62m4.275 2.35c0-.52.26-.93.78-1.31a.85.85 0 0 1-.37-.71c0-.39.24-.73.63-.96-.45-.33-.71-.85-.71-1.41 0-.95.75-1.79 1.91-1.79.35 0 .67.08.94.21h1.89v.52h-1.26c.22.3.35.67.35 1.06 0 .95-.75 1.79-1.92 1.79-.3 0-.57-.06-.81-.15-.3.17-.46.42-.46.64 0 .23.11.41.48.41h1.54c1.37 0 1.94.63 1.94 1.5 0 1.02-1.04 1.77-2.52 1.77-1.42 0-2.41-.6-2.41-1.57m2.25-3.1c.85 0 1.32-.61 1.32-1.29 0-.7-.47-1.29-1.32-1.29-.87 0-1.34.59-1.34 1.29 0 .69.47 1.29 1.34 1.29m-1.66 3.05c0 .68.74 1.11 1.81 1.11 1.16 0 1.94-.47 1.94-1.23 0-.55-.3-.99-1.37-.99h-1.67c-.46.31-.71.66-.71 1.11m7.602-6.12c1.62 0 2.71 1.28 2.71 2.72s-1.09 2.72-2.71 2.72c-1.61 0-2.7-1.28-2.7-2.72s1.09-2.72 2.7-2.72m.01 4.88c1.19 0 2.07-1.02 2.07-2.16 0-1.16-.88-2.16-2.07-2.16-1.23 0-2.1 1.01-2.1 2.16s.87 2.16 2.1 2.16m7.815-1.78v-2.9h.58v2.89c0 1.5-.86 2.35-2.15 2.35-1.3 0-2.17-.85-2.17-2.35v-2.89h.59v2.9c0 1.14.63 1.78 1.58 1.78.93 0 1.57-.64 1.57-1.78m1.684-2.9h.63l1.81 4.47 1.8-4.47h.64l-2.05 5.04h-.78z"/><path fill="#fff" d="M13 191h324v30H13z"/><path stroke="#e5e5e5" d="M13 191h324v30H13z"/><path fill="#005d6a" d="M23.5 201h7a.5.5 0 0 1 .5.5v9.572a.25.25 0 0 1-.383.211L27 209.016l-3.617 2.267a.25.25 0 0 1-.383-.211V201.5a.5.5 0 0 1 .5-.5m6.5 1h-6v7.716l3-1.881 3 1.881zM38.11 210v-7h.94v6.14h2.82v.86zm5.581-6.35c-.33 0-.6-.27-.6-.6a.6.6 0 0 1 .6-.59c.33 0 .59.27.59.59 0 .33-.26.6-.59.6m-.43 6.35v-5.04h.85V210zm2.068-.69.6-.51c.35.44.77.69 1.28.69.56 0 .88-.34.88-.78 0-1.13-2.52-.73-2.52-2.51 0-.79.67-1.44 1.64-1.44.72 0 1.34.34 1.69.83l-.59.5c-.27-.38-.65-.62-1.09-.62-.54 0-.83.32-.83.71 0 1.13 2.53.77 2.53 2.49-.01.94-.76 1.53-1.7 1.53-.8 0-1.43-.32-1.89-.89m5.302-1v-2.58h-.95v-.77h.95v-1.26h.86v1.26h1.75v.77h-1.75v2.58c0 .79.4 1.01 1.01 1.01.33 0 .56-.04.75-.12v.76c-.24.1-.51.14-.87.14-1.12 0-1.75-.56-1.75-1.79m8.292.86c-.47.63-1.22 1.03-2.16 1.03-1.7 0-2.75-1.25-2.75-2.72 0-1.53.98-2.72 2.54-2.72 1.37 0 2.26.96 2.26 2.2 0 .2-.03.39-.06.53h-3.87c.03 1.21.8 1.94 1.88 1.94.65 0 1.2-.3 1.53-.75zm-2.39-3.69c-.83 0-1.41.49-1.59 1.36h3.02c-.03-.74-.54-1.36-1.43-1.36m5.986 2c0-1.47 1.01-2.72 2.59-2.72.75 0 1.34.29 1.79.8v-3.06h.85v7.5h-.85v-.6c-.45.51-1.04.8-1.79.8-1.58 0-2.59-1.25-2.59-2.72m.9 0c0 1.07.72 1.92 1.79 1.92.7 0 1.32-.34 1.69-.93v-1.98c-.39-.6-1-.93-1.69-.93-1.07 0-1.79.85-1.79 1.92m10.602 1.69c-.47.63-1.22 1.03-2.16 1.03-1.7 0-2.75-1.25-2.75-2.72 0-1.53.98-2.72 2.54-2.72 1.37 0 2.26.96 2.26 2.2 0 .2-.03.39-.06.53h-3.87c.03 1.21.8 1.94 1.88 1.94.65 0 1.2-.3 1.53-.75zm-2.39-3.69c-.83 0-1.41.49-1.59 1.36h3.02c-.03-.74-.54-1.36-1.43-1.36m3.141 3.83.6-.51c.35.44.77.69 1.28.69.56 0 .88-.34.88-.78 0-1.13-2.52-.73-2.52-2.51 0-.79.67-1.44 1.64-1.44.72 0 1.34.34 1.69.83l-.59.5c-.27-.38-.65-.62-1.09-.62-.54 0-.83.32-.83.71 0 1.13 2.53.77 2.53 2.49-.01.94-.76 1.53-1.7 1.53-.8 0-1.43-.32-1.89-.89m7.009-4.35h.95v-.62c0-1.07.69-1.84 1.79-1.84.46 0 .83.13 1.11.29l-.38.71a1.16 1.16 0 0 0-.71-.23c-.57 0-.95.39-.95 1.05v.64h1.75v.77h-1.75V210h-.86v-4.27h-.95zm6.612-.2c1.62 0 2.73 1.25 2.73 2.72s-1.11 2.72-2.73 2.72c-1.63 0-2.73-1.25-2.73-2.72s1.1-2.72 2.73-2.72m.01 4.64c1.05 0 1.82-.88 1.82-1.92 0-1.05-.77-1.92-1.82-1.92-1.08 0-1.85.87-1.85 1.92s.77 1.92 1.85 1.92m4.087.6v-5.04h.85v.63c.37-.44.83-.73 1.47-.73.16 0 .31.02.43.06v.83c-.15-.04-.3-.06-.5-.06-.66 0-1.09.34-1.4.85V210zm3.975 0v-5.04h.85v.55c.38-.44.88-.75 1.58-.75.73 0 1.329.33 1.639.97.4-.55.93-.97 1.8-.97 1.08 0 1.87.72 1.87 2.09V210h-.85v-3.12c0-.84-.47-1.32-1.19-1.32-.64 0-1.09.36-1.42.95.01.11.02.22.02.34V210h-.85v-3.12c0-.84-.46-1.32-1.19-1.32-.69 0-1.12.43-1.41.95V210zm10.823.14c-.99 0-1.66-.55-1.66-1.41 0-.76.58-1.3 1.65-1.48l1.7-.28v-.35c0-.7-.5-1.1-1.22-1.1-.58 0-1.05.27-1.36.7l-.64-.49c.44-.6 1.15-.97 2.03-.97 1.28 0 2.04.75 2.04 1.86V210h-.85v-.64c-.38.49-1.04.78-1.69.78m-.8-1.44c0 .43.35.74.94.74.67 0 1.22-.32 1.55-.86v-.99l-1.49.25c-.69.12-1 .43-1 .86m5.335-.39v-2.58h-.95v-.77h.95v-1.26h.86v1.26h1.75v.77h-1.75v2.58c0 .79.4 1.01 1.01 1.01.33 0 .56-.04.75-.12v.76c-.24.1-.51.14-.87.14-1.12 0-1.75-.56-1.75-1.79m3.369 1 .6-.51c.35.44.77.69 1.28.69.56 0 .88-.34.88-.78 0-1.13-2.52-.73-2.52-2.51 0-.79.67-1.44 1.64-1.44.72 0 1.34.34 1.69.83l-.59.5c-.27-.38-.65-.62-1.09-.62-.54 0-.83.32-.83.71 0 1.13 2.53.77 2.53 2.49-.01.94-.76 1.53-1.7 1.53-.8 0-1.43-.32-1.89-.89m7.239-1.83c0-1.47 1.01-2.72 2.59-2.72.75 0 1.34.29 1.79.8v-3.06h.85v7.5h-.85v-.6c-.45.51-1.04.8-1.79.8-1.58 0-2.59-1.25-2.59-2.72m.9 0c0 1.07.72 1.92 1.79 1.92.7 0 1.32-.34 1.69-.93v-1.98c-.39-.6-1-.93-1.69-.93-1.07 0-1.79.85-1.79 1.92m10.602 1.69c-.47.63-1.22 1.03-2.16 1.03-1.7 0-2.75-1.25-2.75-2.72 0-1.53.98-2.72 2.54-2.72 1.37 0 2.26.96 2.26 2.2 0 .2-.03.39-.06.53h-3.87c.03 1.21.8 1.94 1.88 1.94.65 0 1.2-.3 1.53-.75zm-2.39-3.69c-.83 0-1.41.49-1.59 1.36h3.02c-.03-.74-.54-1.36-1.43-1.36m5.986 2c0-1.47 1.01-2.72 2.59-2.72.75 0 1.34.29 1.79.8v-3.06h.85v7.5h-.85v-.6c-.45.51-1.04.8-1.79.8-1.58 0-2.59-1.25-2.59-2.72m.9 0c0 1.07.72 1.92 1.79 1.92.7 0 1.32-.34 1.69-.93v-1.98c-.39-.6-1-.93-1.69-.93-1.07 0-1.79.85-1.79 1.92m8.421-2.72c1.62 0 2.73 1.25 2.73 2.72s-1.11 2.72-2.73 2.72c-1.63 0-2.73-1.25-2.73-2.72s1.1-2.72 2.73-2.72m.01 4.64c1.05 0 1.82-.88 1.82-1.92 0-1.05-.77-1.92-1.82-1.92-1.08 0-1.85.87-1.85 1.92s.77 1.92 1.85 1.92m4.087.6v-5.04h.85v.57c.41-.45.93-.77 1.68-.77 1.13 0 1.97.76 1.97 2.19V210h-.85v-3.02c0-.9-.51-1.42-1.29-1.42-.73 0-1.19.42-1.51.95V210zm6.211 0v-5.04h.85v.57c.41-.45.93-.77 1.68-.77 1.13 0 1.97.76 1.97 2.19V210h-.85v-3.02c0-.9-.51-1.42-1.29-1.42-.73 0-1.19.42-1.51.95V210zm8.771-5.84h-.83l1.04-1.66h.96zm1.92 5.01c-.47.63-1.22 1.03-2.16 1.03-1.7 0-2.75-1.25-2.75-2.72 0-1.53.98-2.72 2.54-2.72 1.37 0 2.26.96 2.26 2.2 0 .2-.03.39-.06.53h-3.87c.03 1.21.8 1.94 1.88 1.94.65 0 1.2-.3 1.53-.75zm-2.39-3.69c-.83 0-1.41.49-1.59 1.36h3.02c-.03-.74-.54-1.36-1.43-1.36m8.181 3.69c-.47.63-1.22 1.03-2.16 1.03-1.7 0-2.75-1.25-2.75-2.72 0-1.53.98-2.72 2.54-2.72 1.37 0 2.26.96 2.26 2.2 0 .2-.03.39-.06.53h-3.87c.03 1.21.8 1.94 1.88 1.94.65 0 1.2-.3 1.53-.75zm-2.39-3.69c-.83 0-1.41.49-1.59 1.36h3.02c-.03-.74-.54-1.36-1.43-1.36m3.141 3.83.6-.51c.35.44.77.69 1.28.69.56 0 .88-.34.88-.78 0-1.13-2.52-.73-2.52-2.51 0-.79.67-1.44 1.64-1.44.72 0 1.34.34 1.69.83l-.59.5c-.27-.38-.65-.62-1.09-.62-.54 0-.83.32-.83.71 0 1.13 2.53.77 2.53 2.49-.01.94-.76 1.53-1.7 1.53-.8 0-1.43-.32-1.89-.89m7.129 0 .6-.51c.35.44.77.69 1.28.69.56 0 .88-.34.88-.78 0-1.13-2.52-.73-2.52-2.51 0-.79.67-1.44 1.64-1.44.72 0 1.34.34 1.69.83l-.59.5c-.27-.38-.65-.62-1.09-.62-.54 0-.83.32-.83.71 0 1.13 2.53.77 2.53 2.49-.01.94-.76 1.53-1.7 1.53-.8 0-1.43-.32-1.89-.89m5.303-1v-2.58h-.95v-.77h.95v-1.26h.86v1.26h1.75v.77h-1.75v2.58c0 .79.4 1.01 1.01 1.01.33 0 .56-.04.75-.12v.76c-.24.1-.51.14-.87.14-1.12 0-1.75-.56-1.75-1.79m5.279 1.83c-.99 0-1.66-.55-1.66-1.41 0-.76.58-1.3 1.65-1.48l1.7-.28v-.35c0-.7-.5-1.1-1.22-1.1-.58 0-1.05.27-1.36.7l-.64-.49c.44-.6 1.15-.97 2.03-.97 1.28 0 2.04.75 2.04 1.86V210h-.85v-.64c-.38.49-1.04.78-1.69.78m-.8-1.44c0 .43.35.74.94.74.67 0 1.22-.32 1.55-.86v-.99l-1.49.25c-.69.12-1 .43-1 .86m5.045 1.3v-5.04h.85v.57c.41-.45.93-.77 1.68-.77 1.13 0 1.97.76 1.97 2.19V210h-.85v-3.02c0-.9-.51-1.42-1.29-1.42-.73 0-1.19.42-1.51.95V210zm5.781-2.52c0-1.47 1.01-2.72 2.59-2.72.75 0 1.34.29 1.79.8v-3.06h.85v7.5h-.85v-.6c-.45.51-1.04.8-1.79.8-1.58 0-2.59-1.25-2.59-2.72m.9 0c0 1.07.72 1.92 1.79 1.92.7 0 1.32-.34 1.69-.93v-1.98c-.39-.6-1-.93-1.69-.93-1.07 0-1.79.85-1.79 1.92m7.492 2.66c-.99 0-1.66-.55-1.66-1.41 0-.76.58-1.3 1.65-1.48l1.7-.28v-.35c0-.7-.5-1.1-1.22-1.1-.58 0-1.05.27-1.36.7l-.64-.49c.44-.6 1.15-.97 2.03-.97 1.28 0 2.04.75 2.04 1.86V210h-.85v-.64c-.38.49-1.04.78-1.69.78m-.8-1.44c0 .43.35.74.94.74.67 0 1.22-.32 1.55-.86v-.99l-1.49.25c-.69.12-1 .43-1 .86m5.045 1.3v-5.04h.85v.63c.37-.44.83-.73 1.47-.73.16 0 .31.02.43.06v.83c-.15-.04-.3-.06-.5-.06-.66 0-1.09.34-1.4.85V210zm3.242-2.52c0-1.47 1.01-2.72 2.59-2.72.75 0 1.34.29 1.79.8v-3.06h.85v7.5h-.85v-.6c-.45.51-1.04.8-1.79.8-1.58 0-2.59-1.25-2.59-2.72m.9 0c0 1.07.72 1.92 1.79 1.92.7 0 1.32-.34 1.69-.93v-1.98c-.39-.6-1-.93-1.69-.93-1.07 0-1.79.85-1.79 1.92"/></g><rect width="324" height="150" x="13" y="71" stroke="#e5e5e5" rx="2"/></g></g></g><defs><clipPath id="b"><path fill="#fff" d="M1 11C1 5.477 5.477 1 11 1h338v210H1z"/></clipPath><clipPath id="c"><path fill="#fff" d="M1 1h348v210H1z"/></clipPath><clipPath id="d"><path fill="#fff" d="M13 16h12v12H13z"/></clipPath><clipPath id="e"><rect width="324" height="150" x="13" y="71" fill="#fff" rx="2"/></clipPath><filter id="a" width="350" height="212" x="0" y="0" color-interpolation-filters="sRGB" filterUnits="userSpaceOnUse"><feFlood flood-opacity="0" result="BackgroundImageFix"/><feColorMatrix in="SourceAlpha" result="hardAlpha" values="0 0 0 0 0 0 0 0 0 0 0 0 0 0 0 0 0 0 127 0"/><feMorphology in="SourceAlpha" operator="dilate" radius="1" result="effect1_dropShadow_2656_9303"/><feOffset/><feComposite in2="hardAlpha" operator="out"/><feColorMatrix values="0 0 0 0 0.149038 0 0 0 0 0.145083 0 0 0 0 0.11763 0 0 0 0.1 0"/><feBlend in2="BackgroundImageFix" result="effect1_dropShadow_2656_9303"/><feBlend in="SourceGraphic" in2="effect1_dropShadow_2656_9303" result="shape"/></filter></defs></svg>