<svg xmlns="http://www.w3.org/2000/svg" width="350" height="212" fill="none" viewBox="0 0 350 212"><g filter="url(#a)"><g clip-path="url(#b)"><path fill="#fff" d="M1 11C1 5.477 5.477 1 11 1h338v210H1z"/><g clip-path="url(#c)"><path fill="#161616" d="M14.236 27v-8.4h2.124l2.052 3.528 2.052-3.528h2.124V27h-1.704v-6.024l-1.872 3.144h-1.2l-1.872-3.144V27zm13.29-6.288c1.968 0 3.312 1.452 3.312 3.264s-1.344 3.264-3.312 3.264-3.312-1.452-3.312-3.264 1.344-3.264 3.312-3.264m.024 5.088c.972 0 1.704-.78 1.704-1.824 0-1.056-.732-1.824-1.704-1.824-1.008 0-1.752.768-1.752 1.824s.744 1.824 1.752 1.824m5.446-5.904A1.01 1.01 0 0 1 32 18.9c0-.54.456-.996.996-.996s.984.456.984.996-.444.996-.984.996M32.228 27v-6.048h1.524V27zm2.742-.876 1.008-.912c.372.468.816.804 1.392.804.492 0 .744-.288.744-.648 0-1.056-2.892-.66-2.892-2.784 0-1.068.9-1.872 2.16-1.872.924 0 1.764.444 2.196 1.032l-1.008.888c-.312-.384-.708-.696-1.176-.696-.48 0-.708.264-.708.576 0 1.032 2.892.672 2.892 2.76-.024 1.272-1.044 1.968-2.184 1.968-1.08 0-1.848-.432-2.424-1.116m5.402 0 1.008-.912c.372.468.816.804 1.392.804.492 0 .744-.288.744-.648 0-1.056-2.892-.66-2.892-2.784 0-1.068.9-1.872 2.16-1.872.924 0 1.764.444 2.196 1.032l-1.008.888c-.312-.384-.708-.696-1.176-.696-.48 0-.708.264-.708.576 0 1.032 2.892.672 2.892 2.76-.024 1.272-1.044 1.968-2.184 1.968-1.08 0-1.848-.432-2.424-1.116m8.87-5.412c1.967 0 3.311 1.452 3.311 3.264s-1.344 3.264-3.312 3.264-3.312-1.452-3.312-3.264 1.344-3.264 3.312-3.264m.023 5.088c.972 0 1.704-.78 1.704-1.824 0-1.056-.732-1.824-1.704-1.824-1.008 0-1.752.768-1.752 1.824s.744 1.824 1.752 1.824m4.678 1.2v-6.048h1.524v.48c.42-.408.984-.72 1.788-.72 1.308 0 2.352.9 2.352 2.688V27h-1.536v-3.54c0-.804-.456-1.308-1.2-1.308-.768 0-1.176.516-1.404.9V27zm7.395 0v-6.048h1.524v.48c.42-.408.984-.72 1.788-.72 1.308 0 2.352.9 2.352 2.688V27h-1.536v-3.54c0-.804-.456-1.308-1.2-1.308-.768 0-1.176.516-1.404.9V27zm12.962-.984c-.564.756-1.5 1.224-2.64 1.224-2.148 0-3.36-1.5-3.36-3.264 0-1.788 1.128-3.264 3.108-3.264 1.68 0 2.784 1.14 2.784 2.724 0 .336-.048.648-.096.852H69.86c.144 1.128.84 1.584 1.788 1.584.66 0 1.236-.288 1.56-.72zm-2.928-4.056c-.78 0-1.296.432-1.464 1.224h2.784c-.024-.612-.468-1.224-1.32-1.224m8.223 2.424v-3.432h1.536v3.36c0 1.812-1.056 2.928-2.832 2.928s-2.82-1.116-2.82-2.928v-3.36h1.536v3.432c0 .876.456 1.416 1.296 1.416.828 0 1.284-.54 1.284-1.416M82.818 27v-6.048h1.524v.6c.396-.408.912-.72 1.596-.72.204 0 .384.036.528.084v1.5a2.6 2.6 0 0 0-.672-.084c-.744 0-1.224.408-1.452.792V27zm7.678-3.024c0-1.764 1.164-3.264 3.072-3.264.816 0 1.404.252 1.872.72V18h1.536v9H95.44v-.48c-.468.468-1.056.72-1.872.72-1.908 0-3.072-1.5-3.072-3.264m1.596 0c0 1.056.66 1.824 1.692 1.824.684 0 1.248-.288 1.656-.84v-1.968c-.408-.552-.972-.84-1.656-.84-1.032 0-1.692.768-1.692 1.824m12.279 2.04c-.564.756-1.5 1.224-2.64 1.224-2.148 0-3.36-1.5-3.36-3.264 0-1.788 1.128-3.264 3.108-3.264 1.68 0 2.784 1.14 2.784 2.724 0 .336-.048.648-.096.852h-4.236c.144 1.128.84 1.584 1.788 1.584.66 0 1.236-.288 1.56-.72zm-2.928-4.056c-.78 0-1.296.432-1.464 1.224h2.784c-.024-.612-.468-1.224-1.32-1.224m7.543 5.04v-9h1.524v9zm5.056.18c-1.212 0-2.04-.696-2.04-1.812 0-.912.708-1.596 2.004-1.812l1.848-.312v-.156c0-.636-.48-1.044-1.176-1.044-.588 0-1.044.276-1.368.72l-1.116-.852c.54-.744 1.428-1.2 2.532-1.2 1.752 0 2.652 1.044 2.652 2.376V27h-1.524v-.588c-.384.468-1.104.768-1.812.768m-.528-1.884c0 .408.324.672.84.672.696 0 1.2-.324 1.5-.804v-.852l-1.44.24c-.636.108-.9.372-.9.744m12.911.348c.96 0 1.716-.468 2.196-1.152l1.344 1.032c-.768 1.044-2.016 1.716-3.54 1.716-2.652 0-4.464-2.04-4.464-4.44s1.812-4.44 4.464-4.44c1.524 0 2.772.684 3.54 1.704l-1.344 1.044c-.48-.684-1.236-1.152-2.196-1.152-1.584 0-2.712 1.236-2.712 2.844s1.128 2.844 2.712 2.844m6.402 1.536c-1.212 0-2.04-.696-2.04-1.812 0-.912.708-1.596 2.004-1.812l1.848-.312v-.156c0-.636-.48-1.044-1.176-1.044-.588 0-1.044.276-1.368.72l-1.116-.852c.54-.744 1.428-1.2 2.532-1.2 1.752 0 2.652 1.044 2.652 2.376V27h-1.524v-.588c-.384.468-1.104.768-1.812.768m-.528-1.884c0 .408.324.672.84.672.696 0 1.2-.324 1.5-.804v-.852l-1.44.24c-.636.108-.9.372-.9.744m6.377-5.4a1.01 1.01 0 0 1-.996-.996c0-.54.456-.996.996-.996s.984.456.984.996-.444.996-.984.996M137.908 27v-6.048h1.524V27zm2.742-.876 1.008-.912c.372.468.816.804 1.392.804.492 0 .744-.288.744-.648 0-1.056-2.892-.66-2.892-2.784 0-1.068.9-1.872 2.16-1.872.924 0 1.764.444 2.196 1.032l-1.008.888c-.312-.384-.708-.696-1.176-.696-.48 0-.708.264-.708.576 0 1.032 2.892.672 2.892 2.76-.024 1.272-1.044 1.968-2.184 1.968-1.08 0-1.848-.432-2.424-1.116m5.402 0 1.008-.912c.372.468.816.804 1.392.804.492 0 .744-.288.744-.648 0-1.056-2.892-.66-2.892-2.784 0-1.068.9-1.872 2.16-1.872.924 0 1.764.444 2.196 1.032l-1.008.888c-.312-.384-.708-.696-1.176-.696-.48 0-.708.264-.708.576 0 1.032 2.892.672 2.892 2.76-.024 1.272-1.044 1.968-2.184 1.968-1.08 0-1.848-.432-2.424-1.116m11.557-.108c-.564.756-1.5 1.224-2.64 1.224-2.148 0-3.36-1.5-3.36-3.264 0-1.788 1.128-3.264 3.108-3.264 1.68 0 2.784 1.14 2.784 2.724 0 .336-.048.648-.096.852h-4.236c.144 1.128.84 1.584 1.788 1.584.66 0 1.236-.288 1.56-.72zm-2.928-4.056c-.78 0-1.296.432-1.464 1.224h2.784c-.024-.612-.468-1.224-1.32-1.224m7.112 2.016c0-1.764 1.164-3.264 3.072-3.264.816 0 1.404.252 1.872.72V18h1.536v9h-1.536v-.48c-.468.468-1.056.72-1.872.72-1.908 0-3.072-1.5-3.072-3.264m1.596 0c0 1.056.66 1.824 1.692 1.824.684 0 1.248-.288 1.656-.84v-1.968c-.408-.552-.972-.84-1.656-.84-1.032 0-1.692.768-1.692 1.824m12.279 2.04c-.564.756-1.5 1.224-2.64 1.224-2.148 0-3.36-1.5-3.36-3.264 0-1.788 1.128-3.264 3.108-3.264 1.68 0 2.784 1.14 2.784 2.724 0 .336-.048.648-.096.852h-4.236c.144 1.128.84 1.584 1.788 1.584.66 0 1.236-.288 1.56-.72zm-2.928-4.056c-.78 0-1.296.432-1.464 1.224h2.784c-.024-.612-.468-1.224-1.32-1.224m3.699 4.164 1.008-.912c.372.468.816.804 1.392.804.492 0 .744-.288.744-.648 0-1.056-2.892-.66-2.892-2.784 0-1.068.9-1.872 2.16-1.872.924 0 1.764.444 2.196 1.032l-1.008.888c-.312-.384-.708-.696-1.176-.696-.48 0-.708.264-.708.576 0 1.032 2.892.672 2.892 2.76-.024 1.272-1.044 1.968-2.184 1.968-1.08 0-1.848-.432-2.424-1.116m9.57.876v-8.4h3.3c2.664 0 4.464 1.932 4.464 4.2s-1.8 4.2-4.464 4.2zm3.324-6.852h-1.62v5.304h1.62c1.56 0 2.688-1.164 2.688-2.652 0-1.5-1.128-2.652-2.688-2.652m9.431-.156H197.3L198.548 18h1.656zm2.052 6.024c-.564.756-1.5 1.224-2.64 1.224-2.148 0-3.36-1.5-3.36-3.264 0-1.788 1.128-3.264 3.108-3.264 1.68 0 2.784 1.14 2.784 2.724 0 .336-.048.648-.096.852h-4.236c.144 1.128.84 1.584 1.788 1.584.66 0 1.236-.288 1.56-.72zm-2.928-4.056c-.78 0-1.296.432-1.464 1.224h2.784c-.024-.612-.468-1.224-1.32-1.224m4.309 7.992v-9h1.524v.492c.468-.468 1.056-.732 1.884-.732 1.92 0 3.072 1.5 3.072 3.264s-1.152 3.264-3.072 3.264c-.828 0-1.416-.264-1.884-.732v3.444zm3.192-7.8c-.708 0-1.284.312-1.668.876v1.896c.408.576.972.876 1.668.876 1.032 0 1.704-.768 1.704-1.824s-.672-1.824-1.704-1.824m6.746-2.16h-1.332L212.039 18h1.944l1.236 1.992h-1.332l-.876-1.308zm.876.72c1.968 0 3.312 1.452 3.312 3.264s-1.344 3.264-3.312 3.264-3.312-1.452-3.312-3.264 1.344-3.264 3.312-3.264m.024 5.088c.972 0 1.704-.78 1.704-1.824 0-1.056-.732-1.824-1.704-1.824-1.008 0-1.752.768-1.752 1.824s.744 1.824 1.752 1.824m4.991-1.008V22.32h-1.128v-1.368h1.128V19.44h1.536v1.512h1.848v1.368h-1.848v2.472c0 .672.36.936.96.936.42 0 .696-.048.9-.132v1.332c-.3.132-.66.192-1.164.192-1.512 0-2.232-.852-2.232-2.328m4.221 1.332 1.008-.912c.372.468.816.804 1.392.804.492 0 .744-.288.744-.648 0-1.056-2.892-.66-2.892-2.784 0-1.068.9-1.872 2.16-1.872.924 0 1.764.444 2.196 1.032l-1.008.888c-.312-.384-.708-.696-1.176-.696-.48 0-.708.264-.708.576 0 1.032 2.892.672 2.892 2.76-.024 1.272-1.044 1.968-2.184 1.968-1.08 0-1.848-.432-2.424-1.116"/><path fill="#666" d="M15.22 42.863a1.459 1.459 0 0 1 1.774 2.068l4.461 4.462-.589.59-4.462-4.463a1.459 1.459 0 0 1-2.068-1.773l.932.932a.625.625 0 1 0 .884-.884zm4.32.785 1.326-.737.59.59-.737 1.325-.737.148-.884.884-.589-.59.884-.883zm-2.799 3.388.59.59-2.21 2.21a.417.417 0 0 1-.622-.554l.033-.036zM28.11 51v-7h.94v7zm2.954 0v-5.04h.85v.55c.38-.44.88-.75 1.58-.75.73 0 1.33.33 1.64.97.4-.55.93-.97 1.8-.97 1.08 0 1.87.72 1.87 2.09V51h-.85v-3.12c0-.84-.47-1.32-1.19-1.32-.64 0-1.09.36-1.42.95.01.11.02.22.02.34V51h-.85v-3.12c0-.84-.46-1.32-1.19-1.32-.69 0-1.12.43-1.41.95V51zm9.453 2.46v-7.5h.85v.6c.45-.51 1.04-.8 1.79-.8 1.58 0 2.59 1.25 2.59 2.72s-1.01 2.72-2.59 2.72c-.75 0-1.34-.29-1.79-.8v3.06zm2.54-6.9c-.7 0-1.31.34-1.69.94v1.96c.39.61 1 .94 1.69.94 1.07 0 1.8-.85 1.8-1.92s-.73-1.92-1.8-1.92M47.12 51v-7.5h.85V51zm5.206-5.84h-.83l1.04-1.66h.96zm1.92 5.01c-.47.63-1.22 1.03-2.16 1.03-1.7 0-2.75-1.25-2.75-2.72 0-1.53.98-2.72 2.54-2.72 1.37 0 2.26.96 2.26 2.2 0 .2-.03.39-.06.53h-3.87c.03 1.21.8 1.94 1.88 1.94.65 0 1.2-.3 1.53-.75zm-2.39-3.69c-.83 0-1.41.49-1.59 1.36h3.02c-.03-.74-.54-1.36-1.43-1.36m3.72 4.52v-5.04h.85v.55c.38-.44.88-.75 1.58-.75.73 0 1.33.33 1.64.97.4-.55.93-.97 1.8-.97 1.08 0 1.87.72 1.87 2.09V51h-.85v-3.12c0-.84-.47-1.32-1.19-1.32-.64 0-1.09.36-1.42.95.01.11.02.22.02.34V51h-.85v-3.12c0-.84-.46-1.32-1.19-1.32-.69 0-1.12.43-1.41.95V51zm13.934-.83c-.47.63-1.22 1.03-2.16 1.03-1.7 0-2.75-1.25-2.75-2.72 0-1.53.98-2.72 2.54-2.72 1.37 0 2.26.96 2.26 2.2 0 .2-.03.39-.06.53h-3.87c.03 1.21.8 1.94 1.88 1.94.65 0 1.2-.3 1.53-.75zm-2.39-3.69c-.83 0-1.41.49-1.59 1.36h3.02c-.03-.74-.54-1.36-1.43-1.36m3.72 4.52v-5.04h.85v.57c.41-.45.93-.77 1.68-.77 1.13 0 1.97.76 1.97 2.19V51h-.85v-3.02c0-.9-.51-1.42-1.29-1.42-.73 0-1.19.42-1.51.95V51zm6.501-1.69v-2.58h-.95v-.77h.95V44.7h.86v1.26h1.75v.77H78.2v2.58c0 .79.4 1.01 1.01 1.01.33 0 .56-.04.75-.12v.76c-.24.1-.51.14-.87.14-1.12 0-1.75-.56-1.75-1.79m5.28 1.83c-.99 0-1.66-.55-1.66-1.41 0-.76.58-1.3 1.65-1.48l1.7-.28v-.35c0-.7-.5-1.1-1.22-1.1-.58 0-1.05.27-1.36.7l-.64-.49c.44-.6 1.15-.97 2.03-.97 1.28 0 2.04.75 2.04 1.86V51h-.85v-.64c-.38.49-1.04.78-1.69.78m-.8-1.44c0 .43.35.74.94.74.67 0 1.22-.32 1.55-.86v-.99l-1.49.25c-.69.12-1 .43-1 .86m5.335-.39v-2.58h-.95v-.77h.95V44.7h.86v1.26h1.75v.77h-1.75v2.58c0 .79.4 1.01 1.01 1.01.33 0 .56-.04.75-.12v.76c-.24.1-.51.14-.87.14-1.12 0-1.75-.56-1.75-1.79m4.34-4.66c-.33 0-.6-.27-.6-.6a.6.6 0 0 1 .6-.59c.33 0 .59.27.59.59 0 .33-.26.6-.59.6m-.43 6.35v-5.04h.85V51zm4.945-5.24c1.62 0 2.73 1.25 2.73 2.72s-1.11 2.72-2.73 2.72c-1.63 0-2.73-1.25-2.73-2.72s1.1-2.72 2.73-2.72m.01 4.64c1.05 0 1.82-.88 1.82-1.92 0-1.05-.77-1.92-1.82-1.92-1.08 0-1.85.87-1.85 1.92s.77 1.92 1.85 1.92m4.087.6v-5.04h.85v.57c.41-.45.93-.77 1.68-.77 1.13 0 1.97.76 1.97 2.19V51h-.85v-3.02c0-.9-.51-1.42-1.29-1.42-.73 0-1.19.42-1.51.95V51zm9.366-3.88c-.36 0-.65-.29-.65-.64s.29-.63.65-.63.64.28.64.63-.28.64-.64.64m0 3.99c-.36 0-.65-.28-.65-.63s.29-.64.65-.64.64.29.64.64-.28.63-.64.63M133.34 50.1q-.35 0-.69-.15a1.9 1.9 0 0 1-.61-.45q-.27-.3-.43-.76a3.3 3.3 0 0 1-.16-1.07q0-.63.17-1.07.17-.45.45-.73.28-.29.62-.42a1.8 1.8 0 0 1 .69-.14q.32 0 .57.1.26.1.45.28.2.17.31.41v-2.75h.76v.07a.3.3 0 0 0-.08.13q-.01.07-.01.24l.01 5.5q0 .18.01.36.02.17.09.35h-.71a1 1 0 0 1-.07-.24 4 4 0 0 1-.03-.23v-.24q-.14.24-.34.43-.2.18-.45.28t-.55.1m.11-.63q.33 0 .56-.13.23-.14.37-.38.14-.25.2-.57.07-.33.07-.7 0-.51-.13-.91a1.3 1.3 0 0 0-.41-.64q-.28-.24-.72-.24-.3 0-.54.12a1 1 0 0 0-.39.33 1.7 1.7 0 0 0-.23.53q-.08.3-.08.68 0 .57.15 1t.44.67.71.24m5.4.64q-.5 0-.92-.18a2.2 2.2 0 0 1-.73-.5 2.3 2.3 0 0 1-.47-.75 2.7 2.7 0 0 1-.17-.96q0-.51.17-.94.17-.44.47-.76.31-.32.73-.5t.91-.18q.56 0 1 .23.45.22.73.62l-.45.44-.07.07-.05-.05a.3.3 0 0 0-.04-.15.7.7 0 0 0-.15-.19 1.3 1.3 0 0 0-.47-.28 1.9 1.9 0 0 0-.58-.08q-.29 0-.55.12t-.47.35q-.2.22-.32.54t-.12.71.12.72q.12.32.33.56t.5.38q.3.13.64.13.23 0 .44-.06.21-.07.4-.19.19-.13.35-.31l.42.49q-.34.36-.76.54-.41.18-.89.18m4.26 0q-.78 0-1.2-.35-.42-.36-.42-.91 0-.37.18-.66.18-.3.49-.5.32-.21.74-.32t.89-.11q.17 0 .34.01.18 0 .37.02.2.01.41.04l.02.55a3 3 0 0 0-.37-.04 7 7 0 0 0-.71-.04q-.36 0-.66.06t-.52.18a.9.9 0 0 0-.34.31.84.84 0 0 0-.12.46q0 .21.07.36.08.14.21.23.13.08.3.12.18.04.39.04.39 0 .69-.12.31-.13.52-.37.22-.24.33-.59t.11-.8q0-.68-.16-1.06a1.02 1.02 0 0 0-.48-.54q-.31-.16-.8-.16-.33 0-.65.13-.32.12-.58.38l-.35-.46q.32-.32.74-.48t.89-.16q.45 0 .82.11t.63.37q.27.25.41.68.15.43.15 1.08V50h-.78v-.7a1.3 1.3 0 0 1-.32.41q-.18.16-.39.25-.21.08-.43.11-.22.04-.42.04m5.88-.04q-.44 0-.72-.15a1 1 0 0 1-.43-.46q-.15-.32-.2-.8-.04-.48-.02-1.14l.12-3.26.75-.09.1-.01.01.07a2 2 0 0 0-.09.14 1 1 0 0 0-.05.24l-.09 1.13.03.18-.07 1.65q-.03.76.04 1.18.07.41.25.57.18.15.48.15.33 0 .58-.13a4 4 0 0 0 .54-.33l.22.57a2.356 2.356 0 0 1-1.45.49m-2.29-4.64h3.29v.59h-3.29zM20.652 66.973l-.59-.59.59-.588a2.083 2.083 0 1 0-2.947-2.947l-.589.59-.59-.59.59-.589a2.917 2.917 0 1 1 4.125 4.125zm-1.179 1.179-.59.589a2.917 2.917 0 0 1-4.124-4.125l.59-.59.588.59-.589.59a2.083 2.083 0 1 0 2.947 2.946l.589-.59zm-.295-4.42.59.59-2.947 2.946-.589-.59zM32.4 67.42V63h.94v4.36c0 1.8-1.07 2.84-2.71 2.84s-2.72-1.04-2.72-2.84V63h.94v4.42c0 1.21.7 1.9 1.78 1.9 1.07 0 1.77-.69 1.77-1.9M35.356 70v-7h1.86c1.41 0 2.28.77 2.28 1.97 0 .84-.43 1.47-1.18 1.77l2.26 3.26h-1.11l-2.03-3.08c-.07.01-.15.01-.22.01h-.92V70zm1.9-6.2h-.96v2.33h.96c.8 0 1.27-.43 1.27-1.18 0-.71-.47-1.15-1.27-1.15m4.506 6.2v-7h.94v6.14h2.82V70zm8.18-3.88c-.36 0-.65-.29-.65-.64s.29-.63.65-.63.64.28.64.63-.28.64-.64.64m0 3.99c-.36 0-.65-.28-.65-.63s.29-.64.65-.64.64.29.64.64-.28.63-.64.63M131.73 62.35h.79v.07a.3.3 0 0 0-.08.13q-.01.07-.01.24v2.45a2.1 2.1 0 0 1 .94-.8q.28-.12.56-.12.41 0 .72.19.32.19.49.61.18.42.18 1.11V69h-.7v-2.75q0-.48-.11-.76-.11-.29-.3-.41a.74.74 0 0 0-.43-.13q-.18 0-.37.06t-.37.18q-.17.12-.31.3a1.3 1.3 0 0 0-.22.39q-.08.22-.08.49V69h-.7zm7.26 6.72q-.44 0-.72-.15a1 1 0 0 1-.43-.46q-.15-.32-.2-.8-.04-.48-.02-1.14l.12-3.26.75-.09.1-.01.01.07a2 2 0 0 0-.09.14 1 1 0 0 0-.05.24l-.09 1.13.03.18-.07 1.65q-.03.76.04 1.18.07.41.25.57.18.15.48.15.33 0 .58-.13a4 4 0 0 0 .54-.33l.22.57a2.356 2.356 0 0 1-1.45.49m-2.29-4.64h3.29v.59h-3.29zm7.29 4.64q-.44 0-.72-.15a1 1 0 0 1-.43-.46q-.15-.32-.2-.8-.04-.48-.02-1.14l.12-3.26.75-.09.1-.01.01.07a2 2 0 0 0-.09.14 1 1 0 0 0-.05.24l-.09 1.13.03.18-.07 1.65q-.03.76.04 1.18.07.41.25.57.18.15.48.15.33 0 .58-.13a4 4 0 0 0 .54-.33l.22.57a2.356 2.356 0 0 1-1.45.49m-2.29-4.64h3.29v.59h-3.29zm4.9 6.24v-6.24h.73v.9q.11-.35.31-.57.21-.22.48-.32a1.766 1.766 0 0 1 1.32.04q.35.14.61.43.27.29.42.73.16.44.16 1.04t-.17 1.06a2.2 2.2 0 0 1-.44.77q-.27.3-.62.46-.34.15-.7.15-.27 0-.53-.09a1.5 1.5 0 0 1-.46-.24 2 2 0 0 1-.37-.39v2.27zm1.98-2.19q.24 0 .47-.08a1.2 1.2 0 0 0 .42-.29q.19-.2.3-.54.11-.35.11-.86 0-.55-.14-.93-.14-.39-.41-.6a1.08 1.08 0 0 0-.64-.23 1.2 1.2 0 0 0-.53.08q-.24.1-.43.33a1.7 1.7 0 0 0-.3.61 3.5 3.5 0 0 0-.1.9q.01.32.07.58t.17.46q.11.19.26.32.15.12.34.19.19.06.41.06m4.93.62q-.38 0-.73-.08a2.8 2.8 0 0 1-.65-.24q-.3-.16-.56-.4l.4-.68.06-.09.06.04q.02.08.04.17.03.08.14.2.21.21.5.35.3.13.76.13.37 0 .62-.09a.9.9 0 0 0 .4-.25.6.6 0 0 0 .14-.39q0-.15-.06-.26a.6.6 0 0 0-.2-.22 1.8 1.8 0 0 0-.35-.2 5 5 0 0 0-.54-.2q-.52-.15-.91-.35a1.8 1.8 0 0 1-.6-.46.97.97 0 0 1-.21-.61.96.96 0 0 1 .19-.6q.19-.26.56-.4.38-.15.93-.15.32 0 .58.05.26.04.48.13t.4.23q.19.13.36.31l-.41.5-.07.08-.05-.05a.4.4 0 0 0-.05-.15.6.6 0 0 0-.14-.19 1.6 1.6 0 0 0-.52-.27 1.7 1.7 0 0 0-1.25.04q-.29.14-.29.43 0 .15.1.3.11.14.39.29.28.14.8.29.57.18.91.37.35.18.5.42.16.24.16.57 0 .38-.21.71-.2.33-.62.53-.42.19-1.06.19m4.87-3.18a.58.58 0 0 1-.41-.17.544.544 0 0 1 0-.81.58.58 0 0 1 .82 0 .533.533 0 0 1 .01.81.6.6 0 0 1-.42.17m0 3.19a.6.6 0 0 1-.42-.16.56.56 0 0 1-.17-.41q0-.24.18-.41a.58.58 0 0 1 .82 0 .533.533 0 0 1 .01.81.57.57 0 0 1-.42.17m3.85.31-.59-.29 3.13-6.78.6.31zm5 0-.59-.29 3.13-6.78.6.31zm6.27-.34q-.62 0-1.1-.3a2.16 2.16 0 0 1-.74-.84q-.27-.54-.27-1.23 0-.7.27-1.23.27-.54.74-.84.48-.31 1.1-.31t1.09.31q.48.3.75.84.27.53.27 1.23 0 .69-.27 1.23a2.13 2.13 0 0 1-.75.84q-.47.3-1.09.3m0-.6q.4 0 .7-.23t.47-.63q.18-.4.18-.92t-.18-.92a1.45 1.45 0 0 0-.47-.62q-.3-.23-.7-.23-.39 0-.7.23-.3.22-.48.62a2.3 2.3 0 0 0-.17.92q0 .52.17.92.18.4.48.63.31.23.7.23m3.1 2.19v-6.24h.73v.9q.11-.35.31-.57.21-.22.48-.32a1.766 1.766 0 0 1 1.32.04q.35.14.61.43.27.29.42.73.16.44.16 1.04t-.17 1.06a2.2 2.2 0 0 1-.44.77q-.27.3-.62.46-.34.15-.7.15-.27 0-.53-.09a1.5 1.5 0 0 1-.46-.24 2 2 0 0 1-.37-.39v2.27zm1.98-2.19q.24 0 .47-.08a1.2 1.2 0 0 0 .42-.29q.19-.2.3-.54.11-.35.11-.86 0-.55-.14-.93-.14-.39-.41-.6a1.08 1.08 0 0 0-.64-.23 1.2 1.2 0 0 0-.53.08q-.24.1-.43.33a1.7 1.7 0 0 0-.3.61 3.5 3.5 0 0 0-.1.9q.01.32.07.58t.17.46q.11.19.26.32.15.12.34.19.19.06.41.06m5.14.62q-.5 0-.91-.15a2 2 0 0 1-.71-.46 2.1 2.1 0 0 1-.45-.74q-.16-.45-.16-1.02 0-.58.16-1.03.17-.45.45-.75.29-.31.67-.47.39-.16.82-.16.39 0 .73.13t.59.4q.25.26.39.67a2.8 2.8 0 0 1 .14 1.14q0 .08-.01.16h-3.25q.02.44.15.77.13.32.34.53.21.2.48.3.28.1.59.1.24 0 .45-.05.21-.06.39-.17.19-.12.34-.29l.4.39a1.9 1.9 0 0 1-.44.39q-.24.16-.53.23a2.4 2.4 0 0 1-.63.08m-1.51-2.84h2.51q0-.32-.09-.57a1.2 1.2 0 0 0-.24-.44.9.9 0 0 0-.37-.28q-.21-.1-.48-.1-.24 0-.46.08-.21.08-.39.26-.18.17-.31.43-.12.26-.17.62m4.51 2.74v-4.57h.7v.81q.18-.28.42-.48.24-.21.53-.32.29-.12.6-.12.38 0 .68.19t.48.61.18 1.11V69h-.7v-2.75q0-.48-.11-.76-.11-.29-.3-.41a.74.74 0 0 0-.43-.13q-.23 0-.47.1a1.5 1.5 0 0 0-.43.29q-.2.18-.33.44-.12.26-.12.59V69zm6.62.1q-.35 0-.69-.15a1.9 1.9 0 0 1-.61-.45q-.27-.3-.43-.76a3.3 3.3 0 0 1-.16-1.07q0-.63.17-1.07.17-.45.45-.73.28-.29.62-.42a1.8 1.8 0 0 1 .69-.14q.32 0 .57.1.26.1.45.28.2.17.31.41v-2.75h.76v.07a.3.3 0 0 0-.08.13q-.01.07-.01.24l.01 5.5q0 .18.01.36.02.17.09.35h-.71a1 1 0 0 1-.07-.24 4 4 0 0 1-.03-.23v-.24q-.14.24-.34.43-.2.18-.45.28t-.55.1m.11-.63q.33 0 .56-.13.23-.14.37-.38.14-.25.2-.57.07-.33.07-.7 0-.51-.13-.91a1.3 1.3 0 0 0-.41-.64q-.28-.24-.72-.24-.3 0-.54.12a1 1 0 0 0-.39.33 1.7 1.7 0 0 0-.23.53q-.08.3-.08.68 0 .57.15 1t.44.67.71.24m4.66.64q-.78 0-1.2-.35-.42-.36-.42-.91 0-.37.18-.66.18-.3.49-.5.32-.21.74-.32t.89-.11q.17 0 .34.01.18 0 .37.02.2.01.41.04l.02.55a3 3 0 0 0-.37-.04 7 7 0 0 0-.71-.04q-.36 0-.66.06t-.52.18a.9.9 0 0 0-.34.31.84.84 0 0 0-.12.46q0 .21.07.36.08.14.21.23.13.08.3.12.18.04.39.04.39 0 .69-.12.31-.13.52-.37.22-.24.33-.59t.11-.8q0-.68-.16-1.06a1.02 1.02 0 0 0-.48-.54q-.31-.16-.8-.16-.33 0-.65.13-.32.12-.58.38l-.35-.46q.32-.32.74-.48t.89-.16q.45 0 .82.11t.63.37q.27.25.41.68.15.43.15 1.08V69h-.78v-.7a1.3 1.3 0 0 1-.32.41q-.18.16-.39.25-.21.08-.43.11-.22.04-.42.04m5.88-.04q-.44 0-.72-.15a1 1 0 0 1-.43-.46q-.15-.32-.2-.8-.04-.48-.02-1.14l.12-3.26.75-.09.1-.01.01.07a2 2 0 0 0-.09.14 1 1 0 0 0-.05.24l-.09 1.13.03.18-.07 1.65q-.03.76.04 1.18.07.41.25.57.18.15.48.15.33 0 .58-.13a4 4 0 0 0 .54-.33l.22.57a2.356 2.356 0 0 1-1.45.49m-2.29-4.64h3.29v.59h-3.29zm6.41 4.68q-.78 0-1.2-.35-.42-.36-.42-.91 0-.37.18-.66.18-.3.49-.5.32-.21.74-.32t.89-.11q.17 0 .34.01.18 0 .37.02.2.01.41.04l.02.55a3 3 0 0 0-.37-.04 7 7 0 0 0-.71-.04q-.36 0-.66.06t-.52.18a.9.9 0 0 0-.34.31.84.84 0 0 0-.12.46q0 .21.07.36.08.14.21.23.13.08.3.12.18.04.39.04.39 0 .69-.12.31-.13.52-.37.22-.24.33-.59t.11-.8q0-.68-.16-1.06a1.02 1.02 0 0 0-.48-.54q-.31-.16-.8-.16-.33 0-.65.13-.32.12-.58.38l-.35-.46q.32-.32.74-.48t.89-.16q.45 0 .82.11t.63.37q.27.25.41.68.15.43.15 1.08V69h-.78v-.7a1.3 1.3 0 0 1-.32.41q-.18.16-.39.25-.21.08-.43.11-.22.04-.42.04m5.27 0a.56.56 0 0 1-.41-.17.55.55 0 0 1-.17-.4q0-.23.17-.4a.56.56 0 0 1 .41-.17q.23 0 .4.17t.17.4a.55.55 0 0 1-.17.4.55.55 0 0 1-.4.17m5.47 0q-.5 0-.92-.18a2.2 2.2 0 0 1-.73-.5 2.3 2.3 0 0 1-.47-.75 2.7 2.7 0 0 1-.17-.96q0-.51.17-.94.17-.44.47-.76.31-.32.73-.5t.91-.18q.56 0 1 .23.45.22.73.62l-.45.44-.07.07-.05-.05a.3.3 0 0 0-.04-.15.7.7 0 0 0-.15-.19 1.3 1.3 0 0 0-.47-.28 1.9 1.9 0 0 0-.58-.08q-.29 0-.55.12t-.47.35q-.2.22-.32.54t-.12.71.12.72q.12.32.33.56t.5.38q.3.13.64.13.23 0 .44-.06.21-.07.4-.19.19-.13.35-.31l.42.49q-.34.36-.76.54-.41.18-.89.18m4.26 0q-.78 0-1.2-.35-.42-.36-.42-.91 0-.37.18-.66.18-.3.49-.5.32-.21.74-.32t.89-.11q.17 0 .34.01.18 0 .37.02.2.01.41.04l.02.55a3 3 0 0 0-.37-.04 7 7 0 0 0-.71-.04q-.36 0-.66.06t-.52.18a.9.9 0 0 0-.34.31.84.84 0 0 0-.12.46q0 .21.07.36.08.14.21.23.13.08.3.12.18.04.39.04.39 0 .69-.12.31-.13.52-.37.22-.24.33-.59t.11-.8q0-.68-.16-1.06a1.02 1.02 0 0 0-.48-.54q-.31-.16-.8-.16-.33 0-.65.13-.32.12-.58.38l-.35-.46q.32-.32.74-.48t.89-.16q.45 0 .82.11t.63.37q.27.25.41.68.15.43.15 1.08V69h-.78v-.7a1.3 1.3 0 0 1-.32.41q-.18.16-.39.25-.21.08-.43.11-.22.04-.42.04M227 69v-.58h1.17v-3.41h-1.11v-.58h1.83v3.99h1.07V69zm1.49-5.53q-.21 0-.36-.15t-.15-.36q0-.22.14-.37.15-.15.37-.15.21 0 .36.16.16.15.16.36t-.16.36q-.15.15-.36.15m5.02 5.63q-.38 0-.73-.08a2.8 2.8 0 0 1-.65-.24q-.3-.16-.56-.4l.4-.68.06-.09.06.04q.02.08.04.17.03.08.14.2.21.21.5.35.3.13.76.13.37 0 .62-.09a.9.9 0 0 0 .4-.25.6.6 0 0 0 .14-.39q0-.15-.06-.26a.6.6 0 0 0-.2-.22 1.8 1.8 0 0 0-.35-.2 5 5 0 0 0-.54-.2q-.52-.15-.91-.35a1.8 1.8 0 0 1-.6-.46.97.97 0 0 1-.21-.61.96.96 0 0 1 .19-.6q.19-.26.56-.4.38-.15.93-.15.32 0 .58.05.26.04.48.13t.4.23q.19.13.36.31l-.41.5-.07.08-.05-.05a.4.4 0 0 0-.05-.15.6.6 0 0 0-.14-.19 1.6 1.6 0 0 0-.52-.27 1.7 1.7 0 0 0-1.25.04q-.29.14-.29.43 0 .15.1.3.11.14.39.29.28.14.8.29.57.18.91.37.35.18.5.42.16.24.16.57 0 .38-.21.71-.2.33-.62.53-.42.19-1.06.19m5 0q-.38 0-.73-.08a2.8 2.8 0 0 1-.65-.24q-.3-.16-.56-.4l.4-.68.06-.09.06.04q.02.08.04.17.03.08.14.2.21.21.5.35.3.13.76.13.37 0 .62-.09a.9.9 0 0 0 .4-.25.6.6 0 0 0 .14-.39q0-.15-.06-.26a.6.6 0 0 0-.2-.22 1.8 1.8 0 0 0-.35-.2 5 5 0 0 0-.54-.2q-.52-.15-.91-.35a1.8 1.8 0 0 1-.6-.46.97.97 0 0 1-.21-.61.96.96 0 0 1 .19-.6q.19-.26.56-.4.38-.15.93-.15.32 0 .58.05.26.04.48.13t.4.23q.19.13.36.31l-.41.5-.07.08-.05-.05a.4.4 0 0 0-.05-.15.6.6 0 0 0-.14-.19 1.6 1.6 0 0 0-.52-.27 1.7 1.7 0 0 0-1.25.04q-.29.14-.29.43 0 .15.1.3.11.14.39.29.28.14.8.29.57.18.91.37.35.18.5.42.16.24.16.57 0 .38-.21.71-.2.33-.62.53-.42.19-1.06.19m5.21 0q-.5 0-.91-.15a2 2 0 0 1-.71-.46 2.1 2.1 0 0 1-.45-.74q-.16-.45-.16-1.02 0-.58.16-1.03.17-.45.45-.75.29-.31.67-.47.39-.16.82-.16.39 0 .73.13t.59.4q.25.26.39.67a2.8 2.8 0 0 1 .14 1.14q0 .08-.01.16h-3.25q.02.44.15.77.13.32.34.53.21.2.48.3.28.1.59.1.24 0 .45-.05.21-.06.39-.17.19-.12.34-.29l.4.39a1.9 1.9 0 0 1-.44.39q-.24.16-.53.23a2.4 2.4 0 0 1-.63.08m-1.51-2.84h2.51q0-.32-.09-.57a1.2 1.2 0 0 0-.24-.44.9.9 0 0 0-.37-.28q-.21-.1-.48-.1-.24 0-.46.08-.21.08-.39.26-.18.17-.31.43-.12.26-.17.62m6.13 2.84q-.35 0-.69-.15a1.9 1.9 0 0 1-.61-.45q-.27-.3-.43-.76a3.3 3.3 0 0 1-.16-1.07q0-.63.17-1.07.17-.45.45-.73.28-.29.62-.42a1.8 1.8 0 0 1 .69-.14q.32 0 .57.1.26.1.45.28.2.17.31.41v-2.75h.76v.07a.3.3 0 0 0-.08.13q-.01.07-.01.24l.01 5.5q0 .18.01.36.02.17.09.35h-.71a1 1 0 0 1-.07-.24 4 4 0 0 1-.03-.23v-.24q-.14.24-.34.43-.2.18-.45.28t-.55.1m.11-.63q.33 0 .56-.13.23-.14.37-.38.14-.25.2-.57.07-.33.07-.7 0-.51-.13-.91a1.3 1.3 0 0 0-.41-.64q-.28-.24-.72-.24-.3 0-.54.12a1 1 0 0 0-.39.33 1.7 1.7 0 0 0-.23.53q-.08.3-.08.68 0 .57.15 1t.44.67.71.24m5.27.63q-.5 0-.91-.15a2 2 0 0 1-.71-.46 2.1 2.1 0 0 1-.45-.74q-.16-.45-.16-1.02 0-.58.16-1.03.17-.45.45-.75.29-.31.67-.47.39-.16.82-.16.39 0 .73.13t.59.4q.25.26.39.67a2.8 2.8 0 0 1 .14 1.14q0 .08-.01.16h-3.25q.02.44.15.77.13.32.34.53.21.2.48.3.28.1.59.1.24 0 .45-.05.21-.06.39-.17.19-.12.34-.29l.4.39a1.9 1.9 0 0 1-.44.39q-.24.16-.53.23a2.4 2.4 0 0 1-.63.08m-1.51-2.84h2.51q0-.32-.09-.57a1.2 1.2 0 0 0-.24-.44.9.9 0 0 0-.37-.28q-.21-.1-.48-.1-.24 0-.46.08-.21.08-.39.26-.18.17-.31.43-.12.26-.17.62m6.3 2.84q-.38 0-.73-.08a2.8 2.8 0 0 1-.65-.24q-.3-.16-.56-.4l.4-.68.06-.09.06.04q.02.08.04.17.03.08.14.2.21.21.5.35.3.13.76.13.37 0 .62-.09a.9.9 0 0 0 .4-.25.6.6 0 0 0 .14-.39q0-.15-.06-.26a.6.6 0 0 0-.2-.22 1.8 1.8 0 0 0-.35-.2 5 5 0 0 0-.54-.2q-.52-.15-.91-.35a1.8 1.8 0 0 1-.6-.46.97.97 0 0 1-.21-.61.96.96 0 0 1 .19-.6q.19-.26.56-.4.38-.15.93-.15.32 0 .58.05.26.04.48.13t.4.23q.19.13.36.31l-.41.5-.07.08-.05-.05a.4.4 0 0 0-.05-.15.6.6 0 0 0-.14-.19 1.6 1.6 0 0 0-.52-.27 1.7 1.7 0 0 0-1.25.04q-.29.14-.29.43 0 .15.1.3.11.14.39.29.28.14.8.29.57.18.91.37.35.18.5.42.16.24.16.57 0 .38-.21.71-.2.33-.62.53-.42.19-1.06.19m4.83 0q-.35 0-.69-.15a1.9 1.9 0 0 1-.61-.45q-.27-.3-.43-.76a3.3 3.3 0 0 1-.16-1.07q0-.63.17-1.07.17-.45.45-.73.28-.29.62-.42a1.8 1.8 0 0 1 .69-.14q.32 0 .57.1.26.1.45.28.2.17.31.41v-2.75h.76v.07a.3.3 0 0 0-.08.13q-.01.07-.01.24l.01 5.5q0 .18.01.36.02.17.09.35h-.71a1 1 0 0 1-.07-.24 4 4 0 0 1-.03-.23v-.24q-.14.24-.34.43-.2.18-.45.28t-.55.1m.11-.63q.33 0 .56-.13.23-.14.37-.38.14-.25.2-.57.07-.33.07-.7 0-.51-.13-.91a1.3 1.3 0 0 0-.41-.64q-.28-.24-.72-.24-.3 0-.54.12a1 1 0 0 0-.39.33 1.7 1.7 0 0 0-.23.53q-.08.3-.08.68 0 .57.15 1t.44.67.71.24m5.27.63q-.5 0-.91-.15a2 2 0 0 1-.71-.46 2.1 2.1 0 0 1-.45-.74q-.16-.45-.16-1.02 0-.58.16-1.03.17-.45.45-.75.29-.31.67-.47.39-.16.82-.16.39 0 .73.13t.59.4q.25.26.39.67a2.8 2.8 0 0 1 .14 1.14q0 .08-.01.16h-3.25q.02.44.15.77.13.32.34.53.21.2.48.3.28.1.59.1.24 0 .45-.05.21-.06.39-.17.19-.12.34-.29l.4.39a1.9 1.9 0 0 1-.44.39q-.24.16-.53.23a2.4 2.4 0 0 1-.63.08m-1.51-2.84h2.51q0-.32-.09-.57a1.2 1.2 0 0 0-.24-.44.9.9 0 0 0-.37-.28q-.21-.1-.48-.1-.24 0-.46.08-.21.08-.39.26-.18.17-.31.43-.12.26-.17.62m4.39 4.41v-6.24h.73v.9q.11-.35.31-.57.21-.22.48-.32a1.766 1.766 0 0 1 1.32.04q.35.14.61.43.27.29.42.73.16.44.16 1.04t-.17 1.06a2.2 2.2 0 0 1-.44.77q-.27.3-.62.46-.34.15-.7.15-.27 0-.53-.09a1.5 1.5 0 0 1-.46-.24 2 2 0 0 1-.37-.39v2.27zm1.98-2.19q.24 0 .47-.08a1.2 1.2 0 0 0 .42-.29q.19-.2.3-.54.11-.35.11-.86 0-.55-.14-.93-.14-.39-.41-.6a1.08 1.08 0 0 0-.64-.23 1.2 1.2 0 0 0-.53.08q-.24.1-.43.33a1.7 1.7 0 0 0-.3.61 3.5 3.5 0 0 0-.1.9q.01.32.07.58t.17.46q.11.19.26.32.15.12.34.19.19.06.41.06m4.92.6q-.62 0-1.1-.3a2.16 2.16 0 0 1-.74-.84q-.27-.54-.27-1.23 0-.7.27-1.23.27-.54.74-.84.48-.31 1.1-.31t1.09.31q.48.3.75.84.27.53.27 1.23 0 .69-.27 1.23a2.13 2.13 0 0 1-.75.84q-.47.3-1.09.3m0-.6q.4 0 .7-.23t.47-.63q.18-.4.18-.92t-.18-.92a1.45 1.45 0 0 0-.47-.62q-.3-.23-.7-.23-.39 0-.7.23-.3.22-.48.62a2.3 2.3 0 0 0-.17.92q0 .52.17.92.18.4.48.63.31.23.7.23m5.49.59q-.44 0-.72-.15a1 1 0 0 1-.43-.46q-.15-.32-.2-.8-.04-.48-.02-1.14l.12-3.26.75-.09.1-.01.01.07a2 2 0 0 0-.09.14 1 1 0 0 0-.05.24l-.09 1.13.03.18-.07 1.65q-.03.76.04 1.18.07.41.25.57.18.15.48.15.33 0 .58-.13a4 4 0 0 0 .54-.33l.22.57a2.356 2.356 0 0 1-1.45.49m-2.29-4.64h3.29v.59h-3.29zm6.81 4.67q-.38 0-.73-.08a2.8 2.8 0 0 1-.65-.24q-.3-.16-.56-.4l.4-.68.06-.09.06.04q.02.08.04.17.03.08.14.2.21.21.5.35.3.13.76.13.37 0 .62-.09a.9.9 0 0 0 .4-.25.6.6 0 0 0 .14-.39q0-.15-.06-.26a.6.6 0 0 0-.2-.22 1.8 1.8 0 0 0-.35-.2 5 5 0 0 0-.54-.2q-.52-.15-.91-.35a1.8 1.8 0 0 1-.6-.46.97.97 0 0 1-.21-.61.96.96 0 0 1 .19-.6q.19-.26.56-.4.38-.15.93-.15.32 0 .58.05.26.04.48.13t.4.23q.19.13.36.31l-.41.5-.07.08-.05-.05a.4.4 0 0 0-.05-.15.6.6 0 0 0-.14-.19 1.6 1.6 0 0 0-.52-.27 1.7 1.7 0 0 0-1.25.04q-.29.14-.29.43 0 .15.1.3.11.14.39.29.28.14.8.29.57.18.91.37.35.18.5.42.16.24.16.57 0 .38-.21.71-.2.33-.62.53-.42.19-1.06.19m4.87.01a.56.56 0 0 1-.41-.17.55.55 0 0 1-.17-.4q0-.23.17-.4a.56.56 0 0 1 .41-.17q.23 0 .4.17t.17.4a.55.55 0 0 1-.17.4.55.55 0 0 1-.4.17m4.24-4.11h-.99v-.57h.99v-.38q0-.61.21-1 .22-.39.6-.57.38-.19.87-.19.43 0 .8.16.38.15.63.47l-.38.53-.06.08-.06-.04a.7.7 0 0 0-.04-.16.7.7 0 0 0-.14-.2 1 1 0 0 0-.32-.2 1.2 1.2 0 0 0-.41-.06q-.29 0-.52.12a.78.78 0 0 0-.36.37q-.13.25-.13.69v.38h1.5V65h-1.5v4h-.69zm4.57-.57h.75l-.03 1.33-.09-.15q.06-.31.21-.55t.36-.4q.21-.17.46-.25.25-.09.52-.09.36 0 .66.13.31.12.55.37l-.32.56-.04.09-.07-.04a.6.6 0 0 0-.06-.15.7.7 0 0 0-.17-.17 1 1 0 0 0-.3-.13 1 1 0 0 0-.3-.04q-.25 0-.5.1-.25.09-.46.29-.2.2-.32.51a2 2 0 0 0-.12.74v2.43h-.73zm5.04 4.99-.59-.29 3.13-6.78.6.31zm5.88-.31q-.78 0-1.2-.35-.42-.36-.42-.91 0-.37.18-.66.18-.3.49-.5.32-.21.74-.32t.89-.11q.17 0 .34.01.18 0 .37.02.2.01.41.04l.02.55a3 3 0 0 0-.37-.04 7 7 0 0 0-.71-.04q-.36 0-.66.06t-.52.18a.9.9 0 0 0-.34.31.84.84 0 0 0-.12.46q0 .21.07.36.08.14.21.23.13.08.3.12.18.04.39.04.39 0 .69-.12.31-.13.52-.37.22-.24.33-.59t.11-.8q0-.68-.16-1.06a1.02 1.02 0 0 0-.48-.54q-.31-.16-.8-.16-.33 0-.65.13-.32.12-.58.38l-.35-.46q.32-.32.74-.48t.89-.16q.45 0 .82.11t.63.37q.27.25.41.68.15.43.15 1.08V69h-.78v-.7a1.3 1.3 0 0 1-.32.41q-.18.16-.39.25-.21.08-.43.11-.22.04-.42.04m3.49 1.56v-6.24h.73v.9q.11-.35.31-.57.21-.22.48-.32a1.766 1.766 0 0 1 1.32.04q.35.14.61.43.27.29.42.73.16.44.16 1.04t-.17 1.06a2.2 2.2 0 0 1-.44.77q-.27.3-.62.46-.34.15-.7.15-.27 0-.53-.09a1.5 1.5 0 0 1-.46-.24 2 2 0 0 1-.37-.39v2.27zm1.98-2.19q.24 0 .47-.08a1.2 1.2 0 0 0 .42-.29q.19-.2.3-.54.11-.35.11-.86 0-.55-.14-.93-.14-.39-.41-.6a1.08 1.08 0 0 0-.64-.23 1.2 1.2 0 0 0-.53.08q-.24.1-.43.33a1.7 1.7 0 0 0-.3.61 3.5 3.5 0 0 0-.1.9q.01.32.07.58t.17.46q.11.19.26.32.15.12.34.19.19.06.41.06M322 69v-.58h1.17v-3.41h-1.11v-.58h1.83v3.99h1.07V69zm1.49-5.53q-.21 0-.36-.15t-.15-.36q0-.22.14-.37.15-.15.37-.15.21 0 .36.16.16.15.16.36t-.16.36q-.15.15-.36.15m3.74 5.95-.59-.29 3.13-6.78.6.31zm6.49-.32q-.5 0-.91-.15a2 2 0 0 1-.71-.46 2.1 2.1 0 0 1-.45-.74q-.16-.45-.16-1.02 0-.58.16-1.03.17-.45.45-.75.29-.31.67-.47.39-.16.82-.16.39 0 .73.13t.59.4q.25.26.39.67a2.8 2.8 0 0 1 .14 1.14q0 .08-.01.16h-3.25q.02.44.15.77.13.32.34.53.21.2.48.3.28.1.59.1.24 0 .45-.05.21-.06.39-.17.19-.12.34-.29l.4.39a1.9 1.9 0 0 1-.44.39q-.24.16-.53.23a2.4 2.4 0 0 1-.63.08m-1.51-2.84h2.51q0-.32-.09-.57a1.2 1.2 0 0 0-.24-.44.9.9 0 0 0-.37-.28q-.21-.1-.48-.1-.24 0-.46.08-.21.08-.39.26-.18.17-.31.43-.12.26-.17.62m4.26 2.74 1.61-2.32-1.58-2.25h.79l1.19 1.69 1.14-1.69h.74l-1.48 2.22 1.68 2.35h-.82l-1.26-1.78-1.19 1.78zm5.13 1.67v-6.24h.73v.9q.11-.35.31-.57.21-.22.48-.32a1.766 1.766 0 0 1 1.32.04q.35.14.61.43.27.29.42.73.16.44.16 1.04t-.17 1.06a2.2 2.2 0 0 1-.44.77q-.27.3-.62.46-.34.15-.7.15-.27 0-.53-.09a1.5 1.5 0 0 1-.46-.24 2 2 0 0 1-.37-.39v2.27zm1.98-2.19q.24 0 .47-.08a1.2 1.2 0 0 0 .42-.29q.19-.2.3-.54.11-.35.11-.86 0-.55-.14-.93-.14-.39-.41-.6a1.08 1.08 0 0 0-.64-.23 1.2 1.2 0 0 0-.53.08q-.24.1-.43.33a1.7 1.7 0 0 0-.3.61 3.5 3.5 0 0 0-.1.9q.01.32.07.58t.17.46q.11.19.26.32.15.12.34.19.19.06.41.06m3.21.52v-.58h1.35v-5.49h-1.29v-.58h2.02v6.07h1.34V69zm6.71.08q-.62 0-1.1-.3a2.16 2.16 0 0 1-.74-.84q-.27-.54-.27-1.23 0-.7.27-1.23.27-.54.74-.84.48-.31 1.1-.31t1.09.31q.48.3.75.84.27.53.27 1.23 0 .69-.27 1.23a2.13 2.13 0 0 1-.75.84q-.47.3-1.09.3m0-.6q.4 0 .7-.23t.47-.63q.18-.4.18-.92t-.18-.92a1.45 1.45 0 0 0-.47-.62q-.3-.23-.7-.23-.39 0-.7.23-.3.22-.48.62a2.3 2.3 0 0 0-.17.92q0 .52.17.92.18.4.48.63.31.23.7.23m3.69-4.05h.75l-.03 1.33-.09-.15q.06-.31.21-.55t.36-.4q.21-.17.46-.25.25-.09.52-.09.36 0 .66.13.31.12.55.37l-.32.56-.04.09-.07-.04a.6.6 0 0 0-.06-.15.7.7 0 0 0-.17-.17 1 1 0 0 0-.3-.13 1 1 0 0 0-.3-.04q-.25 0-.5.1-.25.09-.46.29-.2.2-.32.51a2 2 0 0 0-.12.74v2.43h-.73zm6.53 4.67q-.5 0-.91-.15a2 2 0 0 1-.71-.46 2.1 2.1 0 0 1-.45-.74q-.16-.45-.16-1.02 0-.58.16-1.03.17-.45.45-.75.29-.31.67-.47.39-.16.82-.16.39 0 .73.13t.59.4q.25.26.39.67a2.8 2.8 0 0 1 .14 1.14q0 .08-.01.16h-3.25q.02.44.15.77.13.32.34.53.21.2.48.3.28.1.59.1.24 0 .45-.05.21-.06.39-.17.19-.12.34-.29l.4.39a1.9 1.9 0 0 1-.44.39q-.24.16-.53.23a2.4 2.4 0 0 1-.63.08m-1.51-2.84h2.51q0-.32-.09-.57a1.2 1.2 0 0 0-.24-.44.9.9 0 0 0-.37-.28q-.21-.1-.48-.1-.24 0-.46.08-.21.08-.39.26-.18.17-.31.43-.12.26-.17.62m5.02 3.16-.59-.29 3.13-6.78.6.31zm5.98-.42-1.81-4.57h.72l1.48 3.75h-.14l.81-1.86q.24-.55.38-1.02.15-.47.22-.87h.68q-.08.42-.25.92t-.42 1.08L373.77 69zm3.52-.56q.54-.55.99-1t.8-.83q.36-.39.61-.73.25-.35.38-.68.13-.34.13-.71 0-.32-.08-.54a.8.8 0 0 0-.23-.35.8.8 0 0 0-.34-.2 1.508 1.508 0 0 0-1.29.22 1.5 1.5 0 0 0-.37.35.8.8 0 0 0-.11.22.4.4 0 0 0-.01.15l-.04.05-.08-.05-.51-.4q.2-.39.5-.66t.68-.41.81-.14a1.9 1.9 0 0 1 .93.22q.4.21.63.61t.23.95q0 .41-.15.8-.15.38-.41.75a7 7 0 0 1-.61.74q-.35.37-.75.77-.39.39-.81.82h2.32a1 1 0 0 0 .24-.02.3.3 0 0 0 .13-.08h.07V69h-3.66zm6.65.67a.56.56 0 0 1-.41-.17.55.55 0 0 1-.17-.4q0-.23.17-.4a.56.56 0 0 1 .41-.17q.23 0 .4.17t.17.4a.55.55 0 0 1-.17.4.55.55 0 0 1-.4.17m4.92-.11v-5.37l-1.26.37-.16-.39 1.63-.85h.49V69zm3.93.42-.59-.29 3.13-6.78.6.31zm6.62-.31q-.5 0-.92-.18a2.2 2.2 0 0 1-.73-.5 2.3 2.3 0 0 1-.47-.75 2.7 2.7 0 0 1-.17-.96q0-.51.17-.94.17-.44.47-.76.31-.32.73-.5t.91-.18q.56 0 1 .23.45.22.73.62l-.45.44-.07.07-.05-.05a.3.3 0 0 0-.04-.15.7.7 0 0 0-.15-.19 1.3 1.3 0 0 0-.47-.28 1.9 1.9 0 0 0-.58-.08q-.29 0-.55.12t-.47.35q-.2.22-.32.54t-.12.71.12.72q.12.32.33.56t.5.38q.3.13.64.13.23 0 .44-.06.21-.07.4-.19.19-.13.35-.31l.42.49q-.34.36-.76.54-.41.18-.89.18m4.26 0q-.78 0-1.2-.35-.42-.36-.42-.91 0-.37.18-.66.18-.3.49-.5.32-.21.74-.32t.89-.11q.17 0 .34.01.18 0 .37.02.2.01.41.04l.02.55a3 3 0 0 0-.37-.04 7 7 0 0 0-.71-.04q-.36 0-.66.06t-.52.18a.9.9 0 0 0-.34.31.84.84 0 0 0-.12.46q0 .21.07.36.08.14.21.23.13.08.3.12.18.04.39.04.39 0 .69-.12.31-.13.52-.37.22-.24.33-.59t.11-.8q0-.68-.16-1.06a1.02 1.02 0 0 0-.48-.54q-.31-.16-.8-.16-.33 0-.65.13-.32.12-.58.38l-.35-.46q.32-.32.74-.48t.89-.16q.45 0 .82.11t.63.37q.27.25.41.68.15.43.15 1.08V69h-.78v-.7a1.3 1.3 0 0 1-.32.41q-.18.16-.39.25-.21.08-.43.11-.22.04-.42.04m5.88-.04q-.44 0-.72-.15a1 1 0 0 1-.43-.46q-.15-.32-.2-.8-.04-.48-.02-1.14l.12-3.26.75-.09.1-.01.01.07a2 2 0 0 0-.09.14 1 1 0 0 0-.05.24l-.09 1.13.03.18-.07 1.65q-.03.76.04 1.18.07.41.25.57.18.15.48.15.33 0 .58-.13a4 4 0 0 0 .54-.33l.22.57a2.356 2.356 0 0 1-1.45.49m-2.29-4.64h3.29v.59h-3.29zm6.41 4.68q-.78 0-1.2-.35-.42-.36-.42-.91 0-.37.18-.66.18-.3.49-.5.32-.21.74-.32t.89-.11q.17 0 .34.01.18 0 .37.02.2.01.41.04l.02.55a3 3 0 0 0-.37-.04 7 7 0 0 0-.71-.04q-.36 0-.66.06t-.52.18a.9.9 0 0 0-.34.31.84.84 0 0 0-.12.46q0 .21.07.36.08.14.21.23.13.08.3.12.18.04.39.04.39 0 .69-.12.31-.13.52-.37.22-.24.33-.59t.11-.8q0-.68-.16-1.06a1.02 1.02 0 0 0-.48-.54q-.31-.16-.8-.16-.33 0-.65.13-.32.12-.58.38l-.35-.46q.32-.32.74-.48t.89-.16q.45 0 .82.11t.63.37q.27.25.41.68.15.43.15 1.08V69h-.78v-.7a1.3 1.3 0 0 1-.32.41q-.18.16-.39.25-.21.08-.43.11-.22.04-.42.04m3.68-.11v-.58h1.35v-5.49h-1.29v-.58h2.02v6.07h1.34V69zm6.71.08q-.62 0-1.1-.3a2.16 2.16 0 0 1-.74-.84q-.27-.54-.27-1.23 0-.7.27-1.23.27-.54.74-.84.48-.31 1.1-.31t1.09.31q.48.3.75.84.27.53.27 1.23 0 .69-.27 1.23a2.13 2.13 0 0 1-.75.84q-.47.3-1.09.3m0-.6q.4 0 .7-.23t.47-.63q.18-.4.18-.92t-.18-.92a1.45 1.45 0 0 0-.47-.62q-.3-.23-.7-.23-.39 0-.7.23-.3.22-.48.62a2.3 2.3 0 0 0-.17.92q0 .52.17.92.18.4.48.63.31.23.7.23m4.97 2.24q-.48 0-.87-.08a2.3 2.3 0 0 1-.66-.22 1.1 1.1 0 0 1-.42-.36.95.95 0 0 1-.14-.52q0-.28.12-.5a1.1 1.1 0 0 1 .31-.36q.2-.15.43-.22l.3.18q-.18.11-.29.22a.7.7 0 0 0-.16.25q-.05.15-.05.35 0 .17.1.3.1.14.28.23.19.09.45.14.27.05.61.05.46 0 .74-.1.29-.09.43-.26a.55.55 0 0 0 .14-.37.7.7 0 0 0-.08-.36q-.08-.14-.33-.21t-.76-.07q-.35 0-.64-.03a3 3 0 0 1-.52-.1 1.6 1.6 0 0 1-.39-.17.8.8 0 0 1-.23-.26.74.74 0 0 1-.08-.35q0-.26.14-.5.15-.24.4-.46l.34.27q-.1.11-.16.2a.7.7 0 0 0-.09.16.6.6 0 0 0-.02.16q0 .16.12.26.13.1.44.15.31.04.84.04t.86.09q.33.08.5.24.18.16.25.37t.07.46q0 .27-.11.51a1.1 1.1 0 0 1-.33.44 1.6 1.6 0 0 1-.61.31q-.38.12-.93.12m-.21-3.27q-.49 0-.85-.21a1.56 1.56 0 0 1-.56-.58 1.74 1.74 0 0 1-.19-.81q0-.44.19-.8.2-.36.56-.57.36-.22.85-.22.5 0 .85.22.36.21.55.57.2.36.2.8t-.2.81q-.19.36-.55.58-.35.21-.85.21m0-.6a1 1 0 0 0 .51-.13 1.01 1.01 0 0 0 .49-.87.96.96 0 0 0-.13-.5.94.94 0 0 0-.36-.36.93.93 0 0 0-.51-.14.98.98 0 0 0-.87.5.96.96 0 0 0-.13.5q0 .27.13.5t.35.37q.23.13.52.13m1.33-1.68-.28-.33q.29-.29.6-.42.32-.14.75-.11l.09.59a2.4 2.4 0 0 0-.62.02 1.2 1.2 0 0 0-.54.25m2.64 4.25-.59-.29 3.13-6.78.6.31zm6.49-.32q-.5 0-.91-.15a2 2 0 0 1-.71-.46 2.1 2.1 0 0 1-.45-.74q-.16-.45-.16-1.02 0-.58.16-1.03.17-.45.45-.75.29-.31.67-.47.39-.16.82-.16.39 0 .73.13t.59.4q.25.26.39.67a2.8 2.8 0 0 1 .14 1.14q0 .08-.01.16h-3.25q.02.44.15.77.13.32.34.53.21.2.48.3.28.1.59.1.24 0 .45-.05.21-.06.39-.17.19-.12.34-.29l.4.39a1.9 1.9 0 0 1-.44.39q-.24.16-.53.23a2.4 2.4 0 0 1-.63.08m-1.51-2.84h2.51q0-.32-.09-.57a1.2 1.2 0 0 0-.24-.44.9.9 0 0 0-.37-.28q-.21-.1-.48-.1-.24 0-.46.08-.21.08-.39.26-.18.17-.31.43-.12.26-.17.62m4.26 2.74 1.61-2.32-1.58-2.25h.79l1.19 1.69 1.14-1.69h.74l-1.48 2.22 1.68 2.35h-.82l-1.26-1.78-1.19 1.78zm5.13 1.67v-6.24h.73v.9q.11-.35.31-.57.21-.22.48-.32a1.766 1.766 0 0 1 1.32.04q.35.14.61.43.27.29.42.73.16.44.16 1.04t-.17 1.06a2.2 2.2 0 0 1-.44.77q-.27.3-.62.46-.34.15-.7.15-.27 0-.53-.09a1.5 1.5 0 0 1-.46-.24 2 2 0 0 1-.37-.39v2.27zm1.98-2.19q.24 0 .47-.08a1.2 1.2 0 0 0 .42-.29q.19-.2.3-.54.11-.35.11-.86 0-.55-.14-.93-.14-.39-.41-.6a1.08 1.08 0 0 0-.64-.23 1.2 1.2 0 0 0-.53.08q-.24.1-.43.33a1.7 1.7 0 0 0-.3.61 3.5 3.5 0 0 0-.1.9q.01.32.07.58t.17.46q.11.19.26.32.15.12.34.19.19.06.41.06m4.92.6q-.62 0-1.1-.3a2.16 2.16 0 0 1-.74-.84q-.27-.54-.27-1.23 0-.7.27-1.23.27-.54.74-.84.48-.31 1.1-.31t1.09.31q.48.3.75.84.27.53.27 1.23 0 .69-.27 1.23a2.13 2.13 0 0 1-.75.84q-.47.3-1.09.3m0-.6q.4 0 .7-.23t.47-.63q.18-.4.18-.92t-.18-.92a1.45 1.45 0 0 0-.47-.62q-.3-.23-.7-.23-.39 0-.7.23-.3.22-.48.62a2.3 2.3 0 0 0-.17.92q0 .52.17.92.18.4.48.63.31.23.7.23m3.69-4.05h.75l-.03 1.33-.09-.15q.06-.31.21-.55t.36-.4q.21-.17.46-.25.25-.09.52-.09.36 0 .66.13.31.12.55.37l-.32.56-.04.09-.07-.04a.6.6 0 0 0-.06-.15.7.7 0 0 0-.17-.17 1 1 0 0 0-.3-.13 1 1 0 0 0-.3-.04q-.25 0-.5.1-.25.09-.46.29-.2.2-.32.51a2 2 0 0 0-.12.74v2.43h-.73zm6.8 4.64q-.44 0-.72-.15a1 1 0 0 1-.43-.46q-.15-.32-.2-.8-.04-.48-.02-1.14l.12-3.26.75-.09.1-.01.01.07a2 2 0 0 0-.09.14 1 1 0 0 0-.05.24l-.09 1.13.03.18-.07 1.65q-.03.76.04 1.18.07.41.25.57.18.15.48.15.33 0 .58-.13a4 4 0 0 0 .54-.33l.22.57a2.356 2.356 0 0 1-1.45.49m-2.29-4.64h3.29v.59h-3.29zm6.81 4.67q-.38 0-.73-.08a2.8 2.8 0 0 1-.65-.24q-.3-.16-.56-.4l.4-.68.06-.09.06.04q.02.08.04.17.03.08.14.2.21.21.5.35.3.13.76.13.37 0 .62-.09a.9.9 0 0 0 .4-.25.6.6 0 0 0 .14-.39q0-.15-.06-.26a.6.6 0 0 0-.2-.22 1.8 1.8 0 0 0-.35-.2 5 5 0 0 0-.54-.2q-.52-.15-.91-.35a1.8 1.8 0 0 1-.6-.46.97.97 0 0 1-.21-.61.96.96 0 0 1 .19-.6q.19-.26.56-.4.38-.15.93-.15.32 0 .58.05.26.04.48.13t.4.23q.19.13.36.31l-.41.5-.07.08-.05-.05a.4.4 0 0 0-.05-.15.6.6 0 0 0-.14-.19 1.6 1.6 0 0 0-.52-.27 1.7 1.7 0 0 0-1.25.04q-.29.14-.29.43 0 .15.1.3.11.14.39.29.28.14.8.29.57.18.91.37.35.18.5.42.16.24.16.57 0 .38-.21.71-.2.33-.62.53-.42.19-1.06.19m3.72.32-.59-.29 3.13-6.78.6.31zm6.11-.32q-.35 0-.69-.15a1.9 1.9 0 0 1-.61-.45q-.27-.3-.43-.76a3.3 3.3 0 0 1-.16-1.07q0-.63.17-1.07.17-.45.45-.73.28-.29.62-.42a1.8 1.8 0 0 1 .69-.14q.32 0 .57.1.26.1.45.28.2.17.31.41v-2.75h.76v.07a.3.3 0 0 0-.08.13q-.01.07-.01.24l.01 5.5q0 .18.01.36.02.17.09.35h-.71a1 1 0 0 1-.07-.24 4 4 0 0 1-.03-.23v-.24q-.14.24-.34.43-.2.18-.45.28t-.55.1m.11-.63q.33 0 .56-.13.23-.14.37-.38.14-.25.2-.57.07-.33.07-.7 0-.51-.13-.91a1.3 1.3 0 0 0-.41-.64q-.28-.24-.72-.24-.3 0-.54.12a1 1 0 0 0-.39.33 1.7 1.7 0 0 0-.23.53q-.08.3-.08.68 0 .57.15 1t.44.67.71.24m5.4.64q-.5 0-.92-.18a2.2 2.2 0 0 1-.73-.5 2.3 2.3 0 0 1-.47-.75 2.7 2.7 0 0 1-.17-.96q0-.51.17-.94.17-.44.47-.76.31-.32.73-.5t.91-.18q.56 0 1 .23.45.22.73.62l-.45.44-.07.07-.05-.05a.3.3 0 0 0-.04-.15.7.7 0 0 0-.15-.19 1.3 1.3 0 0 0-.47-.28 1.9 1.9 0 0 0-.58-.08q-.29 0-.55.12t-.47.35q-.2.22-.32.54t-.12.71.12.72q.12.32.33.56t.5.38q.3.13.64.13.23 0 .44-.06.21-.07.4-.19.19-.13.35-.31l.42.49q-.34.36-.76.54-.41.18-.89.18m4.26 0q-.78 0-1.2-.35-.42-.36-.42-.91 0-.37.18-.66.18-.3.49-.5.32-.21.74-.32t.89-.11q.17 0 .34.01.18 0 .37.02.2.01.41.04l.02.55a3 3 0 0 0-.37-.04 7 7 0 0 0-.71-.04q-.36 0-.66.06t-.52.18a.9.9 0 0 0-.34.31.84.84 0 0 0-.12.46q0 .21.07.36.08.14.21.23.13.08.3.12.18.04.39.04.39 0 .69-.12.31-.13.52-.37.22-.24.33-.59t.11-.8q0-.68-.16-1.06a1.02 1.02 0 0 0-.48-.54q-.31-.16-.8-.16-.33 0-.65.13-.32.12-.58.38l-.35-.46q.32-.32.74-.48t.89-.16q.45 0 .82.11t.63.37q.27.25.41.68.15.43.15 1.08V69h-.78v-.7a1.3 1.3 0 0 1-.32.41q-.18.16-.39.25-.21.08-.43.11-.22.04-.42.04m5.88-.04q-.44 0-.72-.15a1 1 0 0 1-.43-.46q-.15-.32-.2-.8-.04-.48-.02-1.14l.12-3.26.75-.09.1-.01.01.07a2 2 0 0 0-.09.14 1 1 0 0 0-.05.24l-.09 1.13.03.18-.07 1.65q-.03.76.04 1.18.07.41.25.57.18.15.48.15.33 0 .58-.13a4 4 0 0 0 .54-.33l.22.57a2.356 2.356 0 0 1-1.45.49m-2.29-4.64h3.29v.59h-3.29zm5.53 4.99-.59-.29 3.13-6.78.6.31zm6.03-2.68q0-.37.1-.62t.26-.44a6 6 0 0 1 .33-.36q.18-.17.34-.35t.26-.42q.1-.25.1-.59 0-.23-.08-.41a.9.9 0 0 0-.23-.31 1 1 0 0 0-.36-.21 1.3 1.3 0 0 0-.44-.07q-.38 0-.67.11-.28.11-.51.35-.1.13-.13.2a.4.4 0 0 0-.01.15l-.04.06-.08-.06-.46-.38q.22-.33.47-.56.26-.23.61-.35.36-.13.85-.13.53 0 .93.19t.62.54.22.83q0 .4-.11.69-.1.28-.26.49-.16.2-.34.37t-.34.35a1.6 1.6 0 0 0-.27.39q-.1.22-.1.54v.41h-.66zm.35 2.37a.56.56 0 0 1-.41-.17.55.55 0 0 1-.17-.4q0-.23.17-.4a.56.56 0 0 1 .41-.17q.23 0 .4.17t.17.4a.55.55 0 0 1-.17.4.55.55 0 0 1-.4.17M507 69v-.58h1.17v-3.41h-1.11v-.58h1.83v3.99h1.07V69zm1.49-5.53q-.21 0-.36-.15t-.15-.36q0-.22.14-.37.15-.15.37-.15.21 0 .36.16.16.15.16.36t-.16.36q-.15.15-.36.15m3.23 5.53v-4.57h.7v.81q.18-.28.42-.48.24-.21.53-.32.29-.12.6-.12.38 0 .68.19t.48.61.18 1.11V69h-.7v-2.75q0-.48-.11-.76-.11-.29-.3-.41a.74.74 0 0 0-.43-.13q-.23 0-.47.1a1.5 1.5 0 0 0-.43.29q-.2.18-.33.44-.12.26-.12.59V69zm7.13.11q-.5 0-.92-.18a2.2 2.2 0 0 1-.73-.5 2.3 2.3 0 0 1-.47-.75 2.7 2.7 0 0 1-.17-.96q0-.51.17-.94.17-.44.47-.76.31-.32.73-.5t.91-.18q.56 0 1 .23.45.22.73.62l-.45.44-.07.07-.05-.05a.3.3 0 0 0-.04-.15.7.7 0 0 0-.15-.19 1.3 1.3 0 0 0-.47-.28 1.9 1.9 0 0 0-.58-.08q-.29 0-.55.12t-.47.35q-.2.22-.32.54t-.12.71.12.72q.12.32.33.56t.5.38q.3.13.64.13.23 0 .44-.06.21-.07.4-.19.19-.13.35-.31l.42.49q-.34.36-.76.54-.41.18-.89.18m2.94-.11v-.58h1.35v-5.49h-1.29v-.58h2.02v6.07h1.34V69zm6.42.11q-.27 0-.51-.08a1.4 1.4 0 0 1-.44-.24 1.6 1.6 0 0 1-.33-.42 2.3 2.3 0 0 1-.22-.6 4 4 0 0 1-.07-.79l.01-2.55h.7v2.55q0 .43.08.73t.22.48q.15.18.34.26t.4.08q.24 0 .46-.09.22-.1.39-.29.18-.19.28-.49t.1-.71v-2.52h.7v3.86q0 .18.01.36.02.17.09.35h-.69a1 1 0 0 1-.07-.23 3 3 0 0 1-.03-.24v-.23a1.63 1.63 0 0 1-.6.6q-.18.1-.39.15a1.5 1.5 0 0 1-.43.06m5.13-.01q-.35 0-.69-.15a1.9 1.9 0 0 1-.61-.45q-.27-.3-.43-.76a3.3 3.3 0 0 1-.16-1.07q0-.63.17-1.07.17-.45.45-.73.28-.29.62-.42a1.8 1.8 0 0 1 .69-.14q.32 0 .57.1.26.1.45.28.2.17.31.41v-2.75h.76v.07a.3.3 0 0 0-.08.13q-.01.07-.01.24l.01 5.5q0 .18.01.36.02.17.09.35h-.71a1 1 0 0 1-.07-.24 4 4 0 0 1-.03-.23v-.24q-.14.24-.34.43-.2.18-.45.28t-.55.1m.11-.63q.33 0 .56-.13.23-.14.37-.38.14-.25.2-.57.07-.33.07-.7 0-.51-.13-.91a1.3 1.3 0 0 0-.41-.64q-.28-.24-.72-.24-.3 0-.54.12a1 1 0 0 0-.39.33 1.7 1.7 0 0 0-.23.53q-.08.3-.08.68 0 .57.15 1t.44.67.71.24m5.27.63q-.5 0-.91-.15a2 2 0 0 1-.71-.46 2.1 2.1 0 0 1-.45-.74q-.16-.45-.16-1.02 0-.58.16-1.03.17-.45.45-.75.29-.31.67-.47.39-.16.82-.16.39 0 .73.13t.59.4q.25.26.39.67a2.8 2.8 0 0 1 .14 1.14q0 .08-.01.16h-3.25q.02.44.15.77.13.32.34.53.21.2.48.3.28.1.59.1.24 0 .45-.05.21-.06.39-.17.19-.12.34-.29l.4.39a1.9 1.9 0 0 1-.44.39q-.24.16-.53.23a2.4 2.4 0 0 1-.63.08m-1.51-2.84h2.51q0-.32-.09-.57a1.2 1.2 0 0 0-.24-.44.9.9 0 0 0-.37-.28q-.21-.1-.48-.1-.24 0-.46.08-.21.08-.39.26-.18.17-.31.43-.12.26-.17.62m4.14 3.54v-.61h4.31v.61zm7.37-.7q-.5 0-.91-.15a2 2 0 0 1-.71-.46 2.1 2.1 0 0 1-.45-.74q-.16-.45-.16-1.02 0-.58.16-1.03.17-.45.45-.75.29-.31.67-.47.39-.16.82-.16.39 0 .73.13t.59.4q.25.26.39.67a2.8 2.8 0 0 1 .14 1.14q0 .08-.01.16h-3.25q.02.44.15.77.13.32.34.53.21.2.48.3.28.1.59.1.24 0 .45-.05.21-.06.39-.17.19-.12.34-.29l.4.39a1.9 1.9 0 0 1-.44.39q-.24.16-.53.23a2.4 2.4 0 0 1-.63.08m-1.51-2.84h2.51q0-.32-.09-.57a1.2 1.2 0 0 0-.24-.44.9.9 0 0 0-.37-.28q-.21-.1-.48-.1-.24 0-.46.08-.21.08-.39.26-.18.17-.31.43-.12.26-.17.62m4.26 2.74 1.61-2.32-1.58-2.25h.79l1.19 1.69 1.14-1.69h.74l-1.48 2.22 1.68 2.35h-.82l-1.26-1.78-1.19 1.78zm5.13 1.67v-6.24h.73v.9q.11-.35.31-.57.21-.22.48-.32a1.766 1.766 0 0 1 1.32.04q.35.14.61.43.27.29.42.73.16.44.16 1.04t-.17 1.06a2.2 2.2 0 0 1-.44.77q-.27.3-.62.46-.34.15-.7.15-.27 0-.53-.09a1.5 1.5 0 0 1-.46-.24 2 2 0 0 1-.37-.39v2.27zm1.98-2.19q.24 0 .47-.08a1.2 1.2 0 0 0 .42-.29q.19-.2.3-.54.11-.35.11-.86 0-.55-.14-.93-.14-.39-.41-.6a1.08 1.08 0 0 0-.64-.23 1.2 1.2 0 0 0-.53.08q-.24.1-.43.33a1.7 1.7 0 0 0-.3.61 3.5 3.5 0 0 0-.1.9q.01.32.07.58t.17.46q.11.19.26.32.15.12.34.19.19.06.41.06m4.92.6q-.62 0-1.1-.3a2.16 2.16 0 0 1-.74-.84q-.27-.54-.27-1.23 0-.7.27-1.23.27-.54.74-.84.48-.31 1.1-.31t1.09.31q.48.3.75.84.27.53.27 1.23 0 .69-.27 1.23a2.13 2.13 0 0 1-.75.84q-.47.3-1.09.3m0-.6q.4 0 .7-.23t.47-.63q.18-.4.18-.92t-.18-.92a1.45 1.45 0 0 0-.47-.62q-.3-.23-.7-.23-.39 0-.7.23-.3.22-.48.62a2.3 2.3 0 0 0-.17.92q0 .52.17.92.18.4.48.63.31.23.7.23m3.69-4.05h.75l-.03 1.33-.09-.15q.06-.31.21-.55t.36-.4q.21-.17.46-.25.25-.09.52-.09.36 0 .66.13.31.12.55.37l-.32.56-.04.09-.07-.04a.6.6 0 0 0-.06-.15.7.7 0 0 0-.17-.17 1 1 0 0 0-.3-.13 1 1 0 0 0-.3-.04q-.25 0-.5.1-.25.09-.46.29-.2.2-.32.51a2 2 0 0 0-.12.74v2.43h-.73zm6.8 4.64q-.44 0-.72-.15a1 1 0 0 1-.43-.46q-.15-.32-.2-.8-.04-.48-.02-1.14l.12-3.26.75-.09.1-.01.01.07a2 2 0 0 0-.09.14 1 1 0 0 0-.05.24l-.09 1.13.03.18-.07 1.65q-.03.76.04 1.18.07.41.25.57.18.15.48.15.33 0 .58-.13a4 4 0 0 0 .54-.33l.22.57a2.356 2.356 0 0 1-1.45.49m-2.29-4.64h3.29v.59h-3.29zm6.81 4.67q-.38 0-.73-.08a2.8 2.8 0 0 1-.65-.24q-.3-.16-.56-.4l.4-.68.06-.09.06.04q.02.08.04.17.03.08.14.2.21.21.5.35.3.13.76.13.37 0 .62-.09a.9.9 0 0 0 .4-.25.6.6 0 0 0 .14-.39q0-.15-.06-.26a.6.6 0 0 0-.2-.22 1.8 1.8 0 0 0-.35-.2 5 5 0 0 0-.54-.2q-.52-.15-.91-.35a1.8 1.8 0 0 1-.6-.46.97.97 0 0 1-.21-.61.96.96 0 0 1 .19-.6q.19-.26.56-.4.38-.15.93-.15.32 0 .58.05.26.04.48.13t.4.23q.19.13.36.31l-.41.5-.07.08-.05-.05a.4.4 0 0 0-.05-.15.6.6 0 0 0-.14-.19 1.6 1.6 0 0 0-.52-.27 1.7 1.7 0 0 0-1.25.04q-.29.14-.29.43 0 .15.1.3.11.14.39.29.28.14.8.29.57.18.91.37.35.18.5.42.16.24.16.57 0 .38-.21.71-.2.33-.62.53-.42.19-1.06.19m2.94-3.99v-.61h4.11v.61zm0 2.07v-.61h4.11v.61zm6.49 3.56q-.43 0-.82-.16a1.6 1.6 0 0 1-.64-.48l.4-.54.06-.08.06.04q.02.08.05.15.03.08.14.2.14.11.32.18.19.07.42.07.3 0 .53-.14a.86.86 0 0 0 .37-.42q.13-.28.13-.74v-3.8h-1.7v-.59h2.43v4.35q0 .69-.24 1.12a1.5 1.5 0 0 1-.64.64q-.39.2-.87.2m1.33-7.27q-.21 0-.36-.15t-.15-.36q0-.22.14-.37.15-.15.37-.15.21 0 .36.16.16.15.16.36t-.16.36q-.15.15-.36.15m4.24 5.63q-.38 0-.73-.08a2.8 2.8 0 0 1-.65-.24q-.3-.16-.56-.4l.4-.68.06-.09.06.04q.02.08.04.17.03.08.14.2.21.21.5.35.3.13.76.13.37 0 .62-.09a.9.9 0 0 0 .4-.25.6.6 0 0 0 .14-.39q0-.15-.06-.26a.6.6 0 0 0-.2-.22 1.8 1.8 0 0 0-.35-.2 5 5 0 0 0-.54-.2q-.52-.15-.91-.35a1.8 1.8 0 0 1-.6-.46.97.97 0 0 1-.21-.61.96.96 0 0 1 .19-.6q.19-.26.56-.4.38-.15.93-.15.32 0 .58.05.26.04.48.13t.4.23q.19.13.36.31l-.41.5-.07.08-.05-.05a.4.4 0 0 0-.05-.15.6.6 0 0 0-.14-.19 1.6 1.6 0 0 0-.52-.27 1.7 1.7 0 0 0-1.25.04q-.29.14-.29.43 0 .15.1.3.11.14.39.29.28.14.8.29.57.18.91.37.35.18.5.42.16.24.16.57 0 .38-.21.71-.2.33-.62.53-.42.19-1.06.19m4.99-.02q-.62 0-1.1-.3a2.16 2.16 0 0 1-.74-.84q-.27-.54-.27-1.23 0-.7.27-1.23.27-.54.74-.84.48-.31 1.1-.31t1.09.31q.48.3.75.84.27.53.27 1.23 0 .69-.27 1.23a2.13 2.13 0 0 1-.75.84q-.47.3-1.09.3m0-.6q.4 0 .7-.23t.47-.63q.18-.4.18-.92t-.18-.92a1.45 1.45 0 0 0-.47-.62q-.3-.23-.7-.23-.39 0-.7.23-.3.22-.48.62a2.3 2.3 0 0 0-.17.92q0 .52.17.92.18.4.48.63.31.23.7.23m3.22.52v-4.57h.7v.81q.18-.28.42-.48.24-.21.53-.32.29-.12.6-.12.38 0 .68.19t.48.61.18 1.11V69h-.7v-2.75q0-.48-.11-.76-.11-.29-.3-.41a.74.74 0 0 0-.43-.13q-.23 0-.47.1a1.5 1.5 0 0 0-.43.29q-.2.18-.33.44-.12.26-.12.59V69zm4.74 0 3.45-6.23h.57L607 69zm3.25.1q-.3 0-.56-.17a1.3 1.3 0 0 1-.41-.46q-.15-.3-.15-.66 0-.37.15-.66.16-.29.41-.46a.96.96 0 0 1 1.12 0q.25.17.4.47.15.29.15.65t-.15.66q-.15.29-.41.46a.96.96 0 0 1-.55.17m.01-.5a.4.4 0 0 0 .25-.08.6.6 0 0 0 .19-.26q.07-.18.07-.44 0-.23-.07-.41a.6.6 0 0 0-.18-.28.38.38 0 0 0-.28-.11.44.44 0 0 0-.25.08.6.6 0 0 0-.2.25q-.07.17-.07.45t.08.46.2.26q.13.08.26.08m-2.32-3.33q-.3 0-.56-.17a1.3 1.3 0 0 1-.41-.47q-.15-.3-.15-.67t.15-.66q.16-.29.41-.46a.96.96 0 0 1 1.12 0q.25.17.4.47.16.29.16.66 0 .38-.15.68a1.1 1.1 0 0 1-.4.46q-.25.16-.57.16m0-.53a.44.44 0 0 0 .24-.07.57.57 0 0 0 .18-.25q.07-.18.07-.46 0-.21-.05-.36a.7.7 0 0 0-.11-.24.44.44 0 0 0-.35-.18.4.4 0 0 0-.23.08.55.55 0 0 0-.19.24q-.07.17-.07.46 0 .28.07.45a.64.64 0 0 0 .19.25q.12.08.25.08m4.33 3.7q.54-.55.99-1t.8-.83q.36-.39.61-.73.25-.35.38-.68.13-.34.13-.71 0-.32-.08-.54a.8.8 0 0 0-.23-.35.8.8 0 0 0-.34-.2 1.508 1.508 0 0 0-1.29.22 1.5 1.5 0 0 0-.37.35.8.8 0 0 0-.11.22.4.4 0 0 0-.01.15l-.04.05-.08-.05-.51-.4q.2-.39.5-.66t.68-.41.81-.14a1.9 1.9 0 0 1 .93.22q.4.21.63.61t.23.95q0 .41-.15.8-.15.38-.41.75a7 7 0 0 1-.61.74q-.35.37-.75.77-.39.39-.81.82h2.32a1 1 0 0 0 .24-.02.3.3 0 0 0 .13-.08h.07V69h-3.66zm7.12.66q-.51 0-.95-.18a2.2 2.2 0 0 1-.78-.58q-.33-.39-.52-.99t-.19-1.43q0-.73.14-1.27.14-.55.38-.92a2.13 2.13 0 0 1 1.2-.91q.34-.1.68-.1.68 0 1.16.34.48.33.72.89l-.6.28-.09.04-.03-.07q.03-.08 0-.14a2 2 0 0 0-.11-.21q-.25-.34-.52-.45a1.422 1.422 0 0 0-1.26.06 1.56 1.56 0 0 0-.54.51q-.22.33-.34.81a5 5 0 0 0-.11 1.09q0 .59.13 1.07.14.48.37.83.24.35.55.54a1.31 1.31 0 0 0 1.16.1q.24-.09.44-.26.2-.18.34-.41l.52.34a2.2 2.2 0 0 1-.72.76q-.42.26-1.03.26m5 .01q-.5 0-.92-.18a2.2 2.2 0 0 1-.73-.5 2.3 2.3 0 0 1-.47-.75 2.7 2.7 0 0 1-.17-.96q0-.51.17-.94.17-.44.47-.76.31-.32.73-.5t.91-.18q.56 0 1 .23.45.22.73.62l-.45.44-.07.07-.05-.05a.3.3 0 0 0-.04-.15.7.7 0 0 0-.15-.19 1.3 1.3 0 0 0-.47-.28 1.9 1.9 0 0 0-.58-.08q-.29 0-.55.12t-.47.35q-.2.22-.32.54t-.12.71.12.72q.12.32.33.56t.5.38q.3.13.64.13.23 0 .44-.06.21-.07.4-.19.19-.13.35-.31l.42.49q-.34.36-.76.54-.41.18-.89.18m4.66-.01q-.38 0-.73-.08a2.8 2.8 0 0 1-.65-.24q-.3-.16-.56-.4l.4-.68.06-.09.06.04q.02.08.04.17.03.08.14.2.21.21.5.35.3.13.76.13.37 0 .62-.09a.9.9 0 0 0 .4-.25.6.6 0 0 0 .14-.39q0-.15-.06-.26a.6.6 0 0 0-.2-.22 1.8 1.8 0 0 0-.35-.2 5 5 0 0 0-.54-.2q-.52-.15-.91-.35a1.8 1.8 0 0 1-.6-.46.97.97 0 0 1-.21-.61.96.96 0 0 1 .19-.6q.19-.26.56-.4.38-.15.93-.15.32 0 .58.05.26.04.48.13t.4.23q.19.13.36.31l-.41.5-.07.08-.05-.05a.4.4 0 0 0-.05-.15.6.6 0 0 0-.14-.19 1.6 1.6 0 0 0-.52-.27 1.7 1.7 0 0 0-1.25.04q-.29.14-.29.43 0 .15.1.3.11.14.39.29.28.14.8.29.57.18.91.37.35.18.5.42.16.24.16.57 0 .38-.21.71-.2.33-.62.53-.42.19-1.06.19m4.7-.1-1.81-4.57h.72l1.48 3.75h-.14l.81-1.86q.24-.55.38-1.02.15-.47.22-.87h.68q-.08.42-.25.92t-.42 1.08L633.77 69zm3.25 0 3.45-6.23h.57L637 69zm3.25.1q-.3 0-.56-.17a1.3 1.3 0 0 1-.41-.46q-.15-.3-.15-.66 0-.37.15-.66.16-.29.41-.46a.96.96 0 0 1 1.12 0q.25.17.4.47.15.29.15.65t-.15.66q-.15.29-.41.46a.96.96 0 0 1-.55.17m.01-.5a.4.4 0 0 0 .25-.08.6.6 0 0 0 .19-.26q.07-.18.07-.44 0-.23-.07-.41a.6.6 0 0 0-.18-.28.38.38 0 0 0-.28-.11.44.44 0 0 0-.25.08.6.6 0 0 0-.2.25q-.07.17-.07.45t.08.46.2.26q.13.08.26.08m-2.32-3.33q-.3 0-.56-.17a1.3 1.3 0 0 1-.41-.47q-.15-.3-.15-.67t.15-.66q.16-.29.41-.46a.96.96 0 0 1 1.12 0q.25.17.4.47.16.29.16.66 0 .38-.15.68a1.1 1.1 0 0 1-.4.46q-.25.16-.57.16m0-.53a.44.44 0 0 0 .24-.07.57.57 0 0 0 .18-.25q.07-.18.07-.46 0-.21-.05-.36a.7.7 0 0 0-.11-.24.44.44 0 0 0-.35-.18.4.4 0 0 0-.23.08.55.55 0 0 0-.19.24q-.07.17-.07.46 0 .28.07.45a.64.64 0 0 0 .19.25q.12.08.25.08m4.33 3.7q.54-.55.99-1t.8-.83q.36-.39.61-.73.25-.35.38-.68.13-.34.13-.71 0-.32-.08-.54a.8.8 0 0 0-.23-.35.8.8 0 0 0-.34-.2 1.508 1.508 0 0 0-1.29.22 1.5 1.5 0 0 0-.37.35.8.8 0 0 0-.11.22.4.4 0 0 0-.01.15l-.04.05-.08-.05-.51-.4q.2-.39.5-.66t.68-.41.81-.14a1.9 1.9 0 0 1 .93.22q.4.21.63.61t.23.95q0 .41-.15.8-.15.38-.41.75a7 7 0 0 1-.61.74q-.35.37-.75.77-.39.39-.81.82h2.32a1 1 0 0 0 .24-.02.3.3 0 0 0 .13-.08h.07V69h-3.66zm7.12.66q-.51 0-.95-.18a2.2 2.2 0 0 1-.78-.58q-.33-.39-.52-.99t-.19-1.43q0-.73.14-1.27.14-.55.38-.92a2.13 2.13 0 0 1 1.2-.91q.34-.1.68-.1.68 0 1.16.34.48.33.72.89l-.6.28-.09.04-.03-.07q.03-.08 0-.14a2 2 0 0 0-.11-.21q-.25-.34-.52-.45a1.422 1.422 0 0 0-1.26.06 1.56 1.56 0 0 0-.54.51q-.22.33-.34.81a5 5 0 0 0-.11 1.09q0 .59.13 1.07.14.48.37.83.24.35.55.54a1.31 1.31 0 0 0 1.16.1q.24-.09.44-.26.2-.18.34-.41l.52.34a2.2 2.2 0 0 1-.72.76q-.42.26-1.03.26m4.66 0q-.38 0-.73-.08a2.8 2.8 0 0 1-.65-.24q-.3-.16-.56-.4l.4-.68.06-.09.06.04q.02.08.04.17.03.08.14.2.21.21.5.35.3.13.76.13.37 0 .62-.09a.9.9 0 0 0 .4-.25.6.6 0 0 0 .14-.39q0-.15-.06-.26a.6.6 0 0 0-.2-.22 1.8 1.8 0 0 0-.35-.2 5 5 0 0 0-.54-.2q-.52-.15-.91-.35a1.8 1.8 0 0 1-.6-.46.97.97 0 0 1-.21-.61.96.96 0 0 1 .19-.6q.19-.26.56-.4.38-.15.93-.15.32 0 .58.05.26.04.48.13t.4.23q.19.13.36.31l-.41.5-.07.08-.05-.05a.4.4 0 0 0-.05-.15.6.6 0 0 0-.14-.19 1.6 1.6 0 0 0-.52-.27 1.7 1.7 0 0 0-1.25.04q-.29.14-.29.43 0 .15.1.3.11.14.39.29.28.14.8.29.57.18.91.37.35.18.5.42.16.24.16.57 0 .38-.21.71-.2.33-.62.53-.42.19-1.06.19m3.22-6.75h.79v.07a.3.3 0 0 0-.08.13q-.01.07-.01.24v2.45a2.1 2.1 0 0 1 .94-.8q.28-.12.56-.12.41 0 .72.19.32.19.49.61.18.42.18 1.11V69h-.7v-2.75q0-.48-.11-.76-.11-.29-.3-.41a.74.74 0 0 0-.43-.13q-.18 0-.37.06t-.37.18q-.17.12-.31.3a1.3 1.3 0 0 0-.22.39q-.08.22-.08.49V69h-.7zm4.87 8.32v-6.24h.73v.9q.11-.35.31-.57.21-.22.48-.32a1.766 1.766 0 0 1 1.32.04q.35.14.61.43.27.29.42.73.16.44.16 1.04t-.17 1.06a2.2 2.2 0 0 1-.44.77q-.27.3-.62.46-.34.15-.7.15-.27 0-.53-.09a1.5 1.5 0 0 1-.46-.24 2 2 0 0 1-.37-.39v2.27zm1.98-2.19q.24 0 .47-.08a1.2 1.2 0 0 0 .42-.29q.19-.2.3-.54.11-.35.11-.86 0-.55-.14-.93-.14-.39-.41-.6a1.08 1.08 0 0 0-.64-.23 1.2 1.2 0 0 0-.53.08q-.24.1-.43.33a1.7 1.7 0 0 0-.3.61 3.5 3.5 0 0 0-.1.9q.01.32.07.58t.17.46q.11.19.26.32.15.12.34.19.19.06.41.06m2.88.52 3.45-6.23h.57L667 69zm3.25.1q-.3 0-.56-.17a1.3 1.3 0 0 1-.41-.46q-.15-.3-.15-.66 0-.37.15-.66.16-.29.41-.46a.96.96 0 0 1 1.12 0q.25.17.4.47.15.29.15.65t-.15.66q-.15.29-.41.46a.96.96 0 0 1-.55.17m.01-.5a.4.4 0 0 0 .25-.08.6.6 0 0 0 .19-.26q.07-.18.07-.44 0-.23-.07-.41a.6.6 0 0 0-.18-.28.38.38 0 0 0-.28-.11.44.44 0 0 0-.25.08.6.6 0 0 0-.2.25q-.07.17-.07.45t.08.46.2.26q.13.08.26.08m-2.32-3.33q-.3 0-.56-.17a1.3 1.3 0 0 1-.41-.47q-.15-.3-.15-.67t.15-.66q.16-.29.41-.46a.96.96 0 0 1 1.12 0q.25.17.4.47.16.29.16.66 0 .38-.15.68a1.1 1.1 0 0 1-.4.46q-.25.16-.57.16m0-.53a.44.44 0 0 0 .24-.07.57.57 0 0 0 .18-.25q.07-.18.07-.46 0-.21-.05-.36a.7.7 0 0 0-.11-.24.44.44 0 0 0-.35-.18.4.4 0 0 0-.23.08.55.55 0 0 0-.19.24q-.07.17-.07.46 0 .28.07.45a.64.64 0 0 0 .19.25q.12.08.25.08m4.33 3.7q.54-.55.99-1t.8-.83q.36-.39.61-.73.25-.35.38-.68.13-.34.13-.71 0-.32-.08-.54a.8.8 0 0 0-.23-.35.8.8 0 0 0-.34-.2 1.508 1.508 0 0 0-1.29.22 1.5 1.5 0 0 0-.37.35.8.8 0 0 0-.11.22.4.4 0 0 0-.01.15l-.04.05-.08-.05-.51-.4q.2-.39.5-.66t.68-.41.81-.14a1.9 1.9 0 0 1 .93.22q.4.21.63.61t.23.95q0 .41-.15.8-.15.38-.41.75a7 7 0 0 1-.61.74q-.35.37-.75.77-.39.39-.81.82h2.32a1 1 0 0 0 .24-.02.3.3 0 0 0 .13-.08h.07V69h-3.66zm7.12.66q-.51 0-.95-.18a2.2 2.2 0 0 1-.78-.58q-.33-.39-.52-.99t-.19-1.43q0-.73.14-1.27.14-.55.38-.92a2.13 2.13 0 0 1 1.2-.91q.34-.1.68-.1.68 0 1.16.34.48.33.72.89l-.6.28-.09.04-.03-.07q.03-.08 0-.14a2 2 0 0 0-.11-.21q-.25-.34-.52-.45a1.422 1.422 0 0 0-1.26.06 1.56 1.56 0 0 0-.54.51q-.22.33-.34.81a5 5 0 0 0-.11 1.09q0 .59.13 1.07.14.48.37.83.24.35.55.54a1.31 1.31 0 0 0 1.16.1q.24-.09.44-.26.2-.18.34-.41l.52.34a2.2 2.2 0 0 1-.72.76q-.42.26-1.03.26m4.62 1.62q-.48 0-.87-.08a2.3 2.3 0 0 1-.66-.22 1.1 1.1 0 0 1-.42-.36.95.95 0 0 1-.14-.52q0-.28.12-.5a1.1 1.1 0 0 1 .31-.36q.2-.15.43-.22l.3.18q-.18.11-.29.22a.7.7 0 0 0-.16.25q-.05.15-.05.35 0 .17.1.3.1.14.28.23.19.09.45.14.27.05.61.05.46 0 .74-.1.29-.09.43-.26a.55.55 0 0 0 .14-.37.7.7 0 0 0-.08-.36q-.08-.14-.33-.21t-.76-.07q-.35 0-.64-.03a3 3 0 0 1-.52-.1 1.6 1.6 0 0 1-.39-.17.8.8 0 0 1-.23-.26.74.74 0 0 1-.08-.35q0-.26.14-.5.15-.24.4-.46l.34.27q-.1.11-.16.2a.7.7 0 0 0-.09.16.6.6 0 0 0-.02.16q0 .16.12.26.13.1.44.15.31.04.84.04t.86.09q.33.08.5.24.18.16.25.37t.07.46q0 .27-.11.51a1.1 1.1 0 0 1-.33.44 1.6 1.6 0 0 1-.61.31q-.38.12-.93.12m-.21-3.27q-.49 0-.85-.21a1.56 1.56 0 0 1-.56-.58 1.74 1.74 0 0 1-.19-.81q0-.44.19-.8.2-.36.56-.57.36-.22.85-.22.5 0 .85.22.36.21.55.57.2.36.2.8t-.2.81q-.19.36-.55.58-.35.21-.85.21m0-.6a1 1 0 0 0 .51-.13 1.01 1.01 0 0 0 .49-.87.96.96 0 0 0-.13-.5.94.94 0 0 0-.36-.36.93.93 0 0 0-.51-.14.98.98 0 0 0-.87.5.96.96 0 0 0-.13.5q0 .27.13.5t.35.37q.23.13.52.13m1.33-1.68-.28-.33q.29-.29.6-.42.32-.14.75-.11l.09.59a2.4 2.4 0 0 0-.62.02 1.2 1.2 0 0 0-.54.25m4.13 3.93q-.5 0-.91-.15a2 2 0 0 1-.71-.46 2.1 2.1 0 0 1-.45-.74q-.16-.45-.16-1.02 0-.58.16-1.03.17-.45.45-.75.29-.31.67-.47.39-.16.82-.16.39 0 .73.13t.59.4q.25.26.39.67a2.8 2.8 0 0 1 .14 1.14q0 .08-.01.16h-3.25q.02.44.15.77.13.32.34.53.21.2.48.3.28.1.59.1.24 0 .45-.05.21-.06.39-.17.19-.12.34-.29l.4.39a1.9 1.9 0 0 1-.44.39q-.24.16-.53.23a2.4 2.4 0 0 1-.63.08m-1.51-2.84h2.51q0-.32-.09-.57a1.2 1.2 0 0 0-.24-.44.9.9 0 0 0-.37-.28q-.21-.1-.48-.1-.24 0-.46.08-.21.08-.39.26-.18.17-.31.43-.12.26-.17.62m6.29 2.82q-.62 0-1.1-.3a2.16 2.16 0 0 1-.74-.84q-.27-.54-.27-1.23 0-.7.27-1.23.27-.54.74-.84.48-.31 1.1-.31t1.09.31q.48.3.75.84.27.53.27 1.23 0 .69-.27 1.23a2.13 2.13 0 0 1-.75.84q-.47.3-1.09.3m0-.6q.4 0 .7-.23t.47-.63q.18-.4.18-.92t-.18-.92a1.45 1.45 0 0 0-.47-.62q-.3-.23-.7-.23-.39 0-.7.23-.3.22-.48.62a2.3 2.3 0 0 0-.17.92q0 .52.17.92.18.4.48.63.31.23.7.23m4.44 2.26q-.43 0-.82-.16a1.6 1.6 0 0 1-.64-.48l.4-.54.06-.08.06.04q.02.08.05.15.03.08.14.2.14.11.32.18.19.07.42.07.3 0 .53-.14a.86.86 0 0 0 .37-.42q.13-.28.13-.74v-3.8h-1.7v-.59h2.43v4.35q0 .69-.24 1.12a1.5 1.5 0 0 1-.64.64q-.39.2-.87.2m1.33-7.27q-.21 0-.36-.15t-.15-.36q0-.22.14-.37.15-.15.37-.15.21 0 .36.16.16.15.16.36t-.16.36q-.15.15-.36.15m4.24 5.63q-.38 0-.73-.08a2.8 2.8 0 0 1-.65-.24q-.3-.16-.56-.4l.4-.68.06-.09.06.04q.02.08.04.17.03.08.14.2.21.21.5.35.3.13.76.13.37 0 .62-.09a.9.9 0 0 0 .4-.25.6.6 0 0 0 .14-.39q0-.15-.06-.26a.6.6 0 0 0-.2-.22 1.8 1.8 0 0 0-.35-.2 5 5 0 0 0-.54-.2q-.52-.15-.91-.35a1.8 1.8 0 0 1-.6-.46.97.97 0 0 1-.21-.61.96.96 0 0 1 .19-.6q.19-.26.56-.4.38-.15.93-.15.32 0 .58.05.26.04.48.13t.4.23q.19.13.36.31l-.41.5-.07.08-.05-.05a.4.4 0 0 0-.05-.15.6.6 0 0 0-.14-.19 1.6 1.6 0 0 0-.52-.27 1.7 1.7 0 0 0-1.25.04q-.29.14-.29.43 0 .15.1.3.11.14.39.29.28.14.8.29.57.18.91.37.35.18.5.42.16.24.16.57 0 .38-.21.71-.2.33-.62.53-.42.19-1.06.19m4.99-.02q-.62 0-1.1-.3a2.16 2.16 0 0 1-.74-.84q-.27-.54-.27-1.23 0-.7.27-1.23.27-.54.74-.84.48-.31 1.1-.31t1.09.31q.48.3.75.84.27.53.27 1.23 0 .69-.27 1.23a2.13 2.13 0 0 1-.75.84q-.47.3-1.09.3m0-.6q.4 0 .7-.23t.47-.63q.18-.4.18-.92t-.18-.92a1.45 1.45 0 0 0-.47-.62q-.3-.23-.7-.23-.39 0-.7.23-.3.22-.48.62a2.3 2.3 0 0 0-.17.92q0 .52.17.92.18.4.48.63.31.23.7.23m3.22.52v-4.57h.7v.81q.18-.28.42-.48.24-.21.53-.32.29-.12.6-.12.38 0 .68.19t.48.61.18 1.11V69h-.7v-2.75q0-.48-.11-.76-.11-.29-.3-.41a.74.74 0 0 0-.43-.13q-.23 0-.47.1a1.5 1.5 0 0 0-.43.29q-.2.18-.33.44-.12.26-.12.59V69zm8.44.12-.55-.88q-.2.26-.47.46-.27.19-.58.3-.31.1-.64.1-.45 0-.81-.2a1.55 1.55 0 0 1-.55-.55 1.5 1.5 0 0 1-.2-.76q0-.32.09-.61t.25-.55q.17-.26.4-.48.24-.22.52-.38a4 4 0 0 1-.53-.82 1.75 1.75 0 0 1-.18-.73q0-.28.1-.52.11-.24.3-.41.19-.18.44-.28t.53-.1q.41 0 .71.19t.47.49q.17.29.17.63 0 .24-.08.5-.08.25-.23.48a2.2 2.2 0 0 1-.34.41 1.6 1.6 0 0 1-.43.29l1.12 1.57a2.1 2.1 0 0 0 .34-.52q.05-.12.07-.24.03-.12.04-.25 0-.03.01-.05a.13.13 0 0 1 .03-.05l.65.45a11.794 11.794 0 0 1-.76 1.16l.7.91zm-2.17-.66q.24 0 .45-.08.22-.09.42-.24.2-.16.38-.37l-1.27-1.73q-.2.12-.36.29-.15.17-.26.36a2 2 0 0 0-.17.39q-.06.2-.06.4 0 .21.07.39.07.17.19.31.12.13.27.21a.8.8 0 0 0 .34.07m.22-3.19a1.35 1.35 0 0 0 .56-.51q.1-.17.15-.34.05-.18.05-.34 0-.33-.21-.55a.6.6 0 0 0-.47-.23.68.68 0 0 0-.6.35.76.76 0 0 0-.09.38q0 .16.06.35.07.19.21.41t.34.48m3.58 3.73v-.58h1.35v-5.49h-1.29v-.58h2.02v6.07h1.34V69zm6.32.11q-.78 0-1.2-.35-.42-.36-.42-.91 0-.37.18-.66.18-.3.49-.5.32-.21.74-.32t.89-.11q.17 0 .34.01.18 0 .37.02.2.01.41.04l.02.55a3 3 0 0 0-.37-.04 7 7 0 0 0-.71-.04q-.36 0-.66.06t-.52.18a.9.9 0 0 0-.34.31.84.84 0 0 0-.12.46q0 .21.07.36.08.14.21.23.13.08.3.12.18.04.39.04.39 0 .69-.12.31-.13.52-.37.22-.24.33-.59t.11-.8q0-.68-.16-1.06a1.02 1.02 0 0 0-.48-.54q-.31-.16-.8-.16-.33 0-.65.13-.32.12-.58.38l-.35-.46q.32-.32.74-.48t.89-.16q.45 0 .82.11t.63.37q.27.25.41.68.15.43.15 1.08V69h-.78v-.7a1.3 1.3 0 0 1-.32.41q-.18.16-.39.25-.21.08-.43.11-.22.04-.42.04m3.61-.11v-4.57h.7v.81q.18-.28.42-.48.24-.21.53-.32.29-.12.6-.12.38 0 .68.19t.48.61.18 1.11V69h-.7v-2.75q0-.48-.11-.76-.11-.29-.3-.41a.74.74 0 0 0-.43-.13q-.23 0-.47.1a1.5 1.5 0 0 0-.43.29q-.2.18-.33.44-.12.26-.12.59V69zm6.75 1.72q-.48 0-.87-.08a2.3 2.3 0 0 1-.66-.22 1.1 1.1 0 0 1-.42-.36.95.95 0 0 1-.14-.52q0-.28.12-.5a1.1 1.1 0 0 1 .31-.36q.2-.15.43-.22l.3.18q-.18.11-.29.22a.7.7 0 0 0-.16.25q-.05.15-.05.35 0 .17.1.3.1.14.28.23.19.09.45.14.27.05.61.05.46 0 .74-.1.29-.09.43-.26a.55.55 0 0 0 .14-.37.7.7 0 0 0-.08-.36q-.08-.14-.33-.21t-.76-.07q-.35 0-.64-.03a3 3 0 0 1-.52-.1 1.6 1.6 0 0 1-.39-.17.8.8 0 0 1-.23-.26.74.74 0 0 1-.08-.35q0-.26.14-.5.15-.24.4-.46l.34.27q-.1.11-.16.2a.7.7 0 0 0-.09.16.6.6 0 0 0-.02.16q0 .16.12.26.13.1.44.15.31.04.84.04t.86.09q.33.08.5.24.18.16.25.37t.07.46q0 .27-.11.51a1.1 1.1 0 0 1-.33.44 1.6 1.6 0 0 1-.61.31q-.38.12-.93.12m-.21-3.27q-.49 0-.85-.21a1.56 1.56 0 0 1-.56-.58 1.74 1.74 0 0 1-.19-.81q0-.44.19-.8.2-.36.56-.57.36-.22.85-.22.5 0 .85.22.36.21.55.57.2.36.2.8t-.2.81q-.19.36-.55.58-.35.21-.85.21m0-.6a1 1 0 0 0 .51-.13 1.01 1.01 0 0 0 .49-.87.96.96 0 0 0-.13-.5.94.94 0 0 0-.36-.36.93.93 0 0 0-.51-.14.98.98 0 0 0-.87.5.96.96 0 0 0-.13.5q0 .27.13.5t.35.37q.23.13.52.13m1.33-1.68-.28-.33q.29-.29.6-.42.32-.14.75-.11l.09.59a2.4 2.4 0 0 0-.62.02 1.2 1.2 0 0 0-.54.25m1.86-.06v-.61h4.11v.61zm0 2.07v-.61h4.11v.61zm6.17-2.18h-.99v-.57h.99v-.38q0-.61.21-1 .22-.39.6-.57.38-.19.87-.19.43 0 .8.16.38.15.63.47l-.38.53-.06.08-.06-.04a.7.7 0 0 0-.04-.16.7.7 0 0 0-.14-.2 1 1 0 0 0-.32-.2 1.2 1.2 0 0 0-.41-.06q-.29 0-.52.12a.78.78 0 0 0-.36.37q-.13.25-.13.69v.38h1.5V65h-1.5v4h-.69zm4.57-.57h.75l-.03 1.33-.09-.15q.06-.31.21-.55t.36-.4q.21-.17.46-.25.25-.09.52-.09.36 0 .66.13.31.12.55.37l-.32.56-.04.09-.07-.04a.6.6 0 0 0-.06-.15.7.7 0 0 0-.17-.17 1 1 0 0 0-.3-.13 1 1 0 0 0-.3-.04q-.25 0-.5.1-.25.09-.46.29-.2.2-.32.51a2 2 0 0 0-.12.74v2.43h-.73z"/><g clip-path="url(#d)"><path fill="#666" d="M16.75 79.917v.833h2.5v-.834h.833v.834h1.667c.23 0 .417.186.417.416v6.667c0 .23-.187.417-.417.417h-7.5a.417.417 0 0 1-.417-.417v-6.666c0-.23.187-.417.417-.417h1.667v-.834zm4.583 4.166h-6.666v3.334h6.666zm-3.75.834v1.666H15.5v-1.666zm-1.666-3.334h-1.25v1.667h6.666v-1.667h-1.25v.834h-.833v-.834h-2.5v.834h-.833z"/></g><path fill="#666" d="M28.11 89v-7h2.05c1.4 0 2.27.77 2.27 1.97s-.87 1.96-2.27 1.96h-1.11V89zm2.07-6.2h-1.13v2.33h1.13c.8 0 1.28-.43 1.28-1.18 0-.71-.48-1.15-1.28-1.15m3.462 6.2v-7.5h.85V89zm4.017.14c-.99 0-1.66-.55-1.66-1.41 0-.76.58-1.3 1.65-1.48l1.7-.28v-.35c0-.7-.5-1.1-1.22-1.1-.58 0-1.05.27-1.36.7l-.64-.49c.44-.6 1.15-.97 2.03-.97 1.28 0 2.04.75 2.04 1.86V89h-.85v-.64c-.38.49-1.04.78-1.69.78m-.8-1.44c0 .43.35.74.94.74.67 0 1.22-.32 1.55-.86v-.99l-1.49.25c-.69.12-1 .43-1 .86m5.045 1.3v-5.04h.85v.57c.41-.45.93-.77 1.68-.77 1.13 0 1.97.76 1.97 2.19V89h-.85v-3.02c0-.9-.51-1.42-1.29-1.42-.73 0-1.19.42-1.51.95V89zm6.64-6.35c-.33 0-.6-.27-.6-.6a.6.6 0 0 1 .6-.59c.33 0 .59.27.59.59 0 .33-.26.6-.59.6m-.43 6.35v-5.04h.85V89zm1.987-5.04h.95v-.62c0-1.07.69-1.84 1.79-1.84.46 0 .83.13 1.11.29l-.38.71a1.16 1.16 0 0 0-.71-.23c-.57 0-.95.39-.95 1.05v.64h1.75v.77h-1.75V89h-.86v-4.27h-.95zm5.026-1.31c-.33 0-.6-.27-.6-.6a.6.6 0 0 1 .6-.59c.33 0 .59.27.59.59 0 .33-.26.6-.59.6m-.43 6.35v-5.04h.85V89zm4.966-.6c.62 0 1.13-.3 1.44-.74l.67.51c-.47.63-1.2 1.03-2.12 1.03-1.67 0-2.74-1.25-2.74-2.72s1.07-2.72 2.74-2.72c.91 0 1.65.41 2.12 1.03l-.67.51c-.31-.44-.82-.74-1.45-.74-1.08 0-1.85.85-1.85 1.92 0 1.08.77 1.92 1.86 1.92m4.578.74c-.99 0-1.66-.55-1.66-1.41 0-.76.58-1.3 1.65-1.48l1.7-.28v-.35c0-.7-.5-1.1-1.22-1.1-.58 0-1.05.27-1.36.7l-.64-.49c.44-.6 1.15-.97 2.03-.97 1.28 0 2.04.75 2.04 1.86V89h-.85v-.64c-.38.49-1.04.78-1.69.78m-.8-1.44c0 .43.35.74.94.74.67 0 1.22-.32 1.55-.86v-.99l-1.49.25c-.69.12-1 .43-1 .86m5.335-.39v-2.58h-.95v-.77h.95V82.7h.86v1.26h1.75v.77h-1.75v2.58c0 .79.4 1.01 1.01 1.01.33 0 .56-.04.75-.12v.76c-.24.1-.51.14-.87.14-1.12 0-1.75-.56-1.75-1.79m4.34-4.66c-.33 0-.6-.27-.6-.6a.6.6 0 0 1 .6-.59c.33 0 .59.27.59.59 0 .33-.26.6-.59.6m-.43 6.35v-5.04h.85V89zm4.946-5.24c1.62 0 2.73 1.25 2.73 2.72s-1.11 2.72-2.73 2.72c-1.63 0-2.73-1.25-2.73-2.72s1.1-2.72 2.73-2.72m.01 4.64c1.05 0 1.82-.88 1.82-1.92 0-1.05-.77-1.92-1.82-1.92-1.08 0-1.85.87-1.85 1.92s.77 1.92 1.85 1.92m4.086.6v-5.04h.85v.57c.41-.45.93-.77 1.68-.77 1.13 0 1.97.76 1.97 2.19V89h-.85v-3.02c0-.9-.51-1.42-1.29-1.42-.73 0-1.19.42-1.51.95V89zm9.366-3.88c-.36 0-.65-.29-.65-.64s.29-.63.65-.63.64.28.64.63-.28.64-.64.64m0 3.99c-.36 0-.65-.28-.65-.63s.29-.64.65-.64.64.29.64.64-.28.63-.64.63M131.35 82.86V82h5.58v.86h-2.32V89h-.94v-6.14zm8.377.9c1.62 0 2.73 1.25 2.73 2.72s-1.11 2.72-2.73 2.72c-1.63 0-2.73-1.25-2.73-2.72s1.1-2.72 2.73-2.72m.01 4.64c1.05 0 1.82-.88 1.82-1.92 0-1.05-.77-1.92-1.82-1.92-1.08 0-1.85.87-1.85 1.92s.77 1.92 1.85 1.92m7.597-1.56v-2.88h.85v2.85c0 1.51-.87 2.39-2.24 2.39-1.36 0-2.23-.88-2.23-2.39v-2.85h.85v2.88c0 .99.53 1.56 1.39 1.56.84 0 1.38-.57 1.38-1.56m1.965 1.47.6-.51c.35.44.77.69 1.28.69.56 0 .88-.34.88-.78 0-1.13-2.52-.73-2.52-2.51 0-.79.67-1.44 1.64-1.44.72 0 1.34.34 1.69.83l-.59.5c-.27-.38-.65-.62-1.09-.62-.54 0-.83.32-.83.71 0 1.13 2.53.77 2.53 2.49-.01.94-.76 1.53-1.7 1.53-.8 0-1.43-.32-1.89-.89m7.669.69v-7.5h.85V89zm7.127-.83c-.47.63-1.22 1.03-2.16 1.03-1.7 0-2.75-1.25-2.75-2.72 0-1.53.98-2.72 2.54-2.72 1.37 0 2.26.96 2.26 2.2 0 .2-.03.39-.06.53h-3.87c.03 1.21.8 1.94 1.88 1.94.65 0 1.2-.3 1.53-.75zm-2.39-3.69c-.83 0-1.41.49-1.59 1.36h3.02c-.03-.74-.54-1.36-1.43-1.36m3.141 3.83.6-.51c.35.44.77.69 1.28.69.56 0 .88-.34.88-.78 0-1.13-2.52-.73-2.52-2.51 0-.79.67-1.44 1.64-1.44.72 0 1.34.34 1.69.83l-.59.5c-.27-.38-.65-.62-1.09-.62-.54 0-.83.32-.83.71 0 1.13 2.53.77 2.53 2.49-.01.94-.76 1.53-1.7 1.53-.8 0-1.43-.32-1.89-.89m8.089-5.66c-.33 0-.6-.27-.6-.6a.6.6 0 0 1 .6-.59c.32 0 .59.27.59.59a.6.6 0 0 1-.59.6m.43 7.01c0 1.28-.62 1.84-1.75 1.84-.36 0-.63-.04-.86-.14v-.76c.18.08.42.12.75.12.6 0 1.01-.23 1.01-1.06v-5.7h.85zm4.097-5.9c1.62 0 2.73 1.25 2.73 2.72s-1.11 2.72-2.73 2.72c-1.63 0-2.73-1.25-2.73-2.72s1.1-2.72 2.73-2.72m.01 4.64c1.05 0 1.82-.88 1.82-1.92 0-1.05-.77-1.92-1.82-1.92-1.08 0-1.85.87-1.85 1.92s.77 1.92 1.85 1.92m7.596-1.56v-2.88h.85v2.85c0 1.51-.87 2.39-2.24 2.39-1.36 0-2.23-.88-2.23-2.39v-2.85h.85v2.88c0 .99.53 1.56 1.39 1.56.84 0 1.38-.57 1.38-1.56m2.525 2.16v-5.04h.85v.63c.37-.44.83-.73 1.47-.73.16 0 .31.02.43.06v.83c-.15-.04-.3-.06-.5-.06-.66 0-1.09.34-1.4.85V89zm3.435-.69.6-.51c.35.44.77.69 1.28.69.56 0 .88-.34.88-.78 0-1.13-2.52-.73-2.52-2.51 0-.79.67-1.44 1.64-1.44.72 0 1.34.34 1.69.83l-.59.5c-.27-.38-.65-.62-1.09-.62-.54 0-.83.32-.83.71 0 1.13 2.53.77 2.53 2.49-.01.94-.76 1.53-1.7 1.53-.8 0-1.43-.32-1.89-.89m9.139-5.15-1.17-1.66h.95l1.04 1.66zm-.1 5.98c-.99 0-1.66-.55-1.66-1.41 0-.76.58-1.3 1.65-1.48l1.7-.28v-.35c0-.7-.5-1.1-1.22-1.1-.58 0-1.05.27-1.36.7l-.64-.49c.44-.6 1.15-.97 2.03-.97 1.28 0 2.04.75 2.04 1.86V89h-.85v-.64c-.38.49-1.04.78-1.69.78m-.8-1.44c0 .43.35.74.94.74.67 0 1.22-.32 1.55-.86v-.99l-1.49.25c-.69.12-1 .43-1 .86m7.52 1.3v-.81l2.37-2.44c.82-.86 1.19-1.25 1.19-1.99 0-.73-.53-1.15-1.24-1.15-.74 0-1.22.37-1.63 1.05l-.74-.45c.57-.89 1.35-1.41 2.44-1.41 1.17 0 2.1.76 2.1 1.9 0 .95-.62 1.66-1.46 2.54l-1.92 1.95h3.57V89zm10.512-1.93c0 1.27-1.03 2.13-2.44 2.13-1.21 0-2.01-.49-2.57-1.42l.79-.49c.43.77.99 1.1 1.77 1.1.87 0 1.52-.51 1.52-1.36 0-.79-.56-1.34-1.48-1.34h-1.19v-.81h1.05c.8 0 1.31-.48 1.31-1.16 0-.71-.53-1.11-1.25-1.11-.63 0-1.12.32-1.45.93l-.75-.46c.5-.82 1.24-1.28 2.26-1.28 1.21 0 2.11.73 2.11 1.84 0 .68-.32 1.26-.92 1.59.81.33 1.24 1.03 1.24 1.84m1.476 1.93v-7.5h.85v3.03c.41-.45.93-.77 1.68-.77 1.13 0 1.97.76 1.97 2.19V89h-.85v-3.02c0-.9-.5-1.42-1.29-1.42-.74 0-1.19.43-1.51.95V89zM18 108.667a4.167 4.167 0 1 1 0-8.334 4.167 4.167 0 0 1 0 8.334m0-.834a3.333 3.333 0 1 0 0-6.666 3.333 3.333 0 0 0 0 6.666m-.416-1.666-1.767-1.768.589-.589 1.178 1.178 2.358-2.357.589.59zM27.58 108.04l.7-.64c.48.62 1.04.95 1.69.95.78 0 1.23-.47 1.23-1.11 0-1.58-3.32-1.24-3.32-3.55 0-1.04.86-1.89 2.08-1.89.98 0 1.7.45 2.22 1.14l-.71.62c-.41-.59-.9-.92-1.5-.92-.69 0-1.13.43-1.13 1.03 0 1.57 3.31 1.21 3.31 3.54 0 1.21-.93 1.98-2.17 1.98-1.03 0-1.79-.39-2.4-1.15m6.352-.73v-2.58h-.95v-.77h.95v-1.26h.86v1.26h1.75v.77h-1.75v2.58c0 .79.4 1.01 1.01 1.01.33 0 .56-.04.75-.12v.76c-.24.1-.51.14-.87.14-1.12 0-1.75-.56-1.75-1.79m5.28 1.83c-.99 0-1.66-.55-1.66-1.41 0-.76.58-1.3 1.65-1.48l1.7-.28v-.35c0-.7-.5-1.1-1.22-1.1-.58 0-1.05.27-1.36.7l-.64-.49c.44-.6 1.15-.97 2.03-.97 1.28 0 2.04.75 2.04 1.86V109h-.85v-.64c-.38.49-1.04.78-1.69.78m-.8-1.44c0 .43.35.74.94.74.67 0 1.22-.32 1.55-.86v-.99l-1.49.25c-.69.12-1 .43-1 .86m5.335-.39v-2.58h-.95v-.77h.95v-1.26h.86v1.26h1.75v.77h-1.75v2.58c0 .79.4 1.01 1.01 1.01.33 0 .56-.04.75-.12v.76c-.24.1-.51.14-.87.14-1.12 0-1.75-.56-1.75-1.79m7.39-.47v-2.88h.85v2.85c0 1.51-.87 2.39-2.24 2.39-1.36 0-2.23-.88-2.23-2.39v-2.85h.85v2.88c0 .99.53 1.56 1.39 1.56.84 0 1.38-.57 1.38-1.56m2.854.47v-2.58h-.95v-.77h.95v-1.26h.86v1.26h1.75v.77h-1.75v2.58c0 .79.4 1.01 1.01 1.01.33 0 .56-.04.75-.12v.76c-.24.1-.51.14-.87.14-1.12 0-1.75-.56-1.75-1.79m7.064-2.19c-.36 0-.65-.29-.65-.64s.29-.63.65-.63.64.28.64.63-.28.64-.64.64m0 3.99c-.36 0-.65-.28-.65-.63s.29-.64.65-.64.64.29.64.64-.28.63-.64.63"/><rect width="50" height="17" x="131" y="96" fill="#e8edff" rx="2"/><path fill="#0063cb" d="M135.824 108v-5.6h1.712c1.232 0 1.992.632 1.992 1.672 0 .68-.328 1.184-.904 1.448l1.752 2.48h-1.336l-1.496-2.264h-.584V108zm1.776-4.656h-.64v1.448h.64c.48 0 .76-.28.76-.736 0-.424-.28-.712-.76-.712m6.843 2.56V102.4h1.136v3.408c0 1.472-.864 2.352-2.272 2.352-1.4 0-2.264-.88-2.264-2.352V102.4h1.136v3.504c0 .752.424 1.192 1.136 1.192.696 0 1.128-.44 1.128-1.192M147.23 108v-5.6h1.456l2.504 4.048V102.4h1.136v5.6h-1.456l-2.504-4.048V108zm6.902 0v-5.6h1.456l2.504 4.048V102.4h1.136v5.6h-1.456l-2.504-4.048V108zm6.902 0v-5.6h1.136v5.6zm2.942 0v-5.6h1.456l2.504 4.048V102.4h1.136v5.6h-1.456l-2.504-4.048V108zm9.478-.904c.528 0 .984-.184 1.304-.488v-.976h-1.424v-.968h2.56v2.352c-.52.696-1.392 1.144-2.44 1.144-1.816 0-3.056-1.36-3.056-2.96s1.208-2.96 2.976-2.96c1.016 0 1.848.456 2.36 1.136l-.896.696a1.75 1.75 0 0 0-1.464-.768c-1.056 0-1.808.824-1.808 1.896s.792 1.896 1.888 1.896"/></g><g clip-path="url(#e)"><path fill="#fff" d="M1 117h100v42H1z"/><path fill="#3a3a3a" d="M14.044 142v-7.093h1.439V142zm3.523 0v-7.093h2.787c2.25 0 3.77 1.631 3.77 3.546 0 1.916-1.52 3.547-3.77 3.547zm2.807-5.786h-1.368v4.479h1.368c1.317 0 2.27-.983 2.27-2.24 0-1.266-.953-2.239-2.27-2.239"/><path fill="#000091" d="m83.5 140.086 2.682-2.682.707.707L83 142l-3.889-3.889.707-.707 2.682 2.682V134h1z"/><path stroke="#3a3a3a" stroke-width="1.448" d="M1 158.276h100"/><path fill="#fff" d="M1 159h100v42H1z"/><path fill="#000091" d="M13.58 184v-1.22l2.4-2.36c.54-.55.88-.93.88-1.5 0-.58-.4-.92-.95-.92-.67 0-1.08.41-1.45 1.03l-1.1-.67c.59-.96 1.46-1.56 2.68-1.56s2.2.78 2.2 1.98c0 .96-.63 1.7-1.32 2.37l-1.69 1.63h3.19V184zm10.78-2c0 1.33-1.09 2.2-2.55 2.2-1.32 0-2.17-.58-2.74-1.58l1.18-.73c.39.77.86 1.11 1.55 1.11.68 0 1.19-.41 1.19-1.06 0-.64-.5-1.04-1.24-1.04H20.6v-1.2h1.06c.59 0 1.02-.33 1.02-.87 0-.53-.4-.83-.95-.83-.56 0-.94.3-1.23.8l-1.1-.68c.51-.83 1.3-1.32 2.43-1.32 1.28 0 2.23.73 2.23 1.88 0 .65-.28 1.2-.8 1.56.71.36 1.1.99 1.1 1.76m3.437-5.2c1.57 0 2.37.9 2.37 1.89 0 .64-.31 1.19-.92 1.52.8.33 1.23.98 1.23 1.83 0 1.22-.94 2.16-2.68 2.16-1.73 0-2.68-.94-2.68-2.16 0-.85.43-1.5 1.24-1.83-.62-.33-.93-.88-.93-1.52 0-.99.81-1.89 2.37-1.89m.02 2.9c.58 0 .96-.34.96-.86 0-.53-.38-.88-.96-.88-.63 0-1 .35-1 .88 0 .52.38.86 1 .86m-.01 3.33c.79 0 1.28-.42 1.28-1.06 0-.66-.49-1.11-1.28-1.11-.8 0-1.3.45-1.3 1.11 0 .65.5 1.06 1.3 1.06m5.09.97h-1.56l3.52-5.78h-3.61V177h5.04v1.22zm9.146-.82c-.47.63-1.25 1.02-2.2 1.02-1.79 0-2.8-1.25-2.8-2.72 0-1.49.94-2.72 2.59-2.72 1.4 0 2.32.95 2.32 2.27 0 .28-.04.54-.08.71h-3.53c.12.94.7 1.32 1.49 1.32.55 0 1.03-.24 1.3-.6zm-2.44-3.38c-.65 0-1.08.36-1.22 1.02h2.32c-.02-.51-.39-1.02-1.1-1.02m8.99 1.68c0 1.47-.96 2.72-2.56 2.72-.69 0-1.18-.22-1.57-.61v.41h-1.27v-7.5h1.27v2.87c.39-.39.88-.61 1.57-.61 1.6 0 2.56 1.25 2.56 2.72m-2.74-1.52c-.59 0-1.08.26-1.39.72v1.6c.34.47.82.72 1.39.72.86 0 1.42-.64 1.42-1.52s-.56-1.52-1.42-1.52m3.283-1h.94v-.53c0-1.07.71-1.93 1.97-1.93.46 0 .85.11 1.17.28l-.54 1.06c-.15-.11-.35-.2-.61-.2-.43 0-.71.3-.71.76v.56h1.54v1.14h-1.54v3.9h-1.28v-3.9h-.94zm6.523 5.24c-1.16 0-1.9-.53-2.35-1.14l1.04-.86c.36.48.77.78 1.33.78 1.01 0 1.54-.73 1.63-2.11-.45.4-1.02.62-1.71.62-1.39 0-2.27-.99-2.27-2.27 0-1.32.95-2.42 2.55-2.42 1.82 0 2.83 1.33 2.83 3.67 0 2.18-.9 3.73-3.05 3.73m-.94-5.03c0 .65.46 1.12 1.13 1.12.57 0 1.08-.23 1.42-.69-.16-1.14-.65-1.58-1.37-1.58s-1.18.49-1.18 1.15m7.516 3.83c.5 0 .9-.23 1.14-.58l.99.76c-.47.62-1.21 1.02-2.13 1.02-1.74 0-2.78-1.25-2.78-2.72s1.04-2.72 2.78-2.72c.92 0 1.66.4 2.13 1.02l-.99.76c-.24-.35-.64-.58-1.16-.58-.83 0-1.44.64-1.44 1.52 0 .89.61 1.52 1.46 1.52M13 185.33h51.555v1.08H13z"/><path stroke="#e5e5e5" stroke-width=".724" d="M1 200.638h100"/><path fill="#f6f6f6" d="M1 201h100v42H1z"/><path fill="#fff" d="M101 117h110v42H101z"/><path fill="#3a3a3a" d="m113.405 141.017 1.044-.963c.426.548.993.872 1.571.872.567 0 .912-.304.912-.811 0-1.307-3.223-.952-3.223-3.354 0-1.125.933-2.057 2.291-2.057 1.064 0 1.874.476 2.482 1.196l-1.054.952c-.415-.537-.881-.892-1.418-.892-.507 0-.841.325-.841.75 0 1.287 3.222.922 3.222 3.354-.02 1.338-1.054 2.139-2.361 2.139-1.196 0-1.996-.436-2.625-1.186m6.479-.882v-2.087h-.953v-1.155h.953v-1.277h1.297v1.277h1.56v1.155h-1.56v2.087c0 .568.304.791.81.791.355 0 .588-.041.76-.112v1.125c-.253.112-.557.162-.983.162-1.276 0-1.884-.719-1.884-1.966m5.449 2.017c-1.024 0-1.723-.588-1.723-1.53 0-.77.598-1.348 1.692-1.53l1.561-.264v-.132c0-.537-.405-.881-.993-.881-.497 0-.882.233-1.155.608l-.943-.72c.456-.628 1.206-1.013 2.138-1.013 1.48 0 2.24.882 2.24 2.006V142h-1.287v-.497c-.324.396-.932.649-1.53.649m-.446-1.591c0 .345.273.568.709.568.588 0 1.014-.274 1.267-.679v-.72l-1.216.203c-.537.091-.76.314-.76.628m5.061-.426v-2.087h-.953v-1.155h.953v-1.277h1.297v1.277h1.561v1.155h-1.561v2.087c0 .568.304.791.811.791.354 0 .587-.041.76-.112v1.125c-.254.112-.558.162-.983.162-1.277 0-1.885-.719-1.885-1.966m7.364-.344v-2.898h1.298v2.837c0 1.53-.892 2.473-2.392 2.473s-2.381-.943-2.381-2.473v-2.837h1.297v2.898c0 .74.385 1.196 1.094 1.196.699 0 1.084-.456 1.084-1.196m3.126.344v-2.087h-.953v-1.155h.953v-1.277h1.297v1.277h1.56v1.155h-1.56v2.087c0 .568.304.791.81.791.355 0 .588-.041.76-.112v1.125c-.253.112-.557.162-.983.162-1.276 0-1.884-.719-1.884-1.966"/><path fill="#cecece" d="M196.5 137.5h-7v1h7z"/><path stroke="#3a3a3a" stroke-width="1.448" d="M101 158.276h110"/><path fill="#fff" d="M101 159h110v42H101z"/><rect width="50" height="17" x="113" y="171" fill="#e8edff" rx="2"/><path fill="#0063cb" d="M117.824 183v-5.6h1.712c1.232 0 1.992.632 1.992 1.672 0 .68-.328 1.184-.904 1.448l1.752 2.48h-1.336l-1.496-2.264h-.584V183zm1.776-4.656h-.64v1.448h.64c.48 0 .76-.28.76-.736 0-.424-.28-.712-.76-.712m6.843 2.56V177.4h1.136v3.408c0 1.472-.864 2.352-2.272 2.352-1.4 0-2.264-.88-2.264-2.352V177.4h1.136v3.504c0 .752.424 1.192 1.136 1.192.696 0 1.128-.44 1.128-1.192M129.23 183v-5.6h1.456l2.504 4.048V177.4h1.136v5.6h-1.456l-2.504-4.048V183zm6.902 0v-5.6h1.456l2.504 4.048V177.4h1.136v5.6h-1.456l-2.504-4.048V183zm6.902 0v-5.6h1.136v5.6zm2.942 0v-5.6h1.456l2.504 4.048V177.4h1.136v5.6h-1.456l-2.504-4.048V183zm9.478-.904c.528 0 .984-.184 1.304-.488v-.976h-1.424v-.968h2.56v2.352c-.52.696-1.392 1.144-2.44 1.144-1.816 0-3.056-1.36-3.056-2.96s1.208-2.96 2.976-2.96c1.016 0 1.848.456 2.36 1.136l-.896.696a1.75 1.75 0 0 0-1.464-.768c-1.056 0-1.808.824-1.808 1.896s.792 1.896 1.888 1.896"/><path stroke="#e5e5e5" stroke-width=".724" d="M101 200.638h110"/><path fill="#f6f6f6" d="M101 201h110v42H101z"/><path fill="#fff" d="M211 117h160v42H211z"/><path fill="#3a3a3a" d="M224.044 142v-7.093h2.786c2.25 0 3.77 1.631 3.77 3.546 0 1.916-1.52 3.547-3.77 3.547zm2.807-5.786h-1.368v4.479h1.368c1.317 0 2.27-.983 2.27-2.24 0-1.266-.953-2.239-2.27-2.239m6.265 5.938c-1.023 0-1.723-.588-1.723-1.53 0-.77.598-1.348 1.693-1.53l1.56-.264v-.132c0-.537-.405-.881-.993-.881-.496 0-.882.233-1.155.608l-.943-.72c.456-.628 1.206-1.013 2.139-1.013 1.479 0 2.239.882 2.239 2.006V142h-1.287v-.497c-.324.396-.932.649-1.53.649m-.446-1.591c0 .345.274.568.71.568.587 0 1.013-.274 1.266-.679v-.72l-1.216.203c-.537.091-.76.314-.76.628m5.061-.426v-2.087h-.952v-1.155h.952v-1.277h1.297v1.277h1.561v1.155h-1.561v2.087c0 .568.304.791.811.791.355 0 .588-.041.76-.112v1.125c-.253.112-.557.162-.983.162-1.277 0-1.885-.719-1.885-1.966m8.613 1.034c-.476.638-1.266 1.034-2.229 1.034-1.814 0-2.837-1.267-2.837-2.757 0-1.51.952-2.756 2.624-2.756 1.419 0 2.351.963 2.351 2.3 0 .284-.04.548-.081.72h-3.577c.122.952.709 1.337 1.51 1.337.557 0 1.044-.243 1.317-.608zm-2.472-3.425c-.659 0-1.095.365-1.237 1.034h2.351c-.02-.517-.395-1.034-1.114-1.034"/><path stroke="#3a3a3a" stroke-width="1.448" d="M211 158.276h160"/><path fill="#fff" d="M211 159h160v42H211z"/><path fill="#3a3a3a" d="M225.99 176.8c1.76 0 2.62 1.62 2.62 3.7s-.86 3.7-2.62 3.7c-1.74 0-2.61-1.62-2.61-3.7s.87-3.7 2.61-3.7m.01.84c-1.12 0-1.7 1.22-1.7 2.86s.58 2.86 1.7 2.86c1.11 0 1.68-1.22 1.68-2.86s-.57-2.86-1.68-2.86m4.496 6.36h-1.04l3.7-6.19h-3.9V177h4.86v.81zm4.216 1.97 2.42-9.47h.86l-2.42 9.47zm6.424-9.17c1.76 0 2.62 1.62 2.62 3.7s-.86 3.7-2.62 3.7c-1.74 0-2.61-1.62-2.61-3.7s.87-3.7 2.61-3.7m.01.84c-1.12 0-1.7 1.22-1.7 2.86s.58 2.86 1.7 2.86c1.11 0 1.68-1.22 1.68-2.86s-.57-2.86-1.68-2.86m3.968 3.04.21-3.68h3.85v.81h-2.99l-.12 2.05h1.01c1.65 0 2.43.9 2.43 2.14 0 1.34-1.04 2.2-2.44 2.2-1.2 0-2.01-.49-2.57-1.42l.79-.49c.43.78 1.01 1.1 1.77 1.1.88 0 1.53-.51 1.53-1.36 0-.81-.57-1.35-1.55-1.35zm5.106 5.29 2.42-9.47h.86l-2.42 9.47zm4.114-1.97v-.81l2.37-2.44c.82-.86 1.19-1.25 1.19-1.99 0-.73-.53-1.15-1.24-1.15-.74 0-1.22.37-1.63 1.05l-.74-.45c.57-.89 1.35-1.41 2.44-1.41 1.17 0 2.1.76 2.1 1.9 0 .95-.62 1.66-1.46 2.54l-1.92 1.95h3.57v.81zm8.306-7.2c1.76 0 2.62 1.62 2.62 3.7s-.86 3.7-2.62 3.7c-1.74 0-2.61-1.62-2.61-3.7s.87-3.7 2.61-3.7m.01.84c-1.12 0-1.7 1.22-1.7 2.86s.58 2.86 1.7 2.86c1.11 0 1.68-1.22 1.68-2.86s-.57-2.86-1.68-2.86m3.618 6.36v-.81l2.37-2.44c.82-.86 1.19-1.25 1.19-1.99 0-.73-.53-1.15-1.24-1.15-.74 0-1.22.37-1.63 1.05l-.74-.45c.57-.89 1.35-1.41 2.44-1.41 1.17 0 2.1.76 2.1 1.9 0 .95-.62 1.66-1.46 2.54l-1.92 1.95h3.57v.81zm6.2-3.32.21-3.68h3.85v.81h-2.99l-.12 2.05h1.01c1.65 0 2.43.9 2.43 2.14 0 1.34-1.04 2.2-2.44 2.2-1.2 0-2.01-.49-2.57-1.42l.79-.49c.43.78 1.01 1.1 1.77 1.1.88 0 1.53-.51 1.53-1.36 0-.81-.57-1.35-1.55-1.35zm8.341 3.32v-.81l2.37-2.44c.82-.86 1.19-1.25 1.19-1.99 0-.73-.53-1.15-1.24-1.15-.74 0-1.22.37-1.63 1.05l-.74-.45c.57-.89 1.35-1.41 2.44-1.41 1.17 0 2.1.76 2.1 1.9 0 .95-.62 1.66-1.46 2.54l-1.92 1.95h3.57v.81zm10.511-1.93c0 1.27-1.03 2.13-2.44 2.13-1.21 0-2.01-.49-2.57-1.42l.79-.49c.43.77.99 1.1 1.77 1.1.87 0 1.52-.51 1.52-1.36 0-.79-.56-1.34-1.48-1.34h-1.19v-.81h1.05c.8 0 1.31-.48 1.31-1.16 0-.71-.53-1.11-1.25-1.11-.63 0-1.12.32-1.45.93l-.75-.46c.5-.82 1.24-1.28 2.26-1.28 1.21 0 2.11.73 2.11 1.84 0 .68-.32 1.26-.92 1.59.81.33 1.24 1.03 1.24 1.84m1.819-1.95c-.36 0-.65-.29-.65-.64s.29-.63.65-.63.64.28.64.63-.28.64-.64.64m0 3.99c-.36 0-.65-.28-.65-.63s.29-.64.65-.64.64.29.64.64-.28.63-.64.63m6.756-2.04c0 1.27-1.03 2.13-2.44 2.13-1.21 0-2.01-.49-2.57-1.42l.79-.49c.43.77.99 1.1 1.77 1.1.87 0 1.52-.51 1.52-1.36 0-.79-.56-1.34-1.48-1.34h-1.19v-.81h1.05c.8 0 1.31-.48 1.31-1.16 0-.71-.53-1.11-1.25-1.11-.63 0-1.12.32-1.45.93l-.75-.46c.5-.82 1.24-1.28 2.26-1.28 1.21 0 2.11.73 2.11 1.84 0 .68-.32 1.26-.92 1.59.81.33 1.24 1.03 1.24 1.84m1.469-1.39.21-3.68h3.85v.81h-2.99l-.12 2.05h1.01c1.65 0 2.43.9 2.43 2.14 0 1.34-1.04 2.2-2.44 2.2-1.2 0-2.01-.49-2.57-1.42l.79-.49c.43.78 1.01 1.1 1.77 1.1.88 0 1.53-.51 1.53-1.36 0-.81-.57-1.35-1.55-1.35zm8.941.57c0 1.77.59 3.16 1.68 4.24l-.62.51c-1.19-1.11-1.92-2.75-1.92-4.75 0-2.03.8-3.68 1.92-4.75l.62.51c-1.05 1.04-1.68 2.47-1.68 4.24m7.343.17V177h.94v4.36c0 1.8-1.07 2.84-2.71 2.84s-2.72-1.04-2.72-2.84V177h.94v4.42c0 1.21.7 1.9 1.78 1.9 1.07 0 1.77-.69 1.77-1.9m2.235-3.56V177h5.58v.86h-2.32V184h-.94v-6.14zm9.768 5.46c.94 0 1.71-.46 2.18-1.14l.75.58c-.64.87-1.67 1.44-2.93 1.44-2.19 0-3.68-1.7-3.68-3.7s1.49-3.7 3.68-3.7c1.26 0 2.29.58 2.93 1.44l-.75.58a2.61 2.61 0 0 0-2.18-1.14c-1.58 0-2.71 1.26-2.71 2.82s1.13 2.82 2.71 2.82m5.318-2.07c0-1.77-.62-3.18-1.69-4.24l.62-.51c1.15 1.09 1.92 2.73 1.92 4.75s-.76 3.66-1.92 4.75l-.62-.51c1.07-1.06 1.69-2.46 1.69-4.24"/><path stroke="#e5e5e5" stroke-width=".724" d="M211 200.638h160"/><path fill="#f6f6f6" d="M211 201h160v42H211z"/></g></g></g><defs><clipPath id="b"><path fill="#fff" d="M1 11C1 5.477 5.477 1 11 1h338v210H1z"/></clipPath><clipPath id="c"><path fill="#fff" d="M1 1h348v116H1z"/></clipPath><clipPath id="d"><path fill="#fff" d="M13 79.5h10v10H13z"/></clipPath><clipPath id="e"><path fill="#fff" d="M1 117h348v336H1z"/></clipPath><filter id="a" width="350" height="212" x="0" y="0" color-interpolation-filters="sRGB" filterUnits="userSpaceOnUse"><feFlood flood-opacity="0" result="BackgroundImageFix"/><feColorMatrix in="SourceAlpha" result="hardAlpha" values="0 0 0 0 0 0 0 0 0 0 0 0 0 0 0 0 0 0 127 0"/><feMorphology in="SourceAlpha" operator="dilate" radius="1" result="effect1_dropShadow_2656_9086"/><feOffset/><feComposite in2="hardAlpha" operator="out"/><feColorMatrix values="0 0 0 0 0.149038 0 0 0 0 0.145083 0 0 0 0 0.11763 0 0 0 0.1 0"/><feBlend in2="BackgroundImageFix" result="effect1_dropShadow_2656_9086"/><feBlend in="SourceGraphic" in2="effect1_dropShadow_2656_9086" result="shape"/></filter></defs></svg>