<svg width="350" height="212" viewBox="0 0 350 212" fill="none" xmlns="http://www.w3.org/2000/svg">
<g filter="url(#filter0_d_2656_9221)">
<g clip-path="url(#clip0_2656_9221)">
<path d="M1 11C1 5.47715 5.47715 1 11 1H349V211H1V11Z" fill="white"/>
<rect x="13" y="13" width="120" height="17" rx="2" fill="#F95A5C" fill-opacity="0.2"/>
<path d="M19.5 20.1665V24.3332H24.9167V20.1665H19.5ZM24.5 19.3332H25.3333C25.5635 19.3332 25.75 19.5197 25.75 19.7498V24.7498C25.75 24.98 25.5635 25.1665 25.3333 25.1665H18.6667C18.4365 25.1665 18.25 24.98 18.25 24.7498V19.7498C18.25 19.5197 18.4365 19.3332 18.6667 19.3332H19.5V18.9165C19.5 17.5358 20.6193 16.4165 22 16.4165C23.3807 16.4165 24.5 17.5358 24.5 18.9165V19.3332ZM23.6667 19.3332V18.9165C23.6667 17.996 22.9205 17.2498 22 17.2498C21.0795 17.2498 20.3333 17.996 20.3333 18.9165V19.3332H23.6667ZM19.9167 20.5832H20.75V21.4165H19.9167V20.5832ZM19.9167 21.8332H20.75V22.6665H19.9167V21.8332ZM19.9167 23.0832H20.75V23.9165H19.9167V23.0832Z" fill="#F95A5C"/>
<path d="M29.824 25V19.4H32.024C33.8 19.4 35 20.688 35 22.2C35 23.712 33.8 25 32.024 25H29.824ZM32.04 20.432H30.96V23.968H32.04C33.08 23.968 33.832 23.192 33.832 22.2C33.832 21.2 33.08 20.432 32.04 20.432ZM38.9722 19.24C40.7322 19.24 41.9402 20.6 41.9402 22.2C41.9402 23.8 40.7322 25.16 38.9722 25.16C37.2042 25.16 35.9962 23.8 35.9962 22.2C35.9962 20.6 37.2042 19.24 38.9722 19.24ZM38.9722 24.096C40.0202 24.096 40.7722 23.272 40.7722 22.2C40.7722 21.128 40.0202 20.304 38.9722 20.304C37.9162 20.304 37.1642 21.128 37.1642 22.2C37.1642 23.272 37.9162 24.096 38.9722 24.096ZM43.269 25V19.4H44.725L47.229 23.448V19.4H48.365V25H46.909L44.405 20.952V25H43.269ZM50.1712 25V19.4H51.6272L54.1312 23.448V19.4H55.2672V25H53.8112L51.3072 20.952V25H50.1712ZM59.2094 18.92H58.1774L59.0814 17.84H60.2494L59.2094 18.92ZM57.0734 25V19.4H60.3374V20.344H58.2094V21.672H60.0174V22.616H58.2094V24.056H60.3374V25H57.0734ZM61.8974 25V19.4H65.1614V20.344H63.0334V21.672H64.8414V22.616H63.0334V24.056H65.1614V25H61.8974ZM66.2175 24.224L67.0415 23.464C67.3775 23.896 67.8255 24.152 68.2815 24.152C68.7295 24.152 69.0015 23.912 69.0015 23.512C69.0015 22.48 66.4575 22.76 66.4575 20.864C66.4575 19.976 67.1935 19.24 68.2655 19.24C69.1055 19.24 69.7455 19.616 70.2255 20.184L69.3935 20.936C69.0655 20.512 68.6975 20.232 68.2735 20.232C67.8735 20.232 67.6095 20.488 67.6095 20.824C67.6095 21.84 70.1535 21.552 70.1535 23.472C70.1375 24.528 69.3215 25.16 68.2895 25.16C67.3455 25.16 66.7135 24.816 66.2175 24.224ZM73.9009 25V19.4H75.6129C76.8449 19.4 77.6049 20.032 77.6049 21.072C77.6049 21.752 77.2769 22.256 76.7009 22.52L78.4529 25H77.1169L75.6209 22.736H75.0369V25H73.9009ZM75.6769 20.344H75.0369V21.792H75.6769C76.1569 21.792 76.4369 21.512 76.4369 21.056C76.4369 20.632 76.1569 20.344 75.6769 20.344ZM79.4124 25V19.4H82.6764V20.344H80.5484V21.672H82.3564V22.616H80.5484V24.056H82.6764V25H79.4124ZM83.7325 24.224L84.5565 23.464C84.8925 23.896 85.3405 24.152 85.7965 24.152C86.2445 24.152 86.5165 23.912 86.5165 23.512C86.5165 22.48 83.9725 22.76 83.9725 20.864C83.9725 19.976 84.7085 19.24 85.7805 19.24C86.6205 19.24 87.2605 19.616 87.7405 20.184L86.9085 20.936C86.5805 20.512 86.2125 20.232 85.7885 20.232C85.3885 20.232 85.1245 20.488 85.1245 20.824C85.1245 21.84 87.6685 21.552 87.6685 23.472C87.6525 24.528 86.8365 25.16 85.8045 25.16C84.8605 25.16 84.2285 24.816 83.7325 24.224ZM88.4846 20.432V19.4H93.0766V20.432H91.3486V25H90.2126V20.432H88.4846ZM94.3143 25V19.4H96.0263C97.2583 19.4 98.0183 20.032 98.0183 21.072C98.0183 21.752 97.6903 22.256 97.1143 22.52L98.8663 25H97.5303L96.0343 22.736H95.4503V25H94.3143ZM96.0903 20.344H95.4503V21.792H96.0903C96.5703 21.792 96.8503 21.512 96.8503 21.056C96.8503 20.632 96.5703 20.344 96.0903 20.344ZM99.8259 25V19.4H103.09V20.344H100.962V21.672H102.77V22.616H100.962V24.056H103.09V25H99.8259ZM104.65 25V19.4H105.786V25H104.65ZM107.591 25V19.4H109.047L111.551 23.448V19.4H112.687V25H111.231L108.727 20.952V25H107.591ZM113.917 20.432V19.4H118.509V20.432H116.781V25H115.645V20.432H113.917ZM119.747 25V19.4H123.011V20.344H120.883V21.672H122.691V22.616H120.883V24.056H123.011V25H119.747ZM124.067 24.224L124.891 23.464C125.227 23.896 125.675 24.152 126.131 24.152C126.579 24.152 126.851 23.912 126.851 23.512C126.851 22.48 124.307 22.76 124.307 20.864C124.307 19.976 125.043 19.24 126.115 19.24C126.955 19.24 127.595 19.616 128.075 20.184L127.243 20.936C126.915 20.512 126.547 20.232 126.123 20.232C125.723 20.232 125.459 20.488 125.459 20.824C125.459 21.84 128.003 21.552 128.003 23.472C127.987 24.528 127.171 25.16 126.139 25.16C125.195 25.16 124.563 24.816 124.067 24.224Z" fill="#F95A5C"/>
<path d="M17.98 50.644C18.94 50.644 19.696 50.176 20.176 49.492L21.52 50.524C20.752 51.568 19.504 52.24 17.98 52.24C15.328 52.24 13.516 50.2 13.516 47.8C13.516 45.4 15.328 43.36 17.98 43.36C19.504 43.36 20.752 44.044 21.52 45.064L20.176 46.108C19.696 45.424 18.94 44.956 17.98 44.956C16.396 44.956 15.268 46.192 15.268 47.8C15.268 49.408 16.396 50.644 17.98 50.644ZM28.2456 51.016C27.6816 51.772 26.7456 52.24 25.6056 52.24C23.4576 52.24 22.2456 50.74 22.2456 48.976C22.2456 47.188 23.3736 45.712 25.3536 45.712C27.0336 45.712 28.1376 46.852 28.1376 48.436C28.1376 48.772 28.0896 49.084 28.0416 49.288H23.8056C23.9496 50.416 24.6456 50.872 25.5936 50.872C26.2536 50.872 26.8296 50.584 27.1536 50.152L28.2456 51.016ZM25.3176 46.96C24.5376 46.96 24.0216 47.392 23.8536 48.184H26.6376C26.6136 47.572 26.1696 46.96 25.3176 46.96ZM29.0168 51.124L30.0248 50.212C30.3968 50.68 30.8408 51.016 31.4168 51.016C31.9088 51.016 32.1608 50.728 32.1608 50.368C32.1608 49.312 29.2688 49.708 29.2688 47.584C29.2688 46.516 30.1688 45.712 31.4288 45.712C32.3528 45.712 33.1928 46.156 33.6248 46.744L32.6168 47.632C32.3048 47.248 31.9088 46.936 31.4408 46.936C30.9608 46.936 30.7328 47.2 30.7328 47.512C30.7328 48.544 33.6248 48.184 33.6248 50.272C33.6008 51.544 32.5808 52.24 31.4408 52.24C30.3608 52.24 29.5928 51.808 29.0168 51.124ZM37.8316 48.976C37.8316 47.212 38.9956 45.712 40.9036 45.712C41.7196 45.712 42.3076 45.964 42.7756 46.432V43H44.3116V52H42.7756V51.52C42.3076 51.988 41.7196 52.24 40.9036 52.24C38.9956 52.24 37.8316 50.74 37.8316 48.976ZM39.4276 48.976C39.4276 50.032 40.0876 50.8 41.1196 50.8C41.8036 50.8 42.3676 50.512 42.7756 49.96V47.992C42.3676 47.44 41.8036 47.152 41.1196 47.152C40.0876 47.152 39.4276 47.92 39.4276 48.976ZM49.0186 45.712C50.9866 45.712 52.3306 47.164 52.3306 48.976C52.3306 50.788 50.9866 52.24 49.0186 52.24C47.0506 52.24 45.7066 50.788 45.7066 48.976C45.7066 47.164 47.0506 45.712 49.0186 45.712ZM49.0426 50.8C50.0146 50.8 50.7466 50.02 50.7466 48.976C50.7466 47.92 50.0146 47.152 49.0426 47.152C48.0346 47.152 47.2906 47.92 47.2906 48.976C47.2906 50.032 48.0346 50.8 49.0426 50.8ZM53.7206 52V45.952H55.2446V46.432C55.6646 46.024 56.2286 45.712 57.0326 45.712C58.3406 45.712 59.3846 46.612 59.3846 48.4V52H57.8486V48.46C57.8486 47.656 57.3926 47.152 56.6486 47.152C55.8806 47.152 55.4726 47.668 55.2446 48.052V52H53.7206ZM61.1151 52V45.952H62.6391V46.432C63.0591 46.024 63.6231 45.712 64.4271 45.712C65.7351 45.712 66.7791 46.612 66.7791 48.4V52H65.2431V48.46C65.2431 47.656 64.7871 47.152 64.0431 47.152C63.2751 47.152 62.8671 47.668 62.6391 48.052V52H61.1151ZM72.0257 44.992H70.5617L71.8097 43H73.4657L72.0257 44.992ZM74.0777 51.016C73.5137 51.772 72.5777 52.24 71.4377 52.24C69.2897 52.24 68.0777 50.74 68.0777 48.976C68.0777 47.188 69.2057 45.712 71.1857 45.712C72.8657 45.712 73.9697 46.852 73.9697 48.436C73.9697 48.772 73.9217 49.084 73.8737 49.288H69.6377C69.7817 50.416 70.4777 50.872 71.4257 50.872C72.0857 50.872 72.6617 50.584 72.9857 50.152L74.0777 51.016ZM71.1497 46.96C70.3697 46.96 69.8537 47.392 69.6857 48.184H72.4697C72.4457 47.572 72.0017 46.96 71.1497 46.96ZM80.98 51.016C80.416 51.772 79.48 52.24 78.34 52.24C76.192 52.24 74.98 50.74 74.98 48.976C74.98 47.188 76.108 45.712 78.088 45.712C79.768 45.712 80.872 46.852 80.872 48.436C80.872 48.772 80.824 49.084 80.776 49.288H76.54C76.684 50.416 77.38 50.872 78.328 50.872C78.988 50.872 79.564 50.584 79.888 50.152L80.98 51.016ZM78.052 46.96C77.272 46.96 76.756 47.392 76.588 48.184H79.372C79.348 47.572 78.904 46.96 78.052 46.96ZM81.7512 51.124L82.7592 50.212C83.1312 50.68 83.5752 51.016 84.1512 51.016C84.6432 51.016 84.8952 50.728 84.8952 50.368C84.8952 49.312 82.0032 49.708 82.0032 47.584C82.0032 46.516 82.9032 45.712 84.1632 45.712C85.0872 45.712 85.9272 46.156 86.3592 46.744L85.3512 47.632C85.0392 47.248 84.6432 46.936 84.1752 46.936C83.6952 46.936 83.4672 47.2 83.4672 47.512C83.4672 48.544 86.3592 48.184 86.3592 50.272C86.3352 51.544 85.3152 52.24 84.1752 52.24C83.0952 52.24 82.3272 51.808 81.7512 51.124ZM90.9979 52V45.952H92.5219V46.432C92.9419 46.024 93.5059 45.712 94.3099 45.712C95.6179 45.712 96.6619 46.612 96.6619 48.4V52H95.1259V48.46C95.1259 47.656 94.6699 47.152 93.9259 47.152C93.1579 47.152 92.7499 47.668 92.5219 48.052V52H90.9979ZM103.96 51.016C103.396 51.772 102.46 52.24 101.32 52.24C99.1725 52.24 97.9605 50.74 97.9605 48.976C97.9605 47.188 99.0885 45.712 101.068 45.712C102.748 45.712 103.852 46.852 103.852 48.436C103.852 48.772 103.804 49.084 103.756 49.288H99.5205C99.6645 50.416 100.36 50.872 101.308 50.872C101.968 50.872 102.544 50.584 102.868 50.152L103.96 51.016ZM101.032 46.96C100.252 46.96 99.7365 47.392 99.5685 48.184H102.352C102.328 47.572 101.884 46.96 101.032 46.96ZM108.048 51.124L109.056 50.212C109.428 50.68 109.872 51.016 110.448 51.016C110.94 51.016 111.192 50.728 111.192 50.368C111.192 49.312 108.3 49.708 108.3 47.584C108.3 46.516 109.2 45.712 110.46 45.712C111.384 45.712 112.224 46.156 112.656 46.744L111.648 47.632C111.336 47.248 110.94 46.936 110.472 46.936C109.992 46.936 109.764 47.2 109.764 47.512C109.764 48.544 112.656 48.184 112.656 50.272C112.632 51.544 111.612 52.24 110.472 52.24C109.392 52.24 108.624 51.808 108.048 51.124ZM116.917 45.712C118.885 45.712 120.229 47.164 120.229 48.976C120.229 50.788 118.885 52.24 116.917 52.24C114.949 52.24 113.605 50.788 113.605 48.976C113.605 47.164 114.949 45.712 116.917 45.712ZM116.941 50.8C117.913 50.8 118.645 50.02 118.645 48.976C118.645 47.92 117.913 47.152 116.941 47.152C115.933 47.152 115.189 47.92 115.189 48.976C115.189 50.032 115.933 50.8 116.941 50.8ZM121.619 52V45.952H123.143V46.432C123.563 46.024 124.127 45.712 124.931 45.712C126.239 45.712 127.283 46.612 127.283 48.4V52H125.747V48.46C125.747 47.656 125.291 47.152 124.547 47.152C123.779 47.152 123.371 47.668 123.143 48.052V52H121.619ZM129.398 49.792V47.32H128.27V45.952H129.398V44.44H130.934V45.952H132.782V47.32H130.934V49.792C130.934 50.464 131.294 50.728 131.894 50.728C132.314 50.728 132.59 50.68 132.794 50.596V51.928C132.494 52.06 132.134 52.12 131.63 52.12C130.118 52.12 129.398 51.268 129.398 49.792ZM139.085 52.18C137.873 52.18 137.045 51.484 137.045 50.368C137.045 49.456 137.753 48.772 139.049 48.556L140.897 48.244V48.088C140.897 47.452 140.417 47.044 139.721 47.044C139.133 47.044 138.677 47.32 138.353 47.764L137.237 46.912C137.777 46.168 138.665 45.712 139.769 45.712C141.521 45.712 142.421 46.756 142.421 48.088V52H140.897V51.412C140.513 51.88 139.793 52.18 139.085 52.18ZM138.557 50.296C138.557 50.704 138.881 50.968 139.397 50.968C140.093 50.968 140.597 50.644 140.897 50.164V49.312L139.457 49.552C138.821 49.66 138.557 49.924 138.557 50.296ZM147.07 50.8C147.67 50.8 148.15 50.524 148.438 50.104L149.626 51.016C149.062 51.76 148.174 52.24 147.07 52.24C144.982 52.24 143.734 50.74 143.734 48.976C143.734 47.212 144.982 45.712 147.07 45.712C148.174 45.712 149.062 46.192 149.626 46.936L148.438 47.848C148.15 47.428 147.67 47.152 147.046 47.152C146.05 47.152 145.318 47.92 145.318 48.976C145.318 50.044 146.05 50.8 147.07 50.8ZM153.433 50.8C154.033 50.8 154.513 50.524 154.801 50.104L155.989 51.016C155.425 51.76 154.537 52.24 153.433 52.24C151.345 52.24 150.097 50.74 150.097 48.976C150.097 47.212 151.345 45.712 153.433 45.712C154.537 45.712 155.425 46.192 155.989 46.936L154.801 47.848C154.513 47.428 154.033 47.152 153.409 47.152C152.413 47.152 151.681 47.92 151.681 48.976C151.681 50.044 152.413 50.8 153.433 50.8ZM162.46 51.016C161.896 51.772 160.96 52.24 159.82 52.24C157.672 52.24 156.46 50.74 156.46 48.976C156.46 47.188 157.588 45.712 159.568 45.712C161.248 45.712 162.352 46.852 162.352 48.436C162.352 48.772 162.304 49.084 162.256 49.288H158.02C158.164 50.416 158.86 50.872 159.808 50.872C160.468 50.872 161.044 50.584 161.368 50.152L162.46 51.016ZM159.532 46.96C158.752 46.96 158.236 47.392 158.068 48.184H160.852C160.828 47.572 160.384 46.96 159.532 46.96ZM163.232 51.124L164.24 50.212C164.612 50.68 165.056 51.016 165.632 51.016C166.124 51.016 166.376 50.728 166.376 50.368C166.376 49.312 163.484 49.708 163.484 47.584C163.484 46.516 164.384 45.712 165.644 45.712C166.568 45.712 167.408 46.156 167.84 46.744L166.832 47.632C166.52 47.248 166.124 46.936 165.656 46.936C165.176 46.936 164.948 47.2 164.948 47.512C164.948 48.544 167.84 48.184 167.84 50.272C167.816 51.544 166.796 52.24 165.656 52.24C164.576 52.24 163.808 51.808 163.232 51.124ZM168.634 51.124L169.642 50.212C170.014 50.68 170.458 51.016 171.034 51.016C171.526 51.016 171.778 50.728 171.778 50.368C171.778 49.312 168.886 49.708 168.886 47.584C168.886 46.516 169.786 45.712 171.046 45.712C171.97 45.712 172.81 46.156 173.242 46.744L172.234 47.632C171.922 47.248 171.526 46.936 171.058 46.936C170.578 46.936 170.35 47.2 170.35 47.512C170.35 48.544 173.242 48.184 173.242 50.272C173.218 51.544 172.198 52.24 171.058 52.24C169.978 52.24 169.21 51.808 168.634 51.124ZM175.414 44.896C174.874 44.896 174.418 44.44 174.418 43.9C174.418 43.36 174.874 42.904 175.414 42.904C175.954 42.904 176.398 43.36 176.398 43.9C176.398 44.44 175.954 44.896 175.414 44.896ZM174.646 52V45.952H176.17V52H174.646ZM184.478 48.976C184.478 50.74 183.326 52.24 181.406 52.24C180.578 52.24 179.99 51.976 179.522 51.508V52H177.998V43H179.522V46.444C179.99 45.976 180.578 45.712 181.406 45.712C183.326 45.712 184.478 47.212 184.478 48.976ZM181.19 47.152C180.482 47.152 179.894 47.464 179.522 48.016V49.936C179.93 50.5 180.506 50.8 181.19 50.8C182.222 50.8 182.894 50.032 182.894 48.976C182.894 47.92 182.222 47.152 181.19 47.152ZM185.873 52V43H187.397V52H185.873ZM194.793 51.016C194.229 51.772 193.293 52.24 192.153 52.24C190.005 52.24 188.793 50.74 188.793 48.976C188.793 47.188 189.921 45.712 191.901 45.712C193.581 45.712 194.685 46.852 194.685 48.436C194.685 48.772 194.637 49.084 194.589 49.288H190.353C190.497 50.416 191.193 50.872 192.141 50.872C192.801 50.872 193.377 50.584 193.701 50.152L194.793 51.016ZM191.865 46.96C191.085 46.96 190.569 47.392 190.401 48.184H193.185C193.161 47.572 192.717 46.96 191.865 46.96ZM195.564 51.124L196.572 50.212C196.944 50.68 197.388 51.016 197.964 51.016C198.456 51.016 198.708 50.728 198.708 50.368C198.708 49.312 195.816 49.708 195.816 47.584C195.816 46.516 196.716 45.712 197.976 45.712C198.9 45.712 199.74 46.156 200.172 46.744L199.164 47.632C198.852 47.248 198.456 46.936 197.988 46.936C197.508 46.936 197.28 47.2 197.28 47.512C197.28 48.544 200.172 48.184 200.172 50.272C200.148 51.544 199.128 52.24 197.988 52.24C196.908 52.24 196.14 51.808 195.564 51.124ZM204.378 48.976C204.378 47.212 205.53 45.712 207.45 45.712C208.266 45.712 208.854 45.976 209.322 46.444V45.952H210.858V54.952H209.322V51.508C208.854 51.976 208.266 52.24 207.45 52.24C205.53 52.24 204.378 50.74 204.378 48.976ZM205.962 48.976C205.962 50.032 206.622 50.8 207.654 50.8C208.362 50.8 208.95 50.488 209.322 49.936V48.016C208.914 47.452 208.338 47.152 207.654 47.152C206.622 47.152 205.962 47.92 205.962 48.976ZM216.669 49.384V45.952H218.205V49.312C218.205 51.124 217.149 52.24 215.373 52.24C213.597 52.24 212.553 51.124 212.553 49.312V45.952H214.089V49.384C214.089 50.26 214.545 50.8 215.385 50.8C216.213 50.8 216.669 50.26 216.669 49.384ZM225.46 51.016C224.896 51.772 223.96 52.24 222.82 52.24C220.672 52.24 219.46 50.74 219.46 48.976C219.46 47.188 220.588 45.712 222.568 45.712C224.248 45.712 225.352 46.852 225.352 48.436C225.352 48.772 225.304 49.084 225.256 49.288H221.02C221.164 50.416 221.86 50.872 222.808 50.872C223.468 50.872 224.044 50.584 224.368 50.152L225.46 51.016ZM222.532 46.96C221.752 46.96 221.236 47.392 221.068 48.184H223.852C223.828 47.572 223.384 46.96 222.532 46.96ZM229.548 51.124L230.556 50.212C230.928 50.68 231.372 51.016 231.948 51.016C232.44 51.016 232.692 50.728 232.692 50.368C232.692 49.312 229.8 49.708 229.8 47.584C229.8 46.516 230.7 45.712 231.96 45.712C232.884 45.712 233.724 46.156 234.156 46.744L233.148 47.632C232.836 47.248 232.44 46.936 231.972 46.936C231.492 46.936 231.264 47.2 231.264 47.512C231.264 48.544 234.156 48.184 234.156 50.272C234.132 51.544 233.112 52.24 231.972 52.24C230.892 52.24 230.124 51.808 229.548 51.124ZM239.544 49.384V45.952H241.08V49.312C241.08 51.124 240.024 52.24 238.248 52.24C236.472 52.24 235.428 51.124 235.428 49.312V45.952H236.964V49.384C236.964 50.26 237.42 50.8 238.26 50.8C239.088 50.8 239.544 50.26 239.544 49.384ZM242.767 52V45.952H244.291V46.552C244.687 46.144 245.203 45.832 245.887 45.832C246.091 45.832 246.271 45.868 246.415 45.916V47.416C246.223 47.368 246.019 47.332 245.743 47.332C244.999 47.332 244.519 47.74 244.291 48.124V52H242.767ZM250.877 52V43H252.401V46.432C252.821 46.024 253.385 45.712 254.189 45.712C255.497 45.712 256.541 46.612 256.541 48.4V52H255.005V48.46C255.005 47.656 254.561 47.152 253.805 47.152C253.037 47.152 252.629 47.668 252.401 48.052V52H250.877ZM259.975 52.18C258.763 52.18 257.935 51.484 257.935 50.368C257.935 49.456 258.643 48.772 259.939 48.556L261.787 48.244V48.088C261.787 47.452 261.307 47.044 260.611 47.044C260.023 47.044 259.567 47.32 259.243 47.764L258.127 46.912C258.667 46.168 259.555 45.712 260.659 45.712C262.411 45.712 263.311 46.756 263.311 48.088V52H261.787V51.412C261.403 51.88 260.683 52.18 259.975 52.18ZM259.447 50.296C259.447 50.704 259.771 50.968 260.287 50.968C260.983 50.968 261.487 50.644 261.787 50.164V49.312L260.347 49.552C259.711 49.66 259.447 49.924 259.447 50.296ZM271.537 48.976C271.537 50.74 270.385 52.24 268.465 52.24C267.637 52.24 267.049 51.976 266.581 51.508V52H265.057V43H266.581V46.444C267.049 45.976 267.637 45.712 268.465 45.712C270.385 45.712 271.537 47.212 271.537 48.976ZM268.249 47.152C267.541 47.152 266.953 47.464 266.581 48.016V49.936C266.989 50.5 267.565 50.8 268.249 50.8C269.281 50.8 269.953 50.032 269.953 48.976C269.953 47.92 269.281 47.152 268.249 47.152ZM273.7 44.896C273.16 44.896 272.704 44.44 272.704 43.9C272.704 43.36 273.16 42.904 273.7 42.904C274.24 42.904 274.684 43.36 274.684 43.9C274.684 44.44 274.24 44.896 273.7 44.896ZM272.932 52V45.952H274.456V52H272.932ZM276.283 52V43H277.807V52H276.283ZM280.403 44.896C279.863 44.896 279.407 44.44 279.407 43.9C279.407 43.36 279.863 42.904 280.403 42.904C280.943 42.904 281.387 43.36 281.387 43.9C281.387 44.44 280.943 44.896 280.403 44.896ZM279.635 52V45.952H281.159V52H279.635ZM283.37 49.792V47.32H282.242V45.952H283.37V44.44H284.906V45.952H286.754V47.32H284.906V49.792C284.906 50.464 285.266 50.728 285.866 50.728C286.286 50.728 286.562 50.68 286.766 50.596V51.928C286.466 52.06 286.106 52.12 285.602 52.12C284.09 52.12 283.37 51.268 283.37 49.792ZM289.823 52.18C288.611 52.18 287.783 51.484 287.783 50.368C287.783 49.456 288.491 48.772 289.787 48.556L291.635 48.244V48.088C291.635 47.452 291.155 47.044 290.459 47.044C289.871 47.044 289.415 47.32 289.091 47.764L287.975 46.912C288.515 46.168 289.403 45.712 290.507 45.712C292.259 45.712 293.159 46.756 293.159 48.088V52H291.635V51.412C291.251 51.88 290.531 52.18 289.823 52.18ZM289.295 50.296C289.295 50.704 289.619 50.968 290.135 50.968C290.831 50.968 291.335 50.644 291.635 50.164V49.312L290.195 49.552C289.559 49.66 289.295 49.924 289.295 50.296ZM295.288 49.792V47.32H294.16V45.952H295.288V44.44H296.824V45.952H298.672V47.32H296.824V49.792C296.824 50.464 297.184 50.728 297.784 50.728C298.204 50.728 298.48 50.68 298.684 50.596V51.928C298.384 52.06 298.024 52.12 297.52 52.12C296.008 52.12 295.288 51.268 295.288 49.792ZM300.805 44.896C300.265 44.896 299.809 44.44 299.809 43.9C299.809 43.36 300.265 42.904 300.805 42.904C301.345 42.904 301.789 43.36 301.789 43.9C301.789 44.44 301.345 44.896 300.805 44.896ZM300.037 52V45.952H301.561V52H300.037ZM306.269 45.712C308.237 45.712 309.581 47.164 309.581 48.976C309.581 50.788 308.237 52.24 306.269 52.24C304.301 52.24 302.957 50.788 302.957 48.976C302.957 47.164 304.301 45.712 306.269 45.712ZM306.293 50.8C307.265 50.8 307.997 50.02 307.997 48.976C307.997 47.92 307.265 47.152 306.293 47.152C305.285 47.152 304.541 47.92 304.541 48.976C304.541 50.032 305.285 50.8 306.293 50.8ZM310.971 52V45.952H312.495V46.432C312.915 46.024 313.479 45.712 314.283 45.712C315.591 45.712 316.635 46.612 316.635 48.4V52H315.099V48.46C315.099 47.656 314.643 47.152 313.899 47.152C313.131 47.152 312.723 47.668 312.495 48.052V52H310.971Z" fill="#161616"/>
<g clip-path="url(#clip1_2656_9221)">
<rect width="100" height="42" transform="translate(1 68)" fill="white"/>
<path d="M14.0438 93V85.9065H15.4827V93H14.0438ZM17.5667 93V85.9065H20.3535C22.6031 85.9065 24.1231 87.538 24.1231 89.4533C24.1231 91.3685 22.6031 93 20.3535 93H17.5667ZM20.3737 87.2138H19.0057V91.6928H20.3737C21.6911 91.6928 22.6436 90.7098 22.6436 89.4533C22.6436 88.1866 21.6911 87.2138 20.3737 87.2138Z" fill="#3A3A3A"/>
<path d="M86.5 88.5H79.5V89.5H86.5V88.5Z" fill="#CECECE"/>
<line x1="1" y1="109.276" x2="101" y2="109.276" stroke="#3A3A3A" stroke-width="1.44765"/>
<rect width="100" height="42" transform="translate(1 110)" fill="white"/>
<rect x="13" y="124" width="46" height="14" fill="#666666"/>
<line x1="1" y1="151.638" x2="101" y2="151.638" stroke="#E5E5E5" stroke-width="0.723824"/>
<rect width="100" height="42" transform="translate(1 152)" fill="#F6F6F6"/>
<rect x="13" y="166" width="56" height="14" fill="#666666"/>
<line x1="1" y1="193.638" x2="101" y2="193.638" stroke="#E5E5E5" stroke-width="0.723824"/>
<rect width="100" height="42" transform="translate(1 194)" fill="white"/>
<rect x="13" y="208" width="56" height="14" fill="#666666"/>
<rect width="110" height="42" transform="translate(101 68)" fill="white"/>
<path d="M113.405 92.017L114.449 91.0544C114.875 91.6016 115.442 91.9258 116.02 91.9258C116.587 91.9258 116.932 91.6218 116.932 91.1152C116.932 89.8079 113.709 90.1626 113.709 87.761C113.709 86.6361 114.642 85.7039 116 85.7039C117.064 85.7039 117.874 86.1801 118.482 86.8996L117.428 87.8522C117.013 87.3151 116.547 86.9604 116.01 86.9604C115.503 86.9604 115.169 87.2847 115.169 87.7103C115.169 88.9973 118.391 88.6324 118.391 91.0645C118.371 92.4021 117.337 93.2027 116.03 93.2027C114.834 93.2027 114.034 92.7669 113.405 92.017ZM119.884 91.1354V89.0479H118.931V87.8927H119.884V86.6159H121.181V87.8927H122.741V89.0479H121.181V91.1354C121.181 91.7029 121.485 91.9258 121.991 91.9258C122.346 91.9258 122.579 91.8853 122.751 91.8144V92.9392C122.498 93.0507 122.194 93.1013 121.768 93.1013C120.492 93.1013 119.884 92.3819 119.884 91.1354ZM125.333 93.152C124.309 93.152 123.61 92.5643 123.61 91.6218C123.61 90.8517 124.208 90.2741 125.302 90.0917L126.863 89.8282V89.6965C126.863 89.1594 126.458 88.8148 125.87 88.8148C125.373 88.8148 124.988 89.0479 124.715 89.4229L123.772 88.7034C124.228 88.0751 124.978 87.69 125.91 87.69C127.39 87.69 128.15 88.5716 128.15 89.6965V93H126.863V92.5035C126.539 92.8987 125.931 93.152 125.333 93.152ZM124.887 91.561C124.887 91.9056 125.16 92.1285 125.596 92.1285C126.184 92.1285 126.61 91.8549 126.863 91.4496V90.7301L125.647 90.9328C125.11 91.024 124.887 91.2469 124.887 91.561ZM129.948 91.1354V89.0479H128.995V87.8927H129.948V86.6159H131.245V87.8927H132.806V89.0479H131.245V91.1354C131.245 91.7029 131.549 91.9258 132.056 91.9258C132.41 91.9258 132.643 91.8853 132.816 91.8144V92.9392C132.562 93.0507 132.258 93.1013 131.833 93.1013C130.556 93.1013 129.948 92.3819 129.948 91.1354ZM137.312 90.7909V87.8927H138.61V90.7301C138.61 92.2603 137.718 93.2027 136.218 93.2027C134.718 93.2027 133.837 92.2603 133.837 90.7301V87.8927H135.134V90.7909C135.134 91.5306 135.519 91.9866 136.228 91.9866C136.927 91.9866 137.312 91.5306 137.312 90.7909ZM140.438 91.1354V89.0479H139.485V87.8927H140.438V86.6159H141.735V87.8927H143.295V89.0479H141.735V91.1354C141.735 91.7029 142.039 91.9258 142.545 91.9258C142.9 91.9258 143.133 91.8853 143.305 91.8144V92.9392C143.052 93.0507 142.748 93.1013 142.322 93.1013C141.046 93.1013 140.438 92.3819 140.438 91.1354Z" fill="#3A3A3A"/>
<path d="M196.5 88.5H189.5V89.5H196.5V88.5Z" fill="#CECECE"/>
<line x1="101" y1="109.276" x2="211" y2="109.276" stroke="#3A3A3A" stroke-width="1.44765"/>
<rect width="110" height="42" transform="translate(101 110)" fill="white"/>
<rect x="113" y="124" width="76" height="14" fill="#666666"/>
<line x1="101" y1="151.638" x2="211" y2="151.638" stroke="#E5E5E5" stroke-width="0.723824"/>
<rect width="110" height="42" transform="translate(101 152)" fill="#F6F6F6"/>
<rect x="113" y="166" width="56" height="14" fill="#666666"/>
<line x1="101" y1="193.638" x2="211" y2="193.638" stroke="#E5E5E5" stroke-width="0.723824"/>
<rect width="110" height="42" transform="translate(101 194)" fill="white"/>
<rect x="113" y="208" width="66" height="14" fill="#666666"/>
<rect width="160" height="42" transform="translate(211 68)" fill="white"/>
<path d="M224.044 93V85.9065H226.83C229.08 85.9065 230.6 87.538 230.6 89.4533C230.6 91.3685 229.08 93 226.83 93H224.044ZM226.851 87.2138H225.483V91.6928H226.851C228.168 91.6928 229.121 90.7098 229.121 89.4533C229.121 88.1866 228.168 87.2138 226.851 87.2138ZM233.116 93.152C232.093 93.152 231.393 92.5643 231.393 91.6218C231.393 90.8517 231.991 90.2741 233.086 90.0917L234.646 89.8282V89.6965C234.646 89.1594 234.241 88.8148 233.653 88.8148C233.157 88.8148 232.771 89.0479 232.498 89.4229L231.555 88.7034C232.011 88.0751 232.761 87.69 233.694 87.69C235.173 87.69 235.933 88.5716 235.933 89.6965V93H234.646V92.5035C234.322 92.8987 233.714 93.152 233.116 93.152ZM232.67 91.561C232.67 91.9056 232.944 92.1285 233.38 92.1285C233.967 92.1285 234.393 91.8549 234.646 91.4496V90.7301L233.43 90.9328C232.893 91.024 232.67 91.2469 232.67 91.561ZM237.731 91.1354V89.0479H236.779V87.8927H237.731V86.6159H239.028V87.8927H240.589V89.0479H239.028V91.1354C239.028 91.7029 239.332 91.9258 239.839 91.9258C240.194 91.9258 240.427 91.8853 240.599 91.8144V92.9392C240.346 93.0507 240.042 93.1013 239.616 93.1013C238.339 93.1013 237.731 92.3819 237.731 91.1354ZM246.344 92.1691C245.868 92.8075 245.078 93.2027 244.115 93.2027C242.301 93.2027 241.278 91.936 241.278 90.4463C241.278 88.9365 242.23 87.69 243.902 87.69C245.321 87.69 246.253 88.6527 246.253 89.9903C246.253 90.2741 246.213 90.5376 246.172 90.7098H242.595C242.717 91.6624 243.304 92.0474 244.105 92.0474C244.662 92.0474 245.149 91.8042 245.422 91.4394L246.344 92.1691ZM243.872 88.7439C243.213 88.7439 242.777 89.1087 242.635 89.7775H244.986C244.966 89.2607 244.591 88.7439 243.872 88.7439Z" fill="#3A3A3A"/>
<line x1="211" y1="109.276" x2="371" y2="109.276" stroke="#3A3A3A" stroke-width="1.44765"/>
<rect width="160" height="42" transform="translate(211 110)" fill="white"/>
<rect x="223" y="124" width="111.545" height="14" fill="#666666"/>
<line x1="211" y1="151.638" x2="371" y2="151.638" stroke="#E5E5E5" stroke-width="0.723824"/>
<rect width="160" height="42" transform="translate(211 152)" fill="#F6F6F6"/>
<rect x="223" y="166" width="91.5448" height="14" fill="#666666"/>
<line x1="211" y1="193.638" x2="306.545" y2="193.638" stroke="#E5E5E5" stroke-width="0.723824"/>
<rect width="160" height="42" transform="translate(211 194)" fill="white"/>
<rect x="223" y="208" width="101.545" height="14" fill="#666666"/>
</g>
</g>
</g>
<defs>
<filter id="filter0_d_2656_9221" x="0" y="0" width="350" height="212" filterUnits="userSpaceOnUse" color-interpolation-filters="sRGB">
<feFlood flood-opacity="0" result="BackgroundImageFix"/>
<feColorMatrix in="SourceAlpha" type="matrix" values="0 0 0 0 0 0 0 0 0 0 0 0 0 0 0 0 0 0 127 0" result="hardAlpha"/>
<feMorphology radius="1" operator="dilate" in="SourceAlpha" result="effect1_dropShadow_2656_9221"/>
<feOffset/>
<feComposite in2="hardAlpha" operator="out"/>
<feColorMatrix type="matrix" values="0 0 0 0 0.149038 0 0 0 0 0.145083 0 0 0 0 0.11763 0 0 0 0.1 0"/>
<feBlend mode="normal" in2="BackgroundImageFix" result="effect1_dropShadow_2656_9221"/>
<feBlend mode="normal" in="SourceGraphic" in2="effect1_dropShadow_2656_9221" result="shape"/>
</filter>
<clipPath id="clip0_2656_9221">
<path d="M1 11C1 5.47715 5.47715 1 11 1H349V211H1V11Z" fill="white"/>
</clipPath>
<clipPath id="clip1_2656_9221">
<rect width="348" height="168" fill="white" transform="translate(1 68)"/>
</clipPath>
</defs>
</svg>
