<svg xmlns="http://www.w3.org/2000/svg" width="350" height="212" fill="none" viewBox="0 0 350 212"><g filter="url(#a)"><g clip-path="url(#b)"><path fill="#fff" d="M1 11C1 5.477 5.477 1 11 1h338v210H1z"/><rect width="120" height="17" x="13" y="13" fill="#f95a5c" fill-opacity=".2" rx="2"/><path fill="#f95a5c" d="M19.5 20.167v4.166h5.417v-4.166zm5-.834h.833c.23 0 .417.187.417.417v5c0 .23-.186.416-.417.416h-6.666a.417.417 0 0 1-.417-.416v-5c0-.23.186-.417.417-.417h.833v-.416a2.5 2.5 0 0 1 5 0zm-.833 0v-.416a1.667 1.667 0 1 0-3.334 0v.416zm-3.75 1.25h.833v.834h-.833zm0 1.25h.833v.834h-.833zm0 1.25h.833v.834h-.833zM29.824 25v-5.6h2.2C33.8 19.4 35 20.688 35 22.2S33.8 25 32.024 25zm2.216-4.568h-1.08v3.536h1.08c1.04 0 1.792-.776 1.792-1.768 0-1-.752-1.768-1.792-1.768m6.932-1.192c1.76 0 2.968 1.36 2.968 2.96s-1.208 2.96-2.968 2.96c-1.768 0-2.976-1.36-2.976-2.96s1.208-2.96 2.976-2.96m0 4.856c1.048 0 1.8-.824 1.8-1.896s-.752-1.896-1.8-1.896c-1.056 0-1.808.824-1.808 1.896s.752 1.896 1.808 1.896M43.27 25v-5.6h1.456l2.504 4.048V19.4h1.136V25h-1.456l-2.504-4.048V25zm6.902 0v-5.6h1.456l2.504 4.048V19.4h1.136V25h-1.456l-2.504-4.048V25zm9.038-6.08h-1.032l.904-1.08h1.168zM57.073 25v-5.6h3.264v.944H58.21v1.328h1.808v.944H58.21v1.44h2.128V25zm4.824 0v-5.6h3.264v.944h-2.128v1.328h1.808v.944h-1.808v1.44h2.128V25zm4.32-.776.825-.76c.335.432.784.688 1.24.688.448 0 .72-.24.72-.64 0-1.032-2.544-.752-2.544-2.648 0-.888.736-1.624 1.808-1.624.84 0 1.48.376 1.96.944l-.832.752c-.329-.424-.697-.704-1.12-.704-.4 0-.665.256-.665.592 0 1.016 2.544.728 2.544 2.648-.016 1.056-.832 1.688-1.864 1.688-.944 0-1.576-.344-2.072-.936m7.684.776v-5.6h1.712c1.232 0 1.992.632 1.992 1.672 0 .68-.328 1.184-.904 1.448L78.453 25h-1.336l-1.496-2.264h-.584V25zm1.776-4.656h-.64v1.448h.64c.48 0 .76-.28.76-.736 0-.424-.28-.712-.76-.712M79.412 25v-5.6h3.264v.944h-2.128v1.328h1.808v.944h-1.808v1.44h2.128V25zm4.32-.776.825-.76c.335.432.784.688 1.24.688.448 0 .72-.24.72-.64 0-1.032-2.544-.752-2.544-2.648 0-.888.736-1.624 1.808-1.624.84 0 1.48.376 1.96.944l-.832.752c-.329-.424-.697-.704-1.12-.704-.4 0-.665.256-.665.592 0 1.016 2.544.728 2.544 2.648-.016 1.056-.832 1.688-1.864 1.688-.944 0-1.576-.344-2.072-.936m4.753-3.792V19.4h4.592v1.032h-1.728V25h-1.136v-4.568zM94.315 25v-5.6h1.711c1.232 0 1.992.632 1.992 1.672 0 .68-.328 1.184-.904 1.448L98.866 25H97.53l-1.496-2.264h-.584V25zm1.775-4.656h-.64v1.448h.64c.48 0 .76-.28.76-.736 0-.424-.28-.712-.76-.712M99.826 25v-5.6h3.264v.944h-2.128v1.328h1.808v.944h-1.808v1.44h2.128V25zm4.824 0v-5.6h1.136V25zm2.941 0v-5.6h1.456l2.504 4.048V19.4h1.136V25h-1.456l-2.504-4.048V25zm6.326-4.568V19.4h4.592v1.032h-1.728V25h-1.136v-4.568zm5.83 4.568v-5.6h3.264v.944h-2.128v1.328h1.808v.944h-1.808v1.44h2.128V25zm4.32-.776.824-.76c.336.432.784.688 1.24.688.448 0 .72-.24.72-.64 0-1.032-2.544-.752-2.544-2.648 0-.888.736-1.624 1.808-1.624.84 0 1.48.376 1.96.944l-.832.752c-.328-.424-.696-.704-1.12-.704-.4 0-.664.256-.664.592 0 1.016 2.544.728 2.544 2.648-.016 1.056-.832 1.688-1.864 1.688-.944 0-1.576-.344-2.072-.936"/><path fill="#161616" d="M17.98 50.644c.96 0 1.716-.468 2.196-1.152l1.344 1.032c-.768 1.044-2.016 1.716-3.54 1.716-2.652 0-4.464-2.04-4.464-4.44s1.812-4.44 4.464-4.44c1.524 0 2.772.684 3.54 1.704l-1.344 1.044c-.48-.684-1.236-1.152-2.196-1.152-1.584 0-2.712 1.236-2.712 2.844s1.128 2.844 2.712 2.844m10.266.372c-.564.756-1.5 1.224-2.64 1.224-2.148 0-3.36-1.5-3.36-3.264 0-1.788 1.128-3.264 3.108-3.264 1.68 0 2.784 1.14 2.784 2.724 0 .336-.048.648-.096.852h-4.236c.144 1.128.84 1.584 1.788 1.584.66 0 1.236-.288 1.56-.72zm-2.928-4.056c-.78 0-1.296.432-1.464 1.224h2.784c-.024-.612-.468-1.224-1.32-1.224m3.699 4.164 1.008-.912c.372.468.816.804 1.392.804.492 0 .744-.288.744-.648 0-1.056-2.892-.66-2.892-2.784 0-1.068.9-1.872 2.16-1.872.924 0 1.764.444 2.196 1.032l-1.008.888c-.312-.384-.708-.696-1.176-.696-.48 0-.708.264-.708.576 0 1.032 2.892.672 2.892 2.76-.024 1.272-1.044 1.968-2.184 1.968-1.08 0-1.848-.432-2.424-1.116m8.815-2.148c0-1.764 1.164-3.264 3.072-3.264.816 0 1.404.252 1.872.72V43h1.536v9h-1.536v-.48c-.468.468-1.056.72-1.872.72-1.908 0-3.072-1.5-3.072-3.264m1.596 0c0 1.056.66 1.824 1.692 1.824.684 0 1.248-.288 1.656-.84v-1.968c-.408-.552-.972-.84-1.656-.84-1.032 0-1.692.768-1.692 1.824m9.59-3.264c1.969 0 3.313 1.452 3.313 3.264s-1.344 3.264-3.312 3.264-3.312-1.452-3.312-3.264 1.344-3.264 3.312-3.264m.025 5.088c.972 0 1.704-.78 1.704-1.824 0-1.056-.732-1.824-1.704-1.824-1.008 0-1.752.768-1.752 1.824s.744 1.824 1.752 1.824M53.72 52v-6.048h1.524v.48c.42-.408.984-.72 1.788-.72 1.308 0 2.352.9 2.352 2.688V52h-1.536v-3.54c0-.804-.456-1.308-1.2-1.308-.768 0-1.176.516-1.404.9V52zm7.394 0v-6.048h1.524v.48c.42-.408.984-.72 1.788-.72 1.308 0 2.352.9 2.352 2.688V52h-1.536v-3.54c0-.804-.456-1.308-1.2-1.308-.768 0-1.176.516-1.404.9V52zm10.91-7.008h-1.463L71.81 43h1.656zm2.053 6.024c-.564.756-1.5 1.224-2.64 1.224-2.148 0-3.36-1.5-3.36-3.264 0-1.788 1.128-3.264 3.108-3.264 1.68 0 2.784 1.14 2.784 2.724 0 .336-.048.648-.096.852h-4.236c.144 1.128.84 1.584 1.788 1.584.66 0 1.236-.288 1.56-.72zM71.15 46.96c-.78 0-1.296.432-1.464 1.224h2.784c-.024-.612-.468-1.224-1.32-1.224m9.83 4.056c-.564.756-1.5 1.224-2.64 1.224-2.148 0-3.36-1.5-3.36-3.264 0-1.788 1.128-3.264 3.108-3.264 1.68 0 2.784 1.14 2.784 2.724 0 .336-.048.648-.096.852H76.54c.144 1.128.84 1.584 1.788 1.584.66 0 1.236-.288 1.56-.72zm-2.928-4.056c-.78 0-1.296.432-1.464 1.224h2.784c-.024-.612-.468-1.224-1.32-1.224m3.7 4.164 1.007-.912c.372.468.816.804 1.392.804.492 0 .744-.288.744-.648 0-1.056-2.892-.66-2.892-2.784 0-1.068.9-1.872 2.16-1.872.924 0 1.764.444 2.196 1.032l-1.008.888c-.312-.384-.708-.696-1.176-.696-.48 0-.708.264-.708.576 0 1.032 2.892.672 2.892 2.76-.024 1.272-1.044 1.968-2.184 1.968-1.08 0-1.848-.432-2.424-1.116m9.246.876v-6.048h1.524v.48c.42-.408.984-.72 1.788-.72 1.308 0 2.352.9 2.352 2.688V52h-1.536v-3.54c0-.804-.456-1.308-1.2-1.308-.768 0-1.176.516-1.404.9V52zm12.962-.984c-.564.756-1.5 1.224-2.64 1.224-2.147 0-3.36-1.5-3.36-3.264 0-1.788 1.129-3.264 3.108-3.264 1.68 0 2.784 1.14 2.784 2.724 0 .336-.048.648-.096.852H99.52c.145 1.128.84 1.584 1.788 1.584.66 0 1.236-.288 1.56-.72zm-2.928-4.056c-.78 0-1.295.432-1.463 1.224h2.783c-.024-.612-.468-1.224-1.32-1.224m7.016 4.164 1.008-.912c.372.468.816.804 1.392.804.492 0 .744-.288.744-.648 0-1.056-2.892-.66-2.892-2.784 0-1.068.9-1.872 2.16-1.872.924 0 1.764.444 2.196 1.032l-1.008.888c-.312-.384-.708-.696-1.176-.696-.48 0-.708.264-.708.576 0 1.032 2.892.672 2.892 2.76-.024 1.272-1.044 1.968-2.184 1.968-1.08 0-1.848-.432-2.424-1.116m8.869-5.412c1.968 0 3.312 1.452 3.312 3.264s-1.344 3.264-3.312 3.264-3.312-1.452-3.312-3.264 1.344-3.264 3.312-3.264m.024 5.088c.972 0 1.704-.78 1.704-1.824 0-1.056-.732-1.824-1.704-1.824-1.008 0-1.752.768-1.752 1.824s.744 1.824 1.752 1.824m4.678 1.2v-6.048h1.524v.48c.42-.408.984-.72 1.788-.72 1.308 0 2.352.9 2.352 2.688V52h-1.536v-3.54c0-.804-.456-1.308-1.2-1.308-.768 0-1.176.516-1.404.9V52zm7.779-2.208V47.32h-1.128v-1.368h1.128V44.44h1.536v1.512h1.848v1.368h-1.848v2.472c0 .672.36.936.96.936.42 0 .696-.048.9-.132v1.332c-.3.132-.66.192-1.164.192-1.512 0-2.232-.852-2.232-2.328m9.687 2.388c-1.212 0-2.04-.696-2.04-1.812 0-.912.708-1.596 2.004-1.812l1.848-.312v-.156c0-.636-.48-1.044-1.176-1.044-.588 0-1.044.276-1.368.72l-1.116-.852c.54-.744 1.428-1.2 2.532-1.2 1.752 0 2.652 1.044 2.652 2.376V52h-1.524v-.588c-.384.468-1.104.768-1.812.768m-.528-1.884c0 .408.324.672.84.672.696 0 1.2-.324 1.5-.804v-.852l-1.44.24c-.636.108-.9.372-.9.744m8.513.504c.6 0 1.08-.276 1.368-.696l1.188.912c-.564.744-1.452 1.224-2.556 1.224-2.088 0-3.336-1.5-3.336-3.264s1.248-3.264 3.336-3.264c1.104 0 1.992.48 2.556 1.224l-1.188.912c-.288-.42-.768-.696-1.392-.696-.996 0-1.728.768-1.728 1.824 0 1.068.732 1.824 1.752 1.824m6.363 0c.6 0 1.08-.276 1.368-.696l1.188.912c-.564.744-1.452 1.224-2.556 1.224-2.088 0-3.336-1.5-3.336-3.264s1.248-3.264 3.336-3.264c1.104 0 1.992.48 2.556 1.224l-1.188.912c-.288-.42-.768-.696-1.392-.696-.996 0-1.728.768-1.728 1.824 0 1.068.732 1.824 1.752 1.824m9.027.216c-.564.756-1.5 1.224-2.64 1.224-2.148 0-3.36-1.5-3.36-3.264 0-1.788 1.128-3.264 3.108-3.264 1.68 0 2.784 1.14 2.784 2.724 0 .336-.048.648-.096.852h-4.236c.144 1.128.84 1.584 1.788 1.584.66 0 1.236-.288 1.56-.72zm-2.928-4.056c-.78 0-1.296.432-1.464 1.224h2.784c-.024-.612-.468-1.224-1.32-1.224m3.7 4.164 1.008-.912c.372.468.816.804 1.392.804.492 0 .744-.288.744-.648 0-1.056-2.892-.66-2.892-2.784 0-1.068.9-1.872 2.16-1.872.924 0 1.764.444 2.196 1.032l-1.008.888c-.312-.384-.708-.696-1.176-.696-.48 0-.708.264-.708.576 0 1.032 2.892.672 2.892 2.76-.024 1.272-1.044 1.968-2.184 1.968-1.08 0-1.848-.432-2.424-1.116m5.402 0 1.008-.912c.372.468.816.804 1.392.804.492 0 .744-.288.744-.648 0-1.056-2.892-.66-2.892-2.784 0-1.068.9-1.872 2.16-1.872.924 0 1.764.444 2.196 1.032l-1.008.888c-.312-.384-.708-.696-1.176-.696-.48 0-.708.264-.708.576 0 1.032 2.892.672 2.892 2.76-.024 1.272-1.044 1.968-2.184 1.968-1.08 0-1.848-.432-2.424-1.116m6.78-6.228a1.01 1.01 0 0 1-.996-.996c0-.54.456-.996.996-.996s.984.456.984.996-.444.996-.984.996M174.646 52v-6.048h1.524V52zm9.832-3.024c0 1.764-1.152 3.264-3.072 3.264-.828 0-1.416-.264-1.884-.732V52h-1.524v-9h1.524v3.444c.468-.468 1.056-.732 1.884-.732 1.92 0 3.072 1.5 3.072 3.264m-3.288-1.824c-.708 0-1.296.312-1.668.864v1.92c.408.564.984.864 1.668.864 1.032 0 1.704-.768 1.704-1.824s-.672-1.824-1.704-1.824M185.873 52v-9h1.524v9zm8.92-.984c-.564.756-1.5 1.224-2.64 1.224-2.148 0-3.36-1.5-3.36-3.264 0-1.788 1.128-3.264 3.108-3.264 1.68 0 2.784 1.14 2.784 2.724 0 .336-.048.648-.096.852h-4.236c.144 1.128.84 1.584 1.788 1.584.66 0 1.236-.288 1.56-.72zm-2.928-4.056c-.78 0-1.296.432-1.464 1.224h2.784c-.024-.612-.468-1.224-1.32-1.224m3.699 4.164 1.008-.912c.372.468.816.804 1.392.804.492 0 .744-.288.744-.648 0-1.056-2.892-.66-2.892-2.784 0-1.068.9-1.872 2.16-1.872.924 0 1.764.444 2.196 1.032l-1.008.888c-.312-.384-.708-.696-1.176-.696-.48 0-.708.264-.708.576 0 1.032 2.892.672 2.892 2.76-.024 1.272-1.044 1.968-2.184 1.968-1.08 0-1.848-.432-2.424-1.116m8.814-2.148c0-1.764 1.152-3.264 3.072-3.264.816 0 1.404.264 1.872.732v-.492h1.536v9h-1.536v-3.444c-.468.468-1.056.732-1.872.732-1.92 0-3.072-1.5-3.072-3.264m1.584 0c0 1.056.66 1.824 1.692 1.824.708 0 1.296-.312 1.668-.864v-1.92c-.408-.564-.984-.864-1.668-.864-1.032 0-1.692.768-1.692 1.824m10.707.408v-3.432h1.536v3.36c0 1.812-1.056 2.928-2.832 2.928s-2.82-1.116-2.82-2.928v-3.36h1.536v3.432c0 .876.456 1.416 1.296 1.416.828 0 1.284-.54 1.284-1.416m8.791 1.632c-.564.756-1.5 1.224-2.64 1.224-2.148 0-3.36-1.5-3.36-3.264 0-1.788 1.128-3.264 3.108-3.264 1.68 0 2.784 1.14 2.784 2.724 0 .336-.048.648-.096.852h-4.236c.144 1.128.84 1.584 1.788 1.584.66 0 1.236-.288 1.56-.72zm-2.928-4.056c-.78 0-1.296.432-1.464 1.224h2.784c-.024-.612-.468-1.224-1.32-1.224m7.016 4.164 1.008-.912c.372.468.816.804 1.392.804.492 0 .744-.288.744-.648 0-1.056-2.892-.66-2.892-2.784 0-1.068.9-1.872 2.16-1.872.924 0 1.764.444 2.196 1.032l-1.008.888c-.312-.384-.708-.696-1.176-.696-.48 0-.708.264-.708.576 0 1.032 2.892.672 2.892 2.76-.024 1.272-1.044 1.968-2.184 1.968-1.08 0-1.848-.432-2.424-1.116m9.996-1.74v-3.432h1.536v3.36c0 1.812-1.056 2.928-2.832 2.928s-2.82-1.116-2.82-2.928v-3.36h1.536v3.432c0 .876.456 1.416 1.296 1.416.828 0 1.284-.54 1.284-1.416M242.767 52v-6.048h1.524v.6c.396-.408.912-.72 1.596-.72.204 0 .384.036.528.084v1.5a2.6 2.6 0 0 0-.672-.084c-.744 0-1.224.408-1.452.792V52zm8.11 0v-9h1.524v3.432c.42-.408.984-.72 1.788-.72 1.308 0 2.352.9 2.352 2.688V52h-1.536v-3.54c0-.804-.444-1.308-1.2-1.308-.768 0-1.176.516-1.404.9V52zm9.098.18c-1.212 0-2.04-.696-2.04-1.812 0-.912.708-1.596 2.004-1.812l1.848-.312v-.156c0-.636-.48-1.044-1.176-1.044-.588 0-1.044.276-1.368.72l-1.116-.852c.54-.744 1.428-1.2 2.532-1.2 1.752 0 2.652 1.044 2.652 2.376V52h-1.524v-.588c-.384.468-1.104.768-1.812.768m-.528-1.884c0 .408.324.672.84.672.696 0 1.2-.324 1.5-.804v-.852l-1.44.24c-.636.108-.9.372-.9.744m12.09-1.32c0 1.764-1.152 3.264-3.072 3.264-.828 0-1.416-.264-1.884-.732V52h-1.524v-9h1.524v3.444c.468-.468 1.056-.732 1.884-.732 1.92 0 3.072 1.5 3.072 3.264m-3.288-1.824c-.708 0-1.296.312-1.668.864v1.92c.408.564.984.864 1.668.864 1.032 0 1.704-.768 1.704-1.824s-.672-1.824-1.704-1.824m5.451-2.256a1.01 1.01 0 0 1-.996-.996c0-.54.456-.996.996-.996s.984.456.984.996-.444.996-.984.996M272.932 52v-6.048h1.524V52zm3.351 0v-9h1.524v9zm4.12-7.104a1.01 1.01 0 0 1-.996-.996c0-.54.456-.996.996-.996s.984.456.984.996-.444.996-.984.996M279.635 52v-6.048h1.524V52zm3.735-2.208V47.32h-1.128v-1.368h1.128V44.44h1.536v1.512h1.848v1.368h-1.848v2.472c0 .672.36.936.96.936.42 0 .696-.048.9-.132v1.332c-.3.132-.66.192-1.164.192-1.512 0-2.232-.852-2.232-2.328m6.453 2.388c-1.212 0-2.04-.696-2.04-1.812 0-.912.708-1.596 2.004-1.812l1.848-.312v-.156c0-.636-.48-1.044-1.176-1.044-.588 0-1.044.276-1.368.72l-1.116-.852c.54-.744 1.428-1.2 2.532-1.2 1.752 0 2.652 1.044 2.652 2.376V52h-1.524v-.588c-.384.468-1.104.768-1.812.768m-.528-1.884c0 .408.324.672.84.672.696 0 1.2-.324 1.5-.804v-.852l-1.44.24c-.636.108-.9.372-.9.744m5.993-.504V47.32h-1.128v-1.368h1.128V44.44h1.536v1.512h1.848v1.368h-1.848v2.472c0 .672.36.936.96.936.42 0 .696-.048.9-.132v1.332c-.3.132-.66.192-1.164.192-1.512 0-2.232-.852-2.232-2.328m5.517-4.896a1.01 1.01 0 0 1-.996-.996c0-.54.456-.996.996-.996s.984.456.984.996-.444.996-.984.996M300.037 52v-6.048h1.524V52zm6.232-6.288c1.968 0 3.312 1.452 3.312 3.264s-1.344 3.264-3.312 3.264-3.312-1.452-3.312-3.264 1.344-3.264 3.312-3.264m.024 5.088c.972 0 1.704-.78 1.704-1.824 0-1.056-.732-1.824-1.704-1.824-1.008 0-1.752.768-1.752 1.824s.744 1.824 1.752 1.824m4.678 1.2v-6.048h1.524v.48c.42-.408.984-.72 1.788-.72 1.308 0 2.352.9 2.352 2.688V52h-1.536v-3.54c0-.804-.456-1.308-1.2-1.308-.768 0-1.176.516-1.404.9V52z"/><g clip-path="url(#c)"><path fill="#fff" d="M1 68h100v42H1z"/><path fill="#3a3a3a" d="M14.044 93v-7.094h1.439V93zm3.523 0v-7.094h2.787c2.25 0 3.77 1.632 3.77 3.547S22.603 93 20.353 93zm2.807-5.786h-1.368v4.479h1.368c1.317 0 2.27-.983 2.27-2.24 0-1.266-.953-2.24-2.27-2.24"/><path fill="#cecece" d="M86.5 88.5h-7v1h7z"/><path stroke="#3a3a3a" stroke-width="1.448" d="M1 109.276h100"/><path fill="#fff" d="M1 110h100v42H1z"/><path fill="#666" d="M13 124h46v14H13z"/><path stroke="#e5e5e5" stroke-width=".724" d="M1 151.638h100"/><path fill="#f6f6f6" d="M1 152h100v42H1z"/><path fill="#666" d="M13 166h56v14H13z"/><path stroke="#e5e5e5" stroke-width=".724" d="M1 193.638h100"/><path fill="#fff" d="M1 194h100v42H1z"/><path fill="#666" d="M13 208h56v14H13z"/><path fill="#fff" d="M101 68h110v42H101z"/><path fill="#3a3a3a" d="m113.405 92.017 1.044-.963c.426.548.993.872 1.571.872.567 0 .912-.304.912-.81 0-1.308-3.223-.953-3.223-3.355 0-1.125.933-2.057 2.291-2.057 1.064 0 1.874.476 2.482 1.196l-1.054.952c-.415-.537-.881-.892-1.418-.892-.507 0-.841.325-.841.75 0 1.287 3.222.922 3.222 3.355-.02 1.337-1.054 2.138-2.361 2.138-1.196 0-1.996-.436-2.625-1.186m6.479-.882v-2.087h-.953v-1.155h.953v-1.277h1.297v1.277h1.56v1.155h-1.56v2.087c0 .568.304.79.81.79.355 0 .588-.04.76-.11v1.124c-.253.112-.557.162-.983.162-1.276 0-1.884-.72-1.884-1.966m5.449 2.017c-1.024 0-1.723-.588-1.723-1.53 0-.77.598-1.348 1.692-1.53l1.561-.264v-.132c0-.537-.405-.881-.993-.881-.497 0-.882.233-1.155.608l-.943-.72c.456-.628 1.206-1.013 2.138-1.013 1.48 0 2.24.882 2.24 2.007V93h-1.287v-.496c-.324.395-.932.648-1.53.648m-.446-1.591c0 .345.273.567.709.567.588 0 1.014-.273 1.267-.678v-.72l-1.216.203c-.537.091-.76.314-.76.628m5.061-.426v-2.087h-.953v-1.155h.953v-1.277h1.297v1.277h1.561v1.155h-1.561v2.087c0 .568.304.79.811.79.354 0 .587-.04.76-.11v1.124c-.254.112-.558.162-.983.162-1.277 0-1.885-.72-1.885-1.966m7.364-.344v-2.898h1.298v2.837c0 1.53-.892 2.473-2.392 2.473s-2.381-.943-2.381-2.473v-2.837h1.297v2.898c0 .74.385 1.196 1.094 1.196.699 0 1.084-.456 1.084-1.196m3.126.344v-2.087h-.953v-1.155h.953v-1.277h1.297v1.277h1.56v1.155h-1.56v2.087c0 .568.304.79.81.79.355 0 .588-.04.76-.11v1.124c-.253.112-.557.162-.983.162-1.276 0-1.884-.72-1.884-1.966"/><path fill="#cecece" d="M196.5 88.5h-7v1h7z"/><path stroke="#3a3a3a" stroke-width="1.448" d="M101 109.276h110"/><path fill="#fff" d="M101 110h110v42H101z"/><path fill="#666" d="M113 124h76v14h-76z"/><path stroke="#e5e5e5" stroke-width=".724" d="M101 151.638h110"/><path fill="#f6f6f6" d="M101 152h110v42H101z"/><path fill="#666" d="M113 166h56v14h-56z"/><path stroke="#e5e5e5" stroke-width=".724" d="M101 193.638h110"/><path fill="#fff" d="M101 194h110v42H101z"/><path fill="#666" d="M113 208h66v14h-66z"/><path fill="#fff" d="M211 68h160v42H211z"/><path fill="#3a3a3a" d="M224.044 93v-7.094h2.786c2.25 0 3.77 1.632 3.77 3.547S229.08 93 226.83 93zm2.807-5.786h-1.368v4.479h1.368c1.317 0 2.27-.983 2.27-2.24 0-1.266-.953-2.24-2.27-2.24m6.265 5.938c-1.023 0-1.723-.588-1.723-1.53 0-.77.598-1.348 1.693-1.53l1.56-.264v-.132c0-.537-.405-.881-.993-.881-.496 0-.882.233-1.155.608l-.943-.72c.456-.628 1.206-1.013 2.139-1.013 1.479 0 2.239.882 2.239 2.007V93h-1.287v-.496c-.324.395-.932.648-1.53.648m-.446-1.591c0 .345.274.567.71.567.587 0 1.013-.273 1.266-.678v-.72l-1.216.203c-.537.091-.76.314-.76.628m5.061-.426v-2.087h-.952v-1.155h.952v-1.277h1.297v1.277h1.561v1.155h-1.561v2.087c0 .568.304.79.811.79.355 0 .588-.04.76-.11v1.124c-.253.112-.557.162-.983.162-1.277 0-1.885-.72-1.885-1.966m8.613 1.034c-.476.639-1.266 1.034-2.229 1.034-1.814 0-2.837-1.267-2.837-2.757 0-1.51.952-2.756 2.624-2.756 1.419 0 2.351.963 2.351 2.3 0 .284-.04.548-.081.72h-3.577c.122.952.709 1.337 1.51 1.337.557 0 1.044-.243 1.317-.608zm-2.472-3.425c-.659 0-1.095.365-1.237 1.034h2.351c-.02-.517-.395-1.034-1.114-1.034"/><path stroke="#3a3a3a" stroke-width="1.448" d="M211 109.276h160"/><path fill="#fff" d="M211 110h160v42H211z"/><path fill="#666" d="M223 124h111.545v14H223z"/><path stroke="#e5e5e5" stroke-width=".724" d="M211 151.638h160"/><path fill="#f6f6f6" d="M211 152h160v42H211z"/><path fill="#666" d="M223 166h91.545v14H223z"/><path stroke="#e5e5e5" stroke-width=".724" d="M211 193.638h95.545"/><path fill="#fff" d="M211 194h160v42H211z"/><path fill="#666" d="M223 208h101.545v14H223z"/></g></g></g><defs><clipPath id="b"><path fill="#fff" d="M1 11C1 5.477 5.477 1 11 1h338v210H1z"/></clipPath><clipPath id="c"><path fill="#fff" d="M1 68h348v168H1z"/></clipPath><filter id="a" width="350" height="212" x="0" y="0" color-interpolation-filters="sRGB" filterUnits="userSpaceOnUse"><feFlood flood-opacity="0" result="BackgroundImageFix"/><feColorMatrix in="SourceAlpha" result="hardAlpha" values="0 0 0 0 0 0 0 0 0 0 0 0 0 0 0 0 0 0 127 0"/><feMorphology in="SourceAlpha" operator="dilate" radius="1" result="effect1_dropShadow_2656_9221"/><feOffset/><feComposite in2="hardAlpha" operator="out"/><feColorMatrix values="0 0 0 0 0.149038 0 0 0 0 0.145083 0 0 0 0 0.11763 0 0 0 0.1 0"/><feBlend in2="BackgroundImageFix" result="effect1_dropShadow_2656_9221"/><feBlend in="SourceGraphic" in2="effect1_dropShadow_2656_9221" result="shape"/></filter></defs></svg>