<svg xmlns="http://www.w3.org/2000/svg" width="350" height="212" fill="none" viewBox="0 0 350 212"><g filter="url(#a)"><g clip-path="url(#b)"><path fill="#fff" d="M1 11C1 5.477 5.477 1 11 1h338v210H1z"/><g clip-path="url(#c)"><rect width="152" height="22" x="13" y="13" fill="#eee" rx="11"/><path fill="#161616" d="M26.616 27.17c-.47.63-1.22 1.03-2.16 1.03-1.7 0-2.75-1.25-2.75-2.72 0-1.53.98-2.72 2.54-2.72 1.37 0 2.26.96 2.26 2.2 0 .2-.03.39-.06.53h-3.87c.03 1.21.8 1.94 1.88 1.94.65 0 1.2-.3 1.53-.75zm-2.39-3.69c-.83 0-1.41.49-1.59 1.36h3.02c-.03-.74-.54-1.36-1.43-1.36m3.982 2.83v-2.58h-.95v-.77h.95V21.7h.86v1.26h1.75v.77h-1.75v2.58c0 .79.4 1.01 1.01 1.01.33 0 .56-.04.75-.12v.76c-.24.1-.51.14-.87.14-1.12 0-1.75-.56-1.75-1.79m5.279 1.83c-.99 0-1.66-.55-1.66-1.41 0-.76.58-1.3 1.65-1.48l1.7-.28v-.35c0-.7-.5-1.1-1.22-1.1-.58 0-1.05.27-1.36.7l-.64-.49c.44-.6 1.15-.97 2.03-.97 1.28 0 2.04.75 2.04 1.86V28h-.85v-.64c-.38.49-1.04.78-1.69.78m-.8-1.44c0 .43.35.74.94.74.67 0 1.22-.32 1.55-.86v-.99l-1.49.25c-.69.12-1 .43-1 .86m5.045 1.3v-7.5h.85V28zm4.017.14c-.99 0-1.66-.55-1.66-1.41 0-.76.58-1.3 1.65-1.48l1.7-.28v-.35c0-.7-.5-1.1-1.22-1.1-.58 0-1.05.27-1.36.7l-.64-.49c.44-.6 1.15-.97 2.03-.97 1.28 0 2.04.75 2.04 1.86V28h-.85v-.64c-.38.49-1.04.78-1.69.78m-.8-1.44c0 .43.35.74.94.74.67 0 1.22-.32 1.55-.86v-.99l-1.49.25c-.69.12-1 .43-1 .86m10.275-1.22c0 1.47-1.01 2.72-2.59 2.72-.75 0-1.34-.29-1.79-.8v.6h-.85v-7.5h.85v3.06c.45-.51 1.04-.8 1.79-.8 1.58 0 2.59 1.25 2.59 2.72m-2.69-1.92c-.7 0-1.32.34-1.69.93v1.98c.39.6 1 .93 1.69.93 1.07 0 1.8-.85 1.8-1.92s-.73-1.92-1.8-1.92m3.311 6.41 2.42-9.47h.86l-2.42 9.47zm3.754-2.7.84-.76c.31.39.68.67 1.16.67.41 0 .62-.24.62-.54 0-.88-2.41-.55-2.41-2.32 0-.89.75-1.56 1.8-1.56.77 0 1.47.37 1.83.86l-.84.74c-.26-.32-.59-.58-.98-.58-.4 0-.59.22-.59.48 0 .86 2.41.56 2.41 2.3-.02 1.06-.87 1.64-1.82 1.64-.9 0-1.54-.36-2.02-.93M63.01 27c.5 0 .9-.23 1.14-.58l.99.76c-.47.62-1.21 1.02-2.13 1.02-1.74 0-2.78-1.25-2.78-2.72s1.04-2.72 2.78-2.72c.92 0 1.66.4 2.13 1.02l-.99.76c-.24-.35-.64-.58-1.16-.58-.83 0-1.44.64-1.44 1.52 0 .89.61 1.52 1.46 1.52m3.078 1v-7.5h1.27v2.86c.35-.34.82-.6 1.49-.6 1.09 0 1.96.75 1.96 2.24v3h-1.28v-2.95c0-.67-.37-1.09-1-1.09-.64 0-.98.43-1.17.75V28zm10.802-.82c-.47.63-1.25 1.02-2.2 1.02-1.79 0-2.8-1.25-2.8-2.72 0-1.49.94-2.72 2.59-2.72 1.4 0 2.32.95 2.32 2.27 0 .28-.04.54-.08.71h-3.53c.12.94.7 1.32 1.49 1.32.55 0 1.03-.24 1.3-.6zm-2.44-3.38c-.65 0-1.08.36-1.22 1.02h2.32c-.02-.51-.39-1.02-1.1-1.02m3.591 4.2v-5.04h1.27v.38c.34-.33.77-.58 1.39-.58.64 0 1.2.28 1.53.82.36-.44.84-.82 1.69-.82 1.04 0 1.86.72 1.86 2.14V28h-1.28v-3.05c0-.61-.33-.99-.9-.99-.55 0-.85.38-1.05.72.01.07.01.14.01.22V28h-1.28v-3.05c0-.61-.33-.99-.9-.99-.58 0-.88.43-1.07.75V28zm10.61.15c-1.01 0-1.7-.58-1.7-1.51 0-.76.59-1.33 1.67-1.51l1.54-.26v-.13c0-.53-.4-.87-.98-.87-.49 0-.87.23-1.14.6l-.93-.71c.45-.62 1.19-1 2.11-1 1.46 0 2.21.87 2.21 1.98V28h-1.27v-.49c-.32.39-.92.64-1.51.64m-.44-1.57c0 .34.27.56.7.56.58 0 1-.27 1.25-.67v-.71l-1.2.2c-.53.09-.75.31-.75.62m4.114-1.75h2.7v1.23h-2.7zm4.296-2.75c-.45 0-.83-.38-.83-.83s.38-.83.83-.83.82.38.82.83-.37.83-.82.83M95.98 28v-5.04h1.27V28zm2.793 0v-5.04h1.27v.5c.33-.34.76-.6 1.33-.6.17 0 .32.03.44.07v1.25c-.16-.04-.33-.07-.56-.07-.62 0-1.02.34-1.21.66V28zm3.596-5.04h1.36l1.31 3.6 1.3-3.6h1.37L105.87 28h-1.67zm10.721 4.22c-.47.63-1.25 1.02-2.2 1.02-1.79 0-2.8-1.25-2.8-2.72 0-1.49.94-2.72 2.59-2.72 1.4 0 2.32.95 2.32 2.27 0 .28-.04.54-.08.71h-3.53c.12.94.7 1.32 1.49 1.32.55 0 1.03-.24 1.3-.6zm-2.44-3.38c-.65 0-1.08.36-1.22 1.02h2.32c-.02-.51-.39-1.02-1.1-1.02m3.207 1.03h2.7v1.23h-2.7zm3.216 2.44.84-.76c.31.39.68.67 1.16.67.41 0 .62-.24.62-.54 0-.88-2.41-.55-2.41-2.32 0-.89.75-1.56 1.8-1.56.77 0 1.47.37 1.83.86l-.84.74c-.26-.32-.59-.58-.98-.58-.4 0-.59.22-.59.48 0 .86 2.41.56 2.41 2.3-.02 1.06-.87 1.64-1.82 1.64-.9 0-1.54-.36-2.02-.93m5.408-1.11V24.1h-.94v-1.14h.94V21.7h1.28v1.26h1.54v1.14h-1.54v2.06c0 .56.3.78.8.78.35 0 .58-.04.75-.11v1.11c-.25.11-.55.16-.97.16-1.26 0-1.86-.71-1.86-1.94m5.378 1.99c-1.01 0-1.7-.58-1.7-1.51 0-.76.59-1.33 1.67-1.51l1.54-.26v-.13c0-.53-.4-.87-.98-.87-.49 0-.87.23-1.14.6l-.93-.71c.45-.62 1.19-1 2.11-1 1.46 0 2.21.87 2.21 1.98V28h-1.27v-.49c-.32.39-.92.64-1.51.64m-.44-1.57c0 .34.27.56.7.56.58 0 1-.27 1.25-.67v-.71l-1.2.2c-.53.09-.75.31-.75.62m4.994-.42V24.1h-.94v-1.14h.94V21.7h1.28v1.26h1.54v1.14h-1.54v2.06c0 .56.3.78.8.78.35 0 .58-.04.75-.11v1.11c-.25.11-.55.16-.97.16-1.26 0-1.86-.71-1.86-1.94m4.597-4.08c-.45 0-.83-.38-.83-.83s.38-.83.83-.83.82.38.82.83-.37.83-.82.83m-.64 5.92v-5.04h1.27V28zm2.433-2.52c0-1.47.96-2.72 2.56-2.72.68 0 1.17.22 1.56.61v-.41h1.28v7.5h-1.28v-2.87c-.39.39-.88.61-1.56.61-1.6 0-2.56-1.25-2.56-2.72m1.32 0c0 .88.55 1.52 1.41 1.52.59 0 1.08-.26 1.39-.72v-1.6a1.66 1.66 0 0 0-1.39-.72c-.86 0-1.41.64-1.41 1.52m8.923.34v-2.86h1.28v2.8c0 1.51-.88 2.44-2.36 2.44s-2.35-.93-2.35-2.44v-2.8h1.28v2.86c0 .73.38 1.18 1.08 1.18.69 0 1.07-.45 1.07-1.18m7.326 1.36c-.47.63-1.25 1.02-2.2 1.02-1.79 0-2.8-1.25-2.8-2.72 0-1.49.94-2.72 2.59-2.72 1.4 0 2.32.95 2.32 2.27 0 .28-.04.54-.08.71h-3.53c.12.94.7 1.32 1.49 1.32.55 0 1.03-.24 1.3-.6zm-2.44-3.38c-.65 0-1.08.36-1.22 1.02h2.32c-.02-.51-.39-1.02-1.1-1.02"/><g clip-path="url(#d)"><path fill="#fff" d="M13 43h324v30H13z"/><path stroke="#e5e5e5" d="M13 43h324v30H13z"/><path fill="#e5e5e5" d="M23.08 61v-5l-1.13.4-.24-.75 1.66-.88h.84V61z"/><path fill="#000091" d="M37.55 61v-4.65h1.13v.64q.17-.22.37-.39t.44-.26q.25-.1.53-.1.41 0 .75.2.34.19.55.62t.21 1.13V61H40.4v-2.79q0-.39-.08-.63a.66.66 0 0 0-.24-.35.56.56 0 0 0-.36-.12 1 1 0 0 0-.38.08 1 1 0 0 0-.33.22 1.14 1.14 0 0 0-.33.82V61zm7.44.1q-.62 0-1.13-.3a2.2 2.2 0 0 1-.79-.86q-.29-.55-.29-1.27 0-.69.29-1.24t.79-.87q.51-.32 1.13-.32.63 0 1.13.32.51.32.8.87.3.55.3 1.24 0 .72-.3 1.27-.29.55-.8.86-.5.3-1.13.3m0-.9a.9.9 0 0 0 .57-.19 1.36 1.36 0 0 0 .38-.54q.15-.35.15-.8 0-.47-.15-.81-.14-.34-.38-.52a.9.9 0 0 0-.57-.19q-.3 0-.55.19-.24.18-.39.52-.14.34-.14.81 0 .45.14.8.14.34.38.54.25.19.56.19m3.31.8v-4.65h.95v.34q.12-.16.25-.26a.8.8 0 0 1 .27-.14q.15-.05.29-.05.17 0 .32.06.15.05.27.18.13.12.2.32.11-.19.25-.31.14-.13.32-.19.19-.06.41-.06.26 0 .44.09t.29.26q.12.17.17.42t.05.56V61h-.98v-3.19q0-.3-.03-.46-.03-.17-.09-.23a.2.2 0 0 0-.16-.07q-.13 0-.25.13a.9.9 0 0 0-.2.34q-.07.21-.07.5V61h-.92v-3.16q0-.48-.07-.64t-.26-.16q-.09 0-.18.06a.6.6 0 0 0-.15.18q-.06.11-.1.29a1.7 1.7 0 0 0-.04.39V61zm5.51 1.01v-.9h4.38v.9zm7.17-.89q-.77 0-1.2-.36a1.2 1.2 0 0 1-.42-.95q0-.37.16-.68.17-.32.5-.55t.82-.35q.49-.13 1.12-.13h.2q.12 0 .26.01.14 0 .26.02l.03.78a3 3 0 0 0-.24-.01 4 4 0 0 0-.29-.01 3.3 3.3 0 0 0-.92.05q-.27.06-.44.17a.64.64 0 0 0-.33.56q0 .16.05.27a.6.6 0 0 0 .15.18q.1.06.23.09t.28.03q.3 0 .52-.09a.9.9 0 0 0 .38-.31q.16-.21.23-.52.08-.32.08-.75 0-.58-.12-.89t-.35-.43a1.17 1.17 0 0 0-.58-.13q-.32 0-.61.11-.28.1-.55.38l-.62-.68q.39-.37.87-.53t.96-.16q.44 0 .82.1t.66.34q.29.23.45.64.17.4.17 1V61h-1.17v-.5q-.13.17-.28.29t-.32.19-.36.1q-.19.04-.4.04M64.8 61v-4.65h.95v.34q.12-.16.25-.26a.8.8 0 0 1 .27-.14q.15-.05.29-.05.17 0 .32.06.15.05.27.18.13.12.2.32.11-.19.25-.31.14-.13.32-.19.19-.06.41-.06.26 0 .44.09t.29.26q.12.17.17.42t.05.56V61h-.98v-3.19q0-.3-.03-.46-.03-.17-.09-.23a.2.2 0 0 0-.16-.07q-.13 0-.25.13a.9.9 0 0 0-.2.34q-.07.21-.07.5V61h-.92v-3.16q0-.48-.07-.64t-.26-.16q-.09 0-.18.06a.6.6 0 0 0-.15.18q-.06.11-.1.29a1.7 1.7 0 0 0-.04.39V61zm7.91.11q-.5 0-.93-.16a2.2 2.2 0 0 1-.74-.46 2.1 2.1 0 0 1-.48-.76q-.17-.45-.17-1.02 0-.58.17-1.04t.46-.78q.3-.32.7-.48.4-.17.86-.17.41 0 .77.14t.63.43q.28.28.44.71.16.42.16.98 0 .1-.01.24 0 .14-.01.24h-3.08q.02.33.13.57.11.23.29.38t.4.23q.22.07.46.07.21 0 .4-.04a1.2 1.2 0 0 0 .37-.14q.18-.1.34-.26l.58.56q-.22.26-.5.44-.27.17-.59.24-.31.08-.65.08m-1.21-2.98h1.98q0-.24-.07-.43a.8.8 0 0 0-.18-.32.7.7 0 0 0-.3-.19 1 1 0 0 0-.4-.07q-.19 0-.37.06a.8.8 0 0 0-.31.18q-.14.13-.23.32t-.12.45m.92-2.17-.52-.33.83-1.66.79.57zM76.05 61v-4.65h1.13v.64q.17-.22.37-.39t.44-.26q.25-.1.53-.1.41 0 .75.2.34.19.55.62t.21 1.13V61H78.9v-2.79q0-.39-.08-.63a.66.66 0 0 0-.24-.35.56.56 0 0 0-.36-.12 1 1 0 0 0-.38.08 1 1 0 0 0-.33.22 1.14 1.14 0 0 0-.33.82V61zm6.93.12q-.77 0-1.2-.36a1.2 1.2 0 0 1-.42-.95q0-.37.16-.68.17-.32.5-.55t.82-.35q.49-.13 1.12-.13h.2q.12 0 .26.01.14 0 .26.02l.03.78a3 3 0 0 0-.24-.01 4 4 0 0 0-.29-.01 3.3 3.3 0 0 0-.92.05q-.27.06-.44.17a.64.64 0 0 0-.33.56q0 .16.05.27a.6.6 0 0 0 .15.18q.1.06.23.09t.28.03q.3 0 .52-.09a.9.9 0 0 0 .38-.31q.16-.21.23-.52.08-.32.08-.75 0-.58-.12-.89t-.35-.43a1.17 1.17 0 0 0-.58-.13q-.32 0-.61.11-.28.1-.55.38l-.62-.68q.39-.37.87-.53t.96-.16q.44 0 .82.1t.66.34q.29.23.45.64.17.4.17 1V61h-1.17v-.5q-.13.17-.28.29t-.32.19-.36.1q-.19.04-.4.04m5.91 1.67q-.5 0-.89-.09a2.3 2.3 0 0 1-.66-.25 1.25 1.25 0 0 1-.42-.39.9.9 0 0 1-.14-.5q0-.24.12-.45t.32-.36q.21-.16.45-.25l.51.21-.26.2a1 1 0 0 0-.2.2.55.55 0 0 0-.07.28q0 .13.1.23t.28.16q.18.07.42.1t.53.03q.38 0 .64-.07a.94.94 0 0 0 .4-.2.36.36 0 0 0 .14-.28q0-.15-.08-.25-.08-.09-.29-.13a3.3 3.3 0 0 0-.59-.04q-.32 0-.63-.03a4 4 0 0 1-.59-.1 2.3 2.3 0 0 1-.48-.18q-.21-.12-.33-.29a.74.74 0 0 1-.11-.41q0-.33.19-.57.2-.24.48-.44l.52.3q-.1.09-.18.15a.6.6 0 0 0-.11.12q-.04.05-.04.15 0 .12.15.2.16.08.51.12.36.04.93.04.45 0 .75.1.3.09.48.27a1 1 0 0 1 .26.4q.09.22.09.47 0 .3-.13.57-.13.28-.4.5t-.69.35q-.41.13-.98.13m-.09-3.36q-.49 0-.89-.21-.39-.21-.62-.57a1.6 1.6 0 0 1-.22-.82q0-.45.22-.81a1.7 1.7 0 0 1 .62-.59q.4-.22.89-.22.5 0 .88.22.39.22.61.59.23.36.23.81t-.23.82q-.22.36-.61.57a1.8 1.8 0 0 1-.88.21m-.01-.82a.75.75 0 0 0 .67-.38.75.75 0 0 0 .11-.4.7.7 0 0 0-.11-.39.73.73 0 0 0-.28-.27.75.75 0 0 0-.77.01.83.83 0 0 0-.28.27.7.7 0 0 0-.11.38q0 .21.1.39.11.18.28.29.18.1.39.1m1.45-1.41-.43-.53a2 2 0 0 1 1.42-.44l.11.78a1.6 1.6 0 0 0-.59-.01q-.29.05-.51.2m4.47 3.91q-.5 0-.93-.16a2.2 2.2 0 0 1-.74-.46 2.1 2.1 0 0 1-.48-.76q-.17-.45-.17-1.02 0-.58.17-1.04t.46-.78q.3-.32.7-.48.4-.17.86-.17.41 0 .77.14t.63.43q.28.28.44.71.16.42.16.98 0 .1-.01.24 0 .14-.01.24h-3.08q.02.33.13.57.11.23.29.38t.4.23q.22.07.46.07.21 0 .4-.04a1.2 1.2 0 0 0 .37-.14q.18-.1.34-.26l.58.56q-.22.26-.5.44-.27.17-.59.24-.31.08-.65.08m-1.21-2.98h1.98q0-.24-.07-.43a.8.8 0 0 0-.18-.32.7.7 0 0 0-.3-.19 1 1 0 0 0-.4-.07q-.19 0-.37.06a.8.8 0 0 0-.31.18q-.14.13-.23.32t-.12.45m6.12 2.99a1.7 1.7 0 0 1-.53-.08 1.4 1.4 0 0 1-.45-.22 1.6 1.6 0 0 1-.35-.4 2.1 2.1 0 0 1-.22-.57 3.4 3.4 0 0 1-.08-.77v-2.73h1.14v2.73q0 .31.05.53a1 1 0 0 0 .15.35q.1.13.23.19.14.06.29.06.21 0 .38-.07.18-.08.3-.23.13-.15.2-.37a1.9 1.9 0 0 0 .07-.54v-2.65h1.13v3.91q0 .22.01.4.02.17.09.34H101a.8.8 0 0 1-.07-.2 2 2 0 0 1-.03-.2v-.2a2 2 0 0 1-.25.31 1.5 1.5 0 0 1-.31.22q-.16.09-.35.14-.18.05-.37.05m4.27-4.77h1.17l-.01 1.3-.13-.08q.04-.31.17-.55.14-.24.34-.42.21-.18.45-.27.25-.09.51-.09.39 0 .7.13.32.12.59.4l-.48.95-.03.08-.09-.04-.06-.16a.5.5 0 0 0-.15-.2 1.1 1.1 0 0 0-.3-.17.9.9 0 0 0-.33-.06q-.24 0-.46.08a1.05 1.05 0 0 0-.39.25q-.16.17-.26.44-.09.26-.09.62V61h-1.15zM37 63.25h71v.5H37z"/><path fill="#3a3a3a" d="M193.51 61.1q-.38 0-.73-.08a2.8 2.8 0 0 1-.65-.24q-.3-.16-.56-.4l.4-.68.06-.09.06.04q.02.08.04.17.03.08.14.2.21.21.5.35.3.13.76.13.37 0 .62-.09a.9.9 0 0 0 .4-.25.6.6 0 0 0 .14-.39q0-.15-.06-.26a.6.6 0 0 0-.2-.22 1.8 1.8 0 0 0-.35-.2 5 5 0 0 0-.54-.2q-.52-.15-.91-.35a1.8 1.8 0 0 1-.6-.46.97.97 0 0 1-.21-.61.96.96 0 0 1 .19-.6q.19-.26.56-.4.38-.15.93-.15.32 0 .58.05.26.04.48.13t.4.23q.19.13.36.31l-.41.5-.07.08-.05-.05a.4.4 0 0 0-.05-.15.6.6 0 0 0-.14-.19 1.6 1.6 0 0 0-.52-.27 1.7 1.7 0 0 0-1.25.04q-.29.14-.29.43 0 .15.1.3.11.14.39.29.28.14.8.29.57.18.91.37.35.18.5.42.16.24.16.57 0 .38-.21.71-.2.33-.62.53-.42.19-1.06.19m5.98-.03q-.44 0-.72-.15a1 1 0 0 1-.43-.46q-.15-.32-.2-.8-.04-.48-.02-1.14l.12-3.26.75-.09.1-.01.01.07a2 2 0 0 0-.09.14 1 1 0 0 0-.05.24l-.09 1.13.03.18-.07 1.65q-.03.76.04 1.18.07.41.25.57.18.15.48.15.33 0 .58-.13a4 4 0 0 0 .54-.33l.22.57a2.356 2.356 0 0 1-1.45.49m-2.29-4.64h3.29v.59h-3.29zm5.99 0h.75l-.03 1.33-.09-.15q.06-.31.21-.55t.36-.4q.21-.17.46-.25.25-.09.52-.09.36 0 .66.13.31.12.55.37l-.32.56-.04.09-.07-.04a.6.6 0 0 0-.06-.15.7.7 0 0 0-.17-.17 1 1 0 0 0-.3-.13 1 1 0 0 0-.3-.04q-.25 0-.5.1-.25.09-.46.29-.2.2-.32.51a2 2 0 0 0-.12.74v2.43h-.73zM208.5 61v-.58h1.17v-3.41h-1.11v-.58h1.83v3.99h1.07V61zm1.49-5.53q-.21 0-.36-.15t-.15-.36q0-.22.14-.37.15-.15.37-.15.21 0 .36.16.16.15.16.36t-.16.36q-.15.15-.36.15m3.73 5.53v-4.57h.7v.81q.18-.28.42-.48.24-.21.53-.32.29-.12.6-.12.38 0 .68.19t.48.61.18 1.11V61h-.7v-2.75q0-.48-.11-.76-.11-.29-.3-.41a.74.74 0 0 0-.43-.13q-.23 0-.47.1a1.5 1.5 0 0 0-.43.29q-.2.18-.33.44-.12.26-.12.59V61zm7.25 1.72q-.48 0-.87-.08a2.3 2.3 0 0 1-.66-.22 1.1 1.1 0 0 1-.42-.36.95.95 0 0 1-.14-.52q0-.28.12-.5a1.1 1.1 0 0 1 .31-.36q.2-.15.43-.22l.3.18q-.18.11-.29.22a.7.7 0 0 0-.16.25q-.05.15-.05.35 0 .17.1.3.1.14.28.23.19.09.45.14.27.05.61.05.46 0 .74-.1.29-.09.43-.26a.55.55 0 0 0 .14-.37.7.7 0 0 0-.08-.36q-.08-.14-.33-.21t-.76-.07q-.35 0-.64-.03a3 3 0 0 1-.52-.1 1.6 1.6 0 0 1-.39-.17.8.8 0 0 1-.23-.26.74.74 0 0 1-.08-.35q0-.26.14-.5.15-.24.4-.46l.34.27q-.1.11-.16.2a.7.7 0 0 0-.09.16.6.6 0 0 0-.02.16q0 .16.12.26.13.1.44.15.31.04.84.04t.86.09q.33.08.5.24.18.16.25.37t.07.46q0 .27-.11.51a1.1 1.1 0 0 1-.33.44 1.6 1.6 0 0 1-.61.31q-.38.12-.93.12m-.21-3.27q-.49 0-.85-.21a1.56 1.56 0 0 1-.56-.58 1.74 1.74 0 0 1-.19-.81q0-.44.19-.8.2-.36.56-.57.36-.22.85-.22.5 0 .85.22.36.21.55.57.2.36.2.8t-.2.81q-.19.36-.55.58-.35.21-.85.21m0-.6a1 1 0 0 0 .51-.13 1.01 1.01 0 0 0 .49-.87.96.96 0 0 0-.13-.5.94.94 0 0 0-.36-.36.93.93 0 0 0-.51-.14.98.98 0 0 0-.87.5.96.96 0 0 0-.13.5q0 .27.13.5t.35.37q.23.13.52.13m1.33-1.68-.28-.33q.29-.29.6-.42.32-.14.75-.11l.09.59a2.4 2.4 0 0 0-.62.02 1.2 1.2 0 0 0-.54.25"/><path fill="#1f8a65" d="m319.702 59.32 1.059 1.059 6.349-6.35 1.06 1.061-7.409 7.41-4.773-4.773 1.06-1.06 1.594 1.593zm.001-2.121 3.714-3.715 1.058 1.058-3.714 3.715zm-2.12 4.241-1.06 1.06-4.773-4.773 1.061-1.06 1.059 1.06z"/><path fill="#fff" d="M13 73h324v30H13z"/><path stroke="#e5e5e5" d="M13 73h324v30H13z"/><path fill="#e5e5e5" d="m21.57 90.16 1.03-.99q.45-.44.78-.79a6 6 0 0 0 .56-.67 2.5 2.5 0 0 0 .34-.6q.11-.3.11-.63 0-.22-.06-.38a.54.54 0 0 0-.17-.26.65.65 0 0 0-.28-.16 1 1 0 0 0-.37-.06q-.21 0-.4.05-.18.05-.35.15a1.3 1.3 0 0 0-.3.27q-.09.13-.12.21a.4.4 0 0 0-.01.15l-.06.07-.07-.05-.78-.6q.23-.39.55-.65.33-.26.72-.4.4-.14.83-.14.54 0 .98.22t.7.63q.26.4.26.95 0 .39-.12.74-.11.34-.32.67-.2.32-.5.66t-.67.72q-.37.37-.8.81h1.97a1 1 0 0 0 .24-.02.3.3 0 0 0 .13-.08h.09V91h-3.91z"/><path fill="#000091" d="M39.59 91.11q-.42 0-.81-.08-.39-.07-.72-.23a2.7 2.7 0 0 1-.61-.43l.5-.92.04-.08.08.05q.03.07.06.16.03.08.15.19.25.21.57.33t.76.12q.28 0 .47-.06a.7.7 0 0 0 .3-.18.39.39 0 0 0 .05-.48.5.5 0 0 0-.19-.16 2 2 0 0 0-.34-.14 9 9 0 0 0-.5-.17 4.5 4.5 0 0 1-.89-.32 1.64 1.64 0 0 1-.57-.48 1.1 1.1 0 0 1-.2-.65q0-.39.22-.69.23-.3.64-.47a2.4 2.4 0 0 1 .97-.18q.29 0 .55.05.26.04.49.13a1.7 1.7 0 0 1 .44.22q.21.13.39.31l-.55.77-.07.08-.07-.06a.4.4 0 0 0-.05-.15.56.56 0 0 0-.15-.19 1.3 1.3 0 0 0-.46-.22 1.9 1.9 0 0 0-.5-.07q-.34 0-.59.11-.24.11-.24.34 0 .13.11.24.11.1.36.2.26.09.68.2.56.15.91.35.36.19.52.46.17.27.17.63 0 .39-.22.73a1.5 1.5 0 0 1-.65.54q-.42.2-1.05.2m3.75-.11v-.89h1.14v-2.87H43.4v-.89h2.22v3.76h1.04V91zM45 85.58a.7.7 0 0 1-.5-.2.64.64 0 0 1-.21-.48q0-.3.2-.49a.7.7 0 0 1 .51-.19q.28 0 .49.2.22.2.22.48a.63.63 0 0 1-.22.48.7.7 0 0 1-.49.2m3.89.77h1.17l-.01 1.3-.13-.08q.04-.31.17-.55.14-.24.34-.42.21-.18.45-.27.25-.09.51-.09.39 0 .7.13.32.12.59.4l-.48.95-.03.08-.09-.04-.06-.16a.5.5 0 0 0-.15-.2 1.1 1.1 0 0 0-.3-.17.9.9 0 0 0-.33-.06q-.24 0-.46.08a1.06 1.06 0 0 0-.39.25q-.16.17-.26.44-.09.26-.09.62V91h-1.15zm7.32 4.76q-.5 0-.93-.16a2.2 2.2 0 0 1-.74-.46 2.1 2.1 0 0 1-.48-.76q-.17-.45-.17-1.02 0-.58.17-1.04t.46-.78q.3-.32.7-.48.4-.17.86-.17.41 0 .77.14t.63.43q.28.28.44.71.16.42.16.98 0 .1-.01.24 0 .14-.01.24h-3.08q.02.33.13.57.11.23.29.38t.4.23q.22.07.46.07.21 0 .4-.04a1.2 1.2 0 0 0 .37-.14q.18-.1.34-.26l.58.56q-.22.26-.5.44-.27.17-.59.24-.31.08-.65.08M55 88.13h1.98q0-.24-.07-.43a.8.8 0 0 0-.18-.32.7.7 0 0 0-.3-.19 1 1 0 0 0-.4-.07q-.19 0-.37.06a.8.8 0 0 0-.31.18q-.14.13-.23.32t-.12.45M59.55 91v-4.65h1.13v.64q.17-.22.37-.39t.44-.26q.25-.1.53-.1.41 0 .75.2.34.19.55.62t.21 1.13V91H62.4v-2.79q0-.39-.08-.63a.66.66 0 0 0-.24-.35.56.56 0 0 0-.36-.12 1 1 0 0 0-.38.08 1 1 0 0 0-.33.22 1.14 1.14 0 0 0-.33.82V91zm5.26 1.01v-.9h4.38v.9zm7.17-.89q-.77 0-1.2-.36a1.2 1.2 0 0 1-.42-.95q0-.37.16-.68.17-.32.5-.55t.82-.35q.49-.13 1.12-.13h.2q.12 0 .26.01.14 0 .26.02l.03.78a3 3 0 0 0-.24-.01 4 4 0 0 0-.29-.01 3.3 3.3 0 0 0-.92.05q-.27.06-.44.17a.64.64 0 0 0-.33.56q0 .16.05.27a.6.6 0 0 0 .15.18q.1.06.23.09t.28.03q.3 0 .52-.09a.9.9 0 0 0 .38-.31q.16-.21.23-.52.08-.32.08-.75 0-.58-.12-.89t-.35-.43a1.17 1.17 0 0 0-.58-.13q-.32 0-.61.11-.28.1-.55.38l-.62-.68q.39-.37.87-.53t.96-.16q.44 0 .82.1t.66.34q.29.23.45.64.17.4.17 1V91h-1.17v-.5q-.13.17-.28.29t-.32.19-.36.1q-.19.04-.4.04M75.8 91v-4.65h.95v.34q.12-.16.25-.26a.8.8 0 0 1 .27-.14q.15-.05.29-.05.17 0 .32.06.15.05.27.18.13.12.2.32.11-.19.25-.31.14-.13.32-.19.19-.06.41-.06.26 0 .44.09t.29.26q.12.17.17.42t.05.56V91h-.98v-3.19q0-.3-.03-.46-.03-.17-.09-.23a.2.2 0 0 0-.16-.07q-.13 0-.25.13a.9.9 0 0 0-.2.34q-.07.21-.07.5V91h-.92v-3.16q0-.48-.07-.64t-.26-.16q-.09 0-.18.06a.6.6 0 0 0-.15.18q-.06.11-.1.29a1.7 1.7 0 0 0-.04.39V91zm7.91.11q-.5 0-.93-.16a2.2 2.2 0 0 1-.74-.46 2.1 2.1 0 0 1-.48-.76q-.17-.45-.17-1.02 0-.58.17-1.04t.46-.78q.3-.32.7-.48.4-.17.86-.17.41 0 .77.14t.63.43q.28.28.44.71.16.42.16.98 0 .1-.01.24 0 .14-.01.24h-3.08q.02.33.13.57.11.23.29.38t.4.23q.22.07.46.07.21 0 .4-.04a1.2 1.2 0 0 0 .37-.14q.18-.1.34-.26l.58.56q-.22.26-.5.44-.27.17-.59.24-.31.08-.65.08m-1.21-2.98h1.98q0-.24-.07-.43a.8.8 0 0 0-.18-.32.7.7 0 0 0-.3-.19 1 1 0 0 0-.4-.07q-.19 0-.37.06a.8.8 0 0 0-.31.18q-.14.13-.23.32t-.12.45M87.05 91v-4.65h1.13v.64q.17-.22.37-.39t.44-.26q.25-.1.53-.1.41 0 .75.2.34.19.55.62t.21 1.13V91H89.9v-2.79q0-.39-.08-.63a.66.66 0 0 0-.24-.35.56.56 0 0 0-.36-.12 1 1 0 0 0-.38.08 1 1 0 0 0-.33.22 1.14 1.14 0 0 0-.33.82V91zm6.93.12q-.77 0-1.2-.36a1.2 1.2 0 0 1-.42-.95q0-.37.16-.68.17-.32.5-.55t.82-.35q.49-.13 1.12-.13h.2q.12 0 .26.01.14 0 .26.02l.03.78a3 3 0 0 0-.24-.01 4 4 0 0 0-.29-.01 3.3 3.3 0 0 0-.92.05q-.27.06-.44.17a.64.64 0 0 0-.33.56q0 .16.05.27a.6.6 0 0 0 .15.18q.1.06.23.09t.28.03q.3 0 .52-.09a.9.9 0 0 0 .38-.31q.16-.21.23-.52.08-.32.08-.75 0-.58-.12-.89t-.35-.43a1.17 1.17 0 0 0-.58-.13q-.32 0-.61.11-.28.1-.55.38l-.62-.68q.39-.37.87-.53t.96-.16q.44 0 .82.1t.66.34q.29.23.45.64.17.4.17 1V91h-1.17v-.5q-.13.17-.28.29t-.32.19-.36.1q-.19.04-.4.04m5.91 1.67q-.5 0-.89-.09a2.3 2.3 0 0 1-.66-.25 1.25 1.25 0 0 1-.42-.39.9.9 0 0 1-.14-.5q0-.24.12-.45t.32-.36q.21-.16.45-.25l.51.21-.26.2a1 1 0 0 0-.2.2.55.55 0 0 0-.07.28q0 .13.1.23t.28.16q.18.07.42.1t.53.03q.38 0 .64-.07a.94.94 0 0 0 .4-.2.36.36 0 0 0 .14-.28.4.4 0 0 0-.08-.25q-.08-.09-.29-.13a3.3 3.3 0 0 0-.59-.04q-.32 0-.63-.03a4 4 0 0 1-.59-.1 2.3 2.3 0 0 1-.48-.18q-.21-.12-.33-.29a.74.74 0 0 1-.11-.41q0-.33.19-.57.2-.24.48-.44l.52.3q-.1.09-.18.15a.6.6 0 0 0-.11.12q-.04.05-.04.15 0 .12.15.2.16.08.51.12.36.04.93.04.45 0 .75.1.3.09.48.27.18.17.26.4.09.22.09.47 0 .3-.13.57-.13.28-.4.5t-.69.35q-.41.13-.98.13m-.09-3.36q-.49 0-.89-.21-.39-.21-.62-.57a1.6 1.6 0 0 1-.22-.82q0-.45.22-.81a1.7 1.7 0 0 1 .62-.59q.4-.22.89-.22.5 0 .88.22.39.22.61.59.23.36.23.81t-.23.82q-.22.36-.61.57a1.8 1.8 0 0 1-.88.21m-.01-.82a.75.75 0 0 0 .67-.38.76.76 0 0 0 .11-.4.7.7 0 0 0-.11-.39.73.73 0 0 0-.28-.27.75.75 0 0 0-.77.01.83.83 0 0 0-.28.27.7.7 0 0 0-.11.38q0 .21.1.39.11.18.28.29.18.1.39.1m1.45-1.41-.43-.53q.28-.23.64-.35t.78-.09l.11.78a1.6 1.6 0 0 0-.59-.01q-.29.05-.51.2m4.47 3.91q-.5 0-.93-.16a2.2 2.2 0 0 1-.74-.46 2.1 2.1 0 0 1-.48-.76q-.17-.45-.17-1.02 0-.58.17-1.04t.46-.78q.3-.32.7-.48.4-.17.86-.17.41 0 .77.14t.63.43q.28.28.44.71.16.42.16.98 0 .1-.01.24 0 .14-.01.24h-3.08q.02.33.13.57.11.23.29.38t.4.23q.22.07.46.07.21 0 .4-.04a1.2 1.2 0 0 0 .37-.14q.18-.1.34-.26l.58.56q-.22.26-.5.44-.27.17-.59.24-.31.08-.65.08m-1.21-2.98h1.98q0-.24-.07-.43a.8.8 0 0 0-.18-.32.7.7 0 0 0-.3-.19 1 1 0 0 0-.4-.07q-.19 0-.37.06a.8.8 0 0 0-.31.18q-.14.13-.23.32t-.12.45m6.12 2.99a1.7 1.7 0 0 1-.53-.08 1.3 1.3 0 0 1-.45-.22 1.6 1.6 0 0 1-.35-.4 2.1 2.1 0 0 1-.22-.57 3.4 3.4 0 0 1-.08-.77v-2.73h1.14v2.73q0 .31.05.53a1 1 0 0 0 .15.35q.1.13.23.19.14.06.29.06.21 0 .38-.07.18-.08.3-.23.13-.15.2-.37a1.9 1.9 0 0 0 .07-.54v-2.65h1.13v3.91q0 .22.01.4.02.17.09.34H112a.8.8 0 0 1-.07-.2 2 2 0 0 1-.03-.2v-.2a2 2 0 0 1-.25.31 1.5 1.5 0 0 1-.31.22q-.16.09-.35.14-.18.05-.37.05m4.27-4.77h1.17l-.01 1.3-.13-.08q.04-.31.17-.55.14-.24.34-.42.21-.18.45-.27.25-.09.51-.09.39 0 .7.13.32.12.59.4l-.48.95-.03.08-.09-.04-.06-.16a.5.5 0 0 0-.15-.2 1.1 1.1 0 0 0-.3-.17.9.9 0 0 0-.33-.06q-.24 0-.46.08a1.05 1.05 0 0 0-.39.25q-.16.17-.26.44-.09.26-.09.62V91h-1.15zM37 93.25h82v.5H37z"/><path fill="#3a3a3a" d="M193.51 91.1q-.38 0-.73-.08a2.8 2.8 0 0 1-.65-.24q-.3-.16-.56-.4l.4-.68.06-.09.06.04q.02.08.04.17.03.08.14.2.21.21.5.35.3.13.76.13.37 0 .62-.09a.9.9 0 0 0 .4-.25.6.6 0 0 0 .14-.39q0-.15-.06-.26a.6.6 0 0 0-.2-.22 1.8 1.8 0 0 0-.35-.2 5 5 0 0 0-.54-.2q-.52-.15-.91-.35a1.8 1.8 0 0 1-.6-.46.97.97 0 0 1-.21-.61.96.96 0 0 1 .19-.6q.19-.26.56-.4.38-.15.93-.15.32 0 .58.05.26.04.48.13t.4.23q.19.13.36.31l-.41.5-.07.08-.05-.05a.4.4 0 0 0-.05-.15.6.6 0 0 0-.14-.19 1.6 1.6 0 0 0-.52-.27 1.7 1.7 0 0 0-1.25.04q-.29.14-.29.43 0 .15.1.3.11.14.39.29.28.14.8.29.57.18.91.37.35.18.5.42.16.24.16.57 0 .38-.21.71-.2.33-.62.53-.42.19-1.06.19m5.98-.03q-.44 0-.72-.15a1 1 0 0 1-.43-.46q-.15-.32-.2-.8-.04-.48-.02-1.14l.12-3.26.75-.09.1-.01.01.07a2 2 0 0 0-.09.14 1 1 0 0 0-.05.24l-.09 1.13.03.18-.07 1.65q-.03.76.04 1.18.07.41.25.57.18.15.48.15.33 0 .58-.13a4 4 0 0 0 .54-.33l.22.57a2.356 2.356 0 0 1-1.45.49m-2.29-4.64h3.29v.59h-3.29zm5.99 0h.75l-.03 1.33-.09-.15q.06-.31.21-.55t.36-.4q.21-.17.46-.25.25-.09.52-.09.36 0 .66.13.31.12.55.37l-.32.56-.04.09-.07-.04a.6.6 0 0 0-.06-.15.7.7 0 0 0-.17-.17 1 1 0 0 0-.3-.13 1 1 0 0 0-.3-.04q-.25 0-.5.1-.25.09-.46.29-.2.2-.32.51a2 2 0 0 0-.12.74v2.43h-.73zM208.5 91v-.58h1.17v-3.41h-1.11v-.58h1.83v3.99h1.07V91zm1.49-5.53q-.21 0-.36-.15t-.15-.36q0-.22.14-.37.15-.15.37-.15.21 0 .36.16.16.15.16.36t-.16.36q-.15.15-.36.15m3.73 5.53v-4.57h.7v.81q.18-.28.42-.48.24-.21.53-.32.29-.12.6-.12.38 0 .68.19t.48.61.18 1.11V91h-.7v-2.75q0-.48-.11-.76-.11-.29-.3-.41a.74.74 0 0 0-.43-.13q-.23 0-.47.1a1.5 1.5 0 0 0-.43.29q-.2.18-.33.44-.12.26-.12.59V91zm7.25 1.72q-.48 0-.87-.08a2.3 2.3 0 0 1-.66-.22 1.1 1.1 0 0 1-.42-.36.95.95 0 0 1-.14-.52q0-.28.12-.5a1.1 1.1 0 0 1 .31-.36q.2-.15.43-.22l.3.18q-.18.11-.29.22a.7.7 0 0 0-.16.25q-.05.15-.05.35 0 .17.1.3.1.14.28.23.19.09.45.14.27.05.61.05.46 0 .74-.1.29-.09.43-.26a.55.55 0 0 0 .14-.37.7.7 0 0 0-.08-.36q-.08-.14-.33-.21t-.76-.07q-.35 0-.64-.03a3 3 0 0 1-.52-.1 1.6 1.6 0 0 1-.39-.17.8.8 0 0 1-.23-.26.74.74 0 0 1-.08-.35q0-.26.14-.5.15-.24.4-.46l.34.27q-.1.11-.16.2a.7.7 0 0 0-.09.16.6.6 0 0 0-.02.16q0 .16.12.26.13.1.44.15.31.04.84.04t.86.09q.33.08.5.24.18.16.25.37t.07.46q0 .27-.11.51a1.1 1.1 0 0 1-.33.44 1.6 1.6 0 0 1-.61.31q-.38.12-.93.12m-.21-3.27q-.49 0-.85-.21a1.56 1.56 0 0 1-.56-.58 1.74 1.74 0 0 1-.19-.81q0-.44.19-.8.2-.36.56-.57.36-.22.85-.22.5 0 .85.22.36.21.55.57.2.36.2.8t-.2.81q-.19.36-.55.58-.35.21-.85.21m0-.6a1 1 0 0 0 .51-.13 1.01 1.01 0 0 0 .49-.87.96.96 0 0 0-.13-.5.94.94 0 0 0-.36-.36.93.93 0 0 0-.51-.14.98.98 0 0 0-.87.5.96.96 0 0 0-.13.5q0 .27.13.5t.35.37q.23.13.52.13m1.33-1.68-.28-.33q.29-.29.6-.42.32-.14.75-.11l.09.59a2.4 2.4 0 0 0-.62.02 1.2 1.2 0 0 0-.54.25"/><path fill="#1f8a65" d="m319.702 89.32 1.059 1.059 6.349-6.35 1.06 1.061-7.409 7.41-4.773-4.773 1.06-1.06 1.594 1.593zm.001-2.121 3.714-3.715 1.058 1.058-3.714 3.715zm-2.12 4.241-1.06 1.06-4.773-4.773 1.061-1.06 1.059 1.06z"/><path fill="#fff" d="M13 103h324v30H13z"/><path stroke="#e5e5e5" d="M13 103h324v30H13z"/><path fill="#e5e5e5" d="M23.35 121.12q-.55 0-1.07-.18a1.95 1.95 0 0 1-.84-.57l.57-.83.06-.08.08.05.04.16q.03.08.15.2.18.16.42.26.25.09.54.09.32 0 .54-.12a.83.83 0 0 0 .33-.35q.12-.23.12-.52 0-.31-.11-.52a.73.73 0 0 0-.31-.34 1.3 1.3 0 0 0-.51-.16 2.8 2.8 0 0 0-.71.01v-.88q.44.01.73-.06t.46-.2a.73.73 0 0 0 .24-.3q.07-.18.07-.37a.8.8 0 0 0-.06-.33.7.7 0 0 0-.17-.25.6.6 0 0 0-.26-.16.9.9 0 0 0-.34-.06 1.7 1.7 0 0 0-.4.05 1.4 1.4 0 0 0-.69.43l-.65-.66q.36-.4.83-.57.48-.18.95-.18.55 0 .97.21.43.21.67.57t.24.83q0 .34-.14.62a1.4 1.4 0 0 1-.36.48 1.9 1.9 0 0 1-.47.3q.29.1.55.3.27.2.43.52.17.31.17.76 0 .51-.25.93t-.71.67-1.11.25"/><path fill="#000091" d="M39.78 121.12q-.51 0-.95-.18a2.4 2.4 0 0 1-.76-.5 2.3 2.3 0 0 1-.5-.76 2.5 2.5 0 0 1-.18-.97q0-.51.18-.96a2.37 2.37 0 0 1 1.26-1.31q.44-.2.96-.2.64 0 1.12.24t.76.66l-.63.69-.06.07-.08-.06a.7.7 0 0 0-.02-.16.5.5 0 0 0-.13-.21.9.9 0 0 0-.42-.25 1.8 1.8 0 0 0-.53-.07q-.25 0-.48.11-.22.1-.4.3a1.3 1.3 0 0 0-.28.48q-.1.29-.1.67 0 .34.1.62.11.27.28.47.18.19.41.3.24.1.5.1.21 0 .41-.06t.39-.18q.2-.13.37-.34l.63.72a2.25 2.25 0 0 1-.86.6q-.49.18-.99.18m5.21-.02q-.62 0-1.13-.3a2.2 2.2 0 0 1-.79-.86q-.29-.55-.29-1.27 0-.69.29-1.24a2.26 2.26 0 0 1 .79-.87q.51-.32 1.13-.32.63 0 1.13.32.51.32.8.87.3.55.3 1.24 0 .72-.3 1.27-.29.55-.8.86-.5.3-1.13.3m0-.9q.33 0 .57-.19.24-.2.38-.54.15-.35.15-.8 0-.47-.15-.81a1.2 1.2 0 0 0-.38-.52.9.9 0 0 0-.57-.19q-.3 0-.55.19-.24.18-.39.52-.14.34-.14.81 0 .45.14.8.14.34.38.54a.9.9 0 0 0 .56.19m3.56.8v-4.65h1.13v.64q.17-.22.37-.39t.44-.26q.25-.1.53-.1.41 0 .75.2.34.19.55.62t.21 1.13V121H51.4v-2.79q0-.39-.08-.63a.66.66 0 0 0-.24-.35.56.56 0 0 0-.36-.12 1 1 0 0 0-.38.08 1 1 0 0 0-.33.22 1.14 1.14 0 0 0-.33.82V121zm7.94.1q-.4 0-.7-.13a1.2 1.2 0 0 1-.49-.42q-.19-.29-.28-.77a6 6 0 0 1-.05-1.19l.13-3.34 1.17-.15.09-.01.01.09-.08.14a.6.6 0 0 0-.05.24l-.11 1.38.05.07-.08 1.56q-.03.65.04 1.01.08.35.23.48.16.13.38.13.32 0 .57-.13.26-.13.48-.3l.24.82q-.34.25-.73.39-.38.13-.82.13m-2.4-4.75h3.58l-.01.89h-3.59zm6.89 4.77q-.77 0-1.2-.36a1.2 1.2 0 0 1-.42-.95q0-.37.16-.68.17-.32.5-.55t.82-.35q.49-.13 1.12-.13h.2q.12 0 .26.01.14 0 .26.02l.03.78a2 2 0 0 0-.24-.01 4 4 0 0 0-.29-.01 3.3 3.3 0 0 0-.92.05q-.27.06-.44.17a.65.65 0 0 0-.33.56.65.65 0 0 0 .05.27q.06.11.15.18.1.06.23.09t.28.03q.3 0 .52-.09a.9.9 0 0 0 .38-.31q.16-.21.23-.52.08-.32.08-.75 0-.58-.12-.89t-.35-.43a1.16 1.16 0 0 0-.58-.13q-.32 0-.61.11-.28.1-.55.38l-.62-.68q.39-.37.87-.53t.96-.16q.44 0 .82.1t.66.34q.29.23.45.64.17.4.17 1V121h-1.17v-.5q-.13.17-.28.29t-.32.19-.36.1q-.19.04-.4.04m6.3 0q-.51 0-.95-.18a2.4 2.4 0 0 1-.76-.5 2.3 2.3 0 0 1-.5-.76 2.5 2.5 0 0 1-.18-.97q0-.51.18-.96a2.37 2.37 0 0 1 1.26-1.31q.44-.2.96-.2.64 0 1.12.24t.76.66l-.63.69-.06.07-.08-.06a.7.7 0 0 0-.02-.16.5.5 0 0 0-.13-.21.9.9 0 0 0-.42-.25 1.8 1.8 0 0 0-.53-.07q-.25 0-.48.11-.22.1-.4.3a1.3 1.3 0 0 0-.28.48q-.1.29-.1.67 0 .34.1.62.11.27.28.47.18.19.41.3.24.1.5.1.21 0 .41-.06t.39-.18q.2-.13.37-.34l.63.72a2.25 2.25 0 0 1-.86.6q-.49.18-.99.18m5.71-.02q-.4 0-.7-.13a1.2 1.2 0 0 1-.49-.42q-.19-.29-.28-.77a6 6 0 0 1-.05-1.19l.13-3.34 1.17-.15.09-.01.01.09-.08.14a.6.6 0 0 0-.05.24l-.11 1.38.05.07-.08 1.56q-.03.65.04 1.01.08.35.23.48.16.13.38.13.32 0 .57-.13.26-.13.48-.3l.24.82q-.34.25-.73.39-.38.13-.82.13m-2.4-4.75h3.58l-.01.89h-3.59zm5.22 5.66v-.9h4.38v.9zm7.17-.89q-.77 0-1.2-.36a1.2 1.2 0 0 1-.42-.95q0-.37.16-.68.17-.32.5-.55t.82-.35q.49-.13 1.12-.13h.2q.12 0 .26.01.14 0 .26.02l.03.78a2 2 0 0 0-.24-.01 4 4 0 0 0-.29-.01 3.3 3.3 0 0 0-.92.05q-.27.06-.44.17a.65.65 0 0 0-.33.56.65.65 0 0 0 .05.27q.06.11.15.18.1.06.23.09t.28.03q.3 0 .52-.09a.9.9 0 0 0 .38-.31q.16-.21.23-.52.08-.32.08-.75 0-.58-.12-.89t-.35-.43a1.16 1.16 0 0 0-.58-.13q-.32 0-.61.11-.28.1-.55.38l-.62-.68q.39-.37.87-.53t.96-.16q.44 0 .82.1t.66.34q.29.23.45.64.17.4.17 1V121h-1.17v-.5q-.13.17-.28.29t-.32.19-.36.1q-.19.04-.4.04m3.82-.12v-4.65h.95v.34q.12-.16.25-.26a.8.8 0 0 1 .27-.14q.15-.05.29-.05.17 0 .32.06.15.05.27.18.13.12.2.32.11-.19.25-.31.14-.13.32-.19.19-.06.41-.06.26 0 .44.09a.73.73 0 0 1 .29.26q.12.17.17.42t.05.56V121h-.98v-3.19q0-.3-.03-.46-.03-.17-.09-.23a.2.2 0 0 0-.16-.07q-.13 0-.25.13a.9.9 0 0 0-.2.34q-.07.21-.07.5V121h-.92v-3.16q0-.48-.07-.64t-.26-.16q-.09 0-.18.06a.6.6 0 0 0-.15.18q-.06.11-.1.29-.04.17-.04.39V121zm7.91.11q-.5 0-.93-.16a2.2 2.2 0 0 1-.74-.46 2.1 2.1 0 0 1-.48-.76q-.17-.45-.17-1.02 0-.58.17-1.04t.46-.78q.3-.32.7-.48.4-.17.86-.17.41 0 .77.14t.63.43q.28.28.44.71.16.42.16.98 0 .1-.01.24 0 .14-.01.24h-3.08q.02.33.13.57.11.23.29.38t.4.23q.22.07.46.07.21 0 .4-.04a1.2 1.2 0 0 0 .37-.14q.18-.1.34-.26l.58.56q-.22.26-.5.44a1.9 1.9 0 0 1-.59.24q-.31.08-.65.08m-1.21-2.98h1.98q0-.24-.07-.43a.8.8 0 0 0-.18-.32.7.7 0 0 0-.3-.19 1 1 0 0 0-.4-.07q-.19 0-.37.06a.8.8 0 0 0-.31.18q-.14.13-.23.32t-.12.45m4.55 2.87v-4.65h1.13v.64q.17-.22.37-.39t.44-.26q.25-.1.53-.1.41 0 .75.2.34.19.55.62t.21 1.13V121h-1.13v-2.79q0-.39-.08-.63a.66.66 0 0 0-.24-.35.56.56 0 0 0-.36-.12 1 1 0 0 0-.38.08 1 1 0 0 0-.33.22 1.14 1.14 0 0 0-.33.82V121zm6.93.12q-.77 0-1.2-.36a1.2 1.2 0 0 1-.42-.95q0-.37.16-.68.17-.32.5-.55t.82-.35q.49-.13 1.12-.13h.2q.12 0 .26.01.14 0 .26.02l.03.78a2 2 0 0 0-.24-.01 4 4 0 0 0-.29-.01 3.3 3.3 0 0 0-.92.05q-.27.06-.44.17a.65.65 0 0 0-.33.56q0 .16.05.27.06.11.15.18.1.06.23.09t.28.03q.3 0 .52-.09a.9.9 0 0 0 .38-.31q.16-.21.23-.52.08-.32.08-.75 0-.58-.12-.89t-.35-.43a1.16 1.16 0 0 0-.58-.13q-.32 0-.61.11-.28.1-.55.38l-.62-.68q.39-.37.87-.53t.96-.16q.44 0 .82.1t.66.34q.29.23.45.64.17.4.17 1V121h-1.17v-.5q-.13.17-.28.29t-.32.19-.36.1q-.19.04-.4.04m5.91 1.67q-.5 0-.89-.09t-.66-.25a1.26 1.26 0 0 1-.42-.39.9.9 0 0 1-.14-.5q0-.24.12-.45t.32-.36q.21-.16.45-.25l.51.21-.26.2a1 1 0 0 0-.2.2.54.54 0 0 0-.07.28q0 .13.1.23t.28.16q.18.07.42.1t.53.03q.38 0 .64-.07a.94.94 0 0 0 .4-.2.36.36 0 0 0 .14-.28.4.4 0 0 0-.08-.25q-.08-.09-.29-.13a3.3 3.3 0 0 0-.59-.04q-.32 0-.63-.03a4 4 0 0 1-.59-.1 2.3 2.3 0 0 1-.48-.18 1 1 0 0 1-.33-.29.74.74 0 0 1-.11-.41q0-.33.19-.57.2-.24.48-.44l.52.3q-.1.09-.18.15a.6.6 0 0 0-.11.12q-.04.05-.04.15 0 .12.15.2.16.08.51.12.36.04.93.04.45 0 .75.1.3.09.48.27.18.17.26.4.09.22.09.47 0 .3-.13.57-.13.28-.4.5t-.69.35q-.41.13-.98.13m-.09-3.36q-.49 0-.89-.21-.39-.21-.62-.57a1.57 1.57 0 0 1-.22-.82q0-.45.22-.81.23-.37.62-.59.4-.22.89-.22.5 0 .88.22.39.22.61.59.23.36.23.81t-.23.82q-.22.36-.61.57a1.8 1.8 0 0 1-.88.21m-.01-.82a.75.75 0 0 0 .67-.38.75.75 0 0 0 .11-.4.7.7 0 0 0-.11-.39.73.73 0 0 0-.28-.27.75.75 0 0 0-.77.01.84.84 0 0 0-.28.27.7.7 0 0 0-.11.38q0 .21.1.39.11.18.28.29.18.1.39.1m1.45-1.41-.43-.53q.28-.23.64-.35t.78-.09l.11.78q-.3-.06-.59-.01t-.51.2m4.47 3.91q-.5 0-.93-.16a2.2 2.2 0 0 1-.74-.46 2.1 2.1 0 0 1-.48-.76q-.17-.45-.17-1.02 0-.58.17-1.04t.46-.78q.3-.32.7-.48.4-.17.86-.17.41 0 .77.14t.63.43q.28.28.44.71.16.42.16.98 0 .1-.01.24 0 .14-.01.24h-3.08q.02.33.13.57.11.23.29.38t.4.23q.22.07.46.07.21 0 .4-.04a1.2 1.2 0 0 0 .37-.14q.18-.1.34-.26l.58.56q-.22.26-.5.44-.27.17-.59.24-.31.08-.65.08m-1.21-2.98h1.98q0-.24-.07-.43a.8.8 0 0 0-.18-.32.7.7 0 0 0-.3-.19 1 1 0 0 0-.4-.07q-.19 0-.37.06a.8.8 0 0 0-.31.18q-.14.13-.23.32t-.12.45m6.12 2.99q-.28 0-.53-.08a1.4 1.4 0 0 1-.45-.22 1.6 1.6 0 0 1-.35-.4 2.1 2.1 0 0 1-.22-.57 3.4 3.4 0 0 1-.08-.77v-2.73h1.14v2.73q0 .31.05.53.05.21.15.35.1.13.23.19.14.06.29.06.21 0 .38-.07.18-.08.3-.23.13-.15.2-.37.07-.23.07-.54v-2.65h1.13v3.91q0 .22.01.4.02.17.09.34H123a.8.8 0 0 1-.07-.2 2 2 0 0 1-.03-.2v-.2a2 2 0 0 1-.25.31 1.4 1.4 0 0 1-.31.22q-.16.09-.35.14-.18.05-.37.05m4.27-4.77h1.17l-.01 1.3-.13-.08q.04-.31.17-.55.14-.24.34-.42.21-.18.45-.27.25-.09.51-.09.39 0 .7.13.32.12.59.4l-.48.95-.03.08-.09-.04-.06-.16a.5.5 0 0 0-.15-.2 1.1 1.1 0 0 0-.3-.17.9.9 0 0 0-.33-.06q-.24 0-.46.08a1.05 1.05 0 0 0-.39.25 1.3 1.3 0 0 0-.26.44 1.9 1.9 0 0 0-.09.62V121h-1.15zM37 123.25h93v.5H37z"/><path fill="#3a3a3a" d="M193.72 121.1q-.5 0-.91-.15a2.05 2.05 0 0 1-.71-.46 2.1 2.1 0 0 1-.45-.74q-.16-.45-.16-1.02 0-.58.16-1.03.17-.45.45-.75.29-.31.67-.47.39-.16.82-.16.39 0 .73.13t.59.4q.25.26.39.67a2.8 2.8 0 0 1 .14 1.14q0 .08-.01.16h-3.25q.02.44.15.77.13.32.34.53.21.2.48.3.28.1.59.1.24 0 .45-.05.21-.06.39-.17.19-.12.34-.29l.4.39a1.9 1.9 0 0 1-.44.39q-.24.16-.53.23-.29.08-.63.08m-1.51-2.84h2.51q0-.32-.09-.57a1.2 1.2 0 0 0-.24-.44.9.9 0 0 0-.37-.28q-.21-.1-.48-.1-.24 0-.46.08-.21.08-.39.26-.18.17-.31.43a2.2 2.2 0 0 0-.17.62m4.67 2.74v-4.57h.66v.45q.11-.17.25-.29.15-.13.32-.2a1 1 0 0 1 .36-.07q.2 0 .37.09a.7.7 0 0 1 .28.23q.12.15.16.35.09-.2.24-.35.16-.15.36-.23.21-.09.43-.09.23 0 .4.09t.28.25q.11.15.16.37.05.21.04.46V121h-.66v-3.24q0-.42-.06-.61-.05-.19-.15-.24a.4.4 0 0 0-.22-.06q-.19 0-.36.18a1.42 1.42 0 0 0-.37.95V121h-.67v-3.18q0-.57-.11-.76-.1-.19-.39-.19a.4.4 0 0 0-.23.08 1.015 1.015 0 0 0-.37.54q-.06.2-.06.46V121zm7.23.11q-.78 0-1.2-.35-.42-.36-.42-.91 0-.37.18-.66.18-.3.49-.5.32-.21.74-.32t.89-.11q.17 0 .34.01.18 0 .37.02.2.01.41.04l.02.55a3 3 0 0 0-.37-.04 7 7 0 0 0-.71-.04q-.36 0-.66.06t-.52.18a.9.9 0 0 0-.34.31.85.85 0 0 0-.12.46q0 .21.07.36.08.14.21.23.13.08.3.12.18.04.39.04.39 0 .69-.12.31-.13.52-.37.22-.24.33-.59t.11-.8q0-.68-.16-1.06a1.02 1.02 0 0 0-.48-.54q-.31-.16-.8-.16-.33 0-.65.13-.32.12-.58.38l-.35-.46q.32-.32.74-.48t.89-.16q.45 0 .82.11t.63.37q.27.25.41.68.15.43.15 1.08V121h-.78v-.7a1.3 1.3 0 0 1-.32.41q-.18.16-.39.25-.21.08-.43.11-.22.04-.42.04m4.39-.11v-.58h1.17v-3.41h-1.11v-.58h1.83v3.99h1.07v.58zm1.49-5.53q-.21 0-.36-.15t-.15-.36q0-.22.14-.37.15-.15.37-.15.21 0 .36.16.16.15.16.36t-.16.36q-.15.15-.36.15m3.8 5.53v-.58h1.35v-5.49h-1.29v-.58h2.02v6.07h1.34v.58z"/><path fill="#1f8a65" d="m319.702 119.32 1.059 1.059 6.349-6.35 1.06 1.061-7.409 7.41-4.773-4.773 1.06-1.061 1.594 1.594zm.001-2.121 3.714-3.715 1.058 1.058-3.714 3.715zm-2.12 4.241-1.06 1.06-4.773-4.773 1.061-1.061 1.059 1.06v.001z"/><path fill="#fff" d="M13 133h324v30H13z"/><path stroke="#e5e5e5" d="M13 133h324v30H13z"/><path fill="#e5e5e5" d="M23.84 151v-1.48H21.4v-.74l2.7-4.01h.84v3.84h.82v.92h-.82V151zm-1.3-2.37h1.33v-2.08z"/><path fill="#000091" d="M39.78 151.12q-.51 0-.95-.18a2.4 2.4 0 0 1-.76-.5 2.3 2.3 0 0 1-.5-.76 2.5 2.5 0 0 1-.18-.97q0-.51.18-.96a2.37 2.37 0 0 1 1.26-1.31q.44-.2.96-.2.64 0 1.12.24t.76.66l-.63.69-.06.07-.08-.06a.7.7 0 0 0-.02-.16.5.5 0 0 0-.13-.21.9.9 0 0 0-.42-.25 1.8 1.8 0 0 0-.53-.07q-.25 0-.48.11-.22.1-.4.3a1.3 1.3 0 0 0-.28.48q-.1.29-.1.67 0 .34.1.62.11.27.28.47.18.19.41.3.24.1.5.1.21 0 .41-.06t.39-.18q.2-.13.37-.34l.63.72a2.25 2.25 0 0 1-.86.6q-.49.18-.99.18m5.21-.02q-.62 0-1.13-.3a2.2 2.2 0 0 1-.79-.86q-.29-.55-.29-1.27 0-.69.29-1.24a2.26 2.26 0 0 1 .79-.87q.51-.32 1.13-.32.63 0 1.13.32.51.32.8.87.3.55.3 1.24 0 .72-.3 1.27-.29.55-.8.86-.5.3-1.13.3m0-.9q.33 0 .57-.19.24-.2.38-.54.15-.35.15-.8 0-.47-.15-.81a1.2 1.2 0 0 0-.38-.52.9.9 0 0 0-.57-.19q-.3 0-.55.19-.24.18-.39.52-.14.34-.14.81 0 .45.14.8.14.34.38.54a.9.9 0 0 0 .56.19m5.5.9q-.62 0-1.13-.3a2.2 2.2 0 0 1-.79-.86q-.29-.55-.29-1.27 0-.69.29-1.24a2.26 2.26 0 0 1 .79-.87q.51-.32 1.13-.32.63 0 1.13.32.51.32.8.87.3.55.3 1.24 0 .72-.3 1.27-.29.55-.8.86-.5.3-1.13.3m0-.9q.33 0 .57-.19.24-.2.38-.54.15-.35.15-.8 0-.47-.15-.81a1.2 1.2 0 0 0-.38-.52.9.9 0 0 0-.57-.19q-.3 0-.55.19-.24.18-.39.52-.14.34-.14.81 0 .45.14.8.14.34.38.54a.9.9 0 0 0 .56.19m3.9-3.85h1.17l-.01 1.3-.13-.08q.04-.31.17-.55.14-.24.34-.42.21-.18.45-.27.25-.09.51-.09.39 0 .7.13.32.12.59.4l-.48.95-.03.08-.09-.04-.06-.16a.5.5 0 0 0-.15-.2 1.1 1.1 0 0 0-.3-.17.9.9 0 0 0-.33-.06q-.24 0-.46.08a1.06 1.06 0 0 0-.39.25 1.3 1.3 0 0 0-.26.44 1.9 1.9 0 0 0-.09.62V151h-1.15zm6.87 4.76q-.39 0-.74-.15-.34-.15-.61-.46a2.3 2.3 0 0 1-.43-.77q-.15-.46-.15-1.08 0-.6.15-1.05.15-.46.41-.76.27-.31.62-.46t.76-.15q.23 0 .44.06.22.06.39.18.18.11.29.31v-2.49h1.21v.09a.3.3 0 0 0-.08.13q-.01.07-.01.24l-.01 5.63q0 .16.02.31t.09.31H62.5a1.06 1.06 0 0 1-.1-.32v-.19a1.17 1.17 0 0 1-.69.55q-.21.07-.45.07m.19-.91q.23 0 .4-.09a.76.76 0 0 0 .29-.29q.12-.19.17-.48.06-.3.06-.68 0-.52-.1-.86-.1-.35-.31-.52a.83.83 0 0 0-.54-.17.83.83 0 0 0-.42.11.8.8 0 0 0-.31.3q-.12.2-.19.48-.06.28-.06.63 0 .49.13.84.14.35.37.54a.78.78 0 0 0 .51.19m5.54.9q-.62 0-1.13-.3a2.2 2.2 0 0 1-.79-.86q-.29-.55-.29-1.27 0-.69.29-1.24a2.26 2.26 0 0 1 .79-.87q.51-.32 1.13-.32.63 0 1.13.32.51.32.8.87.3.55.3 1.24 0 .72-.3 1.27-.29.55-.8.86-.5.3-1.13.3m0-.9q.33 0 .57-.19.24-.2.38-.54.15-.35.15-.8 0-.47-.15-.81a1.2 1.2 0 0 0-.38-.52.9.9 0 0 0-.57-.19q-.3 0-.55.19-.24.18-.39.52-.14.34-.14.81 0 .45.14.8.14.34.38.54a.9.9 0 0 0 .56.19m3.56.8v-4.65h1.13v.64q.17-.22.37-.39t.44-.26q.25-.1.53-.1.41 0 .75.2.34.19.55.62t.21 1.13V151H73.4v-2.79q0-.39-.08-.63a.66.66 0 0 0-.24-.35.56.56 0 0 0-.36-.12 1 1 0 0 0-.38.08 1 1 0 0 0-.33.22 1.14 1.14 0 0 0-.33.82V151zm5.5 0v-4.65h1.13v.64q.17-.22.37-.39t.44-.26q.25-.1.53-.1.41 0 .75.2.34.19.55.62t.21 1.13V151H78.9v-2.79q0-.39-.08-.63a.66.66 0 0 0-.24-.35.56.56 0 0 0-.36-.12 1 1 0 0 0-.38.08 1 1 0 0 0-.33.22 1.14 1.14 0 0 0-.33.82V151zm7.66.11q-.5 0-.93-.16a2.2 2.2 0 0 1-.74-.46 2.1 2.1 0 0 1-.48-.76q-.17-.45-.17-1.02 0-.58.17-1.04t.46-.78q.3-.32.7-.48.4-.17.86-.17.41 0 .77.14t.63.43q.28.28.44.71.16.42.16.98 0 .1-.01.24 0 .14-.01.24h-3.08q.02.33.13.57.11.23.29.38t.4.23q.22.07.46.07.21 0 .4-.04a1.2 1.2 0 0 0 .37-.14q.18-.1.34-.26l.58.56q-.22.26-.5.44a1.9 1.9 0 0 1-.59.24q-.31.08-.65.08m-1.21-2.98h1.98q0-.24-.07-.43a.8.8 0 0 0-.18-.32.7.7 0 0 0-.3-.19 1 1 0 0 0-.4-.07q-.19 0-.37.06a.8.8 0 0 0-.31.18q-.14.13-.23.32t-.12.45m6.71 2.98q-.5 0-.93-.16a2.2 2.2 0 0 1-.74-.46 2.1 2.1 0 0 1-.48-.76q-.17-.45-.17-1.02 0-.58.17-1.04t.46-.78q.3-.32.7-.48.4-.17.86-.17.41 0 .77.14t.63.43q.28.28.44.71.16.42.16.98 0 .1-.01.24 0 .14-.01.24h-3.08q.02.33.13.57.11.23.29.38t.4.23q.22.07.46.07.21 0 .4-.04a1.2 1.2 0 0 0 .37-.14q.18-.1.34-.26l.58.56q-.22.26-.5.44a1.9 1.9 0 0 1-.59.24q-.31.08-.65.08M88 148.13h1.98q0-.24-.07-.43a.8.8 0 0 0-.18-.32.7.7 0 0 0-.3-.19 1 1 0 0 0-.4-.07q-.19 0-.37.06a.8.8 0 0 0-.31.18q-.14.13-.23.32t-.12.45m6.59 2.98q-.42 0-.81-.08-.39-.07-.72-.23a2.7 2.7 0 0 1-.61-.43l.5-.92.04-.08.08.05q.03.07.06.16.03.08.15.19.25.21.57.33t.76.12q.28 0 .47-.06a.7.7 0 0 0 .3-.18.39.39 0 0 0 .05-.48.5.5 0 0 0-.19-.16 2 2 0 0 0-.34-.14 9 9 0 0 0-.5-.17 4.5 4.5 0 0 1-.89-.32 1.6 1.6 0 0 1-.57-.48 1.1 1.1 0 0 1-.2-.65q0-.39.22-.69.23-.3.64-.47a2.4 2.4 0 0 1 .97-.18q.29 0 .55.05.26.04.49.13a1.7 1.7 0 0 1 .44.22q.21.13.39.31l-.55.77-.07.08-.07-.06a.4.4 0 0 0-.05-.15.56.56 0 0 0-.15-.19 1.3 1.3 0 0 0-.46-.22 1.8 1.8 0 0 0-.5-.07q-.34 0-.59.11-.24.11-.24.34 0 .13.11.24.11.1.36.2.26.09.68.2.56.15.91.35.36.19.52.46.17.27.17.63 0 .39-.22.73a1.5 1.5 0 0 1-.65.54q-.42.2-1.05.2m3.2-.11 1.63-3.18-1.61-3.05h1.16l1.05 2.05 1.02-2.05h1.1l-1.5 3.04 1.7 3.19h-1.2l-1.11-2.15-1.08 2.15zm7.24 0v-2.46l-1.86-3.77h1.16l1.29 2.6 1.14-2.6h1.11l-1.71 3.78V151zM37 153.25h71v.5H37z"/><path fill="#3a3a3a" d="M191.6 152.67v-6.24h.73v.9a1.5 1.5 0 0 1 .31-.57q.21-.22.48-.32.28-.11.6-.11.38 0 .72.15.35.14.61.43.27.29.42.73.16.44.16 1.04t-.17 1.06a2.2 2.2 0 0 1-.44.77q-.27.3-.62.46-.34.15-.7.15-.27 0-.53-.09a1.5 1.5 0 0 1-.46-.24 2 2 0 0 1-.37-.39v2.27zm1.98-2.19q.24 0 .47-.08.23-.09.42-.29t.3-.54q.11-.35.11-.86a2.7 2.7 0 0 0-.14-.93q-.14-.39-.41-.6a1.08 1.08 0 0 0-.64-.23 1.2 1.2 0 0 0-.53.08q-.24.1-.43.33a1.7 1.7 0 0 0-.3.61q-.1.37-.1.9.01.32.07.58t.17.46q.11.19.26.32.15.12.34.19.19.06.41.06m5.42.6q-.62 0-1.1-.3a2.16 2.16 0 0 1-.74-.84q-.27-.54-.27-1.23 0-.7.27-1.23.27-.54.74-.84a2 2 0 0 1 1.1-.31q.62 0 1.09.31.48.3.75.84.27.53.27 1.23 0 .69-.27 1.23-.27.53-.75.84-.47.3-1.09.3m0-.6q.4 0 .7-.23t.47-.63q.18-.4.18-.92t-.18-.92a1.45 1.45 0 0 0-.47-.62 1.12 1.12 0 0 0-.7-.23q-.39 0-.7.23-.3.22-.48.62a2.3 2.3 0 0 0-.17.92q0 .52.17.92.18.4.48.63.31.23.7.23m4 .52v-.58h1.17v-3.41h-1.11v-.58h1.83v3.99h1.07v.58zm1.49-5.53q-.21 0-.36-.15t-.15-.36q0-.22.14-.37.15-.15.37-.15.21 0 .36.16.16.15.16.36t-.16.36q-.15.15-.36.15m3.73 5.53v-4.57h.7v.81q.18-.28.42-.48.24-.21.53-.32.29-.12.6-.12.38 0 .68.19t.48.61.18 1.11V151h-.7v-2.75q0-.48-.11-.76-.11-.29-.3-.41a.74.74 0 0 0-.43-.13q-.23 0-.47.1a1.5 1.5 0 0 0-.43.29q-.2.18-.33.44-.12.26-.12.59V151zm7.77.07q-.44 0-.72-.15a1 1 0 0 1-.43-.46q-.15-.32-.2-.8-.04-.48-.02-1.14l.12-3.26.75-.09.1-.01.01.07a2 2 0 0 0-.09.14 1 1 0 0 0-.05.24l-.09 1.13.03.18-.07 1.65q-.03.76.04 1.18.07.41.25.57.18.15.48.15.33 0 .58-.13.26-.13.54-.33l.22.57q-.34.25-.7.37t-.75.12m-2.29-4.64h3.29v.59h-3.29zm5.15 5.37v-.61h4.31v.61zm7.62.92q-.48 0-.87-.08a2.3 2.3 0 0 1-.66-.22 1.1 1.1 0 0 1-.42-.36.95.95 0 0 1-.14-.52q0-.28.12-.5t.31-.36q.2-.15.43-.22l.3.18q-.18.11-.29.22a.7.7 0 0 0-.16.25q-.05.15-.05.35 0 .17.1.3a.75.75 0 0 0 .28.23q.19.09.45.14.27.05.61.05.46 0 .74-.1.29-.09.43-.26a.55.55 0 0 0 .14-.37.7.7 0 0 0-.08-.36q-.08-.14-.33-.21t-.76-.07q-.35 0-.64-.03a2.7 2.7 0 0 1-.52-.1 1.6 1.6 0 0 1-.39-.17.8.8 0 0 1-.23-.26.74.74 0 0 1-.08-.35q0-.26.14-.5.15-.24.4-.46l.34.27q-.1.11-.16.2a.7.7 0 0 0-.09.16.6.6 0 0 0-.02.16q0 .16.12.26.13.1.44.15.31.04.84.04t.86.09q.33.08.5.24.18.16.25.37t.07.46q0 .27-.11.51a1.1 1.1 0 0 1-.33.44 1.6 1.6 0 0 1-.61.31q-.38.12-.93.12m-.21-3.27q-.49 0-.85-.21a1.56 1.56 0 0 1-.56-.58 1.75 1.75 0 0 1-.19-.81q0-.44.19-.8.2-.36.56-.57.36-.22.85-.22.5 0 .85.22.36.21.55.57.2.36.2.8t-.2.81q-.19.36-.55.58-.35.21-.85.21m0-.6a1 1 0 0 0 .51-.13 1.01 1.01 0 0 0 .49-.87.96.96 0 0 0-.13-.5.94.94 0 0 0-.36-.36.93.93 0 0 0-.51-.14.98.98 0 0 0-.87.5.96.96 0 0 0-.13.5q0 .27.13.5t.35.37q.23.13.52.13m1.33-1.68-.28-.33q.29-.29.6-.42.32-.14.75-.11l.09.59a2.4 2.4 0 0 0-.62.02 1.2 1.2 0 0 0-.54.25m4.63 3.93q-.5 0-.91-.15a2.05 2.05 0 0 1-.71-.46 2.1 2.1 0 0 1-.45-.74q-.16-.45-.16-1.02 0-.58.16-1.03.17-.45.45-.75.29-.31.67-.47.39-.16.82-.16.39 0 .73.13t.59.4q.25.26.39.67a2.8 2.8 0 0 1 .14 1.14q0 .08-.01.16h-3.25q.02.44.15.77.13.32.34.53.21.2.48.3.28.1.59.1.24 0 .45-.05.21-.06.39-.17.19-.12.34-.29l.4.39a1.9 1.9 0 0 1-.44.39q-.24.16-.53.23-.29.08-.63.08m-1.51-2.84h2.51q0-.32-.09-.57a1.2 1.2 0 0 0-.24-.44.9.9 0 0 0-.37-.28q-.21-.1-.48-.1-.24 0-.46.08-.21.08-.39.26-.18.17-.31.43a2.2 2.2 0 0 0-.17.62m6.79 2.82q-.62 0-1.1-.3a2.16 2.16 0 0 1-.74-.84q-.27-.54-.27-1.23 0-.7.27-1.23.27-.54.74-.84a2 2 0 0 1 1.1-.31q.62 0 1.09.31.48.3.75.84.27.53.27 1.23 0 .69-.27 1.23-.27.53-.75.84-.47.3-1.09.3m0-.6q.4 0 .7-.23t.47-.63q.18-.4.18-.92t-.18-.92a1.45 1.45 0 0 0-.47-.62 1.12 1.12 0 0 0-.7-.23q-.39 0-.7.23-.3.22-.48.62a2.3 2.3 0 0 0-.17.92q0 .52.17.92.18.4.48.63.31.23.7.23"/><path fill="#1f8a65" d="m319.702 149.32 1.059 1.059 6.349-6.35 1.06 1.061-7.409 7.41-4.773-4.773 1.06-1.061 1.594 1.594zm.001-2.121 3.714-3.715 1.058 1.058-3.714 3.715zm-2.12 4.241-1.06 1.06-4.773-4.773 1.061-1.061 1.059 1.06v.001z"/><path fill="#fff" d="M13 163h324v30H13z"/><path stroke="#e5e5e5" d="M13 163h324v30H13z"/><path fill="#e5e5e5" d="M23.52 181.12q-.65 0-1.18-.25a1.8 1.8 0 0 1-.8-.74l.79-.65.08-.06.05.07q0 .08.03.15t.13.2q.18.18.4.27t.49.09q.22 0 .41-.08a.9.9 0 0 0 .32-.25q.14-.16.22-.38t.08-.47q0-.28-.08-.5a1.05 1.05 0 0 0-.21-.39.85.85 0 0 0-.33-.26 1 1 0 0 0-.44-.09q-.19 0-.38.06a1.1 1.1 0 0 0-.35.16q-.15.1-.28.27l-.69-.18.23-3.32h3.33v.91h-2.39l-.09 1.41q.12-.06.27-.11.15-.06.31-.08.16-.03.3-.03.42 0 .76.14.34.13.59.4.25.26.38.65.14.39.14.88 0 .67-.28 1.16a1.93 1.93 0 0 1-.74.76q-.46.26-1.07.26"/><path fill="#000091" d="M37.55 181v-4.65h1.13v.64q.17-.22.37-.39t.44-.26q.25-.1.53-.1.41 0 .75.2.34.19.55.62t.21 1.13V181H40.4v-2.79q0-.39-.08-.63a.66.66 0 0 0-.24-.35.56.56 0 0 0-.36-.12 1 1 0 0 0-.38.08 1 1 0 0 0-.33.22 1.14 1.14 0 0 0-.33.82V181zm7.74.12q-.25 0-.48-.07a1.5 1.5 0 0 1-.43-.21 2.2 2.2 0 0 1-.35-.35l-.19.51h-.86v-6.71h1.23v.09a.3.3 0 0 0-.08.13q-.01.07-.01.24v2.12a2 2 0 0 1 .24-.26q.13-.12.29-.2.16-.09.33-.13.18-.04.36-.04.43 0 .77.15.35.15.59.45.25.29.38.73.14.44.14 1.03 0 .64-.16 1.12-.15.47-.42.78t-.62.47q-.34.15-.73.15m-.23-.88q.21 0 .4-.08a.9.9 0 0 0 .33-.27q.14-.18.22-.47.08-.3.08-.72 0-.38-.07-.68a1.6 1.6 0 0 0-.2-.5.9.9 0 0 0-.32-.32.8.8 0 0 0-.42-.11.76.76 0 0 0-.51.19q-.21.18-.32.53a3 3 0 0 0-.12.84q0 .38.05.68.06.29.17.5a.9.9 0 0 0 .29.31q.18.1.42.1m3.83-3.89h1.17l-.01 1.3-.13-.08q.04-.31.17-.55.14-.24.34-.42.21-.18.45-.27.25-.09.51-.09.39 0 .7.13.32.12.59.4l-.48.95-.03.08-.09-.04-.06-.16a.5.5 0 0 0-.15-.2 1.1 1.1 0 0 0-.3-.17.9.9 0 0 0-.33-.06q-.24 0-.46.08a1.06 1.06 0 0 0-.39.25 1.3 1.3 0 0 0-.26.44 1.9 1.9 0 0 0-.09.62V181h-1.15zm7.32 4.76q-.5 0-.93-.16a2.2 2.2 0 0 1-.74-.46 2.1 2.1 0 0 1-.48-.76q-.17-.45-.17-1.02 0-.58.17-1.04t.46-.78q.3-.32.7-.48.4-.17.86-.17.41 0 .77.14t.63.43q.28.28.44.71.16.42.16.98 0 .1-.01.24 0 .14-.01.24h-3.08q.02.33.13.57.11.23.29.38t.4.23q.22.07.46.07.21 0 .4-.04a1.2 1.2 0 0 0 .37-.14q.18-.1.34-.26l.58.56q-.22.26-.5.44a1.9 1.9 0 0 1-.59.24q-.31.08-.65.08M55 178.13h1.98q0-.24-.07-.43a.8.8 0 0 0-.18-.32.7.7 0 0 0-.3-.19 1 1 0 0 0-.4-.07q-.19 0-.37.06a.8.8 0 0 0-.31.18q-.14.13-.23.32t-.12.45m4.31 3.88v-.9h4.38v.9zm5.67.66-.01-6.33h1.12v.65q.16-.26.35-.42.2-.17.44-.25.25-.08.52-.08.38 0 .71.16.34.15.59.46t.39.77q.15.45.15 1.06t-.15 1.07-.42.76q-.26.3-.6.45-.33.15-.69.15-.25 0-.49-.06a2 2 0 0 1-.43-.17 1.2 1.2 0 0 1-.33-.29v2.07zm2.09-2.43q.22 0 .41-.08a.8.8 0 0 0 .33-.26q.15-.19.23-.5a3.1 3.1 0 0 0 .08-.77q0-.46-.12-.79-.12-.34-.34-.52a.86.86 0 0 0-.53-.19.9.9 0 0 0-.43.08.8.8 0 0 0-.31.29 1.6 1.6 0 0 0-.2.51 3.5 3.5 0 0 0-.02 1.29q.04.24.11.42.08.17.19.29a.8.8 0 0 0 .26.17q.15.06.34.06m5.19.87q-.39 0-.74-.15-.34-.15-.61-.46a2.3 2.3 0 0 1-.43-.77q-.15-.46-.15-1.08 0-.6.15-1.05.15-.46.41-.76.27-.31.62-.46t.76-.15q.23 0 .44.06.22.06.39.18.18.11.29.31v-2.49h1.21v.09a.3.3 0 0 0-.08.13q-.01.07-.01.24l-.01 5.63q0 .16.02.31t.09.31H73.5a1.06 1.06 0 0 1-.1-.32v-.19a1.17 1.17 0 0 1-.69.55q-.21.07-.45.07m.19-.91q.23 0 .4-.09a.76.76 0 0 0 .29-.29q.12-.19.17-.48.06-.3.06-.68 0-.52-.1-.86-.1-.35-.31-.52a.83.83 0 0 0-.54-.17.83.83 0 0 0-.42.11.8.8 0 0 0-.31.3q-.12.2-.19.48-.06.28-.06.63 0 .49.13.84.14.35.37.54a.78.78 0 0 0 .51.19m5.83.92q-.51 0-.95-.18a2.4 2.4 0 0 1-.76-.5 2.3 2.3 0 0 1-.5-.76 2.5 2.5 0 0 1-.18-.97q0-.51.18-.96a2.37 2.37 0 0 1 1.26-1.31q.44-.2.96-.2.64 0 1.12.24t.76.66l-.63.69-.06.07-.08-.06a.7.7 0 0 0-.02-.16.5.5 0 0 0-.13-.21.9.9 0 0 0-.42-.25 1.8 1.8 0 0 0-.53-.07q-.25 0-.48.11-.22.1-.4.3a1.3 1.3 0 0 0-.28.48q-.1.29-.1.67 0 .34.1.62.11.27.28.47.18.19.41.3.24.1.5.1.21 0 .41-.06t.39-.18q.2-.13.37-.34l.63.72a2.25 2.25 0 0 1-.86.6q-.49.18-.99.18M37 183.25h43.5v.5H37z"/><path fill="#3a3a3a" d="M192 181v-.58h1.17v-3.41h-1.11v-.58h1.83v3.99h1.07v.58zm1.49-5.53q-.21 0-.36-.15t-.15-.36q0-.22.14-.37.15-.15.37-.15.21 0 .36.16.16.15.16.36t-.16.36q-.15.15-.36.15m3.73 5.53v-4.57h.7v.81q.18-.28.42-.48.24-.21.53-.32.29-.12.6-.12.38 0 .68.19t.48.61.18 1.11V181h-.7v-2.75q0-.48-.11-.76-.11-.29-.3-.41a.74.74 0 0 0-.43-.13q-.23 0-.47.1a1.5 1.5 0 0 0-.43.29q-.2.18-.33.44-.12.26-.12.59V181zm7.77.07q-.44 0-.72-.15a1 1 0 0 1-.43-.46q-.15-.32-.2-.8-.04-.48-.02-1.14l.12-3.26.75-.09.1-.01.01.07a2 2 0 0 0-.09.14 1 1 0 0 0-.05.24l-.09 1.13.03.18-.07 1.65q-.03.76.04 1.18.07.41.25.57.18.15.48.15.33 0 .58-.13.26-.13.54-.33l.22.57q-.34.25-.7.37t-.75.12m-2.29-4.64h3.29v.59h-3.29zm7.52 4.67q-.5 0-.91-.15a2.05 2.05 0 0 1-.71-.46 2.1 2.1 0 0 1-.45-.74q-.16-.45-.16-1.02 0-.58.16-1.03.17-.45.45-.75.29-.31.67-.47.39-.16.82-.16.39 0 .73.13t.59.4q.25.26.39.67a2.8 2.8 0 0 1 .14 1.14q0 .08-.01.16h-3.25q.02.44.15.77.13.32.34.53.21.2.48.3.28.1.59.1.24 0 .45-.05.21-.06.39-.17.19-.12.34-.29l.4.39a1.9 1.9 0 0 1-.44.39q-.24.16-.53.23-.29.08-.63.08m-1.51-2.84h2.51q0-.32-.09-.57a1.2 1.2 0 0 0-.24-.44.9.9 0 0 0-.37-.28q-.21-.1-.48-.1-.24 0-.46.08-.21.08-.39.26-.18.17-.31.43a2.2 2.2 0 0 0-.17.62m6.76 4.46q-.48 0-.87-.08a2.3 2.3 0 0 1-.66-.22 1.1 1.1 0 0 1-.42-.36.95.95 0 0 1-.14-.52q0-.28.12-.5t.31-.36q.2-.15.43-.22l.3.18q-.18.11-.29.22a.7.7 0 0 0-.16.25q-.05.15-.05.35 0 .17.1.3a.75.75 0 0 0 .28.23q.19.09.45.14.27.05.61.05.46 0 .74-.1.29-.09.43-.26a.55.55 0 0 0 .14-.37.7.7 0 0 0-.08-.36q-.08-.14-.33-.21t-.76-.07q-.35 0-.64-.03a2.7 2.7 0 0 1-.52-.1 1.6 1.6 0 0 1-.39-.17.8.8 0 0 1-.23-.26.74.74 0 0 1-.08-.35q0-.26.14-.5.15-.24.4-.46l.34.27q-.1.11-.16.2a.7.7 0 0 0-.09.16.6.6 0 0 0-.02.16q0 .16.12.26.13.1.44.15.31.04.84.04t.86.09q.33.08.5.24.18.16.25.37t.07.46q0 .27-.11.51a1.1 1.1 0 0 1-.33.44 1.6 1.6 0 0 1-.61.31q-.38.12-.93.12m-.21-3.27q-.49 0-.85-.21a1.56 1.56 0 0 1-.56-.58 1.75 1.75 0 0 1-.19-.81q0-.44.19-.8.2-.36.56-.57.36-.22.85-.22.5 0 .85.22.36.21.55.57.2.36.2.8t-.2.81q-.19.36-.55.58-.35.21-.85.21m0-.6a1 1 0 0 0 .51-.13 1.01 1.01 0 0 0 .49-.87.96.96 0 0 0-.13-.5.94.94 0 0 0-.36-.36.93.93 0 0 0-.51-.14.98.98 0 0 0-.87.5.96.96 0 0 0-.13.5q0 .27.13.5t.35.37q.23.13.52.13m1.33-1.68-.28-.33q.29-.29.6-.42.32-.14.75-.11l.09.59a2.4 2.4 0 0 0-.62.02 1.2 1.2 0 0 0-.54.25m4.63 3.93q-.5 0-.91-.15a2.05 2.05 0 0 1-.71-.46 2.1 2.1 0 0 1-.45-.74q-.16-.45-.16-1.02 0-.58.16-1.03.17-.45.45-.75.29-.31.67-.47.39-.16.82-.16.39 0 .73.13t.59.4q.25.26.39.67a2.8 2.8 0 0 1 .14 1.14q0 .08-.01.16h-3.25q.02.44.15.77.13.32.34.53.21.2.48.3.28.1.59.1.24 0 .45-.05.21-.06.39-.17.19-.12.34-.29l.4.39a1.9 1.9 0 0 1-.44.39q-.24.16-.53.23-.29.08-.63.08m-1.51-2.84h2.51q0-.32-.09-.57a1.2 1.2 0 0 0-.24-.44.9.9 0 0 0-.37-.28q-.21-.1-.48-.1-.24 0-.46.08-.21.08-.39.26-.18.17-.31.43a2.2 2.2 0 0 0-.17.62m5.48-1.83h.75l-.03 1.33-.09-.15q.06-.31.21-.55t.36-.4q.21-.17.46-.25.25-.09.52-.09.36 0 .66.13.31.12.55.37l-.32.56-.04.09-.07-.04a.6.6 0 0 0-.06-.15.7.7 0 0 0-.17-.17 1 1 0 0 0-.3-.13 1 1 0 0 0-.3-.04q-.25 0-.5.1-.25.09-.46.29-.2.2-.32.51a2 2 0 0 0-.12.74v2.43h-.73z"/><path fill="#fff" d="M13 193h324v30H13z"/><path stroke="#e5e5e5" d="M13 193h324v30H13z"/><path fill="#e5e5e5" d="M23.6 211.11q-.67 0-1.14-.37t-.71-1.03q-.24-.67-.24-1.57 0-1.1.3-1.87.31-.78.83-1.19.53-.41 1.21-.41.41 0 .83.15.43.14.75.46l-.62.69-.06.08-.08-.06a.22.22 0 0 0-.06-.13 1 1 0 0 0-.18-.15.6.6 0 0 0-.15-.06 1.31 1.31 0 0 0-.65 0 1.1 1.1 0 0 0-.34.15 1.3 1.3 0 0 0-.31.32q-.14.2-.24.53-.09.32-.12.8.13-.18.32-.3t.4-.18q.22-.07.43-.07.37 0 .69.13.33.13.57.39.24.25.37.63.14.38.14.89 0 .62-.25 1.11a2 2 0 0 1-.69.78 1.8 1.8 0 0 1-1 .28m.02-.91q.19 0 .35-.09t.28-.25q.12-.17.18-.4t.06-.52q0-.3-.07-.51a.881.881 0 0 0-.49-.57.8.8 0 0 0-.32-.07q-.15 0-.29.05-.13.05-.26.14-.12.09-.23.22-.1.12-.18.27-.02.38.04.7.06.31.19.55.13.23.32.36a.77.77 0 0 0 .42.12"/><path fill="#000091" d="M37.84 211v-.89h1.14v-2.87H37.9v-.89h2.22v3.76h1.04v.89zm1.66-5.42a.7.7 0 0 1-.5-.2.64.64 0 0 1-.21-.48q0-.3.2-.49a.7.7 0 0 1 .51-.19.7.7 0 0 1 .49.2q.22.2.22.48a.63.63 0 0 1-.22.48.7.7 0 0 1-.49.2m5.26 5.53q-.39 0-.74-.15-.34-.15-.61-.46a2.3 2.3 0 0 1-.43-.77q-.15-.46-.15-1.08 0-.6.15-1.05.15-.46.41-.76.27-.31.62-.46t.76-.15q.23 0 .44.06.22.06.39.18.18.11.29.31v-2.49h1.21v.09a.3.3 0 0 0-.08.13q-.01.07-.01.24l-.01 5.63q0 .16.02.31t.09.31H46a1.06 1.06 0 0 1-.1-.32v-.19a1.17 1.17 0 0 1-.69.55q-.21.07-.45.07m.19-.91q.23 0 .4-.09a.76.76 0 0 0 .29-.29q.12-.19.17-.48.06-.3.06-.68 0-.52-.1-.86-.1-.35-.31-.52a.83.83 0 0 0-.54-.17.83.83 0 0 0-.42.11.8.8 0 0 0-.31.3q-.12.2-.19.48-.06.28-.06.63 0 .49.13.84.14.35.37.54a.78.78 0 0 0 .51.19m3.36 1.81v-.9h4.38v.9zm5.67.66-.01-6.33h1.12v.65q.16-.26.35-.42.2-.17.44-.25.25-.08.52-.08.38 0 .71.16.34.15.59.46t.39.77q.15.45.15 1.06t-.15 1.07-.42.76q-.26.3-.6.45-.33.15-.69.15-.25 0-.49-.06a2 2 0 0 1-.43-.17 1.2 1.2 0 0 1-.33-.29v2.07zm2.09-2.43q.22 0 .41-.08a.8.8 0 0 0 .33-.26q.15-.19.23-.5a3.1 3.1 0 0 0 .08-.77q0-.46-.12-.79-.12-.34-.34-.52a.86.86 0 0 0-.53-.19.9.9 0 0 0-.43.08.8.8 0 0 0-.31.29 1.6 1.6 0 0 0-.2.51 3.5 3.5 0 0 0-.02 1.29q.04.24.11.42.08.17.19.29a.8.8 0 0 0 .26.17q.15.06.34.06m5.19.87q-.39 0-.74-.15-.34-.15-.61-.46a2.3 2.3 0 0 1-.43-.77q-.15-.46-.15-1.08 0-.6.15-1.05.15-.46.41-.76.27-.31.62-.46t.76-.15q.23 0 .44.06.22.06.39.18.18.11.29.31v-2.49h1.21v.09a.3.3 0 0 0-.08.13q-.01.07-.01.24l-.01 5.63q0 .16.02.31t.09.31H62.5a1.06 1.06 0 0 1-.1-.32v-.19a1.17 1.17 0 0 1-.69.55q-.21.07-.45.07m.19-.91q.23 0 .4-.09a.76.76 0 0 0 .29-.29q.12-.19.17-.48.06-.3.06-.68 0-.52-.1-.86-.1-.35-.31-.52a.83.83 0 0 0-.54-.17.83.83 0 0 0-.42.11.8.8 0 0 0-.31.3q-.12.2-.19.48-.06.28-.06.63 0 .49.13.84.14.35.37.54a.78.78 0 0 0 .51.19m5.83.92q-.51 0-.95-.18a2.4 2.4 0 0 1-.76-.5 2.3 2.3 0 0 1-.5-.76 2.5 2.5 0 0 1-.18-.97q0-.51.18-.96a2.37 2.37 0 0 1 1.26-1.31q.44-.2.96-.2.64 0 1.12.24t.76.66l-.63.69-.06.07-.08-.06a.7.7 0 0 0-.02-.16.5.5 0 0 0-.13-.21.9.9 0 0 0-.42-.25 1.8 1.8 0 0 0-.53-.07q-.25 0-.48.11-.22.1-.4.3a1.3 1.3 0 0 0-.28.48q-.1.29-.1.67 0 .34.1.62.11.27.28.47.18.19.41.3.24.1.5.1.21 0 .41-.06t.39-.18q.2-.13.37-.34l.63.72a2.25 2.25 0 0 1-.86.6q-.49.18-.99.18m3.03.89v-.9h4.38v.9zm6.03-1.01v-.89h1.14v-2.87H76.4v-.89h2.22v3.76h1.04v.89zm1.66-5.42a.7.7 0 0 1-.5-.2.64.64 0 0 1-.21-.48q0-.3.2-.49a.7.7 0 0 1 .51-.19.7.7 0 0 1 .49.2q.22.2.22.48a.63.63 0 0 1-.22.48.7.7 0 0 1-.49.2m5.99 5.52q-.4 0-.7-.13a1.2 1.2 0 0 1-.49-.42q-.19-.29-.28-.77a6 6 0 0 1-.05-1.19l.13-3.34 1.17-.15.09-.01.01.09-.08.14a.6.6 0 0 0-.05.24l-.11 1.38.05.07-.08 1.56q-.03.65.04 1.01.08.35.23.48.16.13.38.13.32 0 .57-.13.26-.13.48-.3l.24.82q-.34.25-.73.39-.38.13-.82.13m-2.4-4.75h3.58l-.01.89h-3.59zm5.75 4.65v-.89h1.14v-2.87H87.4v-.89h2.22v3.76h1.04v.89zm1.66-5.42a.7.7 0 0 1-.5-.2.64.64 0 0 1-.21-.48q0-.3.2-.49a.7.7 0 0 1 .51-.19.7.7 0 0 1 .49.2q.22.2.22.48a.63.63 0 0 1-.22.48.7.7 0 0 1-.49.2m3.55 5.42v-4.65h1.13v.64q.17-.22.37-.39t.44-.26q.25-.1.53-.1.41 0 .75.2.34.19.55.62t.21 1.13V211H95.4v-2.79q0-.39-.08-.63a.66.66 0 0 0-.24-.35.56.56 0 0 0-.36-.12 1 1 0 0 0-.38.08 1 1 0 0 0-.33.22 1.14 1.14 0 0 0-.33.82V211zm7.66.11q-.5 0-.93-.16a2.2 2.2 0 0 1-.74-.46 2.1 2.1 0 0 1-.48-.76q-.17-.45-.17-1.02 0-.58.17-1.04t.46-.78q.3-.32.7-.48.4-.17.86-.17.41 0 .77.14t.63.43q.28.28.44.71.16.42.16.98 0 .1-.01.24 0 .14-.01.24h-3.08q.02.33.13.57.11.23.29.38t.4.23q.22.07.46.07.21 0 .4-.04a1.2 1.2 0 0 0 .37-.14q.18-.1.34-.26l.58.56q-.22.26-.5.44-.27.17-.59.24-.31.08-.65.08M99 208.13h1.98q0-.24-.07-.43a.8.8 0 0 0-.18-.32.7.7 0 0 0-.3-.19 1 1 0 0 0-.4-.07q-.19 0-.37.06a.8.8 0 0 0-.31.18q-.14.13-.23.32t-.12.45m4.89-1.78h1.17l-.01 1.3-.13-.08q.04-.31.17-.55.14-.24.34-.42.21-.18.45-.27.25-.09.51-.09.39 0 .7.13.32.12.59.4l-.48.95-.03.08-.09-.04-.06-.16a.5.5 0 0 0-.15-.2 1.1 1.1 0 0 0-.3-.17.9.9 0 0 0-.33-.06q-.24 0-.46.08a1.05 1.05 0 0 0-.39.25 1.3 1.3 0 0 0-.26.44 1.9 1.9 0 0 0-.09.62V211h-1.15zm6.59 4.77q-.77 0-1.2-.36a1.2 1.2 0 0 1-.42-.95q0-.37.16-.68.17-.32.5-.55t.82-.35q.49-.13 1.12-.13h.2q.12 0 .26.01.14 0 .26.02l.03.78a2 2 0 0 0-.24-.01 4 4 0 0 0-.29-.01 3.3 3.3 0 0 0-.92.05q-.27.06-.44.17a.65.65 0 0 0-.33.56q0 .16.05.27.06.11.15.18.1.06.23.09t.28.03q.3 0 .52-.09a.9.9 0 0 0 .38-.31q.16-.21.23-.52.08-.32.08-.75 0-.58-.12-.89t-.35-.43a1.16 1.16 0 0 0-.58-.13q-.32 0-.61.11-.28.1-.55.38l-.62-.68q.39-.37.87-.53t.96-.16q.44 0 .82.1t.66.34q.29.23.45.64.17.4.17 1V211h-1.17v-.5q-.13.17-.28.29t-.32.19-.36.1q-.19.04-.4.04m4.07-.12v-4.65h1.13v.64q.17-.22.37-.39t.44-.26q.25-.1.53-.1.41 0 .75.2.34.19.55.62t.21 1.13V211h-1.13v-2.79q0-.39-.08-.63a.66.66 0 0 0-.24-.35.56.56 0 0 0-.36-.12 1 1 0 0 0-.38.08 1 1 0 0 0-.33.22 1.14 1.14 0 0 0-.33.82V211zm7.73.12q-.51 0-.95-.18a2.4 2.4 0 0 1-.76-.5 2.3 2.3 0 0 1-.5-.76 2.5 2.5 0 0 1-.18-.97q0-.51.18-.96a2.38 2.38 0 0 1 2.22-1.51q.64 0 1.12.24t.76.66l-.63.69-.06.07-.08-.06a.7.7 0 0 0-.02-.16.5.5 0 0 0-.13-.21.9.9 0 0 0-.42-.25 1.8 1.8 0 0 0-.53-.07q-.25 0-.48.11a1.2 1.2 0 0 0-.4.3q-.18.19-.28.48t-.1.67q0 .34.1.62.11.27.28.47.18.19.41.3.24.1.5.1.21 0 .41-.06t.39-.18q.2-.13.37-.34l.63.72a2.25 2.25 0 0 1-.86.6q-.49.18-.99.18m5.43-.01q-.5 0-.93-.16a2.2 2.2 0 0 1-.74-.46 2.1 2.1 0 0 1-.48-.76q-.17-.45-.17-1.02 0-.58.17-1.04t.46-.78q.3-.32.7-.48.4-.17.86-.17.41 0 .77.14t.63.43q.28.28.44.71.16.42.16.98 0 .1-.01.24 0 .14-.01.24h-3.08q.02.33.13.57.11.23.29.38t.4.23q.22.07.46.07.21 0 .4-.04a1.2 1.2 0 0 0 .37-.14q.18-.1.34-.26l.58.56q-.22.26-.5.44-.27.17-.59.24-.31.08-.65.08m-1.21-2.98h1.98q0-.24-.07-.43a.8.8 0 0 0-.18-.32.7.7 0 0 0-.3-.19 1 1 0 0 0-.4-.07q-.19 0-.37.06a.8.8 0 0 0-.31.18q-.14.13-.23.32t-.12.45M37 213.25h93v.5H37z"/><path fill="#3a3a3a" d="M193.51 211.1q-.38 0-.73-.08a2.8 2.8 0 0 1-.65-.24q-.3-.16-.56-.4l.4-.68.06-.09.06.04q.02.08.04.17.03.08.14.2.21.21.5.35.3.13.76.13.37 0 .62-.09a.9.9 0 0 0 .4-.25.6.6 0 0 0 .14-.39q0-.15-.06-.26a.6.6 0 0 0-.2-.22 1.8 1.8 0 0 0-.35-.2 5 5 0 0 0-.54-.2q-.52-.15-.91-.35a1.8 1.8 0 0 1-.6-.46.97.97 0 0 1-.21-.61q0-.35.19-.6.19-.26.56-.4.38-.15.93-.15.32 0 .58.05.26.04.48.13t.4.23q.19.13.36.31l-.41.5-.07.08-.05-.05a.4.4 0 0 0-.05-.15.6.6 0 0 0-.14-.19 1.6 1.6 0 0 0-.52-.27q-.29-.1-.56-.1-.4 0-.69.14t-.29.43q0 .15.1.3.11.14.39.29.28.14.8.29.57.18.91.37.35.18.5.42.16.24.16.57 0 .38-.21.71-.2.33-.62.53-.42.19-1.06.19m5.98-.03q-.44 0-.72-.15a1 1 0 0 1-.43-.46q-.15-.32-.2-.8-.04-.48-.02-1.14l.12-3.26.75-.09.1-.01.01.07a2 2 0 0 0-.09.14 1 1 0 0 0-.05.24l-.09 1.13.03.18-.07 1.65q-.03.76.04 1.18.07.41.25.57.18.15.48.15.33 0 .58-.13.26-.13.54-.33l.22.57q-.34.25-.7.37t-.75.12m-2.29-4.64h3.29v.59h-3.29zm5.99 0h.75l-.03 1.33-.09-.15q.06-.31.21-.55t.36-.4q.21-.17.46-.25.25-.09.52-.09.36 0 .66.13.31.12.55.37l-.32.56-.04.09-.07-.04a.6.6 0 0 0-.06-.15.7.7 0 0 0-.17-.17 1 1 0 0 0-.3-.13 1 1 0 0 0-.3-.04q-.25 0-.5.1-.25.09-.46.29-.2.2-.32.51a2 2 0 0 0-.12.74v2.43h-.73zm5.31 4.57v-.58h1.17v-3.41h-1.11v-.58h1.83v3.99h1.07v.58zm1.49-5.53q-.21 0-.36-.15t-.15-.36q0-.22.14-.37.15-.15.37-.15.21 0 .36.16.16.15.16.36t-.16.36q-.15.15-.36.15m3.73 5.53v-4.57h.7v.81q.18-.28.42-.48.24-.21.53-.32.29-.12.6-.12.38 0 .68.19t.48.61.18 1.11V211h-.7v-2.75q0-.48-.11-.76-.11-.29-.3-.41a.74.74 0 0 0-.43-.13q-.23 0-.47.1a1.5 1.5 0 0 0-.43.29q-.2.18-.33.44-.12.26-.12.59V211zm7.25 1.72q-.48 0-.87-.08a2.3 2.3 0 0 1-.66-.22 1.1 1.1 0 0 1-.42-.36.95.95 0 0 1-.14-.52q0-.28.12-.5t.31-.36q.2-.15.43-.22l.3.18q-.18.11-.29.22a.7.7 0 0 0-.16.25q-.05.15-.05.35 0 .17.1.3a.75.75 0 0 0 .28.23q.19.09.45.14.27.05.61.05.46 0 .74-.1.29-.09.43-.26a.55.55 0 0 0 .14-.37.7.7 0 0 0-.08-.36q-.08-.14-.33-.21t-.76-.07q-.35 0-.64-.03a2.7 2.7 0 0 1-.52-.1 1.6 1.6 0 0 1-.39-.17.8.8 0 0 1-.23-.26.74.74 0 0 1-.08-.35q0-.26.14-.5.15-.24.4-.46l.34.27q-.1.11-.16.2a.7.7 0 0 0-.09.16.6.6 0 0 0-.02.16q0 .16.12.26.13.1.44.15.31.04.84.04t.86.09q.33.08.5.24.18.16.25.37t.07.46q0 .27-.11.51a1.1 1.1 0 0 1-.33.44 1.6 1.6 0 0 1-.61.31q-.38.12-.93.12m-.21-3.27q-.49 0-.85-.21a1.56 1.56 0 0 1-.56-.58 1.75 1.75 0 0 1-.19-.81q0-.44.19-.8.2-.36.56-.57.36-.22.85-.22.5 0 .85.22.36.21.55.57.2.36.2.8t-.2.81q-.19.36-.55.58-.35.21-.85.21m0-.6a1 1 0 0 0 .51-.13 1.01 1.01 0 0 0 .49-.87.96.96 0 0 0-.13-.5.94.94 0 0 0-.36-.36.93.93 0 0 0-.51-.14.98.98 0 0 0-.87.5.96.96 0 0 0-.13.5q0 .27.13.5t.35.37q.23.13.52.13m1.33-1.68-.28-.33q.29-.29.6-.42.32-.14.75-.11l.09.59a2.4 2.4 0 0 0-.62.02 1.2 1.2 0 0 0-.54.25"/></g><rect width="324" height="210" x="13" y="43" stroke="#ddd" rx="2"/></g></g></g><defs><clipPath id="b"><path fill="#fff" d="M1 11C1 5.477 5.477 1 11 1h338v210H1z"/></clipPath><clipPath id="c"><path fill="#fff" d="M1 1h348v210H1z"/></clipPath><clipPath id="d"><rect width="324" height="210" x="13" y="43" fill="#fff" rx="2"/></clipPath><filter id="a" width="350" height="212" x="0" y="0" color-interpolation-filters="sRGB" filterUnits="userSpaceOnUse"><feFlood flood-opacity="0" result="BackgroundImageFix"/><feColorMatrix in="SourceAlpha" result="hardAlpha" values="0 0 0 0 0 0 0 0 0 0 0 0 0 0 0 0 0 0 127 0"/><feMorphology in="SourceAlpha" operator="dilate" radius="1" result="effect1_dropShadow_2656_8987"/><feOffset/><feComposite in2="hardAlpha" operator="out"/><feColorMatrix values="0 0 0 0 0.149038 0 0 0 0 0.145083 0 0 0 0 0.11763 0 0 0 0.1 0"/><feBlend in2="BackgroundImageFix" result="effect1_dropShadow_2656_8987"/><feBlend in="SourceGraphic" in2="effect1_dropShadow_2656_8987" result="shape"/></filter></defs></svg>