<svg width="350" height="212" viewBox="0 0 350 212" fill="none" xmlns="http://www.w3.org/2000/svg">
<g filter="url(#filter0_d_2656_9058)">
<g clip-path="url(#clip0_2656_9058)">
<path d="M1 11C1 5.47715 5.47715 1 11 1H349V211H1V11Z" fill="white"/>
<path d="M21.28 26.784C21.928 27.372 22.504 27.588 23.044 27.588C23.224 27.588 23.464 27.564 23.644 27.492V28.932C23.368 29.04 23.128 29.088 22.756 29.088C21.82 29.088 20.956 28.704 20.128 27.984L19.132 27.096C18.772 27.192 18.388 27.24 17.98 27.24C15.328 27.24 13.516 25.2 13.516 22.8C13.516 20.4 15.328 18.36 17.98 18.36C20.62 18.36 22.432 20.4 22.432 22.8C22.432 24.204 21.808 25.488 20.776 26.304L21.28 26.784ZM17.98 25.644C19.552 25.644 20.68 24.408 20.68 22.8C20.68 21.192 19.552 19.956 17.98 19.956C16.396 19.956 15.268 21.192 15.268 22.8C15.268 24.408 16.396 25.644 17.98 25.644ZM27.8452 24.384V20.952H29.3812V24.312C29.3812 26.124 28.3252 27.24 26.5492 27.24C24.7732 27.24 23.7292 26.124 23.7292 24.312V20.952H25.2652V24.384C25.2652 25.26 25.7212 25.8 26.5612 25.8C27.3892 25.8 27.8452 25.26 27.8452 24.384ZM32.6551 27.18C31.4431 27.18 30.6151 26.484 30.6151 25.368C30.6151 24.456 31.3231 23.772 32.6191 23.556L34.4671 23.244V23.088C34.4671 22.452 33.9871 22.044 33.2911 22.044C32.7031 22.044 32.2471 22.32 31.9231 22.764L30.8071 21.912C31.3471 21.168 32.2351 20.712 33.3391 20.712C35.0911 20.712 35.9911 21.756 35.9911 23.088V27H34.4671V26.412C34.0831 26.88 33.3631 27.18 32.6551 27.18ZM32.1271 25.296C32.1271 25.704 32.4511 25.968 32.9671 25.968C33.6631 25.968 34.1671 25.644 34.4671 25.164V24.312L33.0271 24.552C32.3911 24.66 32.1271 24.924 32.1271 25.296ZM37.7362 27V18H39.2602V27H37.7362ZM41.8558 19.896C41.3158 19.896 40.8598 19.44 40.8598 18.9C40.8598 18.36 41.3158 17.904 41.8558 17.904C42.3958 17.904 42.8398 18.36 42.8398 18.9C42.8398 19.44 42.3958 19.896 41.8558 19.896ZM41.0878 27V20.952H42.6118V27H41.0878ZM44.8233 24.792V22.32H43.6953V20.952H44.8233V19.44H46.3593V20.952H48.2073V22.32H46.3593V24.792C46.3593 25.464 46.7193 25.728 47.3193 25.728C47.7393 25.728 48.0153 25.68 48.2193 25.596V26.928C47.9193 27.06 47.5593 27.12 47.0553 27.12C45.5433 27.12 44.8233 26.268 44.8233 24.792ZM52.971 19.992H51.507L52.755 18H54.411L52.971 19.992ZM55.023 26.016C54.459 26.772 53.523 27.24 52.383 27.24C50.235 27.24 49.023 25.74 49.023 23.976C49.023 22.188 50.151 20.712 52.131 20.712C53.811 20.712 54.915 21.852 54.915 23.436C54.915 23.772 54.867 24.084 54.819 24.288H50.583C50.727 25.416 51.423 25.872 52.371 25.872C53.031 25.872 53.607 25.584 53.931 25.152L55.023 26.016ZM52.095 21.96C51.315 21.96 50.799 22.392 50.631 23.184H53.415C53.391 22.572 52.947 21.96 52.095 21.96ZM59.2066 23.976C59.2066 22.212 60.3706 20.712 62.2786 20.712C63.0946 20.712 63.6826 20.964 64.1506 21.432V18H65.6866V27H64.1506V26.52C63.6826 26.988 63.0946 27.24 62.2786 27.24C60.3706 27.24 59.2066 25.74 59.2066 23.976ZM60.8026 23.976C60.8026 25.032 61.4626 25.8 62.4946 25.8C63.1786 25.8 63.7426 25.512 64.1506 24.96V22.992C63.7426 22.44 63.1786 22.152 62.4946 22.152C61.4626 22.152 60.8026 22.92 60.8026 23.976ZM73.0816 26.016C72.5176 26.772 71.5816 27.24 70.4416 27.24C68.2936 27.24 67.0816 25.74 67.0816 23.976C67.0816 22.188 68.2096 20.712 70.1896 20.712C71.8696 20.712 72.9736 21.852 72.9736 23.436C72.9736 23.772 72.9256 24.084 72.8776 24.288H68.6416C68.7856 25.416 69.4816 25.872 70.4296 25.872C71.0896 25.872 71.6656 25.584 71.9896 25.152L73.0816 26.016ZM70.1536 21.96C69.3736 21.96 68.8576 22.392 68.6896 23.184H71.4736C71.4496 22.572 71.0056 21.96 70.1536 21.96ZM73.8528 26.124L74.8608 25.212C75.2327 25.68 75.6768 26.016 76.2528 26.016C76.7448 26.016 76.9967 25.728 76.9967 25.368C76.9967 24.312 74.1048 24.708 74.1048 22.584C74.1048 21.516 75.0048 20.712 76.2648 20.712C77.1888 20.712 78.0288 21.156 78.4608 21.744L77.4528 22.632C77.1408 22.248 76.7448 21.936 76.2768 21.936C75.7968 21.936 75.5688 22.2 75.5688 22.512C75.5688 23.544 78.4608 23.184 78.4608 25.272C78.4368 26.544 77.4168 27.24 76.2768 27.24C75.1968 27.24 74.4288 26.808 73.8528 26.124ZM83.0995 27V20.952H84.6235V21.408C85.0315 21.012 85.5475 20.712 86.2915 20.712C87.0595 20.712 87.7315 21.048 88.1275 21.696C88.5595 21.168 89.1355 20.712 90.1555 20.712C91.4035 20.712 92.3875 21.576 92.3875 23.28V27H90.8515V23.34C90.8515 22.608 90.4555 22.152 89.7715 22.152C89.1115 22.152 88.7515 22.608 88.5115 23.016C88.5235 23.1 88.5235 23.184 88.5235 23.28V27H86.9875V23.34C86.9875 22.608 86.5915 22.152 85.9075 22.152C85.2115 22.152 84.8515 22.668 84.6235 23.052V27H83.0995ZM97.6428 19.992H96.1788L97.4268 18H99.0828L97.6428 19.992ZM99.6948 26.016C99.1308 26.772 98.1948 27.24 97.0548 27.24C94.9068 27.24 93.6948 25.74 93.6948 23.976C93.6948 22.188 94.8228 20.712 96.8028 20.712C98.4828 20.712 99.5868 21.852 99.5868 23.436C99.5868 23.772 99.5388 24.084 99.4908 24.288H95.2548C95.3988 25.416 96.0948 25.872 97.0428 25.872C97.7028 25.872 98.2788 25.584 98.6028 25.152L99.6948 26.016ZM96.7668 21.96C95.9868 21.96 95.4708 22.392 95.3028 23.184H98.0868C98.0628 22.572 97.6188 21.96 96.7668 21.96ZM101.448 24.792V22.32H100.32V20.952H101.448V19.44H102.984V20.952H104.832V22.32H102.984V24.792C102.984 25.464 103.344 25.728 103.944 25.728C104.364 25.728 104.64 25.68 104.844 25.596V26.928C104.544 27.06 104.184 27.12 103.68 27.12C102.168 27.12 101.448 26.268 101.448 24.792ZM107.901 27.18C106.689 27.18 105.861 26.484 105.861 25.368C105.861 24.456 106.569 23.772 107.865 23.556L109.713 23.244V23.088C109.713 22.452 109.233 22.044 108.537 22.044C107.949 22.044 107.493 22.32 107.169 22.764L106.053 21.912C106.593 21.168 107.481 20.712 108.585 20.712C110.337 20.712 111.237 21.756 111.237 23.088V27H109.713V26.412C109.329 26.88 108.609 27.18 107.901 27.18ZM107.373 25.296C107.373 25.704 107.697 25.968 108.213 25.968C108.909 25.968 109.413 25.644 109.713 25.164V24.312L108.273 24.552C107.637 24.66 107.373 24.924 107.373 25.296ZM112.55 23.976C112.55 22.212 113.714 20.712 115.622 20.712C116.438 20.712 117.026 20.964 117.494 21.432V18H119.03V27H117.494V26.52C117.026 26.988 116.438 27.24 115.622 27.24C113.714 27.24 112.55 25.74 112.55 23.976ZM114.146 23.976C114.146 25.032 114.806 25.8 115.838 25.8C116.522 25.8 117.086 25.512 117.494 24.96V22.992C117.086 22.44 116.522 22.152 115.838 22.152C114.806 22.152 114.146 22.92 114.146 23.976ZM123.737 20.712C125.705 20.712 127.049 22.164 127.049 23.976C127.049 25.788 125.705 27.24 123.737 27.24C121.769 27.24 120.425 25.788 120.425 23.976C120.425 22.164 121.769 20.712 123.737 20.712ZM123.761 25.8C124.733 25.8 125.465 25.02 125.465 23.976C125.465 22.92 124.733 22.152 123.761 22.152C122.753 22.152 122.009 22.92 122.009 23.976C122.009 25.032 122.753 25.8 123.761 25.8ZM128.439 27V20.952H129.963V21.432C130.383 21.024 130.947 20.712 131.751 20.712C133.059 20.712 134.103 21.612 134.103 23.4V27H132.567V23.46C132.567 22.656 132.111 22.152 131.367 22.152C130.599 22.152 130.191 22.668 129.963 23.052V27H128.439ZM135.834 27V20.952H137.358V21.432C137.778 21.024 138.342 20.712 139.146 20.712C140.454 20.712 141.498 21.612 141.498 23.4V27H139.962V23.46C139.962 22.656 139.506 22.152 138.762 22.152C137.994 22.152 137.586 22.668 137.358 23.052V27H135.834ZM146.744 19.992H145.28L146.528 18H148.184L146.744 19.992ZM148.796 26.016C148.232 26.772 147.296 27.24 146.156 27.24C144.008 27.24 142.796 25.74 142.796 23.976C142.796 22.188 143.924 20.712 145.904 20.712C147.584 20.712 148.688 21.852 148.688 23.436C148.688 23.772 148.64 24.084 148.592 24.288H144.356C144.5 25.416 145.196 25.872 146.144 25.872C146.804 25.872 147.38 25.584 147.704 25.152L148.796 26.016ZM145.868 21.96C145.088 21.96 144.572 22.392 144.404 23.184H147.188C147.164 22.572 146.72 21.96 145.868 21.96ZM155.699 26.016C155.135 26.772 154.199 27.24 153.059 27.24C150.911 27.24 149.699 25.74 149.699 23.976C149.699 22.188 150.827 20.712 152.807 20.712C154.487 20.712 155.591 21.852 155.591 23.436C155.591 23.772 155.543 24.084 155.495 24.288H151.259C151.403 25.416 152.099 25.872 153.047 25.872C153.707 25.872 154.283 25.584 154.607 25.152L155.699 26.016ZM152.771 21.96C151.991 21.96 151.475 22.392 151.307 23.184H154.091C154.067 22.572 153.623 21.96 152.771 21.96ZM156.47 26.124L157.478 25.212C157.85 25.68 158.294 26.016 158.87 26.016C159.362 26.016 159.614 25.728 159.614 25.368C159.614 24.312 156.722 24.708 156.722 22.584C156.722 21.516 157.622 20.712 158.882 20.712C159.806 20.712 160.646 21.156 161.078 21.744L160.07 22.632C159.758 22.248 159.362 21.936 158.894 21.936C158.414 21.936 158.186 22.2 158.186 22.512C158.186 23.544 161.078 23.184 161.078 25.272C161.054 26.544 160.034 27.24 158.894 27.24C157.814 27.24 157.046 26.808 156.47 26.124Z" fill="#161616"/>
<rect x="13.5" y="35.5" width="323" height="11" rx="5.5" fill="white"/>
<rect x="13.5" y="35.5" width="323" height="11" rx="5.5" stroke="#27A658"/>
<rect x="15" y="37" width="248" height="8" rx="4" fill="#27A658"/>
<g clip-path="url(#clip1_2656_9058)">
<rect width="324" height="30" transform="translate(13 55)" fill="white"/>
<path d="M17.9999 71.5854L22.5961 66.9893L23.3032 67.6964L17.9999 72.9996L14.8179 69.8177L15.525 69.1106L17.9999 71.5854Z" fill="black"/>
<path d="M30.11 74V67H32.8C34.99 67 36.48 68.61 36.48 70.5C36.48 72.39 34.99 74 32.8 74H30.11ZM32.82 67.86H31.05V73.14H32.82C34.38 73.14 35.51 71.96 35.51 70.5C35.51 69.03 34.38 67.86 32.82 67.86ZM42.4366 73.17C41.9666 73.8 41.2166 74.2 40.2766 74.2C38.5766 74.2 37.5266 72.95 37.5266 71.48C37.5266 69.95 38.5066 68.76 40.0666 68.76C41.4366 68.76 42.3266 69.72 42.3266 70.96C42.3266 71.16 42.2966 71.35 42.2666 71.49H38.3966C38.4266 72.7 39.1966 73.43 40.2766 73.43C40.9266 73.43 41.4766 73.13 41.8066 72.68L42.4366 73.17ZM40.0466 69.48C39.2166 69.48 38.6366 69.97 38.4566 70.84H41.4766C41.4466 70.1 40.9366 69.48 40.0466 69.48ZM43.1881 73.31L43.7881 72.8C44.1381 73.24 44.5581 73.49 45.0681 73.49C45.6281 73.49 45.9481 73.15 45.9481 72.71C45.9481 71.58 43.4281 71.98 43.4281 70.2C43.4281 69.41 44.0981 68.76 45.0681 68.76C45.7881 68.76 46.4081 69.1 46.7581 69.59L46.1681 70.09C45.8981 69.71 45.5181 69.47 45.0781 69.47C44.5381 69.47 44.2481 69.79 44.2481 70.18C44.2481 71.31 46.7781 70.95 46.7781 72.67C46.7681 73.61 46.0181 74.2 45.0781 74.2C44.2781 74.2 43.6481 73.88 43.1881 73.31ZM50.4231 73.4C51.0431 73.4 51.5531 73.1 51.8631 72.66L52.5331 73.17C52.0631 73.8 51.3331 74.2 50.4131 74.2C48.7431 74.2 47.6731 72.95 47.6731 71.48C47.6731 70.01 48.7431 68.76 50.4131 68.76C51.3231 68.76 52.0631 69.17 52.5331 69.79L51.8631 70.3C51.5531 69.86 51.0431 69.56 50.4131 69.56C49.3331 69.56 48.5631 70.41 48.5631 71.48C48.5631 72.56 49.3331 73.4 50.4231 73.4ZM53.6988 74V68.96H54.5488V69.59C54.9188 69.15 55.3788 68.86 56.0188 68.86C56.1788 68.86 56.3288 68.88 56.4488 68.92V69.75C56.2988 69.71 56.1488 69.69 55.9488 69.69C55.2888 69.69 54.8588 70.03 54.5488 70.54V74H53.6988ZM58.1034 67.65C57.7734 67.65 57.5034 67.38 57.5034 67.05C57.5034 66.73 57.7734 66.46 58.1034 66.46C58.4334 66.46 58.6934 66.73 58.6934 67.05C58.6934 67.38 58.4334 67.65 58.1034 67.65ZM57.6734 74V68.96H58.5234V74H57.6734ZM60.3199 76.46V68.96H61.1699V69.56C61.6199 69.05 62.2099 68.76 62.9599 68.76C64.5399 68.76 65.5499 70.01 65.5499 71.48C65.5499 72.95 64.5399 74.2 62.9599 74.2C62.2099 74.2 61.6199 73.91 61.1699 73.4V76.46H60.3199ZM62.8599 69.56C62.1599 69.56 61.5499 69.9 61.1699 70.5V72.46C61.5599 73.07 62.1699 73.4 62.8599 73.4C63.9299 73.4 64.6599 72.55 64.6599 71.48C64.6599 70.41 63.9299 69.56 62.8599 69.56ZM67.1334 72.31V69.73H66.1834V68.96H67.1334V67.7H67.9934V68.96H69.7434V69.73H67.9934V72.31C67.9934 73.1 68.3934 73.32 69.0034 73.32C69.3334 73.32 69.5634 73.28 69.7534 73.2V73.96C69.5134 74.06 69.2434 74.1 68.8834 74.1C67.7634 74.1 67.1334 73.54 67.1334 72.31ZM71.4726 67.65C71.1426 67.65 70.8726 67.38 70.8726 67.05C70.8726 66.73 71.1426 66.46 71.4726 66.46C71.8026 66.46 72.0626 66.73 72.0626 67.05C72.0626 67.38 71.8026 67.65 71.4726 67.65ZM71.0426 74V68.96H71.8926V74H71.0426ZM75.9891 68.76C77.6091 68.76 78.7191 70.01 78.7191 71.48C78.7191 72.95 77.6091 74.2 75.9891 74.2C74.3591 74.2 73.2591 72.95 73.2591 71.48C73.2591 70.01 74.3591 68.76 75.9891 68.76ZM75.9991 73.4C77.0491 73.4 77.8191 72.52 77.8191 71.48C77.8191 70.43 77.0491 69.56 75.9991 69.56C74.9191 69.56 74.1491 70.43 74.1491 71.48C74.1491 72.53 74.9191 73.4 75.9991 73.4ZM80.0855 74V68.96H80.9355V69.53C81.3455 69.08 81.8655 68.76 82.6155 68.76C83.7455 68.76 84.5855 69.52 84.5855 70.95V74H83.7355V70.98C83.7355 70.08 83.2255 69.56 82.4455 69.56C81.7155 69.56 81.2555 69.98 80.9355 70.51V74H80.0855ZM88.5618 71.48C88.5618 70.01 89.5718 68.76 91.1518 68.76C91.9018 68.76 92.4918 69.05 92.9418 69.56V66.5H93.7918V74H92.9418V73.4C92.4918 73.91 91.9018 74.2 91.1518 74.2C89.5718 74.2 88.5618 72.95 88.5618 71.48ZM89.4618 71.48C89.4618 72.55 90.1818 73.4 91.2518 73.4C91.9518 73.4 92.5718 73.06 92.9418 72.47V70.49C92.5518 69.89 91.9418 69.56 91.2518 69.56C90.1818 69.56 89.4618 70.41 89.4618 71.48ZM100.064 73.17C99.5936 73.8 98.8436 74.2 97.9036 74.2C96.2036 74.2 95.1536 72.95 95.1536 71.48C95.1536 69.95 96.1336 68.76 97.6936 68.76C99.0636 68.76 99.9536 69.72 99.9536 70.96C99.9536 71.16 99.9236 71.35 99.8936 71.49H96.0236C96.0536 72.7 96.8236 73.43 97.9036 73.43C98.5536 73.43 99.1036 73.13 99.4336 72.68L100.064 73.17ZM97.6736 69.48C96.8436 69.48 96.2636 69.97 96.0836 70.84H99.1036C99.0736 70.1 98.5636 69.48 97.6736 69.48ZM100.815 73.31L101.415 72.8C101.765 73.24 102.185 73.49 102.695 73.49C103.255 73.49 103.575 73.15 103.575 72.71C103.575 71.58 101.055 71.98 101.055 70.2C101.055 69.41 101.725 68.76 102.695 68.76C103.415 68.76 104.035 69.1 104.385 69.59L103.795 70.09C103.525 69.71 103.145 69.47 102.705 69.47C102.165 69.47 101.875 69.79 101.875 70.18C101.875 71.31 104.405 70.95 104.405 72.67C104.395 73.61 103.645 74.2 102.705 74.2C101.905 74.2 101.275 73.88 100.815 73.31ZM108.054 71.48C108.054 70.01 109.064 68.76 110.644 68.76C111.394 68.76 111.984 69.05 112.434 69.56V66.5H113.284V74H112.434V73.4C111.984 73.91 111.394 74.2 110.644 74.2C109.064 74.2 108.054 72.95 108.054 71.48ZM108.954 71.48C108.954 72.55 109.674 73.4 110.744 73.4C111.444 73.4 112.064 73.06 112.434 72.47V70.49C112.044 69.89 111.434 69.56 110.744 69.56C109.674 69.56 108.954 70.41 108.954 71.48ZM117.376 68.76C118.996 68.76 120.106 70.01 120.106 71.48C120.106 72.95 118.996 74.2 117.376 74.2C115.746 74.2 114.646 72.95 114.646 71.48C114.646 70.01 115.746 68.76 117.376 68.76ZM117.386 73.4C118.436 73.4 119.206 72.52 119.206 71.48C119.206 70.43 118.436 69.56 117.386 69.56C116.306 69.56 115.536 70.43 115.536 71.48C115.536 72.53 116.306 73.4 117.386 73.4ZM121.472 74V68.96H122.322V69.53C122.732 69.08 123.252 68.76 124.002 68.76C125.132 68.76 125.972 69.52 125.972 70.95V74H125.122V70.98C125.122 70.08 124.612 69.56 123.832 69.56C123.102 69.56 122.642 69.98 122.322 70.51V74H121.472ZM127.683 74V68.96H128.533V69.53C128.943 69.08 129.463 68.76 130.213 68.76C131.343 68.76 132.183 69.52 132.183 70.95V74H131.333V70.98C131.333 70.08 130.823 69.56 130.043 69.56C129.313 69.56 128.853 69.98 128.533 70.51V74H127.683ZM136.454 68.16H135.624L136.664 66.5H137.624L136.454 68.16ZM138.374 73.17C137.904 73.8 137.154 74.2 136.214 74.2C134.514 74.2 133.464 72.95 133.464 71.48C133.464 69.95 134.444 68.76 136.004 68.76C137.374 68.76 138.264 69.72 138.264 70.96C138.264 71.16 138.234 71.35 138.204 71.49H134.334C134.364 72.7 135.134 73.43 136.214 73.43C136.864 73.43 137.414 73.13 137.744 72.68L138.374 73.17ZM135.984 69.48C135.154 69.48 134.574 69.97 134.394 70.84H137.414C137.384 70.1 136.874 69.48 135.984 69.48ZM144.165 73.17C143.695 73.8 142.945 74.2 142.005 74.2C140.305 74.2 139.255 72.95 139.255 71.48C139.255 69.95 140.235 68.76 141.795 68.76C143.165 68.76 144.055 69.72 144.055 70.96C144.055 71.16 144.025 71.35 143.995 71.49H140.125C140.155 72.7 140.925 73.43 142.005 73.43C142.655 73.43 143.205 73.13 143.535 72.68L144.165 73.17ZM141.775 69.48C140.945 69.48 140.365 69.97 140.185 70.84H143.205C143.175 70.1 142.665 69.48 141.775 69.48ZM144.917 73.31L145.517 72.8C145.867 73.24 146.287 73.49 146.797 73.49C147.357 73.49 147.677 73.15 147.677 72.71C147.677 71.58 145.157 71.98 145.157 70.2C145.157 69.41 145.827 68.76 146.797 68.76C147.517 68.76 148.137 69.1 148.487 69.59L147.897 70.09C147.627 69.71 147.247 69.47 146.807 69.47C146.267 69.47 145.977 69.79 145.977 70.18C145.977 71.31 148.507 70.95 148.507 72.67C148.497 73.61 147.747 74.2 146.807 74.2C146.007 74.2 145.377 73.88 144.917 73.31ZM152.586 74V68.96H153.436V69.59C153.806 69.15 154.266 68.86 154.906 68.86C155.066 68.86 155.216 68.88 155.336 68.92V69.75C155.186 69.71 155.036 69.69 154.836 69.69C154.176 69.69 153.746 70.03 153.436 70.54V74H152.586ZM160.737 73.17C160.267 73.8 159.517 74.2 158.577 74.2C156.877 74.2 155.827 72.95 155.827 71.48C155.827 69.95 156.807 68.76 158.367 68.76C159.737 68.76 160.627 69.72 160.627 70.96C160.627 71.16 160.597 71.35 160.567 71.49H156.697C156.727 72.7 157.497 73.43 158.577 73.43C159.227 73.43 159.777 73.13 160.107 72.68L160.737 73.17ZM158.347 69.48C157.517 69.48 156.937 69.97 156.757 70.84H159.777C159.747 70.1 159.237 69.48 158.347 69.48ZM162.068 74V68.96H162.918V69.53C163.328 69.08 163.848 68.76 164.598 68.76C165.728 68.76 166.568 69.52 166.568 70.95V74H165.718V70.98C165.718 70.08 165.208 69.56 164.428 69.56C163.698 69.56 163.238 69.98 162.918 70.51V74H162.068ZM167.739 73.31L168.339 72.8C168.689 73.24 169.109 73.49 169.619 73.49C170.179 73.49 170.499 73.15 170.499 72.71C170.499 71.58 167.979 71.98 167.979 70.2C167.979 69.41 168.649 68.76 169.619 68.76C170.339 68.76 170.959 69.1 171.309 69.59L170.719 70.09C170.449 69.71 170.069 69.47 169.629 69.47C169.089 69.47 168.799 69.79 168.799 70.18C168.799 71.31 171.329 70.95 171.329 72.67C171.319 73.61 170.569 74.2 169.629 74.2C168.829 74.2 168.199 73.88 167.739 73.31ZM177.134 73.17C176.664 73.8 175.914 74.2 174.974 74.2C173.274 74.2 172.224 72.95 172.224 71.48C172.224 69.95 173.204 68.76 174.764 68.76C176.134 68.76 177.024 69.72 177.024 70.96C177.024 71.16 176.994 71.35 176.964 71.49H173.094C173.124 72.7 173.894 73.43 174.974 73.43C175.624 73.43 176.174 73.13 176.504 72.68L177.134 73.17ZM174.744 69.48C173.914 69.48 173.334 69.97 173.154 70.84H176.174C176.144 70.1 175.634 69.48 174.744 69.48ZM178.894 67.65C178.564 67.65 178.294 67.38 178.294 67.05C178.294 66.73 178.564 66.46 178.894 66.46C179.224 66.46 179.484 66.73 179.484 67.05C179.484 67.38 179.224 67.65 178.894 67.65ZM178.464 74V68.96H179.314V74H178.464ZM180.531 74.91C180.531 74.4 180.781 73.99 181.281 73.64C181.051 73.46 180.931 73.19 180.931 72.92C180.931 72.52 181.141 72.19 181.531 71.94C181.091 71.61 180.831 71.1 180.831 70.54C180.831 69.57 181.591 68.75 182.791 68.75C183.161 68.75 183.491 68.83 183.761 68.96H185.631V69.7H184.541C184.681 69.95 184.751 70.24 184.751 70.54C184.751 71.5 184.001 72.32 182.791 72.32C182.541 72.32 182.301 72.28 182.091 72.22C181.881 72.37 181.761 72.55 181.761 72.74C181.761 72.95 181.871 73.1 182.181 73.1H183.621C184.951 73.1 185.571 73.75 185.571 74.65C185.571 75.71 184.511 76.5 183.001 76.5C181.511 76.5 180.531 75.92 180.531 74.91ZM182.801 71.65C183.531 71.65 183.951 71.15 183.951 70.54C183.951 69.92 183.531 69.42 182.801 69.42C182.051 69.42 181.641 69.92 181.641 70.54C181.641 71.16 182.051 71.65 182.801 71.65ZM181.361 74.81C181.361 75.42 181.991 75.79 182.991 75.79C184.051 75.79 184.721 75.37 184.721 74.71C184.721 74.23 184.451 73.85 183.551 73.85H181.921C181.571 74.11 181.361 74.41 181.361 74.81ZM186.668 74V68.96H187.518V69.53C187.928 69.08 188.448 68.76 189.198 68.76C190.328 68.76 191.168 69.52 191.168 70.95V74H190.318V70.98C190.318 70.08 189.808 69.56 189.028 69.56C188.298 69.56 187.838 69.98 187.518 70.51V74H186.668ZM195.439 68.16H194.609L195.649 66.5H196.609L195.439 68.16ZM197.359 73.17C196.889 73.8 196.139 74.2 195.199 74.2C193.499 74.2 192.449 72.95 192.449 71.48C192.449 69.95 193.429 68.76 194.989 68.76C196.359 68.76 197.249 69.72 197.249 70.96C197.249 71.16 197.219 71.35 197.189 71.49H193.319C193.349 72.7 194.119 73.43 195.199 73.43C195.849 73.43 196.399 73.13 196.729 72.68L197.359 73.17ZM194.969 69.48C194.139 69.48 193.559 69.97 193.379 70.84H196.399C196.369 70.1 195.859 69.48 194.969 69.48ZM203.15 73.17C202.68 73.8 201.93 74.2 200.99 74.2C199.29 74.2 198.24 72.95 198.24 71.48C198.24 69.95 199.22 68.76 200.78 68.76C202.15 68.76 203.04 69.72 203.04 70.96C203.04 71.16 203.01 71.35 202.98 71.49H199.11C199.14 72.7 199.91 73.43 200.99 73.43C201.64 73.43 202.19 73.13 202.52 72.68L203.15 73.17ZM200.76 69.48C199.93 69.48 199.35 69.97 199.17 70.84H202.19C202.16 70.1 201.65 69.48 200.76 69.48Z" fill="#161616"/>
<rect width="324" height="30" transform="translate(13 85)" fill="white"/>
<path d="M17.9999 101.585L22.5961 96.9893L23.3032 97.6964L17.9999 103L14.8179 99.8177L15.525 99.1106L17.9999 101.585Z" fill="black"/>
<path d="M30.11 104V97H33.87V97.8H31.05V100.04H33.47V100.83H31.05V104H30.11ZM35.5644 97.65C35.2344 97.65 34.9644 97.38 34.9644 97.05C34.9644 96.73 35.2344 96.46 35.5644 96.46C35.8944 96.46 36.1544 96.73 36.1544 97.05C36.1544 97.38 35.8944 97.65 35.5644 97.65ZM35.1344 104V98.96H35.9844V104H35.1344ZM40.1009 103.4C40.7209 103.4 41.2309 103.1 41.5409 102.66L42.2109 103.17C41.7409 103.8 41.0109 104.2 40.0909 104.2C38.4209 104.2 37.3509 102.95 37.3509 101.48C37.3509 100.01 38.4209 98.76 40.0909 98.76C41.0009 98.76 41.7409 99.17 42.2109 99.79L41.5409 100.3C41.2309 99.86 40.7209 99.56 40.0909 99.56C39.0109 99.56 38.2409 100.41 38.2409 101.48C38.2409 102.56 39.0109 103.4 40.1009 103.4ZM43.3766 104V96.5H44.2266V99.53C44.6366 99.08 45.1566 98.76 45.9066 98.76C47.0366 98.76 47.8766 99.52 47.8766 100.95V104H47.0266V100.98C47.0266 100.08 46.5266 99.56 45.7366 99.56C44.9966 99.56 44.5466 99.99 44.2266 100.51V104H43.3766ZM50.0175 97.65C49.6875 97.65 49.4175 97.38 49.4175 97.05C49.4175 96.73 49.6875 96.46 50.0175 96.46C50.3475 96.46 50.6075 96.73 50.6075 97.05C50.6075 97.38 50.3475 97.65 50.0175 97.65ZM49.5875 104V98.96H50.4375V104H49.5875ZM56.714 103.17C56.244 103.8 55.494 104.2 54.554 104.2C52.854 104.2 51.804 102.95 51.804 101.48C51.804 99.95 52.784 98.76 54.344 98.76C55.714 98.76 56.604 99.72 56.604 100.96C56.604 101.16 56.574 101.35 56.544 101.49H52.674C52.704 102.7 53.474 103.43 54.554 103.43C55.204 103.43 55.754 103.13 56.084 102.68L56.714 103.17ZM54.324 99.48C53.494 99.48 52.914 99.97 52.734 100.84H55.754C55.724 100.1 55.214 99.48 54.324 99.48ZM58.0445 104V98.96H58.8945V99.59C59.2645 99.15 59.7245 98.86 60.3645 98.86C60.5245 98.86 60.6745 98.88 60.7945 98.92V99.75C60.6445 99.71 60.4945 99.69 60.2945 99.69C59.6345 99.69 59.2045 100.03 58.8945 100.54V104H58.0445ZM61.4791 103.31L62.0791 102.8C62.4291 103.24 62.8491 103.49 63.3591 103.49C63.9191 103.49 64.2391 103.15 64.2391 102.71C64.2391 101.58 61.7191 101.98 61.7191 100.2C61.7191 99.41 62.3891 98.76 63.3591 98.76C64.0791 98.76 64.6991 99.1 65.0491 99.59L64.4591 100.09C64.1891 99.71 63.8091 99.47 63.3691 99.47C62.8291 99.47 62.5391 99.79 62.5391 100.18C62.5391 101.31 65.0691 100.95 65.0691 102.67C65.0591 103.61 64.3091 104.2 63.3691 104.2C62.5691 104.2 61.9391 103.88 61.4791 103.31ZM68.718 101.48C68.718 100.01 69.728 98.76 71.308 98.76C72.058 98.76 72.648 99.05 73.098 99.56V96.5H73.948V104H73.098V103.4C72.648 103.91 72.058 104.2 71.308 104.2C69.728 104.2 68.718 102.95 68.718 101.48ZM69.618 101.48C69.618 102.55 70.338 103.4 71.408 103.4C72.108 103.4 72.728 103.06 73.098 102.47V100.49C72.708 99.89 72.098 99.56 71.408 99.56C70.338 99.56 69.618 100.41 69.618 101.48ZM78.0398 98.76C79.6598 98.76 80.7698 100.01 80.7698 101.48C80.7698 102.95 79.6598 104.2 78.0398 104.2C76.4098 104.2 75.3098 102.95 75.3098 101.48C75.3098 100.01 76.4098 98.76 78.0398 98.76ZM78.0498 103.4C79.0998 103.4 79.8698 102.52 79.8698 101.48C79.8698 100.43 79.0998 99.56 78.0498 99.56C76.9698 99.56 76.1998 100.43 76.1998 101.48C76.1998 102.53 76.9698 103.4 78.0498 103.4ZM84.5052 103.4C85.1252 103.4 85.6352 103.1 85.9452 102.66L86.6152 103.17C86.1452 103.8 85.4152 104.2 84.4952 104.2C82.8252 104.2 81.7552 102.95 81.7552 101.48C81.7552 100.01 82.8252 98.76 84.4952 98.76C85.4052 98.76 86.1452 99.17 86.6152 99.79L85.9452 100.3C85.6352 99.86 85.1252 99.56 84.4952 99.56C83.4152 99.56 82.6452 100.41 82.6452 101.48C82.6452 102.56 83.4152 103.4 84.5052 103.4ZM91.2909 101.84V98.96H92.1409V101.81C92.1409 103.32 91.2709 104.2 89.9009 104.2C88.5409 104.2 87.6709 103.32 87.6709 101.81V98.96H88.5209V101.84C88.5209 102.83 89.0509 103.4 89.9109 103.4C90.7509 103.4 91.2909 102.83 91.2909 101.84ZM93.816 104V98.96H94.666V99.51C95.046 99.07 95.546 98.76 96.246 98.76C96.976 98.76 97.576 99.09 97.886 99.73C98.286 99.18 98.816 98.76 99.686 98.76C100.766 98.76 101.556 99.48 101.556 100.85V104H100.706V100.88C100.706 100.04 100.236 99.56 99.516 99.56C98.876 99.56 98.426 99.92 98.096 100.51C98.106 100.62 98.116 100.73 98.116 100.85V104H97.266V100.88C97.266 100.04 96.806 99.56 96.076 99.56C95.386 99.56 94.956 99.99 94.666 100.51V104H93.816ZM107.749 103.17C107.279 103.8 106.529 104.2 105.589 104.2C103.889 104.2 102.839 102.95 102.839 101.48C102.839 99.95 103.819 98.76 105.379 98.76C106.749 98.76 107.639 99.72 107.639 100.96C107.639 101.16 107.609 101.35 107.579 101.49H103.709C103.739 102.7 104.509 103.43 105.589 103.43C106.239 103.43 106.789 103.13 107.119 102.68L107.749 103.17ZM105.359 99.48C104.529 99.48 103.949 99.97 103.769 100.84H106.789C106.759 100.1 106.249 99.48 105.359 99.48ZM109.08 104V98.96H109.93V99.53C110.34 99.08 110.86 98.76 111.61 98.76C112.74 98.76 113.58 99.52 113.58 100.95V104H112.73V100.98C112.73 100.08 112.22 99.56 111.44 99.56C110.71 99.56 110.25 99.98 109.93 100.51V104H109.08ZM115.581 102.31V99.73H114.631V98.96H115.581V97.7H116.441V98.96H118.191V99.73H116.441V102.31C116.441 103.1 116.841 103.32 117.451 103.32C117.781 103.32 118.011 103.28 118.201 103.2V103.96C117.961 104.06 117.691 104.1 117.331 104.1C116.211 104.1 115.581 103.54 115.581 102.31ZM121.952 98.16H121.122L122.162 96.5H123.122L121.952 98.16ZM123.872 103.17C123.402 103.8 122.652 104.2 121.712 104.2C120.012 104.2 118.962 102.95 118.962 101.48C118.962 99.95 119.942 98.76 121.502 98.76C122.872 98.76 123.762 99.72 123.762 100.96C123.762 101.16 123.732 101.35 123.702 101.49H119.832C119.862 102.7 120.632 103.43 121.712 103.43C122.362 103.43 122.912 103.13 123.242 102.68L123.872 103.17ZM121.482 99.48C120.652 99.48 120.072 99.97 119.892 100.84H122.912C122.882 100.1 122.372 99.48 121.482 99.48ZM124.624 103.31L125.224 102.8C125.574 103.24 125.994 103.49 126.504 103.49C127.064 103.49 127.384 103.15 127.384 102.71C127.384 101.58 124.864 101.98 124.864 100.2C124.864 99.41 125.534 98.76 126.504 98.76C127.224 98.76 127.844 99.1 128.194 99.59L127.604 100.09C127.334 99.71 126.954 99.47 126.514 99.47C125.974 99.47 125.684 99.79 125.684 100.18C125.684 101.31 128.214 100.95 128.214 102.67C128.204 103.61 127.454 104.2 126.514 104.2C125.714 104.2 125.084 103.88 124.624 103.31Z" fill="#161616"/>
<rect width="324" height="30" transform="translate(13 115)" fill="white"/>
<path d="M17.9999 131.585L22.5961 126.989L23.3032 127.696L17.9999 133L14.8179 129.818L15.525 129.111L17.9999 131.585Z" fill="black"/>
<path d="M30.11 134V127H31.05V133.14H33.87V134H30.11ZM35.6913 127.65C35.3613 127.65 35.0913 127.38 35.0913 127.05C35.0913 126.73 35.3613 126.46 35.6913 126.46C36.0213 126.46 36.2813 126.73 36.2813 127.05C36.2813 127.38 36.0213 127.65 35.6913 127.65ZM35.2613 134V128.96H36.1113V134H35.2613ZM40.2278 133.4C40.8478 133.4 41.3578 133.1 41.6678 132.66L42.3378 133.17C41.8678 133.8 41.1378 134.2 40.2178 134.2C38.5478 134.2 37.4778 132.95 37.4778 131.48C37.4778 130.01 38.5478 128.76 40.2178 128.76C41.1278 128.76 41.8678 129.17 42.3378 129.79L41.6678 130.3C41.3578 129.86 40.8478 129.56 40.2178 129.56C39.1378 129.56 38.3678 130.41 38.3678 131.48C38.3678 132.56 39.1378 133.4 40.2278 133.4ZM47.7882 133.17C47.3182 133.8 46.5682 134.2 45.6282 134.2C43.9282 134.2 42.8782 132.95 42.8782 131.48C42.8782 129.95 43.8582 128.76 45.4182 128.76C46.7882 128.76 47.6782 129.72 47.6782 130.96C47.6782 131.16 47.6482 131.35 47.6182 131.49H43.7482C43.7782 132.7 44.5482 133.43 45.6282 133.43C46.2782 133.43 46.8282 133.13 47.1582 132.68L47.7882 133.17ZM45.3982 129.48C44.5682 129.48 43.9882 129.97 43.8082 130.84H46.8282C46.7982 130.1 46.2882 129.48 45.3982 129.48ZM49.1188 134V128.96H49.9688V129.53C50.3788 129.08 50.8988 128.76 51.6488 128.76C52.7788 128.76 53.6188 129.52 53.6188 130.95V134H52.7688V130.98C52.7688 130.08 52.2588 129.56 51.4788 129.56C50.7488 129.56 50.2888 129.98 49.9688 130.51V134H49.1188ZM57.6497 133.4C58.2697 133.4 58.7797 133.1 59.0897 132.66L59.7597 133.17C59.2897 133.8 58.5597 134.2 57.6397 134.2C55.9697 134.2 54.8997 132.95 54.8997 131.48C54.8997 130.01 55.9697 128.76 57.6397 128.76C58.5497 128.76 59.2897 129.17 59.7597 129.79L59.0897 130.3C58.7797 129.86 58.2697 129.56 57.6397 129.56C56.5597 129.56 55.7897 130.41 55.7897 131.48C55.7897 132.56 56.5597 133.4 57.6497 133.4ZM65.2101 133.17C64.7401 133.8 63.9901 134.2 63.0501 134.2C61.3501 134.2 60.3001 132.95 60.3001 131.48C60.3001 129.95 61.2801 128.76 62.8401 128.76C64.2101 128.76 65.1001 129.72 65.1001 130.96C65.1001 131.16 65.0701 131.35 65.0401 131.49H61.1701C61.2001 132.7 61.9701 133.43 63.0501 133.43C63.7001 133.43 64.2501 133.13 64.5801 132.68L65.2101 133.17ZM62.8201 129.48C61.9901 129.48 61.4101 129.97 61.2301 130.84H64.2501C64.2201 130.1 63.7101 129.48 62.8201 129.48ZM69.2359 134V128.96H70.0859V129.59C70.4559 129.15 70.9159 128.86 71.5559 128.86C71.7159 128.86 71.8659 128.88 71.9859 128.92V129.75C71.8359 129.71 71.6859 129.69 71.4859 129.69C70.8259 129.69 70.3959 130.03 70.0859 130.54V134H69.2359ZM77.3878 133.17C76.9178 133.8 76.1678 134.2 75.2278 134.2C73.5278 134.2 72.4778 132.95 72.4778 131.48C72.4778 129.95 73.4578 128.76 75.0178 128.76C76.3878 128.76 77.2778 129.72 77.2778 130.96C77.2778 131.16 77.2478 131.35 77.2178 131.49H73.3478C73.3778 132.7 74.1478 133.43 75.2278 133.43C75.8778 133.43 76.4278 133.13 76.7578 132.68L77.3878 133.17ZM74.9978 129.48C74.1678 129.48 73.5878 129.97 73.4078 130.84H76.4278C76.3978 130.1 75.8878 129.48 74.9978 129.48ZM78.7184 134V128.96H79.5684V129.53C79.9784 129.08 80.4984 128.76 81.2484 128.76C82.3784 128.76 83.2184 129.52 83.2184 130.95V134H82.3684V130.98C82.3684 130.08 81.8584 129.56 81.0784 129.56C80.3484 129.56 79.8884 129.98 79.5684 130.51V134H78.7184ZM84.3893 133.31L84.9893 132.8C85.3393 133.24 85.7593 133.49 86.2693 133.49C86.8293 133.49 87.1493 133.15 87.1493 132.71C87.1493 131.58 84.6293 131.98 84.6293 130.2C84.6293 129.41 85.2993 128.76 86.2693 128.76C86.9893 128.76 87.6093 129.1 87.9593 129.59L87.3693 130.09C87.0993 129.71 86.7193 129.47 86.2793 129.47C85.7393 129.47 85.4493 129.79 85.4493 130.18C85.4493 131.31 87.9793 130.95 87.9793 132.67C87.9693 133.61 87.2193 134.2 86.2793 134.2C85.4793 134.2 84.8493 133.88 84.3893 133.31ZM93.7843 133.17C93.3143 133.8 92.5643 134.2 91.6243 134.2C89.9243 134.2 88.8743 132.95 88.8743 131.48C88.8743 129.95 89.8543 128.76 91.4143 128.76C92.7843 128.76 93.6743 129.72 93.6743 130.96C93.6743 131.16 93.6443 131.35 93.6143 131.49H89.7443C89.7743 132.7 90.5443 133.43 91.6243 133.43C92.2743 133.43 92.8243 133.13 93.1543 132.68L93.7843 133.17ZM91.3943 129.48C90.5643 129.48 89.9843 129.97 89.8043 130.84H92.8243C92.7943 130.1 92.2843 129.48 91.3943 129.48ZM95.5448 127.65C95.2148 127.65 94.9448 127.38 94.9448 127.05C94.9448 126.73 95.2148 126.46 95.5448 126.46C95.8748 126.46 96.1348 126.73 96.1348 127.05C96.1348 127.38 95.8748 127.65 95.5448 127.65ZM95.1148 134V128.96H95.9648V134H95.1148ZM97.1813 134.91C97.1813 134.4 97.4313 133.99 97.9313 133.64C97.7013 133.46 97.5813 133.19 97.5813 132.92C97.5813 132.52 97.7913 132.19 98.1813 131.94C97.7413 131.61 97.4813 131.1 97.4813 130.54C97.4813 129.57 98.2413 128.75 99.4413 128.75C99.8113 128.75 100.141 128.83 100.411 128.96H102.281V129.7H101.191C101.331 129.95 101.401 130.24 101.401 130.54C101.401 131.5 100.651 132.32 99.4413 132.32C99.1913 132.32 98.9513 132.28 98.7413 132.22C98.5313 132.37 98.4113 132.55 98.4113 132.74C98.4113 132.95 98.5213 133.1 98.8313 133.1H100.271C101.601 133.1 102.221 133.75 102.221 134.65C102.221 135.71 101.161 136.5 99.6513 136.5C98.1613 136.5 97.1813 135.92 97.1813 134.91ZM99.4513 131.65C100.181 131.65 100.601 131.15 100.601 130.54C100.601 129.92 100.181 129.42 99.4513 129.42C98.7013 129.42 98.2913 129.92 98.2913 130.54C98.2913 131.16 98.7013 131.65 99.4513 131.65ZM98.0113 134.81C98.0113 135.42 98.6413 135.79 99.6413 135.79C100.701 135.79 101.371 135.37 101.371 134.71C101.371 134.23 101.101 133.85 100.201 133.85H98.5713C98.2213 134.11 98.0113 134.41 98.0113 134.81ZM103.318 134V128.96H104.168V129.53C104.578 129.08 105.098 128.76 105.848 128.76C106.978 128.76 107.818 129.52 107.818 130.95V134H106.968V130.98C106.968 130.08 106.458 129.56 105.678 129.56C104.948 129.56 104.488 129.98 104.168 130.51V134H103.318ZM112.089 128.16H111.259L112.299 126.5H113.259L112.089 128.16ZM114.009 133.17C113.539 133.8 112.789 134.2 111.849 134.2C110.149 134.2 109.099 132.95 109.099 131.48C109.099 129.95 110.079 128.76 111.639 128.76C113.009 128.76 113.899 129.72 113.899 130.96C113.899 131.16 113.869 131.35 113.839 131.49H109.969C109.999 132.7 110.769 133.43 111.849 133.43C112.499 133.43 113.049 133.13 113.379 132.68L114.009 133.17ZM111.619 129.48C110.789 129.48 110.209 129.97 110.029 130.84H113.049C113.019 130.1 112.509 129.48 111.619 129.48ZM119.8 133.17C119.33 133.8 118.58 134.2 117.64 134.2C115.94 134.2 114.89 132.95 114.89 131.48C114.89 129.95 115.87 128.76 117.43 128.76C118.8 128.76 119.69 129.72 119.69 130.96C119.69 131.16 119.66 131.35 119.63 131.49H115.76C115.79 132.7 116.56 133.43 117.64 133.43C118.29 133.43 118.84 133.13 119.17 132.68L119.8 133.17ZM117.41 129.48C116.58 129.48 116 129.97 115.82 130.84H118.84C118.81 130.1 118.3 129.48 117.41 129.48Z" fill="#161616"/>
<rect width="324" height="30" transform="translate(13 145)" fill="white"/>
<path d="M19.433 155.5L24.1961 163.75C24.3342 163.989 24.2523 164.295 24.0131 164.433C23.9371 164.477 23.8509 164.5 23.7631 164.5H14.2368C13.9607 164.5 13.7368 164.276 13.7368 164C13.7368 163.912 13.7599 163.826 13.8038 163.75L18.567 155.5C18.705 155.261 19.0108 155.179 19.25 155.317C19.326 155.361 19.3891 155.424 19.433 155.5ZM15.1028 163.5H22.8971L19 156.75L15.1028 163.5ZM18.5 162H19.5V163H18.5V162ZM18.5 158.5H19.5V161H18.5V158.5Z" fill="#B34000"/>
<path d="M30.11 164V157H33.87V157.8H31.05V160.04H33.47V160.83H31.05V164H30.11ZM34.8316 164V158.96H35.6816V159.59C36.0516 159.15 36.5116 158.86 37.1516 158.86C37.3116 158.86 37.4616 158.88 37.5816 158.92V159.75C37.4316 159.71 37.2816 159.69 37.0816 159.69C36.4216 159.69 35.9916 160.03 35.6816 160.54V164H34.8316ZM41.0635 158.16H40.2335L41.2735 156.5H42.2335L41.0635 158.16ZM42.9835 163.17C42.5135 163.8 41.7635 164.2 40.8235 164.2C39.1235 164.2 38.0735 162.95 38.0735 161.48C38.0735 159.95 39.0535 158.76 40.6135 158.76C41.9835 158.76 42.8735 159.72 42.8735 160.96C42.8735 161.16 42.8435 161.35 42.8135 161.49H38.9435C38.9735 162.7 39.7435 163.43 40.8235 163.43C41.4735 163.43 42.0235 163.13 42.3535 162.68L42.9835 163.17ZM40.5935 159.48C39.7635 159.48 39.1835 159.97 39.0035 160.84H42.0235C41.9935 160.1 41.4835 159.48 40.5935 159.48ZM43.8645 161.48C43.8645 160.01 44.8745 158.76 46.4545 158.76C47.2045 158.76 47.7945 159.05 48.2445 159.57V158.96H49.0945V166.46H48.2445V163.39C47.7945 163.91 47.2045 164.2 46.4545 164.2C44.8745 164.2 43.8645 162.95 43.8645 161.48ZM44.7545 161.48C44.7545 162.55 45.4845 163.4 46.5445 163.4C47.2545 163.4 47.8645 163.06 48.2445 162.46V160.5C47.8545 159.89 47.2445 159.56 46.5445 159.56C45.4845 159.56 44.7545 160.41 44.7545 161.48ZM54.4061 161.84V158.96H55.2561V161.81C55.2561 163.32 54.3861 164.2 53.0161 164.2C51.6561 164.2 50.7861 163.32 50.7861 161.81V158.96H51.6361V161.84C51.6361 162.83 52.1661 163.4 53.0261 163.4C53.8661 163.4 54.4061 162.83 54.4061 161.84ZM61.4113 163.17C60.9413 163.8 60.1913 164.2 59.2513 164.2C57.5513 164.2 56.5013 162.95 56.5013 161.48C56.5013 159.95 57.4813 158.76 59.0413 158.76C60.4113 158.76 61.3013 159.72 61.3013 160.96C61.3013 161.16 61.2713 161.35 61.2413 161.49H57.3713C57.4013 162.7 58.1713 163.43 59.2513 163.43C59.9013 163.43 60.4513 163.13 60.7813 162.68L61.4113 163.17ZM59.0213 159.48C58.1913 159.48 57.6113 159.97 57.4313 160.84H60.4513C60.4213 160.1 59.9113 159.48 59.0213 159.48ZM62.7418 164V158.96H63.5918V159.53C64.0018 159.08 64.5218 158.76 65.2718 158.76C66.4018 158.76 67.2418 159.52 67.2418 160.95V164H66.3918V160.98C66.3918 160.08 65.8818 159.56 65.1018 159.56C64.3718 159.56 63.9118 159.98 63.5918 160.51V164H62.7418ZM71.2727 163.4C71.8927 163.4 72.4027 163.1 72.7127 162.66L73.3827 163.17C72.9127 163.8 72.1827 164.2 71.2627 164.2C69.5927 164.2 68.5227 162.95 68.5227 161.48C68.5227 160.01 69.5927 158.76 71.2627 158.76C72.1727 158.76 72.9127 159.17 73.3827 159.79L72.7127 160.3C72.4027 159.86 71.8927 159.56 71.2627 159.56C70.1827 159.56 69.4127 160.41 69.4127 161.48C69.4127 162.56 70.1827 163.4 71.2727 163.4ZM78.8331 163.17C78.3631 163.8 77.6131 164.2 76.6731 164.2C74.9731 164.2 73.9231 162.95 73.9231 161.48C73.9231 159.95 74.9031 158.76 76.4631 158.76C77.8331 158.76 78.7231 159.72 78.7231 160.96C78.7231 161.16 78.6931 161.35 78.6631 161.49H74.7931C74.8231 162.7 75.5931 163.43 76.6731 163.43C77.3231 163.43 77.8731 163.13 78.2031 162.68L78.8331 163.17ZM76.4431 159.48C75.6131 159.48 75.0331 159.97 74.8531 160.84H77.8731C77.8431 160.1 77.3331 159.48 76.4431 159.48ZM82.429 161.48C82.429 160.01 83.439 158.76 85.019 158.76C85.769 158.76 86.359 159.05 86.809 159.56V156.5H87.659V164H86.809V163.4C86.359 163.91 85.769 164.2 85.019 164.2C83.439 164.2 82.429 162.95 82.429 161.48ZM83.329 161.48C83.329 162.55 84.049 163.4 85.119 163.4C85.819 163.4 86.439 163.06 86.809 162.47V160.49C86.419 159.89 85.809 159.56 85.119 159.56C84.049 159.56 83.329 160.41 83.329 161.48ZM93.9308 163.17C93.4608 163.8 92.7108 164.2 91.7708 164.2C90.0708 164.2 89.0208 162.95 89.0208 161.48C89.0208 159.95 90.0008 158.76 91.5608 158.76C92.9308 158.76 93.8208 159.72 93.8208 160.96C93.8208 161.16 93.7908 161.35 93.7608 161.49H89.8908C89.9208 162.7 90.6908 163.43 91.7708 163.43C92.4208 163.43 92.9708 163.13 93.3008 162.68L93.9308 163.17ZM91.5408 159.48C90.7108 159.48 90.1308 159.97 89.9508 160.84H92.9708C92.9408 160.1 92.4308 159.48 91.5408 159.48ZM97.9566 164V158.96H98.8066V159.51C99.1866 159.07 99.6866 158.76 100.387 158.76C101.117 158.76 101.717 159.09 102.027 159.73C102.427 159.18 102.957 158.76 103.827 158.76C104.907 158.76 105.697 159.48 105.697 160.85V164H104.847V160.88C104.847 160.04 104.377 159.56 103.657 159.56C103.017 159.56 102.567 159.92 102.237 160.51C102.247 160.62 102.257 160.73 102.257 160.85V164H101.407V160.88C101.407 160.04 100.947 159.56 100.217 159.56C99.5266 159.56 99.0966 159.99 98.8066 160.51V164H97.9566ZM107.84 157.65C107.51 157.65 107.24 157.38 107.24 157.05C107.24 156.73 107.51 156.46 107.84 156.46C108.17 156.46 108.43 156.73 108.43 157.05C108.43 157.38 108.17 157.65 107.84 157.65ZM107.41 164V158.96H108.26V164H107.41ZM109.477 163.31L110.077 162.8C110.427 163.24 110.847 163.49 111.357 163.49C111.917 163.49 112.237 163.15 112.237 162.71C112.237 161.58 109.717 161.98 109.717 160.2C109.717 159.41 110.387 158.76 111.357 158.76C112.077 158.76 112.697 159.1 113.047 159.59L112.457 160.09C112.187 159.71 111.807 159.47 111.367 159.47C110.827 159.47 110.537 159.79 110.537 160.18C110.537 161.31 113.067 160.95 113.067 162.67C113.057 163.61 112.307 164.2 111.367 164.2C110.567 164.2 109.937 163.88 109.477 163.31ZM118.872 163.17C118.402 163.8 117.652 164.2 116.712 164.2C115.012 164.2 113.962 162.95 113.962 161.48C113.962 159.95 114.942 158.76 116.502 158.76C117.872 158.76 118.762 159.72 118.762 160.96C118.762 161.16 118.732 161.35 118.702 161.49H114.832C114.862 162.7 115.632 163.43 116.712 163.43C117.362 163.43 117.912 163.13 118.242 162.68L118.872 163.17ZM116.482 159.48C115.652 159.48 115.072 159.97 114.892 160.84H117.912C117.882 160.1 117.372 159.48 116.482 159.48ZM124.368 158.16L123.198 156.5H124.148L125.188 158.16H124.368ZM124.268 164.14C123.278 164.14 122.608 163.59 122.608 162.73C122.608 161.97 123.188 161.43 124.258 161.25L125.958 160.97V160.62C125.958 159.92 125.458 159.52 124.738 159.52C124.158 159.52 123.688 159.79 123.378 160.22L122.738 159.73C123.178 159.13 123.888 158.76 124.768 158.76C126.048 158.76 126.808 159.51 126.808 160.62V164H125.958V163.36C125.578 163.85 124.918 164.14 124.268 164.14ZM123.468 162.7C123.468 163.13 123.818 163.44 124.408 163.44C125.078 163.44 125.628 163.12 125.958 162.58V161.59L124.468 161.84C123.778 161.96 123.468 162.27 123.468 162.7ZM131.629 157.65C131.299 157.65 131.029 157.38 131.029 157.05C131.029 156.73 131.299 156.46 131.629 156.46C131.949 156.46 132.219 156.73 132.219 157.05C132.219 157.38 131.949 157.65 131.629 157.65ZM132.059 164.66C132.059 165.94 131.439 166.5 130.309 166.5C129.949 166.5 129.679 166.46 129.449 166.36V165.6C129.629 165.68 129.869 165.72 130.199 165.72C130.799 165.72 131.209 165.49 131.209 164.66V158.96H132.059V164.66ZM136.155 158.76C137.775 158.76 138.885 160.01 138.885 161.48C138.885 162.95 137.775 164.2 136.155 164.2C134.525 164.2 133.425 162.95 133.425 161.48C133.425 160.01 134.525 158.76 136.155 158.76ZM136.165 163.4C137.215 163.4 137.985 162.52 137.985 161.48C137.985 160.43 137.215 159.56 136.165 159.56C135.085 159.56 134.315 160.43 134.315 161.48C134.315 162.53 135.085 163.4 136.165 163.4ZM143.762 161.84V158.96H144.612V161.81C144.612 163.32 143.742 164.2 142.372 164.2C141.012 164.2 140.142 163.32 140.142 161.81V158.96H140.992V161.84C140.992 162.83 141.522 163.4 142.382 163.4C143.222 163.4 143.762 162.83 143.762 161.84ZM146.287 164V158.96H147.137V159.59C147.507 159.15 147.967 158.86 148.607 158.86C148.767 158.86 148.917 158.88 149.037 158.92V159.75C148.887 159.71 148.737 159.69 148.537 159.69C147.877 159.69 147.447 160.03 147.137 160.54V164H146.287ZM152.957 164V158.96H153.807V159.53C154.217 159.08 154.737 158.76 155.487 158.76C156.617 158.76 157.457 159.52 157.457 160.95V164H156.607V160.98C156.607 160.08 156.097 159.56 155.317 159.56C154.587 159.56 154.127 159.98 153.807 160.51V164H152.957ZM161.468 158.76C163.088 158.76 164.198 160.01 164.198 161.48C164.198 162.95 163.088 164.2 161.468 164.2C159.838 164.2 158.738 162.95 158.738 161.48C158.738 160.01 159.838 158.76 161.468 158.76ZM161.478 163.4C162.528 163.4 163.298 162.52 163.298 161.48C163.298 160.43 162.528 159.56 161.478 159.56C160.398 159.56 159.628 160.43 159.628 161.48C159.628 162.53 160.398 163.4 161.478 163.4ZM165.564 164V158.96H166.414V159.53C166.824 159.08 167.344 158.76 168.094 158.76C169.224 158.76 170.064 159.52 170.064 160.95V164H169.214V160.98C169.214 160.08 168.704 159.56 167.924 159.56C167.194 159.56 166.734 159.98 166.414 160.51V164H165.564ZM174.47 164V158.96H175.32V159.59C175.69 159.15 176.15 158.86 176.79 158.86C176.95 158.86 177.1 158.88 177.22 158.92V159.75C177.07 159.71 176.92 159.69 176.72 159.69C176.06 159.69 175.63 160.03 175.32 160.54V164H174.47ZM182.622 163.17C182.152 163.8 181.402 164.2 180.462 164.2C178.762 164.2 177.712 162.95 177.712 161.48C177.712 159.95 178.692 158.76 180.252 158.76C181.622 158.76 182.512 159.72 182.512 160.96C182.512 161.16 182.482 161.35 182.452 161.49H178.582C178.612 162.7 179.382 163.43 180.462 163.43C181.112 163.43 181.662 163.13 181.992 162.68L182.622 163.17ZM180.232 159.48C179.402 159.48 178.822 159.97 178.642 160.84H181.662C181.632 160.1 181.122 159.48 180.232 159.48ZM183.953 164V158.96H184.803V159.53C185.213 159.08 185.733 158.76 186.483 158.76C187.613 158.76 188.453 159.52 188.453 160.95V164H187.603V160.98C187.603 160.08 187.093 159.56 186.313 159.56C185.583 159.56 185.123 159.98 184.803 160.51V164H183.953ZM189.624 163.31L190.224 162.8C190.574 163.24 190.994 163.49 191.504 163.49C192.064 163.49 192.384 163.15 192.384 162.71C192.384 161.58 189.864 161.98 189.864 160.2C189.864 159.41 190.534 158.76 191.504 158.76C192.224 158.76 192.844 159.1 193.194 159.59L192.604 160.09C192.334 159.71 191.954 159.47 191.514 159.47C190.974 159.47 190.684 159.79 190.684 160.18C190.684 161.31 193.214 160.95 193.214 162.67C193.204 163.61 192.454 164.2 191.514 164.2C190.714 164.2 190.084 163.88 189.624 163.31ZM199.019 163.17C198.549 163.8 197.799 164.2 196.859 164.2C195.159 164.2 194.109 162.95 194.109 161.48C194.109 159.95 195.089 158.76 196.649 158.76C198.019 158.76 198.909 159.72 198.909 160.96C198.909 161.16 198.879 161.35 198.849 161.49H194.979C195.009 162.7 195.779 163.43 196.859 163.43C197.509 163.43 198.059 163.13 198.389 162.68L199.019 163.17ZM196.629 159.48C195.799 159.48 195.219 159.97 195.039 160.84H198.059C198.029 160.1 197.519 159.48 196.629 159.48ZM200.779 157.65C200.449 157.65 200.179 157.38 200.179 157.05C200.179 156.73 200.449 156.46 200.779 156.46C201.109 156.46 201.369 156.73 201.369 157.05C201.369 157.38 201.109 157.65 200.779 157.65ZM200.349 164V158.96H201.199V164H200.349ZM202.416 164.91C202.416 164.4 202.666 163.99 203.166 163.64C202.936 163.46 202.816 163.19 202.816 162.92C202.816 162.52 203.026 162.19 203.416 161.94C202.976 161.61 202.716 161.1 202.716 160.54C202.716 159.57 203.476 158.75 204.676 158.75C205.046 158.75 205.376 158.83 205.646 158.96H207.516V159.7H206.426C206.566 159.95 206.636 160.24 206.636 160.54C206.636 161.5 205.886 162.32 204.676 162.32C204.426 162.32 204.186 162.28 203.976 162.22C203.766 162.37 203.646 162.55 203.646 162.74C203.646 162.95 203.756 163.1 204.066 163.1H205.506C206.836 163.1 207.456 163.75 207.456 164.65C207.456 165.71 206.396 166.5 204.886 166.5C203.396 166.5 202.416 165.92 202.416 164.91ZM204.686 161.65C205.416 161.65 205.836 161.15 205.836 160.54C205.836 159.92 205.416 159.42 204.686 159.42C203.936 159.42 203.526 159.92 203.526 160.54C203.526 161.16 203.936 161.65 204.686 161.65ZM203.246 164.81C203.246 165.42 203.876 165.79 204.876 165.79C205.936 165.79 206.606 165.37 206.606 164.71C206.606 164.23 206.336 163.85 205.436 163.85H203.806C203.456 164.11 203.246 164.41 203.246 164.81ZM208.552 164V158.96H209.402V159.53C209.812 159.08 210.332 158.76 211.082 158.76C212.212 158.76 213.052 159.52 213.052 160.95V164H212.202V160.98C212.202 160.08 211.692 159.56 210.912 159.56C210.182 159.56 209.722 159.98 209.402 160.51V164H208.552ZM217.323 158.16H216.493L217.533 156.5H218.493L217.323 158.16ZM219.243 163.17C218.773 163.8 218.023 164.2 217.083 164.2C215.383 164.2 214.333 162.95 214.333 161.48C214.333 159.95 215.313 158.76 216.873 158.76C218.243 158.76 219.133 159.72 219.133 160.96C219.133 161.16 219.103 161.35 219.073 161.49H215.203C215.233 162.7 216.003 163.43 217.083 163.43C217.733 163.43 218.283 163.13 218.613 162.68L219.243 163.17ZM216.853 159.48C216.023 159.48 215.443 159.97 215.263 160.84H218.283C218.253 160.1 217.743 159.48 216.853 159.48ZM225.034 163.17C224.564 163.8 223.814 164.2 222.874 164.2C221.174 164.2 220.124 162.95 220.124 161.48C220.124 159.95 221.104 158.76 222.664 158.76C224.034 158.76 224.924 159.72 224.924 160.96C224.924 161.16 224.894 161.35 224.864 161.49H220.994C221.024 162.7 221.794 163.43 222.874 163.43C223.524 163.43 224.074 163.13 224.404 162.68L225.034 163.17ZM222.644 159.48C221.814 159.48 221.234 159.97 221.054 160.84H224.074C224.044 160.1 223.534 159.48 222.644 159.48Z" fill="#B34000"/>
<rect width="324" height="30" transform="translate(13 175)" fill="white"/>
<path d="M19.433 185.5L24.1961 193.75C24.3342 193.989 24.2523 194.295 24.0131 194.433C23.9371 194.477 23.8509 194.5 23.7631 194.5H14.2368C13.9607 194.5 13.7368 194.276 13.7368 194C13.7368 193.912 13.7599 193.826 13.8038 193.75L18.567 185.5C18.705 185.261 19.0108 185.179 19.25 185.317C19.326 185.361 19.3891 185.424 19.433 185.5ZM15.1028 193.5H22.8971L19 186.75L15.1028 193.5ZM18.5 192H19.5V193H18.5V192ZM18.5 188.5H19.5V191H18.5V188.5Z" fill="#B34000"/>
<path d="M30.11 194V187H33.87V187.8H31.05V190.04H33.47V190.83H31.05V194H30.11ZM37.2098 188.76C38.8298 188.76 39.9398 190.01 39.9398 191.48C39.9398 192.95 38.8298 194.2 37.2098 194.2C35.5798 194.2 34.4798 192.95 34.4798 191.48C34.4798 190.01 35.5798 188.76 37.2098 188.76ZM37.2198 193.4C38.2698 193.4 39.0398 192.52 39.0398 191.48C39.0398 190.43 38.2698 189.56 37.2198 189.56C36.1398 189.56 35.3698 190.43 35.3698 191.48C35.3698 192.53 36.1398 193.4 37.2198 193.4ZM41.3063 194V188.96H42.1563V189.59C42.5263 189.15 42.9863 188.86 43.6263 188.86C43.7863 188.86 43.9363 188.88 44.0563 188.92V189.75C43.9063 189.71 43.7563 189.69 43.5563 189.69C42.8963 189.69 42.4663 190.03 42.1563 190.54V194H41.3063ZM45.2809 194V188.96H46.1309V189.51C46.5109 189.07 47.0109 188.76 47.7109 188.76C48.4409 188.76 49.0409 189.09 49.3509 189.73C49.7509 189.18 50.2809 188.76 51.1509 188.76C52.2309 188.76 53.0209 189.48 53.0209 190.85V194H52.1709V190.88C52.1709 190.04 51.7009 189.56 50.9809 189.56C50.3409 189.56 49.8909 189.92 49.5609 190.51C49.5709 190.62 49.5809 190.73 49.5809 190.85V194H48.7309V190.88C48.7309 190.04 48.2709 189.56 47.5409 189.56C46.8509 189.56 46.4209 189.99 46.1309 190.51V194H45.2809ZM56.104 194.14C55.114 194.14 54.444 193.59 54.444 192.73C54.444 191.97 55.024 191.43 56.094 191.25L57.794 190.97V190.62C57.794 189.92 57.294 189.52 56.574 189.52C55.994 189.52 55.524 189.79 55.214 190.22L54.574 189.73C55.014 189.13 55.724 188.76 56.604 188.76C57.884 188.76 58.644 189.51 58.644 190.62V194H57.794V193.36C57.414 193.85 56.754 194.14 56.104 194.14ZM55.304 192.7C55.304 193.13 55.654 193.44 56.244 193.44C56.914 193.44 57.464 193.12 57.794 192.58V191.59L56.304 191.84C55.614 191.96 55.304 192.27 55.304 192.7ZM60.6392 192.31V189.73H59.6892V188.96H60.6392V187.7H61.4992V188.96H63.2492V189.73H61.4992V192.31C61.4992 193.1 61.8992 193.32 62.5092 193.32C62.8392 193.32 63.0692 193.28 63.2592 193.2V193.96C63.0192 194.06 62.7492 194.1 62.3892 194.1C61.2692 194.1 60.6392 193.54 60.6392 192.31ZM64.0084 193.31L64.6084 192.8C64.9584 193.24 65.3784 193.49 65.8884 193.49C66.4484 193.49 66.7684 193.15 66.7684 192.71C66.7684 191.58 64.2484 191.98 64.2484 190.2C64.2484 189.41 64.9184 188.76 65.8884 188.76C66.6084 188.76 67.2284 189.1 67.5784 189.59L66.9884 190.09C66.7184 189.71 66.3384 189.47 65.8984 189.47C65.3584 189.47 65.0684 189.79 65.0684 190.18C65.0684 191.31 67.5984 190.95 67.5984 192.67C67.5884 193.61 66.8384 194.2 65.8984 194.2C65.0984 194.2 64.4684 193.88 64.0084 193.31ZM71.2473 191.48C71.2473 190.01 72.2573 188.76 73.8373 188.76C74.5873 188.76 75.1773 189.05 75.6273 189.56V186.5H76.4773V194H75.6273V193.4C75.1773 193.91 74.5873 194.2 73.8373 194.2C72.2573 194.2 71.2473 192.95 71.2473 191.48ZM72.1473 191.48C72.1473 192.55 72.8673 193.4 73.9373 193.4C74.6373 193.4 75.2573 193.06 75.6273 192.47V190.49C75.2373 189.89 74.6273 189.56 73.9373 189.56C72.8673 189.56 72.1473 190.41 72.1473 191.48ZM82.7491 193.17C82.2791 193.8 81.5291 194.2 80.5891 194.2C78.8891 194.2 77.8391 192.95 77.8391 191.48C77.8391 189.95 78.8191 188.76 80.3791 188.76C81.7491 188.76 82.6391 189.72 82.6391 190.96C82.6391 191.16 82.6091 191.35 82.5791 191.49H78.7091C78.7391 192.7 79.5091 193.43 80.5891 193.43C81.2391 193.43 81.7891 193.13 82.1191 192.68L82.7491 193.17ZM80.3591 189.48C79.5291 189.48 78.9491 189.97 78.7691 190.84H81.7891C81.7591 190.1 81.2491 189.48 80.3591 189.48ZM86.115 188.96H87.065V188.34C87.065 187.27 87.755 186.5 88.855 186.5C89.315 186.5 89.685 186.63 89.965 186.79L89.585 187.5C89.395 187.36 89.165 187.27 88.875 187.27C88.305 187.27 87.925 187.66 87.925 188.32V188.96H89.675V189.73H87.925V194H87.065V189.73H86.115V188.96ZM91.1405 187.65C90.8105 187.65 90.5405 187.38 90.5405 187.05C90.5405 186.73 90.8105 186.46 91.1405 186.46C91.4705 186.46 91.7305 186.73 91.7305 187.05C91.7305 187.38 91.4705 187.65 91.1405 187.65ZM90.7105 194V188.96H91.5605V194H90.7105ZM95.677 193.4C96.297 193.4 96.807 193.1 97.117 192.66L97.787 193.17C97.317 193.8 96.587 194.2 95.667 194.2C93.997 194.2 92.927 192.95 92.927 191.48C92.927 190.01 93.997 188.76 95.667 188.76C96.577 188.76 97.317 189.17 97.787 189.79L97.117 190.3C96.807 189.86 96.297 189.56 95.667 189.56C94.587 189.56 93.817 190.41 93.817 191.48C93.817 192.56 94.587 193.4 95.677 193.4ZM98.9527 194V186.5H99.8027V189.53C100.213 189.08 100.733 188.76 101.483 188.76C102.613 188.76 103.453 189.52 103.453 190.95V194H102.603V190.98C102.603 190.08 102.103 189.56 101.313 189.56C100.573 189.56 100.123 189.99 99.8027 190.51V194H98.9527ZM105.594 187.65C105.264 187.65 104.994 187.38 104.994 187.05C104.994 186.73 105.264 186.46 105.594 186.46C105.924 186.46 106.184 186.73 106.184 187.05C106.184 187.38 105.924 187.65 105.594 187.65ZM105.164 194V188.96H106.014V194H105.164ZM112.29 193.17C111.82 193.8 111.07 194.2 110.13 194.2C108.43 194.2 107.38 192.95 107.38 191.48C107.38 189.95 108.36 188.76 109.92 188.76C111.29 188.76 112.18 189.72 112.18 190.96C112.18 191.16 112.15 191.35 112.12 191.49H108.25C108.28 192.7 109.05 193.43 110.13 193.43C110.78 193.43 111.33 193.13 111.66 192.68L112.29 193.17ZM109.9 189.48C109.07 189.48 108.49 189.97 108.31 190.84H111.33C111.3 190.1 110.79 189.48 109.9 189.48ZM113.621 194V188.96H114.471V189.59C114.841 189.15 115.301 188.86 115.941 188.86C116.101 188.86 116.251 188.88 116.371 188.92V189.75C116.221 189.71 116.071 189.69 115.871 189.69C115.211 189.69 114.781 190.03 114.471 190.54V194H113.621ZM117.055 193.31L117.655 192.8C118.005 193.24 118.425 193.49 118.935 193.49C119.495 193.49 119.815 193.15 119.815 192.71C119.815 191.58 117.295 191.98 117.295 190.2C117.295 189.41 117.965 188.76 118.935 188.76C119.655 188.76 120.275 189.1 120.625 189.59L120.035 190.09C119.765 189.71 119.385 189.47 118.945 189.47C118.405 189.47 118.115 189.79 118.115 190.18C118.115 191.31 120.645 190.95 120.645 192.67C120.635 193.61 119.885 194.2 118.945 194.2C118.145 194.2 117.515 193.88 117.055 193.31ZM124.724 194V188.96H125.574V189.53C125.984 189.08 126.504 188.76 127.254 188.76C128.384 188.76 129.224 189.52 129.224 190.95V194H128.374V190.98C128.374 190.08 127.864 189.56 127.084 189.56C126.354 189.56 125.894 189.98 125.574 190.51V194H124.724ZM133.235 188.76C134.855 188.76 135.965 190.01 135.965 191.48C135.965 192.95 134.855 194.2 133.235 194.2C131.605 194.2 130.505 192.95 130.505 191.48C130.505 190.01 131.605 188.76 133.235 188.76ZM133.245 193.4C134.295 193.4 135.065 192.52 135.065 191.48C135.065 190.43 134.295 189.56 133.245 189.56C132.165 189.56 131.395 190.43 131.395 191.48C131.395 192.53 132.165 193.4 133.245 193.4ZM137.332 194V188.96H138.182V189.53C138.592 189.08 139.112 188.76 139.862 188.76C140.992 188.76 141.832 189.52 141.832 190.95V194H140.982V190.98C140.982 190.08 140.472 189.56 139.692 189.56C138.962 189.56 138.502 189.98 138.182 190.51V194H137.332ZM145.698 193.31L146.298 192.8C146.648 193.24 147.068 193.49 147.578 193.49C148.138 193.49 148.458 193.15 148.458 192.71C148.458 191.58 145.938 191.98 145.938 190.2C145.938 189.41 146.608 188.76 147.578 188.76C148.298 188.76 148.918 189.1 149.268 189.59L148.678 190.09C148.408 189.71 148.028 189.47 147.588 189.47C147.048 189.47 146.758 189.79 146.758 190.18C146.758 191.31 149.288 190.95 149.288 192.67C149.278 193.61 148.528 194.2 147.588 194.2C146.788 194.2 146.158 193.88 145.698 193.31ZM151.001 192.31V189.73H150.051V188.96H151.001V187.7H151.861V188.96H153.611V189.73H151.861V192.31C151.861 193.1 152.261 193.32 152.871 193.32C153.201 193.32 153.431 193.28 153.621 193.2V193.96C153.381 194.06 153.111 194.1 152.751 194.1C151.631 194.1 151.001 193.54 151.001 192.31ZM156.28 194.14C155.29 194.14 154.62 193.59 154.62 192.73C154.62 191.97 155.2 191.43 156.27 191.25L157.97 190.97V190.62C157.97 189.92 157.47 189.52 156.75 189.52C156.17 189.52 155.7 189.79 155.39 190.22L154.75 189.73C155.19 189.13 155.9 188.76 156.78 188.76C158.06 188.76 158.82 189.51 158.82 190.62V194H157.97V193.36C157.59 193.85 156.93 194.14 156.28 194.14ZM155.48 192.7C155.48 193.13 155.83 193.44 156.42 193.44C157.09 193.44 157.64 193.12 157.97 192.58V191.59L156.48 191.84C155.79 191.96 155.48 192.27 155.48 192.7ZM160.525 194V188.96H161.375V189.53C161.785 189.08 162.305 188.76 163.055 188.76C164.185 188.76 165.025 189.52 165.025 190.95V194H164.175V190.98C164.175 190.08 163.665 189.56 162.885 189.56C162.155 189.56 161.695 189.98 161.375 190.51V194H160.525ZM166.306 191.48C166.306 190.01 167.316 188.76 168.896 188.76C169.646 188.76 170.236 189.05 170.686 189.56V186.5H171.536V194H170.686V193.4C170.236 193.91 169.646 194.2 168.896 194.2C167.316 194.2 166.306 192.95 166.306 191.48ZM167.206 191.48C167.206 192.55 167.926 193.4 168.996 193.4C169.696 193.4 170.316 193.06 170.686 192.47V190.49C170.296 189.89 169.686 189.56 168.996 189.56C167.926 189.56 167.206 190.41 167.206 191.48ZM174.698 194.14C173.708 194.14 173.038 193.59 173.038 192.73C173.038 191.97 173.618 191.43 174.688 191.25L176.388 190.97V190.62C176.388 189.92 175.888 189.52 175.168 189.52C174.588 189.52 174.118 189.79 173.808 190.22L173.168 189.73C173.608 189.13 174.318 188.76 175.198 188.76C176.478 188.76 177.238 189.51 177.238 190.62V194H176.388V193.36C176.008 193.85 175.348 194.14 174.698 194.14ZM173.898 192.7C173.898 193.13 174.248 193.44 174.838 193.44C175.508 193.44 176.058 193.12 176.388 192.58V191.59L174.898 191.84C174.208 191.96 173.898 192.27 173.898 192.7ZM178.943 194V188.96H179.793V189.59C180.163 189.15 180.623 188.86 181.263 188.86C181.423 188.86 181.573 188.88 181.693 188.92V189.75C181.543 189.71 181.393 189.69 181.193 189.69C180.533 189.69 180.103 190.03 179.793 190.54V194H178.943ZM182.185 191.48C182.185 190.01 183.195 188.76 184.775 188.76C185.525 188.76 186.115 189.05 186.565 189.56V186.5H187.415V194H186.565V193.4C186.115 193.91 185.525 194.2 184.775 194.2C183.195 194.2 182.185 192.95 182.185 191.48ZM183.085 191.48C183.085 192.55 183.805 193.4 184.875 193.4C185.575 193.4 186.195 193.06 186.565 192.47V190.49C186.175 189.89 185.565 189.56 184.875 189.56C183.805 189.56 183.085 190.41 183.085 191.48ZM188.628 193.31L189.228 192.8C189.578 193.24 189.998 193.49 190.508 193.49C191.068 193.49 191.388 193.15 191.388 192.71C191.388 191.58 188.868 191.98 188.868 190.2C188.868 189.41 189.538 188.76 190.508 188.76C191.228 188.76 191.848 189.1 192.198 189.59L191.608 190.09C191.338 189.71 190.958 189.47 190.518 189.47C189.978 189.47 189.688 189.79 189.688 190.18C189.688 191.31 192.218 190.95 192.218 192.67C192.208 193.61 191.458 194.2 190.518 194.2C189.718 194.2 189.088 193.88 188.628 193.31Z" fill="#B34000"/>
</g>
</g>
</g>
<defs>
<filter id="filter0_d_2656_9058" x="0" y="0" width="350" height="212" filterUnits="userSpaceOnUse" color-interpolation-filters="sRGB">
<feFlood flood-opacity="0" result="BackgroundImageFix"/>
<feColorMatrix in="SourceAlpha" type="matrix" values="0 0 0 0 0 0 0 0 0 0 0 0 0 0 0 0 0 0 127 0" result="hardAlpha"/>
<feMorphology radius="1" operator="dilate" in="SourceAlpha" result="effect1_dropShadow_2656_9058"/>
<feOffset/>
<feComposite in2="hardAlpha" operator="out"/>
<feColorMatrix type="matrix" values="0 0 0 0 0.149038 0 0 0 0 0.145083 0 0 0 0 0.11763 0 0 0 0.1 0"/>
<feBlend mode="normal" in2="BackgroundImageFix" result="effect1_dropShadow_2656_9058"/>
<feBlend mode="normal" in="SourceGraphic" in2="effect1_dropShadow_2656_9058" result="shape"/>
</filter>
<clipPath id="clip0_2656_9058">
<path d="M1 11C1 5.47715 5.47715 1 11 1H349V211H1V11Z" fill="white"/>
</clipPath>
<clipPath id="clip1_2656_9058">
<rect x="13" y="55" width="324" height="150" rx="2" fill="white"/>
</clipPath>
</defs>
</svg>
