<svg xmlns="http://www.w3.org/2000/svg" width="350" height="212" fill="none" viewBox="0 0 350 212"><g filter="url(#a)"><g clip-path="url(#b)"><path fill="#fff" d="M1 11C1 5.477 5.477 1 11 1h338v210H1z"/><path fill="#161616" d="M21.28 26.784c.648.588 1.224.804 1.764.804.18 0 .42-.024.6-.096v1.44a2.2 2.2 0 0 1-.888.156c-.936 0-1.8-.384-2.628-1.104l-.996-.888q-.54.144-1.152.144c-2.652 0-4.464-2.04-4.464-4.44s1.812-4.44 4.464-4.44c2.64 0 4.452 2.04 4.452 4.44 0 1.404-.624 2.688-1.656 3.504zm-3.3-1.14c1.572 0 2.7-1.236 2.7-2.844s-1.128-2.844-2.7-2.844c-1.584 0-2.712 1.236-2.712 2.844s1.128 2.844 2.712 2.844m9.865-1.26v-3.432h1.536v3.36c0 1.812-1.056 2.928-2.832 2.928s-2.82-1.116-2.82-2.928v-3.36h1.536v3.432c0 .876.456 1.416 1.296 1.416.828 0 1.284-.54 1.284-1.416m4.81 2.796c-1.212 0-2.04-.696-2.04-1.812 0-.912.708-1.596 2.004-1.812l1.848-.312v-.156c0-.636-.48-1.044-1.176-1.044-.588 0-1.044.276-1.368.72l-1.116-.852c.54-.744 1.428-1.2 2.532-1.2 1.752 0 2.652 1.044 2.652 2.376V27h-1.524v-.588c-.384.468-1.104.768-1.812.768m-.528-1.884c0 .408.324.672.84.672.696 0 1.2-.324 1.5-.804v-.852l-1.44.24c-.636.108-.9.372-.9.744M37.737 27v-9h1.523v9zm4.119-7.104a1.01 1.01 0 0 1-.996-.996c0-.54.456-.996.996-.996s.984.456.984.996-.444.996-.984.996M41.088 27v-6.048h1.524V27zm3.735-2.208V22.32h-1.128v-1.368h1.128V19.44h1.536v1.512h1.848v1.368H46.36v2.472c0 .672.36.936.96.936.42 0 .696-.048.9-.132v1.332c-.3.132-.66.192-1.164.192-1.512 0-2.232-.852-2.232-2.328m8.148-4.8h-1.464L52.755 18h1.656zm2.052 6.024c-.564.756-1.5 1.224-2.64 1.224-2.148 0-3.36-1.5-3.36-3.264 0-1.788 1.128-3.264 3.108-3.264 1.68 0 2.784 1.14 2.784 2.724 0 .336-.048.648-.096.852h-4.236c.144 1.128.84 1.584 1.788 1.584.66 0 1.236-.288 1.56-.72zm-2.928-4.056c-.78 0-1.296.432-1.464 1.224h2.784c-.024-.612-.468-1.224-1.32-1.224m7.112 2.016c0-1.764 1.164-3.264 3.072-3.264.816 0 1.404.252 1.872.72V18h1.536v9H64.15v-.48c-.468.468-1.056.72-1.872.72-1.908 0-3.072-1.5-3.072-3.264m1.596 0c0 1.056.66 1.824 1.692 1.824.684 0 1.248-.288 1.656-.84v-1.968c-.408-.552-.972-.84-1.656-.84-1.032 0-1.692.768-1.692 1.824m12.279 2.04c-.564.756-1.5 1.224-2.64 1.224-2.148 0-3.36-1.5-3.36-3.264 0-1.788 1.128-3.264 3.108-3.264 1.68 0 2.784 1.14 2.784 2.724 0 .336-.048.648-.096.852h-4.236c.144 1.128.84 1.584 1.788 1.584.66 0 1.236-.288 1.56-.72zm-2.928-4.056c-.78 0-1.296.432-1.464 1.224h2.784c-.024-.612-.468-1.224-1.32-1.224m3.699 4.164 1.008-.912c.372.468.816.804 1.392.804.492 0 .744-.288.744-.648 0-1.056-2.892-.66-2.892-2.784 0-1.068.9-1.872 2.16-1.872.924 0 1.764.444 2.196 1.032l-1.008.888c-.312-.384-.708-.696-1.176-.696-.48 0-.708.264-.708.576 0 1.032 2.892.672 2.892 2.76-.024 1.272-1.044 1.968-2.184 1.968-1.08 0-1.848-.432-2.424-1.116M83.1 27v-6.048h1.524v.456c.407-.396.924-.696 1.668-.696.767 0 1.44.336 1.835.984.433-.528 1.008-.984 2.029-.984 1.247 0 2.231.864 2.231 2.568V27h-1.535v-3.66c0-.732-.397-1.188-1.08-1.188-.66 0-1.02.456-1.26.864.011.084.011.168.011.264V27h-1.535v-3.66c0-.732-.397-1.188-1.08-1.188-.697 0-1.056.516-1.284.9V27zm14.543-7.008h-1.464L97.427 18h1.656zm2.052 6.024c-.564.756-1.5 1.224-2.64 1.224-2.148 0-3.36-1.5-3.36-3.264 0-1.788 1.128-3.264 3.108-3.264 1.68 0 2.784 1.14 2.784 2.724 0 .336-.048.648-.096.852h-4.236c.144 1.128.84 1.584 1.788 1.584.66 0 1.236-.288 1.56-.72zm-2.928-4.056c-.78 0-1.296.432-1.464 1.224h2.784c-.024-.612-.468-1.224-1.32-1.224m4.681 2.832V22.32h-1.128v-1.368h1.128V19.44h1.536v1.512h1.848v1.368h-1.848v2.472c0 .672.36.936.96.936.42 0 .696-.048.9-.132v1.332c-.3.132-.66.192-1.164.192-1.512 0-2.232-.852-2.232-2.328m6.453 2.388c-1.212 0-2.04-.696-2.04-1.812 0-.912.708-1.596 2.004-1.812l1.848-.312v-.156c0-.636-.48-1.044-1.176-1.044-.588 0-1.044.276-1.368.72l-1.116-.852c.54-.744 1.428-1.2 2.532-1.2 1.752 0 2.652 1.044 2.652 2.376V27h-1.524v-.588c-.384.468-1.104.768-1.812.768m-.528-1.884c0 .408.324.672.84.672.696 0 1.2-.324 1.5-.804v-.852l-1.44.24c-.636.108-.9.372-.9.744m5.177-1.32c0-1.764 1.164-3.264 3.072-3.264.816 0 1.404.252 1.872.72V18h1.536v9h-1.536v-.48c-.468.468-1.056.72-1.872.72-1.908 0-3.072-1.5-3.072-3.264m1.596 0c0 1.056.66 1.824 1.692 1.824.684 0 1.248-.288 1.656-.84v-1.968c-.408-.552-.972-.84-1.656-.84-1.032 0-1.692.768-1.692 1.824m9.591-3.264c1.968 0 3.312 1.452 3.312 3.264s-1.344 3.264-3.312 3.264-3.312-1.452-3.312-3.264 1.344-3.264 3.312-3.264m.024 5.088c.972 0 1.704-.78 1.704-1.824 0-1.056-.732-1.824-1.704-1.824-1.008 0-1.752.768-1.752 1.824s.744 1.824 1.752 1.824m4.678 1.2v-6.048h1.524v.48c.42-.408.984-.72 1.788-.72 1.308 0 2.352.9 2.352 2.688V27h-1.536v-3.54c0-.804-.456-1.308-1.2-1.308-.768 0-1.176.516-1.404.9V27zm7.395 0v-6.048h1.524v.48c.42-.408.984-.72 1.788-.72 1.308 0 2.352.9 2.352 2.688V27h-1.536v-3.54c0-.804-.456-1.308-1.2-1.308-.768 0-1.176.516-1.404.9V27zm10.91-7.008h-1.464L146.528 18h1.656zm2.052 6.024c-.564.756-1.5 1.224-2.64 1.224-2.148 0-3.36-1.5-3.36-3.264 0-1.788 1.128-3.264 3.108-3.264 1.68 0 2.784 1.14 2.784 2.724 0 .336-.048.648-.096.852h-4.236c.144 1.128.84 1.584 1.788 1.584.66 0 1.236-.288 1.56-.72zm-2.928-4.056c-.78 0-1.296.432-1.464 1.224h2.784c-.024-.612-.468-1.224-1.32-1.224m9.831 4.056c-.564.756-1.5 1.224-2.64 1.224-2.148 0-3.36-1.5-3.36-3.264 0-1.788 1.128-3.264 3.108-3.264 1.68 0 2.784 1.14 2.784 2.724 0 .336-.048.648-.096.852h-4.236c.144 1.128.84 1.584 1.788 1.584.66 0 1.236-.288 1.56-.72zm-2.928-4.056c-.78 0-1.296.432-1.464 1.224h2.784c-.024-.612-.468-1.224-1.32-1.224m3.699 4.164 1.008-.912c.372.468.816.804 1.392.804.492 0 .744-.288.744-.648 0-1.056-2.892-.66-2.892-2.784 0-1.068.9-1.872 2.16-1.872.924 0 1.764.444 2.196 1.032l-1.008.888c-.312-.384-.708-.696-1.176-.696-.48 0-.708.264-.708.576 0 1.032 2.892.672 2.892 2.76-.024 1.272-1.044 1.968-2.184 1.968-1.08 0-1.848-.432-2.424-1.116"/><rect width="323" height="11" x="13.5" y="35.5" fill="#fff" rx="5.5"/><rect width="323" height="11" x="13.5" y="35.5" stroke="#27a658" rx="5.5"/><rect width="248" height="8" x="15" y="37" fill="#27a658" rx="4"/><g clip-path="url(#c)"><path fill="#fff" d="M13 55h324v30H13z"/><path fill="#000" d="m18 71.585 4.596-4.596.707.707L18 73l-3.182-3.182.707-.707z"/><path fill="#161616" d="M30.11 74v-7h2.69c2.19 0 3.68 1.61 3.68 3.5S34.99 74 32.8 74zm2.71-6.14h-1.77v5.28h1.77c1.56 0 2.69-1.18 2.69-2.64 0-1.47-1.13-2.64-2.69-2.64m9.617 5.31c-.47.63-1.22 1.03-2.16 1.03-1.7 0-2.75-1.25-2.75-2.72 0-1.53.98-2.72 2.54-2.72 1.37 0 2.26.96 2.26 2.2 0 .2-.03.39-.06.53h-3.87c.03 1.21.8 1.94 1.88 1.94.65 0 1.2-.3 1.53-.75zm-2.39-3.69c-.83 0-1.41.49-1.59 1.36h3.02c-.03-.74-.54-1.36-1.43-1.36m3.141 3.83.6-.51c.35.44.77.69 1.28.69.56 0 .88-.34.88-.78 0-1.13-2.52-.73-2.52-2.51 0-.79.67-1.44 1.64-1.44.72 0 1.34.34 1.69.83l-.59.5c-.27-.38-.65-.62-1.09-.62-.54 0-.83.32-.83.71 0 1.13 2.53.77 2.53 2.49-.01.94-.76 1.53-1.7 1.53-.8 0-1.43-.32-1.89-.89m7.235.09c.62 0 1.13-.3 1.44-.74l.67.51c-.47.63-1.2 1.03-2.12 1.03-1.67 0-2.74-1.25-2.74-2.72s1.07-2.72 2.74-2.72c.91 0 1.65.41 2.12 1.03l-.67.51c-.31-.44-.82-.74-1.45-.74-1.08 0-1.85.85-1.85 1.92 0 1.08.77 1.92 1.86 1.92m3.276.6v-5.04h.85v.63c.37-.44.83-.73 1.47-.73.16 0 .31.02.43.06v.83c-.15-.04-.3-.06-.5-.06-.66 0-1.09.34-1.4.85V74zm4.404-6.35c-.33 0-.6-.27-.6-.6a.6.6 0 0 1 .6-.59c.33 0 .59.27.59.59 0 .33-.26.6-.59.6m-.43 6.35v-5.04h.85V74zm2.647 2.46v-7.5h.85v.6c.45-.51 1.04-.8 1.79-.8 1.58 0 2.59 1.25 2.59 2.72s-1.01 2.72-2.59 2.72c-.75 0-1.34-.29-1.79-.8v3.06zm2.54-6.9c-.7 0-1.31.34-1.69.94v1.96c.39.61 1 .94 1.69.94 1.07 0 1.8-.85 1.8-1.92s-.73-1.92-1.8-1.92m4.273 2.75v-2.58h-.95v-.77h.95V67.7h.86v1.26h1.75v.77h-1.75v2.58c0 .79.4 1.01 1.01 1.01.33 0 .56-.04.75-.12v.76c-.24.1-.51.14-.87.14-1.12 0-1.75-.56-1.75-1.79m4.34-4.66c-.33 0-.6-.27-.6-.6a.6.6 0 0 1 .6-.59c.33 0 .59.27.59.59 0 .33-.26.6-.59.6m-.43 6.35v-5.04h.85V74zm4.946-5.24c1.62 0 2.73 1.25 2.73 2.72s-1.11 2.72-2.73 2.72c-1.63 0-2.73-1.25-2.73-2.72s1.1-2.72 2.73-2.72M76 73.4c1.05 0 1.82-.88 1.82-1.92 0-1.05-.77-1.92-1.82-1.92-1.08 0-1.85.87-1.85 1.92s.77 1.92 1.85 1.92m4.087.6v-5.04h.85v.57c.41-.45.93-.77 1.68-.77 1.13 0 1.97.76 1.97 2.19V74h-.85v-3.02c0-.9-.51-1.42-1.29-1.42-.73 0-1.19.42-1.51.95V74zm8.476-2.52c0-1.47 1.01-2.72 2.59-2.72.75 0 1.34.29 1.79.8V66.5h.85V74h-.85v-.6c-.45.51-1.04.8-1.79.8-1.58 0-2.59-1.25-2.59-2.72m.9 0c0 1.07.72 1.92 1.79 1.92.7 0 1.32-.34 1.69-.93v-1.98c-.39-.6-1-.93-1.69-.93-1.07 0-1.79.85-1.79 1.92m10.602 1.69c-.47.63-1.22 1.03-2.16 1.03-1.7 0-2.75-1.25-2.75-2.72 0-1.53.98-2.72 2.54-2.72 1.37 0 2.26.96 2.26 2.2 0 .2-.03.39-.06.53h-3.87c.03 1.21.8 1.94 1.88 1.94.65 0 1.2-.3 1.53-.75zm-2.39-3.69c-.83 0-1.41.49-1.59 1.36h3.02c-.03-.74-.54-1.36-1.43-1.36m3.141 3.83.6-.51c.35.44.77.69 1.28.69.56 0 .88-.34.88-.78 0-1.13-2.52-.73-2.52-2.51 0-.79.67-1.44 1.64-1.44.72 0 1.34.34 1.69.83l-.59.5c-.27-.38-.65-.62-1.09-.62-.54 0-.83.32-.83.71 0 1.13 2.53.77 2.53 2.49-.01.94-.76 1.53-1.7 1.53-.8 0-1.43-.32-1.89-.89m7.239-1.83c0-1.47 1.01-2.72 2.59-2.72.75 0 1.34.29 1.79.8V66.5h.85V74h-.85v-.6c-.45.51-1.04.8-1.79.8-1.58 0-2.59-1.25-2.59-2.72m.9 0c0 1.07.72 1.92 1.79 1.92.7 0 1.32-.34 1.69-.93v-1.98c-.39-.6-1-.93-1.69-.93-1.07 0-1.79.85-1.79 1.92m8.422-2.72c1.62 0 2.73 1.25 2.73 2.72s-1.11 2.72-2.73 2.72c-1.63 0-2.73-1.25-2.73-2.72s1.1-2.72 2.73-2.72m.01 4.64c1.05 0 1.82-.88 1.82-1.92 0-1.05-.77-1.92-1.82-1.92-1.08 0-1.85.87-1.85 1.92s.77 1.92 1.85 1.92m4.086.6v-5.04h.85v.57c.41-.45.93-.77 1.68-.77 1.13 0 1.97.76 1.97 2.19V74h-.85v-3.02c0-.9-.51-1.42-1.29-1.42-.73 0-1.19.42-1.51.95V74zm6.211 0v-5.04h.85v.57c.41-.45.93-.77 1.68-.77 1.13 0 1.97.76 1.97 2.19V74h-.85v-3.02c0-.9-.51-1.42-1.29-1.42-.73 0-1.19.42-1.51.95V74zm8.771-5.84h-.83l1.04-1.66h.96zm1.92 5.01c-.47.63-1.22 1.03-2.16 1.03-1.7 0-2.75-1.25-2.75-2.72 0-1.53.98-2.72 2.54-2.72 1.37 0 2.26.96 2.26 2.2 0 .2-.03.39-.06.53h-3.87c.03 1.21.8 1.94 1.88 1.94.65 0 1.2-.3 1.53-.75zm-2.39-3.69c-.83 0-1.41.49-1.59 1.36h3.02c-.03-.74-.54-1.36-1.43-1.36m8.181 3.69c-.47.63-1.22 1.03-2.16 1.03-1.7 0-2.75-1.25-2.75-2.72 0-1.53.98-2.72 2.54-2.72 1.37 0 2.26.96 2.26 2.2 0 .2-.03.39-.06.53h-3.87c.03 1.21.8 1.94 1.88 1.94.65 0 1.2-.3 1.53-.75zm-2.39-3.69c-.83 0-1.41.49-1.59 1.36h3.02c-.03-.74-.54-1.36-1.43-1.36m3.142 3.83.6-.51c.35.44.77.69 1.28.69.56 0 .88-.34.88-.78 0-1.13-2.52-.73-2.52-2.51 0-.79.67-1.44 1.64-1.44.72 0 1.34.34 1.69.83l-.59.5c-.27-.38-.65-.62-1.09-.62-.54 0-.83.32-.83.71 0 1.13 2.53.77 2.53 2.49-.01.94-.76 1.53-1.7 1.53-.8 0-1.43-.32-1.89-.89m7.669.69v-5.04h.85v.63c.37-.44.83-.73 1.47-.73.16 0 .31.02.43.06v.83c-.15-.04-.3-.06-.5-.06-.66 0-1.09.34-1.4.85V74zm8.151-.83c-.47.63-1.22 1.03-2.16 1.03-1.7 0-2.75-1.25-2.75-2.72 0-1.53.98-2.72 2.54-2.72 1.37 0 2.26.96 2.26 2.2 0 .2-.03.39-.06.53h-3.87c.03 1.21.8 1.94 1.88 1.94.65 0 1.2-.3 1.53-.75zm-2.39-3.69c-.83 0-1.41.49-1.59 1.36h3.02c-.03-.74-.54-1.36-1.43-1.36m3.721 4.52v-5.04h.85v.57c.41-.45.93-.77 1.68-.77 1.13 0 1.97.76 1.97 2.19V74h-.85v-3.02c0-.9-.51-1.42-1.29-1.42-.73 0-1.19.42-1.51.95V74zm5.671-.69.6-.51c.35.44.77.69 1.28.69.56 0 .88-.34.88-.78 0-1.13-2.52-.73-2.52-2.51 0-.79.67-1.44 1.64-1.44.72 0 1.34.34 1.69.83l-.59.5c-.27-.38-.65-.62-1.09-.62-.54 0-.83.32-.83.71 0 1.13 2.53.77 2.53 2.49-.01.94-.76 1.53-1.7 1.53-.8 0-1.43-.32-1.89-.89m9.395-.14c-.47.63-1.22 1.03-2.16 1.03-1.7 0-2.75-1.25-2.75-2.72 0-1.53.98-2.72 2.54-2.72 1.37 0 2.26.96 2.26 2.2 0 .2-.03.39-.06.53h-3.87c.03 1.21.8 1.94 1.88 1.94.65 0 1.2-.3 1.53-.75zm-2.39-3.69c-.83 0-1.41.49-1.59 1.36h3.02c-.03-.74-.54-1.36-1.43-1.36m4.15-1.83c-.33 0-.6-.27-.6-.6a.6.6 0 0 1 .6-.59c.33 0 .59.27.59.59 0 .33-.26.6-.59.6m-.43 6.35v-5.04h.85V74zm2.067.91c0-.51.25-.92.75-1.27a.91.91 0 0 1-.35-.72c0-.4.21-.73.6-.98-.44-.33-.7-.84-.7-1.4 0-.97.76-1.79 1.96-1.79.37 0 .7.08.97.21h1.87v.74h-1.09c.14.25.21.54.21.84 0 .96-.75 1.78-1.96 1.78-.25 0-.49-.04-.7-.1-.21.15-.33.33-.33.52 0 .21.11.36.42.36h1.44c1.33 0 1.95.65 1.95 1.55 0 1.06-1.06 1.85-2.57 1.85-1.49 0-2.47-.58-2.47-1.59m2.27-3.26c.73 0 1.15-.5 1.15-1.11 0-.62-.42-1.12-1.15-1.12-.75 0-1.16.5-1.16 1.12s.41 1.11 1.16 1.11m-1.44 3.16c0 .61.63.98 1.63.98 1.06 0 1.73-.42 1.73-1.08 0-.48-.27-.86-1.17-.86h-1.63c-.35.26-.56.56-.56.96m5.307-.81v-5.04h.85v.57c.41-.45.93-.77 1.68-.77 1.13 0 1.97.76 1.97 2.19V74h-.85v-3.02c0-.9-.51-1.42-1.29-1.42-.73 0-1.19.42-1.51.95V74zm8.771-5.84h-.83l1.04-1.66h.96zm1.92 5.01c-.47.63-1.22 1.03-2.16 1.03-1.7 0-2.75-1.25-2.75-2.72 0-1.53.98-2.72 2.54-2.72 1.37 0 2.26.96 2.26 2.2 0 .2-.03.39-.06.53h-3.87c.03 1.21.8 1.94 1.88 1.94.65 0 1.2-.3 1.53-.75zm-2.39-3.69c-.83 0-1.41.49-1.59 1.36h3.02c-.03-.74-.54-1.36-1.43-1.36m8.181 3.69c-.47.63-1.22 1.03-2.16 1.03-1.7 0-2.75-1.25-2.75-2.72 0-1.53.98-2.72 2.54-2.72 1.37 0 2.26.96 2.26 2.2 0 .2-.03.39-.06.53h-3.87c.03 1.21.8 1.94 1.88 1.94.65 0 1.2-.3 1.53-.75zm-2.39-3.69c-.83 0-1.41.49-1.59 1.36h3.02c-.03-.74-.54-1.36-1.43-1.36"/><path fill="#fff" d="M13 85h324v30H13z"/><path fill="#000" d="m18 101.585 4.596-4.596.707.707L18 103l-3.182-3.182.707-.707z"/><path fill="#161616" d="M30.11 104v-7h3.76v.8h-2.82v2.24h2.42v.79h-2.42V104zm5.454-6.35c-.33 0-.6-.27-.6-.6a.6.6 0 0 1 .6-.59c.33 0 .59.27.59.59 0 .33-.26.6-.59.6m-.43 6.35v-5.04h.85V104zm4.967-.6c.62 0 1.13-.3 1.44-.74l.67.51c-.47.63-1.2 1.03-2.12 1.03-1.67 0-2.74-1.25-2.74-2.72s1.07-2.72 2.74-2.72c.91 0 1.65.41 2.12 1.03l-.67.51c-.31-.44-.82-.74-1.45-.74-1.08 0-1.85.85-1.85 1.92 0 1.08.77 1.92 1.86 1.92m3.276.6v-7.5h.85v3.03c.41-.45.93-.77 1.68-.77 1.13 0 1.97.76 1.97 2.19V104h-.85v-3.02c0-.9-.5-1.42-1.29-1.42-.74 0-1.19.43-1.51.95V104zm6.64-6.35c-.33 0-.6-.27-.6-.6a.6.6 0 0 1 .6-.59c.33 0 .59.27.59.59 0 .33-.26.6-.59.6m-.43 6.35v-5.04h.85V104zm7.127-.83c-.47.63-1.22 1.03-2.16 1.03-1.7 0-2.75-1.25-2.75-2.72 0-1.53.98-2.72 2.54-2.72 1.37 0 2.26.96 2.26 2.2 0 .2-.03.39-.06.53h-3.87c.03 1.21.8 1.94 1.88 1.94.65 0 1.2-.3 1.53-.75zm-2.39-3.69c-.83 0-1.41.49-1.59 1.36h3.02c-.03-.74-.54-1.36-1.43-1.36m3.72 4.52v-5.04h.85v.63c.37-.44.83-.73 1.47-.73.16 0 .31.02.43.06v.83c-.15-.04-.3-.06-.5-.06-.66 0-1.09.34-1.4.85V104zm3.435-.69.6-.51c.35.44.77.69 1.28.69.56 0 .88-.34.88-.78 0-1.13-2.52-.73-2.52-2.51 0-.79.67-1.44 1.64-1.44.72 0 1.34.34 1.69.83l-.59.5c-.27-.38-.65-.62-1.09-.62-.54 0-.83.32-.83.71 0 1.13 2.53.77 2.53 2.49-.01.94-.76 1.53-1.7 1.53-.8 0-1.43-.32-1.89-.89m7.239-1.83c0-1.47 1.01-2.72 2.59-2.72.75 0 1.34.29 1.79.8V96.5h.85v7.5h-.85v-.6c-.45.51-1.04.8-1.79.8-1.58 0-2.59-1.25-2.59-2.72m.9 0c0 1.07.72 1.92 1.79 1.92.7 0 1.32-.34 1.69-.93v-1.98c-.39-.6-1-.93-1.69-.93-1.07 0-1.79.85-1.79 1.92m8.422-2.72c1.62 0 2.73 1.25 2.73 2.72s-1.11 2.72-2.73 2.72c-1.63 0-2.73-1.25-2.73-2.72s1.1-2.72 2.73-2.72m.01 4.64c1.05 0 1.82-.88 1.82-1.92 0-1.05-.77-1.92-1.82-1.92-1.08 0-1.85.87-1.85 1.92s.77 1.92 1.85 1.92m6.455 0c.62 0 1.13-.3 1.44-.74l.67.51c-.47.63-1.2 1.03-2.12 1.03-1.67 0-2.74-1.25-2.74-2.72s1.07-2.72 2.74-2.72c.91 0 1.65.41 2.12 1.03l-.67.51c-.31-.44-.82-.74-1.45-.74-1.08 0-1.85.85-1.85 1.92 0 1.08.77 1.92 1.86 1.92m6.786-1.56v-2.88h.85v2.85c0 1.51-.87 2.39-2.24 2.39-1.36 0-2.23-.88-2.23-2.39v-2.85h.85v2.88c0 .99.53 1.56 1.39 1.56.84 0 1.38-.57 1.38-1.56m2.525 2.16v-5.04h.85v.55c.38-.44.88-.75 1.58-.75.73 0 1.33.33 1.64.97.4-.55.93-.97 1.8-.97 1.08 0 1.87.72 1.87 2.09V104h-.85v-3.12c0-.84-.47-1.32-1.19-1.32-.64 0-1.09.36-1.42.95.01.11.02.22.02.34V104h-.85v-3.12c0-.84-.46-1.32-1.19-1.32-.69 0-1.12.43-1.41.95V104zm13.933-.83c-.47.63-1.22 1.03-2.16 1.03-1.7 0-2.75-1.25-2.75-2.72 0-1.53.98-2.72 2.54-2.72 1.37 0 2.26.96 2.26 2.2 0 .2-.03.39-.06.53h-3.87c.03 1.21.8 1.94 1.88 1.94.65 0 1.2-.3 1.53-.75zm-2.39-3.69c-.83 0-1.41.49-1.59 1.36h3.02c-.03-.74-.54-1.36-1.43-1.36m3.721 4.52v-5.04h.85v.57c.41-.45.93-.77 1.68-.77 1.13 0 1.97.76 1.97 2.19V104h-.85v-3.02c0-.9-.51-1.42-1.29-1.42-.73 0-1.19.42-1.51.95V104zm6.501-1.69v-2.58h-.95v-.77h.95V97.7h.86v1.26h1.75v.77h-1.75v2.58c0 .79.4 1.01 1.01 1.01.33 0 .56-.04.75-.12v.76c-.24.1-.51.14-.87.14-1.12 0-1.75-.56-1.75-1.79m6.371-4.15h-.83l1.04-1.66h.96zm1.92 5.01c-.47.63-1.22 1.03-2.16 1.03-1.7 0-2.75-1.25-2.75-2.72 0-1.53.98-2.72 2.54-2.72 1.37 0 2.26.96 2.26 2.2 0 .2-.03.39-.06.53h-3.87c.03 1.21.8 1.94 1.88 1.94.65 0 1.2-.3 1.53-.75zm-2.39-3.69c-.83 0-1.41.49-1.59 1.36h3.02c-.03-.74-.54-1.36-1.43-1.36m3.142 3.83.6-.51c.35.44.77.69 1.28.69.56 0 .88-.34.88-.78 0-1.13-2.52-.73-2.52-2.51 0-.79.67-1.44 1.64-1.44.72 0 1.34.34 1.69.83l-.59.5c-.27-.38-.65-.62-1.09-.62-.54 0-.83.32-.83.71 0 1.13 2.53.77 2.53 2.49-.01.94-.76 1.53-1.7 1.53-.8 0-1.43-.32-1.89-.89"/><path fill="#fff" d="M13 115h324v30H13z"/><path fill="#000" d="m18 131.585 4.596-4.596.707.707L18 133l-3.182-3.182.707-.707z"/><path fill="#161616" d="M30.11 134v-7h.94v6.14h2.82v.86zm5.581-6.35c-.33 0-.6-.27-.6-.6a.6.6 0 0 1 .6-.59c.33 0 .59.27.59.59 0 .33-.26.6-.59.6m-.43 6.35v-5.04h.85V134zm4.967-.6c.62 0 1.13-.3 1.44-.74l.67.51c-.47.63-1.2 1.03-2.12 1.03-1.67 0-2.74-1.25-2.74-2.72s1.07-2.72 2.74-2.72c.91 0 1.65.41 2.12 1.03l-.67.51c-.31-.44-.82-.74-1.45-.74-1.08 0-1.85.85-1.85 1.92 0 1.08.77 1.92 1.86 1.92m7.56-.23c-.47.63-1.22 1.03-2.16 1.03-1.7 0-2.75-1.25-2.75-2.72 0-1.53.98-2.72 2.54-2.72 1.37 0 2.26.96 2.26 2.2 0 .2-.03.39-.06.53h-3.87c.03 1.21.8 1.94 1.88 1.94.65 0 1.2-.3 1.53-.75zm-2.39-3.69c-.83 0-1.41.49-1.59 1.36h3.02c-.03-.74-.54-1.36-1.43-1.36m3.72 4.52v-5.04h.85v.57c.41-.45.93-.77 1.68-.77 1.13 0 1.97.76 1.97 2.19V134h-.85v-3.02c0-.9-.51-1.42-1.29-1.42-.73 0-1.19.42-1.51.95V134zm8.532-.6c.62 0 1.13-.3 1.44-.74l.67.51c-.47.63-1.2 1.03-2.12 1.03-1.67 0-2.74-1.25-2.74-2.72s1.07-2.72 2.74-2.72c.91 0 1.65.41 2.12 1.03l-.67.51c-.31-.44-.82-.74-1.45-.74-1.08 0-1.85.85-1.85 1.92 0 1.08.77 1.92 1.86 1.92m7.56-.23c-.47.63-1.22 1.03-2.16 1.03-1.7 0-2.75-1.25-2.75-2.72 0-1.53.98-2.72 2.54-2.72 1.37 0 2.26.96 2.26 2.2 0 .2-.03.39-.06.53h-3.87c.03 1.21.8 1.94 1.88 1.94.65 0 1.2-.3 1.53-.75zm-2.39-3.69c-.83 0-1.41.49-1.59 1.36h3.02c-.03-.74-.54-1.36-1.43-1.36m6.416 4.52v-5.04h.85v.63c.37-.44.83-.73 1.47-.73.16 0 .31.02.43.06v.83c-.15-.04-.3-.06-.5-.06-.66 0-1.09.34-1.4.85V134zm8.152-.83c-.47.63-1.22 1.03-2.16 1.03-1.7 0-2.75-1.25-2.75-2.72 0-1.53.98-2.72 2.54-2.72 1.37 0 2.26.96 2.26 2.2 0 .2-.03.39-.06.53h-3.87c.03 1.21.8 1.94 1.88 1.94.65 0 1.2-.3 1.53-.75zm-2.39-3.69c-.83 0-1.41.49-1.59 1.36h3.02c-.03-.74-.54-1.36-1.43-1.36m3.72 4.52v-5.04h.85v.57c.41-.45.93-.77 1.68-.77 1.13 0 1.97.76 1.97 2.19V134h-.85v-3.02c0-.9-.51-1.42-1.29-1.42-.73 0-1.19.42-1.51.95V134zm5.671-.69.6-.51c.35.44.77.69 1.28.69.56 0 .88-.34.88-.78 0-1.13-2.52-.73-2.52-2.51 0-.79.67-1.44 1.64-1.44.72 0 1.34.34 1.69.83l-.59.5c-.27-.38-.65-.62-1.09-.62-.54 0-.83.32-.83.71 0 1.13 2.53.77 2.53 2.49-.01.94-.76 1.53-1.7 1.53-.8 0-1.43-.32-1.89-.89m9.395-.14c-.47.63-1.22 1.03-2.16 1.03-1.7 0-2.75-1.25-2.75-2.72 0-1.53.98-2.72 2.54-2.72 1.37 0 2.26.96 2.26 2.2 0 .2-.03.39-.06.53h-3.87c.03 1.21.8 1.94 1.88 1.94.65 0 1.2-.3 1.53-.75zm-2.39-3.69c-.83 0-1.41.49-1.59 1.36h3.02c-.03-.74-.54-1.36-1.43-1.36m4.15-1.83c-.33 0-.6-.27-.6-.6a.6.6 0 0 1 .6-.59c.33 0 .59.27.59.59 0 .33-.26.6-.59.6m-.43 6.35v-5.04h.85V134zm2.067.91c0-.51.25-.92.75-1.27a.91.91 0 0 1-.35-.72c0-.4.21-.73.6-.98-.44-.33-.7-.84-.7-1.4 0-.97.76-1.79 1.96-1.79.37 0 .7.08.97.21h1.87v.74h-1.09c.14.25.21.54.21.84 0 .96-.75 1.78-1.96 1.78-.25 0-.49-.04-.7-.1-.21.15-.33.33-.33.52 0 .21.11.36.42.36h1.44c1.33 0 1.95.65 1.95 1.55 0 1.06-1.06 1.85-2.57 1.85-1.49 0-2.47-.58-2.47-1.59m2.27-3.26c.73 0 1.15-.5 1.15-1.11 0-.62-.42-1.12-1.15-1.12-.75 0-1.16.5-1.16 1.12s.41 1.11 1.16 1.11m-1.44 3.16c0 .61.63.98 1.63.98 1.06 0 1.73-.42 1.73-1.08 0-.48-.27-.86-1.17-.86h-1.63c-.35.26-.56.56-.56.96m5.307-.81v-5.04h.85v.57c.41-.45.93-.77 1.68-.77 1.13 0 1.97.76 1.97 2.19V134h-.85v-3.02c0-.9-.51-1.42-1.29-1.42-.73 0-1.19.42-1.51.95V134zm8.771-5.84h-.83l1.04-1.66h.96zm1.92 5.01c-.47.63-1.22 1.03-2.16 1.03-1.7 0-2.75-1.25-2.75-2.72 0-1.53.98-2.72 2.54-2.72 1.37 0 2.26.96 2.26 2.2 0 .2-.03.39-.06.53h-3.87c.03 1.21.8 1.94 1.88 1.94.65 0 1.2-.3 1.53-.75zm-2.39-3.69c-.83 0-1.41.49-1.59 1.36h3.02c-.03-.74-.54-1.36-1.43-1.36m8.181 3.69c-.47.63-1.22 1.03-2.16 1.03-1.7 0-2.75-1.25-2.75-2.72 0-1.53.98-2.72 2.54-2.72 1.37 0 2.26.96 2.26 2.2 0 .2-.03.39-.06.53h-3.87c.03 1.21.8 1.94 1.88 1.94.65 0 1.2-.3 1.53-.75zm-2.39-3.69c-.83 0-1.41.49-1.59 1.36h3.02c-.03-.74-.54-1.36-1.43-1.36"/><path fill="#fff" d="M13 145h324v30H13z"/><path fill="#b34000" d="m19.433 155.5 4.763 8.25a.5.5 0 0 1-.433.75h-9.526a.5.5 0 0 1-.433-.75l4.763-8.25a.5.5 0 0 1 .866 0m-4.33 8h7.794L19 156.75zM18.5 162h1v1h-1zm0-3.5h1v2.5h-1zM30.11 164v-7h3.76v.8h-2.82v2.24h2.42v.79h-2.42V164zm4.722 0v-5.04h.85v.63c.37-.44.83-.73 1.47-.73.16 0 .31.02.43.06v.83c-.15-.04-.3-.06-.5-.06-.66 0-1.09.34-1.4.85V164zm6.231-5.84h-.83l1.04-1.66h.96zm1.92 5.01c-.47.63-1.22 1.03-2.16 1.03-1.7 0-2.75-1.25-2.75-2.72 0-1.53.98-2.72 2.54-2.72 1.37 0 2.26.96 2.26 2.2 0 .2-.03.39-.06.53h-3.87c.03 1.21.8 1.94 1.88 1.94.65 0 1.2-.3 1.53-.75zm-2.39-3.69c-.83 0-1.41.49-1.59 1.36h3.02c-.03-.74-.54-1.36-1.43-1.36m3.271 2c0-1.47 1.01-2.72 2.59-2.72.75 0 1.34.29 1.79.81v-.61h.85v7.5h-.85v-3.07c-.45.52-1.04.81-1.79.81-1.58 0-2.59-1.25-2.59-2.72m.89 0c0 1.07.73 1.92 1.79 1.92.71 0 1.32-.34 1.7-.94v-1.96c-.39-.61-1-.94-1.7-.94-1.06 0-1.79.85-1.79 1.92m9.652.36v-2.88h.85v2.85c0 1.51-.87 2.39-2.24 2.39-1.36 0-2.23-.88-2.23-2.39v-2.85h.85v2.88c0 .99.53 1.56 1.39 1.56.84 0 1.38-.57 1.38-1.56m7.005 1.33c-.47.63-1.22 1.03-2.16 1.03-1.7 0-2.75-1.25-2.75-2.72 0-1.53.98-2.72 2.54-2.72 1.37 0 2.26.96 2.26 2.2 0 .2-.03.39-.06.53h-3.87c.03 1.21.8 1.94 1.88 1.94.65 0 1.2-.3 1.53-.75zm-2.39-3.69c-.83 0-1.41.49-1.59 1.36h3.02c-.03-.74-.54-1.36-1.43-1.36m3.72 4.52v-5.04h.85v.57c.41-.45.93-.77 1.68-.77 1.13 0 1.97.76 1.97 2.19V164h-.85v-3.02c0-.9-.51-1.42-1.29-1.42-.73 0-1.19.42-1.51.95V164zm8.532-.6c.62 0 1.13-.3 1.44-.74l.67.51c-.47.63-1.2 1.03-2.12 1.03-1.67 0-2.74-1.25-2.74-2.72s1.07-2.72 2.74-2.72c.91 0 1.65.41 2.12 1.03l-.67.51c-.31-.44-.82-.74-1.45-.74-1.08 0-1.85.85-1.85 1.92 0 1.08.77 1.92 1.86 1.92m7.56-.23c-.47.63-1.22 1.03-2.16 1.03-1.7 0-2.75-1.25-2.75-2.72 0-1.53.98-2.72 2.54-2.72 1.37 0 2.26.96 2.26 2.2 0 .2-.03.39-.06.53h-3.87c.03 1.21.8 1.94 1.88 1.94.65 0 1.2-.3 1.53-.75zm-2.39-3.69c-.83 0-1.41.49-1.59 1.36h3.02c-.03-.74-.54-1.36-1.43-1.36m5.986 2c0-1.47 1.01-2.72 2.59-2.72.75 0 1.34.29 1.79.8v-3.06h.85v7.5h-.85v-.6c-.45.51-1.04.8-1.79.8-1.58 0-2.59-1.25-2.59-2.72m.9 0c0 1.07.72 1.92 1.79 1.92.7 0 1.32-.34 1.69-.93v-1.98c-.39-.6-1-.93-1.69-.93-1.07 0-1.79.85-1.79 1.92m10.602 1.69c-.47.63-1.22 1.03-2.16 1.03-1.7 0-2.75-1.25-2.75-2.72 0-1.53.98-2.72 2.54-2.72 1.37 0 2.26.96 2.26 2.2 0 .2-.03.39-.06.53h-3.87c.03 1.21.8 1.94 1.88 1.94.65 0 1.2-.3 1.53-.75zm-2.39-3.69c-.83 0-1.41.49-1.59 1.36h3.02c-.03-.74-.54-1.36-1.43-1.36m6.416 4.52v-5.04h.85v.55c.38-.44.88-.75 1.58-.75.73 0 1.33.33 1.64.97.4-.55.93-.97 1.8-.97 1.08 0 1.87.72 1.87 2.09V164h-.85v-3.12c0-.84-.47-1.32-1.19-1.32-.64 0-1.09.36-1.42.95.01.11.02.22.02.34V164h-.85v-3.12c0-.84-.46-1.32-1.19-1.32-.69 0-1.12.43-1.41.95V164zm9.883-6.35c-.33 0-.6-.27-.6-.6a.6.6 0 0 1 .6-.59c.33 0 .59.27.59.59 0 .33-.26.6-.59.6m-.43 6.35v-5.04h.85V164zm2.067-.69.6-.51c.35.44.77.69 1.28.69.56 0 .88-.34.88-.78 0-1.13-2.52-.73-2.52-2.51 0-.79.67-1.44 1.64-1.44.72 0 1.34.34 1.69.83l-.59.5c-.27-.38-.65-.62-1.09-.62-.54 0-.83.32-.83.71 0 1.13 2.53.77 2.53 2.49-.01.94-.76 1.53-1.7 1.53-.8 0-1.43-.32-1.89-.89m9.395-.14c-.47.63-1.22 1.03-2.16 1.03-1.7 0-2.75-1.25-2.75-2.72 0-1.53.98-2.72 2.54-2.72 1.37 0 2.26.96 2.26 2.2 0 .2-.03.39-.06.53h-3.87c.03 1.21.8 1.94 1.88 1.94.65 0 1.2-.3 1.53-.75zm-2.39-3.69c-.83 0-1.41.49-1.59 1.36h3.02c-.03-.74-.54-1.36-1.43-1.36m7.886-1.32-1.17-1.66h.95l1.04 1.66zm-.1 5.98c-.99 0-1.66-.55-1.66-1.41 0-.76.58-1.3 1.65-1.48l1.7-.28v-.35c0-.7-.5-1.1-1.22-1.1-.58 0-1.05.27-1.36.7l-.64-.49c.44-.6 1.15-.97 2.03-.97 1.28 0 2.04.75 2.04 1.86V164h-.85v-.64c-.38.49-1.04.78-1.69.78m-.8-1.44c0 .43.35.74.94.74.67 0 1.22-.32 1.55-.86v-.99l-1.49.25c-.69.12-1 .43-1 .86m8.161-5.05c-.33 0-.6-.27-.6-.6a.6.6 0 0 1 .6-.59c.32 0 .59.27.59.59a.6.6 0 0 1-.59.6m.43 7.01c0 1.28-.62 1.84-1.75 1.84-.36 0-.63-.04-.86-.14v-.76c.18.08.42.12.75.12.6 0 1.01-.23 1.01-1.06v-5.7h.85zm4.096-5.9c1.62 0 2.73 1.25 2.73 2.72s-1.11 2.72-2.73 2.72c-1.63 0-2.73-1.25-2.73-2.72s1.1-2.72 2.73-2.72m.01 4.64c1.05 0 1.82-.88 1.82-1.92 0-1.05-.77-1.92-1.82-1.92-1.08 0-1.85.87-1.85 1.92s.77 1.92 1.85 1.92m7.597-1.56v-2.88h.85v2.85c0 1.51-.87 2.39-2.24 2.39-1.36 0-2.23-.88-2.23-2.39v-2.85h.85v2.88c0 .99.53 1.56 1.39 1.56.84 0 1.38-.57 1.38-1.56m2.525 2.16v-5.04h.85v.63c.37-.44.83-.73 1.47-.73.16 0 .31.02.43.06v.83c-.15-.04-.3-.06-.5-.06-.66 0-1.09.34-1.4.85V164zm6.67 0v-5.04h.85v.57c.41-.45.93-.77 1.68-.77 1.13 0 1.97.76 1.97 2.19V164h-.85v-3.02c0-.9-.51-1.42-1.29-1.42-.73 0-1.19.42-1.51.95V164zm8.511-5.24c1.62 0 2.73 1.25 2.73 2.72s-1.11 2.72-2.73 2.72c-1.63 0-2.73-1.25-2.73-2.72s1.1-2.72 2.73-2.72m.01 4.64c1.05 0 1.82-.88 1.82-1.92 0-1.05-.77-1.92-1.82-1.92-1.08 0-1.85.87-1.85 1.92s.77 1.92 1.85 1.92m4.086.6v-5.04h.85v.57c.41-.45.93-.77 1.68-.77 1.13 0 1.97.76 1.97 2.19V164h-.85v-3.02c0-.9-.51-1.42-1.29-1.42-.73 0-1.19.42-1.51.95V164zm8.906 0v-5.04h.85v.63c.37-.44.83-.73 1.47-.73.16 0 .31.02.43.06v.83c-.15-.04-.3-.06-.5-.06-.66 0-1.09.34-1.4.85V164zm8.152-.83c-.47.63-1.22 1.03-2.16 1.03-1.7 0-2.75-1.25-2.75-2.72 0-1.53.98-2.72 2.54-2.72 1.37 0 2.26.96 2.26 2.2 0 .2-.03.39-.06.53h-3.87c.03 1.21.8 1.94 1.88 1.94.65 0 1.2-.3 1.53-.75zm-2.39-3.69c-.83 0-1.41.49-1.59 1.36h3.02c-.03-.74-.54-1.36-1.43-1.36m3.721 4.52v-5.04h.85v.57c.41-.45.93-.77 1.68-.77 1.13 0 1.97.76 1.97 2.19V164h-.85v-3.02c0-.9-.51-1.42-1.29-1.42-.73 0-1.19.42-1.51.95V164zm5.671-.69.6-.51c.35.44.77.69 1.28.69.56 0 .88-.34.88-.78 0-1.13-2.52-.73-2.52-2.51 0-.79.67-1.44 1.64-1.44.72 0 1.34.34 1.69.83l-.59.5c-.27-.38-.65-.62-1.09-.62-.54 0-.83.32-.83.71 0 1.13 2.53.77 2.53 2.49-.01.94-.76 1.53-1.7 1.53-.8 0-1.43-.32-1.89-.89m9.395-.14c-.47.63-1.22 1.03-2.16 1.03-1.7 0-2.75-1.25-2.75-2.72 0-1.53.98-2.72 2.54-2.72 1.37 0 2.26.96 2.26 2.2 0 .2-.03.39-.06.53h-3.87c.03 1.21.8 1.94 1.88 1.94.65 0 1.2-.3 1.53-.75zm-2.39-3.69c-.83 0-1.41.49-1.59 1.36h3.02c-.03-.74-.54-1.36-1.43-1.36m4.15-1.83c-.33 0-.6-.27-.6-.6a.6.6 0 0 1 .6-.59c.33 0 .59.27.59.59 0 .33-.26.6-.59.6m-.43 6.35v-5.04h.85V164zm2.067.91c0-.51.25-.92.75-1.27a.91.91 0 0 1-.35-.72c0-.4.21-.73.6-.98-.44-.33-.7-.84-.7-1.4 0-.97.76-1.79 1.96-1.79.37 0 .7.08.97.21h1.87v.74h-1.09c.14.25.21.54.21.84 0 .96-.75 1.78-1.96 1.78-.25 0-.49-.04-.7-.1-.21.15-.33.33-.33.52 0 .21.11.36.42.36h1.44c1.33 0 1.95.65 1.95 1.55 0 1.06-1.06 1.85-2.57 1.85-1.49 0-2.47-.58-2.47-1.59m2.27-3.26c.73 0 1.15-.5 1.15-1.11 0-.62-.42-1.12-1.15-1.12-.75 0-1.16.5-1.16 1.12s.41 1.11 1.16 1.11m-1.44 3.16c0 .61.63.98 1.63.98 1.06 0 1.73-.42 1.73-1.08 0-.48-.27-.86-1.17-.86h-1.63c-.35.26-.56.56-.56.96m5.306-.81v-5.04h.85v.57c.41-.45.93-.77 1.68-.77 1.13 0 1.97.76 1.97 2.19V164h-.85v-3.02c0-.9-.51-1.42-1.29-1.42-.73 0-1.19.42-1.51.95V164zm8.771-5.84h-.83l1.04-1.66h.96zm1.92 5.01c-.47.63-1.22 1.03-2.16 1.03-1.7 0-2.75-1.25-2.75-2.72 0-1.53.98-2.72 2.54-2.72 1.37 0 2.26.96 2.26 2.2 0 .2-.03.39-.06.53h-3.87c.03 1.21.8 1.94 1.88 1.94.65 0 1.2-.3 1.53-.75zm-2.39-3.69c-.83 0-1.41.49-1.59 1.36h3.02c-.03-.74-.54-1.36-1.43-1.36m8.181 3.69c-.47.63-1.22 1.03-2.16 1.03-1.7 0-2.75-1.25-2.75-2.72 0-1.53.98-2.72 2.54-2.72 1.37 0 2.26.96 2.26 2.2 0 .2-.03.39-.06.53h-3.87c.03 1.21.8 1.94 1.88 1.94.65 0 1.2-.3 1.53-.75zm-2.39-3.69c-.83 0-1.41.49-1.59 1.36h3.02c-.03-.74-.54-1.36-1.43-1.36"/><path fill="#fff" d="M13 175h324v30H13z"/><path fill="#b34000" d="m19.433 185.5 4.763 8.25a.5.5 0 0 1-.433.75h-9.526a.5.5 0 0 1-.433-.75l4.763-8.25a.5.5 0 0 1 .866 0m-4.33 8h7.794L19 186.75zM18.5 192h1v1h-1zm0-3.5h1v2.5h-1zM30.11 194v-7h3.76v.8h-2.82v2.24h2.42v.79h-2.42V194zm7.1-5.24c1.62 0 2.73 1.25 2.73 2.72s-1.11 2.72-2.73 2.72c-1.63 0-2.73-1.25-2.73-2.72s1.1-2.72 2.73-2.72m.01 4.64c1.05 0 1.82-.88 1.82-1.92 0-1.05-.77-1.92-1.82-1.92-1.08 0-1.85.87-1.85 1.92s.77 1.92 1.85 1.92m4.086.6v-5.04h.85v.63c.37-.44.83-.73 1.47-.73.16 0 .31.02.43.06v.83c-.15-.04-.3-.06-.5-.06-.66 0-1.09.34-1.4.85V194zm3.975 0v-5.04h.85v.55c.38-.44.88-.75 1.58-.75.73 0 1.33.33 1.64.97.4-.55.93-.97 1.8-.97 1.08 0 1.87.72 1.87 2.09V194h-.85v-3.12c0-.84-.47-1.32-1.19-1.32-.64 0-1.09.36-1.42.95.01.11.02.22.02.34V194h-.85v-3.12c0-.84-.46-1.32-1.19-1.32-.69 0-1.12.43-1.41.95V194zm10.823.14c-.99 0-1.66-.55-1.66-1.41 0-.76.58-1.3 1.65-1.48l1.7-.28v-.35c0-.7-.5-1.1-1.22-1.1-.58 0-1.05.27-1.36.7l-.64-.49c.44-.6 1.15-.97 2.03-.97 1.28 0 2.04.75 2.04 1.86V194h-.85v-.64c-.38.49-1.04.78-1.69.78m-.8-1.44c0 .43.35.74.94.74.67 0 1.22-.32 1.55-.86v-.99l-1.49.25c-.69.12-1 .43-1 .86m5.335-.39v-2.58h-.95v-.77h.95v-1.26h.86v1.26h1.75v.77H61.5v2.58c0 .79.4 1.01 1.01 1.01.33 0 .56-.04.75-.12v.76c-.24.1-.51.14-.87.14-1.12 0-1.75-.56-1.75-1.79m3.37 1 .6-.51c.35.44.77.69 1.28.69.56 0 .88-.34.88-.78 0-1.13-2.52-.73-2.52-2.51 0-.79.67-1.44 1.64-1.44.72 0 1.34.34 1.69.83l-.59.5c-.27-.38-.65-.62-1.09-.62-.54 0-.83.32-.83.71 0 1.13 2.53.77 2.53 2.49-.01.94-.76 1.53-1.7 1.53-.8 0-1.43-.32-1.89-.89m7.238-1.83c0-1.47 1.01-2.72 2.59-2.72.75 0 1.34.29 1.79.8v-3.06h.85v7.5h-.85v-.6c-.45.51-1.04.8-1.79.8-1.58 0-2.59-1.25-2.59-2.72m.9 0c0 1.07.72 1.92 1.79 1.92.7 0 1.32-.34 1.69-.93v-1.98c-.39-.6-1-.93-1.69-.93-1.07 0-1.79.85-1.79 1.92m10.602 1.69c-.47.63-1.22 1.03-2.16 1.03-1.7 0-2.75-1.25-2.75-2.72 0-1.53.98-2.72 2.54-2.72 1.37 0 2.26.96 2.26 2.2 0 .2-.03.39-.06.53h-3.87c.03 1.21.8 1.94 1.88 1.94.65 0 1.2-.3 1.53-.75zm-2.39-3.69c-.83 0-1.41.49-1.59 1.36h3.02c-.03-.74-.54-1.36-1.43-1.36m5.756-.52h.95v-.62c0-1.07.69-1.84 1.79-1.84.46 0 .83.13 1.11.29l-.38.71a1.16 1.16 0 0 0-.71-.23c-.57 0-.95.39-.95 1.05v.64h1.75v.77h-1.75V194h-.86v-4.27h-.95zm5.026-1.31c-.33 0-.6-.27-.6-.6a.6.6 0 0 1 .6-.59c.33 0 .59.27.59.59 0 .33-.26.6-.59.6m-.43 6.35v-5.04h.85V194zm4.966-.6c.62 0 1.13-.3 1.44-.74l.67.51c-.47.63-1.2 1.03-2.12 1.03-1.67 0-2.74-1.25-2.74-2.72s1.07-2.72 2.74-2.72c.91 0 1.65.41 2.12 1.03l-.67.51c-.31-.44-.82-.74-1.45-.74-1.08 0-1.85.85-1.85 1.92 0 1.08.77 1.92 1.86 1.92m3.276.6v-7.5h.85v3.03c.41-.45.93-.77 1.68-.77 1.13 0 1.97.76 1.97 2.19V194h-.85v-3.02c0-.9-.5-1.42-1.29-1.42-.74 0-1.19.43-1.51.95V194zm6.641-6.35c-.33 0-.6-.27-.6-.6a.6.6 0 0 1 .6-.59c.33 0 .59.27.59.59 0 .33-.26.6-.59.6m-.43 6.35v-5.04h.85V194zm7.126-.83c-.47.63-1.22 1.03-2.16 1.03-1.7 0-2.75-1.25-2.75-2.72 0-1.53.98-2.72 2.54-2.72 1.37 0 2.26.96 2.26 2.2 0 .2-.03.39-.06.53h-3.87c.03 1.21.8 1.94 1.88 1.94.65 0 1.2-.3 1.53-.75zm-2.39-3.69c-.83 0-1.41.49-1.59 1.36h3.02c-.03-.74-.54-1.36-1.43-1.36m3.721 4.52v-5.04h.85v.63c.37-.44.83-.73 1.47-.73.16 0 .31.02.43.06v.83c-.15-.04-.3-.06-.5-.06-.66 0-1.09.34-1.4.85V194zm3.434-.69.6-.51c.35.44.77.69 1.28.69.56 0 .88-.34.88-.78 0-1.13-2.52-.73-2.52-2.51 0-.79.67-1.44 1.64-1.44.72 0 1.34.34 1.69.83l-.59.5c-.27-.38-.65-.62-1.09-.62-.54 0-.83.32-.83.71 0 1.13 2.53.77 2.53 2.49-.01.94-.76 1.53-1.7 1.53-.8 0-1.43-.32-1.89-.89m7.669.69v-5.04h.85v.57c.41-.45.93-.77 1.68-.77 1.13 0 1.97.76 1.97 2.19V194h-.85v-3.02c0-.9-.51-1.42-1.29-1.42-.73 0-1.19.42-1.51.95V194zm8.511-5.24c1.62 0 2.73 1.25 2.73 2.72s-1.11 2.72-2.73 2.72c-1.63 0-2.73-1.25-2.73-2.72s1.1-2.72 2.73-2.72m.01 4.64c1.05 0 1.82-.88 1.82-1.92 0-1.05-.77-1.92-1.82-1.92-1.08 0-1.85.87-1.85 1.92s.77 1.92 1.85 1.92m4.087.6v-5.04h.85v.57c.41-.45.93-.77 1.68-.77 1.13 0 1.97.76 1.97 2.19V194h-.85v-3.02c0-.9-.51-1.42-1.29-1.42-.73 0-1.19.42-1.51.95V194zm8.366-.69.6-.51c.35.44.77.69 1.28.69.56 0 .88-.34.88-.78 0-1.13-2.52-.73-2.52-2.51 0-.79.67-1.44 1.64-1.44.72 0 1.34.34 1.69.83l-.59.5c-.27-.38-.65-.62-1.09-.62-.54 0-.83.32-.83.71 0 1.13 2.53.77 2.53 2.49-.01.94-.76 1.53-1.7 1.53-.8 0-1.43-.32-1.89-.89m5.303-1v-2.58h-.95v-.77h.95v-1.26h.86v1.26h1.75v.77h-1.75v2.58c0 .79.4 1.01 1.01 1.01.33 0 .56-.04.75-.12v.76c-.24.1-.51.14-.87.14-1.12 0-1.75-.56-1.75-1.79m5.279 1.83c-.99 0-1.66-.55-1.66-1.41 0-.76.58-1.3 1.65-1.48l1.7-.28v-.35c0-.7-.5-1.1-1.22-1.1-.58 0-1.05.27-1.36.7l-.64-.49c.44-.6 1.15-.97 2.03-.97 1.28 0 2.04.75 2.04 1.86V194h-.85v-.64c-.38.49-1.04.78-1.69.78m-.8-1.44c0 .43.35.74.94.74.67 0 1.22-.32 1.55-.86v-.99l-1.49.25c-.69.12-1 .43-1 .86m5.045 1.3v-5.04h.85v.57c.41-.45.93-.77 1.68-.77 1.13 0 1.97.76 1.97 2.19V194h-.85v-3.02c0-.9-.51-1.42-1.29-1.42-.73 0-1.19.42-1.51.95V194zm5.781-2.52c0-1.47 1.01-2.72 2.59-2.72.75 0 1.34.29 1.79.8v-3.06h.85v7.5h-.85v-.6c-.45.51-1.04.8-1.79.8-1.58 0-2.59-1.25-2.59-2.72m.9 0c0 1.07.72 1.92 1.79 1.92.7 0 1.32-.34 1.69-.93v-1.98c-.39-.6-1-.93-1.69-.93-1.07 0-1.79.85-1.79 1.92m7.492 2.66c-.99 0-1.66-.55-1.66-1.41 0-.76.58-1.3 1.65-1.48l1.7-.28v-.35c0-.7-.5-1.1-1.22-1.1-.58 0-1.05.27-1.36.7l-.64-.49c.44-.6 1.15-.97 2.03-.97 1.28 0 2.04.75 2.04 1.86V194h-.85v-.64c-.38.49-1.04.78-1.69.78m-.8-1.44c0 .43.35.74.94.74.67 0 1.22-.32 1.55-.86v-.99l-1.49.25c-.69.12-1 .43-1 .86m5.045 1.3v-5.04h.85v.63c.37-.44.83-.73 1.47-.73.16 0 .31.02.43.06v.83c-.15-.04-.3-.06-.5-.06-.66 0-1.09.34-1.4.85V194zm3.242-2.52c0-1.47 1.01-2.72 2.59-2.72.75 0 1.34.29 1.79.8v-3.06h.85v7.5h-.85v-.6c-.45.51-1.04.8-1.79.8-1.58 0-2.59-1.25-2.59-2.72m.9 0c0 1.07.72 1.92 1.79 1.92.7 0 1.32-.34 1.69-.93v-1.98c-.39-.6-1-.93-1.69-.93-1.07 0-1.79.85-1.79 1.92m5.543 1.83.6-.51c.35.44.77.69 1.28.69.56 0 .88-.34.88-.78 0-1.13-2.52-.73-2.52-2.51 0-.79.67-1.44 1.64-1.44.72 0 1.34.34 1.69.83l-.59.5c-.27-.38-.65-.62-1.09-.62-.54 0-.83.32-.83.71 0 1.13 2.53.77 2.53 2.49-.01.94-.76 1.53-1.7 1.53-.8 0-1.43-.32-1.89-.89"/></g></g></g><defs><clipPath id="b"><path fill="#fff" d="M1 11C1 5.477 5.477 1 11 1h338v210H1z"/></clipPath><clipPath id="c"><rect width="324" height="150" x="13" y="55" fill="#fff" rx="2"/></clipPath><filter id="a" width="350" height="212" x="0" y="0" color-interpolation-filters="sRGB" filterUnits="userSpaceOnUse"><feFlood flood-opacity="0" result="BackgroundImageFix"/><feColorMatrix in="SourceAlpha" result="hardAlpha" values="0 0 0 0 0 0 0 0 0 0 0 0 0 0 0 0 0 0 127 0"/><feMorphology in="SourceAlpha" operator="dilate" radius="1" result="effect1_dropShadow_2656_9058"/><feOffset/><feComposite in2="hardAlpha" operator="out"/><feColorMatrix values="0 0 0 0 0.149038 0 0 0 0 0.145083 0 0 0 0 0.11763 0 0 0 0.1 0"/><feBlend in2="BackgroundImageFix" result="effect1_dropShadow_2656_9058"/><feBlend in="SourceGraphic" in2="effect1_dropShadow_2656_9058" result="shape"/></filter></defs></svg>