<svg width="350" height="212" viewBox="0 0 350 212" fill="none" xmlns="http://www.w3.org/2000/svg">
<g filter="url(#filter0_d_2656_9030)">
<path d="M1 11C1 5.47715 5.47715 1 11 1H349V211H1V11Z" fill="white"/>
<path d="M33.8466 30.6H35.6586L38.1426 37.164L40.6266 30.6H42.4386L39.2586 39H37.0266L33.8466 30.6ZM44.2998 31.896C43.7598 31.896 43.3038 31.44 43.3038 30.9C43.3038 30.36 43.7598 29.904 44.2998 29.904C44.8398 29.904 45.2838 30.36 45.2838 30.9C45.2838 31.44 44.8398 31.896 44.2998 31.896ZM43.5318 39V32.952H45.0558V39H43.5318ZM46.2733 38.124L47.2813 37.212C47.6533 37.68 48.0973 38.016 48.6733 38.016C49.1653 38.016 49.4173 37.728 49.4173 37.368C49.4173 36.312 46.5253 36.708 46.5253 34.584C46.5253 33.516 47.4253 32.712 48.6853 32.712C49.6093 32.712 50.4493 33.156 50.8813 33.744L49.8733 34.632C49.5613 34.248 49.1653 33.936 48.6973 33.936C48.2173 33.936 47.9893 34.2 47.9893 34.512C47.9893 35.544 50.8813 35.184 50.8813 37.272C50.8573 38.544 49.8373 39.24 48.6973 39.24C47.6173 39.24 46.8493 38.808 46.2733 38.124ZM53.0537 31.896C52.5137 31.896 52.0577 31.44 52.0577 30.9C52.0577 30.36 52.5137 29.904 53.0537 29.904C53.5937 29.904 54.0377 30.36 54.0377 30.9C54.0377 31.44 53.5937 31.896 53.0537 31.896ZM52.2857 39V32.952H53.8097V39H52.2857ZM56.0212 36.792V34.32H54.8932V32.952H56.0212V31.44H57.5572V32.952H59.4052V34.32H57.5572V36.792C57.5572 37.464 57.9172 37.728 58.5172 37.728C58.9372 37.728 59.2132 37.68 59.4172 37.596V38.928C59.1172 39.06 58.7572 39.12 58.2532 39.12C56.7412 39.12 56.0212 38.268 56.0212 36.792ZM66.2208 38.016C65.6568 38.772 64.7208 39.24 63.5808 39.24C61.4328 39.24 60.2208 37.74 60.2208 35.976C60.2208 34.188 61.3488 32.712 63.3288 32.712C65.0088 32.712 66.1128 33.852 66.1128 35.436C66.1128 35.772 66.0648 36.084 66.0168 36.288H61.7808C61.9248 37.416 62.6208 37.872 63.5688 37.872C64.2288 37.872 64.8048 37.584 65.1288 37.152L66.2208 38.016ZM63.2928 33.96C62.5128 33.96 61.9968 34.392 61.8288 35.184H64.6128C64.5888 34.572 64.1448 33.96 63.2928 33.96ZM66.992 38.124L68 37.212C68.372 37.68 68.816 38.016 69.392 38.016C69.884 38.016 70.136 37.728 70.136 37.368C70.136 36.312 67.244 36.708 67.244 34.584C67.244 33.516 68.144 32.712 69.404 32.712C70.328 32.712 71.168 33.156 71.6 33.744L70.592 34.632C70.28 34.248 69.884 33.936 69.416 33.936C68.936 33.936 68.708 34.2 68.708 34.512C68.708 35.544 71.6 35.184 71.6 37.272C71.576 38.544 70.556 39.24 69.416 39.24C68.336 39.24 67.568 38.808 66.992 38.124Z" fill="#161616"/>
<path d="M43.9722 53.112C47.7114 53.112 50.0522 54.8448 51.3898 56.4864L47.4682 59.7696C46.465 58.6144 45.401 57.7328 43.9114 57.7328C41.4794 57.7328 40.0506 59.2528 39.7162 62.536C40.9626 61.5936 42.4826 61.0768 44.3674 61.0768C48.745 61.0768 51.3898 64.1168 51.3898 68.0992C51.3898 72.2032 48.3802 75.608 43.3034 75.608C37.3754 75.608 34.3658 71.1696 34.3658 64.2688C34.3658 57.824 37.1018 53.112 43.9722 53.112ZM43.3338 65.6064C41.9354 65.6064 40.7194 66.1536 39.8378 67.248C40.2634 69.9232 41.4186 70.9872 43.2122 70.9872C44.9754 70.9872 46.1306 69.8928 46.1306 68.2816C46.1306 66.6704 45.0362 65.6064 43.3338 65.6064ZM53.4452 75V70.3792L60.7716 63.3568C61.8052 62.384 62.778 61.2592 62.778 59.8912C62.778 58.4928 61.8356 57.672 60.5284 57.672C58.6436 57.672 57.5796 58.9792 56.5156 60.7424L52.3812 58.1888C54.2356 55.1488 57.0324 53.112 61.0452 53.112C64.906 53.112 67.9764 55.544 67.9764 59.344C67.9764 62.2624 66.0308 64.5424 64.298 66.1536L59.7684 70.3792H68.5236V75H53.4452ZM77.9357 75.608C74.1965 75.608 71.8557 73.8752 70.5181 72.2336L74.4397 68.9504C75.4429 70.1056 76.5373 70.9872 77.9965 70.9872C80.4285 70.9872 81.8573 69.4672 82.1917 66.184C80.9453 67.1264 79.4253 67.6432 77.5405 67.6432C73.1629 67.6432 70.5181 64.6032 70.5181 60.6208C70.5181 56.5168 73.5277 53.112 78.6045 53.112C84.5325 53.112 87.5421 57.5504 87.5421 64.4512C87.5421 70.896 84.8061 75.608 77.9357 75.608ZM75.7773 60.4384C75.7773 62.0496 76.8717 63.1136 78.5741 63.1136C79.9725 63.1136 81.1885 62.5664 82.0701 61.472C81.6445 58.7968 80.4893 57.7328 78.6957 57.7328C76.9325 57.7328 75.7773 58.8272 75.7773 60.4384ZM90.4182 75V52.2H95.2822V64.4816L99.7206 59.6784H105.709L99.4774 66.2448L105.527 75H99.6294L96.103 69.832L95.2822 70.6832V75H90.4182Z" fill="#161616"/>
<g clip-path="url(#clip0_2656_9030)">
<path d="M114.567 69.9002L119.766 65.6461C120.613 64.9528 121.796 64.8398 122.759 65.36L127.179 67.7467C128.089 68.2382 129.2 68.1666 130.039 67.5622L135.013 63.9813C135.735 63.4612 136.667 63.3305 137.505 63.632L143.453 65.7736C143.595 65.8247 143.741 65.8638 143.89 65.8905L150.169 67.0206C150.812 67.1364 151.476 67.0148 152.036 66.6785L158.44 62.836C158.591 62.7457 158.75 62.6703 158.915 62.6108L165.713 60.1634C166.013 60.0554 166.292 59.8953 166.535 59.6904L171.81 55.26C172.866 54.3728 174.421 54.4244 175.416 55.3797L180.947 60.6894C181.093 60.8295 181.254 60.9527 181.428 61.0568L187.42 64.6521C188.198 65.1191 189.159 65.1638 189.977 64.771L194.82 62.4467C195.658 62.0444 196.644 62.1016 197.43 62.598L201.867 65.4002" stroke="#3558A2" stroke-width="1.8" stroke-linecap="round"/>
</g>
<g clip-path="url(#clip1_2656_9030)">
<path d="M115.089 77.8999V74.2459L113.979 74.8459L113.703 74.4619L115.083 73.6999H115.623V77.8999H115.089ZM117.755 77.8999V74.2459L116.645 74.8459L116.369 74.4619L117.749 73.6999H118.289V77.8999H117.755ZM119.188 79.0819L120.64 73.3999H121.156L119.704 79.0819H119.188ZM121.657 77.8999V77.4139L123.079 75.9499C123.571 75.4339 123.793 75.1999 123.793 74.7559C123.793 74.3179 123.475 74.0659 123.049 74.0659C122.605 74.0659 122.317 74.2879 122.071 74.6959L121.627 74.4259C121.969 73.8919 122.437 73.5799 123.091 73.5799C123.793 73.5799 124.351 74.0359 124.351 74.7199C124.351 75.2899 123.979 75.7159 123.475 76.2439L122.323 77.4139H124.465V77.8999H121.657ZM124.787 76.6879V76.2019L126.761 73.6999H127.415V76.2019H127.901V76.6879H127.415V77.8999H126.875V76.6879H124.787ZM125.363 76.2019H126.875V74.2879L125.363 76.2019Z" fill="#929292"/>
<path d="M135.108 76.1412C135.02 76.2291 135.02 76.3715 135.108 76.4594L136.54 77.8913C136.627 77.9792 136.77 77.9792 136.858 77.8913C136.946 77.8034 136.946 77.661 136.858 77.5731L135.585 76.3003L136.858 75.0275C136.946 74.9396 136.946 74.7972 136.858 74.7093C136.77 74.6214 136.627 74.6214 136.54 74.7093L135.108 76.1412ZM181.326 76.4594C181.414 76.3715 181.414 76.2291 181.326 76.1412L179.894 74.7093C179.806 74.6214 179.664 74.6214 179.576 74.7093C179.488 74.7972 179.488 74.9396 179.576 75.0275L180.849 76.3003L179.576 77.5731C179.488 77.6609 179.488 77.8034 179.576 77.8913C179.664 77.9791 179.806 77.9791 179.894 77.8913L181.326 76.4594ZM135.267 76.3003L135.267 76.5253L181.167 76.5253L181.167 76.3003L181.167 76.0753L135.267 76.0753L135.267 76.3003Z" fill="#E5E5E5"/>
<path d="M187.089 77.8999V74.2459L185.979 74.8459L185.703 74.4619L187.083 73.6999H187.623V77.8999H187.089ZM189.755 77.8999V74.2459L188.645 74.8459L188.369 74.4619L189.749 73.6999H190.289V77.8999H189.755ZM191.188 79.0819L192.64 73.3999H193.156L191.704 79.0819H191.188ZM193.657 77.8999V77.4139L195.079 75.9499C195.571 75.4339 195.793 75.1999 195.793 74.7559C195.793 74.3179 195.475 74.0659 195.049 74.0659C194.605 74.0659 194.317 74.2879 194.071 74.6959L193.627 74.4259C193.969 73.8919 194.437 73.5799 195.091 73.5799C195.793 73.5799 196.351 74.0359 196.351 74.7199C196.351 75.2899 195.979 75.7159 195.475 76.2439L194.323 77.4139H196.465V77.8999H193.657ZM197.376 75.9079L197.502 73.6999H199.812V74.1859H198.018L197.946 75.4159H198.552C199.542 75.4159 200.01 75.9559 200.01 76.6999C200.01 77.5039 199.386 78.0199 198.546 78.0199C197.826 78.0199 197.34 77.7259 197.004 77.1679L197.478 76.8739C197.736 77.3419 198.084 77.5339 198.54 77.5339C199.068 77.5339 199.458 77.2279 199.458 76.7179C199.458 76.2319 199.116 75.9079 198.528 75.9079H197.376Z" fill="#929292"/>
</g>
<rect x="33.6666" y="83" width="130" height="18" rx="4" fill="#E8EDFF"/>
<path d="M43.1766 94.02H41.2066V96H40.1266V94.02H38.1466V92.94H40.1266V90.96H41.2066V92.94H43.1766V94.02ZM49.718 88.8C50.888 88.8 51.618 89.33 52.078 89.94L51.038 90.8C50.678 90.32 50.268 90.02 49.718 90.02C48.708 90.02 48.168 90.75 48.078 92.12C48.528 91.73 49.098 91.51 49.788 91.51C51.178 91.51 52.058 92.5 52.058 93.78C52.058 95.1 51.108 96.2 49.508 96.2C47.688 96.2 46.678 94.87 46.678 92.53C46.678 90.35 47.578 88.8 49.718 88.8ZM49.538 92.71C48.968 92.71 48.478 92.93 48.118 93.4C48.278 94.54 48.768 94.98 49.478 94.98C50.218 94.98 50.668 94.49 50.668 93.83C50.668 93.18 50.208 92.71 49.538 92.71ZM52.8853 96V94.78L55.2853 92.42C55.8253 91.87 56.1653 91.49 56.1653 90.92C56.1653 90.34 55.7653 90 55.2153 90C54.5453 90 54.1353 90.41 53.7653 91.03L52.6653 90.36C53.2553 89.4 54.1253 88.8 55.3453 88.8C56.5653 88.8 57.5453 89.58 57.5453 90.78C57.5453 91.74 56.9153 92.48 56.2253 93.15L54.5353 94.78H57.7253V96H52.8853ZM59.0814 96V88.5H60.3614V92.89L62.2114 90.96H63.8014L61.7314 93.1L63.7914 96H62.2314L60.8314 94.02L60.3614 94.5V96H59.0814ZM71.9631 95.18C71.4931 95.81 70.7131 96.2 69.7631 96.2C67.9731 96.2 66.9631 94.95 66.9631 93.48C66.9631 91.99 67.9031 90.76 69.5531 90.76C70.9531 90.76 71.8731 91.71 71.8731 93.03C71.8731 93.31 71.8331 93.57 71.7931 93.74H68.2631C68.3831 94.68 68.9631 95.06 69.7531 95.06C70.3031 95.06 70.7831 94.82 71.0531 94.46L71.9631 95.18ZM69.5231 91.8C68.8731 91.8 68.4431 92.16 68.3031 92.82H70.6231C70.6031 92.31 70.2331 91.8 69.5231 91.8ZM73.1141 96V90.96H74.3841V91.36C74.7341 91.02 75.2041 90.76 75.8741 90.76C76.9641 90.76 77.8341 91.51 77.8341 93V96H76.5541V93.05C76.5541 92.38 76.1741 91.96 75.5541 91.96C74.9141 91.96 74.5741 92.39 74.3841 92.71V96H73.1141ZM82.2415 96V89H84.0615L87.1915 94.06V89H88.6115V96H86.7915L83.6615 90.94V96H82.2415ZM92.7309 90.76C94.3709 90.76 95.4909 91.97 95.4909 93.48C95.4909 94.99 94.3709 96.2 92.7309 96.2C91.0909 96.2 89.9709 94.99 89.9709 93.48C89.9709 91.97 91.0909 90.76 92.7309 90.76ZM92.7509 95C93.5609 95 94.1709 94.35 94.1709 93.48C94.1709 92.6 93.5609 91.96 92.7509 91.96C91.9109 91.96 91.2909 92.6 91.2909 93.48C91.2909 94.36 91.9109 95 92.7509 95ZM95.8707 90.96H97.2307L98.5407 94.56L99.8407 90.96H101.211L99.3707 96H97.7007L95.8707 90.96ZM106.592 95.18C106.122 95.81 105.342 96.2 104.392 96.2C102.602 96.2 101.592 94.95 101.592 93.48C101.592 91.99 102.532 90.76 104.182 90.76C105.582 90.76 106.502 91.71 106.502 93.03C106.502 93.31 106.462 93.57 106.422 93.74H102.892C103.012 94.68 103.592 95.06 104.382 95.06C104.932 95.06 105.412 94.82 105.682 94.46L106.592 95.18ZM104.152 91.8C103.502 91.8 103.072 92.16 102.932 92.82H105.252C105.232 92.31 104.862 91.8 104.152 91.8ZM107.743 96V90.96H109.013V91.34C109.353 91.01 109.783 90.76 110.403 90.76C111.043 90.76 111.603 91.04 111.933 91.58C112.293 91.14 112.773 90.76 113.623 90.76C114.663 90.76 115.483 91.48 115.483 92.9V96H114.203V92.95C114.203 92.34 113.873 91.96 113.303 91.96C112.753 91.96 112.453 92.34 112.253 92.68C112.263 92.75 112.263 92.82 112.263 92.9V96H110.983V92.95C110.983 92.34 110.653 91.96 110.083 91.96C109.503 91.96 109.203 92.39 109.013 92.71V96H107.743ZM122.332 93.48C122.332 94.95 121.372 96.2 119.772 96.2C119.082 96.2 118.592 95.98 118.202 95.59V96H116.932V88.5H118.202V91.37C118.592 90.98 119.082 90.76 119.772 90.76C121.372 90.76 122.332 92.01 122.332 93.48ZM119.592 91.96C119.002 91.96 118.512 92.22 118.202 92.68V94.28C118.542 94.75 119.022 95 119.592 95C120.452 95 121.012 94.36 121.012 93.48C121.012 92.6 120.452 91.96 119.592 91.96ZM123.495 96V90.96H124.765V91.46C125.095 91.12 125.525 90.86 126.095 90.86C126.265 90.86 126.415 90.89 126.535 90.93V92.18C126.375 92.14 126.205 92.11 125.975 92.11C125.355 92.11 124.955 92.45 124.765 92.77V96H123.495ZM131.983 95.18C131.513 95.81 130.733 96.2 129.783 96.2C127.993 96.2 126.983 94.95 126.983 93.48C126.983 91.99 127.923 90.76 129.573 90.76C130.973 90.76 131.893 91.71 131.893 93.03C131.893 93.31 131.853 93.57 131.813 93.74H128.283C128.403 94.68 128.983 95.06 129.773 95.06C130.323 95.06 130.803 94.82 131.073 94.46L131.983 95.18ZM129.543 91.8C128.893 91.8 128.463 92.16 128.323 92.82H130.643C130.623 92.31 130.253 91.8 129.543 91.8ZM135.649 96V94.78L138.049 92.42C138.589 91.87 138.929 91.49 138.929 90.92C138.929 90.34 138.529 90 137.979 90C137.309 90 136.899 90.41 136.529 91.03L135.429 90.36C136.019 89.4 136.889 88.8 138.109 88.8C139.329 88.8 140.309 89.58 140.309 90.78C140.309 91.74 139.679 92.48 138.989 93.15L137.299 94.78H140.489V96H135.649ZM144.065 88.8C145.905 88.8 146.765 90.4 146.765 92.5C146.765 94.6 145.905 96.2 144.065 96.2C142.225 96.2 141.365 94.6 141.365 92.5C141.365 90.4 142.225 88.8 144.065 88.8ZM144.065 90.05C143.175 90.05 142.745 91.03 142.745 92.5C142.745 93.98 143.175 94.95 144.065 94.95C144.945 94.95 145.375 93.97 145.375 92.5C145.375 91.02 144.945 90.05 144.065 90.05ZM147.622 96V94.78L150.022 92.42C150.562 91.87 150.902 91.49 150.902 90.92C150.902 90.34 150.502 90 149.952 90C149.282 90 148.872 90.41 148.502 91.03L147.402 90.36C147.992 89.4 148.862 88.8 150.082 88.8C151.302 88.8 152.282 89.58 152.282 90.78C152.282 91.74 151.652 92.48 150.962 93.15L149.272 94.78H152.462V96H147.622ZM153.879 92.9L154.089 89H158.259V90.22H155.379L155.299 91.68H155.839C157.699 91.68 158.519 92.53 158.519 93.89C158.519 95.32 157.399 96.2 155.959 96.2C154.659 96.2 153.799 95.63 153.219 94.62L154.399 93.89C154.799 94.66 155.279 95 155.959 95C156.649 95 157.139 94.59 157.139 93.94C157.139 93.28 156.649 92.9 155.779 92.9H153.879Z" fill="#0063CB"/>
<path d="M114.039 127.148V125.6H120.927V127.148H118.335V134H116.631V127.148H114.039ZM124.868 126.992H123.404L124.652 125H126.308L124.868 126.992ZM126.92 133.016C126.356 133.772 125.42 134.24 124.28 134.24C122.132 134.24 120.92 132.74 120.92 130.976C120.92 129.188 122.048 127.712 124.028 127.712C125.708 127.712 126.812 128.852 126.812 130.436C126.812 130.772 126.764 131.084 126.716 131.288H122.48C122.624 132.416 123.32 132.872 124.268 132.872C124.928 132.872 125.504 132.584 125.828 132.152L126.92 133.016ZM123.992 128.96C123.212 128.96 122.696 129.392 122.528 130.184H125.312C125.288 129.572 124.844 128.96 123.992 128.96ZM128.301 134V125H129.825V134H128.301ZM135.169 126.992H133.705L134.953 125H136.609L135.169 126.992ZM137.221 133.016C136.657 133.772 135.721 134.24 134.581 134.24C132.433 134.24 131.221 132.74 131.221 130.976C131.221 129.188 132.349 127.712 134.329 127.712C136.009 127.712 137.113 128.852 137.113 130.436C137.113 130.772 137.065 131.084 137.017 131.288H132.781C132.925 132.416 133.621 132.872 134.569 132.872C135.229 132.872 135.805 132.584 136.129 132.152L137.221 133.016ZM134.293 128.96C133.513 128.96 132.997 129.392 132.829 130.184H135.613C135.589 129.572 135.145 128.96 134.293 128.96ZM141.459 132.8C142.059 132.8 142.539 132.524 142.827 132.104L144.015 133.016C143.451 133.76 142.563 134.24 141.459 134.24C139.371 134.24 138.123 132.74 138.123 130.976C138.123 129.212 139.371 127.712 141.459 127.712C142.563 127.712 143.451 128.192 144.015 128.936L142.827 129.848C142.539 129.428 142.059 129.152 141.435 129.152C140.439 129.152 139.707 129.92 139.707 130.976C139.707 132.044 140.439 132.8 141.459 132.8ZM145.153 134V125H146.677V128.432C147.097 128.024 147.661 127.712 148.465 127.712C149.773 127.712 150.817 128.612 150.817 130.4V134H149.281V130.46C149.281 129.656 148.837 129.152 148.081 129.152C147.313 129.152 146.905 129.668 146.677 130.052V134H145.153ZM154.251 134.18C153.039 134.18 152.211 133.484 152.211 132.368C152.211 131.456 152.919 130.772 154.215 130.556L156.063 130.244V130.088C156.063 129.452 155.583 129.044 154.887 129.044C154.299 129.044 153.843 129.32 153.519 129.764L152.403 128.912C152.943 128.168 153.831 127.712 154.935 127.712C156.687 127.712 157.587 128.756 157.587 130.088V134H156.063V133.412C155.679 133.88 154.959 134.18 154.251 134.18ZM153.723 132.296C153.723 132.704 154.047 132.968 154.563 132.968C155.259 132.968 155.763 132.644 156.063 132.164V131.312L154.623 131.552C153.987 131.66 153.723 131.924 153.723 132.296ZM159.333 134V127.952H160.857V128.552C161.253 128.144 161.769 127.832 162.453 127.832C162.657 127.832 162.837 127.868 162.981 127.916V129.416C162.789 129.368 162.585 129.332 162.309 129.332C161.565 129.332 161.085 129.74 160.857 130.124V134H159.333ZM163.49 135.056C163.49 134.456 163.79 133.976 164.33 133.58C164.09 133.34 163.958 133.016 163.958 132.704C163.958 132.224 164.162 131.84 164.618 131.504C164.09 131.108 163.802 130.508 163.802 129.836C163.802 128.66 164.714 127.712 166.226 127.712C166.694 127.712 167.102 127.796 167.45 127.952H169.658V129.248H168.59C168.65 129.44 168.674 129.632 168.674 129.836C168.674 131.024 167.786 131.984 166.226 131.984C166.022 131.984 165.83 131.972 165.65 131.936C165.518 132.056 165.446 132.188 165.446 132.32C165.446 132.56 165.578 132.68 165.854 132.68H167.378C168.902 132.68 169.73 133.496 169.73 134.624C169.73 135.968 168.446 137 166.562 137C164.63 137 163.49 136.328 163.49 135.056ZM166.25 130.832C166.886 130.832 167.294 130.436 167.294 129.836C167.294 129.236 166.886 128.852 166.25 128.852C165.59 128.852 165.194 129.248 165.194 129.836C165.194 130.436 165.59 130.832 166.25 130.832ZM164.93 134.84C164.93 135.416 165.482 135.776 166.55 135.776C167.654 135.776 168.218 135.368 168.218 134.768C168.218 134.312 167.942 133.988 167.21 133.988H165.338C165.11 134.204 164.93 134.468 164.93 134.84ZM176.057 133.016C175.493 133.772 174.557 134.24 173.417 134.24C171.269 134.24 170.057 132.74 170.057 130.976C170.057 129.188 171.185 127.712 173.165 127.712C174.845 127.712 175.949 128.852 175.949 130.436C175.949 130.772 175.901 131.084 175.853 131.288H171.617C171.761 132.416 172.457 132.872 173.405 132.872C174.065 132.872 174.641 132.584 174.965 132.152L176.057 133.016ZM173.129 128.96C172.349 128.96 171.833 129.392 171.665 130.184H174.449C174.425 129.572 173.981 128.96 173.129 128.96ZM177.438 134V127.952H178.962V128.408C179.37 128.012 179.886 127.712 180.63 127.712C181.398 127.712 182.07 128.048 182.466 128.696C182.898 128.168 183.474 127.712 184.494 127.712C185.742 127.712 186.726 128.576 186.726 130.28V134H185.19V130.34C185.19 129.608 184.794 129.152 184.11 129.152C183.45 129.152 183.09 129.608 182.85 130.016C182.862 130.1 182.862 130.184 182.862 130.28V134H181.326V130.34C181.326 129.608 180.93 129.152 180.246 129.152C179.55 129.152 179.19 129.668 178.962 130.052V134H177.438ZM194.033 133.016C193.469 133.772 192.533 134.24 191.393 134.24C189.245 134.24 188.033 132.74 188.033 130.976C188.033 129.188 189.161 127.712 191.141 127.712C192.821 127.712 193.925 128.852 193.925 130.436C193.925 130.772 193.877 131.084 193.829 131.288H189.593C189.737 132.416 190.433 132.872 191.381 132.872C192.041 132.872 192.617 132.584 192.941 132.152L194.033 133.016ZM191.105 128.96C190.325 128.96 189.809 129.392 189.641 130.184H192.425C192.401 129.572 191.957 128.96 191.105 128.96ZM195.415 134V127.952H196.939V128.432C197.359 128.024 197.923 127.712 198.727 127.712C200.035 127.712 201.079 128.612 201.079 130.4V134H199.543V130.46C199.543 129.656 199.087 129.152 198.343 129.152C197.575 129.152 197.167 129.668 196.939 130.052V134H195.415ZM203.193 131.792V129.32H202.065V127.952H203.193V126.44H204.729V127.952H206.577V129.32H204.729V131.792C204.729 132.464 205.089 132.728 205.689 132.728C206.109 132.728 206.385 132.68 206.589 132.596V133.928C206.289 134.06 205.929 134.12 205.425 134.12C203.913 134.12 203.193 133.268 203.193 131.792ZM207.414 133.124L208.422 132.212C208.794 132.68 209.238 133.016 209.814 133.016C210.306 133.016 210.558 132.728 210.558 132.368C210.558 131.312 207.666 131.708 207.666 129.584C207.666 128.516 208.566 127.712 209.826 127.712C210.75 127.712 211.59 128.156 212.022 128.744L211.014 129.632C210.702 129.248 210.306 128.936 209.838 128.936C209.358 128.936 209.13 129.2 209.13 129.512C209.13 130.544 212.022 130.184 212.022 132.272C211.998 133.544 210.978 134.24 209.838 134.24C208.758 134.24 207.99 133.808 207.414 133.124Z" fill="#161616"/>
<path d="M123.972 148.112C127.711 148.112 130.052 149.845 131.39 151.486L127.468 154.77C126.465 153.614 125.401 152.733 123.911 152.733C121.479 152.733 120.051 154.253 119.716 157.536C120.963 156.594 122.483 156.077 124.367 156.077C128.745 156.077 131.39 159.117 131.39 163.099C131.39 167.203 128.38 170.608 123.303 170.608C117.375 170.608 114.366 166.17 114.366 159.269C114.366 152.824 117.102 148.112 123.972 148.112ZM123.334 160.606C121.935 160.606 120.719 161.154 119.838 162.248C120.263 164.923 121.419 165.987 123.212 165.987C124.975 165.987 126.131 164.893 126.131 163.282C126.131 161.67 125.036 160.606 123.334 160.606ZM134.357 161.062L134.965 148.72H148.402V153.341H139.89L139.708 156.472H140.316C146.426 156.472 148.98 158.934 148.98 163.312C148.98 167.872 145.453 170.608 140.954 170.608C136.789 170.608 134.023 168.693 132.229 165.44L136.728 162.674C137.853 165.014 139.1 166.048 140.954 166.048C142.626 166.048 143.751 165.045 143.751 163.555C143.751 161.883 142.444 161.062 140.042 161.062H134.357ZM153.968 174.864H149.499L152.387 164.984H157.798L153.968 174.864ZM166.129 170.608C162.39 170.608 160.049 168.875 158.712 167.234L162.633 163.95C163.637 165.106 164.731 165.987 166.19 165.987C168.622 165.987 170.051 164.467 170.385 161.184C169.139 162.126 167.619 162.643 165.734 162.643C161.357 162.643 158.712 159.603 158.712 155.621C158.712 151.517 161.721 148.112 166.798 148.112C172.726 148.112 175.736 152.55 175.736 159.451C175.736 165.896 173 170.608 166.129 170.608ZM163.971 155.438C163.971 157.05 165.065 158.114 166.768 158.114C168.166 158.114 169.382 157.566 170.264 156.472C169.838 153.797 168.683 152.733 166.889 152.733C165.126 152.733 163.971 153.827 163.971 155.438ZM178.612 170V147.2H183.476V159.482L187.914 154.678H193.903L187.671 161.245L193.721 170H187.823L184.297 164.832L183.476 165.683V170H178.612Z" fill="#161616"/>
<g clip-path="url(#clip2_2656_9030)">
<path d="M203.667 164.5L209.068 161.093C209.763 160.655 210.618 160.556 211.393 160.825L216.552 162.614C217.263 162.86 218.044 162.799 218.707 162.445L224.143 159.546C224.796 159.197 225.565 159.133 226.267 159.367L232.057 161.297C232.458 161.43 232.884 161.468 233.303 161.407L239.899 160.439C240.077 160.413 240.252 160.369 240.421 160.308L247.393 157.798C247.575 157.733 247.749 157.648 247.913 157.546L254.842 153.203C255.058 153.068 255.29 152.965 255.534 152.895L257.925 152.212C258.41 152.073 258.924 152.073 259.408 152.212L262.167 153L270.167 156.5L276.695 159.111C277.32 159.361 278.016 159.369 278.646 159.133L284.282 157.019C285.145 156.696 286.113 156.835 286.85 157.387L290.867 160.4" stroke="#3558A2" stroke-width="1.8" stroke-linecap="round"/>
</g>
<g clip-path="url(#clip3_2656_9030)">
<path d="M204.089 172.9V169.246L202.979 169.846L202.703 169.462L204.083 168.7H204.623V172.9H204.089ZM206.755 172.9V169.246L205.645 169.846L205.369 169.462L206.749 168.7H207.289V172.9H206.755ZM208.188 174.082L209.64 168.4H210.156L208.704 174.082H208.188ZM210.657 172.9V172.414L212.079 170.95C212.571 170.434 212.793 170.2 212.793 169.756C212.793 169.318 212.475 169.066 212.049 169.066C211.605 169.066 211.317 169.288 211.071 169.696L210.627 169.426C210.969 168.892 211.437 168.58 212.091 168.58C212.793 168.58 213.351 169.036 213.351 169.72C213.351 170.29 212.979 170.716 212.475 171.244L211.323 172.414H213.465V172.9H210.657ZM213.787 171.688V171.202L215.761 168.7H216.415V171.202H216.901V171.688H216.415V172.9H215.875V171.688H213.787ZM214.363 171.202H215.875V169.288L214.363 171.202Z" fill="#929292"/>
<path d="M224.108 171.141C224.02 171.229 224.02 171.372 224.108 171.459L225.54 172.891C225.627 172.979 225.77 172.979 225.858 172.891C225.946 172.803 225.946 172.661 225.858 172.573L224.585 171.3L225.858 170.028C225.946 169.94 225.946 169.797 225.858 169.709C225.77 169.621 225.627 169.621 225.54 169.709L224.108 171.141ZM270.326 171.459C270.414 171.372 270.414 171.229 270.326 171.141L268.894 169.709C268.806 169.621 268.664 169.621 268.576 169.709C268.488 169.797 268.488 169.94 268.576 170.027L269.849 171.3L268.576 172.573C268.488 172.661 268.488 172.803 268.576 172.891C268.664 172.979 268.806 172.979 268.894 172.891L270.326 171.459ZM224.267 171.3L224.267 171.525L270.167 171.525L270.167 171.3L270.167 171.075L224.267 171.075L224.267 171.3Z" fill="#E5E5E5"/>
<path d="M276.089 172.9V169.246L274.979 169.846L274.703 169.462L276.083 168.7H276.623V172.9H276.089ZM278.755 172.9V169.246L277.645 169.846L277.369 169.462L278.749 168.7H279.289V172.9H278.755ZM280.188 174.082L281.64 168.4H282.156L280.704 174.082H280.188ZM282.657 172.9V172.414L284.079 170.95C284.571 170.434 284.793 170.2 284.793 169.756C284.793 169.318 284.475 169.066 284.049 169.066C283.605 169.066 283.317 169.288 283.071 169.696L282.627 169.426C282.969 168.892 283.437 168.58 284.091 168.58C284.793 168.58 285.351 169.036 285.351 169.72C285.351 170.29 284.979 170.716 284.475 171.244L283.323 172.414H285.465V172.9H282.657ZM286.376 170.908L286.502 168.7H288.812V169.186H287.018L286.946 170.416H287.552C288.542 170.416 289.01 170.956 289.01 171.7C289.01 172.504 288.386 173.02 287.546 173.02C286.826 173.02 286.34 172.726 286.004 172.168L286.478 171.874C286.736 172.342 287.084 172.534 287.54 172.534C288.068 172.534 288.458 172.228 288.458 171.718C288.458 171.232 288.116 170.908 287.528 170.908H286.376Z" fill="#929292"/>
</g>
<rect x="113.667" y="178" width="130" height="18" rx="4" fill="#E8EDFF"/>
<path d="M123.177 189.02H121.207V191H120.127V189.02H118.147V187.94H120.127V185.96H121.207V187.94H123.177V189.02ZM127.258 187.9L127.468 184H131.638V185.22H128.758L128.678 186.68H129.218C131.078 186.68 131.898 187.53 131.898 188.89C131.898 190.32 130.778 191.2 129.338 191.2C128.038 191.2 127.178 190.63 126.598 189.62L127.778 188.89C128.178 189.66 128.658 190 129.338 190C130.028 190 130.518 189.59 130.518 188.94C130.518 188.28 130.028 187.9 129.158 187.9H127.258ZM132.597 189.14V187.92L135.597 184H137.177V187.92H137.887V189.14H137.177V191H135.827V189.14H132.597ZM133.987 187.92H135.827V185.53L133.987 187.92ZM139.013 191V183.5H140.293V187.89L142.143 185.96H143.733L141.663 188.1L143.723 191H142.163L140.763 189.02L140.293 189.5V191H139.013ZM151.895 190.18C151.425 190.81 150.645 191.2 149.695 191.2C147.905 191.2 146.895 189.95 146.895 188.48C146.895 186.99 147.835 185.76 149.485 185.76C150.885 185.76 151.805 186.71 151.805 188.03C151.805 188.31 151.765 188.57 151.725 188.74H148.195C148.315 189.68 148.895 190.06 149.685 190.06C150.235 190.06 150.715 189.82 150.985 189.46L151.895 190.18ZM149.455 186.8C148.805 186.8 148.375 187.16 148.235 187.82H150.555C150.535 187.31 150.165 186.8 149.455 186.8ZM153.046 191V185.96H154.316V186.36C154.666 186.02 155.136 185.76 155.806 185.76C156.896 185.76 157.766 186.51 157.766 188V191H156.486V188.05C156.486 187.38 156.106 186.96 155.486 186.96C154.846 186.96 154.506 187.39 154.316 187.71V191H153.046ZM162.173 191V184H163.993L167.123 189.06V184H168.543V191H166.723L163.593 185.94V191H162.173ZM172.663 185.76C174.303 185.76 175.423 186.97 175.423 188.48C175.423 189.99 174.303 191.2 172.663 191.2C171.023 191.2 169.903 189.99 169.903 188.48C169.903 186.97 171.023 185.76 172.663 185.76ZM172.683 190C173.493 190 174.103 189.35 174.103 188.48C174.103 187.6 173.493 186.96 172.683 186.96C171.843 186.96 171.223 187.6 171.223 188.48C171.223 189.36 171.843 190 172.683 190ZM175.802 185.96H177.162L178.472 189.56L179.772 185.96H181.142L179.302 191H177.632L175.802 185.96ZM186.524 190.18C186.054 190.81 185.274 191.2 184.324 191.2C182.534 191.2 181.524 189.95 181.524 188.48C181.524 186.99 182.464 185.76 184.114 185.76C185.514 185.76 186.434 186.71 186.434 188.03C186.434 188.31 186.394 188.57 186.354 188.74H182.824C182.944 189.68 183.524 190.06 184.314 190.06C184.864 190.06 185.344 189.82 185.614 189.46L186.524 190.18ZM184.084 186.8C183.434 186.8 183.004 187.16 182.864 187.82H185.184C185.164 187.31 184.794 186.8 184.084 186.8ZM187.675 191V185.96H188.945V186.34C189.285 186.01 189.715 185.76 190.335 185.76C190.975 185.76 191.535 186.04 191.865 186.58C192.225 186.14 192.705 185.76 193.555 185.76C194.595 185.76 195.415 186.48 195.415 187.9V191H194.135V187.95C194.135 187.34 193.805 186.96 193.235 186.96C192.685 186.96 192.385 187.34 192.185 187.68C192.195 187.75 192.195 187.82 192.195 187.9V191H190.915V187.95C190.915 187.34 190.585 186.96 190.015 186.96C189.435 186.96 189.135 187.39 188.945 187.71V191H187.675ZM202.264 188.48C202.264 189.95 201.304 191.2 199.704 191.2C199.014 191.2 198.524 190.98 198.134 190.59V191H196.864V183.5H198.134V186.37C198.524 185.98 199.014 185.76 199.704 185.76C201.304 185.76 202.264 187.01 202.264 188.48ZM199.524 186.96C198.934 186.96 198.444 187.22 198.134 187.68V189.28C198.474 189.75 198.954 190 199.524 190C200.384 190 200.944 189.36 200.944 188.48C200.944 187.6 200.384 186.96 199.524 186.96ZM203.427 191V185.96H204.697V186.46C205.027 186.12 205.457 185.86 206.027 185.86C206.197 185.86 206.347 185.89 206.467 185.93V187.18C206.307 187.14 206.137 187.11 205.907 187.11C205.287 187.11 204.887 187.45 204.697 187.77V191H203.427ZM211.914 190.18C211.444 190.81 210.664 191.2 209.714 191.2C207.924 191.2 206.914 189.95 206.914 188.48C206.914 186.99 207.854 185.76 209.504 185.76C210.904 185.76 211.824 186.71 211.824 188.03C211.824 188.31 211.784 188.57 211.744 188.74H208.214C208.334 189.68 208.914 190.06 209.704 190.06C210.254 190.06 210.734 189.82 211.004 189.46L211.914 190.18ZM209.474 186.8C208.824 186.8 208.394 187.16 208.254 187.82H210.574C210.554 187.31 210.184 186.8 209.474 186.8ZM215.581 191V189.78L217.981 187.42C218.521 186.87 218.861 186.49 218.861 185.92C218.861 185.34 218.461 185 217.911 185C217.241 185 216.831 185.41 216.461 186.03L215.361 185.36C215.951 184.4 216.821 183.8 218.041 183.8C219.261 183.8 220.241 184.58 220.241 185.78C220.241 186.74 219.611 187.48 218.921 188.15L217.231 189.78H220.421V191H215.581ZM223.997 183.8C225.837 183.8 226.697 185.4 226.697 187.5C226.697 189.6 225.837 191.2 223.997 191.2C222.157 191.2 221.297 189.6 221.297 187.5C221.297 185.4 222.157 183.8 223.997 183.8ZM223.997 185.05C223.107 185.05 222.677 186.03 222.677 187.5C222.677 188.98 223.107 189.95 223.997 189.95C224.877 189.95 225.307 188.97 225.307 187.5C225.307 186.02 224.877 185.05 223.997 185.05ZM227.553 191V189.78L229.953 187.42C230.493 186.87 230.833 186.49 230.833 185.92C230.833 185.34 230.433 185 229.883 185C229.213 185 228.803 185.41 228.433 186.03L227.333 185.36C227.923 184.4 228.793 183.8 230.013 183.8C231.233 183.8 232.213 184.58 232.213 185.78C232.213 186.74 231.583 187.48 230.893 188.15L229.203 189.78H232.393V191H227.553ZM233.811 187.9L234.021 184H238.191V185.22H235.311L235.231 186.68H235.771C237.631 186.68 238.451 187.53 238.451 188.89C238.451 190.32 237.331 191.2 235.891 191.2C234.591 191.2 233.731 190.63 233.151 189.62L234.331 188.89C234.731 189.66 235.211 190 235.891 190C236.581 190 237.071 189.59 237.071 188.94C237.071 188.28 236.581 187.9 235.711 187.9H233.811Z" fill="#0063CB"/>
</g>
<defs>
<filter id="filter0_d_2656_9030" x="0" y="0" width="350" height="212" filterUnits="userSpaceOnUse" color-interpolation-filters="sRGB">
<feFlood flood-opacity="0" result="BackgroundImageFix"/>
<feColorMatrix in="SourceAlpha" type="matrix" values="0 0 0 0 0 0 0 0 0 0 0 0 0 0 0 0 0 0 127 0" result="hardAlpha"/>
<feMorphology radius="1" operator="dilate" in="SourceAlpha" result="effect1_dropShadow_2656_9030"/>
<feOffset/>
<feComposite in2="hardAlpha" operator="out"/>
<feColorMatrix type="matrix" values="0 0 0 0 0.149038 0 0 0 0 0.145083 0 0 0 0 0.11763 0 0 0 0.1 0"/>
<feBlend mode="normal" in2="BackgroundImageFix" result="effect1_dropShadow_2656_9030"/>
<feBlend mode="normal" in="SourceGraphic" in2="effect1_dropShadow_2656_9030" result="shape"/>
</filter>
<clipPath id="clip0_2656_9030">
<rect width="90" height="28" fill="white" transform="translate(113.667 42.8999)"/>
</clipPath>
<clipPath id="clip1_2656_9030">
<rect width="90" height="8.1" fill="white" transform="translate(113.667 70.8999)"/>
</clipPath>
<clipPath id="clip2_2656_9030">
<rect width="90" height="28" fill="white" transform="translate(202.667 137.9)"/>
</clipPath>
<clipPath id="clip3_2656_9030">
<rect width="90" height="8.1" fill="white" transform="translate(202.667 165.9)"/>
</clipPath>
</defs>
</svg>
