<svg width="350" height="212" viewBox="0 0 350 212" fill="none" xmlns="http://www.w3.org/2000/svg">
<g filter="url(#filter0_d_2656_9288)">
<g clip-path="url(#clip0_2656_9288)">
<path d="M1 11C1 5.47715 5.47715 1 11 1H349V211H1V11Z" fill="white"/>
<path d="M51.6175 61.7368H54.4785L58.4006 72.1011L62.3227 61.7368H65.1838L60.1627 75H56.6385L51.6175 61.7368ZM68.1224 63.7832C67.2698 63.7832 66.5498 63.0632 66.5498 62.2105C66.5498 61.3579 67.2698 60.6379 68.1224 60.6379C68.975 60.6379 69.6761 61.3579 69.6761 62.2105C69.6761 63.0632 68.975 63.7832 68.1224 63.7832ZM66.9098 75V65.4505H69.3161V75H66.9098ZM71.2385 73.6168L72.8301 72.1768C73.4174 72.9158 74.1185 73.4463 75.028 73.4463C75.8048 73.4463 76.2027 72.9916 76.2027 72.4232C76.2027 70.7558 71.6364 71.3811 71.6364 68.0274C71.6364 66.3411 73.0574 65.0716 75.0469 65.0716C76.5059 65.0716 77.8322 65.7726 78.5143 66.7011L76.9227 68.1032C76.4301 67.4968 75.8048 67.0042 75.0659 67.0042C74.308 67.0042 73.948 67.4211 73.948 67.9137C73.948 69.5432 78.5143 68.9747 78.5143 72.2716C78.4764 74.28 76.8659 75.3789 75.0659 75.3789C73.3606 75.3789 72.148 74.6968 71.2385 73.6168ZM81.9444 63.7832C81.0917 63.7832 80.3717 63.0632 80.3717 62.2105C80.3717 61.3579 81.0917 60.6379 81.9444 60.6379C82.797 60.6379 83.498 61.3579 83.498 62.2105C83.498 63.0632 82.797 63.7832 81.9444 63.7832ZM80.7317 75V65.4505H83.138V75H80.7317ZM86.63 71.5137V67.6105H84.8489V65.4505H86.63V63.0632H89.0552V65.4505H91.9731V67.6105H89.0552V71.5137C89.0552 72.5747 89.6237 72.9916 90.571 72.9916C91.2342 72.9916 91.67 72.9158 91.9921 72.7832V74.8863C91.5184 75.0947 90.95 75.1895 90.1542 75.1895C87.7668 75.1895 86.63 73.8442 86.63 71.5137ZM102.735 73.4463C101.844 74.64 100.366 75.3789 98.5662 75.3789C95.1746 75.3789 93.261 73.0105 93.261 70.2253C93.261 67.4021 95.042 65.0716 98.1683 65.0716C100.821 65.0716 102.564 66.8716 102.564 69.3726C102.564 69.9032 102.488 70.3958 102.413 70.7179H95.7241C95.9515 72.4989 97.0504 73.2189 98.5473 73.2189C99.5894 73.2189 100.499 72.7642 101.01 72.0821L102.735 73.4463ZM98.1115 67.0421C96.8799 67.0421 96.0652 67.7242 95.7999 68.9747H100.196C100.158 68.0084 99.4568 67.0421 98.1115 67.0421ZM103.952 73.6168L105.544 72.1768C106.131 72.9158 106.832 73.4463 107.742 73.4463C108.519 73.4463 108.917 72.9916 108.917 72.4232C108.917 70.7558 104.35 71.3811 104.35 68.0274C104.35 66.3411 105.771 65.0716 107.761 65.0716C109.22 65.0716 110.546 65.7726 111.228 66.7011L109.637 68.1032C109.144 67.4968 108.519 67.0042 107.78 67.0042C107.022 67.0042 106.662 67.4211 106.662 67.9137C106.662 69.5432 111.228 68.9747 111.228 72.2716C111.19 74.28 109.58 75.3789 107.78 75.3789C106.074 75.3789 104.862 74.6968 103.952 73.6168Z" fill="#161616"/>
<path d="M67.6053 98.7032C73.5093 98.7032 77.2053 101.439 79.3173 104.031L73.1253 109.215C71.5413 107.391 69.8613 105.999 67.5093 105.999C63.6693 105.999 61.4133 108.399 60.8853 113.583C62.8533 112.095 65.2533 111.279 68.2293 111.279C75.1413 111.279 79.3173 116.079 79.3173 122.367C79.3173 128.847 74.5653 134.223 66.5493 134.223C57.1893 134.223 52.4373 127.215 52.4373 116.319C52.4373 106.143 56.7573 98.7032 67.6053 98.7032ZM66.5973 118.431C64.3893 118.431 62.4693 119.295 61.0773 121.023C61.7493 125.247 63.5733 126.927 66.4053 126.927C69.1893 126.927 71.0133 125.199 71.0133 122.655C71.0133 120.111 69.2853 118.431 66.5973 118.431ZM84.0025 119.151L84.9625 99.6632H106.179V106.959H92.7385L92.4505 111.903H93.4105C103.059 111.903 107.091 115.791 107.091 122.703C107.091 129.903 101.523 134.223 94.4185 134.223C87.8425 134.223 83.4745 131.199 80.6425 126.063L87.7465 121.695C89.5225 125.391 91.4905 127.023 94.4185 127.023C97.0585 127.023 98.8345 125.439 98.8345 123.087C98.8345 120.447 96.7705 119.151 92.9785 119.151H84.0025ZM114.966 140.943H107.91L112.47 125.343H121.014L114.966 140.943ZM134.169 134.223C128.265 134.223 124.569 131.487 122.457 128.895L128.649 123.711C130.233 125.535 131.961 126.927 134.265 126.927C138.105 126.927 140.361 124.527 140.889 119.343C138.921 120.831 136.521 121.647 133.545 121.647C126.633 121.647 122.457 116.847 122.457 110.559C122.457 104.079 127.209 98.7032 135.225 98.7032C144.585 98.7032 149.337 105.711 149.337 116.607C149.337 126.783 145.017 134.223 134.169 134.223ZM130.761 110.271C130.761 112.815 132.489 114.495 135.177 114.495C137.385 114.495 139.305 113.631 140.697 111.903C140.025 107.679 138.201 105.999 135.369 105.999C132.585 105.999 130.761 107.727 130.761 110.271ZM153.879 133.263V97.2632H161.559V116.655L168.567 109.071H178.023L168.183 119.439L177.735 133.263H168.423L162.855 125.103L161.559 126.447V133.263H153.879Z" fill="#161616"/>
<g clip-path="url(#clip1_2656_9288)">
<path d="M192.386 123.895L200.595 117.178C201.933 116.083 203.8 115.905 205.321 116.726L212.299 120.495C213.736 121.271 215.491 121.158 216.816 120.203L224.669 114.549C225.809 113.728 227.281 113.522 228.604 113.998L237.996 117.379C238.22 117.46 238.451 117.522 238.685 117.564L248.6 119.348C249.615 119.531 250.663 119.339 251.548 118.808L261.66 112.741C261.898 112.598 262.149 112.479 262.409 112.385L273.144 108.521C273.617 108.351 274.057 108.098 274.442 107.774L282.769 100.779C284.437 99.378 286.893 99.4594 288.464 100.968L297.197 109.351C297.427 109.573 297.682 109.767 297.956 109.932L307.417 115.608C308.646 116.346 310.163 116.416 311.455 115.796L319.101 112.126C320.424 111.491 321.981 111.581 323.222 112.365L330.228 116.79" stroke="#3558A2" stroke-width="2.84211" stroke-linecap="round"/>
</g>
<g clip-path="url(#clip2_2656_9288)">
<path d="M193.21 136.474V130.704L191.457 131.652L191.022 131.045L193.201 129.842H194.053V136.474H193.21ZM197.42 136.474V130.704L195.667 131.652L195.231 131.045L197.41 129.842H198.263V136.474H197.42ZM199.683 138.34L201.976 129.368H202.79L200.498 138.34H199.683ZM203.581 136.474V135.706L205.826 133.395C206.603 132.58 206.953 132.21 206.953 131.509C206.953 130.818 206.451 130.42 205.779 130.42C205.078 130.42 204.623 130.77 204.234 131.415L203.533 130.988C204.073 130.145 204.812 129.653 205.845 129.653C206.953 129.653 207.834 130.373 207.834 131.453C207.834 132.353 207.247 133.025 206.451 133.859L204.632 135.706H208.014V136.474H203.581ZM208.524 134.56V133.793L211.641 129.842H212.674V133.793H213.441V134.56H212.674V136.474H211.821V134.56H208.524ZM209.434 133.793H211.821V130.77L209.434 133.793Z" fill="#929292"/>
<path d="M224.819 133.749C224.68 133.888 224.68 134.113 224.819 134.252L227.08 136.513C227.219 136.651 227.444 136.651 227.582 136.513C227.721 136.374 227.721 136.149 227.582 136.01L225.573 134L227.582 131.991C227.721 131.852 227.721 131.627 227.582 131.488C227.444 131.35 227.219 131.35 227.08 131.488L224.819 133.749ZM297.795 134.252C297.934 134.113 297.934 133.888 297.795 133.749L295.534 131.488C295.395 131.35 295.171 131.35 295.032 131.488C294.893 131.627 294.893 131.852 295.032 131.991L297.041 134L295.032 136.01C294.893 136.149 294.893 136.374 295.032 136.513C295.171 136.651 295.395 136.651 295.534 136.513L297.795 134.252ZM225.07 134L225.07 134.356L297.544 134.356L297.544 134L297.544 133.645L225.07 133.645L225.07 134Z" fill="#E5E5E5"/>
<path d="M306.894 136.474V130.704L305.142 131.652L304.706 131.045L306.885 129.842H307.737V136.474H306.894ZM311.104 136.474V130.704L309.351 131.652L308.915 131.045L311.094 129.842H311.947V136.474H311.104ZM313.367 138.34L315.66 129.368H316.475L314.182 138.34H313.367ZM317.265 136.474V135.706L319.51 133.395C320.287 132.58 320.638 132.21 320.638 131.509C320.638 130.818 320.135 130.42 319.463 130.42C318.762 130.42 318.307 130.77 317.919 131.415L317.218 130.988C317.758 130.145 318.496 129.653 319.529 129.653C320.638 129.653 321.519 130.373 321.519 131.453C321.519 132.353 320.931 133.025 320.135 133.859L318.316 135.706H321.699V136.474H317.265ZM323.138 133.328L323.337 129.842H326.985V130.609H324.152L324.038 132.552H324.995C326.558 132.552 327.297 133.404 327.297 134.579C327.297 135.848 326.312 136.663 324.986 136.663C323.849 136.663 323.081 136.199 322.551 135.318L323.299 134.854C323.707 135.593 324.256 135.896 324.976 135.896C325.81 135.896 326.426 135.413 326.426 134.607C326.426 133.84 325.886 133.328 324.957 133.328H323.138Z" fill="#929292"/>
</g>
<rect x="51.3333" y="144.579" width="204.632" height="29" rx="6.31579" fill="#E8EDFF"/>
<path d="M66.349 162.453H63.2385V165.579H61.5333V162.453H58.4069V160.748H61.5333V157.621H63.2385V160.748H66.349V162.453ZM76.6776 154.211C78.525 154.211 79.6776 155.048 80.4039 156.011L78.7618 157.369C78.1934 156.611 77.546 156.137 76.6776 156.137C75.0828 156.137 74.2302 157.29 74.0881 159.453C74.7986 158.837 75.6986 158.49 76.7881 158.49C78.9828 158.49 80.3723 160.053 80.3723 162.074C80.3723 164.158 78.8723 165.895 76.346 165.895C73.4723 165.895 71.8776 163.795 71.8776 160.1C71.8776 156.658 73.2986 154.211 76.6776 154.211ZM76.3934 160.384C75.4934 160.384 74.7197 160.732 74.1513 161.474C74.4039 163.274 75.1776 163.969 76.2986 163.969C77.4671 163.969 78.1776 163.195 78.1776 162.153C78.1776 161.126 77.4513 160.384 76.3934 160.384ZM81.6785 165.579V163.653L85.468 159.926C86.3206 159.058 86.8575 158.458 86.8575 157.558C86.8575 156.642 86.2259 156.105 85.3575 156.105C84.2996 156.105 83.6522 156.753 83.068 157.732L81.3312 156.674C82.2627 155.158 83.6364 154.211 85.5627 154.211C87.4891 154.211 89.0364 155.442 89.0364 157.337C89.0364 158.853 88.0417 160.021 86.9522 161.079L84.2838 163.653H89.3206V165.579H81.6785ZM91.4618 165.579V153.737H93.4829V160.669L96.4039 157.621H98.9145L95.646 161L98.8987 165.579H96.4355L94.225 162.453L93.4829 163.211V165.579H91.4618ZM111.801 164.284C111.059 165.279 109.828 165.895 108.328 165.895C105.501 165.895 103.907 163.921 103.907 161.6C103.907 159.248 105.391 157.305 107.996 157.305C110.207 157.305 111.659 158.805 111.659 160.89C111.659 161.332 111.596 161.742 111.533 162.011H105.959C106.149 163.495 107.065 164.095 108.312 164.095C109.18 164.095 109.938 163.716 110.365 163.148L111.801 164.284ZM107.949 158.948C106.922 158.948 106.243 159.516 106.022 160.558H109.686C109.654 159.753 109.07 158.948 107.949 158.948ZM113.619 165.579V157.621H115.624V158.253C116.177 157.716 116.919 157.305 117.977 157.305C119.698 157.305 121.071 158.49 121.071 160.842V165.579H119.05V160.921C119.05 159.863 118.45 159.2 117.471 159.2C116.461 159.2 115.924 159.879 115.624 160.384V165.579H113.619ZM128.031 165.579V154.526H130.904L135.846 162.516V154.526H138.088V165.579H135.215L130.273 157.59V165.579H128.031ZM144.593 157.305C147.182 157.305 148.951 159.216 148.951 161.6C148.951 163.984 147.182 165.895 144.593 165.895C142.003 165.895 140.235 163.984 140.235 161.6C140.235 159.216 142.003 157.305 144.593 157.305ZM144.624 164C145.903 164 146.866 162.974 146.866 161.6C146.866 160.211 145.903 159.2 144.624 159.2C143.298 159.2 142.319 160.211 142.319 161.6C142.319 162.99 143.298 164 144.624 164ZM149.55 157.621H151.698L153.766 163.305L155.819 157.621H157.982L155.077 165.579H152.44L149.55 157.621ZM166.479 164.284C165.737 165.279 164.505 165.895 163.005 165.895C160.179 165.895 158.584 163.921 158.584 161.6C158.584 159.248 160.068 157.305 162.673 157.305C164.884 157.305 166.337 158.805 166.337 160.89C166.337 161.332 166.273 161.742 166.21 162.011H160.637C160.826 163.495 161.742 164.095 162.989 164.095C163.858 164.095 164.615 163.716 165.042 163.148L166.479 164.284ZM162.626 158.948C161.6 158.948 160.921 159.516 160.7 160.558H164.363C164.331 159.753 163.747 158.948 162.626 158.948ZM168.296 165.579V157.621H170.301V158.221C170.838 157.7 171.517 157.305 172.496 157.305C173.507 157.305 174.391 157.748 174.912 158.6C175.48 157.905 176.238 157.305 177.58 157.305C179.222 157.305 180.517 158.442 180.517 160.684V165.579H178.496V160.763C178.496 159.8 177.975 159.2 177.075 159.2C176.207 159.2 175.733 159.8 175.417 160.337C175.433 160.448 175.433 160.558 175.433 160.684V165.579H173.412V160.763C173.412 159.8 172.891 159.2 171.991 159.2C171.075 159.2 170.601 159.879 170.301 160.384V165.579H168.296ZM191.332 161.6C191.332 163.921 189.816 165.895 187.29 165.895C186.2 165.895 185.427 165.548 184.811 164.932V165.579H182.806V153.737H184.811V158.269C185.427 157.653 186.2 157.305 187.29 157.305C189.816 157.305 191.332 159.279 191.332 161.6ZM187.006 159.2C186.074 159.2 185.3 159.611 184.811 160.337V162.863C185.348 163.605 186.106 164 187.006 164C188.364 164 189.248 162.99 189.248 161.6C189.248 160.211 188.364 159.2 187.006 159.2ZM193.168 165.579V157.621H195.173V158.411C195.694 157.874 196.373 157.463 197.273 157.463C197.541 157.463 197.778 157.511 197.968 157.574V159.548C197.715 159.484 197.446 159.437 197.083 159.437C196.104 159.437 195.473 159.974 195.173 160.479V165.579H193.168ZM206.569 164.284C205.827 165.279 204.595 165.895 203.095 165.895C200.269 165.895 198.674 163.921 198.674 161.6C198.674 159.248 200.159 157.305 202.764 157.305C204.974 157.305 206.427 158.805 206.427 160.89C206.427 161.332 206.364 161.742 206.301 162.011H200.727C200.916 163.495 201.832 164.095 203.08 164.095C203.948 164.095 204.706 163.716 205.132 163.148L206.569 164.284ZM202.716 158.948C201.69 158.948 201.011 159.516 200.79 160.558H204.453C204.422 159.753 203.838 158.948 202.716 158.948ZM212.358 165.579V163.653L216.147 159.926C217 159.058 217.537 158.458 217.537 157.558C217.537 156.642 216.905 156.105 216.037 156.105C214.979 156.105 214.332 156.753 213.747 157.732L212.011 156.674C212.942 155.158 214.316 154.211 216.242 154.211C218.169 154.211 219.716 155.442 219.716 157.337C219.716 158.853 218.721 160.021 217.632 161.079L214.963 163.653H220V165.579H212.358ZM225.647 154.211C228.552 154.211 229.91 156.737 229.91 160.053C229.91 163.369 228.552 165.895 225.647 165.895C222.741 165.895 221.383 163.369 221.383 160.053C221.383 156.737 222.741 154.211 225.647 154.211ZM225.647 156.184C224.241 156.184 223.562 157.732 223.562 160.053C223.562 162.39 224.241 163.921 225.647 163.921C227.036 163.921 227.715 162.374 227.715 160.053C227.715 157.716 227.036 156.184 225.647 156.184ZM231.262 165.579V163.653L235.052 159.926C235.904 159.058 236.441 158.458 236.441 157.558C236.441 156.642 235.81 156.105 234.941 156.105C233.883 156.105 233.236 156.753 232.652 157.732L230.915 156.674C231.846 155.158 233.22 154.211 235.146 154.211C237.073 154.211 238.62 155.442 238.62 157.337C238.62 158.853 237.625 160.021 236.536 161.079L233.867 163.653H238.904V165.579H231.262ZM241.142 160.684L241.474 154.526H248.058V156.453H243.511L243.385 158.758H244.237C247.174 158.758 248.469 160.1 248.469 162.248C248.469 164.505 246.7 165.895 244.427 165.895C242.374 165.895 241.016 164.995 240.1 163.4L241.964 162.248C242.595 163.463 243.353 164 244.427 164C245.516 164 246.29 163.353 246.29 162.326C246.29 161.284 245.516 160.684 244.142 160.684H241.142Z" fill="#0063CB"/>
</g>
</g>
<defs>
<filter id="filter0_d_2656_9288" x="0" y="0" width="350" height="212" filterUnits="userSpaceOnUse" color-interpolation-filters="sRGB">
<feFlood flood-opacity="0" result="BackgroundImageFix"/>
<feColorMatrix in="SourceAlpha" type="matrix" values="0 0 0 0 0 0 0 0 0 0 0 0 0 0 0 0 0 0 127 0" result="hardAlpha"/>
<feMorphology radius="1" operator="dilate" in="SourceAlpha" result="effect1_dropShadow_2656_9288"/>
<feOffset/>
<feComposite in2="hardAlpha" operator="out"/>
<feColorMatrix type="matrix" values="0 0 0 0 0.149038 0 0 0 0 0.145083 0 0 0 0 0.11763 0 0 0 0.1 0"/>
<feBlend mode="normal" in2="BackgroundImageFix" result="effect1_dropShadow_2656_9288"/>
<feBlend mode="normal" in="SourceGraphic" in2="effect1_dropShadow_2656_9288" result="shape"/>
</filter>
<clipPath id="clip0_2656_9288">
<path d="M1 11C1 5.47715 5.47715 1 11 1H349V211H1V11Z" fill="white"/>
</clipPath>
<clipPath id="clip1_2656_9288">
<rect width="142.105" height="44.2105" fill="white" transform="translate(190.965 81.2632)"/>
</clipPath>
<clipPath id="clip2_2656_9288">
<rect width="142.105" height="12.7895" fill="white" transform="translate(190.965 125.474)"/>
</clipPath>
</defs>
</svg>
