<svg xmlns="http://www.w3.org/2000/svg" width="350" height="212" fill="none" viewBox="0 0 350 212"><g filter="url(#a)"><path fill="#fff" d="M1 11C1 5.477 5.477 1 11 1h338v210H1z"/><path fill="#161616" d="M33.847 30.6h1.812l2.484 6.564 2.484-6.564h1.812l-3.18 8.4h-2.232zM44.3 31.896a1.01 1.01 0 0 1-.996-.996c0-.54.456-.996.996-.996s.984.456.984.996-.444.996-.984.996M43.532 39v-6.048h1.524V39zm2.741-.876 1.008-.912c.372.468.816.804 1.392.804.492 0 .744-.288.744-.648 0-1.056-2.892-.66-2.892-2.784 0-1.068.9-1.872 2.16-1.872.924 0 1.764.444 2.196 1.032l-1.008.888c-.312-.384-.708-.696-1.176-.696-.48 0-.708.264-.708.576 0 1.032 2.892.672 2.892 2.76-.024 1.272-1.044 1.968-2.184 1.968-1.08 0-1.848-.432-2.424-1.116m6.78-6.228a1.01 1.01 0 0 1-.995-.996c0-.54.456-.996.996-.996s.984.456.984.996-.444.996-.984.996M52.287 39v-6.048h1.524V39zm3.735-2.208V34.32h-1.128v-1.368h1.128V31.44h1.536v1.512h1.848v1.368h-1.848v2.472c0 .672.36.936.96.936.42 0 .696-.048.9-.132v1.332c-.3.132-.66.192-1.164.192-1.512 0-2.232-.852-2.232-2.328m10.2 1.224c-.564.756-1.5 1.224-2.64 1.224-2.148 0-3.36-1.5-3.36-3.264 0-1.788 1.128-3.264 3.108-3.264 1.68 0 2.784 1.14 2.784 2.724 0 .336-.048.648-.096.852H61.78c.144 1.128.84 1.584 1.788 1.584.66 0 1.236-.288 1.56-.72zm-2.928-4.056c-.78 0-1.296.432-1.464 1.224h2.784c-.024-.612-.468-1.224-1.32-1.224m3.699 4.164L68 37.212c.372.468.816.804 1.392.804.492 0 .744-.288.744-.648 0-1.056-2.892-.66-2.892-2.784 0-1.068.9-1.872 2.16-1.872.924 0 1.764.444 2.196 1.032l-1.008.888c-.312-.384-.708-.696-1.176-.696-.48 0-.708.264-.708.576 0 1.032 2.892.672 2.892 2.76-.024 1.272-1.044 1.968-2.184 1.968-1.08 0-1.848-.432-2.424-1.116M43.972 53.112c3.74 0 6.08 1.733 7.418 3.374l-3.922 3.284c-1.003-1.156-2.067-2.037-3.557-2.037-2.432 0-3.86 1.52-4.195 4.803 1.247-.942 2.767-1.46 4.651-1.46 4.378 0 7.023 3.04 7.023 7.023 0 4.104-3.01 7.509-8.087 7.509-5.928 0-8.937-4.438-8.937-11.34 0-6.444 2.736-11.156 9.606-11.156m-.638 12.494c-1.399 0-2.615.548-3.496 1.642.425 2.675 1.58 3.74 3.374 3.74 1.763 0 2.919-1.095 2.919-2.706 0-1.612-1.095-2.676-2.797-2.676M53.445 75v-4.62l7.327-7.023c1.033-.973 2.006-2.098 2.006-3.466 0-1.398-.942-2.219-2.25-2.219-1.884 0-2.948 1.307-4.012 3.07L52.38 58.19c1.855-3.04 4.651-5.077 8.664-5.077 3.861 0 6.931 2.432 6.931 6.232 0 2.918-1.945 5.198-3.678 6.81l-4.53 4.225h8.756V75zm24.49.608c-3.739 0-6.08-1.733-7.417-3.374l3.922-3.284c1.003 1.156 2.097 2.037 3.557 2.037 2.432 0 3.86-1.52 4.195-4.803-1.247.942-2.767 1.46-4.651 1.46-4.378 0-7.023-3.04-7.023-7.023 0-4.104 3.01-7.509 8.087-7.509 5.927 0 8.937 4.438 8.937 11.34 0 6.444-2.736 11.156-9.606 11.156m-2.158-15.17c0 1.612 1.095 2.676 2.797 2.676 1.398 0 2.615-.548 3.496-1.642-.425-2.675-1.58-3.74-3.374-3.74-1.763 0-2.919 1.095-2.919 2.706M90.418 75V52.2h4.864v12.282l4.439-4.804h5.988l-6.232 6.567 6.05 8.755h-5.898l-3.526-5.168-.82.851V75z"/><g clip-path="url(#b)"><path stroke="#3558a2" stroke-linecap="round" stroke-width="1.8" d="m114.567 69.9 5.199-4.254a2.7 2.7 0 0 1 2.993-.286l4.42 2.387c.91.491 2.021.42 2.86-.185l4.974-3.58a2.7 2.7 0 0 1 2.492-.35l5.948 2.142q.213.076.437.117l6.279 1.13a2.7 2.7 0 0 0 1.867-.343l6.404-3.842q.227-.136.475-.225l6.798-2.448c.3-.108.579-.268.822-.473l5.275-4.43a2.7 2.7 0 0 1 3.606.12l5.531 5.31q.22.21.481.367l5.992 3.595a2.7 2.7 0 0 0 2.557.119l4.843-2.324a2.7 2.7 0 0 1 2.61.151l4.437 2.802"/></g><g clip-path="url(#c)"><path fill="#929292" d="M115.089 77.9v-3.654l-1.11.6-.276-.384 1.38-.762h.54v4.2zm2.666 0v-3.654l-1.11.6-.276-.384 1.38-.762h.54v4.2zm1.433 1.182 1.452-5.682h.516l-1.452 5.682zm2.469-1.182v-.486l1.422-1.464c.492-.516.714-.75.714-1.194 0-.438-.318-.69-.744-.69-.444 0-.732.222-.978.63l-.444-.27c.342-.534.81-.846 1.464-.846.702 0 1.26.456 1.26 1.14 0 .57-.372.996-.876 1.524l-1.152 1.17h2.142v.486zm3.13-1.212v-.486l1.974-2.502h.654v2.502h.486v.486h-.486V77.9h-.54v-1.212zm.576-.486h1.512v-1.914z"/><path fill="#e5e5e5" d="M135.108 76.141a.225.225 0 0 0 0 .318l1.432 1.432a.225.225 0 1 0 .318-.318l-1.273-1.273 1.273-1.272a.225.225 0 1 0-.318-.319zm46.218.318a.225.225 0 0 0 0-.318l-1.432-1.432a.225.225 0 1 0-.318.319l1.273 1.272-1.273 1.273a.225.225 0 1 0 .318.318zm-46.059-.159v.225h45.9v-.45h-45.9z"/><path fill="#929292" d="M187.089 77.9v-3.654l-1.11.6-.276-.384 1.38-.762h.54v4.2zm2.666 0v-3.654l-1.11.6-.276-.384 1.38-.762h.54v4.2zm1.433 1.182 1.452-5.682h.516l-1.452 5.682zm2.469-1.182v-.486l1.422-1.464c.492-.516.714-.75.714-1.194 0-.438-.318-.69-.744-.69-.444 0-.732.222-.978.63l-.444-.27c.342-.534.81-.846 1.464-.846.702 0 1.26.456 1.26 1.14 0 .57-.372.996-.876 1.524l-1.152 1.17h2.142v.486zm3.719-1.992.126-2.208h2.31v.486h-1.794l-.072 1.23h.606c.99 0 1.458.54 1.458 1.284 0 .804-.624 1.32-1.464 1.32-.72 0-1.206-.294-1.542-.852l.474-.294c.258.468.606.66 1.062.66.528 0 .918-.306.918-.816 0-.486-.342-.81-.93-.81z"/></g><rect width="130" height="18" x="33.667" y="83" fill="#e8edff" rx="4"/><path fill="#0063cb" d="M43.177 94.02h-1.97V96h-1.08v-1.98h-1.98v-1.08h1.98v-1.98h1.08v1.98h1.97zm6.541-5.22c1.17 0 1.9.53 2.36 1.14l-1.04.86c-.36-.48-.77-.78-1.32-.78-1.01 0-1.55.73-1.64 2.1.45-.39 1.02-.61 1.71-.61 1.39 0 2.27.99 2.27 2.27 0 1.32-.95 2.42-2.55 2.42-1.82 0-2.83-1.33-2.83-3.67 0-2.18.9-3.73 3.04-3.73m-.18 3.91c-.57 0-1.06.22-1.42.69.16 1.14.65 1.58 1.36 1.58.74 0 1.19-.49 1.19-1.15 0-.65-.46-1.12-1.13-1.12M52.885 96v-1.22l2.4-2.36c.54-.55.88-.93.88-1.5 0-.58-.4-.92-.95-.92-.67 0-1.08.41-1.45 1.03l-1.1-.67c.59-.96 1.46-1.56 2.68-1.56s2.2.78 2.2 1.98c0 .96-.63 1.7-1.32 2.37l-1.69 1.63h3.19V96zm6.196 0v-7.5h1.28v4.39l1.85-1.93h1.59l-2.07 2.14 2.06 2.9h-1.56l-1.4-1.98-.47.48V96zm12.882-.82c-.47.63-1.25 1.02-2.2 1.02-1.79 0-2.8-1.25-2.8-2.72 0-1.49.94-2.72 2.59-2.72 1.4 0 2.32.95 2.32 2.27 0 .28-.04.54-.08.71h-3.53c.12.94.7 1.32 1.49 1.32.55 0 1.03-.24 1.3-.6zm-2.44-3.38c-.65 0-1.08.36-1.22 1.02h2.32c-.02-.51-.39-1.02-1.1-1.02m3.591 4.2v-5.04h1.27v.4c.35-.34.82-.6 1.49-.6 1.09 0 1.96.75 1.96 2.24v3h-1.28v-2.95c0-.67-.38-1.09-1-1.09-.64 0-.98.43-1.17.75V96zm9.127 0v-7h1.82l3.13 5.06V89h1.42v7h-1.82l-3.13-5.06V96zm10.49-5.24c1.64 0 2.76 1.21 2.76 2.72s-1.12 2.72-2.76 2.72-2.76-1.21-2.76-2.72 1.12-2.72 2.76-2.72m.02 4.24c.81 0 1.42-.65 1.42-1.52 0-.88-.61-1.52-1.42-1.52-.84 0-1.46.64-1.46 1.52S91.91 95 92.75 95m3.12-4.04h1.36l1.31 3.6 1.3-3.6h1.37L99.371 96H97.7zm10.721 4.22c-.47.63-1.25 1.02-2.2 1.02-1.79 0-2.8-1.25-2.8-2.72 0-1.49.94-2.72 2.59-2.72 1.4 0 2.32.95 2.32 2.27 0 .28-.04.54-.08.71h-3.53c.12.94.7 1.32 1.49 1.32.55 0 1.03-.24 1.3-.6zm-2.44-3.38c-.65 0-1.08.36-1.22 1.02h2.32c-.02-.51-.39-1.02-1.1-1.02m3.591 4.2v-5.04h1.27v.38c.34-.33.77-.58 1.39-.58.64 0 1.2.28 1.53.82.36-.44.84-.82 1.69-.82 1.04 0 1.86.72 1.86 2.14V96h-1.28v-3.05c0-.61-.33-.99-.9-.99-.55 0-.85.38-1.05.72.01.07.01.14.01.22V96h-1.28v-3.05c0-.61-.33-.99-.9-.99-.58 0-.88.43-1.07.75V96zm14.589-2.52c0 1.47-.96 2.72-2.56 2.72-.69 0-1.18-.22-1.57-.61V96h-1.27v-7.5h1.27v2.87c.39-.39.88-.61 1.57-.61 1.6 0 2.56 1.25 2.56 2.72m-2.74-1.52c-.59 0-1.08.26-1.39.72v1.6c.34.47.82.72 1.39.72.86 0 1.42-.64 1.42-1.52s-.56-1.52-1.42-1.52m3.903 4.04v-5.04h1.27v.5c.33-.34.76-.6 1.33-.6.17 0 .32.03.44.07v1.25c-.16-.04-.33-.07-.56-.07-.62 0-1.02.34-1.21.66V96zm8.488-.82c-.47.63-1.25 1.02-2.2 1.02-1.79 0-2.8-1.25-2.8-2.72 0-1.49.94-2.72 2.59-2.72 1.4 0 2.32.95 2.32 2.27 0 .28-.04.54-.08.71h-3.53c.12.94.7 1.32 1.49 1.32.55 0 1.03-.24 1.3-.6zm-2.44-3.38c-.65 0-1.08.36-1.22 1.02h2.32c-.02-.51-.39-1.02-1.1-1.02m6.106 4.2v-1.22l2.4-2.36c.54-.55.88-.93.88-1.5 0-.58-.4-.92-.95-.92-.67 0-1.08.41-1.45 1.03l-1.1-.67c.59-.96 1.46-1.56 2.68-1.56s2.2.78 2.2 1.98c0 .96-.63 1.7-1.32 2.37l-1.69 1.63h3.19V96zm8.416-7.2c1.84 0 2.7 1.6 2.7 3.7s-.86 3.7-2.7 3.7-2.7-1.6-2.7-3.7.86-3.7 2.7-3.7m0 1.25c-.89 0-1.32.98-1.32 2.45 0 1.48.43 2.45 1.32 2.45.88 0 1.31-.98 1.31-2.45 0-1.48-.43-2.45-1.31-2.45m3.557 5.95v-1.22l2.4-2.36c.54-.55.88-.93.88-1.5 0-.58-.4-.92-.95-.92-.67 0-1.08.41-1.45 1.03l-1.1-.67c.59-.96 1.46-1.56 2.68-1.56s2.2.78 2.2 1.98c0 .96-.63 1.7-1.32 2.37l-1.69 1.63h3.19V96zm6.257-3.1.21-3.9h4.17v1.22h-2.88l-.08 1.46h.54c1.86 0 2.68.85 2.68 2.21 0 1.43-1.12 2.31-2.56 2.31-1.3 0-2.16-.57-2.74-1.58l1.18-.73c.4.77.88 1.11 1.56 1.11.69 0 1.18-.41 1.18-1.06 0-.66-.49-1.04-1.36-1.04z"/><path fill="#161616" d="M114.039 127.148V125.6h6.888v1.548h-2.592V134h-1.704v-6.852zm10.829-.156h-1.464l1.248-1.992h1.656zm2.052 6.024c-.564.756-1.5 1.224-2.64 1.224-2.148 0-3.36-1.5-3.36-3.264 0-1.788 1.128-3.264 3.108-3.264 1.68 0 2.784 1.14 2.784 2.724 0 .336-.048.648-.096.852h-4.236c.144 1.128.84 1.584 1.788 1.584.66 0 1.236-.288 1.56-.72zm-2.928-4.056c-.78 0-1.296.432-1.464 1.224h2.784c-.024-.612-.468-1.224-1.32-1.224m4.309 5.04v-9h1.524v9zm6.868-7.008h-1.464l1.248-1.992h1.656zm2.052 6.024c-.564.756-1.5 1.224-2.64 1.224-2.148 0-3.36-1.5-3.36-3.264 0-1.788 1.128-3.264 3.108-3.264 1.68 0 2.784 1.14 2.784 2.724 0 .336-.048.648-.096.852h-4.236c.144 1.128.84 1.584 1.788 1.584.66 0 1.236-.288 1.56-.72zm-2.928-4.056c-.78 0-1.296.432-1.464 1.224h2.784c-.024-.612-.468-1.224-1.32-1.224m7.166 3.84c.6 0 1.08-.276 1.368-.696l1.188.912c-.564.744-1.452 1.224-2.556 1.224-2.088 0-3.336-1.5-3.336-3.264s1.248-3.264 3.336-3.264c1.104 0 1.992.48 2.556 1.224l-1.188.912c-.288-.42-.768-.696-1.392-.696-.996 0-1.728.768-1.728 1.824 0 1.068.732 1.824 1.752 1.824m3.694 1.2v-9h1.524v3.432c.42-.408.984-.72 1.788-.72 1.308 0 2.352.9 2.352 2.688v3.6h-1.536v-3.54c0-.804-.444-1.308-1.2-1.308-.768 0-1.176.516-1.404.9V134zm9.098.18c-1.212 0-2.04-.696-2.04-1.812 0-.912.708-1.596 2.004-1.812l1.848-.312v-.156c0-.636-.48-1.044-1.176-1.044-.588 0-1.044.276-1.368.72l-1.116-.852c.54-.744 1.428-1.2 2.532-1.2 1.752 0 2.652 1.044 2.652 2.376V134h-1.524v-.588c-.384.468-1.104.768-1.812.768m-.528-1.884c0 .408.324.672.84.672.696 0 1.2-.324 1.5-.804v-.852l-1.44.24c-.636.108-.9.372-.9.744m5.61 1.704v-6.048h1.524v.6c.396-.408.912-.72 1.596-.72.204 0 .384.036.528.084v1.5a2.6 2.6 0 0 0-.672-.084c-.744 0-1.224.408-1.452.792V134zm4.157 1.056c0-.6.3-1.08.84-1.476a1.26 1.26 0 0 1-.372-.876c0-.48.204-.864.66-1.2-.528-.396-.816-.996-.816-1.668 0-1.176.912-2.124 2.424-2.124.468 0 .876.084 1.224.24h2.208v1.296h-1.068c.06.192.084.384.084.588 0 1.188-.888 2.148-2.448 2.148-.204 0-.396-.012-.576-.048-.132.12-.204.252-.204.384 0 .24.132.36.408.36h1.524c1.524 0 2.352.816 2.352 1.944 0 1.344-1.284 2.376-3.168 2.376-1.932 0-3.072-.672-3.072-1.944m2.76-4.224c.636 0 1.044-.396 1.044-.996s-.408-.984-1.044-.984c-.66 0-1.056.396-1.056.984 0 .6.396.996 1.056.996m-1.32 4.008c0 .576.552.936 1.62.936 1.104 0 1.668-.408 1.668-1.008 0-.456-.276-.78-1.008-.78h-1.872c-.228.216-.408.48-.408.852m11.127-1.824c-.564.756-1.5 1.224-2.64 1.224-2.148 0-3.36-1.5-3.36-3.264 0-1.788 1.128-3.264 3.108-3.264 1.68 0 2.784 1.14 2.784 2.724 0 .336-.048.648-.096.852h-4.236c.144 1.128.84 1.584 1.788 1.584.66 0 1.236-.288 1.56-.72zm-2.928-4.056c-.78 0-1.296.432-1.464 1.224h2.784c-.024-.612-.468-1.224-1.32-1.224m4.309 5.04v-6.048h1.524v.456c.408-.396.924-.696 1.668-.696.768 0 1.44.336 1.836.984.432-.528 1.008-.984 2.028-.984 1.248 0 2.232.864 2.232 2.568V134h-1.536v-3.66c0-.732-.396-1.188-1.08-1.188-.66 0-1.02.456-1.26.864.012.084.012.168.012.264V134h-1.536v-3.66c0-.732-.396-1.188-1.08-1.188-.696 0-1.056.516-1.284.9V134zm16.595-.984c-.564.756-1.5 1.224-2.64 1.224-2.148 0-3.36-1.5-3.36-3.264 0-1.788 1.128-3.264 3.108-3.264 1.68 0 2.784 1.14 2.784 2.724 0 .336-.048.648-.096.852h-4.236c.144 1.128.84 1.584 1.788 1.584.66 0 1.236-.288 1.56-.72zm-2.928-4.056c-.78 0-1.296.432-1.464 1.224h2.784c-.024-.612-.468-1.224-1.32-1.224m4.31 5.04v-6.048h1.524v.48c.42-.408.984-.72 1.788-.72 1.308 0 2.352.9 2.352 2.688v3.6h-1.536v-3.54c0-.804-.456-1.308-1.2-1.308-.768 0-1.176.516-1.404.9V134zm7.778-2.208v-2.472h-1.128v-1.368h1.128v-1.512h1.536v1.512h1.848v1.368h-1.848v2.472c0 .672.36.936.96.936.42 0 .696-.048.9-.132v1.332c-.3.132-.66.192-1.164.192-1.512 0-2.232-.852-2.232-2.328m4.221 1.332 1.008-.912c.372.468.816.804 1.392.804.492 0 .744-.288.744-.648 0-1.056-2.892-.66-2.892-2.784 0-1.068.9-1.872 2.16-1.872.924 0 1.764.444 2.196 1.032l-1.008.888c-.312-.384-.708-.696-1.176-.696-.48 0-.708.264-.708.576 0 1.032 2.892.672 2.892 2.76-.024 1.272-1.044 1.968-2.184 1.968-1.08 0-1.848-.432-2.424-1.116M123.972 148.112c3.739 0 6.08 1.733 7.418 3.374l-3.922 3.284c-1.003-1.156-2.067-2.037-3.557-2.037-2.432 0-3.86 1.52-4.195 4.803 1.247-.942 2.767-1.459 4.651-1.459 4.378 0 7.023 3.04 7.023 7.022 0 4.104-3.01 7.509-8.087 7.509-5.928 0-8.937-4.438-8.937-11.339 0-6.445 2.736-11.157 9.606-11.157m-.638 12.494c-1.399 0-2.615.548-3.496 1.642.425 2.675 1.581 3.739 3.374 3.739 1.763 0 2.919-1.094 2.919-2.705 0-1.612-1.095-2.676-2.797-2.676m11.023.456.608-12.342h13.437v4.621h-8.512l-.182 3.131h.608c6.11 0 8.664 2.462 8.664 6.84 0 4.56-3.527 7.296-8.026 7.296-4.165 0-6.931-1.915-8.725-5.168l4.499-2.766c1.125 2.34 2.372 3.374 4.226 3.374 1.672 0 2.797-1.003 2.797-2.493 0-1.672-1.307-2.493-3.709-2.493zm19.611 13.802h-4.469l2.888-9.88h5.411zm12.161-4.256c-3.739 0-6.08-1.733-7.417-3.374l3.921-3.284c1.004 1.156 2.098 2.037 3.557 2.037 2.432 0 3.861-1.52 4.195-4.803-1.246.942-2.766 1.459-4.651 1.459-4.377 0-7.022-3.04-7.022-7.022 0-4.104 3.009-7.509 8.086-7.509 5.928 0 8.938 4.438 8.938 11.339 0 6.445-2.736 11.157-9.607 11.157m-2.158-15.17c0 1.612 1.094 2.676 2.797 2.676 1.398 0 2.614-.548 3.496-1.642-.426-2.675-1.581-3.739-3.375-3.739-1.763 0-2.918 1.094-2.918 2.705M178.612 170v-22.8h4.864v12.282l4.438-4.804h5.989l-6.232 6.567 6.05 8.755h-5.898l-3.526-5.168-.821.851V170z"/><g clip-path="url(#d)"><path stroke="#3558a2" stroke-linecap="round" stroke-width="1.8" d="m203.667 164.5 5.401-3.407a2.7 2.7 0 0 1 2.325-.268l5.159 1.789a2.7 2.7 0 0 0 2.155-.169l5.436-2.899a2.7 2.7 0 0 1 2.124-.179l5.79 1.93c.401.133.827.171 1.246.11l6.596-.968q.268-.04.522-.131l6.972-2.51q.273-.098.52-.252l6.929-4.343q.325-.203.692-.308l2.391-.683a2.7 2.7 0 0 1 1.483 0l2.759.788 8 3.5 6.528 2.611c.625.25 1.321.258 1.951.022l5.636-2.114a2.7 2.7 0 0 1 2.568.368l4.017 3.013"/></g><g clip-path="url(#e)"><path fill="#929292" d="M204.089 172.9v-3.654l-1.11.6-.276-.384 1.38-.762h.54v4.2zm2.666 0v-3.654l-1.11.6-.276-.384 1.38-.762h.54v4.2zm1.433 1.182 1.452-5.682h.516l-1.452 5.682zm2.469-1.182v-.486l1.422-1.464c.492-.516.714-.75.714-1.194 0-.438-.318-.69-.744-.69-.444 0-.732.222-.978.63l-.444-.27c.342-.534.81-.846 1.464-.846.702 0 1.26.456 1.26 1.14 0 .57-.372.996-.876 1.524l-1.152 1.17h2.142v.486zm3.13-1.212v-.486l1.974-2.502h.654v2.502h.486v.486h-.486v1.212h-.54v-1.212zm.576-.486h1.512v-1.914z"/><path fill="#e5e5e5" d="M224.108 171.141a.225.225 0 0 0 0 .318l1.432 1.432a.225.225 0 1 0 .318-.318l-1.273-1.273 1.273-1.272a.226.226 0 0 0-.318-.319zm46.218.318a.225.225 0 0 0 0-.318l-1.432-1.432a.225.225 0 1 0-.318.318l1.273 1.273-1.273 1.273a.225.225 0 1 0 .318.318zm-46.059-.159v.225h45.9v-.45h-45.9z"/><path fill="#929292" d="M276.089 172.9v-3.654l-1.11.6-.276-.384 1.38-.762h.54v4.2zm2.666 0v-3.654l-1.11.6-.276-.384 1.38-.762h.54v4.2zm1.433 1.182 1.452-5.682h.516l-1.452 5.682zm2.469-1.182v-.486l1.422-1.464c.492-.516.714-.75.714-1.194 0-.438-.318-.69-.744-.69-.444 0-.732.222-.978.63l-.444-.27c.342-.534.81-.846 1.464-.846.702 0 1.26.456 1.26 1.14 0 .57-.372.996-.876 1.524l-1.152 1.17h2.142v.486zm3.719-1.992.126-2.208h2.31v.486h-1.794l-.072 1.23h.606c.99 0 1.458.54 1.458 1.284 0 .804-.624 1.32-1.464 1.32-.72 0-1.206-.294-1.542-.852l.474-.294c.258.468.606.66 1.062.66.528 0 .918-.306.918-.816 0-.486-.342-.81-.93-.81z"/></g><rect width="130" height="18" x="113.667" y="178" fill="#e8edff" rx="4"/><path fill="#0063cb" d="M123.177 189.02h-1.97V191h-1.08v-1.98h-1.98v-1.08h1.98v-1.98h1.08v1.98h1.97zm4.081-1.12.21-3.9h4.17v1.22h-2.88l-.08 1.46h.54c1.86 0 2.68.85 2.68 2.21 0 1.43-1.12 2.31-2.56 2.31-1.3 0-2.16-.57-2.74-1.58l1.18-.73c.4.77.88 1.11 1.56 1.11.69 0 1.18-.41 1.18-1.06 0-.66-.49-1.04-1.36-1.04zm5.339 1.24v-1.22l3-3.92h1.58v3.92h.71v1.22h-.71V191h-1.35v-1.86zm1.39-1.22h1.84v-2.39zm5.026 3.08v-7.5h1.28v4.39l1.85-1.93h1.59l-2.07 2.14 2.06 2.9h-1.56l-1.4-1.98-.47.48v1.5zm12.882-.82c-.47.63-1.25 1.02-2.2 1.02-1.79 0-2.8-1.25-2.8-2.72 0-1.49.94-2.72 2.59-2.72 1.4 0 2.32.95 2.32 2.27 0 .28-.04.54-.08.71h-3.53c.12.94.7 1.32 1.49 1.32.55 0 1.03-.24 1.3-.6zm-2.44-3.38c-.65 0-1.08.36-1.22 1.02h2.32c-.02-.51-.39-1.02-1.1-1.02m3.591 4.2v-5.04h1.27v.4c.35-.34.82-.6 1.49-.6 1.09 0 1.96.75 1.96 2.24v3h-1.28v-2.95c0-.67-.38-1.09-1-1.09-.64 0-.98.43-1.17.75V191zm9.127 0v-7h1.82l3.13 5.06V184h1.42v7h-1.82l-3.13-5.06V191zm10.49-5.24c1.64 0 2.76 1.21 2.76 2.72s-1.12 2.72-2.76 2.72-2.76-1.21-2.76-2.72 1.12-2.72 2.76-2.72m.02 4.24c.81 0 1.42-.65 1.42-1.52 0-.88-.61-1.52-1.42-1.52-.84 0-1.46.64-1.46 1.52s.62 1.52 1.46 1.52m3.119-4.04h1.36l1.31 3.6 1.3-3.6h1.37l-1.84 5.04h-1.67zm10.722 4.22c-.47.63-1.25 1.02-2.2 1.02-1.79 0-2.8-1.25-2.8-2.72 0-1.49.94-2.72 2.59-2.72 1.4 0 2.32.95 2.32 2.27 0 .28-.04.54-.08.71h-3.53c.12.94.7 1.32 1.49 1.32.55 0 1.03-.24 1.3-.6zm-2.44-3.38c-.65 0-1.08.36-1.22 1.02h2.32c-.02-.51-.39-1.02-1.1-1.02m3.591 4.2v-5.04h1.27v.38c.34-.33.77-.58 1.39-.58.64 0 1.2.28 1.53.82.36-.44.84-.82 1.69-.82 1.04 0 1.86.72 1.86 2.14v3.1h-1.28v-3.05c0-.61-.33-.99-.9-.99-.55 0-.85.38-1.05.72.01.07.01.14.01.22v3.1h-1.28v-3.05c0-.61-.33-.99-.9-.99-.58 0-.88.43-1.07.75V191zm14.589-2.52c0 1.47-.96 2.72-2.56 2.72-.69 0-1.18-.22-1.57-.61v.41h-1.27v-7.5h1.27v2.87c.39-.39.88-.61 1.57-.61 1.6 0 2.56 1.25 2.56 2.72m-2.74-1.52c-.59 0-1.08.26-1.39.72v1.6c.34.47.82.72 1.39.72.86 0 1.42-.64 1.42-1.52s-.56-1.52-1.42-1.52m3.903 4.04v-5.04h1.27v.5c.33-.34.76-.6 1.33-.6.17 0 .32.03.44.07v1.25c-.16-.04-.33-.07-.56-.07-.62 0-1.02.34-1.21.66V191zm8.487-.82c-.47.63-1.25 1.02-2.2 1.02-1.79 0-2.8-1.25-2.8-2.72 0-1.49.94-2.72 2.59-2.72 1.4 0 2.32.95 2.32 2.27 0 .28-.04.54-.08.71h-3.53c.12.94.7 1.32 1.49 1.32.55 0 1.03-.24 1.3-.6zm-2.44-3.38c-.65 0-1.08.36-1.22 1.02h2.32c-.02-.51-.39-1.02-1.1-1.02m6.107 4.2v-1.22l2.4-2.36c.54-.55.88-.93.88-1.5 0-.58-.4-.92-.95-.92-.67 0-1.08.41-1.45 1.03l-1.1-.67c.59-.96 1.46-1.56 2.68-1.56s2.2.78 2.2 1.98c0 .96-.63 1.7-1.32 2.37l-1.69 1.63h3.19V191zm8.416-7.2c1.84 0 2.7 1.6 2.7 3.7s-.86 3.7-2.7 3.7-2.7-1.6-2.7-3.7.86-3.7 2.7-3.7m0 1.25c-.89 0-1.32.98-1.32 2.45 0 1.48.43 2.45 1.32 2.45.88 0 1.31-.98 1.31-2.45 0-1.48-.43-2.45-1.31-2.45m3.556 5.95v-1.22l2.4-2.36c.54-.55.88-.93.88-1.5 0-.58-.4-.92-.95-.92-.67 0-1.08.41-1.45 1.03l-1.1-.67c.59-.96 1.46-1.56 2.68-1.56s2.2.78 2.2 1.98c0 .96-.63 1.7-1.32 2.37l-1.69 1.63h3.19V191zm6.258-3.1.21-3.9h4.17v1.22h-2.88l-.08 1.46h.54c1.86 0 2.68.85 2.68 2.21 0 1.43-1.12 2.31-2.56 2.31-1.3 0-2.16-.57-2.74-1.58l1.18-.73c.4.77.88 1.11 1.56 1.11.69 0 1.18-.41 1.18-1.06 0-.66-.49-1.04-1.36-1.04z"/></g><defs><clipPath id="b"><path fill="#fff" d="M113.667 42.9h90v28h-90z"/></clipPath><clipPath id="c"><path fill="#fff" d="M113.667 70.9h90V79h-90z"/></clipPath><clipPath id="d"><path fill="#fff" d="M202.667 137.9h90v28h-90z"/></clipPath><clipPath id="e"><path fill="#fff" d="M202.667 165.9h90v8.1h-90z"/></clipPath><filter id="a" width="350" height="212" x="0" y="0" color-interpolation-filters="sRGB" filterUnits="userSpaceOnUse"><feFlood flood-opacity="0" result="BackgroundImageFix"/><feColorMatrix in="SourceAlpha" result="hardAlpha" values="0 0 0 0 0 0 0 0 0 0 0 0 0 0 0 0 0 0 127 0"/><feMorphology in="SourceAlpha" operator="dilate" radius="1" result="effect1_dropShadow_2656_9030"/><feOffset/><feComposite in2="hardAlpha" operator="out"/><feColorMatrix values="0 0 0 0 0.149038 0 0 0 0 0.145083 0 0 0 0 0.11763 0 0 0 0.1 0"/><feBlend in2="BackgroundImageFix" result="effect1_dropShadow_2656_9030"/><feBlend in="SourceGraphic" in2="effect1_dropShadow_2656_9030" result="shape"/></filter></defs></svg>