<svg xmlns="http://www.w3.org/2000/svg" width="350" height="212" fill="none" viewBox="0 0 350 212"><g filter="url(#a)"><g clip-path="url(#b)"><path fill="#fff" d="M1 11C1 5.477 5.477 1 11 1h338v210H1z"/><path fill="#161616" d="M51.618 61.737h2.86L58.402 72.1l3.922-10.364h2.86L60.164 75h-3.524zm16.504 2.046c-.852 0-1.572-.72-1.572-1.572s.72-1.573 1.572-1.573 1.554.72 1.554 1.573c0 .852-.701 1.572-1.554 1.572M66.91 75v-9.55h2.406V75zm4.329-1.383 1.591-1.44c.587.739 1.288 1.27 2.198 1.27.777 0 1.175-.455 1.175-1.024 0-1.667-4.567-1.042-4.567-4.396 0-1.686 1.421-2.955 3.41-2.955 1.46 0 2.786.7 3.468 1.63l-1.591 1.401c-.493-.606-1.118-1.099-1.857-1.099-.758 0-1.118.417-1.118.91 0 1.63 4.566 1.06 4.566 4.358-.038 2.008-1.648 3.107-3.448 3.107-1.705 0-2.918-.682-3.828-1.762m10.705-9.834c-.852 0-1.572-.72-1.572-1.572s.72-1.573 1.572-1.573 1.554.72 1.554 1.573c0 .852-.701 1.572-1.554 1.572M80.732 75v-9.55h2.406V75zm5.898-3.486V67.61h-1.781v-2.16h1.781v-2.388h2.425v2.388h2.918v2.16h-2.918v3.903c0 1.06.569 1.478 1.516 1.478.663 0 1.099-.076 1.421-.209v2.103c-.474.209-1.042.303-1.838.303-2.387 0-3.524-1.345-3.524-3.675m16.105 1.932c-.891 1.194-2.369 1.933-4.169 1.933-3.391 0-5.305-2.369-5.305-5.154 0-2.823 1.781-5.153 4.907-5.153 2.653 0 4.396 1.8 4.396 4.3a6.2 6.2 0 0 1-.151 1.346h-6.689c.227 1.78 1.326 2.5 2.823 2.5 1.042 0 1.952-.454 2.463-1.136zm-4.623-6.404c-1.232 0-2.047.682-2.312 1.933h4.396c-.038-.967-.74-1.933-2.084-1.933m5.84 6.575 1.592-1.44c.587.739 1.288 1.27 2.198 1.27.777 0 1.175-.455 1.175-1.024 0-1.667-4.567-1.042-4.567-4.396 0-1.686 1.421-2.955 3.411-2.955 1.459 0 2.785.7 3.467 1.63l-1.591 1.401c-.493-.606-1.118-1.099-1.857-1.099-.758 0-1.118.417-1.118.91 0 1.63 4.566 1.06 4.566 4.358-.038 2.008-1.648 3.107-3.448 3.107-1.706 0-2.918-.682-3.828-1.762M67.605 98.703c5.904 0 9.6 2.736 11.712 5.328l-6.192 5.184c-1.584-1.824-3.264-3.216-5.616-3.216-3.84 0-6.096 2.4-6.624 7.584 1.968-1.488 4.368-2.304 7.344-2.304 6.912 0 11.088 4.8 11.088 11.088 0 6.48-4.752 11.856-12.768 11.856-9.36 0-14.112-7.008-14.112-17.904 0-10.176 4.32-17.616 15.168-17.616m-1.008 19.728c-2.208 0-4.128.864-5.52 2.592.672 4.224 2.496 5.904 5.328 5.904 2.784 0 4.608-1.728 4.608-4.272s-1.728-4.224-4.416-4.224m17.406.72.96-19.488h21.216v7.296h-13.44l-.288 4.944h.96c9.648 0 13.68 3.888 13.68 10.8 0 7.2-5.568 11.52-12.672 11.52-6.576 0-10.944-3.024-13.776-8.16l7.103-4.368c1.776 3.696 3.745 5.328 6.672 5.328 2.64 0 4.416-1.584 4.416-3.936 0-2.64-2.064-3.936-5.856-3.936zm30.963 21.792h-7.056l4.56-15.6h8.544zm19.203-6.72c-5.904 0-9.6-2.736-11.712-5.328l6.192-5.184c1.584 1.824 3.312 3.216 5.616 3.216 3.84 0 6.096-2.4 6.624-7.584-1.968 1.488-4.368 2.304-7.344 2.304-6.912 0-11.088-4.8-11.088-11.088 0-6.48 4.752-11.856 12.768-11.856 9.36 0 14.112 7.008 14.112 17.904 0 10.176-4.32 17.616-15.168 17.616m-3.408-23.952c0 2.544 1.728 4.224 4.416 4.224 2.208 0 4.128-.864 5.52-2.592-.672-4.224-2.496-5.904-5.328-5.904-2.784 0-4.608 1.728-4.608 4.272m23.118 22.992v-36h7.68v19.392l7.008-7.584h9.456l-9.84 10.368 9.552 13.824h-9.312l-5.568-8.16-1.296 1.344v6.816z"/><g clip-path="url(#c)"><path stroke="#3558a2" stroke-linecap="round" stroke-width="2.842" d="m192.386 123.895 8.209-6.717a4.26 4.26 0 0 1 4.726-.452l6.978 3.769a4.26 4.26 0 0 0 4.517-.292l7.853-5.654a4.26 4.26 0 0 1 3.935-.551l9.392 3.381q.337.122.689.185l9.915 1.784a4.26 4.26 0 0 0 2.948-.54l10.112-6.067a4.3 4.3 0 0 1 .749-.356l10.735-3.864c.473-.17.913-.423 1.298-.747l8.327-6.995a4.264 4.264 0 0 1 5.695.189l8.733 8.383q.346.333.759.581l9.461 5.676a4.26 4.26 0 0 0 4.038.188l7.646-3.67a4.26 4.26 0 0 1 4.121.239l7.006 4.425"/></g><g clip-path="url(#d)"><path fill="#929292" d="M193.21 136.474v-5.77l-1.753.948-.435-.607 2.179-1.203h.852v6.632zm4.21 0v-5.77l-1.753.948-.436-.607 2.179-1.203h.853v6.632zm2.263 1.866 2.293-8.972h.814l-2.292 8.972zm3.898-1.866v-.768l2.245-2.311c.777-.815 1.127-1.185 1.127-1.886 0-.691-.502-1.089-1.174-1.089-.701 0-1.156.35-1.545.995l-.701-.427c.54-.843 1.279-1.335 2.312-1.335 1.108 0 1.989.72 1.989 1.8 0 .9-.587 1.572-1.383 2.406l-1.819 1.847h3.382v.768zm4.943-1.914v-.767l3.117-3.951h1.033v3.951h.767v.767h-.767v1.914h-.853v-1.914zm.91-.767h2.387v-3.023z"/><path fill="#e5e5e5" d="M224.819 133.749a.355.355 0 0 0 0 .503l2.261 2.261a.356.356 0 0 0 .502-.503l-2.009-2.01 2.009-2.009a.355.355 0 0 0-.502-.503zm72.976.503a.355.355 0 0 0 0-.503l-2.261-2.261a.356.356 0 0 0-.502.503l2.009 2.009-2.009 2.01a.355.355 0 0 0 .502.503zM225.07 134v.356h72.474v-.711H225.07z"/><path fill="#929292" d="M306.894 136.474v-5.77l-1.752.948-.436-.607 2.179-1.203h.852v6.632zm4.21 0v-5.77l-1.753.948-.436-.607 2.179-1.203h.853v6.632zm2.263 1.866 2.293-8.972h.815l-2.293 8.972zm3.898-1.866v-.768l2.245-2.311c.777-.815 1.128-1.185 1.128-1.886 0-.691-.503-1.089-1.175-1.089-.701 0-1.156.35-1.544.995l-.701-.427c.54-.843 1.278-1.335 2.311-1.335 1.109 0 1.99.72 1.99 1.8 0 .9-.588 1.572-1.384 2.406l-1.819 1.847h3.383v.768zm5.873-3.146.199-3.486h3.648v.767h-2.833l-.114 1.943h.957c1.563 0 2.302.852 2.302 2.027 0 1.269-.985 2.084-2.311 2.084-1.137 0-1.905-.464-2.435-1.345l.748-.464c.408.739.957 1.042 1.677 1.042.834 0 1.45-.483 1.45-1.289 0-.767-.54-1.279-1.469-1.279z"/></g><rect width="204.632" height="29" x="51.333" y="144.579" fill="#e8edff" rx="6.316"/><path fill="#0063cb" d="M66.349 162.453h-3.11v3.126h-1.706v-3.126h-3.126v-1.705h3.126v-3.127h1.706v3.127h3.11zm10.329-8.242c1.847 0 3 .837 3.726 1.8l-1.642 1.358c-.569-.758-1.216-1.232-2.084-1.232-1.595 0-2.448 1.153-2.59 3.316.71-.616 1.61-.963 2.7-.963 2.195 0 3.584 1.563 3.584 3.584 0 2.084-1.5 3.821-4.026 3.821-2.874 0-4.468-2.1-4.468-5.795 0-3.442 1.42-5.889 4.8-5.889m-.285 6.173c-.9 0-1.673.348-2.242 1.09.253 1.8 1.027 2.495 2.148 2.495 1.168 0 1.879-.774 1.879-1.816 0-1.027-.727-1.769-1.785-1.769m5.285 5.195v-1.926l3.79-3.727c.853-.868 1.39-1.468 1.39-2.368 0-.916-.632-1.453-1.5-1.453-1.058 0-1.706.648-2.29 1.627l-1.737-1.058c.932-1.516 2.305-2.463 4.232-2.463 1.926 0 3.473 1.231 3.473 3.126 0 1.516-.994 2.684-2.084 3.742l-2.668 2.574h5.037v1.926zm9.784 0v-11.842h2.02v6.932l2.922-3.048h2.51L95.647 161l3.253 4.579h-2.463l-2.211-3.126-.742.758v2.368zm20.339-1.295c-.742.995-1.973 1.611-3.473 1.611-2.827 0-4.421-1.974-4.421-4.295 0-2.352 1.484-4.295 4.089-4.295 2.211 0 3.663 1.5 3.663 3.585 0 .442-.063.852-.126 1.121h-5.574c.19 1.484 1.106 2.084 2.353 2.084.868 0 1.626-.379 2.053-.947zm-3.852-5.336c-1.027 0-1.706.568-1.927 1.61h3.664c-.032-.805-.616-1.61-1.737-1.61m5.67 6.631v-7.958h2.005v.632c.553-.537 1.295-.948 2.353-.948 1.721 0 3.094 1.185 3.094 3.537v4.737h-2.021v-4.658c0-1.058-.6-1.721-1.579-1.721-1.01 0-1.547.679-1.847 1.184v5.195zm14.412 0v-11.053h2.873l4.942 7.99v-7.99h2.242v11.053h-2.873l-4.942-7.989v7.989zm16.562-8.274c2.589 0 4.358 1.911 4.358 4.295s-1.769 4.295-4.358 4.295c-2.59 0-4.358-1.911-4.358-4.295s1.768-4.295 4.358-4.295m.031 6.695c1.279 0 2.242-1.026 2.242-2.4 0-1.389-.963-2.4-2.242-2.4-1.326 0-2.305 1.011-2.305 2.4s.979 2.4 2.305 2.4m4.926-6.379h2.148l2.068 5.684 2.053-5.684h2.163l-2.905 7.958h-2.637zm16.929 6.663c-.742.995-1.974 1.611-3.474 1.611-2.826 0-4.421-1.974-4.421-4.295 0-2.352 1.484-4.295 4.089-4.295 2.211 0 3.664 1.5 3.664 3.585 0 .442-.064.852-.127 1.121h-5.573c.189 1.484 1.105 2.084 2.352 2.084.869 0 1.626-.379 2.053-.947zm-3.853-5.336c-1.026 0-1.705.568-1.926 1.61h3.663c-.032-.805-.616-1.61-1.737-1.61m5.67 6.631v-7.958h2.005v.6c.537-.521 1.216-.916 2.195-.916 1.011 0 1.895.443 2.416 1.295.568-.695 1.326-1.295 2.668-1.295 1.642 0 2.937 1.137 2.937 3.379v4.895h-2.021v-4.816c0-.963-.521-1.563-1.421-1.563-.868 0-1.342.6-1.658 1.137.016.111.016.221.016.347v4.895h-2.021v-4.816c0-.963-.521-1.563-1.421-1.563-.916 0-1.39.679-1.69 1.184v5.195zm23.036-3.979c0 2.321-1.516 4.295-4.042 4.295-1.09 0-1.863-.347-2.479-.963v.647h-2.005v-11.842h2.005v4.532c.616-.616 1.389-.964 2.479-.964 2.526 0 4.042 1.974 4.042 4.295m-4.326-2.4c-.932 0-1.706.411-2.195 1.137v2.526c.537.742 1.295 1.137 2.195 1.137 1.358 0 2.242-1.01 2.242-2.4s-.884-2.4-2.242-2.4m6.162 6.379v-7.958h2.005v.79c.521-.537 1.2-.948 2.1-.948.268 0 .505.048.695.111v1.974a3.4 3.4 0 0 0-.885-.111c-.979 0-1.61.537-1.91 1.042v5.1zm13.401-1.295c-.742.995-1.974 1.611-3.474 1.611-2.826 0-4.421-1.974-4.421-4.295 0-2.352 1.485-4.295 4.09-4.295 2.21 0 3.663 1.5 3.663 3.585 0 .442-.063.852-.126 1.121h-5.574c.189 1.484 1.105 2.084 2.353 2.084.868 0 1.626-.379 2.052-.947zm-3.853-5.336c-1.026 0-1.705.568-1.926 1.61h3.663c-.031-.805-.615-1.61-1.737-1.61m9.642 6.631v-1.926l3.789-3.727c.853-.868 1.39-1.468 1.39-2.368 0-.916-.632-1.453-1.5-1.453-1.058 0-1.705.648-2.29 1.627l-1.736-1.058c.931-1.516 2.305-2.463 4.231-2.463 1.927 0 3.474 1.231 3.474 3.126 0 1.516-.995 2.684-2.084 3.742l-2.669 2.574H220v1.926zm13.289-11.368c2.905 0 4.263 2.526 4.263 5.842s-1.358 5.842-4.263 5.842c-2.906 0-4.264-2.526-4.264-5.842s1.358-5.842 4.264-5.842m0 1.973c-1.406 0-2.085 1.548-2.085 3.869 0 2.337.679 3.868 2.085 3.868 1.389 0 2.068-1.547 2.068-3.868 0-2.337-.679-3.869-2.068-3.869m5.615 9.395v-1.926l3.79-3.727c.852-.868 1.389-1.468 1.389-2.368 0-.916-.631-1.453-1.5-1.453-1.058 0-1.705.648-2.289 1.627l-1.737-1.058c.931-1.516 2.305-2.463 4.231-2.463 1.927 0 3.474 1.231 3.474 3.126 0 1.516-.995 2.684-2.084 3.742l-2.669 2.574h5.037v1.926zm9.88-4.895.332-6.158h6.584v1.927h-4.547l-.126 2.305h.852c2.937 0 4.232 1.342 4.232 3.49 0 2.257-1.769 3.647-4.042 3.647-2.053 0-3.411-.9-4.327-2.495l1.864-1.152c.631 1.215 1.389 1.752 2.463 1.752 1.089 0 1.863-.647 1.863-1.674 0-1.042-.774-1.642-2.148-1.642z"/></g></g><defs><clipPath id="b"><path fill="#fff" d="M1 11C1 5.477 5.477 1 11 1h338v210H1z"/></clipPath><clipPath id="c"><path fill="#fff" d="M190.965 81.263H333.07v44.211H190.965z"/></clipPath><clipPath id="d"><path fill="#fff" d="M190.965 125.474H333.07v12.79H190.965z"/></clipPath><filter id="a" width="350" height="212" x="0" y="0" color-interpolation-filters="sRGB" filterUnits="userSpaceOnUse"><feFlood flood-opacity="0" result="BackgroundImageFix"/><feColorMatrix in="SourceAlpha" result="hardAlpha" values="0 0 0 0 0 0 0 0 0 0 0 0 0 0 0 0 0 0 127 0"/><feMorphology in="SourceAlpha" operator="dilate" radius="1" result="effect1_dropShadow_2656_9288"/><feOffset/><feComposite in2="hardAlpha" operator="out"/><feColorMatrix values="0 0 0 0 0.149038 0 0 0 0 0.145083 0 0 0 0 0.11763 0 0 0 0.1 0"/><feBlend in2="BackgroundImageFix" result="effect1_dropShadow_2656_9288"/><feBlend in="SourceGraphic" in2="effect1_dropShadow_2656_9288" result="shape"/></filter></defs></svg>